<?xml version="1.0" encoding="UTF-8" standalone="no"?>
<svg
   xmlns:dc="http://purl.org/dc/elements/1.1/"
   xmlns:cc="http://creativecommons.org/ns#"
   xmlns:rdf="http://www.w3.org/1999/02/22-rdf-syntax-ns#"
   xmlns:svg="http://www.w3.org/2000/svg"
   xmlns="http://www.w3.org/2000/svg"
   xmlns:xlink="http://www.w3.org/1999/xlink"
   viewBox="0 0 16 16"
   version="1.1"
   id="svg5460"
   height="16"
   width="16">
  <defs
     id="defs5462">
    <linearGradient
       id="linearGradient4318">
      <stop
         id="stop4320"
         offset="0"
         style="stop-color:#ffffff;stop-opacity:1;" />
      <stop
         id="stop4322"
         offset="1"
         style="stop-color:#ffffff;stop-opacity:0;" />
    </linearGradient>
    <linearGradient
       id="linearGradient4279">
      <stop
         style="stop-color:#ffffff;stop-opacity:1;"
         offset="0"
         id="stop4281" />
      <stop
         id="stop4283"
         offset="0.2857143"
         style="stop-color:#ffffff;stop-opacity:0.23529412" />
      <stop
         style="stop-color:#ffffff;stop-opacity:0.15686275"
         offset="0.71428573"
         id="stop4285" />
      <stop
         style="stop-color:#ffffff;stop-opacity:0.39215687"
         offset="1"
         id="stop4287" />
    </linearGradient>
    <linearGradient
       id="linearGradient4178">
      <stop
         id="stop4180"
         offset="0"
         style="stop-color:#f5f5f5;stop-opacity:1" />
      <stop
         id="stop4182"
         offset="1"
         style="stop-color:#c3c3c3;stop-opacity:1" />
    </linearGradient>
    <linearGradient
       id="linearGradient4304">
      <stop
         style="stop-color:#ffffff;stop-opacity:1"
         offset="0"
         id="stop4306" />
      <stop
         style="stop-color:#e1e1e1;stop-opacity:1"
         offset="1"
         id="stop4308" />
    </linearGradient>
    <linearGradient
       id="linearGradient3779-3">
      <stop
         id="stop3781-6"
         offset="0"
         style="stop-color:#14aafa;stop-opacity:1" />
      <stop
         id="stop3783-7"
         offset="1"
         style="stop-color:#2850d2;stop-opacity:1" />
    </linearGradient>
    <radialGradient
       gradientUnits="userSpaceOnUse"
       gradientTransform="matrix(2.5288389e-8,2.3076923,-1.5384615,1.6858926e-8,14.974358,-14.461538)"
       r="6.5"
       fy="4.5333328"
       fx="8"
       cy="4.5333328"
       cx="8"
       id="radialGradient4201"
       xlink:href="#linearGradient4178" />
    <linearGradient
       gradientUnits="userSpaceOnUse"
       y2="15"
       x2="8"
       y1="1"
       x1="8"
       id="linearGradient4277"
       xlink:href="#linearGradient4279" />
    <radialGradient
       gradientUnits="userSpaceOnUse"
       gradientTransform="matrix(8.0595101e-8,2.4444445,-1.5555556,5.1287792e-8,16.626262,-14.555556)"
       r="4.5"
       fy="5.545455"
       fx="8"
       cy="5.545455"
       cx="8"
       id="radialGradient4311"
       xlink:href="#linearGradient3779-3" />
    <linearGradient
       gradientUnits="userSpaceOnUse"
       y2="7"
       x2="8"
       y1="13"
       x1="8"
       id="linearGradient4324"
       xlink:href="#linearGradient4318" />
    <radialGradient
       gradientTransform="matrix(7.4547795e-8,2.0873382,-1.3418603,4.7923583e-8,14.7093,-11.698706)"
       gradientUnits="userSpaceOnUse"
       r="6.7071066"
       fy="5"
       fx="8"
       cy="5"
       cx="8"
       id="radialGradient4334"
       xlink:href="#linearGradient4304" />
  </defs>
  <metadata
     id="metadata5465">
    <rdf:RDF>
      <cc:Work
         rdf:about="">
        <dc:format>image/svg+xml</dc:format>
        <dc:type
           rdf:resource="http://purl.org/dc/dcmitype/StillImage" />
        <dc:title />
      </cc:Work>
    </rdf:RDF>
  </metadata>
  <g
     id="layer1">
    <path
       id="rect4192"
       d="M 1.5,2 8,0.5 14.5,2 l 0,6 C 14.5,11 13,14 8,15.5 3,14 1.5,11 1.5,8 Z"
       style="opacity:1;fill:url(#radialGradient4201);fill-opacity:1;stroke:none;stroke-width:1;stroke-linecap:butt;stroke-linejoin:round;stroke-miterlimit:4;stroke-dasharray:none;stroke-opacity:1" />
    <path
       style="opacity:0.3;fill:none;fill-opacity:1;stroke:#000000;stroke-width:1;stroke-linecap:butt;stroke-linejoin:round;stroke-miterlimit:4;stroke-dasharray:none;stroke-opacity:1"
       d="M 1.5,2 8,0.5 14.5,2 l 0,6 C 14.5,11 13,14 8,15.5 3,14 1.5,11 1.5,8 Z"
       id="path4203" />
    <path
       id="rect4268"
       d="M 2.5,2.8 8,1.5 13.5,2.8 13.5,8 C 13.514478,10 13,13 8,14.5 3,13 2.5,10 2.5,8 Z"
       style="opacity:0.75;fill:none;fill-opacity:1;stroke:url(#linearGradient4277);stroke-width:1;stroke-linecap:butt;stroke-linejoin:round;stroke-miterlimit:4;stroke-dasharray:none;stroke-opacity:1" />
    <path
       id="rect4302"
       d="m 3.5,3.5 4.5,-1 4.5,1 0,4.5 C 12.5,10 12,12 8,13.5 4,12 3.5,10 3.5,8 Z"
       style="opacity:1;fill:url(#radialGradient4311);fill-opacity:1;stroke:none;stroke-width:1;stroke-linecap:butt;stroke-linejoin:round;stroke-miterlimit:4;stroke-dasharray:none;stroke-opacity:1" />
    <path
       id="path4326"
       d="M 10.863281 3.1367188 L 3.8476562 10.152344 C 4.1468909 10.915587 4.6953472 11.650182 5.6738281 12.326172 L 12.5 5.5 L 12.5 3.5 L 10.863281 3.1367188 z "
       style="fill:url(#radialGradient4334);fill-rule:evenodd;stroke:none;stroke-width:1px;stroke-linecap:butt;stroke-linejoin:miter;stroke-opacity:1;fill-opacity:1" />
    <path
       style="opacity:0.6;fill:none;fill-opacity:1;stroke:#0f2364;stroke-width:1;stroke-linecap:butt;stroke-linejoin:round;stroke-miterlimit:4;stroke-dasharray:none;stroke-opacity:1"
       d="m 3.5,3.5 4.5,-1 4.5,1 0,4.5 C 12.5,10 12,12 8,13.5 4,12 3.5,10 3.5,8 Z"
       id="path4313" />
    <path
       id="rect4315"
       d="M 4.5,4.2 8,3.5 11.5,4.2 11.5,8 C 11.5,10 11,11 8,12.5 5,11 4.5,10 4.5,8 Z"
       style="opacity:0.3;fill:none;fill-opacity:1;stroke:url(#linearGradient4324);stroke-width:1;stroke-linecap:butt;stroke-linejoin:round;stroke-miterlimit:4;stroke-dasharray:none;stroke-opacity:1" />
    <path
       style="opacity:0.15;fill:#000000;fill-opacity:1;stroke:none;stroke-width:1;stroke-linecap:butt;stroke-linejoin:round;stroke-miterlimit:4;stroke-dasharray:none;stroke-opacity:1"
       d="m 8,0.5 6.5,1.5 0,6 c 0,3 -1.5,6 -6.5,7.5 z"
       id="path4339" />
  </g>
</svg>
