<?xml version="1.0" encoding="UTF-8" standalone="no"?>
<!-- Created with Inkscape (http://www.inkscape.org/) -->

<svg
   xmlns:dc="http://purl.org/dc/elements/1.1/"
   xmlns:cc="http://creativecommons.org/ns#"
   xmlns:rdf="http://www.w3.org/1999/02/22-rdf-syntax-ns#"
   xmlns:svg="http://www.w3.org/2000/svg"
   xmlns="http://www.w3.org/2000/svg"
   xmlns:xlink="http://www.w3.org/1999/xlink"
   xmlns:sodipodi="http://sodipodi.sourceforge.net/DTD/sodipodi-0.dtd"
   xmlns:inkscape="http://www.inkscape.org/namespaces/inkscape"
   width="16"
   height="16"
   id="svg5460"
   version="1.1"
   inkscape:version="0.91 r"
   viewBox="0 0 16 16"
   sodipodi:docname="firefox.svg">
  <defs
     id="defs5462">
    <linearGradient
       inkscape:collect="always"
       id="linearGradient6028">
      <stop
         style="stop-color:#ffffff;stop-opacity:1;"
         offset="0"
         id="stop6030" />
      <stop
         id="stop6036"
         offset="0.22518581"
         style="stop-color:#ffffff;stop-opacity:0.23529412" />
      <stop
         style="stop-color:#ffffff;stop-opacity:0.15686275"
         offset="0.75916636"
         id="stop6038" />
      <stop
         style="stop-color:#ffffff;stop-opacity:0.39215687"
         offset="1"
         id="stop6032" />
    </linearGradient>
    <linearGradient
       inkscape:collect="always"
       xlink:href="#linearGradient6028"
       id="linearGradient6034"
       x1="7.9826732"
       y1="1.0173267"
       x2="7.9826732"
       y2="14.937624"
       gradientUnits="userSpaceOnUse" />
    <radialGradient
       cx="15.645058"
       cy="8.449769"
       r="19.99999"
       fx="-0.22334664"
       fy="8.44977"
       id="radialGradient5007-9"
       xlink:href="#linearGradient2867-449-88-871-390-598-476-591-434-148-57-177-3-8-0"
       gradientUnits="userSpaceOnUse"
       gradientTransform="matrix(-2.4562692e-8,0.40364921,-0.38029602,-2.7802769e-8,11.213458,0.595161)" />
    <linearGradient
       id="linearGradient2867-449-88-871-390-598-476-591-434-148-57-177-3-8-0">
      <stop
         id="stop3750-8-9-6"
         style="stop-color:#5bc2ee;stop-opacity:1"
         offset="0" />
      <stop
         id="stop3752-3-2-3"
         style="stop-color:#42baea;stop-opacity:1"
         offset="0.26238" />
      <stop
         id="stop3754-7-2-6"
         style="stop-color:#3689e6;stop-opacity:1"
         offset="0.704952" />
      <stop
         id="stop3756-9-3-1"
         style="stop-color:#2b63a0;stop-opacity:1"
         offset="1" />
    </linearGradient>
    <radialGradient
       inkscape:collect="always"
       xlink:href="#linearGradient4174"
       id="radialGradient4180"
       cx="19.199837"
       cy="1004.965"
       fx="19.199837"
       fy="1004.965"
       r="29.5"
       gradientTransform="matrix(1.8919987e-7,0.61404745,-0.4845765,1.4930737e-7,495.20943,-9.7371)"
       gradientUnits="userSpaceOnUse" />
    <linearGradient
       inkscape:collect="always"
       id="linearGradient4174">
      <stop
         style="stop-color:#ffc850;stop-opacity:1"
         offset="0"
         id="stop4176" />
      <stop
         id="stop4193"
         offset="0.33880642"
         style="stop-color:#ffbe3c;stop-opacity:1" />
      <stop
         style="stop-color:#ff780a;stop-opacity:1"
         offset="0.66458273"
         id="stop4195" />
      <stop
         style="stop-color:#ff6400;stop-opacity:1"
         offset="1"
         id="stop4178" />
    </linearGradient>
    <linearGradient
       inkscape:collect="always"
       xlink:href="#linearGradient6028"
       id="linearGradient4166"
       x1="7.9446545"
       y1="1.2283139"
       x2="7.9446545"
       y2="14.862173"
       gradientUnits="userSpaceOnUse" />
  </defs>
  <sodipodi:namedview
     id="base"
     pagecolor="#ffffff"
     bordercolor="#666666"
     borderopacity="1.0"
     inkscape:pageopacity="0.0"
     inkscape:pageshadow="2"
     inkscape:zoom="22.197802"
     inkscape:cx="5.5411238"
     inkscape:cy="6.6047068"
     inkscape:current-layer="layer1"
     showgrid="true"
     inkscape:grid-bbox="true"
     inkscape:document-units="px"
     inkscape:window-width="1366"
     inkscape:window-height="713"
     inkscape:window-x="0"
     inkscape:window-y="30"
     inkscape:window-maximized="1" />
  <metadata
     id="metadata5465">
    <rdf:RDF>
      <cc:Work
         rdf:about="">
        <dc:format>image/svg+xml</dc:format>
        <dc:type
           rdf:resource="http://purl.org/dc/dcmitype/StillImage" />
        <dc:title />
      </cc:Work>
    </rdf:RDF>
  </metadata>
  <g
     id="layer1"
     inkscape:label="Layer 1"
     inkscape:groupmode="layer">
    <path
       style="color:#000000;display:inline;overflow:visible;visibility:visible;fill:url(#radialGradient5007-9);fill-opacity:1;fill-rule:nonzero;stroke:none;stroke-width:1;marker:none;enable-background:accumulate"
       id="path2555-7-3"
       inkscape:connector-curvature="0"
       d="m 8,0.49999 c -4.138241,0 -7.5,3.361774 -7.5,7.50002 0,4.138246 3.361759,7.5 7.5,7.5 4.138241,0 7.500003,-3.361754 7.5,-7.5 C 15.5,3.861764 12.138241,0.49999 8,0.49999 Z" />
    <path
       style="opacity:0.4;fill:#000000;fill-opacity:1;stroke:none;stroke-width:1;stroke-linecap:butt;stroke-linejoin:round;stroke-miterlimit:4;stroke-dasharray:none;stroke-opacity:1"
       d="M 8.015625 1 C 7.9779761 1.0009577 7.9398203 1.0032617 7.9023438 1.0039062 L 7.2539062 1.0761719 L 6.2460938 1.3574219 C 6.3318338 1.3269519 6.4187845 1.294945 6.5078125 1.265625 L 6.4589844 1.1816406 A 7 7 0 0 0 6.2421875 1.2304688 C 6.169717 1.2482844 6.0989687 1.2692085 6.0273438 1.2890625 A 7 7 0 0 0 4.7949219 1.7792969 L 4.7421875 1.8925781 L 4.7109375 1.828125 A 7 7 0 0 0 4.546875 1.921875 L 4.5566406 2.0644531 L 4.3085938 2.2773438 L 4.1640625 2.6640625 L 4.4667969 2.6640625 L 4.5839844 2.4121094 L 4.625 2.3164062 C 4.757423 2.2210062 4.8827061 2.1152635 5.0175781 2.0234375 L 5.328125 2.1328125 C 5.532735 2.2744205 5.7385944 2.4191679 5.9433594 2.5605469 L 6.2460938 2.2773438 L 5.90625 2.1328125 L 5.7480469 1.8125 L 5.1699219 1.7441406 L 5.1582031 1.6757812 L 5.4101562 1.7304688 L 5.5507812 1.5859375 L 5.8671875 1.5195312 C 5.9415575 1.4826913 6.0128166 1.4538181 6.0878906 1.4238281 L 5.8925781 1.6132812 L 6.5976562 2.1054688 L 6.5976562 2.3984375 L 6.3222656 2.6777344 L 6.6933594 3.4257812 L 6.9414062 3.2773438 L 7.2519531 2.7851562 C 7.6937791 2.6460042 8.0966429 2.4815205 8.5136719 2.2890625 L 8.4863281 2.4785156 L 8.6933594 2.6230469 L 9.0585938 2.3710938 L 8.8789062 2.1601562 L 8.6308594 2.3027344 L 8.5488281 2.2773438 C 8.5668781 2.2689438 8.5853956 2.2624262 8.6035156 2.2539062 L 8.96875 1.2929688 L 8.2773438 1.0136719 A 7 7 0 0 0 8.015625 1 z M 4.5839844 2.4121094 L 4.8867188 2.6230469 L 5.1347656 2.6230469 L 5.1347656 2.3710938 L 4.8320312 2.2402344 L 4.5839844 2.4121094 z M 11.533203 2.2402344 L 11.001953 2.3710938 L 10.658203 2.5957031 L 10.658203 2.7988281 L 10.121094 3.1464844 L 10.224609 3.6660156 L 10.541016 3.4394531 L 10.738281 3.6660156 L 10.960938 3.8007812 L 11.105469 3.4121094 L 11.023438 3.1875 L 11.105469 3.0253906 L 11.416016 2.7324219 L 11.560547 2.7324219 L 11.416016 3.0527344 L 11.416016 3.3457031 C 11.545547 3.3097831 11.676037 3.2941237 11.808594 3.2773438 L 11.443359 3.5429688 L 11.416016 3.7050781 L 11.001953 4.0664062 L 10.568359 3.9589844 L 10.568359 3.7050781 L 10.369141 3.8417969 L 10.462891 4.0664062 L 10.146484 4.0664062 L 9.9765625 4.359375 L 9.7675781 4.5976562 L 9.3886719 4.6796875 L 9.609375 4.9042969 L 9.6640625 5.1308594 L 9.3886719 5.1308594 L 9.0234375 5.3339844 L 9.0234375 5.9199219 L 9.1894531 5.9199219 L 9.3476562 6.0917969 L 9.7011719 5.9199219 L 9.8320312 5.5585938 L 10.09375 5.4003906 L 10.148438 5.265625 L 10.568359 5.1582031 L 10.802734 5.4277344 L 11.050781 5.5585938 L 10.90625 5.8515625 L 11.132812 5.7851562 L 11.25 5.4921875 L 10.960938 5.1582031 L 11.078125 5.1582031 L 11.367188 5.4003906 L 11.416016 5.7207031 L 11.664062 6.0136719 L 11.732422 5.5859375 L 11.863281 5.5175781 C 12.002661 5.6650111 12.113074 5.8477819 12.230469 6.0136719 L 12.662109 6.0410156 L 12.912109 6.1992188 L 12.794922 6.375 L 12.544922 6.6015625 L 12.175781 6.6015625 L 11.691406 6.4394531 L 11.443359 6.4648438 L 11.263672 6.6816406 L 10.738281 6.1464844 L 10.369141 6.0410156 L 9.8320312 6.1054688 L 9.3613281 6.2402344 C 9.0924171 6.5507854 8.817008 6.864974 8.5625 7.1875 L 8.2636719 7.9355469 L 8.4042969 8.09375 L 8.1425781 8.4804688 L 8.4316406 9.1621094 C 8.6713506 9.4383634 8.9149359 9.7119003 9.1542969 9.9882812 L 9.5058594 9.6816406 L 9.6503906 9.8691406 L 10.029297 9.6132812 L 10.160156 9.7617188 L 10.541016 9.7617188 L 10.761719 10.013672 L 10.630859 10.470703 L 10.892578 10.777344 L 10.878906 11.308594 L 11.078125 11.697266 L 10.933594 12.029297 C 10.919554 12.268458 10.90625 12.499069 10.90625 12.738281 C 11.02178 13.062357 11.14091 13.384547 11.25 13.710938 L 11.316406 14.158203 A 7 7 0 0 0 12.923828 12.972656 L 12.78125 12.814453 L 13.105469 12.548828 L 13.421875 12.349609 L 13.566406 12.1875 L 13.476562 11.832031 L 13.476562 10.919922 L 13.724609 10.361328 L 14.035156 10.013672 L 14.378906 9.1621094 L 14.378906 8.9375 C 14.20949 8.95937 14.044684 8.9743281 13.878906 8.9863281 L 14.220703 8.6445312 L 14.691406 8.3242188 L 14.939453 8.0253906 L 14.939453 7.7050781 C 14.883023 7.5966711 14.828301 7.4795258 14.771484 7.3710938 L 14.546875 7.6425781 L 14.378906 7.4394531 L 14.126953 7.2421875 L 14.126953 6.8261719 L 14.416016 7.1601562 L 14.746094 7.1191406 C 14.821659 7.1890502 14.88905 7.2631468 14.960938 7.3320312 A 7 7 0 0 0 12.662109 2.7890625 L 12.400391 3.0800781 L 12.035156 2.6914062 L 12.400391 2.6914062 L 12.46875 2.6152344 A 7 7 0 0 0 12.238281 2.4394531 L 11.890625 2.3710938 L 11.533203 2.2402344 z M 3.7773438 2.4257812 A 7 7 0 0 0 3.6152344 2.546875 L 3.5351562 2.7597656 C 3.5351562 2.7597656 3.4184093 2.7800955 3.3300781 2.796875 A 7 7 0 0 0 1 8 A 7 7 0 0 0 1.015625 8.4570312 L 1.453125 8.7207031 L 2.0273438 8.8828125 L 2.2792969 9.1894531 L 2.6601562 9.4824219 L 2.8808594 9.4414062 L 3.0390625 9.5234375 L 3.0390625 9.5761719 L 2.8261719 10.175781 L 2.6601562 10.429688 L 2.7089844 10.550781 L 2.578125 11.029297 L 3.0664062 11.935547 L 3.5625 12.376953 L 3.7832031 12.697266 L 3.7578125 13.365234 L 3.875 13.646484 A 7 7 0 0 0 5.078125 14.351562 L 5.3964844 14.244141 L 5.671875 13.548828 L 5.5898438 13.365234 L 5.7753906 13.072266 L 6.1914062 12.976562 L 6.4042969 12.472656 L 6.3496094 11.839844 L 6.6796875 11.376953 L 6.7285156 10.892578 C 6.2793706 10.665671 5.8422834 10.436693 5.3964844 10.203125 L 5.1699219 9.7617188 L 4.7636719 9.6679688 L 4.5429688 9.0664062 L 4.0058594 9.1347656 L 3.5351562 8.7871094 L 3.0390625 9.2304688 L 3.0390625 9.2929688 C 2.8900235 9.2491688 2.710831 9.2452434 2.578125 9.1621094 L 2.4746094 8.8417969 L 2.4746094 8.4941406 L 2.1347656 8.5351562 C 2.1621756 8.3142243 2.1989725 8.0880435 2.2265625 7.8671875 L 2.0273438 7.8671875 L 1.8320312 8.1210938 L 1.6484375 8.2148438 L 1.3769531 8.0527344 L 1.3496094 7.7050781 L 1.4003906 7.3359375 L 1.8066406 7.015625 L 2.1347656 7.015625 L 2.1992188 6.8261719 L 2.6054688 6.921875 L 2.9082031 7.3085938 L 2.9570312 6.6679688 L 3.4824219 6.2265625 L 3.6660156 5.7617188 L 4.0585938 5.5996094 L 4.2675781 5.2792969 L 4.7636719 5.1855469 L 5.0175781 4.8105469 L 4.2675781 4.8105469 L 4.7421875 4.5859375 L 5.0664062 4.5859375 L 5.4863281 4.4414062 L 5.5625 4.8515625 L 5.7480469 4.5585938 L 5.5410156 4.4140625 L 5.5898438 4.2382812 L 5.4179688 4.0800781 L 5.2382812 4.0253906 L 5.2871094 3.828125 L 5.1484375 3.5429688 L 4.8183594 3.6796875 L 4.8730469 3.4257812 L 4.4921875 3.2011719 L 4.1914062 3.7324219 L 4.2167969 3.9179688 L 3.9140625 4.0527344 L 3.7304688 4.46875 L 3.6386719 4.0800781 L 3.1289062 3.8632812 L 3.0390625 3.5703125 L 3.7304688 3.1738281 L 4.0332031 2.8808594 L 4.0585938 2.5332031 L 3.8886719 2.4394531 L 3.7773438 2.4257812 z M 9.2851562 3.0527344 L 9.2851562 3.2636719 L 9.4023438 3.3984375 L 9.4023438 3.71875 L 9.3339844 4.1484375 L 9.6777344 4.0800781 L 9.9257812 3.828125 L 9.7011719 3.6113281 C 9.6289819 3.4154891 9.5551948 3.2405314 9.4648438 3.0527344 L 9.2851562 3.0527344 z M 8.9960938 3.4804688 L 8.7890625 3.5429688 L 8.8378906 3.9316406 L 9.1132812 3.7871094 L 8.9960938 3.4804688 z M 12.830078 6.9882812 L 13.146484 7.3632812 L 13.525391 8.1875 L 13.759766 8.453125 L 13.642578 8.7324219 L 13.855469 8.9863281 C 13.759329 8.9927281 13.665225 9 13.566406 9 C 13.386886 8.615721 13.242178 8.2281719 13.105469 7.8261719 L 12.871094 7.5605469 L 12.740234 7.078125 L 12.830078 6.9882812 z "
       id="path4384" />
    <path
       style="opacity:0.3;fill:#000000;fill-opacity:1;stroke:none;stroke-width:3;stroke-linejoin:round;stroke-miterlimit:4;stroke-dasharray:none;stroke-opacity:1"
       d="M 8 0 A 8 8 0 0 0 0 8 A 8 8 0 0 0 8 16 A 8 8 0 0 0 16 8 A 8 8 0 0 0 8 0 z M 8 1 A 6.9999981 6.9999981 0 0 1 15 8 A 6.9999981 6.9999981 0 0 1 8 15 A 6.9999981 6.9999981 0 0 1 1 8 A 6.9999981 6.9999981 0 0 1 8 1 z "
       id="path6008" />
    <path
       style="opacity:0.4;fill:url(#linearGradient6034);fill-opacity:1;stroke:none;stroke-width:3;stroke-linejoin:round;stroke-miterlimit:4;stroke-dasharray:none;stroke-opacity:1"
       d="M 8,1 A 7,7 0 0 0 1,8 7,7 0 0 0 8,15 7,7 0 0 0 15,8.0000001 7,7 0 0 0 8,1 Z M 8,2.0000001 A 6,6 0 0 1 14,8 6,6 0 0 1 8,14 6,6 0 0 1 2,8 6,6 0 0 1 8,2.0000001 Z"
       id="path6023"
       inkscape:connector-curvature="0" />
    <path
       style="clip-rule:evenodd;fill:url(#radialGradient4180);fill-opacity:1;fill-rule:evenodd"
       inkscape:connector-curvature="0"
       id="path7"
       d="M 7.395484,9.255429 C 6.385534,9.826624 4.990651,8.657667 4.990651,8.232429 5.003921,7.887099 5.136667,7.67448 5.402594,7.634641 c 0.252422,0 0.730724,0.06636 1.115919,0.185822 0.06636,-0.398415 -0.01327,-0.876762 -0.278964,-1.209051 0,-0.07963 0.863466,-0.677415 0.996445,-0.757296 C 7.368736,5.787756 7.422057,5.681565 7.4486,5.548624 7.554802,5.442429 7.581344,5.243082 7.42206,5.243082 7.3422,5.256302 6.797511,5.229862 6.611445,5.203272 6.359023,5.123392 5.801064,4.565442 5.641776,4.339577 5.787792,3.555738 6.080031,3.170569 6.757695,2.718825 6.026943,2.785205 5.083583,3.077442 4.48581,3.648891 4.073867,3.502654 3.290058,3.688701 2.957979,3.834738 2.426562,3.595577 2.2538,2.705554 2.17414,2.174121 1.615947,2.678986 1.230782,3.369662 1.244053,4.751518 0.765693,5.734679 0.5,6.837306 0.5,8.006747 c 0,4.131839 3.361231,7.493263 7.506737,7.493263 4.131827,0 7.493263,-3.361424 7.493263,-7.493263 0,-1.793797 -0.624755,-3.441331 -1.674315,-4.730009 0.292469,0.518136 0.465058,1.023 0.465058,1.341789 C 13.692968,2.705528 11.142119,1.908164 9.707188,1.988071 10.29169,2.09424 11.15539,2.320104 11.420849,2.904611 11.089034,2.811721 10.637247,2.864801 10.411133,2.997761 12.165108,3.515922 13.53368,4.791329 13.413739,5.920752 13.267753,5.681591 13.02878,5.495541 12.762851,5.455727 13.081896,6.69132 13.121709,7.701024 12.855781,8.511659 12.709793,7.980024 12.49739,7.634668 12.350937,7.541541 c 0.239385,1.567906 -0.03982,2.896169 -0.783605,3.706779 0.132717,-0.478296 0.172558,-0.890263 0.132717,-1.208822 -0.876974,1.315042 -1.833605,1.992865 -2.962795,2.032703 -1.115888,-0.01322 -2.019432,-0.398618 -2.816542,-1.195983 0.703975,0.06636 1.447968,0.05308 1.99289,-0.33183 L 8.830185,9.893057 c 0.07966,-0.03981 0.29247,-0.03981 0.372128,0 C 9.44123,9.866517 9.494785,9.693964 9.388145,9.534685 9.281942,9.374947 9.149228,9.242235 8.923114,9.122718 8.444813,8.870007 7.926873,8.923117 7.395486,9.25543 l 0,0 z" />
    <path
       d="M 7.395484,9.255429 C 6.385534,9.826624 4.990651,8.657667 4.990651,8.232429 5.003921,7.887099 5.136667,7.67448 5.402594,7.634641 c 0.252422,0 0.730724,0.06636 1.115919,0.185822 0.06636,-0.398415 -0.01327,-0.876762 -0.278964,-1.209051 0,-0.07963 0.863466,-0.677415 0.996445,-0.757296 C 7.368736,5.787756 7.422057,5.681565 7.4486,5.548624 7.554802,5.442429 7.581344,5.243082 7.42206,5.243082 7.3422,5.256302 6.797511,5.229862 6.611445,5.203272 6.359023,5.123392 5.801064,4.565442 5.641776,4.339577 5.787792,3.555738 6.080031,3.170569 6.757695,2.718825 6.026943,2.785205 5.083583,3.077442 4.48581,3.648891 4.073867,3.502654 3.290058,3.688701 2.957979,3.834738 2.426562,3.595577 2.2538,2.705554 2.17414,2.174121 1.615947,2.678986 1.230782,3.369662 1.244053,4.751518 0.765693,5.734679 0.5,6.837306 0.5,8.006747 c 0,4.131839 3.361231,7.493263 7.506737,7.493263 4.131827,0 7.493263,-3.361424 7.493263,-7.493263 0,-1.793797 -0.624755,-3.441331 -1.674315,-4.730009 0.292469,0.518136 0.465058,1.023 0.465058,1.341789 C 13.692968,2.705528 11.142119,1.908164 9.707188,1.988071 10.29169,2.09424 11.15539,2.320104 11.420849,2.904611 11.089034,2.811721 10.637247,2.864801 10.411133,2.997761 12.165108,3.515922 13.53368,4.791329 13.413739,5.920752 13.267753,5.681591 13.02878,5.495541 12.762851,5.455727 13.081896,6.69132 13.121709,7.701024 12.855781,8.511659 12.709793,7.980024 12.49739,7.634668 12.350937,7.541541 c 0.239385,1.567906 -0.03982,2.896169 -0.783605,3.706779 0.132717,-0.478296 0.172558,-0.890263 0.132717,-1.208822 -0.876974,1.315042 -1.833605,1.992865 -2.962795,2.032703 -1.115888,-0.01322 -2.019432,-0.398618 -2.816542,-1.195983 0.703975,0.06636 1.447968,0.05308 1.99289,-0.33183 L 8.830185,9.893057 c 0.07966,-0.03981 0.29247,-0.03981 0.372128,0 C 9.44123,9.866517 9.494785,9.693964 9.388145,9.534685 9.281942,9.374947 9.149228,9.242235 8.923114,9.122718 8.444813,8.870007 7.926873,8.923117 7.395486,9.25543 l 0,0 z"
       id="path4180"
       inkscape:connector-curvature="0"
       style="clip-rule:evenodd;fill:none;fill-opacity:1;fill-rule:evenodd;stroke:#6e0000;stroke-opacity:1;stroke-linejoin:round;opacity:0.3" />
    <path
       style="clip-rule:evenodd;fill:#ffffff;fill-opacity:1;fill-rule:evenodd;opacity:0.24999999"
       d="M 9.7070312 1.9882812 C 10.291533 2.0944503 11.154463 2.3197899 11.419922 2.9042969 C 11.088107 2.8114069 10.638223 2.8650869 10.412109 2.9980469 C 10.443747 3.0073932 10.472526 3.0214162 10.503906 3.03125 C 11.939323 3.2125646 13.792277 4.0230771 14.291016 5.6191406 C 14.291016 5.3003516 14.118641 4.7954798 13.826172 4.2773438 C 14.769621 5.4357354 15.364845 6.8848452 15.476562 8.46875 C 15.486022 8.3149631 15.5 8.1619861 15.5 8.0058594 C 15.5 6.2120624 14.875732 4.5660218 13.826172 3.2773438 C 14.118641 3.7954798 14.291016 4.3003516 14.291016 4.6191406 C 13.693241 2.7061416 11.141962 1.9083743 9.7070312 1.9882812 z M 2.1738281 2.1738281 C 1.6156351 2.6786931 1.2308696 3.3700971 1.2441406 4.7519531 C 0.76578062 5.7351141 0.5 6.8364184 0.5 8.0058594 C 0.5 8.1830792 0.51518004 8.3570692 0.52734375 8.53125 C 0.58948004 7.5392513 0.83153197 6.5999771 1.2441406 5.7519531 C 1.2308696 4.3700971 1.6156351 3.6786931 2.1738281 3.1738281 C 2.2534881 3.7052611 2.4256143 4.5948234 2.9570312 4.8339844 C 3.2891102 4.6879474 4.0743851 4.5022005 4.4863281 4.6484375 C 4.8290436 4.3208141 5.285289 4.0955324 5.75 3.9414062 C 5.9203759 3.4167637 6.2095881 3.084207 6.7578125 2.71875 C 6.0270605 2.78513 5.0841011 3.0769885 4.4863281 3.6484375 C 4.0743851 3.5022005 3.2891102 3.6879474 2.9570312 3.8339844 C 2.4256143 3.5948234 2.2534881 2.7052611 2.1738281 2.1738281 z M 5.8925781 4.609375 C 5.7835375 4.816169 5.6975046 5.0449887 5.6425781 5.3398438 C 5.8018661 5.5657087 6.3589061 6.123245 6.6113281 6.203125 C 6.6368896 6.2067779 6.6856932 6.2054396 6.7226562 6.2089844 C 6.9416415 6.0508122 7.1740505 5.890926 7.2363281 5.8535156 C 7.3690701 5.7871556 7.4226758 5.6817691 7.4492188 5.5488281 C 7.5554207 5.4426331 7.581159 5.2421875 7.421875 5.2421875 C 7.342015 5.2554075 6.7973941 5.229715 6.6113281 5.203125 C 6.4289883 5.1454228 6.1283412 4.860623 5.8925781 4.609375 z M 12.763672 5.4550781 C 12.861092 5.8323641 12.922202 6.1816512 12.966797 6.5175781 C 13.148651 6.5989343 13.30662 6.7439048 13.414062 6.9199219 C 13.464975 6.4405046 13.235111 5.9395048 12.833984 5.4765625 C 12.810225 5.4705678 12.78793 5.4587099 12.763672 5.4550781 z M 6.5253906 7.3710938 C 6.4019898 7.4679115 6.2402344 7.5860027 6.2402344 7.6113281 C 6.28147 7.6628992 6.3093749 7.7234875 6.3417969 7.78125 C 6.4004277 7.796264 6.4618766 7.8030376 6.5175781 7.8203125 C 6.5413912 7.6773425 6.5410279 7.5242069 6.5253906 7.3710938 z M 12.351562 7.5410156 C 12.41006 7.9241581 12.43429 8.2921128 12.431641 8.6425781 C 12.569659 8.7868764 12.732646 9.0644442 12.855469 9.5117188 C 13.013498 9.0299953 13.052346 8.4677933 13 7.8398438 C 12.971674 8.0767637 12.92429 8.3019292 12.855469 8.5117188 C 12.709481 7.9800838 12.498016 7.6341426 12.351562 7.5410156 z M 5.2597656 8.6855469 C 5.0915392 8.7722826 5.0007766 8.9580766 4.9902344 9.2324219 C 4.9902344 9.6576599 6.3845813 10.827054 7.3945312 10.255859 C 7.8256583 9.9862458 8.2470481 9.9112667 8.6464844 10.023438 L 8.8300781 9.8925781 C 8.9097381 9.8527681 9.123467 9.8527681 9.203125 9.8925781 C 9.442042 9.8660381 9.4953119 9.6944353 9.3886719 9.5351562 C 9.2824689 9.3754183 9.1499421 9.2425639 8.9238281 9.1230469 C 8.4455271 8.8703359 7.9259182 8.9235464 7.3945312 9.2558594 C 6.6542576 9.6745342 5.7127638 9.1585497 5.2597656 8.6855469 z M 12.390625 9.0800781 C 12.321272 9.8765612 12.098103 10.566729 11.699219 11.078125 C 11.732108 11.391688 11.694366 11.786894 11.566406 12.248047 C 12.221249 11.534371 12.492868 10.406532 12.390625 9.0800781 z M 11.699219 10.039062 C 10.822245 11.354105 9.8655181 12.032428 8.7363281 12.072266 C 8.2207909 12.066158 7.7556474 11.969689 7.3203125 11.800781 C 6.8826861 11.917807 6.3943917 11.921679 5.9199219 11.876953 C 6.7170319 12.674318 7.6204401 13.059046 8.7363281 13.072266 C 9.8139992 13.034245 10.732088 12.396815 11.576172 11.197266 C 11.697019 10.74214 11.737539 10.345459 11.699219 10.039062 z "
       id="path4157" />
    <path
       style="opacity:0.4;fill:none;fill-opacity:1;stroke:url(#linearGradient4166);stroke-width:1;stroke-linecap:butt;stroke-linejoin:round;stroke-miterlimit:4;stroke-dasharray:none;stroke-opacity:1;"
       id="path4158"
       sodipodi:type="arc"
       sodipodi:cx="8"
       sodipodi:cy="8"
       sodipodi:rx="6.5"
       sodipodi:ry="6.5"
       sodipodi:start="5.846853"
       sodipodi:end="3.5430184"
       d="M 13.891001,5.2529813 A 6.5,6.5 0 0 1 12.090582,13.051449 6.5,6.5 0 0 1 4.0882023,13.191131 6.5,6.5 0 0 1 2.0167185,5.4602476"
       sodipodi:open="true" />
  </g>
</svg>
