<?xml version="1.0" encoding="UTF-8" standalone="no"?>
<!-- Created with Inkscape (http://www.inkscape.org/) -->

<svg
   xmlns:dc="http://purl.org/dc/elements/1.1/"
   xmlns:cc="http://creativecommons.org/ns#"
   xmlns:rdf="http://www.w3.org/1999/02/22-rdf-syntax-ns#"
   xmlns:svg="http://www.w3.org/2000/svg"
   xmlns="http://www.w3.org/2000/svg"
   xmlns:xlink="http://www.w3.org/1999/xlink"
   xmlns:sodipodi="http://sodipodi.sourceforge.net/DTD/sodipodi-0.dtd"
   xmlns:inkscape="http://www.inkscape.org/namespaces/inkscape"
   width="16"
   height="16"
   id="svg3233"
   version="1.1"
   inkscape:version="0.91 r"
   sodipodi:docname="gimagereader.svg">
  <defs
     id="defs3235">
    <linearGradient
       inkscape:collect="always"
       id="linearGradient4818">
      <stop
         style="stop-color:#000000;stop-opacity:1;"
         offset="0"
         id="stop4820" />
      <stop
         style="stop-color:#000000;stop-opacity:0;"
         offset="1"
         id="stop4822" />
    </linearGradient>
    <linearGradient
       id="linearGradient4800">
      <stop
         offset="0"
         style="stop-color:#ffffff;stop-opacity:1"
         id="stop4802" />
      <stop
         offset="0.12499997"
         style="stop-color:#ffffff;stop-opacity:0.23529412"
         id="stop4804" />
      <stop
         offset="0.88888884"
         style="stop-color:#ffffff;stop-opacity:0.15686275"
         id="stop4806" />
      <stop
         offset="1"
         style="stop-color:#ffffff;stop-opacity:0.39215687"
         id="stop4808" />
    </linearGradient>
    <linearGradient
       inkscape:collect="always"
       xlink:href="#linearGradient6307"
       id="linearGradient4781"
       gradientUnits="userSpaceOnUse"
       gradientTransform="matrix(0.45454545,0,0,1,1,21.999931)"
       spreadMethod="reflect"
       x1="32"
       y1="1017.8702"
       x2="32"
       y2="1015.3622" />
    <linearGradient
       id="linearGradient6307">
      <stop
         style="stop-color:#cc0000;stop-opacity:1;"
         offset="0"
         id="stop6309" />
      <stop
         style="stop-color:#cc0000;stop-opacity:0;"
         offset="1"
         id="stop6311" />
    </linearGradient>
    <linearGradient
       inkscape:collect="always"
       xlink:href="#linearGradient3977"
       id="linearGradient4772"
       gradientUnits="userSpaceOnUse"
       gradientTransform="matrix(0.13513505,0,0,0.18918918,4.756603,1039.823)"
       x1="24.001152"
       y1="8.1357718"
       x2="24.001152"
       y2="39.85006" />
    <linearGradient
       id="linearGradient3977">
      <stop
         offset="0"
         style="stop-color:#ffffff;stop-opacity:1"
         id="stop3979" />
      <stop
         offset="0.16666667"
         style="stop-color:#ffffff;stop-opacity:0.23529412"
         id="stop3981" />
      <stop
         offset="0.83333331"
         style="stop-color:#ffffff;stop-opacity:0.15686275"
         id="stop3983" />
      <stop
         offset="1"
         style="stop-color:#ffffff;stop-opacity:0.39215687"
         id="stop3985" />
    </linearGradient>
    <linearGradient
       inkscape:collect="always"
       xlink:href="#linearGradient3600-4"
       id="linearGradient4775"
       gradientUnits="userSpaceOnUse"
       gradientTransform="matrix(0.17142818,0,0,0.17382729,3.8857631,1039.9242)"
       x1="25.132275"
       y1="0.98520643"
       x2="25.132275"
       y2="47.013336" />
    <linearGradient
       id="linearGradient3600-4">
      <stop
         offset="0"
         style="stop-color:#f4f4f4;stop-opacity:1"
         id="stop3602-7" />
      <stop
         offset="1"
         style="stop-color:#dbdbdb;stop-opacity:1"
         id="stop3604-6" />
    </linearGradient>
    <linearGradient
       id="linearGradient4035">
      <stop
         id="stop4037"
         style="stop-color:#ffffff;stop-opacity:1"
         offset="0" />
      <stop
         id="stop4039"
         style="stop-color:#ffffff;stop-opacity:0.23529412"
         offset="0.05555556" />
      <stop
         id="stop4041"
         style="stop-color:#ffffff;stop-opacity:0.15686275"
         offset="0.94444442" />
      <stop
         id="stop4043"
         style="stop-color:#ffffff;stop-opacity:0.39215687"
         offset="1" />
    </linearGradient>
    <radialGradient
       r="12.671875"
       fy="9.9571075"
       fx="7.1183534"
       cy="9.9571075"
       cx="7.1183534"
       gradientTransform="matrix(0,2.5780178,-2.5895311,0,33.976024,1015.3429)"
       gradientUnits="userSpaceOnUse"
       id="radialGradient5299"
       xlink:href="#linearGradient2867-449-88-871-390-598-476-591-434-148-57-177-8-3-3-6-4-8-8-8-5-7"
       inkscape:collect="always" />
    <linearGradient
       id="linearGradient2867-449-88-871-390-598-476-591-434-148-57-177-8-3-3-6-4-8-8-8-5-7">
      <stop
         id="stop3750-1-0-7-6-6-1-3-9-3-9"
         style="stop-color:#505050;stop-opacity:1"
         offset="0" />
      <stop
         id="stop3752-3-7-4-0-32-8-923-0-7-0"
         style="stop-color:#2b2b2b;stop-opacity:1"
         offset="0.26238" />
      <stop
         id="stop3754-1-8-5-2-7-6-7-1-9-1"
         style="stop-color:#0a0a0a;stop-opacity:1"
         offset="0.704952" />
      <stop
         id="stop3756-1-6-2-6-6-1-96-6-0-1"
         style="stop-color:#000000;stop-opacity:1"
         offset="1" />
    </linearGradient>
    <linearGradient
       inkscape:collect="always"
       xlink:href="#linearGradient4035"
       id="linearGradient4610"
       gradientUnits="userSpaceOnUse"
       gradientTransform="matrix(0.50861896,0,0,0.6010952,-0.30363,1025.323)"
       x1="16.80644"
       y1="20.620281"
       x2="16.80644"
       y2="42.728077" />
    <linearGradient
       id="linearGradient3282">
      <stop
         id="stop3284"
         style="stop-color:#ffffff;stop-opacity:1"
         offset="0" />
      <stop
         id="stop3286"
         style="stop-color:#ffffff;stop-opacity:0.23529412"
         offset="0.05555556" />
      <stop
         id="stop3288"
         style="stop-color:#ffffff;stop-opacity:0.15686275"
         offset="0.94444442" />
      <stop
         id="stop3290"
         style="stop-color:#ffffff;stop-opacity:0.39215687"
         offset="1" />
    </linearGradient>
    <linearGradient
       inkscape:collect="always"
       xlink:href="#linearGradient3994-617-9-9"
       id="linearGradient4899"
       x1="33"
       y1="988.36218"
       x2="33"
       y2="1048.3622"
       gradientUnits="userSpaceOnUse"
       gradientTransform="matrix(0.25490195,0,0,0.25423729,-0.41176471,785.4566)" />
    <linearGradient
       id="linearGradient3994-617-9-9">
      <stop
         id="stop4324-9-7"
         style="stop-color:#f0f0f0;stop-opacity:1"
         offset="0" />
      <stop
         id="stop2860-4-4"
         style="stop-color:#d7d7d8;stop-opacity:1"
         offset="0.08552461" />
      <stop
         id="stop2862-5-9"
         style="stop-color:#b2b2b3;stop-opacity:1"
         offset="0.92166406" />
      <stop
         id="stop4326-1-1"
         style="stop-color:#979798;stop-opacity:1"
         offset="1" />
    </linearGradient>
    <linearGradient
       id="linearGradient3688-166-749-654">
      <stop
         id="stop3088"
         style="stop-color:#181818;stop-opacity:1"
         offset="0" />
      <stop
         id="stop3090"
         style="stop-color:#181818;stop-opacity:0"
         offset="1" />
    </linearGradient>
    <linearGradient
       id="linearGradient3688-464-309-604">
      <stop
         id="stop3094"
         style="stop-color:#181818;stop-opacity:1"
         offset="0" />
      <stop
         id="stop3096"
         style="stop-color:#181818;stop-opacity:0"
         offset="1" />
    </linearGradient>
    <linearGradient
       inkscape:collect="always"
       xlink:href="#linearGradient3702-501-757-795"
       id="linearGradient3559"
       gradientUnits="userSpaceOnUse"
       gradientTransform="matrix(0.71428574,0,0,0.42857137,-1.1904699,1031.2194)"
       x1="25.058096"
       y1="47.027729"
       x2="25.058096"
       y2="39.999443" />
    <linearGradient
       id="linearGradient3702-501-757-795">
      <stop
         id="stop3100"
         style="stop-color:#181818;stop-opacity:0"
         offset="0" />
      <stop
         id="stop3102"
         style="stop-color:#181818;stop-opacity:1"
         offset="0.5" />
      <stop
         id="stop3104"
         style="stop-color:#181818;stop-opacity:0"
         offset="1" />
    </linearGradient>
    <linearGradient
       inkscape:collect="always"
       xlink:href="#linearGradient4818"
       id="linearGradient4824"
       x1="8"
       y1="1049.3622"
       x2="8"
       y2="1039.3622"
       gradientUnits="userSpaceOnUse" />
    <linearGradient
       inkscape:collect="always"
       xlink:href="#linearGradient7648"
       id="linearGradient7671"
       gradientUnits="userSpaceOnUse"
       gradientTransform="matrix(1.0389031,0,0,-0.797757,-1.5456379,37.324)"
       x1="21.9326"
       y1="24.627399"
       x2="21.9326"
       y2="7.1090999" />
    <linearGradient
       id="linearGradient7648"
       gradientUnits="userSpaceOnUse"
       x1="21.9326"
       y1="24.627399"
       x2="21.9326"
       y2="7.1090999">
      <stop
         offset="0"
         style="stop-color: rgb(133, 149, 188); stop-opacity: 1;"
         id="stop7650" />
      <stop
         offset="1"
         style="stop-color: rgb(4, 26, 59); stop-opacity: 1;"
         id="stop7652" />
    </linearGradient>
    <linearGradient
       inkscape:collect="always"
       xlink:href="#aigrd3"
       id="linearGradient7673"
       gradientUnits="userSpaceOnUse"
       gradientTransform="matrix(1.0389031,0,0,1.1067,-1.5456379,-4.92245)"
       x1="21.9326"
       y1="24.627399"
       x2="21.9326"
       y2="7.1090999" />
    <linearGradient
       y2="7.1090999"
       x2="21.9326"
       y1="24.627399"
       x1="21.9326"
       gradientUnits="userSpaceOnUse"
       id="aigrd3">
      <stop
         id="stop16199"
         style="stop-color: rgb(208, 214, 229); stroke-dasharray: none; stroke-miterlimit: 4; stroke-width: 1.21667;"
         offset="0" />
      <stop
         id="stop16201"
         style="stop-color: rgb(9, 58, 128); stroke-dasharray: none; stroke-miterlimit: 4; stroke-width: 1.21667;"
         offset="1" />
    </linearGradient>
    <linearGradient
       id="linearGradient6303-33-0-2-0-0">
      <stop
         offset="0"
         style="stop-color:#ffffff;stop-opacity:1"
         id="stop6305-1-0-2-0-2" />
      <stop
         offset="1"
         style="stop-color:#ffffff;stop-opacity:0"
         id="stop6307-5-0-6-1-8" />
    </linearGradient>
  </defs>
  <sodipodi:namedview
     id="base"
     pagecolor="#ffffff"
     bordercolor="#666666"
     borderopacity="1.0"
     inkscape:pageopacity="0.0"
     inkscape:pageshadow="2"
     inkscape:zoom="56.1875"
     inkscape:cx="8"
     inkscape:cy="8"
     inkscape:document-units="px"
     inkscape:current-layer="g4310"
     showgrid="false"
     showborder="false"
     inkscape:window-width="856"
     inkscape:window-height="687"
     inkscape:window-x="455"
     inkscape:window-y="41"
     inkscape:window-maximized="0">
    <inkscape:grid
       type="xygrid"
       id="grid4798"
       empspacing="5"
       visible="true"
       enabled="true"
       snapvisiblegridlinesonly="true" />
  </sodipodi:namedview>
  <metadata
     id="metadata3238">
    <rdf:RDF>
      <cc:Work
         rdf:about="">
        <dc:format>image/svg+xml</dc:format>
        <dc:type
           rdf:resource="http://purl.org/dc/dcmitype/StillImage" />
        <dc:title />
      </cc:Work>
    </rdf:RDF>
  </metadata>
  <g
     inkscape:label="Layer 1"
     inkscape:groupmode="layer"
     id="layer1"
     transform="translate(0,-1036.3622)">
    <rect
       style="fill:url(#linearGradient4899);stroke:none"
       id="rect4897"
       y="1036.8622"
       x="1.5"
       height="15"
       width="13" />
    <rect
       width="13"
       height="15"
       x="1.5"
       y="1036.8622"
       id="rect3993"
       style="opacity:0.5;fill:none;stroke:#000000;stroke-width:1;stroke-linecap:round;stroke-linejoin:round;stroke-miterlimit:4;stroke-opacity:1;stroke-dasharray:none" />
    <rect
       width="9"
       height="11"
       x="3.5000002"
       y="1038.8624"
       id="rect5505-21-3-8-5-2"
       style="opacity:0.9;color:#000000;fill:url(#radialGradient5299);fill-opacity:1;fill-rule:nonzero;stroke:none;stroke-width:1;marker:none;visibility:visible;display:inline;overflow:visible;enable-background:accumulate" />
    <rect
       style="opacity:0.69999999999999996;fill:none;stroke:#000000;stroke-width:1;stroke-linecap:round;stroke-linejoin:miter;stroke-miterlimit:4;stroke-opacity:1;stroke-dasharray:none"
       id="rect4935"
       y="1038.8622"
       x="3.5000002"
       height="11"
       width="9" />
    <path
       d="m 5.0000394,1040.3627 c 1.3749049,0 5.9999926,0 5.9999926,0 l 7e-6,7.9995 c 0,0 -3.9999989,0 -5.9999996,0 0,-2.6667 0,-5.3333 0,-8 z"
       inkscape:connector-curvature="0"
       id="path4160-3"
       style="fill:url(#linearGradient4775);fill-opacity:1;stroke:none;display:inline" />
    <path
       d="m 10.500041,1047.8635 -5.0000002,0 0,-7 5.0000002,0 z"
       inkscape:connector-curvature="0"
       id="rect6741-1"
       style="fill:none;stroke:url(#linearGradient4772);stroke-width:0.99999994000000003;stroke-linecap:round;stroke-linejoin:round;stroke-miterlimit:4;stroke-opacity:1;stroke-dasharray:none;stroke-dashoffset:0" />
    <path
       d="m 4.4999999,1039.8629 c 1.6040552,0 6.9999911,0 6.9999911,0 l 9e-6,8.9993 c 0,0 -4.6666669,0 -7.0000001,0 0,-2.9999 0,-6 0,-9 z"
       inkscape:connector-curvature="0"
       id="path4160-3-1"
       style="opacity:0.29999999999999999;fill:none;stroke:url(#linearGradient4824);stroke-width:1;stroke-linecap:round;stroke-linejoin:round;stroke-miterlimit:4;stroke-opacity:1;stroke-dasharray:none;stroke-dashoffset:0;display:inline;fill-opacity:1" />
    <g
       id="g4310"
       transform="matrix(0.17568392,0,0,0.16091759,2.3538075,1039.2212)">
      <g
         transform="translate(-0.06896484,-1.1087328)"
         id="g4271">
        <g
           id="g7654"
           transform="matrix(1.05477,0,0,1.04999,9.3197028,2.6090328)">
          <path
             inkscape:connector-curvature="0"
             id="path7644"
             d="m 5.512695,30 32.264462,0 0,-10.372625 -32.264462,0 0,10.372625 z"
             style="fill:url(#linearGradient7671);fill-opacity:1;fill-rule:nonzero;stroke:none;stroke-width:1.21667004;stroke-miterlimit:4" />
          <path
             inkscape:connector-curvature="0"
             style="fill:url(#linearGradient7673);fill-rule:nonzero;stroke:none;stroke-width:1.21667004;stroke-miterlimit:4"
             d="m 5.512695,5.237844 32.264462,0 0,14.389531 -32.264462,0 0,-14.389531 z"
             id="path16203" />
          <g
             id="g4465"
             transform="matrix(-1,0,0,1,44.050772,0)">
            <g
               transform="matrix(1.4435355,0,0,1.4435355,9.0574012,-10.377156)"
               style="fill-rule:nonzero;stroke:#000000;stroke-width:1.15611005;stroke-miterlimit:4"
               id="g16205">
              <g
                 id="g16207">
                <path
                   id="path16209"
                   d="m 18.4,15.4 c 0,2.2 -1.8,4.1 -4.1,4.1 -2.2,0 -4.1,-1.8 -4.1,-4.1 0,-2.2 1.8,-4.1 4.1,-4.1 2.2,0 4.1,1.8 4.1,4.1 z"
                   style="opacity:0.04999988;fill:#e8f52f;stroke:none"
                   inkscape:connector-curvature="0" />
                <path
                   id="path16211"
                   d="m 18,15.4 c 0,2 -1.6,3.7 -3.7,3.7 -2,0 -3.7,-1.6 -3.7,-3.7 0,-2 1.6,-3.7 3.7,-3.7 2,0 3.7,1.6 3.7,3.7 l 0,0 z"
                   style="opacity:0.2083;fill:#ecf751;stroke:none"
                   inkscape:connector-curvature="0" />
                <path
                   id="path16213"
                   d="m 17.6,15.4 c 0,1.8 -1.5,3.3 -3.3,3.3 -1.8,0 -3.3,-1.5 -3.3,-3.3 0,-1.8 1.5,-3.3 3.3,-3.3 1.8,0 3.3,1.5 3.3,3.3 l 0,0 z"
                   style="opacity:0.3667;fill:#f0f972;stroke:none"
                   inkscape:connector-curvature="0" />
                <path
                   id="path16215"
                   d="m 17.2,15.4 c 0,1.6 -1.3,2.9 -2.9,2.9 -1.6,0 -2.9,-1.3 -2.9,-2.9 0,-1.6 1.3,-2.9 2.9,-2.9 1.6,0 2.9,1.3 2.9,2.9 z"
                   style="opacity:0.525;fill:#f4fa95;stroke:none"
                   inkscape:connector-curvature="0" />
                <path
                   id="path16217"
                   d="m 16.8,15.4 c 0,1.4 -1.1,2.5 -2.5,2.5 -1.4,0 -2.5,-1.1 -2.5,-2.5 0,-1.4 1.1,-2.5 2.5,-2.5 1.4,0 2.5,1.1 2.5,2.5 l 0,0 z"
                   style="opacity:0.6833;fill:#f7fcb7;stroke:none"
                   inkscape:connector-curvature="0" />
                <path
                   id="path16219"
                   d="m 16.4,15.4 c 0,1.2 -1,2.1 -2.1,2.1 -1.1,0 -2.1,-1 -2.1,-2.1 0,-1.1 1,-2.1 2.1,-2.1 1.1,0 2.1,1 2.1,2.1 z"
                   style="opacity:0.8417;fill:#fbfddb;stroke:none"
                   inkscape:connector-curvature="0" />
                <path
                   id="path16221"
                   d="m 16,15.4 c 0,1 -0.8,1.8 -1.8,1.8 -1,0 -1.8,-0.8 -1.8,-1.8 0,-1 0.8,-1.8 1.8,-1.8 1,0 1.8,0.8 1.8,1.8 l 0,0 z"
                   style="fill:#ffffff;stroke:none"
                   inkscape:connector-curvature="0" />
              </g>
            </g>
            <path
               id="path16223"
               d="m 20.77979,20.34375 -8.681289,0 -1.664904,0.475688 2.854121,0 c 0,0 -2.854121,0.237842 -4.281184,2.021669 -1.427059,1.664904 1.664905,3.686575 1.664905,3.686575 0,0 0,0 0,0 0.118922,-0.356766 0.832454,-3.210889 2.259514,-4.400106 1.070297,-0.951374 2.259514,-1.189218 2.259514,-1.189218 l 5.589323,0 0,-0.475686 0,-0.118922 z"
               style="opacity:0.3;fill-rule:nonzero;stroke:none;stroke-width:1.21667004;stroke-miterlimit:4"
               inkscape:connector-curvature="0" />
            <path
               id="path16225"
               d="m 15.071543,21.05728 4.994715,0 -9.275897,5.232557 4.281182,-5.232557 0,0 z"
               style="opacity:0.3;fill-rule:nonzero;stroke:none;stroke-width:1.21667004;stroke-miterlimit:4"
               inkscape:connector-curvature="0" />
            <path
               id="path16227"
               d="m 20.77979,20.462672 -8.681289,0 -1.30814,-0.832453 2.854121,0 c 0,0 -2.616276,-0.475686 -2.973043,-3.448731 -0.356763,-2.973043 4.043341,-6.3028507 4.043341,-6.3028507 0,0 0,0 0,0.118922 -0.118921,0.7135297 -1.308138,5.7082427 -0.475688,7.6109927 0.356767,1.664901 1.427062,2.021667 1.427062,2.021667 l 5.470401,0 -0.237844,0.832453 -0.118921,0 z"
               style="fill:#515151;fill-rule:nonzero;stroke:none;stroke-width:1.21667004;stroke-miterlimit:4"
               inkscape:connector-curvature="0" />
            <path
               id="path16229"
               d="m 15.547231,19.154533 4.994714,0 -5.946086,-9.038054 0.951372,9.038054 z"
               style="fill:#515151;fill-rule:nonzero;stroke:none;stroke-width:1.21667004;stroke-miterlimit:4"
               inkscape:connector-curvature="0" />
          </g>
        </g>
      </g>
      <path
         sodipodi:nodetypes="cccccccccccccccccccccccccccccccccccccccccccccccccccccccc"
         inkscape:connector-curvature="0"
         style="fill:none;stroke:#515151;stroke-width:1.0820055px;stroke-linecap:butt;stroke-linejoin:miter;stroke-opacity:1"
         id="path3715"
         d="m 15.079164,35.599997 3.664989,0 m 0.523572,0 3.403203,0 m 0.547815,0 3.036705,0 m 0.499327,0 1.308924,0 m 0.52357,0 2.93199,0 m 0.575928,0 7.696476,0 m 0.523573,0 5.863982,0 m 0.52357,0 1.780137,0 m -33.40376,3 5.682729,0 m 0.661146,0 2.715335,0 m 0.501957,0 1.33997,0 m 0.545184,0 2.501224,0 m 0.523572,0 2.565128,0 m 0.484213,0 4.027857,0 m 0.523572,0 5.313689,0 m -27.385576,2.986685 4.809855,0 m 0.505276,0 7.921404,0 m 0.485493,0 3.841709,0 m 0.492397,0 3.593873,0 m 0.515385,0 3.061461,0 m 0.492398,0 4.814907,0.02663 m -30.534159,2.986685 6.687523,0 m 0.525144,0 7.227954,0 m 0.499327,0 2.840338,0 m 0.523573,0 6.760533,0 m 0.455026,0 4.633641,0 m 0.523573,0 1.833937,0 m 0.523571,0 1.014428,0" />
      <path
         inkscape:connector-curvature="0"
         id="path4306"
         d="m 15.304831,46.129129 33.798617,0.06625 -0.06855,10.600223 -33.93573,0 0,-10.798977"
         style="opacity:1;fill:#6dffff;fill-opacity:1;fill-rule:evenodd;stroke:none;stroke-width:1px;stroke-linecap:butt;stroke-linejoin:miter;stroke-opacity:1" />
      <text
         sodipodi:linespacing="125%"
         id="text4291"
         y="55.036251"
         x="20.182364"
         style="font-style:normal;font-weight:normal;font-size:12.5px;line-height:125%;font-family:sans-serif;letter-spacing:0px;word-spacing:0px;fill:#343434;fill-opacity:1;stroke:none;stroke-width:1px;stroke-linecap:butt;stroke-linejoin:miter;stroke-opacity:1"
         xml:space="preserve"><tspan
           style="font-style:normal;font-variant:normal;font-weight:bold;font-stretch:normal;font-size:10px;font-family:sans-serif;-inkscape-font-specification:'sans-serif Bold';fill:#343434;fill-opacity:1"
           y="55.036251"
           x="20.182364"
           id="tspan4293"
           sodipodi:role="line">OCR</tspan></text>
    </g>
    <g
       id="g4777"
       transform="matrix(0.5,0,0,1,2e-7,5.0001522)"
       style="stroke-width:1;stroke-linecap:round;stroke-linejoin:round;stroke-miterlimit:4;stroke-dasharray:none">
      <rect
         style="opacity:0.8;fill:url(#linearGradient4781);fill-opacity:1;stroke:none"
         id="rect5537"
         width="20"
         height="5"
         x="6"
         y="1037.3621" />
      <rect
         y="1039.3622"
         x="6"
         height="1"
         width="20"
         id="rect3099"
         style="opacity:0.8;fill:#ffffff;fill-opacity:1;stroke:none" />
    </g>
  </g>
</svg>
