<?xml version="1.0" encoding="UTF-8" standalone="no"?>
<svg
   xmlns:dc="http://purl.org/dc/elements/1.1/"
   xmlns:cc="http://creativecommons.org/ns#"
   xmlns:rdf="http://www.w3.org/1999/02/22-rdf-syntax-ns#"
   xmlns:svg="http://www.w3.org/2000/svg"
   xmlns="http://www.w3.org/2000/svg"
   xmlns:xlink="http://www.w3.org/1999/xlink"
   viewBox="0 0 16 16"
   version="1.1"
   id="svg5460"
   height="16"
   width="16">
  <defs
     id="defs5462">
    <linearGradient
       id="linearGradient6028">
      <stop
         id="stop6030"
         offset="0"
         style="stop-color:#ffffff;stop-opacity:1;" />
      <stop
         style="stop-color:#ffffff;stop-opacity:0.23529412"
         offset="0.22518581"
         id="stop6036" />
      <stop
         id="stop6038"
         offset="0.75916636"
         style="stop-color:#ffffff;stop-opacity:0.15686275" />
      <stop
         id="stop6032"
         offset="1"
         style="stop-color:#ffffff;stop-opacity:0.39215687" />
    </linearGradient>
    <radialGradient
       gradientTransform="matrix(2.508138e-8,1.8666667,-2,2.6872907e-8,16.059432,-8.2242822)"
       gradientUnits="userSpaceOnUse"
       r="7.5"
       fy="4.029716"
       fx="6.5487223"
       cy="4.029716"
       cx="6.5487223"
       id="radialGradient6021"
       xlink:href="#linearGradient3779" />
    <linearGradient
       gradientUnits="userSpaceOnUse"
       y2="15"
       x2="8"
       y1="1"
       x1="8"
       id="linearGradient4162"
       xlink:href="#linearGradient6028" />
    <linearGradient
       id="linearGradient3779">
      <stop
         id="stop3781"
         offset="0"
         style="stop-color:#fafafa;stop-opacity:1;" />
      <stop
         id="stop3783"
         offset="1"
         style="stop-color:#e1e1e1;stop-opacity:1;" />
    </linearGradient>
  </defs>
  <metadata
     id="metadata5465">
    <rdf:RDF>
      <cc:Work
         rdf:about="">
        <dc:format>image/svg+xml</dc:format>
        <dc:type
           rdf:resource="http://purl.org/dc/dcmitype/StillImage" />
        <dc:title />
      </cc:Work>
    </rdf:RDF>
  </metadata>
  <g
     id="layer1">
    <circle
       r="7.5"
       cy="8"
       cx="8"
       id="path6013"
       style="opacity:1;fill:url(#radialGradient6021);fill-opacity:1;stroke:none;stroke-width:3;stroke-linejoin:round;stroke-miterlimit:4;stroke-dasharray:none;stroke-opacity:1" />
    <path
       id="rect4152"
       d="M 9.8476562,0.7421875 13.763672,12.796875 A 7.5,7.5 0 0 0 15.5,8 7.5,7.5 0 0 0 9.8476562,0.7421875 Z"
       style="opacity:1;fill:#edb524;fill-opacity:1;stroke:none;stroke-width:1;stroke-linecap:butt;stroke-linejoin:round;stroke-miterlimit:4;stroke-dasharray:none;stroke-opacity:1" />
    <path
       id="rect4154"
       d="M 8,0.5 A 7.5,7.5 0 0 0 0.7421875,6.1523438 L 12.796875,2.2363281 A 7.5,7.5 0 0 0 8,0.5 Z"
       style="opacity:1;fill:#82d3e1;fill-opacity:1;stroke:none;stroke-width:1;stroke-linecap:butt;stroke-linejoin:round;stroke-miterlimit:4;stroke-dasharray:none;stroke-opacity:1" />
    <path
       id="rect4156"
       d="M 2.2363281,3.203125 A 7.5,7.5 0 0 0 0.5,8 7.5,7.5 0 0 0 6.1523438,15.257812 L 2.2363281,3.203125 Z"
       style="opacity:1;fill:#49c4a0;fill-opacity:1;stroke:none;stroke-width:1;stroke-linecap:butt;stroke-linejoin:round;stroke-miterlimit:4;stroke-dasharray:none;stroke-opacity:1" />
    <path
       id="rect4158"
       d="M 15.257812,9.8476562 3.203125,13.763672 A 7.5,7.5 0 0 0 8,15.5 7.5,7.5 0 0 0 15.257812,9.8476562 Z"
       style="opacity:1;fill:#e5186e;fill-opacity:1;stroke:none;stroke-width:1;stroke-linecap:butt;stroke-linejoin:round;stroke-miterlimit:4;stroke-dasharray:none;stroke-opacity:1" />
    <path
       id="rect4224"
       d="M 9.8476562,0.7421875 10.568359,2.9589844 12.794922,2.2363281 A 7.5,7.5 0 0 0 9.8476562,0.7421875 Z"
       style="opacity:1;fill:#789820;fill-opacity:1;stroke:none;stroke-width:1;stroke-linecap:butt;stroke-linejoin:round;stroke-miterlimit:4;stroke-dasharray:none;stroke-opacity:1" />
    <path
       id="rect4229"
       d="M 2.2363281,3.2050781 A 7.5,7.5 0 0 0 0.7421875,6.1523438 L 2.9589844,5.4316406 2.2363281,3.2050781 Z"
       style="opacity:1;fill:#20a48e;fill-opacity:1;stroke:none;stroke-width:1;stroke-linecap:butt;stroke-linejoin:round;stroke-miterlimit:4;stroke-dasharray:none;stroke-opacity:1" />
    <path
       id="rect4234"
       d="m 5.4316406,13.041016 -2.2265625,0.722656 a 7.5,7.5 0 0 0 2.9472657,1.49414 L 5.4316406,13.041016 Z"
       style="opacity:1;fill:#3f113e;fill-opacity:1;stroke:none;stroke-width:1;stroke-linecap:butt;stroke-linejoin:round;stroke-miterlimit:4;stroke-dasharray:none;stroke-opacity:1" />
    <path
       id="rect4239"
       d="m 15.257812,9.8476562 -2.216796,0.7207028 0.722656,2.226563 a 7.5,7.5 0 0 0 1.49414,-2.9472658 z"
       style="opacity:1;fill:#d6100e;fill-opacity:1;stroke:none;stroke-width:1;stroke-linecap:butt;stroke-linejoin:round;stroke-miterlimit:4;stroke-dasharray:none;stroke-opacity:1" />
    <circle
       style="opacity:0.3;fill:none;fill-opacity:1;stroke:#000000;stroke-width:1;stroke-linejoin:round;stroke-miterlimit:4;stroke-dasharray:none;stroke-opacity:1"
       id="circle4150"
       cx="8"
       cy="8"
       r="7.5" />
    <circle
       style="opacity:0.4;fill:none;fill-opacity:1;stroke:url(#linearGradient4162);stroke-width:1;stroke-linejoin:round;stroke-miterlimit:4;stroke-dasharray:none;stroke-opacity:1"
       id="circle4152"
       cx="7.9999986"
       cy="8"
       r="6.4999986" />
    <path
       id="path4461"
       d="M 7.627733,10.981529 C 7.090404,10.913099 6.442465,10.659277 6.146718,10.401389 6.014252,10.28589 5.996112,10.255045 6.000592,10.152855 6.006292,10.023938 6.27285,9.3845634 6.370535,9.2656284 l 0.06191,-0.07535 0.204992,0.158399 c 0.437263,0.337851 0.835398,0.496085 1.252423,0.497695 0.537334,0.0027 0.812447,-0.200753 0.812723,-0.599258 9.1e-5,-0.13268 -0.01713,-0.185534 -0.09246,-0.283606 -0.11975,-0.155944 -0.306988,-0.23427 -0.874539,-0.365833 -1.077944,-0.249924 -1.551985,-0.61982 -1.693566,-1.321568 -0.04507,-0.223416 -0.03734,-0.71312 0.0149,-0.942372 0.148412,-0.651484 0.60863,-1.118443 1.263079,-1.281695 0.363579,-0.09065 1.233137,-0.05814 1.625035,0.06079 0.322152,0.09777 0.675392,0.269506 0.775431,0.376932 0.06399,0.06875 0.06467,0.07696 0.02072,0.249298 -0.05911,0.231706 -0.288849,0.78831 -0.348422,0.844136 -0.0384,0.036 -0.100198,0.01418 -0.360634,-0.127307 -0.396751,-0.215507 -0.639787,-0.289088 -0.964635,-0.291979 -0.504009,-0.0044 -0.786456,0.216352 -0.786456,0.615021 0,0.124853 0.01855,0.180298 0.09257,0.276706 0.123849,0.161262 0.33266,0.245479 0.871458,0.351487 1.112688,0.218943 1.576203,0.576785 1.714671,1.323696 0.05418,0.292224 0.05376,0.480731 -0.0017,0.780073 -0.168764,0.9107906 -0.793409,1.4261306 -1.799799,1.4848756 -0.158047,0.0093 -0.396769,0.0027 -0.530493,-0.01418 z"
       style="fill:#5c3a58;fill-opacity:1" />
  </g>
</svg>
