<?xml version="1.0" encoding="UTF-8" standalone="no"?>
<!-- Created with Inkscape (http://www.inkscape.org/) -->

<svg
   xmlns:dc="http://purl.org/dc/elements/1.1/"
   xmlns:cc="http://creativecommons.org/ns#"
   xmlns:rdf="http://www.w3.org/1999/02/22-rdf-syntax-ns#"
   xmlns:svg="http://www.w3.org/2000/svg"
   xmlns="http://www.w3.org/2000/svg"
   xmlns:xlink="http://www.w3.org/1999/xlink"
   xmlns:sodipodi="http://sodipodi.sourceforge.net/DTD/sodipodi-0.dtd"
   xmlns:inkscape="http://www.inkscape.org/namespaces/inkscape"
   width="16"
   height="16"
   id="svg5310"
   version="1.1"
   inkscape:version="0.48.1 r9760"
   sodipodi:docname="Nuevo documento 22">
  <defs
     id="defs5312">
    <linearGradient
       inkscape:collect="always"
       xlink:href="#linearGradient3922"
       id="linearGradient4352"
       gradientUnits="userSpaceOnUse"
       x1="68.323135"
       y1="38.827156"
       x2="68.323135"
       y2="81.978249" />
    <linearGradient
       inkscape:collect="always"
       id="linearGradient3922">
      <stop
         style="stop-color:#000000;stop-opacity:1;"
         offset="0"
         id="stop3924" />
      <stop
         style="stop-color:#000000;stop-opacity:0;"
         offset="1"
         id="stop3926" />
    </linearGradient>
    <linearGradient
       inkscape:collect="always"
       xlink:href="#linearGradient3882-6"
       id="linearGradient4350"
       gradientUnits="userSpaceOnUse"
       gradientTransform="matrix(0.46671968,0,0,0.47309918,1.0426046,24.599019)"
       x1="23.184526"
       y1="4.0244036"
       x2="23.184526"
       y2="42.351448" />
    <linearGradient
       id="linearGradient3882-6">
      <stop
         offset="0"
         style="stop-color:#ffffff;stop-opacity:1;"
         id="stop3884-6" />
      <stop
         id="stop3886-6"
         style="stop-color:#ffffff;stop-opacity:0.23529412;"
         offset="0.4393521" />
      <stop
         offset="0.83473867"
         style="stop-color:#ffffff;stop-opacity:0.15686275;"
         id="stop3888-9" />
      <stop
         offset="1"
         style="stop-color:#ffffff;stop-opacity:0.39215687;"
         id="stop3890-06" />
    </linearGradient>
    <radialGradient
       inkscape:collect="always"
       xlink:href="#linearGradient4183"
       id="radialGradient4348"
       gradientUnits="userSpaceOnUse"
       gradientTransform="matrix(0.1527556,-0.1075382,0.05629658,0.08216909,-10.683103,50.211965)"
       cx="92.339943"
       cy="25.526768"
       fx="92.339943"
       fy="25.526768"
       r="23" />
    <linearGradient
       id="linearGradient4183">
      <stop
         offset="0"
         style="stop-color:#fa9654;stop-opacity:1;"
         id="stop4185" />
      <stop
         offset="1"
         style="stop-color:#4e2002;stop-opacity:0;"
         id="stop4187" />
    </linearGradient>
    <radialGradient
       inkscape:collect="always"
       xlink:href="#linearGradient4189"
       id="radialGradient4344"
       gradientUnits="userSpaceOnUse"
       gradientTransform="matrix(0,0.57072993,-0.49616895,0,193.48448,219.90795)"
       cx="20.248743"
       cy="4.9115634"
       fx="20.248743"
       fy="4.9115634"
       r="23" />
    <linearGradient
       id="linearGradient4189">
      <stop
         offset="0"
         style="stop-color:#f0d000;stop-opacity:1"
         id="stop4191" />
      <stop
         offset="0.26238"
         style="stop-color:#f09c18;stop-opacity:1"
         id="stop4193" />
      <stop
         offset="0.704952"
         style="stop-color:#f07018;stop-opacity:1"
         id="stop4195" />
      <stop
         offset="1"
         style="stop-color:#e82818;stop-opacity:1"
         id="stop4197" />
    </linearGradient>
    <linearGradient
       inkscape:collect="always"
       xlink:href="#linearGradient4199"
       id="linearGradient4346"
       gradientUnits="userSpaceOnUse"
       gradientTransform="matrix(0.33340314,0,0,0.32238008,183.42688,230.50105)"
       x1="18.138792"
       y1="45.21809"
       x2="18.138792"
       y2="2.9999995" />
    <linearGradient
       id="linearGradient4199">
      <stop
         offset="0"
         style="stop-color:#505050;stop-opacity:1;"
         id="stop4201" />
      <stop
         offset="1"
         style="stop-color:#878787;stop-opacity:1;"
         id="stop4203" />
    </linearGradient>
  </defs>
  <sodipodi:namedview
     id="base"
     pagecolor="#ffffff"
     bordercolor="#666666"
     borderopacity="1.0"
     inkscape:pageopacity="0.0"
     inkscape:pageshadow="2"
     inkscape:zoom="44.5625"
     inkscape:cx="7.9953846"
     inkscape:cy="8.0000018"
     inkscape:document-units="px"
     inkscape:current-layer="layer1"
     showgrid="false"
     fit-margin-top="0"
     fit-margin-left="0"
     fit-margin-right="0"
     fit-margin-bottom="0" />
  <metadata
     id="metadata5315">
    <rdf:RDF>
      <cc:Work
         rdf:about="">
        <dc:format>image/svg+xml</dc:format>
        <dc:type
           rdf:resource="http://purl.org/dc/dcmitype/StillImage" />
        <dc:title></dc:title>
      </cc:Work>
    </rdf:RDF>
  </metadata>
  <g
     inkscape:label="Capa 1"
     inkscape:groupmode="layer"
     id="layer1"
     transform="translate(-183.42856,-230.07646)">
    <path
       sodipodi:nodetypes="sscczcccssss"
       d="m 190.36589,231.72073 c -3.84013,0.54744 -6.6816,3.10579 -6.42342,5.87582 0.16719,1.7937 1.59098,3.27008 3.62706,4.04903 l -0.68558,2.58309 c 0,0 -0.0732,0.24184 0.0319,0.32727 0.10501,0.0854 0.35791,-0.0957 0.35791,-0.0957 l 3.20578,-2.24183 0.026,-0.002 c 0.46399,0.0215 0.93013,0.0286 1.41386,-0.014 4.12779,-0.36414 7.26615,-3.02002 6.99527,-5.92627 -0.27088,-2.90626 -3.84908,-4.96961 -7.97687,-4.60546 -0.19349,0.0171 -0.383,0.0235 -0.57186,0.0505 z"
       id="path4330"
       style="fill:url(#radialGradient4344);fill-opacity:1;fill-rule:evenodd;stroke:url(#linearGradient4346);stroke-width:0.9952504;stroke-linecap:butt;stroke-linejoin:round;stroke-miterlimit:4;stroke-opacity:1;stroke-dasharray:none;stroke-dashoffset:0;marker:none;visibility:visible;display:inline;overflow:visible;enable-background:new"
       inkscape:connector-curvature="0" />
    <path
       d="m 13.625,26.78125 c -0.655261,-0.03793 -1.326457,-0.0027 -2.03125,0.0625 -0.296653,0.02743 -0.532862,0.03005 -0.75,0.0625 -2.5878229,0.386741 -4.8421979,1.477129 -6.375,2.9375 -1.5320392,1.459646 -2.3515642,3.27966 -2.1875,5.125 0.2125496,2.390675 2.0336612,4.410572 4.75,5.5 A 0.3198148,0.3198148 0 0 1 7.15625,40.5625 0.3198148,0.3198148 0 0 1 7.09375,41 L 7.375,41.09375 6.53125,44.34375 10.625,41.375 a 0.3198148,0.3198148 0 0 1 0.0625,-0.03125 0.3198148,0.3198148 0 0 1 0.03125,-0.03125 0.3198148,0.3198148 0 0 1 0.0625,0 0.3198148,0.3198148 0 0 1 0.03125,0 0.3198148,0.3198148 0 0 1 0.03125,-0.03125 0.3198148,0.3198148 0 0 1 0.0625,0 l 0.03125,0 a 0.3198148,0.3198148 0 0 1 0.03125,0 c 0.02074,0.001 0.0418,-9.36e-4 0.0625,0 0.610817,0.02761 1.218496,0.02658 1.84375,-0.03125 2.783629,-0.257435 5.226592,-1.355205 6.90625,-2.84375 1.680464,-1.489258 2.609556,-3.346034 2.4375,-5.28125 -0.150673,-1.694763 -1.103962,-3.217187 -2.625,-4.34375 -1.520976,-1.12652 -3.643727,-1.865407 -5.96875,-2 z"
       id="path4332"
       style="fill:url(#radialGradient4348);fill-opacity:1;fill-rule:evenodd;stroke:none;stroke-width:0.99525028;marker:none;visibility:visible;display:inline;overflow:visible;enable-background:new"
       inkscape:original="M 13.65625 26.46875 C 12.977113 26.42944 12.275848 26.46529 11.5625 26.53125 C 11.283922 26.55701 11.030184 26.55655 10.78125 26.59375 C 8.1326654 26.989572 5.8370334 28.11296 4.25 29.625 C 2.6629671 31.137041 1.794754 33.042951 1.96875 35 C 2.1940777 37.534399 4.1091251 39.628172 6.90625 40.75 A 0.2100306 0.21290146 0 0 1 6.96875 40.78125 A 0.2100306 0.21290146 0 0 1 7 40.8125 A 0.2100306 0.21290146 0 0 1 7.03125 40.84375 A 0.2100306 0.21290146 0 0 1 7.0625 40.90625 A 0.2100306 0.21290146 0 0 1 7.0625 40.96875 A 0.2100306 0.21290146 0 0 1 7.0625 41 L 6 45.125 L 10.8125 41.625 A 0.2100306 0.21290146 0 0 1 10.84375 41.59375 A 0.2100306 0.21290146 0 0 1 10.90625 41.59375 L 10.9375 41.59375 A 0.2100306 0.21290146 0 0 1 10.96875 41.59375 C 11.611868 41.62491 12.241656 41.62397 12.90625 41.5625 C 15.754271 41.29911 18.26274 40.195843 20 38.65625 C 21.737259 37.11666 22.713812 35.147131 22.53125 33.09375 C 22.371526 31.297187 21.361611 29.701751 19.78125 28.53125 C 18.20089 27.360747 16.037301 26.606586 13.65625 26.46875 z "
       inkscape:radius="-0.31978282"
       sodipodi:type="inkscape:offset"
       transform="matrix(0.71435415,0,0,0.712994,182.68208,212.90983)" />
    <path
       transform="matrix(0.71679774,0,0,0.68142177,182.63658,213.73874)"
       d="m 11.6875,27.8125 c -0.288108,0.02665 -0.507166,0.04049 -0.65625,0.0625 -2.211749,0.326526 -4.2999639,1.224187 -5.71875,2.46875 -1.4187861,1.244563 -2.1696097,2.730012 -2.03125,4.5 0.1853048,2.370538 1.9448792,3.99893 4.40625,4.8125 A 1.0273125,1.0273125 0 0 1 8.375,40.875 l -0.25,1.09375 2.03125,-1.5 a 1.0273125,1.0273125 0 0 1 0.625,-0.1875 c 0.603171,0.02656 1.497365,0.07196 1.9375,0.03125 2.055453,-0.190091 4.359357,-1.072121 6.03125,-2.375 1.671893,-1.302879 2.650459,-2.911928 2.5,-4.59375 -0.168379,-1.870737 -1.307728,-3.28909 -3.09375,-4.28125 -1.786022,-0.99216 -4.18396,-1.4613 -6.46875,-1.25 z"
       id="path4334"
       style="opacity:0.4;fill:none;stroke:url(#linearGradient4350);stroke-width:1.42405272;stroke-linecap:butt;stroke-linejoin:miter;stroke-miterlimit:4;stroke-opacity:1;stroke-dasharray:none;stroke-dashoffset:0;marker:none;visibility:visible;display:inline;overflow:visible;enable-background:new"
       inkscape:original="M 11.59375 26.78125 C 11.353244 26.8035 11.109788 26.80909 10.875 26.84375 C 6.1009819 27.548551 1.9179748 30.690016 2.25 34.9375 C 2.4730111 37.790401 4.6522087 39.725021 7.375 40.625 L 6.46875 44.4375 L 10.75 41.3125 C 11.326514 41.33789 12.211232 41.39936 12.8125 41.34375 C 17.358756 40.923307 22.661956 37.505521 22.28125 33.25 C 21.875611 28.743233 16.559901 26.321974 11.59375 26.78125 z "
       inkscape:radius="-1.0272098"
       sodipodi:type="inkscape:offset" />
    <g
       style="display:inline;enable-background:new"
       transform="matrix(0.13113808,0,0,0.12509249,182.57275,229.81258)"
       id="g4336">
      <path
         inkscape:connector-curvature="0"
         id="path4338"
         d="m 80.777658,30.018031 -13.25825,13.25825 -13.23616,-13.23616 -9.50174,9.50175 13.23615,13.23615 -13.23615,13.23616 9.50174,9.50175 13.23616,-13.23616 13.25825,13.25825 9.50175,-9.50174 -13.25825,-13.25826 13.25825,-13.25825 -9.50175,-9.50174 z"
         style="color:#000000;fill:#505050;fill-opacity:1;fill-rule:nonzero;stroke:none;stroke-width:0.99999994;marker:none;visibility:visible;display:inline;overflow:visible;enable-background:accumulate" />
      <path
         style="color:#000000;fill:#ffffff;fill-opacity:1;fill-rule:nonzero;stroke:none;stroke-width:0.99999994;marker:none;visibility:visible;display:inline;overflow:visible;enable-background:accumulate"
         d="m 80.777658,37.28036 -13.25825,13.25825 -13.23616,-13.23616 -9.50174,9.50175 13.23615,13.23615 -13.23615,13.23616 9.50174,9.50175 13.23616,-13.23616 13.25825,13.25825 9.50175,-9.50174 -13.25825,-13.25826 13.25825,-13.25825 -9.50175,-9.50174 z"
         id="path4340"
         inkscape:connector-curvature="0" />
      <path
         sodipodi:type="inkscape:offset"
         inkscape:radius="-2.8022521"
         inkscape:original="M 80.78125 37.28125 L 67.53125 50.53125 L 54.28125 37.3125 L 44.78125 46.8125 L 58.03125 60.03125 L 44.78125 73.28125 L 54.28125 82.78125 L 67.53125 69.53125 L 80.78125 82.8125 L 90.28125 73.3125 L 77.03125 60.03125 L 90.28125 46.78125 L 80.78125 37.28125 z "
         style="opacity:0.07000002;color:#000000;fill:none;stroke:url(#linearGradient4352);stroke-width:7.80764341;stroke-linecap:square;stroke-linejoin:miter;stroke-miterlimit:4;stroke-opacity:1;stroke-dasharray:none;stroke-dashoffset:0;marker:none;visibility:visible;display:inline;overflow:visible;enable-background:accumulate"
         id="path4342"
         d="M 80.78125,41.21875 69.5,52.5 a 2.8025323,2.8025323 0 0 1 -3.9375,0 L 54.28125,41.25 48.71875,46.8125 60,58.0625 A 2.8025323,2.8025323 0 0 1 60,62 l -11.28125,11.28125 5.5625,5.5625 L 65.5625,67.5625 a 2.8025323,2.8025323 0 0 1 3.9375,0 L 80.78125,78.875 86.34375,73.3125 75.0625,62 a 2.8025323,2.8025323 0 0 1 0,-3.9375 l 11.28125,-11.28125 -5.5625,-5.5625 z" />
    </g>
  </g>
</svg>
