<?xml version="1.0" encoding="UTF-8" standalone="no"?>
<!-- Created with Inkscape (http://www.inkscape.org/) -->

<svg
   xmlns:dc="http://purl.org/dc/elements/1.1/"
   xmlns:cc="http://creativecommons.org/ns#"
   xmlns:rdf="http://www.w3.org/1999/02/22-rdf-syntax-ns#"
   xmlns:svg="http://www.w3.org/2000/svg"
   xmlns="http://www.w3.org/2000/svg"
   xmlns:xlink="http://www.w3.org/1999/xlink"
   xmlns:sodipodi="http://sodipodi.sourceforge.net/DTD/sodipodi-0.dtd"
   xmlns:inkscape="http://www.inkscape.org/namespaces/inkscape"
   width="32"
   height="32"
   id="svg8120"
   version="1.1"
   inkscape:version="0.48.1 r9760"
   sodipodi:docname="Nuevo documento 38">
  <defs
     id="defs8122">
    <radialGradient
       inkscape:collect="always"
       xlink:href="#linearGradient6945-2"
       id="radialGradient7496"
       gradientUnits="userSpaceOnUse"
       gradientTransform="matrix(1,0,0,0.33333333,0,33.785016)"
       cx="170.58949"
       cy="50.677525"
       fx="170.58949"
       fy="50.677525"
       r="7.4246206" />
    <linearGradient
       inkscape:collect="always"
       id="linearGradient6945-2">
      <stop
         style="stop-color:#000000;stop-opacity:1;"
         offset="0"
         id="stop6947-7" />
      <stop
         style="stop-color:#000000;stop-opacity:0;"
         offset="1"
         id="stop6949-6" />
    </linearGradient>
    <linearGradient
       inkscape:collect="always"
       xlink:href="#linearGradient7343-2"
       id="linearGradient7498"
       gradientUnits="userSpaceOnUse"
       gradientTransform="matrix(0.66585645,0,0,0.66639176,44.553022,51.033908)"
       x1="157.5466"
       y1="42.738346"
       x2="157.5466"
       y2="8.2586107" />
    <linearGradient
       id="linearGradient7343-2">
      <stop
         id="stop7345-3"
         offset="0"
         style="stop-color:#388ccc;stop-opacity:1;" />
      <stop
         id="stop7347-8"
         offset="1"
         style="stop-color:#78b1dc;stop-opacity:1;" />
    </linearGradient>
    <linearGradient
       inkscape:collect="always"
       xlink:href="#linearGradient6977-69"
       id="linearGradient7500"
       gradientUnits="userSpaceOnUse"
       x1="156.71875"
       y1="-10.294855"
       x2="156.71875"
       y2="51.989662" />
    <linearGradient
       inkscape:collect="always"
       id="linearGradient6977-69">
      <stop
         style="stop-color:#ffffff;stop-opacity:1;"
         offset="0"
         id="stop6979-4" />
      <stop
         style="stop-color:#ffffff;stop-opacity:0;"
         offset="1"
         id="stop6981-9" />
    </linearGradient>
    <radialGradient
       inkscape:collect="always"
       xlink:href="#linearGradient6945-7-2"
       id="radialGradient7502"
       gradientUnits="userSpaceOnUse"
       gradientTransform="matrix(1,0,0,0.33333333,0,33.785016)"
       cx="170.58949"
       cy="50.677525"
       fx="170.58949"
       fy="50.677525"
       r="7.4246206" />
    <linearGradient
       inkscape:collect="always"
       id="linearGradient6945-7-2">
      <stop
         style="stop-color:#000000;stop-opacity:1;"
         offset="0"
         id="stop6947-5-2" />
      <stop
         style="stop-color:#000000;stop-opacity:0;"
         offset="1"
         id="stop6949-9-6" />
    </linearGradient>
  </defs>
  <sodipodi:namedview
     id="base"
     pagecolor="#ffffff"
     bordercolor="#666666"
     borderopacity="1.0"
     inkscape:pageopacity="0.0"
     inkscape:pageshadow="2"
     inkscape:zoom="5.6"
     inkscape:cx="43.761353"
     inkscape:cy="-22.763035"
     inkscape:document-units="px"
     inkscape:current-layer="layer1"
     showgrid="false"
     fit-margin-top="0"
     fit-margin-left="0"
     fit-margin-right="0"
     fit-margin-bottom="0" />
  <metadata
     id="metadata8125">
    <rdf:RDF>
      <cc:Work
         rdf:about="">
        <dc:format>image/svg+xml</dc:format>
        <dc:type
           rdf:resource="http://purl.org/dc/dcmitype/StillImage" />
        <dc:title></dc:title>
      </cc:Work>
    </rdf:RDF>
  </metadata>
  <g
     inkscape:label="Capa 1"
     inkscape:groupmode="layer"
     id="layer1"
     transform="translate(-306.23865,-351.47876)">
    <g
       style="display:inline;enable-background:new"
       id="g7488"
       transform="translate(172.55088,297.47876)">
      <path
         transform="matrix(0.68850665,0,0,0.78195382,40.904218,43.437279)"
         d="m 178.01411,50.677525 c 0,1.366834 -3.32411,2.474873 -7.42462,2.474873 -4.1005,0 -7.42462,-1.108039 -7.42462,-2.474873 0,-1.366835 3.32412,-2.474874 7.42462,-2.474874 4.10051,0 7.42462,1.108039 7.42462,2.474874 z"
         sodipodi:ry="2.4748735"
         sodipodi:rx="7.4246206"
         sodipodi:cy="50.677525"
         sodipodi:cx="170.58949"
         id="path6943-6"
         style="opacity:0.3;color:#000000;fill:url(#radialGradient7496);fill-opacity:1;fill-rule:nonzero;stroke:none;stroke-width:1;marker:none;visibility:visible;display:inline;overflow:visible;enable-background:accumulate"
         sodipodi:type="arc" />
      <path
         inkscape:connector-curvature="0"
         id="path6667-4"
         d="m 155.56377,55.677826 c -2.16047,0 -3.9119,1.752828 -3.9119,3.915051 0,0.698553 0.17904,1.348087 0.49939,1.915876 l -4.28645,4.289898 c -0.77348,-0.314651 -1.61057,-0.499794 -2.49696,-0.499794 -1.14919,0 -2.24016,0.299227 -3.18363,0.812165 l -1.12363,-4.185774 c 0.3445,-0.388278 0.56181,-0.897621 0.56181,-1.457731 0,-1.214526 -0.9921,-2.186598 -2.20564,-2.186598 -1.21355,0 -2.18485,0.972072 -2.18485,2.186598 0,1.084202 0.77873,1.984907 1.8103,2.165773 l 1.33171,4.935464 c -1.03448,1.174376 -1.66463,2.705362 -1.66463,4.39402 0,3.68038 2.98113,6.663917 6.65856,6.663917 2.03727,0 3.85576,-0.910638 5.07715,-2.353195 l 3.3709,1.957526 c -0.0888,0.35961 -0.12485,0.737476 -0.12485,1.124536 0,2.576266 2.0868,4.664742 4.661,4.664742 2.57419,0 4.66099,-2.088476 4.66099,-4.664742 0,-2.576266 -2.0868,-4.664743 -4.66099,-4.664743 -1.42093,0 -2.70325,0.641679 -3.55817,1.645155 l -3.24605,-1.874226 c 0.30975,-0.769179 0.47858,-1.618806 0.47858,-2.49897 0,-2.011284 -0.90197,-3.796909 -2.30969,-5.018763 l 3.93272,-3.935876 c 0.56382,0.31531 1.22257,0.499794 1.91433,0.499794 2.16049,0 3.91191,-1.752828 3.91191,-3.915052 0,-2.162223 -1.75142,-3.915051 -3.91191,-3.915051 z"
         style="opacity:0.98999999;color:#000000;fill:url(#linearGradient7498);fill-opacity:1;fill-rule:nonzero;stroke:#255f8f;stroke-width:1;stroke-linecap:round;stroke-linejoin:round;stroke-miterlimit:4;stroke-opacity:1;stroke-dasharray:none;stroke-dashoffset:0;marker:none;visibility:visible;display:inline;overflow:visible;enable-background:accumulate" />
      <text
         transform="scale(0.99959827,1.0004019)"
         sodipodi:linespacing="125%"
         id="text6939-04"
         y="75.249954"
         x="142.20743"
         style="font-size:11.87787437px;font-style:normal;font-variant:normal;font-weight:bold;font-stretch:normal;line-height:125%;letter-spacing:0px;word-spacing:0px;fill:#ffffff;fill-opacity:1;stroke:none;display:inline;enable-background:new;font-family:Droid Sans;-inkscape-font-specification:Droid Sans Bold"
         xml:space="preserve"><tspan
           y="75.249954"
           x="142.20743"
           id="tspan6941-6"
           sodipodi:role="line">a</tspan></text>
      <path
         transform="matrix(0.66585644,0,0,0.66639177,44.553021,51.033908)"
         d="m 166.71875,8.40625 c -2.47479,0 -4.4375,1.962702 -4.4375,4.4375 0,0.804646 0.19836,1.542604 0.5625,2.1875 a 1.424675,1.424675 0 0 1 -0.25,1.6875 l -6.4375,6.4375 a 1.424675,1.424675 0 0 1 -1.53125,0.3125 c -1.01009,-0.410569 -2.08576,-0.625 -3.21875,-0.625 -1.47881,0 -2.87738,0.370476 -4.09375,1.03125 A 1.424675,1.424675 0 0 1 145.25,23 l -1.6875,-6.28125 a 1.424675,1.424675 0 0 1 0.3125,-1.3125 c 0.30418,-0.342551 0.46875,-0.77824 0.46875,-1.25 0,-1.046152 -0.81256,-1.84375 -1.875,-1.84375 -1.06244,0 -1.84375,0.781314 -1.84375,1.84375 0,0.94431 0.65381,1.69003 1.53125,1.84375 a 1.424675,1.424675 0 0 1 1.125,1.03125 l 2,7.40625 a 1.424675,1.424675 0 0 1 -0.3125,1.3125 c -1.33726,1.516862 -2.125,3.476891 -2.125,5.65625 0,4.752973 3.80952,8.5625 8.5625,8.5625 2.63547,0 4.95662,-1.141742 6.53125,-3 a 1.424675,1.424675 0 0 1 1.8125,-0.3125 l 5.0625,2.9375 a 1.424675,1.424675 0 0 1 0.65625,1.5625 c -0.0991,0.401243 -0.125,0.851477 -0.125,1.34375 0,3.096118 2.46639,5.5625 5.5625,5.5625 3.09611,0 5.5625,-2.466382 5.5625,-5.5625 0,-3.096118 -2.46639,-5.5625 -5.5625,-5.5625 -1.70546,0 -3.22783,0.769921 -4.25,1.96875 a 1.424675,1.424675 0 0 1 -1.8125,0.28125 l -4.875,-2.8125 a 1.424675,1.424675 0 0 1 -0.59375,-1.75 c 0.39632,-0.983366 0.59375,-2.080277 0.59375,-3.21875 0,-2.591937 -1.14604,-4.88797 -2.96875,-6.46875 a 1.424675,1.424675 0 0 1 -0.0625,-2.0625 l 5.90625,-5.90625 a 1.424675,1.424675 0 0 1 1.6875,-0.25 c 0.64087,0.358107 1.40164,0.5625 2.1875,0.5625 2.47479,0 4.4375,-1.962702 4.4375,-4.4375 0,-2.474798 -1.96271,-4.4375 -4.4375,-4.4375 z"
         id="path6975-3"
         style="opacity:0.98999999;color:#000000;fill:none;stroke:url(#linearGradient7500);stroke-width:1.50122178;stroke-linecap:round;stroke-linejoin:round;stroke-miterlimit:4;stroke-opacity:1;stroke-dasharray:none;stroke-dashoffset:0;marker:none;visibility:visible;display:inline;overflow:visible;enable-background:accumulate"
         inkscape:original="M 166.71875 6.96875 C 163.47408 6.96875 160.84375 9.599077 160.84375 12.84375 C 160.84375 13.89201 161.11265 14.866714 161.59375 15.71875 L 155.15625 22.15625 C 153.99461 21.684079 152.73745 21.40625 151.40625 21.40625 C 149.68036 21.40625 148.04193 21.855276 146.625 22.625 L 144.9375 16.34375 C 145.45489 15.761092 145.78125 14.996762 145.78125 14.15625 C 145.78125 12.33371 144.29129 10.875 142.46875 10.875 C 140.64621 10.875 139.1875 12.33371 139.1875 14.15625 C 139.1875 15.783225 140.35702 17.134839 141.90625 17.40625 L 143.90625 24.8125 C 142.35262 26.574792 141.40625 28.872217 141.40625 31.40625 C 141.40625 36.929097 145.8834 41.40625 151.40625 41.40625 C 154.46588 41.40625 157.19693 40.039729 159.03125 37.875 L 164.09375 40.8125 C 163.96041 41.352137 163.90625 41.919172 163.90625 42.5 C 163.90625 46.365993 167.04026 49.5 170.90625 49.5 C 174.77224 49.5 177.90625 46.365993 177.90625 42.5 C 177.90625 38.634007 174.77224 35.5 170.90625 35.5 C 168.77226 35.5 166.84644 36.462915 165.5625 37.96875 L 160.6875 35.15625 C 161.15269 34.002007 161.40625 32.72704 161.40625 31.40625 C 161.40625 28.388079 160.05165 25.708536 157.9375 23.875 L 163.84375 17.96875 C 164.69052 18.44191 165.67983 18.71875 166.71875 18.71875 C 169.96342 18.71875 172.59375 16.088423 172.59375 12.84375 C 172.59375 9.599077 169.96342 6.96875 166.71875 6.96875 z "
         inkscape:radius="-1.4245325"
         sodipodi:type="inkscape:offset" />
      <path
         transform="matrix(1.2954585,0,0,0.78195382,-75.510802,43.437279)"
         d="m 178.01411,50.677525 c 0,1.366834 -3.32411,2.474873 -7.42462,2.474873 -4.1005,0 -7.42462,-1.108039 -7.42462,-2.474873 0,-1.366835 3.32412,-2.474874 7.42462,-2.474874 4.10051,0 7.42462,1.108039 7.42462,2.474874 z"
         sodipodi:ry="2.4748735"
         sodipodi:rx="7.4246206"
         sodipodi:cy="50.677525"
         sodipodi:cx="170.58949"
         id="path6943-0-0"
         style="opacity:0.15;color:#000000;fill:url(#radialGradient7502);fill-opacity:1;fill-rule:nonzero;stroke:none;stroke-width:1;marker:none;visibility:visible;display:inline;overflow:visible;enable-background:accumulate"
         sodipodi:type="arc" />
    </g>
  </g>
</svg>
