<?xml version="1.0" encoding="UTF-8" standalone="no"?>
<!-- Created with Inkscape (http://www.inkscape.org/) -->

<svg
   xmlns:dc="http://purl.org/dc/elements/1.1/"
   xmlns:cc="http://creativecommons.org/ns#"
   xmlns:rdf="http://www.w3.org/1999/02/22-rdf-syntax-ns#"
   xmlns:svg="http://www.w3.org/2000/svg"
   xmlns="http://www.w3.org/2000/svg"
   xmlns:xlink="http://www.w3.org/1999/xlink"
   xmlns:sodipodi="http://sodipodi.sourceforge.net/DTD/sodipodi-0.dtd"
   xmlns:inkscape="http://www.inkscape.org/namespaces/inkscape"
   width="32"
   height="32"
   id="svg6278"
   version="1.1"
   inkscape:version="0.48.1 r9760"
   sodipodi:docname="Nuevo documento 14">
  <defs
     id="defs6280">
    <radialGradient
       inkscape:collect="always"
       xlink:href="#linearGradient8838-561-565"
       id="radialGradient4694"
       gradientUnits="userSpaceOnUse"
       gradientTransform="matrix(-1.5875075,0,0,0.55224048,264.06567,43.647002)"
       cx="62.625"
       cy="4.625"
       fx="62.625"
       fy="4.625"
       r="10.625" />
    <linearGradient
       id="linearGradient8838-561-565">
      <stop
         offset="0"
         style="stop-color:#0a0a0a;stop-opacity:1"
         id="stop4621" />
      <stop
         offset="1"
         style="stop-color:#0a0a0a;stop-opacity:0"
         id="stop4623" />
    </linearGradient>
    <radialGradient
       inkscape:collect="always"
       xlink:href="#linearGradient2867-449-88-871-390-598-476-591-434-148-57-177-3-8"
       id="radialGradient4696"
       gradientUnits="userSpaceOnUse"
       gradientTransform="matrix(0,1.2984649,1.0913819,0,160.12575,-7.2370097)"
       cx="20.248743"
       cy="4.9115634"
       fx="20.248743"
       fy="4.9115634"
       r="23" />
    <linearGradient
       id="linearGradient2867-449-88-871-390-598-476-591-434-148-57-177-3-8">
      <stop
         offset="0"
         style="stop-color:#58bed4;stop-opacity:1;"
         id="stop3750-8-9" />
      <stop
         offset="0.26238"
         style="stop-color:#28acc8;stop-opacity:1;"
         id="stop3752-3-2" />
      <stop
         offset="0.704952"
         style="stop-color:#1799b5;stop-opacity:1;"
         id="stop3754-7-2" />
      <stop
         offset="1"
         style="stop-color:#175765;stop-opacity:1;"
         id="stop3756-9-3" />
    </linearGradient>
    <linearGradient
       inkscape:collect="always"
       xlink:href="#linearGradient3707-319-631-407-324-3-8"
       id="linearGradient4698"
       gradientUnits="userSpaceOnUse"
       gradientTransform="matrix(-0.73335938,0,0,0.73344536,182.24864,16.863305)"
       x1="18.138792"
       y1="45.21809"
       x2="18.138792"
       y2="2.9999995" />
    <linearGradient
       id="linearGradient3707-319-631-407-324-3-8">
      <stop
         offset="0"
         style="stop-color:#105766;stop-opacity:1;"
         id="stop3760-7-3" />
      <stop
         offset="1"
         style="stop-color:#2f7e8f;stop-opacity:1;"
         id="stop3762-8-4" />
    </linearGradient>
    <radialGradient
       inkscape:collect="always"
       xlink:href="#linearGradient3725-941-985"
       id="radialGradient4700"
       gradientUnits="userSpaceOnUse"
       gradientTransform="matrix(-0.24002578,-0.1667164,-0.08845913,0.12738667,200.67331,56.571033)"
       cx="90.746872"
       cy="32.164093"
       fx="90.746872"
       fy="32.164093"
       r="23" />
    <linearGradient
       id="linearGradient3725-941-985">
      <stop
         offset="0"
         style="stop-color:#54e1fa;stop-opacity:1"
         id="stop4651" />
      <stop
         offset="1"
         style="stop-color:#05a4dd;stop-opacity:0"
         id="stop4653" />
    </linearGradient>
    <linearGradient
       inkscape:collect="always"
       xlink:href="#linearGradient3882"
       id="linearGradient4702"
       gradientUnits="userSpaceOnUse"
       gradientTransform="matrix(-0.73335938,0,0,0.73344536,182.24864,16.863305)"
       x1="23.184526"
       y1="4.0244036"
       x2="23.184526"
       y2="42.351448" />
    <linearGradient
       id="linearGradient3882">
      <stop
         id="stop3884"
         style="stop-color:#ffffff;stop-opacity:1;"
         offset="0" />
      <stop
         offset="0.4393521"
         style="stop-color:#ffffff;stop-opacity:0.23529412;"
         id="stop3886" />
      <stop
         id="stop3888"
         style="stop-color:#ffffff;stop-opacity:0.15686275;"
         offset="0.83473867" />
      <stop
         id="stop3890"
         style="stop-color:#ffffff;stop-opacity:0.39215687;"
         offset="1" />
    </linearGradient>
    <linearGradient
       inkscape:collect="always"
       xlink:href="#linearGradient3707-319-631-407-324-3-8"
       id="linearGradient4704"
       gradientUnits="userSpaceOnUse"
       gradientTransform="matrix(0.64449035,0,0,0.64449035,151.18039,21.06446)"
       x1="25.845604"
       y1="43.546593"
       x2="25.845604"
       y2="2.8090379" />
    <radialGradient
       inkscape:collect="always"
       xlink:href="#linearGradient8838-561-565-6"
       id="radialGradient4672"
       gradientUnits="userSpaceOnUse"
       gradientTransform="matrix(1.5875134,0,0,0.55217785,51.319973,32.579277)"
       cx="62.625"
       cy="4.625"
       fx="62.625"
       fy="4.625"
       r="10.625" />
    <linearGradient
       id="linearGradient8838-561-565-6">
      <stop
         offset="0"
         style="stop-color:#0a0a0a;stop-opacity:1"
         id="stop4621-2" />
      <stop
         offset="1"
         style="stop-color:#0a0a0a;stop-opacity:0"
         id="stop4623-5" />
    </linearGradient>
    <radialGradient
       inkscape:collect="always"
       xlink:href="#linearGradient2867-449-88-871-390-598-476-591-434-148-57-177-3-8-0"
       id="radialGradient4674"
       gradientUnits="userSpaceOnUse"
       gradientTransform="matrix(0,1.2983176,-1.091386,0,155.26029,-18.298965)"
       cx="20.248743"
       cy="4.9115634"
       fx="20.248743"
       fy="4.9115634"
       r="23" />
    <linearGradient
       id="linearGradient2867-449-88-871-390-598-476-591-434-148-57-177-3-8-0">
      <stop
         offset="0"
         style="stop-color:#c0df75;stop-opacity:1;"
         id="stop3750-8-9-4" />
      <stop
         offset="0.26238"
         style="stop-color:#88d444;stop-opacity:1;"
         id="stop3752-3-2-0" />
      <stop
         offset="0.704952"
         style="stop-color:#56bd37;stop-opacity:1;"
         id="stop3754-7-2-9" />
      <stop
         offset="1"
         style="stop-color:#3a7f25;stop-opacity:1;"
         id="stop3756-9-3-1" />
    </linearGradient>
    <linearGradient
       inkscape:collect="always"
       xlink:href="#linearGradient3707-319-631-407-324-3-8-4"
       id="linearGradient4676"
       gradientUnits="userSpaceOnUse"
       gradientTransform="matrix(0.73336216,0,0,0.73336216,133.13731,5.7986164)"
       x1="18.138792"
       y1="45.21809"
       x2="18.138792"
       y2="2.9999995" />
    <linearGradient
       id="linearGradient3707-319-631-407-324-3-8-4">
      <stop
         offset="0"
         style="stop-color:#396e1c;stop-opacity:1;"
         id="stop3760-7-3-2" />
      <stop
         offset="1"
         style="stop-color:#57a72b;stop-opacity:1;"
         id="stop3762-8-4-2" />
    </linearGradient>
    <radialGradient
       inkscape:collect="always"
       xlink:href="#linearGradient3725-941-985-2"
       id="radialGradient4678"
       gradientUnits="userSpaceOnUse"
       gradientTransform="matrix(0.24002668,-0.16669749,0.08845946,0.12737222,114.71257,45.501842)"
       cx="90.746872"
       cy="32.164093"
       fx="90.746872"
       fy="32.164093"
       r="23" />
    <linearGradient
       id="linearGradient3725-941-985-2">
      <stop
         offset="0"
         style="stop-color:#b0db73;stop-opacity:1;"
         id="stop4651-8" />
      <stop
         offset="1"
         style="stop-color:#7db32f;stop-opacity:0;"
         id="stop4653-3" />
    </linearGradient>
    <linearGradient
       inkscape:collect="always"
       xlink:href="#linearGradient3882-0"
       id="linearGradient4680"
       gradientUnits="userSpaceOnUse"
       gradientTransform="matrix(0.73336216,0,0,0.73336216,133.13731,5.7986164)"
       x1="23.184526"
       y1="4.0244036"
       x2="23.184526"
       y2="42.351448" />
    <linearGradient
       id="linearGradient3882-0">
      <stop
         id="stop3884-5"
         style="stop-color:#ffffff;stop-opacity:1;"
         offset="0" />
      <stop
         offset="0.4393521"
         style="stop-color:#ffffff;stop-opacity:0.23529412;"
         id="stop3886-5" />
      <stop
         id="stop3888-2"
         style="stop-color:#ffffff;stop-opacity:0.15686275;"
         offset="0.83473867" />
      <stop
         id="stop3890-9"
         style="stop-color:#ffffff;stop-opacity:0.39215687;"
         offset="1" />
    </linearGradient>
    <linearGradient
       inkscape:collect="always"
       xlink:href="#linearGradient3707-319-631-407-324-3-8-4"
       id="linearGradient4682"
       gradientUnits="userSpaceOnUse"
       gradientTransform="matrix(0.73336216,0,0,0.73336216,124.82881,1.4927263)"
       x1="25.845604"
       y1="43.546593"
       x2="25.845604"
       y2="2.8090379" />
    <linearGradient
       inkscape:collect="always"
       xlink:href="#linearGradient3707-319-631-407-324-3-8-4"
       id="linearGradient4686"
       gradientUnits="userSpaceOnUse"
       gradientTransform="matrix(0.73336216,0,0,0.73336216,130.82881,1.4927263)"
       x1="25.845604"
       y1="43.546593"
       x2="25.845604"
       y2="2.8090379" />
    <linearGradient
       inkscape:collect="always"
       xlink:href="#linearGradient3707-319-631-407-324-3-8-4"
       id="linearGradient4690"
       gradientUnits="userSpaceOnUse"
       gradientTransform="matrix(0.73336216,0,0,0.73336216,136.82881,1.4927263)"
       x1="25.845604"
       y1="43.546593"
       x2="25.845604"
       y2="2.8090379" />
  </defs>
  <sodipodi:namedview
     id="base"
     pagecolor="#ffffff"
     bordercolor="#666666"
     borderopacity="1.0"
     inkscape:pageopacity="0.0"
     inkscape:pageshadow="2"
     inkscape:zoom="22.28125"
     inkscape:cx="16.002991"
     inkscape:cy="15.999997"
     inkscape:document-units="px"
     inkscape:current-layer="layer1"
     showgrid="false"
     fit-margin-top="0"
     fit-margin-left="0"
     fit-margin-right="0"
     fit-margin-bottom="0" />
  <metadata
     id="metadata6283">
    <rdf:RDF>
      <cc:Work
         rdf:about="">
        <dc:format>image/svg+xml</dc:format>
        <dc:type
           rdf:resource="http://purl.org/dc/dcmitype/StillImage" />
        <dc:title></dc:title>
      </cc:Work>
    </rdf:RDF>
  </metadata>
  <g
     inkscape:label="Capa 1"
     inkscape:groupmode="layer"
     id="layer1"
     transform="translate(-301.1427,-302.07648)">
    <g
       style="display:inline;enable-background:new"
       transform="matrix(0.65961562,0,0,0.65961562,213.09642,299.73115)"
       id="g4622">
      <path
         inkscape:connector-curvature="0"
         style="opacity:0.3;fill:url(#radialGradient4672);fill-opacity:1;fill-rule:evenodd;stroke:none;stroke-width:0.99999988;marker:none;visibility:visible;display:inline;overflow:visible"
         id="path4624"
         d="M 167.60533,35.133103 C 167.60533,38.373301 160.05357,41 150.738,41 c -9.31557,0 -16.86733,-2.626699 -16.86733,-5.866897 0,-3.240198 7.55176,-5.866897 16.86733,-5.866897 9.31557,0 16.86733,2.626699 16.86733,5.866897 l 0,0 z" />
      <path
         inkscape:connector-curvature="0"
         style="fill:url(#radialGradient4674);fill-opacity:1;fill-rule:evenodd;stroke:url(#linearGradient4676);stroke-width:1.50883365;stroke-linecap:butt;stroke-linejoin:round;stroke-miterlimit:4;stroke-opacity:1;stroke-dasharray:none;stroke-dashoffset:0;marker:none;visibility:visible;display:inline;overflow:visible"
         id="path4626"
         d="m 148.40054,8.573177 c -8.44685,1.245331 -14.69701,7.065181 -14.12911,13.366536 0.36774,4.080384 3.49955,7.438891 7.97817,9.210884 l -1.50802,5.876117 c 0,0 -0.16092,0.550125 0.0701,0.744463 0.23098,0.194338 0.78728,-0.217627 0.78728,-0.217627 l 7.05151,-5.099817 0.0572,-0.0052 c 1.02061,0.04878 2.04595,0.06495 3.10997,-0.03212 9.07959,-0.828373 15.9828,-6.870048 15.38697,-13.481303 -0.59582,-6.611256 -8.46654,-11.305049 -17.54614,-10.476684 -0.4256,0.03883 -0.84244,0.05351 -1.25786,0.114759 z"
         sodipodi:nodetypes="sscczcccssss" />
      <path
         inkscape:connector-curvature="0"
         style="fill:url(#radialGradient4678);fill-opacity:1;fill-rule:evenodd;stroke:none;stroke-width:0.99525028;marker:none;visibility:visible;display:inline;overflow:visible"
         id="path4628"
         d="m 152.96101,8.709147 c -1.06714,-0.06094 -2.15632,-0.03351 -3.27722,0.06875 -0.43773,0.03994 -0.84639,0.05692 -1.23754,0.114588 -4.16176,0.613573 -7.77335,2.354251 -10.26708,4.698101 -2.49372,2.343851 -3.87146,5.285414 -3.59805,8.319077 0.35406,3.928633 3.39681,7.198882 7.79197,8.937852 a 0.33002354,0.33002354 0 0 1 0.20626,0.389598 l -1.65007,6.394002 7.53988,-5.454381 a 0.33002354,0.33002354 0 0 1 0.18334,-0.04584 l 0.0458,0 a 0.33002354,0.33002354 0 0 1 0.0229,0 c 1.01054,0.0483 2.02666,0.04944 3.07095,-0.04583 4.47513,-0.408286 8.40816,-2.105286 11.13794,-4.491843 2.72977,-2.386557 4.2516,-5.45693 3.96474,-8.639923 -0.25099,-2.784906 -1.84818,-5.22127 -4.33142,-7.035693 -2.48324,-1.814423 -5.86109,-2.994795 -9.60246,-3.20846 z" />
      <path
         sodipodi:type="inkscape:offset"
         inkscape:radius="-0.7199347"
         inkscape:original="M 149.71875 9.1875 C 149.34084 9.22198 148.96267 9.227521 148.59375 9.28125 C 141.09227 10.373778 134.47829 15.259625 135 21.84375 C 135.35042 26.266099 138.8154 29.261171 143.09375 30.65625 L 141.65625 36.5625 L 148.375 31.71875 C 149.28088 31.75811 150.68023 31.836189 151.625 31.75 C 158.76859 31.09826 167.09821 25.784082 166.5 19.1875 C 165.86261 12.201452 157.52212 8.475569 149.71875 9.1875 z "
         style="opacity:0.4;fill:none;stroke:url(#linearGradient4680);stroke-width:1.50883365;stroke-linecap:butt;stroke-linejoin:miter;stroke-miterlimit:4;stroke-opacity:1;stroke-dasharray:none;stroke-dashoffset:0;marker:none;visibility:visible;display:inline;overflow:visible"
         id="path4630"
         d="m 152.625,9.84375 c -0.94294,-0.046388 -1.9024,-0.023383 -2.84375,0.0625 -0.41424,0.037795 -0.78728,0.049116 -1.09375,0.09375 -3.62914,0.528554 -7.03944,1.991895 -9.4375,4.0625 -2.39806,2.070605 -3.77207,4.67948 -3.53125,7.71875 0.32292,4.075326 3.49522,6.851055 7.59375,8.1875 a 0.7200067,0.7200067 0 0 1 0.46875,0.84375 l -0.96875,4.03125 5.15625,-3.71875 A 0.7200067,0.7200067 0 0 1 148.40625,31 c 0.91501,0.03976 2.31471,0.108022 3.15625,0.03125 3.42069,-0.312084 7.19063,-1.766003 9.96875,-3.90625 2.77812,-2.140247 4.52039,-4.893351 4.25,-7.875 -0.29393,-3.221593 -2.35348,-5.678691 -5.34375,-7.3125 -2.2427,-1.225357 -4.98367,-1.9545847 -7.8125,-2.09375 z" />
      <g
         id="g4632"
         transform="translate(1.5691965,-2.500012)">
        <path
           sodipodi:nodetypes="sccccccccs"
           inkscape:connector-curvature="0"
           style="font-size:62.4582634px;font-style:normal;font-variant:normal;font-weight:normal;font-stretch:normal;text-align:start;line-height:125%;writing-mode:lr-tb;text-anchor:start;fill:url(#linearGradient4682);fill-opacity:1;stroke:none;font-family:Georgia"
           id="path4634"
           d="m 143.30037,20.486131 c -0.45168,-0.04652 -0.89833,0.07353 -1.19171,0.412516 2.7e-4,0.0076 2.7e-4,0.01528 0,0.02292 -0.31482,0.3272 -0.49571,0.797728 -0.43544,1.237548 2.8e-4,0.0076 2.8e-4,0.01528 0,0.02292 0.073,0.95569 1.24131,1.587285 2.0855,1.191713 0.008,-2.76e-4 0.0153,-2.76e-4 0.0229,0 0.82226,-0.310867 1.16818,-1.493573 0.64169,-2.223004 -0.008,-0.0073 -0.0157,-0.01489 -0.0229,-0.02292 -0.24141,-0.379847 -0.65216,-0.595564 -1.10004,-0.641693 z" />
        <path
           sodipodi:nodetypes="sccccccccs"
           inkscape:connector-curvature="0"
           style="font-size:62.4582634px;font-style:normal;font-variant:normal;font-weight:normal;font-stretch:normal;text-align:start;line-height:125%;writing-mode:lr-tb;text-anchor:start;fill:#ffffff;fill-opacity:1;stroke:none;font-family:Georgia"
           id="path4636"
           d="m 143.30037,21.219493 c -0.45168,-0.04652 -0.89833,0.07353 -1.19171,0.412516 2.7e-4,0.0076 2.7e-4,0.01528 0,0.02292 -0.31482,0.3272 -0.49571,0.797728 -0.43544,1.237549 2.8e-4,0.0076 2.8e-4,0.01528 0,0.02292 0.073,0.95569 1.24131,1.587285 2.0855,1.191714 0.008,-2.77e-4 0.0153,-2.77e-4 0.0229,0 0.82226,-0.310868 1.16818,-1.493574 0.64169,-2.223004 -0.008,-0.0073 -0.0157,-0.01489 -0.0229,-0.02292 -0.24141,-0.379847 -0.65216,-0.595563 -1.10004,-0.641695 z" />
        <path
           d="m 149.30037,20.486131 c -0.45168,-0.04652 -0.89833,0.07353 -1.19171,0.412516 2.7e-4,0.0076 2.7e-4,0.01528 0,0.02292 -0.31482,0.3272 -0.49571,0.797728 -0.43544,1.237548 2.8e-4,0.0076 2.8e-4,0.01528 0,0.02292 0.073,0.95569 1.24131,1.587285 2.0855,1.191713 0.008,-2.76e-4 0.0153,-2.76e-4 0.0229,0 0.82226,-0.310867 1.16818,-1.493573 0.64169,-2.223004 -0.008,-0.0073 -0.0157,-0.01489 -0.0229,-0.02292 -0.24141,-0.379847 -0.65216,-0.595564 -1.10004,-0.641693 z"
           id="path4640"
           style="font-size:62.4582634px;font-style:normal;font-variant:normal;font-weight:normal;font-stretch:normal;text-align:start;line-height:125%;writing-mode:lr-tb;text-anchor:start;fill:url(#linearGradient4686);fill-opacity:1;stroke:none;font-family:Georgia"
           inkscape:connector-curvature="0"
           sodipodi:nodetypes="sccccccccs" />
        <path
           d="m 149.30037,21.219493 c -0.45168,-0.04652 -0.89833,0.07353 -1.19171,0.412516 2.7e-4,0.0076 2.7e-4,0.01528 0,0.02292 -0.31482,0.3272 -0.49571,0.797728 -0.43544,1.237549 2.8e-4,0.0076 2.8e-4,0.01528 0,0.02292 0.073,0.95569 1.24131,1.587285 2.0855,1.191714 0.008,-2.77e-4 0.0153,-2.77e-4 0.0229,0 0.82226,-0.310868 1.16818,-1.493574 0.64169,-2.223004 -0.008,-0.0073 -0.0157,-0.01489 -0.0229,-0.02292 -0.24141,-0.379847 -0.65216,-0.595563 -1.10004,-0.641695 z"
           id="path4642"
           style="font-size:62.4582634px;font-style:normal;font-variant:normal;font-weight:normal;font-stretch:normal;text-align:start;line-height:125%;writing-mode:lr-tb;text-anchor:start;fill:#ffffff;fill-opacity:1;stroke:none;font-family:Georgia"
           inkscape:connector-curvature="0"
           sodipodi:nodetypes="sccccccccs" />
        <path
           sodipodi:nodetypes="sccccccccs"
           inkscape:connector-curvature="0"
           style="font-size:62.4582634px;font-style:normal;font-variant:normal;font-weight:normal;font-stretch:normal;text-align:start;line-height:125%;writing-mode:lr-tb;text-anchor:start;fill:url(#linearGradient4690);fill-opacity:1;stroke:none;font-family:Georgia"
           id="path4646"
           d="m 155.30037,20.486131 c -0.45168,-0.04652 -0.89833,0.07353 -1.19171,0.412516 2.7e-4,0.0076 2.7e-4,0.01528 0,0.02292 -0.31482,0.3272 -0.49571,0.797728 -0.43544,1.237548 2.8e-4,0.0076 2.8e-4,0.01528 0,0.02292 0.073,0.95569 1.24131,1.587285 2.0855,1.191713 0.008,-2.76e-4 0.0153,-2.76e-4 0.0229,0 0.82226,-0.310867 1.16818,-1.493573 0.64169,-2.223004 -0.008,-0.0073 -0.0157,-0.01489 -0.0229,-0.02292 -0.24141,-0.379847 -0.65216,-0.595564 -1.10004,-0.641693 z" />
        <path
           sodipodi:nodetypes="sccccccccs"
           inkscape:connector-curvature="0"
           style="font-size:62.4582634px;font-style:normal;font-variant:normal;font-weight:normal;font-stretch:normal;text-align:start;line-height:125%;writing-mode:lr-tb;text-anchor:start;fill:#ffffff;fill-opacity:1;stroke:none;font-family:Georgia"
           id="path4648"
           d="m 155.30037,21.219493 c -0.45168,-0.04652 -0.89833,0.07353 -1.19171,0.412516 2.7e-4,0.0076 2.7e-4,0.01528 0,0.02292 -0.31482,0.3272 -0.49571,0.797728 -0.43544,1.237549 2.8e-4,0.0076 2.8e-4,0.01528 0,0.02292 0.073,0.95569 1.24131,1.587285 2.0855,1.191714 0.008,-2.77e-4 0.0153,-2.77e-4 0.0229,0 0.82226,-0.310868 1.16818,-1.493574 0.64169,-2.223004 -0.008,-0.0073 -0.0157,-0.01489 -0.0229,-0.02292 -0.24141,-0.379847 -0.65216,-0.595563 -1.10004,-0.641695 z" />
      </g>
    </g>
    <g
       style="display:inline;enable-background:new"
       transform="matrix(0.65961562,0,0,0.65961562,213.1558,299.73115)"
       id="g4652">
      <path
         inkscape:connector-curvature="0"
         style="opacity:0.3;fill:url(#radialGradient4694);fill-opacity:1;fill-rule:evenodd;stroke:none;stroke-width:0.99999988;marker:none;visibility:visible;display:inline;overflow:visible"
         id="path4654"
         d="m 147.78076,46.201118 c 0,3.240566 7.55172,5.867563 16.86726,5.867563 9.31553,0 16.86726,-2.626997 16.86726,-5.867563 0,-3.240566 -7.55173,-5.867563 -16.86726,-5.867563 -9.31554,0 -16.86726,2.626997 -16.86726,5.867563 l 0,0 z" />
      <path
         inkscape:connector-curvature="0"
         style="fill:url(#radialGradient4696);fill-opacity:1;fill-rule:evenodd;stroke:url(#linearGradient4698);stroke-width:1.50883389;stroke-linecap:butt;stroke-linejoin:round;stroke-miterlimit:4;stroke-opacity:1;stroke-dasharray:none;stroke-dashoffset:0;marker:none;visibility:visible;display:inline;overflow:visible"
         id="path4656"
         d="m 166.98546,19.63818 c 8.44683,1.245473 14.69695,7.065983 14.12906,13.368053 -0.36773,4.080847 -3.49953,7.439734 -7.97814,9.211929 l 1.50802,5.876784 c 0,0 0.16092,0.550188 -0.0701,0.744547 -0.23096,0.19436 -0.78727,-0.217651 -0.78727,-0.217651 l -7.05148,-5.100397 -0.0572,-0.0052 c -1.02061,0.04879 -2.04594,0.06496 -3.10995,-0.03213 -9.07956,-0.828466 -15.98274,-6.870828 -15.38692,-13.482833 0.59582,-6.612005 8.46652,-11.306332 17.54607,-10.477872 0.42561,0.03883 0.84244,0.05352 1.25786,0.114772 z"
         sodipodi:nodetypes="sscczcccssss" />
      <path
         inkscape:connector-curvature="0"
         style="fill:url(#radialGradient4700);fill-opacity:1;fill-rule:evenodd;stroke:none;stroke-width:0.99525028;marker:none;visibility:visible;display:inline;overflow:visible"
         id="path4658"
         d="m 162.42502,19.774166 c 1.06714,-0.06095 2.15632,-0.03352 3.27721,0.06876 0.43772,0.03994 0.84638,0.05692 1.23753,0.114601 4.16174,0.613643 7.77332,2.354518 10.26704,4.698634 2.49371,2.344116 3.87144,5.286014 3.59804,8.32002 -0.35405,3.929079 -3.39681,7.199699 -7.79194,8.938866 a 0.3300223,0.33006097 0 0 0 -0.20626,0.389643 l 1.65006,6.394726 -7.53986,-5.455 a 0.3300223,0.33006097 0 0 0 -0.18333,-0.04584 l -0.0459,0 a 0.3300223,0.33006097 0 0 0 -0.0229,0 c -1.01054,0.04831 -2.02666,0.04943 -3.07094,-0.04584 -4.47512,-0.408332 -8.40813,-2.105525 -11.1379,-4.492352 -2.72976,-2.386829 -4.25159,-5.45755 -3.96473,-8.640903 0.25099,-2.785222 1.84819,-5.221863 4.3314,-7.036492 2.48323,-1.814629 5.86107,-2.995134 9.60243,-3.208823 z" />
      <path
         sodipodi:type="inkscape:offset"
         inkscape:radius="-0.73395461"
         inkscape:original="M 165.65625 20.25 C 157.8529 19.537988 149.54364 23.26316 148.90625 30.25 C 148.30805 36.84733 156.63769 42.160686 163.78125 42.8125 C 164.72603 42.898697 166.12538 42.85186 167.03125 42.8125 L 173.71875 47.625 L 172.28125 41.71875 C 176.55959 40.323512 180.02458 37.329101 180.375 32.90625 C 180.89671 26.321378 174.28271 21.436402 166.78125 20.34375 C 166.41234 20.29001 166.03415 20.28448 165.65625 20.25 z "
         style="opacity:0.4;fill:none;stroke:url(#linearGradient4702);stroke-width:1.50883389;stroke-linecap:butt;stroke-linejoin:miter;stroke-miterlimit:4;stroke-opacity:1;stroke-dasharray:none;stroke-dashoffset:0;marker:none;visibility:visible;display:inline;overflow:visible"
         id="path4660"
         d="m 162.75,20.9375 c -2.82422,0.139008 -5.57804,0.838666 -7.8125,2.0625 -2.97928,1.631778 -5.01895,4.09469 -5.3125,7.3125 -0.26983,2.975896 1.47427,5.736697 4.25,7.875 2.77573,2.138303 6.55098,3.594396 9.96875,3.90625 0.85552,0.07805 2.2579,0.03903 3.15625,0 a 0.734028,0.734028 0 0 1 0.46875,0.125 l 5.0625,3.625 -0.96875,-3.9375 a 0.734028,0.734028 0 0 1 0.5,-0.875 c 4.09511,-1.335482 7.27136,-4.1184 7.59375,-8.1875 0.24044,-3.034753 -1.16694,-5.650408 -3.5625,-7.71875 -2.39556,-2.068342 -5.77945,-3.534226 -9.40625,-4.0625 -0.30521,-0.04446 -0.6788,-0.05589 -1.09375,-0.09375 -0.94071,-0.08583 -1.90234,-0.07759 -2.84375,-0.03125 z" />
      <g
         id="g4662"
         transform="matrix(1.1378904,0,0,1.1380238,-24.979424,-7.1085518)">
        <path
           d="m 166.10437,25.530989 c -0.69618,-0.09973 -1.4107,0.42739 -1.42996,0.986876 2.4e-4,0.0067 2.4e-4,0.01343 0,0.02014 -0.004,0.04561 0.009,0.108235 0.0201,0.201404 0.001,0.0092 -0.001,0.01027 0,0.02014 0.62887,2.968239 0.84317,5.947047 1.47024,8.861743 0.38019,-0.04064 0.97091,-0.118579 1.36954,-0.161122 -0.0864,-2.876296 -0.34807,-5.733721 -0.38266,-8.6402 -2.5e-4,-0.0067 -2.5e-4,-0.01343 0,-0.02014 0.0568,-0.565947 -0.32406,-1.20507 -1.02716,-1.268841 -0.007,2.44e-4 -0.0134,2.44e-4 -0.0201,0 l 0,0 z m 1.30912,12.225177 c -0.39694,-0.04088 -0.78947,0.06462 -1.0473,0.362526 2.5e-4,0.0067 2.5e-4,0.01343 0,0.02014 -0.27666,0.287549 -0.43563,0.701056 -0.38266,1.087577 2.4e-4,0.0067 2.4e-4,0.01343 0,0.02014 0.0641,0.839876 1.09088,1.394932 1.83277,1.047297 0.007,-2.43e-4 0.0134,-2.43e-4 0.0201,0 0.72261,-0.273195 1.02661,-1.312576 0.56393,-1.953611 -0.007,-0.0064 -0.0138,-0.01309 -0.0201,-0.02014 -0.21216,-0.333816 -0.57313,-0.523391 -0.96674,-0.56393 z"
           id="path4664"
           style="font-size:62.4582634px;font-style:normal;font-variant:normal;font-weight:normal;font-stretch:normal;text-align:start;line-height:125%;writing-mode:lr-tb;text-anchor:start;fill:url(#linearGradient4704);fill-opacity:1;stroke:none;font-family:Georgia"
           inkscape:connector-curvature="0" />
        <path
           d="m 166.10437,26.17548 c -0.69618,-0.09973 -1.4107,0.42739 -1.42996,0.986876 2.4e-4,0.0067 2.4e-4,0.01343 0,0.02014 -0.004,0.04561 0.009,0.108235 0.0201,0.201403 0.001,0.0092 -0.001,0.01027 0,0.02014 0.62887,2.968239 0.84317,5.947047 1.47024,8.861743 0.38019,-0.04064 0.97091,-0.11858 1.36954,-0.161123 -0.0864,-2.876295 -0.34807,-5.733721 -0.38266,-8.640199 -2.5e-4,-0.0067 -2.5e-4,-0.01343 0,-0.02014 0.0568,-0.565946 -0.32406,-1.205069 -1.02716,-1.26884 -0.007,2.43e-4 -0.0134,2.43e-4 -0.0201,0 l 0,0 z m 1.30912,12.225177 c -0.39694,-0.04088 -0.78947,0.06462 -1.0473,0.362526 2.5e-4,0.0067 2.5e-4,0.01343 0,0.02014 -0.27666,0.287549 -0.43563,0.701056 -0.38266,1.087577 2.4e-4,0.0067 2.4e-4,0.01343 0,0.02014 0.0641,0.839875 1.09088,1.394931 1.83277,1.047297 0.007,-2.43e-4 0.0134,-2.43e-4 0.0201,0 0.72261,-0.273195 1.02661,-1.312577 0.56393,-1.953612 -0.007,-0.0064 -0.0138,-0.01309 -0.0201,-0.02014 -0.21216,-0.333816 -0.57313,-0.523391 -0.96674,-0.563929 z"
           id="path4666"
           style="font-size:62.4582634px;font-style:normal;font-variant:normal;font-weight:normal;font-stretch:normal;text-align:start;line-height:125%;writing-mode:lr-tb;text-anchor:start;fill:#ffffff;fill-opacity:1;stroke:none;font-family:Georgia"
           inkscape:connector-curvature="0" />
      </g>
    </g>
  </g>
</svg>
