<?xml version="1.0" encoding="UTF-8" standalone="no"?>
<!-- Created with Inkscape (http://www.inkscape.org/) -->

<svg
   xmlns:dc="http://purl.org/dc/elements/1.1/"
   xmlns:cc="http://creativecommons.org/ns#"
   xmlns:rdf="http://www.w3.org/1999/02/22-rdf-syntax-ns#"
   xmlns:svg="http://www.w3.org/2000/svg"
   xmlns="http://www.w3.org/2000/svg"
   xmlns:xlink="http://www.w3.org/1999/xlink"
   xmlns:sodipodi="http://sodipodi.sourceforge.net/DTD/sodipodi-0.dtd"
   xmlns:inkscape="http://www.inkscape.org/namespaces/inkscape"
   width="32"
   height="32"
   id="svg4175"
   version="1.1"
   inkscape:version="0.91 r"
   viewBox="0 0 32 32"
   sodipodi:docname="firefox.svg">
  <defs
     id="defs4177">
    <linearGradient
       inkscape:collect="always"
       id="linearGradient4165">
      <stop
         style="stop-color:#000000;stop-opacity:1;"
         offset="0"
         id="stop4167" />
      <stop
         style="stop-color:#000000;stop-opacity:0;"
         offset="1"
         id="stop4169" />
    </linearGradient>
    <linearGradient
       inkscape:collect="always"
       id="linearGradient4761">
      <stop
         style="stop-color:#000000;stop-opacity:1;"
         offset="0"
         id="stop4763" />
      <stop
         style="stop-color:#000000;stop-opacity:0;"
         offset="1"
         id="stop4765" />
    </linearGradient>
    <linearGradient
       inkscape:collect="always"
       id="linearGradient4747">
      <stop
         style="stop-color:#ffffff;stop-opacity:1;"
         offset="0"
         id="stop4749" />
      <stop
         id="stop4755"
         offset="0.23694834"
         style="stop-color:#ffffff;stop-opacity:0.23529412" />
      <stop
         style="stop-color:#ffffff;stop-opacity:0.15686275"
         offset="0.76410484"
         id="stop4757" />
      <stop
         style="stop-color:#ffffff;stop-opacity:0.39215687"
         offset="1"
         id="stop4751" />
    </linearGradient>
    <linearGradient
       inkscape:collect="always"
       xlink:href="#linearGradient4747"
       id="linearGradient4753"
       x1="16.199215"
       y1="2.1579978"
       x2="16.199215"
       y2="30.109913"
       gradientUnits="userSpaceOnUse" />
    <radialGradient
       inkscape:collect="always"
       xlink:href="#linearGradient4761"
       id="radialGradient4767"
       cx="16"
       cy="28.5"
       fx="16"
       fy="28.5"
       r="11"
       gradientTransform="matrix(1,0,0,0.31818182,0,19.431818)"
       gradientUnits="userSpaceOnUse" />
    <radialGradient
       cx="15.645058"
       cy="8.449769"
       r="19.99999"
       fx="-0.22334664"
       fy="8.44977"
       id="radialGradient5007-9"
       xlink:href="#linearGradient2867-449-88-871-390-598-476-591-434-148-57-177-3-8-0"
       gradientUnits="userSpaceOnUse"
       gradientTransform="matrix(-4.7487872e-8,0.78038848,-0.73523897,-5.3752021e-8,22.212684,1.683978)" />
    <linearGradient
       id="linearGradient2867-449-88-871-390-598-476-591-434-148-57-177-3-8-0">
      <stop
         id="stop3750-8-9-6"
         style="stop-color:#5bc2ee;stop-opacity:1"
         offset="0" />
      <stop
         id="stop3752-3-2-3"
         style="stop-color:#42baea;stop-opacity:1"
         offset="0.26238" />
      <stop
         id="stop3754-7-2-6"
         style="stop-color:#3689e6;stop-opacity:1"
         offset="0.704952" />
      <stop
         id="stop3756-9-3-1"
         style="stop-color:#2b63a0;stop-opacity:1"
         offset="1" />
    </linearGradient>
    <radialGradient
       inkscape:collect="always"
       xlink:href="#linearGradient4174"
       id="radialGradient4180"
       cx="19.199837"
       cy="1004.965"
       fx="19.199837"
       fy="1004.965"
       r="29.5"
       gradientTransform="matrix(3.6578641e-7,1.1871584,-0.93684791,2.8866092e-7,957.93824,-18.291722)"
       gradientUnits="userSpaceOnUse" />
    <linearGradient
       inkscape:collect="always"
       id="linearGradient4174">
      <stop
         style="stop-color:#ffc850;stop-opacity:1"
         offset="0"
         id="stop4176" />
      <stop
         id="stop4193"
         offset="0.33880642"
         style="stop-color:#ffbe3c;stop-opacity:1" />
      <stop
         style="stop-color:#ff780a;stop-opacity:1"
         offset="0.66458273"
         id="stop4195" />
      <stop
         style="stop-color:#ff6400;stop-opacity:1"
         offset="1"
         id="stop4178" />
    </linearGradient>
    <linearGradient
       inkscape:collect="always"
       xlink:href="#linearGradient4747"
       id="linearGradient4188"
       x1="13.87711"
       y1="2.3590388"
       x2="13.87711"
       y2="29.864437"
       gradientUnits="userSpaceOnUse" />
    <radialGradient
       inkscape:collect="always"
       xlink:href="#linearGradient4165"
       id="radialGradient4171"
       cx="16.280579"
       cy="2.3979468"
       fx="16.280579"
       fy="2.3979468"
       r="13.958984"
       gradientTransform="matrix(0,2.6147263,-2.2901277,0,21.772183,-39.54144)"
       gradientUnits="userSpaceOnUse" />
  </defs>
  <sodipodi:namedview
     id="base"
     pagecolor="#ffffff"
     bordercolor="#666666"
     borderopacity="1.0"
     inkscape:pageopacity="0.0"
     inkscape:pageshadow="2"
     inkscape:zoom="7.9180417"
     inkscape:cx="3.8714068"
     inkscape:cy="14.297315"
     inkscape:current-layer="layer1"
     showgrid="true"
     inkscape:grid-bbox="true"
     inkscape:document-units="px"
     inkscape:window-width="1366"
     inkscape:window-height="713"
     inkscape:window-x="0"
     inkscape:window-y="30"
     inkscape:window-maximized="1" />
  <metadata
     id="metadata4180">
    <rdf:RDF>
      <cc:Work
         rdf:about="">
        <dc:format>image/svg+xml</dc:format>
        <dc:type
           rdf:resource="http://purl.org/dc/dcmitype/StillImage" />
        <dc:title />
      </cc:Work>
    </rdf:RDF>
  </metadata>
  <g
     id="layer1"
     inkscape:label="Layer 1"
     inkscape:groupmode="layer">
    <rect
       style="opacity:0.6;fill:url(#radialGradient4767);fill-opacity:1;stroke:none;stroke-width:3;stroke-linejoin:round;stroke-miterlimit:4;stroke-dasharray:none;stroke-opacity:1"
       id="rect4759"
       width="22"
       height="7"
       x="5"
       y="25" />
    <path
       style="color:#000000;display:inline;overflow:visible;visibility:visible;fill:url(#radialGradient5007-9);fill-opacity:1;fill-rule:nonzero;stroke:none;stroke-width:1;marker:none;enable-background:accumulate"
       id="path2555-7-3"
       inkscape:connector-curvature="0"
       d="m 16,1.49998 c -8.0006,0 -14.5,6.499431 -14.5,14.50004 0,8.000608 6.4994,14.5 14.5,14.5 8.000598,0 14.500005,-6.499392 14.5,-14.5 C 30.5,7.999411 24.000598,1.49998 16,1.49998 Z" />
    <path
       style="color:#000000;display:inline;overflow:visible;visibility:visible;fill:url(#radialGradient4171);fill-opacity:1;fill-rule:nonzero;stroke:none;stroke-width:1;marker:none;enable-background:accumulate;opacity:0.4"
       d="M 16.035156 2.0019531 C 15.961069 2.0037136 15.886258 2.0084534 15.8125 2.0097656 L 14.556641 2.1484375 L 12.609375 2.6894531 C 12.775143 2.6305431 12.943112 2.572293 13.115234 2.515625 L 13.009766 2.3320312 C 12.519599 2.4377158 12.042669 2.5757296 11.572266 2.7285156 C 11.371937 2.7954586 11.174712 2.8696642 10.978516 2.9453125 C 10.758575 3.0276328 10.542867 3.1182124 10.328125 3.2109375 C 10.158628 3.2863302 9.9940043 3.3693195 9.828125 3.4511719 L 9.7011719 3.7265625 L 9.6191406 3.5527344 C 9.5199832 3.6037326 9.416128 3.6459397 9.3183594 3.6992188 L 9.34375 4.0585938 L 8.8632812 4.4667969 L 8.5839844 5.2167969 L 9.1679688 5.2167969 L 9.3945312 4.7285156 L 9.4746094 4.546875 C 9.7306264 4.36244 9.9736225 4.1579978 10.234375 3.9804688 L 10.835938 4.1894531 C 11.231516 4.4632281 11.627559 4.7442461 12.023438 5.0175781 L 12.609375 4.4667969 L 11.953125 4.1894531 L 11.648438 3.5703125 L 10.53125 3.4394531 L 10.503906 3.3085938 L 10.992188 3.4121094 L 11.263672 3.1347656 L 11.875 3.0039062 C 12.018785 2.9326763 12.157591 2.8782975 12.302734 2.8203125 L 11.927734 3.1855469 L 13.289062 4.1367188 L 13.289062 4.703125 L 12.757812 5.2441406 L 13.472656 6.6914062 L 13.953125 6.4023438 L 14.554688 5.453125 C 15.408884 5.184099 16.185931 4.8662256 16.992188 4.4941406 L 16.939453 4.859375 L 17.341797 5.1386719 L 18.048828 4.6503906 L 17.699219 4.2402344 L 17.21875 4.5195312 L 17.0625 4.4667969 C 17.09739 4.4505769 17.130982 4.4402981 17.166016 4.4238281 L 17.873047 2.5664062 L 16.533203 2.0273438 C 16.366541 2.021031 16.203249 2.002373 16.035156 2.0019531 z M 9.3945312 4.7285156 L 9.9804688 5.1386719 L 10.458984 5.1386719 L 10.458984 4.6503906 L 9.875 4.3984375 L 9.3945312 4.7285156 z M 22.832031 4.3984375 L 21.802734 4.6503906 L 21.138672 5.0859375 L 21.138672 5.4785156 L 20.099609 6.1503906 L 20.300781 7.1523438 L 20.912109 6.7167969 L 21.294922 7.1523438 L 21.722656 7.4140625 L 22.001953 6.6640625 L 21.845703 6.2285156 L 22.001953 5.9140625 L 22.605469 5.3476562 L 22.884766 5.3476562 L 22.605469 5.9667969 L 22.605469 6.5332031 C 22.855895 6.4637531 23.108958 6.4347887 23.365234 6.4023438 L 22.658203 6.9179688 L 22.605469 7.2304688 L 21.802734 7.9277344 L 20.962891 7.71875 L 20.962891 7.2304688 L 20.580078 7.4921875 L 20.763672 7.9277344 L 20.152344 7.9277344 L 19.820312 8.4960938 L 19.417969 8.9570312 L 18.685547 9.1152344 L 19.113281 9.5507812 L 19.216797 9.9863281 L 18.685547 9.9863281 L 17.978516 10.378906 L 17.978516 11.511719 L 18.300781 11.511719 L 18.605469 11.84375 L 19.287109 11.511719 L 19.541016 10.814453 L 20.046875 10.509766 L 20.152344 10.248047 L 20.962891 10.039062 L 21.417969 10.560547 L 21.898438 10.814453 L 21.619141 11.380859 L 22.054688 11.25 L 22.283203 10.683594 L 21.722656 10.039062 L 21.951172 10.039062 L 22.509766 10.509766 L 22.605469 11.128906 L 23.085938 11.695312 L 23.216797 10.867188 L 23.470703 10.736328 C 23.740171 11.021364 23.950771 11.374593 24.177734 11.695312 L 25.015625 11.748047 L 25.496094 12.052734 L 25.267578 12.392578 L 24.789062 12.828125 L 24.072266 12.828125 L 23.138672 12.513672 L 22.658203 12.566406 L 22.308594 12.986328 L 21.294922 11.947266 L 20.580078 11.748047 L 19.541016 11.869141 L 18.632812 12.130859 C 18.112918 12.731258 17.579939 13.337389 17.087891 13.960938 L 16.511719 15.408203 L 16.78125 15.714844 L 16.275391 16.462891 L 16.833984 17.779297 C 17.297423 18.313389 17.767705 18.840663 18.230469 19.375 L 18.912109 18.783203 L 19.191406 19.148438 L 19.925781 18.652344 L 20.177734 18.939453 L 20.912109 18.939453 L 21.339844 19.427734 L 21.085938 20.308594 L 21.591797 20.900391 L 21.566406 21.929688 L 21.951172 22.679688 L 21.671875 23.324219 C 21.644725 23.786597 21.619141 24.230882 21.619141 24.693359 C 21.842501 25.319906 22.072297 25.945151 22.283203 26.576172 L 22.431641 27.578125 L 22.431641 28.09375 L 22.832031 28.09375 L 23.417969 27.708984 L 23.65625 27.708984 C 24.126884 27.400357 24.578818 27.066559 25.007812 26.705078 L 25.189453 26.498047 L 25.068359 26.080078 L 25.775391 25.433594 L 25.242188 24.841797 L 25.871094 24.326172 L 26.482422 23.943359 L 26.761719 23.628906 L 26.587891 22.941406 L 26.587891 21.179688 L 27.066406 20.099609 L 27.669922 19.427734 L 28.333984 17.779297 L 28.333984 17.34375 C 28.006445 17.38602 27.683784 17.416253 27.363281 17.439453 L 28.027344 16.777344 L 28.935547 16.158203 L 29.416016 15.583984 L 29.416016 14.964844 C 29.306929 14.755257 29.203595 14.527995 29.09375 14.318359 L 28.65625 14.841797 L 28.333984 14.449219 L 27.84375 14.066406 L 27.84375 13.263672 L 28.402344 13.910156 L 29.041016 13.830078 C 29.32653 14.094224 29.603091 14.332146 29.853516 14.632812 L 29.923828 14.550781 C 29.545438 10.883674 27.742906 7.6405642 25.085938 5.3671875 L 25.068359 5.4003906 L 24.509766 6.0195312 L 23.800781 5.2695312 L 24.509766 5.2695312 L 24.705078 5.0527344 C 24.606963 4.974576 24.504528 4.9017266 24.404297 4.8261719 L 23.521484 4.6523438 L 22.832031 4.3984375 z M 7.7109375 4.7402344 C 7.6671314 4.7725589 7.6234927 4.8050701 7.5800781 4.8378906 L 7.3691406 5.4003906 C 7.3691406 5.4003906 6.9242739 5.4772384 6.8105469 5.5058594 C 5.9373514 6.3255376 4.5360013 7.7374867 3.4042969 9.9277344 C 3.3131852 10.116114 3.2136589 10.299238 3.1308594 10.492188 C 3.1137534 10.528984 3.0989621 10.570217 3.0820312 10.607422 C 2.4015748 12.233368 2.0214026 14.015288 2.0058594 15.882812 C 2.1173259 16.074844 2.2265625 16.253906 2.2265625 16.253906 L 3.34375 16.925781 L 4.453125 17.240234 L 4.9414062 17.832031 L 5.6757812 18.398438 L 6.1035156 18.320312 L 6.4082031 18.476562 L 6.4082031 18.582031 L 5.9980469 19.742188 L 5.6757812 20.230469 L 5.7714844 20.464844 L 5.5175781 21.388672 L 6.4609375 23.140625 L 7.421875 23.996094 L 7.8496094 24.615234 L 7.796875 25.904297 L 8.1015625 26.628906 L 7.9277344 27.421875 C 8.5309298 27.84928 9.1695155 28.225558 9.8378906 28.554688 L 10.128906 28.275391 L 10.277344 27.839844 L 10.966797 27.605469 L 11.498047 26.261719 L 11.341797 25.904297 L 11.699219 25.337891 L 12.503906 25.154297 L 12.914062 24.177734 L 12.808594 22.958984 L 13.445312 22.060547 L 13.542969 21.126953 C 12.674621 20.688267 11.828675 20.244534 10.966797 19.792969 L 10.529297 18.939453 L 9.7441406 18.755859 L 9.3164062 17.597656 L 8.2773438 17.728516 L 7.3691406 17.056641 L 6.4082031 17.910156 L 6.4082031 18.033203 C 6.1200611 17.948513 5.7741431 17.940029 5.5175781 17.779297 L 5.3164062 17.160156 L 5.3164062 16.490234 L 4.6621094 16.568359 C 4.7150894 16.141223 4.7825975 15.704332 4.8359375 15.277344 L 4.453125 15.277344 L 4.0761719 15.765625 L 3.71875 15.949219 L 3.1953125 15.634766 L 3.1425781 14.964844 L 3.2382812 14.25 L 4.0253906 13.630859 L 4.6621094 13.630859 L 4.7851562 13.263672 L 5.5703125 13.447266 L 6.1542969 14.197266 L 6.2519531 12.958984 L 7.2636719 12.105469 L 7.6230469 11.207031 L 8.3808594 10.892578 L 8.7832031 10.273438 L 9.7441406 10.091797 L 10.232422 9.3671875 L 8.7832031 9.3671875 L 9.7011719 8.9316406 L 10.328125 8.9316406 L 11.140625 8.6523438 L 11.289062 9.4453125 L 11.646484 8.8789062 L 11.246094 8.5996094 L 11.341797 8.2597656 L 11.009766 7.9550781 L 10.660156 7.8496094 L 10.755859 7.4667969 L 10.486328 6.9179688 L 9.8476562 7.1796875 L 9.953125 6.6914062 L 9.2207031 6.2558594 L 8.6347656 7.2832031 L 8.6875 7.640625 L 8.1015625 7.9023438 L 7.7441406 8.7050781 L 7.5703125 7.9550781 L 6.5820312 7.5371094 L 6.4082031 6.9707031 L 7.7441406 6.203125 L 8.3300781 5.6367188 L 8.3808594 4.9648438 L 8.0507812 4.78125 L 7.7109375 4.7402344 z M 18.484375 5.9667969 L 18.484375 6.3769531 L 18.710938 6.6386719 L 18.710938 7.2578125 L 18.580078 8.0859375 L 19.244141 7.9550781 L 19.724609 7.4667969 L 19.287109 7.0488281 C 19.147546 6.6702061 19.008665 6.3298719 18.833984 5.9667969 L 18.484375 5.9667969 z M 17.925781 6.7949219 L 17.523438 6.9179688 L 17.619141 7.6679688 L 18.152344 7.3886719 L 17.925781 6.7949219 z M 25.337891 13.578125 L 25.949219 14.300781 L 26.683594 15.896484 L 27.136719 16.410156 L 26.910156 16.951172 L 27.320312 17.439453 C 27.134432 17.451743 26.95277 17.464844 26.761719 17.464844 C 26.414646 16.721903 26.135398 15.976419 25.871094 15.199219 L 25.417969 14.683594 L 25.164062 13.751953 L 25.337891 13.578125 z "
       id="path4162" />
    <path
       style="opacity:0.3;fill:#000000;fill-opacity:1;stroke:none;stroke-width:3;stroke-linejoin:round;stroke-miterlimit:4;stroke-dasharray:none;stroke-opacity:1"
       d="M 16,1 A 15.000001,15.000001 0 0 0 1,16 15.000001,15.000001 0 0 0 16,31 15.000001,15.000001 0 0 0 31,16 15.000001,15.000001 0 0 0 16,1 Z m 0,1 A 13.999998,13.999998 0 0 1 30,16 13.999998,13.999998 0 0 1 16,30 13.999998,13.999998 0 0 1 2,16 13.999998,13.999998 0 0 1 16,2 Z"
       id="circle4725"
       inkscape:connector-curvature="0" />
    <path
       style="opacity:0.4;fill:url(#linearGradient4753);fill-opacity:1;stroke:none;stroke-width:3;stroke-linejoin:round;stroke-miterlimit:4;stroke-dasharray:none;stroke-opacity:1"
       d="M 16,2 A 13.999999,13.999999 0 0 0 2,16 13.999999,13.999999 0 0 0 16,30 13.999999,13.999999 0 0 0 30,16 13.999999,13.999999 0 0 0 16,2 Z m 0,1 A 13,13 0 0 1 29,16 13,13 0 0 1 16,29 13,13 0 0 1 3,16 13,13 0 0 1 16,3 Z"
       id="circle4738"
       inkscape:connector-curvature="0" />
    <path
       style="clip-rule:evenodd;fill:url(#radialGradient4180);fill-opacity:1;fill-rule:evenodd"
       inkscape:connector-curvature="0"
       id="path7"
       d="m 14.831281,18.427169 c -1.95257,1.10431 -4.649344,-1.155674 -4.649344,-1.9778 0.02566,-0.667639 0.282297,-1.078701 0.796423,-1.155723 0.488016,0 1.412733,0.128288 2.157443,0.359255 0.128288,-0.770269 -0.02566,-1.695074 -0.539331,-2.337498 0,-0.153946 1.669368,-1.309669 1.92646,-1.464107 0.256635,-0.128288 0.359723,-0.333598 0.411038,-0.590617 0.205325,-0.20531 0.25664,-0.590715 -0.05132,-0.590715 -0.154403,0.02556 -1.207462,-0.02556 -1.56719,-0.07697 C 12.827444,10.438557 11.748723,9.359855 11.440768,8.923184 11.723065,7.407762 12.288059,6.663101 13.59821,5.789729 12.185424,5.918066 10.361594,6.483055 9.2059,7.587857 8.409476,7.305131 6.894113,7.664827 6.252092,7.947162 5.224686,7.484784 4.89068,5.764071 4.73667,4.736636 3.657497,5.712707 2.912846,7.048014 2.938503,9.719603 2.013674,11.620381 1.5,13.752126 1.5,16.013045 1.5,24.001267 7.998379,30.50002 16.013026,30.50002 24.001223,30.50002 30.5,24.001267 30.5,16.013045 c 0,-3.468007 -1.20786,-6.653239 -3.237009,-9.144683 0.565441,1.001729 0.899113,1.9778 0.899113,2.594124 -1.1557,-3.698464 -6.087342,-5.240035 -8.861541,-5.085549 1.130037,0.205261 2.799857,0.641933 3.313078,1.771979 -0.641509,-0.179584 -1.514965,-0.07697 -1.952117,0.180095 3.391019,1.001778 6.036925,3.467564 5.805038,5.651117 -0.282239,-0.462378 -0.744253,-0.822076 -1.258384,-0.899049 0.61682,2.388814 0.693793,4.340907 0.179667,5.908136 -0.282243,-1.027829 -0.692888,-1.695517 -0.976032,-1.875563 0.462811,3.031286 -0.07698,5.599261 -1.514969,7.166441 0.256586,-0.924707 0.333613,-1.721175 0.256586,-2.337056 -1.695483,2.542415 -3.54497,3.852871 -5.728071,3.929893 -2.157383,-0.02556 -3.904235,-0.770663 -5.445314,-2.312234 1.361019,0.128288 2.799404,0.102631 3.85292,-0.641539 l 1.772062,-1.259239 c 0.154005,-0.07697 0.565441,-0.07697 0.719446,0 0.461906,-0.05132 0.565445,-0.384914 0.359275,-0.692854 -0.205325,-0.308826 -0.461906,-0.565402 -0.899059,-0.796468 -0.924716,-0.488576 -1.926066,-0.385897 -2.953413,0.256576 l 0,0 z" />
    <path
       d="m 14.831281,18.427169 c -1.95257,1.10431 -4.649344,-1.155674 -4.649344,-1.9778 0.02566,-0.667639 0.282297,-1.078701 0.796423,-1.155723 0.488016,0 1.412733,0.128288 2.157443,0.359255 0.128288,-0.770269 -0.02566,-1.695074 -0.539331,-2.337498 0,-0.153946 1.669368,-1.309669 1.92646,-1.464107 0.256635,-0.128288 0.359723,-0.333598 0.411038,-0.590617 0.205325,-0.20531 0.25664,-0.590715 -0.05132,-0.590715 -0.154403,0.02556 -1.207462,-0.02556 -1.56719,-0.07697 C 12.827444,10.438557 11.748723,9.359855 11.440768,8.923184 11.723065,7.407762 12.288059,6.663101 13.59821,5.789729 12.185424,5.918066 10.361594,6.483055 9.2059,7.587857 8.409476,7.305131 6.894113,7.664827 6.252092,7.947162 5.224686,7.484784 4.89068,5.764071 4.73667,4.736636 3.657497,5.712707 2.912846,7.048014 2.938503,9.719603 2.013674,11.620381 1.5,13.752126 1.5,16.013045 1.5,24.001267 7.998379,30.50002 16.013026,30.50002 24.001223,30.50002 30.5,24.001267 30.5,16.013045 c 0,-3.468007 -1.20786,-6.653239 -3.237009,-9.144683 0.565441,1.001729 0.899113,1.9778 0.899113,2.594124 -1.1557,-3.698464 -6.087342,-5.240035 -8.861541,-5.085549 1.130037,0.205261 2.799857,0.641933 3.313078,1.771979 -0.641509,-0.179584 -1.514965,-0.07697 -1.952117,0.180095 3.391019,1.001778 6.036925,3.467564 5.805038,5.651117 -0.282239,-0.462378 -0.744253,-0.822076 -1.258384,-0.899049 0.61682,2.388814 0.693793,4.340907 0.179667,5.908136 -0.282243,-1.027829 -0.692888,-1.695517 -0.976032,-1.875563 0.462811,3.031286 -0.07698,5.599261 -1.514969,7.166441 0.256586,-0.924707 0.333613,-1.721175 0.256586,-2.337056 -1.695483,2.542415 -3.54497,3.852871 -5.728071,3.929893 -2.157383,-0.02556 -3.904235,-0.770663 -5.445314,-2.312234 1.361019,0.128288 2.799404,0.102631 3.85292,-0.641539 l 1.772062,-1.259239 c 0.154005,-0.07697 0.565441,-0.07697 0.719446,0 0.461906,-0.05132 0.565445,-0.384914 0.359275,-0.692854 -0.205325,-0.308826 -0.461906,-0.565402 -0.899059,-0.796468 -0.924716,-0.488576 -1.926066,-0.385897 -2.953413,0.256576 l 0,0 z"
       id="path4185"
       inkscape:connector-curvature="0"
       style="clip-rule:evenodd;fill:none;fill-opacity:1;fill-rule:evenodd;stroke:#6e0000;stroke-opacity:1;stroke-linejoin:round;opacity:0.3" />
    <path
       style="clip-rule:evenodd;fill:#ffffff;fill-opacity:1;fill-rule:evenodd;opacity:0.25"
       d="M 19.300781 4.3769531 C 20.295206 4.5575814 21.706441 4.9176449 22.380859 5.7714844 C 24.80955 6.4286161 27.370232 7.9287299 28.162109 10.462891 C 28.162109 9.8465666 27.829113 8.8708696 27.263672 7.8691406 C 27.436771 8.0816768 27.594953 8.3049651 27.755859 8.5273438 C 26.13149 5.5080213 21.826705 4.2362928 19.300781 4.3769531 z M 4.7363281 4.7363281 C 3.6571551 5.7123991 2.9137961 7.047161 2.9394531 9.71875 C 2.0146241 11.619528 1.5 13.752753 1.5 16.013672 C 1.5 16.19176 1.5209394 16.364464 1.5273438 16.541016 C 1.5944241 14.457558 2.0800715 12.485016 2.9394531 10.71875 C 2.9137961 8.047161 3.6571551 6.7123991 4.7363281 5.7363281 C 4.8903381 6.7637631 5.2245471 8.4848876 6.2519531 8.9472656 C 6.8939741 8.6649306 8.4086541 8.3051646 9.2050781 8.5878906 C 9.9983061 7.8295931 11.105893 7.3416392 12.179688 7.0585938 C 12.516297 6.5994533 12.969038 6.2081113 13.597656 5.7890625 C 12.18487 5.9173995 10.360772 6.4830886 9.2050781 7.5878906 C 8.4086541 7.3051646 6.8939741 7.6649306 6.2519531 7.9472656 C 5.2245471 7.4848876 4.8903381 5.7637631 4.7363281 4.7363281 z M 21.517578 6.0839844 C 21.181801 6.1222645 20.871296 6.2051136 20.662109 6.328125 C 21.345283 6.5299487 21.984596 6.8049405 22.589844 7.1113281 C 22.375415 6.6695239 21.983812 6.338099 21.517578 6.0839844 z M 27.263672 6.8691406 C 27.715598 7.6697676 28.009487 8.4437387 28.113281 9.0410156 C 29.528799 11.188183 30.377561 13.73712 30.476562 16.480469 C 30.481585 16.32404 30.5 16.1713 30.5 16.013672 C 30.5 12.545665 29.292821 9.3605846 27.263672 6.8691406 z M 11.646484 9.1679688 C 11.570394 9.40429 11.494459 9.6390334 11.441406 9.9238281 C 11.749361 10.360499 12.82839 11.439313 13.316406 11.59375 C 13.642347 11.640331 14.469869 11.678687 14.75 11.667969 C 14.84509 11.554668 14.901914 11.418437 14.933594 11.259766 C 15.138919 11.054456 15.190773 10.669922 14.882812 10.669922 C 14.728409 10.695482 13.676134 10.64516 13.316406 10.59375 C 12.899065 10.461679 12.076337 9.6723362 11.646484 9.1679688 z M 25.208984 11.082031 C 25.305046 11.454058 25.363913 11.795446 25.433594 12.146484 C 25.854576 12.280697 26.22703 12.587671 26.466797 12.980469 C 26.508455 12.588198 26.452041 12.187472 26.320312 11.787109 C 26.036974 11.423341 25.646292 11.147503 25.208984 11.082031 z M 12.957031 13.970703 C 12.75184 14.134687 12.595703 14.269867 12.595703 14.314453 C 12.897262 14.691599 13.063531 15.167003 13.132812 15.650391 C 13.134124 15.650796 13.135409 15.651937 13.136719 15.652344 C 13.226055 15.115948 13.167596 14.509434 12.957031 13.970703 z M 24.412109 15.113281 C 24.470386 15.494975 24.512371 15.870399 24.539062 16.236328 C 24.809458 16.504826 25.145025 17.101007 25.388672 17.988281 C 25.658029 17.167189 25.754799 16.235141 25.707031 15.195312 C 25.669769 15.840788 25.56872 16.439434 25.388672 16.988281 C 25.106429 15.960452 24.695253 15.293327 24.412109 15.113281 z M 10.314453 16.835938 C 10.241737 17.007855 10.191042 17.204608 10.181641 17.449219 C 10.181641 18.271345 12.879461 20.532044 14.832031 19.427734 C 15.859378 18.785261 16.86044 18.681346 17.785156 19.169922 C 18.053407 19.311711 18.2402 19.46954 18.402344 19.636719 C 18.785716 19.55373 18.875377 19.253249 18.683594 18.966797 C 18.478269 18.657971 18.222309 18.400988 17.785156 18.169922 C 16.86044 17.681346 15.859378 17.785261 14.832031 18.427734 C 13.134009 19.38808 10.875065 17.805934 10.314453 16.835938 z M 24.552734 17.648438 C 24.476942 19.388007 24.000265 20.866735 23.152344 21.953125 C 23.112363 22.35678 23.029709 22.799171 22.896484 23.279297 C 24.083681 21.98544 24.648726 20.004134 24.552734 17.648438 z M 23.154297 19.943359 C 21.458814 22.485774 19.608882 23.796025 17.425781 23.873047 C 15.834397 23.854193 14.467045 23.440189 13.240234 22.607422 C 12.820773 22.613461 12.398733 22.599972 11.980469 22.560547 C 13.521548 24.102118 15.268398 24.847487 17.425781 24.873047 C 19.608207 24.796049 21.45729 23.48618 23.152344 20.945312 C 23.152414 20.944598 23.154227 20.944073 23.154297 20.943359 C 23.19028 20.573666 23.190991 20.23675 23.154297 19.943359 z "
       id="path4171" />
    <path
       style="opacity:0.4;fill:none;fill-opacity:1;stroke:url(#linearGradient4188);stroke-width:1;stroke-linecap:butt;stroke-linejoin:round;stroke-miterlimit:4;stroke-dasharray:none;stroke-opacity:1"
       id="path4180"
       sodipodi:type="arc"
       sodipodi:cx="16"
       sodipodi:cy="16"
       sodipodi:rx="13.5"
       sodipodi:ry="13.5"
       sodipodi:start="5.846853"
       sodipodi:end="3.5430184"
       d="M 28.235155,10.294654 A 13.5,13.5 0 0 1 24.495825,26.491471 13.5,13.5 0 0 1 7.875497,26.781579 13.5,13.5 0 0 1 3.5731846,10.72513"
       sodipodi:open="true" />
  </g>
</svg>
