<?xml version="1.0" encoding="UTF-8" standalone="no"?>
<svg
   xmlns:dc="http://purl.org/dc/elements/1.1/"
   xmlns:cc="http://creativecommons.org/ns#"
   xmlns:rdf="http://www.w3.org/1999/02/22-rdf-syntax-ns#"
   xmlns:svg="http://www.w3.org/2000/svg"
   xmlns="http://www.w3.org/2000/svg"
   xmlns:xlink="http://www.w3.org/1999/xlink"
   viewBox="0 0 32 32"
   version="1.1"
   id="svg4175"
   height="32"
   width="32">
  <defs
     id="defs4177">
    <linearGradient
       id="linearGradient4298">
      <stop
         style="stop-color:#ffffff;stop-opacity:1;"
         offset="0"
         id="stop4300" />
      <stop
         id="stop4302"
         offset="0.375"
         style="stop-color:#ffffff;stop-opacity:0.23529412" />
      <stop
         style="stop-color:#ffffff;stop-opacity:0.15686275"
         offset="0.625"
         id="stop4304" />
      <stop
         style="stop-color:#ffffff;stop-opacity:0.39215687"
         offset="1"
         id="stop4306" />
    </linearGradient>
    <linearGradient
       id="linearGradient4761">
      <stop
         id="stop4763"
         offset="0"
         style="stop-color:#000000;stop-opacity:1;" />
      <stop
         id="stop4765"
         offset="1"
         style="stop-color:#000000;stop-opacity:0;" />
    </linearGradient>
    <linearGradient
       id="linearGradient4747">
      <stop
         id="stop4749"
         offset="0"
         style="stop-color:#ffffff;stop-opacity:1;" />
      <stop
         style="stop-color:#ffffff;stop-opacity:0.23529412"
         offset="0.23694834"
         id="stop4755" />
      <stop
         id="stop4757"
         offset="0.76410484"
         style="stop-color:#ffffff;stop-opacity:0.15686275" />
      <stop
         id="stop4751"
         offset="1"
         style="stop-color:#ffffff;stop-opacity:0.39215687" />
    </linearGradient>
    <linearGradient
       id="linearGradient4730">
      <stop
         id="stop4732"
         offset="0"
         style="stop-color:#1eb4dc;stop-opacity:1" />
      <stop
         id="stop4734"
         offset="1"
         style="stop-color:#0a64dc;stop-opacity:1" />
    </linearGradient>
    <radialGradient
       gradientUnits="userSpaceOnUse"
       gradientTransform="matrix(1,0,0,0.31818182,0,19.431818)"
       r="11"
       fy="28.5"
       fx="16"
       cy="28.5"
       cx="16"
       id="radialGradient4767"
       xlink:href="#linearGradient4761" />
    <linearGradient
       gradientUnits="userSpaceOnUse"
       y2="30.053946"
       x2="16.335493"
       y1="1.9460506"
       x1="16.335493"
       id="linearGradient4166"
       xlink:href="#linearGradient4747" />
    <radialGradient
       r="14.5"
       fy="7.1325889"
       fx="14.120256"
       cy="7.1325889"
       cx="14.120256"
       gradientTransform="matrix(3.2819915e-8,0.75862067,-0.55172414,2.386903e-8,19.935221,2.2880816)"
       gradientUnits="userSpaceOnUse"
       id="radialGradient4157"
       xlink:href="#linearGradient4730" />
    <radialGradient
       gradientTransform="matrix(0,0.50907991,-0.40375302,0,20.303595,-1.6399461)"
       gradientUnits="userSpaceOnUse"
       r="28"
       fy="22.832893"
       fx="41.409233"
       cy="22.832893"
       cx="41.409233"
       id="radialGradient3791"
       xlink:href="#linearGradient4247" />
    <linearGradient
       id="linearGradient4247">
      <stop
         style="stop-color:#55e132;stop-opacity:1"
         offset="0"
         id="stop4249" />
      <stop
         style="stop-color:#41a032;stop-opacity:1"
         offset="1"
         id="stop4251" />
    </linearGradient>
    <radialGradient
       r="28"
       fy="-1.3459288"
       fx="39.478199"
       cy="-1.3459288"
       cx="39.478199"
       gradientTransform="matrix(0,0.403753,-0.29842615,0,21.98817,2.5181705)"
       gradientUnits="userSpaceOnUse"
       id="radialGradient4263"
       xlink:href="#linearGradient4269" />
    <linearGradient
       id="linearGradient4269">
      <stop
         id="stop4271"
         offset="0"
         style="stop-color:#fff53c;stop-opacity:1" />
      <stop
         id="stop4273"
         offset="1"
         style="stop-color:#e1b41e;stop-opacity:1" />
    </linearGradient>
    <radialGradient
       r="28"
       fy="16.321266"
       fx="26.706453"
       cy="16.321266"
       cx="26.706453"
       gradientTransform="matrix(1.5699182e-8,0.68462472,-0.5792978,1.3283922e-8,25.454874,-15.5551)"
       gradientUnits="userSpaceOnUse"
       id="radialGradient4225"
       xlink:href="#linearGradient4229" />
    <linearGradient
       id="linearGradient4229">
      <stop
         style="stop-color:#f0735f;stop-opacity:1"
         offset="0"
         id="stop4231" />
      <stop
         style="stop-color:#c81e1e;stop-opacity:1"
         offset="1"
         id="stop4233" />
    </linearGradient>
    <linearGradient
       gradientUnits="userSpaceOnUse"
       y2="20"
       x2="16"
       y1="12"
       x1="16"
       id="linearGradient4296"
       xlink:href="#linearGradient4298" />
  </defs>
  <metadata
     id="metadata4180">
    <rdf:RDF>
      <cc:Work
         rdf:about="">
        <dc:format>image/svg+xml</dc:format>
        <dc:type
           rdf:resource="http://purl.org/dc/dcmitype/StillImage" />
        <dc:title />
      </cc:Work>
    </rdf:RDF>
  </metadata>
  <g
     id="layer1">
    <rect
       y="25"
       x="5"
       height="7"
       width="22"
       id="rect4759"
       style="opacity:0.6;fill:url(#radialGradient4767);fill-opacity:1;stroke:none;stroke-width:3;stroke-linejoin:round;stroke-miterlimit:4;stroke-dasharray:none;stroke-opacity:1" />
    <circle
       id="path3013"
       style="opacity:1;fill:url(#radialGradient3791);fill-opacity:1;stroke:none"
       cx="16"
       cy="16.000015"
       r="14.5" />
    <path
       id="path4253"
       d="m 16,8.6271028 4.423729,6.3898302 1.474576,2.949153 -7.381521,12.456137 c 0.492752,0.05124 0.987807,0.0772 1.483216,0.07776 8.008129,0 14.5,-6.491871 14.5,-14.5 0,-2.692771 -0.737157,-5.212158 -2.016022,-7.3728812 z"
       style="opacity:1;fill:url(#radialGradient4263);fill-opacity:1;stroke:none" />
    <path
       id="path4219"
       d="M 16 1.5 A 14.5 14.5 0 0 0 15.044922 1.5351562 C 14.975694 1.5398273 14.906941 1.5470793 14.837891 1.5527344 A 14.5 14.5 0 0 0 13.763672 1.6835938 C 13.650484 1.701442 13.536358 1.7158384 13.423828 1.7363281 A 14.5 14.5 0 0 0 12.357422 1.9765625 C 12.202435 2.0170712 12.047845 2.0599215 11.894531 2.1054688 A 14.5 14.5 0 0 0 10.882812 2.4414062 C 10.735861 2.4971096 10.592222 2.5606919 10.447266 2.6210938 A 14.5 14.5 0 0 0 9.7851562 2.9160156 C 9.5150052 3.0447758 9.2499464 3.1829178 8.9882812 3.328125 A 14.5 14.5 0 0 0 8.4960938 3.609375 C 8.29094 3.7339535 8.0875977 3.8613453 7.8886719 3.9960938 C 7.8030619 4.0540842 7.7211216 4.1178881 7.6367188 4.1777344 C 7.2880463 4.4249622 6.9477545 4.684725 6.6210938 4.9628906 A 14.5 14.5 0 0 0 6.3671875 5.1855469 C 6.0137461 5.5010242 5.674604 5.8343312 5.3515625 6.1855469 A 14.5 14.5 0 0 0 5.25 6.2949219 C 4.8707394 6.7158959 4.5129777 7.1602995 4.1816406 7.6289062 L 4.203125 7.6445312 L 10.59375 18.949219 L 15.017578 13.050781 L 15.017578 11.576172 C 15.017578 10.926454 15.333433 10.357572 15.816406 10 L 29.179688 10 A 14.5 14.5 0 0 0 28.679688 9 C 28.674164 8.9899842 28.667654 8.9807027 28.662109 8.9707031 C 28.362981 8.4312622 28.031385 7.9160729 27.671875 7.4257812 A 14.5 14.5 0 0 0 27.623047 7.3554688 C 27.618066 7.3487588 27.612414 7.3426378 27.607422 7.3359375 C 27.429598 7.0972587 27.24389 6.8648211 27.052734 6.6386719 A 14.5 14.5 0 0 0 26.929688 6.5 C 26.579046 6.0957895 26.206945 5.7143791 25.816406 5.3535156 A 14.5 14.5 0 0 0 25.630859 5.1796875 C 25.435633 5.0055349 25.235232 4.8368933 25.03125 4.6738281 A 14.5 14.5 0 0 0 24.683594 4.4101562 C 24.368512 4.1734604 24.043927 3.9522973 23.710938 3.7421875 A 14.5 14.5 0 0 0 23.236328 3.4492188 C 23.053958 3.3437211 22.868529 3.242033 22.681641 3.1445312 A 14.5 14.5 0 0 0 21.933594 2.7832031 C 21.740199 2.6960284 21.545 2.6138656 21.347656 2.5351562 A 14.5 14.5 0 0 0 20.519531 2.234375 C 20.376394 2.1871619 20.232705 2.1404451 20.087891 2.0976562 A 14.5 14.5 0 0 0 18.935547 1.8027344 C 18.929656 1.8015101 18.923862 1.8000452 18.917969 1.7988281 C 18.850186 1.7848292 18.780955 1.776711 18.712891 1.7636719 A 14.5 14.5 0 0 0 17.650391 1.6035156 C 17.519311 1.5883934 17.387735 1.5740629 17.255859 1.5625 A 14.5 14.5 0 0 0 16 1.5 z "
       style="opacity:1;fill:url(#radialGradient4225);fill-opacity:1;stroke:none" />
    <circle
       style="opacity:0.3;fill:none;fill-opacity:1;stroke:#000000;stroke-width:1;stroke-linejoin:round;stroke-miterlimit:4;stroke-dasharray:none;stroke-opacity:1"
       id="circle4154"
       cx="16"
       cy="16"
       r="14.5" />
    <circle
       style="opacity:0.5;fill:none;fill-opacity:1;stroke:url(#linearGradient4166);stroke-width:1;stroke-linejoin:round;stroke-miterlimit:4;stroke-dasharray:none;stroke-opacity:1"
       id="circle4156"
       cx="16"
       cy="15.999998"
       r="13.5" />
    <circle
       r="6.5"
       cy="16"
       cx="16"
       id="circle4159"
       style="opacity:1;fill:#f5f5f5;fill-opacity:1;stroke:none;stroke-width:3;stroke-linejoin:round;stroke-miterlimit:4;stroke-dasharray:none;stroke-opacity:1" />
    <circle
       style="opacity:1;fill:url(#radialGradient4157);fill-opacity:1;stroke:none;stroke-width:3;stroke-linejoin:round;stroke-miterlimit:4;stroke-dasharray:none;stroke-opacity:1"
       id="circle4155"
       cx="16"
       cy="16"
       r="4.5" />
    <circle
       style="opacity:0.3;fill:none;fill-opacity:1;stroke:#000000;stroke-width:1;stroke-linejoin:round;stroke-miterlimit:4;stroke-dasharray:none;stroke-opacity:1"
       id="circle4163"
       cx="16"
       cy="16"
       r="6.5" />
    <circle
       r="4.5"
       cy="16"
       cx="16"
       id="circle4165"
       style="opacity:0.60000001;fill:none;fill-opacity:1;stroke:#144696;stroke-width:1;stroke-linejoin:round;stroke-miterlimit:4;stroke-dasharray:none;stroke-opacity:1" />
    <circle
       r="3.5"
       cy="16"
       cx="16"
       id="circle4286"
       style="opacity:0.49999999;fill:none;fill-opacity:1;stroke:url(#linearGradient4296);stroke-width:1;stroke-linejoin:round;stroke-miterlimit:4;stroke-dasharray:none;stroke-opacity:1" />
  </g>
</svg>
