<?xml version="1.0" encoding="UTF-8" standalone="no"?>
<!-- Created with Inkscape (http://www.inkscape.org/) -->

<svg
   xmlns:dc="http://purl.org/dc/elements/1.1/"
   xmlns:cc="http://creativecommons.org/ns#"
   xmlns:rdf="http://www.w3.org/1999/02/22-rdf-syntax-ns#"
   xmlns:svg="http://www.w3.org/2000/svg"
   xmlns="http://www.w3.org/2000/svg"
   xmlns:xlink="http://www.w3.org/1999/xlink"
   xmlns:sodipodi="http://sodipodi.sourceforge.net/DTD/sodipodi-0.dtd"
   xmlns:inkscape="http://www.inkscape.org/namespaces/inkscape"
   width="32"
   height="32"
   viewBox="0 0 32 32.000001"
   id="svg2"
   version="1.1"
   inkscape:version="0.91 r"
   sodipodi:docname="libreoffice-draw-32.svg">
  <defs
     id="defs4">
    <linearGradient
       inkscape:collect="always"
       id="linearGradient4182">
      <stop
         style="stop-color:#000000;stop-opacity:1;"
         offset="0"
         id="stop4184" />
      <stop
         style="stop-color:#000000;stop-opacity:0;"
         offset="1"
         id="stop4186" />
    </linearGradient>
    <linearGradient
       inkscape:collect="always"
       id="linearGradient4172">
      <stop
         style="stop-color:#000000;stop-opacity:0"
         offset="0"
         id="stop4174" />
      <stop
         id="stop4180"
         offset="0.48938689"
         style="stop-color:#000000;stop-opacity:1" />
      <stop
         style="stop-color:#000000;stop-opacity:0;"
         offset="1"
         id="stop4176" />
    </linearGradient>
    <linearGradient
       inkscape:collect="always"
       id="linearGradient4156">
      <stop
         style="stop-color:#ffffff;stop-opacity:1;"
         offset="0"
         id="stop4158" />
      <stop
         id="stop4164"
         offset="0.18988827"
         style="stop-color:#ffffff;stop-opacity:0.23529412" />
      <stop
         style="stop-color:#ffffff;stop-opacity:0.15686275"
         offset="0.77344263"
         id="stop4166" />
      <stop
         style="stop-color:#ffffff;stop-opacity:0.39215687"
         offset="1"
         id="stop4160" />
    </linearGradient>
    <linearGradient
       inkscape:collect="always"
       xlink:href="#linearGradient4172"
       id="linearGradient4178"
       x1="-2.9041889"
       y1="1041.6772"
       x2="-2.9041889"
       y2="1044.7078"
       gradientUnits="userSpaceOnUse" />
    <radialGradient
       inkscape:collect="always"
       xlink:href="#linearGradient4182"
       id="radialGradient4188"
       cx="-11.429584"
       cy="1043.1627"
       fx="-11.429584"
       fy="1043.1627"
       r="2"
       gradientTransform="matrix(-2.0078125,0,0,-0.75,-34.378044,1825.5422)"
       gradientUnits="userSpaceOnUse" />
    <radialGradient
       inkscape:collect="always"
       xlink:href="#linearGradient4182"
       id="radialGradient4192"
       gradientUnits="userSpaceOnUse"
       gradientTransform="matrix(-2.0078125,0,0,-0.75,-31.523342,1825.5422)"
       cx="-11.429584"
       cy="1043.1627"
       fx="-11.429584"
       fy="1043.1627"
       r="2" />
    <linearGradient
       id="linearGradient3767">
      <stop
         style="stop-color:#ffffff;stop-opacity:1;"
         offset="0"
         id="stop3769" />
      <stop
         id="stop3777"
         offset="0.18932098"
         style="stop-color:#ffffff;stop-opacity:0.23529412;" />
      <stop
         id="stop3775"
         offset="0.87385589"
         style="stop-color:#ffffff;stop-opacity:0.15686275;" />
      <stop
         style="stop-color:#ffffff;stop-opacity:0.392"
         offset="1"
         id="stop3771" />
    </linearGradient>
    <radialGradient
       inkscape:collect="always"
       xlink:href="#linearGradient4235-7"
       id="radialGradient4186"
       gradientUnits="userSpaceOnUse"
       gradientTransform="matrix(-6.5646494e-7,2.2400001,-2.0000028,-5.8613022e-7,2076.7011,-23.152008)"
       cx="13.907416"
       cy="1030.3491"
       fx="13.907416"
       fy="1030.3491"
       r="12.5" />
    <linearGradient
       inkscape:collect="always"
       xlink:href="#linearGradient4156"
       id="linearGradient4195"
       gradientUnits="userSpaceOnUse"
       x1="15.648655"
       y1="1025.2766"
       x2="15.648655"
       y2="1049.3748"
       gradientTransform="translate(0,-1020.3622)" />
    <linearGradient
       id="linearGradient4235-7">
      <stop
         offset="0"
         style="stop-color:#f0d214;stop-opacity:1"
         id="stop4237-2" />
      <stop
         offset="1"
         style="stop-color:#f09b0a;stop-opacity:1"
         id="stop4243-9" />
    </linearGradient>
  </defs>
  <sodipodi:namedview
     id="base"
     pagecolor="#ffffff"
     bordercolor="#666666"
     borderopacity="1.0"
     inkscape:pageopacity="0.0"
     inkscape:pageshadow="2"
     inkscape:zoom="11.43878"
     inkscape:cx="18.574329"
     inkscape:cy="5.2839779"
     inkscape:document-units="px"
     inkscape:current-layer="layer1"
     showgrid="true"
     units="px"
     inkscape:window-width="1366"
     inkscape:window-height="713"
     inkscape:window-x="0"
     inkscape:window-y="30"
     inkscape:window-maximized="1">
    <inkscape:grid
       type="xygrid"
       id="grid4303" />
  </sodipodi:namedview>
  <metadata
     id="metadata7">
    <rdf:RDF>
      <cc:Work
         rdf:about="">
        <dc:format>image/svg+xml</dc:format>
        <dc:type
           rdf:resource="http://purl.org/dc/dcmitype/StillImage" />
        <dc:title></dc:title>
      </cc:Work>
    </rdf:RDF>
  </metadata>
  <g
     inkscape:label="Livello 1"
     inkscape:groupmode="layer"
     id="layer1"
     transform="translate(0,-1020.3622)">
    <g
       id="g4194"
       transform="translate(17.427351,6.6696951)"
       style="opacity:0.4">
      <rect
         y="1041.6925"
         x="-11.427351"
         height="3"
         width="20"
         id="rect4168"
         style="opacity:1;fill:url(#linearGradient4178);fill-opacity:1;stroke:none;stroke-width:3;stroke-linejoin:round;stroke-miterlimit:4;stroke-dasharray:none;stroke-opacity:1" />
      <rect
         style="opacity:1;fill:url(#radialGradient4188);fill-opacity:1;stroke:none;stroke-width:3;stroke-linejoin:round;stroke-miterlimit:4;stroke-dasharray:none;stroke-opacity:1"
         id="rect4170"
         width="4"
         height="3"
         x="-15.427351"
         y="1041.6925" />
      <rect
         transform="scale(-1,1)"
         y="1041.6925"
         x="-12.572649"
         height="3"
         width="4"
         id="rect4190"
         style="opacity:1;fill:url(#radialGradient4192);fill-opacity:1;stroke:none;stroke-width:3;stroke-linejoin:round;stroke-miterlimit:4;stroke-dasharray:none;stroke-opacity:1" />
    </g>
    <path
       style="opacity:1;fill:url(#radialGradient4186);fill-opacity:1.0;stroke:none;stroke-width:3;stroke-linejoin:round;stroke-miterlimit:4;stroke-dasharray:none;stroke-opacity:1"
       d="M 5.5 4.5 C 4.392 4.5 3.5 5.392 3.5 6.5 L 3.5 27.5 C 3.5 28.608 4.392 29.5 5.5 29.5 L 26.5 29.5 C 27.608 29.5 28.5 28.608 28.5 27.5 L 28.5 15 L 18 4.5 L 5.5 4.5 z M 22 4.5 L 28.5 11 L 28.5 6.5 C 28.5 5.392 27.608 4.5 26.5 4.5 L 22 4.5 z "
       transform="translate(0,1020.3622)"
       id="rect4183" />
    <path
       id="path4189"
       d="M 5.5 4.5 C 4.392 4.5 3.5 5.392 3.5 6.5 L 3.5 27.5 C 3.5 28.608 4.392 29.5 5.5 29.5 L 26.5 29.5 C 27.608 29.5 28.5 28.608 28.5 27.5 L 28.5 15 L 18 4.5 L 5.5 4.5 z M 22 4.5 L 28.5 11 L 28.5 6.5 C 28.5 5.392 27.608 4.5 26.5 4.5 L 22 4.5 z "
       style="opacity:0.60000001;fill:none;fill-opacity:1;stroke:#be6400;stroke-width:1;stroke-linejoin:miter;stroke-miterlimit:4;stroke-dasharray:none;stroke-opacity:1"
       transform="translate(0,1020.3622)" />
    <path
       style="opacity:0.4;fill:none;fill-opacity:1;stroke:url(#linearGradient4195);stroke-width:1;stroke-linejoin:miter;stroke-miterlimit:4;stroke-dasharray:none;stroke-opacity:1"
       d="M 5.5 5.5 C 4.946 5.5 4.5 5.946 4.5 6.5 L 4.5 27.5 C 4.5 28.054 4.946 28.5 5.5 28.5 L 26.5 28.5 C 27.054 28.5 27.5 28.054 27.5 27.5 L 27.5 15.400391 L 17.599609 5.5 L 5.5 5.5 z M 24.400391 5.5 L 27.5 8.5996094 L 27.5 6.5 C 27.5 5.946 27.054 5.5 26.5 5.5 L 24.400391 5.5 z "
       transform="translate(0,1020.3622)"
       id="rect4191" />
    <path
       inkscape:connector-curvature="0"
       style="opacity:0.07;fill:#00000d;fill-opacity:1;stroke:#000000;stroke-width:1;stroke-linecap:butt;stroke-linejoin:round;stroke-miterlimit:4;stroke-dasharray:none;stroke-opacity:1"
       d="m 10.5,1034.3622 a 1.5,1.5 0 0 0 -1.5,1.5 1.5,1.5 0 0 0 1.5,1.5 1.5,1.5 0 0 0 0.916016,-0.3125 l 1.574218,1.1816 c -0.659765,-0.031 -1.282185,0.055 -1.822265,0.3008 -0.826757,0.3758 -1.427523,1.1559 -1.5546878,2.1914 -0.060193,0.4901 -0.018784,1.0374 0.1152344,1.6387 l -0.7285156,0 0,3 3,0 0,-3 -1.238281,0 c -0.15782,-0.6043 -0.205455,-1.1149 -0.15625,-1.5156 0.09159,-0.7458 0.428319,-1.1532 0.976562,-1.4024 0.774159,-0.3519 2.060921,-0.2499 3.417969,0.336 l 0,1.582 2.166016,0 2.875,2.1563 A 1.5,1.5 0 0 0 20,1043.8622 a 1.5,1.5 0 0 0 1.5,1.5 1.5,1.5 0 0 0 1.5,-1.5 1.5,1.5 0 0 0 -1.5,-1.5 1.5,1.5 0 0 0 -0.916016,0.3145 l -1.207031,-0.9063 c 0.958871,0.08 1.799661,-0.04 2.423828,-0.5078 0.649334,-0.487 0.954648,-1.3266 0.884766,-2.3399 -0.03227,-0.4679 -0.143349,-0.9903 -0.320313,-1.5605 l 0.634766,0 0,-3 -3,0 0,3 1.308594,0 c 0.221557,0.6402 0.350649,1.1909 0.380859,1.6289 0.05512,0.7992 -0.139568,1.2097 -0.490234,1.4727 -0.350667,0.263 -0.970448,0.3953 -1.837891,0.3086 -0.407151,-0.041 -0.866159,-0.1341 -1.361328,-0.2657 l 0,-2.1445 -3,0 0,0.127 -3.041016,-2.2813 A 1.5,1.5 0 0 0 12,1035.8622 a 1.5,1.5 0 0 0 -1.5,-1.5 z"
       id="path4215" />
    <path
       id="path4213"
       d="m 10.5,1034.3622 a 1.5,1.5 0 0 0 -1.5,1.5 1.5,1.5 0 0 0 1.5,1.5 1.5,1.5 0 0 0 0.916016,-0.3125 l 1.574218,1.1816 c -0.659765,-0.031 -1.282185,0.055 -1.822265,0.3008 -0.826757,0.3758 -1.427523,1.1559 -1.5546878,2.1914 -0.060193,0.4901 -0.018784,1.0374 0.1152344,1.6387 l -0.7285156,0 0,3 3,0 0,-3 -1.238281,0 c -0.15782,-0.6043 -0.205455,-1.1149 -0.15625,-1.5156 0.09159,-0.7458 0.428319,-1.1532 0.976562,-1.4024 0.774159,-0.3519 2.060921,-0.2499 3.417969,0.336 l 0,1.582 2.166016,0 2.875,2.1563 A 1.5,1.5 0 0 0 20,1043.8622 a 1.5,1.5 0 0 0 1.5,1.5 1.5,1.5 0 0 0 1.5,-1.5 1.5,1.5 0 0 0 -1.5,-1.5 1.5,1.5 0 0 0 -0.916016,0.3145 l -1.207031,-0.9063 c 0.958871,0.08 1.799661,-0.04 2.423828,-0.5078 0.649334,-0.487 0.954648,-1.3266 0.884766,-2.3399 -0.03227,-0.4679 -0.143349,-0.9903 -0.320313,-1.5605 l 0.634766,0 0,-3 -3,0 0,3 1.308594,0 c 0.221557,0.6402 0.350649,1.1909 0.380859,1.6289 0.05512,0.7992 -0.139568,1.2097 -0.490234,1.4727 -0.350667,0.263 -0.970448,0.3953 -1.837891,0.3086 -0.407151,-0.041 -0.866159,-0.1341 -1.361328,-0.2657 l 0,-2.1445 -3,0 0,0.127 -3.041016,-2.2813 A 1.5,1.5 0 0 0 12,1035.8622 a 1.5,1.5 0 0 0 -1.5,-1.5 z"
       style="opacity:0.15000007;fill:#00000d;fill-opacity:1;stroke:none;stroke-width:2;stroke-linecap:butt;stroke-linejoin:round;stroke-miterlimit:4;stroke-dasharray:none;stroke-opacity:1"
       inkscape:connector-curvature="0" />
    <path
       style="opacity:1;fill:#ffffff;fill-opacity:1;stroke:none;stroke-width:2;stroke-linecap:butt;stroke-linejoin:round;stroke-miterlimit:4;stroke-dasharray:none;stroke-opacity:1"
       d="M 10.5 13 A 1.5 1.5 0 0 0 9 14.5 A 1.5 1.5 0 0 0 10.5 16 A 1.5 1.5 0 0 0 11.416016 15.6875 L 12.990234 16.869141 C 12.330469 16.838061 11.708049 16.924495 11.167969 17.169922 C 10.341212 17.545722 9.740446 18.325828 9.6132812 19.361328 C 9.5530882 19.851432 9.5944974 20.39871 9.7285156 21 L 9 21 L 9 24 L 12 24 L 12 21 L 10.761719 21 C 10.603899 20.395727 10.556264 19.885059 10.605469 19.484375 C 10.697059 18.738575 11.033788 18.331231 11.582031 18.082031 C 12.35619 17.730143 13.642952 17.832111 15 18.417969 L 15 20 L 17.166016 20 L 20.041016 22.15625 A 1.5 1.5 0 0 0 20 22.5 A 1.5 1.5 0 0 0 21.5 24 A 1.5 1.5 0 0 0 23 22.5 A 1.5 1.5 0 0 0 21.5 21 A 1.5 1.5 0 0 0 20.583984 21.314453 L 19.376953 20.408203 C 20.335824 20.488592 21.176614 20.36842 21.800781 19.900391 C 22.450115 19.413391 22.755429 18.573847 22.685547 17.560547 C 22.653277 17.092621 22.542198 16.570192 22.365234 16 L 23 16 L 23 13 L 20 13 L 20 16 L 21.308594 16 C 21.530151 16.640203 21.659243 17.190862 21.689453 17.628906 C 21.744573 18.428106 21.549885 18.838563 21.199219 19.101562 C 20.848552 19.364562 20.228771 19.496856 19.361328 19.410156 C 18.954177 19.369321 18.495169 19.276149 18 19.144531 L 18 17 L 15 17 L 15 17.126953 L 11.958984 14.845703 A 1.5 1.5 0 0 0 12 14.5 A 1.5 1.5 0 0 0 10.5 13 z "
       transform="translate(0,1020.3622)"
       id="path4190" />
  </g>
</svg>
