<?xml version="1.0" encoding="UTF-8" standalone="no"?>
<!-- Created with Inkscape (http://www.inkscape.org/) -->

<svg
   xmlns:dc="http://purl.org/dc/elements/1.1/"
   xmlns:cc="http://creativecommons.org/ns#"
   xmlns:rdf="http://www.w3.org/1999/02/22-rdf-syntax-ns#"
   xmlns:svg="http://www.w3.org/2000/svg"
   xmlns="http://www.w3.org/2000/svg"
   xmlns:xlink="http://www.w3.org/1999/xlink"
   xmlns:sodipodi="http://sodipodi.sourceforge.net/DTD/sodipodi-0.dtd"
   xmlns:inkscape="http://www.inkscape.org/namespaces/inkscape"
   width="32"
   height="32"
   viewBox="0 0 32 32.000001"
   id="svg2"
   version="1.1"
   inkscape:version="0.91 r"
   sodipodi:docname="libreoffice-math-32.svg">
  <defs
     id="defs4">
    <linearGradient
       inkscape:collect="always"
       id="linearGradient4182">
      <stop
         style="stop-color:#000000;stop-opacity:1;"
         offset="0"
         id="stop4184" />
      <stop
         style="stop-color:#000000;stop-opacity:0;"
         offset="1"
         id="stop4186" />
    </linearGradient>
    <linearGradient
       inkscape:collect="always"
       id="linearGradient4172">
      <stop
         style="stop-color:#000000;stop-opacity:0"
         offset="0"
         id="stop4174" />
      <stop
         id="stop4180"
         offset="0.48938689"
         style="stop-color:#000000;stop-opacity:1" />
      <stop
         style="stop-color:#000000;stop-opacity:0;"
         offset="1"
         id="stop4176" />
    </linearGradient>
    <linearGradient
       inkscape:collect="always"
       id="linearGradient4156">
      <stop
         style="stop-color:#ffffff;stop-opacity:1;"
         offset="0"
         id="stop4158" />
      <stop
         id="stop4164"
         offset="0.18988827"
         style="stop-color:#ffffff;stop-opacity:0.23529412" />
      <stop
         style="stop-color:#ffffff;stop-opacity:0.15686275"
         offset="0.77344263"
         id="stop4166" />
      <stop
         style="stop-color:#ffffff;stop-opacity:0.39215687"
         offset="1"
         id="stop4160" />
    </linearGradient>
    <linearGradient
       inkscape:collect="always"
       xlink:href="#linearGradient4172"
       id="linearGradient4178"
       x1="-2.9041889"
       y1="1041.6772"
       x2="-2.9041889"
       y2="1044.7078"
       gradientUnits="userSpaceOnUse" />
    <radialGradient
       inkscape:collect="always"
       xlink:href="#linearGradient4182"
       id="radialGradient4188"
       cx="-11.429584"
       cy="1043.1627"
       fx="-11.429584"
       fy="1043.1627"
       r="2"
       gradientTransform="matrix(-2.0078125,0,0,-0.75,-34.378044,1825.5422)"
       gradientUnits="userSpaceOnUse" />
    <radialGradient
       inkscape:collect="always"
       xlink:href="#linearGradient4182"
       id="radialGradient4192"
       gradientUnits="userSpaceOnUse"
       gradientTransform="matrix(-2.0078125,0,0,-0.75,-31.523342,1825.5422)"
       cx="-11.429584"
       cy="1043.1627"
       fx="-11.429584"
       fy="1043.1627"
       r="2" />
    <linearGradient
       id="linearGradient3767">
      <stop
         style="stop-color:#ffffff;stop-opacity:1;"
         offset="0"
         id="stop3769" />
      <stop
         id="stop3777"
         offset="0.18932098"
         style="stop-color:#ffffff;stop-opacity:0.23529412;" />
      <stop
         id="stop3775"
         offset="0.87385589"
         style="stop-color:#ffffff;stop-opacity:0.15686275;" />
      <stop
         style="stop-color:#ffffff;stop-opacity:0.392"
         offset="1"
         id="stop3771" />
    </linearGradient>
    <radialGradient
       inkscape:collect="always"
       xlink:href="#linearGradient4235-8"
       id="radialGradient4186"
       gradientUnits="userSpaceOnUse"
       gradientTransform="matrix(-6.5646494e-7,2.2400001,-2.0000028,-5.8613022e-7,2076.7011,-23.152008)"
       cx="13.907416"
       cy="1030.3491"
       fx="13.907416"
       fy="1030.3491"
       r="12.5" />
    <linearGradient
       inkscape:collect="always"
       xlink:href="#linearGradient4156"
       id="linearGradient4195"
       gradientUnits="userSpaceOnUse"
       x1="15.648655"
       y1="1025.2766"
       x2="15.648655"
       y2="1049.3748"
       gradientTransform="translate(0,-1020.3622)" />
    <linearGradient
       id="linearGradient4235-8">
      <stop
         offset="0"
         style="stop-color:#c8d2dc;stop-opacity:1"
         id="stop4237-6" />
      <stop
         offset="1"
         style="stop-color:#828c96;stop-opacity:1"
         id="stop4243-5" />
    </linearGradient>
  </defs>
  <sodipodi:namedview
     id="base"
     pagecolor="#ffffff"
     bordercolor="#666666"
     borderopacity="1.0"
     inkscape:pageopacity="0.0"
     inkscape:pageshadow="2"
     inkscape:zoom="8.0884388"
     inkscape:cx="21.507897"
     inkscape:cy="13.826904"
     inkscape:document-units="px"
     inkscape:current-layer="layer1"
     showgrid="true"
     units="px"
     inkscape:window-width="1366"
     inkscape:window-height="713"
     inkscape:window-x="0"
     inkscape:window-y="30"
     inkscape:window-maximized="1"
     showguides="false">
    <inkscape:grid
       type="xygrid"
       id="grid4303" />
  </sodipodi:namedview>
  <metadata
     id="metadata7">
    <rdf:RDF>
      <cc:Work
         rdf:about="">
        <dc:format>image/svg+xml</dc:format>
        <dc:type
           rdf:resource="http://purl.org/dc/dcmitype/StillImage" />
        <dc:title></dc:title>
      </cc:Work>
    </rdf:RDF>
  </metadata>
  <g
     inkscape:label="Livello 1"
     inkscape:groupmode="layer"
     id="layer1"
     transform="translate(0,-1020.3622)">
    <g
       id="g4194"
       transform="translate(17.427351,6.6696951)"
       style="opacity:0.4">
      <rect
         y="1041.6925"
         x="-11.427351"
         height="3"
         width="20"
         id="rect4168"
         style="opacity:1;fill:url(#linearGradient4178);fill-opacity:1;stroke:none;stroke-width:3;stroke-linejoin:round;stroke-miterlimit:4;stroke-dasharray:none;stroke-opacity:1" />
      <rect
         style="opacity:1;fill:url(#radialGradient4188);fill-opacity:1;stroke:none;stroke-width:3;stroke-linejoin:round;stroke-miterlimit:4;stroke-dasharray:none;stroke-opacity:1"
         id="rect4170"
         width="4"
         height="3"
         x="-15.427351"
         y="1041.6925" />
      <rect
         transform="scale(-1,1)"
         y="1041.6925"
         x="-12.572649"
         height="3"
         width="4"
         id="rect4190"
         style="opacity:1;fill:url(#radialGradient4192);fill-opacity:1;stroke:none;stroke-width:3;stroke-linejoin:round;stroke-miterlimit:4;stroke-dasharray:none;stroke-opacity:1" />
    </g>
    <path
       style="opacity:1;fill:url(#radialGradient4186);fill-opacity:1.0;stroke:none;stroke-width:3;stroke-linejoin:round;stroke-miterlimit:4;stroke-dasharray:none;stroke-opacity:1"
       d="M 5.5 4.5 C 4.392 4.5 3.5 5.392 3.5 6.5 L 3.5 27.5 C 3.5 28.608 4.392 29.5 5.5 29.5 L 26.5 29.5 C 27.608 29.5 28.5 28.608 28.5 27.5 L 28.5 15 L 18 4.5 L 5.5 4.5 z M 22 4.5 L 28.5 11 L 28.5 6.5 C 28.5 5.392 27.608 4.5 26.5 4.5 L 22 4.5 z "
       transform="translate(0,1020.3622)"
       id="rect4183" />
    <path
       id="path4189"
       d="M 5.5 4.5 C 4.392 4.5 3.5 5.392 3.5 6.5 L 3.5 27.5 C 3.5 28.608 4.392 29.5 5.5 29.5 L 26.5 29.5 C 27.608 29.5 28.5 28.608 28.5 27.5 L 28.5 15 L 18 4.5 L 5.5 4.5 z M 22 4.5 L 28.5 11 L 28.5 6.5 C 28.5 5.392 27.608 4.5 26.5 4.5 L 22 4.5 z "
       style="opacity:0.60000001;fill:none;fill-opacity:1;stroke:#505a64;stroke-width:1;stroke-linejoin:miter;stroke-miterlimit:4;stroke-dasharray:none;stroke-opacity:1"
       transform="translate(0,1020.3622)" />
    <path
       style="opacity:0.4;fill:none;fill-opacity:1;stroke:url(#linearGradient4195);stroke-width:1;stroke-linejoin:miter;stroke-miterlimit:4;stroke-dasharray:none;stroke-opacity:1"
       d="M 5.5 5.5 C 4.946 5.5 4.5 5.946 4.5 6.5 L 4.5 27.5 C 4.5 28.054 4.946 28.5 5.5 28.5 L 26.5 28.5 C 27.054 28.5 27.5 28.054 27.5 27.5 L 27.5 15.400391 L 17.599609 5.5 L 5.5 5.5 z M 24.400391 5.5 L 27.5 8.5996094 L 27.5 6.5 C 27.5 5.946 27.054 5.5 26.5 5.5 L 24.400391 5.5 z "
       transform="translate(0,1020.3622)"
       id="rect4191" />
    <path
       inkscape:connector-curvature="0"
       style="color:#000000;font-style:normal;font-variant:normal;font-weight:normal;font-stretch:normal;font-size:medium;line-height:normal;font-family:sans-serif;text-indent:0;text-align:start;text-decoration:none;text-decoration-line:none;text-decoration-style:solid;text-decoration-color:#000000;letter-spacing:normal;word-spacing:normal;text-transform:none;direction:ltr;block-progression:tb;writing-mode:lr-tb;baseline-shift:baseline;text-anchor:start;white-space:normal;clip-rule:nonzero;display:inline;overflow:visible;visibility:visible;opacity:0.07;isolation:auto;mix-blend-mode:normal;color-interpolation:sRGB;color-interpolation-filters:linearRGB;solid-color:#000000;solid-opacity:1;fill:#000000;fill-opacity:1;fill-rule:evenodd;stroke:#000000;stroke-width:1px;stroke-linecap:butt;stroke-linejoin:round;stroke-miterlimit:4;stroke-dasharray:none;stroke-dashoffset:0;stroke-opacity:1;color-rendering:auto;image-rendering:auto;shape-rendering:auto;text-rendering:auto;enable-background:accumulate"
       d="m 15,1034.3622 -0.490234,0.4082 -1.69336,8.8945 -2.357422,-5.498 L 10,1037.8622 l -1,0 0,1 0.6699219,0 2.8300781,6.5 1,0 1.914062,-10 6.585938,0 0,1 1,0 0,-1.5 -0.5,-0.5 -7.5,0 z m 1.353516,3.6465 -0.707032,0.707 2.646485,2.6465 -2.646485,2.6465 0.707032,0.707 2.646484,-2.6465 2.646484,2.6465 0.707032,-0.707 -2.646485,-2.6465 2.646485,-2.6465 -0.707032,-0.707 -2.646484,2.6465 -2.646484,-2.6465 z"
       id="path4206" />
    <path
       id="path4204"
       d="m 15,1034.3622 -0.490234,0.4082 -1.69336,8.8945 -2.357422,-5.498 L 10,1037.8622 l -1,0 0,1 0.6699219,0 2.8300781,6.5 1,0 1.914062,-10 6.585938,0 0,1 1,0 0,-1.5 -0.5,-0.5 -7.5,0 z m 1.353516,3.6465 -0.707032,0.707 2.646485,2.6465 -2.646485,2.6465 0.707032,0.707 2.646484,-2.6465 2.646484,2.6465 0.707032,-0.707 -2.646485,-2.6465 2.646485,-2.6465 -0.707032,-0.707 -2.646484,2.6465 -2.646484,-2.6465 z"
       style="color:#000000;font-style:normal;font-variant:normal;font-weight:normal;font-stretch:normal;font-size:medium;line-height:normal;font-family:sans-serif;text-indent:0;text-align:start;text-decoration:none;text-decoration-line:none;text-decoration-style:solid;text-decoration-color:#000000;letter-spacing:normal;word-spacing:normal;text-transform:none;direction:ltr;block-progression:tb;writing-mode:lr-tb;baseline-shift:baseline;text-anchor:start;white-space:normal;clip-rule:nonzero;display:inline;overflow:visible;visibility:visible;opacity:0.15000007;isolation:auto;mix-blend-mode:normal;color-interpolation:sRGB;color-interpolation-filters:linearRGB;solid-color:#000000;solid-opacity:1;fill:#000000;fill-opacity:1;fill-rule:evenodd;stroke:none;stroke-width:1px;stroke-linecap:butt;stroke-linejoin:bevel;stroke-miterlimit:4;stroke-dasharray:none;stroke-dashoffset:0;stroke-opacity:1;color-rendering:auto;image-rendering:auto;shape-rendering:auto;text-rendering:auto;enable-background:accumulate"
       inkscape:connector-curvature="0" />
    <path
       style="color:#000000;font-style:normal;font-variant:normal;font-weight:normal;font-stretch:normal;font-size:medium;line-height:normal;font-family:sans-serif;text-indent:0;text-align:start;text-decoration:none;text-decoration-line:none;text-decoration-style:solid;text-decoration-color:#000000;letter-spacing:normal;word-spacing:normal;text-transform:none;direction:ltr;block-progression:tb;writing-mode:lr-tb;baseline-shift:baseline;text-anchor:start;white-space:normal;clip-rule:nonzero;display:inline;overflow:visible;visibility:visible;opacity:1;isolation:auto;mix-blend-mode:normal;color-interpolation:sRGB;color-interpolation-filters:linearRGB;solid-color:#000000;solid-opacity:1;fill:#ffffff;fill-opacity:1;fill-rule:evenodd;stroke:none;stroke-width:1px;stroke-linecap:butt;stroke-linejoin:bevel;stroke-miterlimit:4;stroke-dasharray:none;stroke-dashoffset:0;stroke-opacity:1;color-rendering:auto;image-rendering:auto;shape-rendering:auto;text-rendering:auto;enable-background:accumulate"
       d="M 15 13 L 14.509766 13.408203 L 12.816406 22.302734 L 10.458984 16.804688 L 10 16.5 L 9 16.5 L 9 17.5 L 9.6699219 17.5 L 12.5 24 L 13.5 24 L 15.414062 14 L 22 14 L 22 15 L 23 15 L 23 13.5 L 22.5 13 L 15 13 z M 16.353516 16.646484 L 15.646484 17.353516 L 18.292969 20 L 15.646484 22.646484 L 16.353516 23.353516 L 19 20.707031 L 21.646484 23.353516 L 22.353516 22.646484 L 19.707031 20 L 22.353516 17.353516 L 21.646484 16.646484 L 19 19.292969 L 16.353516 16.646484 z "
       transform="translate(0,1020.3622)"
       id="path4190" />
  </g>
</svg>
