<?xml version="1.0" encoding="UTF-8" standalone="no"?>
<!-- Created with Inkscape (http://www.inkscape.org/) -->

<svg
   xmlns:dc="http://purl.org/dc/elements/1.1/"
   xmlns:cc="http://creativecommons.org/ns#"
   xmlns:rdf="http://www.w3.org/1999/02/22-rdf-syntax-ns#"
   xmlns:svg="http://www.w3.org/2000/svg"
   xmlns="http://www.w3.org/2000/svg"
   xmlns:xlink="http://www.w3.org/1999/xlink"
   xmlns:sodipodi="http://sodipodi.sourceforge.net/DTD/sodipodi-0.dtd"
   xmlns:inkscape="http://www.inkscape.org/namespaces/inkscape"
   width="32"
   height="32"
   viewBox="0 0 32 32.000001"
   id="svg2"
   version="1.1"
   inkscape:version="0.91 r"
   sodipodi:docname="libreoffice-calc-32.svg">
  <defs
     id="defs4">
    <linearGradient
       inkscape:collect="always"
       id="linearGradient4182">
      <stop
         style="stop-color:#000000;stop-opacity:1;"
         offset="0"
         id="stop4184" />
      <stop
         style="stop-color:#000000;stop-opacity:0;"
         offset="1"
         id="stop4186" />
    </linearGradient>
    <linearGradient
       inkscape:collect="always"
       id="linearGradient4172">
      <stop
         style="stop-color:#000000;stop-opacity:0"
         offset="0"
         id="stop4174" />
      <stop
         id="stop4180"
         offset="0.48938689"
         style="stop-color:#000000;stop-opacity:1" />
      <stop
         style="stop-color:#000000;stop-opacity:0;"
         offset="1"
         id="stop4176" />
    </linearGradient>
    <linearGradient
       inkscape:collect="always"
       id="linearGradient4156">
      <stop
         style="stop-color:#ffffff;stop-opacity:1;"
         offset="0"
         id="stop4158" />
      <stop
         id="stop4164"
         offset="0.18988827"
         style="stop-color:#ffffff;stop-opacity:0.23529412" />
      <stop
         style="stop-color:#ffffff;stop-opacity:0.15686275"
         offset="0.77344263"
         id="stop4166" />
      <stop
         style="stop-color:#ffffff;stop-opacity:0.39215687"
         offset="1"
         id="stop4160" />
    </linearGradient>
    <linearGradient
       inkscape:collect="always"
       xlink:href="#linearGradient4172"
       id="linearGradient4178"
       x1="-2.9041889"
       y1="1041.6772"
       x2="-2.9041889"
       y2="1044.7078"
       gradientUnits="userSpaceOnUse" />
    <radialGradient
       inkscape:collect="always"
       xlink:href="#linearGradient4182"
       id="radialGradient4188"
       cx="-11.429584"
       cy="1043.1627"
       fx="-11.429584"
       fy="1043.1627"
       r="2"
       gradientTransform="matrix(-2.0078125,0,0,-0.75,-34.378044,1825.5422)"
       gradientUnits="userSpaceOnUse" />
    <radialGradient
       inkscape:collect="always"
       xlink:href="#linearGradient4182"
       id="radialGradient4192"
       gradientUnits="userSpaceOnUse"
       gradientTransform="matrix(-2.0078125,0,0,-0.75,-31.523342,1825.5422)"
       cx="-11.429584"
       cy="1043.1627"
       fx="-11.429584"
       fy="1043.1627"
       r="2" />
    <linearGradient
       id="linearGradient3767">
      <stop
         style="stop-color:#ffffff;stop-opacity:1;"
         offset="0"
         id="stop3769" />
      <stop
         id="stop3777"
         offset="0.18932098"
         style="stop-color:#ffffff;stop-opacity:0.23529412;" />
      <stop
         id="stop3775"
         offset="0.87385589"
         style="stop-color:#ffffff;stop-opacity:0.15686275;" />
      <stop
         style="stop-color:#ffffff;stop-opacity:0.392"
         offset="1"
         id="stop3771" />
    </linearGradient>
    <radialGradient
       inkscape:collect="always"
       xlink:href="#linearGradient4235"
       id="radialGradient4186"
       gradientUnits="userSpaceOnUse"
       gradientTransform="matrix(4.3598331e-7,3.8286106,-2.8136609,3.2040584e-7,2915.053,-47.51025)"
       cx="15.217034"
       cy="1030.327"
       fx="15.217034"
       fy="1030.327"
       r="12.5" />
    <linearGradient
       inkscape:collect="always"
       xlink:href="#linearGradient4156"
       id="linearGradient4195"
       gradientUnits="userSpaceOnUse"
       x1="15.648655"
       y1="1025.2766"
       x2="15.648655"
       y2="1049.3748"
       gradientTransform="translate(0,-1020.3622)" />
    <linearGradient
       id="linearGradient4235">
      <stop
         offset="0"
         style="stop-color:#50d214;stop-opacity:1"
         id="stop4237" />
      <stop
         offset="1"
         style="stop-color:#1ea014;stop-opacity:1"
         id="stop4243" />
    </linearGradient>
  </defs>
  <sodipodi:namedview
     id="base"
     pagecolor="#ffffff"
     bordercolor="#666666"
     borderopacity="1.0"
     inkscape:pageopacity="0.0"
     inkscape:pageshadow="2"
     inkscape:zoom="10.329198"
     inkscape:cx="13.766422"
     inkscape:cy="10.352498"
     inkscape:document-units="px"
     inkscape:current-layer="layer1"
     showgrid="true"
     units="px"
     inkscape:window-width="1366"
     inkscape:window-height="713"
     inkscape:window-x="0"
     inkscape:window-y="30"
     inkscape:window-maximized="1">
    <inkscape:grid
       type="xygrid"
       id="grid4303" />
  </sodipodi:namedview>
  <metadata
     id="metadata7">
    <rdf:RDF>
      <cc:Work
         rdf:about="">
        <dc:format>image/svg+xml</dc:format>
        <dc:type
           rdf:resource="http://purl.org/dc/dcmitype/StillImage" />
        <dc:title />
      </cc:Work>
    </rdf:RDF>
  </metadata>
  <g
     inkscape:label="Livello 1"
     inkscape:groupmode="layer"
     id="layer1"
     transform="translate(0,-1020.3622)">
    <g
       id="g4194"
       transform="translate(17.427351,6.6696951)"
       style="opacity:0.4">
      <rect
         y="1041.6925"
         x="-11.427351"
         height="3"
         width="20"
         id="rect4168"
         style="opacity:1;fill:url(#linearGradient4178);fill-opacity:1;stroke:none;stroke-width:3;stroke-linejoin:round;stroke-miterlimit:4;stroke-dasharray:none;stroke-opacity:1" />
      <rect
         style="opacity:1;fill:url(#radialGradient4188);fill-opacity:1;stroke:none;stroke-width:3;stroke-linejoin:round;stroke-miterlimit:4;stroke-dasharray:none;stroke-opacity:1"
         id="rect4170"
         width="4"
         height="3"
         x="-15.427351"
         y="1041.6925" />
      <rect
         transform="scale(-1,1)"
         y="1041.6925"
         x="-12.572649"
         height="3"
         width="4"
         id="rect4190"
         style="opacity:1;fill:url(#radialGradient4192);fill-opacity:1;stroke:none;stroke-width:3;stroke-linejoin:round;stroke-miterlimit:4;stroke-dasharray:none;stroke-opacity:1" />
    </g>
    <path
       style="opacity:1;fill:url(#radialGradient4186);fill-opacity:1.0;stroke:none;stroke-width:3;stroke-linejoin:round;stroke-miterlimit:4;stroke-dasharray:none;stroke-opacity:1"
       d="M 5.5 4.5 C 4.392 4.5 3.5 5.392 3.5 6.5 L 3.5 27.5 C 3.5 28.608 4.392 29.5 5.5 29.5 L 26.5 29.5 C 27.608 29.5 28.5 28.608 28.5 27.5 L 28.5 15 L 18 4.5 L 5.5 4.5 z M 22 4.5 L 28.5 11 L 28.5 6.5 C 28.5 5.392 27.608 4.5 26.5 4.5 L 22 4.5 z "
       transform="translate(0,1020.3622)"
       id="rect4183" />
    <path
       id="path4189"
       transform="translate(0,1020.3622)"
       d="M 5.5 4.5 C 4.392 4.5 3.5 5.392 3.5 6.5 L 3.5 27.5 C 3.5 28.608 4.392 29.5 5.5 29.5 L 26.5 29.5 C 27.608 29.5 28.5 28.608 28.5 27.5 L 28.5 15 L 18 4.5 L 5.5 4.5 z M 22 4.5 L 28.5 11 L 28.5 6.5 C 28.5 5.392 27.608 4.5 26.5 4.5 L 22 4.5 z "
       style="opacity:0.676;fill:none;fill-opacity:1;stroke:#005a00;stroke-width:1;stroke-linejoin:miter;stroke-miterlimit:4;stroke-dasharray:none;stroke-opacity:1" />
    <path
       style="opacity:0.4;fill:none;fill-opacity:1;stroke:url(#linearGradient4195);stroke-width:1;stroke-linejoin:miter;stroke-miterlimit:4;stroke-dasharray:none;stroke-opacity:1"
       d="M 5.5 5.5 C 4.946 5.5 4.5 5.946 4.5 6.5 L 4.5 27.5 C 4.5 28.054 4.946 28.5 5.5 28.5 L 26.5 28.5 C 27.054 28.5 27.5 28.054 27.5 27.5 L 27.5 15.400391 L 17.599609 5.5 L 5.5 5.5 z M 24.400391 5.5 L 27.5 8.5996094 L 27.5 6.5 C 27.5 5.946 27.054 5.5 26.5 5.5 L 24.400391 5.5 z "
       transform="translate(0,1020.3622)"
       id="rect4191" />
    <path
       inkscape:connector-curvature="0"
       style="opacity:0.07000002;fill:#000000;fill-opacity:1;stroke:#000000;stroke-width:1;stroke-linecap:round;stroke-linejoin:round;stroke-miterlimit:4;stroke-dasharray:none;stroke-opacity:1"
       d="m 9,1034.3622 0,1 0,1 0,1 0,3 0,1 0,4 0,1 14,0 0,-1 0,-10 0,-1 -1,0 -5,0 -1,0 -4,0 -1,0 -1,0 z m 1,1 1,0 0,1 -1,0 z m 2,0 4,0 0,1 -4,0 z m 5,0 5,0 0,1 -5,0 z m -7,2 1,0 0,3 -1,0 z m 2,0 4,0 0,3 -4,0 z m 5,0 5,0 0,3 -5,0 z m -7,4 1,0 0,4 -1,0 z m 2,0 4,0 0,4 -4,0 z m 5,0 5,0 0,4 -5,0 z"
       id="path4192"
       sodipodi:nodetypes="cccccccccccccccccccccccccccccccccccccccccccccccccccccccccccccccc" />
    <path
       sodipodi:nodetypes="cccccccccccccccccccccccccccccccccccccccccccccccccccccccccccccccc"
       id="path4190"
       d="m 9,1034.3622 0,1 0,1 0,1 0,3 0,1 0,4 0,1 14,0 0,-1 0,-10 0,-1 -1,0 -5,0 -1,0 -4,0 -1,0 -1,0 z m 1,1 1,0 0,1 -1,0 z m 2,0 4,0 0,1 -4,0 z m 5,0 5,0 0,1 -5,0 z m -7,2 1,0 0,3 -1,0 z m 2,0 4,0 0,3 -4,0 z m 5,0 5,0 0,3 -5,0 z m -7,4 1,0 0,4 -1,0 z m 2,0 4,0 0,4 -4,0 z m 5,0 5,0 0,4 -5,0 z"
       style="opacity:0.15000018;fill:#000000;fill-opacity:1;stroke:none;stroke-width:1;stroke-linecap:round;stroke-linejoin:round;stroke-miterlimit:4;stroke-dasharray:none;stroke-opacity:1"
       inkscape:connector-curvature="0" />
    <path
       inkscape:connector-curvature="0"
       style="opacity:1;fill:#ffffff;fill-opacity:1;stroke:none;stroke-width:1;stroke-linecap:round;stroke-linejoin:round;stroke-miterlimit:4;stroke-dasharray:none;stroke-opacity:1"
       d="m 9,1033.3622 0,1 0,1 0,1 0,3 0,1 0,4 0,1 14,0 0,-1 0,-10 0,-1 -1,0 -5,0 -1,0 -4,0 -1,0 -1,0 z m 1,1 1,0 0,1 -1,0 z m 2,0 4,0 0,1 -4,0 z m 5,0 5,0 0,1 -5,0 z m -7,2 1,0 0,3 -1,0 z m 2,0 4,0 0,3 -4,0 z m 5,0 5,0 0,3 -5,0 z m -7,4 1,0 0,4 -1,0 z m 2,0 4,0 0,4 -4,0 z m 5,0 5,0 0,4 -5,0 z"
       id="rect4181"
       sodipodi:nodetypes="cccccccccccccccccccccccccccccccccccccccccccccccccccccccccccccccc" />
  </g>
</svg>
