<?xml version="1.0" encoding="UTF-8" standalone="no"?>
<!-- Created with Inkscape (http://www.inkscape.org/) -->

<svg
   xmlns:dc="http://purl.org/dc/elements/1.1/"
   xmlns:cc="http://creativecommons.org/ns#"
   xmlns:rdf="http://www.w3.org/1999/02/22-rdf-syntax-ns#"
   xmlns:svg="http://www.w3.org/2000/svg"
   xmlns="http://www.w3.org/2000/svg"
   xmlns:xlink="http://www.w3.org/1999/xlink"
   xmlns:sodipodi="http://sodipodi.sourceforge.net/DTD/sodipodi-0.dtd"
   xmlns:inkscape="http://www.inkscape.org/namespaces/inkscape"
   width="32.12376"
   height="32.018009"
   id="svg8891"
   version="1.1"
   inkscape:version="0.48.0 r9654"
   sodipodi:docname="Nuevo documento 53">
  <defs
     id="defs8893">
    <radialGradient
       inkscape:collect="always"
       xlink:href="#linearGradient8838-2-1-5"
       id="radialGradient4835-7-3-8"
       gradientUnits="userSpaceOnUse"
       gradientTransform="matrix(4.6104139,0,0,2.0085789,-215.76673,101.36913)"
       cx="62.625"
       cy="4.625"
       fx="62.625"
       fy="4.625"
       r="10.625" />
    <linearGradient
       id="linearGradient8838-2-1-5">
      <stop
         id="stop8840-4-19-3"
         style="stop-color:#000000;stop-opacity:1"
         offset="0" />
      <stop
         id="stop8842-5-1-4"
         style="stop-color:#000000;stop-opacity:0"
         offset="1" />
    </linearGradient>
    <radialGradient
       inkscape:collect="always"
       xlink:href="#linearGradient4933-1-6-6"
       id="radialGradient4837-4-3-7"
       gradientUnits="userSpaceOnUse"
       gradientTransform="matrix(1.659483,0.01339134,-0.01029058,1.5925239,114.38349,-41.729075)"
       cx="-171.8835"
       cy="72.793999"
       fx="-171.8835"
       fy="72.793999"
       r="22.289658" />
    <linearGradient
       id="linearGradient4933-1-6-6">
      <stop
         style="stop-color:#ffffff;stop-opacity:1"
         offset="0"
         id="stop4935-6-9-7" />
      <stop
         id="stop4943-8-1-8"
         offset="0.39820078"
         style="stop-color:#ebebeb;stop-opacity:1" />
      <stop
         id="stop4941-04-34-9"
         offset="0.61794829"
         style="stop-color:#b5b5b5;stop-opacity:1" />
      <stop
         style="stop-color:#efefef;stop-opacity:1"
         offset="1"
         id="stop4937-8-9-7" />
    </linearGradient>
    <linearGradient
       inkscape:collect="always"
       xlink:href="#linearGradient5035-3-1-7"
       id="linearGradient4839-8-8-4"
       gradientUnits="userSpaceOnUse"
       x1="-171.10748"
       y1="27.172562"
       x2="-171.10748"
       y2="105.51175" />
    <linearGradient
       inkscape:collect="always"
       id="linearGradient5035-3-1-7">
      <stop
         style="stop-color:#ffffff;stop-opacity:1;"
         offset="0"
         id="stop5037-5-79-7" />
      <stop
         style="stop-color:#ffffff;stop-opacity:0;"
         offset="1"
         id="stop5039-2-3-1" />
    </linearGradient>
    <linearGradient
       inkscape:collect="always"
       xlink:href="#linearGradient8005-7-3-1"
       id="linearGradient7504"
       gradientUnits="userSpaceOnUse"
       gradientTransform="matrix(1.3816791,0,0,1.3771154,-15.020939,-18.392009)"
       x1="46.80846"
       y1="16.687328"
       x2="65.76947"
       y2="87.928337" />
    <linearGradient
       id="linearGradient8005-7-3-1">
      <stop
         id="stop8007-4-2-9"
         style="stop-color:#357cc7;stop-opacity:1"
         offset="0" />
      <stop
         id="stop8009-7-65-3"
         style="stop-color:#6593c6;stop-opacity:1"
         offset="1" />
    </linearGradient>
    <radialGradient
       inkscape:collect="always"
       xlink:href="#linearGradient8033-6-2-7"
       id="radialGradient5254-9-7"
       gradientUnits="userSpaceOnUse"
       gradientTransform="matrix(2.257496,2.4062858e-7,-4.1936558e-7,3.9083992,-57.289006,-206.13804)"
       cx="48.17165"
       cy="77.798073"
       fx="48.17165"
       fy="77.798073"
       r="15.495689" />
    <linearGradient
       id="linearGradient8033-6-2-7">
      <stop
         id="stop8035-5-3-2"
         style="stop-color:#ffffff;stop-opacity:1"
         offset="0" />
      <stop
         id="stop8037-7-7-3"
         style="stop-color:#ffffff;stop-opacity:0"
         offset="1" />
    </linearGradient>
    <radialGradient
       inkscape:collect="always"
       xlink:href="#linearGradient8053-9-4-2"
       id="radialGradient4845-6-8-4"
       gradientUnits="userSpaceOnUse"
       gradientTransform="matrix(2.0339719,-1.3444647,0.98312504,1.4775107,-140.2699,75.992251)"
       cx="76.367531"
       cy="78"
       fx="76.367531"
       fy="78"
       r="2.767844" />
    <linearGradient
       id="linearGradient8053-9-4-2">
      <stop
         id="stop8055-7-7-4"
         style="stop-color:#ffffff;stop-opacity:1"
         offset="0" />
      <stop
         id="stop8057-0-3-0"
         style="stop-color:#ffffff;stop-opacity:0"
         offset="1" />
    </linearGradient>
    <linearGradient
       inkscape:collect="always"
       xlink:href="#linearGradient5577-2-3-4"
       id="linearGradient4847-3-6-1"
       gradientUnits="userSpaceOnUse"
       gradientTransform="matrix(1.8063795,0,0,1.8004131,-18.046631,-20.56244)"
       x1="32.429935"
       y1="21.016321"
       x2="41.986534"
       y2="20.332947" />
    <linearGradient
       inkscape:collect="always"
       id="linearGradient5577-2-3-4">
      <stop
         style="stop-color:#ffffff;stop-opacity:1;"
         offset="0"
         id="stop5579-3-6-8" />
      <stop
         style="stop-color:#ffffff;stop-opacity:0;"
         offset="1"
         id="stop5581-8-9-7" />
    </linearGradient>
    <radialGradient
       r="2.767844"
       fy="78"
       fx="76.367531"
       cy="78"
       cx="76.367531"
       gradientTransform="matrix(1.4722437,-0.97315983,0.71161238,1.0694621,-132.1916,4.7178489)"
       gradientUnits="userSpaceOnUse"
       id="radialGradient5676"
       xlink:href="#linearGradient8053-9-4-2"
       inkscape:collect="always" />
  </defs>
  <sodipodi:namedview
     id="base"
     pagecolor="#ffffff"
     bordercolor="#666666"
     borderopacity="1.0"
     inkscape:pageopacity="0.0"
     inkscape:pageshadow="2"
     inkscape:zoom="11.197802"
     inkscape:cx="23.63995"
     inkscape:cy="9.1383908"
     inkscape:current-layer="layer1"
     showgrid="true"
     inkscape:grid-bbox="true"
     inkscape:document-units="px"
     fit-margin-top="0"
     fit-margin-left="0"
     fit-margin-right="0"
     fit-margin-bottom="0" />
  <metadata
     id="metadata8896">
    <rdf:RDF>
      <cc:Work
         rdf:about="">
        <dc:format>image/svg+xml</dc:format>
        <dc:type
           rdf:resource="http://purl.org/dc/dcmitype/StillImage" />
        <dc:title></dc:title>
      </cc:Work>
    </rdf:RDF>
  </metadata>
  <g
     id="layer1"
     inkscape:label="Layer 1"
     inkscape:groupmode="layer"
     transform="translate(7.6399505,6.8796188)">
    <g
       style="display:inline;enable-background:new"
       id="g4790-5-7-3"
       transform="matrix(0.24921244,0,0,0.24738823,-9.6988422,-7.5168556)">
      <path
         style="opacity:0.5;fill:url(#radialGradient4835-7-3-8);fill-opacity:1;fill-rule:evenodd;stroke:none;stroke-width:1;marker:none;visibility:visible;display:inline;overflow:visible;enable-background:new"
         id="path8836-2-2-2"
         d="m 121.94606,110.65882 c 0,11.7864 -21.93161,21.34118 -48.98564,21.34118 -27.054023,0 -48.985647,-9.55478 -48.985647,-21.34118 0,-11.78642 21.931624,-21.341183 48.985647,-21.341183 27.05403,0 48.98564,9.554763 48.98564,21.341183 l 0,0 0,0 z"
         inkscape:connector-curvature="0" />
      <path
         transform="matrix(2.1346543,0,0,1.9634034,434.79202,-62.713628)"
         d="m -147.88634,74.465996 c 0,11.938885 -9.67838,21.617264 -21.61726,21.617264 -11.93889,0 -21.61726,-9.678379 -21.61726,-21.617264 0,-11.938885 9.67837,-21.617264 21.61726,-21.617264 11.93888,0 21.61726,9.678379 21.61726,21.617264 z"
         sodipodi:ry="21.617264"
         sodipodi:rx="21.617264"
         sodipodi:cy="74.465996"
         sodipodi:cx="-169.5036"
         id="path4163-5-0-6"
         style="color:#000000;fill:url(#radialGradient4837-4-3-7);fill-opacity:1;fill-rule:nonzero;stroke:#969696;stroke-width:1.96723902;stroke-miterlimit:4;stroke-opacity:1;stroke-dasharray:none;marker:none;visibility:visible;display:inline;overflow:visible;enable-background:accumulate"
         sodipodi:type="arc" />
      <path
         id="path4525-0-6-1-8-1"
         d="m 59.744272,66.633537 -13.254345,4.0625 0,34.281243 c 9.006001,0.79312 25.257372,1.22806 37.379345,-1.90625 6.217842,-1.60773 11.651353,-4.165567 15.187502,-7.968743 3.536156,-3.803176 5.270226,-8.827031 4.062506,-15.84375 -0.90721,-5.270749 -3.817094,-8.1326 -7.843758,-9.6875 -4.026657,-1.5549 -9.207742,-1.669029 -14.3125,-1.09375 -10.209516,1.150558 -20.03125,5.03125 -20.03125,5.03125 -0.526192,0.192501 -1.176305,-0.252313 -1.1875,-0.8125 z m 19.21875,9.03125 c 2.538949,0.01362 4.959786,0.256843 6.9375,1.25 1.977714,0.993157 3.456179,2.834227 3.875,5.53125 0.626467,4.034169 -1.048016,7.220475 -3.78125,9.46875 -2.733234,2.248275 -6.49936,3.663478 -10.28125,4.625 -7.563781,1.923044 -15.34375,1.9375 -15.34375,1.9375 -0.456872,-0.0046 -0.870386,-0.418128 -0.875,-0.875 l 0,-17.375 c -0.0082,-0.359902 0.227117,-0.712925 0.5625,-0.84375 0,0 10.382082,-3.764465 18.90625,-3.71875 z"
         style="fill:none;stroke:#ffffff;stroke-width:4.02740765;stroke-opacity:1;display:inline;enable-background:new"
         inkscape:connector-curvature="0"
         sodipodi:nodetypes="cccssssscccsssssccccs" />
      <path
         id="path4525-0-5-4-8"
         d="m 86.199236,60.205629 c -1.92452,-0.01779 -3.913611,0.09677 -5.882814,0.3125 -10.502413,1.150558 -20.60592,5.03125 -20.60592,5.03125 a 0.90933186,0.88397186 0 0 1 -1.221568,-0.8125 l 0,-4.0625 -12.215678,4.0625 0,32.281253 c 9.264371,0.793114 24.563056,1.228054 37.032793,-1.906253 6.396224,-1.60771 11.985615,-4.165574 15.623212,-7.96875 3.637599,-3.803176 5.421419,-8.827031 4.179049,-15.84375 -0.93323,-5.270749 -3.926597,-8.1326 -8.068781,-9.6875 -2.58886,-0.971813 -5.632759,-1.376602 -8.840293,-1.40625 z m -7.940191,7.5 c 2.611788,0.01362 5.102076,0.256843 7.136528,1.25 2.034452,0.993157 3.555332,2.834227 3.986169,5.53125 0.644439,4.034169 -1.078083,7.220475 -3.88973,9.46875 -2.811646,2.248275 -6.685818,3.663478 -10.576205,4.625 -7.780776,1.923044 -15.783942,1.9375 -15.783942,1.9375 a 0.90933186,0.88397186 0 0 1 -0.900103,-0.875 l 0,-17.375 a 0.90933186,0.88397186 0 0 1 0.578637,-0.84375 c 0,0 10.679931,-3.764465 19.448646,-3.71875 z"
         style="fill:none;stroke:#969696;stroke-width:4.02740765;stroke-opacity:1;display:inline;enable-background:new"
         inkscape:connector-curvature="0" />
      <path
         transform="matrix(2.1346543,0,0,1.9634034,434.78434,-62.719034)"
         d="m -169.5,54.84375 c -10.85707,0 -19.625,8.767934 -19.625,19.625 0,10.857066 8.76793,19.625 19.625,19.625 10.85707,0 19.625,-8.767934 19.625,-19.625 0,-10.857066 -8.76793,-19.625 -19.625,-19.625 z"
         id="path5033-1-5-4"
         style="color:#000000;fill:none;stroke:url(#linearGradient4839-8-8-4);stroke-width:1.96723902;stroke-miterlimit:4;stroke-opacity:1;stroke-dasharray:none;marker:none;visibility:visible;display:inline;overflow:visible;enable-background:accumulate"
         inkscape:original="M -169.5 52.84375 C -181.43889 52.84375 -191.125 62.529865 -191.125 74.46875 C -191.125 86.407635 -181.43889 96.09375 -169.5 96.09375 C -157.56111 96.09375 -147.875 86.407635 -147.875 74.46875 C -147.875 62.529865 -157.56111 52.84375 -169.5 52.84375 z "
         inkscape:radius="-2.0001388"
         sodipodi:type="inkscape:offset" />
      <path
         transform="matrix(1.0267653,0,0,1,-4.4125413,-0.79914261)"
         style="fill:url(#linearGradient7504);fill-opacity:1;fill-rule:evenodd;stroke:#2e629a;stroke-width:3.97456884;stroke-opacity:1"
         d="m 61.34375,5.46875 c -15.268391,0.6900172 -21.891084,3.9318201 -26.875,8.40625 -4.58,4.111805 -8.164088,9.413866 -15.5,14.65625 7.029154,-0.33053 11.430057,-2.457213 15.25,-4.78125 4.336538,-2.638331 8.197577,-5.466295 14.40625,-5.21875 0.446299,0.02031 0.839677,0.428258 0.84375,0.875 l 0,82.15625 c 9.006001,0.79312 23.878027,1.22806 36,-1.90625 6.217842,-1.60771 11.651353,-4.165574 15.1875,-7.96875 3.53615,-3.803176 5.27022,-8.827031 4.0625,-15.84375 -0.90721,-5.270749 -3.81709,-8.1326 -7.84375,-9.6875 -4.026657,-1.5549 -9.207742,-1.669029 -14.3125,-1.09375 -10.209516,1.150558 -20.03125,5.03125 -20.03125,5.03125 -0.526192,0.192501 -1.176305,-0.252313 -1.1875,-0.8125 z M 80.5625,76.358789 c 3.402512,-0.700952 5.650637,-0.636372 7.628351,0.356785 1.977714,0.993157 3.662361,2.966021 3.184149,6.424465 -0.478212,3.458444 0.160972,2.933043 -2.572262,5.181318 -2.733234,2.248275 -7.708348,3.842121 -11.490238,4.803643 -7.563781,1.923044 -15.34375,1.9375 -15.34375,1.9375 -0.456872,-0.0046 -0.870386,-0.418128 -0.875,-0.875 l 0,-13.266211 c -0.0082,-0.359902 0.227117,-0.712925 0.5625,-0.84375 0,0 10.546174,-1.99649 18.90625,-3.71875 z"
         id="path4525-1-3-1"
         inkscape:connector-curvature="0"
         sodipodi:nodetypes="cscscccssssscccsszssccccs" />
      <path
         sodipodi:nodetypes="cccc"
         style="opacity:0.4;fill:#ffffff;fill-opacity:1;fill-rule:evenodd;stroke:none"
         id="path8013-5-5-9"
         d="m 57.211979,72.07679 c 29.805234,-10.136376 38.249656,-4.545686 38.249656,-4.545686 0,0 -16.477018,-1.278022 -38.219299,6.975401 z"
         inkscape:connector-curvature="0" />
      <path
         style="opacity:0.3;fill:none;stroke:url(#radialGradient5254-9-7);stroke-width:2.8191855;stroke-linecap:butt;stroke-linejoin:miter;stroke-miterlimit:4;stroke-opacity:1;stroke-dasharray:none"
         id="path8023-8-5-1"
         d="m 52.191014,34.239114 0,62.929746 c 0,0 19.051395,2.434413 40.056781,-4.381965"
         inkscape:connector-curvature="0" />
      <path
         style="opacity:0.4;fill:#ffffff;fill-opacity:1;fill-rule:evenodd;stroke:none"
         id="path8045-9-4-7"
         d="m 92.41735,90.192365 c -7.7217,5.92015 -15.444852,4.332388 -15.444852,4.332388 0,0 8.963999,-0.807621 14.246402,-7.526719 0,0 4.373684,0.759911 1.19845,3.194331 z"
         inkscape:connector-curvature="0" />
      <path
         style="fill:url(#radialGradient4845-6-8-4);fill-opacity:1;fill-rule:nonzero;stroke:none"
         id="path8051-3-2-7"
         d="M 97.372993,84.843368 A 4.9120542,6.7484836 56.73188 1 1 86.11356,92.285907 4.9120542,6.7484836 56.73188 0 1 97.372993,84.843368 z"
         inkscape:connector-curvature="0" />
      <path
         sodipodi:nodetypes="cccc"
         style="opacity:0.4;fill:url(#linearGradient4847-3-6-1);fill-opacity:1;fill-rule:evenodd;stroke:none"
         id="path8061-3-5-0"
         d="M 57.608597,6.898364 C 30.554336,10.096755 36.924481,12.803606 22.882706,24.013682 32.899879,18.849499 34.81528,8.2631852 59.305734,9.8596601 z"
         inkscape:connector-curvature="0" />
      <path
         sodipodi:nodetypes="sssss"
         style="opacity:0.8;fill:url(#radialGradient5676);fill-opacity:1;fill-rule:nonzero;stroke:none"
         id="path8063-6-9-8"
         d="m 39.820707,11.124524 c 1.030923,1.549964 0.02788,4.243039 -2.105574,5.653261 -2.133452,1.410221 -5.012813,1.283434 -6.044308,-0.266152 -1.031671,-1.54985 -0.02877,-4.243592 2.105046,-5.654055 2.133816,-1.4104624 5.013737,-1.2832834 6.044836,0.266946 z"
         inkscape:connector-curvature="0" />
    </g>
  </g>
</svg>
