<?xml version="1.0" encoding="UTF-8" standalone="no"?>
<!-- Created with Inkscape (http://www.inkscape.org/) -->

<svg
   xmlns:dc="http://purl.org/dc/elements/1.1/"
   xmlns:cc="http://creativecommons.org/ns#"
   xmlns:rdf="http://www.w3.org/1999/02/22-rdf-syntax-ns#"
   xmlns:svg="http://www.w3.org/2000/svg"
   xmlns="http://www.w3.org/2000/svg"
   xmlns:xlink="http://www.w3.org/1999/xlink"
   xmlns:sodipodi="http://sodipodi.sourceforge.net/DTD/sodipodi-0.dtd"
   xmlns:inkscape="http://www.inkscape.org/namespaces/inkscape"
   width="32"
   height="32"
   id="svg4175"
   version="1.1"
   inkscape:version="0.91 r"
   viewBox="0 0 32 32"
   sodipodi:docname="skype-32.svg">
  <defs
     id="defs4177">
    <linearGradient
       inkscape:collect="always"
       id="linearGradient4761">
      <stop
         style="stop-color:#000000;stop-opacity:1;"
         offset="0"
         id="stop4763" />
      <stop
         style="stop-color:#000000;stop-opacity:0;"
         offset="1"
         id="stop4765" />
    </linearGradient>
    <linearGradient
       inkscape:collect="always"
       id="linearGradient4747">
      <stop
         style="stop-color:#ffffff;stop-opacity:1;"
         offset="0"
         id="stop4749" />
      <stop
         id="stop4755"
         offset="0.23694834"
         style="stop-color:#ffffff;stop-opacity:0.23529412" />
      <stop
         style="stop-color:#ffffff;stop-opacity:0.15686275"
         offset="0.76410484"
         id="stop4757" />
      <stop
         style="stop-color:#ffffff;stop-opacity:0.39215687"
         offset="1"
         id="stop4751" />
    </linearGradient>
    <linearGradient
       inkscape:collect="always"
       id="linearGradient4730">
      <stop
         style="stop-color:#1eb4dc;stop-opacity:1"
         offset="0"
         id="stop4732" />
      <stop
         style="stop-color:#0a64dc;stop-opacity:1"
         offset="1"
         id="stop4734" />
    </linearGradient>
    <radialGradient
       inkscape:collect="always"
       xlink:href="#linearGradient4730"
       id="radialGradient4736"
       cx="11.039498"
       cy="7.0873294"
       fx="11.039498"
       fy="7.0873294"
       r="14.5"
       gradientUnits="userSpaceOnUse"
       gradientTransform="matrix(-1.21485e-8,2.5203191,-2.1184089,-1.0211204e-8,31.109741,-28.587552)" />
    <radialGradient
       inkscape:collect="always"
       xlink:href="#linearGradient4761"
       id="radialGradient4767"
       cx="16"
       cy="28.5"
       fx="16"
       fy="28.5"
       r="11"
       gradientTransform="matrix(1,0,0,0.31818182,0,19.431818)"
       gradientUnits="userSpaceOnUse" />
    <linearGradient
       id="linearGradient4644-104-3-3-6-2-3-4">
      <stop
         offset="0"
         style="stop-color:#ff4035;stop-opacity:1;"
         id="stop5237-6-5-1-7-5-2" />
      <stop
         offset="1"
         style="stop-color:#dc311a;stop-opacity:1;"
         id="stop5239-4-6-4-8-4-8" />
    </linearGradient>
    <linearGradient
       inkscape:collect="always"
       xlink:href="#linearGradient4747"
       id="linearGradient4210"
       x1="16"
       y1="2"
       x2="16"
       y2="29"
       gradientUnits="userSpaceOnUse" />
  </defs>
  <sodipodi:namedview
     id="base"
     pagecolor="#ffffff"
     bordercolor="#666666"
     borderopacity="1.0"
     inkscape:pageopacity="0.0"
     inkscape:pageshadow="2"
     inkscape:zoom="6.5940657"
     inkscape:cx="18.327783"
     inkscape:cy="15.293533"
     inkscape:current-layer="layer1"
     showgrid="true"
     inkscape:grid-bbox="true"
     inkscape:document-units="px"
     inkscape:window-width="1366"
     inkscape:window-height="713"
     inkscape:window-x="0"
     inkscape:window-y="30"
     inkscape:window-maximized="1">
    <inkscape:grid
       type="xygrid"
       id="grid4236" />
  </sodipodi:namedview>
  <metadata
     id="metadata4180">
    <rdf:RDF>
      <cc:Work
         rdf:about="">
        <dc:format>image/svg+xml</dc:format>
        <dc:type
           rdf:resource="http://purl.org/dc/dcmitype/StillImage" />
        <dc:title></dc:title>
      </cc:Work>
    </rdf:RDF>
  </metadata>
  <g
     id="layer1"
     inkscape:label="Layer 1"
     inkscape:groupmode="layer">
    <rect
       style="opacity:0.6;fill:url(#radialGradient4767);fill-opacity:1;stroke:none;stroke-width:3;stroke-linejoin:round;stroke-miterlimit:4;stroke-dasharray:none;stroke-opacity:1"
       id="rect4759"
       width="22"
       height="7"
       x="5"
       y="25" />
    <path
       style="opacity:1;fill:url(#radialGradient4736);fill-opacity:1;stroke:none;stroke-width:3;stroke-linejoin:round;stroke-miterlimit:4;stroke-dasharray:none;stroke-opacity:1"
       d="M 9.5 1.5 A 8.000001 8.000001 0 0 0 1.5 9.5 A 8.000001 8.000001 0 0 0 2.7089844 13.720703 A 13.5 13.5 0 0 0 2.5 16 A 13.5 13.5 0 0 0 16 29.5 A 13.5 13.5 0 0 0 18.304688 29.300781 A 8.0000019 8.0000019 0 0 0 22.5 30.5 A 8.0000019 8.0000019 0 0 0 30.5 22.5 A 8.0000019 8.0000019 0 0 0 29.291016 18.279297 A 13.5 13.5 0 0 0 29.5 16 A 13.5 13.5 0 0 0 16 2.5 A 13.5 13.5 0 0 0 13.695312 2.6992188 A 8.000001 8.000001 0 0 0 9.5 1.5 z "
       id="path4723" />
    <path
       style="opacity:0.4;fill:none;fill-opacity:1;stroke:url(#linearGradient4210);stroke-width:1;stroke-linejoin:round;stroke-miterlimit:4;stroke-dasharray:none;stroke-opacity:1"
       d="M 9.5 2.5 A 7 7 0 0 0 2.5 9.5 A 7 7 0 0 0 3.7578125 13.488281 A 12.5 12.5 0 0 0 3.5 16 A 12.5 12.5 0 0 0 16 28.5 A 12.5 12.5 0 0 0 18.492188 28.236328 A 7 7 0 0 0 22.5 29.5 A 7 7 0 0 0 29.5 22.5 A 7 7 0 0 0 28.242188 18.511719 A 12.5 12.5 0 0 0 28.5 16 A 12.5 12.5 0 0 0 16 3.5 A 12.5 12.5 0 0 0 13.507812 3.7636719 A 7 7 0 0 0 9.5 2.5 z "
       id="circle4172" />
    <path
       id="path4202"
       d="M 9.5 1.5 A 8.000001 8.000001 0 0 0 1.5 9.5 A 8.000001 8.000001 0 0 0 2.7089844 13.720703 A 13.5 13.5 0 0 0 2.5 16 A 13.5 13.5 0 0 0 16 29.5 A 13.5 13.5 0 0 0 18.304688 29.300781 A 8.0000019 8.0000019 0 0 0 22.5 30.5 A 8.0000019 8.0000019 0 0 0 30.5 22.5 A 8.0000019 8.0000019 0 0 0 29.291016 18.279297 A 13.5 13.5 0 0 0 29.5 16 A 13.5 13.5 0 0 0 16 2.5 A 13.5 13.5 0 0 0 13.695312 2.6992188 A 8.000001 8.000001 0 0 0 9.5 1.5 z "
       style="opacity:0.6;fill:none;fill-opacity:1;stroke:#144696;stroke-width:1;stroke-linejoin:round;stroke-miterlimit:4;stroke-dasharray:none;stroke-opacity:1" />
    <path
       style="color:#000000;display:inline;overflow:visible;visibility:visible;fill:#000000;fill-opacity:1;fill-rule:nonzero;stroke:#000000;stroke-width:1;marker:none;enable-background:accumulate;opacity:0.07;stroke-opacity:1;stroke-linejoin:round"
       d="m 15.701991,7.0000008 c 1.035959,3e-4 1.223914,0.015 1.858545,0.15575 2.740522,0.603854 4.654432,2.071312 4.730844,3.6404712 0.01161,0.238351 -0.01741,0.520153 -0.05632,0.642403 -0.09402,0.295402 -0.407212,0.650104 -0.750928,0.837155 -0.25005,0.136051 -0.356878,0.155651 -0.82602,0.155651 -0.418779,0 -0.5746,-0.0265 -0.750927,-0.116801 -0.123904,-0.063 -0.576807,-0.477002 -0.994979,-0.915005 -0.847081,-0.887255 -1.176363,-1.106457 -2.046278,-1.343158 -0.59708,-0.1626502 -1.857487,-0.1648502 -2.421742,-0.0195 -1.11274,0.286702 -1.731579,0.981356 -1.727134,1.946761 0.0028,0.621654 0.340691,1.093457 1.070072,1.440658 0.545008,0.259252 0.863008,0.345302 3.322855,0.914956 1.125308,0.260651 2.265779,0.544653 2.534381,0.642403 2.031425,0.739354 3.109371,2.063912 3.322856,4.049273 0.168422,1.566359 -0.316624,3.040967 -1.332898,4.088223 -0.876531,0.903255 -2.102024,1.472158 -3.735866,1.75201 -0.635844,0.1086 -2.422756,0.16965 -3.097576,0.0974 -2.481484,-0.265601 -4.353114,-1.208207 -5.2940404,-2.667115 -0.330375,-0.512253 -0.506874,-1.070206 -0.506874,-1.576809 0,-0.663803 0.245286,-1.111206 0.750927,-1.401558 0.2685534,-0.1546 0.3404704,-0.175351 0.8260214,-0.175351 0.760359,0 0.977739,0.151601 1.802226,1.206957 0.856382,1.096406 1.486559,1.535859 2.496835,1.75216 1.81683,0.388752 3.56434,-0.207001 4.130103,-1.401608 0.132683,-0.280251 0.169619,-0.393202 0.168958,-0.817704 -8e-4,-0.425553 -0.03828,-0.539953 -0.168958,-0.798205 -0.170488,-0.337002 -0.508134,-0.666054 -0.882341,-0.837155 -0.136923,-0.0623 -1.421056,-0.425752 -2.853525,-0.798154 -1.432468,-0.372352 -2.814511,-0.743154 -3.060031,-0.837105 -1.753502,-0.670353 -2.6943654,-1.664059 -3.0412564,-3.153717 -0.164863,-0.707904 -0.167756,-1.830311 0,-2.491864 0.523835,-2.0656122 2.1382374,-3.3483692 4.8247104,-3.8545222 0.425747,-0.0803 0.835578,-0.11705 1.708361,-0.11685 z"
       id="path4269"
       inkscape:connector-curvature="0" />
    <path
       inkscape:connector-curvature="0"
       id="path4267"
       d="m 15.701991,7.0000008 c 1.035959,3e-4 1.223914,0.015 1.858545,0.15575 2.740522,0.603854 4.654432,2.071312 4.730844,3.6404712 0.01161,0.238351 -0.01741,0.520153 -0.05632,0.642403 -0.09402,0.295402 -0.407212,0.650104 -0.750928,0.837155 -0.25005,0.136051 -0.356878,0.155651 -0.82602,0.155651 -0.418779,0 -0.5746,-0.0265 -0.750927,-0.116801 -0.123904,-0.063 -0.576807,-0.477002 -0.994979,-0.915005 -0.847081,-0.887255 -1.176363,-1.106457 -2.046278,-1.343158 -0.59708,-0.1626502 -1.857487,-0.1648502 -2.421742,-0.0195 -1.11274,0.286702 -1.731579,0.981356 -1.727134,1.946761 0.0028,0.621654 0.340691,1.093457 1.070072,1.440658 0.545008,0.259252 0.863008,0.345302 3.322855,0.914956 1.125308,0.260651 2.265779,0.544653 2.534381,0.642403 2.031425,0.739354 3.109371,2.063912 3.322856,4.049273 0.168422,1.566359 -0.316624,3.040967 -1.332898,4.088223 -0.876531,0.903255 -2.102024,1.472158 -3.735866,1.75201 -0.635844,0.1086 -2.422756,0.16965 -3.097576,0.0974 -2.481484,-0.265601 -4.353114,-1.208207 -5.2940404,-2.667115 -0.330375,-0.512253 -0.506874,-1.070206 -0.506874,-1.576809 0,-0.663803 0.245286,-1.111206 0.750927,-1.401558 0.2685534,-0.1546 0.3404704,-0.175351 0.8260214,-0.175351 0.760359,0 0.977739,0.151601 1.802226,1.206957 0.856382,1.096406 1.486559,1.535859 2.496835,1.75216 1.81683,0.388752 3.56434,-0.207001 4.130103,-1.401608 0.132683,-0.280251 0.169619,-0.393202 0.168958,-0.817704 -8e-4,-0.425553 -0.03828,-0.539953 -0.168958,-0.798205 -0.170488,-0.337002 -0.508134,-0.666054 -0.882341,-0.837155 -0.136923,-0.0623 -1.421056,-0.425752 -2.853525,-0.798154 -1.432468,-0.372352 -2.814511,-0.743154 -3.060031,-0.837105 -1.753502,-0.670353 -2.6943654,-1.664059 -3.0412564,-3.153717 -0.164863,-0.707904 -0.167756,-1.830311 0,-2.491864 0.523835,-2.0656122 2.1382374,-3.3483692 4.8247104,-3.8545222 0.425747,-0.0803 0.835578,-0.11705 1.708361,-0.11685 z"
       style="color:#000000;display:inline;overflow:visible;visibility:visible;fill:#000000;fill-opacity:1;fill-rule:nonzero;stroke:none;stroke-width:1;marker:none;enable-background:accumulate;opacity:0.15000005" />
    <path
       style="color:#000000;display:inline;overflow:visible;visibility:visible;fill:#ffffff;fill-opacity:1;fill-rule:nonzero;stroke:none;stroke-width:1;marker:none;enable-background:accumulate"
       d="m 15.701991,6.0000011 c 1.035959,3e-4 1.223914,0.015 1.858545,0.15575 2.740522,0.603854 4.654432,2.071312 4.730844,3.6404709 0.01161,0.238351 -0.01741,0.520153 -0.05632,0.642403 -0.09402,0.295402 -0.407212,0.650104 -0.750928,0.837155 -0.25005,0.136051 -0.356878,0.155651 -0.82602,0.155651 -0.418779,0 -0.5746,-0.0265 -0.750927,-0.116801 -0.123904,-0.063 -0.576807,-0.477002 -0.994979,-0.915005 -0.847081,-0.887255 -1.176363,-1.1064563 -2.046278,-1.3431573 -0.59708,-0.1626506 -1.857487,-0.1648506 -2.421742,-0.0195 -1.11274,0.2867013 -1.731579,0.9813553 -1.727134,1.9467603 0.0028,0.621654 0.340691,1.093457 1.070072,1.440658 0.545008,0.259252 0.863008,0.345302 3.322855,0.914956 1.125308,0.260651 2.265779,0.544653 2.534381,0.642403 2.031425,0.739354 3.109371,2.063912 3.322856,4.049273 0.168422,1.566359 -0.316624,3.040967 -1.332898,4.088223 -0.876531,0.903255 -2.102024,1.472158 -3.735866,1.75201 -0.635844,0.1086 -2.422756,0.16965 -3.097576,0.0974 -2.481484,-0.265601 -4.353114,-1.208207 -5.2940404,-2.667115 -0.330375,-0.512253 -0.506874,-1.070206 -0.506874,-1.576809 0,-0.663803 0.245286,-1.111206 0.750927,-1.401558 0.2685534,-0.1546 0.3404704,-0.175351 0.8260214,-0.175351 0.760359,0 0.977739,0.151601 1.802226,1.206957 0.856382,1.096406 1.486559,1.535859 2.496835,1.75216 1.81683,0.388752 3.56434,-0.207001 4.130103,-1.401608 0.132683,-0.280251 0.169619,-0.393202 0.168958,-0.817704 -8e-4,-0.425553 -0.03828,-0.539953 -0.168958,-0.798205 -0.170488,-0.337002 -0.508134,-0.666054 -0.882341,-0.837155 -0.136923,-0.0623 -1.421056,-0.425752 -2.853525,-0.798154 -1.432468,-0.372352 -2.814511,-0.743154 -3.060031,-0.837105 -1.753502,-0.670353 -2.6943654,-1.664059 -3.0412564,-3.153717 -0.164863,-0.707904 -0.167756,-1.830311 0,-2.491864 0.523835,-2.0656119 2.1382374,-3.3483689 4.8247104,-3.8545219 0.425747,-0.0803 0.835578,-0.11705 1.708361,-0.11685 z"
       id="path2879"
       inkscape:connector-curvature="0" />
  </g>
</svg>
