<?xml version="1.0" encoding="UTF-8" standalone="no"?>
<svg
   xmlns:dc="http://purl.org/dc/elements/1.1/"
   xmlns:cc="http://creativecommons.org/ns#"
   xmlns:rdf="http://www.w3.org/1999/02/22-rdf-syntax-ns#"
   xmlns:svg="http://www.w3.org/2000/svg"
   xmlns="http://www.w3.org/2000/svg"
   xmlns:xlink="http://www.w3.org/1999/xlink"
   xmlns:sodipodi="http://sodipodi.sourceforge.net/DTD/sodipodi-0.dtd"
   xmlns:inkscape="http://www.inkscape.org/namespaces/inkscape"
   version="1.1"
   width="32"
   height="32"
   id="svg4505"
   inkscape:version="0.91 r13725"
   sodipodi:docname="system-users.svg">
  <sodipodi:namedview
     pagecolor="#ffffff"
     bordercolor="#666666"
     borderopacity="1"
     objecttolerance="10"
     gridtolerance="10"
     guidetolerance="10"
     inkscape:pageopacity="0"
     inkscape:pageshadow="2"
     inkscape:window-width="1600"
     inkscape:window-height="876"
     id="namedview3067"
     showgrid="false"
     inkscape:zoom="1"
     inkscape:cx="16"
     inkscape:cy="26.847458"
     inkscape:window-x="0"
     inkscape:window-y="24"
     inkscape:window-maximized="1"
     inkscape:current-layer="svg4505" />
  <defs
     id="defs4507">
    <linearGradient
       id="linearGradient3820-7-2-2">
      <stop
         id="stop3822-2-6-36"
         style="stop-color:#3d3d3d;stop-opacity:1"
         offset="0" />
      <stop
         id="stop3864-8-7-6"
         style="stop-color:#686868;stop-opacity:0.49803922"
         offset="0.5" />
      <stop
         id="stop3824-1-2-4"
         style="stop-color:#686868;stop-opacity:0"
         offset="1" />
    </linearGradient>
    <radialGradient
       cx="99.157013"
       cy="186.17059"
       r="62.769119"
       fx="99.157013"
       fy="186.17059"
       id="radialGradient3043"
       xlink:href="#linearGradient3820-7-2-2"
       gradientUnits="userSpaceOnUse"
       gradientTransform="matrix(0.17524541,0,0,0.05575992,-1.37681,18.119145)" />
    <linearGradient
       x1="71.204407"
       y1="6.2375584"
       x2="71.204407"
       y2="44.340794"
       id="linearGradient3012"
       xlink:href="#linearGradient4011"
       gradientUnits="userSpaceOnUse"
       gradientTransform="matrix(0.72972969,0,0,0.72972969,-36.346077,-2.5039312)" />
    <linearGradient
       id="linearGradient4011">
      <stop
         id="stop4013"
         style="stop-color:#ffffff;stop-opacity:1"
         offset="0" />
      <stop
         id="stop4015"
         style="stop-color:#ffffff;stop-opacity:0.23529412"
         offset="0.507761" />
      <stop
         id="stop4017"
         style="stop-color:#ffffff;stop-opacity:0.15686275"
         offset="0.83456558" />
      <stop
         id="stop4019"
         style="stop-color:#ffffff;stop-opacity:0.39215687"
         offset="1" />
    </linearGradient>
    <linearGradient
       id="linearGradient2867-449-88-871-390-598-476-591-434-148-57-177-3-8-8">
      <stop
         id="stop3750-8-9-0"
         style="stop-color:#90dbec;stop-opacity:1"
         offset="0" />
      <stop
         id="stop3752-3-2-2"
         style="stop-color:#42baea;stop-opacity:1"
         offset="0.26238" />
      <stop
         id="stop3754-7-2-2-9"
         style="stop-color:#3689e6;stop-opacity:1"
         offset="0.704952" />
      <stop
         id="stop3756-9-3-05"
         style="stop-color:#2b63a0;stop-opacity:1"
         offset="1" />
    </linearGradient>
    <radialGradient
       cx="1.1978998"
       cy="8.4497671"
       r="19.99999"
       fx="1.1978998"
       fy="8.4497671"
       id="radialGradient3386"
       xlink:href="#linearGradient2867-449-88-871-390-598-476-591-434-148-57-177-3-8-8"
       gradientUnits="userSpaceOnUse"
       gradientTransform="matrix(0,3.5365871,-3.741287,-9.6260457e-8,47.613087,-13.699891)" />
  </defs>
  <metadata
     id="metadata4510">
    <rdf:RDF>
      <cc:Work
         rdf:about="">
        <dc:format>image/svg+xml</dc:format>
        <dc:type
           rdf:resource="http://purl.org/dc/dcmitype/StillImage" />
        <dc:title></dc:title>
      </cc:Work>
    </rdf:RDF>
  </metadata>
  <path
     d="m 27.000001,28.499999 a 11,3.4999999 0 1 1 -21.9999996,0 11,3.4999999 0 1 1 21.9999996,0 z"
     id="path3818-0-2"
     style="fill:url(#radialGradient3043);fill-opacity:1;stroke:none" />
  <path
     d="M 16.000002,1.4999987 C 7.999402,1.4999987 1.5,7.9993984 1.5,15.999999 1.5,24.000599 7.999402,30.500002 16.000002,30.5 24.000599,30.5 30.500008,24.000599 30.5,15.999999 30.5,7.9993984 24.000599,1.4999987 16.000002,1.4999987 z"
     id="path2555-72"
     style="color:#000000;fill:url(#radialGradient3386);fill-opacity:1.0;fill-rule:nonzero;stroke:none;stroke-width:1;marker:none;visibility:visible;display:inline;overflow:visible;enable-background:accumulate" />
  <path
     d="m 29.5,15.999521 c 0,7.456085 -6.044601,13.500478 -13.499829,13.500478 C 8.54426,29.499999 2.5,23.455537 2.5,15.999521 2.5,8.5437813 8.54426,2.5000003 16.000171,2.5000003 23.455399,2.5000003 29.5,8.5437813 29.5,15.999521 l 0,0 z"
     id="path8655"
     style="opacity:0.5;color:#000000;fill:none;stroke:url(#linearGradient3012);stroke-width:1;stroke-linecap:round;stroke-linejoin:round;stroke-miterlimit:4;stroke-opacity:1;stroke-dasharray:none;stroke-dashoffset:0;marker:none;visibility:visible;display:inline;overflow:visible;enable-background:accumulate" />
  <path
     d="M 16.000002,1.4999991 C 7.999402,1.4999991 1.5,7.9993984 1.5,15.999999 1.5,24.000599 7.999402,30.500002 16.000002,30.5 24.000599,30.5 30.500008,24.000599 30.5,15.999999 30.5,7.9993984 24.000599,1.4999991 16.000002,1.4999991 z"
     id="path2555-6"
     style="opacity:0.5;color:#000000;fill:#000000;fill-opacity:0;fill-rule:nonzero;stroke:#00537d;stroke-width:1;stroke-linecap:round;stroke-linejoin:round;stroke-miterlimit:4;stroke-opacity:1;stroke-dasharray:none;stroke-dashoffset:0;marker:none;visibility:visible;display:inline;overflow:visible;enable-background:accumulate" />
  <path
     inkscape:connector-curvature="0"
     id="path4201"
     d="m 16,7 c -2.761424,0 -5,2.238577 -5,5 0,2.761423 2.238576,5 5,5 2.761423,0 5,-2.238577 5,-5 C 21,9.238577 18.761423,7 16,7 Z M 13.908203,19 C 11.340658,19 9.1207705,20.259942 8,22.109375 10.001168,23.888645 12.843247,25 16,25 19.156752,25 21.998833,23.888645 24,22.109375 22.879228,20.259942 20.659341,19 18.091797,19 l -4.183594,0 z"
     style="color:#000000;display:inline;overflow:visible;visibility:visible;fill:none;fill-opacity:1;fill-rule:nonzero;stroke:#000000;stroke-width:1;marker:none;enable-background:accumulate;stroke-opacity:1;stroke-miterlimit:4;stroke-dasharray:none;opacity:0.15" />
  <path
     inkscape:connector-curvature="0"
     id="path4203"
     d="m 16,8 c -2.761424,0 -5,2.238577 -5,5 0,2.761423 2.238576,5 5,5 2.761423,0 5,-2.238577 5,-5 0,-2.761423 -2.238577,-5 -5,-5 z M 13.908203,20 C 11.340658,20 9.1207705,21.259942 8,23.109375 10.001168,24.888645 12.843247,26 16,26 19.156752,26 21.998833,24.888645 24,23.109375 22.879228,21.259942 20.659341,20 18.091797,20 l -4.183594,0 z"
     style="color:#000000;display:inline;overflow:visible;visibility:visible;opacity:0.3;fill:#000000;fill-opacity:1;fill-rule:nonzero;stroke:none;stroke-width:2;marker:none;enable-background:accumulate" />
  <path
     style="color:#000000;display:inline;overflow:visible;visibility:visible;fill:#ffffff;fill-opacity:1;fill-rule:nonzero;stroke:none;stroke-width:2;marker:none;enable-background:accumulate"
     d="m 16,7 c -2.761424,0 -5,2.238577 -5,5 0,2.761423 2.238576,5 5,5 2.761423,0 5,-2.238577 5,-5 C 21,9.238577 18.761423,7 16,7 Z M 13.908203,19 C 11.340658,19 9.1207705,20.259942 8,22.109375 10.001168,23.888645 12.843247,25 16,25 19.156752,25 21.998833,23.888645 24,22.109375 22.879228,20.259942 20.659341,19 18.091797,19 l -4.183594,0 z"
     id="path4198"
     inkscape:connector-curvature="0" />
</svg>
