<?xml version="1.0" encoding="UTF-8" standalone="no"?>
<!-- Created with Inkscape (http://www.inkscape.org/) -->

<svg
   xmlns:dc="http://purl.org/dc/elements/1.1/"
   xmlns:cc="http://creativecommons.org/ns#"
   xmlns:rdf="http://www.w3.org/1999/02/22-rdf-syntax-ns#"
   xmlns:svg="http://www.w3.org/2000/svg"
   xmlns="http://www.w3.org/2000/svg"
   xmlns:xlink="http://www.w3.org/1999/xlink"
   xmlns:sodipodi="http://sodipodi.sourceforge.net/DTD/sodipodi-0.dtd"
   xmlns:inkscape="http://www.inkscape.org/namespaces/inkscape"
   width="32"
   height="32"
   viewBox="0 0 32 32.000001"
   id="svg2"
   version="1.1"
   inkscape:version="0.91 r"
   sodipodi:docname="vlc-32-alt.svg">
  <defs
     id="defs4">
    <linearGradient
       inkscape:collect="always"
       id="linearGradient4344">
      <stop
         style="stop-color:#d7d7d7;stop-opacity:1;"
         offset="0"
         id="stop4346" />
      <stop
         style="stop-color:#ffffff;stop-opacity:1"
         offset="1"
         id="stop4348" />
    </linearGradient>
    <linearGradient
       inkscape:collect="always"
       id="linearGradient4195">
      <stop
         style="stop-color:#f02814;stop-opacity:1;"
         offset="0"
         id="stop4197" />
      <stop
         style="stop-color:#f02814;stop-opacity:0;"
         offset="1"
         id="stop4199" />
    </linearGradient>
    <linearGradient
       inkscape:collect="always"
       id="linearGradient4182">
      <stop
         style="stop-color:#000000;stop-opacity:1;"
         offset="0"
         id="stop4184" />
      <stop
         style="stop-color:#000000;stop-opacity:0;"
         offset="1"
         id="stop4186" />
    </linearGradient>
    <linearGradient
       inkscape:collect="always"
       id="linearGradient4172">
      <stop
         style="stop-color:#000000;stop-opacity:0"
         offset="0"
         id="stop4174" />
      <stop
         id="stop4180"
         offset="0.48938689"
         style="stop-color:#000000;stop-opacity:1" />
      <stop
         style="stop-color:#000000;stop-opacity:0;"
         offset="1"
         id="stop4176" />
    </linearGradient>
    <linearGradient
       inkscape:collect="always"
       id="linearGradient4156">
      <stop
         style="stop-color:#ffffff;stop-opacity:1;"
         offset="0"
         id="stop4158" />
      <stop
         id="stop4164"
         offset="0.18988827"
         style="stop-color:#ffffff;stop-opacity:0.23529412" />
      <stop
         style="stop-color:#ffffff;stop-opacity:0.15686275"
         offset="0.77344263"
         id="stop4166" />
      <stop
         style="stop-color:#ffffff;stop-opacity:0.39215687"
         offset="1"
         id="stop4160" />
    </linearGradient>
    <linearGradient
       inkscape:collect="always"
       xlink:href="#linearGradient4172"
       id="linearGradient4178"
       x1="-2.9041889"
       y1="1041.6772"
       x2="-2.9041889"
       y2="1044.7078"
       gradientUnits="userSpaceOnUse" />
    <radialGradient
       inkscape:collect="always"
       xlink:href="#linearGradient4182"
       id="radialGradient4188"
       cx="-11.429584"
       cy="1043.1627"
       fx="-11.429584"
       fy="1043.1627"
       r="2"
       gradientTransform="matrix(-2.0078125,0,0,-0.75,-34.378044,1825.5422)"
       gradientUnits="userSpaceOnUse" />
    <radialGradient
       inkscape:collect="always"
       xlink:href="#linearGradient4182"
       id="radialGradient4192"
       gradientUnits="userSpaceOnUse"
       gradientTransform="matrix(-2.0078125,0,0,-0.75,-31.523342,1825.5422)"
       cx="-11.429584"
       cy="1043.1627"
       fx="-11.429584"
       fy="1043.1627"
       r="2" />
    <linearGradient
       inkscape:collect="always"
       xlink:href="#linearGradient4156"
       id="linearGradient4173"
       x1="11"
       y1="1035.3627"
       x2="11"
       y2="1025.3627"
       gradientUnits="userSpaceOnUse"
       gradientTransform="translate(0,11.999495)" />
    <linearGradient
       id="linearGradient3767">
      <stop
         style="stop-color:#ffffff;stop-opacity:1;"
         offset="0"
         id="stop3769" />
      <stop
         id="stop3777"
         offset="0.18932098"
         style="stop-color:#ffffff;stop-opacity:0.23529412;" />
      <stop
         id="stop3775"
         offset="0.87385589"
         style="stop-color:#ffffff;stop-opacity:0.15686275;" />
      <stop
         style="stop-color:#ffffff;stop-opacity:0.392"
         offset="1"
         id="stop3771" />
    </linearGradient>
    <linearGradient
       id="linearGradient4648">
      <stop
         id="stop4650"
         offset="0"
         style="stop-color:#f55a0a;stop-opacity:1" />
      <stop
         id="stop4652"
         offset="1"
         style="stop-color:#ffb414;stop-opacity:1" />
    </linearGradient>
    <linearGradient
       inkscape:collect="always"
       xlink:href="#linearGradient4648"
       id="linearGradient4191"
       x1="16"
       y1="19"
       x2="16"
       y2="33"
       gradientUnits="userSpaceOnUse" />
    <linearGradient
       inkscape:collect="always"
       xlink:href="#linearGradient4195"
       id="linearGradient4201"
       x1="16"
       y1="30"
       x2="16"
       y2="26"
       gradientUnits="userSpaceOnUse"
       gradientTransform="translate(0,1020.3622)" />
    <linearGradient
       inkscape:collect="always"
       xlink:href="#linearGradient4648"
       id="linearGradient4312"
       x1="7.468998"
       y1="13.5"
       x2="24.5"
       y2="13.5"
       gradientUnits="userSpaceOnUse" />
    <linearGradient
       inkscape:collect="always"
       xlink:href="#linearGradient4344"
       id="linearGradient4350"
       x1="7.4689981"
       y1="21.5"
       x2="24.5"
       y2="21.5"
       gradientUnits="userSpaceOnUse" />
    <linearGradient
       inkscape:collect="always"
       xlink:href="#linearGradient4344"
       id="linearGradient4358"
       x1="10.333984"
       y1="11.0625"
       x2="21.666016"
       y2="11.0625"
       gradientUnits="userSpaceOnUse" />
    <linearGradient
       inkscape:collect="always"
       xlink:href="#linearGradient3767"
       id="linearGradient4374"
       x1="16.031973"
       y1="2.0144267"
       x2="16.031973"
       y2="23.656645"
       gradientUnits="userSpaceOnUse" />
  </defs>
  <sodipodi:namedview
     id="base"
     pagecolor="#ffffff"
     bordercolor="#666666"
     borderopacity="1.0"
     inkscape:pageopacity="0.0"
     inkscape:pageshadow="2"
     inkscape:zoom="6.5953601"
     inkscape:cx="25.441052"
     inkscape:cy="22.522978"
     inkscape:document-units="px"
     inkscape:current-layer="layer1"
     showgrid="false"
     units="px"
     inkscape:window-width="1366"
     inkscape:window-height="713"
     inkscape:window-x="0"
     inkscape:window-y="30"
     inkscape:window-maximized="1"
     showguides="true">
    <inkscape:grid
       type="xygrid"
       id="grid4303" />
  </sodipodi:namedview>
  <metadata
     id="metadata7">
    <rdf:RDF>
      <cc:Work
         rdf:about="">
        <dc:format>image/svg+xml</dc:format>
        <dc:type
           rdf:resource="http://purl.org/dc/dcmitype/StillImage" />
        <dc:title></dc:title>
      </cc:Work>
    </rdf:RDF>
  </metadata>
  <g
     inkscape:label="Livello 1"
     inkscape:groupmode="layer"
     id="layer1"
     transform="translate(0,-1020.3622)">
    <g
       id="g4194"
       transform="translate(17.427351,6.6696951)"
       style="opacity:0.4">
      <rect
         y="1041.6925"
         x="-11.427351"
         height="3"
         width="20"
         id="rect4168"
         style="opacity:1;fill:url(#linearGradient4178);fill-opacity:1;stroke:none;stroke-width:3;stroke-linejoin:round;stroke-miterlimit:4;stroke-dasharray:none;stroke-opacity:1" />
      <rect
         style="opacity:1;fill:url(#radialGradient4188);fill-opacity:1;stroke:none;stroke-width:3;stroke-linejoin:round;stroke-miterlimit:4;stroke-dasharray:none;stroke-opacity:1"
         id="rect4170"
         width="4"
         height="3"
         x="-15.427351"
         y="1041.6925" />
      <rect
         transform="scale(-1,1)"
         y="1041.6925"
         x="-12.572649"
         height="3"
         width="4"
         id="rect4190"
         style="opacity:1;fill:url(#radialGradient4192);fill-opacity:1;stroke:none;stroke-width:3;stroke-linejoin:round;stroke-miterlimit:4;stroke-dasharray:none;stroke-opacity:1" />
    </g>
    <path
       style="opacity:1;fill:url(#linearGradient4191);fill-opacity:1;stroke:none;stroke-width:3;stroke-linejoin:round;stroke-miterlimit:4;stroke-dasharray:none;stroke-opacity:1"
       d="m 7.5,17.5 c -1.108,0 -1.6496101,0.94883 -2,2 l -2,6 0,2 c 0,1.108 0.892,2 2,2 l 21,0 c 1.108,0 2,-0.892 2,-2 l 0,-2 -2,-6 c -0.35039,-1.05117 -0.892,-2 -2,-2 z"
       transform="translate(0,1020.3622)"
       id="rect4136"
       inkscape:connector-curvature="0"
       sodipodi:nodetypes="ssccssccsss" />
    <path
       sodipodi:nodetypes="ssccssccsss"
       inkscape:connector-curvature="0"
       id="path4193"
       d="m 7.5,1037.8622 c -1.108,0 -1.6496101,0.9488 -2,2 l -2,6 0,2 c 0,1.108 0.892,2 2,2 l 21,0 c 1.108,0 2,-0.892 2,-2 l 0,-2 -2,-6 c -0.35039,-1.0512 -0.892,-2 -2,-2 z"
       style="opacity:1;fill:url(#linearGradient4201);fill-opacity:1;stroke:none;stroke-width:3;stroke-linejoin:round;stroke-miterlimit:4;stroke-dasharray:none;stroke-opacity:1" />
    <path
       style="opacity:0.6;fill:none;fill-opacity:1;stroke:#c82800;stroke-width:1;stroke-linejoin:round;stroke-miterlimit:4;stroke-dasharray:none;stroke-opacity:1"
       d="m 7.5,17.5 c -1.108,0 -1.6496101,0.94883 -2,2 l -2,6 0,2 c 0,1.108 0.892,2 2,2 l 21,0 c 1.108,0 2,-0.892 2,-2 l 0,-2 -2,-6 c -0.35039,-1.05117 -0.892,-2 -2,-2 z"
       transform="translate(0,1020.3622)"
       id="rect4160"
       inkscape:connector-curvature="0"
       sodipodi:nodetypes="ssccssccsss" />
    <path
       style="opacity:0.4;fill:none;fill-opacity:1;stroke:url(#linearGradient4173);stroke-width:1;stroke-linejoin:round;stroke-miterlimit:4;stroke-dasharray:none;stroke-opacity:1"
       d="m 7.5,1038.8622 17,0 c 0.554,0 0.824802,0.4744 1,1 l 2,5.9999 c 0.175198,0.5256 -0.446,1 -1,1 l -21,0 c -0.554,0 -1.1751976,-0.4744 -1,-1 l 2,-5.9999 c 0.1751976,-0.5256 0.446,-1 1,-1 z"
       id="rect4162"
       inkscape:connector-curvature="0"
       sodipodi:nodetypes="sssssssss" />
    <path
       style="opacity:0.2;fill:none;fill-opacity:1;stroke:#ffffff;stroke-width:1;stroke-linecap:butt;stroke-linejoin:round;stroke-miterlimit:4;stroke-dasharray:none;stroke-opacity:1"
       d="m 7.5000002,1043.3622 c -0.4366193,1.3099 3.8055798,2.5 8.4999998,2.5 4.69442,0 8.5,-1.1193 8.5,-2.5"
       id="path4314"
       inkscape:connector-curvature="0"
       sodipodi:nodetypes="csc" />
    <path
       style="opacity:1;fill:url(#linearGradient4312);fill-opacity:1;stroke:none;stroke-width:1;stroke-linecap:butt;stroke-linejoin:round;stroke-miterlimit:4;stroke-dasharray:none;stroke-opacity:1"
       d="m 16,1.5 c -0.893679,0 -1.730488,0.3188376 -2,1 L 7.5,22 c -0.4366194,1.309858 3.80558,2.5 8.5,2.5 4.69442,0 8.5,-1.119288 8.5,-2.5 L 18,2.5 c -0.302062,-0.7313608 -1.207976,-1 -2,-1 z"
       transform="translate(0,1020.3622)"
       id="path4299"
       inkscape:connector-curvature="0"
       sodipodi:nodetypes="ccssccc" />
    <path
       style="opacity:1;fill:url(#linearGradient4350);fill-opacity:1;stroke:none;stroke-width:1;stroke-linecap:butt;stroke-linejoin:round;stroke-miterlimit:4;stroke-dasharray:none;stroke-opacity:1"
       d="M 8.6660156,18.5 7.5,22 c -0.4366194,1.309858 3.80558,2.5 8.5,2.5 4.69442,0 8.5,-1.119288 8.5,-2.5 L 23.333984,18.5 C 20,20 12,20 8.6660156,18.5 Z"
       transform="translate(0,1020.3622)"
       id="rect4334"
       inkscape:connector-curvature="0"
       sodipodi:nodetypes="ccsccc" />
    <path
       style="opacity:1;fill:url(#linearGradient4358);fill-opacity:1;stroke:none;stroke-width:1;stroke-linecap:butt;stroke-linejoin:round;stroke-miterlimit:4;stroke-dasharray:none;stroke-opacity:1"
       d="M 12.333984 7.5 L 12.330078 7.5097656 L 10.630859 12.605469 C 14.117339 13.949376 17.882661 13.949376 21.369141 12.605469 L 19.669922 7.5097656 L 19.666016 7.5 C 17.415555 8.4360336 14.554763 8.4953985 12.333984 7.5 z "
       transform="translate(0,1020.3622)"
       id="rect4336" />
    <path
       style="opacity:0.40000006;fill:none;fill-opacity:1;stroke:url(#linearGradient4374);stroke-width:1;stroke-linecap:butt;stroke-linejoin:miter;stroke-miterlimit:4;stroke-dasharray:none;stroke-opacity:1"
       d="M 14.9,3.1 8.5,21.5 c -0.3628739,1.043263 3.357864,2 7.5,2 4.142136,0 7.862874,-0.956738 7.5,-2 L 17.1,3.1 c -0.217353,-0.7688481 -1.914315,-0.8840908 -2.2,0 z"
       transform="translate(0,1020.3622)"
       id="path4363"
       inkscape:connector-curvature="0"
       sodipodi:nodetypes="cssscc" />
    <path
       sodipodi:nodetypes="ccssccc"
       inkscape:connector-curvature="0"
       id="path4192"
       transform="translate(0,1020.3622)"
       d="m 16,1.5 c -0.893679,0 -1.730488,0.3188376 -2,1 L 7.5,22 c -0.4366194,1.309858 3.80558,2.5 8.5,2.5 4.69442,0 8.5,-1.119288 8.5,-2.5 L 18,2.5 c -0.302062,-0.7313608 -1.207976,-1 -2,-1 z"
       style="opacity:0.6;fill:none;fill-opacity:1;stroke:#c82800;stroke-width:1;stroke-linecap:butt;stroke-linejoin:round;stroke-miterlimit:4;stroke-dasharray:none;stroke-opacity:1" />
  </g>
</svg>
