<?xml version="1.0" encoding="UTF-8" standalone="no"?>
<svg
   xmlns:dc="http://purl.org/dc/elements/1.1/"
   xmlns:cc="http://creativecommons.org/ns#"
   xmlns:rdf="http://www.w3.org/1999/02/22-rdf-syntax-ns#"
   xmlns:svg="http://www.w3.org/2000/svg"
   xmlns="http://www.w3.org/2000/svg"
   xmlns:sodipodi="http://sodipodi.sourceforge.net/DTD/sodipodi-0.dtd"
   xmlns:inkscape="http://www.inkscape.org/namespaces/inkscape"
   height="24"
   width="24"
   version="1.1"
   viewBox="0 0 24 24"
   id="svg2"
   inkscape:version="0.91 r13725"
   sodipodi:docname="pidgin-tray-xa.svg">
  <metadata
     id="metadata16">
    <rdf:RDF>
      <cc:Work
         rdf:about="">
        <dc:format>image/svg+xml</dc:format>
        <dc:type
           rdf:resource="http://purl.org/dc/dcmitype/StillImage" />
        <dc:title />
      </cc:Work>
    </rdf:RDF>
  </metadata>
  <defs
     id="defs14" />
  <sodipodi:namedview
     pagecolor="#ffffff"
     bordercolor="#666666"
     borderopacity="1"
     objecttolerance="10"
     gridtolerance="10"
     guidetolerance="10"
     inkscape:pageopacity="0"
     inkscape:pageshadow="2"
     inkscape:window-width="1600"
     inkscape:window-height="843"
     id="namedview12"
     showgrid="false"
     inkscape:zoom="7.99"
     inkscape:cx="-39.457627"
     inkscape:cy="12"
     inkscape:window-x="0"
     inkscape:window-y="0"
     inkscape:window-maximized="1"
     inkscape:current-layer="svg2" />
  <path
     style="color:#000000;text-indent:0;text-decoration:none;text-decoration-line:none;text-decoration-style:solid;text-decoration-color:#000000;text-transform:none;block-progression:tb;white-space:normal;isolation:auto;mix-blend-mode:normal;solid-color:#000000;fill:#ffffff;fill-opacity:1;color-rendering:auto;image-rendering:auto;shape-rendering:auto"
     d="m 12,3.9459648 c -4.3678,0 -8,3.3281002 -8,7.4999992 0,4.172 3.6322,7.5 8,7.5 l 0.002,0 c 0.612,0 1.212594,-0.118 1.808594,-0.25 1.228,0.809001 2.663187,1.539422 4.367187,1.232422 0.782669,-0.140842 1.095669,-1.09449 0.548828,-1.671875 -0.582999,-0.616 -0.88825,-0.999312 -0.90625,-1.820312 C 19.151312,15.069199 19.998,13.328965 20,11.445964 20,10.451923 19.789921,9.5079643 19.416016,8.6432304 A 3,3 0 0 1 15,6.0006523 3,3 0 0 1 15.002,5.9694023 C 15.001945,5.9615123 15,5.9538533 15,5.9459653 c 4.8e-5,-0.014546 0.0056,-0.028436 0.0059,-0.042969 a 3,3 0 0 1 0.06055,-0.5234376 c 0.01708,-0.087016 0.04169,-0.1706836 0.06641,-0.2558593 A 3,3 0 0 1 15.2207,4.8756523 c 0.0055,-0.014248 0.0099,-0.028799 0.01563,-0.042969 0.02713,-0.066819 0.04028,-0.1382128 0.07227,-0.203125 C 14.294594,4.1950586 13.177,3.9459648 12,3.9459648 Z"
     id="path8"
     inkscape:connector-curvature="0" />
  <path
     inkscape:connector-curvature="0"
     id="path10"
     d="m 20,6 a 2,2 0 0 1 -4,0 2,2 0 1 1 4,0 z"
     style="color:#000000;opacity:0.98999999;fill:#009dff" />
</svg>
