<?xml version="1.0" encoding="UTF-8" standalone="no"?>
<!-- Created with Inkscape (http://www.inkscape.org/) -->

<svg
   xmlns:dc="http://purl.org/dc/elements/1.1/"
   xmlns:cc="http://creativecommons.org/ns#"
   xmlns:rdf="http://www.w3.org/1999/02/22-rdf-syntax-ns#"
   xmlns:svg="http://www.w3.org/2000/svg"
   xmlns="http://www.w3.org/2000/svg"
   xmlns:xlink="http://www.w3.org/1999/xlink"
   xmlns:sodipodi="http://sodipodi.sourceforge.net/DTD/sodipodi-0.dtd"
   xmlns:inkscape="http://www.inkscape.org/namespaces/inkscape"
   version="1.0"
   width="24"
   height="24"
   id="svg4431"
   inkscape:version="0.91 r"
   sodipodi:docname="wiznote.svg">
  <sodipodi:namedview
     pagecolor="#353535"
     bordercolor="#666666"
     borderopacity="1"
     objecttolerance="10"
     gridtolerance="10"
     guidetolerance="10"
     inkscape:pageopacity="0.63529412"
     inkscape:pageshadow="2"
     inkscape:window-width="1600"
     inkscape:window-height="845"
     id="namedview16"
     showgrid="false"
     inkscape:zoom="12.239653"
     inkscape:cx="-20.435345"
     inkscape:cy="11.540832"
     inkscape:window-x="0"
     inkscape:window-y="30"
     inkscape:window-maximized="1"
     inkscape:current-layer="svg4431" />
  <metadata
     id="metadata16">
    <rdf:RDF>
      <cc:Work
         rdf:about="">
        <dc:format>image/svg+xml</dc:format>
        <dc:type
           rdf:resource="http://purl.org/dc/dcmitype/StillImage" />
        <dc:title></dc:title>
      </cc:Work>
    </rdf:RDF>
  </metadata>
  <defs
     id="defs4433">
    <linearGradient
       x1="50.925655"
       y1="11.648451"
       x2="73.986542"
       y2="11.648451"
       id="linearGradient2390"
       xlink:href="#linearGradient3678"
       gradientUnits="userSpaceOnUse"
       gradientTransform="matrix(0,0.7805424,-0.7617909,0,28.873684,-37.749634)" />
    <linearGradient
       x1="9"
       y1="3"
       x2="9"
       y2="21"
       id="linearGradient2393"
       xlink:href="#linearGradient3678"
       gradientUnits="userSpaceOnUse"
       gradientTransform="translate(-2,-1)" />
    <linearGradient
       x1="15"
       y1="8"
       x2="15"
       y2="20"
       id="linearGradient3692"
       xlink:href="#linearGradient3678"
       gradientUnits="userSpaceOnUse" />
    <linearGradient
       x1="9.1701241"
       y1="3"
       x2="9.311203"
       y2="15"
       id="linearGradient3684"
       xlink:href="#linearGradient3678"
       gradientUnits="userSpaceOnUse" />
    <linearGradient
       id="linearGradient3678">
      <stop
         id="stop3680"
         style="stop-color:#ffffff;stop-opacity:1"
         offset="0" />
      <stop
         id="stop3682"
         style="stop-color:#e6e6e6;stop-opacity:1"
         offset="1" />
    </linearGradient>
    <linearGradient
       x1="9.1701241"
       y1="3"
       x2="9.311203"
       y2="15"
       id="linearGradient3640"
       xlink:href="#linearGradient3678"
       gradientUnits="userSpaceOnUse"
       gradientTransform="translate(-22.566265,-7.7349402)" />
    <linearGradient
       x1="15"
       y1="8"
       x2="15"
       y2="20"
       id="linearGradient3643"
       xlink:href="#linearGradient3678"
       gradientUnits="userSpaceOnUse"
       gradientTransform="translate(-22.566265,-7.7349402)" />
  </defs>
  <path
     style="opacity:1;fill:#ffffff;fill-opacity:1;stroke:none;stroke-width:1;stroke-linecap:round;stroke-linejoin:round;stroke-miterlimit:4;stroke-dasharray:none;stroke-opacity:1"
     d="m 15.954197,4 c -0.02547,0.031731 -0.163998,0.5090495 -0.30782,1.060731 -0.619514,2.376388 -1.12292,4.366867 -1.387637,5.486091 -0.360779,1.525385 -0.324194,1.413958 -0.426699,1.296446 -0.06629,-0.07599 -1.024633,-3.496472 -1.321228,-4.715614 -0.127383,-0.523593 -0.0626,-0.515241 -2.004716,-0.259126 -2.0845576,0.274898 -2.1704806,0.289885 -2.2290226,0.38806 -0.06123,0.102765 -0.251512,2.275844 -0.257269,2.938848 -0.0037,0.394628 -0.215211,2.691353 -0.125128,4.376665 C 7.6984744,13.757817 7.5407644,13.123274 7.5067114,13.018306 7.4589514,12.871194 7.0516734,11.145787 6.6016044,9.184123 6.3038974,7.886539 6.0362584,6.773937 5.8722284,6.142354 5.7382934,5.70305 5.6431344,5.669127 5.3166424,5.792629 4.5911964,6.0907 3.8624694,6.441269 3.2048264,6.840517 2.9368994,6.991338 2.9946934,6.99331 3.0340834,7.273445 c 0.135025,0.735294 0.534282,2.750686 1.007463,5.078213 0.590457,2.904403 1.092368,5.391987 1.11528,5.527983 0.01065,0.06323 0.04594,0.190443 0.04594,0.190443 0.06796,0.192417 0.07206,0.192823 0.310797,0.247706 0,0 0.809096,0.169315 1.640672,0.306307 1.098253,0.180924 1.594049,0.239749 1.817213,0.249325 0.146644,0.01116 0.139985,0.01346 0.2938,-0.263472 0.314543,-0.714936 0.51562,-1.45192 0.689398,-2.181141 0.1231856,-0.5149 0.2479966,-0.963295 0.2774506,-0.996473 0.0807,-0.09091 0.142221,0.106702 0.609775,1.959929 0.173554,0.68791 0.339081,1.300273 0.428023,1.59041 0.06635,0.191891 0.04548,0.20495 0.294275,0.239501 0.926364,0.161459 4.137325,0.769191 4.493615,0.777824 0.25053,-0.0091 0.302913,-0.183103 0.349413,-0.310735 1.181971,-3.244188 2.656038,-7.779981 3.699499,-11.4379 0.437128,-1.518159 0.753791,-2.676351 0.867854,-3.1665082 0.04288,-0.2298269 0.05216,-0.2358749 -0.141059,-0.2866444 -1.704227,-0.289008 -3.408478,-0.6456757 -4.879321,-0.7981819 z"
     id="path4216"
     inkscape:connector-curvature="0"
     sodipodi:nodetypes="cssssssscssccccsscssccccscccsccccc" />
</svg>
