<?xml version="1.0" encoding="UTF-8" standalone="no"?>
<svg
   xmlns:dc="http://purl.org/dc/elements/1.1/"
   xmlns:cc="http://creativecommons.org/ns#"
   xmlns:rdf="http://www.w3.org/1999/02/22-rdf-syntax-ns#"
   xmlns:svg="http://www.w3.org/2000/svg"
   xmlns="http://www.w3.org/2000/svg"
   xmlns:xlink="http://www.w3.org/1999/xlink"
   xmlns:sodipodi="http://sodipodi.sourceforge.net/DTD/sodipodi-0.dtd"
   xmlns:inkscape="http://www.inkscape.org/namespaces/inkscape"
   version="1.1"
   width="64"
   height="64"
   id="svg3489"
   inkscape:version="0.91 r"
   sodipodi:docname="bluetooth.svg">
  <sodipodi:namedview
     pagecolor="#ffffff"
     bordercolor="#666666"
     borderopacity="1"
     objecttolerance="10"
     gridtolerance="10"
     guidetolerance="10"
     inkscape:pageopacity="0"
     inkscape:pageshadow="2"
     inkscape:window-width="1679"
     inkscape:window-height="904"
     id="namedview48"
     showgrid="true"
     inkscape:zoom="6.1611385"
     inkscape:cx="53.613861"
     inkscape:cy="17.075186"
     inkscape:current-layer="svg3489"
     inkscape:window-x="75"
     inkscape:window-y="34"
     inkscape:window-maximized="0">
    <inkscape:grid
       type="xygrid"
       id="grid4210" />
  </sodipodi:namedview>
  <defs
     id="defs3491">
    <linearGradient
       id="linearGradient4806">
      <stop
         id="stop4808"
         style="stop-color:#ffffff;stop-opacity:1"
         offset="0" />
      <stop
         id="stop4810"
         style="stop-color:#ffffff;stop-opacity:0.23529412"
         offset="0.42447853" />
      <stop
         id="stop4812"
         style="stop-color:#ffffff;stop-opacity:0.15686275"
         offset="0.82089913" />
      <stop
         id="stop4814"
         style="stop-color:#ffffff;stop-opacity:0.39215687"
         offset="1" />
    </linearGradient>
    <linearGradient
       id="linearGradient3820-7-2">
      <stop
         id="stop3822-2-6"
         style="stop-color:#3d3d3d;stop-opacity:1"
         offset="0" />
      <stop
         id="stop3864-8-7"
         style="stop-color:#686868;stop-opacity:0.49803922"
         offset="0.5" />
      <stop
         id="stop3824-1-2"
         style="stop-color:#686868;stop-opacity:0"
         offset="1" />
    </linearGradient>
    <linearGradient
       id="linearGradient3957-2">
      <stop
         offset="0"
         style="stop-color:#ffffff;stop-opacity:1"
         id="stop3959-62" />
      <stop
         offset="1"
         style="stop-color:#c1c1c1;stop-opacity:1"
         id="stop3961-5" />
    </linearGradient>
    <linearGradient
       id="linearGradient2867-449-88-871-390-598-476-591-434-148-57-177-3-8">
      <stop
         offset="0"
         style="stop-color:#90dbec;stop-opacity:1"
         id="stop3750-8-9" />
      <stop
         offset="0.26238"
         style="stop-color:#42baea;stop-opacity:1"
         id="stop3752-3-2" />
      <stop
         offset="0.704952"
         style="stop-color:#3689e6;stop-opacity:1"
         id="stop3754-7-2" />
      <stop
         offset="1"
         style="stop-color:#2b63a0;stop-opacity:1"
         id="stop3756-9-3" />
    </linearGradient>
    <linearGradient
       id="linearGradient3957">
      <stop
         offset="0"
         style="stop-color:#ffffff;stop-opacity:1"
         id="stop3959" />
      <stop
         offset="1"
         style="stop-color:#c1c1c1;stop-opacity:1"
         id="stop3961" />
    </linearGradient>
    <linearGradient
       id="linearGradient4168">
      <stop
         offset="0"
         style="stop-color:#f8b17e;stop-opacity:1"
         id="stop4170" />
      <stop
         offset="0.23208089"
         style="stop-color:#e35d4f;stop-opacity:1"
         id="stop4172" />
      <stop
         offset="0.5908742"
         style="stop-color:#c6262e;stop-opacity:1"
         id="stop4174" />
      <stop
         offset="1"
         style="stop-color:#690b54;stop-opacity:1"
         id="stop4176" />
    </linearGradient>
    <linearGradient
       xlink:href="#linearGradient4806"
       id="linearGradient3293"
       gradientUnits="userSpaceOnUse"
       gradientTransform="matrix(2.3268746,0,0,2.3268746,-137.94475,-32.842783)"
       x1="71.204407"
       y1="15.369057"
       x2="71.204407"
       y2="40.495617" />
    <radialGradient
       xlink:href="#linearGradient3820-7-2"
       id="radialGradient3300"
       gradientUnits="userSpaceOnUse"
       gradientTransform="matrix(0.38235362,0,0,0.11948554,-5.913044,34.255311)"
       cx="99.157013"
       cy="186.17059"
       fx="99.157013"
       fy="186.17059"
       r="62.769119" />
    <linearGradient
       xlink:href="#linearGradient3957"
       id="linearGradient4131"
       gradientUnits="userSpaceOnUse"
       gradientTransform="translate(8.0000046,8.0000026)"
       x1="24"
       y1="22"
       x2="24"
       y2="26" />
    <linearGradient
       xlink:href="#linearGradient3957-2"
       id="linearGradient4137"
       gradientUnits="userSpaceOnUse"
       gradientTransform="matrix(1.4390244,0,0,1.4390244,-2.536585,-2.5365857)"
       x1="21.013996"
       y1="25.433903"
       x2="22.805599"
       y2="27.343702" />
    <linearGradient
       xlink:href="#linearGradient4168"
       id="linearGradient4140"
       gradientUnits="userSpaceOnUse"
       gradientTransform="matrix(1.4390244,0,0,1.4390244,-2.536585,-2.5365857)"
       x1="27.92535"
       y1="15.149301"
       x2="33.447899"
       y2="22.986004" />
    <radialGradient
       xlink:href="#linearGradient2867-449-88-871-390-598-476-591-434-148-57-177-3-8"
       id="radialGradient4145"
       gradientUnits="userSpaceOnUse"
       gradientTransform="matrix(0,3.5958841,-3.8040162,-9.7874431e-8,64.14322,-20.064576)"
       cx="3.9722471"
       cy="8.4497671"
       fx="3.9722471"
       fy="8.4497671"
       r="19.99999" />
    <radialGradient
       gradientTransform="matrix(0,3.9589472,-4.1880936,-1.0775646e-7,67.516543,-18.171918)"
       gradientUnits="userSpaceOnUse"
       xlink:href="#linearGradient2867-449-88-871-390-598-476-591-434-148-57-177-3-8"
       id="radialGradient3015"
       fy="8.4497671"
       fx="2.9611888"
       r="19.99999"
       cy="8.4497671"
       cx="2.9611888" />
    <linearGradient
       x1="71.204407"
       y1="7.1094666"
       x2="71.204407"
       y2="44.340794"
       id="linearGradient3865-5"
       xlink:href="#linearGradient4010"
       gradientUnits="userSpaceOnUse"
       gradientTransform="matrix(1.5519376,0,0,1.5439777,-78.797386,-7.3471176)" />
    <linearGradient
       id="linearGradient4010">
      <stop
         id="stop4012"
         style="stop-color:#ffffff;stop-opacity:1"
         offset="0" />
      <stop
         id="stop4014"
         style="stop-color:#ffffff;stop-opacity:0.23529412"
         offset="0.34808996" />
      <stop
         id="stop4016"
         style="stop-color:#ffffff;stop-opacity:0.15686275"
         offset="0.82998902" />
      <stop
         id="stop4018"
         style="stop-color:#ffffff;stop-opacity:0.39215687"
         offset="1" />
    </linearGradient>
    <linearGradient
       gradientTransform="matrix(1.0922637,0,0,1.1672451,-97.451129,-7.1030799)"
       gradientUnits="userSpaceOnUse"
       xlink:href="#linearGradient4010-9"
       id="linearGradient3865-5-0"
       y2="44.340794"
       x2="71.204407"
       y1="7.4980254"
       x1="71.204407" />
    <linearGradient
       id="linearGradient4010-9">
      <stop
         offset="0"
         style="stop-color:#ffffff;stop-opacity:1"
         id="stop4012-4" />
      <stop
         offset="0.32710722"
         style="stop-color:#ffffff;stop-opacity:0.23529412"
         id="stop4014-1" />
      <stop
         offset="0.82998902"
         style="stop-color:#ffffff;stop-opacity:0.15686275"
         id="stop4016-9" />
      <stop
         offset="1"
         style="stop-color:#ffffff;stop-opacity:0.39215687"
         id="stop4018-4" />
    </linearGradient>
    <radialGradient
       cx="2.9611888"
       cy="8.4497671"
       r="19.99999"
       fx="2.9611888"
       fy="8.4497671"
       id="radialGradient3015-0"
       xlink:href="#linearGradient2867-449-88-871-390-598-476-591-434-148-57-177-3-8"
       gradientUnits="userSpaceOnUse"
       gradientTransform="matrix(0,3.019559,-3.0014894,-8.2187749e-8,6.0473851,-15.683614)" />
    <radialGradient
       cx="99.157013"
       cy="186.17059"
       r="62.769119"
       fx="99.157013"
       fy="186.17059"
       id="radialGradient3018"
       xlink:href="#linearGradient3820-7-2"
       gradientUnits="userSpaceOnUse"
       gradientTransform="matrix(0.23897101,0,0,0.07168547,-43.010264,28.75232)" />
  </defs>
  <metadata
     id="metadata3494">
    <rdf:RDF>
      <cc:Work
         rdf:about="">
        <dc:format>image/svg+xml</dc:format>
        <dc:type
           rdf:resource="http://purl.org/dc/dcmitype/StillImage" />
        <dc:title />
      </cc:Work>
    </rdf:RDF>
  </metadata>
  <path
     style="fill:url(#radialGradient3300);fill-opacity:1;stroke:none"
     id="path3818-0"
     d="m 55.999998,56.499998 a 24,7.4999998 0 1 1 -47.999999,0 24,7.4999998 0 1 1 47.999999,0 z" />
  <rect
     style="color:#000000;clip-rule:nonzero;display:inline;overflow:visible;visibility:visible;opacity:1;isolation:auto;mix-blend-mode:normal;color-interpolation:sRGB;color-interpolation-filters:linearRGB;solid-color:#000000;solid-opacity:1;fill:url(#radialGradient3015);fill-opacity:1;fill-rule:nonzero;stroke:none;stroke-width:1;stroke-linecap:butt;stroke-linejoin:miter;stroke-miterlimit:4;stroke-dasharray:none;stroke-dashoffset:0;stroke-opacity:1;marker:none;color-rendering:auto;image-rendering:auto;shape-rendering:auto;text-rendering:auto;enable-background:accumulate"
     id="rect3363"
     y="2.5002258"
     x="10.500224"
     ry="21.627747"
     rx="21.627747"
     height="58.99955"
     width="43.255493" />
  <rect
     style="color:#000000;display:inline;overflow:visible;visibility:visible;opacity:0.5;fill:none;stroke:url(#linearGradient3865-5);stroke-width:1.00044882;stroke-linecap:round;stroke-linejoin:round;stroke-miterlimit:4;stroke-dasharray:none;stroke-dashoffset:0;stroke-opacity:1;marker:none;enable-background:accumulate"
     id="rect3365"
     y="3.502073"
     x="11.620255"
     ry="20.496586"
     rx="20.602257"
     height="56.87841"
     width="41.204514" />
  <rect
     style="color:#000000;clip-rule:nonzero;display:inline;overflow:visible;visibility:visible;opacity:0.5;isolation:auto;mix-blend-mode:normal;color-interpolation:sRGB;color-interpolation-filters:linearRGB;solid-color:#000000;solid-opacity:1;fill:#000000;fill-opacity:0;fill-rule:nonzero;stroke:#00537d;stroke-width:1.00044882;stroke-linecap:round;stroke-linejoin:round;stroke-miterlimit:4;stroke-dasharray:none;stroke-dashoffset:0;stroke-opacity:1;marker:none;color-rendering:auto;image-rendering:auto;shape-rendering:auto;text-rendering:auto;enable-background:accumulate"
     id="rect3363-4"
     y="2.5002258"
     x="10.500224"
     ry="21.627747"
     rx="21.627747"
     height="58.99955"
     width="43.255493" />
  <g
     id="g4221"
     transform="translate(1.1347374,0.879218)">
    <path
       style="color:#000000;clip-rule:nonzero;display:inline;overflow:visible;visibility:visible;opacity:0.05;isolation:auto;mix-blend-mode:normal;color-interpolation:sRGB;color-interpolation-filters:linearRGB;solid-color:#000000;solid-opacity:1;fill:#000000;fill-opacity:1;fill-rule:nonzero;stroke:none;stroke-width:1;stroke-linecap:butt;stroke-linejoin:miter;stroke-miterlimit:4;stroke-dasharray:none;stroke-dashoffset:0;stroke-opacity:1;marker:none;color-rendering:auto;image-rendering:auto;shape-rendering:auto;text-rendering:auto;enable-background:accumulate"
       id="path4254"
       d="m 29.790045,14.12313 c -1.307523,0 -2.383131,1.092788 -2.397813,2.383749 a 1.1974805,1.1974805 0 0 0 0,0.01406 l 0,9.063871 -2.137639,-1.865746 c -1.235668,-1.079944 -3.132753,-0.84187 -4.167458,0.34221 -1.072905,1.227847 -0.980241,3.145719 0.26486,4.235432 l 4.371379,3.825248 -4.371379,3.825249 c -1.245135,1.089706 -1.337784,3.007578 -0.26486,4.235432 1.034744,1.184157 2.931813,1.421944 4.167458,0.34221 l 2.137639,-1.865746 0,9.063871 c 0,1.30747 1.090344,2.397812 2.397813,2.397812 0.730297,0 1.595992,-0.152447 2.304056,-0.696139 a 1.1974805,1.1974805 0 0 0 0.06797,-0.05625 l 8.475551,-7.577836 c 0.503449,-0.448626 0.747589,-0.99058 0.881309,-1.471972 a 1.1974805,1.1974805 0 0 0 0,-0.0024 c 0.03789,-0.136929 0.09589,-0.343357 0.112507,-0.61879 0.01366,-0.174851 0.0114,-0.332577 0.0024,-0.459405 a 1.1974805,1.1974805 0 0 0 -0.0047,-0.04923 c -0.01487,-0.133152 -0.04464,-0.344497 -0.11954,-0.583631 -0.132544,-0.457111 -0.361912,-1.004832 -0.878963,-1.457908 l -0.0024,-0.0024 -5.723817,-5.022872 5.723809,-5.022984 c 0.518396,-0.452981 0.748434,-0.999948 0.881308,-1.457907 0.07577,-0.239884 0.104491,-0.452402 0.119539,-0.590663 a 1.1974805,1.1974805 0 0 0 0.0047,-0.04453 c 0.0091,-0.128146 0.01188,-0.28699 -0.0024,-0.464092 -0.01724,-0.269555 -0.07382,-0.474346 -0.112508,-0.614103 a 1.1974805,1.1974805 0 0 0 0,-0.0024 c -0.133651,-0.481348 -0.377761,-1.023284 -0.881241,-1.471911 l -8.475551,-7.577837 a 1.1974805,1.1974805 0 0 0 -0.04453,-0.0375 c -0.777669,-0.62817 -1.689217,-0.71489 -2.327494,-0.71489 z m 2.397812,8.709942 2.400157,2.184517 -2.400157,2.081385 0,-4.265902 z m 0,14.400938 2.400157,2.184516 -2.400157,2.081386 0,-4.265902 z"
       inkscape:connector-curvature="0" />
    <path
       style="color:#000000;clip-rule:nonzero;display:inline;overflow:visible;visibility:visible;opacity:0.15;isolation:auto;mix-blend-mode:normal;color-interpolation:sRGB;color-interpolation-filters:linearRGB;solid-color:#000000;solid-opacity:1;fill:#000000;fill-opacity:1;fill-rule:nonzero;stroke:none;stroke-width:1;stroke-linecap:butt;stroke-linejoin:miter;stroke-miterlimit:4;stroke-dasharray:none;stroke-dashoffset:0;stroke-opacity:1;marker:none;color-rendering:auto;image-rendering:auto;shape-rendering:auto;text-rendering:auto;enable-background:accumulate"
       d="m 29.790045,15.320864 c -0.664844,0 -1.192518,0.535278 -1.200078,1.200078 l 0,11.700762 -4.122925,-3.600234 c -0.750961,-0.656322 -1.8213,-0.52358 -2.477505,0.227358 -0.656197,0.750961 -0.600956,1.891596 0.15001,2.547822 l 5.400351,4.725308 -5.400351,4.725307 c -0.750967,0.656207 -0.80621,1.796867 -0.15001,2.547823 0.656203,0.750955 1.726544,0.883564 2.477505,0.227358 l 4.122925,-3.600234 0,11.700762 c 0,0.664844 0.535234,1.200078 1.200078,1.200078 0.677852,0 1.050068,-0.04454 1.575102,-0.447686 l 8.475552,-7.577837 c 0.269562,-0.239799 0.435508,-0.577764 0.525034,-0.900058 0.03408,-0.12317 0.06583,-0.248061 0.07267,-0.375025 0.0096,-0.100806 0.0072,-0.199213 0,-0.300019 -0.01436,-0.128679 -0.03042,-0.250938 -0.07267,-0.375025 -0.09241,-0.321524 -0.25336,-0.662681 -0.525034,-0.900058 l -6.752783,-5.925386 6.752783,-5.925386 c 0.271674,-0.237392 0.4327,-0.578555 0.525034,-0.900058 0.04224,-0.124198 0.05866,-0.246366 0.07267,-0.375025 0.0072,-0.100782 0.0096,-0.199237 0,-0.300019 -0.0073,-0.126997 -0.03857,-0.251868 -0.07267,-0.375025 -0.08953,-0.322307 -0.255472,-0.660273 -0.525034,-0.900058 L 31.365147,15.76855 C 30.88682,15.382176 30.339201,15.320864 29.790045,15.320864 Z m 1.200078,4.800313 5.400351,4.919851 -5.400351,4.680774 0,-9.600625 z m 0,14.400937 5.400351,4.919851 -5.400351,4.680774 0,-9.600625 z"
       id="path4167-5"
       inkscape:connector-curvature="0" />
    <path
       style="color:#000000;clip-rule:nonzero;display:inline;overflow:visible;visibility:visible;opacity:1;isolation:auto;mix-blend-mode:normal;color-interpolation:sRGB;color-interpolation-filters:linearRGB;solid-color:#000000;solid-opacity:1;fill:#ffffff;fill-opacity:1;fill-rule:nonzero;stroke:none;stroke-width:1;stroke-linecap:butt;stroke-linejoin:miter;stroke-miterlimit:4;stroke-dasharray:none;stroke-dashoffset:0;stroke-opacity:1;marker:none;color-rendering:auto;image-rendering:auto;shape-rendering:auto;text-rendering:auto;enable-background:accumulate"
       d="m 29.790045,14.120786 c -0.664844,0 -1.192518,0.535278 -1.200078,1.200078 l 0,11.700762 -4.122925,-3.600235 c -0.750961,-0.656321 -1.8213,-0.523579 -2.477505,0.227359 -0.656197,0.750961 -0.600956,1.891595 0.15001,2.547822 l 5.400351,4.725308 -5.400351,4.725307 c -0.750967,0.656207 -0.80621,1.796867 -0.15001,2.547823 0.656203,0.750955 1.726544,0.883564 2.477505,0.227358 l 4.122925,-3.600234 0,11.700761 c 0,0.664845 0.535234,1.200079 1.200078,1.200079 0.677852,0 1.050068,-0.04453 1.575102,-0.447686 l 8.475552,-7.577837 c 0.269562,-0.2398 0.435508,-0.577764 0.525034,-0.900059 0.03408,-0.12317 0.06583,-0.248061 0.07267,-0.375024 0.0096,-0.100807 0.0072,-0.199213 0,-0.300019 -0.01436,-0.128679 -0.03042,-0.250938 -0.07267,-0.375025 -0.09241,-0.321524 -0.25336,-0.662681 -0.525034,-0.900059 l -6.752783,-5.925385 6.752783,-5.925386 c 0.271674,-0.237392 0.4327,-0.578555 0.525034,-0.900059 0.04224,-0.124197 0.05866,-0.246365 0.07267,-0.375024 0.0072,-0.100783 0.0096,-0.199237 0,-0.30002 -0.0073,-0.126997 -0.03857,-0.251867 -0.07267,-0.375024 -0.08953,-0.322307 -0.255472,-0.660273 -0.525034,-0.900059 L 31.365147,14.568472 C 30.88682,14.182098 30.339201,14.120786 29.790045,14.120786 Z m 1.200078,4.800313 5.400351,4.919851 -5.400351,4.680774 0,-9.600625 z m 0,14.400937 5.400351,4.919851 -5.400351,4.680774 0,-9.600625 z"
       id="path4167"
       inkscape:connector-curvature="0" />
  </g>
</svg>
