<?xml version="1.0" encoding="UTF-8" standalone="no"?>
<!-- Created with Inkscape (http://www.inkscape.org/) -->

<svg
   xmlns:dc="http://purl.org/dc/elements/1.1/"
   xmlns:cc="http://creativecommons.org/ns#"
   xmlns:rdf="http://www.w3.org/1999/02/22-rdf-syntax-ns#"
   xmlns:svg="http://www.w3.org/2000/svg"
   xmlns="http://www.w3.org/2000/svg"
   xmlns:sodipodi="http://sodipodi.sourceforge.net/DTD/sodipodi-0.dtd"
   xmlns:inkscape="http://www.inkscape.org/namespaces/inkscape"
   width="24"
   height="24"
   id="svg2"
   version="1.1"
   inkscape:version="0.91 r"
   sodipodi:docname="pomodoro-indicator-light-19.svg">
  <defs
     id="defs4" />
  <sodipodi:namedview
     id="base"
     pagecolor="#ffffff"
     bordercolor="#666666"
     borderopacity="1.0"
     inkscape:pageopacity="0.0"
     inkscape:pageshadow="2"
     inkscape:zoom="23.681818"
     inkscape:cx="-2.9980807"
     inkscape:cy="14.378119"
     inkscape:document-units="px"
     inkscape:current-layer="layer1"
     showgrid="false"
     inkscape:window-width="960"
     inkscape:window-height="844"
     inkscape:window-x="638"
     inkscape:window-y="30"
     inkscape:window-maximized="0" />
  <metadata
     id="metadata7">
    <rdf:RDF>
      <cc:Work
         rdf:about="">
        <dc:format>image/svg+xml</dc:format>
        <dc:type
           rdf:resource="http://purl.org/dc/dcmitype/StillImage" />
        <dc:title />
      </cc:Work>
    </rdf:RDF>
  </metadata>
  <g
     inkscape:label="Capa 1"
     inkscape:groupmode="layer"
     id="layer1"
     transform="translate(0,-1030.3622)">
    <path
       style="fill:#ffffff;fill-opacity:1;stroke:none"
       d="m 12.000002,1034.3622 c -1.891199,0 -3.6306337,0.6527 -5.0000021,1.7499 l -1.6111105,-1.611 -1.2500006,1.25 1.6111115,1.6111 C 4.6528184,1038.7316 4,1040.471 4,1042.3622 c 0,4.4183 3.5817241,8 8.000002,8 4.418275,0 7.999998,-3.5817 7.999998,-8 0,-1.8912 -0.652817,-3.6306 -1.749999,-5 l 1.61111,-1.6111 -1.249999,-1.25 -1.611111,1.611 c -1.369369,-1.0972 -3.108799,-1.7499 -4.999999,-1.7499 z m 0,1.7778 c 3.436435,0 6.222221,2.7857 6.222221,6.2222 0,3.4365 -2.785786,6.2222 -6.222221,6.2222 -0.214088,0 -0.431163,-0.012 -0.638888,-0.027 -0.08614,-0.011 -0.164898,-0.043 -0.25,-0.055 -0.08374,-0.013 -0.167191,-0.013 -0.25,-0.027 -2.8910877,-0.5363 -5.0833359,-3.0647 -5.0833359,-6.1111 0,-3.4365 2.7857901,-6.2223 6.2222239,-6.2223 z m 0,0.8888 c -2.9455183,0 -5.3333354,2.3879 -5.3333354,5.3334 0,2.6166 1.8753816,4.7966 4.3611144,5.2499 l 0.972221,-5.2499 0,-5.3334 z"
       id="path5604"
       inkscape:connector-curvature="0" />
  </g>
</svg>
