<?xml version="1.0" encoding="UTF-8" standalone="no"?>
<!-- Created with Inkscape (http://www.inkscape.org/) -->

<svg
   xmlns:dc="http://purl.org/dc/elements/1.1/"
   xmlns:cc="http://creativecommons.org/ns#"
   xmlns:rdf="http://www.w3.org/1999/02/22-rdf-syntax-ns#"
   xmlns:svg="http://www.w3.org/2000/svg"
   xmlns="http://www.w3.org/2000/svg"
   xmlns:sodipodi="http://sodipodi.sourceforge.net/DTD/sodipodi-0.dtd"
   xmlns:inkscape="http://www.inkscape.org/namespaces/inkscape"
   width="24"
   height="24"
   id="svg2"
   version="1.1"
   inkscape:version="0.91 r"
   sodipodi:docname="pomodoro-indicator-light-03.svg">
  <defs
     id="defs4" />
  <sodipodi:namedview
     id="base"
     pagecolor="#737373"
     bordercolor="#666666"
     borderopacity="1.0"
     inkscape:pageopacity="0"
     inkscape:pageshadow="2"
     inkscape:zoom="23.681818"
     inkscape:cx="-2.9558542"
     inkscape:cy="11"
     inkscape:document-units="px"
     inkscape:current-layer="layer1"
     showgrid="false"
     inkscape:window-width="1600"
     inkscape:window-height="845"
     inkscape:window-x="0"
     inkscape:window-y="30"
     inkscape:window-maximized="1" />
  <metadata
     id="metadata7">
    <rdf:RDF>
      <cc:Work
         rdf:about="">
        <dc:format>image/svg+xml</dc:format>
        <dc:type
           rdf:resource="http://purl.org/dc/dcmitype/StillImage" />
        <dc:title></dc:title>
      </cc:Work>
    </rdf:RDF>
  </metadata>
  <g
     inkscape:label="Capa 1"
     inkscape:groupmode="layer"
     id="layer1"
     transform="translate(0,-1028.3622)">
    <path
       style="fill:#ffffff;fill-opacity:1;stroke:none"
       d="m 12,1032.3622 c -1.891201,0 -3.6306338,0.6527 -5,1.7499 l -1.6111111,-1.611 -1.25,1.25 1.6111111,1.6111 c -1.0971858,1.3694 -1.75,3.1088 -1.75,5 0,4.4183 3.5817218,8 8,8 4.418278,0 8,-3.5817 8,-8 0,-1.8912 -0.652815,-3.6306 -1.75,-5 l 1.611111,-1.6111 -1.25,-1.25 L 17,1034.1121 c -1.369366,-1.0972 -3.1088,-1.7499 -5,-1.7499 z m 0,1.7778 c 0.214778,0 0.429717,0.011 0.638889,0.027 0.0647,0.011 0.130353,0.019 0.194445,0.027 0.141714,0.018 0.278138,0.055 0.416666,0.083 0.129169,0.026 0.26277,0.049 0.388889,0.083 0.07226,0.02 0.151025,0.034 0.222222,0.055 0.182631,0.057 0.352823,0.1213 0.527778,0.1944 0.197925,0.082 0.396364,0.1763 0.583333,0.2778 0.04649,0.026 0.09313,0.057 0.138889,0.083 1.85994,1.0757 3.111111,3.0857 3.111111,5.3889 0,3.4364 -2.785784,6.2221 -6.222222,6.2221 -3.4364374,0 -6.2222222,-2.7857 -6.2222222,-6.2221 0,-3.4365 2.7857848,-6.2223 6.2222222,-6.2223 z m 0,0.8888 c -2.9455182,0 -5.3333334,2.3879 -5.3333334,5.3334 0,2.9455 2.3878152,5.3334 5.3333334,5.3334 2.945519,0 5.333334,-2.3879 5.333334,-5.3334 0,-1.9741 -1.07256,-3.689 -2.666668,-4.6111 L 12,1040.3622 l 0,-5.3334 z"
       id="path5504"
       inkscape:connector-curvature="0" />
  </g>
</svg>
