<?xml version="1.0" encoding="UTF-8" standalone="no"?>
<!-- Created with Inkscape (http://www.inkscape.org/) -->

<svg
   xmlns:dc="http://purl.org/dc/elements/1.1/"
   xmlns:cc="http://creativecommons.org/ns#"
   xmlns:rdf="http://www.w3.org/1999/02/22-rdf-syntax-ns#"
   xmlns:svg="http://www.w3.org/2000/svg"
   xmlns="http://www.w3.org/2000/svg"
   xmlns:sodipodi="http://sodipodi.sourceforge.net/DTD/sodipodi-0.dtd"
   xmlns:inkscape="http://www.inkscape.org/namespaces/inkscape"
   width="24"
   height="24"
   id="svg2"
   version="1.1"
   inkscape:version="0.91 r"
   sodipodi:docname="pomodoro-indicator-light-35.svg">
  <defs
     id="defs4" />
  <sodipodi:namedview
     id="base"
     pagecolor="#ffffff"
     bordercolor="#666666"
     borderopacity="1.0"
     inkscape:pageopacity="0.0"
     inkscape:pageshadow="2"
     inkscape:zoom="23.681818"
     inkscape:cx="-2.9558542"
     inkscape:cy="14.378119"
     inkscape:document-units="px"
     inkscape:current-layer="layer1"
     showgrid="false"
     inkscape:window-width="960"
     inkscape:window-height="844"
     inkscape:window-x="638"
     inkscape:window-y="30"
     inkscape:window-maximized="0" />
  <metadata
     id="metadata7">
    <rdf:RDF>
      <cc:Work
         rdf:about="">
        <dc:format>image/svg+xml</dc:format>
        <dc:type
           rdf:resource="http://purl.org/dc/dcmitype/StillImage" />
        <dc:title />
      </cc:Work>
    </rdf:RDF>
  </metadata>
  <g
     inkscape:label="Capa 1"
     inkscape:groupmode="layer"
     id="layer1"
     transform="translate(0,-1030.3622)">
    <path
       style="fill:#ffffff;fill-opacity:1;stroke:none"
       d="m 12.000002,1034.3622 c -1.891203,0 -3.6306341,0.6527 -5.0000027,1.7499 l -1.6111107,-1.611 -1.2499997,1.25 1.6111108,1.6111 C 4.6528176,1038.7316 4,1040.471 4,1042.3622 c 0,4.4183 3.581721,8 8.000002,8 4.418275,0 7.999998,-3.5817 7.999998,-8 0,-1.8912 -0.652817,-3.6306 -1.75,-5 l 1.611111,-1.6111 -1.25,-1.25 -1.61111,1.611 c -1.369369,-1.0972 -3.1088,-1.7499 -4.999999,-1.7499 z m 0,1.7778 c 3.436435,0 6.222221,2.7857 6.222221,6.2222 0,3.4365 -2.785786,6.2222 -6.222221,6.2222 -3.4364412,0 -6.2222246,-2.7857 -6.2222246,-6.2222 0,-0.1869 0.011654,-0.373 0.027778,-0.5555 0.00249,-0.028 -0.00285,-0.056 0,-0.084 0.013591,-0.1339 0.061386,-0.2577 0.083334,-0.3889 0.012249,-0.073 0.01304,-0.1506 0.027778,-0.2222 0.028089,-0.1372 0.046365,-0.2828 0.083334,-0.4166 0.010548,-0.038 0.016515,-0.073 0.027778,-0.1109 0.022586,-0.077 0.057929,-0.1472 0.083334,-0.2223 0.048854,-0.1427 0.1078743,-0.2787 0.1666666,-0.4167 0.035351,-0.083 0.072258,-0.1683 0.1111109,-0.2499 0.00355,-0.011 -0.00355,-0.021 0,-0.027 0.074222,-0.1544 0.1637324,-0.2974 0.25,-0.4445 0.066765,-0.1131 0.1208488,-0.225 0.1944443,-0.3334 0.026125,-0.038 0.056374,-0.073 0.083334,-0.1108 0.011751,-0.017 0.015866,-0.039 0.027778,-0.055 0.092719,-0.1281 0.2035715,-0.2406 0.3055555,-0.361 0.1150008,-0.1352 0.2350844,-0.2642 0.361111,-0.3889 0.1226071,-0.1227 0.2564391,-0.2491 0.3888888,-0.3612 0.019085,-0.016 0.036275,-0.04 0.055555,-0.055 0.1234587,-0.1017 0.2577067,-0.1856 0.3888888,-0.2779 0.2920827,-0.2053 0.5906222,-0.3742 0.9166666,-0.5277 0.073795,-0.034 0.1468835,-0.079 0.2222221,-0.1109 0.093052,-0.039 0.1824773,-0.077 0.2777777,-0.1108 0.1731883,-0.063 0.3477713,-0.1187 0.5277783,-0.1667 0.121285,-0.033 0.237025,-0.058 0.361111,-0.083 0.05508,-0.011 0.111059,-0.017 0.166667,-0.027 0.353265,-0.062 0.712198,-0.1109 1.083336,-0.1109 z m 0,0.8888 c -0.309983,0 -0.621183,0.033 -0.916671,0.083 l 0.916671,5.25 0,-5.3332 z"
       id="path5684"
       inkscape:connector-curvature="0" />
  </g>
</svg>
