<?xml version="1.0" encoding="UTF-8" standalone="no"?>
<!-- Created with Inkscape (http://www.inkscape.org/) -->

<svg
   xmlns:dc="http://purl.org/dc/elements/1.1/"
   xmlns:cc="http://creativecommons.org/ns#"
   xmlns:rdf="http://www.w3.org/1999/02/22-rdf-syntax-ns#"
   xmlns:svg="http://www.w3.org/2000/svg"
   xmlns="http://www.w3.org/2000/svg"
   xmlns:sodipodi="http://sodipodi.sourceforge.net/DTD/sodipodi-0.dtd"
   xmlns:inkscape="http://www.inkscape.org/namespaces/inkscape"
   width="24"
   height="24"
   id="svg2"
   version="1.1"
   inkscape:version="0.91 r"
   sodipodi:docname="pomodoro-indicator-light-09.svg">
  <defs
     id="defs4" />
  <sodipodi:namedview
     id="base"
     pagecolor="#ffffff"
     bordercolor="#666666"
     borderopacity="1.0"
     inkscape:pageopacity="0.0"
     inkscape:pageshadow="2"
     inkscape:zoom="23.681818"
     inkscape:cx="-2.9558542"
     inkscape:cy="14.378119"
     inkscape:document-units="px"
     inkscape:current-layer="layer1"
     showgrid="false"
     inkscape:window-width="1322"
     inkscape:window-height="672"
     inkscape:window-x="198"
     inkscape:window-y="76"
     inkscape:window-maximized="0" />
  <metadata
     id="metadata7">
    <rdf:RDF>
      <cc:Work
         rdf:about="">
        <dc:format>image/svg+xml</dc:format>
        <dc:type
           rdf:resource="http://purl.org/dc/dcmitype/StillImage" />
        <dc:title />
      </cc:Work>
    </rdf:RDF>
  </metadata>
  <g
     inkscape:label="Capa 1"
     inkscape:groupmode="layer"
     id="layer1"
     transform="translate(0,-1030.3622)">
    <path
       style="fill:#ffffff;fill-opacity:1;stroke:none"
       d="m 12,1034.3622 c -1.8912,0 -3.6306338,0.6528 -5,1.7501 l -1.6111111,-1.6111 -1.25,1.2499 1.6111111,1.6111 c -1.0971849,1.3694 -1.75,3.1088 -1.75,5 0,4.4183 3.5817226,8 8,8 4.418278,0 8,-3.5817 8,-8 0,-1.8912 -0.652815,-3.6306 -1.75,-5 l 1.611111,-1.6111 -1.25,-1.2499 L 17,1036.1123 c -1.369366,-1.0973 -3.1088,-1.7501 -5,-1.7501 z m 0,1.7778 c 0.429554,0 0.844949,0.056 1.25,0.1389 0.202016,0.041 0.388958,0.079 0.583334,0.1388 0.789196,0.2419 1.48986,0.6263 2.111111,1.139 0.158577,0.1304 0.299563,0.2714 0.444444,0.4166 0.135552,0.1359 0.29407,0.2689 0.416666,0.4167 0.09345,0.112 0.164539,0.2421 0.25,0.3611 0.02777,0.039 0.05645,0.072 0.08334,0.1109 0.0074,0.011 0.02046,0.017 0.02778,0.027 0.215164,0.3207 0.402263,0.6686 0.555556,1.0278 0.08274,0.1935 0.159103,0.3804 0.222223,0.5833 0.0611,0.194 0.09681,0.3816 0.138889,0.5833 0.0018,0.011 -0.0018,0.018 0,0.027 0.03941,0.1932 0.09006,0.3841 0.111108,0.5833 9.78e-4,0.011 -9.78e-4,0.018 0,0.027 0.02022,0.1995 0.02688,0.4064 0.02778,0.6111 4.1e-5,0.011 0,0.018 0,0.027 0,3.4364 -2.785784,6.2223 -6.222221,6.2223 -3.4364386,0 -6.2222226,-2.7859 -6.2222226,-6.2223 0,-3.4364 2.785784,-6.2222 6.2222226,-6.2222 z m 0,0.8888 c -2.9455191,0 -5.3333334,2.3879 -5.3333334,5.3334 0,2.9455 2.3878143,5.3334 5.3333334,5.3334 2.945519,0 5.333334,-2.3879 5.333334,-5.3334 0,-0.011 4.5e-5,-0.018 0,-0.027 L 12,1042.3622 l 0,-5.3334 z"
       id="path5554"
       inkscape:connector-curvature="0" />
  </g>
</svg>
