<?xml version="1.0" encoding="UTF-8" standalone="no"?>
<!-- Created with Inkscape (http://www.inkscape.org/) -->

<svg
   xmlns:dc="http://purl.org/dc/elements/1.1/"
   xmlns:cc="http://creativecommons.org/ns#"
   xmlns:rdf="http://www.w3.org/1999/02/22-rdf-syntax-ns#"
   xmlns:svg="http://www.w3.org/2000/svg"
   xmlns="http://www.w3.org/2000/svg"
   xmlns:sodipodi="http://sodipodi.sourceforge.net/DTD/sodipodi-0.dtd"
   xmlns:inkscape="http://www.inkscape.org/namespaces/inkscape"
   width="24"
   height="24"
   id="svg2"
   version="1.1"
   inkscape:version="0.91 r"
   sodipodi:docname="pomodoro-indicator-light-29.svg">
  <defs
     id="defs4" />
  <sodipodi:namedview
     id="base"
     pagecolor="#ffffff"
     bordercolor="#666666"
     borderopacity="1.0"
     inkscape:pageopacity="0.0"
     inkscape:pageshadow="2"
     inkscape:zoom="23.681818"
     inkscape:cx="-2.9558542"
     inkscape:cy="14.378119"
     inkscape:document-units="px"
     inkscape:current-layer="layer1"
     showgrid="false"
     inkscape:window-width="960"
     inkscape:window-height="844"
     inkscape:window-x="638"
     inkscape:window-y="30"
     inkscape:window-maximized="0" />
  <metadata
     id="metadata7">
    <rdf:RDF>
      <cc:Work
         rdf:about="">
        <dc:format>image/svg+xml</dc:format>
        <dc:type
           rdf:resource="http://purl.org/dc/dcmitype/StillImage" />
        <dc:title />
      </cc:Work>
    </rdf:RDF>
  </metadata>
  <g
     inkscape:label="Capa 1"
     inkscape:groupmode="layer"
     id="layer1"
     transform="translate(0,-1030.3622)">
    <path
       style="fill:#ffffff;fill-opacity:1;stroke:none"
       d="m 12.000002,1034.3622 c -1.891209,0 -3.6306429,0.6528 -5.0000027,1.7501 l -1.6111107,-1.6111 -1.2499997,1.2499 1.6111108,1.6111 C 4.6528088,1038.7316 4,1040.471 4,1042.3622 c 0,4.4183 3.5817148,8 8.000002,8 4.418275,0 7.999998,-3.5817 7.999998,-8 0,-1.8912 -0.652817,-3.6306 -1.749999,-5 l 1.61111,-1.6111 -1.249999,-1.2499 -1.611111,1.6111 c -1.369369,-1.0973 -3.1088,-1.7501 -4.999999,-1.7501 z m 0,1.7778 c 3.436444,0 6.222221,2.7857 6.222221,6.2222 0,3.4365 -2.785777,6.2222 -6.222221,6.2222 -3.4364384,0 -6.2222245,-2.7857 -6.2222245,-6.2222 0,-0.1869 0.011645,-0.3729 0.027734,-0.5555 0.00266,-0.026 -0.00266,-0.056 0,-0.084 0.0136,-0.1339 0.061422,-0.2577 0.083289,-0.3889 0.0096,-0.055 0.016711,-0.112 0.027734,-0.1666 0.00906,-0.047 0.017689,-0.094 0.027734,-0.139 0.027466,-0.122 0.049066,-0.2418 0.083289,-0.361 0.042756,-0.1516 0.085245,-0.298 0.1388889,-0.4445 0.8723554,-2.3826 3.1486243,-4.0834 5.8333366,-4.0834 z m 0,0.8888 c -2.3011827,0 -4.2522694,1.458 -5.0000027,3.5 l 5.0000027,1.8334 0,-5.3334 z"
       id="path5654"
       inkscape:connector-curvature="0" />
  </g>
</svg>
