<?xml version="1.0" encoding="UTF-8" standalone="no"?>
<!-- Created with Inkscape (http://www.inkscape.org/) -->

<svg
   xmlns:dc="http://purl.org/dc/elements/1.1/"
   xmlns:cc="http://creativecommons.org/ns#"
   xmlns:rdf="http://www.w3.org/1999/02/22-rdf-syntax-ns#"
   xmlns:svg="http://www.w3.org/2000/svg"
   xmlns="http://www.w3.org/2000/svg"
   xmlns:xlink="http://www.w3.org/1999/xlink"
   xmlns:sodipodi="http://sodipodi.sourceforge.net/DTD/sodipodi-0.dtd"
   xmlns:inkscape="http://www.inkscape.org/namespaces/inkscape"
   id="svg4951"
   height="48"
   width="48"
   version="1.1"
   inkscape:version="0.91 r13725"
   sodipodi:docname="acestreamplayer.svg">
  <sodipodi:namedview
     pagecolor="#ffffff"
     bordercolor="#666666"
     borderopacity="1"
     objecttolerance="10"
     gridtolerance="10"
     guidetolerance="10"
     inkscape:pageopacity="0"
     inkscape:pageshadow="2"
     inkscape:window-width="1535"
     inkscape:window-height="876"
     id="namedview39"
     showgrid="false"
     inkscape:zoom="4.9166667"
     inkscape:cx="-10.779661"
     inkscape:cy="24"
     inkscape:window-x="65"
     inkscape:window-y="24"
     inkscape:window-maximized="1"
     inkscape:current-layer="svg4951" />
  <defs
     id="defs4953">
    <radialGradient
       id="radialGradient3037"
       xlink:href="#linearGradient3765"
       gradientUnits="userSpaceOnUse"
       cy="-17.681"
       cx="14.892"
       gradientTransform="matrix(-1.4387 3.8089e-8 -2.8328e-8 -1.07 45.169 -14.596)"
       r="25.571" />
    <linearGradient
       id="linearGradient3765">
      <stop
         id="stop3767"
         stop-color="#fff"
         offset="0" />
      <stop
         id="stop3769"
         stop-color="#e4e4e4"
         offset="1" />
    </linearGradient>
    <linearGradient
       id="linearGradient3039"
       y2="32.568"
       gradientUnits="userSpaceOnUse"
       x2="15.124"
       gradientTransform="matrix(.76418 0 0 .76418 12.377 18.778)"
       y1="-18.801"
       x1="15.124">
      <stop
         id="stop3777"
         stop-color="#fff"
         stop-opacity=".58824"
         offset="0" />
      <stop
         id="stop3779"
         stop-color="#fff"
         offset="1" />
    </linearGradient>
    <linearGradient
       id="linearGradient3127"
       y2="156"
       gradientUnits="userSpaceOnUse"
       y1="133.54"
       x2="36.164"
       x1="36.164">
      <stop
         id="stop5191"
         stop-color="#fff"
         offset="0" />
      <stop
         id="stop5193"
         stop-color="#fff"
         stop-opacity="0"
         offset="1" />
    </linearGradient>
    <linearGradient
       id="linearGradient4726"
       y2="24"
       gradientUnits="userSpaceOnUse"
       x2="40"
       gradientTransform="matrix(.99986 0 0 .99986 .0032418 .0034299)"
       y1="24"
       x1="8">
      <stop
         id="stop4425"
         stop-color="#bd1717"
         offset="0" />
      <stop
         id="stop4427"
         stop-color="#ebdc00"
         offset="1" />
    </linearGradient>
    <linearGradient
       id="linearGradient4728"
       y2="24"
       gradientUnits="userSpaceOnUse"
       x2="40"
       gradientTransform="matrix(-.25878 .96579 -.96580 -.25878 53.39 7.0319)"
       y1="24"
       x1="8">
      <stop
         id="stop4448"
         stop-color="#35bd17"
         offset="0" />
      <stop
         id="stop4450"
         stop-color="#fff"
         stop-opacity="0"
         offset="1" />
    </linearGradient>
    <radialGradient
       id="radialGradient4762"
       xlink:href="#linearGradient3765"
       gradientUnits="userSpaceOnUse"
       cy="-17.681"
       cx="14.892"
       gradientTransform="matrix(-1.1214 2.9691e-8 -2.2082e-8 -.83404 40.501 -6.0857)"
       r="25.571" />
  </defs>
  <metadata
     id="metadata4956">
    <rdf:RDF>
      <cc:Work
         rdf:about="">
        <dc:format>image/svg+xml</dc:format>
        <dc:type
           rdf:resource="http://purl.org/dc/dcmitype/StillImage" />
        <dc:title />
      </cc:Work>
    </rdf:RDF>
  </metadata>
  <path
     id="path4317-4"
     style="color:#000000"
     d="m35.312 139.5c-12.41 0-22.375 10.193-22.375 22.969v6.25h0.375 44.031 0.375v-6.25c0.001-12.77-9.995-22.97-22.406-22.97z"
     stroke="url(#linearGradient3127)"
     stroke-width="1.369"
     fill="none" />
  <path
     id="circle4444"
     style="color-rendering:auto;text-decoration-color:#000000;color:#000000;isolation:auto;mix-blend-mode:normal;shape-rendering:auto;solid-color:#000000;block-progression:tb;text-decoration-line:none;text-decoration-style:solid;image-rendering:auto;white-space:normal;text-indent:0;text-transform:none"
     d="m-22.58 31.154c-13.067 5.0543-6.5336 2.5272 0 0zm0.54998-2.0526c-13.434 6.4227-6.7169 3.2113 0 0z"
     fill-opacity="0" />
  <path
     id="path2985"
     d="m44.526 24a20.526 20.526 0 0 1 -20.526 20.526 20.526 20.526 0 0 1 -20.526 -20.526 20.526 20.526 0 0 1 20.526 -20.526 20.526 20.526 0 0 1 20.526 20.526z"
     fill="url(#radialGradient3037)" />
  <path
     id="path3755"
     d="m44.526 24a20.526 20.526 0 0 1 -20.526 20.526 20.526 20.526 0 0 1 -20.526 -20.526 20.526 20.526 0 0 1 20.526 -20.526 20.526 20.526 0 0 1 20.526 20.526z"
     stroke-opacity=".58824"
     stroke="#828282"
     stroke-width=".94845"
     fill="none" />
  <path
     id="path3773"
     d="m43.54 24a19.54 19.54 0 0 1 -19.54 19.54 19.54 19.54 0 0 1 -19.54 -19.54 19.54 19.54 0 0 1 19.54 -19.541 19.54 19.54 0 0 1 19.54 19.541z"
     stroke-opacity=".58824"
     stroke="url(#linearGradient3039)"
     stroke-width=".93261"
     fill="none" />
  <g
     id="g4718"
     transform="matrix(1.0625 0 0 1.0625 -1.5003 -1.5)">
    <path
       id="ellipse4720"
       stroke-linejoin="round"
       d="m38.998 24a14.998 14.998 0 0 1 -14.998 14.998 14.998 14.998 0 0 1 -14.998 -14.998 14.998 14.998 0 0 1 14.998 -14.998 14.998 14.998 0 0 1 14.998 14.998z"
       stroke="url(#linearGradient4726)"
       stroke-linecap="round"
       stroke-width="1.9997"
       fill="none" />
    <path
       id="path4722"
       style="color-rendering:auto;text-decoration-color:#000000;color:#000000;isolation:auto;mix-blend-mode:normal;shape-rendering:auto;solid-color:#000000;block-progression:tb;text-decoration-line:none;text-decoration-style:solid;image-rendering:auto;white-space:normal;text-indent:0;text-transform:none"
       d="m39.454 28.141c2.283-8.523-2.79-17.31-11.313-19.594-8.523-2.2833-17.31 2.79-19.593 11.313-2.284 8.523 2.789 17.31 11.312 19.593 8.523 2.284 17.31-2.789 19.594-11.312zm-1.932-0.518c-2.004 7.479-9.6651 11.902-17.144 9.8981-7.479-2.004-11.902-9.6651-9.8981-17.144 2.004-7.479 9.6651-11.902 17.144-9.8981 7.479 2.004 11.902 9.6651 9.8981 17.144z"
       fill="url(#linearGradient4728)" />
  </g>
  <path
     id="circle4760"
     d="m40 24a16 16 0 0 1 -16 16 16 16 0 0 1 -16 -16 16 16 0 0 1 16 -16 16 16 0 0 1 16 16z"
     fill="url(#radialGradient4762)" />
  <g
     id="g4460"
     transform="translate(2)">
    <path
       id="path4449"
       d="m-45.403 14.12c1.003 0 6.7702 9.9891 6.2687 10.858-0.5015 0.86862-12.036 0.86862-12.537-0.000001-0.5015-0.86862 5.2657-10.858 6.2687-10.858z"
       transform="matrix(0 1.2699 -1.2164 0 48.176 81.659)"
       fill="#49acff" />
    <path
       id="path4451"
       opacity=".15"
       d="m17.924 16.003c-0.05398 0.0048-0.09784 0.01525-0.13086 0.03516-1.0566 0.63687-1.0566 15.285 0 15.922 1.0566 0.63687 13.207-6.6872 13.207-7.9609 0-1.2339-11.403-8.1443-13.076-7.9961zm0.47461 1.1309c0.3638 0.12075 0.88503 0.33614 1.4961 0.62891 1.2439 0.59594 2.8456 1.4828 4.4102 2.4258 1.5645 0.94301 3.0986 1.9468 4.2148 2.7734 0.5483 0.40603 0.98746 0.77053 1.2695 1.0391-0.28212 0.26846-0.72172 0.63145-1.2695 1.0371-1.1163 0.82663-2.6503 1.8304-4.2148 2.7734-1.5645 0.94301-3.1663 1.8298-4.4102 2.4258-0.61107 0.29277-1.1323 0.50816-1.4961 0.62891-0.08172-0.38929-0.1639-0.96919-0.22656-1.668-0.12758-1.4226-0.19141-3.3132-0.19141-5.1992s0.06384-3.7747 0.19141-5.1973c0.06267-0.69878 0.14484-1.2787 0.22656-1.668z" />
  </g>
</svg>
