<?xml version="1.0" encoding="UTF-8" standalone="no"?>
<!-- Created with Inkscape (http://www.inkscape.org/) -->

<svg
   xmlns:dc="http://purl.org/dc/elements/1.1/"
   xmlns:cc="http://creativecommons.org/ns#"
   xmlns:rdf="http://www.w3.org/1999/02/22-rdf-syntax-ns#"
   xmlns:svg="http://www.w3.org/2000/svg"
   xmlns="http://www.w3.org/2000/svg"
   xmlns:sodipodi="http://sodipodi.sourceforge.net/DTD/sodipodi-0.dtd"
   xmlns:inkscape="http://www.inkscape.org/namespaces/inkscape"
   id="svg4951"
   height="48"
   width="48"
   version="1.1"
   inkscape:version="0.91 r13725"
   sodipodi:docname="amarok.svg">
  <sodipodi:namedview
     pagecolor="#ffffff"
     bordercolor="#666666"
     borderopacity="1"
     objecttolerance="10"
     gridtolerance="10"
     guidetolerance="10"
     inkscape:pageopacity="0"
     inkscape:pageshadow="2"
     inkscape:window-width="1535"
     inkscape:window-height="876"
     id="namedview25"
     showgrid="false"
     inkscape:zoom="4.9166667"
     inkscape:cx="-10.779661"
     inkscape:cy="24"
     inkscape:window-x="65"
     inkscape:window-y="24"
     inkscape:window-maximized="1"
     inkscape:current-layer="svg4951" />
  <defs
     id="defs4953">
    <radialGradient
       id="radialGradient3302"
       gradientUnits="userSpaceOnUse"
       cy="186.17"
       cx="99.157"
       gradientTransform="matrix(.27083 0 0 .087623 -2.8551 25.187)"
       r="62.769">
      <stop
         id="stop3822-2-6-3"
         stop-color="#3d3d3d"
         offset="0" />
      <stop
         id="stop3864-8-7-7"
         stop-color="#686868"
         stop-opacity=".49804"
         offset=".5" />
      <stop
         id="stop3824-1-2-5"
         stop-color="#686868"
         stop-opacity="0"
         offset="1" />
    </radialGradient>
    <radialGradient
       id="radialGradient3037"
       gradientUnits="userSpaceOnUse"
       cy="-17.681"
       cx="14.892"
       gradientTransform="matrix(-1.7922 4.7451e-8 -3.529e-8 -1.3329 41.581 -41.248)"
       r="25.571">
      <stop
         id="stop3767"
         stop-color="#fff"
         offset="0" />
      <stop
         id="stop3769"
         stop-color="#e4e4e4"
         offset="1" />
    </radialGradient>
    <linearGradient
       id="linearGradient3039"
       y2="32.568"
       gradientUnits="userSpaceOnUse"
       x2="15.124"
       y1="-18.801"
       x1="15.124">
      <stop
         id="stop3777"
         stop-color="#fff"
         stop-opacity=".58824"
         offset="0" />
      <stop
         id="stop3779"
         stop-color="#fff"
         offset="1" />
    </linearGradient>
    <linearGradient
       id="linearGradient3127"
       y2="156"
       gradientUnits="userSpaceOnUse"
       y1="133.54"
       x2="36.164"
       x1="36.164">
      <stop
         id="stop5191"
         stop-color="#fff"
         offset="0" />
      <stop
         id="stop5193"
         stop-color="#fff"
         stop-opacity="0"
         offset="1" />
    </linearGradient>
  </defs>
  <metadata
     id="metadata4956">
    <rdf:RDF>
      <cc:Work
         rdf:about="">
        <dc:format>image/svg+xml</dc:format>
        <dc:type
           rdf:resource="http://purl.org/dc/dcmitype/StillImage" />
        <dc:title />
      </cc:Work>
    </rdf:RDF>
  </metadata>
  <path
     id="path2985"
     d="m40.781 6.8335a25.571 25.571 0 1 1 -51.141 0 25.571 25.571 0 1 1 51.141 0z"
     transform="matrix(.80271 0 0 .80271 11.791 18.515)"
     fill="url(#radialGradient3037)" />
  <path
     id="path3755"
     d="m40.781 6.8335a25.571 25.571 0 1 1 -51.141 0 25.571 25.571 0 1 1 51.141 0z"
     stroke-opacity=".58824"
     transform="matrix(.80271 0 0 .80271 11.791 18.515)"
     stroke="#828282"
     stroke-width="1.1816"
     fill="none" />
  <path
     id="path3773"
     d="m40.781 6.8335a25.571 25.571 0 1 1 -51.141 0 25.571 25.571 0 1 1 51.141 0z"
     stroke-opacity=".58824"
     transform="matrix(.76418 0 0 .76418 12.377 18.778)"
     stroke="url(#linearGradient3039)"
     stroke-width="1.2204"
     fill="none" />
  <path
     id="path4317-4"
     style="color:#000000"
     d="m35.312 139.5c-12.41 0-22.375 10.193-22.375 22.969v6.25h0.375 44.031 0.375v-6.25c0.001-12.77-9.995-22.97-22.406-22.97z"
     stroke="url(#linearGradient3127)"
     stroke-width="1.369"
     fill="none" />
  <path
     id="path4411"
     d="m33.511 11c-0.65999 0-1.9412 1.5129-2.4215 1.7517-0.48026 0.23887-4.2833 2.9449-4.6435 3.4226-0.36018 0.47765-0.84049 0.67752-1.3607 0.63772-0.52023-0.03975-2.1639-0.05708-2.7242 0.26138-0.56037 0.31851-3.1185 2.9221-3.7588 3.2406-0.6403 0.31838-1.475 0.48156-1.8753 0.5214-0.40015 0.03974-1.727 1.5099-2.0872 1.7886-0.36018 0.27871-3.2059 1.5034-3.6061 1.7421-0.40024 0.23887 2.9195 3.5839 3.3997 3.6635 0.48026 0.07972-0.33074 1.8926-1.2548 1.8926-0.10176 0 0.82603 3.0032 5.6754 5.6492 4.1923 2.2874 8.6408 1.2745 10.293 0.71983 1.1681-0.39239 0.34789-0.60982 0.38799-1.2467 0.03992-0.63697 0.07403-1.4745 0.1541-2.191 0.08011-0.71652 0.35998-6.7269 1.4006-8.3191 1.0405-1.5922 4.0143-3.5041 5.0549-3.7032 1.0406-0.19903 0.84064-0.597 0.84064-0.95522s-0.16006-1.1546-0.44027-1.2741c-0.28012-0.11939-1.3734 0.59782-1.7336 0.67741-0.36018 0.0796-2.0809 0.19963-2.321-0.19843-0.24011-0.39815 1.9405-4.4585 2.2206-4.9362 0.28-0.478 0.4-1.115-0.12-1.792-0.52-0.676-0.88-1.353-1.08-1.353zm-8.2454 7.4803c0.16294 0.0086 0.26141 0.02327 0.26141 0.02327 0.18308 0.42456-0.67095 1.7585-1.4639 1.9405-0.79277 0.18192-2.622 2.8524-2.6829 2.2457-0.06118-0.60666 0.73199-2.6085 1.6469-3.5184 0.68614-0.68251 1.7497-0.71669 2.2385-0.6911z"
     fill="#3972ff" />
  <path
     id="path58"
     opacity=".15"
     d="m33.51 11c-0.66 0-1.94 1.513-2.42 1.752s-4.285 2.944-4.645 3.422c-0.36 0.477-0.841 0.678-1.361 0.638-0.52-0.039-2.162-0.056-2.723 0.262-0.56 0.319-3.119 2.922-3.759 3.24-0.641 0.319-1.475 0.482-1.875 0.522-0.401 0.04-1.728 1.51-2.088 1.789-0.361 0.279-3.206 1.501-3.606 1.74s2.92 3.585 3.401 3.664c0.48 0.08-0.332 1.893-1.256 1.893-0.034 0 0.066 0.352 0.365 0.89 0.088-0.049 0.171-0.104 0.268-0.146-0.078 0.067-0.155 0.135-0.155 0.135s-0.069 0.016-0.105 0.025c0.606 1.087 2.077 2.986 5.303 4.746 4.192 2.288 8.641 1.274 10.292 0.719 1.169-0.392 0.349-0.609 0.389-1.246s0.074-1.475 0.154-2.191c0.081-0.717 0.36-6.727 1.401-8.319 1.04-1.592 4.014-3.504 5.055-3.703 1.04-0.199 0.839-0.597 0.839-0.955s-0.159-1.156-0.439-1.275c-0.28-0.12-1.374 0.598-1.734 0.677-0.361 0.08-2.081 0.199-2.321-0.199s1.941-4.458 2.221-4.935c0.28-0.478 0.399-1.115-0.121-1.791-0.52-0.677-0.88-1.354-1.08-1.354zm-0.233 1.23c0.148 0.215 0.299 0.445 0.52 0.733h0.002c0.29 0.377 0.196 0.425 0.049 0.676-0.193 0.328-0.779 1.414-1.342 2.564-0.282 0.575-0.547 1.149-0.74 1.639-0.097 0.245-0.177 0.465-0.233 0.691-0.028 0.113-0.052 0.227-0.06 0.377-0.009 0.151-0.039 0.359 0.16 0.688 0.344 0.57 0.752 0.603 1.058 0.67 0.307 0.066 0.603 0.086 0.895 0.091 0.552 0.011 0.982-0.016 1.369-0.093-0.603 0.246-1.222 0.593-1.912 1.076-1.067 0.746-2.132 1.638-2.791 2.646-0.407 0.622-0.602 1.355-0.787 2.205s-0.323 1.798-0.43 2.713c-0.214 1.831-0.32 3.657-0.34 3.836-0.086 0.771-0.119 1.623-0.158 2.24-0.017 0.279 0.044 0.2 0.1 0.393-1.578 0.506-5.577 1.352-9.305-0.682-2.309-1.259-3.638-2.576-4.377-3.545-0.246-0.322-0.344-0.526-0.471-0.753 0.315-0.272 0.544-0.584 0.721-0.903 0.178-0.318 0.309-0.627 0.357-1.008 0.025-0.19 0.042-0.409-0.074-0.709-0.115-0.3-0.506-0.668-0.89-0.732 0.382 0.064 0.219 0.079 0.125 0.01-0.096-0.071-0.247-0.194-0.418-0.346-0.344-0.303-0.778-0.721-1.18-1.141-0.272-0.283-0.468-0.524-0.676-0.771 0.262-0.121 0.527-0.242 0.821-0.377 0.405-0.186 0.81-0.375 1.148-0.539 0.337-0.165 0.52-0.222 0.834-0.465 0.383-0.296 0.701-0.663 1.107-1.051 0.204-0.194 0.404-0.376 0.545-0.488 0.142-0.112 0.371-0.09-0.078-0.045 0.532-0.053 1.392-0.209 2.221-0.621 0.409-0.203 0.632-0.427 0.988-0.736s0.758-0.679 1.154-1.045c0.397-0.367 0.787-0.731 1.104-1.014 0.316-0.283 0.647-0.519 0.562-0.471-0.091 0.053 0.446-0.109 0.938-0.136 0.492-0.028 1.023-0.013 1.215 0.002 0.821 0.062 1.699-0.32 2.236-1.032v-0.002c-0.073 0.097 0.017-0.013 0.137-0.117 0.12-0.103 0.291-0.242 0.49-0.398 0.399-0.313 0.918-0.698 1.44-1.076 0.521-0.378 1.046-0.751 1.466-1.039 0.421-0.289 0.841-0.54 0.758-0.499 0.338-0.168 0.491-0.331 0.705-0.521s0.438-0.397 0.655-0.588c0.143-0.126 0.26-0.212 0.382-0.307z" />
</svg>
