<?xml version="1.0" encoding="UTF-8" standalone="no"?>
<svg
   xmlns:dc="http://purl.org/dc/elements/1.1/"
   xmlns:cc="http://creativecommons.org/ns#"
   xmlns:rdf="http://www.w3.org/1999/02/22-rdf-syntax-ns#"
   xmlns:svg="http://www.w3.org/2000/svg"
   xmlns="http://www.w3.org/2000/svg"
   xmlns:xlink="http://www.w3.org/1999/xlink"
   xmlns:sodipodi="http://sodipodi.sourceforge.net/DTD/sodipodi-0.dtd"
   xmlns:inkscape="http://www.inkscape.org/namespaces/inkscape"
   version="1.1"
   width="48"
   height="48"
   id="svg4405"
   inkscape:version="0.91 r13725"
   sodipodi:docname="amazon-store.svg">
  <sodipodi:namedview
     pagecolor="#ffffff"
     bordercolor="#666666"
     borderopacity="1"
     objecttolerance="10"
     gridtolerance="10"
     guidetolerance="10"
     inkscape:pageopacity="0"
     inkscape:pageshadow="2"
     inkscape:window-width="1600"
     inkscape:window-height="845"
     id="namedview125"
     showgrid="false"
     inkscape:zoom="1"
     inkscape:cx="27.962442"
     inkscape:cy="24"
     inkscape:window-x="0"
     inkscape:window-y="0"
     inkscape:window-maximized="1"
     inkscape:current-layer="svg4405" />
  <defs
     id="defs4407">
    <linearGradient
       id="linearGradient4187">
      <stop
         id="stop4189"
         style="stop-color:#ffffff;stop-opacity:1"
         offset="0" />
      <stop
         id="stop4191"
         style="stop-color:#ffffff;stop-opacity:0.23529412"
         offset="0.02099473" />
      <stop
         id="stop4193"
         style="stop-color:#ffffff;stop-opacity:0.15686275"
         offset="0.97696" />
      <stop
         id="stop4195"
         style="stop-color:#ffffff;stop-opacity:0.39215687"
         offset="1" />
    </linearGradient>
    <linearGradient
       id="linearGradient3851">
      <stop
         id="stop3853"
         style="stop-color:#000000;stop-opacity:0.43200001"
         offset="0" />
      <stop
         id="stop3855"
         style="stop-color:#000000;stop-opacity:0.627451"
         offset="1" />
    </linearGradient>
    <linearGradient
       id="linearGradient2867-449-88-871-390-598-476-591-434-148-57-177-8-3-3-6-4-8-8-8-5">
      <stop
         id="stop3750-1-0-7-6-6-1-3-9-3"
         style="stop-color:#919caf;stop-opacity:1"
         offset="0" />
      <stop
         id="stop3752-3-7-4-0-32-8-923-0-7"
         style="stop-color:#68758e;stop-opacity:1"
         offset="0.26238" />
      <stop
         id="stop3754-1-8-5-2-7-6-7-1-9"
         style="stop-color:#485a6c;stop-opacity:1"
         offset="0.704952" />
      <stop
         id="stop3756-1-6-2-6-6-1-96-6-0"
         style="stop-color:#444c5c;stop-opacity:1"
         offset="1" />
    </linearGradient>
    <linearGradient
       x1="23.99999"
       y1="6.1111298"
       x2="23.99999"
       y2="41.890972"
       id="linearGradient3153"
       xlink:href="#linearGradient4187"
       gradientUnits="userSpaceOnUse"
       gradientTransform="translate(1.17e-5,1e-5)" />
    <radialGradient
       cx="6.7304144"
       cy="9.9571075"
       r="12.671875"
       fx="6.2001843"
       fy="9.9571075"
       id="radialGradient4144"
       xlink:href="#linearGradient2867-449-88-871-390-598-476-591-434-148-57-177-8-3-3-6-4-8-8-8-5"
       gradientUnits="userSpaceOnUse"
       gradientTransform="matrix(0,9.4975523,-11.65996,0,140.93055,-80.160972)" />
    <filter
       id="filter3831"
       color-interpolation-filters="sRGB">
      <feGaussianBlur
         id="feGaussianBlur3833"
         stdDeviation="0.6375" />
    </filter>
    <clipPath
       id="clipPath3823">
      <path
         style="fill:#ffffff;fill-opacity:1;stroke:none"
         id="path3825"
         inkscape:connector-curvature="0"
         d="M 108.8125,58 C 107.25437,58 106,59.254375 106,60.8125 l 0,24.375 C 106,86.745625 107.25437,88 108.8125,88 l 24.375,0 C 134.74562,88 136,86.745625 136,85.1875 l 0,-24.375 C 136,59.254375 134.74562,58 133.1875,58 l -24.375,0 z m 7.1875,4.5 10,0 0,8.75 5,0 -10,13.75 -10,-13.75 5,0 0,-8.75 z" />
    </clipPath>
    <linearGradient
       gradientTransform="matrix(0.625,0,0,0.625,78.5,32.25)"
       gradientUnits="userSpaceOnUse"
       xlink:href="#linearGradient3851"
       id="linearGradient3812"
       y2="50.068527"
       x2="65.262688"
       y1="64.205269"
       x1="65.262688" />
    <filter
       id="filter3806"
       color-interpolation-filters="sRGB">
      <feGaussianBlur
         id="feGaussianBlur3808"
         stdDeviation="1.2" />
    </filter>
    <linearGradient
       gradientTransform="translate(0,4)"
       gradientUnits="userSpaceOnUse"
       xlink:href="#linearGradient3737"
       id="linearGradient3788"
       y2="75.095024"
       x2="70"
       y1="54"
       x1="70" />
    <linearGradient
       gradientTransform="matrix(0.9375,0,0,0.9375,-140.5,3.5)"
       gradientUnits="userSpaceOnUse"
       xlink:href="#linearGradient3778"
       id="linearGradient3773"
       y2="72"
       x2="88"
       y1="72"
       x1="56" />
    <linearGradient
       gradientTransform="matrix(0.625,0,0,0.625,28.5,31.25)"
       gradientUnits="userSpaceOnUse"
       xlink:href="#linearGradient3737"
       id="linearGradient3832"
       y2="50.068527"
       x2="65.262688"
       y1="64.205269"
       x1="65.262688" />
    <filter
       id="filter3174"
       color-interpolation-filters="sRGB">
      <feGaussianBlur
         id="feGaussianBlur3176"
         stdDeviation="1.71" />
    </filter>
    <linearGradient
       id="linearGradient3737">
      <stop
         offset="0"
         style="stop-color:#ffffff;stop-opacity:1"
         id="stop3739" />
      <stop
         offset="1"
         style="stop-color:#ffffff;stop-opacity:0"
         id="stop3741" />
    </linearGradient>
    <linearGradient
       gradientTransform="scale(1.0058652,0.994169)"
       gradientUnits="userSpaceOnUse"
       id="ButtonShadow"
       y2="7.0165396"
       x2="45.447727"
       y1="92.539597"
       x1="45.447727">
      <stop
         offset="0"
         style="stop-color:#000000;stop-opacity:1"
         id="stop3750" />
      <stop
         offset="1"
         style="stop-color:#000000;stop-opacity:0.58823532"
         id="stop3752" />
    </linearGradient>
    <linearGradient
       id="linearGradient3778">
      <stop
         offset="0"
         style="stop-color:#499119;stop-opacity:1"
         id="stop3780" />
      <stop
         offset="1"
         style="stop-color:#8fd625;stop-opacity:1"
         id="stop3782" />
    </linearGradient>
  </defs>
  <metadata
     id="metadata4410">
    <rdf:RDF>
      <cc:Work
         rdf:about="">
        <dc:format>image/svg+xml</dc:format>
        <dc:type
           rdf:resource="http://purl.org/dc/dcmitype/StillImage" />
        <dc:title></dc:title>
      </cc:Work>
    </rdf:RDF>
  </metadata>
  <g
     transform="translate(-289.21307,-28.202952)"
     id="layer2"
     style="display:none">
    <path
       d="M 11,7 48,5 85,7 c 3.324,0 6,2.676 6,6 l 0,73 c 0,3.324 -2.676,6 -6,6 L 11,92 C 7.676,92 5,89.324 5,86 L 5,13 C 5,9.676 7.676,7 11,7 Z"
       inkscape:connector-curvature="0"
       id="rect3745"
       style="opacity:0.9;fill:url(#ButtonShadow);fill-opacity:1;fill-rule:nonzero;stroke:none;filter:url(#filter3174)" />
  </g>
  <g
     transform="translate(-289.21307,-28.202952)"
     id="layer4"
     style="display:none">
    <rect
       width="30"
       height="30"
       rx="2.8125"
       ry="2.8125"
       x="-86"
       y="56"
       transform="matrix(0,-1,1,0,0,4)"
       id="rect3790"
       style="opacity:0.6;fill:#000000;fill-opacity:1;stroke:none;filter:url(#filter3806)" />
    <rect
       width="30"
       height="30"
       rx="2.8125"
       ry="2.8125"
       x="-88"
       y="56"
       transform="matrix(0,-1,1,0,0,0)"
       id="rect2993"
       style="fill:url(#linearGradient3773);fill-opacity:1;stroke:none" />
    <path
       d="M 58.8125,58 C 57.254375,58 56,59.254375 56,60.8125 l 0,24.375 c 0,0.873066 0.410816,1.641163 1.03125,2.15625 C 57.02841,87.289908 57,87.242129 57,87.1875 l 0,-24.375 C 57,61.254375 58.17075,60 59.625,60 l 22.75,0 C 83.82925,60 85,61.254375 85,62.8125 l 0,24.375 c 0,0.05463 -0.02841,0.102408 -0.03125,0.15625 C 85.589184,86.828663 86,86.060566 86,85.1875 l 0,-24.375 C 86,59.254375 84.745625,58 83.1875,58 l -24.375,0 z"
       inkscape:connector-curvature="0"
       id="rect3775"
       style="opacity:0.5;fill:url(#linearGradient3788);fill-opacity:1;stroke:none" />
    <path
       d="m 116,63.5 0,8.75 -5,0 10,13.75 10,-13.75 -5,0 0,-8.75 -10,0 z"
       inkscape:connector-curvature="0"
       transform="translate(-50,0)"
       clip-path="url(#clipPath3823)"
       id="path3810"
       style="display:inline;opacity:0.6;fill:url(#linearGradient3812);fill-opacity:1;fill-rule:nonzero;stroke:none;filter:url(#filter3831)" />
    <path
       d="m 66,62.5 0,8.75 -5,0 10,13.75 10,-13.75 -5,0 0,-8.75 -10,0 z"
       inkscape:connector-curvature="0"
       id="path4278"
       style="display:inline;fill:url(#linearGradient3832);fill-opacity:1;fill-rule:nonzero;stroke:none" />
  </g>
  <rect
     width="39"
     height="39"
     rx="2"
     ry="2"
     x="4.5000067"
     y="4.5"
     id="rect5505-21"
     style="color:#000000;display:inline;overflow:visible;visibility:visible;fill:url(#radialGradient4144);fill-opacity:1;fill-rule:nonzero;stroke:none;stroke-width:0.99999994;marker:none;enable-background:accumulate" />
  <rect
     width="37"
     height="37"
     rx="1"
     ry="1"
     x="5.5000081"
     y="5.5"
     id="rect6741-1"
     style="opacity:0.3;fill:none;stroke:url(#linearGradient3153);stroke-width:1;stroke-linecap:round;stroke-linejoin:round;stroke-miterlimit:4;stroke-dasharray:none;stroke-dashoffset:0;stroke-opacity:1" />
  <rect
     width="39"
     height="39"
     rx="2"
     ry="2"
     x="4.5000081"
     y="4.5"
     id="rect5505-21-6"
     style="color:#000000;display:inline;overflow:visible;visibility:visible;opacity:0.5;fill:none;stroke:#1c2c38;stroke-width:1;stroke-linecap:round;stroke-linejoin:round;stroke-miterlimit:4;stroke-dasharray:none;stroke-dashoffset:0;stroke-opacity:1;marker:none;enable-background:accumulate" />
  <path
     sodipodi:nodetypes="scsscscccssccscsccccscsscccc"
     inkscape:connector-curvature="0"
     id="path4233"
     d="m 25.86286,24.056967 c 0,1.227431 0.0311,2.250614 -0.62691,3.34113 -0.53143,0.887022 -1.37718,1.431487 -2.31663,1.431487 -1.28372,0 -2.03516,-0.920032 -2.03516,-2.28395 0,-2.682465 2.55736,-3.170136 4.9787,-3.170136 z m 3.37492,7.679472 c -0.222,0.186759 -0.54183,0.199725 -0.79143,0.07307 -1.11231,-0.869203 -1.31132,-1.271309 -1.91866,-2.098825 -1.83699,1.761125 -3.13854,2.289317 -5.51821,2.289317 -2.81822,0 -5.00948,-1.636061 -5.00948,-4.90883 0,-2.55693 1.47118,-4.295302 3.56908,-5.147812 1.81603,-0.750114 4.35268,-0.886184 6.29373,-1.091032 l 0,-0.409144 c 0,-0.749552 0.0621,-1.636336 -0.40724,-2.283956 -0.40719,-0.579624 -1.18995,-0.818001 -1.87836,-0.818001 -1.27653,0 -2.41183,0.615345 -2.69023,1.890991 -0.0584,0.284172 -0.2781,0.564705 -0.58202,0.57939 l -3.2438,-0.330705 c -0.27374,-0.05787 -0.5786,-0.264961 -0.49921,-0.658391 0.7451,-3.703502 4.29946,-4.82251 7.48459,-4.82251 1.62822,0 3.75738,0.409138 5.04114,1.56821 1.62822,1.432045 1.47177,3.34113 1.47177,5.42079 l 0,4.906685 c 0,1.475877 0.65106,2.123726 1.26301,2.919817 0.21392,0.285753 0.26224,0.626724 -0.0104,0.835633 -0.68386,0.539571 -1.89914,1.532721 -2.56748,2.092345 z"
     style="display:inline;opacity:0.3;fill:#000000;fill-opacity:1;fill-rule:evenodd" />
  <path
     sodipodi:nodetypes="scsscscccssccscsccccscsscccc"
     inkscape:connector-curvature="0"
     id="path4402"
     d="m 25.86286,23.056967 c 0,1.227431 0.0311,2.250614 -0.62691,3.34113 -0.53143,0.887022 -1.37718,1.431487 -2.31663,1.431487 -1.28372,0 -2.03516,-0.920032 -2.03516,-2.28395 0,-2.682465 2.55736,-3.170136 4.9787,-3.170136 z m 3.37492,7.679472 c -0.222,0.186759 -0.54183,0.199725 -0.79143,0.07307 -1.11231,-0.869203 -1.31132,-1.271309 -1.91866,-2.098825 -1.83699,1.761125 -3.13854,2.289317 -5.51821,2.289317 -2.81822,0 -5.00948,-1.636061 -5.00948,-4.90883 0,-2.55693 1.47118,-4.295302 3.56908,-5.147812 1.81603,-0.750114 4.35268,-0.886184 6.29373,-1.091032 l 0,-0.409144 c 0,-0.749552 0.0621,-1.636336 -0.40724,-2.283956 -0.40719,-0.579624 -1.18995,-0.818001 -1.87836,-0.818001 -1.27653,0 -2.41183,0.615345 -2.69023,1.890991 -0.0584,0.284172 -0.2781,0.564705 -0.58202,0.57939 l -3.2438,-0.330705 c -0.27374,-0.05787 -0.5786,-0.264961 -0.49921,-0.658391 0.7451,-3.703502 4.29946,-4.82251 7.48459,-4.82251 1.62822,0 3.75738,0.409138 5.04114,1.56821 1.62822,1.432045 1.47177,3.34113 1.47177,5.42079 l 0,4.906685 c 0,1.475877 0.65106,2.123726 1.26301,2.919817 0.21392,0.285753 0.26224,0.626724 -0.0104,0.835633 -0.68386,0.539571 -1.89914,1.532721 -2.56748,2.092345 z"
     style="display:inline;opacity:0.15;fill:none;fill-opacity:1;fill-rule:evenodd;stroke:#000000;stroke-opacity:1" />
  <path
     style="display:inline;opacity:1;fill:#ffffff;fill-opacity:1;fill-rule:evenodd"
     d="m 25.86286,23.056967 c 0,1.227431 0.0311,2.250614 -0.62691,3.34113 -0.53143,0.887022 -1.37718,1.431487 -2.31663,1.431487 -1.28372,0 -2.03516,-0.920032 -2.03516,-2.28395 0,-2.682465 2.55736,-3.170136 4.9787,-3.170136 z m 3.37492,7.679472 c -0.222,0.186759 -0.54183,0.199725 -0.79143,0.07307 -1.11231,-0.869203 -1.31132,-1.271309 -1.91866,-2.098825 -1.83699,1.761125 -3.13854,2.289317 -5.51821,2.289317 -2.81822,0 -5.00948,-1.636061 -5.00948,-4.90883 0,-2.55693 1.47118,-4.295302 3.56908,-5.147812 1.81603,-0.750114 4.35268,-0.886184 6.29373,-1.091032 l 0,-0.409144 c 0,-0.749552 0.0621,-1.636336 -0.40724,-2.283956 -0.40719,-0.579624 -1.18995,-0.818001 -1.87836,-0.818001 -1.27653,0 -2.41183,0.615345 -2.69023,1.890991 -0.0584,0.284172 -0.2781,0.564705 -0.58202,0.57939 l -3.2438,-0.330705 c -0.27374,-0.05787 -0.5786,-0.264961 -0.49921,-0.658391 0.7451,-3.703502 4.29946,-4.82251 7.48459,-4.82251 1.62822,0 3.75738,0.409138 5.04114,1.56821 1.62822,1.432045 1.47177,3.34113 1.47177,5.42079 l 0,4.906685 c 0,1.475877 0.65106,2.123726 1.26301,2.919817 0.21392,0.285753 0.26224,0.626724 -0.0104,0.835633 -0.68386,0.539571 -1.89914,1.532721 -2.56748,2.092345 z"
     id="path7-5"
     inkscape:connector-curvature="0"
     sodipodi:nodetypes="scsscscccssccscsccccscsscccc" />
  <path
     id="path4241"
     d="m 34.04102,32.500001 c -0.93339,0.01044 -2.03644,0.181057 -2.8711,0.658203 -0.25816,0.145724 -0.21434,0.348733 0.0723,0.320313 0.94077,-0.09063 3.03627,-0.295607 3.40821,0.0918 0.37411,0.389181 -0.41535,1.990689 -0.76758,2.705079 -0.10721,0.216799 0.12262,0.304113 0.36328,0.140625 1.56867,-1.064474 1.97176,-3.295536 1.65234,-3.617188 -0.15971,-0.159941 -0.92404,-0.309272 -1.85742,-0.298832 z m -21.86524,0.002 c -0.17595,0.02291 -0.25386,0.237157 -0.0684,0.40625 3.14813,2.867014 7.30937,4.59175 11.93164,4.59175 3.29654,0 7.12405,-1.046515 9.76563,-3.009766 0.43729,-0.327205 0.0644,-0.814588 -0.38282,-0.623046 -2.96015,1.266933 -6.1809,1.876953 -9.10742,1.876953 -4.33931,0 -8.54005,-1.198233 -11.9375,-3.191407 -0.0742,-0.04389 -0.14252,-0.05842 -0.20117,-0.05078 z"
     style="opacity:0.3;fill:#000000;fill-opacity:1;fill-rule:evenodd;stroke:none"
     inkscape:connector-curvature="0" />
  <path
     inkscape:connector-curvature="0"
     style="opacity:0.8;fill:#ff7e19;fill-opacity:1;fill-rule:evenodd;stroke:none"
     d="m 34.04102,32.000001 c -0.93339,0.01044 -2.03644,0.181057 -2.8711,0.658203 -0.25816,0.145724 -0.21434,0.348733 0.0723,0.320313 0.94077,-0.09063 3.03627,-0.295607 3.40821,0.0918 0.37411,0.389181 -0.41535,1.990689 -0.76758,2.705079 -0.10721,0.216799 0.12262,0.304113 0.36328,0.140625 1.56867,-1.064474 1.97176,-3.295536 1.65234,-3.617188 -0.15971,-0.159941 -0.92404,-0.309272 -1.85742,-0.298832 z m -21.86524,0.002 c -0.17595,0.02291 -0.25386,0.237157 -0.0684,0.40625 3.14813,2.867014 7.30937,4.59175 11.93164,4.59175 3.29654,0 7.12405,-1.046515 9.76563,-3.009766 0.43729,-0.327205 0.0644,-0.814588 -0.38282,-0.623046 -2.96015,1.266933 -6.1809,1.876953 -9.10742,1.876953 -4.33931,0 -8.54005,-1.198233 -11.9375,-3.191407 -0.0742,-0.04389 -0.14252,-0.05842 -0.20117,-0.05078 z"
     id="path8-9" />
</svg>
