<?xml version="1.0" encoding="UTF-8" standalone="no"?>
<!-- Created with Inkscape (http://www.inkscape.org/) -->

<svg
   xmlns:dc="http://purl.org/dc/elements/1.1/"
   xmlns:cc="http://creativecommons.org/ns#"
   xmlns:rdf="http://www.w3.org/1999/02/22-rdf-syntax-ns#"
   xmlns:svg="http://www.w3.org/2000/svg"
   xmlns="http://www.w3.org/2000/svg"
   xmlns:sodipodi="http://sodipodi.sourceforge.net/DTD/sodipodi-0.dtd"
   xmlns:inkscape="http://www.inkscape.org/namespaces/inkscape"
   id="svg4951"
   height="48"
   width="48"
   version="1.1"
   inkscape:version="0.91 r13725"
   sodipodi:docname="billard-gl.svg">
  <sodipodi:namedview
     pagecolor="#ffffff"
     bordercolor="#666666"
     borderopacity="1"
     objecttolerance="10"
     gridtolerance="10"
     guidetolerance="10"
     inkscape:pageopacity="0"
     inkscape:pageshadow="2"
     inkscape:window-width="1535"
     inkscape:window-height="876"
     id="namedview22"
     showgrid="false"
     inkscape:zoom="4.9166667"
     inkscape:cx="-10.779661"
     inkscape:cy="24"
     inkscape:window-x="65"
     inkscape:window-y="24"
     inkscape:window-maximized="1"
     inkscape:current-layer="svg4951" />
  <defs
     id="defs4953">
    <radialGradient
       id="radialGradient3302"
       gradientUnits="userSpaceOnUse"
       cx="99.157"
       cy="186.17"
       r="62.769"
       gradientTransform="matrix(0.27083,0,0,0.087623,-2.8551,25.187)">
      <stop
         id="stop3822-2-6-3"
         stop-color="#3d3d3d"
         offset="0" />
      <stop
         id="stop3864-8-7-7"
         stop-color="#686868"
         stop-opacity=".49804"
         offset=".5" />
      <stop
         id="stop3824-1-2-5"
         stop-color="#686868"
         stop-opacity="0"
         offset="1" />
    </radialGradient>
    <radialGradient
       id="radialGradient4569"
       gradientUnits="userSpaceOnUse"
       cy="-17.681"
       cx="14.892"
       gradientTransform="matrix(-1.4387,3.8089e-8,-2.8328e-8,-1.07,45.169,-14.596)"
       r="25.571">
      <stop
         id="stop3750-1-0-7-6-6-1-3-9-3"
         stop-color="#5f5f5f"
         offset="0" />
      <stop
         id="stop3752-3-7-4-0-32-8-923-0-7"
         stop-color="#515151"
         offset=".26238" />
      <stop
         id="stop3754-1-8-5-2-7-6-7-1-9"
         stop-color="#404040"
         offset=".70495" />
      <stop
         id="stop3756-1-6-2-6-6-1-96-6-0"
         stop-color="#343434"
         offset="1" />
    </radialGradient>
    <linearGradient
       id="linearGradient4578"
       y2="-.20567"
       gradientUnits="userSpaceOnUse"
       x2="2.5518"
       y1="22.777"
       x1="24.34">
      <stop
         id="stop4574"
         stop-color="#fff"
         offset="0" />
      <stop
         id="stop4576"
         stop-color="#fff"
         stop-opacity="0"
         offset="1" />
    </linearGradient>
  </defs>
  <metadata
     id="metadata4956">
    <rdf:RDF>
      <cc:Work
         rdf:about="">
        <dc:format>image/svg+xml</dc:format>
        <dc:type
           rdf:resource="http://purl.org/dc/dcmitype/StillImage" />
        <dc:title />
      </cc:Work>
    </rdf:RDF>
  </metadata>
  <circle
     style="fill:url(#radialGradient4569)"
     r="20.525999"
     cx="24"
     cy="24"
     id="circle4567" />
  <path
     inkscape:connector-curvature="0"
     style="fill:url(#linearGradient4578)"
     d="M 19.18,4.0723 A 20.526,20.526 0 0 0 4.93,16.4573 c -0.0234,0.656 0,1.319 0.0895,1.986 0.9949,7.422 8.5935,13.192 17.162,10.248 9.205,-3.161 11.319,-13.261 6.066,-19.851 -2.313,-2.9028 -5.659,-4.4697 -9.068,-4.7677 z m 0.765,3.1347 c 0.6,-0.0391 1.194,0.0377 1.787,0.2305 1.247,0.4097 2.354,1.2958 3.332,2.7205 1.062,1.547 1.508,3.03 1.262,4.397 -0.256,1.424 -1.2,2.473 -2.806,3.093 -1.137,0.439 -2.252,0.479 -3.323,0.137 -1.032,-0.322 -1.9,-0.959 -2.601,-1.887 0.223,1.281 0.072,2.452 -0.471,3.483 -0.553,1.065 -1.439,1.838 -2.641,2.299 -1.801,0.691 -3.317,0.591 -4.5192,-0.262 C 8.829,20.619 8.0855,19.226 7.7129,17.33 7.3689,15.58 7.4982,14.161 8.0664,13.006 c 0.551,-1.112 1.5001,-1.95 2.8766,-2.551 0.917,-0.4 1.784,-0.5102 2.612,-0.324 0.853,0.192 1.589,0.679 2.213,1.486 -0.124,-0.905 0.026,-1.6937 0.441,-2.3807 0.411,-0.6695 1.048,-1.1894 1.918,-1.5683 0.614,-0.2673 1.218,-0.4218 1.818,-0.461 z m 0.121,1.9571 c -0.391,0.0313 -0.797,0.1364 -1.214,0.3144 -0.829,0.3536 -1.365,0.8495 -1.616,1.4945 -0.252,0.664 -0.185,1.433 0.219,2.33 0.419,0.93 1.018,1.582 1.795,1.931 0.805,0.369 1.696,0.366 2.662,-0.019 0.974,-0.388 1.573,-0.984 1.781,-1.77 0.209,-0.761 0.021,-1.6 -0.539,-2.498 C 22.615,10.082 21.966,9.5391 21.205,9.293 20.837,9.1763 20.458,9.1327 20.066,9.1641 Z M 12.801,11.93 c -0.406,0.026 -0.834,0.136 -1.287,0.33 -0.901,0.385 -1.5317,0.944 -1.9066,1.691 -0.3812,0.77 -0.4586,1.656 -0.2148,2.684 0.2555,1.077 0.7514,1.85 1.4944,2.287 0.775,0.449 1.693,0.473 2.744,0.057 1.068,-0.424 1.793,-1.104 2.152,-2.02 0.354,-0.887 0.308,-1.868 -0.113,-2.918 -0.398,-0.994 -0.972,-1.631 -1.719,-1.936 -0.361,-0.144 -0.744,-0.201 -1.15,-0.175 z"
     id="circle7056" />
  <circle
     style="opacity:0.6;fill:none;stroke:#242424;stroke-width:0.94845003"
     r="20.525999"
     cx="24"
     cy="24"
     id="path3755-9" />
</svg>
