<?xml version="1.0" encoding="UTF-8" standalone="no"?>
<!-- Created with Inkscape (http://www.inkscape.org/) -->
<svg xmlns:svg="http://www.w3.org/2000/svg" xmlns="http://www.w3.org/2000/svg" xmlns:xlink="http://www.w3.org/1999/xlink" version="1.0" width="48" height="48" id="svg1337">
  <defs id="defs3">
    <linearGradient id="linearGradient8906">
      <stop style="stop-color:#2e3436;stop-opacity:1" offset="0" id="stop8908"/>
      <stop style="stop-color:#2e3436;stop-opacity:0" offset="1" id="stop8910"/>
    </linearGradient>
    <linearGradient id="linearGradient8872">
      <stop style="stop-color:#ef2929;stop-opacity:1" offset="0" id="stop8874"/>
      <stop style="stop-color:#c00;stop-opacity:1" offset="1" id="stop8876"/>
    </linearGradient>
    <linearGradient id="linearGradient8794">
      <stop style="stop-color:#eeeeec;stop-opacity:1" offset="0" id="stop8796"/>
      <stop style="stop-color:#eeeeec;stop-opacity:0" offset="1" id="stop8798"/>
    </linearGradient>
    <linearGradient id="linearGradient8784">
      <stop style="stop-color:#729fcf;stop-opacity:1" offset="0" id="stop8786"/>
      <stop style="stop-color:#3465a4;stop-opacity:1" offset="1" id="stop8788"/>
    </linearGradient>
    <linearGradient id="linearGradient8711">
      <stop style="stop-color:#2e3436;stop-opacity:1" offset="0" id="stop8713"/>
      <stop style="stop-color:#2e3436;stop-opacity:0" offset="1" id="stop8715"/>
    </linearGradient>
    <radialGradient cx="605.71429" cy="486.64789" r="117.14286" fx="605.71429" fy="486.64789" id="radialGradient9289" xlink:href="#linearGradient5060" gradientUnits="userSpaceOnUse" gradientTransform="matrix(-2.77439, 0, 0, 1.96971, 112.762, -872.885)"/>
    <linearGradient id="linearGradient5060">
      <stop style="stop-color:black;stop-opacity:1" offset="0" id="stop5062"/>
      <stop style="stop-color:black;stop-opacity:0" offset="1" id="stop5064"/>
    </linearGradient>
    <radialGradient cx="605.71429" cy="486.64789" r="117.14286" fx="605.71429" fy="486.64789" id="radialGradient9287" xlink:href="#linearGradient5060" gradientUnits="userSpaceOnUse" gradientTransform="matrix(2.77439, 0, 0, 1.96971, -1891.63, -872.885)"/>
    <linearGradient x1="302.85715" y1="366.64789" x2="302.85715" y2="609.50507" id="linearGradient9285" xlink:href="#linearGradient5048" gradientUnits="userSpaceOnUse" gradientTransform="matrix(2.77439, 0, 0, 1.96971, -1892.18, -872.885)"/>
    <linearGradient id="linearGradient8671">
      <stop style="stop-color:#ef2929;stop-opacity:1" offset="0" id="stop8673"/>
      <stop style="stop-color:#c00;stop-opacity:1" offset="1" id="stop8675"/>
    </linearGradient>
    <linearGradient id="linearGradient5301">
      <stop style="stop-color:white;stop-opacity:1" offset="0" id="stop5303"/>
      <stop style="stop-color:white;stop-opacity:0" offset="1" id="stop5305"/>
    </linearGradient>
    <linearGradient id="linearGradient4410">
      <stop style="stop-color:#eeeeec;stop-opacity:1" offset="0" id="stop4412"/>
      <stop style="stop-color:#babdb6;stop-opacity:1" offset="1" id="stop4414"/>
    </linearGradient>
    <linearGradient id="linearGradient5048">
      <stop style="stop-color:black;stop-opacity:0" offset="0" id="stop5050"/>
      <stop style="stop-color:black;stop-opacity:1" offset="0.5" id="stop5056"/>
      <stop style="stop-color:black;stop-opacity:0" offset="1" id="stop5052"/>
    </linearGradient>
    <linearGradient id="linearGradient4843">
      <stop style="stop-color:#ef2929;stop-opacity:1" offset="0" id="stop4845"/>
      <stop style="stop-color:#ef2929;stop-opacity:0" offset="1" id="stop4847"/>
    </linearGradient>
    <radialGradient cx="6.3499999" cy="26.064659" r="5.0500002" fx="6.3499999" fy="26.064659" id="radialGradient8281" xlink:href="#linearGradient4843" gradientUnits="userSpaceOnUse" gradientTransform="matrix(2.06748, 0, 0, 1, -6.77852, 0)"/>
    <linearGradient id="linearGradient4825">
      <stop style="stop-color:#729fcf;stop-opacity:1" offset="0" id="stop4827"/>
      <stop style="stop-color:#729fcf;stop-opacity:0" offset="1" id="stop4829"/>
    </linearGradient>
    <linearGradient x1="54.287079" y1="9.1136208" x2="68.843483" y2="38.118332" id="linearGradient6415" xlink:href="#linearGradient2296" gradientUnits="userSpaceOnUse" gradientTransform="matrix(0.885319, -0.013915, 0.0143534, 0.913231, -28.5369, 3.75266)"/>
    <linearGradient id="linearGradient3116">
      <stop style="stop-color:#e5e5e5;stop-opacity:1" offset="0" id="stop3118"/>
      <stop style="stop-color:#dfdfdf;stop-opacity:1" offset="1" id="stop3120"/>
    </linearGradient>
    <linearGradient x1="34.561821" y1="17.249048" x2="50.808903" y2="44.769524" id="linearGradient6413" xlink:href="#linearGradient3116" gradientUnits="userSpaceOnUse" gradientTransform="matrix(0.882464, 0, 0, 1.12323, 0.12316, -12.4941)"/>
    <linearGradient id="linearGradient5460">
      <stop style="stop-color:#e5e5e5;stop-opacity:1" offset="0" id="stop5462"/>
      <stop style="stop-color:#c8c8c8;stop-opacity:1" offset="1" id="stop5464"/>
    </linearGradient>
    <linearGradient x1="35.321308" y1="24.984463" x2="51.861248" y2="41.370472" id="linearGradient6411" xlink:href="#linearGradient5460" gradientUnits="userSpaceOnUse" gradientTransform="matrix(0.893089, 0, 0, 1.11971, 0.123711, -12.5723)"/>
    <linearGradient id="linearGradient2296">
      <stop style="stop-color:white;stop-opacity:1" offset="0" id="stop2298"/>
      <stop style="stop-color:white;stop-opacity:0" offset="1" id="stop2300"/>
    </linearGradient>
    <linearGradient x1="48" y1="18.534204" x2="78" y2="18.534204" id="linearGradient6409" xlink:href="#linearGradient2296" gradientUnits="userSpaceOnUse" gradientTransform="matrix(0.969324, 0.303467, -0.313034, 0.999884, -26.5135, -28.8776)"/>
    <linearGradient id="linearGradient1654">
      <stop style="stop-color:#73d216;stop-opacity:1" offset="0" id="stop1656"/>
      <stop style="stop-color:#4e9a06;stop-opacity:1" offset="1" id="stop1658"/>
    </linearGradient>
    <linearGradient id="linearGradient4542">
      <stop style="stop-color:black;stop-opacity:1" offset="0" id="stop4544"/>
      <stop style="stop-color:black;stop-opacity:0" offset="1" id="stop4546"/>
    </linearGradient>
    <radialGradient cx="24.306795" cy="42.07798" r="15.821514" fx="24.306795" fy="42.07798" id="radialGradient4548" xlink:href="#linearGradient4542" gradientUnits="userSpaceOnUse" gradientTransform="matrix(1, 0, 0, 0.284916, 0, 30.0893)"/>
    <linearGradient id="linearGradient2736">
      <stop style="stop-color:#5a7aa4;stop-opacity:1" offset="0" id="stop2738"/>
      <stop style="stop-color:#3b516c;stop-opacity:1" offset="1" id="stop2740"/>
    </linearGradient>
    <linearGradient id="linearGradient6976">
      <stop style="stop-color:#c1c3ae;stop-opacity:1" offset="0" id="stop6978"/>
      <stop style="stop-color:#818373;stop-opacity:1" offset="1" id="stop6980"/>
    </linearGradient>
    <linearGradient x1="5.9931116" y1="21.552935" x2="27.987148" y2="50.644867" id="linearGradient6982" xlink:href="#linearGradient6976" gradientUnits="userSpaceOnUse" gradientTransform="matrix(1.44409, 0, 0, 0.692475, -0.875, -0.75)"/>
    <linearGradient x1="6.5210195" y1="35.292294" x2="6.5972648" y2="37.514896" id="linearGradient2748" xlink:href="#linearGradient2736" gradientUnits="userSpaceOnUse" gradientTransform="matrix(-1.0942, 0, 0, 0.913907, 49.421, -0.75)"/>
    <linearGradient x1="6.5210195" y1="35.292294" x2="6.5972648" y2="37.514896" id="linearGradient2754" xlink:href="#linearGradient2736" gradientUnits="userSpaceOnUse" gradientTransform="matrix(-1.0942, 0, 0, 0.913907, 49.4762, -0.893632)"/>
    <linearGradient x1="6.5210195" y1="35.292294" x2="6.5972648" y2="37.514896" id="linearGradient2760" xlink:href="#linearGradient2736" gradientUnits="userSpaceOnUse" gradientTransform="matrix(1.0942, 0, 0, 0.913907, -2.05174, -0.893632)"/>
    <linearGradient x1="6.5210195" y1="35.292294" x2="6.5972648" y2="37.514896" id="linearGradient2764" xlink:href="#linearGradient2736" gradientUnits="userSpaceOnUse" gradientTransform="matrix(-1.0942, 0, 0, 0.913907, 49.421, -0.75)"/>
    <linearGradient x1="5.9931116" y1="21.552935" x2="27.987148" y2="50.644867" id="linearGradient3931" xlink:href="#linearGradient6976" gradientUnits="userSpaceOnUse" gradientTransform="matrix(1.44409, 0, 0, 0.692475, -0.875, -0.75)"/>
    <linearGradient x1="5.9931116" y1="21.552935" x2="27.987148" y2="50.644867" id="linearGradient1651" xlink:href="#linearGradient1654" gradientUnits="userSpaceOnUse" gradientTransform="matrix(1.40594, 0, 0, 0.701004, 46.245, -2.08623)"/>
    <linearGradient x1="48" y1="18.534204" x2="78" y2="18.534204" id="linearGradient4360" xlink:href="#linearGradient2296" gradientUnits="userSpaceOnUse" gradientTransform="matrix(0.969324, 0.303467, -0.313034, 0.999884, -26.5135, -28.8776)"/>
    <linearGradient x1="35.321308" y1="24.984463" x2="51.861248" y2="41.370472" id="linearGradient4362" xlink:href="#linearGradient5460" gradientUnits="userSpaceOnUse" gradientTransform="matrix(0.318744, 0, 0, 0.429947, 18.6281, 21.1854)"/>
    <linearGradient x1="34.561821" y1="17.249048" x2="50.808903" y2="44.769524" id="linearGradient4364" xlink:href="#linearGradient3116" gradientUnits="userSpaceOnUse" gradientTransform="matrix(0.27867, 0, 0, 0.393087, 19.9411, 22.1533)"/>
    <linearGradient x1="54.287079" y1="9.1136208" x2="68.843483" y2="38.118332" id="linearGradient4366" xlink:href="#linearGradient2296" gradientUnits="userSpaceOnUse" gradientTransform="matrix(0.380399, -0.00597892, 0.0061673, 0.392393, 6.45214, 21.7702)"/>
    <linearGradient x1="48" y1="18.534204" x2="78" y2="18.534204" id="linearGradient4368" xlink:href="#linearGradient2296" gradientUnits="userSpaceOnUse" gradientTransform="matrix(0.969324, 0.303467, -0.313034, 0.999884, -26.5135, -28.8776)"/>
    <linearGradient x1="35.321308" y1="24.984463" x2="51.861248" y2="41.370472" id="linearGradient4370" xlink:href="#linearGradient5460" gradientUnits="userSpaceOnUse" gradientTransform="matrix(0.318744, 0, 0, 0.429947, 31.6459, 21.1536)"/>
    <linearGradient x1="34.561821" y1="17.249048" x2="50.808903" y2="44.769524" id="linearGradient4372" xlink:href="#linearGradient3116" gradientUnits="userSpaceOnUse" gradientTransform="matrix(0.27867, 0, 0, 0.393087, 32.9589, 22.1216)"/>
    <linearGradient x1="54.287079" y1="9.1136208" x2="68.843483" y2="38.118332" id="linearGradient4374" xlink:href="#linearGradient2296" gradientUnits="userSpaceOnUse" gradientTransform="matrix(0.380399, -0.00597892, 0.0061673, 0.392393, 19.47, 21.7516)"/>
    <radialGradient cx="6.3499999" cy="26.064659" r="5.0500002" fx="6.3499999" fy="26.064659" id="radialGradient5481" xlink:href="#linearGradient4825" gradientUnits="userSpaceOnUse" gradientTransform="matrix(2.06748, 0, 0, 1, -6.77852, 0)"/>
    <radialGradient cx="6.3499999" cy="26.064659" r="5.0500002" fx="6.3499999" fy="26.064659" id="radialGradient6253" xlink:href="#linearGradient4825" gradientUnits="userSpaceOnUse" gradientTransform="matrix(2.06748, 0, 0, 1, -6.77852, 0)"/>
    <linearGradient x1="54.287079" y1="9.1136208" x2="68.843483" y2="38.118332" id="linearGradient5899" xlink:href="#linearGradient2296" gradientUnits="userSpaceOnUse" gradientTransform="matrix(0.415362, -0.111345, 0.114855, 0.428458, 41.321, 27.3787)"/>
    <linearGradient x1="34.561821" y1="17.249048" x2="50.808903" y2="44.769524" id="linearGradient5903" xlink:href="#linearGradient3116" gradientUnits="userSpaceOnUse" gradientTransform="matrix(0.27867, 2.05659e-07, 9.08009e-08, 0.393087, 48.6338, 37.9912)"/>
    <linearGradient x1="35.321308" y1="24.984463" x2="51.861248" y2="41.370472" id="linearGradient5906" xlink:href="#linearGradient5460" gradientUnits="userSpaceOnUse" gradientTransform="matrix(0.318744, -9.50415e-08, 3.92548e-08, 0.429947, 47.1236, 37.0834)"/>
    <linearGradient x1="48" y1="18.534204" x2="78" y2="18.534204" id="linearGradient6806" xlink:href="#linearGradient2296" gradientUnits="userSpaceOnUse" gradientTransform="matrix(0.969324, 0.303467, -0.313034, 0.999884, -26.5135, -28.8776)"/>
    <linearGradient x1="54.287079" y1="9.1136208" x2="68.843483" y2="38.118332" id="linearGradient6815" xlink:href="#linearGradient2296" gradientUnits="userSpaceOnUse" gradientTransform="matrix(0.368985, 0.0926793, -0.0956016, 0.380619, 59.4048, 14.6666)"/>
    <linearGradient x1="34.561821" y1="17.249048" x2="50.808903" y2="44.769524" id="linearGradient6819" xlink:href="#linearGradient3116" gradientUnits="userSpaceOnUse" gradientTransform="matrix(0.27867, 0, 0, 0.393087, 74.8264, -0.747033)"/>
    <linearGradient x1="35.321308" y1="24.984463" x2="51.861248" y2="41.370472" id="linearGradient6822" xlink:href="#linearGradient5460" gradientUnits="userSpaceOnUse" gradientTransform="matrix(0.318744, 0, 0, 0.429947, 73.3324, -1.84861)"/>
    <linearGradient x1="19.028915" y1="3.0671768" x2="46.3447" y2="39.187454" id="linearGradient7696" xlink:href="#linearGradient5301" gradientUnits="userSpaceOnUse" gradientTransform="translate(-18.0032, 4.99783)"/>
    <linearGradient x1="54.287079" y1="9.1136208" x2="68.843483" y2="38.118332" id="linearGradient7698" xlink:href="#linearGradient2296" gradientUnits="userSpaceOnUse" gradientTransform="matrix(0.885319, -0.0140964, 0.0143534, 0.925138, -40.487, 3.23709)"/>
    <linearGradient x1="48" y1="18.534204" x2="78" y2="18.534204" id="linearGradient7700" xlink:href="#linearGradient2296" gradientUnits="userSpaceOnUse" gradientTransform="matrix(0.969324, 0.303467, -0.313034, 0.999884, -26.5135, -28.8776)"/>
    <linearGradient x1="22.803938" y1="10.039148" x2="34.594166" y2="40.876537" id="linearGradient7702" xlink:href="#linearGradient4410" gradientUnits="userSpaceOnUse" gradientTransform="matrix(0.77853, 0, 0, 0.976082, 3.17741, 3.94455)"/>
    <linearGradient x1="19.028915" y1="3.0671768" x2="46.3447" y2="39.187454" id="linearGradient7704" xlink:href="#linearGradient5301" gradientUnits="userSpaceOnUse" gradientTransform="translate(-0.928137, 7.93661)"/>
    <linearGradient x1="54.287079" y1="9.1136208" x2="68.843483" y2="38.118332" id="linearGradient7706" xlink:href="#linearGradient2296" gradientUnits="userSpaceOnUse" gradientTransform="matrix(0.885319, -0.0140964, 0.0143534, 0.925138, -23.4149, 6.19143)"/>
    <radialGradient cx="6.3499999" cy="26.064659" r="5.0500002" fx="6.3499999" fy="26.064659" id="radialGradient7730" xlink:href="#linearGradient4825" gradientUnits="userSpaceOnUse" gradientTransform="matrix(2.06748, 0, 0, 1, -6.77852, 0)"/>
    <radialGradient cx="6.3499999" cy="26.064659" r="5.0500002" fx="6.3499999" fy="26.064659" id="radialGradient7742" xlink:href="#linearGradient4825" gradientUnits="userSpaceOnUse" gradientTransform="matrix(2.06748, 0, 0, 1, -6.77852, 0)"/>
    <radialGradient cx="6.3499999" cy="26.064659" r="5.0500002" fx="6.3499999" fy="26.064659" id="radialGradient7754" xlink:href="#linearGradient4825" gradientUnits="userSpaceOnUse" gradientTransform="matrix(2.06748, 0, 0, 1, -6.77852, 0)"/>
    <radialGradient cx="4.2509489" cy="30.630598" r="5.6209993" fx="4.2509489" fy="30.630598" id="radialGradient8689" xlink:href="#linearGradient8671" gradientUnits="userSpaceOnUse" gradientTransform="matrix(0.668235, -1.41974, 0.303816, 0.728046, -7.72584, 12.2971)"/>
    <radialGradient cx="10.18647" cy="43.492195" r="6.7909799" fx="10.18647" fy="43.492195" id="radialGradient8717" xlink:href="#linearGradient8711" gradientUnits="userSpaceOnUse" gradientTransform="matrix(1, 0, 0, 0.284483, 0, 31.1194)"/>
    <linearGradient x1="22.803938" y1="10.039148" x2="34.594166" y2="40.876537" id="linearGradient8747" xlink:href="#linearGradient4410" gradientUnits="userSpaceOnUse" gradientTransform="matrix(0.77853, 0, 0, 0.976082, -13.8976, 1.0063)"/>
    <linearGradient x1="54.287079" y1="9.1136208" x2="68.843483" y2="38.118332" id="linearGradient8757" xlink:href="#linearGradient2296" gradientUnits="userSpaceOnUse" gradientTransform="matrix(0.885319, -0.0140964, 0.0143534, 0.925138, -34.487, -1.76292)"/>
    <linearGradient x1="19.028915" y1="3.0671768" x2="46.3447" y2="39.187454" id="linearGradient8763" xlink:href="#linearGradient5301" gradientUnits="userSpaceOnUse" gradientTransform="translate(-12.0081, -0.00764596)"/>
    <linearGradient x1="22.803938" y1="10.039148" x2="34.594166" y2="40.876537" id="linearGradient8766" xlink:href="#linearGradient4410" gradientUnits="userSpaceOnUse" gradientTransform="matrix(0.77853, 0, 0, 0.976082, -7.90232, -3.99937)"/>
    <radialGradient cx="10.18647" cy="43.492195" r="6.7909799" fx="10.18647" fy="43.492195" id="radialGradient8768" xlink:href="#linearGradient8711" gradientUnits="userSpaceOnUse" gradientTransform="matrix(1, 0, 0, 0.284483, 0, 31.1194)"/>
    <radialGradient cx="10.18647" cy="43.492195" r="6.7909799" fx="10.18647" fy="43.492195" id="radialGradient8772" xlink:href="#linearGradient8711" gradientUnits="userSpaceOnUse" gradientTransform="matrix(1, 0, 0, 0.284483, 0, 31.1194)"/>
    <radialGradient cx="11.767129" cy="22.75959" r="8.1852741" fx="11.767129" fy="22.75959" id="radialGradient8790" xlink:href="#linearGradient8784" gradientUnits="userSpaceOnUse" gradientTransform="matrix(1, 0, 0, 0.400816, 0, 15.4663)"/>
    <linearGradient x1="1.874016" y1="19.3608" x2="19.958267" y2="30.706417" id="linearGradient8800" xlink:href="#linearGradient8794" gradientUnits="userSpaceOnUse"/>
    <radialGradient cx="11.767129" cy="22.75959" r="8.1852741" fx="11.767129" fy="22.75959" id="radialGradient8812" xlink:href="#linearGradient8784" gradientUnits="userSpaceOnUse" gradientTransform="matrix(1, 0, 0, 0.400816, 0, 15.4663)"/>
    <linearGradient x1="1.874016" y1="19.3608" x2="19.958267" y2="30.706417" id="linearGradient8814" xlink:href="#linearGradient8794" gradientUnits="userSpaceOnUse"/>
    <radialGradient cx="11.767129" cy="22.75959" r="8.1852741" fx="11.767129" fy="22.75959" id="radialGradient8822" xlink:href="#linearGradient8784" gradientUnits="userSpaceOnUse" gradientTransform="matrix(1, 0, 0, 0.400816, 0, 15.4663)"/>
    <linearGradient x1="1.874016" y1="19.3608" x2="19.958267" y2="30.706417" id="linearGradient8824" xlink:href="#linearGradient8794" gradientUnits="userSpaceOnUse"/>
    <radialGradient cx="11.767129" cy="22.75959" r="8.1852741" fx="11.767129" fy="22.75959" id="radialGradient8832" xlink:href="#linearGradient8784" gradientUnits="userSpaceOnUse" gradientTransform="matrix(1, 0, 0, 0.400816, 0, 15.4663)"/>
    <linearGradient x1="1.874016" y1="19.3608" x2="19.958267" y2="30.706417" id="linearGradient8834" xlink:href="#linearGradient8794" gradientUnits="userSpaceOnUse"/>
    <radialGradient cx="11.767129" cy="22.75959" r="8.1852741" fx="11.767129" fy="22.75959" id="radialGradient8842" xlink:href="#linearGradient8784" gradientUnits="userSpaceOnUse" gradientTransform="matrix(1, 0, 0, 0.400816, 0, 15.4663)"/>
    <linearGradient x1="1.874016" y1="19.3608" x2="19.958267" y2="30.706417" id="linearGradient8844" xlink:href="#linearGradient8794" gradientUnits="userSpaceOnUse"/>
    <radialGradient cx="11.767129" cy="22.75959" r="8.1852741" fx="11.767129" fy="22.75959" id="radialGradient8852" xlink:href="#linearGradient8784" gradientUnits="userSpaceOnUse" gradientTransform="matrix(1, 0, 0, 0.400816, 0, 15.4663)"/>
    <linearGradient x1="1.874016" y1="19.3608" x2="19.958267" y2="30.706417" id="linearGradient8854" xlink:href="#linearGradient8794" gradientUnits="userSpaceOnUse"/>
    <radialGradient cx="11.767129" cy="22.75959" r="8.1852741" fx="11.767129" fy="22.75959" id="radialGradient8856" xlink:href="#linearGradient8784" gradientUnits="userSpaceOnUse" gradientTransform="matrix(1, 0, 0, 0.400816, 0, 15.4663)"/>
    <linearGradient x1="1.874016" y1="19.3608" x2="19.958267" y2="30.706417" id="linearGradient8858" xlink:href="#linearGradient8794" gradientUnits="userSpaceOnUse"/>
    <radialGradient cx="11.767129" cy="22.75959" r="8.1852741" fx="11.767129" fy="22.75959" id="radialGradient8866" xlink:href="#linearGradient8872" gradientUnits="userSpaceOnUse" gradientTransform="matrix(1, 0, 0, 0.400816, 0, 15.4663)"/>
    <linearGradient x1="1.874016" y1="19.3608" x2="19.958267" y2="30.706417" id="linearGradient8868" xlink:href="#linearGradient8794" gradientUnits="userSpaceOnUse"/>
    <radialGradient cx="11.767129" cy="22.75959" r="8.1852741" fx="11.767129" fy="22.75959" id="radialGradient8882" xlink:href="#linearGradient8872" gradientUnits="userSpaceOnUse" gradientTransform="matrix(1, 0, 0, 0.400816, 0, 15.4663)"/>
    <linearGradient x1="1.874016" y1="19.3608" x2="19.958267" y2="30.706417" id="linearGradient8884" xlink:href="#linearGradient8794" gradientUnits="userSpaceOnUse"/>
    <radialGradient cx="9.7012968" cy="13.698677" r="8.1852741" fx="9.7012968" fy="13.698677" id="radialGradient8888" xlink:href="#linearGradient8872" gradientUnits="userSpaceOnUse" gradientTransform="matrix(0.439363, -1.04738, 0.37963, 0.151993, -2.04313, 33.4541)"/>
    <linearGradient x1="-3.1980028" y1="29.035069" x2="21.253778" y2="27.710409" id="linearGradient8890" xlink:href="#linearGradient8794" gradientUnits="userSpaceOnUse"/>
    <radialGradient cx="11.767129" cy="22.75959" r="8.1852741" fx="11.767129" fy="22.75959" id="radialGradient8900" xlink:href="#linearGradient8784" gradientUnits="userSpaceOnUse" gradientTransform="matrix(1, 0, 0, 0.400816, 0, 15.4663)"/>
    <linearGradient x1="1.874016" y1="19.3608" x2="19.958267" y2="30.706417" id="linearGradient8902" xlink:href="#linearGradient8794" gradientUnits="userSpaceOnUse"/>
    <radialGradient cx="11.767129" cy="25.812229" r="7.6852746" fx="11.767129" fy="25.812229" id="radialGradient8912" xlink:href="#linearGradient8906" gradientUnits="userSpaceOnUse" gradientTransform="matrix(1, 0, 0, 0.361833, 0, 16.4725)"/>
    <radialGradient cx="16.352091" cy="25.812265" r="7.6852746" fx="16.352091" fy="25.812265" id="radialGradient8916" xlink:href="#linearGradient8906" gradientUnits="userSpaceOnUse" gradientTransform="matrix(1.35522, -3.49473e-08, 1.21977e-08, 0.361833, -5.8086, 16.4725)"/>
  </defs>
  <g id="layer1">
    <path d="M 19.452404 25.812229 A 7.6852746 2.7807896 0 1 1  4.0818543,25.812229 A 7.6852746 2.7807896 0 1 1  19.452404 25.812229 z" transform="matrix(0.94356, 0, 0, 1.07883, 12.6455, 15.153)" style="fill:url(#radialGradient8916);fill-opacity:1;stroke:none;stroke-width:1;stroke-linecap:round;stroke-linejoin:miter;stroke-miterlimit:4;stroke-dasharray:none;stroke-opacity:1" id="path8914"/>
    <path d="M 19.452404 25.812229 A 7.6852746 2.7807896 0 1 1  4.0818543,25.812229 A 7.6852746 2.7807896 0 1 1  19.452404 25.812229 z" transform="matrix(1.09343, 0, 0, 1.07883, -1.2698, 15.153)" style="fill:url(#radialGradient8912);fill-opacity:1;stroke:none;stroke-width:1;stroke-linecap:round;stroke-linejoin:miter;stroke-miterlimit:4;stroke-dasharray:none;stroke-opacity:1" id="path8896"/>
    <rect width="27.045403" height="34.025928" rx="3.0304794" ry="2.8284459" x="6.4605894" y="3.4910443" transform="matrix(1, 0.000944416, -0.000944416, 1, 0, 0)" style="fill:url(#linearGradient8766);fill-opacity:1;fill-rule:nonzero;stroke:#888a85;stroke-width:1.00000274;stroke-linecap:round;stroke-linejoin:miter;stroke-miterlimit:4;stroke-dasharray:none;stroke-dashoffset:0;stroke-opacity:1" id="rect7640"/>
    <rect width="24.947441" height="31.890478" rx="2.2349813" ry="1.9445618" x="7.5514894" y="4.5153241" transform="matrix(1, 0.000912403, -0.000975465, 1, 0, 0)" style="fill:none;fill-opacity:1;fill-rule:nonzero;stroke:url(#linearGradient8763);stroke-width:1.00000226;stroke-linecap:round;stroke-linejoin:miter;stroke-miterlimit:4;stroke-dasharray:none;stroke-dashoffset:0;stroke-opacity:1" id="rect7642"/>
    <text x="9.1140671" y="14.125492" transform="scale(1.00216, 0.997843)" style="font-size:10.0894928px;font-style:normal;font-weight:normal;fill:#c00;fill-opacity:1;stroke:none;stroke-width:1px;stroke-linecap:butt;stroke-linejoin:miter;stroke-opacity:1;font-family:Bitstream Vera Sans" id="text7664" xml:space="preserve"><tspan x="9.1140671" y="14.125492" style="font-weight:bold;fill:#c00;fill-opacity:1;font-family:Segoe UI" id="tspan7666">K</tspan></text>
    <path d="M 19.857014,16.206313 C 22.434468,13.550997 25.958353,16.016668 25.927632,18.542369 C 25.899547,20.851298 24.198405,21.95185 19.920732,26.045662 C 15.467386,22.211149 13.896935,21.325215 13.928289,18.58574 C 13.959931,15.749968 16.989224,13.631009 19.857014,16.206313 z " style="fill:#c00;fill-opacity:1;fill-rule:evenodd;stroke:none;stroke-width:0.99999988;stroke-linecap:butt;stroke-linejoin:miter;stroke-miterlimit:4;stroke-dasharray:none;stroke-opacity:1" id="path920"/>
    <path d="M 8.1078421,23.222402 C 19.365673,26.723772 22.494067,17.614848 32.364938,22.528756 L 32.332095,6.797686 C 32.338669,5.907745 31.928407,5.315533 30.65778,5.333284 L 9.8220751,5.045666 C 8.6259321,5.043444 7.8818451,6.098363 7.9300401,6.892873 L 8.1078421,23.222402 z " style="opacity:0.51648356;fill:url(#linearGradient8757);fill-opacity:1;fill-rule:evenodd;stroke:none;stroke-width:0.25pt;stroke-linecap:butt;stroke-linejoin:miter;stroke-opacity:1" id="path7650"/>
    <text x="-30.556555" y="-27.054598" transform="scale(-1.00216, -0.997843)" style="font-size:10.08948135px;font-style:normal;font-weight:normal;fill:#c00;fill-opacity:1;stroke:none;stroke-width:1px;stroke-linecap:butt;stroke-linejoin:miter;stroke-opacity:1;font-family:Bitstream Vera Sans" id="text7668" xml:space="preserve"><tspan x="-30.556555" y="-27.054598" style="font-weight:bold;fill:#c00;fill-opacity:1;font-family:Segoe UI" id="tspan7670">K</tspan></text>
    <g transform="matrix(0.0137902, 0, 0, 0.0106881, 43.2654, 39.4979)" style="display:inline" id="g9277">
      <rect width="1339.6335" height="478.35718" x="-1559.2523" y="-150.69685" style="opacity:0.40206185;color:black;fill:url(#linearGradient9285);fill-opacity:1;fill-rule:nonzero;stroke:none;stroke-width:1;stroke-linecap:round;stroke-linejoin:miter;marker:none;marker-start:none;marker-mid:none;marker-end:none;stroke-miterlimit:4;stroke-dasharray:none;stroke-dashoffset:0;stroke-opacity:1;visibility:visible;display:inline;overflow:visible" id="rect9279"/>
      <path d="M -219.61876,-150.68038 C -219.61876,-150.68038 -219.61876,327.65041 -219.61876,327.65041 C -76.744594,328.55086 125.78146,220.48075 125.78138,88.454235 C 125.78138,-43.572302 -33.655436,-150.68036 -219.61876,-150.68038 z " style="opacity:0.40206185;color:black;fill:url(#radialGradient9287);fill-opacity:1;fill-rule:nonzero;stroke:none;stroke-width:1;stroke-linecap:round;stroke-linejoin:miter;marker:none;marker-start:none;marker-mid:none;marker-end:none;stroke-miterlimit:4;stroke-dasharray:none;stroke-dashoffset:0;stroke-opacity:1;visibility:visible;display:inline;overflow:visible" id="path9281"/>
      <path d="M -1559.2523,-150.68038 C -1559.2523,-150.68038 -1559.2523,327.65041 -1559.2523,327.65041 C -1702.1265,328.55086 -1904.6525,220.48075 -1904.6525,88.454235 C -1904.6525,-43.572302 -1745.2157,-150.68036 -1559.2523,-150.68038 z " style="opacity:0.40206185;color:black;fill:url(#radialGradient9289);fill-opacity:1;fill-rule:nonzero;stroke:none;stroke-width:1;stroke-linecap:round;stroke-linejoin:miter;marker:none;marker-start:none;marker-mid:none;marker-end:none;stroke-miterlimit:4;stroke-dasharray:none;stroke-dashoffset:0;stroke-opacity:1;visibility:visible;display:inline;overflow:visible" id="path9283"/>
    </g>
    <g transform="translate(-0.0721364, -4.95436)" id="g7672">
      <g transform="matrix(0.842703, -0.223067, 0.223067, 0.842703, 4.82121, 20.9754)" style="stroke-width:1.14714873;stroke-miterlimit:4;stroke-dasharray:none" id="g3042">
        <path d="M 11.249051,13.68551 C 22.267512,21.50188 31.322859,13.953532 40.328776,22.789518 L 45.504535,4.7780871 L 44.31062,2.2533867 L 19.506897,-5.5996203 L 16.789787,-4.2944189 L 11.249051,13.68551 z " style="opacity:0.51648356;fill:url(#linearGradient7700);fill-opacity:1;fill-rule:evenodd;stroke:none;stroke-width:1.14714873;stroke-linecap:butt;stroke-linejoin:miter;stroke-miterlimit:4;stroke-dasharray:none;stroke-opacity:1" id="path3055"/>
      </g>
      <rect width="27.045334" height="34.025837" rx="3.0304708" ry="2.8284388" x="17.540272" y="11.434937" transform="matrix(1, 0.000944419, -0.000944419, 1, 0, 0)" style="fill:url(#linearGradient7702);fill-opacity:1;fill-rule:nonzero;stroke:#888a85;stroke-width:0.99999994;stroke-linecap:round;stroke-linejoin:miter;stroke-miterlimit:4;stroke-dasharray:none;stroke-dashoffset:0;stroke-opacity:1" id="rect7756"/>
      <rect width="24.947393" height="31.890402" rx="2.2349765" ry="1.9445571" x="18.631418" y="12.459572" transform="matrix(1, 0.000912405, -0.000975467, 1, 0, 0)" style="fill:none;fill-opacity:1;fill-rule:nonzero;stroke:url(#linearGradient7704);stroke-width:0.99999994;stroke-linecap:round;stroke-linejoin:miter;stroke-miterlimit:4;stroke-dasharray:none;stroke-dashoffset:0;stroke-opacity:1" id="rect7758"/>
      <path d="M 30.99985,22 C 26.546505,25.834513 24.968497,27.799326 24.999851,30.538801 C 25.02826,33.0848 28.954411,34.206529 30.031101,31.006346 C 30.138106,33.113325 29.125125,33.116887 29.125125,33.939804 C 29.791792,33.939804 32.406459,33.910759 33.073126,33.910759 C 33.073126,33.150342 31.888426,33.13132 32.066768,30.979836 C 33.551879,34.503109 37.026384,32.64015 36.999849,30.458628 C 36.971763,28.149699 35.277522,26.093812 30.99985,22 z " style="fill:#2e3436;fill-opacity:1;fill-rule:evenodd;stroke:none;stroke-width:0.99999988;stroke-linecap:butt;stroke-linejoin:miter;stroke-miterlimit:4;stroke-dasharray:none;stroke-opacity:1" id="path7626"/>
      <a transform="translate(8.02943, 10)" id="a7622">
        <path d="M 16.970567,8.7636917 C 16.970562,9.8027519 16.728837,10.59828 16.24539,11.150279 C 15.765545,11.702279 15.069232,11.978278 14.15645,11.978279 C 13.748763,11.978278 13.371744,11.907926 13.025392,11.76722 L 13.025392,9.5922584 C 13.324842,9.8195535 13.660371,9.9332005 14.03198,9.9331995 C 14.829311,9.9332005 14.998606,9.3415154 14.998608,8.1581409 L 14.998608,4.9999995 L 16.970567,4.9999995 L 16.970567,8.7636917" style="font-size:33.24986649px;font-style:normal;font-weight:normal;fill:#2e3436;fill-opacity:1;stroke:none;stroke-width:1px;stroke-linecap:butt;stroke-linejoin:miter;stroke-opacity:1;font-family:Bitstream Vera Sans" id="path7624"/>
      </a>
      <path d="M 19.18001,31.17674 C 30.437842,34.67811 33.566236,25.569186 43.437107,30.483094 L 43.404264,14.752024 C 43.410838,13.862083 43.000576,13.269871 41.729949,13.287622 L 20.894243,13.000004 C 19.6981,12.997782 18.954013,14.052701 19.002208,14.847211 L 19.18001,31.17674 z " style="opacity:0.51648356;fill:url(#linearGradient7706);fill-opacity:1;fill-rule:evenodd;stroke:none;stroke-width:0.25pt;stroke-linecap:butt;stroke-linejoin:miter;stroke-opacity:1" id="path7604"/>
      <a transform="matrix(-1, 0, 0, -1, 54.0254, 46.9783)" id="a7632">
        <path d="M 16.970567,8.7636917 C 16.970562,9.8027519 16.728837,10.59828 16.24539,11.150279 C 15.765545,11.702279 15.069232,11.978278 14.15645,11.978279 C 13.748763,11.978278 13.371744,11.907926 13.025392,11.76722 L 13.025392,9.5922584 C 13.324842,9.8195535 13.660371,9.9332005 14.03198,9.9331995 C 14.829311,9.9332005 14.998606,9.3415154 14.998608,8.1581409 L 14.998608,4.9999995 L 16.970567,4.9999995 L 16.970567,8.7636917" style="font-size:33.24986649px;font-style:normal;font-weight:normal;fill:#2e3436;fill-opacity:1;stroke:none;stroke-width:1px;stroke-linecap:butt;stroke-linejoin:miter;stroke-opacity:1;font-family:Bitstream Vera Sans" id="path7634"/>
      </a>
    </g>
    <g transform="translate(0.0435273, 14.9348)" id="g8806">
      <path d="M 19.452404 25.812229 A 7.6852746 2.7807896 0 1 1  4.0818543,25.812229 A 7.6852746 2.7807896 0 1 1  19.452404 25.812229 z" transform="matrix(1.02837, 0, 0, 1.05263, -0.567991, -0.658192)" style="opacity:1;fill:url(#radialGradient8812);fill-opacity:1;stroke:#204a87;stroke-width:1;stroke-linecap:round;stroke-linejoin:miter;stroke-miterlimit:4;stroke-dasharray:none;stroke-opacity:1" id="path8808"/>
      <path d="M 18.313845 25.812229 A 6.5467157 1.8909374 0 1 1  5.2204132,25.812229 A 6.5467157 1.8909374 0 1 1  18.313845 25.812229 z" transform="matrix(1.02837, 0, 0, 1.05263, -0.567991, -0.658192)" style="opacity:1;fill:none;fill-opacity:1;stroke:url(#linearGradient8814);stroke-width:1;stroke-linecap:round;stroke-linejoin:miter;stroke-miterlimit:4;stroke-dasharray:none;stroke-opacity:1" id="path8810"/>
    </g>
    <g transform="translate(0.0435273, 12.9348)" id="g8816">
      <path d="M 19.452404 25.812229 A 7.6852746 2.7807896 0 1 1  4.0818543,25.812229 A 7.6852746 2.7807896 0 1 1  19.452404 25.812229 z" transform="matrix(1.02837, 0, 0, 1.05263, -0.567991, -0.658192)" style="opacity:1;fill:url(#radialGradient8822);fill-opacity:1;stroke:#204a87;stroke-width:1;stroke-linecap:round;stroke-linejoin:miter;stroke-miterlimit:4;stroke-dasharray:none;stroke-opacity:1" id="path8818"/>
      <path d="M 18.313845 25.812229 A 6.5467157 1.8909374 0 1 1  5.2204132,25.812229 A 6.5467157 1.8909374 0 1 1  18.313845 25.812229 z" transform="matrix(1.02837, 0, 0, 1.05263, -0.567991, -0.658192)" style="opacity:1;fill:none;fill-opacity:1;stroke:url(#linearGradient8824);stroke-width:1;stroke-linecap:round;stroke-linejoin:miter;stroke-miterlimit:4;stroke-dasharray:none;stroke-opacity:1" id="path8820"/>
    </g>
    <g transform="translate(-0.109447, 11.04)" id="g8826">
      <path d="M 19.452404 25.812229 A 7.6852746 2.7807896 0 1 1  4.0818543,25.812229 A 7.6852746 2.7807896 0 1 1  19.452404 25.812229 z" transform="matrix(1.02837, 0, 0, 1.05263, -0.567991, -0.658192)" style="opacity:1;fill:url(#radialGradient8832);fill-opacity:1;stroke:#204a87;stroke-width:1;stroke-linecap:round;stroke-linejoin:miter;stroke-miterlimit:4;stroke-dasharray:none;stroke-opacity:1" id="path8828"/>
      <path d="M 18.313845 25.812229 A 6.5467157 1.8909374 0 1 1  5.2204132,25.812229 A 6.5467157 1.8909374 0 1 1  18.313845 25.812229 z" transform="matrix(1.02837, 0, 0, 1.05263, -0.567991, -0.658192)" style="opacity:1;fill:none;fill-opacity:1;stroke:url(#linearGradient8834);stroke-width:1;stroke-linecap:round;stroke-linejoin:miter;stroke-miterlimit:4;stroke-dasharray:none;stroke-opacity:1" id="path8830"/>
    </g>
    <g transform="translate(-0.109447, 9.04005)" id="g8836">
      <path d="M 19.452404 25.812229 A 7.6852746 2.7807896 0 1 1  4.0818543,25.812229 A 7.6852746 2.7807896 0 1 1  19.452404 25.812229 z" transform="matrix(1.02837, 0, 0, 1.05263, -0.567991, -0.658192)" style="opacity:1;fill:url(#radialGradient8842);fill-opacity:1;stroke:#204a87;stroke-width:1;stroke-linecap:round;stroke-linejoin:miter;stroke-miterlimit:4;stroke-dasharray:none;stroke-opacity:1" id="path8838"/>
      <path d="M 18.313845 25.812229 A 6.5467157 1.8909374 0 1 1  5.2204132,25.812229 A 6.5467157 1.8909374 0 1 1  18.313845 25.812229 z" transform="matrix(1.02837, 0, 0, 1.05263, -0.567991, -0.658192)" style="opacity:1;fill:none;fill-opacity:1;stroke:url(#linearGradient8844);stroke-width:1;stroke-linecap:round;stroke-linejoin:miter;stroke-miterlimit:4;stroke-dasharray:none;stroke-opacity:1" id="path8840"/>
    </g>
    <g transform="translate(-0.109447, 7.04005)" id="g8846">
      <path d="M 19.452404 25.812229 A 7.6852746 2.7807896 0 1 1  4.0818543,25.812229 A 7.6852746 2.7807896 0 1 1  19.452404 25.812229 z" transform="matrix(1.02837, 0, 0, 1.05263, -0.567991, -0.658192)" style="opacity:1;fill:url(#radialGradient8852);fill-opacity:1;stroke:#204a87;stroke-width:1;stroke-linecap:round;stroke-linejoin:miter;stroke-miterlimit:4;stroke-dasharray:none;stroke-opacity:1" id="path8848"/>
      <path d="M 18.313845 25.812229 A 6.5467157 1.8909374 0 1 1  5.2204132,25.812229 A 6.5467157 1.8909374 0 1 1  18.313845 25.812229 z" transform="matrix(1.02837, 0, 0, 1.05263, -0.567991, -0.658192)" style="opacity:1;fill:none;fill-opacity:1;stroke:url(#linearGradient8854);stroke-width:1;stroke-linecap:round;stroke-linejoin:miter;stroke-miterlimit:4;stroke-dasharray:none;stroke-opacity:1" id="path8850"/>
    </g>
    <g transform="translate(0.0435273, 4.93478)" id="g8802">
      <path d="M 19.452404 25.812229 A 7.6852746 2.7807896 0 1 1  4.0818543,25.812229 A 7.6852746 2.7807896 0 1 1  19.452404 25.812229 z" transform="matrix(1.02837, 0, 0, 1.05263, -0.567991, -0.658192)" style="opacity:1;fill:url(#radialGradient8856);fill-opacity:1;stroke:#204a87;stroke-width:1;stroke-linecap:round;stroke-linejoin:miter;stroke-miterlimit:4;stroke-dasharray:none;stroke-opacity:1" id="path8774"/>
      <path d="M 18.313845 25.812229 A 6.5467157 1.8909374 0 1 1  5.2204132,25.812229 A 6.5467157 1.8909374 0 1 1  18.313845 25.812229 z" transform="matrix(1.02837, 0, 0, 1.05263, -0.567991, -0.658192)" style="opacity:1;fill:none;fill-opacity:1;stroke:url(#linearGradient8858);stroke-width:1;stroke-linecap:round;stroke-linejoin:miter;stroke-miterlimit:4;stroke-dasharray:none;stroke-opacity:1" id="path8792"/>
    </g>
    <path d="M 19.452404 25.812229 A 7.6852746 2.7807896 0 1 1  4.0818543,25.812229 A 7.6852746 2.7807896 0 1 1  19.452404 25.812229 z" transform="matrix(0.727167, 0.727167, -0.744323, 0.744323, 35.1369, 9.74981)" style="fill:url(#radialGradient8888);fill-opacity:1;stroke:#a40000;stroke-width:1;stroke-linecap:round;stroke-linejoin:miter;stroke-miterlimit:4;stroke-dasharray:none;stroke-opacity:1" id="path8862"/>
    <path d="M 18.313845 25.812229 A 6.5467157 1.8909374 0 1 1  5.2204132,25.812229 A 6.5467157 1.8909374 0 1 1  18.313845 25.812229 z" transform="matrix(0.727167, 0.727167, -0.744323, 0.744323, 35.1369, 9.74981)" style="fill:none;fill-opacity:1;stroke:url(#linearGradient8890);stroke-width:1;stroke-linecap:round;stroke-linejoin:miter;stroke-miterlimit:4;stroke-dasharray:none;stroke-opacity:1" id="path8864"/>
  </g>
  <g id="layer2"/>
</svg>