<?xml version="1.0" encoding="UTF-8" standalone="no"?>
<!-- Created with Inkscape (http://www.inkscape.org/) -->

<svg
   xmlns:dc="http://purl.org/dc/elements/1.1/"
   xmlns:cc="http://creativecommons.org/ns#"
   xmlns:rdf="http://www.w3.org/1999/02/22-rdf-syntax-ns#"
   xmlns:svg="http://www.w3.org/2000/svg"
   xmlns="http://www.w3.org/2000/svg"
   xmlns:sodipodi="http://sodipodi.sourceforge.net/DTD/sodipodi-0.dtd"
   xmlns:inkscape="http://www.inkscape.org/namespaces/inkscape"
   id="svg3143"
   height="48"
   width="48"
   version="1.1"
   inkscape:version="0.91 r13725"
   sodipodi:docname="bluefish.svg">
  <sodipodi:namedview
     pagecolor="#ffffff"
     bordercolor="#666666"
     borderopacity="1"
     objecttolerance="10"
     gridtolerance="10"
     guidetolerance="10"
     inkscape:pageopacity="0"
     inkscape:pageshadow="2"
     inkscape:window-width="1535"
     inkscape:window-height="876"
     id="namedview37"
     showgrid="false"
     inkscape:zoom="4.9166667"
     inkscape:cx="-10.779661"
     inkscape:cy="24"
     inkscape:window-x="65"
     inkscape:window-y="24"
     inkscape:window-maximized="1"
     inkscape:current-layer="svg3143" />
  <defs
     id="defs3145">
    <radialGradient
       id="radialGradient3030"
       gradientUnits="userSpaceOnUse"
       cy="43.5"
       cx="4.993"
       gradientTransform="matrix(2.0038 0 0 1.4 27.988 -17.4)"
       r="2.5">
      <stop
         id="stop2883"
         stop-color="#181818"
         offset="0" />
      <stop
         id="stop2885"
         stop-color="#181818"
         stop-opacity="0"
         offset="1" />
    </radialGradient>
    <radialGradient
       id="radialGradient3032"
       gradientUnits="userSpaceOnUse"
       cy="43.5"
       cx="4.993"
       gradientTransform="matrix(2.0038 0 0 1.4 -20.012 -104.4)"
       r="2.5">
      <stop
         id="stop2889"
         stop-color="#181818"
         offset="0" />
      <stop
         id="stop2891"
         stop-color="#181818"
         stop-opacity="0"
         offset="1" />
    </radialGradient>
    <linearGradient
       id="linearGradient3034"
       y2="39.999"
       gradientUnits="userSpaceOnUse"
       x2="25.058"
       y1="47.028"
       x1="25.058">
      <stop
         id="stop2895"
         stop-color="#181818"
         stop-opacity="0"
         offset="0" />
      <stop
         id="stop2897"
         stop-color="#181818"
         offset=".5" />
      <stop
         id="stop2899"
         stop-color="#181818"
         stop-opacity="0"
         offset="1" />
    </linearGradient>
    <linearGradient
       id="linearGradient3044"
       y2="43"
       gradientUnits="userSpaceOnUse"
       x2="24"
       gradientTransform="translate(5.3e-6,1)"
       y1="5"
       x1="24">
      <stop
         id="stop3926-7"
         stop-color="#fff"
         offset="0" />
      <stop
         id="stop3928-3"
         stop-color="#fff"
         stop-opacity=".23529"
         offset=".063165" />
      <stop
         id="stop3930-7"
         stop-color="#fff"
         stop-opacity=".15686"
         offset=".95056" />
      <stop
         id="stop3932-1"
         stop-color="#fff"
         stop-opacity=".39216"
         offset="1" />
    </linearGradient>
    <radialGradient
       id="radialGradient3053"
       gradientUnits="userSpaceOnUse"
       cy="9.9941"
       cx="8.2761"
       gradientTransform="matrix(0,6.6678,-8.1859,0,105.88,-59.463)"
       r="12.672">
      <stop
         id="stop3244"
         stop-color="#7ec1f8"
         offset="0" />
      <stop
         id="stop3246"
         stop-color="#4f97e3"
         offset=".26238" />
      <stop
         id="stop3248"
         stop-color="#2674c6"
         offset=".66094" />
      <stop
         id="stop3250"
         stop-color="#0b4169"
         offset="1" />
    </radialGradient>
    <linearGradient
       id="linearGradient4305"
       y2="44.696"
       gradientUnits="userSpaceOnUse"
       x2="23.523"
       y1="12.937"
       x1="22.769">
      <stop
         id="stop2240"
         stop-color="#fff"
         offset="0" />
      <stop
         id="stop2242"
         stop-color="#fff"
         stop-opacity="0"
         offset="1" />
    </linearGradient>
  </defs>
  <metadata
     id="metadata3148">
    <rdf:RDF>
      <cc:Work
         rdf:about="">
        <dc:format>image/svg+xml</dc:format>
        <dc:type
           rdf:resource="http://purl.org/dc/dcmitype/StillImage" />
        <dc:title />
      </cc:Work>
    </rdf:RDF>
  </metadata>
  <g
     id="g4165"
     transform="translate(0,-1)">
    <rect
       x="4.5"
       y="5.5"
       width="39"
       height="39"
       ry="2"
       rx="2"
       style="color:#000000;fill:url(#radialGradient3053)"
       id="rect5505-21" />
    <rect
       x="5.5"
       y="6.5"
       width="37"
       height="37"
       ry="1"
       rx="1"
       id="rect6741-2"
       style="opacity:0.5;fill:none;stroke:url(#linearGradient3044);stroke-linecap:round;stroke-linejoin:round" />
    <rect
       x="4.5"
       y="5.5"
       width="39"
       height="39"
       ry="2"
       rx="2"
       style="color:#000000;opacity:0.4;fill:none;stroke:#0035a4;stroke-linecap:round;stroke-linejoin:round"
       id="rect5505-21-1" />
    <path
       d="m 16.254,13.756 c -2.2487,-0.03908 -4.1095,0.41834 -5.4941,0.87695 l -0.21289,0.07031 0.04687,0.21875 0.71875,3.3711 -2.6191,0.76953 0.066406,0.23633 c 0.42652,1.5243 1.6164,3.6155 3.1113,5.5879 1.495,1.9724 3.2875,3.8152 4.9648,4.7891 1.0907,0.63326 2.388,1.0323 3.7539,1.2949 1.2578,1.533 3.3988,2.8583 3.9961,3.2051 l 0.4375,0.25391 -0.0625,-0.50195 c -0.06735,-0.526 0.17199,-1.591 0.4375,-2.5664 1.7009,-0.0073 3.3016,-0.13739 4.6465,-0.29492 -0.25444,2.2592 0.7499,4.562 2.7676,6.1309 l 0.41602,0.32422 -0.01172,-0.52734 c -0.04421,-1.9014 0.49726,-3.9882 1.6074,-5.9219 1.1102,-1.9336 2.6379,-3.4495 4.2969,-4.3613 l 0.45703,-0.25195 -0.48242,-0.19922 c -2.33,-0.95785 -4.7857,-0.70525 -6.5996,0.59961 -0.38003,-0.93564 -0.84621,-1.9808 -1.4004,-3.0723 0.8239,-0.38122 1.7246,-0.68555 1.7246,-0.68555 l 0.26367,-0.07812 -2.875,-7.1875 -0.08789,-0.04297 c 0,0 -0.54464,-0.25888 -1.5781,-0.375 -1.0109,-0.11358 -2.5434,-0.07679 -4.541,0.40625 -2.9052,-1.4933 -5.5194,-2.0296 -7.748,-2.0684 z m -0.01172,0.49219 c 2.1763,0.03725 4.7325,0.56053 7.6035,2.0508 l 0.08398,0.04297 0.0918,-0.02344 c 2.0108,-0.50196 3.4915,-0.51367 4.4648,-0.4043 0.92103,0.10349 1.2946,0.29104 1.3398,0.3125 l 2.5996,6.498 c -0.21562,0.06626 -0.92595,0.26979 -1.7793,0.70508 l -0.22266,0.11523 0.11523,0.22266 c 0.65313,1.2611 1.1908,2.4835 1.6113,3.5371 l 0.125,0.31445 0.26367,-0.21289 c 1.5511,-1.2468 3.7208,-1.4644 5.8516,-0.76172 -1.5453,0.9756 -2.9617,2.3692 -4,4.1777 -1.0377,1.8074 -1.5295,3.7363 -1.5977,5.5684 -1.6885,-1.5211 -2.5794,-3.5523 -2.25,-5.5488 l 0.05469,-0.32812 -0.33203,0.03906 c -1.438,0.174 -3.219,0.326 -5.08,0.321 l -0.18945,0 -0.05078,0.18359 c -0.24802,0.8828 -0.39899,1.7519 -0.4082,2.4844 -0.76251,-0.46142 -2.5692,-1.6265 -3.625,-2.9473 l -0.05859,-0.07227 -0.0918,-0.01758 c -1.363,-0.255 -2.632,-0.657 -3.677,-1.264 -1.573,-0.913 -3.35,-2.72 -4.818,-4.658 -1.402,-1.849 -2.4871,-3.795 -2.9282,-5.191 l 2.5566,-0.75 -0.76563,-3.5918 c 1.3292,-0.42633 3.0333,-0.83826 5.1094,-0.80273 z m -0.34375,1.166 c -0.61156,0.1791 -1.1656,0.58803 -1.502,1.1738 -0.67263,1.1716 -0.29625,2.7411 0.83594,3.3984 1.1322,0.65733 2.675,0.19892 3.3477,-0.97266 0.45426,-0.79122 0.289,-1.6708 -0.12305,-2.4219 -0.09358,-0.40014 -0.33322,-0.75922 -0.71094,-0.97852 -0.37758,-0.21922 -0.8071,-0.24754 -1.1992,-0.12891 -0.22186,0.0044 -0.43379,-0.13317 -0.64844,-0.07031 z m 0.77539,0.55078 c 0.28174,0.01106 0.57601,-0.06176 0.82031,0.08008 0.24509,0.1423 0.32981,0.43649 0.48047,0.67773 0.057,0.26251 0.02715,0.55335 -0.125,0.81836 -0.31374,0.54646 -0.95391,0.72684 -1.459,0.43359 -0.50511,-0.29326 -0.67116,-0.94572 -0.35742,-1.4922 0.15225,-0.26518 0.38666,-0.43626 0.64062,-0.51758 z m -1.0762,0.27734 c -0.43459,0.76597 -0.20151,1.733 0.54102,2.1641 0.74112,0.43029 1.6913,0.1489 2.1348,-0.60938 -0.0071,0.33108 0.04295,0.67086 -0.12695,0.9668 -0.53405,0.93019 -1.7962,1.2949 -2.6641,0.79102 -0.86787,-0.50388 -1.1864,-1.7886 -0.65234,-2.7188 0.16982,-0.29579 0.48662,-0.4222 0.76758,-0.59375 z"
       style="color:#000000;text-indent:0;text-decoration:none;text-decoration-line:none;text-decoration-style:solid;text-decoration-color:#000000;text-transform:none;block-progression:tb;white-space:normal;opacity:0.5;isolation:auto;mix-blend-mode:normal;solid-color:#000000;fill:url(#linearGradient4305);color-rendering:auto;image-rendering:auto;shape-rendering:auto"
       id="path4297"
       inkscape:connector-curvature="0" />
    <path
       d="m 18.066,17.665 c -0.37709,0.65681 -1.1765,0.88801 -1.8015,0.52514 -0.62504,-0.36289 -0.82564,-1.1747 -0.44855,-1.8315 0.37709,-0.65681 1.1788,-0.89197 1.8038,-0.52908 0.62501,0.36287 0.82334,1.1786 0.44625,1.8355 z M 10.838,14.869 11.605,18.468 9,19.232 c 0.8192,2.9277 4.7118,8.3404 7.9619,10.227 1.08,0.62706 2.3761,1.0345 3.7562,1.2928 1.2019,1.5035 3.4027,2.8636 3.994,3.2069 -0.0848,-0.66226 0.18425,-1.7986 0.47491,-2.8332 1.8756,0.0048 3.6668,-0.14804 5.1097,-0.32437 -0.37241,2.2569 0.62441,4.6081 2.6698,6.1985 -0.04541,-1.953 0.51044,-4.0824 1.6417,-6.0528 1.13126,-1.9704 2.6872,-3.5192 4.3918,-4.4562 -2.3665,-0.97287 -4.8625,-0.68979 -6.6173,0.7207 -0.42307,-1.0601 -0.96441,-2.2886 -1.6221,-3.5585 0.94747,-0.4833 1.9892,-0.79102 1.9892,-0.79102 l -2.7376,-6.8439 c 0,0 -1.9758,-0.95972 -6.0517,0.05774 -5.808,-3.015 -10.386,-2.113 -13.123,-1.207 z m 3.7759,1.842 c 0.60336,-1.0509 2.0063,-1.4624 3.0063,-0.88181 1,0.58059 1.3471,2.0082 0.74376,3.0591 -0.60334,1.0509 -2.0063,1.4624 -3.0063,0.88179 -1,-0.58061 -1.3471,-2.0082 -0.74378,-3.0591 z"
       id="path4200"
       inkscape:connector-curvature="0"
       style="fill:#1c1c1c" />
  </g>
</svg>
