<?xml version="1.0" encoding="UTF-8" standalone="no"?>
<!-- Created with Inkscape (http://www.inkscape.org/) -->

<svg
   xmlns:dc="http://purl.org/dc/elements/1.1/"
   xmlns:cc="http://creativecommons.org/ns#"
   xmlns:rdf="http://www.w3.org/1999/02/22-rdf-syntax-ns#"
   xmlns:svg="http://www.w3.org/2000/svg"
   xmlns="http://www.w3.org/2000/svg"
   xmlns:xlink="http://www.w3.org/1999/xlink"
   xmlns:sodipodi="http://sodipodi.sourceforge.net/DTD/sodipodi-0.dtd"
   xmlns:inkscape="http://www.inkscape.org/namespaces/inkscape"
   width="48"
   height="48"
   viewBox="0 0 48 48.000001"
   id="svg2"
   version="1.1"
   inkscape:version="0.91 r"
   sodipodi:docname="brasero-alt-48.svg">
  <defs
     id="defs4">
    <linearGradient
       id="linearGradient4208"
       inkscape:collect="always">
      <stop
         id="stop4210"
         offset="0"
         style="stop-color:#ffffff;stop-opacity:1;" />
      <stop
         style="stop-color:#ffffff;stop-opacity:0.23529412"
         offset="0.22222225"
         id="stop4212" />
      <stop
         id="stop4214"
         offset="0.69444448"
         style="stop-color:#ffffff;stop-opacity:0.15686275" />
      <stop
         id="stop4216"
         offset="1"
         style="stop-color:#ffffff;stop-opacity:0.39215687" />
    </linearGradient>
    <linearGradient
       inkscape:collect="always"
       id="linearGradient4323">
      <stop
         style="stop-color:#000000;stop-opacity:1;"
         offset="0"
         id="stop4325" />
      <stop
         style="stop-color:#000000;stop-opacity:0;"
         offset="1"
         id="stop4327" />
    </linearGradient>
    <linearGradient
       inkscape:collect="always"
       id="linearGradient4174">
      <stop
         style="stop-color:#ffffff;stop-opacity:1;"
         offset="0"
         id="stop4162" />
      <stop
         id="stop4176"
         offset="0.15164158"
         style="stop-color:#ffffff;stop-opacity:0.23529412" />
      <stop
         style="stop-color:#ffffff;stop-opacity:0.15686275"
         offset="0.86457443"
         id="stop4178" />
      <stop
         style="stop-color:#ffffff;stop-opacity:0.39215687"
         offset="1"
         id="stop4164" />
    </linearGradient>
    <radialGradient
       inkscape:collect="always"
       xlink:href="#linearGradient4632-92-3-0-8-1-6-6"
       id="radialGradient4149"
       cx="18.063089"
       cy="1014.6121"
       fx="18.063089"
       fy="1014.6121"
       r="20.5"
       gradientUnits="userSpaceOnUse"
       gradientTransform="matrix(1.6940607e-6,2.4459482,-1.8369221,1.27225e-6,1888.0311,960.67376)" />
    <radialGradient
       inkscape:collect="always"
       xlink:href="#linearGradient4323"
       id="radialGradient4329"
       cx="24"
       cy="1045.8622"
       fx="24"
       fy="1045.8622"
       r="17"
       gradientTransform="matrix(1,0,0,0.32352941,0,707.49501)"
       gradientUnits="userSpaceOnUse" />
    <linearGradient
       id="linearGradient4644-104-3-3-6-2-3-4-1">
      <stop
         offset="0"
         style="stop-color:#ff4035;stop-opacity:1;"
         id="stop5237-6-5-1-7-5-2-4" />
      <stop
         offset="1"
         style="stop-color:#dc311a;stop-opacity:1;"
         id="stop5239-4-6-4-8-4-8-9" />
    </linearGradient>
    <linearGradient
       inkscape:collect="always"
       xlink:href="#linearGradient4174"
       id="linearGradient4167"
       x1="24.680264"
       y1="1008.285"
       x2="24.680264"
       y2="1048.5426"
       gradientUnits="userSpaceOnUse" />
    <linearGradient
       gradientTransform="matrix(1.8749993,0,0,1.8000619,-65.99996,941.95861)"
       inkscape:collect="always"
       xlink:href="#linearGradient4283"
       id="linearGradient4289"
       x1="48.54015"
       y1="54.656719"
       x2="48.54015"
       y2="40.244843"
       gradientUnits="userSpaceOnUse" />
    <linearGradient
       inkscape:collect="always"
       id="linearGradient4283">
      <stop
         style="stop-color:#f08228;stop-opacity:1"
         offset="0"
         id="stop4285" />
      <stop
         style="stop-color:#ebdc50;stop-opacity:1"
         offset="1"
         id="stop4287" />
    </linearGradient>
    <linearGradient
       id="linearGradient4632-92-3-0-8-1-6-6">
      <stop
         id="stop4634-68-8-0-2-9-1-1"
         style="stop-color:#ff4724;stop-opacity:1"
         offset="0" />
      <stop
         id="stop4636-8-21-7-1-4-9-4"
         style="stop-color:#9d071f;stop-opacity:1"
         offset="1" />
    </linearGradient>
    <linearGradient
       inkscape:collect="always"
       xlink:href="#linearGradient4208"
       id="linearGradient4195"
       gradientUnits="userSpaceOnUse"
       gradientTransform="matrix(1.8749993,0,0,1.8000619,-65.99996,-62.40359)"
       x1="45.333328"
       y1="38.000687"
       x2="45.333328"
       y2="58" />
  </defs>
  <sodipodi:namedview
     id="base"
     pagecolor="#ffffff"
     bordercolor="#666666"
     borderopacity="1.0"
     inkscape:pageopacity="0.0"
     inkscape:pageshadow="2"
     inkscape:zoom="6.5953602"
     inkscape:cx="32.912499"
     inkscape:cy="17.251346"
     inkscape:document-units="px"
     inkscape:current-layer="layer1"
     showgrid="true"
     units="px"
     inkscape:window-width="1366"
     inkscape:window-height="713"
     inkscape:window-x="0"
     inkscape:window-y="30"
     inkscape:window-maximized="1">
    <inkscape:grid
       type="xygrid"
       id="grid4184" />
  </sodipodi:namedview>
  <metadata
     id="metadata7">
    <rdf:RDF>
      <cc:Work
         rdf:about="">
        <dc:format>image/svg+xml</dc:format>
        <dc:type
           rdf:resource="http://purl.org/dc/dcmitype/StillImage" />
        <dc:title></dc:title>
      </cc:Work>
    </rdf:RDF>
  </metadata>
  <g
     inkscape:label="Livello 1"
     inkscape:groupmode="layer"
     id="layer1"
     transform="translate(0,-1004.3622)">
    <rect
       style="opacity:0.5;fill:url(#radialGradient4329);fill-opacity:1;stroke:none;stroke-width:1;stroke-linejoin:round;stroke-miterlimit:4;stroke-dasharray:none;stroke-opacity:1"
       id="rect4321"
       width="34"
       height="11"
       x="7"
       y="1040.3622" />
    <circle
       style="opacity:1;fill:url(#radialGradient4149);fill-opacity:1.0;stroke:none;stroke-width:1;stroke-linejoin:round;stroke-miterlimit:4;stroke-dasharray:none;stroke-opacity:1"
       id="path4136"
       cx="24"
       cy="1028.3622"
       r="20.5" />
    <circle
       r="20.5"
       cy="1028.3622"
       cx="24"
       id="circle4155"
       style="opacity:0.60000005;fill:none;fill-opacity:1;stroke:#8c0000;stroke-width:1;stroke-linejoin:round;stroke-miterlimit:4;stroke-dasharray:none;stroke-opacity:1" />
    <circle
       r="19.500006"
       cy="1028.3623"
       cx="24.000006"
       id="circle4157"
       style="opacity:0.4;fill:none;fill-opacity:1;stroke:url(#linearGradient4167);stroke-width:1;stroke-linejoin:round;stroke-miterlimit:4;stroke-dasharray:none;stroke-opacity:1" />
    <path
       inkscape:connector-curvature="0"
       id="path4187"
       d="m 27.113585,1011.38 c -0.0459,-0.054 -0.494792,0.1495 -0.998237,0.4951 -3.261056,2.0944 -6.78334,5.5063 -8.859746,8.569 -1.601279,2.3617 -3.193166,5.7411 -3.805859,8.1373 -0.1401,0.5576 -0.36813,0.9909 -0.499245,0.9909 -0.51981,-0.04 -1.63221,-1.2875 -2.214989,-2.4729 -0.60429,-1.2274 -0.61239,-1.231 -0.81099,-0.7572 -0.32655,0.7794 -0.687207,2.6082 -0.842217,4.2844 -0.42363,4.5673 0.810717,9.0216 3.181946,12.0925 3.150495,2.8747 7.236958,4.6431 11.729741,4.6431 0.283502,0 0.561932,-0.04 0.84222,-0.04 2.290544,-0.1296 4.460923,-0.7503 6.769737,-1.8113 0.367712,-0.135 0.68541,-0.319 0.96684,-0.4598 0.0345,-0.039 0.06,-0.045 0.0942,-0.063 0.1338,-0.068 0.2238,-0.1314 0.343259,-0.2399 0.1563,-0.094 0.31554,-0.1386 0.46794,-0.2759 0.03,-0.04 0.0648,-0.042 0.0945,-0.062 0.2271,-0.1296 0.47361,-0.3181 0.71754,-0.5207 0.275701,-0.2487 0.555031,-0.5278 0.904696,-0.8585 1.288918,-1.2231 1.83108,-1.8915 2.402188,-3.0017 0.80367,-1.5558 1.29132,-3.5992 1.2165,-5.1354 -0.03,-0.5072 -0.0963,-1.3906 -0.1254,-1.979 -0.03,-0.5898 -0.2028,-1.9335 -0.405569,-2.9999 -0.396031,-2.0886 -0.332581,-2.7495 0.343199,-4.048 L 39,1025.1065 l -0.68628,0.094 c -1.163219,0.1115 -2.923891,1.0519 -3.899383,2.0414 -0.505682,0.5148 -0.94485,0.924 -0.967232,0.8903 -0.027,-0.039 -0.1968,-0.5234 -0.4056,-1.0538 -0.533247,-1.3681 -2.056707,-3.5445 -3.993071,-5.7021 -0.914791,-1.0161 -1.815839,-2.2042 -1.996501,-2.6362 -0.711898,-1.6942 -0.73482,-4.3795 -0.0627,-6.5533 0.1254,-0.4038 0.1704,-0.7661 0.1254,-0.825 z m -4.492215,9.1284 0.0945,1.3205 c 0.1341,2.6132 0.72408,3.8117 2.464588,4.9728 3.188356,2.1285 5.188183,4.0928 6.145468,6.0611 2.037239,4.195 0.73428,9.1753 -3.025902,11.5348 -0.638431,0.3999 -1.242691,0.6935 -1.341449,0.6935 -0.1005,0 0.202198,-0.4164 0.686248,-0.9225 1.142909,-1.208 1.591411,-2.4373 1.559819,-4.1874 -0.0444,-2.4401 -0.94167,-3.946 -3.743534,-6.1939 -2.037418,-1.6373 -2.394418,-2.2571 -2.308498,-3.9876 l 0.03,-0.9248 -0.686372,0.6637 c -1.114335,1.0259 -2.590902,3.3689 -3.275564,5.2016 -0.519959,1.395 -0.646289,2.0291 -0.717599,3.4596 -0.1125,2.2961 0.0882,3.5318 0.779909,4.7458 0.31104,0.5497 0.4998,0.9911 0.4056,0.9911 -0.38499,-0.039 -2.200109,-2.4435 -2.620364,-3.4939 -0.76284,-1.9085 -0.95817,-3.344 -0.81117,-6.1302 0.1065,-2.0551 0.2262,-2.8622 0.68622,-4.3797 0.927827,-3.0698 2.761244,-6.2528 4.928998,-8.5986 l 0.74886,-0.8259 z"
       style="display:inline;fill:#000000;fill-opacity:1;opacity:0.07;stroke:#000000;stroke-opacity:1;stroke-linejoin:round" />
    <path
       style="display:inline;fill:#000000;fill-opacity:1;opacity:0.15000005"
       d="m 27.113585,1011.38 c -0.0459,-0.054 -0.494792,0.1495 -0.998237,0.4951 -3.261056,2.0944 -6.78334,5.5063 -8.859746,8.569 -1.601279,2.3617 -3.193166,5.7411 -3.805859,8.1373 -0.1401,0.5576 -0.36813,0.9909 -0.499245,0.9909 -0.51981,-0.04 -1.63221,-1.2875 -2.214989,-2.4729 -0.60429,-1.2274 -0.61239,-1.231 -0.81099,-0.7572 -0.32655,0.7794 -0.687207,2.6082 -0.842217,4.2844 -0.42363,4.5673 0.810717,9.0216 3.181946,12.0925 3.150495,2.8747 7.236958,4.6431 11.729741,4.6431 0.283502,0 0.561932,-0.04 0.84222,-0.04 2.290544,-0.1296 4.460923,-0.7503 6.769737,-1.8113 0.367712,-0.135 0.68541,-0.319 0.96684,-0.4598 0.0345,-0.039 0.06,-0.045 0.0942,-0.063 0.1338,-0.068 0.2238,-0.1314 0.343259,-0.2399 0.1563,-0.094 0.31554,-0.1386 0.46794,-0.2759 0.03,-0.04 0.0648,-0.042 0.0945,-0.062 0.2271,-0.1296 0.47361,-0.3181 0.71754,-0.5207 0.275701,-0.2487 0.555031,-0.5278 0.904696,-0.8585 1.288918,-1.2231 1.83108,-1.8915 2.402188,-3.0017 0.80367,-1.5558 1.29132,-3.5992 1.2165,-5.1354 -0.03,-0.5072 -0.0963,-1.3906 -0.1254,-1.979 -0.03,-0.5898 -0.2028,-1.9335 -0.405569,-2.9999 -0.396031,-2.0886 -0.332581,-2.7495 0.343199,-4.048 L 39,1025.1065 l -0.68628,0.094 c -1.163219,0.1115 -2.923891,1.0519 -3.899383,2.0414 -0.505682,0.5148 -0.94485,0.924 -0.967232,0.8903 -0.027,-0.039 -0.1968,-0.5234 -0.4056,-1.0538 -0.533247,-1.3681 -2.056707,-3.5445 -3.993071,-5.7021 -0.914791,-1.0161 -1.815839,-2.2042 -1.996501,-2.6362 -0.711898,-1.6942 -0.73482,-4.3795 -0.0627,-6.5533 0.1254,-0.4038 0.1704,-0.7661 0.1254,-0.825 z m -4.492215,9.1284 0.0945,1.3205 c 0.1341,2.6132 0.72408,3.8117 2.464588,4.9728 3.188356,2.1285 5.188183,4.0928 6.145468,6.0611 2.037239,4.195 0.73428,9.1753 -3.025902,11.5348 -0.638431,0.3999 -1.242691,0.6935 -1.341449,0.6935 -0.1005,0 0.202198,-0.4164 0.686248,-0.9225 1.142909,-1.208 1.591411,-2.4373 1.559819,-4.1874 -0.0444,-2.4401 -0.94167,-3.946 -3.743534,-6.1939 -2.037418,-1.6373 -2.394418,-2.2571 -2.308498,-3.9876 l 0.03,-0.9248 -0.686372,0.6637 c -1.114335,1.0259 -2.590902,3.3689 -3.275564,5.2016 -0.519959,1.395 -0.646289,2.0291 -0.717599,3.4596 -0.1125,2.2961 0.0882,3.5318 0.779909,4.7458 0.31104,0.5497 0.4998,0.9911 0.4056,0.9911 -0.38499,-0.039 -2.200109,-2.4435 -2.620364,-3.4939 -0.76284,-1.9085 -0.95817,-3.344 -0.81117,-6.1302 0.1065,-2.0551 0.2262,-2.8622 0.68622,-4.3797 0.927827,-3.0698 2.761244,-6.2528 4.928998,-8.5986 l 0.74886,-0.8259 z"
       id="path4183"
       inkscape:connector-curvature="0" />
    <path
       inkscape:connector-curvature="0"
       id="path4366"
       d="m 27.113585,1010.38 c -0.0459,-0.054 -0.494792,0.1495 -0.998237,0.4951 -3.261056,2.0944 -6.78334,5.5063 -8.859746,8.569 -1.601279,2.3617 -3.193166,5.7411 -3.805859,8.1373 -0.1401,0.5576 -0.36813,0.9909 -0.499245,0.9909 -0.51981,-0.04 -1.63221,-1.2875 -2.214989,-2.4729 -0.60429,-1.2274 -0.61239,-1.231 -0.81099,-0.7572 -0.32655,0.7794 -0.687207,2.6082 -0.842217,4.2844 -0.42363,4.5673 0.810717,9.0216 3.181946,12.0925 3.150495,2.8747 7.236958,4.6431 11.729741,4.6431 0.283502,0 0.561932,-0.04 0.84222,-0.04 2.290544,-0.1296 4.460923,-0.7503 6.769737,-1.8113 0.367712,-0.135 0.68541,-0.319 0.96684,-0.4598 0.0345,-0.039 0.06,-0.045 0.0942,-0.063 0.1338,-0.068 0.2238,-0.1314 0.343259,-0.2399 0.1563,-0.094 0.31554,-0.1386 0.46794,-0.2759 0.03,-0.04 0.0648,-0.042 0.0945,-0.062 0.2271,-0.1296 0.47361,-0.3181 0.71754,-0.5207 0.275701,-0.2487 0.555031,-0.5278 0.904696,-0.8585 1.288918,-1.2231 1.83108,-1.8915 2.402188,-3.0017 0.80367,-1.5558 1.29132,-3.5992 1.2165,-5.1354 -0.03,-0.5072 -0.0963,-1.3906 -0.1254,-1.979 -0.03,-0.5898 -0.2028,-1.9335 -0.405569,-2.9999 -0.396031,-2.0886 -0.332581,-2.7495 0.343199,-4.048 L 39,1024.1065 l -0.68628,0.094 c -1.163219,0.1115 -2.923891,1.0519 -3.899383,2.0414 -0.505682,0.5148 -0.94485,0.924 -0.967232,0.8903 -0.027,-0.039 -0.1968,-0.5234 -0.4056,-1.0538 -0.533247,-1.3681 -2.056707,-3.5445 -3.993071,-5.7021 -0.914791,-1.0161 -1.815839,-2.2042 -1.996501,-2.6362 -0.711898,-1.6942 -0.73482,-4.3795 -0.0627,-6.5533 0.1254,-0.4038 0.1704,-0.7661 0.1254,-0.825 z m -4.492215,9.1284 0.0945,1.3205 c 0.1341,2.6132 0.72408,3.8117 2.464588,4.9728 3.188356,2.1285 5.188183,4.0928 6.145468,6.0611 2.037239,4.195 0.73428,9.1753 -3.025902,11.5348 -0.638431,0.3999 -1.242691,0.6935 -1.341449,0.6935 -0.1005,0 0.202198,-0.4164 0.686248,-0.9225 1.142909,-1.208 1.591411,-2.4373 1.559819,-4.1874 -0.0444,-2.4401 -0.94167,-3.946 -3.743534,-6.1939 -2.037418,-1.6373 -2.394418,-2.2571 -2.308498,-3.9876 l 0.03,-0.9248 -0.686372,0.6637 c -1.114335,1.0259 -2.590902,3.3689 -3.275564,5.2016 -0.519959,1.395 -0.646289,2.0291 -0.717599,3.4596 -0.1125,2.2961 0.0882,3.5318 0.779909,4.7458 0.31104,0.5497 0.4998,0.9911 0.4056,0.9911 -0.38499,-0.039 -2.200109,-2.4435 -2.620364,-3.4939 -0.76284,-1.9085 -0.95817,-3.344 -0.81117,-6.1302 0.1065,-2.0551 0.2262,-2.8622 0.68622,-4.3797 0.927827,-3.0698 2.761244,-6.2528 4.928998,-8.5986 l 0.74886,-0.8259 z"
       style="display:inline;fill:url(#linearGradient4289);fill-opacity:1" />
    <path
       style="display:inline;fill:url(#linearGradient4195);fill-opacity:1;opacity:0.6"
       d="M 27.115234 6 L 27.113281 6.0175781 C 27.0999 6.0018354 26.995124 6.0490506 26.921875 6.0742188 C 26.743924 6.1356721 26.47191 6.268825 26.115234 6.5136719 C 22.854178 8.6080719 19.332265 12.019331 17.255859 15.082031 C 15.65458 17.443731 14.061912 20.82255 13.449219 23.21875 C 13.309119 23.77635 13.082287 24.210938 12.951172 24.210938 C 12.431362 24.170938 11.319107 22.921728 10.736328 21.736328 C 10.132038 20.508928 10.122428 20.506669 9.9238281 20.980469 C 9.5972781 21.759869 9.2370412 23.587472 9.0820312 25.263672 C 9.0117755 26.021124 9.002916 26.772137 9.0214844 27.517578 C 9.023372 27.448091 9.0292831 27.378101 9.03125 27.308594 C 9.0835711 31.135586 10.249282 34.748652 12.263672 37.357422 C 15.414167 40.232122 19.501358 42 23.994141 42 C 24.277643 42 24.555649 41.960938 24.835938 41.960938 C 27.126482 41.831338 29.296655 41.209437 31.605469 40.148438 C 31.973181 40.013438 32.290836 39.830253 32.572266 39.689453 C 32.606766 39.650453 32.631816 39.643 32.666016 39.625 C 32.799816 39.557 32.890307 39.495219 33.009766 39.386719 C 33.166066 39.292719 33.326116 39.246675 33.478516 39.109375 C 33.508516 39.069375 33.542566 39.068828 33.572266 39.048828 C 33.799366 38.919228 34.047086 38.729944 34.291016 38.527344 C 34.566717 38.278644 34.845647 37.998669 35.195312 37.667969 C 36.484231 36.444869 37.026548 35.778169 37.597656 34.667969 C 38.299113 33.310041 38.734865 31.597841 38.791016 30.158203 C 38.799188 29.948475 38.823968 29.726618 38.814453 29.53125 C 38.808856 29.436623 38.798725 29.279599 38.791016 29.162109 C 38.757292 28.654475 38.711171 28.031359 38.6875 27.552734 C 38.6575 26.962934 38.485972 25.619134 38.283203 24.552734 C 38.172285 23.967769 38.107741 23.509871 38.072266 23.103516 C 37.995758 23.722072 38.070257 24.429693 38.283203 25.552734 C 38.485972 26.619134 38.6575 27.962934 38.6875 28.552734 C 38.702208 28.850135 38.728179 29.206212 38.751953 29.552734 C 38.64067 30.904879 38.237407 32.429496 37.597656 33.667969 C 37.026548 34.778169 36.484231 35.444869 35.195312 36.667969 C 34.845647 36.998669 34.566717 37.278644 34.291016 37.527344 C 34.047086 37.729944 33.799366 37.919228 33.572266 38.048828 C 33.542566 38.068828 33.508516 38.069375 33.478516 38.109375 C 33.326116 38.246675 33.166066 38.292719 33.009766 38.386719 C 32.890307 38.495219 32.799816 38.557 32.666016 38.625 C 32.631816 38.643 32.606766 38.650453 32.572266 38.689453 C 32.290836 38.830253 31.973181 39.013438 31.605469 39.148438 C 30.104327 39.838277 28.660194 40.321026 27.205078 40.625 C 27.449779 40.520884 27.829926 40.33009 28.300781 40.035156 C 31.002573 38.339792 32.426664 35.290313 32.263672 32.152344 C 32.108205 34.925411 30.714167 37.520766 28.300781 39.035156 C 28.281298 39.04736 28.267453 39.054406 28.248047 39.066406 C 28.071979 39.316495 27.875592 39.562421 27.644531 39.806641 C 27.242185 40.227316 26.981215 40.570728 26.957031 40.679688 C 26.256072 40.81497 25.552528 40.920393 24.835938 40.960938 C 24.55565 40.960938 24.277643 41 23.994141 41 C 19.501358 41 15.414167 39.232122 12.263672 36.357422 C 10.36361 33.896715 9.2196816 30.540959 9.0488281 26.957031 C 9.0578563 26.726116 9.0604982 26.495827 9.0820312 26.263672 C 9.2370413 24.587472 9.5972781 22.759869 9.9238281 21.980469 C 10.122428 21.506669 10.132038 21.508928 10.736328 22.736328 C 11.319107 23.921728 12.431362 25.170938 12.951172 25.210938 C 13.082287 25.210938 13.309119 24.77635 13.449219 24.21875 C 14.061912 21.82255 15.65458 18.443731 17.255859 16.082031 C 19.332265 13.019331 22.854178 9.6080719 26.115234 7.5136719 C 26.344403 7.356355 26.524868 7.2573552 26.681641 7.1816406 C 26.54378 7.9965085 26.486402 8.8350247 26.519531 9.6386719 C 26.562677 8.6830659 26.713921 7.7115677 26.988281 6.8242188 C 27.113681 6.4204187 27.160234 6.0589 27.115234 6 z M 26.519531 10.638672 C 26.45698 12.02408 26.631434 13.374328 27.052734 14.376953 C 27.233396 14.808953 28.134037 15.997572 29.048828 17.013672 C 30.985192 19.171272 32.507769 21.348697 33.041016 22.716797 C 33.249816 23.247197 33.420266 23.730531 33.447266 23.769531 C 33.469648 23.803231 33.90838 23.393706 34.414062 22.878906 C 35.338923 21.940766 36.96484 21.05636 38.123047 20.871094 C 38.049167 21.242245 38.031096 21.631929 38.072266 22.103516 C 38.125724 21.671312 38.273577 21.267015 38.486328 20.814453 L 38.488281 20.814453 C 38.537953 20.70966 38.566137 20.618963 38.625 20.505859 L 39 19.744141 L 38.488281 19.814453 L 38.314453 19.837891 C 37.151234 19.949391 35.389556 20.889406 34.414062 21.878906 C 33.90838 22.393706 33.469648 22.803231 33.447266 22.769531 C 33.420266 22.730531 33.249816 22.247197 33.041016 21.716797 C 32.507769 20.348697 30.985192 18.171272 29.048828 16.013672 C 28.134037 14.997572 27.233396 13.808953 27.052734 13.376953 C 26.734137 12.618745 26.561602 11.659201 26.519531 10.638672 z M 22.621094 14.146484 L 21.873047 14.972656 C 19.705293 17.318456 17.871186 20.500514 16.943359 23.570312 C 16.483339 25.087812 16.364313 25.896072 16.257812 27.951172 C 16.215103 28.760705 16.211811 29.436287 16.232422 30.0625 C 16.238372 29.70107 16.235894 29.366617 16.257812 28.951172 C 16.364313 26.896072 16.483339 26.087813 16.943359 24.570312 C 17.871186 21.500514 19.705293 18.318456 21.873047 15.972656 L 22.621094 15.146484 L 22.716797 16.466797 C 22.850897 19.079997 23.439179 20.278353 25.179688 21.439453 C 28.368043 23.567953 30.368887 25.5317 31.326172 27.5 C 31.8996 28.68078 32.199822 29.923087 32.263672 31.152344 C 32.35043 29.604826 32.055856 28.002537 31.326172 26.5 C 30.368887 24.5317 28.368043 22.567953 25.179688 20.439453 C 23.439179 19.278353 22.850897 18.079997 22.716797 15.466797 L 22.621094 14.146484 z M 23.181641 23.513672 L 23.150391 23.542969 L 22.496094 24.175781 C 21.381759 25.201681 19.905365 27.546206 19.220703 29.378906 C 18.700744 30.773906 18.575216 31.407391 18.503906 32.837891 C 18.489953 33.122673 18.502363 33.33486 18.5 33.585938 C 18.498897 33.563095 18.495126 33.544574 18.494141 33.521484 C 18.491772 33.642002 18.498123 33.742632 18.498047 33.857422 C 18.499266 34.071397 18.485749 34.324946 18.494141 34.521484 C 18.497088 34.371508 18.498334 34.223568 18.5 34.076172 C 18.515346 35.250615 18.654662 36.145727 18.974609 36.916016 C 19.290193 37.279771 19.568525 37.561969 19.689453 37.574219 C 19.783653 37.574219 19.594243 37.133684 19.283203 36.583984 C 18.813307 35.759283 18.583356 34.900334 18.511719 33.728516 C 18.584285 32.382728 18.715752 31.73364 19.220703 30.378906 C 19.905365 28.546206 21.381759 26.201681 22.496094 25.175781 L 23.150391 24.542969 C 23.151835 24.506086 23.150461 24.475428 23.152344 24.4375 L 23.160156 24.207031 L 23.160156 24.195312 L 23.181641 23.513672 z M 23.160156 25.207031 L 23.152344 25.4375 C 23.066424 27.168 23.423519 27.788481 25.460938 29.425781 C 27.903737 31.385609 28.88395 32.794434 29.126953 34.738281 C 28.972417 35.920244 28.523562 36.877547 27.644531 37.806641 C 27.160481 38.312741 26.858484 38.728516 26.958984 38.728516 C 27.054729 38.728516 27.631547 38.447643 28.248047 38.066406 C 28.830267 37.239414 29.111863 36.345142 29.177734 35.259766 C 29.17913 35.284028 29.184342 35.305635 29.185547 35.330078 C 29.200923 35.101794 29.20955 34.86688 29.205078 34.619141 C 29.203245 34.518374 29.190363 34.427777 29.185547 34.330078 C 29.073683 32.062017 28.147094 30.580851 25.460938 28.425781 C 23.760251 27.059083 23.238861 26.39359 23.160156 25.207031 z M 16.232422 31.0625 C 16.198467 33.125015 16.419265 34.456151 17.068359 36.080078 C 17.488614 37.130478 19.304463 39.535219 19.689453 39.574219 C 19.783653 39.574219 19.594243 39.133684 19.283203 38.583984 C 19.159181 38.366317 19.068087 38.141066 18.974609 37.916016 C 18.285497 37.121715 17.356609 35.800539 17.068359 35.080078 C 16.527163 33.726095 16.282749 32.591549 16.232422 31.0625 z "
       transform="translate(0,1004.3622)"
       id="path4189" />
  </g>
</svg>
