<?xml version="1.0" encoding="UTF-8" standalone="no"?>
<!-- Created with Inkscape (http://www.inkscape.org/) -->

<svg
   xmlns:dc="http://purl.org/dc/elements/1.1/"
   xmlns:cc="http://creativecommons.org/ns#"
   xmlns:rdf="http://www.w3.org/1999/02/22-rdf-syntax-ns#"
   xmlns:svg="http://www.w3.org/2000/svg"
   xmlns="http://www.w3.org/2000/svg"
   xmlns:sodipodi="http://sodipodi.sourceforge.net/DTD/sodipodi-0.dtd"
   xmlns:inkscape="http://www.inkscape.org/namespaces/inkscape"
   id="svg4951"
   height="48px"
   width="48px"
   version="1.1"
   inkscape:version="0.91 r13725"
   sodipodi:docname="crea.svg">
  <sodipodi:namedview
     pagecolor="#ffffff"
     bordercolor="#666666"
     borderopacity="1"
     objecttolerance="10"
     gridtolerance="10"
     guidetolerance="10"
     inkscape:pageopacity="0"
     inkscape:pageshadow="2"
     inkscape:window-width="1535"
     inkscape:window-height="876"
     id="namedview28"
     showgrid="false"
     inkscape:zoom="4.9166667"
     inkscape:cx="-10.779661"
     inkscape:cy="24"
     inkscape:window-x="65"
     inkscape:window-y="24"
     inkscape:window-maximized="1"
     inkscape:current-layer="svg4951" />
  <defs
     id="defs4953">
    <linearGradient
       id="linearGradient3189"
       y2="40.496"
       gradientUnits="userSpaceOnUse"
       x2="71.204"
       gradientTransform="matrix(1.617,0,0,1.617,-92.707,-21.06)"
       y1="15.369"
       x1="71.204">
      <stop
         id="stop4808-4"
         stop-color="#fff"
         offset="0" />
      <stop
         id="stop4810-0"
         stop-color="#fff"
         stop-opacity=".23529"
         offset=".42448" />
      <stop
         id="stop4812-8"
         stop-color="#fff"
         stop-opacity=".15686"
         offset=".82090" />
      <stop
         id="stop4814-0"
         stop-color="#fff"
         stop-opacity=".39216"
         offset="1" />
    </linearGradient>
    <radialGradient
       id="radialGradient3192"
       gradientUnits="userSpaceOnUse"
       cy="3.99"
       cx="23.896"
       gradientTransform="matrix(0,2.8885,-3.8128,0,39.213,-65.95)"
       r="20.397">
      <stop
         id="stop5352"
         stop-color="#5a7da5"
         offset="0" />
      <stop
         id="stop5354"
         stop-color="#13396b"
         offset="1" />
    </radialGradient>
    <radialGradient
       id="radialGradient3195"
       gradientUnits="userSpaceOnUse"
       cy="186.17"
       cx="99.157"
       gradientTransform="matrix(0.27083,0,0,0.087623,-2.8551,25.187)"
       r="62.769">
      <stop
         id="stop3822-2-6-3"
         stop-color="#3d3d3d"
         offset="0" />
      <stop
         id="stop3864-8-7-7"
         stop-color="#686868"
         stop-opacity=".49804"
         offset=".5" />
      <stop
         id="stop3824-1-2-5"
         stop-color="#686868"
         stop-opacity="0"
         offset="1" />
    </radialGradient>
  </defs>
  <metadata
     id="metadata4956">
    <rdf:RDF>
      <cc:Work
         rdf:about="">
        <dc:format>image/svg+xml</dc:format>
        <dc:type
           rdf:resource="http://purl.org/dc/dcmitype/StillImage" />
        <dc:title />
      </cc:Work>
    </rdf:RDF>
  </metadata>
  <path
     id="path2555-7-2"
     style="color:#000000;fill:url(#radialGradient3192)"
     d="M 24,3.5 C 12.689,3.5 3.5,12.6888 3.5,24 3.5,35.3112 12.6888,44.5 24,44.5 35.3112,44.5 44.5,35.3112 44.5,24 44.5,12.6888 35.311,3.5 24,3.5 Z"
     inkscape:connector-curvature="0" />
  <path
     id="path4176"
     style="color:#000000;opacity:0.3;fill:none;stroke:url(#linearGradient3189);stroke-linecap:round;stroke-linejoin:round"
     d="M 43.5,24 C 43.5,34.77 34.77,43.5 24,43.5 13.23,43.5 4.5,34.77 4.5,24 4.5,13.23 13.23,4.5 24,4.5 34.77,4.5 43.5,13.23 43.5,24 Z"
     inkscape:connector-curvature="0" />
  <path
     id="path3871"
     style="color:#000000;opacity:0.7;fill:none;stroke:#203860"
     d="M 24,3.5 C 12.689,3.5 3.5,12.689 3.5,24 3.5,35.311 12.689,44.5 24,44.5 35.311,44.5 44.5,35.311 44.5,24 44.5,12.689 35.311,3.5 24,3.5 Z"
     inkscape:connector-curvature="0" />
  <path
     id="rect4375"
     d="m 7.3099,20.034 26.486,-0.4 1.1045,0.45189 4.4093,0.23352 1.6364,8.999 -3.3862,0 -0.53181,-0.65237 -0.9409,0.65237 -28.859,0 -0.11444,-5.6644 z"
     inkscape:connector-curvature="0"
     style="fill:#ffffff" />
  <path
     id="path4373"
     d="m 23.415,42.951 c -0.04384,-0.02824 -0.15478,-0.05171 -0.24653,-0.05215 -0.09175,-3.53e-4 -0.22084,-0.04441 -0.28687,-0.0977 -0.10384,-0.0838 -0.19335,-0.09364 -0.6629,-0.07282 -0.60348,0.02675 -0.66216,-7.06e-4 -0.53293,-0.24981 0.04503,-0.0868 0.08188,-0.27392 0.08188,-0.41583 0,-0.53103 0.30104,-1.0184 0.62908,-1.0184 0.07437,0 0.16888,-0.07854 0.27091,-0.2251 0.31253,-0.44896 0.38655,-0.52644 0.44617,-0.46702 0.09529,0.09498 0.13538,0.06503 0.19163,-0.14315 0.09281,-0.34354 0.55408,-0.51355 0.71552,-0.26372 0.04235,0.06554 0.09418,0.2145 0.11518,0.33102 0.02099,0.11652 0.0945,0.27922 0.16335,0.36157 0.06885,0.08234 0.12518,0.19997 0.12518,0.2614 0,0.06143 0.05042,0.16518 0.11205,0.23056 0.08499,0.09016 0.12457,0.2317 0.16388,0.58601 0.02851,0.25693 0.03931,0.545 0.024,0.64017 -0.02122,0.13189 -8.86e-4,0.19808 0.08558,0.27835 0.16302,0.15137 0.07874,0.20377 -0.47063,0.29265 -0.54975,0.08894 -0.81304,0.09575 -0.92454,0.02394 z m 2.5483,-1.6218 c -0.02498,-0.06547 -0.10601,-0.12482 -0.19301,-0.14135 -0.30735,-0.0584 -0.63025,-0.15952 -0.69295,-0.217 -0.06569,-0.06023 -0.14013,-0.64109 -0.20337,-1.5869 -0.0343,-0.51307 -0.03304,-0.52108 0.07676,-0.48634 0.09519,0.03011 0.11187,0.01333 0.11325,-0.11391 0.0052,-0.47443 0.15244,-2.0264 0.20088,-2.1166 0.03157,-0.0588 0.09578,-0.13864 0.14268,-0.17744 0.11788,-0.09751 0.16152,-0.04513 0.58326,0.70011 0.5717,1.0102 0.7759,1.0445 0.98211,0.16466 0.03529,-0.15056 0.09609,-0.31727 0.13512,-0.37047 0.06827,-0.09306 0.07869,-0.09237 0.27472,0.01809 0.11207,0.06315 0.27802,0.21794 0.36878,0.34399 0.13843,0.19224 0.19016,0.22673 0.32106,0.21402 0.21413,-0.02079 0.34946,0.14157 0.49826,0.59775 0.06651,0.20391 0.16518,0.45381 0.21926,0.55533 0.05408,0.10152 0.09908,0.22069 0.09999,0.26482 8.86e-4,0.04413 0.06057,0.17556 0.13258,0.29208 0.13224,0.21399 0.16176,0.44487 0.0977,0.76409 -0.02692,0.13413 -0.08583,0.19455 -0.2905,0.29792 -0.14121,0.07132 -0.34567,0.12967 -0.45436,0.12967 -0.11611,0 -0.24286,0.03998 -0.30732,0.09693 -0.06034,0.05331 -0.21271,0.12618 -0.3386,0.16193 -0.28775,0.08171 -0.43536,0.22633 -0.43536,0.42654 0,0.16414 -0.07516,0.25505 -0.13332,0.16126 -0.03822,-0.06164 -0.3596,-0.0192 -0.53093,0.0701 -0.05845,0.03047 -0.22269,0.05724 -0.36496,0.05949 -0.21714,0.0034 -0.2656,-0.01403 -0.30173,-0.10876 z m -6.3484,-0.33853 c -0.13712,-0.15102 -0.12515,-0.41666 0.02422,-0.5372 0.25166,-0.2031 0.58751,-0.06042 0.58751,0.24959 0,0.34403 -0.39281,0.52872 -0.61173,0.28761 z m -2.992,-0.107 c -0.25002,-0.23215 -0.13108,-0.63095 0.21315,-0.71468 0.11154,-0.02713 0.17362,-0.0048 0.27898,0.10018 0.17772,0.17713 0.17979,0.41837 0.0051,0.59249 -0.15879,0.15826 -0.34176,0.16636 -0.49723,0.02201 z m 1.9865,-0.29302 c -0.11095,-0.11058 -0.10559,-0.25118 0.01367,-0.35875 0.12631,-0.11393 0.23715,-0.11098 0.34628,0.0092 0.24334,0.26799 -0.10367,0.60498 -0.35995,0.34955 z m 0.86932,-0.954 c -0.0944,-0.11337 5.31e-4,-0.26038 0.16818,-0.26038 0.1446,0 0.19916,0.1472 0.0991,0.26736 -0.08334,0.10008 -0.18023,0.09755 -0.26728,-0.007 z m -6.692,-0.04194 c 0,-0.01095 0.05752,-0.14952 0.12782,-0.30795 0.15153,-0.34151 0.35044,-1.2171 0.35044,-1.5426 0,-0.26224 0.03812,-0.32645 0.14253,-0.24008 0.11626,0.09617 0.15102,0.0051 0.13117,-0.34375 -0.04187,-0.73588 -0.04073,-0.75102 0.0557,-0.73507 0.06583,0.01089 0.09709,-0.03212 0.11546,-0.15889 0.01385,-0.09561 0.05095,-0.3315 0.08244,-0.5242 0.03149,-0.1927 0.05758,-0.44296 0.05798,-0.55612 0.0011,-0.3151 0.05099,-0.44408 0.17174,-0.44408 0.09709,0 0.10368,-0.02315 0.07164,-0.25158 -0.06784,-0.48369 -0.07227,-0.46343 0.1013,-0.46343 0.13482,0 0.15686,-0.01839 0.1428,-0.11917 -0.01258,-0.09012 0.0098,-0.11917 0.09198,-0.11917 0.07153,0 0.11999,-0.0452 0.14195,-0.13241 0.01834,-0.07283 0.0536,-0.13241 0.07836,-0.13241 0.10026,0 0.46314,0.28186 0.6986,0.54263 0.181,0.20046 0.26638,0.26119 0.30836,0.21935 0.04198,-0.04184 -0.02577,-0.15901 -0.2447,-0.42316 -0.38772,-0.4678 -0.69444,-0.93886 -0.97705,-1.5005 -0.44002,-0.87453 -0.53081,-0.95858 -0.8267,-0.76535 -0.14779,0.09651 -0.17011,0.20595 -0.05127,0.2514 0.05496,0.02102 0.07971,0.10656 0.07971,0.27544 0,0.19579 -0.02019,0.25022 -0.10058,0.27117 -0.05772,0.01504 -0.1134,0.09011 -0.13067,0.17615 -0.01654,0.08247 -0.07359,0.1637 -0.12677,0.18052 -0.05317,0.01682 -0.22752,0.15506 -0.38745,0.3072 -0.26851,0.25544 -0.31315,0.27798 -0.58304,0.29442 -0.16075,0.0098 -0.35992,0.02243 -0.44261,0.02808 -0.13059,0.0089 -0.15985,-0.01702 -0.22276,-0.19756 -0.04821,-0.13834 -0.05569,-0.23901 -0.02237,-0.30106 0.08628,-0.16068 0.05222,-0.23846 -0.04772,-0.10898 -0.14626,0.1895 -0.36707,0.13981 -0.54927,-0.12362 -0.08059,-0.11652 -0.14732,-0.25764 -0.14829,-0.31361 -8.86e-4,-0.05597 -0.0398,-0.14364 -0.08629,-0.19484 -0.0728,-0.08018 -0.07501,-0.1193 -0.01589,-0.28223 0.03774,-0.10403 0.09371,-0.1919 0.12437,-0.19526 0.03066,-0.0034 0.08001,-0.0093 0.10967,-0.01324 0.07208,-0.0095 0.48092,-0.33566 0.6895,-0.55001 0.09213,-0.09467 0.21483,-0.17213 0.27267,-0.17213 0.05784,0 0.12788,-0.02082 0.15565,-0.04627 0.02777,-0.02545 0.15031,-0.05869 0.27232,-0.07387 0.18546,-0.02307 0.24126,-0.007 0.34028,0.09806 l 0.11844,0.12566 0.20922,-0.1172 c 0.3474,-0.1946 0.34597,-0.23773 -0.02624,-0.79061 -0.35524,-0.52767 -0.46822,-0.59933 -0.70308,-0.44595 l -0.12567,0.08207 0.10251,0.21147 c 0.10163,0.20965 0.1016,0.21297 -0.0039,0.38545 -0.07882,0.12889 -0.14432,0.17398 -0.25276,0.17398 -0.12038,0 -0.14938,0.02601 -0.16327,0.14644 -0.01279,0.11084 -0.06331,0.16577 -0.20784,0.22596 -0.10502,0.04373 -0.23807,0.06461 -0.29567,0.04639 -0.06088,-0.01926 -0.21225,0.01706 -0.36155,0.08676 L 10.7711,31.15684 10.66471,31.0295 c -0.05851,-0.07004 -0.10718,-0.15966 -0.10816,-0.19914 -8.86e-4,-0.03949 -0.05991,-0.14067 -0.13098,-0.22485 -0.10358,-0.12269 -0.12049,-0.18199 -0.08524,-0.29894 0.08115,-0.26928 0.12695,-0.35697 0.26406,-0.50559 0.124,-0.13441 0.15932,-0.14478 0.3888,-0.1142 0.209,0.02785 0.25242,0.01922 0.25242,-0.05017 0,-0.0748 -0.22712,-0.0853 -2.1123,-0.09766 L 7.02101,29.5251 7.004802,25.4204 c -0.016597,-4.2011 0.00544,-5.2252 0.11567,-5.3755 0.034545,-0.04709 0.15526,-0.10639 0.26825,-0.13179 0.11299,-0.0254 1.2433,-0.06343 2.5119,-0.08451 l 2.3064,-0.03832 0.10385,-0.13158 c 0.13306,-0.1686 0.13216,-0.34016 -0.0024,-0.46156 -0.14683,-0.13244 -0.13299,-0.19287 0.03003,-0.1311 0.21041,0.07973 0.28725,0.06264 0.33999,-0.07561 0.0267,-0.07 0.07393,-0.1429 0.10496,-0.16202 0.03103,-0.01911 0.05642,-0.07162 0.05642,-0.11669 0,-0.04507 0.0546,-0.12474 0.12133,-0.17706 0.15365,-0.12046 0.38186,-0.59993 0.33878,-0.7118 -0.01792,-0.04654 -0.06814,-0.09822 -0.11161,-0.11485 -0.10693,-0.0409 -0.40164,0.17525 -0.40164,0.29457 0,0.16875 -0.13786,0.22963 -0.45974,0.20303 -0.3338,-0.02759 -0.46661,-0.13725 -0.42635,-0.35204 0.02824,-0.15067 -0.1908,-0.37061 -0.54112,-0.54334 l -0.23156,-0.11418 0.02116,-0.33118 c 0.01631,-0.25542 0.05564,-0.38077 0.17191,-0.54798 0.11552,-0.16614 0.14329,-0.25395 0.11885,-0.37576 -0.03883,-0.19351 0.14088,-0.53087 0.28279,-0.53087 0.05199,0 0.12235,-0.03341 0.15635,-0.07425 0.07885,-0.09469 0.30871,-0.15324 0.39204,-0.09986 0.07778,0.04983 0.21697,0.06701 0.70166,0.08661 0.20459,0.0083 0.41383,0.03134 0.46498,0.05127 0.05115,0.01993 0.12886,0.0474 0.1727,0.06105 0.04741,0.01476 0.07971,0.08866 0.07971,0.18237 0,0.10151 0.04092,0.18612 0.11505,0.23787 0.06328,0.04417 0.14595,0.1699 0.18372,0.27939 0.05804,0.16826 0.05668,0.21228 -0.0088,0.28436 -0.04259,0.04691 -0.07744,0.14621 -0.07744,0.22067 0,0.15028 -0.12732,0.25388 -0.43587,0.35467 -0.25172,0.08223 -0.31694,0.25035 -0.14954,0.38546 0.2667,0.21524 0.40436,0.09213 0.89967,-0.80465 0.17788,-0.32205 0.32341,-0.59574 0.32341,-0.6082 0,-0.01246 0.09565,-0.12287 0.21256,-0.24536 0.11691,-0.12249 0.21256,-0.26649 0.21256,-0.32001 0,-0.05352 0.03754,-0.09731 0.08342,-0.09731 0.10269,0 0.55168,-0.30241 0.58763,-0.3958 0.05177,-0.13446 0.7521,-0.56413 1.1369,-0.69749 0.32091,-0.11123 0.46381,-0.20142 0.78161,-0.49328 0.60517,-0.55577 1.0687,-0.74128 2.131,-0.85276 0.51574,-0.05413 0.60285,-0.07988 0.96544,-0.2854 0.50091,-0.28392 1.0749,-0.51337 1.3683,-0.54695 0.29924,-0.03425 0.65083,0.06682 1.0941,0.3145 0.1999,0.11169 0.41983,0.20306 0.48873,0.20306 0.0689,0 0.27758,-0.11321 0.46372,-0.25158 0.18615,-0.13837 0.45232,-0.32985 0.59149,-0.42552 0.22221,-0.15275 0.28514,-0.24309 0.51653,-0.74149 0.14492,-0.31215 0.32839,-0.69686 0.4077,-0.8549 l 0.14421,-0.28735 0.47826,-0.098304 c 0.73743,-0.15158 0.72462,-0.15295 0.8429,0.090409 0.07292,0.15004 0.10626,0.34322 0.11423,0.66204 0.0102,0.40756 0.03392,0.50034 0.25056,0.97982 0.16368,0.36225 0.27936,0.54935 0.36604,0.59201 0.3341,0.16442 2.3262,0.3139 2.4088,0.18074 0.0572,-0.09224 -0.03475,-0.21308 -0.26405,-0.34701 -0.12692,-0.07414 -0.24524,-0.18025 -0.26294,-0.23581 -0.04557,-0.1431 -0.25527,-0.26614 -0.6888,-0.40417 -0.55921,-0.17804 -0.19693,-0.16495 0.53569,0.01935 0.71977,0.18107 0.87691,0.26963 0.83971,0.47324 -0.02453,0.13429 0.01019,0.16848 0.45697,0.44992 0.76854,0.48413 0.60102,0.59225 -0.71991,0.46463 -0.66664,-0.06441 -1.8633,-0.24019 -2.0056,-0.29461 -0.39025,-0.14926 0.47155,0.83058 0.93141,1.059 0.14924,0.07412 0.33721,0.13477 0.41772,0.13477 0.65658,0 1.0478,0.30551 1.7592,1.3737 0.63068,0.94704 1.08,1.4863 1.2384,1.4863 0.14304,0 0.49065,-0.37776 0.5348,-0.58118 0.04902,-0.22589 0.06793,-0.26624 0.12478,-0.26624 0.03014,0 0.05481,0.04473 0.05481,0.0994 0,0.09038 0.05723,0.10143 0.63092,0.12182 0.57963,0.0206 0.65918,0.03629 0.97854,0.19299 0.33066,0.16224 0.67556,0.4711 0.67556,0.60497 0,0.03418 -0.10163,-0.03556 -0.22584,-0.15497 -0.12422,-0.11942 -0.29758,-0.25257 -0.38527,-0.29589 -0.39015,-0.19276 -1.2372,-0.26104 -1.5078,-0.12156 -0.19724,0.10166 -0.52716,0.47137 -0.56904,0.63766 -0.05299,0.21044 0.0067,0.34874 0.2978,0.68986 0.59274,0.69462 0.8892,1.129 1.2204,1.7882 l 0.34611,0.6889 2.2585,0.0061 c 2.7277,0.0073 2.5363,-0.03888 2.7034,0.65292 0.10774,0.44614 0.33668,1.6849 0.80385,4.3496 0.11919,0.67984 0.24161,1.4902 0.27205,1.8008 0.03044,0.31057 0.12516,0.92469 0.21049,1.3647 0.1791,0.92358 0.19515,1.246 0.06729,1.3518 -0.07009,0.058 -0.40566,0.07269 -1.6606,0.07269 -1.5087,0 -1.5814,-0.0046 -1.7853,-0.11401 -0.11691,-0.06271 -0.27053,-0.17592 -0.34139,-0.25158 -0.07086,-0.07566 -0.14898,-0.13756 -0.1736,-0.13756 -0.02462,0 -0.146,0.10392 -0.26972,0.23094 -0.17236,0.17695 -0.27823,0.23909 -0.45283,0.26577 -0.26086,0.03986 -0.32318,0.13461 -0.20198,0.30707 0.12125,0.17253 0.1054,0.35413 -0.07356,0.84285 -0.26388,0.72064 -0.72387,1.4743 -1.2495,2.0471 -0.31604,0.34442 -0.44937,0.41972 -0.82937,0.46839 -0.15801,0.02024 -0.42412,0.10497 -0.59134,0.1883 -0.16722,0.08333 -0.31793,0.1515 -0.3349,0.1515 -0.01697,0 -0.20771,-0.16684 -0.42386,-0.37074 -0.21615,-0.20391 -0.43287,-0.37074 -0.4816,-0.37074 -0.08195,0 -0.08216,0.0098 -0.0028,0.13054 0.19679,0.29934 0.04368,0.39462 -0.20979,0.13056 -0.08584,-0.08943 -0.23448,-0.21097 -0.33031,-0.27008 l -0.176,-0.106 -0.29,0.222 c -0.15912,0.12235 -0.43941,0.36102 -0.62286,0.53038 -0.28724,0.26516 -0.32524,0.32141 -0.27368,0.40512 0.06098,0.09902 0.18444,0.11002 0.46189,0.04119 0.1245,-0.03089 0.18056,-0.0074 0.33212,0.13899 0.30051,0.29029 0.21621,0.53211 -0.10134,0.29071 -0.09792,-0.07444 -0.20311,-0.13534 -0.23376,-0.13534 -0.15932,0 -0.08379,0.19661 0.25417,0.66167 0.49854,0.68603 0.545,0.77965 0.4501,0.90697 -0.10458,0.1403 -0.19564,0.07323 -0.62554,-0.46071 -0.2029,-0.25201 -0.39931,-0.44589 -0.45169,-0.44589 -0.14936,0 -0.14389,0.25703 0.01109,0.52058 0.11885,0.20213 0.12665,0.24163 0.05882,0.29774 -0.10634,0.08796 -0.16476,0.04124 -0.34918,-0.27925 -0.18765,-0.32609 -0.1957,-0.45616 -0.04718,-0.76194 l 0.11163,-0.22983 -0.1409,-0.18412 c -0.0775,-0.10127 -0.16667,-0.18412 -0.19816,-0.18412 -0.1026,0 -0.59793,0.30675 -0.74854,0.46357 l -0.14695,0.153 0.29309,0.5952 c 0.30307,0.61548 0.33363,0.71665 0.23485,0.7775 -0.08453,0.05207 -0.20238,-0.08573 -0.41677,-0.48736 -0.10408,-0.19498 -0.21315,-0.35144 -0.24238,-0.34769 -0.02923,0.0037 -0.0651,0.08331 -0.07971,0.17681 -0.03444,0.22039 -0.14346,0.25365 -0.21518,0.06564 -0.04376,-0.11471 -0.03661,-0.19955 0.03187,-0.37827 0.04856,-0.12672 0.07596,-0.24267 0.0609,-0.25768 -0.01506,-0.01501 -0.19978,0.04813 -0.41049,0.1403 -0.60151,0.26313 -1.1461,0.40536 -1.9166,0.50054 -0.95204,0.11761 -1.547,0.21949 -2.0783,0.35588 -0.35504,0.09114 -0.6011,0.11356 -1.2645,0.11521 -0.89038,0.0022 -1.4183,-0.06419 -2.7101,-0.34092 -1.0719,-0.22961 -1.0547,-0.22729 -1.143,-0.15429 -0.16105,0.13321 -0.09205,0.21145 0.18648,0.21145 0.14614,0 0.2657,0.0196 0.2657,0.04356 0,0.04972 0.40962,0.32719 0.48303,0.32719 0.10442,0 0.04053,0.11155 -0.09776,0.17068 -0.30157,0.12895 -0.43841,0.25576 -0.43841,0.40629 0,0.08731 -0.05343,0.19608 -0.13285,0.27044 -0.07307,0.06842 -0.13285,0.17613 -0.13285,0.23936 0,0.06323 -0.05126,0.16037 -0.11392,0.21586 -0.20218,0.17906 -0.5769,0.72778 -0.5769,0.84477 0,0.06248 -0.05113,0.15901 -0.11362,0.2145 -0.1609,0.14289 -0.25836,0.40174 -0.25836,0.68621 0,0.30819 -0.07623,0.29221 -0.28446,-0.05963 -0.24408,-0.4124 -0.41868,-0.9203 -0.38249,-1.1126 0.02078,-0.1104 -0.0056,-0.25343 -0.07778,-0.42118 -0.0753,-0.17509 -0.09215,-0.27105 -0.05424,-0.30884 0.05716,-0.05697 0.07697,-0.24549 0.0258,-0.24549 -0.13451,0 -0.37444,0.2186 -0.58282,0.53101 -0.13734,0.20591 -0.27553,0.36581 -0.30707,0.35533 -0.03155,-0.01048 -0.09073,-0.11886 -0.13153,-0.24084 -0.08584,-0.25667 -0.13884,-0.27004 -0.35759,-0.09019 -0.15907,0.13078 -0.15915,0.13114 -0.03768,0.16537 0.16422,0.04627 0.12109,0.14061 -0.09214,0.20156 -0.09605,0.02746 -0.33333,0.19465 -0.5273,0.37154 -0.19397,0.17689 -0.42332,0.37657 -0.50967,0.44374 -0.1367,0.10632 -0.14856,0.13559 -0.09173,0.2263 0.0737,0.11762 0.10327,0.0995 -0.38134,0.23372 -0.21304,0.059 -0.31952,0.11731 -0.33719,0.18466 -0.0268,0.10214 -0.15803,0.16843 -0.52054,0.26294 -0.20602,0.05372 -0.55797,0.0765 -0.55797,0.03612 z m 3.215,-2.999 c 0.01806,-0.02913 0.0075,-0.05296 -0.02343,-0.05296 -0.03095,0 -0.05628,0.02383 -0.05628,0.05296 0,0.02913 0.01054,0.05296 0.02343,0.05296 0.0129,0 0.03821,-0.02383 0.05628,-0.05296 z m 2.42,-1.1652 c 0.02202,-0.16697 -0.01206,-0.20018 -0.35419,-0.3451 -0.26205,-0.111 -0.37415,-0.13526 -0.43841,-0.09486 -0.15322,0.09633 -0.09425,0.19463 0.1528,0.25473 0.18009,0.04381 0.23916,0.08329 0.23926,0.15992 1.59e-4,0.13564 0.24024,0.25955 0.32773,0.16916 0.03429,-0.03542 0.06705,-0.10015 0.07281,-0.14385 z m -1.225,-0.602 c 0,-0.04197 -0.17056,-0.13435 -0.40621,-0.22001 -0.41715,-0.15164 -0.55675,-0.14233 -0.59273,0.03953 -0.01981,0.10015 0.44425,0.2321 0.53942,0.15337 0.03991,-0.03301 0.10755,-0.02516 0.19397,0.02251 0.17061,0.09411 0.26554,0.09575 0.26554,0.0046 z m -2.1787,-0.8249 c 0,-0.02741 -0.02391,-0.06457 -0.05314,-0.08257 -0.02923,-0.018 -0.05314,0.0044 -0.05314,0.04984 0,0.04541 0.02391,0.08257 0.05314,0.08257 0.02923,0 0.05314,-0.02243 0.05314,-0.04984 z m -1.4737,-2.4678 c 0.22517,-0.1525 0.24239,-0.2432 0.09263,-0.488 -0.11849,-0.19369 -0.15697,-0.2038 -0.36579,-0.09618 -0.24029,0.12384 -0.27926,0.19947 -0.19057,0.36984 0.04263,0.0819 0.07752,0.19386 0.07752,0.24879 0,0.13959 0.14884,0.12632 0.38622,-0.03445 z m 1.1794,-2.4662 c 0.03055,-0.02925 0.05192,-0.73547 0.05314,-1.7564 0.0019,-1.6038 -0.0044,-1.7203 -0.10424,-1.9193 -0.07821,-0.1559 -0.17646,-0.24654 -0.37198,-0.34317 -0.25717,-0.1271 -0.29982,-0.13118 -1.3285,-0.12711 -1.1536,0.0046 -1.337,0.04048 -1.6288,0.31909 -0.20106,0.19194 -0.32641,0.1478 -0.3865,-0.13609 -0.06293,-0.29732 0.03126,-0.98875 0.15095,-1.108 0.11586,-0.11547 0.25092,-0.02994 0.32958,0.20871 0.09933,0.30138 0.19184,0.32173 1.2956,0.28501 1.5868,-0.05278 1.9174,-0.13291 2.0166,-0.48879 0.06127,-0.21988 0.0758,-2.3129 0.02136,-3.0772 l -0.03455,-0.48512 -0.271,-0.08868 c -0.23295,-0.07623 -0.61006,-0.09166 -2.6857,-0.1099 -2.8434,-0.02498 -4.1273,0.03362 -4.2599,0.19443 -0.11358,0.13771 -0.14321,0.74331 -0.18677,3.8181 -0.039292,2.7731 0.00457,4.6019 0.11394,4.751 0.047924,0.06532 0.17404,0.10574 0.40607,0.13015 0.49863,0.05244 6.8103,-0.0089 6.8708,-0.06676 z m 4.5606,-0.19333 c 0.10777,-0.1675 0.25445,-0.37604 0.32596,-0.46343 0.12332,-0.1507 0.13483,-0.15418 0.22339,-0.06755 0.05136,0.05024 0.17853,0.25282 0.28261,0.45019 l 0.18924,0.35885 1.4409,0.01408 c 1.2622,0.01233 1.4495,0.0037 1.5108,-0.06996 0.05891,-0.07075 0.02525,-0.26561 -0.21288,-1.2322 -0.15557,-0.63151 -0.34195,-1.3563 -0.41418,-1.6107 -0.07413,-0.26108 -0.11727,-0.51833 -0.09904,-0.5907 0.02124,-0.08435 0.18744,-0.23324 0.48594,-0.43533 0.26141,-0.17698 0.46396,-0.3531 0.47798,-0.41561 0.01337,-0.05966 0.0066,-1.0618 -0.01497,-2.227 l -0.0393,-2.1185 -1.4082,-0.04064 c -0.77452,-0.02235 -2.4029,-0.03427 -3.6187,-0.02648 -1.8297,0.01172 -2.2264,0.02728 -2.3026,0.09036 -0.08618,0.07134 -0.09072,0.33492 -0.07123,4.1312 0.01788,3.4835 0.03232,4.0848 0.10239,4.2668 l 0.08157,0.21185 0.49968,0.02958 c 0.27482,0.01627 0.9193,0.03415 1.4322,0.03972 l 0.93249,0.01014 0.19594,-0.30454 z m 0.30922,-5.2995 c -0.0906,-0.16872 -0.13064,-0.91212 -0.0626,-1.162 0.06408,-0.23538 0.2244,-0.31333 0.29063,-0.14132 0.04271,0.11094 0.03154,1.0727 -0.01437,1.2364 -0.04657,0.16611 -0.14403,0.19666 -0.21367,0.06698 z m 12.484,5.4152 c 0.0285,-0.07472 0.05182,-0.46014 0.05182,-0.85649 0,-0.83324 -0.01697,-0.87089 -0.44776,-0.99362 -0.1483,-0.04225 -0.80768,-0.12517 -1.4653,-0.18426 -1.382,-0.12419 -1.5942,-0.15276 -1.5942,-0.21466 0,-0.09195 0.133,-0.11637 1.0242,-0.18802 1.334,-0.10726 1.7307,-0.1694 2.0455,-0.32042 0.43592,-0.20908 0.45424,-0.27242 0.42576,-1.4721 -0.01621,-0.68256 -0.0467,-1.0574 -0.09399,-1.1553 C 31.98334,23.52386 31.8521,23.41329 31.715,23.34714 31.49766,23.24228 31.35538,23.22838 30.1157,23.19096 28.67,23.14732 28.4176,23.1196 28.3713,22.99939 c -0.06831,-0.17744 0.0797,-0.20044 1.4622,-0.22724 1.5435,-0.02993 1.5797,-0.0386 2.0519,-0.4912 0.21808,-0.20904 0.23603,-0.24776 0.27206,-0.58677 0.04728,-0.44484 -0.007,-1.0265 -0.11042,-1.1841 -0.15711,-0.23944 -0.33224,-0.2517 -3.6109,-0.25271 -1.6952,-5.29e-4 -3.1957,0.01838 -3.3344,0.042 -0.17494,0.02978 -0.27268,0.07849 -0.31884,0.15889 -0.05139,0.08952 -0.07015,1.0636 -0.08228,4.2735 -0.0086,2.2867 -0.0022,4.2112 0.01429,4.2768 l 0.03002,0.1192 3.6404,0 3.6404,0 0.05182,-0.13586 z m 3.4988,0.03031 c 0.73946,-4.24e-4 0.66961,0.03368 1.0855,-0.53001 0.24959,-0.33828 0.37366,-0.32463 0.64729,0.07121 0.11768,0.17025 0.25999,0.33464 0.31624,0.36531 0.24458,0.13336 2.5053,0.159 2.754,0.03123 0.16133,-0.08286 0.12281,-0.42425 -0.36048,-3.1954 -0.15749,-0.90303 -0.42008,-2.4506 -0.58353,-3.439 -0.16345,-0.98844 -0.30714,-1.8132 -0.31931,-1.8328 -0.03582,-0.05777 -1.0746,-0.10426 -2.4457,-0.10947 -1.5027,-0.0057 -1.6129,0.01835 -1.7759,0.38774 -0.05508,0.12479 -0.16249,0.60822 -0.23867,1.0743 -0.07618,0.46608 -0.2087,1.2049 -0.29448,1.6419 -0.18539,0.94436 -0.34916,1.9354 -0.39738,2.4047 -0.01917,0.18653 -0.12592,0.79428 -0.23722,1.3506 -0.26621,1.3305 -0.28861,1.5203 -0.19451,1.6485 0.08951,0.12201 0.52144,0.1855 1.0417,0.15313 0.18998,-0.01182 0.6411,-0.02166 1.0025,-0.02187 z m 1.3082,-4.4361 c -0.02135,-0.05098 -0.04997,-0.33102 -0.06359,-0.62232 -0.01914,-0.40947 -0.0073,-0.55262 0.05202,-0.63093 0.20029,-0.26421 0.34585,0.14371 0.2891,0.81019 -0.03469,0.40738 -0.07551,0.53574 -0.17037,0.53574 -0.03759,0 -0.08581,-0.04171 -0.10716,-0.09269 z m -23.899,-6.9912 c 0.03173,-0.09603 -0.14773,-0.14942 -0.20408,-0.06071 -0.02583,0.04066 -0.04733,0.09345 -0.04778,0.11733 -0.0012,0.06848 0.22752,0.01704 0.25186,-0.05662 z M 13.10485,16.996 c 0,-0.1105 -0.07818,-0.13801 -0.13442,-0.0473 -0.0482,0.07774 0.01601,0.22304 0.08091,0.18307 0.02943,-0.01813 0.05351,-0.07922 0.05351,-0.13577 z m 0.15942,-0.2913 c 0,-0.04541 -0.02391,-0.06784 -0.05314,-0.04984 -0.02923,0.018 -0.05314,0.05516 -0.05314,0.08257 0,0.02741 0.02391,0.04984 0.05314,0.04984 0.02923,0 0.05314,-0.03716 0.05314,-0.08257 z m 7.6825,22.023 c -0.17887,-0.01381 -0.31078,-0.06118 -0.41591,-0.14934 -0.08468,-0.07102 -0.18321,-0.12912 -0.21897,-0.12912 -0.16093,0 -0.18648,-0.11733 -0.0827,-0.37975 0.0565,-0.14285 0.10272,-0.36337 0.10272,-0.49003 0,-0.12666 0.03878,-0.34996 0.08617,-0.49622 0.07357,-0.22704 0.13518,-0.30106 0.42134,-0.50624 0.42302,-0.30331 0.75638,-0.47388 0.85351,-0.43674 0.04145,0.01585 0.09665,0.08463 0.12266,0.15283 0.02602,0.06821 0.1219,0.24124 0.21307,0.38453 0.09117,0.14328 0.1914,0.35538 0.22272,0.47132 0.03132,0.11594 0.10357,0.26987 0.16055,0.34207 0.08749,0.11086 0.10124,0.20074 0.08841,0.57815 -0.01323,0.38953 -0.0289,0.45262 -0.122,0.49161 -0.13883,0.05813 -0.96952,0.20907 -1.0825,0.19669 -0.04792,-0.0052 -0.205,-0.01865 -0.34908,-0.02977 z m 11.344,-0.46092 c -0.03505,-0.04209 -0.05591,-0.13147 -0.04636,-0.19861 0.02393,-0.16822 0.27803,-0.20046 0.36107,-0.04581 0.1202,0.22385 -0.15431,0.43705 -0.31471,0.24442 z m -1.665,-1.281 c -0.07522,-0.07497 -0.03266,-0.17765 0.07364,-0.17765 0.07429,0 0.10458,0.02876 0.093,0.0883 -0.01897,0.09748 -0.10968,0.14612 -0.16664,0.08935 z m 3.1595,-0.09615 c -0.45852,-0.1459 -0.72373,-0.54444 -0.68819,-1.0342 0.0309,-0.42572 0.36126,-0.87341 0.36204,-0.49061 8.85e-4,0.46427 0.38841,0.99605 0.83666,1.1483 0.13463,0.04572 0.28835,0.08313 0.3416,0.08313 0.1602,0 0.10904,0.15921 -0.07589,0.23618 -0.28153,0.11719 -0.53007,0.13549 -0.77621,0.05717 z m -1.6639,-0.57142 c -0.12724,-0.10218 -0.15012,-0.22845 -0.0637,-0.35142 0.13606,-0.19361 0.44467,-0.11696 0.44467,0.11044 0,0.09602 -0.17567,0.30719 -0.25554,0.30719 -0.02364,0 -0.08008,-0.02979 -0.12542,-0.06621 z m 2.9583,-0.78121 c -0.02121,-0.03421 -0.01465,-0.08603 0.01458,-0.11516 0.03543,-0.03531 0.066,-0.03223 0.09171,0.0092 0.02121,0.03421 0.01465,0.08603 -0.01458,0.11516 -0.03543,0.03531 -0.066,0.03223 -0.09171,-0.0092 z m 0.83231,-1.1058 c -0.03909,-0.0247 -0.063,-0.10179 -0.05314,-0.17132 0.01341,-0.09456 0.05123,-0.12642 0.15006,-0.12642 0.15026,0 0.20702,0.14471 0.10489,0.26736 -0.07348,0.08825 -0.10313,0.09271 -0.20181,0.03038 z m -23.814,-15.102 c 0,-0.02913 0.02532,-0.05296 0.05628,-0.05296 0.03095,0 0.0415,0.02383 0.02343,0.05296 -0.01806,0.02913 -0.04339,0.05296 -0.05628,0.05296 -0.0129,0 -0.02343,-0.02383 -0.02343,-0.05296 z m 22.989,-0.25597 c -0.07627,-0.12299 0.38069,-0.67439 0.47828,-0.57713 0.06528,0.06506 -0.03365,0.29688 -0.19557,0.45826 -0.16812,0.16756 -0.23507,0.19571 -0.28271,0.11887 z m 2.7275,-0.1457 c -0.09321,-0.11193 -1.77e-4,-0.26038 0.16312,-0.26038 0.16333,0 0.25632,0.14844 0.16312,0.26038 -0.03842,0.04614 -0.11182,0.08388 -0.16312,0.08388 -0.0513,0 -0.1247,-0.03775 -0.16312,-0.08388 z m -1.6018,-0.14987 c -0.24709,-0.08792 -0.56428,-0.34652 -0.56936,-0.4642 -0.0052,-0.1199 0.50939,-0.19028 0.69383,-0.09489 0.12939,0.06692 0.57105,0.5231 0.57532,0.59424 0.0039,0.06516 -0.48719,0.0405 -0.69978,-0.03514 z m -1.289,-1.069 c -0.09698,-0.09666 -0.0863,-0.17404 0.03448,-0.24997 0.11522,-0.07243 0.25648,-0.0062 0.25648,0.12029 0,0.15628 -0.18261,0.23767 -0.29095,0.12968 z m 1.7649,-0.08643 c -0.21763,-0.16471 -0.22214,-0.56977 -0.0079,-0.70968 0.2389,-0.15601 0.6596,0.07539 0.6596,0.3628 0,0.11847 -0.09584,0.3161 -0.18066,0.37255 -0.09318,0.06201 -0.37552,0.04663 -0.47104,-0.02567 z m -2.5415,-0.40372 c -0.14003,-0.11301 -0.16366,-0.44588 -0.0401,-0.56483 0.13647,-0.13137 0.43055,-0.11686 0.57634,0.02845 0.15291,0.1524 0.13757,0.39149 -0.03374,0.52579 -0.17375,0.13622 -0.34243,0.13978 -0.5025,0.01059 z m 1.3983,-0.98958 c -0.13011,-0.09083 -0.16003,-0.33125 -0.05434,-0.4366 0.03507,-0.03496 0.12594,-0.06356 0.20193,-0.06356 0.17778,0 0.2657,0.09014 0.2657,0.27241 0,0.12583 -0.15792,0.31019 -0.2657,0.31019 -0.01622,0 -0.08264,-0.0371 -0.1476,-0.08245 z m 1.2754,-0.15889 c -0.21524,-0.15026 -0.08861,-0.50015 0.18101,-0.50015 0.24475,0 0.32529,0.35278 0.11419,0.50015 -0.06496,0.04535 -0.13138,0.08245 -0.1476,0.08245 -0.01622,0 -0.08264,-0.0371 -0.1476,-0.08245 z m -3.5477,-0.58159 c 0.04182,-0.1385 0.09667,-0.27238 0.12188,-0.2975 0.09867,-0.09835 0.91722,-0.40408 0.94818,-0.35416 0.01768,0.02852 -0.03667,0.16279 -0.12078,0.29839 -0.17045,0.27478 -0.51929,0.51519 -0.82685,0.56983 l -0.19847,0.03526 0.07604,-0.25182 z m -0.63562,0.01989 c -0.38023,-0.20867 -0.61111,-0.64074 -0.61111,-1.1436 0,-0.30029 0.06132,-0.28419 0.41752,0.10964 0.31225,0.34524 0.35027,0.42207 0.40454,0.81747 0.04096,0.29846 0.0052,0.33514 -0.21094,0.21651 z m -21.72,-0.403 c -0.16835,-0.03594 -0.24377,-0.27281 -0.21484,-0.67476 0.02236,-0.31073 0.04779,-0.38784 0.15876,-0.48144 0.12434,-0.10488 0.12833,-0.1241 0.06766,-0.32591 -0.17776,-0.59132 0.28132,-1.1026 0.86983,-0.96881 0.11174,0.02541 0.2483,0.08691 0.30347,0.13667 0.07761,0.07 0.15294,0.08261 0.3329,0.05571 0.13634,-0.02038 0.29664,-0.0096 0.38735,0.02613 0.08512,0.03349 0.2245,0.06417 0.30975,0.06816 0.26261,0.01231 0.21243,0.11928 -0.1978,0.42165 -0.52131,0.38425 -1.0421,0.87424 -1.4231,1.339 -0.30554,0.37268 -0.40918,0.4431 -0.594,0.40365 z m -1.3737,-0.369 c -0.1357,-0.35 -0.1208,-0.451 0.1033,-0.699 0.19539,-0.21669 0.22327,-0.23075 0.34658,-0.17476 0.19812,0.08997 0.25633,0.2306 0.16671,0.40276 -0.10036,0.19282 -0.45232,0.61672 -0.51204,0.61672 -0.02643,0 -0.073475,-0.06554 -0.10454,-0.14565 z m 5.8616,-0.1761 c 0.01047,-0.03132 0.04176,-0.05694 0.06953,-0.05694 0.02777,0 0.05905,0.02562 0.06953,0.05694 0.01047,0.03131 -0.02081,0.05693 -0.06953,0.05693 -0.04871,0 -0.08,-0.02562 -0.06953,-0.05693 z m 18.238,0.0164 C 33.57277,14.52966 33.4627,14.32913 33.4627,14.2475 c 0,-0.08887 0.24914,-0.31886 0.34541,-0.31886 0.14971,0 0.35648,0.25195 0.31586,0.38487 -0.07731,0.25292 -0.30699,0.37867 -0.48061,0.26312 z m -17.575,-0.948 c -0.01948,-0.01942 -0.03543,-0.09384 -0.03543,-0.16538 0,-0.10961 0.01254,-0.1197 0.07971,-0.06413 0.04384,0.03626 0.07971,0.11068 0.07971,0.16538 0,0.0999 -0.058,0.1299 -0.12399,0.06413 z m 3.3938,-0.98652 c -0.02275,-0.05223 -0.02645,-0.10983 -0.0082,-0.128 0.05396,-0.05378 0.09746,0.02176 0.07263,0.12613 -0.02202,0.09252 -0.02488,0.09261 -0.0644,0.0019 z m -3.7702,-0.23039 c -0.01843,-0.04786 -0.02258,-0.09792 -0.0092,-0.11123 0.04223,-0.04209 0.13764,0.04243 0.13764,0.12194 0,0.10389 -0.08709,0.09663 -0.12842,-0.01071 z m 2.13,-0.05421 c -0.01948,-0.01942 -0.03543,-0.08192 -0.03543,-0.13889 0,-0.08607 0.01348,-0.09244 0.07971,-0.03765 0.04384,0.03626 0.07971,0.09877 0.07971,0.13889 0,0.07717 -0.06464,0.0968 -0.12399,0.03765 z m 0.8142,-0.6014 c -0.04308,-0.08022 -0.04532,-0.13315 -0.0072,-0.17109 0.03807,-0.03794 0.06622,-0.01084 0.09101,0.0876 0.04627,0.18374 -0.0034,0.23322 -0.08377,0.08349 z m 2.2325,-0.1079 c 0,-0.05998 0.02391,-0.09432 0.05314,-0.07632 0.02923,0.018 0.05314,0.06708 0.05314,0.10905 0,0.04198 -0.02391,0.07632 -0.05314,0.07632 -0.02923,0 -0.05314,-0.04907 -0.05314,-0.10905 z m -7.0459,-0.08274 c 0.02078,-0.05396 -0.0166,-0.13175 -0.10059,-0.20933 -0.20391,-0.18835 -0.19829,-0.4483 0.01454,-0.67236 0.138,-0.14529 0.1384,-0.14809 0.04407,-0.30725 -0.07523,-0.12694 -0.08738,-0.21838 -0.0579,-0.43597 0.02051,-0.15144 0.05896,-0.31641 0.08543,-0.36661 0.02647,-0.050194 0.07203,-0.21688 0.10124,-0.37042 0.02955,-0.15531 0.13166,-0.39705 0.23014,-0.5449 0.5014,-0.75265 1.3708,-0.85225 2.3369,-0.26771 0.39845,0.24107 0.51288,0.28422 0.51288,0.1934 0,-0.091385 0.46694,-0.52659 0.68269,-0.63629 0.3932,-0.19993 0.59941,-0.14553 1.0563,0.27864 l 0.17134,0.15908 0.18103,-0.097165 c 0.16197,-0.086936 0.20734,-0.089825 0.43092,-0.027433 0.16102,0.044932 0.28966,0.12335 0.36173,0.2205 0.13977,0.18842 0.17357,0.188 0.33585,-0.00422 0.22994,-0.27236 0.506,-0.26354 0.8188,0.02616 0.07307,0.067671 0.2285,0.15413 0.34541,0.19214 0.15384,0.050015 0.23744,0.11877 0.30262,0.2489 0.04953,0.098888 0.11529,0.20495 0.14614,0.23569 0.03084,0.03074 0.05608,0.083132 0.05608,0.11643 0,0.085098 -0.80372,0.22024 -2.6836,0.45123 -0.54918,0.067481 -1.7635,0.33081 -2.169,0.47036 -0.32234,0.11092 -1.1653,0.49182 -2.3046,1.0414 -0.44657,0.21541 -0.83885,0.39165 -0.87172,0.39165 -0.03329,0 -0.04512,-0.03805 -0.02671,-0.08587 z m 14.139,-0.71071 c -0.02241,-0.03613 0.01766,-0.04268 0.11643,-0.01903 0.2036,0.04875 0.22287,0.07412 0.0563,0.07412 -0.07621,0 -0.15394,-0.02479 -0.17273,-0.05509 z m -9.0407,-0.13257 c -0.04303,-0.11177 0.02879,-0.17212 0.09002,-0.07563 0.06505,0.10252 0.06375,0.15736 -0.0037,0.15736 -0.03014,0 -0.06897,-0.03678 -0.08628,-0.08173 z m 4.0153,-0.0904 c -0.1872,-0.09467 -0.34037,-0.20414 -0.34037,-0.24326 0,-0.03912 0.09565,-0.11031 0.21256,-0.15819 0.24139,-0.09887 1.3177,-0.12215 1.5942,-0.03448 0.13273,0.04209 0.0749,0.05511 -0.34541,0.07773 -0.46014,0.02477 -0.50483,0.03654 -0.50483,0.133 0,0.0681 0.07099,0.14362 0.19913,0.21185 0.10952,0.05832 0.1992,0.1239 0.19928,0.14575 5.3e-5,0.02185 -0.15158,0.03972 -0.33702,0.03972 -0.27514,0 -0.39977,-0.03166 -0.67754,-0.17213 z m 2.9809,-1.2803 c 0,-0.1269 0.05791,-0.25693 0.19296,-0.43326 0.26476,-0.34569 0.16763,-0.47805 -0.36132,-0.49238 -0.24312,-0.00659 -0.36304,0.037285 -0.36304,0.1328 0,0.099501 -0.18286,0.09382 -0.26791,-0.00832 -0.05641,-0.067747 -0.05328,-0.097139 0.0179,-0.16808 0.06552,-0.065301 0.22417,-0.091509 0.65969,-0.10897 0.52815,-0.021173 0.58496,-0.013877 0.71956,0.092481 0.21838,0.17256 0.18471,0.29929 -0.1727,0.65003 -0.17536,0.17209 -0.31884,0.35882 -0.31884,0.41496 0,0.056136 -0.02391,0.10206 -0.05314,0.10206 -0.02923,0 -0.05314,-0.081592 -0.05314,-0.18132 z m 0.47826,0.034696 c 0,-0.13415 0.2189,-0.40244 0.42955,-0.52646 0.36683,-0.21597 0.22741,-0.47631 -0.36104,-0.67419 -0.5651,-0.19003 -1.1392,-0.50264 -1.2328,-0.67132 -0.06362,-0.11459 -0.06528,-0.16617 -0.0097,-0.29997 0.06713,-0.16152 0.2683,-0.27588 0.762,-0.43318 0.23756,-0.075688 0.35886,-0.23023 0.35886,-0.4572 0,-0.21558 -0.14799,-0.3979 -0.53634,-0.66074 -0.233,-0.1576 -0.314,-0.2444 -0.314,-0.3364 0,-0.17204 0.08257,-0.22448 0.46094,-0.29277 0.27281,-0.049233 0.38784,-0.044253 0.68267,0.029561 0.50931,0.12751 0.82767,0.43187 0.66103,0.63198 -0.1291,0.15504 -0.63556,0.063761 -0.63556,-0.11454 0,-0.063325 0.03599,-0.073911 0.15942,-0.046892 0.27446,0.06008 0.19043,-0.1095 -0.13222,-0.26683 -0.4311,-0.21022 -0.57378,-0.10043 -0.34627,0.26646 0.10313,0.16632 0.17062,0.21855 0.8094,0.62645 0.37657,0.24046 0.54454,0.52497 0.4922,0.83371 -0.03818,0.22526 -0.28052,0.59423 -0.44947,0.68435 -0.17177,0.091625 -0.12842,0.1842 0.18267,0.39007 0.34097,0.22564 0.47738,0.44128 0.40281,0.63678 -0.05811,0.15234 -0.43233,0.38721 -0.69708,0.43751 -0.20908,0.039724 -0.459,0.15432 -0.59418,0.27245 -0.08489,0.074186 -0.093,0.071676 -0.093,-0.028805 z m -0.948,-0.751 c 0.02283,-0.068277 0.09572,-0.080542 0.1023,-0.017213 0.0022,0.021118 -0.02471,0.047932 -0.05978,0.059584 -0.03507,0.011652 -0.0542,-0.00741 -0.04251,-0.042371 z"
     inkscape:connector-curvature="0"
     style="fill:#89bd58" />
  <path
     id="path4503"
     d="m 11.788,20.234 c -2.8434,-0.02498 -4.1271,0.03255 -4.2598,0.19336 -0.11358,0.13771 -0.14393,0.74354 -0.1875,3.8184 -0.03929,2.7731 0.0059,4.6029 0.11523,4.752 0.04792,0.06532 0.17422,0.1045 0.40625,0.12891 0.49863,0.05244 6.8087,-0.0085 6.8691,-0.06641 0.03055,-0.02925 0.05347,-0.73495 0.05469,-1.7559 0.0019,-1.6038 -0.0056,-1.7209 -0.10547,-1.9199 -0.07821,-0.1559 -0.17557,-0.24516 -0.37109,-0.3418 -0.25717,-0.1271 -0.29944,-0.13298 -1.3281,-0.12891 -1.1536,0.0046 -1.3371,0.0417 -1.6289,0.32031 -0.20106,0.19194 -0.32663,0.14717 -0.38672,-0.13672 -0.06293,-0.29732 0.03071,-0.98814 0.15039,-1.1074 0.11586,-0.11547 0.25142,-0.02967 0.33008,0.20898 0.09933,0.30138 0.19111,0.32187 1.2949,0.28516 1.5868,-0.05278 1.9184,-0.13436 2.0176,-0.49023 0.06127,-0.21988 0.07592,-2.3118 0.02148,-3.0762 L 14.74498,20.43132 14.4735,20.34343 C 14.24055,20.2672 13.86363,20.25229 11.788,20.23405 Z m 16.656,0.01367 c -1.6952,-5.29e-4 -3.1952,0.01935 -3.334,0.04297 -0.17494,0.02978 -0.2722,0.0778 -0.31836,0.1582 -0.05139,0.08952 -0.07185,1.0635 -0.08398,4.2734 -0.0086,2.2867 -8.65e-4,4.2118 0.01563,4.2773 l 0.0293,0.11914 3.6406,0 3.6406,0 0.05078,-0.13672 c 0.0285,-0.07472 0.05273,-0.45912 0.05273,-0.85547 0,-0.83324 -0.01648,-0.87141 -0.44726,-0.99414 -0.1483,-0.04225 -0.80919,-0.1245 -1.4668,-0.18359 -1.382,-0.12419 -1.5938,-0.15295 -1.5938,-0.21484 0,-0.09195 0.13421,-0.11584 1.0254,-0.1875 1.334,-0.10726 1.73,-0.16929 2.0449,-0.32031 0.43592,-0.20908 0.45426,-0.27301 0.42578,-1.4727 -0.01621,-0.68256 -0.04646,-1.0584 -0.09375,-1.1562 -0.04023,-0.08325 -0.1715,-0.19362 -0.30859,-0.25977 -0.21734,-0.10486 -0.35991,-0.11883 -1.5996,-0.15625 -1.4457,-0.04364 -1.6979,-0.0712 -1.7441,-0.19141 -0.06831,-0.17744 0.07844,-0.19976 1.4609,-0.22656 1.5435,-0.02993 1.5806,-0.03959 2.0527,-0.49219 0.21808,-0.20904 0.23545,-0.24693 0.27148,-0.58594 0.04728,-0.44484 -0.0059,-1.0259 -0.10938,-1.1836 -0.15711,-0.23944 -0.33264,-0.2529 -3.6113,-0.25391 z m 8.2344,0.12695 c -1.5027,-0.0057 -1.6123,0.01733 -1.7754,0.38672 -0.05508,0.12479 -0.16405,0.60814 -0.24023,1.0742 -0.07618,0.46608 -0.20719,1.2056 -0.29297,1.6426 -0.18539,0.94436 -0.35022,1.935 -0.39844,2.4043 -0.01917,0.18653 -0.12502,0.79528 -0.23633,1.3516 -0.26621,1.3305 -0.28941,1.5202 -0.19531,1.6484 0.08951,0.12201 0.52077,0.18472 1.041,0.15234 0.18998,-0.01182 0.64251,-0.02127 1.0039,-0.02148 0.73946,-4.24e-4 0.67003,0.03439 1.0859,-0.5293 0.24959,-0.33828 0.37286,-0.32553 0.64648,0.07031 0.11768,0.17025 0.26016,0.33456 0.31641,0.36523 0.24458,0.13336 2.5051,0.15902 2.7539,0.03125 0.16133,-0.08286 0.12196,-0.4242 -0.36133,-3.1953 -0.15749,-0.90303 -0.41858,-2.451 -0.58203,-3.4395 -0.16345,-0.98844 -0.30814,-1.8124 -0.32031,-1.832 -0.03582,-0.05777 -1.0742,-0.10417 -2.4453,-0.10938 z m -18.256,0.01758 c -1.8297,0.01172 -2.2265,0.02676 -2.3027,0.08984 -0.08618,0.07134 -0.09176,0.33462 -0.07227,4.1309 0.01788,3.4835 0.03345,4.0856 0.10352,4.2676 l 0.08008,0.21094 0.5,0.03125 c 0.27482,0.01627 0.92072,0.03349 1.4336,0.03906 l 0.93164,0.0098 0.19531,-0.30469 c 0.10777,-0.1675 0.25466,-0.3755 0.32617,-0.46289 0.12332,-0.1507 0.13605,-0.15499 0.22461,-0.06836 0.05136,0.05024 0.17717,0.2538 0.28125,0.45117 l 0.18945,0.35938 1.4414,0.01367 c 1.2622,0.01233 1.4485,0.0033 1.5098,-0.07031 0.05891,-0.07075 0.02524,-0.2658 -0.21289,-1.2324 -0.15557,-0.63151 -0.34183,-1.357 -0.41406,-1.6113 -0.07413,-0.26108 -0.11588,-0.51748 -0.09766,-0.58984 0.02124,-0.08435 0.18783,-0.23346 0.48633,-0.43555 0.26141,-0.17698 0.46254,-0.35351 0.47656,-0.41602 0.01337,-0.05966 0.0079,-1.0614 -0.01367,-2.2266 l -0.04102,-2.1191 -1.4082,-0.04102 c -0.773,-0.022 -2.4,-0.033 -3.616,-0.025 z m 1.2617,1.7891 c 0.05637,-0.02741 0.11142,-0.002 0.14453,0.08398 0.04271,0.11094 0.03224,1.0726 -0.01367,1.2363 -0.04657,0.16611 -0.14326,0.19608 -0.21289,0.06641 -0.0906,-0.16872 -0.13054,-0.91218 -0.0625,-1.1621 0.03204,-0.11769 0.08816,-0.1972 0.14453,-0.22461 z m 17.334,1.0645 c 0.12278,0.0345 0.19491,0.38881 0.15234,0.88867 -0.03469,0.40738 -0.07701,0.53516 -0.17188,0.53516 -0.03759,0 -0.08411,-0.04082 -0.10547,-0.0918 -0.02135,-0.05098 -0.05083,-0.33175 -0.06445,-0.62305 -0.01914,-0.40946 -0.0066,-0.55255 0.05273,-0.63086 0.05007,-0.06605 0.09579,-0.08963 0.13672,-0.07813 z"
     inkscape:connector-curvature="0"
     style="opacity:0.15;fill:none;stroke:#000000;stroke-width:2;stroke-linecap:round;stroke-linejoin:round" />
  <path
     id="path4505"
     d="m 11.788,20.234 c -2.8434,-0.02498 -4.1271,0.03255 -4.2598,0.19336 -0.11358,0.13771 -0.14393,0.74354 -0.1875,3.8184 -0.03929,2.7731 0.0059,4.6029 0.11523,4.752 0.04792,0.06532 0.17422,0.1045 0.40625,0.12891 0.49863,0.05244 6.8087,-0.0085 6.8691,-0.06641 0.03055,-0.02925 0.05347,-0.73495 0.05469,-1.7559 0.0019,-1.6038 -0.0056,-1.7209 -0.10547,-1.9199 -0.07821,-0.1559 -0.17557,-0.24516 -0.37109,-0.3418 -0.25717,-0.1271 -0.29944,-0.13298 -1.3281,-0.12891 -1.1536,0.0046 -1.3371,0.0417 -1.6289,0.32031 -0.20106,0.19194 -0.32663,0.14717 -0.38672,-0.13672 -0.06293,-0.29732 0.03071,-0.98814 0.15039,-1.1074 0.11586,-0.11547 0.25142,-0.02967 0.33008,0.20898 0.09933,0.30138 0.19111,0.32187 1.2949,0.28516 1.5868,-0.05278 1.9184,-0.13436 2.0176,-0.49023 0.06127,-0.21988 0.07592,-2.3118 0.02148,-3.0762 L 14.74498,20.43132 14.4735,20.34343 C 14.24055,20.2672 13.86363,20.25229 11.788,20.23405 Z m 16.656,0.01367 c -1.6952,-5.29e-4 -3.1952,0.01935 -3.334,0.04297 -0.17494,0.02978 -0.2722,0.0778 -0.31836,0.1582 -0.05139,0.08952 -0.07185,1.0635 -0.08398,4.2734 -0.0086,2.2867 -8.65e-4,4.2118 0.01563,4.2773 l 0.0293,0.11914 3.6406,0 3.6406,0 0.05078,-0.13672 c 0.0285,-0.07472 0.05273,-0.45912 0.05273,-0.85547 0,-0.83324 -0.01648,-0.87141 -0.44726,-0.99414 -0.1483,-0.04225 -0.80919,-0.1245 -1.4668,-0.18359 -1.382,-0.12419 -1.5938,-0.15295 -1.5938,-0.21484 0,-0.09195 0.13421,-0.11584 1.0254,-0.1875 1.334,-0.10726 1.73,-0.16929 2.0449,-0.32031 0.43592,-0.20908 0.45426,-0.27301 0.42578,-1.4727 -0.01621,-0.68256 -0.04646,-1.0584 -0.09375,-1.1562 -0.04023,-0.08325 -0.1715,-0.19362 -0.30859,-0.25977 -0.21734,-0.10486 -0.35991,-0.11883 -1.5996,-0.15625 -1.4457,-0.04364 -1.6979,-0.0712 -1.7441,-0.19141 -0.06831,-0.17744 0.07844,-0.19976 1.4609,-0.22656 1.5435,-0.02993 1.5806,-0.03959 2.0527,-0.49219 0.21808,-0.20904 0.23545,-0.24693 0.27148,-0.58594 0.04728,-0.44484 -0.0059,-1.0259 -0.10938,-1.1836 -0.15711,-0.23944 -0.33264,-0.2529 -3.6113,-0.25391 z m 8.2344,0.12695 c -1.5027,-0.0057 -1.6123,0.01733 -1.7754,0.38672 -0.05508,0.12479 -0.16405,0.60814 -0.24023,1.0742 -0.07618,0.46608 -0.20719,1.2056 -0.29297,1.6426 -0.18539,0.94436 -0.35022,1.935 -0.39844,2.4043 -0.01917,0.18653 -0.12502,0.79528 -0.23633,1.3516 -0.26621,1.3305 -0.28941,1.5202 -0.19531,1.6484 0.08951,0.12201 0.52077,0.18472 1.041,0.15234 0.18998,-0.01182 0.64251,-0.02127 1.0039,-0.02148 0.73946,-4.24e-4 0.67003,0.03439 1.0859,-0.5293 0.24959,-0.33828 0.37286,-0.32553 0.64648,0.07031 0.11768,0.17025 0.26016,0.33456 0.31641,0.36523 0.24458,0.13336 2.5051,0.15902 2.7539,0.03125 0.16133,-0.08286 0.12196,-0.4242 -0.36133,-3.1953 -0.15749,-0.90303 -0.41858,-2.451 -0.58203,-3.4395 -0.16345,-0.98844 -0.30814,-1.8124 -0.32031,-1.832 -0.03582,-0.05777 -1.0742,-0.10417 -2.4453,-0.10938 z m -18.256,0.01758 c -1.8297,0.01172 -2.2265,0.02676 -2.3027,0.08984 -0.08618,0.07134 -0.09176,0.33462 -0.07227,4.1309 0.01788,3.4835 0.03345,4.0856 0.10352,4.2676 l 0.08008,0.21094 0.5,0.03125 c 0.27482,0.01627 0.92072,0.03349 1.4336,0.03906 l 0.93164,0.0098 0.19531,-0.30469 c 0.10777,-0.1675 0.25466,-0.3755 0.32617,-0.46289 0.12332,-0.1507 0.13605,-0.15499 0.22461,-0.06836 0.05136,0.05024 0.17717,0.2538 0.28125,0.45117 l 0.18945,0.35938 1.4414,0.01367 c 1.2622,0.01233 1.4485,0.0033 1.5098,-0.07031 0.05891,-0.07075 0.02524,-0.2658 -0.21289,-1.2324 -0.15557,-0.63151 -0.34183,-1.357 -0.41406,-1.6113 -0.07413,-0.26108 -0.11588,-0.51748 -0.09766,-0.58984 0.02124,-0.08435 0.18783,-0.23346 0.48633,-0.43555 0.26141,-0.17698 0.46254,-0.35351 0.47656,-0.41602 0.01337,-0.05966 0.0079,-1.0614 -0.01367,-2.2266 l -0.04102,-2.1191 -1.4082,-0.04102 c -0.773,-0.022 -2.4,-0.033 -3.616,-0.025 z m 1.2617,1.7891 c 0.05637,-0.02741 0.11142,-0.002 0.14453,0.08398 0.04271,0.11094 0.03224,1.0726 -0.01367,1.2363 -0.04657,0.16611 -0.14326,0.19608 -0.21289,0.06641 -0.0906,-0.16872 -0.13054,-0.91218 -0.0625,-1.1621 0.03204,-0.11769 0.08816,-0.1972 0.14453,-0.22461 z m 17.334,1.0645 c 0.12278,0.0345 0.19491,0.38881 0.15234,0.88867 -0.03469,0.40738 -0.07701,0.53516 -0.17188,0.53516 -0.03759,0 -0.08411,-0.04082 -0.10547,-0.0918 -0.02135,-0.05098 -0.05083,-0.33175 -0.06445,-0.62305 -0.01914,-0.40946 -0.0066,-0.55255 0.05273,-0.63086 0.05007,-0.06605 0.09579,-0.08963 0.13672,-0.07813 z"
     inkscape:connector-curvature="0"
     style="opacity:0.5;fill:none;stroke:#000000;stroke-linecap:round;stroke-linejoin:round" />
  <path
     id="path4474"
     d="m 11.788,20.234 c -2.8434,-0.02498 -4.1271,0.03255 -4.2598,0.19336 -0.11358,0.13771 -0.14393,0.74354 -0.1875,3.8184 -0.03929,2.7731 0.0059,4.6029 0.11523,4.752 0.04792,0.06532 0.17422,0.1045 0.40625,0.12891 0.49863,0.05244 6.8087,-0.0085 6.8691,-0.06641 0.03055,-0.02925 0.05347,-0.73495 0.05469,-1.7559 0.0019,-1.6038 -0.0056,-1.7209 -0.10547,-1.9199 -0.07821,-0.1559 -0.17557,-0.24516 -0.37109,-0.3418 -0.25717,-0.1271 -0.29944,-0.13298 -1.3281,-0.12891 -1.1536,0.0046 -1.3371,0.0417 -1.6289,0.32031 -0.20106,0.19194 -0.32663,0.14717 -0.38672,-0.13672 -0.06293,-0.29732 0.03071,-0.98814 0.15039,-1.1074 0.11586,-0.11547 0.25142,-0.02967 0.33008,0.20898 0.09933,0.30138 0.19111,0.32187 1.2949,0.28516 1.5868,-0.05278 1.9184,-0.13436 2.0176,-0.49023 0.06127,-0.21988 0.07592,-2.3118 0.02148,-3.0762 L 14.74498,20.43132 14.4735,20.34343 C 14.24055,20.2672 13.86363,20.25229 11.788,20.23405 Z m 16.656,0.01367 c -1.6952,-5.29e-4 -3.1952,0.01935 -3.334,0.04297 -0.17494,0.02978 -0.2722,0.0778 -0.31836,0.1582 -0.05139,0.08952 -0.07185,1.0635 -0.08398,4.2734 -0.0086,2.2867 -8.65e-4,4.2118 0.01563,4.2773 l 0.0293,0.11914 3.6406,0 3.6406,0 0.05078,-0.13672 c 0.0285,-0.07472 0.05273,-0.45912 0.05273,-0.85547 0,-0.83324 -0.01648,-0.87141 -0.44726,-0.99414 -0.1483,-0.04225 -0.80919,-0.1245 -1.4668,-0.18359 -1.382,-0.12419 -1.5938,-0.15295 -1.5938,-0.21484 0,-0.09195 0.13421,-0.11584 1.0254,-0.1875 1.334,-0.10726 1.73,-0.16929 2.0449,-0.32031 0.43592,-0.20908 0.45426,-0.27301 0.42578,-1.4727 -0.01621,-0.68256 -0.04646,-1.0584 -0.09375,-1.1562 -0.04023,-0.08325 -0.1715,-0.19362 -0.30859,-0.25977 -0.21734,-0.10486 -0.35991,-0.11883 -1.5996,-0.15625 -1.4457,-0.04364 -1.6979,-0.0712 -1.7441,-0.19141 -0.06831,-0.17744 0.07844,-0.19976 1.4609,-0.22656 1.5435,-0.02993 1.5806,-0.03959 2.0527,-0.49219 0.21808,-0.20904 0.23545,-0.24693 0.27148,-0.58594 0.04728,-0.44484 -0.0059,-1.0259 -0.10938,-1.1836 -0.15711,-0.23944 -0.33264,-0.2529 -3.6113,-0.25391 z m 8.2344,0.12695 c -1.5027,-0.0057 -1.6123,0.01733 -1.7754,0.38672 -0.05508,0.12479 -0.16405,0.60814 -0.24023,1.0742 -0.07618,0.46608 -0.20719,1.2056 -0.29297,1.6426 -0.18539,0.94436 -0.35022,1.935 -0.39844,2.4043 -0.01917,0.18653 -0.12502,0.79528 -0.23633,1.3516 -0.26621,1.3305 -0.28941,1.5202 -0.19531,1.6484 0.08951,0.12201 0.52077,0.18472 1.041,0.15234 0.18998,-0.01182 0.64251,-0.02127 1.0039,-0.02148 0.73946,-4.24e-4 0.67003,0.03439 1.0859,-0.5293 0.24959,-0.33828 0.37286,-0.32553 0.64648,0.07031 0.11768,0.17025 0.26016,0.33456 0.31641,0.36523 0.24458,0.13336 2.5051,0.15902 2.7539,0.03125 0.16133,-0.08286 0.12196,-0.4242 -0.36133,-3.1953 -0.15749,-0.90303 -0.41858,-2.451 -0.58203,-3.4395 -0.16345,-0.98844 -0.30814,-1.8124 -0.32031,-1.832 -0.03582,-0.05777 -1.0742,-0.10417 -2.4453,-0.10938 z m -18.256,0.01758 c -1.8297,0.01172 -2.2265,0.02676 -2.3027,0.08984 -0.08618,0.07134 -0.09176,0.33462 -0.07227,4.1309 0.01788,3.4835 0.03345,4.0856 0.10352,4.2676 l 0.08008,0.21094 0.5,0.03125 c 0.27482,0.01627 0.92072,0.03349 1.4336,0.03906 l 0.93164,0.0098 0.19531,-0.30469 c 0.10777,-0.1675 0.25466,-0.3755 0.32617,-0.46289 0.12332,-0.1507 0.13605,-0.15499 0.22461,-0.06836 0.05136,0.05024 0.17717,0.2538 0.28125,0.45117 l 0.18945,0.35938 1.4414,0.01367 c 1.2622,0.01233 1.4485,0.0033 1.5098,-0.07031 0.05891,-0.07075 0.02524,-0.2658 -0.21289,-1.2324 -0.15557,-0.63151 -0.34183,-1.357 -0.41406,-1.6113 -0.07413,-0.26108 -0.11588,-0.51748 -0.09766,-0.58984 0.02124,-0.08435 0.18783,-0.23346 0.48633,-0.43555 0.26141,-0.17698 0.46254,-0.35351 0.47656,-0.41602 0.01337,-0.05966 0.0079,-1.0614 -0.01367,-2.2266 l -0.04102,-2.1191 -1.4082,-0.04102 c -0.773,-0.022 -2.4,-0.033 -3.616,-0.025 z m 1.2617,1.7891 c 0.05637,-0.02741 0.11142,-0.002 0.14453,0.08398 0.04271,0.11094 0.03224,1.0726 -0.01367,1.2363 -0.04657,0.16611 -0.14326,0.19608 -0.21289,0.06641 -0.0906,-0.16872 -0.13054,-0.91218 -0.0625,-1.1621 0.03204,-0.11769 0.08816,-0.1972 0.14453,-0.22461 z m 17.334,1.0645 c 0.12278,0.0345 0.19491,0.38881 0.15234,0.88867 -0.03469,0.40738 -0.07701,0.53516 -0.17188,0.53516 -0.03759,0 -0.08411,-0.04082 -0.10547,-0.0918 -0.02135,-0.05098 -0.05083,-0.33175 -0.06445,-0.62305 -0.01914,-0.40946 -0.0066,-0.55255 0.05273,-0.63086 0.05007,-0.06605 0.09579,-0.08963 0.13672,-0.07813 z"
     inkscape:connector-curvature="0"
     style="fill:#ffffff" />
</svg>
