<?xml version="1.0" encoding="UTF-8" standalone="no"?>
<!-- Created with Inkscape (http://www.inkscape.org/) -->

<svg
   xmlns:dc="http://purl.org/dc/elements/1.1/"
   xmlns:cc="http://creativecommons.org/ns#"
   xmlns:rdf="http://www.w3.org/1999/02/22-rdf-syntax-ns#"
   xmlns:svg="http://www.w3.org/2000/svg"
   xmlns="http://www.w3.org/2000/svg"
   xmlns:xlink="http://www.w3.org/1999/xlink"
   xmlns:sodipodi="http://sodipodi.sourceforge.net/DTD/sodipodi-0.dtd"
   xmlns:inkscape="http://www.inkscape.org/namespaces/inkscape"
   id="svg4951"
   height="48"
   width="48"
   version="1.1"
   inkscape:version="0.91 r13725"
   sodipodi:docname="css.svg">
  <sodipodi:namedview
     pagecolor="#ffffff"
     bordercolor="#666666"
     borderopacity="1"
     objecttolerance="10"
     gridtolerance="10"
     guidetolerance="10"
     inkscape:pageopacity="0"
     inkscape:pageshadow="2"
     inkscape:window-width="1535"
     inkscape:window-height="876"
     id="namedview25"
     showgrid="false"
     inkscape:zoom="4.9166667"
     inkscape:cx="-10.779661"
     inkscape:cy="24"
     inkscape:window-x="65"
     inkscape:window-y="24"
     inkscape:window-maximized="1"
     inkscape:current-layer="svg4951" />
  <defs
     id="defs4953">
    <radialGradient
       id="radialGradient3302"
       gradientUnits="userSpaceOnUse"
       cy="186.17"
       cx="99.157"
       gradientTransform="matrix(0.27083,0,0,0.087623,-2.8551,25.187)"
       r="62.769">
      <stop
         id="stop3822-2-6-3"
         stop-color="#3d3d3d"
         offset="0" />
      <stop
         id="stop3864-8-7-7"
         stop-color="#686868"
         stop-opacity=".49804"
         offset=".5" />
      <stop
         id="stop3824-1-2-5"
         stop-color="#686868"
         stop-opacity="0"
         offset="1" />
    </radialGradient>
    <radialGradient
       id="radialGradient3037"
       gradientUnits="userSpaceOnUse"
       cy="-17.681"
       cx="14.892"
       gradientTransform="matrix(-1.4386169,3.8089392e-8,-2.8327636e-8,-1.0699322,45.168485,-14.595182)"
       r="25.571">
      <stop
         id="stop3767"
         stop-color="#fff"
         offset="0" />
      <stop
         id="stop3769"
         stop-color="#e4e4e4"
         offset="1" />
    </radialGradient>
    <linearGradient
       id="linearGradient3039"
       y2="32.568"
       xlink:href="#linearGradient3775"
       gradientUnits="userSpaceOnUse"
       x2="15.124"
       y1="-18.801"
       x1="15.124"
       gradientTransform="matrix(0.76418,0,0,0.76418,12.377,18.778)" />
    <linearGradient
       id="linearGradient3775">
      <stop
         id="stop3777"
         stop-color="#fff"
         stop-opacity=".58824"
         offset="0" />
      <stop
         id="stop3779"
         stop-color="#fff"
         offset="1" />
    </linearGradient>
    <linearGradient
       id="linearGradient4361"
       y2="8.4202"
       xlink:href="#linearGradient3775"
       gradientUnits="userSpaceOnUse"
       x2="23.48"
       y1="39.288"
       x1="22.885" />
  </defs>
  <metadata
     id="metadata4956">
    <rdf:RDF>
      <cc:Work
         rdf:about="">
        <dc:format>image/svg+xml</dc:format>
        <dc:type
           rdf:resource="http://purl.org/dc/dcmitype/StillImage" />
        <dc:title />
      </cc:Work>
    </rdf:RDF>
  </metadata>
  <path
     inkscape:connector-curvature="0"
     style="fill:url(#radialGradient3037)"
     d="m 44.526317,24.000319 a 20.526097,20.526097 0 1 1 -41.0513926,0 20.526097,20.526097 0 1 1 41.0513926,0 z"
     id="path2985" />
  <path
     style="fill:none;stroke:#828282;stroke-width:0.9484821;stroke-opacity:0.58824002"
     inkscape:connector-curvature="0"
     d="m 44.526317,24.000319 a 20.526097,20.526097 0 1 1 -41.0513926,0 20.526097,20.526097 0 1 1 41.0513926,0 z"
     id="path3755" />
  <path
     inkscape:connector-curvature="0"
     style="fill:none;stroke:url(#linearGradient3039);stroke-width:0.93260527;stroke-opacity:0.58824002"
     d="m 43.541025,24.000024 a 19.540847,19.540847 0 1 1 -39.0809298,0 19.540847,19.540847 0 1 1 39.0809298,0 z"
     id="path3773" />
  <path
     inkscape:connector-curvature="0"
     style="opacity:0.3;fill:none;stroke:url(#linearGradient4361);stroke-linecap:round;stroke-linejoin:round"
     d="m 27.025,14.704 c -0.10551,1.2091 -0.93447,0.69586 -1.832,1.3556 -0.24213,-0.0361 -0.51828,-0.0361 -0.89752,-0.0361 -0.06855,-0.80626 0.20809,-0.95275 0.34472,-1.0992 0.5528,-0.44001 0.93447,-0.21975 0.93447,-0.21975 0.41375,-0.07424 0.7925,0.0361 1.4503,-5.82e-4 l 0,0 z m 2.0712,-1.9793 -1.2077,0 0,-0.32962 -0.65539,0 0,0.18261 c -0.07098,0.0361 -0.13954,0.11038 -0.20809,0.1465 l -0.06855,0 c -1.1426,-0.95275 -1.2106,0.98989 -1.9715,0.54989 -0.06855,-0.40339 -0.03405,-0.77015 -0.03405,-1.2463 1.3132,-0.03717 0.82897,-0.40338 0.45022,-0.8795 -0.13662,-0.18364 -0.20809,-0.47664 -0.24212,-0.65976 -0.31068,-1.2091 -1.5899,-1.9421 -3.453,-1.1725 -1.2106,0.47612 -0.89752,2.199 -0.79493,3.3715 -0.06855,0.10935 -0.20809,0.07326 -0.31068,0.07326 -1.3132,0.07327 -1.9001,1.5382 -2.1767,2.7113 0.06855,1.0631 -0.06855,2.2356 -0.24212,3.2611 -0.17357,1.026 -0.51828,1.8323 -0.5528,2.8216 -0.06855,0.8795 0.24213,1.9055 0.17357,2.7118 -0.72638,2.2723 -1.2452,3.7744 -1.6239,6.1932 -0.27616,0.54937 -1.2422,1.7219 -1.6239,1.9788 -0.10259,0.18261 0.06855,0.58651 -0.10259,0.84237 -0.31068,0.47612 -0.79493,0.733 -1.0711,1.2463 0.06855,0.10935 -0.4157,0.21975 -0.37875,0.40338 0.03404,0.18261 0.27616,0.65873 0.37875,0.76912 0.03404,0.07327 0.37875,-0.11038 0.37875,0 0.13954,0.43898 0.45022,1.3556 0.79493,1.5754 1.5213,0.18261 1.5213,0.18261 2.1422,0 0.34472,-1.0631 -1.1737,-0.58651 -1.0371,-2.0159 2.0741,-0.43898 2.729,-1.0626 3.558,-3.371 0.37875,-1.6858 0.89752,-3.3344 1.692,-4.9469 0.13662,-0.10936 0.10259,-0.40287 0.34471,-0.51326 0.93155,1.6486 2.6264,2.8221 3.453,4.5445 0.20809,2.2351 0.62379,3.4443 1.3473,3.8476 0.17357,0.07326 0,0.76912 0.13954,0.91561 0,0.21975 0.06855,0.47612 -0.03405,0.733 -0.07098,0.18364 -0.03403,0.40338 -0.03403,0.58651 l 0,0.21975 c 0.03403,0.33116 0.10259,0.33116 0.41327,0.58651 0.89752,0.62261 2.1082,1.6125 3.3159,0.8795 0.55281,-0.95378 -0.62087,-2.1619 -1.4498,-2.785 -0.27616,-0.21975 -0.76041,-0.76912 -0.69235,-1.1359 0.45022,-0.47664 0.76041,-2.5653 0.58684,-4.1778 -0.06855,-0.36572 -0.13662,-0.733 -0.27616,-1.026 -0.41327,-0.84236 -1.3448,-2.0154 -2.1393,-2.8577 0.10259,-0.10936 0.24213,-0.25689 0.41327,-0.33014 0,-0.80574 -0.31068,-1.0626 -0.72346,-1.6486 -0.34763,-0.58651 -1.1396,-1.7219 -1.7294,-2.0886 0,0 0,-0.03717 -0.58684,-0.03717 -0.03404,-0.40286 0.07098,-0.733 0.17357,-1.1725 0,-0.32962 0.24213,-0.14599 0.31068,-0.8795 0.17357,-0.62262 0.10259,-0.25637 0.24213,-0.87899 0.13662,-0.293 0.20809,-0.58651 0.20809,-1.0631 0.51586,0.18365 1.5524,0.1465 2.0026,0 l 0.10259,0.07327 c 0.13954,0.03717 0.17358,-0.18261 0.27616,-0.21923 0.79493,-0.44053 1.0711,-1.2096 1.7265,-1.2829 0,0 0.34763,-0.18364 0.863,0 0.20809,0 0.38167,0.0361 0.38167,-0.18364 0.03404,-0.32961 0.03404,-0.58547 0.20809,-0.80625 0.13662,0.8795 0.51586,1.8694 1.2077,2.8221 l 0.69,-0.512 c -0.65539,-0.84236 -1.0682,-1.7951 -1.1396,-2.8949 0.03402,0.07326 0.07099,0.1465 0.13954,0.21976 0.24213,0 0.37875,-0.54989 0.6554,-0.51327 0.03403,-0.07326 0.1055,-0.40338 0.17357,-0.65975 l 2.5895,0 0.932,-0.22 0,-0.51326 -0.68943,-0.07326 0,-0.58651 -0.17357,0 0,-0.65975 -0.41327,0 0,0.62313 -1.0711,-0.07326 0,-0.40338 -0.41327,0 0,0.36624 -1.1051,-0.10936 0,-0.54988 -0.4157,0 0,0.51325 -1.6239,-0.10936 0,-0.18209 0.0013,0 z"
     id="path4353" />
  <path
     style="fill:#424242;fill-rule:evenodd"
     inkscape:connector-curvature="0"
     d="m 27.025,14.704 c -0.10551,1.2091 -0.93447,0.69586 -1.832,1.3556 -0.24213,-0.0361 -0.51828,-0.0361 -0.89752,-0.0361 -0.06855,-0.80626 0.20809,-0.95275 0.34472,-1.0992 0.5528,-0.44001 0.93447,-0.21975 0.93447,-0.21975 0.41375,-0.07424 0.7925,0.0361 1.4503,-5.82e-4 z m 2.0712,-1.9793 -1.2077,0 0,-0.32962 -0.65539,0 0,0.18261 c -0.07098,0.0361 -0.13954,0.11038 -0.20809,0.1465 l -0.06855,0 c -1.1426,-0.95275 -1.2106,0.98989 -1.9715,0.54989 -0.06855,-0.40339 -0.03405,-0.77015 -0.03405,-1.2463 1.3132,-0.03717 0.82897,-0.40338 0.45022,-0.8795 -0.13662,-0.18364 -0.20809,-0.47664 -0.24212,-0.65976 -0.31068,-1.2091 -1.5899,-1.9421 -3.453,-1.1725 -1.2106,0.47612 -0.89752,2.199 -0.79493,3.3715 -0.06855,0.10935 -0.20809,0.07326 -0.31068,0.07326 -1.3132,0.07327 -1.9001,1.5382 -2.1767,2.7113 0.06855,1.0631 -0.06855,2.2356 -0.24212,3.2611 -0.17357,1.026 -0.51828,1.8323 -0.5528,2.8216 -0.06855,0.8795 0.24213,1.9055 0.17357,2.7118 -0.72638,2.2723 -1.2452,3.7744 -1.6239,6.1932 -0.27616,0.54937 -1.2422,1.7219 -1.6239,1.9788 -0.10259,0.18261 0.06855,0.58651 -0.10259,0.84237 -0.31068,0.47612 -0.79493,0.733 -1.0711,1.2463 0.06855,0.10935 -0.4157,0.21975 -0.37875,0.40338 0.03404,0.18261 0.27616,0.65873 0.37875,0.76912 0.03404,0.07327 0.37875,-0.11038 0.37875,0 0.13954,0.43898 0.45022,1.3556 0.79493,1.5754 1.5213,0.18261 1.5213,0.18261 2.1422,0 0.34472,-1.0631 -1.1737,-0.58651 -1.0371,-2.0159 2.0741,-0.43898 2.729,-1.0626 3.558,-3.371 0.37875,-1.6858 0.89752,-3.3344 1.692,-4.9469 0.13662,-0.10936 0.10259,-0.40287 0.34471,-0.51326 0.93155,1.6486 2.6264,2.8221 3.453,4.5445 0.20809,2.2351 0.62379,3.4443 1.3473,3.8476 0.17357,0.07326 0,0.76912 0.13954,0.91561 0,0.21975 0.06855,0.47612 -0.03405,0.733 -0.07098,0.18364 -0.03403,0.40338 -0.03403,0.58651 l 0,0.21975 c 0.03403,0.33116 0.10259,0.33116 0.41327,0.58651 0.89752,0.62261 2.1082,1.6125 3.3159,0.8795 0.55281,-0.95378 -0.62087,-2.1619 -1.4498,-2.785 -0.27616,-0.21975 -0.76041,-0.76912 -0.69235,-1.1359 0.45022,-0.47664 0.76041,-2.5653 0.58684,-4.1778 -0.06855,-0.36572 -0.13662,-0.733 -0.27616,-1.026 -0.41327,-0.84236 -1.3448,-2.0154 -2.1393,-2.8577 0.10259,-0.10936 0.24213,-0.25689 0.41327,-0.33014 0,-0.80574 -0.31068,-1.0626 -0.72346,-1.6486 -0.34763,-0.58651 -1.1396,-1.7219 -1.7294,-2.0886 0,0 0,-0.03717 -0.58684,-0.03717 -0.03404,-0.40286 0.07098,-0.733 0.17357,-1.1725 0,-0.32962 0.24213,-0.14599 0.31068,-0.8795 0.17357,-0.62262 0.10259,-0.25637 0.24213,-0.87899 0.13662,-0.293 0.20809,-0.58651 0.20809,-1.0631 0.51586,0.18365 1.5524,0.1465 2.0026,0 l 0.10259,0.07327 c 0.13954,0.03717 0.17358,-0.18261 0.27616,-0.21923 0.79493,-0.44053 1.0711,-1.2096 1.7265,-1.2829 0,0 0.34763,-0.18364 0.863,0 0.20809,0 0.38167,0.0361 0.38167,-0.18364 0.03404,-0.32961 0.03404,-0.58547 0.20809,-0.80625 0.13662,0.8795 0.51586,1.8694 1.2077,2.8221 l 0.69,-0.512 c -0.65539,-0.84236 -1.0682,-1.7951 -1.1396,-2.8949 0.03402,0.07326 0.07099,0.1465 0.13954,0.21976 0.24213,0 0.37875,-0.54989 0.6554,-0.51327 0.03403,-0.07326 0.1055,-0.40338 0.17357,-0.65975 l 2.5895,0 0.932,-0.22 0,-0.51326 -0.68943,-0.07326 0,-0.58651 -0.17357,0 0,-0.65975 -0.41327,0 0,0.62313 -1.0711,-0.07326 0,-0.40338 -0.41327,0 0,0.36624 -1.1051,-0.10936 0,-0.54988 -0.4157,0 0,0.51325 -1.6239,-0.10936 0,-0.18209 0.0013,0 z"
     id="path3672" />
  <path
     style="opacity:0.15;fill-rule:evenodd"
     inkscape:connector-curvature="0"
     d="m 22.988,9.0043 c -0.38678,0.020617 -0.81743,0.11814 -1.2832,0.31055 -1.2106,0.47612 -0.89751,2.1986 -0.79492,3.3711 -0.06855,0.10935 -0.20796,0.07422 -0.31055,0.07422 -1.3132,0.07327 -1.8991,1.5379 -2.1758,2.7109 0.06855,1.0631 -0.06861,2.2362 -0.24219,3.2617 -0.17357,1.026 -0.51821,1.8309 -0.55273,2.8203 -0.06855,0.8795 0.24238,1.9066 0.17383,2.7129 -0.72638,2.2723 -1.2463,3.7746 -1.625,6.1934 -0.27616,0.54937 -1.2414,1.7216 -1.623,1.9785 -0.10259,0.18261 0.06762,0.58594 -0.10352,0.8418 -0.31068,0.47612 -0.79415,0.73284 -1.0703,1.2461 0.06855,0.10936 -0.41586,0.22066 -0.37891,0.4043 0.03404,0.18261 0.27632,0.65915 0.37891,0.76953 0.03404,0.07327 0.37891,-0.11038 0.37891,0 0.13954,0.43898 0.45021,1.3545 0.79492,1.5742 1.5213,0.18261 1.5217,0.18261 2.1426,0 0.34472,-1.0631 -1.1737,-0.58624 -1.0371,-2.0156 2.0741,-0.43898 2.7277,-1.0627 3.5566,-3.3711 0.37875,-1.6858 0.89891,-3.3348 1.6934,-4.9473 0.13662,-0.10936 0.10162,-0.40134 0.34375,-0.51172 0.93155,1.6486 2.6266,2.8206 3.4531,4.543 0.20809,2.2351 0.62419,3.4443 1.3477,3.8477 0.17357,0.07326 -8.65e-4,0.76952 0.13867,0.91602 0,0.21975 0.0694,0.47553 -0.0332,0.73242 -0.07098,0.18364 -0.03516,0.40476 -0.03516,0.58789 l 0,0.21875 c 0.03403,0.33116 0.10338,0.33059 0.41406,0.58594 0.89752,0.62261 2.1087,1.6139 3.3164,0.88086 0.55281,-0.95378 -0.62221,-2.162 -1.4512,-2.7852 -0.27616,-0.21975 -0.75947,-0.76997 -0.69141,-1.1367 0.45022,-0.47664 0.75951,-2.5652 0.58594,-4.1777 -0.06855,-0.36572 -0.13585,-0.73239 -0.27539,-1.0254 -0.41327,-0.84236 -1.3442,-2.0151 -2.1387,-2.8574 0.10259,-0.10936 0.24097,-0.25682 0.41211,-0.33008 0,-0.80574 -0.30987,-1.0624 -0.72266,-1.6484 -0.34763,-0.58651 -1.1407,-1.7231 -1.7305,-2.0898 0,0 9.04e-4,-0.03711 -0.58594,-0.03711 -0.03404,-0.40286 0.07124,-0.73238 0.17383,-1.1719 0,-0.32962 0.24199,-0.14539 0.31055,-0.87891 0.17357,-0.62262 0.10265,-0.25628 0.24219,-0.87891 0.13662,-0.293 0.20703,-0.58782 0.20703,-1.0645 0.51586,0.18365 1.5537,0.1465 2.0039,0 l 0.10156,0.07422 c 0.13954,0.03717 0.17476,-0.18213 0.27734,-0.21875 0.79493,-0.44053 1.0712,-1.21 1.7266,-1.2832 0,0 0.34596,-0.18364 0.86133,0 0.20809,0 0.38281,0.03615 0.38281,-0.18359 0.03404,-0.32961 0.03298,-0.58586 0.20703,-0.80664 0.13662,0.8795 0.51713,1.8695 1.209,2.8223 l 0.68945,-0.51367 c -0.65539,-0.84236 -1.0692,-1.7948 -1.1406,-2.8945 0.03402,0.07326 0.07208,0.1455 0.14062,0.21875 0.24213,0 0.37765,-0.54834 0.6543,-0.51172 0.03403,-0.07326 0.10576,-0.40379 0.17383,-0.66016 l 2.5898,0 0.93164,-0.2207 0,-0.51367 -0.68945,-0.07227 0,-0.58594 -0.17383,0 0,-0.66016 -0.41406,0 0,0.62305 -1.0703,-0.07422 0,-0.40234 -0.41406,0 0,0.36523 -1.1035,-0.10938 0,-0.54883 -0.41602,0 0,0.51367 -1.625,-0.10938 0,-0.18359 -1.2051,0 0,-0.32812 -0.65625,0 0,0.18164 c -0.07098,0.0361 -0.13848,0.11037 -0.20703,0.14648 l -0.06836,0 c -1.1426,-0.95275 -1.2118,0.99079 -1.9727,0.55078 -0.06855,-0.40339 -0.0332,-0.76997 -0.0332,-1.2461 1.3132,-0.03717 0.82796,-0.40474 0.44922,-0.88086 -0.13662,-0.18363 -0.20816,-0.47507 -0.24219,-0.6582 -0.233,-0.9051 -1.009,-1.5445 -2.17,-1.4827 z m 0.02344,0.49805 c 0.32196,-0.017477 0.59385,0.031476 0.81641,0.12109 0.44512,0.17924 0.72546,0.52033 0.8457,0.98828 l -0.0059,-0.0332 c 0.0395,0.21257 0.09323,0.5462 0.33203,0.86719 a 0.50005,0.50005 0 0 0 0.0098,0.01367 c 0.01804,0.02268 0.02736,0.03328 0.04492,0.05469 -0.05624,0.0042 -0.05038,0.01173 -0.11914,0.01367 a 0.50005,0.50005 0 0 0 -0.48437,0.5 c 0,0.45197 -0.04057,0.85002 0.04102,1.3301 a 0.50005,0.50005 0 0 0 0.24219,0.34766 c 0.16552,0.09572 0.37153,0.15208 0.56641,0.12891 0.19487,-0.02318 0.35163,-0.11418 0.46484,-0.20508 0.22643,-0.18179 0.34206,-0.37491 0.44922,-0.50586 0.10715,-0.13095 0.17645,-0.16752 0.16992,-0.16602 -0.0065,0.0015 0.03238,-0.03271 0.25195,0.15039 a 0.50005,0.50005 0 0 0 0.32031,0.11523 l 0.06836,0 a 0.50005,0.50005 0 0 0 0.23242,-0.05664 c 0.19711,-0.10382 0.26128,-0.1751 0.20117,-0.14453 a 0.50005,0.50005 0 0 0 0.02148,-0.01172 0.50005,0.50005 0 0 0 0.4082,0.21289 l 0.82031,0 a 0.50005,0.50005 0 0 0 0.35156,0.18164 l 1.625,0.10938 a 0.50005,0.50005 0 0 0 0.20117,-0.02734 0.50005,0.50005 0 0 0 0.19727,0.0625 l 1.1055,0.10938 a 0.50005,0.50005 0 0 0 0.21484,-0.02539 0.50005,0.50005 0 0 0 0.21484,0.06445 l 1.0703,0.07226 a 0.50005,0.50005 0 0 0 0.12109,-0.0059 l 0,0.13086 a 0.50005,0.50005 0 0 0 0.10547,0.30664 l -2.4375,0 a 0.50005,0.50005 0 0 0 -0.48242,0.37109 c -0.03655,0.13768 -0.07179,0.28599 -0.10156,0.40625 -0.0061,0.02476 -0.0023,0.01015 -0.0098,0.03516 -0.02201,0.01483 -0.06818,0.01249 -0.08594,0.02734 -0.06288,0.05258 -0.08606,0.09365 -0.125,0.14062 a 0.50005,0.50005 0 0 0 -0.66211,0.50391 c 0.0035,0.05347 0.03019,0.0975 0.03516,0.15039 a 0.50005,0.50005 0 0 0 -0.6875,0.09375 c -0.21998,0.27903 -0.21225,0.54903 -0.23633,0.80664 -0.2445,-0.05328 -0.49195,-0.09583 -0.66016,-0.07031 -0.12187,0.01849 -0.14627,0.03879 -0.21875,0.06641 l -0.002,0 c -0.51085,0.05784 -0.84862,0.38316 -1.1113,0.65234 -0.26305,0.26954 -0.4878,0.51904 -0.79883,0.69141 l 0.07422,-0.03516 c -0.12811,0.04573 -0.08799,0.07143 -0.14062,0.12305 a 0.50005,0.50005 0 0 0 -0.22461,0.01953 c -0.12957,0.04216 -0.48451,0.09541 -0.82812,0.09961 -0.34361,0.0042 -0.70531,-0.04294 -0.85352,-0.0957 a 0.50005,0.50005 0 0 0 -0.66797,0.4707 c 0,0.42665 -0.04936,0.61394 -0.16016,0.85156 a 0.50005,0.50005 0 0 0 -0.03516,0.10352 c -0.06915,0.30855 -0.07866,0.34542 -0.09375,0.39062 -0.01509,0.04521 -0.05372,0.14414 -0.14258,0.46289 a 0.50005,0.50005 0 0 0 -0.01563,0.08789 c -0.02884,0.30861 -0.05121,0.29721 -0.07422,0.32617 -0.01151,0.01448 -0.06281,0.0576 -0.13086,0.17383 -0.05074,0.08667 -0.07933,0.20042 -0.09375,0.3125 -0.09802,0.41991 -0.22878,0.81645 -0.18555,1.3281 a 0.50005,0.50005 0 0 0 0.49805,0.45703 c 0.23268,0 0.31332,0.0089 0.37109,0.01367 0.1899,0.13304 0.49633,0.43561 0.77734,0.79492 0.29882,0.38208 0.57723,0.80055 0.73828,1.0723 a 0.50005,0.50005 0 0 0 0.02148,0.0332 c 0.22059,0.31316 0.3894,0.51836 0.48438,0.69336 0.06746,0.12431 0.08283,0.29761 0.10352,0.47461 -0.0685,0.06459 -0.19248,0.13698 -0.23438,0.18164 a 0.50005,0.50005 0 0 0 0,0.68359 c 0.76934,0.81574 1.6914,1.9959 2.0547,2.7363 0.09345,0.19858 0.16196,0.52029 0.22852,0.87305 0.07919,0.74924 0.04712,1.6385 -0.05859,2.377 -0.05316,0.37136 -0.12453,0.70459 -0.20312,0.95703 -0.0786,0.25244 -0.18434,0.42612 -0.19141,0.43359 a 0.50005,0.50005 0 0 0 -0.12891,0.25195 c -0.08102,0.43658 0.11774,0.74062 0.29883,1 0.18109,0.25938 0.3887,0.46957 0.57422,0.61719 a 0.50005,0.50005 0 0 0 0.01172,0.0098 c 0.38102,0.28642 0.84826,0.72136 1.125,1.1426 0.22924,0.34891 0.22248,0.58762 0.1582,0.82031 -0.36983,0.15193 -0.71263,0.19443 -1.1172,0.02734 -0.4768,-0.19691 -0.97744,-0.56982 -1.4395,-0.89062 -0.0027,-0.0018 -0.0052,-0.004 -0.0078,-0.0059 -0.1269,-0.10472 -0.22005,-0.18535 -0.20898,-0.17188 0.01278,0.01555 0.02135,0.07693 0.0078,-0.05469 l 0.002,0.05078 0,-0.21875 c 0,-0.25038 3.25e-4,-0.40216 0.002,-0.40625 0.17113,-0.43265 0.06641,-0.79868 0.06641,-0.91406 a 0.50005,0.50005 0 0 0 -0.05664,-0.23242 c -0.0031,-0.04821 -0.0022,-0.13976 0,-0.24219 0.0022,-0.10408 0.0064,-0.21681 -0.01172,-0.35352 -0.0091,-0.06835 -0.02119,-0.14413 -0.06641,-0.24219 -0.04521,-0.09806 -0.14447,-0.23654 -0.31055,-0.30664 l 0.04883,0.02539 c -0.21172,-0.11805 -0.43868,-0.39679 -0.63672,-0.96484 -0.19804,-0.56805 -0.35311,-1.3969 -0.45508,-2.4922 A 0.50005,0.50005 0 0 0 25.1579,30.75624 c -0.90356,-1.8829 -2.615,-3.0633 -3.4688,-4.5742 a 0.50005,0.50005 0 0 0 -0.64258,-0.20898 c -0.28131,0.12825 -0.41828,0.39511 -0.4707,0.53125 -0.03915,0.10166 -0.04978,0.11001 -0.01563,0.07813 a 0.50005,0.50005 0 0 0 -0.09961,0.13672 c -0.80788,1.6398 -1.3329,3.3124 -1.7168,5.0078 -0.40389,1.1232 -0.75026,1.7727 -1.1836,2.1836 -0.4344,0.4119 -1.0033,0.64761 -2.0039,0.85938 a 0.50005,0.50005 0 0 0 -0.39453,0.44141 c -0.04225,0.44205 0.0497,0.82357 0.23633,1.0977 0.18662,0.27408 0.43002,0.42128 0.59961,0.52344 0.05396,0.0325 0.04474,0.02972 0.08203,0.05469 -0.03377,0.0023 -0.07538,0.02344 -0.11719,0.02344 -0.18346,0 -0.59587,-0.04687 -1.1738,-0.11523 C 14.77611,36.76621 14.64677,36.61363 14.53678,36.3657 14.41233,36.08516 14.30375,35.76048 14.236,35.54734 l 0.02344,0.15234 c 0,-0.14392 -0.11578,-0.37392 -0.25781,-0.45898 -0.14203,-0.08507 -0.23968,-0.07921 -0.30469,-0.07813 -0.02978,4.99e-4 -0.03187,0.0055 -0.05469,0.0078 -0.01787,-0.03015 -0.01444,-0.02294 -0.0293,-0.05273 -0.01696,-0.03401 -0.01427,-0.03432 -0.0293,-0.07031 0.02701,-0.01759 0.04079,-0.02007 0.07617,-0.04883 0.04692,-0.03814 0.1126,-0.08659 0.17383,-0.21484 0.0039,-0.0081 -0.0053,-0.02413 -0.002,-0.0332 0.19642,-0.35167 0.64513,-0.59764 1.0352,-1.1914 l 0,-0.002 c 0.19441,-0.29225 0.16976,-0.57923 0.16016,-0.75391 -0.0041,-0.075 8.58e-4,-0.12127 0.002,-0.14648 -0.01229,0.01027 -0.02479,0.02311 -0.03711,0.0332 0.03407,-0.06047 0.03841,-0.06312 0.03711,-0.0332 0.25048,-0.20928 0.49511,-0.45449 0.76367,-0.78125 0.33761,-0.41078 0.65298,-0.83522 0.83203,-1.1914 a 0.50005,0.50005 0 0 0 0.04687,-0.14844 c 0.37285,-2.3811 0.87948,-3.84 1.6074,-6.1172 A 0.50005,0.50005 0 0 0 18.30047,24.309 c 0.08239,-0.969 -0.23094,-1.984 -0.17383,-2.7168 a 0.50005,0.50005 0 0 0 0.002,-0.02148 c 0.03081,-0.88292 0.36037,-1.663 0.54492,-2.7539 0.16914,-0.99927 0.28831,-2.1444 0.23633,-3.2305 3.3e-4,-0.0014 0.0016,-0.0025 0.002,-0.0039 0.13092,-0.55378 0.33824,-1.1643 0.62891,-1.6035 0.2914,-0.44035 0.6122,-0.69221 1.0879,-0.71875 0.01386,0.0027 0.06062,0.01173 0.17969,0.002 0.13848,-0.01143 0.39687,-0.10553 0.52539,-0.31055 A 0.50005,0.50005 0 0 0 21.408,12.64303 c -0.05329,-0.60907 -0.14556,-1.3077 -0.09375,-1.8555 0.0259,-0.27388 0.08691,-0.50314 0.17773,-0.66406 0.09082,-0.16092 0.19624,-0.265 0.39648,-0.34375 a 0.50005,0.50005 0 0 0 0.0078,-0.00195 c 0.42115,-0.17396 0.79319,-0.25786 1.1152,-0.27534 z m 2.3027,4.6465 c -0.27601,-1.08e-4 -0.63425,0.10257 -0.98633,0.38281 a 0.50005,0.50005 0 0 0 -0.05469,0.05078 c -0.0102,0.01094 -0.20131,0.16176 -0.33008,0.41992 -0.12876,0.25816 -0.18579,0.60025 -0.14648,1.0625 a 0.50005,0.50005 0 0 0 0.49805,0.45703 c 0.37924,0 0.63694,0.0033 0.82422,0.03125 a 0.50005,0.50005 0 0 0 0.36914,-0.0918 c 0.33972,-0.24972 0.64889,-0.26565 1.0684,-0.39844 0.20974,-0.06639 0.46398,-0.18232 0.65234,-0.41602 0.18837,-0.2337 0.28288,-0.53857 0.31445,-0.90039 a 0.50005,0.50005 0 0 0 0.002,-0.04297 l -0.49805,0.49805 c 0.013,-6.48e-4 0.01217,7.37e-4 0.02539,0 l -0.02734,0.002 0,-0.002 -0.01172,-0.43164 c -0.13382,1.1104 -0.9424,0.64372 -1.8203,1.2891 -0.24213,-0.0361 -0.5192,-0.03711 -0.89844,-0.03711 -0.0686,-0.80625 0.20903,-0.95116 0.34565,-1.0977 0.5528,-0.44001 0.93359,-0.2207 0.93359,-0.2207 0.41029,-0.07362 0.7898,0.03396 1.4375,0 l -0.01563,-0.5 c -0.55632,0.03102 -0.92101,-0.06142 -1.4199,0.0078 -0.09349,-0.03131 -0.11997,-0.06244 -0.26172,-0.0625 z m 3.9668,2.6035 0.04883,0.0078 c -0.02073,-0.0074 -0.03227,7.18e-4 -0.05274,-0.0059 9.47e-4,-3.57e-4 0.003,-0.0016 0.0039,-0.002 z"
     id="path4346" />
</svg>
