<?xml version="1.0" encoding="UTF-8" standalone="no"?>
<!-- Created with Inkscape (http://www.inkscape.org/) -->

<svg
   xmlns:dc="http://purl.org/dc/elements/1.1/"
   xmlns:cc="http://creativecommons.org/ns#"
   xmlns:rdf="http://www.w3.org/1999/02/22-rdf-syntax-ns#"
   xmlns:svg="http://www.w3.org/2000/svg"
   xmlns="http://www.w3.org/2000/svg"
   xmlns:sodipodi="http://sodipodi.sourceforge.net/DTD/sodipodi-0.dtd"
   xmlns:inkscape="http://www.inkscape.org/namespaces/inkscape"
   id="svg3143"
   height="48"
   width="48"
   version="1.1"
   inkscape:version="0.91 r13725"
   sodipodi:docname="cutegram.svg">
  <sodipodi:namedview
     pagecolor="#ffffff"
     bordercolor="#666666"
     borderopacity="1"
     objecttolerance="10"
     gridtolerance="10"
     guidetolerance="10"
     inkscape:pageopacity="0"
     inkscape:pageshadow="2"
     inkscape:window-width="1535"
     inkscape:window-height="876"
     id="namedview48"
     showgrid="false"
     inkscape:zoom="4.9166667"
     inkscape:cx="-10.779661"
     inkscape:cy="24"
     inkscape:window-x="65"
     inkscape:window-y="24"
     inkscape:window-maximized="1"
     inkscape:current-layer="svg3143" />
  <defs
     id="defs3145">
    <linearGradient
       id="linearGradient4181"
       y2="43"
       gradientUnits="userSpaceOnUse"
       x2="24"
       gradientTransform="translate(5.3e-6,1)"
       y1="5"
       x1="24">
      <stop
         id="stop3926-7"
         stop-color="#fff"
         offset="0" />
      <stop
         id="stop3928-3"
         stop-color="#fff"
         stop-opacity=".23529"
         offset=".063165" />
      <stop
         id="stop3930-7"
         stop-color="#fff"
         stop-opacity=".15686"
         offset=".95056" />
      <stop
         id="stop3932-1"
         stop-color="#fff"
         stop-opacity=".39216"
         offset="1" />
    </linearGradient>
    <radialGradient
       id="radialGradient6305"
       gradientUnits="userSpaceOnUse"
       cy="9.9941"
       cx="8.2761"
       gradientTransform="matrix(0,6.6678,-8.1859,0,105.88,-59.463)"
       r="12.672">
      <stop
         id="stop3244"
         stop-color="#f89b7e"
         offset="0" />
      <stop
         id="stop3246"
         stop-color="#e35d4f"
         offset=".26238" />
      <stop
         id="stop3248"
         stop-color="#c6262e"
         offset=".66094" />
      <stop
         id="stop3250"
         stop-color="#690b2c"
         offset="1" />
    </radialGradient>
    <radialGradient
       id="radialGradient3013"
       gradientUnits="userSpaceOnUse"
       cy="43.5"
       cx="4.993"
       gradientTransform="matrix(2.0038 0 0 1.4 27.988 -17.4)"
       r="2.5">
      <stop
         id="stop2883"
         stop-color="#181818"
         offset="0" />
      <stop
         id="stop2885"
         stop-color="#181818"
         stop-opacity="0"
         offset="1" />
    </radialGradient>
    <radialGradient
       id="radialGradient3015"
       gradientUnits="userSpaceOnUse"
       cy="43.5"
       cx="4.993"
       gradientTransform="matrix(2.0038 0 0 1.4 -20.012 -104.4)"
       r="2.5">
      <stop
         id="stop2889"
         stop-color="#181818"
         offset="0" />
      <stop
         id="stop2891"
         stop-color="#181818"
         stop-opacity="0"
         offset="1" />
    </radialGradient>
    <linearGradient
       id="linearGradient3141"
       y2="39.999"
       gradientUnits="userSpaceOnUse"
       x2="25.058"
       y1="47.028"
       x1="25.058">
      <stop
         id="stop2895"
         stop-color="#181818"
         stop-opacity="0"
         offset="0" />
      <stop
         id="stop2897"
         stop-color="#181818"
         offset=".5" />
      <stop
         id="stop2899"
         stop-color="#181818"
         stop-opacity="0"
         offset="1" />
    </linearGradient>
    <linearGradient
       id="linearGradient4147"
       y2="160"
       gradientUnits="userSpaceOnUse"
       y1="120"
       gradientTransform="matrix(0.43333,0,0,0.43333,12,12)"
       x2="160"
       x1="135">
      <stop
         id="stop3879-8-6"
         stop-color="#effffc"
         offset="0" />
      <stop
         id="stop3881-8-6"
         stop-color="#fff"
         offset="1" />
    </linearGradient>
  </defs>
  <metadata
     id="metadata3148">
    <rdf:RDF>
      <cc:Work
         rdf:about="">
        <dc:format>image/svg+xml</dc:format>
        <dc:type
           rdf:resource="http://purl.org/dc/dcmitype/StillImage" />
        <dc:title />
      </cc:Work>
    </rdf:RDF>
  </metadata>
  <g
     id="g4176"
     transform="translate(0,-1)">
    <rect
       x="4.5"
       y="5.5"
       width="39"
       height="39"
       ry="2"
       rx="2"
       style="color:#000000;fill:url(#radialGradient6305)"
       id="rect5505-21" />
    <g
       transform="translate(0,1.0004)"
       id="g4235"
       style="fill:none;stroke:#000000;stroke-linecap:round;stroke-linejoin:round">
      <g
         transform="matrix(0.38905,0,0,0.37952,0.084584,-1.4244)"
         id="g4227"
         style="opacity:0.15;stroke-width:2.60240006">
        <path
           d="m 54.467,87.833 c -1.6846,0 -1.3984,-0.6361 -1.9794,-2.2401 l -4.9576,-16.305 30.682,-19.169 3.5805,0.93644 -2.9746,8.1525 z"
           id="path4229"
           inkscape:connector-curvature="0" />
        <path
           d="m 54.467,87.833 c 1.3,0 1.8763,-0.59257 2.6,-1.3 1.1173,-1.0921 15.6,-15.167 15.6,-15.167 l -8.8712,-2.1472 -8.2333,5.2 -1.096,12.981 z"
           id="path4231"
           inkscape:connector-curvature="0" />
        <path
           d="m 55.352,74.576 20.956,15.482 c 2.3914,1.3194 4.1173,0.63629 4.713,-2.2202 l 8.53,-40.197 c 0.873,-3.501 -1.335,-5.089 -3.622,-4.051 l -50.091,19.32 c -3.419,1.3714 -3.3991,3.2789 -0.62321,4.1288 l 12.854,4.0119 29.758,-18.774 c 1.4048,-0.85188 2.6942,-0.3939 1.6359,0.54531 z"
           id="path4233"
           inkscape:connector-curvature="0" />
      </g>
      <g
         transform="matrix(0.38905,0,0,0.37952,0.084584,-1.4244)"
         id="g4219"
         style="opacity:0.15;stroke-width:5.20489979">
        <path
           d="m 54.467,87.833 c -1.6846,0 -1.3984,-0.6361 -1.9794,-2.2401 l -4.9576,-16.305 30.682,-19.169 3.5805,0.93644 -2.9746,8.1525 z"
           id="path4221"
           inkscape:connector-curvature="0" />
        <path
           d="m 54.467,87.833 c 1.3,0 1.8763,-0.59257 2.6,-1.3 1.1173,-1.0921 15.6,-15.167 15.6,-15.167 l -8.8712,-2.1472 -8.2333,5.2 -1.096,12.981 z"
           id="path4223"
           inkscape:connector-curvature="0" />
        <path
           d="m 55.352,74.576 20.956,15.482 c 2.3914,1.3194 4.1173,0.63629 4.713,-2.2202 l 8.53,-40.197 c 0.873,-3.501 -1.335,-5.089 -3.622,-4.051 l -50.091,19.32 c -3.419,1.3714 -3.3991,3.2789 -0.62321,4.1288 l 12.854,4.0119 29.758,-18.774 c 1.4048,-0.85188 2.6942,-0.3939 1.6359,0.54531 z"
           id="path4225"
           inkscape:connector-curvature="0" />
      </g>
    </g>
    <rect
       x="5.5"
       y="6.5"
       width="37"
       height="37"
       ry="1"
       rx="1"
       id="rect6741-2"
       style="opacity:0.5;fill:none;stroke:url(#linearGradient4181);stroke-linecap:round;stroke-linejoin:round" />
    <rect
       x="4.5"
       y="5.5"
       width="39"
       height="39"
       ry="2"
       rx="2"
       style="color:#000000;opacity:0.4;fill:none;stroke:#000000;stroke-linecap:round;stroke-linejoin:round"
       id="rect5505-21-1" />
    <g
       transform="matrix(0.38905,0,0,0.37952,0.084584,-0.42444)"
       id="g3886-2-8">
      <path
         d="m 54.467,87.833 c -1.6846,0 -1.3984,-0.6361 -1.9794,-2.2401 l -4.9576,-16.305 30.682,-19.169 3.5805,0.93644 -2.9746,8.1525 z"
         id="path2993-7-0"
         inkscape:connector-curvature="0"
         style="fill:#c8daea" />
      <path
         d="m 54.467,87.833 c 1.3,0 1.8763,-0.59257 2.6,-1.3 1.1173,-1.0921 15.6,-15.167 15.6,-15.167 l -8.8712,-2.1472 -8.2333,5.2 -1.096,12.981 z"
         id="path2989-7-2"
         inkscape:connector-curvature="0"
         style="fill:#a9c9dd" />
      <path
         d="m 55.352,74.576 20.956,15.482 c 2.3914,1.3194 4.1173,0.63629 4.713,-2.2202 l 8.53,-40.197 c 0.873,-3.501 -1.335,-5.089 -3.622,-4.051 l -50.091,19.32 c -3.419,1.3714 -3.3991,3.2789 -0.62321,4.1288 l 12.854,4.0119 29.758,-18.774 c 1.4048,-0.85188 2.6942,-0.3939 1.6359,0.54531 z"
         id="path2991-1-0"
         style="fill:url(#linearGradient4147)"
         inkscape:connector-curvature="0" />
    </g>
  </g>
</svg>
