<?xml version="1.0" encoding="UTF-8" standalone="no"?>
<!-- Created with Inkscape (http://www.inkscape.org/) -->

<svg
   xmlns:dc="http://purl.org/dc/elements/1.1/"
   xmlns:cc="http://creativecommons.org/ns#"
   xmlns:rdf="http://www.w3.org/1999/02/22-rdf-syntax-ns#"
   xmlns:svg="http://www.w3.org/2000/svg"
   xmlns="http://www.w3.org/2000/svg"
   xmlns:sodipodi="http://sodipodi.sourceforge.net/DTD/sodipodi-0.dtd"
   xmlns:inkscape="http://www.inkscape.org/namespaces/inkscape"
   id="svg4951"
   height="48"
   width="48"
   version="1.1"
   inkscape:version="0.91 r13725"
   sodipodi:docname="darktable.svg">
  <sodipodi:namedview
     pagecolor="#ffffff"
     bordercolor="#666666"
     borderopacity="1"
     objecttolerance="10"
     gridtolerance="10"
     guidetolerance="10"
     inkscape:pageopacity="0"
     inkscape:pageshadow="2"
     inkscape:window-width="1535"
     inkscape:window-height="876"
     id="namedview39"
     showgrid="false"
     inkscape:zoom="4.9166667"
     inkscape:cx="-10.779661"
     inkscape:cy="24"
     inkscape:window-x="65"
     inkscape:window-y="24"
     inkscape:window-maximized="1"
     inkscape:current-layer="svg4951" />
  <defs
     id="defs4953">
    <radialGradient
       id="radialGradient3302"
       gradientUnits="userSpaceOnUse"
       cy="186.17"
       cx="99.157"
       gradientTransform="matrix(.27083 0 0 .087623 -2.8551 25.187)"
       r="62.769">
      <stop
         id="stop3822-2-6-3"
         stop-color="#3d3d3d"
         offset="0" />
      <stop
         id="stop3864-8-7-7"
         stop-color="#686868"
         stop-opacity=".49804"
         offset=".5" />
      <stop
         id="stop3824-1-2-5"
         stop-color="#686868"
         stop-opacity="0"
         offset="1" />
    </radialGradient>
    <radialGradient
       id="radialGradient4448"
       gradientUnits="userSpaceOnUse"
       cy="-17.681"
       cx="14.892"
       gradientTransform="matrix(-1.4387 3.8089e-8 -2.8328e-8 -1.07 45.169 -14.596)"
       r="25.571">
      <stop
         id="stop3750-1-0-7-6-6-1-3-9-3"
         stop-color="#5f5f5f"
         offset="0" />
      <stop
         id="stop3752-3-7-4-0-32-8-923-0-7"
         stop-color="#515151"
         offset=".26238" />
      <stop
         id="stop3754-1-8-5-2-7-6-7-1-9"
         stop-color="#404040"
         offset=".70495" />
      <stop
         id="stop3756-1-6-2-6-6-1-96-6-0"
         stop-color="#343434"
         offset="1" />
    </radialGradient>
    <linearGradient
       id="linearGradient4450"
       y2="32.568"
       gradientUnits="userSpaceOnUse"
       x2="15.124"
       gradientTransform="matrix(.76418 0 0 .76418 12.377 18.778)"
       y1="-18.801"
       x1="15.124">
      <stop
         id="stop4413"
         stop-color="#fff"
         offset="0" />
      <stop
         id="stop4415"
         stop-color="#fff"
         stop-opacity="0"
         offset="1" />
    </linearGradient>
  </defs>
  <metadata
     id="metadata4956">
    <rdf:RDF>
      <cc:Work
         rdf:about="">
        <dc:format>image/svg+xml</dc:format>
        <dc:type
           rdf:resource="http://purl.org/dc/dcmitype/StillImage" />
        <dc:title />
      </cc:Work>
    </rdf:RDF>
  </metadata>
  <circle
     id="path2985-6"
     cy="24"
     cx="24"
     r="20.526"
     fill="url(#radialGradient4448)" />
  <g
     id="g4857"
     stroke-linejoin="round"
     opacity=".15"
     stroke="#000"
     stroke-linecap="round"
     fill="none">
    <path
       id="path4859"
       d="m27.082 9.6282-3.611 10.156 14.243-2.364c-2.103-3.994-5.988-6.933-10.632-7.7918" />
    <path
       id="path4861"
       d="m38.16 19.439-10.745 1.9887 9.2049 10.984c2.4586-3.7983 3.092-8.5889 1.528-12.973m0.01201 0" />
    <path
       id="path4863"
       d="m35.078 33.804-7.1256-8.1667-5.0532 13.348c4.5689 0.19506 9.0958-1.6566 12.164-5.1817m0.01201 0" />
    <path
       id="path4865"
       d="m20.921 38.357 3.6193-10.155-14.251 2.3638c2.1104 3.9973 5.9998 6.9363 10.632 7.7916" />
    <path
       id="path4867"
       d="m9.8434 28.553 10.741-1.989-9.205-10.984c-2.4542 3.802-3.0916 8.589-1.5276 12.974m-0.00801 0" />
    <path
       id="path4869"
       d="m12.919 14.196 7.126 8.166 5.053-13.348c-4.566-0.1951-9.096 1.657-12.16 5.182m-0.01601 0" />
  </g>
  <circle
     id="path3755-9"
     opacity=".6"
     stroke-width=".94845"
     stroke="#242424"
     cy="24"
     cx="24"
     r="20.526"
     fill="none" />
  <circle
     id="path3773-9"
     opacity=".6"
     stroke-width=".93261"
     stroke-opacity=".58824"
     stroke="url(#linearGradient4450)"
     cy="24"
     cx="24"
     r="19.54"
     fill="none" />
  <g
     id="g4745">
    <path
       id="path65"
       d="m27.082 9.6282-3.611 10.156 14.243-2.364c-2.103-3.994-5.988-6.933-10.632-7.7918"
       fill="#e88c3e" />
    <path
       id="path67"
       d="m38.16 19.439-10.745 1.9887 9.2049 10.984c2.4586-3.7983 3.092-8.5889 1.528-12.973m0.01201 0"
       fill="#f3e94e" />
    <path
       id="path69"
       d="m35.078 33.804-7.1256-8.1667-5.0532 13.348c4.5689 0.19506 9.0958-1.6566 12.164-5.1817m0.01201 0"
       fill="#52d762" />
    <path
       id="path71"
       d="m20.921 38.357 3.6193-10.155-14.251 2.3638c2.1104 3.9973 5.9998 6.9363 10.632 7.7916"
       fill="#589ae0" />
    <path
       id="path73"
       d="m9.8434 28.553 10.741-1.989-9.205-10.984c-2.4542 3.802-3.0916 8.589-1.5276 12.974m-0.00801 0"
       fill="#db4ee1" />
    <path
       id="path75"
       d="m12.919 14.196 7.126 8.166 5.053-13.348c-4.566-0.1951-9.096 1.657-12.16 5.182m-0.01601 0"
       fill="#e74545" />
  </g>
  <path
     id="path77"
     d="m26.092 23.992c0 1.1374-0.9346 2.0597-2.0873 2.0597s-2.0913-0.92231-2.0913-2.0597 0.9386-2.0597 2.0913-2.0597 2.0873 0.92231 2.0873 2.0597"
     fill="#f9f9f9" />
  <path
     id="path4467"
     opacity=".15"
     d="m26.092 23.992c0 1.1374-0.9346 2.0597-2.0873 2.0597s-2.0913-0.92231-2.0913-2.0597 0.9386-2.0597 2.0913-2.0597 2.0873 0.92231 2.0873 2.0597"
     stroke="#000"
     fill="none" />
  <g
     id="g4753"
     opacity=".15"
     fill="#fff">
    <path
       id="path4755"
       d="m25.098 9.0137c-4.566-0.1951-9.097 1.6563-12.16 5.1813h-0.018l7.125 8.168 5.053-13.349zm-0.743 0.5488l-4.482 11.844-6.25-7.164c2.786-3.02 6.703-4.6544 10.732-4.6795zm2.727 0.0664l-3.611 10.154 14.244-2.363c-2.104-3.993-5.989-6.932-10.633-7.7911zm0.311 0.6151c4.058 0.873 7.442 3.393 9.47 6.809l-12.636 2.097 3.166-8.906zm-16.014 5.336c-2.3844 3.694-3.0457 8.314-1.6485 12.594l0.0039-0.004 0.0039 0.031c0.0383 0.117 0.0719 0.234 0.1133 0.35l10.732-1.987-9.205-10.984zm-1.5274 12.971l-0.0078 0.002h0.0078v-0.002zm1.6324-12.067l8.166 9.745-9.298 1.72v-0.039l-0.131 0.033c-1.2454-3.883-0.7237-8.019 1.263-11.459zm26.664 2.954c0.001 0.001 0.002 0.002 0.002 0.003l0.01-0.002-0.012-0.001zm0.002 0.003l-10.736 1.987 9.205 10.984c2.458-3.797 3.094-8.587 1.531-12.971zm-0.377 0.579c1.257 3.891 0.735 8.043-1.259 11.488l-8.166-9.744 9.425-1.744zm-9.822 5.617l-5.053 13.349c4.569 0.195 9.097-1.656 12.164-5.181h0.016l-7.127-8.168zm0.172 0.957l6.252 7.166c-2.789 3.019-6.704 4.652-10.734 4.678l4.482-11.844zm-3.584 1.607l-14.25 2.363c2.11 3.998 5.999 6.938 10.631 7.793l3.619-10.156zm-0.756 0.633l-3.174 8.908c-4.048-0.869-7.434-3.391-9.468-6.81l12.642-2.098z"
       fill="#fff" />
  </g>
</svg>
