<?xml version="1.0" encoding="UTF-8" standalone="no"?>
<!-- Created with Inkscape (http://www.inkscape.org/) -->

<svg
   xmlns:dc="http://purl.org/dc/elements/1.1/"
   xmlns:cc="http://creativecommons.org/ns#"
   xmlns:rdf="http://www.w3.org/1999/02/22-rdf-syntax-ns#"
   xmlns:svg="http://www.w3.org/2000/svg"
   xmlns="http://www.w3.org/2000/svg"
   xmlns:xlink="http://www.w3.org/1999/xlink"
   xmlns:sodipodi="http://sodipodi.sourceforge.net/DTD/sodipodi-0.dtd"
   xmlns:inkscape="http://www.inkscape.org/namespaces/inkscape"
   id="svg3367"
   height="48"
   width="48"
   version="1.0"
   inkscape:version="0.48.4 r9939"
   sodipodi:docname="dvdrip.svg">
  <metadata
     id="metadata63">
    <rdf:RDF>
      <cc:Work
         rdf:about="">
        <dc:format>image/svg+xml</dc:format>
        <dc:type
           rdf:resource="http://purl.org/dc/dcmitype/StillImage" />
        <dc:title></dc:title>
      </cc:Work>
    </rdf:RDF>
  </metadata>
  <sodipodi:namedview
     pagecolor="#ffffff"
     bordercolor="#666666"
     borderopacity="1"
     objecttolerance="10"
     gridtolerance="10"
     guidetolerance="10"
     inkscape:pageopacity="0"
     inkscape:pageshadow="2"
     inkscape:window-width="1855"
     inkscape:window-height="1056"
     id="namedview61"
     showgrid="true"
     inkscape:zoom="19.25"
     inkscape:cx="24"
     inkscape:cy="13.61039"
     inkscape:window-x="65"
     inkscape:window-y="24"
     inkscape:window-maximized="1"
     inkscape:current-layer="layer1">
    <inkscape:grid
       type="xygrid"
       id="grid3123" />
  </sodipodi:namedview>
  <defs
     id="defs3369">
    <radialGradient
       id="radialGradient2476"
       gradientUnits="userSpaceOnUse"
       cy="41.636"
       cx="23.335"
       gradientTransform="matrix(.97227 0 0 .28724 1.3125 27.541)"
       r="22.627">
      <stop
         id="stop23421"
         offset="0" />
      <stop
         id="stop23423"
         style="stop-opacity:0"
         offset="1" />
    </radialGradient>
    <linearGradient
       id="linearGradient3260"
       y2="45.033"
       gradientUnits="userSpaceOnUse"
       x2="-21.916"
       gradientTransform="translate(50.265)"
       y1="3"
       x1="-21.916">
      <stop
         id="stop3774"
         style="stop-color:#b4b4b4"
         offset="0" />
      <stop
         id="stop3776"
         style="stop-color:#969696"
         offset="1" />
    </linearGradient>
    <linearGradient
       id="linearGradient2473"
       y2="14.203"
       gradientUnits="userSpaceOnUse"
       x2="35.391"
       gradientTransform="matrix(0 1.1714 -1.1714 0 51.06 -4.1145)"
       y1="32.416"
       x1="12.274">
      <stop
         id="stop3265"
         style="stop-color:#dedbde"
         offset="0" />
      <stop
         id="stop3267"
         style="stop-color:#e6e6e6"
         offset=".5" />
      <stop
         id="stop3269"
         style="stop-color:#d2d2d2"
         offset="1" />
    </linearGradient>
    <linearGradient
       id="linearGradient2469"
       y2="32.509"
       gradientUnits="userSpaceOnUse"
       x2="21.448"
       gradientTransform="matrix(.9375 0 0 .9375 1.5 1.5)"
       y1="15.5"
       x1="21.448">
      <stop
         id="stop3430"
         style="stop-color:#aaa"
         offset="0" />
      <stop
         id="stop3432"
         style="stop-color:#d4d4d4"
         offset="1" />
    </linearGradient>
    <linearGradient
       id="linearGradient2448"
       y2="45.962"
       xlink:href="#linearGradient6036"
       gradientUnits="userSpaceOnUse"
       x2="18.203"
       gradientTransform="matrix(.42934 0 0 .42934 13.547 13.266)"
       y1="4.0378"
       x1="18.776" />
    <linearGradient
       id="linearGradient3354"
       y2="20.613"
       xlink:href="#linearGradient3519"
       spreadMethod="reflect"
       gradientUnits="userSpaceOnUse"
       x2="9.7298"
       y1="17.886"
       x1="10.609" />
    <linearGradient
       id="linearGradient3352"
       y2="13.462"
       xlink:href="#linearGradient3511"
       spreadMethod="reflect"
       gradientUnits="userSpaceOnUse"
       x2="14.609"
       y1="16.188"
       x1="12.372" />
    <linearGradient
       id="linearGradient3350"
       y2="10.732"
       xlink:href="#linearGradient3503"
       spreadMethod="reflect"
       gradientUnits="userSpaceOnUse"
       x2="16.994"
       y1="13.046"
       x1="14.085" />
    <linearGradient
       id="linearGradient3348"
       y2="9.7956"
       xlink:href="#linearGradient3495"
       spreadMethod="reflect"
       gradientUnits="userSpaceOnUse"
       x2="21.047"
       y1="11.2"
       x1="17.495" />
    <linearGradient
       id="linearGradient3346"
       y2="9.8622"
       xlink:href="#linearGradient3487"
       spreadMethod="reflect"
       gradientUnits="userSpaceOnUse"
       x2="24.274"
       y1="10.775"
       x1="20.58" />
    <linearGradient
       id="linearGradient6036">
      <stop
         id="stop6038"
         style="stop-color:#fff"
         offset="0" />
      <stop
         id="stop6040"
         style="stop-color:#fff;stop-opacity:0"
         offset="1" />
    </linearGradient>
    <linearGradient
       id="linearGradient3359"
       y2="54.698"
       xlink:href="#linearGradient6036"
       gradientUnits="userSpaceOnUse"
       x2="48.799"
       gradientTransform="matrix(.98497 0 0 .98497 .019022 -.62415)"
       y1="3.61"
       x1="10.502" />
    <linearGradient
       id="linearGradient3519">
      <stop
         id="stop3521"
         style="stop-color:#fcd9cd"
         offset="0" />
      <stop
         id="stop3523"
         style="stop-color:#fcd9cd;stop-opacity:0"
         offset="1" />
    </linearGradient>
    <linearGradient
       id="linearGradient3511">
      <stop
         id="stop3513"
         style="stop-color:#ebeec7"
         offset="0" />
      <stop
         id="stop3515"
         style="stop-color:#ebeec7;stop-opacity:0"
         offset="1" />
    </linearGradient>
    <linearGradient
       id="linearGradient3503">
      <stop
         id="stop3505"
         style="stop-color:#c4ebdd"
         offset="0" />
      <stop
         id="stop3507"
         style="stop-color:#c4ebdd;stop-opacity:0"
         offset="1" />
    </linearGradient>
    <linearGradient
       id="linearGradient3495">
      <stop
         id="stop3497"
         style="stop-color:#c1cbe4"
         offset="0" />
      <stop
         id="stop3499"
         style="stop-color:#c1cbe4;stop-opacity:0"
         offset="1" />
    </linearGradient>
    <linearGradient
       id="linearGradient3487">
      <stop
         id="stop3489"
         style="stop-color:#e6cde2"
         offset="0" />
      <stop
         id="stop3491"
         style="stop-color:#e6cde2;stop-opacity:0"
         offset="1" />
    </linearGradient>
    <linearGradient
       inkscape:collect="always"
       xlink:href="#linearGradient3308-4-6-931-761"
       id="linearGradient3423"
       gradientUnits="userSpaceOnUse"
       gradientTransform="matrix(1.1103991,0,0,1.1103983,-3.0601951,-2.8972219)"
       x1="23.99999"
       y1="4.999989"
       x2="23.99999"
       y2="43" />
    <linearGradient
       id="linearGradient3308-4-6-931-761">
      <stop
         id="stop2919"
         style="stop-color:#ffffff;stop-opacity:1"
         offset="0" />
      <stop
         id="stop2921"
         style="stop-color:#ffffff;stop-opacity:0"
         offset="1" />
    </linearGradient>
    <radialGradient
       inkscape:collect="always"
       xlink:href="#linearGradient2867-449-88-871-390-598-476-591-434-148-9-7"
       id="radialGradient3419"
       gradientUnits="userSpaceOnUse"
       gradientTransform="matrix(0,2.4706747,-3.3069641,-1.0425267e-7,51.532575,-15.090392)"
       cx="7.4956832"
       cy="8.4497671"
       fx="7.4956832"
       fy="8.4497671"
       r="19.99999" />
    <linearGradient
       id="linearGradient2867-449-88-871-390-598-476-591-434-148-9-7">
      <stop
         offset="0"
         style="stop-color:#eea651;stop-opacity:1;"
         id="stop4627-2-7" />
      <stop
         offset="0.26238"
         style="stop-color:#d28449;stop-opacity:1;"
         id="stop4629-8-6" />
      <stop
         offset="0.704952"
         style="stop-color:#b46d34;stop-opacity:1;"
         id="stop4631-3-4" />
      <stop
         offset="1"
         style="stop-color:#99501b;stop-opacity:1;"
         id="stop4633-0-3" />
    </linearGradient>
    <linearGradient
       inkscape:collect="always"
       xlink:href="#linearGradient3332-412-419-652-471-761-410-156-661-505-7-3"
       id="linearGradient3421"
       gradientUnits="userSpaceOnUse"
       gradientTransform="matrix(1.0743157,0,0,1.0743156,-2.1942022,-2.0312449)"
       x1="24"
       y1="44"
       x2="24"
       y2="3.8990016" />
    <linearGradient
       id="linearGradient3332-412-419-652-471-761-410-156-661-505-7-3">
      <stop
         offset="0"
         style="stop-color:#865420;stop-opacity:1;"
         id="stop8032-8-0" />
      <stop
         offset="1"
         style="stop-color:#be8054;stop-opacity:1;"
         id="stop8034-9-9" />
    </linearGradient>
    <radialGradient
       inkscape:collect="always"
       xlink:href="#linearGradient3688-166-749"
       id="radialGradient3413"
       gradientUnits="userSpaceOnUse"
       gradientTransform="matrix(2.003784,0,0,3.1044587,27.663048,-100.8976)"
       cx="4.9929786"
       cy="43.5"
       fx="4.9929786"
       fy="43.5"
       r="2.5" />
    <linearGradient
       id="linearGradient3688-166-749">
      <stop
         id="stop2883"
         style="stop-color:#181818;stop-opacity:1"
         offset="0" />
      <stop
         id="stop2885"
         style="stop-color:#181818;stop-opacity:0"
         offset="1" />
    </linearGradient>
    <radialGradient
       inkscape:collect="always"
       xlink:href="#linearGradient3688-464-309"
       id="radialGradient3415"
       gradientUnits="userSpaceOnUse"
       gradientTransform="matrix(2.003784,0,0,3.1044587,-19.686788,-169.19031)"
       cx="4.9929786"
       cy="43.5"
       fx="4.9929786"
       fy="43.5"
       r="2.5" />
    <linearGradient
       id="linearGradient3688-464-309">
      <stop
         id="stop2889"
         style="stop-color:#181818;stop-opacity:1"
         offset="0" />
      <stop
         id="stop2891"
         style="stop-color:#181818;stop-opacity:0"
         offset="1" />
    </linearGradient>
    <linearGradient
       inkscape:collect="always"
       xlink:href="#linearGradient3702-501-757"
       id="linearGradient3417"
       gradientUnits="userSpaceOnUse"
       gradientTransform="matrix(1,0,0,2.2174705,-0.32508164,-62.31362)"
       x1="25.058096"
       y1="47.027729"
       x2="25.058096"
       y2="39.999443" />
    <linearGradient
       id="linearGradient3702-501-757">
      <stop
         id="stop2895"
         style="stop-color:#181818;stop-opacity:0"
         offset="0" />
      <stop
         id="stop2897"
         style="stop-color:#181818;stop-opacity:1"
         offset="0.5" />
      <stop
         id="stop2899"
         style="stop-color:#181818;stop-opacity:0"
         offset="1" />
    </linearGradient>
    <linearGradient
       id="linearGradient6036-8">
      <stop
         id="stop6038-1"
         style="stop-color:#ffffff;stop-opacity:1"
         offset="0" />
      <stop
         id="stop6040-1"
         style="stop-color:#ffffff;stop-opacity:0;"
         offset="1" />
    </linearGradient>
    <linearGradient
       id="linearGradient3932">
      <stop
         id="stop3934"
         style="stop-color:#eea651;stop-opacity:1;"
         offset="0" />
      <stop
         id="stop3936"
         style="stop-color:#d28449;stop-opacity:1;"
         offset="0.26238" />
      <stop
         id="stop3938"
         style="stop-color:#b46d34;stop-opacity:1;"
         offset="0.51428568" />
      <stop
         id="stop3940"
         style="stop-color:#99501b;stop-opacity:1;"
         offset="1" />
    </linearGradient>
    <linearGradient
       x1="23.99999"
       y1="4.999989"
       x2="23.99999"
       y2="43"
       id="linearGradient2470"
       xlink:href="#linearGradient3308-4-6-931-761-8"
       gradientUnits="userSpaceOnUse"
       gradientTransform="matrix(1.1134079,0,0,1.1037852,-2.5809799,11.880443)" />
    <linearGradient
       id="linearGradient3308-4-6-931-761-8">
      <stop
         id="stop2919-7"
         style="stop-color:#ffffff;stop-opacity:1"
         offset="0" />
      <stop
         id="stop2921-6"
         style="stop-color:#ffffff;stop-opacity:0"
         offset="1" />
    </linearGradient>
    <linearGradient
       id="linearGradient6036-86">
      <stop
         id="stop6038-4"
         style="stop-color:#ffffff;stop-opacity:1"
         offset="0" />
      <stop
         id="stop6040-9"
         style="stop-color:#ffffff;stop-opacity:0;"
         offset="1" />
    </linearGradient>
    <linearGradient
       id="linearGradient2867-449-88-871-390-598-476-591-434-148-57-177-1">
      <stop
         id="stop3750-4"
         style="stop-color:#90dbec;stop-opacity:1"
         offset="0" />
      <stop
         id="stop3752-1"
         style="stop-color:#55c1ec;stop-opacity:1"
         offset="0.26238" />
      <stop
         id="stop3754-4"
         style="stop-color:#3689e6;stop-opacity:1"
         offset="0.704952" />
      <stop
         id="stop3756-7"
         style="stop-color:#2b63a0;stop-opacity:1"
         offset="1" />
    </linearGradient>
    <linearGradient
       x1="23.99999"
       y1="4.999989"
       x2="23.99999"
       y2="43"
       id="linearGradient2470-1"
       xlink:href="#linearGradient3308-4-6-931-761-9"
       gradientUnits="userSpaceOnUse"
       gradientTransform="matrix(1.1134079,0,0,1.1037852,-2.5809799,11.880443)" />
    <linearGradient
       id="linearGradient3308-4-6-931-761-9">
      <stop
         id="stop2919-1"
         style="stop-color:#ffffff;stop-opacity:1"
         offset="0" />
      <stop
         id="stop2921-0"
         style="stop-color:#ffffff;stop-opacity:0"
         offset="1" />
    </linearGradient>
    <linearGradient
       inkscape:collect="always"
       xlink:href="#linearGradient6036-7"
       id="linearGradient4068"
       x1="30"
       y1="3"
       x2="30"
       y2="74"
       gradientUnits="userSpaceOnUse"
       gradientTransform="matrix(0.82982873,0,0,0.82265767,-2.5545135,-4.9331038)" />
    <linearGradient
       id="linearGradient6036-7">
      <stop
         id="stop6038-14"
         style="stop-color:#ffffff;stop-opacity:1"
         offset="0" />
      <stop
         id="stop6040-97"
         style="stop-color:#ffffff;stop-opacity:0;"
         offset="1" />
    </linearGradient>
    <radialGradient
       inkscape:collect="always"
       xlink:href="#linearGradient3242-7-3-8-0-4-58-06"
       id="radialGradient3930"
       cx="12.984319"
       cy="42.991318"
       fx="12.984319"
       fy="42.991318"
       r="25.999998"
       gradientTransform="matrix(7.0262815e-8,2.2811672,-3.0262524,6.0112163e-7,154.10273,-16.908846)"
       gradientUnits="userSpaceOnUse" />
    <linearGradient
       id="linearGradient3242-7-3-8-0-4-58-06">
      <stop
         id="stop3244-5-8-5-6-4-3-8"
         style="stop-color:#cdf87e;stop-opacity:1"
         offset="0" />
      <stop
         id="stop3246-9-5-1-5-3-0-7"
         style="stop-color:#a2e34f;stop-opacity:1"
         offset="0.26238" />
      <stop
         id="stop3248-7-2-0-7-5-35-9"
         style="stop-color:#68b723;stop-opacity:1"
         offset="0.66093999" />
      <stop
         id="stop3250-8-2-8-5-6-40-4"
         style="stop-color:#1d7e0d;stop-opacity:1"
         offset="1" />
    </linearGradient>
    <linearGradient
       x1="23.99999"
       y1="4.999989"
       x2="23.99999"
       y2="43"
       id="linearGradient2470-5"
       xlink:href="#linearGradient3308-4-6-931-761-4"
       gradientUnits="userSpaceOnUse"
       gradientTransform="matrix(1.1134079,0,0,1.1037852,-2.5809799,11.880443)" />
    <linearGradient
       id="linearGradient3308-4-6-931-761-4">
      <stop
         id="stop2919-2"
         style="stop-color:#ffffff;stop-opacity:1"
         offset="0" />
      <stop
         id="stop2921-7"
         style="stop-color:#ffffff;stop-opacity:0"
         offset="1" />
    </linearGradient>
    <linearGradient
       y2="43"
       x2="23.99999"
       y1="4.999989"
       x1="23.99999"
       gradientTransform="matrix(1.1134079,0,0,1.1037852,-3.0807687,-4.0215648)"
       gradientUnits="userSpaceOnUse"
       id="linearGradient3716"
       xlink:href="#linearGradient3308-4-6-931-761-4"
       inkscape:collect="always" />
  </defs>
  <g
     id="layer1">
    <path
       id="path2781"
       style="stroke:url(#linearGradient3260);fill:url(#linearGradient2473)"
       d="m44.5 24c0-11.363-9.137-20.5-20.5-20.5s-20.5 9.137-20.5 20.5 9.137 20.5 20.5 20.5 20.5-9.137 20.5-20.5zm-13 0c0 4.1281-3.2893 7.5-7.5 7.5-4.2933 0-7.5-3.4553-7.5-7.5 0-4.1273 3.0415-7.5 7.5-7.5s7.5 3.4545 7.5 7.5z" />
    <path
       id="path2474"
       style="opacity:.5;fill:#fff"
       d="m24 16c-4.416 0-8 3.584-8 8s3.584 8 8 8 8-3.584 8-8-3.584-8-8-8zm0 4c2.208 0 4 1.792 4 4s-1.792 4-4 4-4-1.792-4-4 1.792-4 4-4z" />
    <path
       id="path3418"
       style="stroke-linejoin:round;stroke:url(#linearGradient2469);fill:none"
       d="m24 16.5c-4.14 0-7.5 3.36-7.5 7.5s3.36 7.5 7.5 7.5 7.5-3.36 7.5-7.5-3.36-7.5-7.5-7.5zm0 3.75c2.07 0 3.75 1.68 3.75 3.75s-1.68 3.75-3.75 3.75-3.75-1.68-3.75-3.75 1.68-3.75 3.75-3.75z" />
    <path
       id="path3281"
       style="opacity:.8;stroke:url(#linearGradient2448);fill:none"
       d="m24 15.5c-4.7114 0-8.5 3.7886-8.5 8.5s3.7886 8.5 8.5 8.5 8.5-3.7886 8.5-8.5-3.7886-8.5-8.5-8.5z" />
    <g
       id="g3527">
      <path
         id="path3296"
         style="opacity:.8;fill:url(#linearGradient3346)"
         d="m15.857 5.7308 4.768 10.613c1.035-0.459 2.17-0.719 3.375-0.719 0.03206 0 0.06178-0.00036 0.09375 0l0.01426-11.62c-2.9422-0.070687-5.543 0.65729-8.2511 1.726z"
         transform="matrix(.99960 .028243 -.028243 .99960 .69241 -.67083)" />
      <path
         id="path3308"
         style="opacity:.8;fill:url(#linearGradient3348)"
         d="m12.121 7.906 6.931 9.3601c0.91311-0.66976 1.9659-1.1671 3.1426-1.4252 0.03132-0.0069 0.06026-0.01359 0.09157-0.02009l-2.429-11.395c-2.889 0.56132-5.3195 1.8556-7.7357 3.4797z" />
      <path
         id="path3310"
         style="opacity:.8;fill:url(#linearGradient3350)"
         d="m8.2524 11.647 9.2137 7.1558c0.70865-0.88326 1.5969-1.6361 2.6667-2.19 0.02847-0.01474 0.05469-0.02872 0.08325-0.0431l-5.35-10.319c-2.645 1.2895-4.7 3.2014-6.6136 5.396z" />
      <path
         id="path3312"
         style="opacity:.8;fill:url(#linearGradient3352)"
         d="m5.6329 16.074c7.1748 2.2422 7.8503 7.0315 12.777 1.7541l-7.91-8.6959c-2.2213 1.9309-3.5867 4.3269-4.8671 6.9419z" />
      <path
         id="path3314"
         style="opacity:.8;fill:url(#linearGradient3354)"
         d="m7.1553 13.193c-1.1831 1.752-1.9077 3.637-2.5251 5.644l11.339 2.975c0.21551-0.763 0.51805-1.5148 0.96875-2.2188 0.01729-0.027 0.04496-0.06702 0.0625-0.09375l-9.8447-6.306z" />
    </g>
    <path
       id="path3272"
       style="opacity:.5;stroke:url(#linearGradient3359);fill:none"
       d="m24 4.5c-10.809 0-19.5 8.6914-19.5 19.5s8.6914 19.5 19.5 19.5 19.5-8.691 19.5-19.5-8.691-19.5-19.5-19.5z" />
    <g
       id="g3297"
       transform="matrix(-1 0 0 -1 48 47.991)">
      <path
         id="path3299"
         style="opacity:.8;fill:url(#linearGradient3346)"
         d="m15.857 5.7308 4.768 10.613c1.035-0.459 2.17-0.719 3.375-0.719 0.03206 0 0.06178-0.00036 0.09375 0l0.01426-11.62c-2.9422-0.070687-5.543 0.65729-8.2511 1.726z"
         transform="matrix(.99960 .028243 -.028243 .99960 .69241 -.67083)" />
      <path
         id="path3301"
         style="opacity:.8;fill:url(#linearGradient3348)"
         d="m12.121 7.906 6.931 9.3601c0.91311-0.66976 1.9659-1.1671 3.1426-1.4252 0.03132-0.0069 0.06026-0.01359 0.09157-0.02009l-2.429-11.395c-2.889 0.56132-5.3195 1.8556-7.7357 3.4797z" />
      <path
         id="path3303"
         style="opacity:.8;fill:url(#linearGradient3350)"
         d="m8.2524 11.647 9.2137 7.1558c0.70865-0.88326 1.5969-1.6361 2.6667-2.19 0.02847-0.01474 0.05469-0.02872 0.08325-0.0431l-5.35-10.319c-2.645 1.2895-4.7 3.2014-6.6136 5.396z" />
      <path
         id="path3305"
         style="opacity:.8;fill:url(#linearGradient3352)"
         d="m5.6329 16.074c7.1748 2.2422 7.8503 7.0315 12.777 1.7541l-7.91-8.6959c-2.2213 1.9309-3.5867 4.3269-4.8671 6.9419z" />
      <path
         id="path3307"
         style="opacity:.8;fill:url(#linearGradient3354)"
         d="m7.1553 13.193c-1.1831 1.752-1.9077 3.637-2.5251 5.644l11.339 2.975c0.21551-0.763 0.51805-1.5148 0.96875-2.2188 0.01729-0.027 0.04496-0.06702 0.0625-0.09375l-9.8447-6.306z" />
    </g>
    <rect
       width="41.818523"
       height="15.563412"
       rx="2.070224"
       ry="0.77046561"
       x="2.8322542"
       y="30.006203"
       id="rect6741"
       style="opacity:0.4;fill:none;stroke:url(#linearGradient3716);stroke-width:0.40611565;stroke-linecap:round;stroke-linejoin:round;stroke-miterlimit:4;stroke-opacity:1;stroke-dasharray:none;stroke-dashoffset:0" />
    <rect
       style="fill:url(#radialGradient3930);fill-opacity:1;stroke:none"
       id="rect3152"
       width="42.254005"
       height="15.563827"
       x="2.872998"
       y="30.063175"
       ry="1.9454783"
       rx="1.6403118" />
    <rect
       rx="1.6403118"
       ry="1.9454783"
       y="30.063175"
       x="2.872998"
       height="15.563827"
       width="42.254005"
       id="rect3942"
       style="opacity:0.6;fill:none;stroke:#126400;stroke-width:0.74599588;stroke-linecap:round;stroke-linejoin:round;stroke-miterlimit:4;stroke-opacity:1;stroke-dasharray:none" />
    <rect
       style="opacity:0.6;fill:none;stroke:url(#linearGradient4068);stroke-width:0.74599588;stroke-linecap:round;stroke-linejoin:round;stroke-miterlimit:4;stroke-opacity:1;stroke-dasharray:none"
       id="rect4060"
       width="40.576515"
       height="13.830696"
       x="3.7009692"
       y="30.918503"
       ry="1.1679776"
       rx="0.77050877" />
    <path
       inkscape:connector-curvature="0"
       id="path4267"
       d="m 14.1001,41.559327 c -0.83071,-0.189639 -1.481729,-0.750233 -1.704975,-1.468166 -0.154637,-0.497292 -0.169634,-1.311537 -0.03282,-1.782146 0.202093,-0.695179 0.764091,-1.261099 1.481561,-1.491896 0.489127,-0.157346 1.4489,-0.175484 1.884715,-0.03559 0.978812,0.314128 1.524401,1.086454 1.595229,2.258186 l 0.0337,0.557541 -1.791022,0 -1.791023,0 0.04091,0.135617 c 0.07628,0.252891 0.216416,0.51605 0.329147,0.61807 0.431505,0.390503 1.596201,0.351358 2.560946,-0.08608 l 0.392238,-0.177851 0,0.566711 c 0,0.661736 0.03212,0.626101 -0.734286,0.814837 -0.659835,0.162492 -1.757438,0.206505 -2.264311,0.09079 z m 1.671563,-3.062113 c -0.0016,-0.219819 -0.253986,-0.596613 -0.480267,-0.717025 -0.279892,-0.148931 -0.581225,-0.14098 -0.903829,0.02385 -0.303811,0.155238 -0.465325,0.351661 -0.520405,0.632885 l -0.03837,0.195891 0.97193,0 c 0.968039,0 0.971926,-5.45e-4 0.970938,-0.135617 z m 10.451953,3.063806 c -1.042814,-0.238626 -1.719598,-0.986325 -1.82257,-2.013543 -0.178261,-1.778285 0.78792,-2.860365 2.552572,-2.858771 0.686041,6.18e-4 1.02629,0.08793 1.481853,0.380272 0.619421,0.397478 0.947389,1.04152 1.003558,1.970709 l 0.0337,0.557542 -1.791022,0 -1.791023,0 0.0409,0.135617 c 0.187371,0.621239 0.485258,0.840032 1.192372,0.875773 0.577109,0.02916 1.115485,-0.07978 1.696967,-0.343444 l 0.392993,-0.178191 0,0.566711 c 0,0.661736 0.03212,0.626101 -0.734287,0.814838 -0.654841,0.161262 -1.757853,0.20648 -2.256019,0.09249 z m 1.645706,-3.139723 c -0.06945,-0.427961 -0.456537,-0.752859 -0.896973,-0.752859 -0.255134,0 -0.699996,0.222575 -0.843284,0.421919 -0.05957,0.08288 -0.125579,0.238842 -0.146681,0.346583 l -0.03837,0.195891 0.979817,0 0.979817,0 -0.03433,-0.211534 z m 11.433911,3.139723 c -0.75563,-0.172915 -1.333475,-0.618904 -1.627974,-1.256508 -0.163107,-0.353138 -0.173562,-0.42305 -0.173562,-1.160611 0,-0.764134 0.0052,-0.79537 0.196476,-1.18394 0.344656,-0.70009 0.99891,-1.132735 1.902947,-1.258374 1.71875,-0.238854 2.933518,0.790749 2.933518,2.486382 l 0,0.40926 -1.771695,0 -1.771697,0 0.06301,0.248233 c 0.07821,0.308111 0.389343,0.628757 0.691538,0.712676 0.553191,0.153625 1.434228,0.03373 2.155508,-0.293303 l 0.392238,-0.177851 0,0.566711 c 0,0.661736 0.03212,0.626101 -0.734286,0.814838 -0.654841,0.161262 -1.757852,0.20648 -2.256019,0.09249 z m 1.645707,-3.139723 c -0.06945,-0.427961 -0.456538,-0.752859 -0.896973,-0.752859 -0.255134,0 -0.699995,0.222575 -0.843284,0.421919 -0.05957,0.08288 -0.125578,0.238842 -0.14668,0.346583 l -0.03837,0.195891 0.979817,0 0.979816,0 -0.03433,-0.211534 z m -35.4832663,-0.05981 0,-3.17951 1.5822122,0.03256 c 1.7527121,0.03608 2.1696378,0.09701 2.8076333,0.41031 0.4756568,0.233584 0.9775318,0.727892 1.2133708,1.195091 0.613069,1.214478 0.390719,2.896464 -0.497192,3.761054 -0.399529,0.389033 -0.8027618,0.61002 -1.4097051,0.772567 -0.404412,0.108303 -0.70139,0.130662 -2.0839699,0.156869 l -1.6123493,0.03058 0,-3.179516 z M 8.5356564,40.16543 C 9.179987,39.974083 9.5678122,39.508861 9.6933682,38.776675 9.8326362,37.964527 9.5874162,37.197508 9.0682641,36.821438 8.7169333,36.566934 8.3068549,36.462925 7.6547614,36.462925 l -0.5616699,0 0,1.888608 c 0,1.038734 0.020345,1.909423 0.045206,1.934858 0.064417,0.06591 1.0576134,-0.02008 1.3973586,-0.120956 z M 18.978946,38.400007 c -0.636323,-1.719302 -1.156951,-3.143293 -1.156951,-3.164423 0,-0.02113 0.362209,-0.03842 0.804909,-0.03842 l 0.80491,0 0.834961,2.320968 c 0.45923,1.276532 0.852866,2.286889 0.874747,2.24523 0.02188,-0.04164 0.400391,-1.08609 0.841132,-2.320968 l 0.801347,-2.24523 0.80397,0 c 0.442184,0 0.80397,0.01928 0.80397,0.04281 0,0.02354 -0.519539,1.447543 -1.15453,3.164424 l -1.154532,3.121602 -0.973492,0 -0.973491,0 -1.15695,-3.125995 z m 11.681569,-0.03892 0,-3.179892 1.612348,0.03182 c 1.771016,0.03497 2.230929,0.10719 2.864367,0.44993 1.066504,0.577071 1.633928,1.846139 1.439841,3.220267 -0.17982,1.273128 -0.950108,2.130181 -2.220237,2.470338 -0.404413,0.108303 -0.701391,0.130662 -2.083971,0.156869 l -1.612348,0.03058 0,-3.179899 z m 3.077186,1.802182 c 0.430585,-0.127869 0.779097,-0.421826 0.990732,-0.835645 0.1665,-0.325564 0.181451,-0.405164 0.181451,-0.966067 0,-0.560903 -0.01495,-0.640508 -0.181451,-0.966073 -0.337301,-0.659537 -0.887392,-0.932581 -1.878831,-0.932581 l -0.56167,0 0,1.888608 c 0,1.038735 0.02034,1.909422 0.0452,1.934858 0.06508,0.0666 1.059177,-0.02051 1.404562,-0.1231 z"
       style="opacity:0.25;fill:#126400;fill-opacity:1" />
    <path
       style="fill:#ffffff;fill-opacity:1"
       d="m 14.1001,40.817947 c -0.83071,-0.189638 -1.481729,-0.750232 -1.704975,-1.468165 -0.154637,-0.497293 -0.169634,-1.311537 -0.03282,-1.782146 0.202093,-0.69518 0.764091,-1.261099 1.481561,-1.491896 0.489127,-0.157346 1.4489,-0.175485 1.884715,-0.03559 0.978812,0.314128 1.524401,1.086454 1.595229,2.258185 l 0.0337,0.557542 -1.791022,0 -1.791023,0 0.04091,0.135617 c 0.07628,0.25289 0.216416,0.516049 0.329147,0.618069 0.431505,0.390503 1.596201,0.351358 2.560946,-0.08608 l 0.392238,-0.177851 0,0.566711 c 0,0.661736 0.03212,0.6261 -0.734286,0.814837 -0.659835,0.162492 -1.757438,0.206505 -2.264311,0.09079 z m 1.671563,-3.062112 c -0.0016,-0.219819 -0.253986,-0.596613 -0.480267,-0.717025 -0.279892,-0.148931 -0.581225,-0.14098 -0.903829,0.02385 -0.303811,0.155239 -0.465325,0.351662 -0.520405,0.632885 l -0.03837,0.195891 0.97193,0 c 0.968039,0 0.971926,-5.44e-4 0.970938,-0.135617 z m 10.451953,3.063806 c -1.042814,-0.238626 -1.719598,-0.986326 -1.82257,-2.013544 -0.178261,-1.778285 0.78792,-2.860365 2.552572,-2.858771 0.686041,6.19e-4 1.02629,0.08794 1.481853,0.380272 0.619421,0.397479 0.947389,1.041521 1.003558,1.97071 l 0.0337,0.557542 -1.791022,0 -1.791023,0 0.0409,0.135617 c 0.187371,0.621238 0.485258,0.840032 1.192372,0.875773 0.577109,0.02916 1.115485,-0.07978 1.696967,-0.343444 l 0.392993,-0.178191 0,0.56671 c 0,0.661737 0.03212,0.626102 -0.734287,0.814839 -0.654841,0.161261 -1.757853,0.20648 -2.256019,0.09249 z m 1.645706,-3.139723 c -0.06945,-0.427961 -0.456537,-0.752859 -0.896973,-0.752859 -0.255134,0 -0.699996,0.222575 -0.843284,0.421919 -0.05957,0.08288 -0.125579,0.238842 -0.146681,0.346583 l -0.03837,0.195891 0.979817,0 0.979817,0 -0.03433,-0.211534 z m 11.433911,3.139723 c -0.75563,-0.172915 -1.333475,-0.618904 -1.627974,-1.256509 -0.163107,-0.353137 -0.173562,-0.423049 -0.173562,-1.16061 0,-0.764134 0.0052,-0.795371 0.196476,-1.18394 0.344656,-0.70009 0.99891,-1.132735 1.902947,-1.258374 1.71875,-0.238854 2.933518,0.790749 2.933518,2.486382 l 0,0.40926 -1.771695,0 -1.771697,0 0.06301,0.248232 c 0.07821,0.308112 0.389343,0.628758 0.691538,0.712676 0.553191,0.153626 1.434228,0.03373 2.155508,-0.293302 l 0.392238,-0.177851 0,0.56671 c 0,0.661737 0.03212,0.626102 -0.734286,0.814839 -0.654841,0.161261 -1.757852,0.20648 -2.256019,0.09249 z m 1.645707,-3.139723 c -0.06945,-0.427961 -0.456538,-0.752859 -0.896973,-0.752859 -0.255134,0 -0.699995,0.222575 -0.843284,0.421919 -0.05957,0.08288 -0.125578,0.238842 -0.14668,0.346583 l -0.03837,0.195891 0.979817,0 0.979816,0 -0.03433,-0.211534 z m -35.4832663,-0.05981 0,-3.17951 1.5822122,0.03256 c 1.7527121,0.03608 2.1696378,0.09701 2.8076333,0.410311 0.4756568,0.233583 0.9775318,0.727892 1.2133708,1.195091 0.613069,1.214478 0.390719,2.896463 -0.497192,3.761054 -0.399529,0.389033 -0.8027618,0.610019 -1.4097051,0.772567 -0.404412,0.108303 -0.70139,0.130661 -2.0839699,0.156869 l -1.6123493,0.03058 0,-3.179516 z M 8.5356564,39.42405 C 9.179987,39.232703 9.5678122,38.767482 9.6933682,38.035296 9.8326362,37.223147 9.5874162,36.456129 9.0682641,36.080058 8.7169333,35.825555 8.3068549,35.721546 7.6547614,35.721546 l -0.5616699,0 0,1.888608 c 0,1.038734 0.020345,1.909422 0.045206,1.934858 0.064417,0.06591 1.0576134,-0.02008 1.3973586,-0.120956 z M 18.978946,37.658628 c -0.636323,-1.719302 -1.156951,-3.143294 -1.156951,-3.164423 0,-0.02113 0.362209,-0.03843 0.804909,-0.03843 l 0.80491,0 0.834961,2.320968 c 0.45923,1.276532 0.852866,2.28689 0.874747,2.24523 0.02188,-0.04164 0.400391,-1.086089 0.841132,-2.320968 l 0.801347,-2.24523 0.80397,0 c 0.442184,0 0.80397,0.01928 0.80397,0.04281 0,0.02354 -0.519539,1.447543 -1.15453,3.164423 l -1.154532,3.121602 -0.973492,0 -0.973491,0 -1.15695,-3.125994 z m 11.681569,-0.03892 0,-3.179893 1.612348,0.03182 c 1.771016,0.03497 2.230929,0.107191 2.864367,0.449931 1.066504,0.577071 1.633928,1.846139 1.439841,3.220267 -0.17982,1.273127 -0.950108,2.13018 -2.220237,2.470338 -0.404413,0.108303 -0.701391,0.130661 -2.083971,0.156869 l -1.612348,0.03058 0,-3.179899 z m 3.077186,1.802182 c 0.430585,-0.127869 0.779097,-0.421826 0.990732,-0.835646 0.1665,-0.325564 0.181451,-0.405163 0.181451,-0.966067 0,-0.560902 -0.01495,-0.640507 -0.181451,-0.966072 -0.337301,-0.659537 -0.887392,-0.932581 -1.878831,-0.932581 l -0.56167,0 0,1.888608 c 0,1.038734 0.02034,1.909422 0.0452,1.934858 0.06508,0.0666 1.059177,-0.02051 1.404562,-0.1231 z"
       id="path4163"
       inkscape:connector-curvature="0" />
  </g>
  <g
     transform="matrix(0.30508475,0,0,0.30508475,9.5593201,-10.677967)"
     id="layer3">
    <path
       d="m 44.751956,65 -4.76434,0.01045 -3.583985,0 -0.364836,1.477808 2.714814,0.01045 0.627734,0 c 1.742722,0 2.807566,0.684922 2.510936,1.885116 -0.320137,1.315271 -1.848745,1.89034 -3.460585,1.89034 l -0.600907,0 0.77796,-3.232377 -2.69872,0 -1.153528,4.720627 3.841517,0 c 2.880431,0 5.631325,-1.474953 6.105654,-3.37859 0.09462,-0.346388 0.08602,-1.214727 -0.139497,-1.733683 0,-0.02317 -0.01508,-0.03217 -0.02682,-0.07834 -0.0122,-0.01147 -0.02059,-0.09319 0.02682,-0.104435 0.02391,-0.01161 0.06873,0.03536 0.08049,0.047 0.02351,0.05768 0.03755,0.09922 0.03755,0.09922 l 2.441188,6.715414 6.223687,-6.830288 2.628972,0 0.633099,0 c 1.742721,0 2.806542,0.684921 2.521665,1.885115 -0.331888,1.315272 -1.859276,1.890341 -3.471313,1.890341 l -0.606274,0 0.783326,-3.232378 -2.704085,0 -1.148163,4.720628 3.841517,0 c 2.880831,0 5.643477,-1.474953 6.105651,-3.378591 0.47413,-1.892292 -1.565933,-3.373367 -4.458519,-3.373367 l -5.724719,0 c 0,0 -1.518048,1.743671 -1.802723,2.07833 -1.50526,1.765003 -1.781741,2.238536 -1.829549,2.365535 0.01192,-0.127004 -0.04668,-0.597959 -0.686753,-2.386422 -0.1775,-0.484636 -0.718944,-2.057443 -0.718944,-2.057443 l -1.958314,0 0,-0.01045 z m 2.468013,8.355092 C 39.917389,73.355092 34,74.173959 34,75.177547 34,76.192958 39.917389,77 47.219969,77 c 7.302381,0 13.225336,-0.807042 13.225336,-1.822453 0,-1.003588 -5.922955,-1.822455 -13.225336,-1.822455 z m -0.477506,1.258486 c 1.671599,0 3.026001,0.266249 3.026001,0.600521 0,0.33466 -1.354402,0.610966 -3.026001,0.610966 -1.671803,0 -3.020635,-0.276306 -3.020635,-0.610966 0,-0.334272 1.348832,-0.600521 3.020635,-0.600521 z"
       inkscape:connector-curvature="0"
       id="path3745"
       style="opacity:0.6;fill-rule:evenodd;display:inline" />
  </g>
</svg>
