<?xml version="1.0" encoding="UTF-8" standalone="no"?>
<!-- Created with Inkscape (http://www.inkscape.org/) -->

<svg
   xmlns:dc="http://purl.org/dc/elements/1.1/"
   xmlns:cc="http://creativecommons.org/ns#"
   xmlns:rdf="http://www.w3.org/1999/02/22-rdf-syntax-ns#"
   xmlns:svg="http://www.w3.org/2000/svg"
   xmlns="http://www.w3.org/2000/svg"
   xmlns:sodipodi="http://sodipodi.sourceforge.net/DTD/sodipodi-0.dtd"
   xmlns:inkscape="http://www.inkscape.org/namespaces/inkscape"
   id="svg4031"
   height="48"
   width="48"
   version="1.1"
   inkscape:version="0.91 r13725"
   sodipodi:docname="gnome-emacs.svg">
  <sodipodi:namedview
     pagecolor="#ffffff"
     bordercolor="#666666"
     borderopacity="1"
     objecttolerance="10"
     gridtolerance="10"
     guidetolerance="10"
     inkscape:pageopacity="0"
     inkscape:pageshadow="2"
     inkscape:window-width="1600"
     inkscape:window-height="876"
     id="namedview47"
     showgrid="false"
     inkscape:zoom="1"
     inkscape:cx="22.934097"
     inkscape:cy="24"
     inkscape:window-x="0"
     inkscape:window-y="24"
     inkscape:window-maximized="1"
     inkscape:current-layer="svg4031" />
  <defs
     id="defs4033">
    <linearGradient
       id="linearGradient3012"
       y2="44.341"
       gradientUnits="userSpaceOnUse"
       x2="71.204"
       gradientTransform="matrix(1.0541 0 0 1.0541 -51.611 -2.7279)"
       y1="6.2376"
       x1="71.204">
      <stop
         id="stop4013"
         stop-color="#fff"
         offset="0" />
      <stop
         id="stop4015"
         stop-color="#fff"
         stop-opacity=".23529"
         offset=".50776" />
      <stop
         id="stop4017"
         stop-color="#fff"
         stop-opacity=".15686"
         offset=".83457" />
      <stop
         id="stop4019"
         stop-color="#fff"
         stop-opacity=".39216"
         offset="1" />
    </linearGradient>
    <radialGradient
       id="radialGradient3015"
       gradientUnits="userSpaceOnUse"
       cy="8.4498"
       cx="3.9722"
       gradientTransform="matrix(0 2.4988 -2.6435 -6.8014e-8 46.337 -12.18)"
       r="20">
      <stop
         id="stop3750-8-9"
         stop-color="#ad90ec"
         offset="0"
         style="stop-color:#9e93e9;stop-opacity:1" />
      <stop
         id="stop3752-3-2"
         stop-color="#9b42ea"
         offset=".26238"
         style="stop-color:#8652da;stop-opacity:1" />
      <stop
         id="stop3754-7-2"
         stop-color="#9c36e6"
         offset=".70495"
         style="stop-color:#8558c4;stop-opacity:1" />
      <stop
         id="stop3756-9-3"
         stop-color="#6c2ba0"
         offset="1"
         style="stop-color:#593c8f;stop-opacity:1" />
    </radialGradient>
  </defs>
  <metadata
     id="metadata4036">
    <rdf:RDF>
      <cc:Work
         rdf:about="">
        <dc:format>image/svg+xml</dc:format>
        <dc:type
           rdf:resource="http://purl.org/dc/dcmitype/StillImage" />
        <dc:title></dc:title>
      </cc:Work>
    </rdf:RDF>
  </metadata>
  <path
     id="path2555"
     style="color:#000000"
     d="m24 3.5c-11.311 0-20.5 9.189-20.5 20.5s9.189 20.5 20.5 20.5 20.5-9.189 20.5-20.5-9.189-20.5-20.5-20.5z"
     fill="url(#radialGradient3015)" />
  <path
     id="path8655"
     opacity=".5"
     stroke-linejoin="round"
     style="color:#000000"
     d="m43.5 23.999c0 10.77-8.7311 19.501-19.5 19.501-10.77 0-19.5-8.7309-19.5-19.501 0-10.769 8.7306-19.499 19.5-19.499s19.5 8.73 19.5 19.499v0z"
     stroke="url(#linearGradient3012)"
     stroke-linecap="round"
     fill="none" />
  <path
     id="path2555-6"
     opacity=".5"
     stroke-linejoin="round"
     style="color:#000000;stroke:#24007d;stroke-opacity:1"
     d="m24 3.5c-11.311 0-20.5 9.1888-20.5 20.5s9.1888 20.5 20.5 20.5 20.5-9.1888 20.5-20.5-9.1888-20.5-20.5-20.5z"
     fill-opacity="0"
     stroke="#42007d"
     stroke-linecap="round" />
  <path
     d="m 14.363679,36.743945 c 0,0 1.6691,0.48464 3.8909,0.76171 0.89978,0.11221 4.3233,0.50438 6.9481,0.49409 0,0 3.1968,0.004 4.9615,-0.24705 1.8464,-0.26228 2.8925,-0.59701 3.4746,-1.265 0.0152,-0.15928 0.28099,-0.67847 -0.43672,-1.1791 -1.8349,-1.28 -4.207,-1.6304 -8.8146,-2.7246 -5.0951,-1.281 -6.6177,-2.5076 -7.3784,-3.3954 -0.72118,-0.88971 0.13537,-2.7374 4.2409,-3.6439 2.0787,-0.50585 9.8206,-0.59879 9.8206,-0.59879 -2.2211,-1.7634 -6.391,-4.9206 -7.2433,-5.592001 -0.74754,-0.58885 -1.9522,-1.4925 -2.0817,-2.3 -0.17468,-0.78609 1.0627,-1.1646 1.7178,-1.2082 2.1108,-0.14557 4.9931,0.1019 7.5552,0.6114 1.2878,0.25611 1.514,0.21836 1.514,0.21836 1.8342,0.0874 3.2608,-0.87343 3.188,-2.8969 -0.0146,-2.0526 -2.0668,-3.6984 -4.338,-3.7703 -2.1389,-0.067701 -7.4096,0.3057 -7.4096,0.3057 6.1431,1.2665 7.1474,1.5897 7.4678,2.3292 0.18924,0.43671 -0.31612,0.87093 -2.0089,0.78608 -1.8429,-0.0923 -5.6191,-0.5386 -5.6191,-0.5386 -3.5956,-0.55319 -6.0995,-1.0772 -7.1912,0.34937 -0.71327,0.93202 0.1019,2.0671 0.42216,2.7367 1.4266,2.4893 3.8935,4.197101 5.4589,5.400701 0.58903,0.45287 2.3874,1.4557 2.3874,1.4557 -5.59,-1.5285 -10.044,-0.66963 -12.869,0.81521 -3.2461998,1.9216 -2.6910001,5.1642 2.4602,8.1957 3.0424,1.7905 4.5573,2.6507 9.5387,3.2623 2.9117,0.46428 3.3456,0.65424 3.3235,0.89661 -0.0312,0.34122 -3.4463,0.47051 -4.385,0.53526 -2.3881,0.16469 -8.5642,0.20588 -8.5951,0.20588 z"
     style="fill:none;enable-background:new;stroke:#000000;stroke-opacity:1;stroke-linejoin:round;stroke-linecap:round;opacity:0.15"
     id="path4170"
     inkscape:connector-curvature="0" />
  <path
     d="m 14.363679,37.744001 c 0,0 1.6691,0.48464 3.8909,0.76171 0.89978,0.11221 4.3233,0.50438 6.9481,0.49409 0,0 3.1968,0.004 4.9615,-0.24705 1.8464,-0.26228 2.8925,-0.59701 3.4746,-1.265 0.0152,-0.15928 0.28099,-0.67847 -0.43672,-1.1791 -1.8349,-1.28 -4.207,-1.6304 -8.8146,-2.7246 -5.0951,-1.281 -6.6177,-2.5076 -7.3784,-3.3954 -0.72118,-0.88971 0.13537,-2.7374 4.2409,-3.6439 2.0787,-0.50585 9.8206,-0.59879 9.8206,-0.59879 -2.2211,-1.7634 -6.391,-4.9206 -7.2433,-5.592001 -0.74754,-0.58885 -1.9522,-1.4925 -2.0817,-2.3 -0.17468,-0.78609 1.0627,-1.1646 1.7178,-1.2082 2.1108,-0.14557 4.9931,0.1019 7.5552,0.6114 1.2878,0.25611 1.514,0.21836 1.514,0.21836 1.8342,0.0874 3.2608,-0.87343 3.188,-2.8969 -0.0146,-2.0526 -2.0668,-3.6984 -4.338,-3.7703 -2.1389,-0.0677 -7.4096,0.3057 -7.4096,0.3057 6.1431,1.2665 7.1474,1.5897 7.4678,2.3292 0.18924,0.43671 -0.31612,0.87093 -2.0089,0.78608 -1.8429,-0.0923 -5.6191,-0.5386 -5.6191,-0.5386 -3.5956,-0.55319 -6.0995,-1.0772 -7.1912,0.34937 -0.71327,0.93202 0.1019,2.0671 0.42216,2.7367 1.4266,2.4893 3.8935,4.197101 5.4589,5.400701 0.58903,0.45287 2.3874,1.4557 2.3874,1.4557 -5.59,-1.5285 -10.044,-0.66963 -12.869,0.81521 -3.2461998,1.9216 -2.6910001,5.1642 2.4602,8.1957 3.0424,1.7905 4.5573,2.6507 9.5387,3.2623 2.9117,0.46428 3.3456,0.65424 3.3235,0.89661 -0.0312,0.34122 -3.4463,0.47051 -4.385,0.53526 -2.3881,0.16469 -8.5642,0.20588 -8.5951,0.20588 z"
     style="opacity:0.3;fill:#000000;fill-opacity:1;enable-background:new"
     id="path4172"
     inkscape:connector-curvature="0" />
  <path
     inkscape:connector-curvature="0"
     id="path3076"
     style="fill:#ffffff;enable-background:new"
     d="m 14.363679,36.743945 c 0,0 1.6691,0.48464 3.8909,0.76171 0.89978,0.11221 4.3233,0.50438 6.9481,0.49409 0,0 3.1968,0.004 4.9615,-0.24705 1.8464,-0.26228 2.8925,-0.59701 3.4746,-1.265 0.0152,-0.15928 0.28099,-0.67847 -0.43672,-1.1791 -1.8349,-1.28 -4.207,-1.6304 -8.8146,-2.7246 -5.0951,-1.281 -6.6177,-2.5076 -7.3784,-3.3954 -0.72118,-0.88971 0.13537,-2.7374 4.2409,-3.6439 2.0787,-0.50585 9.8206,-0.59879 9.8206,-0.59879 -2.2211,-1.7634 -6.391,-4.9206 -7.2433,-5.592001 -0.74754,-0.58885 -1.9522,-1.4925 -2.0817,-2.3 -0.17468,-0.78609 1.0627,-1.1646 1.7178,-1.2082 2.1108,-0.14557 4.9931,0.1019 7.5552,0.6114 1.2878,0.25611 1.514,0.21836 1.514,0.21836 1.8342,0.0874 3.2608,-0.87343 3.188,-2.8969 -0.0146,-2.0526 -2.0668,-3.6984 -4.338,-3.7703 -2.1389,-0.067701 -7.4096,0.3057 -7.4096,0.3057 6.1431,1.2665 7.1474,1.5897 7.4678,2.3292 0.18924,0.43671 -0.31612,0.87093 -2.0089,0.78608 -1.8429,-0.0923 -5.6191,-0.5386 -5.6191,-0.5386 -3.5956,-0.55319 -6.0995,-1.0772 -7.1912,0.34937 -0.71327,0.93202 0.1019,2.0671 0.42216,2.7367 1.4266,2.4893 3.8935,4.197101 5.4589,5.400701 0.58903,0.45287 2.3874,1.4557 2.3874,1.4557 -5.59,-1.5285 -10.044,-0.66963 -12.869,0.81521 -3.2461998,1.9216 -2.6910001,5.1642 2.4602,8.1957 3.0424,1.7905 4.5573,2.6507 9.5387,3.2623 2.9117,0.46428 3.3456,0.65424 3.3235,0.89661 -0.0312,0.34122 -3.4463,0.47051 -4.385,0.53526 -2.3881,0.16469 -8.5642,0.20588 -8.5951,0.20588 z" />
</svg>
