<?xml version="1.0" encoding="UTF-8" standalone="no"?>
<svg
   xmlns:dc="http://purl.org/dc/elements/1.1/"
   xmlns:cc="http://creativecommons.org/ns#"
   xmlns:rdf="http://www.w3.org/1999/02/22-rdf-syntax-ns#"
   xmlns:svg="http://www.w3.org/2000/svg"
   xmlns="http://www.w3.org/2000/svg"
   xmlns:xlink="http://www.w3.org/1999/xlink"
   xmlns:sodipodi="http://sodipodi.sourceforge.net/DTD/sodipodi-0.dtd"
   xmlns:inkscape="http://www.inkscape.org/namespaces/inkscape"
   version="1.1"
   width="48"
   height="48"
   id="svg4405"
   inkscape:version="0.91 r13725"
   sodipodi:docname="fcitx.svg">
  <sodipodi:namedview
     pagecolor="#ffffff"
     bordercolor="#666666"
     borderopacity="1"
     objecttolerance="10"
     gridtolerance="10"
     guidetolerance="10"
     inkscape:pageopacity="0"
     inkscape:pageshadow="2"
     inkscape:window-width="1535"
     inkscape:window-height="876"
     id="namedview44"
     showgrid="false"
     inkscape:zoom="1"
     inkscape:cx="14.330435"
     inkscape:cy="17.900115"
     inkscape:window-x="65"
     inkscape:window-y="24"
     inkscape:window-maximized="1"
     inkscape:current-layer="svg4405" />
  <defs
     id="defs4407">
    <linearGradient
       id="linearGradient3194">
      <stop
         id="stop3196"
         style="stop-color:#ffffff;stop-opacity:1"
         offset="0" />
      <stop
         id="stop3198"
         style="stop-color:#ffffff;stop-opacity:0.23529412"
         offset="0.02201707" />
      <stop
         id="stop3200"
         style="stop-color:#ffffff;stop-opacity:0.15686275"
         offset="0.97170585" />
      <stop
         id="stop3202"
         style="stop-color:#ffffff;stop-opacity:0.39215687"
         offset="1" />
    </linearGradient>
    <linearGradient
       id="linearGradient2867-449-88-871-390-598-476-591-434-148-57-177-641-289-620-227-114-444-680-744-4-8-69-5-4-8-426-2-9-1-4-965">
      <stop
         offset="0"
         style="stop-color:#f4f4f4;stop-opacity:1"
         id="stop4036" />
      <stop
         offset="1"
         style="stop-color:#d0d0d0;stop-opacity:1"
         id="stop4040" />
    </linearGradient>
    <linearGradient
       xlink:href="#linearGradient3194"
       id="linearGradient3120"
       gradientUnits="userSpaceOnUse"
       gradientTransform="matrix(1,0,0,0.91891901,1.060833e-6,0.4459561)"
       x1="23.99999"
       y1="6.0525022"
       x2="23.99999"
       y2="42.005959" />
    <radialGradient
       xlink:href="#linearGradient2867-449-88-871-390-598-476-591-434-148-57-177-641-289-620-227-114-444-680-744-4-8-69-5-4-8-426-2-9-1-4-965"
       id="radialGradient3131"
       gradientUnits="userSpaceOnUse"
       gradientTransform="matrix(1.8457014e-8,2.2770635,-2.34864,-4.1952199e-8,43.845531,-11.500506)"
       cx="20.930695"
       cy="8.4497671"
       fx="20.930695"
       fy="8.4497671"
       r="19.99999" />
    <linearGradient
       xlink:href="#linearGradient4549-0"
       id="linearGradient3127-9"
       gradientUnits="userSpaceOnUse"
       gradientTransform="translate(-59.384129,8.1440679)"
       x1="30.643436"
       y1="3.915791"
       x2="30.643436"
       y2="30.093096" />
    <linearGradient
       id="linearGradient4549-0">
      <stop
         offset="0"
         style="stop-color:#000000;stop-opacity:0.27205881"
         id="stop4551-4" />
      <stop
         offset="1"
         style="stop-color:#000000;stop-opacity:0.36764705"
         id="stop4553-4" />
    </linearGradient>
  </defs>
  <metadata
     id="metadata4410">
    <rdf:RDF>
      <cc:Work
         rdf:about="">
        <dc:format>image/svg+xml</dc:format>
        <dc:type
           rdf:resource="http://purl.org/dc/dcmitype/StillImage" />
        <dc:title />
      </cc:Work>
    </rdf:RDF>
  </metadata>
  <rect
     style="color:#000000;display:inline;overflow:visible;visibility:visible;fill:none;stroke:url(#linearGradient3127-9);stroke-width:1;stroke-linecap:round;stroke-linejoin:round;stroke-miterlimit:4;stroke-dasharray:none;stroke-dashoffset:0;stroke-opacity:1;marker:none;enable-background:accumulate"
     id="rect5505-21-6"
     y="4.5"
     x="4.5000081"
     ry="2"
     rx="2"
     height="39"
     width="39" />
  <rect
     width="37.999935"
     height="37.999935"
     rx="1.5"
     ry="1.5"
     x="5"
     y="5.0000648"
     id="rect5505"
     style="color:#000000;display:inline;overflow:visible;visibility:visible;fill:url(#radialGradient3131);fill-opacity:1;fill-rule:nonzero;stroke:none;stroke-width:1;marker:none;enable-background:accumulate" />
  <rect
     width="37"
     height="34"
     rx="1"
     ry="1"
     x="5.5"
     y="5.500001"
     id="rect6741-7"
     style="fill:none;stroke:url(#linearGradient3120);stroke-width:1;stroke-linecap:round;stroke-linejoin:round;stroke-miterlimit:4;stroke-dasharray:none;stroke-dashoffset:0;stroke-opacity:1" />
  <path
     inkscape:connector-curvature="0"
     style="color:#000000;display:inline;overflow:visible;visibility:visible;opacity:0.1;fill:#000000;fill-opacity:1;fill-rule:nonzero;stroke:none;stroke-width:1;marker:none;enable-background:accumulate"
     d="m 5,38.5 0,3 C 5,42.331 5.669,43 6.5,43 l 35,0 c 0.831,0 1.5,-0.669 1.5,-1.5 l 0,-3 c 0,0.831 -0.669,1.5 -1.5,1.5 l -35,0 C 5.669,40 5,39.331 5,38.5 Z"
     id="rect5505-0" />
  <path
     sodipodi:nodetypes="scccccscccscccccssssssssssssssssssssssscccscccsscsss"
     inkscape:connector-curvature="0"
     id="path4249"
     d="M 23.914062,15 C 19.013613,15 17.240218,18.583208 17,22.527344 c -0.589704,0.160993 -0.806767,0.767038 -1.34375,1.625 -0.75977,1.214075 -0.876508,2.475897 -0.261719,2.818359 0.508497,0.283043 1.360713,-0.152824 2.070313,-1.001953 0.04719,1.714719 -0.220787,3.228059 0.535156,4.357422 -1.246583,0.194316 -2,0.701134 -2,1.294922 C 16,32.382299 17.197726,33 19,33 c 1.741499,-0.316835 3.359761,-0.95085 4.966797,-1 1.808199,-0.286888 3.363112,0.969849 5.033203,1 1.801849,0 3,-0.6177 3,-1.378906 0,-0.603825 -0.721104,-1.116047 -2,-1.302735 0.763171,-1.145823 0.426233,-2.687613 0.46875,-4.43164 0.72193,0.902526 1.612066,1.376662 2.136719,1.083984 C 33.220683,26.628642 33.10437,25.364867 32.34375,24.150391 31.785933,23.258303 31.601608,22.639845 31,22.509766 30.755105,18.572857 28.895719,15 23.914062,15 Z M 21.5,18 C 22.328517,18 23,18.671932 23,19.5 23,20.328067 22.328517,21 21.5,21 20.671483,21 20,20.328067 20,19.5 20,18.671522 20.671483,18 21.5,18 Z m 5,0 C 27.328149,18 28,18.671933 28,19.5 28,20.328067 27.328659,21 26.5,21 25.670831,21 25,20.328477 25,19.5 25,18.671522 25.670831,18 26.5,18 Z m -5,1 C 21.223858,19 21,19.223858 21,19.5 21,19.776142 21.223858,20 21.5,20 21.776142,20 22,19.776142 22,19.5 22,19.223858 21.776142,19 21.5,19 Z m 5,0 C 26.223858,19 26,19.223858 26,19.5 26,19.776142 26.223858,20 26.5,20 26.776142,20 27,19.776142 27,19.5 27,19.223858 26.776142,19 26.5,19 Z m -4.205078,2 3.410156,0 c 0.109067,0 0.206224,0.0424 0.259766,0.103516 0.05089,0.0607 0.04523,0.134478 -0.01367,0.191406 l -1.705078,1.621094 C 24.19189,22.967916 24.099777,23 24.001953,23 c -0.09849,0 -0.191891,-0.03013 -0.246094,-0.08203 l -1.705078,-1.623047 c -0.06212,-0.05651 -0.06786,-0.130711 -0.01563,-0.191406 C 22.086066,21.042396 22.187175,21 22.294922,21 Z M 24,24 c 1.657055,0 3,1.566866 3,3.5 8.34e-4,1.93275 -1.342945,3.5 -3,3.5 -1.656639,0 -3,-1.566865 -3,-3.5 0,-1.933134 1.343778,-3.5 3,-3.5 z"
     style="opacity:0.5;fill:#ffffff;fill-opacity:1" />
  <path
     style="opacity:0.5;fill:#000000;fill-opacity:1"
     d="M 23.914062,14 C 19.013613,14 17.240218,17.583208 17,21.527344 c -0.589704,0.160993 -0.806767,0.767038 -1.34375,1.625 -0.75977,1.214075 -0.876508,2.475897 -0.261719,2.818359 0.508497,0.283043 1.360713,-0.152824 2.070313,-1.001953 0.04719,1.714719 -0.220787,3.228059 0.535156,4.357422 -1.246583,0.194316 -2,0.701134 -2,1.294922 C 16,31.382299 17.197726,32 19,32 c 1.741499,-0.316835 3.359761,-0.95085 4.966797,-1 1.808199,-0.286888 3.363112,0.969849 5.033203,1 1.801849,0 3,-0.6177 3,-1.378906 0,-0.603825 -0.721104,-1.116047 -2,-1.302735 0.763171,-1.145823 0.426233,-2.687613 0.46875,-4.43164 0.72193,0.902526 1.612066,1.376662 2.136719,1.083984 C 33.220683,25.628642 33.10437,24.364867 32.34375,23.150391 31.785933,22.258303 31.601608,21.639845 31,21.509766 30.755105,17.572857 28.895719,14 23.914062,14 Z M 21.5,17 C 22.328517,17 23,17.671932 23,18.5 23,19.328067 22.328517,20 21.5,20 20.671483,20 20,19.328067 20,18.5 20,17.671522 20.671483,17 21.5,17 Z m 5,0 C 27.328149,17 28,17.671933 28,18.5 28,19.328067 27.328659,20 26.5,20 25.670831,20 25,19.328477 25,18.5 25,17.671522 25.670831,17 26.5,17 Z m -5,1 C 21.223858,18 21,18.223858 21,18.5 21,18.776142 21.223858,19 21.5,19 21.776142,19 22,18.776142 22,18.5 22,18.223858 21.776142,18 21.5,18 Z m 5,0 C 26.223858,18 26,18.223858 26,18.5 26,18.776142 26.223858,19 26.5,19 26.776142,19 27,18.776142 27,18.5 27,18.223858 26.776142,18 26.5,18 Z m -4.205078,2 3.410156,0 c 0.109067,0 0.206224,0.0424 0.259766,0.103516 0.05089,0.0607 0.04523,0.134478 -0.01367,0.191406 l -1.705078,1.621094 C 24.19189,21.967916 24.099777,22 24.001953,22 c -0.09849,0 -0.191891,-0.03013 -0.246094,-0.08203 l -1.705078,-1.623047 c -0.06212,-0.05651 -0.06786,-0.130711 -0.01563,-0.191406 C 22.086066,20.042396 22.187175,20 22.294922,20 Z M 24,23 c 1.657055,0 3,1.566866 3,3.5 8.34e-4,1.93275 -1.342945,3.5 -3,3.5 -1.656639,0 -3,-1.566865 -3,-3.5 0,-1.933134 1.343778,-3.5 3,-3.5 z"
     id="path4212"
     inkscape:connector-curvature="0"
     sodipodi:nodetypes="scccccscccscccccssssssssssssssssssssssscccscccsscsss" />
  <path
     style="opacity:0.1;fill:#000000;fill-opacity:1"
     d="M 23.914062 14 C 19.013613 14 17.240218 17.583208 17 21.527344 C 16.410296 21.688337 16.193233 22.294382 15.65625 23.152344 C 14.89648 24.366419 14.779742 25.628241 15.394531 25.970703 C 15.903028 26.253746 16.755244 25.817879 17.464844 24.96875 C 17.512034 26.683469 17.244057 28.196809 18 29.326172 C 16.753417 29.520488 16 30.027306 16 30.621094 C 16 31.382299 17.197726 32 19 32 C 20.741499 31.683165 22.359761 31.04915 23.966797 31 C 25.774996 30.713112 27.329909 31.969849 29 32 C 30.801849 32 32 31.3823 32 30.621094 C 32 30.017269 31.278896 29.505047 30 29.318359 C 30.763171 28.172536 30.426233 26.630746 30.46875 24.886719 C 31.19068 25.789245 32.080816 26.263381 32.605469 25.970703 C 33.220683 25.628642 33.10437 24.364867 32.34375 23.150391 C 31.785933 22.258303 31.601608 21.639845 31 21.509766 C 30.755105 17.572857 28.895719 14 23.914062 14 z M 23.914062 15 C 26.008833 15 27.279221 15.688206 28.207031 16.712891 C 27.757206 16.284304 27.162575 16 26.5 16 C 25.130915 16 24 17.131712 24 18.5 C 24 18.693987 24.166066 18.818074 24.208984 19 L 23.791016 19 C 23.833931 18.818047 24 18.694041 24 18.5 C 24 17.13133 22.869187 16 21.5 16 C 20.131142 16 19 17.131187 19 18.5 C 19 19.799704 20.047034 20.819668 21.322266 20.925781 C 21.347256 20.953611 21.351043 21.009561 21.376953 21.033203 C 21.376953 21.033203 21.376953 21.035156 21.376953 21.035156 L 22.705078 22.296875 C 21.107485 22.919205 20 24.591393 20 26.5 C 20 28.136861 20.834871 29.584518 22.070312 30.371094 C 21.01699 30.596995 19.935866 30.799694 18.947266 30.990234 C 18.193845 30.981734 17.579184 30.848074 17.253906 30.693359 C 17.16521 30.651172 17.138768 30.64465 17.125 30.644531 C 17.306515 30.534024 17.655804 30.392158 18.154297 30.314453 A 1.0001 1.0001 0 0 0 18.830078 28.769531 C 18.364598 28.074113 18.515343 26.776368 18.464844 24.941406 A 1.0001 1.0001 0 0 0 16.697266 24.328125 C 16.461871 24.609806 16.233483 24.766891 16.042969 24.884766 C 16.087129 24.579273 16.217314 24.141554 16.503906 23.683594 C 16.796428 23.216219 16.99399 22.842403 17.126953 22.652344 C 17.259916 22.462285 17.2463 22.49693 17.263672 22.492188 A 1.0001 1.0001 0 0 0 17.998047 21.587891 C 18.110195 19.746527 18.589741 18.06204 19.498047 16.900391 C 20.406353 15.738746 21.707572 15 23.914062 15 z M 28.275391 16.765625 C 28.324981 16.822185 28.407678 16.847525 28.455078 16.90625 C 29.392182 18.067256 29.888078 19.741625 30.001953 21.572266 A 1.0001 1.0001 0 0 0 30.789062 22.486328 C 30.790563 22.486642 30.731805 22.416868 30.859375 22.605469 C 30.986947 22.794069 31.188361 23.187545 31.496094 23.679688 A 1.0001 1.0001 0 0 0 31.496094 23.681641 C 31.784838 24.142677 31.918067 24.586777 31.960938 24.892578 C 31.755971 24.765685 31.501086 24.575616 31.25 24.261719 A 1.0001 1.0001 0 0 0 29.46875 24.863281 C 29.44575 25.806813 29.518576 26.63985 29.503906 27.304688 C 29.489236 27.969524 29.397201 28.419503 29.167969 28.763672 A 1.0001 1.0001 0 0 0 29.855469 30.308594 C 30.37194 30.383985 30.722675 30.526465 30.892578 30.632812 C 30.871455 30.638259 30.842702 30.647412 30.746094 30.693359 C 30.412458 30.852034 29.79018 30.996404 29.009766 30.998047 C 28.421065 30.985627 27.711021 30.727275 26.859375 30.435547 C 26.632647 30.357881 26.363341 30.29962 26.113281 30.228516 C 27.238749 29.413426 28.000669 28.050207 28 26.5 C 28 24.59232 26.893632 22.919894 25.296875 22.296875 L 26.640625 21.019531 A 1.0001 1.0001 0 0 0 26.646484 21.013672 C 26.668474 20.992422 26.670246 20.944232 26.691406 20.919922 C 27.959312 20.806292 29 19.79427 29 18.5 C 29 17.826816 28.716179 17.217538 28.275391 16.765625 z M 21.5 17 C 22.328517 17 23 17.671932 23 18.5 C 23 19.328067 22.328517 20 21.5 20 C 20.671483 20 20 19.328067 20 18.5 C 20 17.671522 20.671483 17 21.5 17 z M 26.5 17 C 27.328149 17 28 17.671933 28 18.5 C 28 19.328067 27.328659 20 26.5 20 C 25.670831 20 25 19.328477 25 18.5 C 25 17.671522 25.670831 17 26.5 17 z M 26.5 18 C 26.7643 18 27 18.2357 27 18.5 C 27 18.223858 26.776142 18 26.5 18 z M 26.5 18 C 26.223858 18 26 18.223858 26 18.5 C 26 18.2357 26.2357 18 26.5 18 z M 21 18.5 C 21 18.776142 21.223858 19 21.5 19 C 21.2357 19 21 18.7643 21 18.5 z M 21.5 19 C 21.776142 19 22 18.776142 22 18.5 C 22 18.7643 21.7643 19 21.5 19 z M 22.294922 20 L 25.705078 20 C 25.814145 20 25.911302 20.0424 25.964844 20.103516 C 26.015734 20.164216 26.010072 20.237994 25.951172 20.294922 L 24.246094 21.916016 C 24.191888 21.967916 24.099777 22 24.001953 22 C 23.903463 22 23.810062 21.969869 23.755859 21.917969 L 22.050781 20.294922 C 21.988661 20.238412 21.982926 20.164211 22.035156 20.103516 C 22.086071 20.042395 22.187175 20 22.294922 20 z M 24 23 C 25.657055 23 27 24.566866 27 26.5 C 27.000834 28.43275 25.657055 30 24 30 C 22.343361 30 21 28.433135 21 26.5 C 21 24.566866 22.343778 23 24 23 z M 23.935547 30 C 23.912187 30.000714 23.894384 30.012772 23.871094 30.013672 C 23.849604 30.016772 23.832137 30.008319 23.810547 30.011719 L 23.935547 30 z "
     id="path4152" />
</svg>
