<?xml version="1.0" encoding="UTF-8" standalone="no"?>
<!-- Created with Inkscape (http://www.inkscape.org/) -->

<svg
   xmlns:dc="http://purl.org/dc/elements/1.1/"
   xmlns:cc="http://creativecommons.org/ns#"
   xmlns:rdf="http://www.w3.org/1999/02/22-rdf-syntax-ns#"
   xmlns:svg="http://www.w3.org/2000/svg"
   xmlns="http://www.w3.org/2000/svg"
   xmlns:xlink="http://www.w3.org/1999/xlink"
   xmlns:sodipodi="http://sodipodi.sourceforge.net/DTD/sodipodi-0.dtd"
   xmlns:inkscape="http://www.inkscape.org/namespaces/inkscape"
   width="48"
   height="48"
   id="svg4290"
   version="1.1"
   inkscape:version="0.91 r"
   viewBox="0 0 48 48"
   sodipodi:docname="filezilla48.svg">
  <defs
     id="defs4292">
    <linearGradient
       inkscape:collect="always"
       id="linearGradient4886">
      <stop
         style="stop-color:#000000;stop-opacity:1;"
         offset="0"
         id="stop4888" />
      <stop
         style="stop-color:#000000;stop-opacity:0;"
         offset="1"
         id="stop4890" />
    </linearGradient>
    <linearGradient
       inkscape:collect="always"
       id="linearGradient4876">
      <stop
         style="stop-color:#000000;stop-opacity:0"
         offset="0"
         id="stop4878" />
      <stop
         id="stop4884"
         offset="0.4919357"
         style="stop-color:#000000;stop-opacity:1" />
      <stop
         style="stop-color:#000000;stop-opacity:0;"
         offset="1"
         id="stop4880" />
    </linearGradient>
    <linearGradient
       inkscape:collect="always"
       id="linearGradient4858">
      <stop
         style="stop-color:#ffffff;stop-opacity:1;"
         offset="0"
         id="stop4860" />
      <stop
         id="stop4866"
         offset="0.17169811"
         style="stop-color:#ffffff;stop-opacity:0.23529412" />
      <stop
         style="stop-color:#ffffff;stop-opacity:0.15686275"
         offset="0.83396226"
         id="stop4868" />
      <stop
         style="stop-color:#ffffff;stop-opacity:0.39215687"
         offset="1"
         id="stop4862" />
    </linearGradient>
    <linearGradient
       inkscape:collect="always"
       id="linearGradient4845">
      <stop
         style="stop-color:#e60000;stop-opacity:1"
         offset="0"
         id="stop4847" />
      <stop
         style="stop-color:#b40000;stop-opacity:1"
         offset="1"
         id="stop4849" />
    </linearGradient>
    <radialGradient
       inkscape:collect="always"
       xlink:href="#linearGradient4845"
       id="radialGradient4851"
       cx="23.491604"
       cy="12.7937"
       fx="23.491604"
       fy="12.7937"
       r="19.5"
       gradientUnits="userSpaceOnUse"
       gradientTransform="matrix(2.0916442e-8,2.5271696,-2.5165667,2.0828686e-8,56.092475,-45.123355)" />
    <linearGradient
       inkscape:collect="always"
       xlink:href="#linearGradient4876"
       id="linearGradient4882"
       x1="-18.285713"
       y1="25.535713"
       x2="-18.285713"
       y2="29.964285"
       gradientUnits="userSpaceOnUse" />
    <radialGradient
       inkscape:collect="always"
       xlink:href="#linearGradient4886"
       id="radialGradient4892"
       cx="-31.142857"
       cy="27.678572"
       fx="-31.142857"
       fy="27.678572"
       r="3"
       gradientTransform="matrix(-1.9940476,0,0,-0.75,-93.243196,48.473215)"
       gradientUnits="userSpaceOnUse" />
    <radialGradient
       inkscape:collect="always"
       xlink:href="#linearGradient4886"
       id="radialGradient4896"
       gradientUnits="userSpaceOnUse"
       gradientTransform="matrix(-1.9940476,0,0,-0.75,-62.957483,48.473215)"
       cx="-31.142857"
       cy="27.678572"
       fx="-31.142857"
       fy="27.678572"
       r="3" />
    <linearGradient
       inkscape:collect="always"
       xlink:href="#linearGradient4858"
       id="linearGradient4172"
       x1="23.780001"
       y1="6.3847361"
       x2="23.780001"
       y2="43.944736"
       gradientUnits="userSpaceOnUse" />
    <linearGradient
       id="linearGradient3767">
      <stop
         style="stop-color:#ffffff;stop-opacity:1;"
         offset="0"
         id="stop3769" />
      <stop
         id="stop3777"
         offset="0.08994294"
         style="stop-color:#ffffff;stop-opacity:0.23529412;" />
      <stop
         id="stop3775"
         offset="0.87385589"
         style="stop-color:#ffffff;stop-opacity:0.15686275;" />
      <stop
         style="stop-color:#ffffff;stop-opacity:0.39215687;"
         offset="1"
         id="stop3771" />
    </linearGradient>
  </defs>
  <sodipodi:namedview
     id="base"
     pagecolor="#ffffff"
     bordercolor="#666666"
     borderopacity="1.0"
     inkscape:pageopacity="0.0"
     inkscape:pageshadow="2"
     inkscape:zoom="7.4444984"
     inkscape:cx="22.111467"
     inkscape:cy="20.777274"
     inkscape:current-layer="layer1"
     showgrid="true"
     inkscape:grid-bbox="true"
     inkscape:document-units="px"
     inkscape:window-width="1366"
     inkscape:window-height="713"
     inkscape:window-x="0"
     inkscape:window-y="30"
     inkscape:window-maximized="1" />
  <metadata
     id="metadata4295">
    <rdf:RDF>
      <cc:Work
         rdf:about="">
        <dc:format>image/svg+xml</dc:format>
        <dc:type
           rdf:resource="http://purl.org/dc/dcmitype/StillImage" />
        <dc:title></dc:title>
      </cc:Work>
    </rdf:RDF>
  </metadata>
  <g
     id="layer1"
     inkscape:label="Layer 1"
     inkscape:groupmode="layer">
    <g
       id="g4898"
       transform="translate(39.142857,16.178572)"
       style="opacity:0.4">
      <rect
         y="25.571428"
         x="-31.142857"
         height="4.5"
         width="32"
         id="rect4870"
         style="opacity:1;fill:url(#linearGradient4882);fill-opacity:1;stroke:none;stroke-width:3;stroke-linejoin:round;stroke-miterlimit:4;stroke-dasharray:none;stroke-opacity:1" />
      <rect
         style="opacity:1;fill:url(#radialGradient4892);fill-opacity:1;stroke:none;stroke-width:3;stroke-linejoin:round;stroke-miterlimit:4;stroke-dasharray:none;stroke-opacity:1"
         id="rect4874"
         width="6"
         height="4.5"
         x="-37.142857"
         y="25.571428" />
      <rect
         transform="scale(-1,1)"
         y="25.571428"
         x="-6.8571434"
         height="4.5"
         width="6"
         id="rect4894"
         style="opacity:1;fill:url(#radialGradient4896);fill-opacity:1;stroke:none;stroke-width:3;stroke-linejoin:round;stroke-miterlimit:4;stroke-dasharray:none;stroke-opacity:1" />
    </g>
    <rect
       style="opacity:1;fill:url(#radialGradient4851);fill-opacity:1;stroke:none;stroke-width:3;stroke-linejoin:round;stroke-miterlimit:4;stroke-dasharray:none;stroke-opacity:1"
       id="rect4838"
       width="39"
       height="39"
       x="4.5"
       y="5.5"
       rx="2"
       ry="2" />
    <rect
       ry="2"
       rx="2"
       y="5.5"
       x="4.5"
       height="39"
       width="39"
       id="rect4160"
       style="opacity:0.6;fill:none;fill-opacity:1;stroke:#820000;stroke-width:1;stroke-linejoin:round;stroke-miterlimit:4;stroke-dasharray:none;stroke-opacity:1" />
    <rect
       ry="1"
       rx="1"
       y="6.5"
       x="5.5"
       height="37"
       width="37"
       id="rect4162"
       style="opacity:0.4;fill:none;fill-opacity:1;stroke:url(#linearGradient4172);stroke-width:1;stroke-linejoin:round;stroke-miterlimit:4;stroke-dasharray:none;stroke-opacity:1" />
    <path
       inkscape:connector-curvature="0"
       d="m 38,21.78929 -19.52174,0 1.018787,-4.71471 11.898178,0 L 32.486768,12 15.385184,12 10,37.12111 l 5.166917,0 2.364642,-10.97719 12.393128,0 L 19.155888,36.68914 21.047953,40 c 0.873055,-0.57568 2.292107,-0.64785 3.27463,-0.64785 1.746781,0 3.45685,0.5761 5.239227,0.5761 1.634404,0 3.307535,-0.10808 6.03684,-1.40378 l 0.953645,-4.42666 c -1.856024,0.75551 -4.60212,1.4756 -6.990485,1.4756 -0.981851,0 -1.89162,-0.21588 -2.837655,-0.35987 L 37.162988,25.1726 38,21.78929 Z"
       id="path4173"
       style="fill:#000000;fill-opacity:1;opacity:0.07;stroke:#000000;stroke-opacity:1" />
    <path
       style="fill:#000000;fill-opacity:1;opacity:0.15000019"
       id="path4171"
       d="m 38,21.78929 -19.52174,0 1.018787,-4.71471 11.898178,0 L 32.486768,12 15.385184,12 10,37.12111 l 5.166917,0 2.364642,-10.97719 12.393128,0 L 19.155888,36.68914 21.047953,40 c 0.873055,-0.57568 2.292107,-0.64785 3.27463,-0.64785 1.746781,0 3.45685,0.5761 5.239227,0.5761 1.634404,0 3.307535,-0.10808 6.03684,-1.40378 l 0.953645,-4.42666 c -1.856024,0.75551 -4.60212,1.4756 -6.990485,1.4756 -0.981851,0 -1.89162,-0.21588 -2.837655,-0.35987 L 37.162988,25.1726 38,21.78929 Z"
       inkscape:connector-curvature="0" />
    <path
       inkscape:connector-curvature="0"
       d="m 38,20.78929 -19.52174,0 1.018787,-4.71471 11.898178,0 L 32.486768,11 15.385184,11 10,36.12111 l 5.166917,0 2.364642,-10.97719 12.393128,0 L 19.155888,35.68914 21.047953,39 c 0.873055,-0.57568 2.292107,-0.64785 3.27463,-0.64785 1.746781,0 3.45685,0.5761 5.239227,0.5761 1.634404,0 3.307535,-0.10808 6.03684,-1.40378 l 0.953645,-4.42666 c -1.856024,0.75551 -4.60212,1.4756 -6.990485,1.4756 -0.981851,0 -1.89162,-0.21588 -2.837655,-0.35987 L 37.162988,24.1726 38,20.78929 Z"
       id="path2314"
       style="fill:#f0f0f0;fill-opacity:1" />
  </g>
</svg>
