<?xml version="1.0" encoding="UTF-8" standalone="no"?>
<!-- Created with Inkscape (http://www.inkscape.org/) -->

<svg
   xmlns:dc="http://purl.org/dc/elements/1.1/"
   xmlns:cc="http://creativecommons.org/ns#"
   xmlns:rdf="http://www.w3.org/1999/02/22-rdf-syntax-ns#"
   xmlns:svg="http://www.w3.org/2000/svg"
   xmlns="http://www.w3.org/2000/svg"
   xmlns:sodipodi="http://sodipodi.sourceforge.net/DTD/sodipodi-0.dtd"
   xmlns:inkscape="http://www.inkscape.org/namespaces/inkscape"
   id="svg4031"
   height="48"
   width="48"
   version="1.1"
   inkscape:version="0.91 r13725"
   sodipodi:docname="flightgear.svg">
  <sodipodi:namedview
     pagecolor="#ffffff"
     bordercolor="#666666"
     borderopacity="1"
     objecttolerance="10"
     gridtolerance="10"
     guidetolerance="10"
     inkscape:pageopacity="0"
     inkscape:pageshadow="2"
     inkscape:window-width="1535"
     inkscape:window-height="876"
     id="namedview36"
     showgrid="false"
     inkscape:zoom="4.9166667"
     inkscape:cx="-10.779661"
     inkscape:cy="24"
     inkscape:window-x="65"
     inkscape:window-y="24"
     inkscape:window-maximized="1"
     inkscape:current-layer="svg4031" />
  <defs
     id="defs4033">
    <linearGradient
       id="linearGradient3012"
       y2="44.341"
       gradientUnits="userSpaceOnUse"
       x2="71.204"
       gradientTransform="matrix(1.0541 0 0 1.0541 -51.611 -2.7279)"
       y1="6.2376"
       x1="71.204">
      <stop
         id="stop4013"
         stop-color="#fff"
         offset="0" />
      <stop
         id="stop4015"
         stop-color="#fff"
         stop-opacity=".23529"
         offset=".50776" />
      <stop
         id="stop4017"
         stop-color="#fff"
         stop-opacity=".15686"
         offset=".83457" />
      <stop
         id="stop4019"
         stop-color="#fff"
         stop-opacity=".39216"
         offset="1" />
    </linearGradient>
    <radialGradient
       id="radialGradient3015"
       gradientUnits="userSpaceOnUse"
       cy="8.4498"
       cx="3.9722"
       gradientTransform="matrix(0 2.4988 -2.6435 -6.8014e-8 46.337 -12.18)"
       r="20">
      <stop
         id="stop3750-8-9"
         stop-color="#90dbec"
         offset="0" />
      <stop
         id="stop3752-3-2"
         stop-color="#42baea"
         offset=".26238" />
      <stop
         id="stop3754-7-2"
         stop-color="#3689e6"
         offset=".70495" />
      <stop
         id="stop3756-9-3"
         stop-color="#2b63a0"
         offset="1" />
    </radialGradient>
    <radialGradient
       id="radialGradient3018"
       gradientUnits="userSpaceOnUse"
       cy="186.17"
       cx="99.157"
       gradientTransform="matrix(.27083 0 0 .087623 -2.8551 25.187)"
       r="62.769">
      <stop
         id="stop3822-2-6-3"
         stop-color="#3d3d3d"
         offset="0" />
      <stop
         id="stop3864-8-7-7"
         stop-color="#686868"
         stop-opacity=".49804"
         offset=".5" />
      <stop
         id="stop3824-1-2-5"
         stop-color="#686868"
         stop-opacity="0"
         offset="1" />
    </radialGradient>
  </defs>
  <metadata
     id="metadata4036">
    <rdf:RDF>
      <cc:Work
         rdf:about="">
        <dc:format>image/svg+xml</dc:format>
        <dc:type
           rdf:resource="http://purl.org/dc/dcmitype/StillImage" />
        <dc:title />
      </cc:Work>
    </rdf:RDF>
  </metadata>
  <path
     id="path2555"
     style="color:#000000"
     d="m24 3.5c-11.311 0-20.5 9.189-20.5 20.5s9.189 20.5 20.5 20.5 20.5-9.189 20.5-20.5-9.189-20.5-20.5-20.5z"
     fill="url(#radialGradient3015)" />
  <path
     id="path8655"
     opacity=".5"
     stroke-linejoin="round"
     style="color:#000000"
     d="m43.5 23.999c0 10.77-8.7311 19.501-19.5 19.501-10.77 0-19.5-8.7309-19.5-19.501 0-10.769 8.7306-19.499 19.5-19.499s19.5 8.73 19.5 19.499v0z"
     stroke="url(#linearGradient3012)"
     stroke-linecap="round"
     fill="none" />
  <g
     id="g4377"
     stroke-linejoin="round"
     transform="translate(.82002 .68797)"
     stroke="#000"
     stroke-linecap="round"
     fill="none">
    <g
       id="g4339"
       opacity=".15"
       transform="matrix(.094319 0 0 .094206 11.164 11.319)"
       stroke-width="10.609">
      <g
         id="g4341"
         stroke-linejoin="round"
         stroke="#000"
         stroke-linecap="round"
         stroke-width="10.609"
         fill="none">
        <g
           id="g4343"
           stroke-linejoin="round"
           stroke="#000"
           stroke-linecap="round"
           stroke-width="10.609"
           fill="none">
          <path
             id="path4345"
             stroke-linejoin="round"
             d="m239.56 0.278c-7.636-1.783-22.799 5.204-33.86 15.618l-55.98 52.694c-2.207 2.088-6.305 2.882-9.138 1.783l-102.12-39.566c-2.835-1.094-7.08-0.483-9.479 1.386l-20.137 15.612c-2.399 1.864-2.226 4.627 0.392 6.174l94.086 55.592c2.614 1.542 2.48 3.785-0.177 5.262-10.216 5.666-29.951 24.101-53.434 57.093-1.764 2.474-4.987 4.563-8.002 4.182l-23.513-3.024c-3.015-0.383-7.054 1.176-9.019 3.49l-7.875 9.27c-1.967 2.314-1.347 5.269 1.386 6.6l20.995 10.192c2.735 1.325 3.853 4.616 2.9 7.505-1.008 3.057-2.011 7.168-2.035 11.495-0.019 3.038 2.963 6.081 5.998 6.221 4.219 0.196 10.3-0.354 16.092-3.878 2.595-1.587 5.4-1.106 6.69 1.643l12.396 26.514c1.291 2.754 4.264 3.453 6.648 1.563l5.491-4.345c2.385-1.886 4.125-5.871 3.89-8.905l-2.098-27.274c-0.233-3.024 1.706-6.721 4.292-8.321 11.892-7.351 43.17-27.857 57.132-48.36 1.713-2.516 4.191-2.604 5.806-0.032l54.75 87.171c1.615 2.576 4.644 2.89 6.758 0.71l11.164-11.519c2.118-2.184 3.057-6.281 2.096-9.166l-35.93-107.85c-0.961-2.877-0.079-7.036 1.975-9.273l49.467-53.93c10.25-11.197 18.05-26.72 17.4-34.682-0.65-7.969-7.37-15.873-15.01-17.66z"
             stroke="#000"
             stroke-linecap="round"
             stroke-width="10.609"
             fill="none" />
        </g>
      </g>
    </g>
    <g
       id="g4301"
       opacity=".15"
       transform="matrix(.094319 0 0 .094206 11.164 11.319)"
       stroke-width="21.217">
      <g
         id="g4303"
         stroke-linejoin="round"
         stroke="#000"
         stroke-linecap="round"
         stroke-width="21.217"
         fill="none">
        <g
           id="g4305"
           stroke-linejoin="round"
           stroke="#000"
           stroke-linecap="round"
           stroke-width="21.217"
           fill="none">
          <path
             id="path4307"
             stroke-linejoin="round"
             d="m239.56 0.278c-7.636-1.783-22.799 5.204-33.86 15.618l-55.98 52.694c-2.207 2.088-6.305 2.882-9.138 1.783l-102.12-39.566c-2.835-1.094-7.08-0.483-9.479 1.386l-20.137 15.612c-2.399 1.864-2.226 4.627 0.392 6.174l94.086 55.592c2.614 1.542 2.48 3.785-0.177 5.262-10.216 5.666-29.951 24.101-53.434 57.093-1.764 2.474-4.987 4.563-8.002 4.182l-23.513-3.024c-3.015-0.383-7.054 1.176-9.019 3.49l-7.875 9.27c-1.967 2.314-1.347 5.269 1.386 6.6l20.995 10.192c2.735 1.325 3.853 4.616 2.9 7.505-1.008 3.057-2.011 7.168-2.035 11.495-0.019 3.038 2.963 6.081 5.998 6.221 4.219 0.196 10.3-0.354 16.092-3.878 2.595-1.587 5.4-1.106 6.69 1.643l12.396 26.514c1.291 2.754 4.264 3.453 6.648 1.563l5.491-4.345c2.385-1.886 4.125-5.871 3.89-8.905l-2.098-27.274c-0.233-3.024 1.706-6.721 4.292-8.321 11.892-7.351 43.17-27.857 57.132-48.36 1.713-2.516 4.191-2.604 5.806-0.032l54.75 87.171c1.615 2.576 4.644 2.89 6.758 0.71l11.164-11.519c2.118-2.184 3.057-6.281 2.096-9.166l-35.93-107.85c-0.961-2.877-0.079-7.036 1.975-9.273l49.467-53.93c10.25-11.197 18.05-26.72 17.4-34.682-0.65-7.969-7.37-15.873-15.01-17.66z"
             stroke="#000"
             stroke-linecap="round"
             stroke-width="21.217"
             fill="none" />
        </g>
      </g>
    </g>
  </g>
  <path
     id="path2555-6"
     opacity=".5"
     stroke-linejoin="round"
     style="color:#000000"
     d="m24 3.5c-11.311 0-20.5 9.1888-20.5 20.5s9.1888 20.5 20.5 20.5 20.5-9.1888 20.5-20.5-9.1888-20.5-20.5-20.5z"
     fill-opacity="0"
     stroke="#00537d"
     stroke-linecap="round" />
  <g
     id="g4281"
     fill="#fff"
     transform="matrix(.094319 0 0 .094206 11.986 12)">
    <g
       id="g4239"
       fill="#fff">
      <g
         id="g4241"
         fill="#fff">
        <path
           id="path4243"
           fill="#fff"
           d="m239.56 0.278c-7.636-1.783-22.799 5.204-33.86 15.618l-55.98 52.694c-2.207 2.088-6.305 2.882-9.138 1.783l-102.12-39.566c-2.835-1.094-7.08-0.483-9.479 1.386l-20.137 15.612c-2.399 1.864-2.226 4.627 0.392 6.174l94.086 55.592c2.614 1.542 2.48 3.785-0.177 5.262-10.216 5.666-29.951 24.101-53.434 57.093-1.764 2.474-4.987 4.563-8.002 4.182l-23.513-3.024c-3.015-0.383-7.054 1.176-9.019 3.49l-7.875 9.27c-1.967 2.314-1.347 5.269 1.386 6.6l20.995 10.192c2.735 1.325 3.853 4.616 2.9 7.505-1.008 3.057-2.011 7.168-2.035 11.495-0.019 3.038 2.963 6.081 5.998 6.221 4.219 0.196 10.3-0.354 16.092-3.878 2.595-1.587 5.4-1.106 6.69 1.643l12.396 26.514c1.291 2.754 4.264 3.453 6.648 1.563l5.491-4.345c2.385-1.886 4.125-5.871 3.89-8.905l-2.098-27.274c-0.233-3.024 1.706-6.721 4.292-8.321 11.892-7.351 43.17-27.857 57.132-48.36 1.713-2.516 4.191-2.604 5.806-0.032l54.75 87.171c1.615 2.576 4.644 2.89 6.758 0.71l11.164-11.519c2.118-2.184 3.057-6.281 2.096-9.166l-35.93-107.85c-0.961-2.877-0.079-7.036 1.975-9.273l49.467-53.93c10.25-11.197 18.05-26.72 17.4-34.682-0.65-7.969-7.37-15.873-15.01-17.66z" />
      </g>
    </g>
  </g>
</svg>
