<?xml version="1.0" encoding="UTF-8" standalone="no"?>
<!-- Created with Inkscape (http://www.inkscape.org/) -->

<svg
   xmlns:dc="http://purl.org/dc/elements/1.1/"
   xmlns:cc="http://creativecommons.org/ns#"
   xmlns:rdf="http://www.w3.org/1999/02/22-rdf-syntax-ns#"
   xmlns:svg="http://www.w3.org/2000/svg"
   xmlns="http://www.w3.org/2000/svg"
   xmlns:xlink="http://www.w3.org/1999/xlink"
   xmlns:sodipodi="http://sodipodi.sourceforge.net/DTD/sodipodi-0.dtd"
   xmlns:inkscape="http://www.inkscape.org/namespaces/inkscape"
   version="1.1"
   width="48"
   height="48"
   id="svg3782"
   inkscape:version="0.91 r"
   sodipodi:docname="gdm-setup22.svg">
  <metadata
     id="metadata25">
    <rdf:RDF>
      <cc:Work
         rdf:about="">
        <dc:format>image/svg+xml</dc:format>
        <dc:type
           rdf:resource="http://purl.org/dc/dcmitype/StillImage" />
        <dc:title />
      </cc:Work>
    </rdf:RDF>
  </metadata>
  <sodipodi:namedview
     pagecolor="#ffffff"
     bordercolor="#666666"
     borderopacity="1"
     objecttolerance="10"
     gridtolerance="10"
     guidetolerance="10"
     inkscape:pageopacity="0"
     inkscape:pageshadow="2"
     inkscape:window-width="1548"
     inkscape:window-height="863"
     id="namedview23"
     showgrid="false"
     inkscape:zoom="15.0625"
     inkscape:cx="11.717842"
     inkscape:cy="24"
     inkscape:window-x="123"
     inkscape:window-y="72"
     inkscape:window-maximized="0"
     inkscape:current-layer="layer1" />
  <defs
     id="defs3784">
    <linearGradient
       x1="24.675762"
       y1="4.1577182"
       x2="24.675762"
       y2="46.698467"
       id="linearGradient2635"
       xlink:href="#linearGradient2238"
       gradientUnits="userSpaceOnUse"
       gradientTransform="matrix(0.2885901,0,0,0.281741,1.0734846,1.5216393)" />
    <linearGradient
       id="linearGradient2238">
      <stop
         id="stop2240"
         style="stop-color:#ffffff;stop-opacity:1"
         offset="0" />
      <stop
         id="stop2242"
         style="stop-color:#ffffff;stop-opacity:0"
         offset="1" />
    </linearGradient>
    <linearGradient
       id="linearGradient2867-449-88-871-390-598-476-591-434-148">
      <stop
         id="stop4627"
         style="stop-color:#d0d0d0;stop-opacity:1"
         offset="0" />
      <stop
         id="stop4629"
         style="stop-color:#a0a0a0;stop-opacity:1"
         offset="0.26238" />
      <stop
         id="stop4631"
         style="stop-color:#5e5e5e;stop-opacity:1"
         offset="0.704952" />
      <stop
         id="stop4633"
         style="stop-color:#cecece;stop-opacity:1"
         offset="1" />
    </linearGradient>
    <linearGradient
       id="linearGradient3707-319-631">
      <stop
         id="stop4637"
         style="stop-color:#254b6d;stop-opacity:1"
         offset="0" />
      <stop
         id="stop4639"
         style="stop-color:#415b73;stop-opacity:1"
         offset="0.5" />
      <stop
         id="stop4641"
         style="stop-color:#6195b5;stop-opacity:1"
         offset="1" />
    </linearGradient>
    <linearGradient
       x1="22.226261"
       y1="3.8111546"
       x2="22.226261"
       y2="44.286263"
       id="linearGradient3778"
       xlink:href="#linearGradient2867-449-88-871-390-598-476-591-434-148"
       gradientUnits="userSpaceOnUse"
       gradientTransform="matrix(0.3191203,0,0,0.3174019,0.3411166,0.37846332)" />
    <linearGradient
       x1="34.580818"
       y1="46.148075"
       x2="34.580818"
       y2="3.0448537"
       id="linearGradient3780"
       xlink:href="#linearGradient3707-319-631"
       gradientUnits="userSpaceOnUse"
       gradientTransform="matrix(0.3191203,0,0,0.3174019,0.3411166,0.37846332)" />
    <linearGradient
       id="linearGradient3707-319-631-407-1-846-5-4-5-44">
      <stop
         offset="0"
         style="stop-color:#365a7c;stop-opacity:1"
         id="stop3788-4-8-9-7" />
      <stop
         offset="1"
         style="stop-color:#5ea1ca;stop-opacity:1;"
         id="stop3790-2-1-9-6" />
    </linearGradient>
    <linearGradient
       id="linearGradient2490-654-721">
      <stop
         id="stop2913"
         style="stop-color:#545454;stop-opacity:1"
         offset="0" />
      <stop
         id="stop2915"
         style="stop-color:#a4a4a4;stop-opacity:1"
         offset="1" />
    </linearGradient>
  </defs>
  <g
     id="layer1"
     transform="translate(0,32)">
    <rect
       style="opacity:1;fill:#ffffff;fill-opacity:1;stroke:none;stroke-width:1;stroke-linecap:round;stroke-linejoin:round;stroke-miterlimit:4;stroke-dasharray:none;stroke-dashoffset:0;stroke-opacity:1"
       id="rect4160"
       width="40.232365"
       height="20.514523"
       x="3.8506224"
       y="-17.52697"
       rx="0.60000002"
       ry="0.60000002" />
    <path
       style="fill:#353945;fill-opacity:1;fill-rule:evenodd;stroke:none;stroke-width:1.00213301;stroke-linecap:round;stroke-linejoin:round;stroke-miterlimit:4;stroke-dasharray:none;stroke-dashoffset:0;stroke-opacity:1"
       d="M 5.6850742,-29.779771 C 3.0876847,-29.779771 1,-27.646922 1,-24.992847 L 1,5.2983736 c 0,2.6540748 2.0876847,4.7869234 4.6850742,4.7869234 l 36.6298518,0 C 44.912314,10.085297 47,7.9524484 47,5.2983736 l 0,-30.2912206 c 0,-2.654075 -2.087686,-4.786924 -4.685074,-4.786924 l -36.6298518,0 z m 3.588695,16.253972 29.4524608,0 c 1.019626,0 1.839282,0.819656 1.839282,1.839282 l 0,7.3631139 c 0,1.019625 -0.819656,1.8392823 -1.839282,1.8392823 l -29.4524608,0 c -1.0196255,0 -1.8392811,-0.8196573 -1.8392811,-1.8392823 l 0,-7.3631139 c 0,-1.019626 0.8196556,-1.839282 1.8392811,-1.839282 z"
       id="rect1316"
       inkscape:connector-curvature="0" />
    <g
       transform="matrix(1.2269861,0,0,1.2269861,-4.2949075,-38.068561)"
       id="g2701"
       style="fill:#353945;fill-opacity:1">
      <path
         inkscape:connector-curvature="0"
         d="m 32.726229,25.672094 c 4.58e-4,1.067511 -0.865174,1.933147 -1.933147,1.933147 -1.067977,0 -1.933613,-0.865636 -1.933147,-1.933147 -4.66e-4,-1.067512 0.86517,-1.933147 1.933147,-1.933147 1.067973,0 1.933605,0.865635 1.933147,1.933147 l 0,0 z"
         id="path2598"
         style="fill:#353945;fill-opacity:1;stroke:none" />
      <path
         inkscape:connector-curvature="0"
         d="m 17.261054,25.672094 c 4.59e-4,1.067511 -0.865174,1.933147 -1.933146,1.933147 -1.067977,0 -1.933613,-0.865636 -1.933147,-1.933147 -4.66e-4,-1.067512 0.86517,-1.933147 1.933147,-1.933147 1.067972,0 1.933605,0.865635 1.933146,1.933147 l 0,0 z"
         id="path2600"
         style="fill:#353945;fill-opacity:1;stroke:none" />
      <path
         inkscape:connector-curvature="0"
         d="m 24.993641,25.672094 c 4.59e-4,1.067511 -0.865174,1.933147 -1.933146,1.933147 -1.067977,0 -1.933613,-0.865636 -1.933147,-1.933147 -4.66e-4,-1.067512 0.86517,-1.933147 1.933147,-1.933147 1.067972,0 1.933605,0.865635 1.933146,1.933147 l 0,0 z"
         id="path2602"
         style="fill:#353945;fill-opacity:1;stroke:none" />
    </g>
    <path
       d="M 28.483408,-2.9194327 23.072823,-2.5060361 18.38766,-7.18803 c -0.932917,3.020488 -0.205906,6.45120443 2.188942,8.844471 2.735387,2.741721 6.825004,3.2945018 10.117922,1.6836796 l -0.01422,0.011113 7.788012,10.3745154 c 1.835736,1.835733 4.818209,1.835733 6.657111,0 1.838903,-1.837322 1.835736,-4.8166276 0,-6.6586962 l -10.371348,-7.78959777 -0.0159,0.017415 c 1.612429,-3.29293373 1.0549,-7.38096703 -1.682071,-10.11952303 -2.391683,-2.394847 -5.819233,-3.123439 -8.841304,-2.190525 l 4.68516,4.688329 -0.416562,5.4074179 z M 43.018811,9.1245051 c 0.688997,0.6858276 0.688997,1.8040569 0,2.4946349 -0.690576,0.68741 -1.81039,0.68741 -2.493049,0 -0.693746,-0.692161 -0.693746,-1.8103917 0,-2.4946349 0.682659,-0.693745 1.802473,-0.693745 2.493049,0 z"
       id="path3"
       inkscape:connector-curvature="0"
       style="fill:#353945;fill-opacity:1;stroke:#ffffff;stroke-width:1.49646389;stroke-linejoin:round;stroke-miterlimit:4;stroke-dasharray:none;stroke-opacity:1" />
  </g>
</svg>
