<?xml version="1.0" encoding="UTF-8" standalone="no"?>
<!-- Created with Inkscape (http://www.inkscape.org/) -->

<svg
   xmlns:dc="http://purl.org/dc/elements/1.1/"
   xmlns:cc="http://creativecommons.org/ns#"
   xmlns:rdf="http://www.w3.org/1999/02/22-rdf-syntax-ns#"
   xmlns:svg="http://www.w3.org/2000/svg"
   xmlns="http://www.w3.org/2000/svg"
   xmlns:xlink="http://www.w3.org/1999/xlink"
   xmlns:sodipodi="http://sodipodi.sourceforge.net/DTD/sodipodi-0.dtd"
   xmlns:inkscape="http://www.inkscape.org/namespaces/inkscape"
   width="48"
   height="48"
   viewBox="0 0 48 48.000001"
   id="svg4219"
   version="1.1"
   inkscape:version="0.91 r13725"
   sodipodi:docname="gksu-root-terminal.svg">
  <defs
     id="defs4221">
    <linearGradient
       inkscape:collect="always"
       id="linearGradient4865">
      <stop
         style="stop-color:#7d1717;stop-opacity:1;"
         offset="0"
         id="stop4867" />
      <stop
         style="stop-color:#390c0c;stop-opacity:1"
         offset="1"
         id="stop4869" />
    </linearGradient>
    <linearGradient
       id="linearGradient3024"
       y2="43"
       gradientUnits="userSpaceOnUse"
       x2="24"
       gradientTransform="translate(4e-6,1004.3622)"
       y1="5"
       x1="24">
      <stop
         id="stop3897"
         stop-color="#fff"
         offset="0" />
      <stop
         id="stop3899"
         stop-color="#fff"
         stop-opacity=".23529"
         offset=".052632" />
      <stop
         id="stop3901"
         stop-color="#fff"
         stop-opacity=".15686"
         offset=".95056" />
      <stop
         id="stop3903"
         stop-color="#fff"
         stop-opacity=".39216"
         offset="1" />
    </linearGradient>
    <linearGradient
       inkscape:collect="always"
       xlink:href="#linearGradient3018-5"
       id="linearGradient4860"
       gradientUnits="userSpaceOnUse"
       gradientTransform="translate(0,1004.3622)"
       x1="20"
       y1="26"
       x2="20"
       y2="13" />
    <linearGradient
       id="linearGradient3018-5"
       y2="13"
       gradientUnits="userSpaceOnUse"
       x2="20"
       gradientTransform="translate(0,1004.3622)"
       y1="26"
       x1="20">
      <stop
         id="stop3682-4-6-1-3-7"
         stop-color="#dcdcdc"
         offset="0" />
      <stop
         id="stop3684-8-5-8-0-2"
         stop-color="#fff"
         offset="1" />
    </linearGradient>
    <linearGradient
       inkscape:collect="always"
       xlink:href="#linearGradient3018-5"
       id="linearGradient4847"
       x1="13.22613"
       y1="1027.3873"
       x2="13.075377"
       y2="1016.9351"
       gradientUnits="userSpaceOnUse" />
    <linearGradient
       inkscape:collect="always"
       xlink:href="#linearGradient4865"
       id="linearGradient4863"
       x1="24.924623"
       y1="1004.4225"
       x2="24.522614"
       y2="1052.3622"
       gradientUnits="userSpaceOnUse" />
  </defs>
  <sodipodi:namedview
     id="base"
     pagecolor="#ffffff"
     bordercolor="#666666"
     borderopacity="1.0"
     inkscape:pageopacity="0.0"
     inkscape:pageshadow="2"
     inkscape:zoom="9.95"
     inkscape:cx="30.173836"
     inkscape:cy="19.664505"
     inkscape:document-units="px"
     inkscape:current-layer="layer1"
     showgrid="false"
     units="px"
     inkscape:window-width="1535"
     inkscape:window-height="876"
     inkscape:window-x="65"
     inkscape:window-y="24"
     inkscape:window-maximized="1" />
  <metadata
     id="metadata4224">
    <rdf:RDF>
      <cc:Work
         rdf:about="">
        <dc:format>image/svg+xml</dc:format>
        <dc:type
           rdf:resource="http://purl.org/dc/dcmitype/StillImage" />
        <dc:title></dc:title>
      </cc:Work>
    </rdf:RDF>
  </metadata>
  <g
     inkscape:label="Layer 1"
     inkscape:groupmode="layer"
     id="layer1"
     transform="translate(0,-1004.3622)">
    <rect
       style="opacity:0.9;fill:url(#linearGradient4863);fill-opacity:1;stroke:none;stroke-width:2;stroke-linecap:round;stroke-linejoin:round;stroke-miterlimit:4;stroke-dasharray:none;stroke-opacity:1"
       id="rect4767"
       width="39"
       height="39"
       x="4.5"
       y="1008.8622"
       rx="2"
       ry="2" />
    <g
       transform="translate(0,1.7382813e-5)"
       id="g4769">
      <rect
         x="4.5"
         y="1008.8622"
         width="39"
         height="39"
         ry="2"
         rx="2"
         style="color:#000000;opacity:0.7;fill:none;stroke:#000000;stroke-linecap:round;stroke-linejoin:round"
         id="rect5505-21-3-2" />
      <rect
         x="5.5"
         y="1009.8622"
         width="37"
         height="37"
         ry="1"
         rx="1"
         id="rect6741"
         style="opacity:0.3;fill:none;stroke:url(#linearGradient3024);stroke-linecap:round;stroke-linejoin:round" />
      <path
         id="path3987"
         d="m 20,1028.3312 a 1.0164,1.0164 0 0 0 -1.031,1.031 l 0,2 a 1.0164,1.0164 0 0 0 1.031,1.031 l 8,0 a 1.0164,1.0164 0 0 0 1.031,-1.031 l 0,-2 A 1.0164,1.0164 0 0 0 28,1028.3312 l -8,0 z"
         style="opacity:0.15"
         inkscape:connector-curvature="0" />
      <path
         id="path3651-2-3-5-5"
         d="m 20,1029.362 0,2 8,0 0,-2 -8,0 z"
         style="opacity:0.3"
         inkscape:connector-curvature="0" />
      <path
         id="text3905-9"
         d="m 20,1028.362 0,2 8,0 0,-2 -8,0 z"
         style="color:#000000;fill:url(#linearGradient4860)"
         inkscape:connector-curvature="0" />
      <path
         style="opacity:0.15;fill:none;fill-opacity:1;stroke:#000000;stroke-width:2;stroke-linecap:round;stroke-linejoin:round;stroke-miterlimit:4;stroke-dasharray:none;stroke-opacity:1"
         d="m 10,1017.3622 0,2 -2,0 0,2 2,0 0,2 -2,0 0,2 2,0 0,2 2,0 0,-2 2,0 0,2 2,0 0,-2 2,0 0,-2 -2,0 0,-2 2,0 0,-2 -2,0 0,-2 -2,0 0,2 -2,0 0,-2 -2,0 z m 2,4 2,0 0,2 -2,0 0,-2 z"
         id="path4837"
         inkscape:connector-curvature="0" />
      <path
         style="opacity:0.3;fill:#000000;fill-opacity:1;stroke:none;stroke-width:2;stroke-linecap:round;stroke-linejoin:round;stroke-miterlimit:4;stroke-dasharray:none;stroke-opacity:1"
         d="m 10,1018.3622 0,2 -2,0 0,2 2,0 0,2 -2,0 0,2 2,0 0,2 2,0 0,-2 2,0 0,2 2,0 0,-2 2,0 0,-2 -2,0 0,-2 2,0 0,-2 -2,0 0,-2 -2,0 0,2 -2,0 0,-2 -2,0 z m 2,4 2,0 0,2 -2,0 0,-2 z"
         id="path4839"
         inkscape:connector-curvature="0" />
      <path
         inkscape:connector-curvature="0"
         id="rect4798"
         d="m 10,1017.3622 0,2 -2,0 0,2 2,0 0,2 -2,0 0,2 2,0 0,2 2,0 0,-2 2,0 0,2 2,0 0,-2 2,0 0,-2 -2,0 0,-2 2,0 0,-2 -2,0 0,-2 -2,0 0,2 -2,0 0,-2 -2,0 z m 2,4 2,0 0,2 -2,0 0,-2 z"
         style="opacity:1;fill:url(#linearGradient4847);fill-opacity:1;stroke:none;stroke-width:2;stroke-linecap:round;stroke-linejoin:round;stroke-miterlimit:4;stroke-dasharray:none;stroke-opacity:1" />
    </g>
  </g>
</svg>
