<?xml version="1.0" encoding="UTF-8" standalone="no"?>
<svg
   xmlns:dc="http://purl.org/dc/elements/1.1/"
   xmlns:cc="http://creativecommons.org/ns#"
   xmlns:rdf="http://www.w3.org/1999/02/22-rdf-syntax-ns#"
   xmlns:svg="http://www.w3.org/2000/svg"
   xmlns="http://www.w3.org/2000/svg"
   xmlns:xlink="http://www.w3.org/1999/xlink"
   xmlns:sodipodi="http://sodipodi.sourceforge.net/DTD/sodipodi-0.dtd"
   xmlns:inkscape="http://www.inkscape.org/namespaces/inkscape"
   version="1.1"
   width="48"
   height="48"
   id="svg4375"
   inkscape:version="0.91 r"
   sodipodi:docname="gnome-word.svg">
  <sodipodi:namedview
     pagecolor="#ffffff"
     bordercolor="#666666"
     borderopacity="1"
     objecttolerance="10"
     gridtolerance="10"
     guidetolerance="10"
     inkscape:pageopacity="0"
     inkscape:pageshadow="2"
     inkscape:window-width="640"
     inkscape:window-height="480"
     id="namedview120"
     showgrid="false"
     inkscape:zoom="16.971826"
     inkscape:cx="23.127938"
     inkscape:cy="24.010381"
     inkscape:current-layer="layer1" />
  <defs
     id="defs4377">
    <linearGradient
       x1="9"
       y1="29.056757"
       x2="9"
       y2="26.02973"
       id="linearGradient3407"
       xlink:href="#linearGradient3290-678"
       gradientUnits="userSpaceOnUse"
       gradientTransform="matrix(0.6380091,-0.6411367,0.8596263,0.8553493,-3.661342,16.73061)" />
    <linearGradient
       id="linearGradient3290-678">
      <stop
         id="stop2607"
         style="stop-color:#ece5a5;stop-opacity:1"
         offset="0" />
      <stop
         id="stop2609"
         style="stop-color:#fcfbf2;stop-opacity:1"
         offset="1" />
    </linearGradient>
    <linearGradient
       x1="5.5178981"
       y1="37.371799"
       x2="9.5220556"
       y2="41.391716"
       id="linearGradient3409"
       xlink:href="#linearGradient3191-577"
       gradientUnits="userSpaceOnUse"
       gradientTransform="matrix(0.5603647,0.02418622,0.02415646,0.5596736,19.546549,13.104104)" />
    <linearGradient
       id="linearGradient3191-577">
      <stop
         id="stop2613"
         style="stop-color:#dbce48;stop-opacity:1"
         offset="0" />
      <stop
         id="stop2615"
         style="stop-color:#c5b625;stop-opacity:1"
         offset="1" />
    </linearGradient>
    <linearGradient
       x1="30.037716"
       y1="24.989594"
       x2="30.037716"
       y2="30.000141"
       id="linearGradient3412"
       xlink:href="#linearGradient3223-699"
       gradientUnits="userSpaceOnUse"
       gradientTransform="matrix(0.6380091,-0.6411367,0.8596262,0.8553492,-2.328784,15.391523)" />
    <linearGradient
       id="linearGradient3223-699">
      <stop
         id="stop2599"
         style="stop-color:#b1b1b1;stop-opacity:1"
         offset="0" />
      <stop
         id="stop2601"
         style="stop-color:#ffffff;stop-opacity:1"
         offset="0.5" />
      <stop
         id="stop2603"
         style="stop-color:#8f8f8f;stop-opacity:1"
         offset="1" />
    </linearGradient>
    <linearGradient
       x1="30.037716"
       y1="24.989594"
       x2="30.037716"
       y2="30.000141"
       id="linearGradient3415"
       xlink:href="#linearGradient3240-907"
       gradientUnits="userSpaceOnUse"
       gradientTransform="matrix(0.6380091,-0.6411367,0.8596262,0.8553492,-2.146067,15.207909)" />
    <linearGradient
       id="linearGradient3240-907">
      <stop
         id="stop2591"
         style="stop-color:#565656;stop-opacity:1"
         offset="0" />
      <stop
         id="stop2593"
         style="stop-color:#9a9a9a;stop-opacity:1"
         offset="0.5" />
      <stop
         id="stop2595"
         style="stop-color:#545454;stop-opacity:1"
         offset="1" />
    </linearGradient>
    <linearGradient
       x1="30.037716"
       y1="24.989594"
       x2="30.037716"
       y2="30.000141"
       id="linearGradient3418"
       xlink:href="#linearGradient3223-768"
       gradientUnits="userSpaceOnUse"
       gradientTransform="matrix(0.6380091,-0.6411367,0.8596262,0.8553492,-2.966794,16.032658)" />
    <linearGradient
       id="linearGradient3223-768">
      <stop
         id="stop2583"
         style="stop-color:#b1b1b1;stop-opacity:1"
         offset="0" />
      <stop
         id="stop2585"
         style="stop-color:#ffffff;stop-opacity:1"
         offset="0.5" />
      <stop
         id="stop2587"
         style="stop-color:#8f8f8f;stop-opacity:1"
         offset="1" />
    </linearGradient>
    <linearGradient
       x1="30.037716"
       y1="24.989594"
       x2="30.037716"
       y2="30.000141"
       id="linearGradient3421"
       xlink:href="#linearGradient3240-686"
       gradientUnits="userSpaceOnUse"
       gradientTransform="matrix(0.6380091,-0.6411367,0.8596262,0.8553492,-2.784076,15.849046)" />
    <linearGradient
       id="linearGradient3240-686">
      <stop
         id="stop2575"
         style="stop-color:#565656;stop-opacity:1"
         offset="0" />
      <stop
         id="stop2577"
         style="stop-color:#9a9a9a;stop-opacity:1"
         offset="0.5" />
      <stop
         id="stop2579"
         style="stop-color:#545454;stop-opacity:1"
         offset="1" />
    </linearGradient>
    <linearGradient
       x1="30.037716"
       y1="24.989594"
       x2="30.037716"
       y2="30.000141"
       id="linearGradient3424"
       xlink:href="#linearGradient3223-789"
       gradientUnits="userSpaceOnUse"
       gradientTransform="matrix(0.6380091,-0.6411367,0.8596262,0.8553492,-3.601733,16.670712)" />
    <linearGradient
       id="linearGradient3223-789">
      <stop
         id="stop2567"
         style="stop-color:#b1b1b1;stop-opacity:1"
         offset="0" />
      <stop
         id="stop2569"
         style="stop-color:#ffffff;stop-opacity:1"
         offset="0.5" />
      <stop
         id="stop2571"
         style="stop-color:#8f8f8f;stop-opacity:1"
         offset="1" />
    </linearGradient>
    <linearGradient
       x1="30.037716"
       y1="24.989594"
       x2="30.037716"
       y2="30.000141"
       id="linearGradient3427"
       xlink:href="#linearGradient3240-279"
       gradientUnits="userSpaceOnUse"
       gradientTransform="matrix(0.6380091,-0.6411367,0.8596262,0.8553492,-3.419016,16.487099)" />
    <linearGradient
       id="linearGradient3240-279">
      <stop
         id="stop2559"
         style="stop-color:#565656;stop-opacity:1"
         offset="0" />
      <stop
         id="stop2561"
         style="stop-color:#9a9a9a;stop-opacity:1"
         offset="0.5" />
      <stop
         id="stop2563"
         style="stop-color:#545454;stop-opacity:1"
         offset="1" />
    </linearGradient>
    <linearGradient
       x1="23.575972"
       y1="25.356892"
       x2="23.575972"
       y2="31.210939"
       id="linearGradient3432"
       xlink:href="#linearGradient3155-40"
       gradientUnits="userSpaceOnUse"
       gradientTransform="matrix(0.6565695,-0.659788,0.7345237,0.7308691,-1.012959,19.863185)"
       spreadMethod="pad" />
    <linearGradient
       id="linearGradient3155-40">
      <stop
         id="stop2541"
         style="stop-color:#181818;stop-opacity:1"
         offset="0" />
      <stop
         id="stop2543"
         style="stop-color:#dbdbdb;stop-opacity:1"
         offset="0.13482948" />
      <stop
         id="stop2545"
         style="stop-color:#a4a4a4;stop-opacity:1"
         offset="0.20224422" />
      <stop
         id="stop2547"
         style="stop-color:#ffffff;stop-opacity:1"
         offset="0.26965895" />
      <stop
         id="stop2549"
         style="stop-color:#8d8d8d;stop-opacity:1"
         offset="0.44650277" />
      <stop
         id="stop2551"
         style="stop-color:#959595;stop-opacity:1"
         offset="0.57114136" />
      <stop
         id="stop2553"
         style="stop-color:#cecece;stop-opacity:1"
         offset="0.72038066" />
      <stop
         id="stop2555"
         style="stop-color:#181818;stop-opacity:1"
         offset="1" />
    </linearGradient>
    <linearGradient
       x1="22.004084"
       y1="44.854229"
       x2="22.004084"
       y2="3.0718794"
       id="linearGradient3436"
       xlink:href="#linearGradient3104"
       gradientUnits="userSpaceOnUse" />
    <linearGradient
       id="linearGradient3104">
      <stop
         id="stop3106"
         style="stop-color:#a0a0a0;stop-opacity:1"
         offset="0" />
      <stop
         id="stop3108"
         style="stop-color:#c8c8c8;stop-opacity:1"
         offset="1" />
    </linearGradient>
    <linearGradient
       x1="68.437271"
       y1="4.410717"
       x2="68.437271"
       y2="40.927929"
       id="linearGradient3388"
       xlink:href="#linearGradient3454"
       gradientUnits="userSpaceOnUse"
       gradientTransform="matrix(0.89189031,0,0,1.0580283,-42.797372,0.0041396)" />
    <linearGradient
       id="linearGradient3454">
      <stop
         id="stop3456"
         style="stop-color:#ffffff;stop-opacity:1"
         offset="0" />
      <stop
         id="stop3458"
         style="stop-color:#ffffff;stop-opacity:0.23529412"
         offset="0.0097359" />
      <stop
         id="stop3460"
         style="stop-color:#ffffff;stop-opacity:0.15686275"
         offset="0.99001008" />
      <stop
         id="stop3462"
         style="stop-color:#ffffff;stop-opacity:0.39215687"
         offset="1" />
    </linearGradient>
    <linearGradient
       x1="-60.969666"
       y1="13.668072"
       x2="-60.908253"
       y2="114.5354"
       id="linearGradient3458"
       xlink:href="#linearGradient3600"
       gradientUnits="userSpaceOnUse"
       gradientTransform="matrix(0.43751048,2.65089e-4,-2.6637648e-4,0.43539595,46.156983,-6.2332098)" />
    <linearGradient
       id="linearGradient3600">
      <stop
         id="stop3828"
         style="stop-color:#f4f4f4;stop-opacity:1"
         offset="0" />
      <stop
         id="stop3604"
         style="stop-color:#dbdbdb;stop-opacity:1"
         offset="1" />
    </linearGradient>
    <linearGradient
       x1="-51.786404"
       y1="53.514328"
       x2="-51.786404"
       y2="3.6336823"
       id="linearGradient3394"
       xlink:href="#linearGradient3104-8-8-97"
       gradientUnits="userSpaceOnUse"
       gradientTransform="matrix(0.80749834,0,0,0.83374395,59.410297,0.2581128)" />
    <linearGradient
       id="linearGradient3104-8-8-97">
      <stop
         id="stop3106-5-4-3"
         style="stop-color:#000000;stop-opacity:0.32173914"
         offset="0" />
      <stop
         id="stop3108-4-3-7"
         style="stop-color:#000000;stop-opacity:0.27826086"
         offset="1" />
    </linearGradient>
    <radialGradient
       cx="605.71429"
       cy="486.64789"
       r="117.14286"
       fx="605.71429"
       fy="486.64789"
       id="radialGradient3463"
       xlink:href="#linearGradient5060"
       gradientUnits="userSpaceOnUse"
       gradientTransform="matrix(0.02289231,0,0,0.01235294,26.353705,38.470849)" />
    <linearGradient
       id="linearGradient5060">
      <stop
         id="stop5062"
         style="stop-color:#000000;stop-opacity:1"
         offset="0" />
      <stop
         id="stop5064"
         style="stop-color:#000000;stop-opacity:0"
         offset="1" />
    </linearGradient>
    <radialGradient
       cx="605.71429"
       cy="486.64789"
       r="117.14286"
       fx="605.71429"
       fy="486.64789"
       id="radialGradient3466"
       xlink:href="#linearGradient5060"
       gradientUnits="userSpaceOnUse"
       gradientTransform="matrix(-0.02289231,0,0,0.01235294,21.646291,38.470849)" />
    <linearGradient
       id="linearGradient5048">
      <stop
         id="stop5050"
         style="stop-color:#000000;stop-opacity:0"
         offset="0" />
      <stop
         id="stop5056"
         style="stop-color:#000000;stop-opacity:1"
         offset="0.5" />
      <stop
         id="stop5052"
         style="stop-color:#000000;stop-opacity:0"
         offset="1" />
    </linearGradient>
    <linearGradient
       x1="302.85715"
       y1="366.64789"
       x2="302.85715"
       y2="609.50507"
       id="linearGradient4369"
       xlink:href="#linearGradient5048"
       gradientUnits="userSpaceOnUse"
       gradientTransform="matrix(0.06689349,0,0,0.01235294,-0.1772195,38.470823)" />
    <linearGradient
       x1="294.20959"
       y1="6.3851075"
       x2="296.40414"
       y2="9.8281822"
       id="linearGradient8576"
       xlink:href="#XMLID_897_"
       gradientUnits="userSpaceOnUse"
       gradientTransform="matrix(-2.1726626,1.0941354,1.2977992,2.7879222,663.95775,-321.12004)" />
    <linearGradient
       x1="292.97168"
       y1="4.7592773"
       x2="296.93979"
       y2="10.711433"
       id="XMLID_897_"
       gradientUnits="userSpaceOnUse">
      <stop
         id="stop45093"
         style="stop-color:#e8e8e5;stop-opacity:1"
         offset="0" />
      <stop
         id="stop45095"
         style="stop-color:#f0f0f0;stop-opacity:1"
         offset="1" />
    </linearGradient>
    <linearGradient
       x1="20.288025"
       y1="6.4603648"
       x2="24.32597"
       y2="23.942537"
       id="linearGradient8573"
       xlink:href="#linearGradient2229"
       gradientUnits="userSpaceOnUse"
       gradientTransform="matrix(0.5489611,-0.2569337,0.3150922,0.6782222,12.146674,16.190988)" />
    <linearGradient
       id="linearGradient2229">
      <stop
         id="stop2231"
         style="stop-color:#e2e2e2;stop-opacity:1"
         offset="0" />
      <stop
         id="stop2233"
         style="stop-color:#d8d8d8;stop-opacity:1"
         offset="1" />
    </linearGradient>
    <linearGradient
       x1="293.00772"
       y1="3.0185187"
       x2="296.64139"
       y2="10.289103"
       id="linearGradient8569"
       xlink:href="#XMLID_897_"
       gradientUnits="userSpaceOnUse"
       gradientTransform="matrix(2.1923888,-1.1088171,1.3883377,2.7644949,-627.96956,330.42304)" />
    <linearGradient
       x1="19.222296"
       y1="18.03648"
       x2="24.32597"
       y2="23.942537"
       id="linearGradient8566"
       xlink:href="#linearGradient2229"
       gradientUnits="userSpaceOnUse"
       gradientTransform="matrix(0.5489611,-0.2569337,0.3150922,0.6782222,12.146674,16.190988)" />
    <linearGradient
       x1="22.225399"
       y1="23.843431"
       x2="24.190449"
       y2="22.860907"
       id="linearGradient8582"
       xlink:href="#XMLID_45_"
       gradientUnits="userSpaceOnUse"
       gradientTransform="matrix(0.5379232,-0.2517676,0.3150922,0.6782222,12.456548,16.817714)" />
    <linearGradient
       x1="68.175293"
       y1="21.424805"
       x2="74.587158"
       y2="27.836672"
       id="XMLID_45_"
       gradientUnits="userSpaceOnUse">
      <stop
         id="stop695"
         style="stop-color:#babdb6;stop-opacity:1"
         offset="0" />
      <stop
         id="stop697"
         style="stop-color:#eeeeec;stop-opacity:1"
         offset="1" />
    </linearGradient>
    <linearGradient
       x1="40.127796"
       y1="26.630606"
       x2="45.948959"
       y2="38.848572"
       id="linearGradient3656"
       xlink:href="#linearGradient3650"
       gradientUnits="userSpaceOnUse" />
    <linearGradient
       id="linearGradient3650">
      <stop
         id="stop3652"
         style="stop-color:#ffffff;stop-opacity:1"
         offset="0" />
      <stop
         id="stop3654"
         style="stop-color:#ffffff;stop-opacity:0"
         offset="1" />
    </linearGradient>
    <linearGradient
       x1="29.26738"
       y1="31.804976"
       x2="35.088547"
       y2="44.022942"
       id="linearGradient3658"
       xlink:href="#linearGradient3650"
       gradientUnits="userSpaceOnUse" />
  </defs>
  <metadata
     id="metadata4380">
    <rdf:RDF>
      <cc:Work
         rdf:about="">
        <dc:format>image/svg+xml</dc:format>
        <dc:type
           rdf:resource="http://purl.org/dc/dcmitype/StillImage" />
        <dc:title></dc:title>
      </cc:Work>
    </rdf:RDF>
  </metadata>
  <g
     id="layer1">
    <rect
       width="32.299999"
       height="2.9999998"
       x="7.8499999"
       y="43"
       id="rect3706"
       style="opacity:0.2;fill:url(#linearGradient4369);fill-opacity:1;fill-rule:nonzero;stroke:none;stroke-width:1.04588675;marker:none;visibility:visible;display:inline;overflow:visible" />
    <path
       d="m 7.85,43.000131 c 0,0 0,2.999834 0,2.999834 C 6.6711024,46.005589 5,45.327854 5,44.499855 5,43.671856 6.3155607,43.000132 7.85,43.000131 z"
       id="path3708"
       style="opacity:0.2;fill:url(#radialGradient3466);fill-opacity:1;fill-rule:nonzero;stroke:none;stroke-width:1.04588675;marker:none;visibility:visible;display:inline;overflow:visible" />
    <path
       d="m 40.15,43.000131 c 0,0 0,2.999834 0,2.999834 1.178897,0.0056 2.85,-0.672111 2.85,-1.50011 0,-0.827999 -1.315561,-1.499723 -2.85,-1.499724 z"
       id="path3710"
       style="opacity:0.2;fill:url(#radialGradient3463);fill-opacity:1;fill-rule:nonzero;stroke:none;stroke-width:1.04588675;marker:none;visibility:visible;display:inline;overflow:visible" />
    <path
       d="m 7.4999853,3.4999608 33.0007937,0 0.99926,41.0000782 -35.0000782,-0.02112 z"
       id="path2855-8"
       style="color:#000000;fill:none;stroke:url(#linearGradient3394);stroke-width:0.99992168;stroke-linecap:butt;stroke-linejoin:round;stroke-miterlimit:4;stroke-opacity:1;stroke-dasharray:none;stroke-dashoffset:0;marker:none;visibility:visible;display:inline;overflow:visible;enable-background:accumulate" />
    <path
       d="m 7.9714498,4.0014475 c 8.2788402,0.00501 23.7790052,-0.00501 32.0578422,0 C 40.10218,5.5680159 40.927087,41.26681 41,44 29.666668,43.993137 18.333335,43.986262 7,43.979395 7.0891888,40.909165 7.8822608,5.3791153 7.9714498,4.0014475 z"
       id="path2855"
       style="fill:url(#linearGradient3458);fill-opacity:1;stroke:none;display:inline" />
    <path
       d="M 8.4428778,4.5 39.557843,4.5 40.5,43.5 7.5000001,43.47991 z"
       id="path2855-3"
       style="color:#000000;fill:none;stroke:url(#linearGradient3388);stroke-width:1.00000012;stroke-linecap:round;stroke-linejoin:miter;stroke-miterlimit:4;stroke-opacity:1;stroke-dasharray:none;stroke-dashoffset:0;marker:none;visibility:visible;display:inline;overflow:visible;enable-background:accumulate" />
    <path
       d="M 12.687579,4.2498875 12.25,43.749999"
       id="path5685"
       style="opacity:0.59069764;fill:#80b3ff;fill-rule:evenodd;stroke:#f6abab;stroke-width:0.49999991;stroke-linecap:round;stroke-linejoin:round;stroke-miterlimit:4;stroke-opacity:1;stroke-dasharray:none;display:inline" />
    <path
       d="M 40.057439,9.8749988 7.8771512,9.6904668"
       id="path6656"
       style="opacity:0.43720931;fill:#80b3ff;fill-rule:evenodd;stroke:#80b3ff;stroke-width:0.24999996;stroke-linecap:round;stroke-linejoin:round;stroke-miterlimit:4;stroke-opacity:1;stroke-dasharray:none;display:inline" />
    <path
       d="M 40.131449,11.874999 7.8685462,11.690464"
       id="path6658"
       style="opacity:0.43720931;fill:#80b3ff;fill-rule:evenodd;stroke:#80b3ff;stroke-width:0.24999994;stroke-linecap:round;stroke-linejoin:round;stroke-miterlimit:4;stroke-opacity:1;stroke-dasharray:none;display:inline" />
    <path
       d="M 40.214067,13.874999 7.7859295,13.690468"
       id="path6660"
       style="opacity:0.43720931;fill:#80b3ff;fill-rule:evenodd;stroke:#80b3ff;stroke-width:0.24999996;stroke-linecap:round;stroke-linejoin:round;stroke-miterlimit:4;stroke-opacity:1;stroke-dasharray:none;display:inline" />
    <path
       d="M 40.296684,15.874999 7.7033144,15.690466"
       id="path6662"
       style="opacity:0.43720931;fill:#80b3ff;fill-rule:evenodd;stroke:#80b3ff;stroke-width:0.24999994;stroke-linecap:round;stroke-linejoin:round;stroke-miterlimit:4;stroke-opacity:1;stroke-dasharray:none;display:inline" />
    <path
       d="M 40.296685,17.874999 7.7033138,17.690466"
       id="path6664"
       style="opacity:0.43720931;fill:#80b3ff;fill-rule:evenodd;stroke:#80b3ff;stroke-width:0.24999994;stroke-linecap:round;stroke-linejoin:round;stroke-miterlimit:4;stroke-opacity:1;stroke-dasharray:none;display:inline" />
    <path
       d="M 40.379302,19.874999 7.6206973,19.690465"
       id="path6666"
       style="opacity:0.43720931;fill:#80b3ff;fill-rule:evenodd;stroke:#80b3ff;stroke-width:0.24999996;stroke-linecap:round;stroke-linejoin:round;stroke-miterlimit:4;stroke-opacity:1;stroke-dasharray:none;display:inline" />
    <path
       d="M 40.379302,21.874999 7.6206974,21.690467"
       id="path7637"
       style="opacity:0.43720931;fill:#80b3ff;fill-opacity:1;fill-rule:evenodd;stroke:#80b3ff;stroke-width:0.24999996;stroke-linecap:round;stroke-linejoin:round;stroke-miterlimit:4;stroke-opacity:1;stroke-dasharray:none;stroke-dashoffset:0;marker:none;visibility:visible;display:inline;overflow:visible;enable-background:accumulate" />
    <path
       d="M 40.461915,23.874999 7.538081,23.690466"
       id="path7639"
       style="opacity:0.43720931;fill:#80b3ff;fill-opacity:1;fill-rule:evenodd;stroke:#80b3ff;stroke-width:0.24999997;stroke-linecap:round;stroke-linejoin:round;stroke-miterlimit:4;stroke-opacity:1;stroke-dasharray:none;stroke-dashoffset:0;marker:none;visibility:visible;display:inline;overflow:visible;enable-background:accumulate" />
    <path
       d="M 40.461913,25.874999 7.5380821,25.690466"
       id="path7641"
       style="opacity:0.43720931;fill:#80b3ff;fill-opacity:1;fill-rule:evenodd;stroke:#80b3ff;stroke-width:0.24999997;stroke-linecap:round;stroke-linejoin:round;stroke-miterlimit:4;stroke-opacity:1;stroke-dasharray:none;stroke-dashoffset:0;marker:none;visibility:visible;display:inline;overflow:visible;enable-background:accumulate" />
    <path
       d="M 40.627148,27.874999 7.3728501,27.690469"
       id="path7645"
       style="opacity:0.43720931;fill:#80b3ff;fill-opacity:1;fill-rule:evenodd;stroke:#80b3ff;stroke-width:0.24999997;stroke-linecap:round;stroke-linejoin:round;stroke-miterlimit:4;stroke-opacity:1;stroke-dasharray:none;stroke-dashoffset:0;marker:none;visibility:visible;display:inline;overflow:visible;enable-background:accumulate" />
    <path
       d="M 40.627148,29.864131 7.3728497,29.679597"
       id="path7647"
       style="opacity:0.43720931;fill:#80b3ff;fill-opacity:1;fill-rule:evenodd;stroke:#80b3ff;stroke-width:0.24999997;stroke-linecap:round;stroke-linejoin:round;stroke-miterlimit:4;stroke-opacity:1;stroke-dasharray:none;stroke-dashoffset:0;marker:none;visibility:visible;display:inline;overflow:visible;enable-background:accumulate" />
    <path
       d="M 40.874996,31.874999 7.125001,31.690466"
       id="path7649"
       style="opacity:0.43720931;fill:#80b3ff;fill-opacity:1;fill-rule:evenodd;stroke:#80b3ff;stroke-width:0.24999996;stroke-linecap:round;stroke-linejoin:round;stroke-miterlimit:4;stroke-opacity:1;stroke-dasharray:none;stroke-dashoffset:0;marker:none;visibility:visible;display:inline;overflow:visible;enable-background:accumulate" />
    <path
       d="M 40.874996,33.830428 7.125001,33.645894"
       id="path7651"
       style="opacity:0.43720931;fill:#80b3ff;fill-opacity:1;fill-rule:evenodd;stroke:#80b3ff;stroke-width:0.24999996;stroke-linecap:round;stroke-linejoin:round;stroke-miterlimit:4;stroke-opacity:1;stroke-dasharray:none;stroke-dashoffset:0;marker:none;visibility:visible;display:inline;overflow:visible;enable-background:accumulate" />
    <path
       d="M 40.874995,35.813576 7.1250017,35.629044"
       id="path7653"
       style="opacity:0.43720931;fill:#80b3ff;fill-opacity:1;fill-rule:evenodd;stroke:#80b3ff;stroke-width:0.24999996;stroke-linecap:round;stroke-linejoin:round;stroke-miterlimit:4;stroke-opacity:1;stroke-dasharray:none;stroke-dashoffset:0;marker:none;visibility:visible;display:inline;overflow:visible;enable-background:accumulate" />
    <path
       d="M 40.874996,37.796724 7.1250009,37.612188"
       id="path7655"
       style="opacity:0.43720931;fill:#80b3ff;fill-opacity:1;fill-rule:evenodd;stroke:#80b3ff;stroke-width:0.24999996;stroke-linecap:round;stroke-linejoin:round;stroke-miterlimit:4;stroke-opacity:1;stroke-dasharray:none;stroke-dashoffset:0;marker:none;visibility:visible;display:inline;overflow:visible;enable-background:accumulate" />
    <path
       d="M 40.874995,39.779873 7.1250018,39.595339"
       id="path7657"
       style="opacity:0.43720931;fill:#80b3ff;fill-opacity:1;fill-rule:evenodd;stroke:#80b3ff;stroke-width:0.24999996;stroke-linecap:round;stroke-linejoin:round;stroke-miterlimit:4;stroke-opacity:1;stroke-dasharray:none;stroke-dashoffset:0;marker:none;visibility:visible;display:inline;overflow:visible;enable-background:accumulate" />
    <path
       d="M 40.874995,41.874999 7.1250016,41.690466"
       id="path7659"
       style="opacity:0.43720931;fill:#80b3ff;fill-opacity:1;fill-rule:evenodd;stroke:#80b3ff;stroke-width:0.24999996;stroke-linecap:round;stroke-linejoin:round;stroke-miterlimit:4;stroke-opacity:1;stroke-dasharray:none;stroke-dashoffset:0;marker:none;visibility:visible;display:inline;overflow:visible;enable-background:accumulate" />
    <path
       d="M 35.25,4.1672721 36.299508,43.667383"
       id="path7671"
       style="opacity:0.59069764;fill:none;stroke:#b9d5ff;stroke-width:0.49999991;stroke-linecap:round;stroke-linejoin:round;stroke-miterlimit:4;stroke-opacity:1;stroke-dasharray:none;display:inline" />
    <path
       d="m 12.998934,11.546347 2.34797,0 m 0.335425,0 2.180258,0 m 0.350956,0 1.945461,0 m 0.319893,0 0.83856,0 m 0.335425,0 1.878376,0 m 0.368967,0 4.930737,0 m 0.335426,0 3.756752,0 m 0.335425,0 1.140442,0 M 12.998934,13.5 l 3.640632,0 m 0.423562,0 1.739577,0 m 0.321577,0 0.85845,0 m 0.349272,0 1.602406,0 m 0.335425,0 1.643346,0 m 0.31021,0 2.580441,0 m 0.335426,0 3.404208,0 m -17.544532,1.980028 3.081427,0 m 0.323704,0 5.074837,0 m 0.31103,0 2.461186,0 m 0.315453,0 2.30241,0 m 0.330181,0 1.961321,0 m 0.315454,0 L 32.5606,15.5 m -19.561666,2 4.284352,0 m 0.336433,0 4.630578,0 m 0.319893,0 1.81966,0 m 0.335425,0 4.331127,0 m 0.291512,0 2.968536,0 m 0.335426,0 1.174909,0 m 0.335425,0 0.649892,0 m -21.813168,2 1.599235,0 m 0.491344,0 5.921499,0 m -8.012078,10 3.640632,0 m 0.423562,0 1.739577,0 m 0.321577,0 0.85845,0 m 0.349272,0 1.602406,0 m 0.335425,0 1.643346,0 m 0.31021,0 2.580441,0 m -13.804898,3.980028 3.081427,0 m 0.323704,0 5.074837,0 m 0.31103,0 2.461186,0 M 12.998934,27.5 l 4.284352,0 m 0.336433,0 4.630578,0 m 0.319893,0 1.81966,0 m 0.335425,0 4.331127,0 m -16.057468,-4 2.34797,0 m 0.335425,0 2.180258,0 m 0.350956,0 1.945461,0 m 0.319893,0 0.83856,0 m 0.335425,0 1.878376,0 m 0.368967,0 4.930737,0 m 0.335426,0 3.756752,0 m -19.924206,2 3.954284,0 m 0.311043,0 4.198951,0 m 0.319893,0 1.641931,0 m 0.310036,0 3.950279,0 m 0.316902,0 4.314197,0 m -19.317516,10 3.695207,0 m 0.396663,0 1.629116,0 m 0.381575,0 0.812557,0 m 0.258655,0 1.604035,0 m 0.212949,0 8.492084,0 m 0.399586,0 2.266883,0 m 0.304807,0 0.572374,0 m -16.81675,2 1.20539,0 m -5.415131,0 3.856881,0 m 1.866532,0 2.804548,0 m 0.29667,0 4.116902,0 m 0.319893,0 2.792858,0 m 0.281139,0 0.575511,0 m 0.314681,0 3.546443,0 m 0.362569,0 1.85674,0 m -18.781626,2 1.701949,0 m -5.91169,0 3.856881,0 m 2.423647,0 2.392767,0"
       id="path3715"
       style="fill:none;stroke:url(#linearGradient3436);stroke-width:1px;stroke-linecap:butt;stroke-linejoin:miter;stroke-opacity:1"
       inkscape:connector-curvature="0"
       sodipodi:nodetypes="cccccccccccccccccccccccccccccccccccccccccccccccccccccccccccccccccccccccccccccccccccccccccccccccccccccccccccccccccccccccccccccccccccccccccccccccccc" />
    <path
       d="m 12.819456,9.6095557 -0.269181,27.8965163 0,0.936004 0,1.872006 16.792446,0 0,-1.872006 6.775898,0 -0.802162,-28.563963 z"
       id="rect2878"
       style="display:inline;opacity:0.3;fill:#7298cf;fill-opacity:1;stroke:none"
       inkscape:connector-curvature="0"
       sodipodi:nodetypes="ccccccccc" />
    <g
       transform="matrix(0.73714892,0.67573033,-0.67573033,0.73714892,12.557107,1.8568136)"
       id="layer1-1">
      <g
         transform="matrix(1.2006867,0.5720589,-0.5720589,1.2006867,-0.94663416,-42.930476)"
         id="g8586"
         style="display:inline;enable-background:new">
        <path
           inkscape:connector-curvature="0"
           d="m 31.161325,8.8075561 c 0.133062,-0.00999 0.265009,-0.01311 0.39667,-0.018811 1.032154,1.3080269 3.318812,2.0048659 3.400756,3.7838489 -0.01199,5.314267 0.01699,10.67834 0.03582,16.018926 -0.346442,0.296677 -0.717303,0.550013 -1.10846,0.761785 -0.822386,0.447602 -1.753211,0.72109 -2.714989,0.756528 -0.0243,-7.102073 -0.05339,-14.21743 -0.0098,-21.3022779 l 0,4e-7 z"
           id="path16717"
           style="fill:url(#linearGradient8576);stroke:#888a85;stroke-width:0.73902136;stroke-linecap:round;stroke-linejoin:round;stroke-miterlimit:4;stroke-dasharray:none;stroke-opacity:1" />
        <path
           inkscape:connector-curvature="0"
           d="m 32.309045,10.263478 c -0.03,0.267905 0.02761,0.706209 -0.01228,0.960461 -0.09383,5.619622 -0.228746,11.249078 -0.339621,16.853521 0.04652,0.187226 -0.127851,0.895683 0.290503,0.642635 0.672555,-0.151393 1.357578,-0.345896 1.873369,-0.829711 0.104544,-5.182462 0.154379,-10.378961 0.253527,-15.560696 0.06598,-0.350657 -0.06696,-0.732652 -0.386299,-0.902494 -0.54827,-0.417673 -1.113406,-0.861706 -1.657386,-1.251337 l -0.01645,0.06608 -0.0054,0.02154 3.7e-5,10e-7 z"
           id="path16719"
           style="fill:url(#linearGradient8573);fill-opacity:1;stroke:none" />
        <polygon
           points="297.04443,12.300293 296.39941,13.384766 295.13281,14.71875 294.73242,13.672852 295.74658,11.960449 297.04443,12.300293 "
           transform="matrix(1.9970619,-0.9346976,1.0934885,2.3536864,-572.66375,276.68644)"
           id="polygon45129"
           style="fill:#d1524c;fill-opacity:1;stroke:#973137;stroke-width:0.31430697;stroke-linecap:round;stroke-linejoin:round;stroke-miterlimit:4;stroke-dasharray:none;stroke-opacity:1" />
        <path
           inkscape:connector-curvature="0"
           d="m 19.396198,14.35169 c -0.08957,0.102739 -0.173072,0.208756 -0.258423,0.312972 0.391379,1.64324 -0.467017,3.939283 0.87726,5.092967 4.173437,3.236312 8.360755,6.536547 12.53589,9.814149 0.445395,-0.102156 0.87181,-0.25076 1.278109,-0.441349 0.856083,-0.399274 1.642281,-0.993594 2.260875,-1.758642 C 30.537226,23.013753 24.977078,18.643677 19.396198,14.35169 Z"
           id="polygon45097"
           style="fill:url(#linearGradient8569);fill-opacity:1;stroke:#888a85;stroke-width:0.75187969;stroke-linecap:round;stroke-linejoin:round;stroke-miterlimit:4;stroke-dasharray:none;stroke-opacity:1" />
        <path
           inkscape:connector-curvature="0"
           d="m 20.46842,15.805322 c 0.144736,0.862559 -0.179499,1.699043 0.05314,2.581236 4.050574,3.383781 8.124717,6.740771 12.171679,10.120477 0.739242,-0.132721 1.362473,-0.560766 1.934354,-1.03437 -0.336936,-0.453684 -0.82461,-0.712999 -1.204913,-1.111846 -4.208309,-3.455632 -8.433278,-6.897491 -12.624535,-10.374385 -0.05581,-0.09906 -0.27151,-0.272665 -0.329724,-0.181112 l -1e-6,0 z"
           id="path16635"
           style="fill:url(#linearGradient8566);fill-opacity:1;stroke:none" />
        <path
           inkscape:connector-curvature="0"
           d="m 32.982031,26.898487 c 0.171262,0.368111 0.07331,0.777511 -0.218725,0.914195 -0.292037,0.136683 -0.667459,-0.05116 -0.838321,-0.419459 -0.171262,-0.368111 -0.07331,-0.777511 0.218725,-0.914195 0.292036,-0.136683 0.667458,0.05116 0.838321,0.419459 z"
           id="path16731"
           style="display:inline;overflow:visible;visibility:visible;fill:url(#linearGradient8582);fill-opacity:1;fill-rule:nonzero;stroke:none;stroke-width:1.49975467;marker:none" />
        <polygon
           points="296.95605,12.300293 297.6001,13.384766 298.86719,14.71875 299.26807,13.672852 298.25391,11.960449 296.95605,12.300293 "
           transform="matrix(1.9896757,-0.9312406,1.1420325,2.4581752,-571.31613,275.36214)"
           id="polygon45101"
           style="fill:#d1524c;fill-opacity:1;stroke:#973137;stroke-width:0.30812469;stroke-linecap:round;stroke-linejoin:round;stroke-miterlimit:4;stroke-dasharray:none;stroke-opacity:1" />
        <path
           inkscape:connector-curvature="0"
           d="m 37.890872,29.313461 c -1.168746,2.058688 0.156179,5.535002 2.961883,7.763744 2.806441,2.230501 6.028887,2.37145 7.200667,0.317674 1.169527,-2.059082 -0.155418,-5.533236 -2.961119,-7.761966 -2.804912,-2.229138 -6.028134,-2.369691 -7.201431,-0.319452 z m 1.786015,1.422142 c 0.519917,-0.91201 2.509283,-0.813842 4.394584,0.686437 1.887398,1.499205 2.717319,3.642177 2.197423,4.552228 -0.51783,0.914848 -2.509973,0.814196 -4.395279,-0.686083 -1.888097,-1.498851 -2.716629,-3.640575 -2.196728,-4.552582 z"
           id="path11967"
           style="fill:#d1524c;fill-opacity:1;stroke:#973137;stroke-width:0.75187969;stroke-miterlimit:4;stroke-dasharray:none;stroke-opacity:1" />
        <path
           inkscape:connector-curvature="0"
           d="m 31.496367,32.360076 c 2.33508,0.389314 4.200089,3.608309 4.163351,7.191313 -0.03584,3.584684 -1.956498,6.176032 -4.289675,5.792168 -2.335878,-0.388956 -4.199196,-3.606606 -4.162451,-7.1896 0.03593,-3.582638 1.95739,-6.174338 4.288775,-5.793881 z m -0.02074,2.28296 c -1.035811,-0.170794 -2.212863,1.435992 -2.235476,3.845284 -0.02477,2.410243 1.116617,4.40482 2.150894,4.574396 1.0367,0.174203 2.213573,-1.436305 2.236189,-3.8456 0.02548,-2.410564 -1.115807,-4.403276 -2.151607,-4.57408 z"
           id="path3634"
           style="fill:#d1524c;fill-opacity:1;stroke:#973137;stroke-width:0.75187969;stroke-miterlimit:4;stroke-dasharray:none;stroke-opacity:1" />
        <path
           inkscape:connector-curvature="0"
           d="m 37.890872,29.313461 c -1.168746,2.058688 0.156179,5.535002 2.961883,7.763744 2.806441,2.230501 6.028887,2.37145 7.200667,0.317674 1.169527,-2.059082 -0.155418,-5.533236 -2.961119,-7.761966 -2.804912,-2.229138 -6.028134,-2.369691 -7.201431,-0.319452 z m 1.786015,1.422142 c 0.519917,-0.91201 2.509283,-0.813842 4.394584,0.686437 1.887398,1.499205 2.717319,3.642177 2.197423,4.552228 -0.51783,0.914848 -2.509973,0.814196 -4.395279,-0.686083 -1.888097,-1.498851 -2.716629,-3.640575 -2.196728,-4.552582 z"
           id="path3636"
           style="opacity:0.23999999;fill:url(#linearGradient3656);fill-opacity:1;stroke:none" />
        <path
           inkscape:connector-curvature="0"
           d="m 31.496367,32.360076 c 2.33508,0.389314 4.200089,3.608309 4.163351,7.191313 -0.03584,3.584684 -1.956498,6.176032 -4.289675,5.792168 -2.335878,-0.388956 -4.199196,-3.606606 -4.162451,-7.1896 0.03593,-3.582638 1.95739,-6.174338 4.288775,-5.793881 z m -0.02074,2.28296 c -1.035811,-0.170794 -2.212863,1.435992 -2.235476,3.845284 -0.02477,2.410243 1.116617,4.40482 2.150894,4.574396 1.0367,0.174203 2.213573,-1.436305 2.236189,-3.8456 0.02548,-2.410564 -1.115807,-4.403276 -2.151607,-4.57408 z"
           id="path3638"
           style="opacity:0.23999999;fill:url(#linearGradient3658);fill-opacity:1;stroke:none" />
      </g>
    </g>
  </g>
</svg>
