<?xml version="1.0" encoding="UTF-8" standalone="no"?>
<svg
   xmlns:dc="http://purl.org/dc/elements/1.1/"
   xmlns:cc="http://creativecommons.org/ns#"
   xmlns:rdf="http://www.w3.org/1999/02/22-rdf-syntax-ns#"
   xmlns:svg="http://www.w3.org/2000/svg"
   xmlns="http://www.w3.org/2000/svg"
   xmlns:xlink="http://www.w3.org/1999/xlink"
   xmlns:sodipodi="http://sodipodi.sourceforge.net/DTD/sodipodi-0.dtd"
   xmlns:inkscape="http://www.inkscape.org/namespaces/inkscape"
   version="1.1"
   width="48"
   height="48"
   id="svg6649"
   inkscape:version="0.91 r13725"
   sodipodi:docname="gnome-genius.svg">
  <sodipodi:namedview
     pagecolor="#ffffff"
     bordercolor="#666666"
     borderopacity="1"
     objecttolerance="10"
     gridtolerance="10"
     guidetolerance="10"
     inkscape:pageopacity="0"
     inkscape:pageshadow="2"
     inkscape:window-width="1600"
     inkscape:window-height="876"
     id="namedview112"
     showgrid="false"
     inkscape:zoom="1"
     inkscape:cx="2.1869886"
     inkscape:cy="24"
     inkscape:window-x="0"
     inkscape:window-y="24"
     inkscape:window-maximized="1"
     inkscape:current-layer="svg6649" />
  <defs
     id="defs6651">
    <linearGradient
       id="linearGradient5418">
      <stop
         id="stop5420"
         style="stop-color:#ffffff;stop-opacity:1"
         offset="0" />
      <stop
         id="stop5422"
         style="stop-color:#ffffff;stop-opacity:0.23529412"
         offset="0.10691732" />
      <stop
         id="stop5424"
         style="stop-color:#ffffff;stop-opacity:0.15686275"
         offset="0.99395192" />
      <stop
         id="stop5426"
         style="stop-color:#ffffff;stop-opacity:0.39215687"
         offset="1" />
    </linearGradient>
    <linearGradient
       id="linearGradient5221">
      <stop
         id="stop5223"
         style="stop-color:#918e88;stop-opacity:1"
         offset="0" />
      <stop
         id="stop5225"
         style="stop-color:#605c58;stop-opacity:1"
         offset="1" />
    </linearGradient>
    <linearGradient
       id="linearGradient5052">
      <stop
         id="stop5054"
         style="stop-color:#5e5750;stop-opacity:1"
         offset="0" />
      <stop
         id="stop5056"
         style="stop-color:#756d65;stop-opacity:1"
         offset="1" />
    </linearGradient>
    <linearGradient
       id="linearGradient5010">
      <stop
         id="stop5012"
         style="stop-color:#dad7bd;stop-opacity:1"
         offset="0" />
      <stop
         id="stop5014"
         style="stop-color:#e8e5d4;stop-opacity:1"
         offset="1" />
    </linearGradient>
    <linearGradient
       id="linearGradient3924-1">
      <stop
         id="stop3926-3"
         style="stop-color:#ffffff;stop-opacity:1"
         offset="0" />
      <stop
         id="stop3928-91"
         style="stop-color:#ffffff;stop-opacity:0.23529412"
         offset="0.06316455" />
      <stop
         id="stop3930-6"
         style="stop-color:#ffffff;stop-opacity:0.15686275"
         offset="0.95056331" />
      <stop
         id="stop3932-6"
         style="stop-color:#ffffff;stop-opacity:0.39215687"
         offset="1" />
    </linearGradient>
    <linearGradient
       x1="23.99999"
       y1="4.999989"
       x2="23.99999"
       y2="43"
       id="linearGradient4650"
       xlink:href="#linearGradient3924-1"
       gradientUnits="userSpaceOnUse"
       gradientTransform="matrix(1,0,0,1.1081081,4e-6,-2.5945828)" />
    <radialGradient
       cx="6.7304144"
       cy="9.9571075"
       r="12.671875"
       fx="6.2001843"
       fy="9.9571075"
       id="radialGradient4653"
       xlink:href="#radialGradient3078"
       gradientUnits="userSpaceOnUse"
       gradientTransform="matrix(0,10.228133,-11.360987,0,137.93232,-88.173351)" />
    <linearGradient
       x1="23.99999"
       y1="7.8130584"
       x2="23.99999"
       y2="39.682545"
       id="linearGradient4650-6"
       xlink:href="#linearGradient3924-1-2"
       gradientUnits="userSpaceOnUse"
       gradientTransform="matrix(0.32432433,0,0,0.21621622,24.716214,31.310695)" />
    <linearGradient
       id="linearGradient3924-1-2">
      <stop
         id="stop3926-3-4"
         style="stop-color:#ffffff;stop-opacity:1"
         offset="0" />
      <stop
         id="stop3928-91-8"
         style="stop-color:#ffffff;stop-opacity:0.23529412"
         offset="0.01109819" />
      <stop
         id="stop3930-6-9"
         style="stop-color:#ffffff;stop-opacity:0.15686275"
         offset="0.99395192" />
      <stop
         id="stop3932-6-2"
         style="stop-color:#ffffff;stop-opacity:0.39215687"
         offset="1" />
    </linearGradient>
    <linearGradient
       id="linearGradient2867-449-88-871-390-598-476-591-434-148-57-177-8-3-3-6-4-8-8-8-8">
      <stop
         id="stop3750-1-0-7-6-6-1-3-9-2"
         style="stop-color:#ffcd7d;stop-opacity:1"
         offset="0" />
      <stop
         id="stop3752-3-7-4-0-32-8-923-0-9"
         style="stop-color:#fc8f36;stop-opacity:1"
         offset="0.26238" />
      <stop
         id="stop3754-1-8-5-2-7-6-7-1-9"
         style="stop-color:#e23a0e;stop-opacity:1"
         offset="0.704952" />
      <stop
         id="stop3756-1-6-2-6-6-1-96-6-7"
         style="stop-color:#ac441f;stop-opacity:1"
         offset="1" />
    </linearGradient>
    <radialGradient
       cx="6.7304144"
       cy="9.9571075"
       r="12.671875"
       fx="6.2001843"
       fy="9.9571075"
       id="radialGradient4685"
       xlink:href="#linearGradient2867-449-88-871-390-598-476-591-434-148-57-177-8-3-3-6-4-8-8-8-8"
       gradientUnits="userSpaceOnUse"
       gradientTransform="matrix(0,2.4352699,-4.1856266,0,74.554373,9.7920622)" />
    <linearGradient
       x1="16"
       y1="4"
       x2="16"
       y2="15"
       id="linearGradient5016"
       xlink:href="#linearGradient5010"
       gradientUnits="userSpaceOnUse"
       gradientTransform="matrix(0.96954645,0,0,0.97727168,0.98846535,1.9469781)" />
    <linearGradient
       x1="15"
       y1="5"
       x2="15"
       y2="16"
       id="linearGradient5058"
       xlink:href="#linearGradient5052"
       gradientUnits="userSpaceOnUse"
       gradientTransform="matrix(0.96875,0,0,0.90909091,0.75,1.95455)" />
    <linearGradient
       x1="23.99999"
       y1="7.8130584"
       x2="23.99999"
       y2="39.682545"
       id="linearGradient4650-6-72"
       xlink:href="#linearGradient3924-1-2-0"
       gradientUnits="userSpaceOnUse"
       gradientTransform="matrix(0.32432433,0,0,0.21621622,7.6369026,31.310695)" />
    <linearGradient
       id="linearGradient3924-1-2-0">
      <stop
         id="stop3926-3-4-9"
         style="stop-color:#ffffff;stop-opacity:1"
         offset="0" />
      <stop
         id="stop3928-91-8-1"
         style="stop-color:#ffffff;stop-opacity:0.23529412"
         offset="0.01109819" />
      <stop
         id="stop3930-6-9-1"
         style="stop-color:#ffffff;stop-opacity:0.15686275"
         offset="0.99395192" />
      <stop
         id="stop3932-6-2-6"
         style="stop-color:#ffffff;stop-opacity:0.39215687"
         offset="1" />
    </linearGradient>
    <linearGradient
       x1="14.175284"
       y1="30.426174"
       x2="14.175284"
       y2="40.415752"
       id="linearGradient5227"
       xlink:href="#linearGradient5221"
       gradientUnits="userSpaceOnUse"
       gradientTransform="translate(0.92068863,1.0000046)" />
    <linearGradient
       x1="23.99999"
       y1="7.8130584"
       x2="23.99999"
       y2="39.682545"
       id="linearGradient4650-6-72-7"
       xlink:href="#linearGradient3924-1-2-0-5"
       gradientUnits="userSpaceOnUse"
       gradientTransform="matrix(0.32432433,0,0,0.21621622,7.6369026,19.310695)" />
    <linearGradient
       id="linearGradient3924-1-2-0-5">
      <stop
         id="stop3926-3-4-9-8"
         style="stop-color:#ffffff;stop-opacity:1"
         offset="0" />
      <stop
         id="stop3928-91-8-1-3"
         style="stop-color:#ffffff;stop-opacity:0.23529412"
         offset="0.01109819" />
      <stop
         id="stop3930-6-9-1-4"
         style="stop-color:#ffffff;stop-opacity:0.15686275"
         offset="0.99395192" />
      <stop
         id="stop3932-6-2-6-7"
         style="stop-color:#ffffff;stop-opacity:0.39215687"
         offset="1" />
    </linearGradient>
    <linearGradient
       id="linearGradient5221-1">
      <stop
         id="stop5223-0"
         style="stop-color:#918e88;stop-opacity:1"
         offset="0" />
      <stop
         id="stop5225-4"
         style="stop-color:#605c58;stop-opacity:1"
         offset="1" />
    </linearGradient>
    <linearGradient
       x1="14.175284"
       y1="30.426174"
       x2="14.175284"
       y2="40.415752"
       id="linearGradient5252"
       xlink:href="#linearGradient5221-1"
       gradientUnits="userSpaceOnUse"
       gradientTransform="translate(0.92068863,-10.999995)" />
    <linearGradient
       id="linearGradient5221-1-5">
      <stop
         id="stop5223-0-5"
         style="stop-color:#918e88;stop-opacity:1"
         offset="0" />
      <stop
         id="stop5225-4-3"
         style="stop-color:#605c58;stop-opacity:1"
         offset="1" />
    </linearGradient>
    <linearGradient
       x1="23.99999"
       y1="7.8130584"
       x2="23.99999"
       y2="39.682545"
       id="linearGradient4650-6-72-7-6"
       xlink:href="#linearGradient3924-1-2-0-5-4"
       gradientUnits="userSpaceOnUse"
       gradientTransform="matrix(0.32432433,0,0,0.21621622,24.716214,19.310695)" />
    <linearGradient
       id="linearGradient3924-1-2-0-5-4">
      <stop
         id="stop3926-3-4-9-8-4"
         style="stop-color:#ffffff;stop-opacity:1"
         offset="0" />
      <stop
         id="stop3928-91-8-1-3-9"
         style="stop-color:#ffffff;stop-opacity:0.23529412"
         offset="0.01109819" />
      <stop
         id="stop3930-6-9-1-4-0"
         style="stop-color:#ffffff;stop-opacity:0.15686275"
         offset="0.99395192" />
      <stop
         id="stop3932-6-2-6-7-8"
         style="stop-color:#ffffff;stop-opacity:0.39215687"
         offset="1" />
    </linearGradient>
    <linearGradient
       x1="14.175284"
       y1="30.426174"
       x2="14.175284"
       y2="40.415752"
       id="linearGradient5310"
       xlink:href="#linearGradient5221-1-5"
       gradientUnits="userSpaceOnUse"
       gradientTransform="translate(18,-10.999995)" />
    <linearGradient
       x1="43.816097"
       y1="-10.328197"
       x2="43.816097"
       y2="-57.312084"
       id="linearGradient4650-6-72-7-8"
       xlink:href="#linearGradient5418"
       gradientUnits="userSpaceOnUse"
       gradientTransform="matrix(0.32432433,0,0,0.25945946,7.6369026,19.672833)" />
    <radialGradient
       r="12.672"
       gradientTransform="matrix(0,9.1402,-11.221,0,46.86508,-78.888)"
       cx="7.1184"
       cy="9.9571"
       gradientUnits="userSpaceOnUse"
       id="radialGradient3078">
      <stop
         offset="0"
         stop-color="#505050"
         id="stop3750-1-0-7-6-6-1-3-9-3" />
      <stop
         offset=".26238"
         stop-color="#2b2b2b"
         id="stop3752-3-7-4-0-32-8-923-0-7" />
      <stop
         offset=".70495"
         stop-color="#0a0a0a"
         id="stop3754-1-8-5-2-7-6-7-1-9-0" />
      <stop
         offset="1"
         id="stop3756-1-6-2-6-6-1-96-6-0" />
    </radialGradient>
  </defs>
  <metadata
     id="metadata6654">
    <rdf:RDF>
      <cc:Work
         rdf:about="">
        <dc:format>image/svg+xml</dc:format>
        <dc:type
           rdf:resource="http://purl.org/dc/dcmitype/StillImage" />
        <dc:title></dc:title>
      </cc:Work>
    </rdf:RDF>
  </metadata>
  <rect
     width="38"
     height="42"
     rx="1.5"
     ry="1.5"
     x="5"
     y="3.0000045"
     id="rect5505-21"
     style="color:#000000;display:inline;overflow:visible;visibility:visible;fill:url(#radialGradient4653);fill-opacity:1.0;fill-rule:nonzero;stroke:none;stroke-width:0.99999994;marker:none;enable-background:accumulate" />
  <rect
     width="37"
     height="41"
     rx="1"
     ry="0.99999994"
     x="5.5000124"
     y="3.4999993"
     id="rect6741"
     style="opacity:0.50000001;fill:none;stroke:url(#linearGradient4650);stroke-width:1;stroke-linecap:round;stroke-linejoin:round;stroke-miterlimit:4;stroke-dasharray:none;stroke-dashoffset:0;stroke-opacity:1" />
  <rect
     width="39"
     height="43"
     rx="2"
     ry="2.2051282"
     x="4.5000124"
     y="2.5"
     id="rect5505-21-3-2"
     style="color:#000000;display:inline;overflow:visible;visibility:visible;opacity:0.7;fill:none;stroke:#000000;stroke-width:1;stroke-linecap:round;stroke-linejoin:round;stroke-miterlimit:4;stroke-dasharray:none;stroke-dashoffset:0;stroke-opacity:1;marker:none;enable-background:accumulate" />
  <rect
     width="14"
     height="10"
     rx="1"
     ry="1"
     x="25.579311"
     y="31.500004"
     id="rect5505-21-0"
     style="color:#000000;display:inline;overflow:visible;visibility:visible;fill:url(#radialGradient4685);fill-opacity:1;fill-rule:nonzero;stroke:none;stroke-width:0.99999994;marker:none;enable-background:accumulate" />
  <rect
     width="12"
     height="8"
     x="26.5"
     y="32.499886"
     id="rect6741-1"
     style="opacity:0.3;fill:none;stroke:url(#linearGradient4650-6);stroke-width:0.99999994;stroke-linecap:round;stroke-linejoin:round;stroke-miterlimit:4;stroke-dasharray:none;stroke-dashoffset:0;stroke-opacity:1" />
  <rect
     width="14"
     height="10"
     rx="1"
     ry="1"
     x="25.579311"
     y="31.500004"
     id="rect5505-21-3-2-3"
     style="color:#000000;display:inline;overflow:visible;visibility:visible;opacity:0.4;fill:none;stroke:#640000;stroke-width:1;stroke-linecap:round;stroke-linejoin:round;stroke-miterlimit:4;stroke-dasharray:none;stroke-dashoffset:0;stroke-opacity:1;marker:none;enable-background:accumulate" />
  <rect
     width="14"
     height="10"
     rx="1"
     ry="1"
     x="8.5"
     y="31.500004"
     id="rect5505-21-0-0"
     style="color:#000000;display:inline;overflow:visible;visibility:visible;fill:url(#linearGradient5227);fill-opacity:1;fill-rule:nonzero;stroke:none;stroke-width:0.99999994;marker:none;enable-background:accumulate" />
  <rect
     width="12"
     height="8"
     x="9.4206886"
     y="32.499886"
     id="rect6741-1-8"
     style="opacity:0.2;fill:none;stroke:url(#linearGradient4650-6-72);stroke-width:0.99999994;stroke-linecap:round;stroke-linejoin:round;stroke-miterlimit:4;stroke-dasharray:none;stroke-dashoffset:0;stroke-opacity:1" />
  <rect
     width="14"
     height="10"
     rx="1"
     ry="1"
     x="8.5"
     y="31.500004"
     id="rect5505-21-3-2-3-2"
     style="color:#000000;display:inline;overflow:visible;visibility:visible;opacity:0.4;fill:none;stroke:#000000;stroke-width:1;stroke-linecap:round;stroke-linejoin:round;stroke-miterlimit:4;stroke-dasharray:none;stroke-dashoffset:0;stroke-opacity:1;marker:none;enable-background:accumulate" />
  <rect
     width="14"
     height="10"
     rx="1"
     ry="1"
     x="8.5"
     y="19.500004"
     id="rect5505-21-0-0-9"
     style="color:#000000;display:inline;overflow:visible;visibility:visible;fill:url(#linearGradient5252);fill-opacity:1;fill-rule:nonzero;stroke:none;stroke-width:0.99999994;marker:none;enable-background:accumulate" />
  <rect
     width="12"
     height="8"
     x="9.4206886"
     y="20.499884"
     id="rect6741-1-8-0"
     style="opacity:0.2;fill:none;stroke:url(#linearGradient4650-6-72-7);stroke-width:0.99999994;stroke-linecap:round;stroke-linejoin:round;stroke-miterlimit:4;stroke-dasharray:none;stroke-dashoffset:0;stroke-opacity:1" />
  <rect
     width="14"
     height="10"
     rx="1"
     ry="1"
     x="8.5"
     y="19.500004"
     id="rect5505-21-3-2-3-2-6"
     style="color:#000000;display:inline;overflow:visible;visibility:visible;opacity:0.4;fill:none;stroke:#000000;stroke-width:1;stroke-linecap:round;stroke-linejoin:round;stroke-miterlimit:4;stroke-dasharray:none;stroke-dashoffset:0;stroke-opacity:1;marker:none;enable-background:accumulate" />
  <rect
     width="14"
     height="10"
     rx="1"
     ry="1"
     x="25.579311"
     y="19.500004"
     id="rect5505-21-0-0-9-4"
     style="color:#000000;display:inline;overflow:visible;visibility:visible;fill:url(#linearGradient5310);fill-opacity:1;fill-rule:nonzero;stroke:none;stroke-width:0.99999994;marker:none;enable-background:accumulate" />
  <rect
     width="12"
     height="8"
     x="26.5"
     y="20.499884"
     id="rect6741-1-8-0-4"
     style="opacity:0.2;fill:none;stroke:url(#linearGradient4650-6-72-7-6);stroke-width:0.99999994;stroke-linecap:round;stroke-linejoin:round;stroke-miterlimit:4;stroke-dasharray:none;stroke-dashoffset:0;stroke-opacity:1" />
  <rect
     width="14"
     height="10"
     rx="1"
     ry="1"
     x="25.579311"
     y="19.500004"
     id="rect5505-21-3-2-3-2-6-0"
     style="color:#000000;display:inline;overflow:visible;visibility:visible;opacity:0.4;fill:none;stroke:#000000;stroke-width:1;stroke-linecap:round;stroke-linejoin:round;stroke-miterlimit:4;stroke-dasharray:none;stroke-dashoffset:0;stroke-opacity:1;marker:none;enable-background:accumulate" />
  <rect
     width="33"
     height="12"
     rx="2"
     ry="2"
     x="7.5"
     y="5.5000048"
     id="rect4940-8-8-1"
     style="color:#000000;display:inline;overflow:visible;visibility:visible;opacity:0.5;fill:none;stroke:url(#linearGradient4650-6-72-7-8);stroke-width:0.99999994;stroke-linecap:round;stroke-linejoin:round;stroke-miterlimit:4;stroke-dasharray:none;stroke-dashoffset:0;stroke-opacity:1;marker:none;enable-background:accumulate" />
  <rect
     width="32"
     height="11"
     rx="2"
     ry="2"
     x="8"
     y="6.0000048"
     id="rect4940-8"
     style="color:#000000;display:inline;overflow:visible;visibility:visible;fill:url(#linearGradient5016);fill-opacity:1;fill-rule:nonzero;stroke:none;stroke-width:0.75;marker:none;enable-background:accumulate" />
  <rect
     width="31"
     height="10"
     rx="1"
     ry="1"
     x="8.5"
     y="6.5000048"
     id="rect4940-8-8"
     style="color:#000000;display:inline;overflow:visible;visibility:visible;opacity:0.7;fill:none;stroke:url(#linearGradient5058);stroke-width:0.99999994;stroke-miterlimit:4;stroke-dasharray:none;stroke-opacity:1;marker:none;enable-background:accumulate" />
  <path
     inkscape:connector-curvature="0"
     d="m 25.09375,9.0000046 c -0.622613,5e-6 -1.144211,0.1763366 -1.59375,0.5 l 0.46875,0.7187504 c 0.204539,-0.13261 0.396169,-0.2273017 0.5625,-0.2812504 0.168576,-0.053941 0.338164,-0.093746 0.5,-0.09375 0.467519,4.2e-6 0.687497,0.1893864 0.6875,0.5625004 -3e-6,0.242754 -0.07243,0.398857 -0.25,0.5 -0.175322,0.0989 -0.461643,0.156253 -0.84375,0.15625 l -0.375,0 0,0.8125 0.375,0 c 0.413574,2e-6 0.717441,0.02835 0.90625,0.125 0.188804,0.09665 0.281247,0.268489 0.28125,0.5 -3e-6,0.258486 -0.08592,0.445621 -0.25,0.5625 -0.164084,0.116881 -0.437354,0.187501 -0.78125,0.1875 -0.224771,1e-6 -0.426986,-0.03306 -0.65625,-0.09375 -0.229266,-0.06069 -0.465196,-0.153348 -0.65625,-0.25 l 0,0.90625 c 0.413575,0.177568 0.902547,0.25 1.4375,0.25 0.638343,0 1.12485,-0.112019 1.46875,-0.375 0.343894,-0.265228 0.531246,-0.650735 0.53125,-1.125 -4e-6,-0.325914 -0.107963,-0.590194 -0.3125,-0.78125 -0.204544,-0.193299 -0.508411,-0.294298 -0.90625,-0.34375 l 0,-0.03125 c 0.337152,-0.08091 0.594688,-0.221718 0.78125,-0.4375 0.186555,-0.215776 0.281246,-0.473312 0.28125,-0.78125 -4e-6,-0.3686184 -0.140807,-0.6682079 -0.4375,-0.8750004 -0.294451,-0.2067831 -0.708525,-0.312495 -1.21875,-0.3125 z m 6.03125,0.0625 -1.59375,1.2812504 0.5,0.625 0.5625,-0.46875 c 0.06743,-0.05394 0.201926,-0.170674 0.375,-0.34375 l -0.03125,0.53125 0,0.46875 0,2.84375 1.03125,0 0,-4.9375004 z m 4.21875,0 -2.15625,3.1875004 0,0.71875 2.09375,0 0,1.03125 1.03125,0 0,-1.03125 0.59375,0 0,-0.8125 -0.59375,0 0,-3.0937504 z M 35.3125,10.250005 c -0.0067,0.04271 0.01124,0.203525 0,0.46875 -0.01124,0.265231 -0.03125,0.485646 -0.03125,0.625 l 0,0.8125 -1.1875,0 L 35,10.812505 c 0.116878,-0.175317 0.229333,-0.378186 0.3125,-0.5625 z m -7.15625,2.6875 c -0.193303,1e-6 -0.367604,0.0596 -0.46875,0.15625 -0.101147,0.09665 -0.125,0.248694 -0.125,0.4375 0,0.182064 0.05286,0.305104 0.15625,0.40625 0.103393,0.0989 0.248693,0.15625 0.4375,0.15625 0.18431,0 0.302855,-0.0551 0.40625,-0.15625 0.103392,-0.103394 0.156248,-0.228682 0.15625,-0.40625 -2e-6,-0.18431 -0.05286,-0.338601 -0.15625,-0.4375 -0.101148,-0.0989 -0.219692,-0.156249 -0.40625,-0.15625 z"
     id="text5060"
     style="font-style:normal;font-variant:normal;font-weight:bold;font-stretch:normal;font-size:6.90492249px;line-height:125%;font-family:'Open Sans';-inkscape-font-specification:'Open Sans Bold';text-align:end;letter-spacing:0px;word-spacing:0px;text-anchor:end;fill:#6d6a59;fill-opacity:1;stroke:none" />
  <path
     inkscape:connector-curvature="0"
     d="m 15,23.000005 0,2 -2,0 0,1 2,0 0,2 1,0 0,-2 2,0 0,-1 -2,0 0,-2 -1,0 z m 15.09375,2 0,1 0.625,0 1.25,0 1.25,0 0.625,0 1.25,0 0,-1 -1.25,0 -0.625,0 -1.25,0 -0.625,0 -1.25,0 z m -17.09375,10 0,0.625 c 0,0.172587 0.0744,0.324394 0.1875,0.4375 l 1.40625,1.4375 -1.40625,1.4375 C 13.074394,39.050611 13,39.202418 13,39.375005 l 0,0.625 0.625,0 c 0.172587,0 0.324394,-0.0744 0.4375,-0.1875 l 1.4375,-1.40625 1.4375,1.40625 c 0.113106,0.113106 0.264913,0.1875 0.4375,0.1875 l 0.625,0 0,-0.625 c 0,-0.172587 -0.0744,-0.324394 -0.1875,-0.4375 l -1.40625,-1.4375 1.40625,-1.4375 C 17.925606,35.949399 18,35.797592 18,35.625005 l 0,-0.625 -0.625,0 c -0.172587,0 -0.324394,0.0744 -0.4375,0.1875 l -1.4375,1.40625 -1.4375,-1.40625 c -0.113106,-0.113106 -0.264913,-0.1875 -0.4375,-0.1875 l -0.625,0 z m 17,1 0,1 0.625,0 1.25,0 1.25,0 0.625,0 1.25,0 0,-1 -1.25,0 -0.625,0 -1.25,0 -0.625,0 -1.25,0 z m 0,2 0,1 0.625,0 1.25,0 1.25,0 0.625,0 1.25,0 0,-1 -1.25,0 -0.625,0 -1.25,0 -0.625,0 -1.25,0 z"
     id="path4086-9"
     style="color:#000000;font-style:normal;font-variant:normal;font-weight:normal;font-stretch:normal;font-size:9.881423px;line-height:125%;font-family:Helvetica;-inkscape-font-specification:Helvetica;letter-spacing:0px;word-spacing:0px;display:inline;overflow:visible;visibility:visible;opacity:0.2;fill:#000000;fill-opacity:1;fill-rule:nonzero;stroke:none;marker:none;enable-background:new" />
  <path
     inkscape:connector-curvature="0"
     d="m 15,22.000005 0,2 -2,0 0,1 2,0 0,2 1,0 0,-2 2,0 0,-1 -2,0 0,-2 -1,0 z m 15.09375,2 0,1 0.625,0 1.25,0 1.25,0 0.625,0 1.25,0 0,-1 -1.25,0 -0.625,0 -1.25,0 -0.625,0 -1.25,0 z m -17.09375,10 0,0.625 c 0,0.172587 0.0744,0.324394 0.1875,0.4375 l 1.40625,1.4375 -1.40625,1.4375 C 13.074394,38.050611 13,38.202418 13,38.375005 l 0,0.625 0.625,0 c 0.172587,0 0.324394,-0.0744 0.4375,-0.1875 l 1.4375,-1.40625 1.4375,1.40625 c 0.113106,0.113106 0.264913,0.1875 0.4375,0.1875 l 0.625,0 0,-0.625 c 0,-0.172587 -0.0744,-0.324394 -0.1875,-0.4375 l -1.40625,-1.4375 1.40625,-1.4375 C 17.925606,34.949399 18,34.797592 18,34.625005 l 0,-0.625 -0.625,0 c -0.172587,0 -0.324394,0.0744 -0.4375,0.1875 l -1.4375,1.40625 -1.4375,-1.40625 c -0.113106,-0.113106 -0.264913,-0.1875 -0.4375,-0.1875 l -0.625,0 z m 17,1 0,1 0.625,0 1.25,0 1.25,0 0.625,0 1.25,0 0,-1 -1.25,0 -0.625,0 -1.25,0 -0.625,0 -1.25,0 z m 0,2 0,1 0.625,0 1.25,0 1.25,0 0.625,0 1.25,0 0,-1 -1.25,0 -0.625,0 -1.25,0 -0.625,0 -1.25,0 z"
     id="path4086"
     style="font-style:normal;font-variant:normal;font-weight:normal;font-stretch:normal;font-size:9.881423px;line-height:125%;font-family:Helvetica;-inkscape-font-specification:Helvetica;letter-spacing:0px;word-spacing:0px;display:inline;fill:#ffffff;fill-opacity:1;stroke:none;enable-background:new" />
  <rect
     width="29"
     height="8"
     x="9.5"
     y="7.5000048"
     id="rect4940-8-8-2"
     style="color:#000000;display:inline;overflow:visible;visibility:visible;opacity:0.05;fill:none;stroke:#000000;stroke-width:0.99999994;stroke-miterlimit:4;stroke-dasharray:none;stroke-opacity:1;marker:none;enable-background:accumulate" />
</svg>
