<?xml version="1.0" encoding="UTF-8" standalone="no"?>
<svg
   xmlns:dc="http://purl.org/dc/elements/1.1/"
   xmlns:cc="http://creativecommons.org/ns#"
   xmlns:rdf="http://www.w3.org/1999/02/22-rdf-syntax-ns#"
   xmlns:svg="http://www.w3.org/2000/svg"
   xmlns="http://www.w3.org/2000/svg"
   xmlns:xlink="http://www.w3.org/1999/xlink"
   xmlns:sodipodi="http://sodipodi.sourceforge.net/DTD/sodipodi-0.dtd"
   xmlns:inkscape="http://www.inkscape.org/namespaces/inkscape"
   version="1.1"
   width="48"
   height="48"
   id="svg6649"
   inkscape:version="0.91 r13725"
   sodipodi:docname="gnome-twitch.svg">
  <sodipodi:namedview
     pagecolor="#ffffff"
     bordercolor="#666666"
     borderopacity="1"
     objecttolerance="10"
     gridtolerance="10"
     guidetolerance="10"
     inkscape:pageopacity="0"
     inkscape:pageshadow="2"
     inkscape:window-width="1600"
     inkscape:window-height="876"
     id="namedview81"
     showgrid="false"
     inkscape:zoom="4.9166667"
     inkscape:cx="-42.101695"
     inkscape:cy="24"
     inkscape:window-x="0"
     inkscape:window-y="24"
     inkscape:window-maximized="1"
     inkscape:current-layer="svg6649" />
  <defs
     id="defs6651">
    <linearGradient
       id="linearGradient4290">
      <stop
         id="stop4292"
         style="stop-color:#9e96e6;stop-opacity:1"
         offset="0" />
      <stop
         id="stop4294"
         style="stop-color:#8373b9;stop-opacity:1"
         offset="0.26238" />
      <stop
         id="stop4296"
         style="stop-color:#8752ca;stop-opacity:1"
         offset="0.704952" />
      <stop
         id="stop4298"
         style="stop-color:#413c8f;stop-opacity:1"
         offset="1" />
    </linearGradient>
    <linearGradient
       x1="23.99999"
       y1="4.999989"
       x2="23.99999"
       y2="43"
       id="linearGradient3058"
       xlink:href="#linearGradient3924-1"
       gradientUnits="userSpaceOnUse"
       gradientTransform="translate(-8.397766e-6,1.125e-5)" />
    <linearGradient
       id="linearGradient3924-1">
      <stop
         id="stop3926-3"
         style="stop-color:#ffffff;stop-opacity:1"
         offset="0" />
      <stop
         id="stop3928-91"
         style="stop-color:#ffffff;stop-opacity:0.23529412"
         offset="0.06316455" />
      <stop
         id="stop3930-6"
         style="stop-color:#ffffff;stop-opacity:0.15686275"
         offset="0.95056331" />
      <stop
         id="stop3932-6"
         style="stop-color:#ffffff;stop-opacity:0.39215687"
         offset="1" />
    </linearGradient>
    <radialGradient
       cx="7.8500957"
       cy="9.9571075"
       r="12.671875"
       fx="7.3198657"
       fy="9.9571075"
       id="radialGradient5521-1"
       xlink:href="#linearGradient4290"
       gradientUnits="userSpaceOnUse"
       gradientTransform="matrix(0,5.918619,-11.65996,0,140.93054,-54.461721)" />
  </defs>
  <metadata
     id="metadata6654">
    <rdf:RDF>
      <cc:Work
         rdf:about="">
        <dc:format>image/svg+xml</dc:format>
        <dc:type
           rdf:resource="http://purl.org/dc/dcmitype/StillImage" />
        <dc:title></dc:title>
      </cc:Work>
    </rdf:RDF>
  </metadata>
  <rect
     style="color:#000000;display:inline;overflow:visible;visibility:visible;fill:url(#radialGradient5521-1);fill-opacity:1;fill-rule:nonzero;stroke:none;stroke-width:0.99999994;marker:none;enable-background:accumulate"
     id="rect5505-21"
     y="4.5"
     x="4.5"
     ry="2"
     rx="2"
     height="39"
     width="39" />
  <rect
     style="opacity:0.5;fill:none;stroke:url(#linearGradient3058);stroke-width:1;stroke-linecap:round;stroke-linejoin:round;stroke-miterlimit:4;stroke-dasharray:none;stroke-dashoffset:0;stroke-opacity:1"
     id="rect6741"
     y="5.5"
     x="5.5"
     ry="1"
     rx="1"
     height="37"
     width="37" />
  <rect
     style="color:#000000;clip-rule:nonzero;display:inline;overflow:visible;visibility:visible;opacity:0.4;isolation:auto;mix-blend-mode:normal;color-interpolation:sRGB;color-interpolation-filters:linearRGB;solid-color:#000000;solid-opacity:1;fill:#000000;fill-opacity:0;fill-rule:nonzero;stroke:#1c1252;stroke-width:1;stroke-linecap:round;stroke-linejoin:round;stroke-miterlimit:4;stroke-dasharray:none;stroke-dashoffset:0;stroke-opacity:1;marker:none;color-rendering:auto;image-rendering:auto;shape-rendering:auto;text-rendering:auto;enable-background:accumulate"
     id="rect5505-21-3-2"
     y="4.5"
     x="4.5"
     ry="2"
     rx="2"
     height="39"
     width="39" />
  <path
     d="M 12,8.9999998 11,14 l 0,22 5,0 0,3 4,0 3,-3 4,0 10,-10 0,-17.0000002 -25,0 z M 15,11 35,11 35,24.918 31,29 l -7,0 -4,4 0,-4 -5,0 0,-18 z m 6,5 0,8 3,0 0,-8 -3,0 z m 7,0 0,8 3,0 0,-8 -3,0 z"
     id="path4171"
     style="fill:none;fill-rule:evenodd;stroke:#000000;stroke-opacity:1;opacity:0.15"
     inkscape:connector-curvature="0" />
  <path
     d="M 12,9.9999998 11,15 l 0,22 5,0 0,3 4,0 3,-3 4,0 10,-10 0,-17.0000002 -25,0 z M 15,12 35,12 35,25.918 31,30 l -7,0 -4,4 0,-4 -5,0 0,-18 z m 6,5 0,8 3,0 0,-8 -3,0 z m 7,0 0,8 3,0 0,-8 -3,0 z"
     id="path4173"
     style="opacity:0.3;fill:#000000;fill-opacity:1;fill-rule:evenodd"
     inkscape:connector-curvature="0" />
  <path
     inkscape:connector-curvature="0"
     style="fill:#ffffff;fill-rule:evenodd"
     id="path2997"
     d="M 12,8.9999998 11,14 l 0,22 5,0 0,3 4,0 3,-3 4,0 10,-10 0,-17.0000002 -25,0 z M 15,11 35,11 35,24.918 31,29 l -7,0 -4,4 0,-4 -5,0 0,-18 z m 6,5 0,8 3,0 0,-8 -3,0 z m 7,0 0,8 3,0 0,-8 -3,0 z" />
</svg>
