<?xml version="1.0" encoding="UTF-8" standalone="no"?>
<!-- Created with Inkscape (http://www.inkscape.org/) -->

<svg
   xmlns:dc="http://purl.org/dc/elements/1.1/"
   xmlns:cc="http://creativecommons.org/ns#"
   xmlns:rdf="http://www.w3.org/1999/02/22-rdf-syntax-ns#"
   xmlns:svg="http://www.w3.org/2000/svg"
   xmlns="http://www.w3.org/2000/svg"
   xmlns:xlink="http://www.w3.org/1999/xlink"
   xmlns:sodipodi="http://sodipodi.sourceforge.net/DTD/sodipodi-0.dtd"
   xmlns:inkscape="http://www.inkscape.org/namespaces/inkscape"
   version="1.1"
   width="48"
   height="48"
   id="svg4405"
   inkscape:version="0.91 r13725"
   sodipodi:docname="gnome-settings-default-applications.svg">
  <sodipodi:namedview
     pagecolor="#ffffff"
     bordercolor="#666666"
     borderopacity="1"
     objecttolerance="10"
     gridtolerance="10"
     guidetolerance="10"
     inkscape:pageopacity="0"
     inkscape:pageshadow="2"
     inkscape:window-width="1600"
     inkscape:window-height="876"
     id="namedview125"
     showgrid="false"
     inkscape:zoom="1"
     inkscape:cx="25.760736"
     inkscape:cy="24"
     inkscape:window-x="0"
     inkscape:window-y="24"
     inkscape:window-maximized="1"
     inkscape:current-layer="svg4405">
    <inkscape:grid
       type="xygrid"
       id="grid4888" />
  </sodipodi:namedview>
  <defs
     id="defs4407">
    <linearGradient
       id="linearGradient4187">
      <stop
         id="stop4189"
         style="stop-color:#ffffff;stop-opacity:1"
         offset="0" />
      <stop
         id="stop4191"
         style="stop-color:#ffffff;stop-opacity:0.23529412"
         offset="0.02099473" />
      <stop
         id="stop4193"
         style="stop-color:#ffffff;stop-opacity:0.15686275"
         offset="0.97696" />
      <stop
         id="stop4195"
         style="stop-color:#ffffff;stop-opacity:0.39215687"
         offset="1" />
    </linearGradient>
    <linearGradient
       id="linearGradient2867-449-88-871-390-598-476-591-434-148-57-177-8-3-3-6-4-8-8-8-5">
      <stop
         id="stop3750-1-0-7-6-6-1-3-9-3"
         style="stop-color:#919caf;stop-opacity:1"
         offset="0" />
      <stop
         id="stop3752-3-7-4-0-32-8-923-0-7"
         style="stop-color:#68758e;stop-opacity:1"
         offset="0.26238" />
      <stop
         id="stop3754-1-8-5-2-7-6-7-1-9"
         style="stop-color:#485a6c;stop-opacity:1"
         offset="0.704952" />
      <stop
         id="stop3756-1-6-2-6-6-1-96-6-0"
         style="stop-color:#444c5c;stop-opacity:1"
         offset="1" />
    </linearGradient>
    <linearGradient
       x1="23.99999"
       y1="6.1111298"
       x2="23.99999"
       y2="41.890972"
       id="linearGradient3153"
       xlink:href="#linearGradient4187"
       gradientUnits="userSpaceOnUse"
       gradientTransform="translate(3.5937683e-6,1e-5)" />
    <radialGradient
       cx="6.7304144"
       cy="9.9571075"
       r="12.671875"
       fx="6.2001843"
       fy="9.9571075"
       id="radialGradient4144"
       xlink:href="#linearGradient2867-449-88-871-390-598-476-591-434-148-57-177-8-3-3-6-4-8-8-8-5"
       gradientUnits="userSpaceOnUse"
       gradientTransform="matrix(0,9.4975523,-11.65996,0,140.93054,-80.160972)" />
  </defs>
  <metadata
     id="metadata4410">
    <rdf:RDF>
      <cc:Work
         rdf:about="">
        <dc:format>image/svg+xml</dc:format>
        <dc:type
           rdf:resource="http://purl.org/dc/dcmitype/StillImage" />
        <dc:title></dc:title>
      </cc:Work>
    </rdf:RDF>
  </metadata>
  <rect
     width="39"
     height="39"
     rx="2"
     ry="2"
     x="4.4999986"
     y="4.5"
     id="rect5505-21"
     style="color:#000000;display:inline;overflow:visible;visibility:visible;fill:url(#radialGradient4144);fill-opacity:1;fill-rule:nonzero;stroke:none;stroke-width:0.99999994;marker:none;enable-background:accumulate" />
  <rect
     width="37"
     height="37"
     rx="1"
     ry="1"
     x="5.5"
     y="5.5"
     id="rect6741-1"
     style="opacity:0.3;fill:none;stroke:url(#linearGradient3153);stroke-width:1;stroke-linecap:round;stroke-linejoin:round;stroke-miterlimit:4;stroke-dasharray:none;stroke-dashoffset:0;stroke-opacity:1" />
  <rect
     width="39"
     height="39"
     rx="2"
     ry="2"
     x="4.5"
     y="4.5"
     id="rect5505-21-6"
     style="color:#000000;display:inline;overflow:visible;visibility:visible;opacity:0.5;fill:none;stroke:#1c2c38;stroke-width:1;stroke-linecap:round;stroke-linejoin:round;stroke-miterlimit:4;stroke-dasharray:none;stroke-dashoffset:0;stroke-opacity:1;marker:none;enable-background:accumulate" />
  <path
     d="m 33.13413,10.000089 c -0.53931,-0.0776 -0.45336,0.42193 -0.44483,0.7731 -0.006,4.16919 0.0117,8.34067 -0.009,12.50844 -0.145,0.32452 -0.55212,0.01 -0.80112,0.0722 -1.73418,-0.0541 -3.601661,1.19458 -3.847001,3.03023 -0.25326,1.37886 1.032041,2.59317 2.321571,2.61489 1.91783,0.0526 3.57786,-1.87874 3.33426,-3.81462 0.007,-3.3283 -0.013,-6.65927 0.01,-9.9859 0.13139,-0.31618 0.48559,-0.0185 0.65097,0.0946 1.52116,0.9203 2.85047,2.44629 2.94468,4.32794 0.0815,1.08847 -0.14664,2.17303 -0.46032,3.2072 1.39838,-2.3007 1.32266,-5.50375 -0.40514,-7.60535 -1.33049,-1.38838 -2.57965,-3.04512 -2.83353,-5.03108 -0.049,-0.18667 -0.30655,-0.18423 -0.46044,-0.19158 z"
     id="path4513"
     style="color:#000000;display:inline;overflow:visible;visibility:visible;opacity:0.3;fill:#000000;fill-opacity:1;fill-rule:nonzero;stroke:none;marker:none;enable-background:accumulate"
     inkscape:connector-curvature="0" />
  <path
     inkscape:connector-curvature="0"
     style="color:#000000;display:inline;overflow:visible;visibility:visible;fill:#ffffff;fill-opacity:1;fill-rule:nonzero;stroke:none;marker:none;enable-background:accumulate"
     id="path7249-8-0-4-0"
     d="m 33.13413,9.0000893 c -0.53931,-0.0776 -0.45336,0.42193 -0.44483,0.7730997 -0.006,4.16919 0.0117,8.34067 -0.009,12.50844 -0.145,0.32452 -0.55212,0.01 -0.80112,0.0722 -1.73418,-0.0541 -3.601661,1.19458 -3.847001,3.03023 -0.25326,1.37886 1.032041,2.59317 2.321571,2.61489 1.91783,0.0526 3.57786,-1.87874 3.33426,-3.81462 0.007,-3.3283 -0.013,-6.65927 0.01,-9.9859 0.13139,-0.31618 0.48559,-0.0185 0.65097,0.0946 1.52116,0.9203 2.85047,2.44629 2.94468,4.32794 0.0815,1.08847 -0.14664,2.17303 -0.46032,3.2072 1.39838,-2.3007 1.32266,-5.50375 -0.40514,-7.60535 -1.33049,-1.38838 -2.57965,-3.04512 -2.83353,-5.0310797 -0.049,-0.18667 -0.30655,-0.18423 -0.46044,-0.19158 z" />
  <path
     sodipodi:nodetypes="cccccccc"
     inkscape:connector-curvature="0"
     d="m 11.406111,28.006891 c -0.238055,0.04705 -0.40874,0.257013 -0.40608,0.499541 l 0,8.991727 c 0.0019,0.383475 0.414795,0.624225 0.749686,0.437098 l 7.996656,-4.495863 c 0.33817,-0.193385 0.33817,-0.680811 0,-0.874196 l -7.996656,-4.495864 c -0.103423,-0.06109 -0.225285,-0.08324 -0.343606,-0.06244 z"
     id="path4515"
     style="opacity:0.3;fill:#000000;fill-opacity:1;fill-rule:evenodd;stroke:none" />
  <path
     style="fill:#ffffff;fill-opacity:1;fill-rule:evenodd;stroke:none"
     id="path4010"
     d="m 11.406111,27.006891 c -0.238055,0.04705 -0.40874,0.257013 -0.40608,0.499541 l 0,8.991727 c 0.0019,0.383475 0.414795,0.624225 0.749686,0.437098 l 7.996656,-4.495863 c 0.33817,-0.193385 0.33817,-0.680811 0,-0.874196 l -7.996656,-4.495864 c -0.103423,-0.06109 -0.225285,-0.08324 -0.343606,-0.06244 z"
     inkscape:connector-curvature="0"
     sodipodi:nodetypes="cccccccc" />
</svg>
