<?xml version="1.0" encoding="UTF-8" standalone="no"?>
<!-- Created with Inkscape (http://www.inkscape.org/) -->

<svg
   xmlns:dc="http://purl.org/dc/elements/1.1/"
   xmlns:cc="http://creativecommons.org/ns#"
   xmlns:rdf="http://www.w3.org/1999/02/22-rdf-syntax-ns#"
   xmlns:svg="http://www.w3.org/2000/svg"
   xmlns="http://www.w3.org/2000/svg"
   xmlns:xlink="http://www.w3.org/1999/xlink"
   xmlns:sodipodi="http://sodipodi.sourceforge.net/DTD/sodipodi-0.dtd"
   xmlns:inkscape="http://www.inkscape.org/namespaces/inkscape"
   id="svg5954"
   height="48"
   width="48"
   version="1.0"
   inkscape:version="0.91 r13725"
   sodipodi:docname="gnome-photos.svg">
  <metadata
     id="metadata187">
    <rdf:RDF>
      <cc:Work
         rdf:about="">
        <dc:format>image/svg+xml</dc:format>
        <dc:type
           rdf:resource="http://purl.org/dc/dcmitype/StillImage" />
      </cc:Work>
    </rdf:RDF>
  </metadata>
  <sodipodi:namedview
     pagecolor="#ffffff"
     bordercolor="#666666"
     borderopacity="1"
     objecttolerance="10"
     gridtolerance="10"
     guidetolerance="10"
     inkscape:pageopacity="0"
     inkscape:pageshadow="2"
     inkscape:window-width="1600"
     inkscape:window-height="876"
     id="namedview185"
     showgrid="false"
     inkscape:zoom="4.9166667"
     inkscape:cx="-9.0508475"
     inkscape:cy="24"
     inkscape:window-x="0"
     inkscape:window-y="24"
     inkscape:window-maximized="1"
     inkscape:current-layer="svg5954" />
  <defs
     id="defs5956">
    <radialGradient
       id="radialGradient5928"
       xlink:href="#linearGradient5060"
       gradientUnits="userSpaceOnUse"
       cy="486.65"
       cx="605.71"
       gradientTransform="matrix(0.062854,0,0,0.020588,1.295,34.451)"
       r="117.14" />
    <linearGradient
       id="linearGradient5048">
      <stop
         id="stop5050"
         style="stop-opacity:0"
         offset="0" />
      <stop
         id="stop5056"
         offset=".5" />
      <stop
         id="stop5052"
         style="stop-opacity:0"
         offset="1" />
    </linearGradient>
    <linearGradient
       id="linearGradient5931"
       y2="609.51"
       xlink:href="#linearGradient5048"
       gradientUnits="userSpaceOnUse"
       x2="302.86"
       gradientTransform="matrix(0.062854,0,0,0.020588,1.2826,34.451)"
       y1="366.65"
       x1="302.86" />
    <linearGradient
       id="linearGradient5060">
      <stop
         id="stop5062"
         offset="0" />
      <stop
         id="stop5064"
         style="stop-opacity:0"
         offset="1" />
    </linearGradient>
    <radialGradient
       id="radialGradient5934"
       xlink:href="#linearGradient5060"
       gradientUnits="userSpaceOnUse"
       cy="486.65"
       cx="605.71"
       gradientTransform="matrix(-0.062854,0,0,0.020588,46.705,34.451)"
       r="117.14" />
    <linearGradient
       id="linearGradient5809"
       y2="45.818"
       gradientUnits="userSpaceOnUse"
       x2="8.5625"
       gradientTransform="translate(-54,7)"
       y1="4.6468"
       x1="8.5625">
      <stop
         id="stop18346"
         style="stop-color:#2f3537"
         offset="0" />
      <stop
         id="stop18354"
         style="stop-color:#8a8e8e"
         offset="0.3" />
      <stop
         id="stop18348"
         style="stop-color:#2f3537"
         offset="1" />
    </linearGradient>
    <radialGradient
       id="radialGradient5807"
       gradientUnits="userSpaceOnUse"
       cy="14.782"
       cx="76.166"
       gradientTransform="matrix(4.2066,1.9379e-8,0,0.1402,-298.24,17.116)"
       r="21">
      <stop
         id="stop5430"
         style="stop-color:#7a7c7c"
         offset="0" />
      <stop
         id="stop5432"
         style="stop-color:#33393a"
         offset="1" />
    </radialGradient>
    <linearGradient
       id="linearGradient5925"
       y2="496.34"
       gradientUnits="userSpaceOnUse"
       x2="700.41"
       gradientTransform="matrix(0.15392,0,0,0.1533,-88.754,-31.25)"
       y1="327.78"
       x1="697.91">
      <stop
         id="stop25795"
         style="stop-color:#f0f0f4"
         offset="0" />
      <stop
         id="stop25819"
         style="stop-color:#eeeeec"
         offset=".037441" />
      <stop
         id="stop25817"
         style="stop-color:#eeeeec;stop-opacity:.69595"
         offset=".39254" />
      <stop
         id="stop25803"
         style="stop-color:#a1a29f"
         offset="0.908" />
      <stop
         id="stop25799"
         style="stop-color:#555753"
         offset="1" />
    </linearGradient>
    <radialGradient
       id="radialGradient5813"
       gradientUnits="userSpaceOnUse"
       cy="127.65"
       cx="400.3"
       gradientTransform="matrix(1.0867,3.1905e-5,-1.4474e-5,0.51097,-407.47,-42.409)"
       r="2.0222">
      <stop
         id="stop26818"
         style="stop-color:#fff"
         offset="0" />
      <stop
         id="stop26820"
         style="stop-color:#eeeeec;stop-opacity:0"
         offset="1" />
    </radialGradient>
    <radialGradient
       id="radialGradient5815"
       gradientUnits="userSpaceOnUse"
       cy="127.25"
       cx="399.88"
       gradientTransform="matrix(0.942,-0.093118,0.12194,0.43761,-364.49,4.8425)"
       r="2.0222">
      <stop
         id="stop26832"
         style="stop-color:#fff"
         offset="0" />
      <stop
         id="stop26834"
         style="stop-color:#fff;stop-opacity:0"
         offset="1" />
    </radialGradient>
    <radialGradient
       id="radialGradient5821"
       gradientUnits="userSpaceOnUse"
       cy="33.605"
       cx="427.8"
       gradientTransform="matrix(-0.44827,0.10225,-0.081708,-0.35819,229.54,-7.9557)"
       r="74.908">
      <stop
         id="stop18405"
         style="stop-color:#eeeeec"
         offset="0" />
      <stop
         id="stop18407"
         style="stop-color:#eeeeec;stop-opacity:0"
         offset="1" />
    </radialGradient>
    <radialGradient
       id="radialGradient5823"
       gradientUnits="userSpaceOnUse"
       cy="217.46"
       cx="502.53"
       gradientTransform="matrix(0.10492,-0.072831,0.035871,0.057009,-26.172,61.542)"
       r="74.908">
      <stop
         id="stop26170"
         style="stop-color:#eeeeec"
         offset="0" />
      <stop
         id="stop26172"
         style="stop-color:#eeeeec;stop-opacity:0"
         offset="1" />
    </radialGradient>
    <radialGradient
       id="radialGradient5825"
       gradientUnits="userSpaceOnUse"
       cy="170.41"
       cx="459.45"
       gradientTransform="matrix(0.15094,-2.3254e-8,1.3013e-8,0.12469,-41.412,10.189)"
       r="74.908">
      <stop
         id="stop26130"
         style="stop-color:#eeeeec;stop-opacity:.95270"
         offset="0" />
      <stop
         id="stop26146"
         style="stop-color:#eeeeec;stop-opacity:0"
         offset=".47989" />
      <stop
         id="stop26148"
         style="stop-color:#eeeeec;stop-opacity:.99324"
         offset=".52296" />
      <stop
         id="stop26132"
         style="stop-color:#eeeeec;stop-opacity:0"
         offset=".63154" />
      <stop
         id="stop26134"
         style="stop-color:#eeeeec;stop-opacity:.23529"
         offset=".73835" />
      <stop
         id="stop26136"
         style="stop-color:#fff;stop-opacity:.71622"
         offset=".83401" />
      <stop
         id="stop26142"
         style="stop-color:#f6f6f5;stop-opacity:.27027"
         offset=".90514" />
      <stop
         id="stop26144"
         style="stop-color:#f2f2f0;stop-opacity:.27703"
         offset=".90514" />
      <stop
         id="stop26138"
         style="stop-color:#eeeeec;stop-opacity:0"
         offset="1" />
    </radialGradient>
    <radialGradient
       id="radialGradient5827"
       gradientUnits="userSpaceOnUse"
       cy="165.52"
       cx="449.88"
       gradientTransform="matrix(0,-0.096503,0.10561,0,10.521,73.487)"
       r="74.908">
      <stop
         id="stop26023"
         style="stop-color:#eeeeec;stop-opacity:0"
         offset="0" />
      <stop
         id="stop26029"
         style="stop-color:#eeeeec;stop-opacity:.49804"
         offset=".86670" />
      <stop
         id="stop26025"
         style="stop-color:#eeeeec;stop-opacity:0"
         offset="1" />
    </radialGradient>
    <radialGradient
       id="radialGradient5829"
       gradientUnits="userSpaceOnUse"
       cy="95.382"
       cx="529.4"
       gradientTransform="matrix(0,0.10037,-0.10096,0,37.63,-21.627)"
       r="74.908">
      <stop
         id="stop26122"
         style="stop-color:#2e3436;stop-opacity:0"
         offset="0" />
      <stop
         id="stop26124"
         style="stop-color:#2e3436;stop-opacity:0"
         offset=".47336" />
      <stop
         id="stop26126"
         style="stop-color:#0f1112"
         offset="1" />
    </radialGradient>
    <linearGradient
       id="linearGradient5831"
       y2="225.83"
       xlink:href="#linearGradient26075"
       gradientUnits="userSpaceOnUse"
       x2="280.02"
       gradientTransform="matrix(0.093448,0,0,0.13038,-14.724,8.5567)"
       y1="126.84"
       x1="469.36" />
    <linearGradient
       id="linearGradient26075">
      <stop
         id="stop26077"
         style="stop-color:#555753;stop-opacity:0"
         offset="0" />
      <stop
         id="stop26079"
         style="stop-color:#eeeeec"
         offset="1" />
    </linearGradient>
    <radialGradient
       id="radialGradient5833"
       xlink:href="#linearGradient26075"
       gradientUnits="userSpaceOnUse"
       cy="218.66"
       cx="344.26"
       gradientTransform="matrix(-0.013724,-0.24747,0.093642,-0.0055498,12.249,119.4)"
       r="74.908" />
    <radialGradient
       id="radialGradient5835"
       xlink:href="#linearGradient8660"
       gradientUnits="userSpaceOnUse"
       cy="131.83"
       cx="469.91"
       gradientTransform="matrix(-0.14051,-0.13746,0.12306,-0.13043,81.417,105.47)"
       r="74.908" />
    <radialGradient
       id="radialGradient5839"
       gradientUnits="userSpaceOnUse"
       cy="130.89"
       cx="441.36"
       gradientTransform="matrix(-0.012867,-0.088952,0.29168,-0.044437,-4.4991,72.075)"
       r="75.756">
      <stop
         id="stop8692"
         style="stop-color:#3a3a3a"
         offset="0" />
      <stop
         id="stop8694"
         style="stop-color:#3a3a3a;stop-opacity:0"
         offset="1" />
    </radialGradient>
    <linearGradient
       id="linearGradient8660">
      <stop
         id="stop8662"
         style="stop-color:#2e3436"
         offset="0" />
      <stop
         id="stop8664"
         style="stop-color:#555753;stop-opacity:0"
         offset="1" />
    </linearGradient>
    <radialGradient
       id="radialGradient5837"
       xlink:href="#linearGradient8660"
       gradientUnits="userSpaceOnUse"
       cy="98.975"
       cx="434.13"
       gradientTransform="matrix(-0.15022,0.15417,-0.1987,-0.20393,112.88,-19.249)"
       r="74.908" />
    <linearGradient
       id="linearGradient5904"
       y2="114.23"
       gradientUnits="userSpaceOnUse"
       x2="457.2"
       gradientTransform="matrix(0.072459,0,0,0.10109,-5.1277,16.598)"
       y1="289.78"
       x1="457.2">
      <stop
         id="stop26093"
         style="stop-color:#2e3436"
         offset="0" />
      <stop
         id="stop26095"
         style="stop-color:#fff"
         offset="1" />
    </linearGradient>
    <radialGradient
       id="radialGradient5902"
       gradientUnits="userSpaceOnUse"
       cy="111.3"
       cx="439.05"
       gradientTransform="matrix(0.071034,-0.056703,0.11549,0.15363,-18.57,39.166)"
       r="75.752">
      <stop
         id="stop26101"
         style="stop-color:#eeeeec"
         offset="0" />
      <stop
         id="stop26103"
         style="stop-color:#babdb6"
         offset="1" />
    </radialGradient>
    <linearGradient
       id="linearGradient5898"
       y2="179.04"
       xlink:href="#linearGradient9688"
       gradientUnits="userSpaceOnUse"
       x2="222.73"
       gradientTransform="matrix(0.13883,0,0,0.13367,-5.4886,10.255)"
       y1="171.62"
       x1="236.75" />
    <radialGradient
       id="radialGradient5895"
       gradientUnits="userSpaceOnUse"
       cy="171.79"
       cx="251.69"
       gradientTransform="matrix(0.040643,-0.16438,0.25253,0.063961,-22.112,66.502)"
       r="21.531">
      <stop
         id="stop9787"
         style="stop-color:#eeeeec"
         offset="0" />
      <stop
         id="stop9789"
         style="stop-color:#090908;stop-opacity:.96622"
         offset="1" />
    </radialGradient>
    <linearGradient
       id="linearGradient9688">
      <stop
         id="stop9690"
         style="stop-color:#eeeeec"
         offset="0" />
      <stop
         id="stop9692"
         style="stop-color:#fff;stop-opacity:0"
         offset="1" />
    </linearGradient>
    <radialGradient
       id="radialGradient5891"
       xlink:href="#linearGradient9688"
       gradientUnits="userSpaceOnUse"
       cy="183.64"
       cx="258.76"
       gradientTransform="matrix(0.17369,-0.0023476,0.0017845,0.13208,-14.713,11.071)"
       r="18.578" />
    <radialGradient
       id="radialGradient5851"
       gradientUnits="userSpaceOnUse"
       cy="62.526"
       cx="442.29"
       gradientTransform="matrix(-1.3017e-5,-1.3896,0.25862,0,11.835,645.6)"
       r="77.923">
      <stop
         id="stop26373"
         style="stop-color:#777;stop-opacity:0"
         offset="0" />
      <stop
         id="stop26375"
         style="stop-color:#2b2b2b"
         offset="1" />
    </radialGradient>
    <linearGradient
       id="linearGradient5853"
       y2="26.868"
       xlink:href="#linearGradient5895"
       gradientUnits="userSpaceOnUse"
       x2="24.082"
       gradientTransform="matrix(1.0732,0,0,1.0757,2.153,-3.3148)"
       y1="21.016"
       x1="21.568" />
    <filter
       id="filter9094"
       height="1.6824"
       width="1.6824"
       color-interpolation-filters="sRGB"
       y="-.34118"
       x="-.34118">
      <feGaussianBlur
         id="feGaussianBlur9096"
         stdDeviation="0.28648224" />
    </filter>
    <linearGradient
       id="linearGradient5895">
      <stop
         id="stop5897"
         style="stop-color:#888a85"
         offset="0" />
      <stop
         id="stop5899"
         style="stop-color:#fff"
         offset="1" />
    </linearGradient>
    <linearGradient
       id="linearGradient5855"
       y2="24.938"
       xlink:href="#linearGradient5895"
       gradientUnits="userSpaceOnUse"
       x2="24"
       gradientTransform="matrix(0.67368,0,0,0.67368,6.1325,7.0465)"
       y1="22.125"
       x1="22.062" />
    <linearGradient
       id="linearGradient5882"
       y2="22.713"
       gradientUnits="userSpaceOnUse"
       x2="8.5602"
       gradientTransform="matrix(1.1646,0,0,0.37791,27.282,11.163)"
       y1="29.18"
       x1="5.3348">
      <stop
         id="stop2232"
         style="stop-color:#eee"
         offset="0" />
      <stop
         id="stop2234"
         style="stop-color:#a2a2a2"
         offset="1" />
    </linearGradient>
    <linearGradient
       id="linearGradient5880"
       y2="30.191"
       gradientUnits="userSpaceOnUse"
       x2="6.5596"
       gradientTransform="matrix(1.3054,0,0,0.96884,27.158,-7.1109)"
       y1="28.781"
       x1="6.5596">
      <stop
         id="stop3303"
         style="stop-color:#fff"
         offset="0" />
      <stop
         id="stop3305"
         style="stop-color:#d7dbc7"
         offset="1" />
    </linearGradient>
    <radialGradient
       id="radialGradient5861"
       xlink:href="#linearGradient17963"
       gradientUnits="userSpaceOnUse"
       cy="20.823"
       cx="9.119"
       gradientTransform="matrix(0,-0.60512,2.7541,0,-44.501,25.185)"
       r="3.177" />
    <radialGradient
       id="radialGradient5863"
       gradientUnits="userSpaceOnUse"
       cy="17.109"
       cx="9.2366"
       gradientTransform="matrix(1.2675,-4.6716e-7,1.8899e-7,0.44533,1.2924,9.6308)"
       r="2.961">
      <stop
         id="stop17943"
         style="stop-color:#e9e9e9"
         offset="0" />
      <stop
         id="stop17945"
         style="stop-color:#a7a7a7"
         offset="0" />
      <stop
         id="stop17947"
         style="stop-color:#bebebe"
         offset="0.529" />
      <stop
         id="stop17949"
         style="stop-color:#e7e7e7"
         offset="1" />
    </radialGradient>
    <linearGradient
       id="linearGradient17963">
      <stop
         id="stop17965"
         style="stop-color:#dee3e0"
         offset="0" />
      <stop
         id="stop17967"
         style="stop-color:#dee3e0;stop-opacity:0"
         offset="1" />
    </linearGradient>
    <radialGradient
       id="radialGradient5874"
       xlink:href="#linearGradient17963"
       gradientUnits="userSpaceOnUse"
       cy="12.007"
       cx="14.739"
       gradientTransform="matrix(-3.3976e-6,-2.2552,3.3832,-5.402e-6,-27.82,51.247)"
       r=".54688" />
    <linearGradient
       id="linearGradient5870"
       y2="53.914"
       gradientUnits="userSpaceOnUse"
       x2="11.692"
       gradientTransform="matrix(0.97498,0,0,0.9583,-1.3995,0.33444)"
       y1="20.521"
       x1="10.666">
      <stop
         id="stop5406"
         style="stop-color:#fff"
         offset="0" />
      <stop
         id="stop5408"
         style="stop-color:#fff;stop-opacity:0"
         offset="1" />
    </linearGradient>
    <radialGradient
       id="radialGradient5947"
       gradientUnits="userSpaceOnUse"
       cy="188.5"
       cx="171.25"
       gradientTransform="matrix(0.23274,0,0,0.23274,-13.652,-11.876)"
       r="19">
      <stop
         id="stop10697"
         style="stop-color:#b100cb"
         offset="0" />
      <stop
         id="stop10699"
         style="stop-color:#204a87;stop-opacity:0"
         offset="1" />
    </radialGradient>
    <linearGradient
       id="linearGradient2749"
       y2="170.29"
       xlink:href="#linearGradient3997"
       gradientUnits="userSpaceOnUse"
       x2="79.104"
       gradientTransform="matrix(.23554 0 5.2453e-8 .20448 25.094 19.933)"
       y1="3.0903"
       x1=".63341" />
    <linearGradient
       id="linearGradient3997">
      <stop
         id="stop3999"
         style="stop-color:#f3f7fa"
         offset="0" />
      <stop
         id="stop4001"
         style="stop-color:#fdfeff"
         offset="1" />
    </linearGradient>
    <linearGradient
       id="linearGradient2751"
       y2="11.735"
       xlink:href="#linearGradient4157-401"
       gradientUnits="userSpaceOnUse"
       x2="5.525"
       gradientTransform="matrix(.33339 0 0 .33591 2.9802 -1.4923)"
       y1="40.523"
       x1="20.253" />
    <linearGradient
       id="linearGradient4157-401">
      <stop
         id="stop3688"
         style="stop-color:#262626"
         offset="0" />
      <stop
         id="stop3690"
         style="stop-color:#828282"
         offset="1" />
    </linearGradient>
    <radialGradient
       id="radialGradient2753"
       xlink:href="#linearGradient4342"
       gradientUnits="userSpaceOnUse"
       cy="65.617"
       cx="34.828"
       gradientTransform="matrix(.14818 .010257 -.0089468 .13265 2.708 -1.8757)"
       r="42.271" />
    <linearGradient
       id="linearGradient4342">
      <stop
         id="stop4344"
         style="stop-color:#6e8d5d"
         offset="0" />
      <stop
         id="stop4350"
         style="stop-color:#a2ac34;stop-opacity:.49804"
         offset=".5" />
      <stop
         id="stop4352"
         style="stop-color:#cbbd40;stop-opacity:.24706"
         offset=".75" />
      <stop
         id="stop4354"
         style="stop-color:#dbc146;stop-opacity:.12157"
         offset=".875" />
      <stop
         id="stop4346"
         style="stop-color:#ff480f;stop-opacity:.13265"
         offset="1" />
    </linearGradient>
    <linearGradient
       id="linearGradient2755"
       y2="170.29"
       xlink:href="#linearGradient3997"
       gradientUnits="userSpaceOnUse"
       x2="79.104"
       gradientTransform="matrix(.23554 0 5.2453e-8 .20448 -28.67 14.795)"
       y1="3.0903"
       x1=".63341" />
  </defs>
  <g
     id="g2738"
     transform="translate(56.753 -11.955)">
    <g
       id="g2637"
       transform="matrix(.86603 -.5 .5 .86603 -71.468 12.955)">
      <rect
         id="rect2629"
         style="stroke-linejoin:round;stroke-opacity:.96863;stroke:#909090;stroke-linecap:round;stroke-width:1.0071;fill:url(#linearGradient2749)"
         transform="matrix(1 -.0017355 -.0021096 1 0 0)"
         height="20.912"
         width="20.904"
         y="25.625"
         x="23.64" />
      <g
         id="g2631"
         transform="matrix(1.5596 0 0 1.5535 21.529 23.56)">
        <rect
           id="rect2633"
           style="stroke-linejoin:round;stroke-opacity:.96863;stroke:#333;stroke-linecap:round;stroke-width:.65614;fill:url(#linearGradient2751)"
           transform="matrix(1 -.0017885 -.0020470 1 0 0)"
           rx="0"
           ry="0"
           height="9.6223"
           width="10.867"
           y="2.5667"
           x="2.5777" />
        <rect
           id="rect2635"
           style="opacity:.35;fill:url(#radialGradient2753)"
           transform="matrix(1 -.0017885 -.0020470 1 0 0)"
           rx="0"
           ry="0"
           height="9.6223"
           width="10.866"
           y="2.5667"
           x="2.5777" />
      </g>
    </g>
    <rect
       id="rect2722"
       style="stroke-linejoin:round;stroke-opacity:.96863;stroke:#909090;stroke-linecap:round;stroke-width:1.0071;fill:url(#linearGradient2755)"
       transform="matrix(1 -.0017355 -.0021096 1 0 0)"
       height="20.912"
       width="20.904"
       y="20.487"
       x="-30.124" />
    <g
       id="g2724"
       transform="matrix(1.5596 0 0 1.5535 -32.224 18.515)">
      <rect
         id="rect2726"
         style="stroke-linejoin:round;stroke-opacity:.96863;stroke:#333;stroke-linecap:round;stroke-width:.65614;fill:url(#linearGradient2751)"
         transform="matrix(1 -.0017885 -.0020470 1 0 0)"
         rx="0"
         ry="0"
         height="9.6223"
         width="10.867"
         y="2.5667"
         x="2.5777" />
      <rect
         id="rect2728"
         style="opacity:.35;fill:url(#radialGradient2753)"
         transform="matrix(1 -.0017885 -.0020470 1 0 0)"
         rx="0"
         ry="0"
         height="9.6223"
         width="10.866"
         y="2.5667"
         x="2.5777" />
    </g>
  </g>
  <rect
     x="1.5051999"
     y="16.504999"
     width="40.990002"
     height="26.99"
     ry="2.1004"
     rx="2.4749"
     style="fill:url(#radialGradient5807);stroke:url(#linearGradient5809);stroke-width:1.00999999;stroke-linecap:round;stroke-linejoin:round"
     id="rect5438" />
  <rect
     x="2"
     y="19"
     width="40"
     height="24"
     ry="1.6573"
     rx="1.6573"
     style="fill:url(#linearGradient5925)"
     id="rect5445" />
  <path
     inkscape:connector-curvature="0"
     d="m 30.24,21.383 a 2.7165,2.6372 0 0 1 -5.433,0 2.7165,2.6372 0 1 1 5.433,0 z"
     style="opacity:0.27228005;fill:url(#radialGradient5813)"
     id="path5451" />
  <path
     inkscape:connector-curvature="0"
     d="m 30.227,22.661 a 2.70415,1.8094335 0 0 1 -5.4083,0 2.70415,1.8094335 0 1 1 5.4083,0 z"
     style="fill:url(#radialGradient5815)"
     id="path5453" />
  <path
     inkscape:connector-curvature="0"
     d="m 38,31 a 10,10 0 0 1 -20,0 10,10 0 1 1 20,0 z"
     style="fill:url(#radialGradient5821)"
     id="path5463" />
  <path
     inkscape:connector-curvature="0"
     d="m 37,31 a 9,9 0 0 1 -18,0 9,9 0 1 1 18,0 z"
     style="fill:#888a85"
     id="path5465" />
  <path
     inkscape:connector-curvature="0"
     d="m 39,31 a 11,11 0 0 1 -22,0 11,11 0 1 1 22,0 z"
     style="fill:url(#radialGradient5823)"
     id="path5467" />
  <path
     inkscape:connector-curvature="0"
     d="m 37.937,31.438 a 10,10 0 0 1 -20,0 10,10 0 1 1 20,0 z"
     style="fill:url(#radialGradient5825)"
     id="path5469" />
  <path
     inkscape:connector-curvature="0"
     d="m 36.069,30.663 a 8.0691,7.8189 0 0 1 -16.138,0 8.0691,7.8189 0 1 1 16.138,0 z"
     style="fill:url(#radialGradient5827)"
     id="path5471" />
  <path
     inkscape:connector-curvature="0"
     d="m 35,31 a 7,7 0 0 1 -14,0 7,7 0 1 1 14,0 z"
     style="opacity:0.85149004;fill:url(#radialGradient5829)"
     id="path5473" />
  <path
     inkscape:connector-curvature="0"
     d="m 35,31 a 7,7 0 0 1 -14,0 7,7 0 1 1 14,0 z"
     style="fill:url(#linearGradient5831)"
     id="path5475" />
  <path
     inkscape:connector-curvature="0"
     d="m 35,32 a 7,7 0 0 1 -14,0 7,7 0 1 1 14,0 z"
     style="fill:url(#radialGradient5833)"
     id="path5477" />
  <path
     inkscape:connector-curvature="0"
     d="m 33.734,31.948 a 5.7665,6.0002081 0 0 1 -11.533,0 5.7665,6.0002081 0 1 1 11.533,0 z"
     style="opacity:0.53960003;fill:url(#radialGradient5835)"
     id="path5479" />
  <path
     inkscape:connector-curvature="0"
     d="m 33.676,32.5 a 5.676,5.4259912 0 0 1 -11.352,0 5.676,5.4259912 0 1 1 11.352,0 z"
     style="fill:url(#radialGradient5837);stroke:url(#radialGradient5839);stroke-width:0.1485;stroke-linecap:round;stroke-linejoin:round"
     id="path5481" />
  <path
     inkscape:connector-curvature="0"
     d="m 33.428,34 c 0,2.9961 -2.4316,5.4277 -5.4277,5.4277 -2.9961,0 -5.4277,-2.4316 -5.4277,-5.4277 0,-2.9961 2.4316,-5.4277 5.4277,-5.4277 2.9961,0 5.4277,2.4316 5.4277,5.4277 z"
     style="fill:url(#radialGradient5902);stroke:url(#linearGradient5904);stroke-width:0.14459001;stroke-linecap:round;stroke-linejoin:round"
     id="path5483" />
  <path
     inkscape:connector-curvature="0"
     d="m 32.5,34 a 4.5,4.5 0 0 1 -9,0 4.5,4.5 0 1 1 9,0 z"
     style="fill:#2e3436"
     id="path5485" />
  <path
     inkscape:connector-curvature="0"
     d="m 27.224,31.466 c -0.08496,0.02653 -0.16639,0.05752 -0.24728,0.0919 0.08079,-0.03461 0.1624,-0.06518 0.24728,-0.0919 z m 1.77,0.05013 c 0.035,0.01321 0.06988,0.02718 0.10412,0.04177 -0.03437,-0.01461 -0.06898,-0.02856 -0.10412,-0.04177 z m -2.308,0.18798 c -0.05662,0.03268 -0.11114,0.06787 -0.16486,0.10443 0.05331,-0.03657 0.10869,-0.07167 0.16486,-0.10443 z m -0.16486,0.10443 c -0.06461,0.04398 -0.12648,0.08859 -0.18655,0.13785 0.05929,-0.04879 0.12287,-0.09417 0.18655,-0.13785 z m 3.2754,0.18798 c 0.03712,0.0324 0.07334,0.06589 0.10846,0.10026 -0.03511,-0.03423 -0.07136,-0.06799 -0.10846,-0.10026 z m -3.5271,0.0084 c -0.04762,0.0418 -0.09456,0.08446 -0.13883,0.12949 0.04437,-0.04514 0.09114,-0.08753 0.13883,-0.12949 z m -0.13883,0.12949 c -0.33737,0.34318 -0.57623,0.77514 -0.6681,1.2574 -2.56e-4,0.0014 2.57e-4,0.0028 0,0.0042 l 0,0.88976 c 0.13918,0.7375 0.61747,1.3607 1.2755,1.721 l 2.5987,0 c 0.63044,-0.34525 1.0935,-0.93177 1.2538,-1.6291 l 0,-0.0084 0,-1.0568 C 30.51917,32.99723 30.38755,32.70231 30.2044,32.4436 30.06193,32.26009 29.8971,32.12706 29.71851,32.05512 l -3.488,0 c -0.03512,0.02614 -0.06746,0.05237 -0.09978,0.07937 z m -0.6681,2.1513 c -0.01352,-0.07159 -0.02313,-0.14322 -0.03037,-0.21722 0.007,0.07375 0.01683,0.14545 0.03037,0.21722 z m 0,-0.88976 c -0.01357,0.07192 -0.0234,0.14331 -0.03037,0.21722 0.0072,-0.07297 0.01685,-0.14567 0.03037,-0.21722 z m 4.5596,-1.1822 c 0.02542,0.02829 0.04966,0.05836 0.07375,0.08772 -0.02444,-0.02974 -0.04796,-0.05908 -0.07375,-0.08772 z m -2.828,3.991 c 0.05283,0.01722 0.10623,0.03193 0.16052,0.04595 -0.05432,-0.01407 -0.10765,-0.02866 -0.16052,-0.04595 z m 1.6876,0 c -0.05312,0.01729 -0.10592,0.03188 -0.16052,0.04595 0.05429,-0.01402 0.10769,-0.02874 0.16052,-0.04595 z"
     style="opacity:0.23267002;fill:url(#linearGradient5898)"
     id="path5487" />
  <path
     inkscape:connector-curvature="0"
     d="m 25.734,31 c -0.535,0.385 -0.965,0.904 -1.234,1.501 l 0,2.946 c 0.28195,0.62634 0.73926,1.1627 1.3106,1.5527 l 4.4296,0 c 0.538,-0.369 0.975,-0.868 1.259,-1.45 l 0,-3.1465 c -0.271,-0.557 -0.682,-1.041 -1.189,-1.404 l -4.5769,0 z"
     style="opacity:0.37557002;fill:url(#radialGradient5895)"
     id="path5489" />
  <path
     inkscape:connector-curvature="0"
     d="m 27.234,31.403 c -0.08393,0.02688 -0.16438,0.05827 -0.24429,0.0931 0.07981,-0.03506 0.16044,-0.06603 0.24429,-0.0931 z m 1.7486,0.05078 c 0.03457,0.01338 0.06903,0.02754 0.10286,0.04232 -0.03396,-0.0148 -0.06815,-0.02893 -0.10286,-0.04232 z m -2.28,0.19043 c -0.05593,0.03311 -0.1098,0.06876 -0.16286,0.1058 0.05266,-0.03705 0.10737,-0.07261 0.16286,-0.1058 z m -0.16286,0.1058 c -0.06383,0.04455 -0.12495,0.08974 -0.18429,0.13965 0.05858,-0.04943 0.12138,-0.0954 0.18429,-0.13965 z m 3.2357,0.19043 c 0.03667,0.03282 0.07245,0.06675 0.10715,0.10157 -0.03468,-0.03468 -0.07049,-0.06888 -0.10715,-0.10157 z m -3.4843,0.0085 c -0.04705,0.04235 -0.09341,0.08557 -0.13714,0.13119 0.04384,-0.04573 0.09004,-0.08867 0.13714,-0.13119 z M 26.154,32.08013 c -0.33328,0.34766 -0.56925,0.78528 -0.66001,1.2738 -2.53e-4,0.0014 2.54e-4,0.0029 0,0.0042 l 0,0.90138 c 0.13749,0.74714 0.60999,1.3785 1.26,1.7435 l 2.5672,0 c 0.6228,-0.34977 1.0802,-0.94395 1.2386,-1.6504 l 0,-0.0085 0,-1.0707 c -0.07047,-0.31936 -0.2005,-0.61814 -0.38143,-0.88022 -0.14074,-0.1859 -0.30357,-0.32067 -0.48,-0.39356 l -3.4458,0 c -0.03469,0.02648 -0.06665,0.05306 -0.09857,0.0804 z m -0.66001,2.1794 c -0.01335,-0.07252 -0.02285,-0.14509 -0.03,-0.22006 0.0069,0.07472 0.01662,0.14735 0.03,0.22006 z m 0,-0.90138 c -0.01341,0.07286 -0.02312,0.14518 -0.03,0.22006 0.0071,-0.07392 0.01665,-0.14757 0.03,-0.22006 z m 4.5043,-1.1976 c 0.02511,0.02866 0.04905,0.05912 0.07286,0.08887 -0.02414,-0.03013 -0.04738,-0.05985 -0.07286,-0.08887 z m -2.7943,4.0414 c 0.05219,0.01744 0.10494,0.03235 0.15857,0.04655 -0.05367,-0.01425 -0.10635,-0.02904 -0.15857,-0.04655 z m 1.6672,0 c -0.05248,0.01752 -0.10464,0.0323 -0.15857,0.04655 0.05363,-0.0142 0.10638,-0.02911 0.15857,-0.04655 z"
     style="fill:#2e3436"
     id="path5491" />
  <path
     inkscape:connector-curvature="0"
     d="m 27.234,31.341 c -0.08393,0.02723 -0.16438,0.05903 -0.24429,0.0943 0.07981,-0.03551 0.16044,-0.06688 0.24429,-0.0943 z m 1.7486,0.05144 c 0.03457,0.01355 0.06903,0.02789 0.10286,0.04286 C 29.0515,31.42031 29.01731,31.406 28.9826,31.39244 Z m -2.281,0.193 c -0.05593,0.03353 -0.1098,0.06965 -0.16286,0.10716 0.05266,-0.03753 0.10737,-0.07354 0.16286,-0.10716 z m -0.16286,0.10716 c -0.06383,0.04513 -0.12495,0.0909 -0.18429,0.14145 0.05858,-0.05006 0.12138,-0.09663 0.18429,-0.14145 z m 3.2357,0.19289 c 0.03667,0.03325 0.07245,0.06761 0.10715,0.10288 -0.03468,-0.03512 -0.07049,-0.06977 -0.10715,-0.10288 z m -3.4843,0.0086 c -0.04705,0.0429 -0.09341,0.08667 -0.13714,0.13288 0.04384,-0.04632 0.09004,-0.08982 0.13714,-0.13288 z M 26.153,32.02697 c -0.33328,0.35214 -0.56925,0.7954 -0.66001,1.2902 -2.53e-4,0.0014 2.54e-4,0.0029 0,0.0043 l 0,0.91301 c 0.13749,0.75678 0.60999,1.3962 1.26,1.766 l 2.5672,0 c 0.6228,-0.35428 1.0802,-0.95612 1.2386,-1.6717 l 0,-0.0086 0,-1.0845 c -0.071,-0.324 -0.201,-0.627 -0.382,-0.892 -0.141,-0.188 -0.303,-0.325 -0.48,-0.399 l -3.4458,0 c -0.03469,0.02682 -0.06665,0.05374 -0.09857,0.08144 z m -0.66,2.207 c -0.01335,-0.07346 -0.02285,-0.14697 -0.03,-0.22289 0.0069,0.07568 0.01662,0.14925 0.03,0.22289 z m 0,-0.91301 c -0.01341,0.0738 -0.02312,0.14705 -0.03,0.2229 0.0071,-0.07488 0.01665,-0.14948 0.03,-0.2229 z m 4.5043,-1.2131 c 0.02511,0.02903 0.04905,0.05988 0.07286,0.09002 -0.02414,-0.03052 -0.04738,-0.06063 -0.07286,-0.09002 z m -2.7943,4.0935 c 0.05219,0.01767 0.10494,0.03277 0.15857,0.04715 C 27.3079,36.23407 27.25522,36.2191 27.203,36.20136 Z m 1.6672,0 c -0.05248,0.01774 -0.10464,0.03271 -0.15857,0.04715 0.05363,-0.01438 0.10638,-0.02949 0.15857,-0.04715 z"
     style="opacity:0.23267002;fill:url(#radialGradient5891)"
     id="path5493" />
  <path
     inkscape:connector-curvature="0"
     d="m 28.012,31.994 c -1.0298,-2e-6 -1.8752,0.77295 -1.9851,1.7632 -0.0046,0.04174 -0.008,0.08347 -0.0099,0.12595 -0.0014,0.0304 -0.005,0.05994 -0.005,0.09068 0,0.0067 -6.7e-5,0.01348 0,0.02015 -6.7e-5,0.0067 0,0.01346 0,0.02015 6.05e-4,0.03001 0.003,0.06102 0.005,0.09068 0.002,0.04247 0.0053,0.08421 0.0099,0.12595 0.10987,0.99028 0.95525,1.7632 1.9851,1.7632 1.02985,0 1.8752,-0.77295 1.9851,-1.7632 0.0046,-0.04174 0.008,-0.08347 0.0099,-0.12595 0.0024,-0.03624 0.0046,-0.07407 0.005,-0.11083 -3.7e-4,-0.03675 -0.0026,-0.0746 -0.005,-0.11083 C 30.005,33.84068 30.0017,33.79894 29.9971,33.7572 29.88723,32.76692 29.04185,31.994 28.012,31.994 Z"
     style="fill-opacity:0.50542997"
     id="path5495" />
  <path
     inkscape:connector-curvature="0"
     d="m 38.516,31 a 10.5165,10.5165 0 0 1 -21.033,0 10.5165,10.5165 0 1 1 21.033,0 z"
     style="fill:none;stroke:url(#radialGradient5851);stroke-linecap:round;stroke-linejoin:round"
     id="path5497" />
  <path
     inkscape:connector-curvature="0"
     d="m 28.513,21.495 a 2.0122,2.017 0 0 1 -4.0244,0 2.0122,2.017 0 1 1 4.0244,0 z"
     style="fill:#2e3436;fill-rule:evenodd;stroke:url(#linearGradient5853);stroke-width:0.97678;stroke-miterlimit:10"
     id="path5499" />
  <path
     inkscape:connector-curvature="0"
     d="m 27.334,21.502 a 0.81921,0.82118 0 0 1 -1.6384,0 0.81921,0.82118 0 1 1 1.6384,0 z"
     style="opacity:0.34706002;fill-rule:evenodd"
     id="path5501" />
  <path
     inkscape:connector-curvature="0"
     transform="matrix(0.6932,0,0,0.69486,7.765,10.773)"
     d="m 28.417,16.445 a 0.8397,0.8397 0 1 1 -1.6794,0 0.8397,0.8397 0 1 1 1.6794,0 z"
     style="opacity:0.30588002;fill:#ffffff;fill-rule:evenodd;filter:url(#filter9094)"
     id="path5503" />
  <path
     inkscape:connector-curvature="0"
     d="m 22.68,22.583 a 1.2632,1.2632 0 0 1 -2.5263,0 1.2632,1.2632 0 1 1 2.5263,0 z"
     style="fill:#2e3436;fill-rule:evenodd;stroke:url(#linearGradient5855);stroke-width:0.47367999;stroke-miterlimit:10"
     id="path5505" />
  <rect
     x="32.380001"
     y="20.379999"
     width="8.2404003"
     height="2.2404001"
     ry="0.79549998"
     rx="0.93041998"
     style="fill:url(#linearGradient5880);stroke:url(#linearGradient5882);stroke-width:0.75957"
     id="rect5507" />
  <path
     inkscape:connector-curvature="0"
     d="m 16.728,17.871 a 3.7307,1.6168 0 0 1 -7.4614,0 3.7307,1.6168 0 1 1 7.4614,0 z"
     style="fill:#2e3436;fill-rule:evenodd;stroke:url(#radialGradient5861);stroke-width:0.4957;stroke-miterlimit:10;stroke-opacity:0.99607999"
     id="path5511" />
  <path
     inkscape:connector-curvature="0"
     d="m 16,17.25 a 3,1.25 0 0 1 -6,0 3,1.25 0 1 1 6,0 z"
     style="fill:url(#radialGradient5863);fill-rule:evenodd"
     id="path5513" />
  <rect
     x="12.162"
     y="17.959999"
     width="1.4428999"
     height="1.4607"
     ry="0.55650002"
     rx="0.51200998"
     style="fill:#2e3436;stroke:url(#radialGradient5874);stroke-width:0.30217999;stroke-linejoin:round;stroke-miterlimit:0"
     id="rect5515" />
  <rect
     x="2.5004001"
     y="19.5"
     width="38.999001"
     height="22.999001"
     ry="1.3157001"
     rx="1.3157001"
     style="opacity:0.4;fill:none;stroke:url(#linearGradient5870);stroke-width:1.00080001;stroke-linecap:round;stroke-linejoin:round"
     id="rect5519" />
  <path
     inkscape:connector-curvature="0"
     d="m 31.5,34.298 c 0,1.933 -1.567,3.5 -3.5,3.5 -1.933,0 -3.5,-1.567 -3.5,-3.5 0,-1.933 1.567,-3.5 3.5,-3.5 1.933,0 3.5,1.567 3.5,3.5 z"
     style="opacity:0.8;fill:url(#radialGradient5947);fill-rule:evenodd"
     id="path10013" />
  <rect
     x="9"
     y="27"
     width="2"
     height="10"
     ry="1"
     rx="1"
     style="opacity:0.5;fill:#eeeeec"
     id="rect5950" />
  <rect
     x="13"
     y="28"
     width="2"
     height="8"
     ry="1"
     rx="1"
     style="opacity:0.2;fill:#555753"
     id="rect5952" />
</svg>
