<?xml version="1.0" encoding="UTF-8" standalone="no"?>
<!-- Created with Inkscape (http://www.inkscape.org/) -->

<svg
   xmlns:dc="http://purl.org/dc/elements/1.1/"
   xmlns:cc="http://creativecommons.org/ns#"
   xmlns:rdf="http://www.w3.org/1999/02/22-rdf-syntax-ns#"
   xmlns:svg="http://www.w3.org/2000/svg"
   xmlns="http://www.w3.org/2000/svg"
   xmlns:xlink="http://www.w3.org/1999/xlink"
   xmlns:sodipodi="http://sodipodi.sourceforge.net/DTD/sodipodi-0.dtd"
   xmlns:inkscape="http://www.inkscape.org/namespaces/inkscape"
   id="svg4471"
   height="48"
   width="48"
   version="1.1"
   inkscape:version="0.91 r13725"
   sodipodi:docname="gparted.svg">
  <sodipodi:namedview
     pagecolor="#ffffff"
     bordercolor="#666666"
     borderopacity="1"
     objecttolerance="10"
     gridtolerance="10"
     guidetolerance="10"
     inkscape:pageopacity="0"
     inkscape:pageshadow="2"
     inkscape:window-width="1535"
     inkscape:window-height="876"
     id="namedview102"
     showgrid="false"
     inkscape:zoom="4.9166667"
     inkscape:cx="-10.779661"
     inkscape:cy="24"
     inkscape:window-x="65"
     inkscape:window-y="24"
     inkscape:window-maximized="1"
     inkscape:current-layer="svg4471" />
  <defs
     id="defs4473">
    <linearGradient
       id="linearGradient3473"
       y2="43"
       gradientUnits="userSpaceOnUse"
       x2="24"
       gradientTransform="translate(1.17e-5,1)"
       y1="5"
       x1="24">
      <stop
         id="stop3252"
         stop-color="#fff"
         offset="0" />
      <stop
         id="stop3254"
         stop-color="#fff"
         stop-opacity=".23529"
         offset=".063165" />
      <stop
         id="stop3256"
         stop-color="#fff"
         stop-opacity=".15686"
         offset=".95056" />
      <stop
         id="stop3258"
         stop-color="#fff"
         stop-opacity=".39216"
         offset="1" />
    </linearGradient>
    <linearGradient
       id="linearGradient4004-8"
       y2="6"
       gradientUnits="userSpaceOnUse"
       x2="15"
       y1="32"
       x1="15">
      <stop
         id="stop3911-8"
         stop-color="#dfdfdf"
         offset="0" />
      <stop
         id="stop3913-4"
         stop-color="#b9b9b9"
         offset="1" />
    </linearGradient>
    <linearGradient
       id="linearGradient8265-821-176-38-919-66-249-7-7">
      <stop
         id="stop2687-1-9"
         stop-color="#fff"
         offset="0" />
      <stop
         id="stop2689-5-4"
         stop-color="#fff"
         stop-opacity="0"
         offset="1" />
    </linearGradient>
    <radialGradient
       id="radialGradient3155"
       gradientUnits="userSpaceOnUse"
       cy="8.4498"
       cx="19.74"
       gradientTransform="matrix(3.8129e-8,1.536,-1.1262,0,33.516,2.0688)"
       r="20">
      <stop
         id="stop3848"
         stop-color="#b6b6b6"
         offset="0" />
      <stop
         id="stop3852"
         stop-color="#9c9c9c"
         offset=".66094" />
      <stop
         id="stop3854"
         stop-color="#828282"
         offset="1" />
    </radialGradient>
    <linearGradient
       id="linearGradient3157"
       y2="3.899"
       xlink:href="#linearGradient3856"
       gradientUnits="userSpaceOnUse"
       x2="24"
       gradientTransform="translate(-4.3e-5,1)"
       y1="44"
       x1="24" />
    <linearGradient
       id="linearGradient3856">
      <stop
         id="stop3858"
         stop-color="#6e6e6e"
         offset="0" />
      <stop
         id="stop3860"
         stop-color="#828282"
         offset="1" />
    </linearGradient>
    <radialGradient
       id="radialGradient3013-896"
       gradientUnits="userSpaceOnUse"
       cy="43.5"
       cx="4.993"
       gradientTransform="matrix(2.0038 0 0 1.4 27.988 -17.4)"
       r="2.5">
      <stop
         id="stop3216"
         stop-color="#181818"
         offset="0" />
      <stop
         id="stop3218"
         stop-color="#181818"
         stop-opacity="0"
         offset="1" />
    </radialGradient>
    <radialGradient
       id="radialGradient3015-826"
       gradientUnits="userSpaceOnUse"
       cy="43.5"
       cx="4.993"
       gradientTransform="matrix(2.0038 0 0 1.4 -20.012 -104.4)"
       r="2.5">
      <stop
         id="stop3222"
         stop-color="#181818"
         offset="0" />
      <stop
         id="stop3224"
         stop-color="#181818"
         stop-opacity="0"
         offset="1" />
    </radialGradient>
    <linearGradient
       id="linearGradient4469"
       y2="39.999"
       gradientUnits="userSpaceOnUse"
       x2="25.058"
       y1="47.028"
       x1="25.058">
      <stop
         id="stop3228"
         stop-color="#181818"
         stop-opacity="0"
         offset="0" />
      <stop
         id="stop3230"
         stop-color="#181818"
         offset=".5" />
      <stop
         id="stop3232"
         stop-color="#181818"
         stop-opacity="0"
         offset="1" />
    </linearGradient>
    <radialGradient
       id="radialGradient2920-4"
       gradientUnits="userSpaceOnUse"
       cy="191.85"
       cx="142.62"
       gradientTransform="matrix(0.16865,0,0,-0.11921,0.31953,38.144)"
       r="78.728">
      <stop
         id="stop7611-2"
         stop-color="#fff"
         offset="0" />
      <stop
         id="stop7677-6"
         stop-color="#e7e7e7"
         offset=".47026" />
      <stop
         id="stop7613-0"
         stop-color="#8c8c8c"
         offset=".67184" />
      <stop
         id="stop7617-9"
         stop-color="#ddd"
         offset=".83543" />
      <stop
         id="stop7615-2"
         stop-color="#a8a8a8"
         offset="1" />
    </radialGradient>
    <linearGradient
       id="linearGradient4141"
       y2="32.097"
       gradientUnits="userSpaceOnUse"
       y1="20.903"
       gradientTransform="matrix(0.91146,0,0,1.0501,3.1558,-7.7662)"
       x2="23.185"
       x1="19.679">
      <stop
         id="stop4124"
         stop-color="#fff"
         offset="0" />
      <stop
         id="stop4130"
         stop-color="#babdb6"
         offset=".25" />
      <stop
         id="stop4132"
         stop-color="#eeeeec"
         offset=".375" />
      <stop
         id="stop4126"
         stop-color="#babdb6"
         offset=".5" />
      <stop
         id="stop4128"
         stop-color="#eeeeec"
         offset="1" />
    </linearGradient>
    <radialGradient
       id="radialGradient3915"
       cx="7.625"
       xlink:href="#linearGradient8265-821-176-38-919-66-249-7-7"
       gradientUnits="userSpaceOnUse"
       cy="30.578"
       r=".53125"
       gradientTransform="matrix(5.9962,1.1884e-5,5.2105e-6,-4.9409,-33.42,175.24)" />
    <radialGradient
       id="radialGradient4068"
       cx="22.519"
       xlink:href="#linearGradient8265-821-176-38-919-66-249-7-7"
       gradientUnits="userSpaceOnUse"
       cy="27.786"
       r="10.337"
       gradientTransform="matrix(-1.2771,0,0,0.83374,53.791,-6.0168)" />
    <radialGradient
       id="radialGradient4060"
       cx="21.366"
       gradientUnits="userSpaceOnUse"
       cy="28.457"
       r="4.6209"
       gradientTransform="matrix(-1.166,-1.7289,-1.4781,1.301,93.446,19.105)">
      <stop
         id="stop4056"
         stop-color="#ef2929"
         offset="0" />
      <stop
         id="stop4058"
         stop-color="#c00"
         offset="1" />
    </radialGradient>
    <radialGradient
       id="radialGradient4044"
       cx="23.571"
       gradientUnits="userSpaceOnUse"
       cy="22.566"
       r="11.155"
       gradientTransform="matrix(-1.0101,0,0,0.65943,49.408,1.0074)">
      <stop
         id="stop4040"
         stop-color="#8ae234"
         offset="0" />
      <stop
         id="stop4042"
         stop-color="#73d216"
         offset="1" />
    </radialGradient>
    <radialGradient
       id="radialGradient4052"
       cx="25.526"
       gradientUnits="userSpaceOnUse"
       cy="26.024"
       r="6.535"
       gradientTransform="matrix(-0.52872,-0.9833,-1.0357,0.7268,62.418,23.334)">
      <stop
         id="stop4048"
         stop-color="#fcaf3e"
         offset="0" />
      <stop
         id="stop4050"
         stop-color="#f57900"
         offset="1" />
    </radialGradient>
    <radialGradient
       id="radialGradient4006"
       gradientUnits="userSpaceOnUse"
       cx="7.5191"
       cy="30.304"
       r=".53125"
       gradientTransform="matrix(-9.8679,0,0,-5.6366,99.905,189.38)">
      <stop
         id="stop4072"
         stop-color="#fff"
         offset="0" />
      <stop
         id="stop4074"
         stop-color="#fff"
         offset=".5" />
      <stop
         id="stop4076"
         stop-color="#888a85"
         offset="1" />
    </radialGradient>
    <radialGradient
       id="radialGradient4014"
       cx="7.625"
       gradientUnits="userSpaceOnUse"
       cy="30.578"
       r=".53125"
       gradientTransform="matrix(-5.3254,-1.1237e-6,-4.9182e-7,3.0419,65.637,-75.328)">
      <stop
         id="stop4080"
         stop-color="#d3d7cf"
         offset="0" />
      <stop
         id="stop4082"
         stop-color="#babdb6"
         offset=".5" />
      <stop
         id="stop4084"
         stop-color="#eeeeec"
         stop-opacity="0"
         offset="1" />
    </radialGradient>
    <radialGradient
       id="radialGradient4024"
       cx="21.885"
       xlink:href="#linearGradient8265-821-176-38-919-66-249-7-7"
       gradientUnits="userSpaceOnUse"
       cy="21.092"
       r="10.683"
       gradientTransform="matrix(-0.78221,-1.38,-1.6476,1.0678,79.965,26.063)" />
    <radialGradient
       id="radialGradient4088"
       gradientUnits="userSpaceOnUse"
       xlink:href="#linearGradient8265-821-176-38-919-66-249-7-7"
       cx="24.691"
       cy="23.189"
       r="10.683"
       gradientTransform="matrix(-0.2816,-0.53076,-0.59312,0.4107,44.808,20.578)" />
    <linearGradient
       id="linearGradient4636-6"
       y2="39.961"
       gradientUnits="userSpaceOnUse"
       x2="24.498"
       y1="35.917"
       x1="24.4">
      <stop
         id="stop4640"
         stop-color="#fff"
         offset="0" />
      <stop
         id="stop4642"
         stop-color="#fff"
         stop-opacity=".23529"
         offset=".43366" />
      <stop
         id="stop4644"
         stop-color="#fff"
         stop-opacity=".15686"
         offset=".58714" />
      <stop
         id="stop4646"
         stop-color="#fff"
         stop-opacity=".39216"
         offset="1" />
    </linearGradient>
    <linearGradient
       id="linearGradient4348"
       y2="3.899"
       xlink:href="#linearGradient3856"
       gradientUnits="userSpaceOnUse"
       y1="44"
       gradientTransform="translate(-3.89e-6,-11)"
       x2="24"
       x1="24" />
  </defs>
  <metadata
     id="metadata4476">
    <rdf:RDF>
      <cc:Work
         rdf:about="">
        <dc:format>image/svg+xml</dc:format>
        <dc:type
           rdf:resource="http://purl.org/dc/dcmitype/StillImage" />
        <dc:title />
      </cc:Work>
    </rdf:RDF>
  </metadata>
  <g
     id="g4230"
     transform="translate(0,-1)">
    <rect
       x="4.5"
       y="5.5"
       width="39"
       ry="2"
       rx="2"
       style="color:#000000;fill:url(#radialGradient3155);stroke:url(#linearGradient3157);stroke-linecap:round;stroke-linejoin:round"
       height="39"
       id="rect5505-21" />
    <path
       d="M 7.9589,8.5202 C 7.2096,8.7164 7.6307,9.6988 7.5203,10.277 l 0,18.714 c 0.19637,0.74861 1.1797,0.32796 1.7581,0.43821 1.6478,0.02446 4.4953,0.0362 4.4953,0.0362 l 20.656,-0.0362 c 0,0 4.3455,0.04382 5.7872,-0.03292 0.49404,-0.43062 0.16993,-1.2171 0.26335,-1.8114 l 0,-18.626 c -0.197,-0.7491 -1.18,-0.3285 -1.758,-0.4387 z"
       style="color:#000000;opacity:0.3;fill:none;stroke:#6e6e6e"
       id="path7715"
       inkscape:connector-curvature="0" />
    <path
       d="M 6.5,6 C 5.669,6 5,6.669 5,7.5 l 0,23 C 5,31.331 5.669,32 6.5,32 l 4,0 2.1875,0 22.312,0 1.5,-2 -25,0 -4,0 c -0.277,0 -0.5,-0.223 -0.5,-0.5 l 0,-21 c 0,-0.277 0.223,-0.5 0.5,-0.5 l 33,0 c 0.277,0 0.5,0.223 0.5,0.5 l 0,21 c 0,0.277 -0.223,0.5 -0.5,0.5 l -4,0 -1.5,2 2.5,0 4,0 c 0.831,0 1.5,-0.669 1.5,-1.5 l 0,-23 c 0,-0.831 -0.669,-1.5 -1.5,-1.5 z"
       style="color:#000000;fill:url(#linearGradient4004-8)"
       id="rect3856"
       inkscape:connector-curvature="0" />
    <rect
       x="5.5"
       y="6.5"
       width="37"
       height="37"
       ry="1"
       rx="1"
       id="rect6741-1"
       style="opacity:0.8;fill:none;stroke:url(#linearGradient3473);stroke-linecap:round;stroke-linejoin:round" />
    <path
       d="m 25.041,22.599 c -3.0684,0 -5.4209,-1.1553 -5.4702,-2.6881 -9.12e-4,-0.01641 -9.12e-4,-0.03283 -9.12e-4,-0.04924 0,-0.5544 0.3082,-1.0814 0.89452,-1.5283 0.99026,-0.75501 2.7018,-1.2055 4.5766,-1.2055 1.8748,0 3.5857,0.45057 4.5767,1.2055 0.60313,0.45913 0.91221,1.0049 0.89336,1.5774 -0.05037,1.5325 -2.4025,2.6882 -5.4704,2.6882 l 0,3e-6 z m 0,-4.6137 c -2.8831,0 -4.3519,1.1451 -4.3172,2.1905 0.03344,1.0291 1.9662,1.8514 4.3172,1.8514 2.351,0 4.2839,-0.82257 4.3172,-1.8514 0.03419,-1.0457 -1.4342,-2.1905 -4.3172,-2.1905 z"
       id="path9003-0"
       style="fill:url(#radialGradient2920-4)"
       inkscape:connector-curvature="0" />
    <path
       d="m 15.837,12.84 -3.6542,2.9627 -2.2397,9.4604 c 1.1747,0.723 2.3467,1.714 2.2097,3.737 l 13.35,-0.53867 c 6.3214,0 11.684,-3.1494 13.497,-7.5077 l -1.2377,-5.151 -4.892,-2.9627 -17.034,0 z"
       style="color:#000000;fill:#6e6e6e"
       id="path3008"
       inkscape:connector-curvature="0" />
    <path
       d="m 25.031,9.0354 c -7.0438,0 -12.761,3.7636 -12.761,8.4008 l 0,9.254 c 0.27787,0.48772 0.45208,1.0603 0.39876,1.8049 l 12.817,-0.03282 c 5.3363,0 10.022,-2.3509 12.305,-5.7756 l 0,-5.2505 c 0,-4.6372 -5.7167,-8.4008 -12.761,-8.4008 z"
       style="color:#000000;fill:url(#linearGradient4141);stroke:#6e6e6e;stroke-width:0.94471997"
       id="path4134"
       inkscape:connector-curvature="0" />
    <path
       d="m 11.829,18.227 0,8.4167 c 0.28749,0.50036 0.46774,1.0878 0.41258,1.8517 l 13.261,-0.03366 c 5.5212,0 10.369,-2.4119 12.731,-5.9254 l 0,-4.3094 c 0,4.7575 -5.9147,8.6187 -13.202,8.6187 -7.2877,0 -13.202,-3.8612 -13.202,-8.6187 z"
       style="color:#000000;fill:#6e6e6e"
       id="path3982"
       inkscape:connector-curvature="0" />
    <path
       d="m 11.829,19.304 0,7.3394 c 0.28749,0.50036 0.46774,1.0878 0.41258,1.8517 l 13.261,-0.03366 c 5.5212,0 10.369,-2.4119 12.731,-5.9254 l 0,-3.232 c 0,4.7575 -5.9147,8.6187 -13.202,8.6187 -7.2877,0 -13.202,-3.8612 -13.202,-8.6187 z"
       style="color:#000000;fill:#828282"
       id="path3979"
       inkscape:connector-curvature="0" />
    <path
       d="m 10.886,24.691 4.7152,0 0,4.3094 -4.7152,0 0,-4.3094 z"
       style="color:#000000;fill:#babdb6"
       id="rect3869"
       inkscape:connector-curvature="0" />
    <path
       d="m 15.601,25.768 c 0,1.1894 -1.4787,2.1547 -3.3006,2.1547 -1.8219,0 -3.3006,-0.9653 -3.3006,-2.1547 0,-1.1894 1.4787,-2.1547 3.3006,-2.1547 1.8219,0 3.3006,0.96529 3.3006,2.1547 z"
       style="color:#000000;fill:#6e6e6e"
       id="path3814"
       inkscape:connector-curvature="0" />
    <path
       d="m 15.601,24.691 c 0,-1.1894 -1.4787,-2.1547 -3.3006,-2.1547 -1.8219,0 -3.3006,0.9653 -3.3006,2.1547 0,1.1894 1.4787,2.1547 3.3006,2.1547 1.8219,0 3.3006,-0.96529 3.3006,-2.1547 z"
       style="color:#000000;fill:#d3d7cf"
       id="path3903"
       inkscape:connector-curvature="0" />
    <path
       d="m 14.658,24.152 c 0,-0.89203 -1.0562,-1.616 -2.3576,-1.616 -1.3014,0 -2.3576,0.72397 -2.3576,1.616 0,0.89204 1.0562,1.616 2.3576,1.616 1.3014,0 2.3576,-0.72397 2.3576,-1.616 z"
       style="color:#000000;fill:url(#radialGradient3915)"
       id="path3907"
       inkscape:connector-curvature="0" />
    <path
       d="m 11.829,17.149 c 0,4.7575 5.9147,8.6187 13.202,8.6187 7.2878,0 13.202,-3.8612 13.202,-8.6187 0,-4.7575 -5.9147,-8.6187 -13.202,-8.6187 -7.2878,0 -13.202,3.8612 -13.202,8.6187 z"
       style="color:#000000;fill:url(#radialGradient4068)"
       id="path3812"
       inkscape:connector-curvature="0" />
    <path
       d="m 25.031,25.768 c 3.6439,0 6.7589,-0.84232 9.3355,-2.5244 L 25.031,17.1493 Z"
       style="color:#000000;opacity:0.88259002;fill:url(#radialGradient4060)"
       id="path3957"
       inkscape:connector-curvature="0" />
    <path
       d="m 34.367,23.244 c 5.1532,-3.3641 5.1532,-8.8246 0,-12.189 -5.1532,-3.3641 -13.518,-3.3641 -18.671,0 l 9.3355,6.0943 z"
       style="color:#000000;opacity:0.76517998;fill:url(#radialGradient4044)"
       id="path3959"
       inkscape:connector-curvature="0" />
    <path
       d="m 15.696,11.055 c -2.5766,1.682 -3.8669,3.7156 -3.8669,6.0943 l 13.202,0 z"
       style="color:#000000;opacity:0.90688004;fill:url(#radialGradient4052)"
       id="path3961"
       inkscape:connector-curvature="0" />
    <path
       d="m 21.259,17.149 c 0,-1.1894 1.6899,-2.1547 3.7721,-2.1547 2.0822,0 3.7721,0.9653 3.7721,2.1547 0,1.1894 -1.6899,2.1547 -3.7721,2.1547 -2.0822,0 -3.7721,-0.96529 -3.7721,-2.1547 z"
       style="color:#000000;fill:url(#radialGradient4006)"
       id="path4004"
       inkscape:connector-curvature="0" />
    <path
       d="m 22.202,17.688 c 0,0.89204 1.2674,1.616 2.8291,1.616 1.5617,0 2.8291,-0.72397 2.8291,-1.616 0,-0.89204 -1.2674,-1.616 -2.8291,-1.616 -1.5617,0 -2.8291,0.72397 -2.8291,1.616 z"
       style="color:#000000;fill:url(#radialGradient4014)"
       id="path3992"
       inkscape:connector-curvature="0" />
    <path
       d="m 13.243,17.149 c 0,3.8655 5.281,7.0027 11.788,7.0027 6.5069,0 11.788,-3.1372 11.788,-7.0027 0,-3.8655 -5.281,-7.0027 -11.788,-7.0027 -6.5069,0 -11.788,3.1372 -11.788,7.0027 z"
       style="color:#000000;opacity:0.66802003;fill:none;stroke:url(#radialGradient4024);stroke-width:1.00800002"
       id="path4016"
       inkscape:connector-curvature="0" />
    <path
       d="m 12.301,17.149 c 0,4.4602 5.7034,8.08 12.731,8.08 7.0275,0 12.731,-3.6198 12.731,-8.08 0,-4.4602 -5.7034,-8.08 -12.731,-8.08 -7.0275,0 -12.731,3.6198 -12.731,8.08 z"
       style="color:#000000;opacity:0.26316002;fill:none;stroke:#000000;stroke-width:1.0079"
       id="path4026"
       inkscape:connector-curvature="0" />
    <path
       d="m 20.788,17.149 c 0,1.4867 1.9011,2.6933 4.2436,2.6933 2.3425,0 4.2436,-1.2066 4.2436,-2.6933 0,-1.4867 -1.9012,-2.6933 -4.2436,-2.6933 -2.3425,0 -4.2436,1.2066 -4.2436,2.6933 z"
       style="color:#000000;fill:none;stroke:url(#radialGradient4088);stroke-width:1.0079"
       id="path4086"
       inkscape:connector-curvature="0" />
    <path
       d="m 19.845,16.611 c 0,1.7841 2.3236,3.232 5.1867,3.232 2.863,0 5.1867,-1.4479 5.1867,-3.232 0,-1.7841 -2.3236,-3.232 -5.1867,-3.232 -2.863,0 -5.1867,1.4479 -5.1867,3.232 z"
       style="color:#000000;opacity:0.20242998;fill:none;stroke:#000000;stroke-width:1.0079"
       id="path4090"
       inkscape:connector-curvature="0" />
    <path
       d="m 9.9551,36 c -0.52886,0 -0.95508,0.4142 -0.95508,0.92773 l 0,2.1445 c 0,0.514 0.4262,0.928 0.9551,0.928 l 28.09,0 c 0.529,0 0.955,-0.414 0.955,-0.928 l 0,-2.1445 c 0,-0.514 -0.426,-0.928 -0.955,-0.928 l -28.09,0 z m 0.4668,0.5 27.156,0 c 0.511,0 0.922,0.31 0.922,0.695 l 0,1.6094 c 0,0.386 -0.411,0.696 -0.922,0.696 l -27.156,0 c -0.51123,0 -0.92188,-0.31016 -0.92188,-0.69531 l 0,-1.6094 c 0,-0.38515 0.41064,-0.69531 0.92188,-0.69531 z"
       id="rect4624-3"
       style="opacity:0.6;fill:url(#linearGradient4636-6)"
       inkscape:connector-curvature="0" />
    <path
       d="m 6.5,5.5 35,0 c 1.108,0 2,0.892 2,2 l 0,23 c 0,1.108 -0.892,2 -2,2 l -35,0 c -1.108,0 -2,-0.892 -2,-2 l 0,-23 c 0,-1.108 0.892,-2 2,-2 z"
       style="color:#000000;fill:none;stroke:url(#linearGradient4348);stroke-linecap:round;stroke-linejoin:round"
       id="rect4346"
       inkscape:connector-curvature="0" />
  </g>
</svg>
