<?xml version="1.0" encoding="UTF-8" standalone="no"?>
<!-- Created with Inkscape (http://www.inkscape.org/) -->

<svg
   xmlns:dc="http://purl.org/dc/elements/1.1/"
   xmlns:cc="http://creativecommons.org/ns#"
   xmlns:rdf="http://www.w3.org/1999/02/22-rdf-syntax-ns#"
   xmlns:svg="http://www.w3.org/2000/svg"
   xmlns="http://www.w3.org/2000/svg"
   xmlns:xlink="http://www.w3.org/1999/xlink"
   xmlns:sodipodi="http://sodipodi.sourceforge.net/DTD/sodipodi-0.dtd"
   xmlns:inkscape="http://www.inkscape.org/namespaces/inkscape"
   id="svg4296"
   height="48"
   width="48"
   version="1.1"
   inkscape:version="0.91 r13725"
   sodipodi:docname="guake-prefs.svg">
  <sodipodi:namedview
     pagecolor="#ffffff"
     bordercolor="#666666"
     borderopacity="1"
     objecttolerance="10"
     gridtolerance="10"
     guidetolerance="10"
     inkscape:pageopacity="0"
     inkscape:pageshadow="2"
     inkscape:window-width="1535"
     inkscape:window-height="876"
     id="namedview38"
     showgrid="false"
     inkscape:zoom="4.9166667"
     inkscape:cx="-44.542373"
     inkscape:cy="24"
     inkscape:window-x="65"
     inkscape:window-y="24"
     inkscape:window-maximized="1"
     inkscape:current-layer="svg4296" />
  <defs
     id="defs4298">
    <linearGradient
       id="linearGradient3024"
       y2="43"
       gradientUnits="userSpaceOnUse"
       x2="24"
       gradientTransform="translate(4e-6,1)"
       y1="5"
       x1="24">
      <stop
         id="stop3897"
         stop-color="#fff"
         offset="0" />
      <stop
         id="stop3899"
         stop-color="#fff"
         stop-opacity=".23529"
         offset=".052632" />
      <stop
         id="stop3901"
         stop-color="#fff"
         stop-opacity=".15686"
         offset=".95056" />
      <stop
         id="stop3903"
         stop-color="#fff"
         stop-opacity=".39216"
         offset="1" />
    </linearGradient>
    <radialGradient
       id="radialGradient3038"
       gradientUnits="userSpaceOnUse"
       cy="43.5"
       cx="4.993"
       gradientTransform="matrix(2.0038 0 0 1.4 27.988 -17.4)"
       r="2.5">
      <stop
         id="stop2883"
         stop-color="#181818"
         offset="0" />
      <stop
         id="stop2885"
         stop-color="#181818"
         stop-opacity="0"
         offset="1" />
    </radialGradient>
    <radialGradient
       id="radialGradient3040"
       gradientUnits="userSpaceOnUse"
       cy="43.5"
       cx="4.993"
       gradientTransform="matrix(2.0038 0 0 1.4 -20.012 -104.4)"
       r="2.5">
      <stop
         id="stop2889"
         stop-color="#181818"
         offset="0" />
      <stop
         id="stop2891"
         stop-color="#181818"
         stop-opacity="0"
         offset="1" />
    </radialGradient>
    <linearGradient
       id="linearGradient3042"
       y2="39.999"
       gradientUnits="userSpaceOnUse"
       x2="25.058"
       y1="47.028"
       x1="25.058">
      <stop
         id="stop2895"
         stop-color="#181818"
         stop-opacity="0"
         offset="0" />
      <stop
         id="stop2897"
         stop-color="#181818"
         offset=".5" />
      <stop
         id="stop2899"
         stop-color="#181818"
         stop-opacity="0"
         offset="1" />
    </linearGradient>
    <radialGradient
       id="radialGradient3054-6"
       gradientUnits="userSpaceOnUse"
       cy="9.9571"
       cx="7.1184"
       gradientTransform="matrix(0,9.1402,-11.221,0,136.56,-77.888)"
       r="12.672">
      <stop
         id="stop4196"
         stop-color="#177d1b"
         offset="0" />
      <stop
         id="stop4198"
         stop-color="#0e480e"
         offset=".26238" />
      <stop
         id="stop4200"
         stop-color="#002500"
         offset=".70495" />
      <stop
         id="stop4202"
         stop-color="#101b11"
         offset="1" />
    </radialGradient>
    <linearGradient
       id="linearGradient3018-5"
       y2="13"
       gradientUnits="userSpaceOnUse"
       x2="20"
       gradientTransform="translate(0,0.99999)"
       y1="26"
       x1="20">
      <stop
         id="stop3682-4-6-1-3-7"
         stop-color="#dcdcdc"
         offset="0" />
      <stop
         id="stop3684-8-5-8-0-2"
         stop-color="#fff"
         offset="1" />
    </linearGradient>
    <linearGradient
       id="linearGradient3021"
       y2="47.012001"
       gradientUnits="userSpaceOnUse"
       x2="32.035999"
       gradientTransform="matrix(0.77778,0,0,0.77778,11.889,10.333)"
       y1="19"
       x1="32.035999">
      <stop
         id="stop3311"
         stop-color="#f6f6f6"
         offset="0" />
      <stop
         id="stop3313"
         stop-color="#d2d2d2"
         offset="1" />
    </linearGradient>
    <linearGradient
       id="linearGradient3017"
       y2="20.895"
       gradientUnits="userSpaceOnUse"
       x2="84.639"
       gradientTransform="matrix(0.15623,0,0,0.15623,26.0012,26.1574)"
       y1="105.1"
       x1="86.133003">
      <stop
         id="stop5130-3"
         stop-color="#fff"
         offset="0" />
      <stop
         id="stop5132-4"
         stop-color="#959595"
         offset="1" />
    </linearGradient>
    <linearGradient
       id="linearGradient3014"
       y2="22.007"
       xlink:href="#linearGradient3983"
       gradientUnits="userSpaceOnUse"
       x2="12.479"
       y1="2"
       x1="12.479"
       gradientTransform="translate(24,24)" />
    <linearGradient
       id="linearGradient3983">
      <stop
         id="stop3985"
         stop-color="#fff"
         offset="0" />
      <stop
         id="stop3987"
         stop-color="#fff"
         stop-opacity="0"
         offset="1" />
    </linearGradient>
    <linearGradient
       id="linearGradient3011"
       y2="8"
       xlink:href="#linearGradient3983"
       gradientUnits="userSpaceOnUse"
       x2="12"
       gradientTransform="matrix(1.0116,0,0,1.0116,23.86076,23.86076)"
       y1="16"
       x1="12" />
  </defs>
  <metadata
     id="metadata4301">
    <rdf:RDF>
      <cc:Work
         rdf:about="">
        <dc:format>image/svg+xml</dc:format>
        <dc:type
           rdf:resource="http://purl.org/dc/dcmitype/StillImage" />
        <dc:title></dc:title>
      </cc:Work>
    </rdf:RDF>
  </metadata>
  <g
     id="g4166"
     transform="translate(0,-1)">
    <rect
       x="4.5"
       y="5.5"
       width="39"
       height="39"
       ry="2"
       rx="2"
       style="color:#000000;opacity:0.9;fill:url(#radialGradient3054-6)"
       id="rect5505-21" />
    <rect
       x="4.5"
       y="5.5"
       width="39"
       height="39"
       ry="2"
       rx="2"
       style="color:#000000;opacity:0.7;fill:none;stroke:#000000;stroke-linecap:round;stroke-linejoin:round"
       id="rect5505-21-3-2" />
    <rect
       x="5.5"
       y="6.5"
       width="37"
       height="37"
       ry="1"
       rx="1"
       id="rect6741"
       style="opacity:0.3;fill:none;stroke:url(#linearGradient3024);stroke-linecap:round;stroke-linejoin:round" />
    <path
       d="M 13,12.969 A 1.0164,1.0164 0 0 0 11.969,14 l 0,0.21875 c -0.63366,0.14692 -1.2754,0.35137 -1.8438,0.8125 -0.0123,0.0095 -0.01915,0.0216 -0.03125,0.03125 -1.3786,1.098 -1.4714,3.093 -0.469,4.406 a 1.0164,1.0164 0 0 0 0.0312,0.031 c 0.67472,0.81864 1.5228,1.1871 2.3125,1.5 l 0,0.15625 c -0.517,-0.12 -1.065,-0.182 -1.563,-0.406 a 1.0164,1.0164 0 0 0 -1.4375,0.9375 l 0,1.7812 a 1.0164,1.0164 0 0 0 0.625,0.9375 c 0.77266,0.32786 1.5772,0.3776 2.375,0.46875 l 0,0.5625 a 1.0164,1.0164 0 0 0 1.032,1.031 l 1,0 a 1.0164,1.0164 0 0 0 1.0312,-1.0312 l 0,-0.625 c 0.43385,-0.08365 0.84085,-0.11358 1.2812,-0.34375 0.01365,-0.0067 0.01771,-0.02438 0.03125,-0.03125 1.1051,-0.5609 1.8515,-1.6649 1.8125,-2.9375 -3.27e-4,-0.01065 4.37e-4,-0.02058 0,-0.03125 -0.004,-0.62223 -0.20676,-1.2225 -0.5625,-1.7188 a 1.0164,1.0164 0 0 0 0,-0.03125 c -0.73152,-0.97614 -1.707,-1.3638 -2.5625,-1.6875 l 0,-0.09375 c 0.30422,0.07427 0.62852,0.10863 0.90625,0.21875 a 1.0164,1.0164 0 0 0 1.314,-0.563 l 0.656,-1.594 a 1.0164,1.0164 0 0 0 -0.531,-1.312 c -0.75029,-0.32143 -1.5587,-0.36495 -2.3438,-0.46875 l 0,-0.21875 a 1.0164,1.0164 0 0 0 -1.031,-1.031 l -1,0 z m 7,12 A 1.0164,1.0164 0 0 0 18.969,26 l 0,2 A 1.0164,1.0164 0 0 0 20,29.031 l 8,0 A 1.0164,1.0164 0 0 0 29.031,28 l 0,-2 A 1.0164,1.0164 0 0 0 28,24.969 l -8,0 z"
       id="path3987"
       inkscape:connector-curvature="0"
       style="opacity:0.15" />
    <path
       d="m 13,14 0,1.0312 c -0.8207,0.07841 -1.6125,0.28323 -2.25,0.8125 -0.91491,0.70711 -0.98471,2.1198 -0.3125,3 0.64997,0.78862 1.6192,1.1437 2.5625,1.5 l 0,2.125 c -1.0518,-0.08592 -2.0443,-0.35002 -3,-0.78125 l 0,1.7812 c 0.95663,0.40593 1.9601,0.57341 3,0.59375 l 0,1.375 1,0 0,-1.4062 c 0.63656,-0.05721 1.3114,-0.16816 1.875,-0.46875 0.783,-0.38442 1.3161,-1.2116 1.2812,-2.0625 0.0032,-0.41142 -0.13063,-0.81538 -0.375,-1.1562 -0.653,-0.874 -1.795,-1.229 -2.781,-1.626 l 0,-2.0312 c 0.78197,0.0636 1.587,0.24361 2.3125,0.53125 l 0.657,-1.594 c -0.927,-0.397 -1.959,-0.583 -2.969,-0.625 l 0,-1 -1,0 z m 0,2.7188 0,1.625 c -0.398,-0.175 -0.862,-0.406 -0.844,-0.906 -0.018,-0.473 0.441,-0.674 0.844,-0.719 z m 1,4 c 0.39487,0.1927 0.9911,0.37283 1,0.875 0.02269,0.51242 -0.55298,0.75293 -1,0.8125 l 0,-1.6875 z m 6,5.281 0,2 8,0 0,-2 -8,0 z"
       id="path3651-2-3-5-5"
       inkscape:connector-curvature="0"
       style="opacity:0.3" />
    <path
       d="m 13,13 0,1.0312 c -0.8207,0.07841 -1.6125,0.28323 -2.25,0.8125 -0.91491,0.70711 -0.98471,2.1198 -0.3125,3 0.64997,0.78862 1.6192,1.1437 2.5625,1.5 l 0,2.125 c -1.0518,-0.08592 -2.0443,-0.35002 -3,-0.78125 l 0,1.7812 c 0.95663,0.40593 1.9601,0.57341 3,0.59375 l 0,1.375 1,0 0,-1.4062 c 0.63656,-0.05721 1.3114,-0.16816 1.875,-0.46875 0.783,-0.38442 1.3161,-1.2116 1.2812,-2.0625 0.0032,-0.41142 -0.13063,-0.81538 -0.375,-1.1562 -0.653,-0.874 -1.795,-1.229 -2.781,-1.626 l 0,-2.0312 c 0.78197,0.0636 1.587,0.24361 2.3125,0.53125 l 0.657,-1.594 c -0.927,-0.397 -1.959,-0.583 -2.969,-0.625 l 0,-1 -1,0 z m 0,2.7188 0,1.625 c -0.398,-0.175 -0.862,-0.406 -0.844,-0.906 -0.018,-0.473 0.441,-0.674 0.844,-0.719 z m 1,4 c 0.39487,0.1927 0.9911,0.37283 1,0.875 0.02269,0.51242 -0.55298,0.75293 -1,0.8125 l 0,-1.6875 z m 6,5.281 0,2 8,0 0,-2 -8,0 z"
       style="color:#000000;fill:url(#linearGradient3018-5)"
       id="text3905-9"
       inkscape:connector-curvature="0" />
  </g>
  <g
     transform="translate(0,7e-4)"
     id="g4194">
    <path
       id="rect3623"
       style="color:#000000;display:block;fill:url(#linearGradient3021)"
       d="m 34.5,25.5 c -0.554,0 -1,0.446 -1,1 l 0,1.375 c -0.5073,0.1558 -1.0068,0.3505 -1.4688,0.5938 L 31.0625,27.5 c -0.3917,-0.3917 -1.0458,-0.3917 -1.4375,0 L 27.5,29.625 c -0.3917,0.3917 -0.3917,1.0458 0,1.4375 l 0.9688,0.9687 c -0.2433,0.462 -0.438,0.9615 -0.5938,1.4688 l -1.375,0 c -0.554,0 -1,0.446 -1,1 l 0,3 c 0,0.554 0.446,1 1,1 l 1.375,0 c 0.15578,0.50733 0.35047,1.0068 0.59375,1.4688 l -0.9688,0.969 c -0.39174,0.39174 -0.39174,1.0458 0,1.4375 l 2.125,2.124 c 0.39174,0.39174 1.0458,0.39174 1.4375,0 l 0.9687,-0.969 c 0.462,0.244 0.9615,0.438 1.4688,0.594 l 0,1.375 c 0,0.554 0.446,1 1,1 l 3,0 c 0.554,0 1,-0.446 1,-1 l 0,-1.375 c 0.50733,-0.15578 1.0068,-0.35047 1.4688,-0.59375 l 0.969,0.969 c 0.39174,0.39174 1.0458,0.39174 1.4375,0 l 2.124,-2.125 c 0.39174,-0.39174 0.39174,-1.0458 0,-1.4375 l -0.969,-0.969 c 0.244,-0.462 0.438,-0.962 0.594,-1.469 l 1.375,0 c 0.554,0 1,-0.446 1,-1 l 0,-3 c 0,-0.554 -0.446,-1 -1,-1 l -1.375,0 c -0.156,-0.5073 -0.35,-1.0068 -0.594,-1.4688 l 0.969,-0.9687 c 0.39174,-0.39174 0.39174,-1.0458 0,-1.4375 l -2.125,-2.125 c -0.392,-0.3917 -1.046,-0.3917 -1.437,0 l -0.969,0.9688 c -0.462,-0.2433 -0.962,-0.438 -1.469,-0.5938 l 0,-1.375 c 0,-0.554 -0.446,-1 -1,-1 l -3,0 z m 1.5,8 c 1.3807,0 2.5,1.1193 2.5,2.5 0,1.3807 -1.1193,2.5 -2.5,2.5 -1.3807,0 -2.5,-1.1193 -2.5,-2.5 0,-1.3807 1.1193,-2.5 2.5,-2.5 z"
       display="block"
       inkscape:connector-curvature="0" />
    <path
       id="path3315"
       d="m 36,30 c -3.3103,0 -6,2.6897 -6,6 0,3.3103 2.6897,6 6,6 3.3103,0 6,-2.6897 6,-6 0,-3.3103 -2.6897,-6 -6,-6 z m 0,3 c 1.6569,0 3,1.3431 3,3 0,1.6569 -1.3431,3 -3,3 -1.6569,0 -3,-1.3431 -3,-3 0,-1.6569 1.3431,-3 3,-3 z"
       inkscape:connector-curvature="0"
       style="opacity:0.05" />
    <path
       id="path28"
       d="m 36,29.5 c -3.5841,0 -6.5,2.9159 -6.5,6.5 0,3.584 2.9159,6.5 6.5,6.5 3.5841,0 6.5,-2.9159 6.5,-6.5 0,-3.5841 -2.9159,-6.5 -6.5,-6.5 z"
       style="fill:none;stroke:url(#linearGradient3017)"
       inkscape:connector-curvature="0" />
    <path
       id="path3799"
       style="color:#000000;display:block;opacity:0.8;fill:none;stroke:url(#linearGradient3014);stroke-linejoin:round"
       d="m 34.5,26.4688 c -0.074,0.3887 -0.01,0.9011 -0.031,1.3364 0.064,0.7781 -0.7705,1.0528 -1.3685,1.2166 -0.5471,0.3112 -1.349,0.6719 -1.837,0.0542 L 30.375,28.1875 c -0.4317,0.2867 -0.7848,0.7633 -1.186,1.1235 -0.3195,0.3606 -0.7556,0.6729 -1.0015,1.064 0.407,0.4901 1.0485,0.8376 1.2258,1.477 -0.0247,0.7984 -0.5402,1.5292 -0.8124,2.267 -0.5018,0.564 -1.315,0.281 -1.9743,0.35 -0.3446,-0.013 -0.0704,0.586 -0.1578,0.825 0.0012,0.74498 -0.0024,1.4901 0.0018,2.235 0.64556,0.06419 1.357,-0.15058 1.9455,0.17967 0.55561,0.57921 0.67564,1.4741 1.0068,2.1888 0.04177,0.75274 -0.73231,1.1264 -1.1493,1.6411 -0.21739,0.27241 0.38528,0.50415 0.51592,0.75037 l 1.5231,1.5231 c 0.52246,-0.30487 0.83973,-0.98896 1.4454,-1.2049 0.81514,-0.10665 1.5137,0.54645 2.2838,0.73398 0.65069,0.45208 0.36353,1.3104 0.42699,1.9752 -0.08851,0.41848 0.52786,0.12987 0.76896,0.21456 0.7639,-0.0012 1.5279,0.0024 2.2917,-0.0018 0.06419,-0.64556 -0.15058,-1.357 0.17967,-1.9455 0.57921,-0.55561 1.4741,-0.67564 2.1888,-1.0068 0.75274,-0.04177 1.1264,0.73231 1.6411,1.1493 0.27241,0.21739 0.50415,-0.38528 0.75037,-0.51592 l 1.5231,-1.5231 c -0.30487,-0.52246 -0.98896,-0.83973 -1.2049,-1.4454 -0.10665,-0.81514 0.54645,-1.5137 0.73398,-2.2838 0.45208,-0.65069 1.3104,-0.36353 1.9752,-0.42699 0.41848,0.08851 0.12987,-0.52786 0.21456,-0.76896 -0.0012,-0.7639 0.0024,-1.5279 -0.0018,-2.2917 -0.64556,-0.06419 -1.357,0.15058 -1.9455,-0.17967 -0.557,-0.5783 -0.677,-1.4732 -1.008,-2.1879 -0.042,-0.7527 0.733,-1.1264 1.15,-1.6411 0.217,-0.2724 -0.386,-0.5042 -0.516,-0.7504 -0.508,-0.5077 -1.016,-1.0154 -1.523,-1.5231 -0.523,0.3049 -0.84,0.989 -1.446,1.2049 -0.815,0.1067 -1.514,-0.5464 -2.284,-0.7339 -0.65,-0.4521 -0.363,-1.3105 -0.427,-1.9752 0.089,-0.4185 -0.528,-0.1299 -0.769,-0.2145 l -2.2623,0 z"
       display="block"
       inkscape:connector-curvature="0" />
    <path
       id="path3822"
       style="color:#000000;display:block;opacity:0.4;fill:none;stroke:url(#linearGradient3011)"
       d="m 39.5,36 a 3.5,3.5 0 0 1 -7,0 3.5,3.5 0 1 1 7,0 z"
       display="block"
       inkscape:connector-curvature="0" />
    <path
       id="rect3623-2"
       style="color:#000000;display:block;opacity:0.3;fill:none;stroke:#000000;stroke-linejoin:round"
       d="m 34.5,25.5 c -0.554,0 -1,0.446 -1,1 l 0,1.375 c -0.5073,0.1558 -1.0068,0.3505 -1.4688,0.5938 L 31.0625,27.5 c -0.3917,-0.3917 -1.0458,-0.3917 -1.4375,0 L 27.5,29.625 c -0.3917,0.3917 -0.3917,1.0458 0,1.4375 l 0.9688,0.9687 c -0.2433,0.462 -0.438,0.9615 -0.5938,1.4688 l -1.375,0 c -0.554,0 -1,0.446 -1,1 l 0,3 c 0,0.554 0.446,1 1,1 l 1.375,0 c 0.15578,0.50733 0.35047,1.0068 0.59375,1.4688 l -0.9688,0.969 c -0.39174,0.39174 -0.39174,1.0458 0,1.4375 l 2.125,2.124 c 0.39174,0.39174 1.0458,0.39174 1.4375,0 l 0.9687,-0.969 c 0.462,0.244 0.9615,0.438 1.4688,0.594 l 0,1.375 c 0,0.554 0.446,1 1,1 l 3,0 c 0.554,0 1,-0.446 1,-1 l 0,-1.375 c 0.50733,-0.15578 1.0068,-0.35047 1.4688,-0.59375 l 0.969,0.969 c 0.39174,0.39174 1.0458,0.39174 1.4375,0 l 2.124,-2.125 c 0.39174,-0.39174 0.39174,-1.0458 0,-1.4375 l -0.969,-0.969 c 0.244,-0.462 0.438,-0.962 0.594,-1.469 l 1.375,0 c 0.554,0 1,-0.446 1,-1 l 0,-3 c 0,-0.554 -0.446,-1 -1,-1 l -1.375,0 c -0.156,-0.5073 -0.35,-1.0068 -0.594,-1.4688 l 0.969,-0.9687 c 0.39174,-0.39174 0.39174,-1.0458 0,-1.4375 l -2.125,-2.125 c -0.392,-0.3917 -1.046,-0.3917 -1.437,0 l -0.969,0.9688 c -0.462,-0.2433 -0.962,-0.438 -1.469,-0.5938 l 0,-1.375 c 0,-0.554 -0.446,-1 -1,-1 l -3,0 z m 1.5,8 c 1.3807,0 2.5,1.1193 2.5,2.5 0,1.3807 -1.1193,2.5 -2.5,2.5 -1.3807,0 -2.5,-1.1193 -2.5,-2.5 0,-1.3807 1.1193,-2.5 2.5,-2.5 z"
       display="block"
       inkscape:connector-curvature="0" />
  </g>
</svg>
