<?xml version="1.0" encoding="UTF-8" standalone="no"?>
<!-- Created with Inkscape (http://www.inkscape.org/) -->

<svg
   xmlns:dc="http://purl.org/dc/elements/1.1/"
   xmlns:cc="http://creativecommons.org/ns#"
   xmlns:rdf="http://www.w3.org/1999/02/22-rdf-syntax-ns#"
   xmlns:svg="http://www.w3.org/2000/svg"
   xmlns="http://www.w3.org/2000/svg"
   xmlns:sodipodi="http://sodipodi.sourceforge.net/DTD/sodipodi-0.dtd"
   xmlns:inkscape="http://www.inkscape.org/namespaces/inkscape"
   id="svg3143"
   height="48"
   width="48"
   version="1.1"
   inkscape:version="0.91 r13725"
   sodipodi:docname="haguichi.svg">
  <sodipodi:namedview
     pagecolor="#ffffff"
     bordercolor="#666666"
     borderopacity="1"
     objecttolerance="10"
     gridtolerance="10"
     guidetolerance="10"
     inkscape:pageopacity="0"
     inkscape:pageshadow="2"
     inkscape:window-width="1535"
     inkscape:window-height="876"
     id="namedview42"
     showgrid="false"
     inkscape:zoom="4.9166667"
     inkscape:cx="24"
     inkscape:cy="24"
     inkscape:window-x="65"
     inkscape:window-y="24"
     inkscape:window-maximized="1"
     inkscape:current-layer="svg3143" />
  <defs
     id="defs3145">
    <radialGradient
       id="radialGradient3030"
       gradientUnits="userSpaceOnUse"
       cy="43.5"
       cx="4.993"
       gradientTransform="matrix(2.0038 0 0 1.4 27.988 -17.4)"
       r="2.5">
      <stop
         id="stop2883"
         stop-color="#181818"
         offset="0" />
      <stop
         id="stop2885"
         stop-color="#181818"
         stop-opacity="0"
         offset="1" />
    </radialGradient>
    <radialGradient
       id="radialGradient3032"
       gradientUnits="userSpaceOnUse"
       cy="43.5"
       cx="4.993"
       gradientTransform="matrix(2.0038 0 0 1.4 -20.012 -104.4)"
       r="2.5">
      <stop
         id="stop2889"
         stop-color="#181818"
         offset="0" />
      <stop
         id="stop2891"
         stop-color="#181818"
         stop-opacity="0"
         offset="1" />
    </radialGradient>
    <linearGradient
       id="linearGradient3034"
       y2="39.999"
       gradientUnits="userSpaceOnUse"
       x2="25.058"
       y1="47.028"
       x1="25.058">
      <stop
         id="stop2895"
         stop-color="#181818"
         stop-opacity="0"
         offset="0" />
      <stop
         id="stop2897"
         stop-color="#181818"
         offset=".5" />
      <stop
         id="stop2899"
         stop-color="#181818"
         stop-opacity="0"
         offset="1" />
    </linearGradient>
    <linearGradient
       id="linearGradient3044"
       y2="43"
       gradientUnits="userSpaceOnUse"
       x2="24"
       gradientTransform="translate(5.3e-6,1)"
       y1="5"
       x1="24">
      <stop
         id="stop3926-7"
         stop-color="#fff"
         offset="0" />
      <stop
         id="stop3928-3"
         stop-color="#fff"
         stop-opacity=".23529"
         offset=".063165" />
      <stop
         id="stop3930-7"
         stop-color="#fff"
         stop-opacity=".15686"
         offset=".95056" />
      <stop
         id="stop3932-1"
         stop-color="#fff"
         stop-opacity=".39216"
         offset="1" />
    </linearGradient>
    <radialGradient
       id="radialGradient3053"
       gradientUnits="userSpaceOnUse"
       cy="9.9941"
       cx="8.2761"
       gradientTransform="matrix(0,6.6678,-8.1859,0,105.88,-59.463)"
       r="12.672">
      <stop
         id="stop4241"
         stop-color="#866746"
         offset="0" />
      <stop
         id="stop4243"
         stop-color="#76552e"
         offset=".26238" />
      <stop
         id="stop4245"
         stop-color="#482f0f"
         offset=".66094" />
      <stop
         id="stop4247"
         stop-color="#020100"
         offset="1" />
    </radialGradient>
    <linearGradient
       id="linearGradient4315"
       y2="9.2402"
       gradientUnits="userSpaceOnUse"
       x2="22.962"
       y1="42.167"
       x1="22.912">
      <stop
         id="stop4257"
         stop-color="#ff1616"
         offset="0" />
      <stop
         id="stop4259"
         stop-color="#ffbc2b"
         offset="1" />
    </linearGradient>
    <linearGradient
       id="linearGradient4340"
       y2="5.525"
       gradientUnits="userSpaceOnUse"
       x2="23.086"
       y1="50.526"
       x1="22.788">
      <stop
         id="stop4236"
         stop-color="#fffdf3"
         stop-opacity=".5"
         offset="0" />
      <stop
         id="stop4238"
         stop-color="#fff"
         stop-opacity=".16327"
         offset="1" />
    </linearGradient>
  </defs>
  <metadata
     id="metadata3148">
    <rdf:RDF>
      <cc:Work
         rdf:about="">
        <dc:format>image/svg+xml</dc:format>
        <dc:type
           rdf:resource="http://purl.org/dc/dcmitype/StillImage" />
        <dc:title />
      </cc:Work>
    </rdf:RDF>
  </metadata>
  <g
     id="g4170"
     transform="translate(0,-1)">
    <rect
       x="4.5"
       y="5.5"
       width="39"
       height="39"
       ry="2"
       rx="2"
       style="color:#000000;fill:url(#radialGradient3053)"
       id="rect5505-21" />
    <path
       d="m 28,12 c -2.7614,0 -5,2.2386 -5,5 0,0.92676 0.25325,2.7222 -0.58203,3.2715 -0.905,0.595 -2.401,-0.272 -3.418,-0.272 -2.7614,0 -5,2.2386 -5,5 0,2.7614 2.2386,5 5,5 1.1131,0 2.907,-0.92681 3.9199,-0.26758 0.89,0.58 0.08,2.502 0.08,3.268 0,2.7614 2.2386,5 5,5 2.7614,0 5,-2.2386 5,-5 0,-2.7614 -2.2386,-5 -5,-5 -1.2188,0 -2.8212,0.63794 -3.7637,0.03711 -0.812,-0.518 -0.236,-2.167 -0.236,-3.037 0,-0.962 -0.895,-2.654 -0.061,-3.191 1.09,-0.703 3.004,0.191 4.061,0.191 2.7614,0 5,-2.2386 5,-5 0,-2.7614 -2.2386,-5 -5,-5 z"
       id="path4353"
       inkscape:connector-curvature="0"
       style="opacity:0.15;fill:none;stroke:#000000;stroke-linecap:round;stroke-linejoin:round" />
    <path
       d="m 28,12 c -2.7614,0 -5,2.2386 -5,5 0,0.92676 0.25325,2.7222 -0.58203,3.2715 -0.905,0.595 -2.401,-0.272 -3.418,-0.272 -2.7614,0 -5,2.2386 -5,5 0,2.7614 2.2386,5 5,5 1.1131,0 2.907,-0.92681 3.9199,-0.26758 0.89,0.58 0.08,2.502 0.08,3.268 0,2.7614 2.2386,5 5,5 2.7614,0 5,-2.2386 5,-5 0,-2.7614 -2.2386,-5 -5,-5 -1.2188,0 -2.8212,0.63794 -3.7637,0.03711 -0.812,-0.518 -0.236,-2.167 -0.236,-3.037 0,-0.962 -0.895,-2.654 -0.061,-3.191 1.09,-0.703 3.004,0.191 4.061,0.191 2.7614,0 5,-2.2386 5,-5 0,-2.7614 -2.2386,-5 -5,-5 z"
       id="path4351"
       inkscape:connector-curvature="0"
       style="opacity:0.15;fill:none;stroke:#000000;stroke-width:2;stroke-linecap:round;stroke-linejoin:round" />
    <rect
       x="5.5"
       y="6.5"
       width="37"
       height="37"
       ry="1"
       rx="1"
       id="rect6741-2"
       style="opacity:0.5;fill:none;stroke:url(#linearGradient3044);stroke-linecap:round;stroke-linejoin:round" />
    <rect
       x="4.5"
       y="5.5"
       width="39"
       height="39"
       ry="2"
       rx="2"
       style="color:#000000;opacity:0.35;fill:none;stroke:#170d06;stroke-linecap:round;stroke-linejoin:round"
       id="rect5505-21-1" />
    <path
       d="m 28,12 c -2.7614,0 -5,2.2386 -5,5 0,0.92676 0.25325,2.7222 -0.58203,3.2715 -0.905,0.595 -2.401,-0.272 -3.418,-0.272 -2.7614,0 -5,2.2386 -5,5 0,2.7614 2.2386,5 5,5 1.1131,0 2.907,-0.92681 3.9199,-0.26758 0.89,0.58 0.08,2.502 0.08,3.268 0,2.7614 2.2386,5 5,5 2.7614,0 5,-2.2386 5,-5 0,-2.7614 -2.2386,-5 -5,-5 -1.2188,0 -2.8212,0.63794 -3.7637,0.03711 -0.812,-0.518 -0.236,-2.167 -0.236,-3.037 0,-0.962 -0.895,-2.654 -0.061,-3.191 1.09,-0.703 3.004,0.191 4.061,0.191 2.7614,0 5,-2.2386 5,-5 0,-2.7614 -2.2386,-5 -5,-5 z"
       id="path4186"
       style="fill:url(#linearGradient4315)"
       inkscape:connector-curvature="0" />
    <path
       d="m 28,12 c -2.7614,0 -5,2.2386 -5,5 0,0.92676 0.25325,2.7222 -0.58203,3.2715 -0.905,0.595 -2.401,-0.272 -3.418,-0.272 -2.7614,0 -5,2.2386 -5,5 0,2.7614 2.2386,5 5,5 1.1131,0 2.907,-0.92681 3.9199,-0.26758 0.89,0.58 0.08,2.502 0.08,3.268 0,2.7614 2.2386,5 5,5 2.7614,0 5,-2.2386 5,-5 0,-2.7614 -2.2386,-5 -5,-5 -1.2188,0 -2.8212,0.63794 -3.7637,0.03711 -0.812,-0.518 -0.236,-2.167 -0.236,-3.037 0,-0.962 -0.895,-2.654 -0.061,-3.191 1.09,-0.703 3.004,0.191 4.061,0.191 2.7614,0 5,-2.2386 5,-5 0,-2.7614 -2.2386,-5 -5,-5 z m 0,1 c 2.221,0 4,1.779 4,4 0,2.221 -1.779,4 -4,4 -0.2469,0 -1.0178,-0.19438 -1.8398,-0.34375 -0.82204,-0.14936 -1.8305,-0.28794 -2.7617,0.3125 -0.47759,0.30794 -0.73412,0.85808 -0.79297,1.2969 -0.05885,0.43879 0.0011,0.81823 0.07031,1.1719 0.138,0.707 0.324,1.391 0.324,1.562 0,0.2139 -0.13301,0.88121 -0.18359,1.5781 -0.02529,0.34846 -0.0318,0.72231 0.07031,1.1309 0.10212,0.40855 0.36136,0.88427 0.8125,1.1719 0.82313,0.52475 1.7,0.44849 2.4395,0.35547 0.739,-0.093 1.426,-0.236 1.861,-0.236 2.221,0 4,1.779 4,4 0,2.221 -1.779,4 -4,4 -2.221,0 -4,-1.779 -4,-4 0,-0.03003 0.17678,-0.8079 0.2832,-1.5645 0.05321,-0.37827 0.09036,-0.78429 0.0098,-1.2324 -0.08062,-0.44814 -0.33552,-0.98801 -0.82812,-1.3086 -0.912,-0.593 -1.888,-0.417 -2.672,-0.253 -0.784,0.164 -1.514,0.359 -1.793,0.359 -2.221,0 -4,-1.779 -4,-4 0,-2.221 1.779,-4 4,-4 0.22411,0 0.83968,0.17519 1.5254,0.33398 0.68571,0.1588 1.5913,0.33247 2.4414,-0.22656 0.87433,-0.57497 1.0043,-1.5198 1.0527,-2.2656 0.048,-0.746 -0.02,-1.47 -0.02,-1.842 0,-2.221 1.779,-4 4,-4 z"
       id="path4334"
       style="fill:url(#linearGradient4340)"
       inkscape:connector-curvature="0" />
  </g>
</svg>
