<?xml version="1.0" encoding="UTF-8" standalone="no"?>
<!-- Created with Inkscape (http://www.inkscape.org/) -->

<svg
   xmlns:dc="http://purl.org/dc/elements/1.1/"
   xmlns:cc="http://creativecommons.org/ns#"
   xmlns:rdf="http://www.w3.org/1999/02/22-rdf-syntax-ns#"
   xmlns:svg="http://www.w3.org/2000/svg"
   xmlns="http://www.w3.org/2000/svg"
   xmlns:sodipodi="http://sodipodi.sourceforge.net/DTD/sodipodi-0.dtd"
   xmlns:inkscape="http://www.inkscape.org/namespaces/inkscape"
   id="svg3143"
   height="48"
   width="48"
   version="1.1"
   inkscape:version="0.91 r13725"
   sodipodi:docname="hotline-miami2.svg">
  <sodipodi:namedview
     pagecolor="#ffffff"
     bordercolor="#666666"
     borderopacity="1"
     objecttolerance="10"
     gridtolerance="10"
     guidetolerance="10"
     inkscape:pageopacity="0"
     inkscape:pageshadow="2"
     inkscape:window-width="1535"
     inkscape:window-height="876"
     id="namedview41"
     showgrid="false"
     inkscape:zoom="4.9166667"
     inkscape:cx="-10.779661"
     inkscape:cy="24"
     inkscape:window-x="65"
     inkscape:window-y="24"
     inkscape:window-maximized="1"
     inkscape:current-layer="svg3143" />
  <defs
     id="defs3145">
    <radialGradient
       id="radialGradient3030"
       gradientUnits="userSpaceOnUse"
       cy="43.5"
       cx="4.993"
       gradientTransform="matrix(2.0038,0,0,1.4,27.988,-17.4)"
       r="2.5">
      <stop
         id="stop2883"
         stop-color="#181818"
         offset="0" />
      <stop
         id="stop2885"
         stop-color="#181818"
         stop-opacity="0"
         offset="1" />
    </radialGradient>
    <radialGradient
       id="radialGradient3032"
       gradientUnits="userSpaceOnUse"
       cy="43.5"
       cx="4.993"
       gradientTransform="matrix(2.0038,0,0,1.4,-20.012,-104.4)"
       r="2.5">
      <stop
         id="stop2889"
         stop-color="#181818"
         offset="0" />
      <stop
         id="stop2891"
         stop-color="#181818"
         stop-opacity="0"
         offset="1" />
    </radialGradient>
    <linearGradient
       id="linearGradient3034"
       y2="39.999"
       gradientUnits="userSpaceOnUse"
       x2="25.058"
       y1="47.028"
       x1="25.058">
      <stop
         id="stop2895"
         stop-color="#181818"
         stop-opacity="0"
         offset="0" />
      <stop
         id="stop2897"
         stop-color="#181818"
         offset=".5" />
      <stop
         id="stop2899"
         stop-color="#181818"
         stop-opacity="0"
         offset="1" />
    </linearGradient>
    <linearGradient
       id="linearGradient3044"
       y2="43"
       gradientUnits="userSpaceOnUse"
       x2="24"
       gradientTransform="translate(5.3e-6,1)"
       y1="5"
       x1="24">
      <stop
         id="stop3926-7"
         stop-color="#fff"
         offset="0" />
      <stop
         id="stop3928-3"
         stop-color="#fff"
         stop-opacity=".23529"
         offset=".063165" />
      <stop
         id="stop3930-7"
         stop-color="#fff"
         stop-opacity=".15686"
         offset=".95056" />
      <stop
         id="stop3932-1"
         stop-color="#fff"
         stop-opacity=".39216"
         offset="1" />
    </linearGradient>
  </defs>
  <metadata
     id="metadata3148">
    <rdf:RDF>
      <cc:Work
         rdf:about="">
        <dc:format>image/svg+xml</dc:format>
        <dc:type
           rdf:resource="http://purl.org/dc/dcmitype/StillImage" />
        <dc:title />
      </cc:Work>
    </rdf:RDF>
  </metadata>
  <g
     id="g4189"
     transform="translate(0,-1)">
    <rect
       id="rect4285"
       style="color:#000000;fill:#111111"
       rx="2"
       ry="2"
       height="39"
       width="39"
       y="5.5"
       x="4.5" />
    <g
       id="g4952"
       transform="matrix(0.88116,0,0,0.90687,2.5268,0.76869)"
       style="stroke:#000000;stroke-width:0.11187;stroke-linecap:round;stroke-linejoin:round">
      <path
         id="path4968"
         d="m 3.3854,26.72 0,-20.4 20.989,0 20.989,0 0,20.4 0,20.4 -20.989,0 -20.989,0 0,-20.4 z"
         inkscape:connector-curvature="0"
         style="fill:#fbfccd" />
      <path
         id="path4966"
         d="m 3.3854,26.72 0,-20.4 4.601,0 c 3.0256,0 4.5663,0.054571 4.4997,0.15937 -0.13723,0.21581 0.29909,0.20336 0.5237,-0.014946 0.09864,-0.095876 0.30889,-0.14966 0.46722,-0.11953 0.20715,0.039427 0.01177,0.2501 -0.69681,0.75137 -0.90032,0.6369 -1.6688,1.5267 -1.4783,1.7118 0.04266,0.041462 0.95376,0.25123 2.0247,0.46614 2.8324,0.56842 3.1769,0.75655 3.1769,1.7347 0,0.3174 -0.13146,0.46016 -0.59835,0.64976 -0.88514,0.35945 -2.318,0.69602 -3.3965,0.79782 -0.52355,0.04942 -1.2593,0.20171 -1.6351,0.33843 -1.7618,0.64106 -2.4898,0.85626 -2.8969,0.85626 -0.69231,0 -1.3118,0.9385 -1.3118,1.9874 l 0,0.53802 1.2708,-0.0905 c 0.79998,-0.05697 1.5973,-0.22956 2.1521,-0.46583 0.4847,-0.20643 1.075,-0.37603 1.3118,-0.37689 0.23679,-8.6e-4 0.83637,-0.18617 1.3324,-0.41181 0.49603,-0.22564 1.3421,-0.48001 1.8801,-0.56527 0.53803,-0.08526 1.0612,-0.22191 1.1625,-0.30367 0.10136,-0.08176 0.76052,-0.33147 1.4648,-0.55492 1.9684,-0.62452 4.4529,-2.6868 5.365,-4.4533 0.81672,-1.5818 1.5752,-2.0661 2.1918,-1.3993 0.61337,0.66331 1.0535,1.2468 1.0537,1.3969 4.94e-4,0.3989 1.955,1.9898 2.4446,1.9898 0.22406,0 0.40792,0.1446 0.50748,0.39912 0.08587,0.21952 0.48988,0.62777 0.89781,0.90723 0.51739,0.35445 0.74168,0.62028 0.74168,0.87903 0,0.44972 0.64667,1.4854 1.4851,2.3784 0.34034,0.36251 0.73765,0.88247 0.88289,1.1555 0.31087,0.58428 0.32087,0.58641 0.89353,0.19008 0.85783,-0.59368 2.4016,-1.1601 3.3795,-1.2399 0.68423,-0.05585 1.4151,0.02175 2.4001,0.25481 0.77891,0.18431 1.5266,0.33511 1.6616,0.33511 0.34179,0 0.48032,-0.64411 0.22203,-1.0324 -0.11794,-0.17728 -0.26407,-0.51824 -0.32473,-0.7577 -0.23262,-0.9182 -1.8226,-1.2657 -3.4917,-0.76311 -0.99066,0.29829 -1.3455,0.325 -3.007,0.22638 -1.0361,-0.0615 -2.1245,-0.20956 -2.4186,-0.32902 -0.45934,-0.18654 -0.53483,-0.29592 -0.53483,-0.77493 0,-0.50209 0.06954,-0.58816 0.6969,-0.86264 1.1707,-0.51218 2.785,-1.0761 3.6485,-1.2745 0.99565,-0.22876 1.7849,-0.65485 1.8534,-1.0006 0.06647,-0.33549 -2.1783,-2.5434 -3.005,-2.9556 l -0.63615,-0.3172 0.48394,-0.00184 c 0.26617,-0.00101 0.62198,0.068897 0.79069,0.15535 0.21666,0.11103 0.27401,0.10572 0.19529,-0.018082 -0.0801,-0.12596 1.2752,-0.17527 4.8175,-0.17527 l 4.929,0 0,20.4 0,20.4 -20.989,0 -20.989,0 0,-20.4 z m 5.1194,1.3709 c 1.5745,-0.69513 2.1314,-0.89276 2.5158,-0.89276 0.20913,0 0.42233,-0.0662 0.47378,-0.14711 0.05145,-0.08091 0.30271,-0.19176 0.55836,-0.24634 0.69921,-0.14926 2.2477,-1.6568 2.3868,-2.3237 0.25517,-1.2234 0.28516,-1.7115 0.11155,-1.8158 -0.09865,-0.05926 -0.17937,-0.34628 -0.17937,-0.63782 0,-0.78347 -0.52881,-1.0509 -2.2559,-1.1408 -0.77682,-0.04043 -1.4909,-0.13005 -1.5869,-0.19915 -0.096,-0.06911 -0.49333,-0.22342 -0.88295,-0.34292 -0.58703,-0.18005 -0.92142,-0.18249 -1.9517,-0.01424 -1.9951,0.32582 -2.0132,0.34115 -2.0132,1.7016 0,2.2101 0.97641,5.8017 1.718,6.3192 0.21809,0.15222 0.11836,0.17569 1.1058,-0.26026 z m 32.463,-0.296 c 0.32754,-0.25176 0.72219,-1.1261 0.88126,-1.9523 0.0675,-0.35062 0.14252,-0.70921 0.16672,-0.79687 0.19011,-0.68887 0.32956,-1.7237 0.32215,-2.3906 l -0.0089,-0.79687 -0.90187,-0.17579 c -0.49603,-0.09669 -1.4922,-0.3584 -2.2137,-0.5816 -1.9591,-0.60605 -3.0831,-0.81065 -3.9385,-0.71693 -1.0393,0.11386 -1.3435,0.41703 -1.0678,1.0641 0.17409,0.40849 0.16618,0.57225 -0.04895,1.0129 -0.35072,0.71833 -0.09341,1.7034 0.71295,2.7295 0.56478,0.71868 0.80588,0.86301 2.9704,1.7782 2.5466,1.0767 2.7355,1.1266 3.1261,0.82636 z m -8.119,-10.19 c -0.05234,-0.12714 -0.0912,-0.08937 -0.09907,0.09629 -0.0071,0.16801 0.03164,0.26214 0.08612,0.20918 0.05449,-0.05296 0.06031,-0.19042 0.01294,-0.30546 z"
         inkscape:connector-curvature="0"
         style="fill:#f1edae" />
      <path
         id="path4964"
         d="m 3.3854,26.72 0,-20.4 4.6079,0 4.6079,0 -1.4924,1.3739 c -0.8208,0.75564 -1.4924,1.4676 -1.4924,1.582 0,0.14971 0.37974,0.22457 1.3528,0.26669 0.74404,0.03221 1.7217,0.15232 2.1727,0.26691 2.7699,0.7039 2.9516,0.769 2.9516,1.058 0,0.32695 -0.92566,0.5799 -3.4435,0.941 -0.81168,0.11641 -2.0523,0.43518 -2.757,0.70839 -0.82901,0.3214 -1.5677,0.49674 -2.0928,0.49674 l -0.8115,0 -0.40522,0.89055 c -0.22287,0.4898 -0.54885,1.3683 -0.7244,1.9523 -0.60973,2.0283 -0.49005,2.2996 0.61765,1.4001 0.60297,-0.48962 0.81691,-0.56144 1.9495,-0.65443 0.86643,-0.07113 1.5146,-0.22801 2.0323,-0.49184 0.41965,-0.21389 1.0439,-0.38826 1.3938,-0.38932 0.37442,-0.0011 0.93086,-0.167 1.36,-0.40539 0.92852,-0.51585 1.8414,-0.62422 2.9095,-0.34537 0.88656,0.23147 1.3656,0.12934 1.3656,-0.29116 0,-0.15716 -0.1806,-0.23114 -0.56424,-0.23114 -0.5702,0 -0.95038,-0.26568 -0.55299,-0.38644 0.11845,-0.03599 0.64469,-0.19028 1.1694,-0.34286 0.53246,-0.15482 1.3037,-0.54797 1.7452,-0.88967 0.43514,-0.33674 0.84881,-0.61225 0.91926,-0.61225 0.22497,0 -0.63474,0.79887 -1.3671,1.2703 -0.3892,0.25056 -0.63683,0.4981 -0.55028,0.55008 0.2475,0.14867 1.2361,-0.05135 2.2703,-0.45935 l 0.94778,-0.37389 0.05081,-0.75232 c 0.04971,-0.73605 0.04172,-0.75011 -0.36895,-0.64993 -0.58968,0.14385 -0.52352,0.0082 0.23351,-0.4787 0.74546,-0.47948 1.711,-1.8054 2.0789,-2.8549 0.13756,-0.39238 0.31765,-0.75399 0.4002,-0.80358 0.33187,-0.19935 0.77624,0.1349 1.0267,0.77225 0.49687,1.2645 2.1692,2.8237 3.0286,2.8237 0.2079,0 0.34395,0.13711 0.39534,0.39843 0.09185,0.467 0.10726,0.46257 -0.60385,0.17379 l -0.55318,-0.22465 -0.10803,0.55968 c -0.12777,0.66194 -0.15498,0.62916 1.0302,1.241 0.71883,0.37107 0.97248,0.60137 1.1066,1.0047 0.09572,0.28782 0.33931,0.68227 0.54131,0.87655 0.28592,0.275 0.34337,0.29146 0.25936,0.07434 -0.12331,-0.31869 0.09557,-0.37023 0.38357,-0.09031 0.10672,0.10372 0.23001,0.15363 0.27398,0.1109 0.12278,-0.11934 -1.3522,-2.1886 -1.7186,-2.411 -0.275,-0.16692 -0.47067,-0.75725 -0.251,-0.75725 0.31712,0 1.2392,0.7256 1.2392,0.97515 0,0.39158 0.65878,1.4185 1.6129,2.5143 0.7057,0.81046 0.75065,0.91894 0.78322,1.8905 0.04273,1.2744 0.17478,1.4273 1.0201,1.1812 0.35156,-0.10237 0.79666,-0.18613 0.98912,-0.18613 0.51746,0 0.46801,-0.60261 -0.06002,-0.73142 -0.6173,-0.15058 -0.50953,-0.59889 0.21908,-0.91133 0.34596,-0.14835 0.73538,-0.26973 0.86538,-0.26973 0.13,0 0.40864,-0.11727 0.61918,-0.26061 0.52304,-0.35607 2.3523,-0.2166 4.5805,0.34923 1.0622,0.26973 1.7505,0.3738 1.8476,0.27935 0.16124,-0.15671 -0.41222,-2.0718 -0.95533,-3.1904 -0.26515,-0.54609 -0.3853,-0.6205 -1.432,-0.88674 l -1.143,-0.292 -1.497,0.413 c -1.2664,0.3492 -1.6074,0.38772 -2.2189,0.2507 -0.39743,-0.08904 -1.2532,-0.16365 -1.9018,-0.16579 -0.71468,-0.0024 -1.2255,-0.07684 -1.2969,-0.18908 -0.14335,-0.22543 0.5089,-0.77106 0.92172,-0.77106 0.16228,0 0.76287,-0.2151 1.3346,-0.47799 0.57177,-0.2629 1.2723,-0.47805 1.5567,-0.47812 0.28444,-6.9e-5 1.1507,-0.29557 1.925,-0.65667 l 1.409,-0.6567 -0.483,-0.5928 c -0.266,-0.3261 -1.087,-1.1423 -1.824,-1.8138 l -1.3402,-1.2209 4.9406,0 4.9406,0 0,20.4 0,20.4 -20.989,0 -20.989,0 0,-20.4 z m 4.8106,2.1663 c 0.55577,-0.29865 1.7853,-0.83643 2.7322,-1.195 2.2162,-0.8393 3.3733,-1.4927 3.6868,-2.082 0.13773,-0.25886 0.36047,-0.99341 0.49497,-1.6323 0.1345,-0.63891 0.28308,-1.323 0.33016,-1.5202 0.06707,-0.28094 0.01392,-0.35859 -0.24547,-0.35859 -0.39309,0 -0.41664,-0.14787 -0.09033,-0.56719 0.36724,-0.4719 0.30074,-0.70773 -0.19976,-0.70839 -0.24801,-3.28e-4 -0.69096,-0.14283 -0.98432,-0.31668 -0.45493,-0.26959 -0.71078,-0.30151 -1.7395,-0.21699 -1.0795,0.08869 -1.2577,0.06199 -1.698,-0.2544 -0.59464,-0.4273 -1.6573,-0.48445 -3.572,-0.19211 -2.1295,0.32514 -1.9469,0.11116 -1.8382,2.1542 0.10005,1.8809 0.39673,3.488 0.9227,4.9983 0.39651,1.1385 0.98285,2.4344 1.1015,2.4344 0.048766,0 0.54339,-0.24435 1.0992,-0.54301 z m 33.851,-1.889 c 0.55714,-1.6122 1.0729,-4.4 0.98741,-5.3369 l -0.04908,-0.53778 -1.1478,-0.04011 c -0.79792,-0.02788 -1.3583,-0.14644 -1.8382,-0.38889 -0.3797,-0.19183 -0.82908,-0.34878 -0.99862,-0.34878 -0.16954,0 -0.89192,-0.14693 -1.6053,-0.3265 -1.1954,-0.30091 -1.4223,-0.31085 -2.8958,-0.12682 -1.0685,0.13345 -1.5988,0.26633 -1.5988,0.40064 0,0.11053 0.22137,0.44601 0.49193,0.74551 0.61867,0.68485 0.63636,0.94221 0.05503,0.8004 -0.38282,-0.09339 -0.42098,-0.0691 -0.30824,0.19618 0.35246,0.8294 0.56815,1.732 0.48803,2.0423 -0.05906,0.22869 0.02588,0.44766 0.25014,0.64492 0.19776,0.17395 0.3026,0.41184 0.25106,0.56968 -0.05706,0.17474 0.0565,0.36335 0.3197,0.53096 0.76727,0.48862 6.4045,2.8064 6.7331,2.7684 0.25904,-0.02996 0.44089,-0.36474 0.8654,-1.5932 z m -10.77,-2.464 c -0.14917,-0.24908 -0.17063,-0.23341 -0.17501,0.1278 -0.0027,0.22644 0.05036,0.46596 0.118,0.53226 0.19699,0.19309 0.24375,-0.34824 0.05701,-0.66006 z m 0.86213,-2.316 c -0.01305,-0.37246 -0.03149,-0.80272 -0.04099,-0.95611 -0.01158,-0.18705 -0.15276,-0.2789 -0.42864,-0.2789 -0.40371,0 -0.40941,-0.01706 -0.3059,-0.9164 0.05801,-0.50402 0.21934,-1.109 0.3585,-1.3444 0.32919,-0.55685 0.06551,-1.4955 -0.57637,-2.0518 -0.2468,-0.21389 -0.36048,-0.27602 -0.25262,-0.13806 0.22854,0.2923 0.30459,1.9542 0.16646,3.6377 -0.0926,1.1286 -0.07452,1.2122 0.42128,1.9495 0.28491,0.42365 0.55492,0.77151 0.60002,0.77301 0.04509,0.0014 0.07131,-0.30201 0.05827,-0.67447 z m -15.09,-1.394 c 0.38046,-0.39172 0.76674,-1.2308 0.76674,-1.6655 0,-0.48714 -0.17486,-0.52183 -0.45248,-0.08977 -0.29793,0.46366 -1.0427,2.6889 -0.77418,2.3131 0.12525,-0.17531 0.33222,-0.42632 0.45992,-0.55781 z m 0.98366,-3.7851 c 0.05166,-0.24105 0.39625,-0.79064 0.76575,-1.2213 0.50016,-0.58296 0.61756,-0.81563 0.45948,-0.91058 -0.11678,-0.07015 -0.22156,-0.20188 -0.23283,-0.29273 -0.01127,-0.09085 -0.02972,-0.20289 -0.04099,-0.24897 -0.01127,-0.04608 -0.24628,0.0297 -0.52223,0.16839 -0.7486,0.37625 -1.5115,2.2482 -1.1009,2.7011 0.32314,0.35635 0.56867,0.28474 0.67168,-0.19589 z"
         inkscape:connector-curvature="0"
         style="fill:#c3966b" />
      <path
         id="path4962"
         d="m 3.3854,43.698 c 0,-2.8659 0.037248,-3.4076 0.22938,-3.336 0.12616,0.04705 0.26824,0.02443 0.31575,-0.05028 0.047503,-0.0747 0.12324,-1.3167 0.1683,-2.7601 0.045061,-1.4433 0.16913,-2.8394 0.2757,-3.1023 0.10657,-0.26297 0.25803,-0.69327 0.33658,-0.95624 l 0.1428,-0.478 -0.3238,0.398 c -0.1781,0.219 -0.4127,0.686 -0.5213,1.036 -0.1086,0.351 -0.2509,0.675 -0.3162,0.719 -0.0653,0.045 -0.1488,0.368 -0.1854,0.718 -0.0367,0.349 -0.0791,-6.16 -0.0942,-14.466 l -0.0276,-15.1 4.5051,0 4.5051,0 -1.5912,1.5093 c -1.0284,0.97544 -1.5344,1.5634 -1.4306,1.6622 0.088347,0.084082 0.78784,0.17901 1.5544,0.21095 0.76659,0.031939 1.7627,0.15056 2.2137,0.2636 1.9238,0.48226 2.7296,0.74656 2.732,0.89606 0.0014,0.08766 -0.29574,0.20885 -0.66021,0.26933 -0.36448,0.06047 -0.79752,0.18009 -0.96231,0.26581 -0.1648,0.08572 -0.85078,0.20492 -1.5244,0.26489 -0.77883,0.06933 -1.7468,0.30621 -2.6585,0.65059 -0.9311,0.35171 -1.7145,0.54156 -2.2346,0.54156 -0.44124,0 -0.87682,0.08946 -0.96995,0.19922 -0.26668,0.31426 -1.0382,2.2772 -1.3526,3.4414 -0.40413,1.4966 -0.036723,1.8061 1.0193,0.85872 0.45983,-0.41248 1.384,-0.6557 2.5361,-0.66746 0.4131,-0.0042 0.96036,-0.16263 1.3938,-0.40345 0.39913,-0.22177 0.97814,-0.39736 1.3138,-0.39843 0.3301,-0.0011 1.068,-0.21702 1.6398,-0.47991 1.1936,-0.54882 1.6279,-0.58024 2.9681,-0.21476 0.85809,0.23401 0.95404,0.30086 0.85769,0.59765 -0.37646,1.1596 -0.73413,2.8272 -0.73522,3.4279 -0.0016,0.88673 -0.4717,2.3625 -0.79042,2.4814 -0.35011,0.13058 -0.41232,-3.19e-4 -0.19108,-0.40211 0.22462,-0.40792 0.0094,-0.62431 -0.62509,-0.62843 -0.20651,-0.0013 -0.65794,-0.1425 -1.0032,-0.31368 -0.52219,-0.25893 -0.82836,-0.29489 -1.8215,-0.21396 -0.96252,0.07843 -1.2292,0.05023 -1.3765,-0.14555 -0.1,-0.133 -0.578,-0.325 -1.0609,-0.425 -0.8865,-0.185 -1.3523,-0.141 -3.791,0.355 l -0.90187,0.18357 -0.050404,1.0359 c -0.095032,1.9531 0.47039,4.8497 1.3688,7.0124 0.59073,1.422 0.77208,1.5863 1.3479,1.2217 0.69021,-0.43708 1.8272,-0.9259 2.8678,-1.233 1.1211,-0.33082 1.2255,-0.25448 0.22303,0.16315 -0.68591,0.28576 -1.0391,0.58235 -0.87885,0.73807 0.040654,0.03951 0.84128,-0.04255 1.7792,-0.18237 1.2962,-0.19324 1.7741,-0.33193 1.9922,-0.57822 0.37005,-0.41783 0.36352,-0.60744 -0.02092,-0.60744 -0.16933,0 -0.38821,-0.09408 -0.48639,-0.20906 -0.13769,-0.16125 0.0095,-0.34551 0.64378,-0.80573 0.7867,-0.57084 1.4604,-1.4022 1.4617,-1.8037 3.44e-4,-0.10386 0.07783,-0.38624 0.17221,-0.62751 l 0.1716,-0.43867 0.21802,0.40843 c 0.11991,0.22464 0.25872,0.65045 0.30848,0.94626 0.39899,2.372 0.74118,2.6587 2.0627,1.7283 1.017,-0.71605 1.3294,-1.3041 1.2171,-2.2912 -0.0508,-0.44646 -0.15664,-0.87988 -0.2352,-0.96316 -0.07856,-0.08327 -0.14284,-0.35221 -0.14284,-0.59765 0,-0.49455 -0.23988,-0.56113 -0.72822,-0.20213 -0.23863,0.17542 -0.34835,0.18669 -0.43844,0.04502 -0.09132,-0.14361 -0.18218,-0.13892 -0.37862,0.01953 -0.524,0.42267 -0.27533,-0.41831 0.358,-1.2108 l 0.61646,-0.77133 0.05286,-2.0651 c 0.03578,-1.3976 0.12926,-2.2087 0.28919,-2.5093 0.36319,-0.68262 1.8077,-1.7208 2.3943,-1.7208 0.3951,0 0.48076,-0.05784 0.42002,-0.28361 -0.04197,-0.15598 0.02877,-0.37901 0.15719,-0.49561 0.17828,-0.16187 0.21103,-0.47514 0.13849,-1.3248 l -0.09502,-1.1128 0.65452,-0.7227 c 0.35999,-0.39749 0.87672,-1.1798 1.1483,-1.7385 0.52996,-1.0902 0.91026,-1.2916 1.0905,-0.5775 0.13767,0.5454 0.57951,1.1472 1.552,2.1139 l 0.75455,0.75005 -0.12953,0.92769 c -0.0753,0.53934 -0.06512,1.0447 0.02433,1.2071 0.08462,0.15368 0.15386,0.41074 0.15386,0.57124 0,0.20839 0.24612,0.37601 0.86087,0.58631 0.61576,0.21065 1.1527,0.57676 1.8857,1.2858 1.1259,1.0891 1.1704,1.2365 0.85143,2.8157 -0.27834,1.3778 -0.29204,2.0764 -0.05167,2.6355 0.3122,0.72622 0.28316,1.012 -0.10286,1.012 -0.28327,0 -0.32795,0.10625 -0.32795,0.77981 0,0.54615 -0.0737,0.8073 -0.24596,0.87155 -0.35877,0.13381 -0.30526,0.47478 0.2389,1.5225 0.26668,0.51346 0.57187,1.2824 0.6782,1.7087 0.10633,0.42634 0.24801,0.83447 0.31485,0.90697 0.13412,0.14548 1.6376,-2.431 1.6376,-2.8063 0,-0.12917 0.11687,-0.32913 0.25971,-0.44435 0.34523,-0.27847 0.82044,0.01237 0.76747,0.46972 -0.02401,0.20735 0.11579,0.43221 0.36895,0.59343 0.22418,0.14277 0.40761,0.35647 0.40761,0.4749 0,0.11843 0.12391,0.46787 0.27535,0.77654 0.29536,0.60198 0.20872,0.88954 -0.1748,0.58018 -0.34306,-0.27672 -0.47563,0.05481 -0.13768,0.34428 0.1557,0.13336 0.94719,0.43561 1.7589,0.67166 1.6431,0.47782 4.5018,1.4839 4.7553,1.6736 0.44975,0.33647 1.3593,0.49141 1.7831,0.30374 0.23683,-0.10488 0.42747,-0.23296 0.42365,-0.28464 -0.0038,-0.05167 -0.45338,-0.3091 -0.99902,-0.57207 -0.54564,-0.26296 -1.0248,-0.52929 -1.0649,-0.59184 -0.04004,-0.06254 0.07237,-0.25481 0.2498,-0.42727 0.35114,-0.34129 1.1987,-2.7513 1.4673,-4.1724 0.25896,-1.3699 0.41709,-3.6533 0.25327,-3.6572 -1.7696,-0.04185 -2.5276,-0.15096 -3.1316,-0.45075 -0.3797,-0.18847 -0.82684,-0.34267 -0.99363,-0.34267 -0.1668,0 -0.90868,-0.1488 -1.6486,-0.33067 -1.1699,-0.28754 -1.4935,-0.30833 -2.4813,-0.15937 -0.62474,0.09421 -1.3985,0.17129 -1.7194,0.17129 -0.65427,0 -0.77111,0.30623 -0.34333,0.89984 0.23092,0.32044 0.18805,0.53452 -0.10704,0.53452 -0.07709,0 -0.22421,-0.1793 -0.32694,-0.39843 -0.10273,-0.21914 -0.28562,-0.39843 -0.40642,-0.39843 -0.27875,0 -0.27695,-0.19567 0.0079,-0.85828 0.18635,-0.43348 0.3422,-0.54777 0.86087,-0.63134 1.8016,-0.29028 1.9441,-0.34038 1.9973,-0.70236 0.03733,-0.25387 -0.0677,-0.40799 -0.36894,-0.5414 -0.57623,-0.25518 -0.53332,-0.36125 0.27576,-0.68162 0.38329,-0.15177 0.9058,-0.37782 1.1611,-0.50232 0.73159,-0.35676 2.1824,-0.26744 4.363,0.26858 1.7676,0.43451 2.0428,0.46647 2.2535,0.26168 0.21071,-0.20479 0.19014,-0.37715 -0.16841,-1.4114 -0.22463,-0.64794 -0.553,-1.5042 -0.7297,-1.9028 l -0.32128,-0.72476 -1.2641,-0.26662 c -1.2549,-0.26468 -1.2743,-0.26375 -2.6655,0.12809 -1.2333,0.34737 -1.5217,0.37551 -2.4044,0.23464 -0.55168,-0.08804 -1.4089,-0.17812 -1.9049,-0.20019 -0.99013,-0.04405 -1.1775,-0.27045 -0.40994,-0.49529 0.27056,-0.07925 0.97744,-0.34992 1.5708,-0.60149 0.59341,-0.25157 1.3116,-0.45739 1.5961,-0.45739 0.28442,0 1.0533,-0.24673 1.7087,-0.54828 0.65535,-0.30156 1.3207,-0.58618 1.4785,-0.63249 0.15783,-0.04631 0.28696,-0.16615 0.28696,-0.26629 0,-0.10015 -0.80348,-0.96301 -1.7855,-1.9175 l -1.7855,-1.7354 4.8191,0 4.8191,0 0,12.418 c 0,6.8298 -0.05534,12.442 -0.12298,12.471 -0.2552,0.11024 -0.6969,1.0768 -0.6969,1.525 0,0.33037 0.11581,0.52668 0.39698,0.67294 l 0.39698,0.2065 0.01341,6.7532 0.01341,6.7532 -20.989,0 -20.989,0 0,-3.4215 z m 2.4597,-11.9 c 0,-0.28529 -0.48457,0.17982 -0.75805,0.7276 l -0.2445,0.48973 0.50127,-0.52048 C 5.61952,32.20859 5.84509,31.89501 5.84509,31.798 Z m -2.4216,5.4407 c 0,-0.30679 0.033745,-0.4323 0.07499,-0.2789 0.041244,0.1534 0.041244,0.40441 0,0.55781 -0.041244,0.1534 -0.07499,0.02789 -0.07499,-0.2789 z m 29.486,-13.853 c -0.12691,-0.23048 -0.12941,-0.3324 -0.0081,-0.3324 0.19879,0 0.41529,0.44696 0.28013,0.57833 -0.04893,0.04755 -0.17132,-0.06311 -0.27199,-0.24593 z"
         inkscape:connector-curvature="0"
         style="fill:#a06656" />
      <path
         id="path4960"
         d="m 3.3854,44.317 c 0,-1.6802 0.061714,-2.781 0.15412,-2.7492 0.084768,0.02922 0.32458,0.2999 0.53292,0.60151 0.41951,0.60733 0.72998,0.6646 0.66373,0.12242 -0.0237,-0.194 -0.0454,-0.567 -0.0483,-0.83 -0.0028,-0.263 -0.0831,-0.878 -0.1783,-1.367 -0.1607,-0.825 -0.1419,-0.947 0.2624,-1.699 0.4189,-0.778 0.4329,-0.887 0.3673,-2.847 l -0.0683,-2.039 0.6307,-1.124 c 0.34687,-0.61837 0.6317,-1.183 0.63297,-1.2547 0.00126,-0.07171 -0.21096,0.01721 -0.47162,0.19761 -0.613,0.424 -1.9668,2.537 -2.2376,3.493 -0.1758,0.62 -0.2131,-1.675 -0.2253,-13.88 l -0.0147,-14.622 4.519,0 c 2.9709,0 4.4843,0.054597 4.4177,0.15937 -0.05574,0.087655 -0.19458,0.15937 -0.30854,0.15937 -0.25157,0 -2.889,2.5984 -2.889,2.8462 0,0.23044 0.47071,0.32268 1.9677,0.3856 1.2041,0.050611 1.9863,0.20011 3.7416,0.71516 l 0.87203,0.25587 -0.79004,0.21689 c -1.3569,0.3725 -2.0787,0.50671 -2.7639,0.51389 -0.36954,0.0039 -1.2725,0.25341 -2.0435,0.56475 -0.96746,0.39065 -1.6336,0.55781 -2.2231,0.55781 -0.59966,0 -0.91152,0.08019 -1.0847,0.2789 -0.36952,0.42404 -1.0837,2.1548 -1.4499,3.5134 -0.27268,1.0118 -0.29089,1.2503 -0.10894,1.4272 0.27287,0.26521 0.8666,0.07109 1.4843,-0.48528 0.45268,-0.40776 1.1582,-0.5824 2.3984,-0.59371 0.48795,-0.0044 0.96006,-0.13972 1.3938,-0.39937 0.3949,-0.2364 0.90471,-0.39297 1.2811,-0.39346 0.36297,-4.78e-4 1.0715,-0.21 1.6891,-0.49949 0.90129,-0.42248 1.1804,-0.48315 1.8267,-0.39705 1.1864,0.15806 1.8696,0.4423 1.7547,0.73003 -0.24652,0.61722 -0.57714,2.0804 -0.71963,3.1849 -0.20637,1.5996 -0.28999,1.7986 -0.67237,1.5997 -0.16543,-0.08605 -0.49037,-0.15645 -0.72209,-0.15645 -0.23172,0 -0.68739,-0.1386 -1.0126,-0.30801 -0.48522,-0.25276 -0.79424,-0.29147 -1.7228,-0.21581 -0.86531,0.07051 -1.1986,0.03692 -1.4168,-0.14278 -0.47509,-0.3913 -1.8908,-0.61699 -2.8615,-0.45618 -0.47703,0.07903 -1.2917,0.18986 -1.8103,0.24629 -1.434,0.15601 -1.501,0.27586 -1.3776,2.4644 0.16019,2.8422 1.0696,6.1485 2.0045,7.2882 l 0.34999,0.42661 0.60731,-0.34826 c 0.62091,-0.35606 1.1748,-0.46619 1.0055,-0.1999 -0.051887,0.0816 -0.019347,0.19341 0.072311,0.24847 0.091658,0.05506 0.16665,0.24767 0.16665,0.42803 0,0.24052 0.076491,0.30382 0.28696,0.23749 0.15783,-0.04974 0.80348,-0.23319 1.4348,-0.40766 1.8906,-0.5225 2.9869,-1.061 3.2794,-1.6107 0.27843,-0.52332 0.21414,-0.79714 -0.18717,-0.79714 -0.39438,0 -0.18303,-0.3277 0.6584,-1.0209 0.64326,-0.52992 0.80606,-0.60055 0.93963,-0.4077 0.14519,0.20962 0.12443,1.287 -0.03674,1.9067 -0.04727,0.18176 0.07436,0.2325 0.50747,0.21168 0.3133,-0.01506 0.59616,-0.10471 0.62857,-0.19922 0.11523,-0.33599 0.50187,-0.16384 0.8454,0.37641 l 0.34862,0.54825 0.57586,-0.33023 c 0.38343,-0.21988 0.54409,-0.41068 0.48079,-0.57101 -0.05385,-0.13639 0.16521,-0.60808 0.50525,-1.0879 0.53454,-0.75435 0.58626,-0.91337 0.47198,-1.4514 -0.07059,-0.33235 -0.13795,-0.87145 -0.14971,-1.198 -0.01176,-0.32655 -0.11174,-0.68156 -0.22218,-0.7889 -0.11,-0.108 -0.2,-0.368 -0.2,-0.578 0,-0.23328 -0.11464,-0.41062 -0.29508,-0.45648 -0.51775,-0.13159 -0.72693,-0.63363 -0.47195,-1.1327 0.14444,-0.28272 0.23542,-1.1359 0.25893,-2.428 0.03867,-2.1255 0.12617,-2.4042 0.97951,-3.1199 0.23675,-0.19857 0.63827,-0.40174 0.89226,-0.45149 0.25721,-0.05038 0.41585,-0.16272 0.35808,-0.25358 -0.05821,-0.09154 0.10942,-0.20455 0.38199,-0.25753 0.57,-0.1108 0.68385,-0.46634 0.68385,-2.1356 0,-1.0246 0.03286,-1.1169 0.65996,-1.8527 0.36298,-0.42591 0.8123,-1.0792 0.99848,-1.4517 0.18618,-0.37253 0.37143,-0.67734 0.41165,-0.67734 0.26187,0 0.96422,0.63217 1.4787,1.331 0.3323,0.45132 0.7397,0.9143 0.90533,1.0288 0.23688,0.16381 0.30529,0.43593 0.32055,1.275 0.02983,1.6402 0.14756,1.9892 0.75948,2.2509 0.29311,0.12539 0.53292,0.32261 0.53292,0.43828 0,0.11654 0.17792,0.2103 0.39908,0.2103 0.26144,0 0.70318,0.29088 1.2808,0.84334 l 0.88168,0.84334 -0.07022,1.109 c -0.03862,0.60994 -0.13942,1.2372 -0.224,1.3939 -0.08458,0.15671 -0.1106,0.41716 -0.05782,0.57878 0.06089,0.18645 -1.64e-4,0.32972 -0.16714,0.39198 -0.23226,0.08662 -0.22322,0.1474 0.0771,0.51849 0.54725,0.67619 0.40055,1.421 -0.17941,0.91083 -0.28196,-0.24801 -0.30026,-0.24375 -0.30026,0.06993 0,0.18372 0.07379,0.37836 0.16398,0.43254 0.26702,0.16039 0.19998,1.3512 -0.08199,1.4564 -0.37363,0.13935 -0.29759,0.59652 0.46023,2.767 0.68092,1.9502 0.70581,1.9922 1.1819,1.9922 0.41148,0 0.49989,-0.07359 0.5744,-0.47812 0.06918,-0.37556 0.16985,-0.47503 0.46932,-0.46371 0.35408,0.01337 0.37382,-0.03074 0.27702,-0.61908 -0.07286,-0.44286 -0.03366,-0.71096 0.13028,-0.89096 0.12897,-0.14161 0.26056,-0.39497 0.29242,-0.56302 0.0788,-0.41565 0.46786,-0.52017 0.46786,-0.12569 0,0.17188 0.11404,0.4045 0.25343,0.51694 0.13938,0.11243 0.21756,0.29526 0.17372,0.40629 -0.04384,0.11103 0.03062,0.29087 0.16547,0.39964 0.13484,0.10877 0.31664,0.32755 0.40399,0.48618 0.12283,0.22307 0.10598,0.26872 -0.07436,0.20146 -0.29785,-0.11109 -0.47947,0.17066 -0.35525,0.55109 0.10626,0.3254 0.80908,0.65242 2.3026,1.0714 1.246,0.34953 3.6762,1.2473 4.7947,1.7712 0.92203,0.4319 2.8703,0.68969 3.0521,0.40385 0.1383,-0.21749 -0.74602,-0.84642 -1.9172,-1.3635 -0.52654,-0.23247 -0.92861,-0.47753 -0.8935,-0.54457 0.86275,-1.6474 1.4862,-3.7918 1.7749,-6.1048 0.295,-2.3636 0.32922,-2.3002 -1.2557,-2.3272 -0.88188,-0.01504 -1.4634,-0.10511 -1.7217,-0.26668 -0.21455,-0.13418 -0.79593,-0.32252 -1.292,-0.41852 -0.49603,-0.096 -1.3815,-0.27805 -1.9677,-0.40456 -0.8563,-0.1848 -1.3721,-0.19677 -2.6236,-0.06088 -0.85677,0.09302 -1.6926,0.23777 -1.8573,0.32166 -0.25332,0.12898 -0.2913,0.0961 -0.24596,-0.21293 0.0542,-0.36942 0.10518,-0.38906 1.8573,-0.71538 0.75617,-0.14083 1.0962,-0.49548 0.87204,-0.90956 -0.10079,-0.18619 -0.26444,-0.39363 -0.36367,-0.46098 -0.205,-0.13912 0.14265,-0.38077 1.0494,-0.72943 1.2364,-0.4754 2.6129,-0.39669 5.29,0.30251 1.3359,0.34891 1.4555,0.35674 1.7076,0.11179 0.25202,-0.24495 0.23948,-0.35606 -0.17912,-1.5863 -0.248,-0.727 -0.611,-1.637 -0.807,-2.021 -0.342,-0.672 -0.401,-0.71 -1.568,-0.995 l -1.212,-0.296 -1.523,0.403 c -0.93893,0.24861 -1.688,0.36256 -1.9552,0.2974 -0.23817,-0.0581 -0.99982,-0.15545 -1.6926,-0.21635 -0.83572,-0.07346 -1.1492,-0.15047 -0.93158,-0.22886 0.18037,-0.06498 0.79053,-0.32888 1.3559,-0.58644 0.56538,-0.25756 1.2867,-0.46829 1.6029,-0.46829 0.3239,0 1.0564,-0.23348 1.6776,-0.53476 0.60651,-0.29412 1.3057,-0.58236 1.5537,-0.64053 0.24801,-0.05817 0.44991,-0.19405 0.44866,-0.30195 -0.005,-0.4301 -2.9905,-3.4633 -3.4089,-3.4633 -0.09733,0 -0.22256,-0.071718 -0.2783,-0.15937 -0.06669,-0.10488 1.5561,-0.15937 4.7456,-0.15937 l 4.847,0 0,12.441 c 0,7.1506 -0.06154,12.404 -0.14474,12.354 -0.17427,-0.10468 -0.76557,1.1866 -0.92519,2.0204 -0.0864,0.45136 -0.05977,0.59895 0.10881,0.60295 0.12277,0.0029 0.38924,0.13992 0.59216,0.30445 0.32436,0.26299 0.36895,0.44832 0.36895,1.5334 0,0.98281 -0.12014,1.5946 -0.58964,3.0025 -0.84524,2.5348 -1.0336,3.5433 -1.1563,6.1909 l -0.10896,2.3508 -0.53077,0 c -0.29192,0 -0.56685,-0.09139 -0.61095,-0.20308 -0.0441,-0.11169 0.01963,-1.2413 0.14162,-2.5101 0.21903,-2.2782 0.56881,-4.0522 0.99598,-5.0511 0.60098,-1.4054 1.64e-4,-0.95639 -0.70483,0.5268 -0.58461,1.2298 -1.0773,3.0222 -1.376,5.0063 -0.09899,0.65741 -0.25488,1.4284 -0.34642,1.7133 l -0.16643,0.51796 -18.763,0 -18.763,0 0,-2.8023 z m 24.761,-10.496 c 0,-0.03865 -0.07379,-0.1146 -0.16398,-0.16878 -0.09019,-0.05417 -0.16398,-0.02255 -0.16398,0.07028 0,0.09283 0.07379,0.16878 0.16398,0.16878 0.09019,0 0.16398,-0.03163 0.16398,-0.07028 z m 2.5221,-2.1211 c -0.05929,-0.24105 -0.17138,-0.55907 -0.24909,-0.7067 -0.07771,-0.14763 -0.14129,-0.65883 -0.14129,-1.136 0,-0.88104 -0.36813,-2.0221 -0.65237,-2.0221 -0.25703,0 -0.06395,2.3569 0.22864,2.7909 0.14287,0.21192 0.25976,0.5343 0.25976,0.7164 0,0.33342 0.30208,0.77844 0.53604,0.78968 0.06936,0.0033 0.0776,-0.19116 0.01831,-0.43221 z M 24.047,31.02256 c 0,-0.43074 0.26647,-0.40509 0.38544,0.03709 0.13827,0.51392 0.3754,0.18366 0.50576,-0.7044 0.09464,-0.64473 0.06507,-0.77018 -0.21602,-0.9164 -0.61709,-0.32099 -0.94149,-0.13274 -1.2461,0.72308 -0.1929,0.54202 -0.18826,0.65725 0.03628,0.90046 0.33932,0.36754 0.53461,0.35299 0.53461,-0.03984 z m 7.5726,-0.67241 c -0.09079,-0.08824 -0.25009,-0.10936 -0.35401,-0.04694 -0.13378,0.08036 -0.10204,0.20709 0.10869,0.43402 0.26899,0.28967 0.30306,0.29419 0.35401,0.04694 0.03101,-0.15047 -0.01791,-0.34578 -0.1087,-0.43402 z m -12,0.36307 c 0,-0.08248 -0.07379,-0.19429 -0.16398,-0.24847 -0.09019,-0.05417 -0.16398,0.01331 -0.16398,0.14997 0,0.13666 0.07379,0.24847 0.16398,0.24847 0.09019,0 0.16398,-0.06749 0.16398,-0.14997 z m 6.3656,-0.60171 c -0.09607,-0.11251 -0.23943,-0.20456 -0.31857,-0.20456 -0.2235,0 -0.1694,0.60234 0.06107,0.68 0.2891,0.09742 0.46668,-0.23047 0.2575,-0.47544 z"
         inkscape:connector-curvature="0"
         style="fill:#9c5531" />
      <path
         id="path4958"
         d="m 3.4997,46.283 c 0.069087,-0.46019 0.1079,-1.0519 0.086258,-1.3148 -0.17817,-2.1647 -0.20555,-3.1066 -0.09008,-3.0998 0.074508,0.0044 0.42872,0.35725 0.78714,0.78419 0.35842,0.42694 0.71556,0.73788 0.79364,0.69098 0.078084,-0.0469 0.090948,-0.57908 0.028586,-1.1826 -0.10827,-1.0478 -0.097626,-1.0973 0.23578,-1.0973 0.33434,0 0.34375,-0.04565 0.22161,-1.0758 -0.0702,-0.592 -0.1209,-2.224 -0.1128,-3.626 0.0131,-2.257 0.0582,-2.66 0.3922,-3.506 0.2075,-0.526 0.5095,-1.14 0.6712,-1.365 0.1616,-0.224 0.3456,-0.609 0.4089,-0.854 0.1039,-0.402 0.0846,-0.43 -0.1971,-0.283 -0.811,0.422 -2.7713,3.153 -3.104,4.325 -0.1701,0.599 -0.2089,-1.831 -0.221,-13.816 l -0.0147,-14.543 4.5503,5.957e-4 4.5503,5.958e-4 -0.57392,0.33831 c -0.7106,0.41888 -2.7876,2.478 -2.7876,2.7636 0,0.30749 0.38585,0.40308 1.6271,0.40308 0.6096,0 1.4706,0.1068 1.9133,0.2373305 0.44272,0.13053 0.93645,0.23811 1.0972,0.23906 0.16072,9.56e-4 0.56656,0.11545 0.90187,0.25445 l 0.60964,0.25272 -0.74279,0.28864 c -0.40854,0.15875 -1.2571,0.3388 -1.8857,0.40011 -0.66642,0.065 -1.7407,0.33763 -2.5766,0.65393 -0.92773,0.35102 -1.7145,0.54246 -2.2293,0.54246 -0.56263,0 -0.87506,0.08538 -1.0671,0.2916 -0.37156,0.39905 -1.0578,2.0806 -1.4367,3.5208 -0.26213,0.99613 -0.27772,1.2281 -0.094533,1.4062 0.26902,0.26147 0.91301,0.05941 1.5992,-0.50176 0.35502,-0.29034 0.74481,-0.3998 1.7399,-0.48856 0.77393,-0.06903 1.4782,-0.23068 1.7762,-0.40767 0.27155,-0.1613 0.89876,-0.34208 1.3938,-0.40174 0.49503,-0.05965 1.2207,-0.2866 1.6127,-0.50434 0.83082,-0.46154 2.2529,-0.56337 3.0998,-0.22196 0.61617,0.24841 0.60437,0.19973 0.29631,1.223 -0.13014,0.43227 -0.34806,1.4149 -0.48428,2.1837 -0.13622,0.76874 -0.29236,1.468 -0.34698,1.5539 -0.17659,0.2777 -1.4468,0.1715 -1.9657,-0.16434 -0.42424,-0.27461 -0.65588,-0.3043 -1.6836,-0.21578 -0.96264,0.08292 -1.2467,0.05416 -1.4784,-0.14962 -0.57398,-0.50486 -1.7357,-0.61683 -3.6182,-0.34873 -2.2368,0.31856 -2.2994,0.33995 -2.4255,0.82794 -0.17757,0.68765 0.073868,3.7152 0.42394,5.1045 0.42565,1.6893 1.2722,3.8205 1.6719,4.209 0.2567,0.24949 0.37486,0.27101 0.66359,0.12082 0.31682,-0.1648 0.30125,-0.09655 -0.15877,0.69568 -0.28053,0.48312 -0.47377,0.91367 -0.42942,0.95677 0.044347,0.0431 0.5467,-0.14954 1.1163,-0.4281 0.56964,-0.27856 2.0236,-0.82151 3.2309,-1.2066 2.6038,-0.83042 3.1336,-1.2133 3.0724,-2.2208 -0.03643,-0.6001 0.33487,-1.2872 0.6956,-1.2872 0.21462,0 0.25126,1.0103 0.05202,1.4344 -0.29789,0.63408 -0.40332,1.4743 -0.24996,1.9922 l 0.14161,0.47812 0.16581,-0.39843 c 0.21287,-0.51152 0.79489,-1.0272 0.92623,-0.82062 0.05469,0.08601 0.02512,0.34636 -0.06571,0.57856 -0.2059,0.52635 -0.21624,1.517 -0.01584,1.517 0.08212,0 0.5357,-0.37652 1.008,-0.83671 0.47225,-0.46019 0.80339,-0.69327 0.73586,-0.51796 -0.06753,0.17531 -0.30265,0.77612 -0.52248,1.3351 -0.21983,0.55901 -0.36932,1.0459 -0.33219,1.082 0.03713,0.03608 0.40961,-0.1882 0.82775,-0.49841 0.41814,-0.31021 0.80649,-0.56402 0.86301,-0.56402 0.05652,0 0.26042,0.16535 0.45312,0.36744 0.5024,0.52688 0.82666,0.60672 1.0503,0.2586 0.11641,-0.18117 0.29421,-0.26017 0.45259,-0.2011 0.2067,0.07709 0.24956,0.29129 0.20644,1.0318 -0.02993,0.51396 0.0076,0.93434 0.0835,0.93418 0.07585,-1.59e-4 0.43963,-0.2513 0.8084,-0.558101 0.8059,-0.67046 1.145,-0.7232 1.0245,-0.15937 l -0.17022,0.79687 c -0.10502,0.49162 0.03158,0.50288 0.53411,0.04402 0.3308,-0.30204 0.41217,-0.31971 0.55072,-0.11953 0.13717,0.1982 0.20298,0.17888 0.4213,-0.12371 0.14231,-0.19722 0.39296,-0.35859 0.55701,-0.35859 0.45065,0 0.54947,-0.30045 0.21646,-0.6581 -0.27736,-0.297879 -0.31098,-0.30105 -0.50182,-0.04738 -0.19085,0.25368 -0.23225,0.25424 -0.61837,0.0083 -0.2276,-0.144951 -0.52898,-0.43434 -0.66971,-0.6431 -0.14074,-0.208761 -0.40002,-0.4162 -0.5762,-0.46098 -0.17617,-0.04477 -0.32032,-0.183701 -0.32032,-0.308711 0,-0.125019 -0.30301,-0.463979 -0.67336,-0.75324 -1.0077,-0.78707 -1.1415,-1.2432 -1.0725,-3.6552 0.05988,-2.0926 -0.01724,-2.5482 -0.39306,-2.3225 -0.15926,0.09567 -0.18523,-0.01093 -0.11098,-0.45558 0.07182,-0.43014 0.03115,-0.61624 -0.15702,-0.71859 -0.2096,-0.11401 -0.2193,-0.20102 -0.05556,-0.49839 0.16376,-0.29741 0.1462,-0.45443 -0.10064,-0.89992 -0.16446,-0.29681 -0.33758,-0.53965 -0.38471,-0.53965 -0.04713,0 -0.0925,-0.19722 -0.10082,-0.43828 -0.0083,-0.24105 -0.04214,-1.0974 -0.07516,-1.9031 -0.04973,-1.2131 -0.01191,-1.5165 0.2201,-1.7657 0.15407,-0.16547 0.28014,-0.412939 0.28014,-0.54993 0,-0.544929 0.85022,-0.481189 2.1862,0.163901 0.07507,0.03625 0.11724,-0.24684 0.09372,-0.62909 -0.02352,-0.38224 0.05273,-0.86714 0.16943,-1.0775 0.11671,-0.2104 0.22979,-0.96361 0.25129,-1.6738 0.04743,-1.5668 0.14745,-1.9051 0.65965,-2.2313 0.21776,-0.13868 0.59084,-0.5754 0.82906,-0.9705005 0.52409,-0.86919 0.93757,-0.93192 1.3209,-0.2004 0.14927,0.28488 0.53045,0.8640005 0.84708,1.2869005 0.48088,0.64233 0.59508,0.95728 0.69345,1.9125 0.06477,0.62893 0.28204,1.4803 0.48282,1.8919 0.22043,0.45189 0.32288,0.87751 0.2586,1.0743 -0.17513,0.536309 0.05955,0.685339 0.52221,0.33163 0.4475,-0.34212 1.1103,-0.42622 1.2782,-0.16218 0.05574,0.08765 -0.05674,0.15937 -0.24995,0.15937 -0.50765,0 -0.33332,0.287199 0.41754,0.68786 0.35876,0.19144 0.70651,0.419779 0.77276,0.507439 0.20864,0.27601 0.13588,1.6325 -0.1281,2.388201 -0.13948,0.39928 -0.20691,0.79938 -0.14986,0.889099 0.05705,0.08972 0.012,0.27055 -0.10011,0.40185 -0.11211,0.13129 -0.22513,0.64811 -0.25116,1.1485 -0.02603,0.50037 -0.08718,1.3401 -0.1359,1.866 -0.04871,0.52593 -0.11022,1.7477 -0.13668,2.715 -0.0413,1.51 -0.09901,1.8282 -0.40803,2.25 -0.76064,1.0382 -1.8921,1.3228 -2.6193,0.65871 -0.21248,-0.19401 -0.73376,-0.4491 -1.1584,-0.56687 -1.2901,-0.35777 -1.3923,-0.33922 -1.5544,0.28213 -0.35146,1.3467 -0.34246,1.6031 0.06613,1.8843 0.21356,0.14698 0.49906,0.2699 0.63445,0.27316 0.13539,0.0033 0.3255,0.05359 0.42248,0.11184 0.31936,0.19184 0.91147,-0.07444 1.0707,-0.48151 l 0.15641,-0.39985 0.40492,0.36973 c 0.26743,0.24419 0.40492,0.54339 0.40492,0.88116 0,0.3774 0.08595,0.53328 0.32795,0.59479 0.18037,0.04584 0.32795,0.20589 0.32795,0.35566 0,0.252801 -0.02896,0.253861 -0.40417,0.01492 -0.22229,-0.14156 -0.51277,-0.25739 -0.64551,-0.25739 -0.15097,0 -0.26058,-0.18936 -0.29273,-0.50569 -0.06658,-0.65524 -0.40135,-0.7606 -0.49278,-0.15509 -0.07532,0.49881 0.17947,0.97953 0.51919,0.97953 0.11308,0 0.48932,0.3048 0.83607,0.67734 0.45178,0.48537 0.63237,0.59829 0.63719,0.39843 0.0093,-0.38524 0.20967,-0.34909 0.66263,0.11953 0.5276,0.54584 0.69033,0.49979 0.5631,-0.15937 -0.1331,-0.68959 0.0084,-0.69988 0.69745,-0.05074 0.68491,0.64521 0.87743,0.47724 0.34913,-0.30461 -0.59292,-0.87747 -1.0012,-2.1014 -0.62582,-1.8759 0.09019,0.05417 0.16398,0.22421 0.16398,0.37787 0,0.23454 0.79704,0.9768 1.0489,0.9768 0.04308,0 0.03641,-0.25101 -0.01482,-0.55781 -0.08925,-0.53452 0.1234,-0.77006 0.35972,-0.39843 0.05574,0.08765 0.20626,0.15937 0.33449,0.15937 0.18199,0 0.21096,-0.15736 0.13201,-0.71718 -0.11142,-0.79009 0.08406,-0.93135 0.62742,-0.45342 0.2841,0.24989 0.29987,0.23892 0.29987,-0.2086 0,-0.2598 0.10834,-0.61157 0.24075,-0.78172 0.13241,-0.17015 0.2431,-0.4397 0.24596,-0.59901 0.0038,-0.21024 0.08981,-0.26355 0.31381,-0.19445 0.26172,0.08073 0.32543,-0.01391 0.41941,-0.62304 0.1178,-0.76352 0.3582,-1.0672 0.52015,-0.65699 0.05391,0.13654 0.15684,0.21291 0.22873,0.16973 0.1449,-0.08704 3.6243,1.0086 5.1641,1.6262 1.6541,0.66338 3.5687,1.4775 4.3454,1.8477 0.40584,0.19344 0.75584,0.3572 0.77777,0.36391 0.02193,0.0067 -0.21788,0.89942 -0.53292,1.9838 -0.59032,2.0319 -0.64321,2.3417 -0.47327,2.7722 0.15688,0.39735 0.61096,0.29828 1.4347,-0.31301 0.41881,-0.31081 0.76147,-0.5018 0.76147,-0.42442 0,0.07737 -0.37698,1.2461 -0.83773,2.5971 l -0.83773,2.4564 -0.08417,2.9086 -0.08417,2.9086 -0.55388,0 c -0.54123,0 -0.55388,-0.01528 -0.55388,-0.66906 0,-1.2297 0.34134,-3.374 0.8956,-5.6262 0.30201,-1.2272 0.60088,-2.3567 0.66417,-2.5101 0.23936,-0.58015 -0.27099,-0.25469 -0.74873,0.47748 -0.66649,1.0214 -1.3792,3.2527 -1.7182,5.3795 -0.15372,0.96421 -0.34739,2.022 -0.43037,2.3508 l -0.15087,0.59765 -18.775,0 -18.775,0 0.12561,-0.83671 z m 32.025,-7.371 c 0,-0.13148 -0.11068,-0.23906 -0.24596,-0.23906 -0.13528,0 -0.24596,0.10758 -0.24596,0.23906 0,0.13148 0.11068,0.23906 0.24596,0.23906 0.13528,0 0.24596,-0.10758 0.24596,-0.23906 z m -0.98386,-0.23906 c 0,-0.08766 -0.07379,-0.15937 -0.16398,-0.15937 -0.09019,0 -0.16398,0.07172 -0.16398,0.15937 0,0.08765 0.07379,0.15937 0.16398,0.15937 0.09019,0 0.16398,-0.07172 0.16398,-0.15937 z m -15.086,-5.419 c 0,-0.17531 -0.07379,-0.31875 -0.16398,-0.31875 -0.09019,0 -0.16398,0.14344 -0.16398,0.31875 0,0.17531 0.07379,0.31875 0.16398,0.31875 0.09019,0 0.16398,-0.14344 0.16398,-0.31875 z m 7.1277,-9.3916 c 0.26955,-0.58097 0.26502,-0.63856 -0.15543,-1.9783 -0.4158,-1.3249 -0.59318,-1.5822 -0.83198,-1.2067 -0.0784,0.12329 -0.16395,0.12019 -0.29664,-0.01073 -0.13966,-0.13781 -0.1107,-0.23836 0.11537,-0.40062 0.33345,-0.23932 0.2653,-0.71171 -0.15115,-1.0476 -0.50513,-0.40746 -0.5975,0.0412 -0.40033,1.9445 0.10321,0.99633 0.18664,2.3079 0.18539,2.9147 -0.0013,0.60673 0.03947,1.1688 0.09048,1.249 0.13959,0.21952 1.128,-0.78255 1.4443,-1.4642 z m -6.7177,-7.0238 c 0.05574,-0.08766 -0.01369,-0.15937 -0.1543,-0.15937 -0.1406,0 -0.25564,0.07172 -0.25564,0.15937 0,0.08766 0.06943,0.15937 0.1543,0.15937 0.08486,0 0.1999,-0.07172 0.25564,-0.15937 z m 1.5103,14.981 c 0.04717,-0.17531 0.18784,-0.31875 0.3126,-0.31875 0.2791,0 0.29201,0.19166 0.03007,0.44624 -0.29383,0.28558 -0.43925,0.23147 -0.34267,-0.1275 z m 4.9668,-1.1156 c 0,-0.33291 0.06976,-0.48208 0.20497,-0.43828 0.11273,0.03652 0.20497,0.23375 0.20497,0.43828 0,0.20453 -0.09224,0.40175 -0.20497,0.43828 -0.13521,0.0438 -0.20497,-0.10536 -0.20497,-0.43828 z m 18.3,0.01753 c -0.15426,-0.16567 -0.73756,-0.52048 -1.2962,-0.78848 -1.7548,-0.84177 -1.6831,-0.69168 -1.1176,-2.3412 0.67188,-1.9598 1.0323,-3.8148 1.0613,-5.4625 l 0.02442,-1.3862 -1.1864,-0.02362 c -0.74516,-0.01483 -1.5074,-0.14364 -2.0497,-0.34635 -1.8949,-0.70834 -3.6793,-0.9848 -5.7826,-0.89586 -2.092,0.08845 -2.0891,0.02379 0.02403,-0.54593 0.80151,-0.2161 0.9877,-0.55152 0.61391,-1.106 -0.25487,-0.37806 -0.25319,-0.41547 0.02762,-0.61504 0.16445,-0.11687 0.41605,-0.21249 0.55912,-0.21249 0.14307,0 0.4317,-0.1168 0.6414,-0.25956 0.47977,-0.32661 2.1977,-0.2058 4.0788,0.28685 2.9629,0.77594 3.0862,0.61323 1.8885,-2.492 -0.46416,-1.2034 -0.98587,-1.8384 -1.5105,-1.8384 -0.18318,0 -0.64772,-0.08115 -1.0323,-0.18033 -0.59729,-0.15404 -0.88888,-0.1284 -1.9998,0.17582 -1.1028,0.30198 -1.5142,0.339 -2.7056,0.24341 -0.77277,-0.06201 -1.4679,-0.1499 -1.5448,-0.19531 -0.2348,-0.1387 1.4534,-0.94695 2.2133,-1.0596 0.82281,-0.12203 3.9116,-1.3761 3.9116,-1.5882 0,-0.4962 -2.2225,-2.7938 -3.3615,-3.4752 -0.486,-0.2899 -0.425,-0.2939 4.386,-0.2945 l 4.8783,-5.957e-4 0,12.3509997 c 0,13.087 0.01473,12.841 -0.72157,12.05 z"
         inkscape:connector-curvature="0"
         style="fill:#991a0c" />
      <path
         id="path4956"
         d="m 3.3848,6.3203 0.015625,14.543 c 0.012083,11.985 0.050619,14.413 0.2207,13.814 0.33269,-1.1716 2.2925,-3.9024 3.1035,-4.3242 0.28178,-0.14657 0.30113,-0.11902 0.19727,0.2832 -0.063304,0.24514 -0.25092,0.63332 -0.41797,0.86133 -0.16704,0.228 -0.4716,0.87712 -0.67578,1.4434 -0.32152,0.89163 -0.37325,1.3606 -0.38281,3.5 -0.00607,1.3587 0.047035,2.9552 0.11719,3.5469 0.12214,1.0301 0.11364,1.0742 -0.2207,1.0742 -0.3334,0 -0.3446,0.04984 -0.23633,1.0977 0.062362,0.60354 0.048787,1.1367 -0.029297,1.1836 -0.0781,0.048 -0.4346,-0.264 -0.793,-0.691 -0.3584,-0.427 -0.7126,-0.78 -0.7871,-0.785 -0.11547,-0.0068 -0.08833,0.93689 0.089844,3.1016 0.021645,0.26297 -0.01685,0.85426 -0.085937,1.3145 l -0.125,0.83594 18.773,0 18.775,0 0.15039,-0.59766 c 0.08298,-0.32871 0.27596,-1.3854 0.42969,-2.3496 0.33908,-2.1268 1.0523,-4.3594 1.7188,-5.3809 0.47774,-0.73217 0.98741,-1.0567 0.74805,-0.47656 -0.06329,0.1534 -0.36206,1.2826 -0.66406,2.5098 -0.55426,2.2522 -0.89453,4.3973 -0.89453,5.627 0,0.65378 0.0115,0.66797 0.55274,0.66797 l 0.55469,0 0.08398,-2.9082 0.08398,-2.9082 0.83789,-2.457 c 0.46075,-1.351 0.83789,-2.5203 0.83789,-2.5977 0,-0.07737 -0.34291,0.11497 -0.76172,0.42578 -0.8237,0.61129 -1.2767,0.70985 -1.4336,0.3125 -0.16934,-0.4289 -0.1166,-0.76745 0.39062,-2.4766 0.27,-0.90978 0.4917,-1.7994 0.49219,-1.9766 0.0013,-0.41208 -0.94892,-0.88895 -5,-2.5137 -1.6225,-0.65072 -5.0231,-1.7124 -5.1816,-1.6172 -0.08135,0.04886 -0.14844,0.01275 -0.14844,-0.08008 0,-0.09283 -0.10657,-0.16797 -0.23633,-0.16797 -0.15412,0 -0.27293,0.24905 -0.3457,0.7207 -0.09452,0.61263 -0.16,0.70773 -0.42188,0.62695 -0.224,-0.0691 -0.3087,-0.01493 -0.3125,0.19531 -0.0029,0.1593 -0.11368,0.42946 -0.24609,0.59961 -0.13241,0.17015 -0.24023,0.52145 -0.24023,0.78125 0,0.44752 -0.01668,0.45887 -0.30078,0.20898 -0.54336,-0.47794 -0.73838,-0.33696 -0.62695,0.45312 0.07895,0.55982 0.04918,0.7168 -0.13281,0.7168 -0.12823,0 -0.27824,-0.07251 -0.33398,-0.16016 -0.23631,-0.37163 -0.44862,-0.13609 -0.35938,0.39844 0.05122,0.30679 0.04098,0.55859 -0.02344,0.55859 -0.20831,0 -1.1758,-0.93175 -1.1758,-1.1328 0,-0.10721 -0.03653,-0.15946 -0.08203,-0.11524 -0.1305,0.12684 0.26374,1.1106 0.70898,1.7695 0.5283,0.78185 0.3353,0.9499 -0.34961,0.30469 -0.68905,-0.64914 -0.83037,-0.63881 -0.69727,0.05078 0.12723,0.65916 -0.0349,0.70405 -0.5625,0.1582 -0.45296,-0.46862 -0.65476,-0.50438 -0.66406,-0.11914 -0.0048,0.19986 -0.18493,0.08693 -0.63672,-0.39844 -0.34676,-0.37254 -0.72285,-0.67773 -0.83594,-0.67773 -0.33971,0 -0.59485,-0.4797 -0.51953,-0.97852 0.09144,-0.6055 0.42756,-0.50094 0.49414,0.1543 0.03214,0.31633 0.14004,0.50586 0.29102,0.50586 0.13274,0 0.42419,0.11625 0.64648,0.25781 0.37521,0.23894 0.4043,0.23717 0.4043,-0.01563 0,-0.14977 -0.14775,-0.30963 -0.32812,-0.35547 -0.242,-0.06151 -0.32812,-0.21635 -0.32812,-0.59375 0,-0.33778 -0.13687,-0.63667 -0.4043,-0.88086 l -0.40625,-0.37109 -0.15625,0.40039 c -0.15924,0.40707 -0.75095,0.67426 -1.0703,0.48242 -0.09698,-0.05825 -0.28649,-0.10998 -0.42188,-0.11328 -0.13539,-0.0033 -0.42121,-0.12646 -0.63477,-0.27344 -0.31112,-0.21415 -0.37368,-0.37245 -0.3125,-0.79688 0.04199,-0.2913 0.13681,-0.67234 0.21094,-0.84766 0.13071,-0.30913 0.1251,-0.3092 -0.20117,-0.03125 -0.19052,0.16231 -0.62931,0.29768 -1.0117,0.3125 -0.68964,0.02673 -0.87055,0.17005 -0.42578,0.33594 0.13663,0.05096 0.3177,0.27276 0.4043,0.49414 0.0866,0.22139 0.26153,0.40234 0.38867,0.40234 0.12714,0 0.35309,0.17857 0.5,0.39648 0.14691,0.21792 0.45208,0.51521 0.67969,0.66016 0.38612,0.24594 0.42829,0.24587 0.61914,-0.0078 0.19084,-0.25367 0.22459,-0.251 0.50195,0.04687 0.33301,0.35765 0.23385,0.6582 -0.2168,0.6582 -0.16405,0 -0.41433,0.1602 -0.55664,0.35742 -0.21833,0.30258 -0.2847,0.3232 -0.42188,0.125 -0.13854,-0.20018 -0.21998,-0.1829 -0.55078,0.11914 -0.50253,0.45886 -0.63822,0.4467 -0.5332,-0.04492 l 0.16992,-0.79688 c 0.12044,-0.56383 -0.21949,-0.5103 -1.0254,0.16016 -0.36877,0.30679 -0.73274,0.55844 -0.80859,0.55859 -0.0759,1.61e-4 -0.11196,-0.42159 -0.08203,-0.93555 0.04312,-0.74048 -3.3e-4,-0.95416 -0.20703,-1.0312 -0.15838,-0.05907 -0.33672,0.02001 -0.45312,0.20117 -0.22368,0.34811 -0.54838,0.26907 -1.0508,-0.25781 -0.1927,-0.20209 -0.3966,-0.36719 -0.45312,-0.36719 -0.05652,-10e-7 -0.44515,0.25229 -0.86328,0.5625 -0.41814,0.31021 -0.78904,0.53608 -0.82617,0.5 -0.03713,-0.03608 0.1122,-0.52303 0.33203,-1.082 0.21983,-0.55901 0.45395,-1.1606 0.52148,-1.3359 0.06753,-0.17531 -0.26408,0.05739 -0.73633,0.51758 -0.47225,0.46019 -0.92569,0.83789 -1.0078,0.83789 -0.2004,0 -0.18832,-0.99123 0.01758,-1.5176 0.09083,-0.2322 0.11914,-0.49212 0.06445,-0.57812 -0.13134,-0.20655 -0.71291,0.30879 -0.92578,0.82031 l -0.16602,0.39844 -0.14062,-0.47852 c -0.15337,-0.51782 -0.04789,-1.3581 0.25,-1.9922 0.19924,-0.42409 0.16189,-1.4336 -0.05273,-1.4336 -0.36074,0 -0.73174,0.68701 -0.69531,1.2871 0.06116,1.0075 -0.46843,1.3903 -3.0723,2.2207 -1.2074,0.38506 -2.6628,0.92652 -3.2324,1.2051 -0.56964,0.27856 -1.0709,0.47279 -1.1152,0.42969 -0.044347,-0.0431 0.14916,-0.47391 0.42969,-0.95703 0.46002,-0.79223 0.47503,-0.86011 0.1582,-0.69531 -0.28874,0.15019 -0.40736,0.1284 -0.66406,-0.12109 -0.398,-0.388 -1.2446,-2.519 -1.6702,-4.209 -0.3501,-1.389 -0.6014,-4.417 -0.4238,-5.105 0.126,-0.488 0.189,-0.51 2.4257,-0.828 1.8825,-0.2681 3.0452,-0.15525 3.6191,0.34961 0.23168,0.20378 0.51392,0.23331 1.4766,0.15039 1.0277,-0.08852 1.2593,-0.05977 1.6836,0.21484 0.51885,0.33585 1.7902,0.44176 1.9668,0.16406 0.05462,-0.0859 0.21144,-0.78399 0.34766,-1.5527 0.13622,-0.76874 0.35424,-1.7513 0.48438,-2.1836 0.30806,-1.0233 0.31929,-0.9762 -0.29688,-1.2246 -0.84687,-0.34141 -2.2688,-0.23889 -3.0996,0.22266 -0.39194,0.21774 -1.1182,0.44426 -1.6133,0.50391 -0.49503,0.05965 -1.123,0.24104 -1.3945,0.40234 -0.29796,0.17699 -1.0015,0.33917 -1.7754,0.4082 -0.99512,0.08876 -1.3852,0.19794 -1.7402,0.48828 -0.68617,0.56117 -1.3306,0.76342 -1.5996,0.50195 -0.18319,-0.17804 -0.16642,-0.41012 0.095703,-1.4062 0.37898,-1.4402 1.064,-3.1224 1.4355,-3.5215 0.19202,-0.20622 0.50573,-0.29102 1.0684,-0.29102 0.5148,10e-7 1.3008,-0.19194 2.2285,-0.54297 0.83596,-0.3163 1.9097,-0.5893 2.5762,-0.6543 0.62861,-0.06131 1.4782,-0.24164 1.8867,-0.40039 l 0.74219,-0.28711 -0.60938,-0.25391 c -0.335,-0.139 -0.742,-0.253 -0.902,-0.254 -0.161,-10e-4 -0.655,-0.11 -1.098,-0.241 -0.443,-0.13 -1.302,-0.2358 -1.912,-0.2358 -1.2413,0 -1.627,-0.0949 -1.627,-0.4024 0,-0.28561 2.0765,-2.3448 2.7871,-2.7637 l 0.57422,-0.33984 -4.5508,0 z m 37.1,0 c -4.8115,5.876e-4 -4.8719,0.00468 -4.3867,0.29492 1.1391,0.68138 3.3633,2.9784 3.3633,3.4746 0,0.21205 -3.0893,1.4678 -3.9121,1.5898 -0.75991,0.1127 -2.4477,0.91989 -2.2129,1.0586 0.07688,0.04542 0.77215,0.1333 1.5449,0.19531 1.1914,0.09559 1.6023,0.05784 2.7051,-0.24414 1.1109,-0.30422 1.4027,-0.32982 2,-0.17578 0.38459,0.09918 0.84807,0.18164 1.0312,0.18164 0.52467,1e-6 1.0476,0.63446 1.5117,1.8379 1.1977,3.1052 1.0742,3.2681 -1.8887,2.4922 -1.8811,-0.49265 -3.6003,-0.61372 -4.0801,-0.28711 -0.2097,0.14276 -0.49756,0.25977 -0.64062,0.25977 -0.14307,0 -0.39414,0.09602 -0.55859,0.21289 -0.28081,0.19957 -0.28221,0.23718 -0.02734,0.61523 0.37379,0.55446 0.18628,0.88937 -0.61524,1.1055 -2.1131,0.56972 -2.1154,0.63337 -0.02344,0.54492 2.1033,-0.08893 3.8883,0.18814 5.7832,0.89648 0.54226,0.20271 1.3037,0.33087 2.0488,0.3457 l 1.1875,0.02344 -0.02539,1.3867 c -0.02902,1.6476 -0.38867,3.5031 -1.0605,5.4629 -0.56549,1.6495 -0.6376,1.5 1.1172,2.3418 0.55866,0.26799 1.1426,0.62144 1.2969,0.78711 0.7363,0.79077 0.7207,1.0381 0.7207,-12.049 l 0,-12.352 z m -18.311,7.7167 c -0.05584,0.02374 -0.0957,0.13398 -0.0957,0.28906 0,0.20678 -0.08894,0.46307 -0.19727,0.56836 -0.11228,0.10914 -0.17689,0.50694 -0.15039,0.92578 0.02557,0.40406 -0.01477,0.70422 -0.08984,0.66797 -1.336,-0.64509 -2.1855,-0.70704 -2.1855,-0.16211 0,0.13699 -0.12522,0.38336 -0.2793,0.54883 -0.232,0.24917 -0.27043,0.55248 -0.2207,1.7656 0.03302,0.80564 0.06592,1.6613 0.07422,1.9023 0.0083,0.24105 0.05443,0.43945 0.10156,0.43945 0.04713,0 0.2203,0.24225 0.38477,0.53906 0.24684,0.44549 0.26337,0.60298 0.09961,0.90039 -0.16374,0.29737 -0.15296,0.38404 0.05664,0.49805 0.1856,0.10096 0.22836,0.28877 0.16016,0.69727 -0.07676,0.45977 -0.04808,0.5425 0.16016,0.46484 0.3631,-0.13541 0.43788,0.26198 0.37109,1.9727 -0.03192,0.81735 -0.02802,1.4547 0.0098,1.418 0.0378,-0.03673 0.27335,-0.66273 0.52148,-1.3926 0.24813,-0.72985 0.5299,-1.3533 0.62695,-1.3848 0.15902,-0.05152 0.72116,1.32 0.72266,1.7637 3.39e-4,0.0995 0.22035,0.61079 0.49023,1.1367 0.26988,0.52593 0.49185,1.0917 0.49219,1.2559 4.97e-4,0.2406 0.04542,0.26179 0.23438,0.10938 0.18232,-0.14707 0.40268,-0.13529 0.99023,0.05859 0.41538,0.13707 0.85039,0.25 0.9668,0.25 0.11641,0 0.38389,0.1793 0.5957,0.39844 0.41482,0.42916 1.5138,0.56675 1.7363,0.2168 0.08131,-0.12788 -0.0096,-0.15206 -0.30469,-0.08008 -0.57821,0.14105 -0.90689,-0.01284 -1.1973,-0.55859 -0.3,-0.56385 -0.18642,-1.3184 0.36914,-2.4473 0.51813,-1.0528 1.0926,-1.9917 1.2207,-1.9922 0.05664,-2.35e-4 0.26738,0.4251 0.4668,0.94336 0.37034,0.96247 0.41579,2.5351 0.0957,3.2812 -0.12554,0.29263 -0.10495,0.28964 0.25,-0.03906 0.35456,-0.32834 0.39112,-0.50759 0.43555,-2.1523 0.02665,-0.98643 0.08801,-2.2241 0.13672,-2.75 0.04872,-0.52593 0.11069,-1.3649 0.13672,-1.8652 0.02603,-0.50037 0.13789,-1.0171 0.25,-1.1484 0.11211,-0.13129 0.15861,-0.31262 0.10156,-0.40234 -0.05705,-0.08972 0.009,-0.48939 0.14844,-0.88867 0.26398,-0.7557 0.33754,-2.1127 0.12891,-2.3887 -0.06626,-0.08766 -0.41468,-0.31638 -0.77344,-0.50781 -0.75086,-0.40066 -0.92562,-0.6875 -0.41797,-0.6875 0.19321,0 0.30574,-0.07251 0.25,-0.16016 -0.16642,-0.26171 -0.82903,-0.18098 -1.2676,0.1543 -0.50564,0.38657 -0.65251,0.26705 -0.51953,-0.42187 0.0673,-0.34866 0.03943,-0.5293 -0.08398,-0.5293 -0.20779,0 -0.21599,0.01786 -0.5918,1.3164 -0.35278,1.219 -1.1234,2.0312 -1.9258,2.0312 -0.46177,0 -0.68462,-0.11966 -1.1094,-0.58984 -0.84423,-0.93454 -1.3585,-2.2126 -1.25,-3.1113 0.04995,-0.41392 0.02119,-0.79426 -0.06445,-0.8457 -0.02141,-0.01286 -0.04193,-0.01572 -0.06055,-0.0078 z m -2.4629,2.6426 c 0.14061,0 0.21004,0.07054 0.1543,0.1582 -0.05574,0.08765 -0.171,0.16016 -0.25586,0.16016 -0.08487,0 -0.1543,-0.0725 -0.1543,-0.16016 0,-0.08765 0.11526,-0.1582 0.25586,-0.1582 z m 7.2012,0.90039 c 0.12582,0.02247 0.17472,0.29053 0.11719,0.76953 -0.03699,0.30796 -0.1572,0.56055 -0.26758,0.56055 -0.48529,0 -0.55918,-0.53117 -0.15234,-1.0957 0.12442,-0.17266 0.22724,-0.24786 0.30273,-0.23438 z m -4.6758,0.22656 c 0.22407,0.0376 0.6956,0.60321 0.58984,0.76953 -0.19926,0.31335 -0.54588,0.18523 -0.65625,-0.24219 -0.05926,-0.22948 -0.06371,-0.45924 -0.01172,-0.50976 0.01944,-0.0189 0.04612,-0.02295 0.07813,-0.01758 z m 2.5508,1.1035 c 0.11346,0 0.6189,0.33137 1.125,0.73633 0.80809,0.64659 0.96193,0.86414 1.2559,1.7891 0.26569,0.83608 0.31146,1.2761 0.22461,2.1328 -0.06018,0.59356 -0.18243,1.0801 -0.27148,1.0801 -0.08909,0 -0.12554,-0.18111 -0.08203,-0.40234 0.0999,-0.50794 -0.11523,-0.65197 -0.39844,-0.26562 -0.1189,0.16221 -0.41833,0.52862 -0.66602,0.8125 -0.73578,0.84331 -1.2232,0.79106 -2.418,-0.25977 -0.98441,-0.86584 -1.0123,-0.91476 -0.95703,-1.5898 0.04815,-0.58842 0.02471,-0.65398 -0.14844,-0.42383 -0.35126,0.46689 -0.43703,0.09822 -0.25,-1.0762 0.12611,-0.79183 0.2923,-1.248 0.55664,-1.5215 0.37262,-0.3855 1.6289,-1.0117 2.0293,-1.0117 z m 2.2305,0.47852 c 0.09131,0 0.52953,0.36252 0.97461,0.80664 0.59692,0.59564 0.80859,0.93055 0.80859,1.2754 0,0.5214 -0.04412,0.56001 -0.29883,0.26172 -0.54569,-0.63906 -1.6252,-2.3438 -1.4844,-2.3438 z m 2.1934,1.2754 c 0.13528,0 0.24609,0.07054 0.24609,0.1582 0,0.08765 -0.11081,0.16016 -0.24609,0.16016 -0.13528,0 -0.24609,-0.0725 -0.24609,-0.16016 0,-0.08765 0.11081,-0.1582 0.24609,-0.1582 z m -8.2949,0.33789 c 0.04995,-0.0051 0.09833,0.0077 0.13867,0.04687 0.05627,0.05469 -0.02137,0.22096 -0.17383,0.36914 -0.25563,0.24844 -0.27734,0.24914 -0.27734,0.0059 0,-0.2179 0.16266,-0.40671 0.3125,-0.42188 z m 1.4062,3.6465 c 0.18981,0 0.74023,0.90329 0.74023,1.2148 0,0.19701 -0.35356,-0.0018 -0.64453,-0.36133 -0.39881,-0.49278 -0.43914,-0.85352 -0.0957,-0.85352 z m 4.053,0.797 c 0.36067,0 -0.12332,0.98725 -0.83984,1.7129 -0.42605,0.43148 -0.60163,0.449 -0.81445,0.08008 -0.1308,-0.22673 -0.0031,-0.42171 0.68164,-1.0371 0.46326,-0.41636 0.90097,-0.75586 0.97266,-0.75586 z m -1.4844,3.0273 c 0.43195,0 0.4767,0.03455 0.30273,0.23828 -0.11227,0.13148 -0.29752,0.24023 -0.41211,0.24023 -0.11459,0 -0.25082,-0.10875 -0.30273,-0.24023 -0.07135,-0.18072 0.02894,-0.23828 0.41211,-0.23828 z m 1.6562,1.793 c -0.13521,-0.0438 -0.20508,0.10459 -0.20508,0.4375 0,0.33291 0.06987,0.48325 0.20508,0.43945 0.11273,-0.03652 0.20508,-0.23492 0.20508,-0.43945 0,-0.20453 -0.09235,-0.40098 -0.20508,-0.4375 z m -4.859,1.235 c -0.12476,0 -0.26533,0.145 -0.3125,0.32031 -0.09658,0.35897 0.04992,0.41253 0.34375,0.12695 0.262,-0.254 0.248,-0.447 -0.031,-0.447 z m -2.3965,1.4355 c 0.09019,0 0.16406,0.14305 0.16406,0.31836 0,0.17531 -0.07387,0.31836 -0.16406,0.31836 -0.09019,0 -0.16406,-0.14305 -0.16406,-0.31836 0,-0.17531 0.07387,-0.31836 0.16406,-0.31836 z m -13.71,8.923 c 0.25072,0 0.42773,0.33554 0.42773,0.81055 0,0.39466 -0.19556,0.38913 -0.45312,-0.01172 -0.26998,-0.42017 -0.25773,-0.79883 0.025391,-0.79883 z"
         inkscape:connector-curvature="0"
         style="fill:#5e1f17" />
      <path
         id="path4954"
         d="m 6.2462,46.946 c -0.060595,-0.09529 -0.032226,-0.24902 0.063042,-0.34161 0.23778,-0.23111 0.085741,-3.5837 -0.25853,-5.7007 -0.1692,-1.04 -0.2751,-2.669 -0.2799,-4.303 -0.00749,-2.5466 0.00665,-2.6599 0.44747,-3.5859 0.45998,-0.96626 0.68879,-1.1648 2.1684,-1.8817 0.64762,-0.31377 5.8459,-2.0545 5.9161,-1.9812 0.01995,0.02083 0.09983,0.35331 0.1775,0.73884 0.15634,0.77596 0.6179,1.2124 0.86874,0.82139 0.11563,-0.18022 0.17235,-0.1366 0.25907,0.19922 0.12676,0.49086 0.33897,0.5358 0.85887,0.18187 0.32393,-0.22052 0.36444,-0.22112 0.36444,-0.0054 0,0.13348 -0.12391,0.49524 -0.27535,0.8039 -0.33968,0.69233 -0.2309,0.82238 0.41595,0.49728 0.71597,-0.35985 0.84923,-0.31967 0.73769,0.22239 -0.05356,0.26026 -0.04673,0.60092 0.01516,0.75702 0.09746,0.24579 0.17638,0.20908 0.58899,-0.27398 l 0.47645,-0.55781 0.0044,0.6643 c 0.0094,1.4207 0.47731,1.5665 1.0649,0.33178 l 0.3982,-0.83671 -0.02325,0.673 c -0.01279,0.37015 0.02483,0.71973 0.0836,0.77685 0.05877,0.05712 0.337,-0.08436 0.61829,-0.31441 0.94054,-0.7692 1.4095,-0.42816 0.74776,0.54376 -0.23401,0.34368 -0.42547,0.66227 -0.42547,0.70798 0,0.17985 0.4632,0.06972 0.6559,-0.15596 0.25997,-0.30446 0.45335,-0.30452 0.5209,-1.59e-4 0.03705,0.16694 0.35662,-0.02451 1.061,-0.63566 0.75776,-0.65742 1.0313,-0.81566 1.1017,-0.63733 0.12211,0.30927 0.59588,0.30782 0.59588,-0.0018 0,-0.26701 0.25604,-0.32172 0.40551,-0.08665 0.0533,0.08383 0.19958,0.11412 0.32505,0.06733 0.12712,-0.04741 0.30801,0.05996 0.40852,0.2425 0.09921,0.18017 0.36313,0.50521 0.58649,0.7223 0.22336,0.21709 0.40611,0.51433 0.40611,0.66053 0,0.21821 0.04405,0.23029 0.24596,0.06742 0.13528,-0.10912 0.24596,-0.31154 0.24596,-0.44982 0,-0.19555 0.04373,-0.20892 0.19677,-0.06017 0.28398,0.27601 0.90956,0.23502 1.0859,-0.07117 0.14028,-0.24364 0.17868,-0.24364 0.53656,0 0.53817,0.36637 0.86771,0.34134 0.74156,-0.05633 -0.05561,-0.17531 -0.14531,-0.45732 -0.19932,-0.6267 -0.08191,-0.25686 -0.03685,-0.29235 0.27161,-0.21395 0.34316,0.08722 0.3631,0.05376 0.27663,-0.46413 -0.08851,-0.53012 -0.07207,-0.5542 0.32759,-0.47995 0.39755,0.07386 0.41489,0.04958 0.31414,-0.44003 -0.08963,-0.43556 -0.0642,-0.50238 0.15947,-0.41896 0.36226,0.13511 0.71647,-0.18274 0.71647,-0.64294 0,-0.27107 0.09217,-0.37892 0.32385,-0.37892 0.27238,0 0.30822,-0.07599 0.22547,-0.47812 -0.07475,-0.36326 -0.03859,-0.47812 0.15053,-0.47812 0.27417,0 0.44445,-0.31832 0.45455,-0.84974 0.006,-0.31516 0.02808,-0.307 0.2512,0.09272 0.13455,0.24105 0.31607,0.43828 0.40338,0.43828 0.08731,0 0.15874,0.21515 0.15874,0.47812 0,0.36148 -0.07511,0.47812 -0.30787,0.47812 -0.36826,0 -0.59478,0.25161 -0.73255,0.81374 -0.08955,0.36535 -0.02541,0.44878 0.53327,0.69364 0.5844,0.25613 1.3309,0.23138 1.3245,-0.04391 -0.0047,-0.20248 -0.24206,-0.45029 -0.53041,-0.55369 -0.38239,-0.13712 -0.36402,-0.37489 0.03682,-0.47677 0.17808,-0.04526 0.48052,-0.3405 0.6721,-0.65608 0.38005,-0.62606 0.64908,-0.7127 0.98639,-0.31768 0.16646,0.19494 0.38978,0.23332 0.93502,0.16068 0.55534,-0.07398 0.90686,-0.0098 1.5641,0.28538 0.46629,0.20944 1.4381,0.53794 2.1596,0.72998 1.5297,0.40717 2.6927,1.1524 2.7005,1.7306 0.0028,0.20553 -0.14295,0.85099 -0.32387,1.4344 -0.18092,0.58337 -0.51122,2.2082 -0.734,3.6106 -0.22278,1.4025 -0.55609,3.0879 -0.74068,3.7453 -0.18459,0.65741 -0.46178,2.1097 -0.61596,3.2273 l -0.28034,2.032 -17.252,0 c -12.246,0 -17.284,-0.05027 -17.362,-0.17326 z m 17.69,-3.397 c 0.10977,-0.27803 -0.0212,-0.41402 -0.39875,-0.41402 -0.33669,0 -0.5393,0.24693 -0.39229,0.47812 0.15047,0.23663 0.68955,0.19294 0.79104,-0.0641 z m -0.24198,-4.5394 c 0.12161,-0.0749 0.19476,-0.27103 0.16257,-0.43584 -0.07505,-0.38426 -0.87421,-0.50166 -1.0135,-0.1489 -0.22455,0.56874 0.29606,0.92649 0.85091,0.58473 z m 19.21,7.791 c 0,-0.17531 0.02829,-0.31875 0.06286,-0.31875 0.03458,0 0.10146,0.14344 0.14862,0.31875 0.04717,0.17531 0.01888,0.31875 -0.06286,0.31875 -0.08174,0 -0.14862,-0.14344 -0.14862,-0.31875 z m -39.519,-26.111 0,-14.37 4.4683,0.00719 c 3.6294,0.00584 4.384,0.043241 4.019,0.19922 -0.55336,0.23649 -2.4186,1.9778 -2.7319,2.5504 -0.36882,0.67405 -0.068841,0.84677 1.664,0.9581 1.4757,0.09481 2.495,0.31842 2.8291,0.62063 0.28232,0.25542 -0.35243,0.55752 -1.4175,0.67463 -0.55106,0.0606 -1.7023,0.35659 -2.5584,0.65777 -0.85604,0.30118 -1.8378,0.5476 -2.1816,0.5476 -0.7858,0 -1.0866,0.37866 -1.873,2.3577 -0.98591,2.4812 -0.94109,3.5046 0.14597,3.3331 0.29068,-0.04585 0.80748,-0.26736 1.1485,-0.49225 0.34097,-0.22489 0.88923,-0.44712 1.2184,-0.49383 1.5162,-0.21518 3.8563,-0.82394 5.8292,-1.5164 0.68184,-0.23931 1.151,-0.3094 1.5893,-0.23743 1.0045,0.16494 1.0676,0.34633 0.73762,2.1187 -0.5261,2.8255 -0.64981,2.9762 -1.9867,2.4192 -0.56344,-0.23474 -1.0944,-0.32064 -1.8674,-0.30208 -0.71178,0.01708 -1.2993,-0.06718 -1.7231,-0.24712 -1.4775,-0.62736 -4.7663,-0.58976 -5.6589,0.06469 -1.1767,0.86264 -0.66995,5.9287 0.89945,8.9927 l 0.7245,1.414 -0.4733,0.578 c -0.2602,0.317 -0.6708,0.757 -0.9122,0.975 -0.6671,0.605 -1.5794,2.164 -1.6405,2.803 -0.1951,2.04 -0.2488,-0.896 -0.2488,-13.613 z m 41.258,9.6536 c -0.62044,-0.58524 -0.62971,-0.6101 -0.34262,-0.91842 0.16229,-0.1743 0.25104,-0.35971 0.19721,-0.41202 -0.05383,-0.05232 -0.52685,-0.10566 -1.0512,-0.11855 -0.91399,-0.02247 -0.95547,-0.04173 -1.0057,-0.4669 -0.02882,-0.2439 0.05948,-0.78179 0.19621,-1.1953 0.13674,-0.41351 0.36688,-1.3973 0.51143,-2.1862 0.14455,-0.7889 0.34097,-1.8288 0.43649,-2.3109 0.09552,-0.4821 0.1656,-1.0484 0.15573,-1.2585 -0.0099,-0.21006 0.06494,-0.479 0.16626,-0.59765 0.2388,-0.27966 1.0345,-0.27804 1.2742,0.0026 0.1325,0.15518 0.17388,1.642 0.14306,5.1408 l -0.04336,4.9225 z m -21.729,-3.172 c -0.24683,-0.68817 -0.07012,-0.78474 0.42104,-0.2301 0.31966,0.36097 0.36118,0.49036 0.19102,0.59521 -0.34635,0.21342 -0.4204,0.16925 -0.61206,-0.36511 z m -2.147,-3.0295 c 0,-0.27798 -0.10196,-0.61864 -0.22657,-0.75702 -0.30417,-0.33778 -0.49294,-0.96879 -0.28982,-0.96879 0.08889,0 0.27833,-0.04353 0.42099,-0.09674 0.21109,-0.07873 0.25938,0.02759 0.25938,0.57109 0,0.8669 0.38869,0.79265 0.46189,-0.08824 0.02857,-0.34384 0.1284,-0.69689 0.22185,-0.78455 0.24161,-0.22665 0.0195,1.1011 -0.32649,1.9517 -0.32712,0.80424 -0.52123,0.86848 -0.52123,0.17253 z m -1.313,-4.198 c -0.23959,-0.83171 -0.12054,-2.0254 0.258,-2.5869 0.34402,-0.51031 0.88055,-0.414 1.2978,0.23297 0.18179,0.28185 0.41666,0.48361 0.52193,0.44834 0.54454,-0.18243 0.35504,1.3559 -0.25958,2.1071 -0.33798,0.41312 -0.54389,0.51796 -1.0173,0.51796 -0.56388,4e-6 -0.60398,-0.03602 -0.80085,-0.71945 z m 19.268,-0.35 c -0.27056,-0.14293 -0.89777,-0.28759 -1.3938,-0.32148 -0.49603,-0.03389 -1.1672,-0.12902 -1.4915,-0.21141 -0.54682,-0.13891 -0.58712,-0.19067 -0.55455,-0.71213 0.01932,-0.30928 0.15976,-0.69619 0.31209,-0.85979 0.40642,-0.43648 1.8494,-0.57407 2.7844,-0.26551 0.42001,0.1386 0.95979,0.20424 1.2367,0.15041 0.27114,-0.05271 0.76909,0.0045 1.1108,0.12768 0.38367,0.13826 0.93142,0.191 1.4393,0.13858 0.72142,-0.07447 0.82669,-0.13248 0.87658,-0.48306 0.03119,-0.21914 0.12082,-0.47445 0.19918,-0.56736 0.08184,-0.09704 0.06461,-0.41553 -0.0405,-0.74839 -0.17105,-0.54169 -0.14907,-0.617 0.33735,-1.1554 0.49941,-0.55283 0.54922,-0.87678 0.13448,-0.87464 -0.10741,5.57e-4 -0.32374,0.22035 -0.48072,0.48844 -0.34072,0.58186 -0.47886,0.52489 -0.93165,-0.38419 -0.4861,-0.97595 -0.93221,-1.3179 -2.1004,-1.61 -0.96651,-0.24169 -1.11,-0.23808 -2.6494,0.06682 -1.92,0.38029 -2.3139,0.39779 -2.3139,0.10281 0,-0.31216 0.32133,-0.52015 0.98386,-0.63684 0.8463,-0.14906 2.3602,-0.78136 2.9761,-1.243 l 0.539,-0.404 -0.312,-0.671 c -0.184,-0.3983 -0.869,-1.1843 -1.686,-1.9358 l -1.3753,-1.2653 4.5202,0 4.5202,0 0,6.4452 c 0,4.1249 -0.05903,6.4807 -0.16398,6.5437 -0.09019,0.05417 -0.16398,-0.01656 -0.16398,-0.15719 0,-0.20425 -0.11168,-0.23532 -0.55514,-0.15447 -0.33446,0.06098 -0.59904,0.03218 -0.66558,-0.07246 -0.06074,-0.09553 -0.3828,-0.17478 -0.71568,-0.17613 -0.33288,-0.0013 -0.70431,-0.06347 -0.8254,-0.13807 -0.14511,-0.08939 -0.36292,-0.007 -0.63885,0.2415 -0.23027,0.20742 -0.54419,0.37713 -0.6976,0.37713 -0.15341,0 -0.44908,0.14344 -0.65705,0.31875 -0.45348,0.38226 -0.89661,0.39538 -1.5578,0.04611 z m -11.03,-0.086 c -0.09103,-0.10957 -0.21724,-0.50402 -0.28046,-0.87655 -0.08889,-0.52384 -0.06362,-0.67734 0.11153,-0.67734 0.12456,0 0.29707,-0.23308 0.38336,-0.51796 0.18584,-0.61354 0.75228,-0.77239 1.2363,-0.3467 0.24494,0.21544 0.31443,0.49301 0.31443,1.2559 0,0.54922 -0.08642,1.0633 -0.19677,1.1706 -0.25888,0.25161 -1.3573,0.24603 -1.5683,-0.008 z m -6.1057,-2.1117 c 0,-0.13148 0.07379,-0.23906 0.16398,-0.23906 0.09019,0 0.16398,0.10758 0.16398,0.23906 0,0.13148 -0.07379,0.23906 -0.16398,0.23906 -0.09019,0 -0.16398,-0.10758 -0.16398,-0.23906 z m 5.7444,-0.11012 c -0.0029,-0.14822 0.07348,-0.31677 0.16967,-0.37455 0.28902,-0.17361 0.32954,0.0094 0.0746,0.33693 -0.20988,0.26964 -0.23969,0.27423 -0.24427,0.03761 z"
         inkscape:connector-curvature="0"
         style="fill:#260e19" />
    </g>
    <rect
       id="rect6741-2"
       rx="1"
       ry="1"
       height="37"
       width="37"
       y="6.5"
       x="5.5"
       style="opacity:0.5;fill:none;stroke:url(#linearGradient3044);stroke-linecap:round;stroke-linejoin:round" />
    <rect
       id="rect5505-21-1"
       style="color:#000000;opacity:0.4;fill:none;stroke:#1f1f1f;stroke-linecap:round;stroke-linejoin:round"
       rx="2"
       ry="2"
       height="39"
       width="39"
       y="5.5"
       x="4.5" />
    <circle
       id="path4225"
       cy="17.944"
       cx="20.635"
       r="0.75" />
    <circle
       id="circle4227"
       cx="27.635"
       cy="17.544001"
       r="0.75" />
    <g
       id="text4237"
       transform="scale(1.025,0.97558)"
       style="fill:#fbfccd;stroke:#000000;stroke-width:0.1">
      <path
         id="path4367"
         d="m 31.576,41.525 3.5445,0 0,1.5268 -5.8535,0 0,-1.5268 2.9402,-2.595 q 0.39383,-0.35606 0.58265,-0.69594 0.18882,-0.33988 0.18882,-0.70673 0,-0.56646 -0.38304,-0.91174 -0.37764,-0.34527 -1.0088,-0.34527 -0.48554,0 -1.0628,0.2104 -0.57726,0.20501 -1.2354,0.61502 l 0,-1.7695 q 0.70134,-0.23198 1.3865,-0.35067 0.68515,-0.12408 1.3433,-0.12408 1.4458,0 2.2443,0.6366 0.80384,0.6366 0.80384,1.7749 0,0.65818 -0.33988,1.23 -0.33988,0.56646 -1.4296,1.5214 l -1.721,1.5106 z"
         inkscape:connector-curvature="0" />
    </g>
  </g>
</svg>
