<?xml version="1.0" encoding="UTF-8" standalone="no"?>
<!-- Created with Inkscape (http://www.inkscape.org/) -->

<svg
   xmlns:dc="http://purl.org/dc/elements/1.1/"
   xmlns:cc="http://creativecommons.org/ns#"
   xmlns:rdf="http://www.w3.org/1999/02/22-rdf-syntax-ns#"
   xmlns:svg="http://www.w3.org/2000/svg"
   xmlns="http://www.w3.org/2000/svg"
   xmlns:xlink="http://www.w3.org/1999/xlink"
   xmlns:sodipodi="http://sodipodi.sourceforge.net/DTD/sodipodi-0.dtd"
   xmlns:inkscape="http://www.inkscape.org/namespaces/inkscape"
   version="1.1"
   width="48"
   height="48"
   id="svg6649"
   inkscape:version="0.91 r13725"
   sodipodi:docname="inkscape.svg"
   inkscape:export-filename="/home/francisco/Documents/brackets.png"
   inkscape:export-xdpi="90"
   inkscape:export-ydpi="90">
  <sodipodi:namedview
     pagecolor="#ffffff"
     bordercolor="#666666"
     borderopacity="1"
     objecttolerance="10"
     gridtolerance="10"
     guidetolerance="10"
     inkscape:pageopacity="0"
     inkscape:pageshadow="2"
     inkscape:window-width="1366"
     inkscape:window-height="705"
     id="namedview108"
     showgrid="false"
     showguides="true"
     inkscape:guide-bbox="true"
     inkscape:zoom="11.313708"
     inkscape:cx="13.123545"
     inkscape:cy="21.39742"
     inkscape:window-x="0"
     inkscape:window-y="30"
     inkscape:window-maximized="1"
     inkscape:current-layer="svg6649">
    <sodipodi:guide
       position="3.8890873,31.112698"
       orientation="1,0"
       id="guide4198" />
    <sodipodi:guide
       position="23.246135,43.045125"
       orientation="0,1"
       id="guide4200" />
    <sodipodi:guide
       position="28.107495,3.0052038"
       orientation="0,1"
       id="guide4202" />
    <sodipodi:guide
       position="44.017397,15.291184"
       orientation="1,0"
       id="guide4204" />
  </sodipodi:namedview>
  <defs
     id="defs6651">
    <linearGradient
       x1="23.99999"
       y1="4.999989"
       x2="23.99999"
       y2="43"
       id="linearGradient3058"
       xlink:href="#linearGradient3924-1"
       gradientUnits="userSpaceOnUse"
       gradientTransform="translate(4e-6,1.000006)" />
    <linearGradient
       id="linearGradient3924-1">
      <stop
         id="stop3926-3"
         style="stop-color:#ffffff;stop-opacity:1"
         offset="0" />
      <stop
         id="stop3928-91"
         style="stop-color:#ffffff;stop-opacity:0.23529412"
         offset="0.06316455" />
      <stop
         id="stop3930-6"
         style="stop-color:#ffffff;stop-opacity:0.15686275"
         offset="0.95056331" />
      <stop
         id="stop3932-6"
         style="stop-color:#ffffff;stop-opacity:0.39215687"
         offset="1" />
    </linearGradient>
    <radialGradient
       cx="6.7304144"
       cy="9.9571075"
       r="12.671875"
       fx="6.2001843"
       fy="9.9571075"
       id="radialGradient5521-1"
       xlink:href="#linearGradient2867-449-88-871-390-598-476-591-434-148-57-177-8-3-3-6-4-8-8-8"
       gradientUnits="userSpaceOnUse"
       gradientTransform="matrix(0,9.4975523,-11.65996,0,140.93055,-79.160978)" />
    <linearGradient
       id="linearGradient2867-449-88-871-390-598-476-591-434-148-57-177-8-3-3-6-4-8-8-8">
      <stop
         id="stop3750-1-0-7-6-6-1-3-9"
         style="stop-color:#29abe2;stop-opacity:1"
         offset="0" />
      <stop
         id="stop3752-3-7-4-0-32-8-923-0"
         style="stop-color:#28aae1;stop-opacity:1"
         offset="0.26238" />
      <stop
         id="stop3754-1-8-5-2-7-6-7-1"
         style="stop-color:#1d99d6;stop-opacity:1"
         offset="0.704952" />
      <stop
         id="stop3756-1-6-2-6-6-1-96-6"
         style="stop-color:#0274bd;stop-opacity:1"
         offset="1" />
    </linearGradient>
    <radialGradient
       cx="4.9929786"
       cy="43.5"
       r="2.5"
       fx="4.9929786"
       fy="43.5"
       id="radialGradient3013"
       xlink:href="#linearGradient3688-166-749"
       gradientUnits="userSpaceOnUse"
       gradientTransform="matrix(2.003784,0,0,1.4,27.98813,-17.4)" />
    <linearGradient
       id="linearGradient3688-166-749">
      <stop
         id="stop2883"
         style="stop-color:#181818;stop-opacity:1"
         offset="0" />
      <stop
         id="stop2885"
         style="stop-color:#181818;stop-opacity:0"
         offset="1" />
    </linearGradient>
    <radialGradient
       cx="4.9929786"
       cy="43.5"
       r="2.5"
       fx="4.9929786"
       fy="43.5"
       id="radialGradient3015"
       xlink:href="#linearGradient3688-464-309"
       gradientUnits="userSpaceOnUse"
       gradientTransform="matrix(2.003784,0,0,1.4,-20.01187,-104.4)" />
    <linearGradient
       id="linearGradient3688-464-309">
      <stop
         id="stop2889"
         style="stop-color:#181818;stop-opacity:1"
         offset="0" />
      <stop
         id="stop2891"
         style="stop-color:#181818;stop-opacity:0"
         offset="1" />
    </linearGradient>
    <linearGradient
       id="linearGradient3702-501-757">
      <stop
         id="stop2895"
         style="stop-color:#181818;stop-opacity:0"
         offset="0" />
      <stop
         id="stop2897"
         style="stop-color:#181818;stop-opacity:1"
         offset="0.5" />
      <stop
         id="stop2899"
         style="stop-color:#181818;stop-opacity:0"
         offset="1" />
    </linearGradient>
    <linearGradient
       x1="25.058096"
       y1="47.027729"
       x2="25.058096"
       y2="39.999443"
       id="linearGradient6647"
       xlink:href="#linearGradient3702-501-757"
       gradientUnits="userSpaceOnUse" />
    <radialGradient
       inkscape:collect="always"
       xlink:href="#linearGradient3688-166-749"
       id="radialGradient4610"
       gradientUnits="userSpaceOnUse"
       gradientTransform="matrix(2.003784,0,0,1.4,27.98813,-17.4)"
       cx="4.9929786"
       cy="43.5"
       fx="4.9929786"
       fy="43.5"
       r="2.5" />
    <radialGradient
       inkscape:collect="always"
       xlink:href="#linearGradient3688-464-309"
       id="radialGradient4612"
       gradientUnits="userSpaceOnUse"
       gradientTransform="matrix(2.003784,0,0,1.4,-20.01187,-104.4)"
       cx="4.9929786"
       cy="43.5"
       fx="4.9929786"
       fy="43.5"
       r="2.5" />
    <linearGradient
       inkscape:collect="always"
       xlink:href="#linearGradient3702-501-757"
       id="linearGradient4614"
       gradientUnits="userSpaceOnUse"
       x1="25.058096"
       y1="47.027729"
       x2="25.058096"
       y2="39.999443" />
    <radialGradient
       id="radialGradient3045"
       gradientUnits="userSpaceOnUse"
       cy="8.4497995"
       cx="11.546"
       gradientTransform="matrix(1.9428e-8,2.337,-2.4723,-4.3056e-8,44.89,-11.435)"
       r="20">
      <stop
         id="stop3750-6-3-7-0-5-3-5-7"
         stop-color="#a0a0a0"
         offset="0" />
      <stop
         id="stop3752-3-7-7-6-4-4-3-4"
         stop-color="#a0a0a0"
         offset=".26238" />
      <stop
         id="stop3754-1-7-4-6-36-7-7-2-4"
         stop-color="#8e8e8e"
         offset=".70495" />
      <stop
         id="stop3756-7-5-7-1-4-3-1-7"
         stop-color="#666"
         offset="1" />
    </radialGradient>
    <linearGradient
       id="linearGradient3037"
       y2="43"
       gradientUnits="userSpaceOnUse"
       x2="24"
       gradientTransform="translate(3.7e-6,1)"
       y1="5"
       x1="24">
      <stop
         id="stop3926-2-0"
         stop-color="#fff"
         offset="0" />
      <stop
         id="stop3928-2-0"
         stop-color="#fff"
         stop-opacity=".23529"
         offset=".063165" />
      <stop
         id="stop3930-6-1"
         stop-color="#fff"
         stop-opacity=".15686"
         offset=".95056" />
      <stop
         id="stop3932-1-6"
         stop-color="#fff"
         stop-opacity=".39216"
         offset="1" />
    </linearGradient>
  </defs>
  <metadata
     id="metadata6654">
    <rdf:RDF>
      <cc:Work
         rdf:about="">
        <dc:format>image/svg+xml</dc:format>
        <dc:type
           rdf:resource="http://purl.org/dc/dcmitype/StillImage" />
        <dc:title></dc:title>
      </cc:Work>
    </rdf:RDF>
  </metadata>
  <g
     id="g22"
     transform="translate(-137.22034,-35.542372)" />
  <g
     style="opacity:0.6"
     id="g4558"
     transform="matrix(1.1578952,0,0,0.6428571,-3.789476,16.035716)">
    <rect
       style="fill:url(#radialGradient4610);fill-opacity:1;stroke:none"
       id="rect4560"
       y="40"
       x="38"
       height="7"
       width="5" />
    <rect
       style="fill:url(#radialGradient4612);fill-opacity:1;stroke:none"
       id="rect4562"
       transform="scale(-1,-1)"
       y="-47"
       x="-10"
       height="7"
       width="5" />
    <rect
       style="fill:url(#linearGradient4614);fill-opacity:1;stroke:none"
       id="rect4564"
       y="40"
       x="10"
       height="7.0000005"
       width="28" />
  </g>
  <g
     id="g4173"
     transform="translate(-0.04675774,0.01902956)">
    <rect
       x="4.5"
       y="5.5"
       width="39"
       height="39"
       ry="2"
       rx="2"
       style="color:#000000;fill:url(#radialGradient3045)"
       id="rect4179" />
    <g
       id="g3829"
       style="opacity:0.15;fill:#a0a0a0;stroke:#000000">
      <path
         d="m 21.653,12.306 -9.3938,9.6126 c -3.1739,3.9305 2.16,3.4732 4.4466,4.6053 0.82022,0.83841 -3.1438,1.4572 -2.3236,2.2964 0.82022,0.8384 4.9598,1.6153 5.7814,2.4537 0.82022,0.8384 -1.6789,1.7279 -0.85868,2.5663 0.82022,0.8384 2.7173,0.04405 3.0725,1.9796 0.25313,1.3831 3.4187,0.59437 4.9668,-0.53842 0.82022,-0.8391 -1.5691,-0.76009 -0.7489,-1.5985 2.0397,-2.0859 3.9389,-0.75799 4.6368,-2.8481 0.34473,-1.0328 -3.0026,-1.5922 -2.181,-2.4306 2.36,-1.3782 10.517,-2.2754 6.6464,-6.1457 l -9.7371,-9.9525 c -1.1908,-1.1433 -3.1781,-1.1559 -4.3074,0 z m 10.79,18.529 c 0,0.47689 3.5138,0.78946 3.5138,-0.11258 -0.50067,-1.4489 -3.0984,-1.351 -3.5138,0.11258 z m -15.828,2.5341 c 0.83211,0.71953 2.1173,-0.17901 2.5026,-1.1831 -0.80624,-1.0713 -3.8242,0.03846 -2.5026,1.1831 z m 15.388,-1.5544 c -1.0727,0.96217 0.12027,1.9383 1.1775,1.3167 0.23565,-0.23914 -0.0063,-1.0776 -1.1775,-1.3167 z"
         id="path3831"
         inkscape:connector-curvature="0" />
      <path
         d="m 19.405,27.044 c 0.25103,0.15593 4.048,0.92721 4.9759,1.081 0.32166,0.06783 0.0937,0.39927 -0.34963,0.62304 -0.99993,0.26572 -5.85,-1.7041 -4.6263,-1.7041 z"
         id="path3833"
         inkscape:connector-curvature="0" />
      <path
         d="m 25.392,12.98 3.7165,3.7746 c 0.35242,0.36012 0.34753,1.058 0.15034,1.2587 l -1.8453,-1.4761 -0.36291,2.1859 -1.5419,-0.81393 -2.4691,1.56 -0.81743,-3.2886 -1.3265,2.295 -2.0278,0 c -0.82652,0 -0.92371,-1.0489 -0.17272,-1.7999 1.3118,-1.416 2.8173,-2.8592 3.6354,-3.6956 0.82232,-0.8405 2.2551,-0.81673 3.0613,0 z"
         id="path3835"
         inkscape:connector-curvature="0" />
    </g>
    <rect
       x="4.5"
       y="5.5"
       width="39"
       height="39"
       ry="2"
       rx="2"
       style="color:#000000;opacity:0.4;fill:none;stroke:#000000;stroke-linecap:round;stroke-linejoin:round"
       id="rect5505-21-69-0" />
    <path
       d="m 8.5,7.9 0,2 -1.5,0 0,1 1.5,0 0,4 -1.5,0 0,1 1.5,0 0,4 -1.5,0 0,1 1.5,0 0,4 -1.5,0 0,1 1.5,0 0,4 -1.5,0 0,1 1.5,0 0,4 -1.5,0 0,1 1.5,0 0,4 -1.5,0 0,1 1.5,0 0,1 1,0 0,-1 4,0 0,1 1,0 0,-1 4,0 0,1 1,0 0,-1 4,0 0,1 1,0 0,-1 4,0 0,1 1,0 0,-1 4,0 0,1 1,0 0,-1 4,0 0,1 1,0 0,-1 1.5,0 0,-1 -1.5,0 0,-4 1.5,0 0,-1 -1.5,0 0,-4 1.5,0 0,-1 -1.5,0 0,-4 1.5,0 0,-1 -1.5,0 0,-4 1.5,0 0,-1 -1.5,0 0,-4 1.5,0 0,-1 -1.5,0 0,-4 1.5,0 0,-1 -1.5,0 0,-2 -1,0 0,2 -4,0 0,-2 -1,0 0,2 -4,0 0,-2 -1,0 0,2 -4,0 0,-2 -1,0 0,2 -4,0 0,-2 -1,0 0,2 -4,0 0,-2 -1,0 0,2 -4,0 0,-2 -1,0 z m 1,3 4,0 0,4 -4,0 0,-4 z m 5,0 4,0 0,4 -4,0 0,-4 z m 5,0 4,0 0,4 -4,0 0,-4 z m 5,0 4,0 0,4 -4,0 0,-4 z m 5,0 4,0 0,4 -4,0 0,-4 z m 5,0 4,0 0,4 -4,0 0,-4 z m -25,5 4,0 0,4 -4,0 0,-4 z m 5,0 4,0 0,4 -4,0 0,-4 z m 5,0 4,0 0,4 -4,0 0,-4 z m 5,0 4,0 0,4 -4,0 0,-4 z m 5,0 4,0 0,4 -4,0 0,-4 z m 5,0 4,0 0,4 -4,0 0,-4 z m -25,5 4,0 0,4 -4,0 0,-4 z m 5,0 4,0 0,4 -4,0 0,-4 z m 5,0 4,0 0,4 -4,0 0,-4 z m 5,0 4,0 0,4 -4,0 0,-4 z m 5,0 4,0 0,4 -4,0 0,-4 z m 5,0 4,0 0,4 -4,0 0,-4 z m -25,5 4,0 0,4 -4,0 0,-4 z m 5,0 4,0 0,4 -4,0 0,-4 z m 5,0 4,0 0,4 -4,0 0,-4 z m 5,0 4,0 0,4 -4,0 0,-4 z m 5,0 4,0 0,4 -4,0 0,-4 z m 5,0 4,0 0,4 -4,0 0,-4 z m -25,5 4,0 0,4 -4,0 0,-4 z m 5,0 4,0 0,4 -4,0 0,-4 z m 5,0 4,0 0,4 -4,0 0,-4 z m 5,0 4,0 0,4 -4,0 0,-4 z m 5,0 4,0 0,4 -4,0 0,-4 z m 5,0 4,0 0,4 -4,0 0,-4 z m -25,5 4,0 0,4 -4,0 0,-4 z m 5,0 4,0 0,4 -4,0 0,-4 z m 5,0 4,0 0,4 -4,0 0,-4 z m 5,0 4,0 0,4 -4,0 0,-4 z m 5,0 4,0 0,4 -4,0 0,-4 z m 5,0 4,0 0,4 -4,0 0,-4 z"
       style="color:#000000;opacity:0.1;fill:#ffffff"
       id="rect3132"
       inkscape:connector-curvature="0" />
    <g
       id="g4179"
       style="opacity:0.15;fill:#a0a0a0;stroke:#000000;stroke-width:2">
      <path
         d="m 21.653,12.306 -9.3938,9.6126 c -3.1739,3.9305 2.16,3.4732 4.4466,4.6053 0.82022,0.83841 -3.1438,1.4572 -2.3236,2.2964 0.82022,0.8384 4.9598,1.6153 5.7814,2.4537 0.82022,0.8384 -1.6789,1.7279 -0.85868,2.5663 0.82022,0.8384 2.7173,0.04405 3.0725,1.9796 0.25313,1.3831 3.4187,0.59437 4.9668,-0.53842 0.82022,-0.8391 -1.5691,-0.76009 -0.7489,-1.5985 2.0397,-2.0859 3.9389,-0.75799 4.6368,-2.8481 0.34473,-1.0328 -3.0026,-1.5922 -2.181,-2.4306 2.36,-1.3782 10.517,-2.2754 6.6464,-6.1457 l -9.7371,-9.9525 c -1.1908,-1.1433 -3.1781,-1.1559 -4.3074,0 z m 10.79,18.529 c 0,0.47689 3.5138,0.78946 3.5138,-0.11258 -0.50067,-1.4489 -3.0984,-1.351 -3.5138,0.11258 z m -15.828,2.5341 c 0.83211,0.71953 2.1173,-0.17901 2.5026,-1.1831 -0.80624,-1.0713 -3.8242,0.03846 -2.5026,1.1831 z m 15.388,-1.5544 c -1.0727,0.96217 0.12027,1.9383 1.1775,1.3167 0.23565,-0.23914 -0.0063,-1.0776 -1.1775,-1.3167 z"
         id="path4181"
         inkscape:connector-curvature="0" />
      <path
         d="m 19.405,27.044 c 0.25103,0.15593 4.048,0.92721 4.9759,1.081 0.32166,0.06783 0.0937,0.39927 -0.34963,0.62304 -0.99993,0.26572 -5.85,-1.7041 -4.6263,-1.7041 z"
         id="path4183"
         inkscape:connector-curvature="0" />
      <path
         d="m 25.392,12.98 3.7165,3.7746 c 0.35242,0.36012 0.34753,1.058 0.15034,1.2587 l -1.8453,-1.4761 -0.36291,2.1859 -1.5419,-0.81393 -2.4691,1.56 -0.81743,-3.2886 -1.3265,2.295 -2.0278,0 c -0.82652,0 -0.92371,-1.0489 -0.17272,-1.7999 1.3118,-1.416 2.8173,-2.8592 3.6354,-3.6956 0.82232,-0.8405 2.2551,-0.81673 3.0613,0 z"
         id="path4185"
         inkscape:connector-curvature="0" />
    </g>
    <rect
       x="5.5"
       y="6.5"
       width="37"
       height="37"
       ry="1"
       rx="1"
       id="rect6741-1"
       style="opacity:0.5;fill:none;stroke:url(#linearGradient3037);stroke-linecap:round;stroke-linejoin:round" />
    <g
       id="g3824">
      <path
         d="m 21.653,12.306 -9.3938,9.6126 c -3.1739,3.9305 2.16,3.4732 4.4466,4.6053 0.82022,0.83841 -3.1438,1.4572 -2.3236,2.2964 0.82022,0.8384 4.9598,1.6153 5.7814,2.4537 0.82022,0.8384 -1.6789,1.7279 -0.85868,2.5663 0.82022,0.8384 2.7173,0.04405 3.0725,1.9796 0.25313,1.3831 3.4187,0.59437 4.9668,-0.53842 0.82022,-0.8391 -1.5691,-0.76009 -0.7489,-1.5985 2.0397,-2.0859 3.9389,-0.75799 4.6368,-2.8481 0.34473,-1.0328 -3.0026,-1.5922 -2.181,-2.4306 2.36,-1.3782 10.517,-2.2754 6.6464,-6.1457 l -9.7371,-9.9525 c -1.1908,-1.1433 -3.1781,-1.1559 -4.3074,0 z m 10.79,18.529 c 0,0.47689 3.5138,0.78946 3.5138,-0.11258 -0.50067,-1.4489 -3.0984,-1.351 -3.5138,0.11258 z m -15.828,2.5341 c 0.83211,0.71953 2.1173,-0.17901 2.5026,-1.1831 -0.80624,-1.0713 -3.8242,0.03846 -2.5026,1.1831 z m 15.388,-1.5544 c -1.0727,0.96217 0.12027,1.9383 1.1775,1.3167 0.23565,-0.23914 -0.0063,-1.0776 -1.1775,-1.3167 z"
         id="path5"
         inkscape:connector-curvature="0"
         style="fill:#fcfcfc" />
      <path
         d="m 19.405,27.044 c 0.25103,0.15593 4.048,0.92721 4.9759,1.081 0.32166,0.06783 0.0937,0.39927 -0.34963,0.62304 -0.99993,0.26572 -5.85,-1.7041 -4.6263,-1.7041 z"
         id="path7"
         inkscape:connector-curvature="0"
         style="fill:#a0a0a0" />
      <path
         d="m 25.392,12.98 3.7165,3.7746 c 0.35242,0.36012 0.34753,1.058 0.15034,1.2587 l -1.8453,-1.4761 -0.36291,2.1859 -1.5419,-0.81393 -2.4691,1.56 -0.81743,-3.2886 -1.3265,2.295 -2.0278,0 c -0.82652,0 -0.92371,-1.0489 -0.17272,-1.7999 1.3118,-1.416 2.8173,-2.8592 3.6354,-3.6956 0.82232,-0.8405 2.2551,-0.81673 3.0613,0 z"
         id="path9"
         inkscape:connector-curvature="0"
         style="fill:#a0a0a0" />
    </g>
  </g>
</svg>
