<?xml version="1.0" encoding="UTF-8" standalone="no"?>
<svg
   xmlns:dc="http://purl.org/dc/elements/1.1/"
   xmlns:cc="http://creativecommons.org/ns#"
   xmlns:rdf="http://www.w3.org/1999/02/22-rdf-syntax-ns#"
   xmlns:svg="http://www.w3.org/2000/svg"
   xmlns="http://www.w3.org/2000/svg"
   xmlns:xlink="http://www.w3.org/1999/xlink"
   version="1.1"
   id="svg2"
   viewBox="0 0 48 48.000001"
   height="48"
   width="48">
  <defs
     id="defs4">
    <linearGradient
       id="linearGradient4424">
      <stop
         style="stop-color:#000000;stop-opacity:1;"
         offset="0"
         id="stop4426" />
      <stop
         style="stop-color:#000000;stop-opacity:0.39215687"
         offset="1"
         id="stop4428" />
    </linearGradient>
    <linearGradient
       id="linearGradient4418">
      <stop
         style="stop-color:#000000;stop-opacity:1;"
         offset="0"
         id="stop4420" />
      <stop
         style="stop-color:#000000;stop-opacity:0.39215687"
         offset="1"
         id="stop4422" />
    </linearGradient>
    <linearGradient
       id="linearGradient4412">
      <stop
         style="stop-color:#000000;stop-opacity:1;"
         offset="0"
         id="stop4414" />
      <stop
         style="stop-color:#000000;stop-opacity:0.39215687"
         offset="1"
         id="stop4416" />
    </linearGradient>
    <linearGradient
       id="linearGradient4323">
      <stop
         id="stop4325"
         offset="0"
         style="stop-color:#000000;stop-opacity:1;" />
      <stop
         id="stop4327"
         offset="1"
         style="stop-color:#000000;stop-opacity:0;" />
    </linearGradient>
    <linearGradient
       id="linearGradient4174">
      <stop
         id="stop4162"
         offset="0"
         style="stop-color:#ffffff;stop-opacity:1;" />
      <stop
         style="stop-color:#ffffff;stop-opacity:0.23529412"
         offset="0.15164158"
         id="stop4176" />
      <stop
         id="stop4178"
         offset="0.86457443"
         style="stop-color:#ffffff;stop-opacity:0.15686275" />
      <stop
         id="stop4164"
         offset="1"
         style="stop-color:#ffffff;stop-opacity:0.39215687" />
    </linearGradient>
    <radialGradient
       gradientUnits="userSpaceOnUse"
       gradientTransform="matrix(0.82352941,0,0,0.32352941,12.235294,707.49501)"
       r="17"
       fy="1045.8622"
       fx="24"
       cy="1045.8622"
       cx="24"
       id="radialGradient4329"
       xlink:href="#linearGradient4323" />
    <linearGradient
       id="linearGradient3779">
      <stop
         id="stop3781"
         offset="0"
         style="stop-color:#fafafa;stop-opacity:1;" />
      <stop
         id="stop3783"
         offset="1"
         style="stop-color:#e1e1e1;stop-opacity:1;" />
    </linearGradient>
    <linearGradient
       id="linearGradient3850">
      <stop
         style="stop-color:#2cc6fb;stop-opacity:1"
         offset="0"
         id="stop3852" />
      <stop
         style="stop-color:#2385f4;stop-opacity:1"
         offset="1"
         id="stop3854" />
    </linearGradient>
    <radialGradient
       gradientUnits="userSpaceOnUse"
       gradientTransform="matrix(-1.3347911e-8,1.7560975,-1.2682927,0,36.556662,-31.146338)"
       r="20.5"
       fy="9.900445"
       fx="24"
       cy="9.900445"
       cx="24"
       id="radialGradient4213"
       xlink:href="#linearGradient3850" />
    <linearGradient
       gradientUnits="userSpaceOnUse"
       y2="43"
       x2="24"
       y1="4"
       x1="24"
       id="linearGradient4233"
       xlink:href="#linearGradient4174" />
    <radialGradient
       gradientUnits="userSpaceOnUse"
       gradientTransform="matrix(-2.4131891e-8,1.6800001,-1.36,-1.9535339e-8,66.547469,-27.760003)"
       r="12.5"
       fy="25.40255"
       fx="32"
       cy="25.40255"
       cx="32"
       id="radialGradient4373"
       xlink:href="#linearGradient3779" />
    <linearGradient
       gradientUnits="userSpaceOnUse"
       y2="45"
       x2="33"
       y1="22"
       x1="33"
       id="linearGradient4381"
       xlink:href="#linearGradient4174" />
    <linearGradient
       gradientTransform="matrix(0.66666667,0,0,0.66666667,1.3333333,349.12039)"
       gradientUnits="userSpaceOnUse"
       y2="1035.3622"
       x2="37"
       y1="1029.3622"
       x1="37"
       id="linearGradient4271"
       xlink:href="#linearGradient4424" />
    <linearGradient
       y2="1035.3622"
       x2="37"
       y1="1029.3622"
       x1="37"
       gradientTransform="matrix(0.66666667,0,0,0.66666667,7.3333333,349.12039)"
       gradientUnits="userSpaceOnUse"
       id="linearGradient4398"
       xlink:href="#linearGradient4418" />
    <linearGradient
       y2="1035.3622"
       x2="37"
       y1="1029.3622"
       x1="37"
       gradientTransform="matrix(0.66666667,0,0,0.66666667,13.333333,349.12039)"
       gradientUnits="userSpaceOnUse"
       id="linearGradient4402"
       xlink:href="#linearGradient4412" />
  </defs>
  <metadata
     id="metadata7">
    <rdf:RDF>
      <cc:Work
         rdf:about="">
        <dc:format>image/svg+xml</dc:format>
        <dc:type
           rdf:resource="http://purl.org/dc/dcmitype/StillImage" />
        <dc:title />
      </cc:Work>
    </rdf:RDF>
  </metadata>
  <g
     transform="translate(0,-1004.3622)"
     id="layer1">
    <rect
       y="1040.3622"
       x="18"
       height="11"
       width="28"
       id="rect4321"
       style="opacity:0.5;fill:url(#radialGradient4329);fill-opacity:1;stroke:none;stroke-width:1;stroke-linejoin:round;stroke-miterlimit:4;stroke-dasharray:none;stroke-opacity:1" />
    <path
       id="path4166"
       transform="translate(0,1004.3622)"
       d="M 24 3.5 A 20.499996 17.5 0 0 0 3.5 21 A 20.499996 17.5 0 0 0 8.5742188 32.494141 C 8.6717572 35.844189 6.905035 38.484255 3.5 40.5 C 9.7160417 41.713442 12.669461 39.27994 15.777344 37.019531 A 20.499996 17.5 0 0 0 24 38.5 A 20.499996 17.5 0 0 0 44.5 21 A 20.499996 17.5 0 0 0 24 3.5 z "
       style="opacity:1;fill:url(#radialGradient4213);fill-opacity:1;stroke:none;stroke-width:1;stroke-linecap:butt;stroke-linejoin:round;stroke-miterlimit:4;stroke-dasharray:none;stroke-opacity:1" />
    <path
       style="opacity:0.6;fill:none;fill-opacity:1;stroke:#144696;stroke-width:1;stroke-linecap:butt;stroke-linejoin:round;stroke-miterlimit:4;stroke-dasharray:none;stroke-opacity:1"
       d="M 24 3.5 A 20.499996 17.5 0 0 0 3.5 21 A 20.499996 17.5 0 0 0 8.5742188 32.494141 C 8.6717572 35.844189 6.905035 38.484255 3.5 40.5 C 9.7160417 41.713442 12.669461 39.27994 15.777344 37.019531 A 20.499996 17.5 0 0 0 24 38.5 A 20.499996 17.5 0 0 0 44.5 21 A 20.499996 17.5 0 0 0 24 3.5 z "
       transform="translate(0,1004.3622)"
       id="path4215" />
    <path
       id="path4168"
       transform="translate(0,1004.3622)"
       d="M 32 21.5 A 12.5 10.499999 0 0 0 19.5 32 A 12.5 10.499999 0 0 0 32 42.5 A 12.5 10.499999 0 0 0 35.953125 41.947266 C 38.26974 44.242585 40.840597 44.689844 43.5 44.5 C 42.34942 43.463305 41.08714 42.770713 40.626953 39.59375 A 12.5 10.499999 0 0 0 44.5 32 A 12.5 10.499999 0 0 0 32 21.5 z "
       style="opacity:1;fill:url(#radialGradient4373);fill-opacity:1;stroke:none;stroke-width:1;stroke-linecap:butt;stroke-linejoin:round;stroke-miterlimit:4;stroke-dasharray:none;stroke-opacity:1" />
    <path
       id="path4174"
       transform="translate(0,1004.3622)"
       d="M 24,4.5 C 13.230447,4.5 4.5,11.887302 4.5,21 4.5081944,25.081883 6.3042251,29.01631 9.5410156,32.042969 9.8556904,35.556471 8.8513882,37.897616 5.3,40 10.847609,40 12.652637,38.030125 15.575,35.836 18.281716,36.989582 20.969338,37.493777 24,37.5 34.769553,37.5 43.5,30.112698 43.5,21 43.5,11.887302 34.769553,4.5 24,4.5 Z"
       style="opacity:0.5;fill:none;fill-opacity:1;fill-rule:evenodd;stroke:url(#linearGradient4233);stroke-width:1px;stroke-linecap:butt;stroke-linejoin:miter;stroke-opacity:1" />
    <path
       id="path4178"
       transform="translate(0,1004.3622)"
       d="m 32,22.5 c -6.351275,0 -11.5,4.253295 -11.5,9.5 0,5.246705 5.148725,9.5 11.5,9.5 1.337911,-0.0021 2.965233,-0.396945 4.222,-0.776 C 37.300125,41.800172 39,43 41,43.6 40.221864,42.699211 40.175222,42.080872 39.539,39.167 41.811279,37.375662 43.498184,34.594685 43.5,32 43.5,26.753295 38.351275,22.5 32,22.5 Z"
       style="opacity:1;fill:none;fill-opacity:1;fill-rule:evenodd;stroke:url(#linearGradient4381);stroke-width:1px;stroke-linecap:butt;stroke-linejoin:miter;stroke-opacity:1" />
    <path
       style="opacity:0.3;fill:none;fill-opacity:0.39215686;stroke:#000000;stroke-width:1;stroke-linecap:butt;stroke-linejoin:round;stroke-miterlimit:4;stroke-dasharray:none;stroke-opacity:1"
       d="M 32 21.5 A 12.5 10.499999 0 0 0 19.5 32 A 12.5 10.499999 0 0 0 32 42.5 A 12.5 10.499999 0 0 0 35.953125 41.947266 C 38.26974 44.242585 40.840597 44.689844 43.5 44.5 C 42.34942 43.463305 41.08714 42.770713 40.626953 39.59375 A 12.5 10.499999 0 0 0 44.5 32 A 12.5 10.499999 0 0 0 32 21.5 z "
       transform="translate(0,1004.3622)"
       id="path4365" />
    <circle
       style="opacity:0.75;fill:#ffffff;fill-opacity:1;stroke:none;stroke-width:1;stroke-linecap:butt;stroke-linejoin:round;stroke-miterlimit:4;stroke-dasharray:none;stroke-opacity:1"
       id="circle4289"
       cx="26"
       cy="1038.3621"
       r="2" />
    <circle
       r="2"
       cy="1037.3621"
       cx="26"
       id="path4263"
       style="opacity:0.6;fill:url(#linearGradient4271);fill-opacity:1;stroke:none;stroke-width:1;stroke-linecap:butt;stroke-linejoin:round;stroke-miterlimit:4;stroke-dasharray:none;stroke-opacity:1" />
    <circle
       r="2"
       cy="1038.3621"
       cx="32"
       id="circle4430"
       style="opacity:0.75;fill:#ffffff;fill-opacity:1;stroke:none;stroke-width:1;stroke-linecap:butt;stroke-linejoin:round;stroke-miterlimit:4;stroke-dasharray:none;stroke-opacity:1" />
    <circle
       style="opacity:0.6;fill:url(#linearGradient4398);fill-opacity:1;stroke:none;stroke-width:1;stroke-linecap:butt;stroke-linejoin:round;stroke-miterlimit:4;stroke-dasharray:none;stroke-opacity:1"
       id="circle4396"
       cx="32"
       cy="1037.3621"
       r="2" />
    <circle
       style="opacity:0.75;fill:#ffffff;fill-opacity:1;stroke:none;stroke-width:1;stroke-linecap:butt;stroke-linejoin:round;stroke-miterlimit:4;stroke-dasharray:none;stroke-opacity:1"
       id="circle4432"
       cx="38"
       cy="1038.3621"
       r="2" />
    <circle
       r="2"
       cy="1037.3621"
       cx="38"
       id="circle4400"
       style="opacity:0.6;fill:url(#linearGradient4402);fill-opacity:1;stroke:none;stroke-width:1;stroke-linecap:butt;stroke-linejoin:round;stroke-miterlimit:4;stroke-dasharray:none;stroke-opacity:1" />
  </g>
</svg>
