<?xml version="1.0" encoding="UTF-8" standalone="no"?>
<!-- Created with Inkscape (http://www.inkscape.org/) -->

<svg
   xmlns:dc="http://purl.org/dc/elements/1.1/"
   xmlns:cc="http://creativecommons.org/ns#"
   xmlns:rdf="http://www.w3.org/1999/02/22-rdf-syntax-ns#"
   xmlns:svg="http://www.w3.org/2000/svg"
   xmlns="http://www.w3.org/2000/svg"
   xmlns:xlink="http://www.w3.org/1999/xlink"
   xmlns:sodipodi="http://sodipodi.sourceforge.net/DTD/sodipodi-0.dtd"
   xmlns:inkscape="http://www.inkscape.org/namespaces/inkscape"
   id="svg6649"
   height="48"
   width="48"
   version="1.1"
   inkscape:version="0.91 r13725"
   sodipodi:docname="kdeconnect.svg">
  <sodipodi:namedview
     pagecolor="#ffffff"
     bordercolor="#666666"
     borderopacity="1"
     objecttolerance="10"
     gridtolerance="10"
     guidetolerance="10"
     inkscape:pageopacity="0"
     inkscape:pageshadow="2"
     inkscape:window-width="1535"
     inkscape:window-height="876"
     id="namedview76"
     showgrid="false"
     inkscape:zoom="4.9166667"
     inkscape:cx="-10.779661"
     inkscape:cy="24"
     inkscape:window-x="65"
     inkscape:window-y="24"
     inkscape:window-maximized="1"
     inkscape:current-layer="svg6649" />
  <defs
     id="defs6651">
    <radialGradient
       id="radialGradient3013"
       gradientUnits="userSpaceOnUse"
       cy="43.5"
       cx="4.993"
       gradientTransform="matrix(2.0038,0,0,1.4,27.988,-17.4)"
       r="2.5">
      <stop
         id="stop2883"
         stop-color="#181818"
         offset="0" />
      <stop
         id="stop2885"
         stop-color="#181818"
         stop-opacity="0"
         offset="1" />
    </radialGradient>
    <radialGradient
       id="radialGradient3015"
       gradientUnits="userSpaceOnUse"
       cy="43.5"
       cx="4.993"
       gradientTransform="matrix(2.0038,0,0,1.4,-20.012,-104.4)"
       r="2.5">
      <stop
         id="stop2889"
         stop-color="#181818"
         offset="0" />
      <stop
         id="stop2891"
         stop-color="#181818"
         stop-opacity="0"
         offset="1" />
    </radialGradient>
    <linearGradient
       id="linearGradient6647"
       y2="39.999"
       gradientUnits="userSpaceOnUse"
       x2="25.058"
       y1="47.028"
       x1="25.058">
      <stop
         id="stop2895"
         stop-color="#181818"
         stop-opacity="0"
         offset="0" />
      <stop
         id="stop2897"
         stop-color="#181818"
         offset=".5" />
      <stop
         id="stop2899"
         stop-color="#181818"
         stop-opacity="0"
         offset="1" />
    </linearGradient>
    <linearGradient
       id="linearGradient4650"
       y2="43"
       gradientUnits="userSpaceOnUse"
       x2="24"
       gradientTransform="matrix(1,0,0,1.1081,4e-6,-3.5946)"
       y1="5"
       x1="24">
      <stop
         id="stop3926-3"
         stop-color="#fff"
         offset="0" />
      <stop
         id="stop3928-91"
         stop-color="#fff"
         stop-opacity=".23529"
         offset=".063165" />
      <stop
         id="stop3930-6"
         stop-color="#fff"
         stop-opacity=".15686"
         offset=".95056" />
      <stop
         id="stop3932-6"
         stop-color="#fff"
         stop-opacity=".39216"
         offset="1" />
    </linearGradient>
    <linearGradient
       id="linearGradient4650-6"
       y2="39.683"
       xlink:href="#linearGradient3924-1-2"
       gradientUnits="userSpaceOnUse"
       x2="24"
       gradientTransform="matrix(0.32432,0,0,0.21622,24.716,30.311)"
       y1="7.8131"
       x1="24" />
    <linearGradient
       id="linearGradient3924-1-2">
      <stop
         id="stop3926-3-4"
         stop-color="#fff"
         offset="0" />
      <stop
         id="stop3928-91-8"
         stop-color="#fff"
         stop-opacity=".23529"
         offset=".011098" />
      <stop
         id="stop3930-6-9"
         stop-color="#fff"
         stop-opacity=".15686"
         offset=".99395" />
      <stop
         id="stop3932-6-2"
         stop-color="#fff"
         stop-opacity=".39216"
         offset="1" />
    </linearGradient>
    <radialGradient
       id="radialGradient4685"
       fx="6.2002"
       gradientUnits="userSpaceOnUse"
       cy="9.9571"
       cx="6.7304"
       gradientTransform="matrix(0,2.4353,-4.1856,0,74.554,8.7921)"
       r="12.672">
      <stop
         id="stop4663"
         stop-color="#ff7d7d"
         offset="0" />
      <stop
         id="stop4665"
         stop-color="#e44e4e"
         offset=".26238" />
      <stop
         id="stop4667"
         stop-color="#cc2424"
         offset=".70495" />
      <stop
         id="stop4669"
         stop-color="#ac1f1f"
         offset="1" />
    </radialGradient>
    <linearGradient
       id="linearGradient2925"
       x1="12.938"
       gradientUnits="userSpaceOnUse"
       y1="8.4375"
       gradientTransform="matrix(0.64935,0,0,0.75001,8.4156,4.9996)"
       x2="15.25"
       y2="19.812">
      <stop
         id="stop6594-0-2"
         stop-color="#fff"
         stop-opacity=".27451"
         offset="0" />
      <stop
         id="stop6596-2-5"
         stop-color="#fff"
         stop-opacity="0"
         offset="1" />
    </linearGradient>
    <radialGradient
       id="radialGradient2429"
       cx="19.063"
       gradientUnits="userSpaceOnUse"
       cy="8.4179"
       r="11"
       gradientTransform="matrix(1.5626,0,0,1.3591,-12.52,0.39355)">
      <stop
         id="stop9938"
         stop-color="#575757"
         offset="0" />
      <stop
         id="stop9940"
         stop-color="#333"
         offset="1" />
    </radialGradient>
    <radialGradient
       id="radialGradient4684"
       fx="6.2002"
       gradientUnits="userSpaceOnUse"
       cy="9.9571"
       cx="6.7304"
       gradientTransform="matrix(0,2.4353,-4.1856,0,57.554,8.7921)"
       r="12.672">
      <stop
         id="stop4693"
         stop-color="#99ff7d"
         offset="0" />
      <stop
         id="stop4695"
         stop-color="#2aa425"
         offset=".26238" />
      <stop
         id="stop4697"
         stop-color="#369f0b"
         offset=".70495" />
      <stop
         id="stop4699"
         stop-color="#1fac34"
         offset="1" />
    </radialGradient>
    <linearGradient
       id="linearGradient4686"
       y2="39.683"
       xlink:href="#linearGradient3924-1-2"
       gradientUnits="userSpaceOnUse"
       x2="24"
       gradientTransform="matrix(0.32432,0,0,0.21622,7.7159,30.311)"
       y1="7.8131"
       x1="24" />
    <linearGradient
       id="linearGradient4721"
       y2="5.9236"
       gradientUnits="userSpaceOnUse"
       x2="24.102"
       y1="26.512"
       x1="24.756">
      <stop
         id="stop4725"
         stop-color="#fff"
         offset="0" />
      <stop
         id="stop4727"
         stop-color="#fff"
         stop-opacity="0"
         offset="1" />
    </linearGradient>
    <linearGradient
       id="linearGradient5280"
       y2="44.918"
       gradientUnits="userSpaceOnUse"
       x2="24.17"
       y1="1.8432"
       x1="24.439">
      <stop
         id="stop3750-1-0-7-6-6-1-3-9-3"
         stop-color="#505050"
         offset="0" />
      <stop
         id="stop3752-3-7-4-0-32-8-923-0-7"
         stop-color="#2b2b2b"
         offset=".26238" />
      <stop
         id="stop3754-1-8-5-2-7-6-7-1-9-8"
         stop-color="#0a0a0a"
         offset=".70495" />
      <stop
         id="stop3756-1-6-2-6-6-1-96-6-0"
         offset="1" />
    </linearGradient>
    <linearGradient
       inkscape:collect="always"
       xlink:href="#linearGradient5280"
       id="linearGradient4204"
       gradientUnits="userSpaceOnUse"
       x1="24.439"
       y1="1.8432"
       x2="24.17"
       y2="44.918" />
    <linearGradient
       inkscape:collect="always"
       xlink:href="#linearGradient5280"
       id="linearGradient4206"
       gradientUnits="userSpaceOnUse"
       x1="24.439"
       y1="1.8432"
       x2="24.17"
       y2="44.918" />
  </defs>
  <metadata
     id="metadata6654">
    <rdf:RDF>
      <cc:Work
         rdf:about="">
        <dc:format>image/svg+xml</dc:format>
        <dc:type
           rdf:resource="http://purl.org/dc/dcmitype/StillImage" />
        <dc:title />
      </cc:Work>
    </rdf:RDF>
  </metadata>
  <g
     id="g4232"
     transform="translate(0,1)">
    <rect
       id="rect5505-21"
       style="color:#000000;fill:url(#linearGradient4204);stroke:#1d1d1d"
       rx="1.5"
       ry="1.5"
       height="42"
       width="38"
       y="2"
       x="5" />
    <rect
       id="rect5282"
       style="color:#000000;fill:url(#linearGradient4206)"
       rx="1.5"
       ry="1.5"
       height="42"
       width="38"
       y="2"
       x="5" />
    <rect
       id="rect6741"
       rx="1"
       ry="1"
       height="41"
       width="37"
       y="2.5"
       x="5.5"
       style="opacity:0.4;fill:none;stroke:url(#linearGradient4650);stroke-linecap:round;stroke-linejoin:round" />
    <rect
       id="rect5505-21-3-2"
       style="color:#000000;opacity:0.7;fill:none;stroke:#000000;stroke-linecap:round;stroke-linejoin:round"
       rx="2"
       ry="2.2051001"
       height="43"
       width="39"
       y="1.5"
       x="4.5" />
    <rect
       id="rect5505-21-0"
       style="color:#000000;fill:url(#radialGradient4685)"
       rx="1"
       ry="1"
       height="10"
       width="14"
       y="30.5"
       x="25.579" />
    <rect
       id="rect6741-1"
       height="8"
       width="12"
       y="31.5"
       x="26.5"
       style="opacity:0.3;fill:none;stroke:url(#linearGradient4650-6);stroke-linecap:round;stroke-linejoin:round" />
    <rect
       id="rect5505-21-3-2-3"
       style="color:#000000;opacity:0.4;fill:none;stroke:#640000;stroke-linecap:round;stroke-linejoin:round"
       rx="1"
       ry="1"
       height="10"
       width="14"
       y="30.5"
       x="25.579" />
    <path
       id="path3-0"
       d="m 29.504,34.077 c -0.01246,-0.09681 0.01664,-0.18098 0.08731,-0.25253 l 0.83,-0.833 c 0.03742,-0.04209 0.08627,-0.07789 0.14656,-0.10732 0.06029,-0.02946 0.11952,-0.0484 0.17772,-0.05682 0.0042,0 0.01664,-0.0012 0.03744,-0.0032 0.02077,-0.0021 0.04779,-0.0032 0.08105,-0.0032 0.07901,0 0.20686,0.01369 0.38356,0.04104 0.1767,0.02734 0.3929,0.09472 0.64857,0.20203 0.25572,0.10732 0.54571,0.26833 0.87,0.48296 0.32429,0.21463 0.66938,0.50927 1.0353,0.88386 0.29104,0.29041 0.53218,0.5682 0.72343,0.83335 0.19125,0.26516 0.34508,0.51032 0.4615,0.7355 0.11642,0.22518 0.20373,0.4293 0.26194,0.61239 0.05821,0.18309 0.09771,0.34092 0.11849,0.4735 0.02079,0.13258 0.0291,0.23675 0.02495,0.31251 -0.0042,0.07576 -0.0062,0.11785 -0.0062,0.12626 -0.0083,0.05892 -0.02704,0.1189 -0.05613,0.17993 -0.0291,0.06103 -0.06445,0.11048 -0.10602,0.14836 l -0.82945,0.83967 c -0.05821,0.05892 -0.12473,0.08839 -0.19957,0.08839 -0.05405,0 -0.10186,-0.01577 -0.14344,-0.04735 -0.04158,-0.03157 -0.07692,-0.0705 -0.10602,-0.1168 l -0.6673,-1.2816 c -0.03742,-0.06734 -0.04781,-0.141 -0.03118,-0.22096 0.01664,-0.07997 0.05197,-0.14731 0.10602,-0.20203 l 0.30558,-0.30935 c 0.0083,-0.0084 0.01558,-0.02209 0.02182,-0.04104 0.0062,-0.01894 0.0094,-0.03472 0.0094,-0.04735 -0.01664,-0.08839 -0.05405,-0.1894 -0.11226,-0.30304 -0.04989,-0.10101 -0.12681,-0.22412 -0.23075,-0.36932 -0.10394,-0.14521 -0.25154,-0.31251 -0.44279,-0.5019 -0.18709,-0.19362 -0.3534,-0.34408 -0.49892,-0.45141 -0.1455,-0.1073 -0.26713,-0.18624 -0.36483,-0.23675 -0.0977,-0.05051 -0.17254,-0.08102 -0.22451,-0.09152 l -0.07794,-0.01577 c -0.0083,0 -0.02186,0.0032 -0.04055,0.0095 -0.01871,0.0063 -0.03222,0.01369 -0.04054,0.0221 l -0.35548,0.36617 c -0.07486,0.06734 -0.16215,0.10101 -0.26193,0.10101 -0.0707,0 -0.12681,-0.01262 -0.16838,-0.03788 l -0.0062,0 -1.2036,-0.71971 C 29.57321,34.23095 29.52123,34.1615 29.5046,34.07732 Z"
       inkscape:connector-curvature="0"
       style="opacity:0.15" />
    <path
       id="path4045"
       d="m 29.504,33.677 c -0.01246,-0.09681 0.01664,-0.18098 0.08731,-0.25253 l 0.82945,-0.83333 c 0.03742,-0.04209 0.08627,-0.07789 0.14656,-0.10732 0.06029,-0.02946 0.11952,-0.0484 0.17772,-0.05682 0.0042,0 0.01664,-0.0012 0.03744,-0.0032 0.02077,-0.0021 0.04779,-0.0032 0.08105,-0.0032 0.07901,0 0.20686,0.01369 0.38356,0.04104 0.1767,0.02734 0.3929,0.09472 0.64857,0.20203 0.25572,0.10732 0.54571,0.26833 0.87,0.48296 0.32429,0.21463 0.66938,0.50927 1.0353,0.88386 0.29104,0.29041 0.53218,0.5682 0.72343,0.83335 0.19125,0.26516 0.34508,0.51032 0.4615,0.7355 0.11642,0.22518 0.20373,0.4293 0.26194,0.61239 0.05821,0.18309 0.09771,0.34092 0.11849,0.4735 0.02079,0.13258 0.0291,0.23675 0.02495,0.31251 -0.0042,0.07576 -0.0062,0.11785 -0.0062,0.12626 -0.0083,0.05892 -0.02704,0.1189 -0.05613,0.17993 -0.0291,0.06103 -0.06445,0.11048 -0.10602,0.14836 l -0.82945,0.83967 c -0.05821,0.05892 -0.12473,0.08839 -0.19957,0.08839 -0.05405,0 -0.10186,-0.01577 -0.14344,-0.04735 -0.04158,-0.03157 -0.07692,-0.0705 -0.10602,-0.1168 l -0.6673,-1.2816 c -0.03742,-0.06734 -0.04781,-0.141 -0.03118,-0.22096 0.01664,-0.07997 0.05197,-0.14731 0.10602,-0.20203 l 0.30558,-0.30935 c 0.0083,-0.0084 0.01558,-0.02209 0.02182,-0.04104 0.0062,-0.01894 0.0094,-0.03472 0.0094,-0.04735 -0.01664,-0.08839 -0.05405,-0.1894 -0.11226,-0.30304 -0.04989,-0.10101 -0.12681,-0.22412 -0.23075,-0.36932 -0.10394,-0.14521 -0.25154,-0.31251 -0.44279,-0.5019 -0.18709,-0.19362 -0.3534,-0.34408 -0.49892,-0.45141 -0.1455,-0.1073 -0.26713,-0.18624 -0.36483,-0.23675 -0.0977,-0.05051 -0.17254,-0.08102 -0.22451,-0.09152 l -0.07794,-0.01577 c -0.0083,0 -0.02186,0.0032 -0.04055,0.0095 -0.01871,0.0063 -0.03222,0.01369 -0.04054,0.0221 l -0.35548,0.36617 c -0.07486,0.06734 -0.16215,0.10101 -0.26193,0.10101 -0.0707,0 -0.12681,-0.01262 -0.16838,-0.03788 l -0.0062,0 -1.2036,-0.71971 c -0.089,-0.054 -0.141,-0.123 -0.157,-0.208 z"
       inkscape:connector-curvature="0"
       style="fill:#ffffff" />
    <rect
       id="rect4717"
       rx="0.60000002"
       ry="0.60000002"
       height="21"
       width="32"
       y="6"
       x="8"
       style="opacity:0.15;fill:url(#linearGradient4721);fill-rule:evenodd" />
    <rect
       id="rect4140"
       height="18.813999"
       rx="0"
       ry="0"
       width="28.705999"
       stroke-miterlimit="3.4286"
       y="6.5927"
       x="9.6469002"
       style="fill:url(#radialGradient2429);fill-rule:evenodd;stroke:#1d1d1d;stroke-width:1.23880005;stroke-linecap:round;stroke-linejoin:round;stroke-miterlimit:3.42860007" />
    <path
       id="rect6588"
       d="m 10.364,7.2497 27.273,0 0,6.0001 -27.273,5.2501 0,-11.25 z"
       style="fill:url(#linearGradient2925)"
       inkscape:connector-curvature="0" />
    <rect
       id="rect4678"
       style="color:#000000;fill:url(#radialGradient4684)"
       rx="1"
       ry="1"
       height="10"
       width="14"
       y="30.5"
       x="8.5790005" />
    <rect
       id="rect4680"
       height="8"
       width="12"
       y="31.5"
       x="9.4996996"
       style="opacity:0.3;fill:none;stroke:url(#linearGradient4686);stroke-linecap:round;stroke-linejoin:round" />
    <rect
       id="rect4682"
       style="color:#000000;opacity:0.4;fill:none;stroke:#0f6400;stroke-linecap:round;stroke-linejoin:round"
       rx="1"
       ry="1"
       height="10"
       width="14"
       y="30.5"
       x="8.5790005" />
    <path
       id="path3"
       d="m 18.318,37.524 c 0.01246,0.09681 -0.01664,0.18098 -0.08731,0.25253 l -0.82942,0.83335 c -0.03741,0.04209 -0.08627,0.07789 -0.14655,0.10733 -0.06028,0.02946 -0.11952,0.0484 -0.17771,0.05682 -0.0042,0 -0.01664,0.0012 -0.03744,0.0032 -0.02077,0.0021 -0.04779,0.0032 -0.08105,0.0032 -0.07901,0 -0.20686,-0.01369 -0.38355,-0.04104 -0.17669,-0.02734 -0.39288,-0.09472 -0.64855,-0.20203 -0.25571,-0.10733 -0.54569,-0.26834 -0.86997,-0.48297 -0.32428,-0.21464 -0.66936,-0.50928 -1.0352,-0.88388 -0.29103,-0.29042 -0.53216,-0.5682 -0.72341,-0.83336 -0.19125,-0.26516 -0.34507,-0.51033 -0.46149,-0.73551 -0.11642,-0.22518 -0.20373,-0.42931 -0.26193,-0.6124 -0.05821,-0.18309 -0.0977,-0.34092 -0.11849,-0.4735 -0.02079,-0.13258 -0.0291,-0.23675 -0.02495,-0.31251 0.0042,-0.07576 0.0062,-0.11785 0.0062,-0.12627 0.0083,-0.05892 0.02704,-0.1189 0.05612,-0.17993 0.0291,-0.06103 0.06444,-0.11048 0.10602,-0.14836 l 0.82942,-0.83968 c 0.0582,-0.05892 0.12472,-0.08839 0.19956,-0.08839 0.05405,0 0.10186,0.01577 0.14344,0.04735 0.04157,0.03157 0.07691,0.0705 0.10602,0.1168 l 0.66728,1.2816 c 0.03742,0.06734 0.04781,0.141 0.03118,0.22097 -0.01664,0.07997 -0.05197,0.14731 -0.10602,0.20203 l -0.30558,0.30935 c -0.0083,0.0084 -0.01558,0.02209 -0.02182,0.04104 -0.0062,0.01894 -0.0094,0.03472 -0.0094,0.04735 0.01664,0.08839 0.05405,0.1894 0.11225,0.30304 0.04989,0.10101 0.1268,0.22412 0.23074,0.36933 0.10394,0.14521 0.25153,0.31252 0.44277,0.5019 0.18709,0.19362 0.35339,0.34408 0.4989,0.45142 0.14549,0.1073 0.26712,0.18624 0.36482,0.23675 0.0977,0.05051 0.17254,0.08102 0.2245,0.09153 l 0.07793,0.01577 c 0.0083,0 0.02185,-0.0032 0.04055,-0.0095 0.01871,-0.0063 0.03222,-0.01368 0.04053,-0.0221 l 0.356,-0.366 c 0.07485,-0.06734 0.16214,-0.10101 0.26192,-0.10101 0.0707,0 0.1268,0.01261 0.16838,0.03788 l 0.0062,0 1.2036,0.71972 c 0.08734,0.05474 0.13931,0.12419 0.15594,0.20836 z"
       inkscape:connector-curvature="0"
       style="opacity:0.15" />
    <path
       id="path4051"
       d="m 18.318,37.124 c 0.01246,0.09681 -0.01664,0.18098 -0.08731,0.25253 l -0.82942,0.83335 c -0.03741,0.04209 -0.08627,0.07789 -0.14655,0.10733 -0.06028,0.02946 -0.11952,0.0484 -0.17771,0.05682 -0.0042,0 -0.01664,0.0012 -0.03744,0.0032 -0.02077,0.0021 -0.04779,0.0032 -0.08105,0.0032 -0.07901,0 -0.20686,-0.01369 -0.38355,-0.04104 -0.17669,-0.02734 -0.39288,-0.09472 -0.64855,-0.20203 -0.25571,-0.10733 -0.54569,-0.26834 -0.86997,-0.48297 -0.32428,-0.21464 -0.66936,-0.50928 -1.0352,-0.88388 -0.29103,-0.29042 -0.53216,-0.5682 -0.72341,-0.83336 -0.19125,-0.26516 -0.34507,-0.51033 -0.46149,-0.73551 -0.11642,-0.22518 -0.20373,-0.42931 -0.26193,-0.6124 -0.05821,-0.18309 -0.0977,-0.34092 -0.11849,-0.4735 -0.02079,-0.13258 -0.0291,-0.23675 -0.02495,-0.31251 0.0042,-0.07576 0.0062,-0.11785 0.0062,-0.12627 0.0083,-0.05892 0.02704,-0.1189 0.05612,-0.17993 0.0291,-0.06103 0.06444,-0.11048 0.10602,-0.14836 l 0.82942,-0.83968 c 0.0582,-0.05892 0.12472,-0.08839 0.19956,-0.08839 0.05405,0 0.10186,0.01577 0.14344,0.04735 0.04157,0.03157 0.07691,0.0705 0.10602,0.1168 l 0.66728,1.2816 c 0.03742,0.06734 0.04781,0.141 0.03118,0.22097 -0.01664,0.07997 -0.05197,0.14731 -0.10602,0.20203 l -0.30558,0.30935 c -0.0083,0.0084 -0.01558,0.02209 -0.02182,0.04104 -0.0062,0.01894 -0.0094,0.03472 -0.0094,0.04735 0.01664,0.08839 0.05405,0.1894 0.11225,0.30304 0.04989,0.10101 0.1268,0.22412 0.23074,0.36933 0.10394,0.14521 0.25153,0.31252 0.44277,0.5019 0.18709,0.19362 0.35339,0.34408 0.4989,0.45142 0.14549,0.1073 0.26712,0.18624 0.36482,0.23675 0.0977,0.05051 0.17254,0.08102 0.2245,0.09153 l 0.07793,0.01577 c 0.0083,0 0.02185,-0.0032 0.04055,-0.0095 0.01871,-0.0063 0.03222,-0.01368 0.04053,-0.0221 l 0.356,-0.366 c 0.07485,-0.06734 0.16214,-0.10101 0.26192,-0.10101 0.0707,0 0.1268,0.01261 0.16838,0.03788 l 0.0062,0 1.2036,0.71972 c 0.08734,0.05474 0.13931,0.12419 0.15594,0.20836 z"
       inkscape:connector-curvature="0"
       style="fill:#ffffff" />
    <g
       id="g2995"
       transform="matrix(0.23899,0,0,0.23223,17.076,8.9659)"
       style="fill:#ffffff">
      <path
         id="path829"
         d="m -6.8226,5.8194 0,-13.992 c 0,-0.51562 0.16797,-0.94531 0.50391,-1.2891 0.33594,-0.34375 0.76953,-0.51562 1.3008,-0.51562 0.53125,0 0.96094,0.16016 1.2891,0.48047 0.33594,0.32031 0.50391,0.76172 0.50391,1.3242 l 0,5.2266 5.9062,-6.3516 c 0.41406,-0.45312 0.87891,-0.67969 1.3945,-0.67969 0.47656,0 0.89062,0.16406 1.2422,0.49219 0.35938,0.32031 0.53906,0.74219 0.53906,1.2656 0,0.29688 -0.09375,0.58984 -0.28125,0.87891 -0.1875,0.28125 -0.48828,0.62891 -0.90234,1.043 l -4.5352,4.5115 5.543,5.8477 C 6.0016,4.36625 6.2477,4.66312 6.41957,4.95218 6.59926,5.23343 6.6891,5.54593 6.6891,5.88968 6.6891,6.43656 6.50941,6.85452 6.15004,7.14358 5.79066,7.42483 5.34535,7.56546 4.81414,7.56546 4.50164,7.56546 4.21648,7.479523 3.95867,7.30765 3.70867,7.13577 3.38836,6.84671 2.99773,6.44046 l -6.2227,-6.7969 0,6.1758 c 0,0.49219 -0.16797,0.90625 -0.50391,1.2422 -0.33594,0.33594 -0.76562,0.50391 -1.2891,0.50391 -0.52344,0 -0.95703,-0.16016 -1.3008,-0.48047 C -6.65472,6.76469 -6.82269,6.34281 -6.82269,5.8194 Z"
         transform="matrix(1.9888,0,0,1.9888,40.429,22.143)"
         inkscape:connector-curvature="0" />
      <path
         id="path705"
         d="m 37.139,181.15 15.807,16.56 25.592,-17.313 20.323,9.0328 6.7744,29.668 21.829,-0.20049 6.0218,-30.441 20.323,-8.0594 25.592,16.56 12.043,-16.56 -29.044,-27.409 c -74.441,68.27 -138.77,-36.96 -74.829,-80.986 l 0,-15.808 -7.527,3.764 -23.334,-14.834 -16.119,13.237 14.613,24.931 -8.2799,20.323 -28.515,4.7368 -0.088,21.608 29.356,7.5272 8.0917,19.759 -18.63,23.899 z"
         transform="matrix(0.29003,0,0,0.29003,-1.4462,-5.265)"
         inkscape:connector-curvature="0"
         style="fill-rule:evenodd" />
    </g>
  </g>
</svg>
