<?xml version="1.0" encoding="UTF-8" standalone="no"?>
<svg
   xmlns:dc="http://purl.org/dc/elements/1.1/"
   xmlns:cc="http://creativecommons.org/ns#"
   xmlns:rdf="http://www.w3.org/1999/02/22-rdf-syntax-ns#"
   xmlns:svg="http://www.w3.org/2000/svg"
   xmlns="http://www.w3.org/2000/svg"
   xmlns:sodipodi="http://sodipodi.sourceforge.net/DTD/sodipodi-0.dtd"
   xmlns:inkscape="http://www.inkscape.org/namespaces/inkscape"
   height="48"
   width="48"
   version="1.1"
   id="svg2"
   inkscape:version="0.91 r13725"
   sodipodi:docname="komodo.svg">
  <metadata
     id="metadata68">
    <rdf:RDF>
      <cc:Work
         rdf:about="">
        <dc:format>image/svg+xml</dc:format>
        <dc:type
           rdf:resource="http://purl.org/dc/dcmitype/StillImage" />
        <dc:title></dc:title>
      </cc:Work>
    </rdf:RDF>
  </metadata>
  <sodipodi:namedview
     pagecolor="#ffffff"
     bordercolor="#666666"
     borderopacity="1"
     objecttolerance="10"
     gridtolerance="10"
     guidetolerance="10"
     inkscape:pageopacity="0"
     inkscape:pageshadow="2"
     inkscape:window-width="1535"
     inkscape:window-height="876"
     id="namedview66"
     showgrid="false"
     inkscape:zoom="1"
     inkscape:cx="20.47367"
     inkscape:cy="24"
     inkscape:window-x="65"
     inkscape:window-y="24"
     inkscape:window-maximized="1"
     inkscape:current-layer="svg2" />
  <defs
     id="defs4">
    <linearGradient
       id="f"
       y2="43"
       gradientUnits="userSpaceOnUse"
       x2="24"
       gradientTransform="translate(1.17e-5,0)"
       y1="5"
       x1="24">
      <stop
         stop-color="#fff"
         offset="0"
         id="stop7" />
      <stop
         stop-color="#fff"
         stop-opacity=".23529"
         offset=".063165"
         id="stop9" />
      <stop
         stop-color="#fff"
         stop-opacity=".15686"
         offset=".95056"
         id="stop11" />
      <stop
         stop-color="#fff"
         stop-opacity=".39216"
         offset="1"
         id="stop13" />
    </linearGradient>
    <radialGradient
       id="a"
       gradientUnits="userSpaceOnUse"
       cy="8.4498"
       cx="7.4957"
       gradientTransform="matrix(0,2.0716,-2.4089,-5.6386e-8,44.354,-9.9606)"
       r="20">
      <stop
         stop-color="#f8de97"
         offset="0"
         id="stop16" />
      <stop
         stop-color="#f6ce68"
         offset=".26238"
         id="stop18" />
      <stop
         stop-color="#f4ba27"
         offset=".70495"
         id="stop20" />
      <stop
         stop-color="#d89e0c"
         offset="1"
         id="stop22" />
    </radialGradient>
    <linearGradient
       id="e"
       y2="5.0205"
       gradientUnits="userSpaceOnUse"
       x2="-1.2857"
       gradientTransform="translate(41.286,-1)"
       y1="44.977"
       x1="-1.2857">
      <stop
         stop-color="#b98809"
         offset="0"
         id="stop42" />
      <stop
         stop-color="#dca10b"
         offset="1"
         id="stop44" />
    </linearGradient>
  </defs>
  <rect
     style="color:#000000;fill:url(#a)"
     rx="1.5031"
     ry="1.5031"
     height="38"
     width="38"
     y="5"
     x="5"
     id="rect54" />
  <rect
     style="opacity:0.5;fill:none;stroke:url(#f);stroke-linecap:round;stroke-linejoin:round"
     rx="1"
     ry="1"
     height="37"
     width="37"
     y="5.5"
     x="5.5"
     id="rect56" />
  <rect
     style="color:#000000;fill:none;stroke:url(#e);stroke-linecap:round;stroke-linejoin:round"
     rx="2"
     ry="2"
     height="39"
     width="39"
     y="4.5"
     x="4.5"
     id="rect58" />
  <path
     style="opacity:0.3;fill:#000000;fill-opacity:1"
     d="m 16.810016,38.872987 c -0.07,-0.06986 -0.12729,-0.327068 -0.12729,-0.571578 0,-0.545036 -0.2969,-0.577955 -0.57281,-0.06351 -0.32662,0.608998 -0.5941,0.441786 -0.53334,-0.33342 0.0437,-0.557684 -0.007,-0.698305 -0.2304,-0.640798 -1.27631,0.328315 -1.28392,0.317479 -0.42961,-0.611603 0.91285,-0.992746 1.07941,-1.591183 0.38188,-1.372109 -0.23629,0.07421 -0.92323,0.180221 -1.52653,0.235577 -1.85796,0.170481 -3.7719504,-1.035539 -3.7719504,-2.37674 0,-0.565754 0.9878804,-1.358203 2.4089404,-1.932385 0.72287,-0.292078 1.33634,-0.651385 1.36328,-0.798462 0.027,-0.147076 -0.25521,-0.463005 -0.62699,-0.702061 -0.85189,-0.547778 -1.32907,-1.31624 -1.83291,-2.951718 -0.58041,-1.884007 -0.45193,-5.139539 0.28743,-7.283088 2.56395,-7.433453 10.01597,-10.5165903 17.04812,-7.053349 4.5008,2.216576 7.75307,5.726975 8.46174,9.133313 0.19188,0.922287 0.17315,1.120131 -0.16952,1.790379 -0.45071,0.881567 -1.45774,1.940699 -1.84522,1.940699 -0.14864,0 -0.50542,-0.278644 -0.79285,-0.619209 -0.75251,-0.891637 -4.14766,-4.246575 -5.56272,-5.496854 l -1.20778,-1.067125 0.13406,-1.070693 c 0.12828,-1.024503 0.11273,-1.080394 -0.3605,-1.295547 -0.71993,-0.327319 -1.72407,-0.0061 -1.80808,0.578351 -0.0476,0.331051 0.19873,0.713003 0.94815,1.470218 l 1.01245,1.022976 -1.1391,0.0026 c -2.06795,0.0047 -2.46751,0.331666 -1.44972,1.186242 0.75376,0.632876 1.01592,1.189111 0.9498,2.015173 l -0.0561,0.701766 0.90184,-0.0462 c 0.69301,-0.0355 0.90185,0.01965 0.90185,0.238158 0,0.156395 -0.0859,0.284354 -0.19094,0.284354 -0.31725,0 -0.21424,0.538939 0.14321,0.74915 0.25946,0.152594 0.27935,0.232625 0.089,0.35812 -0.13483,0.08889 -0.19008,0.304798 -0.12278,0.479802 0.18488,0.48076 -0.19483,0.394301 -1.67349,-0.381043 -1.22028,-0.63986 -1.37327,-0.788948 -1.80181,-1.755891 -0.75912,-1.712801 -1.40753,-2.170518 -1.40753,-0.993578 0,0.291423 -0.18094,1.208032 -0.40208,2.036911 -0.70413,2.639114 -0.78708,2.364265 0.71396,2.365483 1.50417,0.0011 2.59152,0.253958 2.95074,0.685853 0.26318,0.316439 0.29483,1.183973 0.0841,2.304917 -0.12234,0.650686 -0.10886,0.671488 0.35913,0.554284 0.45627,-0.114272 0.47915,-0.08639 0.37116,0.452366 -0.11104,0.554032 -0.0908,0.57414 0.57706,0.57414 0.38069,0 0.69215,0.08574 0.69215,0.190526 0,0.104789 -0.0695,0.190526 -0.15444,0.190526 -0.085,0 -0.32009,0.120862 -0.52254,0.268581 -0.36121,0.263558 -0.36134,0.27603 -0.007,0.66684 0.41271,0.455059 0.36466,0.472217 -1.13001,0.403618 -1.12821,-0.05178 -1.36496,-0.209016 -1.53396,-1.018784 -0.19696,-0.943778 -0.63364,-1.533391 -0.9448,-1.275707 -0.59014,0.488717 0.55258,2.503142 1.97321,3.478462 2.00753,1.378253 4.29767,1.701149 6.40548,0.903135 1.43307,-0.542556 3.51313,-2.55608 4.66131,-4.51221 1.27954,-2.17991 1.55932,-2.141641 1.09404,0.149647 -0.77367,3.810046 -3.39755,6.675069 -7.24878,7.914972 -1.23568,0.397826 -1.92221,0.497221 -3.45182,0.499748 -3.18814,0.0053 -5.01255,-0.889067 -7.96482,-3.904393 -1.85742,-1.897086 -2.41151,-2.043483 -1.46119,-0.386054 l 0.60932,1.062682 -0.61616,1.875778 C 17.316966,38.155901 17.016646,39 16.988486,39 c -0.0282,0 -0.1085,-0.05716 -0.17851,-0.127018 z m 0.84734,-10.27744 c -1.65624,-3.304443 -2.02478,-4.635755 -2.02478,-7.314456 0,-2.009353 0.0425,-2.2714 0.51239,-3.159992 1.42209,-2.689234 4.46166,-4.260639 8.25502,-4.267706 1.77887,-0.0033 3.79248,0.309631 4.5981,0.71461 0.99231,0.498818 2.40746,1.794506 3.8535,3.528168 1.69219,2.02879 1.82955,2.415319 0.59039,1.661424 -0.34384,-0.209187 -0.81146,-0.38066 -1.03915,-0.381052 -0.73324,-0.0013 -1.00499,-0.21391 -1.13119,-0.885185 -0.0906,-0.481918 -0.35632,-0.834506 -0.99644,-1.322229 -1.44576,-1.101545 -1.99602,-0.605984 -0.99746,0.898313 0.84249,1.26921 5.48422,5.729436 5.88503,5.654923 0.58299,-0.108379 1.02892,-1.275061 0.93411,-2.443856 -0.16046,-1.977971 -1.55608,-4.033804 -3.73868,-5.507286 -1.99181,-1.344682 -5.76844,-3.061633 -7.47033,-3.396207 -5.42281,-1.066056 -10.71567,2.306659 -11.49398,7.324189 -0.46614,3.005027 1.19897,6.978136 4.31692,10.300566 0.51738,0.551306 0.9725,0.970632 1.01138,0.931836 0.0389,-0.0388 -0.4403,-1.090024 -1.06483,-2.33606 z"
     id="path4207"
     inkscape:connector-curvature="0" />
  <path
     style="fill:none;fill-opacity:1;stroke:#000000;stroke-opacity:1;opacity:0.15"
     d="m 16.810016,37.872986 c -0.07,-0.06986 -0.12729,-0.327068 -0.12729,-0.571578 0,-0.545036 -0.2969,-0.577955 -0.57281,-0.06351 -0.32662,0.608998 -0.5941,0.441786 -0.53334,-0.33342 0.0437,-0.557684 -0.007,-0.698305 -0.2304,-0.640798 -1.27631,0.328315 -1.28392,0.317479 -0.42961,-0.611603 0.91285,-0.992746 1.07941,-1.591183 0.38188,-1.372109 -0.23629,0.07421 -0.92323,0.180221 -1.52653,0.235577 -1.85796,0.170481 -3.7719504,-1.035539 -3.7719504,-2.37674 0,-0.565754 0.9878804,-1.358203 2.4089404,-1.932385 0.72287,-0.292078 1.33634,-0.651385 1.36328,-0.798462 0.027,-0.147076 -0.25521,-0.463005 -0.62699,-0.702061 -0.85189,-0.547778 -1.32907,-1.31624 -1.83291,-2.951718 -0.58041,-1.884007 -0.45193,-5.139539 0.28743,-7.283088 2.56395,-7.433453 10.01597,-10.5165903 17.04812,-7.053349 4.5008,2.216576 7.75307,5.726975 8.46174,9.133313 0.19188,0.922287 0.17315,1.120131 -0.16952,1.790379 -0.45071,0.881567 -1.45774,1.940699 -1.84522,1.940699 -0.14864,0 -0.50542,-0.278644 -0.79285,-0.619209 -0.75251,-0.891637 -4.14766,-4.246575 -5.56272,-5.496854 l -1.20778,-1.067125 0.13406,-1.070693 c 0.12828,-1.024503 0.11273,-1.080394 -0.3605,-1.295547 -0.71993,-0.327319 -1.72407,-0.0061 -1.80808,0.578351 -0.0476,0.331051 0.19873,0.713003 0.94815,1.470218 l 1.01245,1.022976 -1.1391,0.0026 c -2.06795,0.0047 -2.46751,0.331666 -1.44972,1.186242 0.75376,0.632876 1.01592,1.189111 0.9498,2.015173 l -0.0561,0.701766 0.90184,-0.0462 c 0.69301,-0.0355 0.90185,0.01965 0.90185,0.238158 0,0.156395 -0.0859,0.284354 -0.19094,0.284354 -0.31725,0 -0.21424,0.538939 0.14321,0.74915 0.25946,0.152594 0.27935,0.232625 0.089,0.35812 -0.13483,0.08889 -0.19008,0.304798 -0.12278,0.479802 0.18488,0.48076 -0.19483,0.394301 -1.67349,-0.381043 -1.22028,-0.63986 -1.37327,-0.788948 -1.80181,-1.755891 -0.75912,-1.712801 -1.40753,-2.170518 -1.40753,-0.993578 0,0.291423 -0.18094,1.208032 -0.40208,2.036911 -0.70413,2.639114 -0.78708,2.364265 0.71396,2.365483 1.50417,0.0011 2.59152,0.253958 2.95074,0.685853 0.26318,0.316439 0.29483,1.183973 0.0841,2.304917 -0.12234,0.650686 -0.10886,0.671488 0.35913,0.554284 0.45627,-0.114272 0.47915,-0.08639 0.37116,0.452366 -0.11104,0.554032 -0.0908,0.57414 0.57706,0.57414 0.38069,0 0.69215,0.08574 0.69215,0.190526 0,0.104789 -0.0695,0.190526 -0.15444,0.190526 -0.085,0 -0.32009,0.120862 -0.52254,0.268581 -0.36121,0.263558 -0.36134,0.27603 -0.007,0.66684 0.41271,0.455059 0.36466,0.472217 -1.13001,0.403618 -1.12821,-0.05178 -1.36496,-0.209016 -1.53396,-1.018784 -0.19696,-0.943778 -0.63364,-1.533391 -0.9448,-1.275707 -0.59014,0.488717 0.55258,2.503142 1.97321,3.478462 2.00753,1.378253 4.29767,1.701149 6.40548,0.903135 1.43307,-0.542556 3.51313,-2.55608 4.66131,-4.51221 1.27954,-2.17991 1.55932,-2.141641 1.09404,0.149647 -0.77367,3.810046 -3.39755,6.675069 -7.24878,7.914972 -1.23568,0.397826 -1.92221,0.497221 -3.45182,0.499748 -3.18814,0.0053 -5.01255,-0.889067 -7.96482,-3.904393 -1.85742,-1.897086 -2.41151,-2.043483 -1.46119,-0.386054 l 0.60932,1.062682 -0.61616,1.875778 c -0.33889,1.031676 -0.63921,1.875775 -0.66737,1.875775 -0.0282,0 -0.1085,-0.05716 -0.17851,-0.127018 z m 0.84734,-10.27744 c -1.65624,-3.304443 -2.02478,-4.635755 -2.02478,-7.314456 0,-2.009353 0.0425,-2.2714 0.51239,-3.159992 1.42209,-2.689234 4.46166,-4.260639 8.25502,-4.267706 1.77887,-0.0033 3.79248,0.309631 4.5981,0.71461 0.99231,0.498818 2.40746,1.794506 3.8535,3.528168 1.69219,2.02879 1.82955,2.415319 0.59039,1.661424 -0.34384,-0.209187 -0.81146,-0.38066 -1.03915,-0.381052 -0.73324,-0.0013 -1.00499,-0.21391 -1.13119,-0.885185 -0.0906,-0.481918 -0.35632,-0.834506 -0.99644,-1.322229 -1.44576,-1.101545 -1.99602,-0.605984 -0.99746,0.898313 0.84249,1.26921 5.48422,5.729436 5.88503,5.654923 0.58299,-0.108379 1.02892,-1.275061 0.93411,-2.443856 -0.16046,-1.977971 -1.55608,-4.033804 -3.73868,-5.507286 -1.99181,-1.344682 -5.76844,-3.061633 -7.47033,-3.396207 -5.42281,-1.066056 -10.71567,2.306659 -11.49398,7.324189 -0.46614,3.005027 1.19897,6.978136 4.31692,10.300566 0.51738,0.551306 0.9725,0.970632 1.01138,0.931836 0.0389,-0.0388 -0.4403,-1.090024 -1.06483,-2.33606 z"
     id="path4209"
     inkscape:connector-curvature="0" />
  <path
     inkscape:connector-curvature="0"
     id="path4186"
     d="m 16.810016,37.872986 c -0.07,-0.06986 -0.12729,-0.327068 -0.12729,-0.571578 0,-0.545036 -0.2969,-0.577955 -0.57281,-0.06351 -0.32662,0.608998 -0.5941,0.441786 -0.53334,-0.33342 0.0437,-0.557684 -0.007,-0.698305 -0.2304,-0.640798 -1.27631,0.328315 -1.28392,0.317479 -0.42961,-0.611603 0.91285,-0.992746 1.07941,-1.591183 0.38188,-1.372109 -0.23629,0.07421 -0.92323,0.180221 -1.52653,0.235577 -1.85796,0.170481 -3.7719504,-1.035539 -3.7719504,-2.37674 0,-0.565754 0.9878804,-1.358203 2.4089404,-1.932385 0.72287,-0.292078 1.33634,-0.651385 1.36328,-0.798462 0.027,-0.147076 -0.25521,-0.463005 -0.62699,-0.702061 -0.85189,-0.547778 -1.32907,-1.31624 -1.83291,-2.951718 -0.58041,-1.884007 -0.45193,-5.139539 0.28743,-7.283088 2.56395,-7.433453 10.01597,-10.5165903 17.04812,-7.053349 4.5008,2.216576 7.75307,5.726975 8.46174,9.133313 0.19188,0.922287 0.17315,1.120131 -0.16952,1.790379 -0.45071,0.881567 -1.45774,1.940699 -1.84522,1.940699 -0.14864,0 -0.50542,-0.278644 -0.79285,-0.619209 -0.75251,-0.891637 -4.14766,-4.246575 -5.56272,-5.496854 l -1.20778,-1.067125 0.13406,-1.070693 c 0.12828,-1.024503 0.11273,-1.080394 -0.3605,-1.295547 -0.71993,-0.327319 -1.72407,-0.0061 -1.80808,0.578351 -0.0476,0.331051 0.19873,0.713003 0.94815,1.470218 l 1.01245,1.022976 -1.1391,0.0026 c -2.06795,0.0047 -2.46751,0.331666 -1.44972,1.186242 0.75376,0.632876 1.01592,1.189111 0.9498,2.015173 l -0.0561,0.701766 0.90184,-0.0462 c 0.69301,-0.0355 0.90185,0.01965 0.90185,0.238158 0,0.156395 -0.0859,0.284354 -0.19094,0.284354 -0.31725,0 -0.21424,0.538939 0.14321,0.74915 0.25946,0.152594 0.27935,0.232625 0.089,0.35812 -0.13483,0.08889 -0.19008,0.304798 -0.12278,0.479802 0.18488,0.48076 -0.19483,0.394301 -1.67349,-0.381043 -1.22028,-0.63986 -1.37327,-0.788948 -1.80181,-1.755891 -0.75912,-1.712801 -1.40753,-2.170518 -1.40753,-0.993578 0,0.291423 -0.18094,1.208032 -0.40208,2.036911 -0.70413,2.639114 -0.78708,2.364265 0.71396,2.365483 1.50417,0.0011 2.59152,0.253958 2.95074,0.685853 0.26318,0.316439 0.29483,1.183973 0.0841,2.304917 -0.12234,0.650686 -0.10886,0.671488 0.35913,0.554284 0.45627,-0.114272 0.47915,-0.08639 0.37116,0.452366 -0.11104,0.554032 -0.0908,0.57414 0.57706,0.57414 0.38069,0 0.69215,0.08574 0.69215,0.190526 0,0.104789 -0.0695,0.190526 -0.15444,0.190526 -0.085,0 -0.32009,0.120862 -0.52254,0.268581 -0.36121,0.263558 -0.36134,0.27603 -0.007,0.66684 0.41271,0.455059 0.36466,0.472217 -1.13001,0.403618 -1.12821,-0.05178 -1.36496,-0.209016 -1.53396,-1.018784 -0.19696,-0.943778 -0.63364,-1.533391 -0.9448,-1.275707 -0.59014,0.488717 0.55258,2.503142 1.97321,3.478462 2.00753,1.378253 4.29767,1.701149 6.40548,0.903135 1.43307,-0.542556 3.51313,-2.55608 4.66131,-4.51221 1.27954,-2.17991 1.55932,-2.141641 1.09404,0.149647 -0.77367,3.810046 -3.39755,6.675069 -7.24878,7.914972 -1.23568,0.397826 -1.92221,0.497221 -3.45182,0.499748 -3.18814,0.0053 -5.01255,-0.889067 -7.96482,-3.904393 -1.85742,-1.897086 -2.41151,-2.043483 -1.46119,-0.386054 l 0.60932,1.062682 -0.61616,1.875778 c -0.33889,1.031676 -0.63921,1.875775 -0.66737,1.875775 -0.0282,0 -0.1085,-0.05716 -0.17851,-0.127018 z m 0.84734,-10.27744 c -1.65624,-3.304443 -2.02478,-4.635755 -2.02478,-7.314456 0,-2.009353 0.0425,-2.2714 0.51239,-3.159992 1.42209,-2.689234 4.46166,-4.260639 8.25502,-4.267706 1.77887,-0.0033 3.79248,0.309631 4.5981,0.71461 0.99231,0.498818 2.40746,1.794506 3.8535,3.528168 1.69219,2.02879 1.82955,2.415319 0.59039,1.661424 -0.34384,-0.209187 -0.81146,-0.38066 -1.03915,-0.381052 -0.73324,-0.0013 -1.00499,-0.21391 -1.13119,-0.885185 -0.0906,-0.481918 -0.35632,-0.834506 -0.99644,-1.322229 -1.44576,-1.101545 -1.99602,-0.605984 -0.99746,0.898313 0.84249,1.26921 5.48422,5.729436 5.88503,5.654923 0.58299,-0.108379 1.02892,-1.275061 0.93411,-2.443856 -0.16046,-1.977971 -1.55608,-4.033804 -3.73868,-5.507286 -1.99181,-1.344682 -5.76844,-3.061633 -7.47033,-3.396207 -5.42281,-1.066056 -10.71567,2.306659 -11.49398,7.324189 -0.46614,3.005027 1.19897,6.978136 4.31692,10.300566 0.51738,0.551306 0.9725,0.970632 1.01138,0.931836 0.0389,-0.0388 -0.4403,-1.090024 -1.06483,-2.33606 z"
     style="fill:#ffffff;fill-opacity:1" />
</svg>
