<?xml version="1.0" encoding="UTF-8" standalone="no"?>
<svg
   xmlns:dc="http://purl.org/dc/elements/1.1/"
   xmlns:cc="http://creativecommons.org/ns#"
   xmlns:rdf="http://www.w3.org/1999/02/22-rdf-syntax-ns#"
   xmlns:svg="http://www.w3.org/2000/svg"
   xmlns="http://www.w3.org/2000/svg"
   xmlns:xlink="http://www.w3.org/1999/xlink"
   xmlns:sodipodi="http://sodipodi.sourceforge.net/DTD/sodipodi-0.dtd"
   xmlns:inkscape="http://www.inkscape.org/namespaces/inkscape"
   version="1.1"
   width="48"
   height="48"
   id="svg21739"
   inkscape:version="0.91 r13725"
   sodipodi:docname="krusader_user.svg">
  <sodipodi:namedview
     pagecolor="#ffffff"
     bordercolor="#666666"
     borderopacity="1"
     objecttolerance="10"
     gridtolerance="10"
     guidetolerance="10"
     inkscape:pageopacity="0"
     inkscape:pageshadow="2"
     inkscape:window-width="1600"
     inkscape:window-height="876"
     id="namedview59"
     showgrid="false"
     inkscape:zoom="1"
     inkscape:cx="7.641852"
     inkscape:cy="24"
     inkscape:window-x="0"
     inkscape:window-y="24"
     inkscape:window-maximized="1"
     inkscape:current-layer="svg21739" />
  <defs
     id="defs21741">
    <linearGradient
       x1="42.470848"
       y1="11.952797"
       x2="42.470848"
       y2="35.581654"
       id="linearGradient3381-56-2-43-7-2"
       xlink:href="#linearGradient3454-2-8-7-0-3"
       gradientUnits="userSpaceOnUse"
       gradientTransform="matrix(0.89189031,0,0,1.0986542,3.1206756,1.8781269)" />
    <linearGradient
       id="linearGradient3454-2-8-7-0-3">
      <stop
         id="stop3456-4-7-1-7-23"
         style="stop-color:#ffffff;stop-opacity:1"
         offset="0" />
      <stop
         id="stop3458-39-0-1-8-77"
         style="stop-color:#ffffff;stop-opacity:0.23529412"
         offset="0.0097359" />
      <stop
         id="stop3460-7-5-9-6-3"
         style="stop-color:#ffffff;stop-opacity:0.15686275"
         offset="0.99001008" />
      <stop
         id="stop3462-0-5-41-2-7"
         style="stop-color:#ffffff;stop-opacity:0.39215687"
         offset="1" />
    </linearGradient>
    <linearGradient
       x1="22.934725"
       y1="49.629246"
       x2="22.809399"
       y2="36.657963"
       id="linearGradient3072-0-9-4-3"
       xlink:href="#linearGradient6129-963-697-142-998-580-273-0-4-4-5"
       gradientUnits="userSpaceOnUse"
       gradientTransform="matrix(1.1446925,0,0,0.9977536,-3.4660853,-0.9118414)" />
    <linearGradient
       id="linearGradient6129-963-697-142-998-580-273-0-4-4-5">
      <stop
         id="stop2661-3-72-3-7"
         style="stop-color:#0a0a0a;stop-opacity:0.498"
         offset="0" />
      <stop
         id="stop2663-2-85-1-5"
         style="stop-color:#0a0a0a;stop-opacity:0"
         offset="1" />
    </linearGradient>
    <linearGradient
       x1="35.792694"
       y1="17.118193"
       x2="35.792694"
       y2="43.761127"
       id="linearGradient4638-4-65-4-6"
       xlink:href="#linearGradient4632-92-3-0-8"
       gradientUnits="userSpaceOnUse"
       gradientTransform="matrix(1,0,0,1.0357143,1.4680025e-5,-3.5997714)" />
    <linearGradient
       id="linearGradient4632-92-3-0-8">
      <stop
         id="stop4634-68-8-0-2"
         style="stop-color:#cdc9e3;stop-opacity:1"
         offset="0" />
      <stop
         id="stop4636-8-21-7-1"
         style="stop-color:#9389cb;stop-opacity:1"
         offset="1" />
    </linearGradient>
    <linearGradient
       x1="21.37039"
       y1="4.2476678"
       x2="21.37039"
       y2="34.143417"
       id="linearGradient3381-5-5-8-4-8"
       xlink:href="#linearGradient4507-9-5-4-6"
       gradientUnits="userSpaceOnUse"
       gradientTransform="matrix(0.89189031,0,0,1.0580283,3.1207147,3.3429186)" />
    <linearGradient
       id="linearGradient4507-9-5-4-6">
      <stop
         id="stop4509-9-5-3-5"
         style="stop-color:#ffffff;stop-opacity:1"
         offset="0" />
      <stop
         id="stop4511-7-3-2-5"
         style="stop-color:#ffffff;stop-opacity:0.23529412"
         offset="0.07395859" />
      <stop
         id="stop4513-2-3-2-9"
         style="stop-color:#ffffff;stop-opacity:0.15686275"
         offset="0.99001008" />
      <stop
         id="stop4515-3-0-7-3"
         style="stop-color:#ffffff;stop-opacity:0.39215687"
         offset="1" />
    </linearGradient>
    <linearGradient
       x1="62.988873"
       y1="13"
       x2="62.988873"
       y2="16"
       id="linearGradient3089-5-2-9-9-9-0"
       xlink:href="#linearGradient4646-6-8-7-4"
       gradientUnits="userSpaceOnUse"
       gradientTransform="translate(-50.940882,-2.0106814)" />
    <linearGradient
       id="linearGradient4646-6-8-7-4">
      <stop
         id="stop4648-2-38-0-2"
         style="stop-color:#f9f9f9;stop-opacity:1"
         offset="0" />
      <stop
         id="stop4650-3-1-2-70"
         style="stop-color:#d8d8d8;stop-opacity:1"
         offset="1" />
    </linearGradient>
    <linearGradient
       id="linearGradient3104-8-8-97-4-6-2-75-0-1">
      <stop
         id="stop3106-5-4-3-5-0-1-9-2-1"
         style="stop-color:#000000;stop-opacity:0.32173914"
         offset="0" />
      <stop
         id="stop3108-4-3-7-8-2-4-1-8-9"
         style="stop-color:#000000;stop-opacity:0.27826086"
         offset="1" />
    </linearGradient>
    <linearGradient
       x1="-51.786404"
       y1="53.514328"
       x2="-51.786404"
       y2="3.6336823"
       id="linearGradient21737"
       xlink:href="#linearGradient3104-8-8-97-4-6-2-75-0-1"
       gradientUnits="userSpaceOnUse"
       gradientTransform="matrix(0.80749834,0,0,0.83374395,106.87671,-2.0805214)" />
  </defs>
  <metadata
     id="metadata21744">
    <rdf:RDF>
      <cc:Work
         rdf:about="">
        <dc:format>image/svg+xml</dc:format>
        <dc:type
           rdf:resource="http://purl.org/dc/dcmitype/StillImage" />
        <dc:title></dc:title>
      </cc:Work>
    </rdf:RDF>
  </metadata>
  <path
     inkscape:connector-curvature="0"
     style="color:#000000;display:inline;overflow:visible;visibility:visible;opacity:0.8;fill:none;stroke:url(#linearGradient21737);stroke-width:1;stroke-linecap:butt;stroke-linejoin:miter;stroke-miterlimit:4;stroke-dasharray:none;stroke-dashoffset:0;stroke-opacity:1;marker:none;enable-background:accumulate"
     id="rect4251-0-0-6-8-6"
     d="m 5.5000147,6.4893186 c -0.554,0 -1,0.446 -1,1 l 0,1.9999998 -1,0 c -0.554,0 -1,0.446 -1,0.9999996 l 0,6 c 0,0.554 0.446,1 1,1 l 41.0000003,0 c 0.554,0 1,-0.446 1,-1 l 0,-6 c 0,-0.5539996 -0.446,-0.9999996 -1,-0.9999996 l -23,0 0,-1.9999998 c 0,-0.554 -0.446,-1 -1,-1 l -15.0000003,0 z" />
  <path
     inkscape:connector-curvature="0"
     style="color:#000000;display:inline;overflow:visible;visibility:visible;fill:url(#linearGradient3089-5-2-9-9-9-0);fill-opacity:1;fill-rule:nonzero;stroke:none;stroke-width:0.99992168;marker:none;enable-background:accumulate"
     id="rect4251-4-9-5-5"
     d="m 5.5000147,6.9893186 c -0.277,0 -0.5,0.223 -0.5,0.5 l 0,2.4999998 -1.5,0 c -0.277,0 -0.5,0.2229996 -0.5,0.4999996 l 0,6 c 0,0.277 0.223,0.5 0.5,0.5 l 41.0000003,0 c 0.277,0 0.5,-0.223 0.5,-0.5 l 0,-6 c 0,-0.277 -0.223,-0.4999996 -0.5,-0.4999996 l -23.5,0 0,-2.4999998 c 0,-0.277 -0.223,-0.5 -0.5,-0.5 l -15.0000003,0 z" />
  <path
     inkscape:connector-curvature="0"
     style="color:#000000;display:inline;overflow:visible;visibility:visible;fill:none;stroke:url(#linearGradient3381-5-5-8-4-8);stroke-width:1;stroke-linecap:round;stroke-linejoin:round;stroke-miterlimit:4;stroke-dasharray:none;stroke-dashoffset:0;stroke-opacity:1;marker:none;enable-background:accumulate"
     id="rect4251-9-9-07-9-7"
     d="m 5.5000147,7.4893186 0,2.9999994 -2,0 0,7 41.0000003,0 0,-7 -24,0 0,-2.9999994 -15.0000003,0 z" />
  <path
     inkscape:connector-curvature="0"
     style="fill:url(#linearGradient4638-4-65-4-6);fill-opacity:1;stroke:none"
     id="path3388-1-5-0-5"
     d="m 2.1626147,13.489508 c -1.0723,0.12829 -0.4996,1.45416 -0.5851,2.19974 0.1245,0.48182 0.9275,26.17643 0.9275,26.17643 0,0.7414 0.3517,0.61579 1.2429,0.61579 13.1886003,0 27.7726003,0 40.9611003,0 0.9601,0.0231 0.7572,0.0121 0.7572,-0.62748 0,0 0.993,-27.35421 1.0285,-27.7811 0,-0.44949 0.09,-0.58338 -0.4732,-0.58338 -14.084,0 -29.7748,0 -43.8589003,0 z" />
  <path
     inkscape:connector-curvature="0"
     style="opacity:0.4;fill:url(#linearGradient3072-0-9-4-3);fill-opacity:1;stroke:none"
     id="path6127-7-7-9-3"
     d="m 2.0583147,14.054468 43.8964003,4e-4 c 0.6342,0 1.0452,0.44461 1.0452,0.99737 l -1.0324,26.96037 c 0.015,0.6994 -0.2091,0.97671 -0.9459,0.96204 l -41.7807003,-0.0176 c -0.6342,0 -1.2737,-0.41276 -1.2737,-0.96551 l -0.9541,-26.93932 c 0,-0.55276 0.411,-0.99775 1.0452,-0.99775 z" />
  <path
     inkscape:connector-curvature="0"
     style="color:#000000;display:inline;overflow:visible;visibility:visible;opacity:0.5;fill:none;stroke:url(#linearGradient3381-56-2-43-7-2);stroke-width:1.00000012;stroke-linecap:round;stroke-linejoin:miter;stroke-miterlimit:4;stroke-dasharray:none;stroke-dashoffset:0;stroke-opacity:1;marker:none;enable-background:accumulate"
     id="path4587-4-2-2-9"
     d="m 2.5000147,14.490918 c 0.016793,0.183201 0.022163,0.537822 0.03125,0.908598 0.023112,0.08973 0.025524,0.0615 0.03125,0.09735 0.011058,0.06921 0.027034,0.143565 0.03125,0.194699 0.0064,0.07761 -0.00668,0.179687 0,0.29205 0.013352,0.224726 0.045306,0.530459 0.0625,0.908598 0.034388,0.756278 0.078083,1.7745 0.125,3.017843 0.093834,2.486686 0.2030642,5.769016 0.3125,9.02108 0.2122959,6.308724 0.3945663,12.188202 0.40625,12.558122 0.1225025,0.0037 0.071108,0 0.25,0 l 40.7187503,0 c 0.0124,-0.341462 0.253182,-6.673492 0.5,-13.40182 0.126691,-3.453636 0.245386,-6.941969 0.34375,-9.572729 0.04918,-1.31538 0.09434,-2.421025 0.125,-3.212543 0.01322,-0.341236 0.02246,-0.594976 0.03125,-0.811248 l -42.9687503,0 z" />
  <path
     inkscape:connector-curvature="0"
     style="opacity:0.3;fill:none;stroke:#000000;stroke-width:1;stroke-linecap:round;stroke-linejoin:round;stroke-miterlimit:4;stroke-dashoffset:0;stroke-opacity:1"
     id="path3388-1-5-0-5-4"
     d="m 2.1626147,13.489508 c -1.0723,0.12829 -0.4996,1.45416 -0.5851,2.19974 0.1245,0.48182 0.9275,26.17643 0.9275,26.17643 0,0.7414 0.3517,0.61579 1.2429,0.61579 13.1886003,0 27.7726003,0 40.9611003,0 0.9601,0.0231 0.7572,0.0121 0.7572,-0.62748 0,0 0.993,-27.35421 1.0285,-27.7811 0,-0.44949 0.09,-0.58338 -0.4732,-0.58338 -14.084,0 -29.7748,0 -43.8589003,0 z" />
  <path
     inkscape:connector-curvature="0"
     id="path4243"
     d="m 19.447266,22.001945 c -0.07708,-0.003 -0.153738,0.01687 -0.222657,0.06055 C 19.086772,22.149875 19,22.307653 19,22.482417 l 0,10.183594 c 0,0.182697 0.09317,0.340352 0.238281,0.427734 0.14511,0.07942 0.326441,0.06434 0.457032,-0.04687 l 2.30664,-1.890625 2.111328,3.623047 C 24.193091,34.922271 24.339266,35 24.484375,35 c 0.07254,0 0.151502,-0.02278 0.216797,-0.0625 l 2.154297,-1.367187 c 0.101579,-0.06355 0.174113,-0.173675 0.203125,-0.300781 0.02901,-0.127079 0.0087,-0.261986 -0.05664,-0.365235 l -1.966797,-3.392578 2.65625,-0.818359 c 0.159603,-0.05559 0.282923,-0.206003 0.304688,-0.388672 0.02176,-0.182698 -0.05216,-0.373435 -0.197266,-0.46875 l -8.132812,-5.757813 c -0.0653,-0.04766 -0.141667,-0.07319 -0.21875,-0.07617 z"
     style="fill:#ffffff;fill-opacity:1;opacity:0.3" />
  <path
     style="fill:#382a72;fill-opacity:0.55294118"
     d="m 19.447266,21.001945 c -0.07708,-0.003 -0.153738,0.01687 -0.222657,0.06055 C 19.086772,21.149875 19,21.307653 19,21.482417 l 0,10.183594 c 0,0.182697 0.09317,0.340352 0.238281,0.427734 0.14511,0.07942 0.326441,0.06434 0.457032,-0.04687 l 2.30664,-1.890625 2.111328,3.623047 C 24.193091,33.922271 24.339266,34 24.484375,34 c 0.07254,0 0.151502,-0.02278 0.216797,-0.0625 l 2.154297,-1.367187 c 0.101579,-0.06355 0.174113,-0.173675 0.203125,-0.300781 0.02901,-0.127079 0.0087,-0.261986 -0.05664,-0.365235 l -1.966797,-3.392578 2.65625,-0.818359 c 0.159603,-0.05559 0.282923,-0.206003 0.304688,-0.388672 0.02176,-0.182698 -0.05216,-0.373435 -0.197266,-0.46875 l -8.132812,-5.757813 c -0.0653,-0.04766 -0.141667,-0.07319 -0.21875,-0.07617 z"
     id="path4270"
     inkscape:connector-curvature="0" />
  <g
     transform="matrix(0.025606,0,0,0.028034,18.876521,21.160933)"
     id="g4250"
     style="fill:#ffffff">
    <g
       id="g4208"
       style="fill:#ffffff">
      <g
         id="g4210"
         style="fill:#ffffff" />
    </g>
  </g>
</svg>
