<?xml version="1.0" encoding="UTF-8" standalone="no"?>
<!-- Created with Inkscape (http://www.inkscape.org/) -->

<svg
   xmlns:dc="http://purl.org/dc/elements/1.1/"
   xmlns:cc="http://creativecommons.org/ns#"
   xmlns:rdf="http://www.w3.org/1999/02/22-rdf-syntax-ns#"
   xmlns:svg="http://www.w3.org/2000/svg"
   xmlns="http://www.w3.org/2000/svg"
   xmlns:sodipodi="http://sodipodi.sourceforge.net/DTD/sodipodi-0.dtd"
   xmlns:inkscape="http://www.inkscape.org/namespaces/inkscape"
   id="svg4296"
   height="48"
   width="48"
   version="1.1"
   inkscape:version="0.91 r13725"
   sodipodi:docname="legend-of-grimrock.svg">
  <sodipodi:namedview
     pagecolor="#ffffff"
     bordercolor="#666666"
     borderopacity="1"
     objecttolerance="10"
     gridtolerance="10"
     guidetolerance="10"
     inkscape:pageopacity="0"
     inkscape:pageshadow="2"
     inkscape:window-width="1535"
     inkscape:window-height="876"
     id="namedview38"
     showgrid="false"
     inkscape:zoom="4.9166667"
     inkscape:cx="-10.779661"
     inkscape:cy="24"
     inkscape:window-x="65"
     inkscape:window-y="24"
     inkscape:window-maximized="1"
     inkscape:current-layer="svg4296" />
  <defs
     id="defs4298">
    <radialGradient
       id="radialGradient3058"
       gradientUnits="userSpaceOnUse"
       cy="43.5"
       cx="4.993"
       gradientTransform="matrix(2.0038 0 0 1.4 27.988 -17.4)"
       r="2.5">
      <stop
         id="stop2883"
         stop-color="#181818"
         offset="0" />
      <stop
         id="stop2885"
         stop-color="#181818"
         stop-opacity="0"
         offset="1" />
    </radialGradient>
    <radialGradient
       id="radialGradient3060"
       gradientUnits="userSpaceOnUse"
       cy="43.5"
       cx="4.993"
       gradientTransform="matrix(2.0038 0 0 1.4 -20.012 -104.4)"
       r="2.5">
      <stop
         id="stop2889"
         stop-color="#181818"
         offset="0" />
      <stop
         id="stop2891"
         stop-color="#181818"
         stop-opacity="0"
         offset="1" />
    </radialGradient>
    <linearGradient
       id="linearGradient3062"
       y2="39.999"
       gradientUnits="userSpaceOnUse"
       x2="25.058"
       y1="47.028"
       x1="25.058">
      <stop
         id="stop2895"
         stop-color="#181818"
         stop-opacity="0"
         offset="0" />
      <stop
         id="stop2897"
         stop-color="#181818"
         offset=".5" />
      <stop
         id="stop2899"
         stop-color="#181818"
         stop-opacity="0"
         offset="1" />
    </linearGradient>
    <linearGradient
       id="linearGradient3074"
       y2="43"
       gradientUnits="userSpaceOnUse"
       x2="24"
       gradientTransform="translate(4e-6,1)"
       y1="5"
       x1="24">
      <stop
         id="stop3897"
         stop-color="#fff"
         offset="0" />
      <stop
         id="stop3899"
         stop-color="#fff"
         stop-opacity=".23529"
         offset=".052632" />
      <stop
         id="stop3901"
         stop-color="#fff"
         stop-opacity=".15686"
         offset=".95056" />
      <stop
         id="stop3903"
         stop-color="#fff"
         stop-opacity=".39216"
         offset="1" />
    </linearGradient>
    <radialGradient
       id="radialGradient3078"
       gradientUnits="userSpaceOnUse"
       cy="9.9571"
       cx="7.1184"
       gradientTransform="matrix(0,9.1402,-11.221,0,136.56,-77.888)"
       r="12.672">
      <stop
         id="stop4277"
         stop-color="#3c5d39"
         offset="0" />
      <stop
         id="stop4279"
         stop-color="#263722"
         offset=".26238" />
      <stop
         id="stop4281"
         stop-color="#1b2718"
         offset=".70495" />
      <stop
         id="stop4283"
         stop-color="#152014"
         offset="1" />
    </radialGradient>
  </defs>
  <metadata
     id="metadata4301">
    <rdf:RDF>
      <cc:Work
         rdf:about="">
        <dc:format>image/svg+xml</dc:format>
        <dc:type
           rdf:resource="http://purl.org/dc/dcmitype/StillImage" />
        <dc:title />
      </cc:Work>
    </rdf:RDF>
  </metadata>
  <g
     id="g4166"
     transform="translate(0,-1)">
    <path
       d="m 6.5,5.5 35,0 c 1.108,0 2,0.892 2,2 l 0,35 c 0,1.108 -0.892,2 -2,2 l -35,0 c -1.108,0 -2,-0.892 -2,-2 l 0,-35 c 0,-1.108 0.892,-2 2,-2 z"
       style="color:#000000;fill:url(#radialGradient3078);marker:none;marker-start:"
       id="rect5505-21"
       inkscape:connector-curvature="0" />
    <g
       transform="matrix(0.43629,0,0,0.4554,27.022,24.066)"
       id="g4287"
       style="opacity:0.15;fill:none;stroke:#000000;stroke-width:4.48689985;stroke-linecap:round;stroke-linejoin:round">
      <path
         d="m 16.451,-15.515 c -1.8415,0 -3.5859,0.27097 -5.1929,0.83632 -1.6331,0.54863 -3.1786,1.4524 -4.6423,2.6505 -2.2661,1.8303 -3.9998,3.9891 -5.1123,6.4246 a 2.2923,2.1961 0 0 0 -0.00895,0.017154 c -0.97981,2.2046 -1.3649,4.7395 -1.4504,7.4239 -0.4974,-1.1229 -1.038,-2.2239 -1.8399,-3.1308 -0.9605,-1.1148 -2.1347,-2.02 -3.4605,-2.6719 -1.3582,-0.70619 -2.875,-1.0808 -4.4229,-1.0808 -1.5814,0 -3.1295,0.34292 -4.5349,1.0122 -1.3699,0.65234 -2.5786,1.5663 -3.5768,2.6934 a 2.2923,2.1961 0 0 0 -0.02686,0.025733 c -0.96145,1.1217 -1.7106,2.4305 -2.2562,3.8814 -9.99e-4,0.00261 9.97e-4,0.00597 0,0.00858 -7.15e-4,0.00191 -0.0038,0.00238 -0.0045,0.00429 -0.11073,0.29009 -0.07271,0.62819 -0.16116,0.92638 a 2.2923,2.1961 0 0 0 -0.7297,-0.1158 l -1.7951,0 a 2.2923,2.1961 0 0 0 -2.2697,1.8828 c -0.19012,1.2595 -0.48489,2.4732 -0.88638,3.6541 a 2.2923,2.1961 0 0 0 -0.009,0.025733 c -0.36603,1.121 -0.77916,1.8873 -1.0699,2.2473 a 2.2923,2.1961 0 0 0 -0.02686,0.03431 c -0.30756,0.39727 -0.77217,0.7324 -1.6206,1.0122 -0.89729,0.26965 -2.114,0.44175 -3.6485,0.44175 l -1.6832,0 c -0.28315,0 -0.45838,-0.037 -0.67598,-0.06004 l 0,-21.2 c 0.35974,-0.025468 0.75705,-0.051465 1.3788,-0.051465 l 0.74313,0 a 2.2923,2.1961 0 0 0 2.292,-2.1959 l 0,-1.9128 a 2.2923,2.1961 0 0 0 -2.292,-2.1959 l -13.358,0 a 2.2923,2.1961 0 0 0 -2.292,2.1959 l 0,1.9128 a 2.2923,2.1961 0 0 0 2.292,2.1959 l 0.74313,0 c 0.64152,0 1.043,0.025753 1.3788,0.051465 l 0,21.234 c -0.37811,0.01313 -0.76487,0.02573 -1.3788,0.02573 l -0.74313,0 a 2.2923,2.1961 0 0 0 -2.292,2.1959 l 0,1.9128 a 2.2923,2.1961 0 0 0 2.292,2.1959 l 24.062,0 a 2.2923,2.1961 0 0 0 2.2876,-2.0329 l 0.27308,-3.5468 c 0.45416,0.85021 0.84595,1.749 1.4773,2.4618 0.98292,1.1097 2.1552,2.0285 3.4784,2.7062 a 2.2923,2.1961 0 0 0 0.04029,0.01715 c 1.3843,0.67528 2.9142,1.0207 4.4767,1.0207 1.5624,0 3.0923,-0.34546 4.4767,-1.0207 a 2.2923,2.1961 0 0 0 0.022384,-0.0086 c 1.3501,-0.67507 2.5332,-1.6004 3.5007,-2.7234 0.99435,-1.1246 1.758,-2.4351 2.2831,-3.8814 0.34278,-0.914 0.38372,-1.912 0.5153,-2.886 0.68859,1.911 1.6887,3.6584 3.0441,5.1766 1.477,1.6578 3.2725,2.9832 5.3272,3.92 a 2.2923,2.1961 0 0 0 0.013431,0.0086 c 2.0875,0.93787 4.3171,1.4153 6.5986,1.4153 1.9831,0 3.8435,-0.33155 5.5108,-1.0508 a 2.2923,2.1961 0 0 0 0.03581,-0.01715 c 0.68986,-0.31111 1.2805,-0.95794 1.9294,-1.4024 l 0.42528,1.0379 a 2.2923,2.1961 0 0 0 2.1354,1.3939 l 1.7593,0 a 2.2923,2.1961 0 0 0 2.292,-2.1959 l 0,-9.0237 0,-0.85347 c 0.32713,-0.033551 0.61986,-0.077198 1.3385,-0.077198 l 0.62673,0 a 2.2923,2.1961 0 0 0 2.292,-2.1959 l 0,-1.9128 a 2.2923,2.1961 0 0 0 -2.29,-2.1968 l -13.009,0 a 2.2923,2.1961 0 0 0 -2.292,2.1959 l 0,1.9128 a 2.2923,2.1961 0 0 0 2.292,2.1959 l 0.78342,0 c 0.63498,0 1.038,0.029097 1.4057,0.055753 0.0051,0.09691 0.01343,0.088713 0.01343,0.21015 0,0.75709 -0.06988,1.4532 -0.19697,2.0887 a 2.2923,2.1961 0 0 0 -0.01343,0.064332 c -0.10467,0.62805 -0.24259,1.0591 -0.35366,1.3038 -0.30352,0.58486 -0.75153,1.0591 -1.5803,1.5011 -0.85124,0.45399 -1.686,0.66048 -2.6368,0.66048 -0.95074,0 -1.8266,-0.21105 -2.7487,-0.68192 -0.92134,-0.47047 -1.5563,-1.0285 -2.0414,-1.7241 -0.58707,-0.89786 -1.0336,-1.9606 -1.3206,-3.2381 -4.58e-4,-0.00204 -0.004,-0.00225 -0.0045,-0.00429 -0.269,-1.3106 -0.421,-3.0124 -0.421,-5.0866 0,-4.387 0.74276,-7.5201 1.8712,-9.3539 1.1222,-1.8235 2.3119,-2.4746 4.5483,-2.4746 1.744,0 2.9536,0.51024 4.1678,1.7841 a 2.2923,2.1961 0 0 0 0.01343,0.012866 c 1.234,1.2738 2.3357,3.39 3.0844,6.4332 a 2.2923,2.1961 0 0 0 2.2294,1.6941 l 1.7951,0 a 2.2923,2.1961 0 0 0 2.289,-2.2949 l -0.546,-11.447 a 2.2923,2.1961 0 0 0 -2.2876,-2.0972 l -1.6026,0 a 2.2923,2.1961 0 0 0 -1.9429,1.0336 l -0.28203,0.43317 -0.0045,0.0043 c -0.67766,-0.42583 -1.3866,-0.77566 -2.1264,-1.0379 -0.72789,-0.29196 -1.4978,-0.49674 -2.292,-0.60044 -0.76364,-0.12419 -1.5551,-0.18442 -2.3771,-0.18442 z m -59.522,2.5819 0.13878,0.0086 c -0.03539,-0.0039 -0.08941,-6.55e-4 -0.12535,-0.0043 -0.0044,-2.4e-4 -0.009,-0.0041 -0.01343,-0.0043 z m 7.6685,0 c -0.0058,3.23e-4 -0.0121,0.004 -0.01791,0.0043 -0.0283,0.0028 -0.07053,0.0013 -0.09848,0.0043 l 0.11639,-0.0086 z m -5.6003,0.51895 0.15668,0.08578 c -0.03824,-0.02294 -0.0738,-0.0088 -0.11192,-0.03002 -0.0202,-0.01082 -0.0245,-0.04562 -0.04477,-0.05575 z m 3.4918,0.04718 c -0.01007,0.0056 -0.01237,0.02 -0.02238,0.02573 -0.01505,0.0088 -0.02972,0.0038 -0.04477,0.01287 l 0.06715,-0.0386 z m -1.8981,1.8185 0.0045,0.01286 0.38499,0 0.0045,-0.01286 c -0.0015,0.0046 0.0015,0.0083 0,0.01286 l 0.02238,0 c -0.0049,0.01503 -0.02674,0.02358 -0.03134,0.0386 -0.15861,0.49807 -0.18067,0.93801 -0.18802,1.3939 -0.0065,-0.40547 -0.05151,-0.80758 -0.17011,-1.2395 -0.01815,-0.07873 -0.12549,-0.11465 -0.15221,-0.193 l 0.12535,0 c -0.0015,-0.0046 0.0015,-0.0083 0,-0.01286 z m 45.447,6.2831 c -0.46063,2.0211 -0.70731,4.2717 -0.70731,6.8449 0,2.2885 0.16158,4.267 0.51482,5.9743 a 2.2923,2.1961 0 0 0 0.00448,0.03002 c -0.8115,-1.7224 -1.3662,-3.6277 -1.3662,-6.0051 0,-2.517 0.43128,-4.6407 1.2266,-6.4332 0.069364,-0.15147 0.25098,-0.26296 0.3268,-0.41173 z m -10.405,4.3049 0.0224,0.038599 C -4.349,0.0698198 -4.358264,0.064978 -4.362606,0.056686 -4.365136,0.0520373 -4.364546,0.044174 -4.367086,0.03953 Z m -5.3138,1.025 c 0.62054,0 0.72787,0.00621 1.2266,0.96927 a 2.2923,2.1961 0 0 0 0.022384,0.038599 c 0.50713,0.92974 0.91324,2.6882 0.91324,5.1937 0,2.5274 -0.41033,4.2926 -0.91324,5.2195 -0.49182,0.88273 -0.64154,0.94354 -1.3654,0.94354 -0.71847,0 -0.87324,-0.07105 -1.3564,-0.93496 -0.49079,-0.94245 -0.88638,-2.6933 -0.88638,-5.1895 0,-2.5878 0.40357,-4.3834 0.87743,-5.2709 6e-5,-1.142e-4 0.0044,1.119e-4 0.0045,0 0.48898,-0.89553 0.6478,-0.96927 1.4773,-0.96927 z m 38.338,2.1616 c -0.0097,0.00153 -0.0216,0.011306 -0.03134,0.012868 -0.02606,0.0052 -0.06355,0.00311 -0.08954,0.00858 l 0.12087,-0.021445 z m -4.5035,0.5747 0.22831,0.15869 C 24.32719,3.916957 24.27553,3.937618 24.22075,3.899476 24.18515,3.875767 24.19032,3.822867 24.1536,3.800833 Z m 1.1415,1.7155 0.3447,0 C 25.59667,5.66692 25.56848,5.79281 25.55027,5.90232 25.51766,5.76153 25.35061,5.65989 25.2951,5.51633 Z m 0.34022,0.3817 0.04029,0.18871 C 25.67351,6.072792 25.65114,6.06217 25.64875,6.048139 25.63792,5.998901 25.64775,5.947729 25.63532,5.898029 Z m -0.14773,4.8592 0,0.93925 a 2.2923,2.1961 0 0 0 -0.24622,-0.09864 c 0.07458,-0.283 0.19073,-0.53678 0.24622,-0.84061 z m -64.71,2.4961 c 0.0044,0.29513 0.0033,0.58053 0.04477,0.87063 a 2.2923,2.1961 0 0 0 0.08506,0.37313 c 0.01311,0.03934 0.0479,0.06419 0.06267,0.10293 l -0.35366,0 -0.009,0.03002 c 0.0032,-0.01056 0.0014,-0.01951 0.0045,-0.03002 l -0.0582,0 c 0.01049,-0.03547 0.05841,-0.04566 0.06715,-0.08149 0.11881,-0.43736 0.14614,-0.84539 0.15668,-1.2652 z m 15.874,0.59615 -0.02686,0.03431 c 0.0057,-0.0071 0.0077,-0.01859 0.01343,-0.02573 0.0033,-0.0042 0.01019,-0.0044 0.01343,-0.0086 z m -0.58644,0.39028 -0.02686,0.36026 -0.51034,0 c 0.1635,-0.14041 0.38814,-0.20565 0.5372,-0.36026 z"
         style="color:#000000;text-indent:0;text-decoration:none;text-decoration-line:none;text-decoration-style:solid;text-decoration-color:#000000;text-transform:none;block-progression:tb;white-space:normal;opacity:1;isolation:auto;mix-blend-mode:normal;solid-color:#000000;fill:#000000;color-rendering:auto;image-rendering:auto;shape-rendering:auto"
         id="path4289"
         inkscape:connector-curvature="0" />
    </g>
    <path
       d="m 6.5,5.5 35,0 c 1.108,0 2,0.892 2,2 l 0,35 c 0,1.108 -0.892,2 -2,2 l -35,0 c -1.108,0 -2,-0.892 -2,-2 l 0,-35 c 0,-1.108 0.892,-2 2,-2 z"
       style="color:#000000;opacity:0.7;fill:none;stroke:#000000;stroke-linecap:round;stroke-linejoin:round;marker:none;marker-start:"
       id="rect5505-21-3-2"
       inkscape:connector-curvature="0" />
    <path
       d="m 6.5,6.5 35,0 c 0.554,0 1,0.446 1,1 l 0,35 c 0,0.554 -0.446,1 -1,1 l -35,0 c -0.554,0 -1,-0.446 -1,-1 l 0,-35 c 0,-0.554 0.446,-1 1,-1 z"
       id="rect6741"
       style="opacity:0.3;fill:none;stroke:url(#linearGradient3074);stroke-linecap:round;stroke-linejoin:round;marker-start:"
       inkscape:connector-curvature="0" />
    <g
       transform="matrix(0.43629,0,0,0.4554,27.022,24.066)"
       id="g4295"
       style="opacity:0.15;fill:none;stroke:#000000;stroke-width:2.2434001;stroke-linecap:round;stroke-linejoin:round">
      <path
         d="m 16.451,-14.418 c -1.7289,0 -3.3352,0.25434 -4.8035,0.77198 -1.483,0.49658 -2.9132,1.3266 -4.2976,2.4618 -2.1447,1.734 -3.7622,3.7476 -4.799,6.0172 a 1.1461,1.098 0 0 0 -0.00448,0.012866 c -1.0076,2.2671 -1.4997,4.8522 -1.4997,7.7327 0,4.3684 1.2817,8.0883 3.8678,10.984 1.3765,1.5451 3.0384,2.7692 4.9512,3.6412 a 1.1461,1.098 0 0 0 0.00448,0.0043 c 1.9422,0.87258 3.9978,1.3124 6.1151,1.3124 1.8509,0 3.543,-0.31034 5.0407,-0.9564 a 1.1461,1.098 0 0 0 0.01791,-0.0043 c 1.0214,-0.46062 1.9739,-1.3371 2.9367,-2.1444 l 0.97591,2.3717 a 1.1461,1.098 0 0 0 1.0654,0.69479 l 1.7593,0 a 1.1461,1.098 0 0 0 1.146,-1.0979 l 0,-9.0237 0,-1.2523 0,-0.58757 c -0.05636,0.062591 -0.02721,0.00735 0.29098,-0.042887 a 1.1461,1.098 0 0 0 0.0582,-0.012866 c 0.32595,-0.068621 1.0814,-0.13295 2.1354,-0.13295 l 0.62673,0 a 1.1461,1.098 0 0 0 1.146,-1.0979 l 0,-1.9128 a 1.1461,1.098 0 0 0 -1.145,-1.0985 l -13.009,0 a 1.1461,1.098 0 0 0 -1.146,1.0979 l 0,1.9128 a 1.1461,1.098 0 0 0 1.146,1.0979 l 0.78342,0 c 0.83209,0 1.4787,0.027822 1.9071,0.072909 0.3764,0.03962 0.53228,0.13902 0.49691,0.11151 a 1.1461,1.098 0 0 0 0.08953,0.064332 C 22.29251,6.557737 22.26742,6.510196 22.27615,6.566948 a 1.1461,1.098 0 0 0 0.01791,0.098641 c 0.04276,0.17103 0.08506,0.53151 0.08506,1.0293 0,0.82126 -0.07321,1.5862 -0.21488,2.2945 a 1.1461,1.098 0 0 0 -0.009,0.034311 c -0.1178,0.70679 -0.28109,1.2421 -0.45214,1.6083 -0.41245,0.79891 -1.0598,1.4441 -2.0593,1.9771 -1.0116,0.5395 -2.0524,0.80201 -3.1919,0.80201 -1.1394,0 -2.2173,-0.26265 -3.2903,-0.81058 -1.072,-0.547 -1.869,-1.234 -2.463,-2.088 -0.67,-1.019 -1.1678,-2.2132 -1.4814,-3.603 l 0,-0.00858 C 8.926,6.49005 8.7695,4.71215 8.7695,2.57855 c 0,-4.4982 0.739,-7.8097 2.0324,-9.9114 1.2903,-2.0967 2.9696,-3.015 5.5332,-3.015 2.0308,0 3.6125,0.67412 5.0139,2.1444 a 1.1461,1.098 0 0 0 0.0045,0.00429 c 1.4243,1.4703 2.584,3.7685 3.362,6.9307 a 1.1461,1.098 0 0 0 1.1147,0.8449 l 1.7951,0 a 1.1461,1.098 0 0 0 1.145,-1.1495 l -0.546,-11.446 a 1.1461,1.098 0 0 0 -1.146,-1.0465 l -1.6026,0 a 1.1461,1.098 0 0 0 -0.97143,0.51894 l -0.9401,1.4453 c -0.30105,-0.21557 -0.61507,-0.4819 -0.90876,-0.65619 -0.62373,-0.39524 -1.2744,-0.71153 -1.9429,-0.94782 -0.65215,-0.26472 -1.3429,-0.44891 -2.0548,-0.54039 -0.69545,-0.11452 -1.4307,-0.17155 -2.207,-0.17155 z m -62.342,0.58757 a 1.1461,1.098 0 0 0 -1.146,1.0979 l 0,1.9128 a 1.1461,1.098 0 0 0 1.146,1.0979 l 0.74313,0 c 0.8093,0 1.4318,0.025259 1.822,0.068621 a 1.1461,1.098 0 0 0 0.06715,0.00858 c 0.36984,0.019464 0.55445,0.093531 0.57301,0.10293 0.01864,0.057264 0.06267,0.28482 0.06267,0.63474 l 0,21.877 c 0,0.32973 -0.03493,0.52232 -0.06267,0.64761 -0.08789,0.03345 -0.27392,0.08981 -0.59987,0.12866 -0.42866,0.02329 -1.0507,0.0386 -1.8623,0.0386 l -0.74313,0 a 1.1461,1.098 0 0 0 -1.146,1.0979 l 0,1.9128 a 1.1461,1.098 0 0 0 1.146,1.0979 l 24.062,0 a 1.1461,1.098 0 0 0 1.1415,-1.0164 l 0.85952,-11.211 a 1.1461,1.098 0 0 0 -1.1415,-1.1794 l -1.7951,0 a 1.1461,1.098 0 0 0 -1.1326,0.93925 c -0.19922,1.3199 -0.50905,2.6013 -0.93114,3.8428 a 1.1461,1.098 0 0 0 -0.0045,0.012868 c -0.39135,1.1985 -0.83912,2.0676 -1.2579,2.5862 a 1.1461,1.098 0 0 0 -0.01791,0.01716 c -0.46404,0.59938 -1.1451,1.0671 -2.1622,1.4024 -0.0011,3.49e-4 -0.0033,-3.49e-4 -0.0045,0 -1.0481,0.31848 -2.3886,0.4975 -4.02,0.4975 l -1.6832,0 c -0.54685,0 -1.0089,-0.04542 -1.3967,-0.12438 -0.28799,-0.09058 -0.43015,-0.18082 -0.4029,-0.15011 -0.01,-0.12766 -0.02238,-0.29084 -0.02238,-0.62188 l 0,-21.796 c 0,-0.34992 0.04403,-0.57748 0.06267,-0.63474 0.03284,-0.018043 0.19903,-0.084144 0.5372,-0.10293 a 1.1461,1.098 0 0 0 0.0582,-0.00858 c 0.4239,-0.044622 1.0575,-0.068621 1.8668,-0.068621 l 0.74313,0 a 1.1461,1.098 0 0 0 1.146,-1.0979 l 0,-1.9128 a 1.1461,1.098 0 0 0 -1.146,-1.0979 l -13.358,0 z m 2.7576,1.99 0.06715,0.0086 c -0.01057,-0.0012 -0.02962,0.0011 -0.04029,0 -0.0099,-5.58e-4 -0.01694,-0.0081 -0.02686,-0.0086 z m 7.7983,0 c -0.0098,5.47e-4 -0.01704,0.008 -0.02686,0.0086 -0.0084,8.65e-4 -0.02298,-8.78e-4 -0.03134,0 l 0.0582,-0.0086 z m 61.326,0.1544 0.39842,8.3246 c -0.81695,-2.5867 -1.8615,-4.7893 -3.3485,-6.326 -0.60323,-0.6329 -1.3486,-1.0178 -2.0682,-1.4453 0.14316,0.07899 0.2863,0.11886 0.42976,0.21015 a 1.1461,1.098 0 0 0 0.03581,0.02144 c 0.50186,0.29656 1.0639,0.70156 1.6787,1.218 a 1.1461,1.098 0 0 0 1.728,-0.24446 l 1.146,-1.7584 z m -68.341,0.05147 6.2539,0 c -0.28417,0.06662 -0.5891,0.07687 -0.84609,0.22731 -0.46727,0.26366 -0.83551,0.72501 -0.98487,1.2137 -0.13214,0.40661 -0.16564,0.81353 -0.16564,1.2866 l 0,21.796 c 0,0.46528 0.0068,0.79243 0.04924,1.0894 a 1.1461,1.098 0 0 0 0.04477,0.18442 c 0.10809,0.32426 0.30229,0.61856 0.5372,0.85347 0.37507,0.37506 0.82805,0.533 1.3206,0.68192 l -6.0032,0 c 0.19697,-0.05615 0.42396,-0.06197 0.60883,-0.1544 0.47213,-0.23606 0.92182,-0.72138 1.052,-1.2781 0.11223,-0.40258 0.15221,-0.81577 0.15221,-1.2952 l 0,-21.877 c 0,-0.44166 -0.04549,-0.82092 -0.15668,-1.2009 -0.11851,-0.5408 -0.53385,-1.0505 -1.0252,-1.3081 -0.25613,-0.14566 -0.55703,-0.15569 -0.83714,-0.21873 z m 53.926,0.5361 c -1.0629,0.67794 -2.0445,1.499 -2.7531,2.6505 -1.6233,2.6378 -2.3458,6.306 -2.3458,11.027 0,2.238 0.15956,4.151 0.49243,5.7599 a 1.1461,1.098 0 0 0 0.00448,0.017156 c 0.36301,1.6196 0.96041,3.0738 1.7951,4.3403 a 1.1461,1.098 0 0 0 0.013431,0.01716 c 0.79062,1.142 1.8947,2.0583 3.2187,2.7534 -0.37654,-0.12871 -0.78381,-0.082 -1.155,-0.24876 -1.6262,-0.742 -3.0114,-1.761 -4.1856,-3.079 -2.2055,-2.4695 -3.3216,-5.5951 -3.3216,-9.56 0,-2.6353 0.452,-4.9129 1.3161,-6.8621 l 0.00448,-0.00429 c 0.88913,-1.9441 2.2602,-3.6794 4.1722,-5.2238 a 1.1461,1.098 0 0 0 0.00448,-0.00858 c 0.9311,-0.7632 1.8359,-1.1762 2.7399,-1.5782 z m -21.255,7.1494 c -1.4157,0 -2.7749,0.30133 -4.0245,0.89636 -1.2318,0.58659 -2.3115,1.3996 -3.2142,2.4189 a 1.1461,1.098 0 0 0 -0.01343,0.017154 c -0.87155,1.0168 -1.5566,2.209 -2.0637,3.5597 -0.51859,1.3541 -0.77446,2.8148 -0.77446,4.3617 0,1.5159 0.23776,2.9583 0.72522,4.306 a 1.1461,1.098 0 0 0 0.009,0.01715 c 0.51066,1.3334 1.2177,2.5224 2.1175,3.5383 0.8951,1.0106 1.9472,1.8323 3.1426,2.4446 a 1.1461,1.098 0 0 0 0.02238,0.0086 c 1.226,0.59805 2.5642,0.90065 3.9574,0.90065 1.3932,0 2.7314,-0.3026 3.9574,-0.90065 a 1.1461,1.098 0 0 0 0.00896,-0.0043 c 1.2243,-0.61217 2.2897,-1.4419 3.165,-2.4618 0.89618,-1.0149 1.5902,-2.2005 2.0727,-3.5297 l 0,-0.0086 c 0.51305,-1.3711 0.76998,-2.8288 0.76998,-4.3489 0,-1.5215 -0.25775,-2.9681 -0.77446,-4.3188 -0.48202,-1.3259 -1.1701,-2.5115 -2.064,-3.5249 l -0.00448,-0.004289 c -0.8728,-1.017 -1.9282,-1.8312 -3.1291,-2.4188 -1.1987,-0.6251 -2.5144,-0.9479 -3.8858,-0.9479 z m -3.0799,2.9164 c -0.5488,0.43645 -1.0946,0.88738 -1.4504,1.5397 a 1.1461,1.098 0 0 0 -0.0045,0.008577 c -0.89512,1.6668 -1.2624,3.9066 -1.2624,6.7892 0,2.8072 0.37251,5.0241 1.2579,6.7034 a 1.1461,1.098 0 0 0 0.01343,0.02144 c 0.3862,0.69516 0.95518,1.2017 1.5534,1.6469 -0.01386,-0.0066 -0.03092,-0.0019 -0.04477,-0.0086 -0.93764,-0.4811 -1.7575,-1.115 -2.4756,-1.9257 -0.71064,-0.80234 -1.2796,-1.7459 -1.7056,-2.8521 l 0,-0.0043 c -0.39704,-1.0992 -0.59987,-2.286 -0.59987,-3.5812 0,-1.3177 0.2123,-2.5131 0.63121,-3.6069 a 1.1461,1.098 0 0 0 0.0045,-0.00429 c 0.42812,-1.1416 0.98891,-2.1054 1.6743,-2.9078 0.6893,-0.77705 1.4915,-1.3685 2.4084,-1.8185 z m 6.0435,0.077198 c 0.86629,0.44503 1.6329,1.0084 2.2831,1.767 a 1.1461,1.098 0 0 0 0.013429,0.017154 c 0.71047,0.80215 1.2644,1.7438 1.6653,2.8521 a 1.1461,1.098 0 0 0 0.00896,0.017154 c 0.41978,1.0961 0.63121,2.2788 0.63121,3.5683 0,1.2895 -0.21322,2.4846 -0.63568,3.6112 a 1.1461,1.098 0 0 0 -0.00448,0.01287 c -0.40087,1.1083 -0.95484,2.0499 -1.6653,2.8521 a 1.1461,1.098 0 0 0 -0.013429,0.01715 c -0.68431,0.79836 -1.4869,1.4242 -2.4443,1.9042 -0.00132,6.43e-4 -0.00315,-6.44e-4 -0.00448,0 -0.00191,9.57e-4 -0.00256,0.0033 -0.00448,0.0043 -0.016482,0.008 -0.037207,7.14e-4 -0.053719,0.0086 0.59822,-0.44519 1.1672,-0.95174 1.5534,-1.6469 a 1.1461,1.098 0 0 0 0.00448,-0.0043 c 0.91958,-1.6859 1.3027,-3.9244 1.3027,-6.7592 0,-2.8042 -0.38382,-5.0253 -1.2982,-6.7077 -0.32964,-0.63398 -0.83769,-1.075 -1.3385,-1.5139 z m -2.9635,0.92209 c 1.0264,0 1.6293,0.36758 2.2562,1.5783 a 1.1461,1.098 0 0 0 0.00895,0.021445 c 0.64419,1.181 1.0431,3.0929 1.0431,5.6998 0,2.6339 -0.40015,4.5597 -1.0431,5.7384 -0.63863,1.1462 -1.2777,1.5225 -2.3816,1.5225 -1.1014,0 -1.7399,-0.37788 -2.3771,-1.5182 -0.62245,-1.186 -1.0117,-3.1007 -1.0117,-5.7041 0,-2.6865 0.39795,-4.6306 1.0117,-5.777 0.63557,-1.1631 1.2981,-1.5611 2.4935,-1.5611 z m 38.521,4.3413 c -0.008,0.00126 -0.01441,0.00729 -0.02238,0.00858 -0.0091,0.00188 -0.02673,0.00238 -0.03581,0.00429 l 0.0582,-0.012866 z m -6.3121,0.11151 6.0793,0 c -0.538,0.1082 -1.069,0.2387 -1.472,0.6991 a 1.1461,1.098 0 0 0 -0.09,0.1158 l -0.157,0.2359 a 1.1461,1.098 0 0 0 -0.125,0.253 c -0.06505,0.19517 -0.08713,0.33913 -0.11639,0.51466 a 1.1461,1.098 0 0 0 -0.01343,0.17155 l 0,0.69908 0,1.2523 0,7.5226 -1.0699,-2.6119 a 1.1461,1.098 0 0 0 -1.9026,-0.34739 c -0.31995,0.32635 -0.61909,0.41526 -0.93562,0.6905 0.31278,-0.36801 0.82457,-0.59468 1.0431,-1.0207 a 1.1461,1.098 0 0 0 0.01343,-0.03002 c 0.29065,-0.6136 0.4861,-1.332 0.62673,-2.1616 l 0,-0.0043 c 0.1703,-0.85296 0.25964,-1.7539 0.25964,-2.702 0,-0.56445 -0.03908,-1.0285 -0.13878,-1.4625 -0.09,-0.5527 -0.437,-1.1156 -0.953,-1.4501 -0.317,-0.2284 -0.686,-0.2841 -1.048,-0.3645 z m -44.892,4.3231 -0.53272,6.9564 -7.1761,0 c 0.83867,-0.09833 1.7854,-0.10051 2.498,-0.31737 a 1.1461,1.098 0 0 0 0.01791,-0.0086 c 1.3603,-0.44358 2.4948,-1.1616 3.2769,-2.1658 0.66982,-0.83166 1.1853,-1.9165 1.625,-3.2595 l 0,-0.00858 c 0.13178,-0.38802 0.17922,-0.80214 0.29098,-1.1966 z"
         style="color:#000000;text-indent:0;text-decoration:none;text-decoration-line:none;text-decoration-style:solid;text-decoration-color:#000000;text-transform:none;block-progression:tb;white-space:normal;opacity:1;isolation:auto;mix-blend-mode:normal;solid-color:#000000;fill:#000000;color-rendering:auto;image-rendering:auto;shape-rendering:auto"
         id="path4297"
         inkscape:connector-curvature="0" />
    </g>
    <g
       transform="matrix(0.43629,0,0,0.4554,27.022,24.066)"
       id="text4276"
       style="fill:#fff380">
      <path
         transform="matrix(2.292,0,0,2.1959,-61.935,-52.845)"
         d="m 34.199,18 c -0.70443,0 -1.3463,0.10684 -1.9258,0.32031 -0.57945,0.20161 -1.1526,0.54502 -1.7207,1.0312 -0.88622,0.74714 -1.5386,1.6019 -1.959,2.5625 -0.40902,0.96061 -0.61523,2.0691 -0.61523,3.3262 0,1.8975 0.52308,3.4562 1.5684,4.6777 0.55672,0.65227 1.2215,1.1636 1.9941,1.5312 0.784,0.368 1.603,0.551 2.455,0.551 0.74987,0 1.4147,-0.12972 1.9941,-0.39062 0.57945,-0.27277 1.1526,-0.71158 1.7207,-1.3164 l 0.66406,1.6895 0.76758,0 0,-4.1094 0,-0.57031 0,-0.31836 c 0.01136,-0.07116 0.02184,-0.12458 0.0332,-0.16016 l 0.06836,-0.10742 c 0.07953,-0.09487 0.22749,-0.15973 0.44336,-0.19531 0.21587,-0.04744 0.56187,-0.07227 1.0391,-0.07227 l 0.27344,0 0,-0.87109 -5.6758,0 0,0.87109 0.3418,0 c 0.37494,0 0.67085,0.01339 0.88672,0.03711 0.21587,0.02372 0.37431,0.07519 0.47656,0.1582 0.11362,0.07116 0.18235,0.18567 0.20508,0.33984 0.03408,0.14231 0.05078,0.33689 0.05078,0.58594 0,0.40322 -0.03534,0.78289 -0.10352,1.1387 -0.05681,0.35578 -0.13603,0.64577 -0.23828,0.87109 -0.22723,0.46252 -0.59614,0.83647 -1.1074,1.1211 -0.51128,0.28462 -1.0573,0.42773 -1.6367,0.42773 -0.57945,0 -1.1359,-0.14311 -1.6699,-0.42773 -0.534,-0.28462 -0.953,-0.65858 -1.2598,-1.1211 -0.32949,-0.52181 -0.56909,-1.1266 -0.7168,-1.8145 -0.13634,-0.68784 -0.20508,-1.5292 -0.20508,-2.5254 0,-2.0991 0.31882,-3.6884 0.95508,-4.7676 0.63626,-1.0792 1.5846,-1.6191 2.8457,-1.6191 1.0112,0 1.8636,0.37967 2.5566,1.1387 0.70443,0.759 1.2337,1.8866 1.5859,3.3809 l 0.7832,0 -0.23828,-5.2129 -0.69922,0 -0.698,1.121 c -0.285,-0.249 -0.551,-0.451 -0.801,-0.605 -0.25,-0.166 -0.505,-0.296 -0.766,-0.391 -0.25,-0.107 -0.512,-0.179 -0.785,-0.215 -0.273,-0.047 -0.569,-0.07 -0.887,-0.07 z M 7,18.268 l 0,0.87109 0.32422,0 c 0.36358,0 0.64705,0.01144 0.85156,0.03516 0.21587,0.01186 0.38052,0.05384 0.49414,0.125 0.11362,0.0593 0.18235,0.14898 0.20508,0.26758 0.034085,0.10674 0.050781,0.25361 0.050781,0.44336 l 0,9.9629 c 0,0.20161 -0.016696,0.36188 -0.050781,0.48047 -0.022723,0.10673 -0.091461,0.18875 -0.20508,0.24805 -0.11362,0.05929 -0.27827,0.10128 -0.49414,0.125 -0.20451,0.01186 -0.48799,0.01758 -0.85156,0.01758 l -0.32422,0 0,0.87109 10.498,0 0.375,-5.1055 -0.7832,0 c -0.09089,0.62855 -0.23263,1.2391 -0.42578,1.832 -0.18179,0.58111 -0.39226,1.0276 -0.63086,1.3359 -0.27268,0.36764 -0.67072,0.63852 -1.1934,0.81641 -0.52264,0.16603 -1.1583,0.25 -1.9082,0.25 l -0.73438,0 c -0.27268,0 -0.51655,-0.02287 -0.73242,-0.07031 -0.20451,-0.0593 -0.34625,-0.13183 -0.42578,-0.21484 -0.05681,-0.0593 -0.09642,-0.12416 -0.11914,-0.19531 -0.01136,-0.08301 -0.01758,-0.22612 -0.01758,-0.42773 l 0,-9.9258 c 0,-0.18975 0.0167,-0.33662 0.05078,-0.44336 0.03408,-0.11859 0.10282,-0.20828 0.20508,-0.26758 0.11362,-0.07116 0.27205,-0.11314 0.47656,-0.125 0.21587,-0.02372 0.50556,-0.03516 0.86914,-0.03516 l 0.32422,0 0,-0.87109 -5.8281,0 z m 15.799,4.5 c -0.54536,0 -1.056,0.11828 -1.5332,0.35547 -0.47719,0.23719 -0.89193,0.56344 -1.2441,0.97852 -0.34085,0.41508 -0.61385,0.90731 -0.81836,1.4766 -0.20451,0.55739 -0.30664,1.1622 -0.30664,1.8145 0,0.64041 0.09591,1.2395 0.28906,1.7969 0.20451,0.55739 0.48372,1.0439 0.83594,1.459 0.35221,0.41508 0.76073,0.74705 1.2266,0.99609 0.46583,0.23719 0.966,0.35547 1.5,0.35547 0.534,0 1.0342,-0.11828 1.5,-0.35547 0.47719,-0.24905 0.88571,-0.58102 1.2266,-0.99609 0.35221,-0.41508 0.62521,-0.90159 0.81836,-1.459 0.20451,-0.56925 0.30664,-1.174 0.30664,-1.8145 0,-0.64041 -0.10213,-1.2395 -0.30664,-1.7969 -0.19315,-0.55739 -0.46615,-1.0439 -0.81836,-1.459 -0.34085,-0.41508 -0.74511,-0.74133 -1.2109,-0.97852 -0.45447,-0.24905 -0.9422,-0.37305 -1.4648,-0.37305 z m 0,0.7832 c 0.6249,0 1.1022,0.33197 1.4316,0.99609 0.34085,0.65227 0.51172,1.5947 0.51172,2.8281 0,1.2452 -0.17087,2.1934 -0.51172,2.8457 -0.34085,0.64041 -0.8348,0.96094 -1.4824,0.96094 -0.64762,0 -1.1416,-0.32053 -1.4824,-0.96094 -0.32949,-0.65227 -0.49609,-1.5947 -0.49609,-2.8281 0,-1.269 0.1666,-2.2229 0.49609,-2.8633 0.34085,-0.65227 0.8515,-0.97852 1.5332,-0.97852 z"
         id="path4281"
         inkscape:connector-curvature="0"
         style="fill:#fff380" />
    </g>
  </g>
</svg>
