<?xml version="1.0" encoding="UTF-8" standalone="no"?>
<!-- Created with Inkscape (http://www.inkscape.org/) -->

<svg
   xmlns:dc="http://purl.org/dc/elements/1.1/"
   xmlns:cc="http://creativecommons.org/ns#"
   xmlns:rdf="http://www.w3.org/1999/02/22-rdf-syntax-ns#"
   xmlns:svg="http://www.w3.org/2000/svg"
   xmlns="http://www.w3.org/2000/svg"
   xmlns:sodipodi="http://sodipodi.sourceforge.net/DTD/sodipodi-0.dtd"
   xmlns:inkscape="http://www.inkscape.org/namespaces/inkscape"
   id="svg4405"
   height="48"
   width="48"
   version="1.1"
   inkscape:version="0.91 r13725"
   sodipodi:docname="machinarium.svg">
  <sodipodi:namedview
     pagecolor="#ffffff"
     bordercolor="#666666"
     borderopacity="1"
     objecttolerance="10"
     gridtolerance="10"
     guidetolerance="10"
     inkscape:pageopacity="0"
     inkscape:pageshadow="2"
     inkscape:window-width="1535"
     inkscape:window-height="876"
     id="namedview45"
     showgrid="false"
     inkscape:zoom="4.9166667"
     inkscape:cx="-10.779661"
     inkscape:cy="24"
     inkscape:window-x="65"
     inkscape:window-y="24"
     inkscape:window-maximized="1"
     inkscape:current-layer="svg4405" />
  <defs
     id="defs4407">
    <linearGradient
       id="linearGradient3473"
       y2="43"
       gradientUnits="userSpaceOnUse"
       x2="24"
       gradientTransform="translate(1.17e-5,1)"
       y1="5"
       x1="24">
      <stop
         id="stop3252"
         stop-color="#fff"
         offset="0" />
      <stop
         id="stop3254"
         stop-color="#fff"
         stop-opacity=".23529"
         offset=".063165" />
      <stop
         id="stop3256"
         stop-color="#fff"
         stop-opacity=".15686"
         offset=".95056" />
      <stop
         id="stop3258"
         stop-color="#fff"
         stop-opacity=".39216"
         offset="1" />
    </linearGradient>
    <radialGradient
       id="radialGradient3476"
       gradientUnits="userSpaceOnUse"
       cy="8.4498"
       cx="7.4957"
       gradientTransform="matrix(1.893e-8,2.2771,-2.4089,-4.1952e-8,44.354,-10.501)"
       r="20">
      <stop
         id="stop3236"
         stop-color="#c7c7c7"
         offset="0" />
      <stop
         id="stop3238"
         stop-color="#a6a6a6"
         offset=".26238" />
      <stop
         id="stop3240"
         stop-color="#7b7b7b"
         offset=".70495" />
      <stop
         id="stop3242"
         stop-color="#595959"
         offset="1" />
    </radialGradient>
    <radialGradient
       id="radialGradient3013-896"
       gradientUnits="userSpaceOnUse"
       cy="43.5"
       cx="4.993"
       gradientTransform="matrix(2.0038,0,0,1.4,27.988,-17.4)"
       r="2.5">
      <stop
         id="stop3216"
         stop-color="#181818"
         offset="0" />
      <stop
         id="stop3218"
         stop-color="#181818"
         stop-opacity="0"
         offset="1" />
    </radialGradient>
    <radialGradient
       id="radialGradient3015-826"
       gradientUnits="userSpaceOnUse"
       cy="43.5"
       cx="4.993"
       gradientTransform="matrix(2.0038,0,0,1.4,-20.012,-104.4)"
       r="2.5">
      <stop
         id="stop3222"
         stop-color="#181818"
         offset="0" />
      <stop
         id="stop3224"
         stop-color="#181818"
         stop-opacity="0"
         offset="1" />
    </radialGradient>
    <linearGradient
       id="linearGradient4395"
       y2="39.999"
       gradientUnits="userSpaceOnUse"
       x2="25.058"
       y1="47.028"
       x1="25.058">
      <stop
         id="stop3228"
         stop-color="#181818"
         stop-opacity="0"
         offset="0" />
      <stop
         id="stop3230"
         stop-color="#181818"
         offset=".5" />
      <stop
         id="stop3232"
         stop-color="#181818"
         stop-opacity="0"
         offset="1" />
    </linearGradient>
    <linearGradient
       id="linearGradient3857"
       y2="44.858"
       gradientUnits="userSpaceOnUse"
       x2=".85715"
       gradientTransform="translate(41.286,0)"
       y1="5.7143"
       x1=".85715">
      <stop
         id="stop3853"
         stop-opacity="0.432"
         offset="0" />
      <stop
         id="stop3855"
         stop-opacity=".62745"
         offset="1" />
    </linearGradient>
  </defs>
  <metadata
     id="metadata4410">
    <rdf:RDF>
      <cc:Work
         rdf:about="">
        <dc:format>image/svg+xml</dc:format>
        <dc:type
           rdf:resource="http://purl.org/dc/dcmitype/StillImage" />
        <dc:title />
      </cc:Work>
    </rdf:RDF>
  </metadata>
  <g
     id="g4189"
     transform="translate(0,-1)">
    <rect
       id="rect5505-21"
       style="color:#000000;fill:url(#radialGradient3476)"
       rx="1.5031"
       ry="1.5031"
       height="38"
       width="38"
       y="6"
       x="5" />
    <rect
       id="rect6741-1"
       rx="1"
       ry="1"
       height="37"
       width="37"
       y="6.5"
       x="5.5"
       style="opacity:0.5;fill:none;stroke:url(#linearGradient3473);stroke-linecap:round;stroke-linejoin:round" />
    <rect
       id="rect5505-21-6"
       style="color:#000000;fill:none;stroke:url(#linearGradient3857);stroke-linecap:round;stroke-linejoin:round"
       rx="2"
       ry="2"
       height="39"
       width="39"
       y="5.5"
       x="4.5" />
    <g
       id="g4257"
       style="fill:#d9cea0">
      <path
         id="rect4254"
         d="m 21.057,32.98 1.5887,0 0,5.4593 1.0687,0.63547 -1.0687,1.3576 -2.1664,-0.05777 -0.26994,-1.4134 1.0498,-0.49299 z"
         inkscape:connector-curvature="0" />
      <path
         id="path4252"
         d="m 28.904,23.765 c -0.307,-0.333 -1.329,-0.288 -1.329,-0.288 l 0.16274,2.2475 0.59779,1.2457 0.4846,4.6769 -0.55368,0.78349 -0.0087,1.7323 0.3282,0.95479 1.2535,-0.1966 0.65288,0.25437 0.21208,-0.63087 -0.1763,-2.0726 -0.5711,-0.69645 c 0,0 -0.57849,-4.6276 -0.84772,-7.3423 -0.03399,-0.34268 2.95e-4,-0.44353 -0.20562,-0.66735 z"
         inkscape:connector-curvature="0" />
      <path
         id="rect4246"
         d="m 18.868,13.876 1.4296,-1.6162 1.245,-1.0314 1.3687,-0.45187 -0.3293,-0.91836 -0.12267,-1.3913 c 0,0 0.49672,-0.73452 1.1378,-0.79182 0.56404,-0.050419 1.1272,0.49526 1.1272,0.49526 l -0.0603,1.8488 -0.44506,0.59555 1.9674,0.37408 1.1557,0.39924 2.2537,1.7872 1.0611,3.6016 0.32303,1.9672 -0.50923,1.4394 -0.17828,2.0831 -2.6744,0.66142 -0.10024,2.9996 -0.23537,3.3821 0.32678,2.9344 -0.71185,0.59071 -0.01637,2.1636 0.12329,3.3564 0.54613,0.57198 0.28545,1.5106 -2.9301,0.34899 -0.01175,-2.1396 0.72456,-0.39785 -0.03378,-3.6891 -0.13657,-1.8133 -2.5053,0.09407 -1.9848,-0.49822 -0.06542,-7.8576 -0.08383,-1.2981 -1.2967,-0.34566 -1.0374,-0.34626 -0.09194,-1.331 -0.96818,-1.1212 -1.1749,-0.91952 -0.06832,-1.0229 c 0,0 0.22288,-0.85507 0.54057,-1.1226 0.321,-0.27028 1.2107,-0.34506 1.2107,-0.34506 l 0.64582,-0.01314 z"
         inkscape:connector-curvature="0" />
      <path
         id="rect4249"
         d="m 19.266,24.112 c 0.35776,-0.35499 1.502,-0.17331 1.502,-0.17331 l -0.24908,1.6786 -0.4248,0.54357 -0.88899,5.4279 0.61145,0.35021 0.12422,1.4146 -0.3282,0.95479 -2.0797,0.5777 -0.24097,-1.2375 0.32073,-1.5527 0.74441,-0.60979 c 0,0 0.55522,-3.178 0.75914,-6.5679 0.02013,-0.33474 -0.0607,-0.5974 0.1498,-0.80628 z"
         inkscape:connector-curvature="0" />
    </g>
    <g
       id="g4232"
       transform="matrix(0.088877,0,0,0.086316,50.905,20.677)">
      <path
         id="path4238"
         d="m -320.55,246.64 c -26.873,-1.22 -51.326,-5.7225 -63.113,-11.621 -4.2637,-2.1338 -5.2873,-3.4954 -5.2873,-7.0334 0,-5.5674 12.745,-11.151 33.3,-14.589 8.2904,-1.3866 10.095,-2.0293 14.71,-5.2374 l 5.2597,-3.6568 -0.5972,-30.506 c -0.57695,-29.472 -0.66086,-30.558 -2.4747,-32.027 -1.5066,-1.22 -1.9147,-2.6672 -2.0655,-7.3253 -0.10338,-3.1927 -0.46375,-6.6739 -0.80082,-7.7359 -0.33707,-1.062 9e-4,-4.301 0.75188,-7.1976 1.0812,-4.1723 1.2675,-8.8139 0.89671,-22.337 -0.70448,-25.695 -1.0689,-29.033 -3.2456,-29.723 -3.2257,-1.0238 -2.7781,-3.2627 -8.0903,40.467 l -1.9576,16.115 2.4166,1.927 c 1.7104,1.3638 2.52,2.9669 2.7702,5.4853 0.19449,1.9571 0.63854,5.7859 0.98677,8.5084 0.94976,7.425 -1.9632,25.2 -4.1298,25.2 -0.45661,0 -1.5497,0.70875 -2.4291,1.575 -4.8332,4.7611 -7.7043,6.525 -10.62,6.525 -2.6665,0 -3.0809,-0.29554 -3.0809,-2.1969 0,-1.2083 0.405,-2.4472 0.9,-2.7531 1.4574,-0.9007 1.0313,-2.25 -0.71048,-2.25 -1.1655,0 -1.6007,0.68386 -1.575,2.475 0.0286,1.995 -0.40996,2.5269 -2.2615,2.7426 -2.9686,0.34586 -4.4929,-1.4533 -7.8511,-9.2676 -2.5635,-5.965 -2.6616,-6.6319 -1.8449,-12.541 1.2594,-9.1115 6.5245,-22.248 10.291,-25.675 2.0458,-1.8617 3.0518,-3.5867 3.0506,-5.2308 -9e-4,-1.3492 0.61394,-6.0982 1.3666,-10.553 0.75262,-4.455 1.7541,-10.732 2.2255,-13.95 0.47139,-3.2175 1.7418,-11.925 2.823,-19.35 1.0813,-7.425 1.9217,-15.851 1.8676,-18.725 -0.0541,-2.8737 0.33663,-6.3162 0.86822,-7.65 0.96284,-2.4157 0.97042,-2.4097 1.9837,1.5746 0.8695,3.419 1.4395,4.1081 3.926,4.7465 6.5668,1.6862 13.925,-7.2761 11.087,-13.504 -0.83811,-1.8394 -1.4477,-2.1166 -3.6755,-1.6711 -3.5581,0.71162 -3.369,0.16682 0.9293,-2.6777 2.7866,-1.8441 3.6,-2.9562 3.6,-4.922 0,-2.236 -0.40356,-2.606 -3.375,-3.0949 -6.9088,-1.1368 -22.894,-4.7953 -23.47,-5.3716 -0.3284,-0.32841 -0.87955,-3.2988 -1.2248,-6.6009 -1.6906,-16.171 -1.5092,-15.83 -12.497,-23.503 -5.8545,-4.0883 -10.537,-9.1425 -11.112,-11.993 -1.5846,-7.8641 -0.37033,-16.153 2.4457,-16.695 1.7417,-0.33541 1.966,1.2807 0.65595,4.7264 -1.3771,3.6221 0.40178,11.348 3.1742,13.785 3.4108,2.9987 8.8279,2.7369 14.228,-0.68765 5.6187,-3.5632 7.2859,-7.4027 6.5087,-14.988 -0.35264,-3.4421 -0.21978,-5.7867 0.34782,-6.1375 2.0936,-1.2939 0.61786,-3.1673 -4.2566,-5.4035 -4.467,-2.0492 -4.9495,-2.501 -3.5266,-3.3018 0.90661,-0.51025 2.4307,-0.72315 3.3868,-0.47312 2.5018,0.65423 3.819,-2.392 3.1931,-7.3842 -0.37227,-2.9692 -0.005,-5.5562 1.2922,-9.0988 0.99681,-2.7225 2.3395,-6.7725 2.9837,-9 2.7058,-9.3557 8.6542,-17.732 19.343,-27.238 8.6857,-7.7248 10.801,-9.217 14.953,-10.55 1.98,-0.63551 5.1188,-1.9189 6.975,-2.852 4.0715,-2.0466 4.4639,-4.8232 1.125,-7.9599 -2.0819,-1.9559 -2.249,-2.7239 -2.2362,-10.282 0.0117,-6.9256 0.95933,-11.944 1.9623,-10.392 1.8214,2.8188 2.5239,5.019 2.5239,7.9048 0,5.118 5.3584,9.1691 12.128,9.1691 4.1134,0 6.0518,-2.1158 5.7513,-6.2777 -0.1685,-2.3338 0.35182,-4.0823 1.7401,-5.8472 2.3531,-2.9915 2.3875,-3.3776 0.60742,-6.8198 -1.5695,-3.0352 -0.66442,-3.415 2.3402,-0.98198 1.8121,1.4674 2.114,2.6669 2.4524,9.746 0.39844,8.3338 -0.5333,11.912 -3.8102,14.631 -1.7506,1.4528 -1.8344,4.1936 -0.14799,4.8407 0.69375,0.26622 5.4525,0.98277 10.575,1.5923 10.668,1.2695 17.601,4.132 27.447,11.333 3.2586,2.3833 7.274,5.2368 8.9231,6.3411 5.0696,3.395 11.038,10.268 14.26,16.423 4.1285,7.8848 7.739,21.634 8.6005,32.751 0.38862,5.015 1.365,10.624 2.1698,12.464 1.0002,2.2871 1.4632,5.9492 1.4632,11.571 0,7.2683 -0.31178,8.8785 -2.68,13.841 -2.3214,4.864 -2.773,7.0969 -3.375,16.685 -0.65143,10.376 -0.83592,11.174 -2.945,12.731 -1.2375,0.91357 -8.1225,2.9714 -15.3,4.573 -7.1775,1.6016 -13.316,3.2895 -13.642,3.751 -0.95585,1.3554 0.17718,3.5331 3.1784,6.109 l 2.8041,2.4067 -3.1454,-0.15667 -3.1454,-0.15667 -0.0735,5.4 c -0.0776,5.7013 2.2585,12.15 4.4015,12.15 1.6623,0 8.0263,-3.3796 8.8716,-4.7113 0.39754,-0.62629 0.72901,-2.7442 0.73659,-4.7066 0.0131,-3.3756 0.0973,-3.4844 1.5633,-2.0183 1.2704,1.2704 1.6589,4.0423 2.1568,15.39 0.33402,7.6125 0.84459,14.596 1.1346,15.518 0.29001,0.92264 0.94064,5.93 1.4458,11.128 0.97921,10.074 2.1061,20.363 3.4832,31.804 0.72738,6.0428 1.2308,7.4268 3.5134,9.6584 4.1198,4.0278 8.4654,16.654 8.9618,26.038 0.37296,7.05 0.19222,8.1136 -2.3045,13.56 -3.1755,6.9274 -4.6794,8.4142 -7.8903,7.8004 -1.5346,-0.29336 -2.9162,0.10508 -3.9504,1.1393 -2.4958,2.4958 -5.9289,1.2015 -11.789,-4.4442 -4.5919,-4.424 -5.4098,-5.7298 -6.2004,-9.8989 -1.043,-5.4999 -1.096,-18.084 -0.10537,-25.04 0.48219,-3.3862 1.4046,-5.496 3.2407,-7.4125 l 2.5666,-2.679 -1.5664,-16.888 c -1.605,-17.304 -2.9864,-32.103 -3.5924,-38.488 -0.35134,-3.7012 -2.3785,-5.279 -3.8222,-2.9748 -0.81159,1.2954 -2.1632,21.853 -2.089,31.775 0.0259,3.465 0.63896,10.847 1.3624,16.405 1.2942,9.9427 1.0195,18.8 -0.68575,22.118 -0.45883,0.89274 -2.021,2.3449 -3.4715,3.227 l -2.6372,1.6038 -0.32013,30.239 c -0.17607,16.631 -0.0772,30.569 0.21968,30.973 0.29689,0.4039 2.7673,2.5901 5.4898,4.8583 4.5915,3.8252 5.5041,4.2007 12.6,5.1845 10.561,1.4641 24.384,5.0978 29.764,7.8238 3.1071,1.5745 4.9532,3.2405 5.9824,5.3987 1.4689,3.0804 1.4558,3.1557 -1.0002,5.7192 -9.7004,10.125 -58.468,16.938 -105.85,14.788 z m -2.5646,-19.21 c 5.8151,-1.6152 5.2824,-5.3347 -0.76811,-5.3636 -1.5855,-0.007 -3.9586,-0.504 -5.2736,-1.1032 -2.0282,-0.92413 -2.5617,-0.85586 -3.5166,0.45 -0.72376,0.98981 -2.3594,1.5394 -4.5814,1.5394 -4.2212,0 -3.3962,1.0329 2.7542,3.4485 5.3263,2.0919 7.0104,2.2441 11.385,1.0289 z m 54.595,-1.5048 c 4.6874,-2.2912 4.5032,-4.5107 -0.59643,-7.1884 -0.17371,-0.0912 0.59952,-1.7945 1.7183,-3.7851 1.6856,-2.9991 1.8365,-3.8574 0.88065,-5.0092 -1.2254,-1.4764 -4.707,-1.7272 -7.6831,-0.55344 -1.0607,0.41834 -3.2327,0.20752 -5.2882,-0.51326 -1.9185,-0.67275 -5.0572,-1.2232 -6.975,-1.2232 -4.069,0 -4.2378,-0.4472 -1.3402,-3.5508 l 2.1466,-2.2992 -0.84543,-28.774 c -0.46499,-15.826 -0.96062,-28.889 -1.1014,-29.03 -0.14079,-0.14079 -6.3963,0.22763 -13.901,0.81871 l -13.645,1.0747 -0.16769,4.5551 c -0.0922,2.5053 -0.23916,6.1751 -0.32652,8.1551 -0.0874,1.98 -0.24442,13.01 -0.34901,24.511 l -0.19017,20.911 2.5417,2.236 c 3.1592,2.7792 6.6302,3.495 14.729,3.0374 5.9793,-0.33786 6.3541,-0.24467 6.8425,1.7014 0.82066,3.2698 5.6083,6.8009 8.4503,6.2326 2.7277,-0.54554 6.27,0.16754 6.27,1.2622 0,0.97204 -9.6526,2.9464 -11.305,2.3123 -1.6002,-0.61407 -1.7454,1.7489 -0.17008,2.7684 0.61875,0.40047 3.3525,1.6297 6.075,2.7316 5.5049,2.228 9.0896,2.1321 14.231,-0.38087 z m -44.833,-10.171 c 2.3427,-1.2538 2.2872,-3.4198 -0.15409,-6.0185 -2.1006,-2.236 -4.3606,-2.6187 -7.0295,-1.1903 -0.91742,0.49099 -4.8396,0.95782 -8.7158,1.0374 -10.157,0.20852 -14.294,3.3876 -8.6228,6.6253 1.9941,1.1384 4.4418,1.3253 12.597,0.96191 5.5672,-0.24809 10.933,-0.88523 11.925,-1.4159 z m -9.5123,-13.43 c 1.2974,-1.4336 1.5505,-3.4159 1.4856,-11.632 -0.043,-5.4472 -0.41529,-10.815 -0.82724,-11.929 -0.49282,-1.3322 -0.29653,-2.9317 0.57394,-4.6766 1.753,-3.5139 1.0318,-16.755 -1.0888,-19.991 -2.0358,-3.107 -5.6729,-3.0326 -6.8795,0.14083 -1.432,3.7664 -2.21,21.525 -0.97641,22.287 0.76295,0.47154 0.77193,1.1245 0.0344,2.5026 -1.3094,2.4467 -0.66113,20.298 0.83532,23.001 1.3859,2.5035 4.715,2.6479 6.8426,0.29693 z m 47.871,-2.6462 c 1.7367,-3.4834 2.5508,-26.305 1.1617,-32.566 -0.65392,-2.9476 -1.6583,-5.3593 -2.2319,-5.3593 -0.57364,0 -2.1509,0.87152 -3.5051,1.9367 l -2.4621,1.9367 0.31577,10.569 c 0.26914,9.0088 0.57971,10.861 2.1038,12.545 1.6851,1.8617 1.698,2.0414 0.225,3.1185 -1.8801,1.3748 -2.2238,9.0718 -0.43805,9.8088 2.0558,0.84846 3.7678,0.14373 4.8309,-1.9886 z m 38.14,-29.83 c 0,-1 -0.6,-1.8 -1.35,-1.8 -1.6274,0 -1.7399,1.0501 -0.27,2.52 1.4524,1.4524 1.62,1.3779 1.62,-0.72 z m 2.8319,-9.3131 c 3.0538,-2.2651 4.2096,-7.1152 3.7056,-15.55 -0.61525,-10.297 -1.8674,-12.885 -6.3357,-13.093 -7.2051,-0.33672 -8.8464,-0.49728 -11.452,-1.1203 -2.5354,-0.60627 -2.5958,-0.56131 -0.99178,0.7373 1.65,1.3358 1.6264,1.4141 -0.69114,2.2952 -4.3189,1.642 -4.7447,5.0458 -2.5949,20.745 0.66564,4.8608 0.7346,4.9545 3.8278,5.2025 1.7325,0.13889 3.96,0.62427 4.95,1.0786 3.893,1.7866 6.901,1.6942 9.5819,-0.29428 z m -126.42,-1.6742 c 1.0804,-0.52349 2.6504,-0.68849 3.4891,-0.36668 2.2464,0.86204 3.9966,-1.0632 3.9966,-4.3962 0,-1.6114 0.63118,-4.4405 1.4026,-6.2869 1.0172,-2.4344 1.2345,-4.703 0.79068,-8.255 -0.63538,-5.0853 -2.1438,-7.4875 -4.7326,-7.5365 -1.3164,-0.0249 -1.2877,-0.19736 0.22359,-1.3407 2.3074,-1.7457 1.3672,-2.5099 -1.6681,-1.3559 -1.3384,0.50885 -5.0166,0.92518 -8.1738,0.92518 -6.8488,0 -8.5297,1.585 -8.5639,8.0753 -0.0118,2.2411 -0.40565,5.6947 -0.87521,7.6747 -1.3481,5.6846 1.3811,12.267 5.7649,13.904 2.0088,0.75013 5.5643,0.30647 8.3461,-1.0414 z m 85.786,-5.2492 c 0,-4.2446 -0.73669,-6.2634 -2.2856,-6.2634 -1.3065,0 -1.7869,1.2433 -2.6644,6.8963 -0.49162,3.167 -0.32781,3.8032 1.0593,4.1141 2.571,0.57629 3.8908,-1.0339 3.8908,-4.747 z m -27.9,-20.31 c 4.1668,-1.9608 5.8044,-2.255 10.35,-1.8597 4.0243,0.35002 6.1256,0.0859 8.248,-1.0369 4.2482,-2.2472 11.757,-12.106 12.303,-16.152 0.67695,-5.0238 0.16847,-8.421 -1.391,-9.2937 -2.0186,-1.1297 -17.634,-1.1772 -18.983,-0.0578 -0.62526,0.51894 -1.652,0.62512 -2.2816,0.23598 -0.69478,-0.4294 1.7217,-1.3269 6.1472,-2.283 7.8442,-1.6948 11.708,-4.4403 11.708,-8.3191 0,-2.6501 -0.63631,-2.9293 -7.6189,-3.342 -6.3006,-0.3724 -9.2715,-1.4448 -4.0061,-1.4461 4.2537,-9e-4 11.841,-3.0336 12.764,-5.1015 0.44111,-0.98855 0.38361,-2.7101 -0.13615,-4.0772 -0.80466,-2.1164 -1.5228,-2.4329 -6.8012,-2.9982 -5.8182,-0.62308 -8.2663,-2.2223 -3.4019,-2.2223 3.9965,0 6.6496,-2.3821 6.3258,-5.6797 -0.23468,-2.3902 -0.74306,-2.912 -3.4256,-3.5162 -4.3968,-0.99019 -31.751,0.14153 -38.076,1.5753 -5.8756,1.3319 -7.8241,2.5769 -7.8241,4.9991 0,2.0539 2.6009,3.5215 6.2408,3.5215 3.8859,0 3.427,1.1747 -1.0658,2.7277 -3.5086,1.2129 -3.8484,1.6072 -4.1084,4.766 -0.16864,2.0491 0.28698,4.3144 1.125,5.5933 1.8676,2.8503 1.882,2.817 -1.7416,4.0129 -3.2857,1.0844 -3.7026,2.3357 -2.3671,7.105 0.4638,1.6563 1.6406,2.4282 5.0853,3.3353 2.465,0.64914 5.8994,1.2588 7.6318,1.3548 3.0411,0.16853 3.0576,0.18818 0.47833,0.56848 -2.9027,0.42796 -7.6783,3.43 -7.6783,4.8267 0,0.47724 0.91125,1.234 2.025,1.6817 2.0148,0.80984 2.0137,0.81416 -0.225,0.85721 -1.2375,0.0238 -2.8357,-0.32728 -3.5515,-0.78016 -1.9118,-1.2095 -4.2026,0.36394 -5.3588,3.6806 -0.80146,2.2991 -0.73781,3.157 0.32101,4.3269 0.72637,0.80263 1.949,2.9632 2.7171,4.8014 0.76802,1.8381 1.9512,3.3421 2.6294,3.3421 0.67812,0 1.4448,0.81 1.7037,1.8 0.34698,1.3268 1.2617,1.8183 3.48,1.8698 1.6551,0.0383 5.0343,0.81697 7.5093,1.7302 5.8241,2.1491 5.4859,2.1655 11.25,-0.54692 z m 3.4312,-28.868 c 0.64969,-0.25998 1.4259,-0.22801 1.725,0.071 0.29906,0.29906 -0.23251,0.51178 -1.1812,0.4727 -1.0485,-0.0432 -1.2617,-0.25645 -0.54376,-0.54375 z m -14.432,-13.545 c 2.1168,-0.19012 5.3568,-0.18744 7.2,0.0063 1.8432,0.19338 0.11122,0.34894 -3.8488,0.34567 -3.96,-0.0036 -5.468,-0.1615 -3.3512,-0.35162 z m 5.2441,-13.59 c -0.29065,-0.4703 0.98704,-1.044 2.8393,-1.275 5.1788,-0.64569 5.5576,0.44559 0.52847,1.5222 -1.5616,0.3343 -3.0771,0.22305 -3.3678,-0.24724 z m 8.8828,-1.0896 c -0.29257,-0.47338 0.30196,-0.8607 1.3212,-0.8607 2.1731,0 2.3923,0.5005 0.53194,1.2144 -0.72665,0.27884 -1.5606,0.11967 -1.8531,-0.35371 z m 58.53,41.214 c -0.41841,-12.398 -0.94498,-17.334 -3.1444,-29.475 -0.94158,-5.1975 -1.98,-13.199 -2.3076,-17.781 -0.32762,-4.5822 -0.94908,-8.5497 -1.381,-8.8166 -0.43196,-0.26696 -1.6294,-0.03366 -2.661,0.51841 -1.6827,0.90054 -1.8149,1.5297 -1.2855,6.1166 0.32454,2.8121 1.1783,7.7453 1.8972,10.963 0.71888,3.2175 1.0666,6.8097 0.77275,7.9827 -0.69331,2.7672 2.967,25.936 4.5959,29.091 0.79576,1.5413 0.92496,2.6257 0.35479,2.9781 -2.1584,1.3339 -0.27328,8.548 2.2337,8.548 1.0345,0 1.2043,-1.8579 0.92532,-10.125 z m -118.72,6.0419 c 0.31516,-1.2557 0.33526,-3.472 0.0446,-4.925 -0.30643,-1.5321 0.007,-3.692 0.74675,-5.1419 1.5462,-3.0314 4.9699,-21.211 4.9699,-26.39 0,-2.05 0.83106,-7.8053 1.8468,-12.79 1.6274,-7.9857 1.6891,-9.2201 0.51978,-10.389 -2.5192,-2.5193 -3.9775,-0.6593 -4.5756,5.836 -0.31062,3.3732 -1.3458,9.7781 -2.3004,14.233 -2.4519,11.443 -4.2753,23.532 -4.3438,28.8 -0.0321,2.475 -0.33351,6.4238 -0.66965,8.775 -0.56369,3.9429 -0.46358,4.275 1.2888,4.275 1.2833,0 2.0859,-0.74095 2.4729,-2.2831 z m 48.961,-60.471 c 0.2475,-0.22116 0.45,-1.6456 0.45,-3.1654 0,-1.5198 0.47438,-2.9253 1.0542,-3.1233 0.65768,-0.22463 0.88208,0.29811 0.59661,1.3898 -0.63248,2.4186 1.2733,3.3364 3.2373,1.559 1.5303,-1.3849 1.5993,-1.3377 1.1884,0.81184 -0.38506,2.0143 -0.13351,2.2815 2.1437,2.2771 1.419,-0.0027 4.0987,-0.4268 5.9549,-0.9423 2.6664,-0.74051 3.375,-1.3776 3.375,-3.0348 0,-1.1536 0.6075,-2.6017 1.35,-3.2179 0.7425,-0.61622 1.35,-1.8569 1.35,-2.7571 0,-0.90017 0.405,-1.887 0.9,-2.1929 0.495,-0.30593 0.9,-0.10004 0.9,0.45753 0,0.57995 0.7187,0.78566 1.6795,0.48072 1.3582,-0.43108 1.6124,-0.14141 1.3287,1.5144 -0.57012,3.3276 0.95878,4.8323 3.8698,3.8086 2.1838,-0.76801 2.5069,-1.3777 2.6737,-5.0464 0.15423,-3.3922 -0.27064,-4.7243 -2.2712,-7.1207 -2.7608,-3.307 -4.1565,-3.023 -5.046,1.027 -0.74095,3.3735 -2.4845,4.1617 -5.2288,2.3636 -1.5462,-1.0131 -3.8557,-1.2715 -8.993,-1.0061 -6.8675,0.35477 -8.1492,-0.18177 -5.5625,-2.3286 2.4773,-2.056 1.5161,-2.9566 -2.475,-2.319 -2.1038,0.3361 -4.2098,0.99536 -4.68,1.465 -1.4013,1.3996 -2.9535,0.97464 -3.4558,-0.94607 -0.63904,-2.4437 -3.5686,-2.2905 -6.6348,0.34691 -1.9049,1.6385 -2.2655,2.4377 -1.5228,3.375 1.5716,1.9834 2.2661,11.169 1.0469,13.845 -0.87751,1.9259 -0.83756,2.5093 0.21649,3.1607 1.2161,0.75159 11.581,0.18871 12.555,-0.68182 z m 23.231,-4.6897 c 0.225,-0.675 -0.1125,-1.0125 -0.7875,-0.7875 -0.64969,0.21657 -1.3584,0.92531 -1.575,1.575 -0.225,0.675 0.1125,1.0125 0.7875,0.7875 0.64969,-0.21657 1.3584,-0.92532 1.575,-1.575 z m -38.531,-1.4722 c 0,-0.83812 -0.61234,-1.2972 -1.5004,-1.125 -2.2579,0.4379 -2.5679,2.541 -0.37458,2.541 1.1055,0 1.875,-0.58112 1.875,-1.416 z m 24.75,-33.673 c 4.95,-0.58414 11.43,-1.6297 14.4,-2.3234 2.97,-0.69374 8.0791,-1.2673 11.354,-1.2747 4.5769,-0.01026 6.4828,-0.42954 8.242,-1.8133 1.5644,-1.2305 3.6671,-1.8044 6.6464,-1.8138 4.7348,-0.01494 7.1869,-1.0216 6.2361,-2.5599 -0.59734,-0.96652 -4.9086,-1.1765 -27.528,-1.3408 -18.937,-0.13756 -67.759,1.2318 -71.1,1.9942 l -3.15,0.71882 3.375,2.0396 c 1.8562,1.1218 3.375,2.4046 3.375,2.8508 0,0.4461 0.64486,0.8111 1.433,0.8111 0.78817,0 2.4201,0.77639 3.6264,1.7253 1.9686,1.5485 3.7135,1.7189 17.029,1.6625 8.1598,-0.03456 15.089,0.19052 15.399,0.50021 0.30968,0.30969 0.81033,0.41061 1.1125,0.22426 0.30221,-0.18634 4.5995,-0.81674 9.5495,-1.4009 z m -52.64,-2.714 c 0,-0.495 -0.16938,-0.9 -0.37639,-0.9 -0.20702,0 -1.0216,-0.24759 -1.8102,-0.55021 -1.0494,-0.4027 -1.2846,-0.16143 -0.87732,0.9 0.60423,1.5746 3.0639,2.0163 3.0639,0.55021 z m 62.55,-13.178 c 6.93,-0.7806 14.341,-1.3925 16.468,-1.3597 2.4812,0.03816 4.0371,-0.38056 4.3392,-1.1678 0.47348,-1.2339 -3.2621,-7.9352 -5.0338,-9.0302 -0.52213,-0.3227 -1.7618,-2.1792 -2.7548,-4.1257 -1.4308,-2.8045 -2.3153,-3.5418 -4.2621,-3.5527 -3.0571,-0.01719 -5.1368,-1.2622 -4.3189,-2.5856 0.34013,-0.55034 1.5574,-1.0006 2.7051,-1.0006 3.3527,0 4.5187,-2.4018 5.0551,-10.413 0.44277,-6.6126 0.85798,-7.9798 3.7427,-12.325 3.712,-5.5906 9.1508,-8.7481 16.309,-9.4683 4.388,-0.44143 6.5163,-2.3627 4.2018,-3.7931 -0.63832,-0.3945 -1.6621,-2.1761 -2.2751,-3.9592 -0.89496,-2.6033 -0.88986,-3.2419 0.0259,-3.2419 2.1602,0 3.7956,-4.0674 4.452,-11.073 0.43075,-4.5972 1.0106,-6.9054 1.6786,-6.6827 1.3251,0.44169 2.6498,5.5898 2.5425,9.8806 -0.11525,4.6095 2.2337,4.6095 2.7997,0 0.22792,-1.8562 0.94681,-6.2321 1.5976,-9.724 l 1.1832,-6.349 -3.6487,-5.351 c -3.5662,-5.2299 -6.2641,-7.6774 -11.298,-10.249 -1.3698,-0.69984 -3.4671,-2.5528 -4.6606,-4.1176 -3.4487,-4.5214 -12.441,-8.3138 -21.447,-9.0445 l -7.5877,-0.61567 -2.4919,3.2671 c -1.3705,1.7969 -4.4415,4.6982 -6.8243,6.4473 -2.5287,1.8562 -5.0121,4.6551 -5.9651,6.7228 -0.89801,1.9484 -1.8832,3.553 -2.1892,3.5657 -0.30607,0.01278 -0.78209,-1.6587 -1.0578,-3.7144 -0.34651,-2.5835 -1.2388,-4.3257 -2.8896,-5.642 -1.3423,-1.0703 -2.6669,-3.2766 -3.0244,-5.0374 -0.59519,-2.9314 -0.88523,-3.1511 -4.5079,-3.4136 -3.2,-0.23192 -4.9351,0.35109 -10,3.3603 -5.6538,3.3589 -10.813,8.1229 -10.813,9.9846 0,0.42692 -1.6046,2.6302 -3.5659,4.8963 -2.0963,2.4221 -3.3555,4.6682 -3.0555,5.4502 0.30575,0.79676 -0.79063,2.6312 -2.7341,4.5747 -3.7364,3.7364 -3.6872,3.4978 -1.8416,8.934 1.1264,3.3176 1.2002,4.7468 0.37454,7.2486 -0.91469,2.7715 -0.77123,3.5551 1.297,7.0843 2.7976,4.7737 2.8779,6.0187 0.52547,8.1476 -0.99,0.89594 -1.8,2.329 -1.8,3.1845 0,0.85555 -0.91125,1.826 -2.025,2.1566 -1.6544,0.49104 -0.90702,0.97682 4.0835,2.6542 7.632,2.5653 10.269,4.5188 13.627,10.094 2.1144,3.511 2.7327,5.7311 3.0313,10.883 0.45251,7.8083 1.5236,9.0607 8.0812,9.4484 2.5994,0.15371 4.6196,0.68447 4.4893,1.1795 -0.132,0.50169 -2.4442,0.79173 -5.2246,0.65536 -4.4563,-0.21856 -5.2467,0.02556 -7.417,2.2909 -1.6659,1.7388 -2.6198,3.9366 -3.0358,6.9946 -0.33364,2.4525 -1.2479,4.9323 -2.0316,5.5105 -2.1527,1.5883 -0.97773,2.0928 6.7793,2.911 11.511,1.2142 26.922,1.0272 40.393,-0.49013 z m -16.95,-17.122 c -1.3663,-1.3663 -0.46771,-3 1.65,-3 1.65,0 2.25,0.48 2.25,1.8 0,1.756 -2.5572,2.5428 -3.9,1.2 z m -7.35,-1.2 c -0.30593,-0.495 0.30157,-0.9 1.35,-0.9 1.04843,0 1.6559,0.405 1.35,0.9 -0.30593,0.495 -0.91343,0.9 -1.35,0.9 -0.43658,0 -1.0441,-0.405 -1.35,-0.9 z m 15.75,-1.5727 c 0,-1.2487 8.2397,-2.2476 9.3534,-1.1339 0.60874,0.60873 -0.11348,0.91059 -2.1984,0.91884 -1.7078,0.0072 -4.0162,0.2565 -5.13,0.55498 -1.1138,0.29847 -2.025,0.14548 -2.025,-0.33996 z m -9.018,-15.999 c -0.62615,-0.75446 -0.93057,-1.5796 -0.6765,-1.8337 0.63552,-0.63551 5.1946,1.5147 5.1946,2.4499 0,1.2845 -3.3159,0.83229 -4.5181,-0.61622 z m 0.0181,-31.928 c 0,-0.495 0.38109,-0.9 0.84688,-0.9 0.46578,0 1.0972,0.405 1.4031,0.9 0.30592,0.495 -0.0752,0.9 -0.84689,0.9 -0.77171,0 -1.4031,-0.405 -1.4031,-0.9 z m 75.701,48.523 c 5.2573,-2.6409 8.3417,-12.324 4.8488,-15.223 -0.7425,-0.61622 -1.3646,-1.7796 -1.3824,-2.5852 -0.0178,-0.80564 -0.92905,-2.553 -2.025,-3.883 -5.1397,-6.2372 -15.127,-5.4549 -20.678,1.6198 -1.6588,2.1141 -1.9814,3.5567 -1.8284,8.1765 0.2294,6.9266 2.0128,10.541 6.2822,12.731 3.9001,2.0009 9.7995,1.6672 14.783,-0.83629 z m -12.345,-5.7098 c -4.2355,-1.8437 -5.2822,-7.584 -2.1167,-11.608 3.8441,-4.887 12.668,-3.5663 13.908,2.0818 0.79003,3.597 -2.211,8.511 -6.0056,9.8338 -1.5456,0.53878 -2.8509,0.96376 -2.9008,0.94438 -0.0499,-0.01935 -1.3481,-0.5826 -2.885,-1.2516 z m -97.181,-7.8356 c 0.34755,0.56234 1.2155,1.0224 1.9288,1.0224 2.5284,0 1.2425,-3.6447 -2.695,-7.6387 -3.097,-3.1415 -5.4675,-4.532 -10.575,-6.2033 -8.5497,-2.7976 -9.3679,-2.1997 -6.7005,4.8959 2.3961,6.3739 6.7459,10.243 10.657,9.4808 1.3421,-0.26167 2.7163,-0.02889 3.0538,0.5172 0.39432,0.63802 1.165,0.26203 2.1561,-1.0519 1.0255,-1.3595 1.7542,-1.7022 2.1743,-1.0224 z m 83.728,-4.9119 c 5.3044,-6.5117 9.573,-9.3528 15.022,-9.9981 2.4068,-0.28504 4.3759,-0.81725 4.3759,-1.1827 0,-2.834 -12.45,-4.8097 -16.922,-2.6853 -12.831,6.0954 -14.333,7.2308 -15.12,11.424 -0.45311,2.4152 -0.16662,3.5138 1.3324,5.1094 1.0503,1.118 1.9096,2.7257 1.9096,3.5728 0,2.6295 4.7387,-0.51573 9.4021,-6.2405 z m 11.298,-20.113 c 0,-1.0619 -1.7553,-2.1978 -2.4,-1.5531 -0.64468,0.64469 0.49125,2.4 1.5531,2.4 0.46579,0 0.84688,-0.3811 0.84688,-0.84688 z m 1.0269,-7.2531 c 0.86178,0 1.834,-0.43214 2.1604,-0.96032 0.38938,-0.63003 -0.44327,-0.84192 -2.4209,-0.61609 -2.1147,0.24148 -3.1079,0.86391 -3.3278,2.0853 -0.25326,1.4073 -0.0896,1.5254 0.85403,0.61609 0.64204,-0.61875 1.8724,-1.125 2.7342,-1.125 z m -58.88,-46.364 c 4.0042,-2.8046 3.5617,-13.936 -0.55397,-13.936 -4.2532,0 -7.5866,12.191 -3.9177,14.328 2.0755,1.2089 2.2023,1.1978 4.4717,-0.39177 z m -75.711,80.413 c -3.5181,-5.0228 -0.27357,-12.449 5.439,-12.449 1.7291,0 3.9272,0.41925 4.8847,0.93166 2.4154,1.2927 2.2635,6.1239 -0.31312,9.9602 -2.6723,3.9788 -7.76,4.7701 -10.011,1.5571 z m 69.21,-116.84 c -1.0598,-1.7149 0.57457,-2.7 4.4795,-2.7 4.7799,0 6.7705,0.68983 6.7705,2.3463 0,0.93093 -1.3766,1.2537 -5.3469,1.2537 -2.9408,0 -5.5972,-0.405 -5.9031,-0.9 z"
         inkscape:connector-curvature="0"
         style="fill:#52514d" />
      <path
         id="path4236"
         d="m -333.15,241.45 c -20.226,-2.5966 -31.122,-5.7782 -35.524,-10.374 -2.0573,-2.1473 -2.2791,-2.8384 -1.4239,-4.4363 1.3737,-2.5667 7.9946,-5.7809 16.79,-8.1508 6.1766,-1.6643 7.4838,-2.3545 8.55,-4.515 0.69226,-1.4027 3.0812,-3.9292 5.3087,-5.6144 l 4.05,-3.0641 0,-30.548 0,-30.548 -2.551,-2.4936 c -2.2268,-2.1768 -2.4763,-2.9358 -1.963,-5.9736 0.32337,-1.914 0.15173,-5.1 -0.38141,-7.0799 -0.75036,-2.7866 -0.66822,-4.792 0.36356,-8.8764 1.0412,-4.1218 1.2308,-9.0186 0.86613,-22.376 -0.78534,-28.77 -1.1792,-31.05 -5.3628,-31.05 -1.8439,0 -2.1601,0.63207 -3.039,6.075 -1.587,9.8281 -4.4934,32.339 -5.4748,42.405 l -0.9097,9.33 2.7596,3.143 c 1.5629,1.7801 2.5391,3.7179 2.251,4.4686 -0.27976,0.72902 -0.50864,1.9705 -0.50864,2.7588 0,1.1282 -0.48077,0.98161 -2.2584,-0.68835 -1.3641,-1.2814 -2.0673,-2.7236 -1.7759,-3.6419 0.43177,-1.3604 -0.35788,-1.4958 -7.5089,-1.288 -4.3953,0.12773 -8.8612,0.50827 -9.9242,0.84564 -2.922,0.92741 -2.4151,-1.2233 1.2216,-5.183 2.4047,-2.6183 3.1469,-4.2083 3.1507,-6.75 0.003,-1.8287 0.4448,-4.9089 0.98231,-6.8448 1.6355,-5.8906 2.7347,-2.0103 2.0807,7.3449 -0.55733,7.9713 -0.504,8.325 1.2552,8.325 2.2071,0 4.2501,-5.1918 3.3906,-8.6163 -0.30655,-1.2214 -0.1047,-3.0665 0.44856,-4.1002 1.2814,-2.3943 3.4972,-15.065 4.4651,-25.534 0.41191,-4.455 1.37,-10.732 2.1291,-13.95 1.9177,-8.1285 1.825,-10.532 -0.45322,-11.752 -2.7648,-1.4797 -3.4057,-0.30593 -4.4797,8.2056 -0.5272,4.1779 -1.728,11.039 -2.6684,15.246 -0.94038,4.2075 -1.9796,9.9901 -2.3094,12.85 -0.77385,6.7111 -2.4902,8.0257 -1.8712,1.4332 0.82548,-8.7916 2.4252,-20.924 3.7819,-28.683 0.73571,-4.2075 1.3389,-10.586 1.3405,-14.175 0.003,-6.7938 0.79058,-8.1126 2.5452,-4.2617 0.56716,1.2448 2.0774,2.7399 3.3561,3.3225 3.5213,1.6044 10.01,-2.143 11.214,-6.4764 1.2001,-4.3197 1.1124,-10.225 -0.17095,-11.508 -0.81164,-0.81165 -0.69088,-1.4652 0.51746,-2.8004 0.92782,-1.0252 1.4559,-2.7711 1.2837,-4.2443 -0.22631,-1.9365 -0.90314,-2.6458 -2.9925,-3.1358 -1.485,-0.34828 -6.75,-1.5233 -11.7,-2.6111 -4.95,-1.0878 -9.651,-2.1515 -10.447,-2.3637 -1.068,-0.28486 -1.5932,-1.9545 -2.0062,-6.3771 -0.30771,-3.2952 -0.97293,-6.4047 -1.4783,-6.9101 -0.50534,-0.50534 -0.91881,-2.521 -0.91881,-4.4791 0,-3.1421 -0.55505,-4.0718 -4.725,-7.9145 -2.5988,-2.3948 -4.9846,-4.3566 -5.302,-4.3597 -1.1633,-0.01116 -9.1367,-7.1132 -10.774,-9.5966 -1.1598,-1.7591 -1.6699,-4.106 -1.6321,-7.5089 0.0589,-5.2975 0.63738,-4.735 2.5899,2.518 0.74745,2.7765 1.8528,4.3629 3.9173,5.6216 4.358,2.6573 8.1396,2.2458 13.782,-1.4997 6.8837,-4.5691 8.6446,-9.0407 7.0452,-17.89 l -0.488,-2.7 1.7646,2.0275 c 0.9705,1.1152 2.0389,3.6517 2.3743,5.6367 0.35834,2.121 1.2934,3.9751 2.2677,4.4965 0.91187,0.48802 1.9152,1.6977 2.2296,2.6883 0.41855,1.3187 1.3615,1.801 3.5215,1.801 1.8069,0 3.581,0.69746 4.5788,1.8 0.89594,0.99 2.0992,1.8 2.6739,1.8 1.7479,0 6.7761,-6.3367 6.7761,-8.5394 0,-1.178 -1.723,-3.9824 -4.0091,-6.525 -3.3992,-3.7808 -5.008,-4.7694 -10.575,-6.4985 -6.3476,-1.9716 -8.9405,-2.9409 -14.666,-5.4828 -2.5717,-1.1418 -2.6015,-1.2152 -0.62651,-1.5454 2.6016,-0.435 3.9129,-3.7231 3.644,-9.1373 -0.2349,-4.7299 0.73936,-9.5834 2.4506,-12.208 0.65016,-0.99726 1.6229,-3.7889 2.1616,-6.2036 0.53874,-2.4147 1.9857,-6.0597 3.2154,-8.1 2.8759,-4.7716 11.795,-14.67 12.544,-13.921 0.31566,0.31567 -1.274,2.6546 -3.5325,5.1976 -2.2585,2.543 -4.1064,5.132 -4.1064,5.7533 0,0.62132 -0.81,2.7184 -1.8,4.6603 -2.191,4.2974 -2.27,6.5389 -0.30721,8.7078 1.2252,1.3539 1.3059,2.0597 0.45,3.9382 -1.3865,3.0431 -1.2688,6.6471 0.30721,9.404 2.0763,3.6321 1.5964,6.1136 -1.8488,9.5587 -1.7593,1.7593 -3.0459,3.6573 -2.8591,4.2178 0.18682,0.56047 2.8794,1.5331 5.9836,2.1614 8.3476,1.6895 12.252,4.2432 15.474,10.121 2.2246,4.058 2.7761,6.1982 2.949,11.445 0.11699,3.5497 0.6829,7.0205 1.2576,7.713 0.82448,0.99345 0.48818,1.9102 -1.5943,4.346 -1.4516,1.6978 -2.6556,3.7647 -2.6758,4.593 -0.0201,0.82834 -1.4876,3.407 -3.2611,5.7305 -1.7735,2.3234 -2.8873,4.5498 -2.475,4.9475 1.0509,1.0138 21.624,2.432 31.35,2.161 4.455,-0.12414 13.567,-0.70381 20.25,-1.2882 6.6825,-0.58435 13.841,-1.0258 15.907,-0.98109 2.0664,0.04473 4.8275,-0.3256 6.1357,-0.823 l 2.3786,-0.90435 -1.8819,-2.6429 c -1.0351,-1.4536 -3.1152,-3.782 -4.6224,-5.1742 -1.5073,-1.3922 -3.5199,-4.0283 -4.4724,-5.858 -0.95259,-1.8297 -2.39,-3.695 -3.1942,-4.145 -1.3446,-0.75248 -1.3397,-1.0053 0.0607,-3.1426 1.0428,-1.5915 1.5332,-4.2571 1.5557,-8.455 0.0341,-6.3905 1.478,-10.447 5.7469,-16.144 2.7119,-3.6195 11.379,-7.133 19.736,-8.0008 7.0083,-0.72772 8.55,-1.5281 8.55,-4.4389 0,-1.0906 1.0125,-2.9341 2.25,-4.0967 2.4798,-2.3296 3.0453,-6.7022 0.96986,-7.4987 -1.5174,-0.58227 -1.3063,-7.3749 0.27845,-8.9597 2.5294,-2.5294 0.0746,-9.4084 -6.148,-17.228 -2.5879,-3.2523 -4.3666,-5.9117 -3.9528,-5.9098 3.3494,0.01494 12.846,9.8339 16.536,17.097 3.8444,7.5671 7.2097,20.606 7.7817,30.15 0.3246,5.416 1.2054,10.716 2.212,13.308 1.2018,3.0956 1.6694,6.6422 1.6612,12.6 -0.0102,7.3935 -0.30014,8.861 -2.6768,13.548 -2.2878,4.5113 -2.7404,6.6151 -3.1943,14.85 -0.29087,5.2768 -0.70115,10.454 -0.91173,11.505 -0.50294,2.5104 -3.5942,3.7108 -18.36,7.1298 l -12.196,2.8238 -0.28641,2.9015 c -0.15753,1.5958 0.16589,3.4465 0.7187,4.1126 0.69292,0.83492 0.712,1.3922 0.0614,1.7943 -0.54911,0.33937 -0.9437,4.0927 -0.9437,8.9766 0,7.8397 0.14086,8.4857 2.1355,9.7926 4.0292,2.64 11.137,-0.81049 12.731,-6.1801 l 1.0571,-3.5621 0.69094,3.3876 c 0.38,1.8632 0.48667,4.4561 0.23702,5.762 -0.24965,1.306 0.12328,7.0716 0.82875,12.812 1.146,9.3258 2.1555,19.24 3.6167,35.519 0.29094,3.2413 0.14248,5.0759 -0.38439,4.7503 -0.47212,-0.29179 -1.1265,-3.2757 -1.4542,-6.6308 -0.32771,-3.3552 -1.1606,-8.9353 -1.8509,-12.4 -0.69031,-3.465 -1.7198,-10.755 -2.2877,-16.2 -0.56795,-5.445 -1.3274,-10.2 -1.6876,-10.567 -0.36023,-0.36666 -1.5497,-0.03996 -2.6433,0.72603 -2.2267,1.5597 -2.5342,5.1454 -1.0367,12.091 0.48028,2.2275 1.2487,8.7075 1.7076,14.4 1.0678,13.245 3.2379,26.78 4.5464,28.357 0.72988,0.87945 0.74821,1.7345 0.0645,3.012 -2.0489,3.8284 1.3407,10.913 3.9015,8.1539 0.8907,-0.95957 1.0153,-2.9334 0.50648,-8.0227 -0.40216,-4.0224 -0.3228,-7.4176 0.19641,-8.4021 1.2825,-2.4319 1.7458,-1.4005 2.5138,5.5965 0.56457,5.1431 1.2063,6.9221 3.5014,9.7065 3.393,4.1162 3.6968,6.1116 0.78516,5.1554 -1.1138,-0.36574 -4.455,-0.78097 -7.425,-0.92272 -2.97,-0.14175 -6.5801,-0.53719 -8.0224,-0.87875 -2.2759,-0.53898 -2.5401,-0.40662 -1.9996,1.002 0.80551,2.0991 -2.971,6.4751 -4.0802,4.7278 -1.3428,-2.1152 -0.7562,-4.214 1.9522,-6.9846 3.1579,-3.2304 3.1398,-2.9306 1.3283,-22.05 -3.9593,-41.789 -3.9679,-41.85 -5.8899,-41.85 -3.626,0 -4.1299,1.9315 -4.7678,18.275 -0.40774,10.446 -0.23882,19.316 0.50285,26.403 1.3155,12.57 1.2508,22.984 -0.16401,26.399 -0.55705,1.3448 -2.2081,3.0138 -3.6689,3.7089 l -2.6561,1.2638 -0.44853,31.161 -0.44854,31.161 4.091,3.3523 c 2.25,1.8438 4.7842,4.8209 5.6313,6.6159 1.4786,3.133 1.9007,3.3551 10.54,5.5482 11.292,2.8663 16.994,5.875 17.377,9.1684 0.58264,5.0123 -9.6727,9.4635 -29.977,13.011 -11.291,1.9729 -58.395,2.5202 -71.55,0.83133 z m 14.185,-14.593 c 3.3754,-1.2006 6.4577,-4.2644 5.3772,-5.345 -0.21087,-0.21086 -3.3824,-0.71423 -7.0479,-1.1186 -6.2228,-0.68647 -6.4966,-0.80508 -4.1309,-1.7895 1.3935,-0.57988 4.3297,-1.0543 6.525,-1.0543 5.0234,0 7.9143,-2.45 7.0332,-5.9606 -0.54176,-2.1585 -0.44172,-2.2562 1.3363,-1.3046 1.057,0.56571 1.9219,1.4193 1.9219,1.8969 0,1.4966 10.922,1.0368 12.656,-0.53276 1.4194,-1.2846 1.706,-1.1794 3.4459,1.2639 2.1469,3.0151 2.3746,4.7002 0.84208,6.2328 -2.2061,2.2062 0.52484,5.1822 6.6558,7.2532 6.5353,2.2075 9.0322,2.3719 14.627,0.96304 5.4136,-1.3631 7.866,-4.1195 7.095,-7.9743 -0.35871,-1.7936 -1.2483,-3.1481 -2.2375,-3.4068 -1.3162,-0.34419 -1.4578,-0.77362 -0.71365,-2.164 2.2519,-4.2077 -1.9427,-7.2591 -7.3754,-5.3652 -2.2215,0.77441 -3.7268,0.68603 -6.9492,-0.40798 -2.2624,-0.7681 -5.0434,-1.1631 -6.1801,-0.87785 -2.6119,0.65556 -2.8136,-1.4721 -0.30624,-3.2308 1.7199,-1.2064 1.7386,-1.918 0.81246,-30.935 -0.52139,-16.335 -1.069,-29.827 -1.217,-29.982 -0.14796,-0.15485 -6.7911,0.23346 -14.762,0.86291 l -14.493,1.1444 -0.16509,4.5371 c -0.0908,2.4954 -0.23753,6.3596 -0.32609,8.5871 -0.50958,12.818 -0.56662,44.885 -0.0825,46.41 0.48085,1.515 -0.047,1.9801 -3.3556,2.9571 -2.1594,0.6376 -7.0072,1.1912 -10.773,1.2302 -5.4031,0.056 -7.2315,0.42953 -8.6722,1.7718 -2.7126,2.5272 -2.2333,4.5604 1.5518,6.5825 4.1844,2.2355 4.1534,3.4408 -0.10629,4.1332 -6.3599,1.0338 -5.2886,2.944 3.2921,5.8704 5.9812,2.0399 9.4434,1.9853 15.722,-0.24793 z m -3.4506,-24.279 c 1.6744,-2.1287 1.8693,-3.6254 1.9045,-14.625 0.0215,-6.7395 0.38174,-14.027 0.80042,-16.195 0.95498,-4.9444 -0.55542,-17.116 -2.3804,-19.183 -0.74023,-0.8382 -2.5637,-1.7915 -4.052,-2.1184 -5.0246,-1.1036 -5.3172,-0.0288 -5.7811,21.227 -0.42455,19.456 0.52756,31.206 2.6374,32.547 2.1525,1.368 5.0413,0.67295 6.8712,-1.6533 z m 49.222,-3.9575 c 0.82609,-3.346 0.98059,-17.374 0.38331,-34.801 -0.0374,-1.0892 -0.41325,-2.1938 -0.83538,-2.4547 -0.42213,-0.26089 -0.5644,-3.3131 -0.31615,-6.7827 0.48063,-6.7174 -0.4025,-9.0322 -3.4459,-9.0322 -2.4359,0 -2.9617,1.4514 -3.7491,10.35 -1.6075,18.165 -1.7251,22.659 -0.71851,27.45 1.1382,5.4172 1.1396,5.4656 0.3645,12.54 -0.45056,4.1123 -0.26975,5.085 1.1364,6.1132 0.91971,0.67251 2.6851,1.1043 3.923,0.9596 1.8499,-0.21628 2.4302,-0.98963 3.2578,-4.3421 z m -25.847,-63.084 c 1.6048,-1.9819 1.8943,-2.0266 6.1131,-0.94538 5.0628,1.2976 6.5694,0.90988 11.393,-2.9316 3.0206,-2.4055 4.178,-2.7605 9,-2.7605 3.0435,0 5.8312,-0.405 6.1948,-0.9 1.1562,-1.5738 0.73892,-8.1397 -0.63261,-9.953 -0.72675,-0.96086 -1.3365,-2.962 -1.355,-4.447 -0.0185,-1.485 -0.44334,-4.175 -0.94407,-5.9777 -0.77019,-2.7728 -1.3933,-3.3683 -4.045,-3.8658 -3.7774,-0.70865 -3.973,-1.6019 -0.65956,-3.0131 l 2.475,-1.0541 -2.5837,0.47475 c -1.421,0.26111 -3.1712,1.0622 -3.8893,1.7803 -0.71806,0.71807 -2.3904,1.2708 -3.7163,1.2282 l -2.4107,-0.0774 2.5805,-0.77302 c 2.4916,-0.74641 4.3453,-2.6985 6.5859,-6.9356 0.91491,-1.7301 0.79054,-2.2099 -0.87526,-3.3767 -1.0679,-0.74796 -2.8641,-1.36 -3.9914,-1.36 -2.9212,0 -2.5389,-1.4772 0.54177,-2.0933 3.5976,-0.71952 5.5085,-2.9192 5.5085,-6.341 0,-3.6923 -1.3908,-5.0657 -5.13,-5.0657 -3.257,0 -3.9935,-1.3539 -1.216,-2.2354 1.8087,-0.57406 3.0019,-2.9568 2.5521,-5.0964 -0.17583,-0.8365 0.51944,-1.137 2.2189,-0.95914 1.3612,0.14249 2.475,-0.12087 2.475,-0.58523 0,-4.2358 -42.496,-4.0375 -54.655,0.25505 -2.9355,1.0363 -3.3686,1.5439 -3.1996,3.75 0.1075,1.4033 -0.2975,2.8646 -0.9,3.2475 -0.66484,0.42245 -0.0341,0.72636 1.6045,0.77312 1.485,0.04239 3.51,0.39935 4.5,0.79328 1.6054,0.63879 1.4513,0.86348 -1.425,2.0781 -2.9927,1.2638 -3.2363,1.6606 -3.3818,5.5086 -0.12415,3.2824 0.21977,4.3819 1.65,5.2751 2.2576,1.4099 2.3212,2.4954 0.14632,2.4954 -3.0953,0 -4.8855,3.0802 -4.1884,7.2064 0.34557,2.0454 1.0942,3.8594 1.6636,4.0311 0.56942,0.17168 2.0692,0.53616 3.3328,0.80992 1.9924,0.43166 2.2517,0.88984 1.9528,3.4502 -0.29905,2.5616 -0.68258,2.9524 -2.8975,2.9524 -1.404,0 -2.8565,-0.30375 -3.2278,-0.675 -0.37125,-0.37125 -1.0125,-0.675 -1.425,-0.675 -1.1121,0 -0.9099,2.4967 0.23309,2.8777 0.67802,0.226 0.58787,1.2963 -0.29052,3.449 -1.2098,2.965 -1.1239,3.4242 1.7169,9.1724 1.6448,3.3281 2.9905,6.4483 2.9905,6.9337 0,1.2089 5.9254,2.7562 10.578,2.7622 2.1637,0.003 5.2943,0.81049 7.2,1.8575 4.2872,2.3554 9.4376,1.8918 11.832,-1.065 z m 27.59,-14.206 c -0.77668,-1.2567 0.43921,-3.6812 1.8461,-3.6812 1.3611,0 1.5585,0.85851 0.70741,3.0764 -0.60677,1.5812 -1.7785,1.8588 -2.5535,0.60483 z m -41.687,-57.194 c 1.8498,-0.13621 3.94,-0.72625 4.6449,-1.3112 0.97902,-0.81252 1.4355,-0.81443 1.9338,-0.0081 1.2601,2.0389 16.691,-0.69073 19.438,-3.4386 1.0115,-1.0115 0.34407,-2.9295 -1.0193,-2.9295 -0.43042,0 -1.419,0.63643 -2.1969,1.4143 -1.1107,1.1107 -1.4143,1.1493 -1.4143,0.18 0,-3.6833 4.6258,-4.4594 6.1848,-1.0376 0.92537,2.031 1.4621,2.279 3.8837,1.7947 4.0918,-0.81835 5.2991,-2.1843 5.0606,-5.7256 -0.1445,-2.1455 0.29691,-3.492 1.412,-4.3074 2.4261,-1.774 1.1161,-5.2533 -1.7109,-4.5438 -2.0566,0.51619 -4.9302,-1.3133 -4.9302,-3.1388 0,-1.8934 -3.6123,-0.64631 -5.4,1.8643 -2.0934,2.94 -4.8823,3.5472 -5.7621,1.2545 -0.39488,-1.029 -1.2005,-1.2834 -2.7963,-0.88286 -1.621,0.40684 -2.2416,0.19936 -2.2416,-0.74939 0,-1.455 -4.6773,-2.3506 -12.15,-2.3263 -2.475,0.0081 -6.2769,-0.06732 -8.4487,-0.16751 -3.3763,-0.15569 -4.2457,0.19033 -5.9973,2.3871 -3.0344,3.8055 -3.2342,6.5127 -0.75066,10.172 2.6166,3.8557 2.6866,5.583 0.34667,8.5577 -0.99,1.2586 -1.8,2.5013 -1.8,2.7616 0,0.78156 4.7608,1.3143 7.65,0.85606 1.485,-0.23552 4.2135,-0.53967 6.0634,-0.67587 z m -12.36,-7.236 c 0,-2.6803 -3.5132,-2.4125 -3.897,0.29704 -0.24716,1.7449 0.0551,2.0472 1.8,1.8 1.398,-0.19803 2.097,-0.89704 2.097,-2.097 z m 31.05,-34.232 c 4.2075,-0.82588 11.498,-1.7937 16.2,-2.1508 4.7025,-0.35708 10.372,-1.0989 12.6,-1.6485 2.2275,-0.5496 5.8725,-1.4606 8.1,-2.0245 2.2275,-0.56387 7.8518,-1.568 12.498,-2.2315 8.0631,-1.1512 9.9548,-2.0486 9.9877,-4.7379 0.016,-1.3048 -4.3029,-1.5041 -7.3689,-0.3401 -5.9108,2.2441 -8.982,2.9047 -9.9859,2.1479 -0.59478,-0.44837 -9.7889,-0.71574 -20.431,-0.59417 -30.986,0.35395 -74.633,1.3689 -81.182,1.8877 l -6.0321,0.47788 0.54093,2.8229 c 0.8969,4.6806 1.9582,6.8729 3.3273,6.8729 2.5633,0 4.1459,-1.1247 4.1459,-2.9463 0,-1.892 1.3303,-1.3631 1.3741,0.54629 0.0132,0.5775 0.97769,0.9441 2.1432,0.81466 1.1655,-0.12943 2.5722,0.36538 3.1259,1.0996 0.71658,0.95014 3.2118,1.4178 8.6568,1.6225 15.79,0.59371 34.719,-0.1306 42.3,-1.6186 z m 59.173,-33.284 c 8.2888,-2.4615 10.938,-10.441 6.5264,-19.662 -2.2528,-4.7088 -5.7182,-7.402 -10.746,-8.3519 -2.7984,-0.52865 -4.0272,-0.27498 -9.2781,1.9154 -2.2948,0.95725 -1.9642,-1.064 0.37915,-2.3181 1.0748,-0.5752 4.3148,-0.99246 7.2,-0.92724 2.9228,0.06606 5.2458,-0.27382 5.2458,-0.76755 0,-0.48738 -1.6039,-1.7044 -3.5641,-2.7044 -3.8603,-1.9694 -14.867,-2.5709 -17.823,-0.97408 -0.85954,0.46432 -3.8006,1.8506 -6.5356,3.0807 -6.0528,2.7222 -7.9898,4.7394 -8.6892,9.049 -0.42077,2.593 -0.13102,3.7272 1.3567,5.3108 1.199,1.2763 1.712,2.7009 1.401,3.8904 -0.66181,2.5308 1.5252,3.2563 5.6498,1.8744 2.7977,-0.93738 3.4553,-1.6965 4.4606,-5.1495 1.1611,-3.9884 5.6355,-9.9 7.4931,-9.9 1.39,0 1.1863,0.74194 -1.0743,3.9111 -4.0415,5.6659 -1.5637,16.925 4.6331,21.052 3.5788,2.3837 7.0163,2.5563 13.365,0.67088 z m -11.273,-8.135 c -2.8626,-2.0051 -2.8153,-8.3195 0.0827,-11.042 2.7221,-2.5573 8.0373,-2.6366 10.517,-0.15688 5.9376,5.9376 -3.6498,16.067 -10.6,11.199 z m 2.9497,193.11 c -0.99,-0.42963 -3.9313,-2.8091 -6.5361,-5.2877 -5.1192,-4.871 -5.1748,-5.0323 -6.089,-17.667 -0.49364,-6.8219 -0.44764,-7.073 0.87595,-4.782 0.76833,1.3299 1.5358,4.7309 1.7056,7.5579 0.33229,5.5335 1.8579,7.5742 5.6626,7.5742 1.1137,0 2.303,0.44994 2.6428,0.99986 0.3853,0.62344 2.595,0.85687 5.8694,0.62001 6.1379,-0.44397 8.1515,-1.906 10.83,-7.8639 1.6966,-3.7731 1.7348,-4.305 0.47068,-6.561 -0.91332,-1.63 -1.1926,-3.5828 -0.831,-5.811 l 0.5446,-3.356 1.2622,3.561 c 0.69419,1.9585 1.4746,6.396 1.7343,9.861 0.42558,5.6782 0.19827,6.8961 -2.303,12.34 -3.8031,8.2766 -7.6303,10.048 -8.3332,3.8576 -0.24103,-2.123 -0.68935,-2.6332 -2.1062,-2.3969 -2.8398,0.47365 -3.8377,1.9278 -2.025,2.9506 1.9631,1.1076 2.0559,4.0221 0.15139,4.7529 -0.78298,0.30046 -1.4917,0.52062 -1.575,0.48924 -0.0832,-0.0314 -0.96139,-0.40856 -1.9514,-0.83821 z m -122.22,-1.4768 c -1.0729,-1.0729 -0.69143,-3.655 0.7121,-4.8198 1.8417,-1.5285 0.86702,-2.7082 -2.2376,-2.7082 -2.268,0 -2.5702,0.30883 -2.4219,2.475 0.14275,2.0852 -0.18494,2.475 -2.0806,2.475 -1.8754,0 -2.7271,-0.97407 -5.1153,-5.85 -1.5759,-3.2175 -2.8779,-7.2675 -2.8934,-9 -0.0352,-3.942 1.9676,-13.436 3.33,-15.785 0.89752,-1.5475 1.0273,-1.3448 1.0513,1.6412 0.015,1.8737 -0.60627,4.3737 -1.3807,5.5557 -1.3099,1.9992 -1.2493,2.4962 0.87017,7.1298 1.5205,3.3242 3.1713,5.4426 4.9634,6.3693 3.0047,1.5538 10.467,1.8757 11.325,0.48854 0.30592,-0.495 1.7244,-0.9 3.1521,-0.9 3.343,0 5.388,-2.8719 5.4298,-7.6253 0.0175,-1.9936 0.6463,-4.6372 1.3973,-5.8747 1.2872,-2.1213 1.3366,-1.9153 0.86236,3.6 -1.0374,12.065 -1.3997,12.984 -7.0689,17.935 -2.8751,2.5107 -5.5757,4.5649 -6.0014,4.5649 -0.42572,0 -1.3346,0.21509 -2.0196,0.47799 -0.68509,0.26289 -1.5282,0.19539 -1.8736,-0.15 z m 109.72,-31.455 c -0.30124,-0.78504 -0.15439,-2.1013 0.32635,-2.925 0.69526,-1.1913 0.87966,-0.89929 0.90143,1.4274 0.03,3.2027 -0.38107,3.7041 -1.2278,1.4976 z m -93.122,-0.52404 c -0.0674,-0.82577 -0.38467,-2.2433 -0.70503,-3.15 -0.44962,-1.2726 -0.32961,-1.4157 0.52621,-0.62742 0.60976,0.56167 0.92702,1.9792 0.70502,3.15 -0.222,1.1708 -0.45879,1.4532 -0.5262,0.62742 z m 24.603,-151.91 c 0.29257,-0.47338 1.1265,-0.63255 1.8531,-0.35371 1.8604,0.71391 1.6412,1.2144 -0.53194,1.2144 -1.0192,0 -1.6138,-0.38732 -1.3212,-0.8607 z m -56.292,-13.169 c -0.65247,-0.78619 -1.1446,-2.9011 -1.0936,-4.6997 0.12587,-4.4404 3.8525,-7.7773 7.8032,-6.9871 3.7165,0.7433 4.529,1.7514 4.4231,5.4877 -0.14224,5.0177 -2.3591,7.6286 -6.4774,7.6286 -2.0713,0 -3.947,-0.57594 -4.6554,-1.4294 z m -9.8341,-7.5175 c 0,-0.46579 0.40036,-1.0943 0.88969,-1.3967 0.51018,-0.31531 0.66105,0.04599 0.35371,0.84688 -0.59831,1.5592 -1.2434,1.8445 -1.2434,0.54986 z m 137.4,-21.353 c -0.94809,-0.94809 -0.698,-5.7 0.29999,-5.7 0.495,0 0.9,1.4175 0.9,3.15 0,3.237 -0.16415,3.5859 -1.2,2.55 z m -56.4,-43.508 c 0,-1.7597 -0.91291,-3.6635 -2.6065,-5.4357 -1.4336,-1.5001 -2.8648,-4.1043 -3.1805,-5.7871 -0.49555,-2.6415 -0.96949,-3.0981 -3.4685,-3.3416 l -2.8945,-0.28197 2.925,-1.5959 c 3.6984,-2.0178 3.9783,-5.6464 0.675,-8.7497 -1.9609,-1.8421 -2.2484,-2.8743 -2.2377,-8.0319 0.007,-3.255 0.25531,-6.8248 0.55232,-7.933 0.87817,-3.2765 2.1354,-1.364 2.1354,3.2483 0,5.144 1.741,7.3578 7.5231,9.566 3.3191,1.2676 4.5852,1.3555 7.1812,0.49873 4.1908,-1.3831 5.478,-3.1244 5.2465,-7.0971 -0.10917,-1.8738 0.58228,-4.8178 1.5993,-6.8091 0.98538,-1.9295 1.5428,-3.9545 1.2387,-4.5 -0.35763,-0.64162 -0.15514,-0.62489 0.5734,0.0473 0.64549,0.59561 1.3182,4.2455 1.576,8.55 0.43861,7.3263 0.37974,7.6063 -2.3976,11.402 -3.8091,5.2052 -3.3762,6.9111 2.2094,8.7085 1.6733,0.53844 1.6916,0.65906 0.26038,1.7133 -0.84678,0.62373 -1.9398,2.1868 -2.429,3.4734 -0.48916,1.2866 -3.0744,3.9535 -5.745,5.9263 -2.6706,1.9729 -5.3729,4.8359 -6.0052,6.3624 -1.4621,3.5297 -2.7312,3.5609 -2.7312,0.06714 z m 5.1187,-6.9989 c 1.5125,-0.96174 2.9813,-5.1993 2.9813,-8.6012 0,-5.8303 -4.3546,-8.6041 -8.714,-5.5506 -2.0636,1.4454 -3.6205,8.7419 -2.5709,12.049 0.75683,2.3846 5.8373,3.6713 8.3037,2.1031 z m 44.94,2.8207 c -1.3125,-1.3125 -2.2124,-2.5603 -1.9998,-2.7729 0.59251,-0.59249 3.5136,1.1746 5.4153,3.2759 2.6424,2.9198 -0.44775,2.4647 -3.4155,-0.50301 z m -51.184,-39.614 c -3.6695,-1.0063 -1.2149,-2.1687 4.05,-1.9179 3.0938,0.14737 5.625,0.67295 5.625,1.168 0,0.94709 -6.9824,1.4883 -9.675,0.74993 z"
         inkscape:connector-curvature="0"
         style="fill:#48443a" />
      <path
         id="path4234"
         d="m -316.5,239.06 c -12.331,-0.75815 -26.164,-3.3545 -32.275,-6.058 -3.6199,-1.6013 -4.1748,-2.2034 -4.1748,-4.5299 0,-2.2263 0.65131,-3.0418 3.825,-4.7894 3.1421,-1.7302 3.9645,-2.7465 4.6063,-5.6924 1.3222,-6.0688 1.6416,-6.4917 2.517,-3.3316 0.63334,2.2863 0.46177,3.5585 -0.75852,5.6242 -1.9668,3.3294 -1.0774,4.4164 5.8185,7.1115 7.9944,3.1244 17.382,2.1421 23.401,-2.4488 2.5555,-1.9492 2.9803,-2.7686 2.6347,-5.0827 -0.2266,-1.5174 -0.0276,-3.7714 0.44215,-5.0089 l 0.85415,-2.25 1.6494,2.025 c 1.3769,1.6905 2.5387,2.025 7.0325,2.025 5.079,0 5.4172,-0.13538 5.9846,-2.3962 l 0.6014,-2.3962 1.9362,1.9362 c 1.5158,1.5158 1.6995,2.1728 0.84616,3.0262 -1.502,1.502 -1.3646,4.4374 0.3202,6.8428 2.1582,3.0813 7.3247,4.8699 14.34,4.9643 8.7782,0.11815 13.376,-1.3852 15.69,-5.1308 l 1.8651,-3.0178 3.8222,1.8337 c 4.9952,2.3964 6.9722,4.1421 6.9722,6.1565 0,7.1 -35.275,12.596 -67.95,10.587 z m 52.65,-26.831 c 0,-1.1055 0.58113,-1.875 1.416,-1.875 0.83812,0 1.2972,0.61233 1.125,1.5004 -0.43789,2.2579 -2.541,2.5679 -2.541,0.37458 z m -69.378,-4.2671 c -1.4436,-0.38746 -1.6274,-4.1621 -0.86948,-17.858 l 0.24903,-4.5 0.72465,4.05 c 0.39856,2.2275 0.99053,6.3837 1.3155,9.2361 0.52992,4.6514 0.8856,5.341 3.4497,6.689 l 2.8588,1.5029 -2.25,0.64629 c -2.5614,0.73574 -3.4639,0.77422 -5.4782,0.23359 z m 55.462,-0.25256 c -0.28938,-0.46822 -2.325,-1.1211 -4.5237,-1.4508 -3.9948,-0.59906 -3.9965,-0.60085 -2.454,-2.6711 1.3075,-1.7549 1.7499,-1.8883 2.8935,-0.87265 4.162,3.6964 9.9,1.8144 9.9,-3.2471 0,-1.3791 0.405,-2.7577 0.9,-3.0636 0.53907,-0.33316 0.90553,0.81859 0.91378,2.8719 0.007,1.8855 0.38125,4.0088 0.83037,4.7186 0.58744,0.92833 0.25105,1.5838 -1.1988,2.336 -3.1667,1.6429 -6.6851,2.311 -7.2612,1.3788 z m -45.484,-1.7059 c 0,-0.51875 0.40522,-1.1936 0.90049,-1.4997 0.49527,-0.30609 1.3521,-2.35 1.904,-4.5419 1.2746,-5.0621 2.5955,-4.3266 2.5955,1.4454 0,3.2388 -0.34676,4.4469 -1.2764,4.4469 -0.70202,0 -1.917,0.24583 -2.7,0.54629 -0.78299,0.30046 -1.4236,0.12186 -1.4236,-0.39688 z m 39.35,-12.3 c -0.34421,-2.475 -0.86974,-14.828 -1.1678,-27.45 -0.29812,-12.622 -0.86416,-23.288 -1.2579,-23.702 -0.39371,-0.41369 -5.085,-0.31244 -10.425,0.225 -5.34,0.53745 -11.842,0.97717 -14.45,0.97717 -2.6073,0 -4.9817,0.39021 -5.2765,0.86713 -0.29476,0.47693 -0.64139,4.7147 -0.77029,9.4172 -0.12891,4.7025 -0.51915,8.8348 -0.8672,9.1829 -0.67149,0.67148 -1.018,-2.1873 -0.73177,-6.0369 0.30511,-4.1031 -1.3623,-6.8789 -4.817,-8.0191 -2.1974,-0.7252 -3.1488,-1.5433 -2.9808,-2.5632 0.17423,-1.0576 -0.40287,-1.498 -1.9629,-1.498 -1.8594,0 -2.3225,0.57067 -2.9211,3.6 -1.6037,8.115 -1.661,8.2514 -2.6938,6.406 -0.55462,-0.99104 -0.69301,-3.7969 -0.34081,-6.9099 0.54853,-4.8484 0.4383,-5.3228 -1.4708,-6.3284 -3.0242,-1.5931 -3.47,-2.6533 -2.87,-6.8252 0.29723,-2.0666 0.083,-5.1435 -0.47605,-6.8374 -0.81276,-2.4627 -0.72016,-4.1446 0.46205,-8.3925 0.81317,-2.9219 1.4336,-5.9201 1.3787,-6.6626 -0.0549,-0.7425 -0.22998,-8.3295 -0.38907,-16.86 -0.15909,-8.5305 -0.56604,-15.787 -0.90431,-16.125 -0.33828,-0.33827 -0.61504,-3.1173 -0.61504,-6.1756 0,-6.2229 -1.7818,-8.9223 -5.5356,-8.3868 -1.8832,0.26867 -2.1943,1.0347 -3.2277,7.9473 -0.629,4.2075 -1.7395,11.52 -2.4677,16.249 -1.9032,12.36 -3.4333,30.347 -2.9121,34.233 0.41862,3.121 0.27471,3.367 -2.2674,3.8754 -4.6533,0.93066 -5.5806,0.74863 -4.2645,-0.83715 0.62992,-0.75902 1.4549,-4.1003 1.8333,-7.425 0.37837,-3.3247 1.7257,-10.905 2.9941,-16.845 1.2684,-5.94 2.3155,-12.901 2.3269,-15.469 0.0114,-2.568 0.58593,-7.2255 1.2766,-10.35 2.2274,-10.076 2.354,-12.292 0.79141,-13.855 -0.88145,-0.88145 -2.4257,-1.2924 -3.9923,-1.0625 -2.4267,0.35617 -2.5549,0.20224 -2.5549,-3.0692 0,-3.5897 0.85789,-4.3137 2.61,-2.2026 1.9,2.2893 6.4038,2.5123 10.518,0.52085 l 3.8272,-1.8527 0.52066,-6.4798 c 1.1438,-14.235 1.0434,-19.705 -0.37554,-20.479 -0.7425,-0.40512 -4.185,-1.4709 -7.65,-2.3685 -5.655,-1.4648 -5.9783,-1.6624 -3.1579,-1.9301 1.7282,-0.16402 3.4432,-0.77152 3.8112,-1.35 0.44802,-0.70428 0.67363,-0.56233 0.68287,0.42965 0.0118,1.2726 1.8856,1.5898 13.289,2.25 16.897,0.97826 34.154,0.76409 35.607,-0.44189 1.8268,-1.5161 14.087,-3.738 20.63,-3.7388 3.3342,-4.05e-4 7.7892,-0.39509 9.9,-0.87708 10.657,-2.4334 15.34,-3.0325 22.969,-2.9385 l 8.3309,0.10262 1.3981,-2.7036 c 0.76896,-1.487 1.2725,-3.7746 1.1191,-5.0835 -0.23151,-1.9746 -0.89203,-2.5085 -3.879,-3.1353 -2.7532,-0.57776 -4.1948,-0.40789 -6.1285,0.72214 -2.2791,1.3318 -7.2216,1.8972 -22.136,2.5321 -1.6854,0.07173 -3.2215,-0.32675 -3.4137,-0.88556 -0.22293,-0.6484 1.7779,-1.2438 5.5299,-1.6456 3.2336,-0.34628 6.0809,-0.95602 6.3275,-1.355 0.24655,-0.39894 -1.4016,-1.1912 -3.6625,-1.7605 -3.1226,-0.78628 -5.4699,-2.3799 -9.7642,-6.629 -8.0455,-7.9609 -8.4757,-9.0873 -7.8081,-20.444 0.45842,-7.7986 0.90937,-9.9461 2.5805,-12.289 1.1138,-1.5614 2.025,-3.2121 2.025,-3.6681 0,-2.6262 10.815,-8.3429 15.783,-8.3429 3.7702,0 2.4728,1.2213 -4.9014,4.6136 -4.2147,1.9389 -7.7133,4.2082 -8.6192,5.5907 -2.2623,3.4528 -2.78,8.9498 -1.0096,10.72 0.79579,0.79579 1.4469,2.5054 1.4469,3.7992 0,1.2938 0.41882,2.8414 0.9307,3.4393 0.51188,0.59785 1.4628,1.8574 2.1131,2.799 1.1584,1.6773 1.2187,1.6756 2.9807,-0.0864 0.98907,-0.98906 2.7719,-1.7594 3.9619,-1.7119 1.9442,0.07758 2.1877,-0.3245 2.401,-3.9636 0.31974,-5.4559 0.97312,-8.1 2.0016,-8.1 0.47003,0 0.63097,0.58279 0.35764,1.2951 -0.78076,2.0346 1.4827,11.498 3.395,14.194 0.95152,1.3416 2.8917,3.2664 4.3116,4.2774 2.3851,1.6984 3.1185,1.7659 9.6392,0.88776 6.2743,-0.84497 7.3281,-1.2698 9.4942,-3.8274 1.3401,-1.5823 2.6875,-3.9861 2.9942,-5.3416 0.84624,-3.7396 2.2192,-3.9059 2.2192,-0.26868 0,1.7726 -1.2256,5.926 -2.7237,9.2298 -2.3064,5.0868 -2.8234,7.5982 -3.375,16.395 -0.64487,10.285 -0.67689,10.401 -3.2268,11.621 -2.6549,1.2701 -19.097,5.7302 -25.131,6.8172 l -3.4064,0.61364 0.20014,5.1283 c 0.11008,2.8206 0.0617,9.7456 -0.10739,15.389 -0.27412,9.1457 -0.12707,10.393 1.3532,11.475 3.8445,2.8112 10.195,0.85742 12.427,-3.8231 0.80322,-1.6844 1.8017,-3.0625 2.219,-3.0625 0.41721,0 0.79859,2.6401 0.84753,5.8669 0.0857,5.6527 0.0332,5.7981 -1.4382,3.981 l -1.5271,-1.8859 -2.4458,2.2667 c -2.6673,2.472 -2.7221,4.4827 -0.43273,15.871 0.54729,2.7225 1.0414,7.9875 1.0981,11.7 0.11443,7.4951 2.5541,24.262 3.8733,26.619 0.46634,0.8333 0.64929,3.277 0.40656,5.4304 -0.30869,2.7388 0.008,4.6017 1.0551,6.1992 1.8848,2.8766 0.34746,3.7626 -3.5676,2.056 l -2.66,-1.15 -0.13907,-13.5 c -0.0765,-7.425 -0.76123,-17.955 -1.5216,-23.4 -0.76041,-5.445 -1.6646,-13.849 -2.0092,-18.675 -0.60329,-8.4475 -0.70605,-8.775 -2.7534,-8.775 -1.1697,0 -2.8705,0.74382 -3.7796,1.6529 -1.4294,1.4294 -1.7307,3.8022 -2.2277,17.544 -0.3765,10.41 -0.19438,19.231 0.52794,25.572 1.311,11.509 1.2399,25.352 -0.14341,27.937 -0.54453,1.0175 -2.3369,2.2945 -3.9831,2.8378 l -2.9931,0.9878 0.34047,17.448 c 0.21238,10.884 0.006,17.654 -0.54758,17.996 -1.1384,0.70359 -1.9473,-5.814 -2.6879,-21.659 l -0.5827,-12.466 -2.9395,0.13428 c -5.3687,0.24526 -5.6104,0.57743 -5.6112,7.7125 -4.2e-4,3.6043 -0.41499,10.922 -0.92129,16.261 -0.59872,6.3137 -0.62242,12.292 -0.0678,17.1 0.469,4.066 0.56253,9.2151 0.20783,11.443 l -0.64491,4.05 -0.62583,-4.5 z m -9.6473,-55 c 4.2075,-0.80233 9.5486,-2.0192 11.869,-2.7042 2.3205,-0.68496 6.6504,-1.2454 9.6219,-1.2454 3.1621,0 5.6734,-0.4378 6.0552,-1.0556 1.5701,-2.5405 1.8658,-8.723 0.78272,-16.368 -1.346,-9.501 -2.3989,-12.678 -4.6115,-13.917 -1.3167,-0.73687 -1.3876,-1.1202 -0.42242,-2.2832 1.4253,-1.7174 0.59346,-3.2765 -1.7481,-3.2765 -2.433,0 -2.1808,-1.3133 0.48538,-2.5282 2.7058,-1.2329 2.1878,-3.3709 -1.0113,-4.1738 -3.3548,-0.84201 -2.091,-3.004 2.6041,-4.4548 1.1597,-0.35837 1.575,-1.4452 1.575,-4.1222 0,-3.4014 -0.23185,-3.7283 -3.6,-5.076 -4.261,-1.7049 -4.6528,-3.5094 -0.924,-4.2552 2.6901,-0.53802 4.4981,-3.8474 3.2262,-5.9053 -0.77263,-1.2501 -6.5349,-2.7733 -10.515,-2.7795 -5.5549,-0.009 -8.8112,-0.95656 -8.256,-2.4036 0.27439,-0.71504 1.3583,-1.2331 2.4087,-1.1511 1.0504,0.0819 3.5662,0.1041 5.5907,0.04932 3.4423,-0.09316 3.7472,-0.31846 4.7022,-3.4746 0.56171,-1.8562 1.1328,-4.1416 1.269,-5.0785 0.24513,-1.6854 1.4673,-2.6591 4.5228,-3.6033 1.8395,-0.56842 2.0465,-3.8979 0.37874,-6.0908 -0.62645,-0.82369 -2.3348,-1.6337 -3.7964,-1.8 -2.5372,-0.2887 -2.6548,-0.49568 -2.6008,-4.5774 0.0311,-2.3512 -0.22202,-4.275 -0.5625,-4.275 -0.34048,0 -1.8847,0.25312 -3.4316,0.5625 -2.8573,0.57147 -3.9288,2.1375 -1.4625,2.1375 0.76433,0 1.35,0.80657 1.35,1.8592 0,1.0225 0.41925,2.6425 0.93167,3.6 1.2181,2.2761 -0.10572,2.2383 -2.0728,-0.05913 -1.7108,-1.9981 -4.259,-2.3399 -5.8183,-0.7805 -0.56072,0.56073 -1.7036,0.75699 -2.5397,0.43614 -1.1448,-0.4393 -1.3876,-1.2467 -0.98299,-3.2695 0.58776,-2.9388 -0.52047,-3.512 -2.6578,-1.3747 -0.91137,0.91137 -1.9214,1.0781 -3.3107,0.54652 -1.4774,-0.56529 -2.4897,-0.31515 -3.8784,0.95836 -1.8543,1.7006 -5.5997,2.009 -19.591,1.6135 -2.7786,-0.07857 -4.0793,0.49207 -6.525,2.8626 -1.68,1.6284 -3.0546,3.3614 -3.0546,3.8511 0,0.48974 -0.89034,1.8382 -1.9785,2.9965 -1.65,1.7563 -1.9984,3.2396 -2.0986,8.9326 -0.11835,6.7286 -0.0835,6.8393 2.4285,7.715 3.1571,1.1006 3.2651,2.2982 0.27484,3.0487 -2.6327,0.66077 -4.3496,3.3269 -3.621,5.6228 0.27776,0.87513 0.55537,4.8086 0.61692,8.741 0.0616,3.9324 0.51382,7.6561 1.005,8.2749 0.60447,0.76139 0.52524,1.5683 -0.24518,2.4966 -0.79418,0.95692 -0.97546,3.1158 -0.5996,7.1407 0.40303,4.316 0.18031,6.4876 -0.88425,8.6215 -1.0803,2.1656 -1.3076,4.5096 -0.94392,9.7343 0.26348,3.785 0.0722,8.5687 -0.42519,10.63 -1.2953,5.3694 -0.16392,6.9149 5.2591,7.1842 7.7773,0.38619 17.806,1.7859 20.112,2.8069 3.2293,1.4301 8.3517,1.3283 17.1,-0.33991 z m 23.4,-79.153 c 0,-1.5272 -2.3192,-1.7411 -3.2122,-0.29626 -0.67845,1.0978 1.3429,2.7485 2.4942,2.0369 0.39488,-0.24405 0.71797,-1.0273 0.71797,-1.7406 z m 19.184,-61.468 c 1.5408,-0.60747 1.5264,-0.74125 -0.25302,-2.3516 -1.784,-1.6145 -1.9709,-1.6233 -3.4337,-0.16007 -1.3554,1.3557 -1.3798,1.6531 -0.19699,2.4011 1.5463,0.9778 1.6749,0.98147 3.8837,0.1106 z m -68.6,189.32 c 0.0713,-7.7767 1.5823,-10.669 1.6459,-3.15 0.0272,3.2175 -0.34312,6.4575 -0.82296,7.2 -0.61403,0.95013 -0.85779,-0.24947 -0.82296,-4.05 z m -14.406,-3.675 c 0.0432,-1.0484 0.25645,-1.2617 0.54374,-0.54375 0.25999,0.64968 0.22802,1.4259 -0.071,1.725 -0.29907,0.29906 -0.51177,-0.2325 -0.47269,-1.1812 z m 0.071,-6.675 c 0,-1.2375 0.20428,-1.7438 0.45395,-1.125 0.24967,0.61875 0.24967,1.6312 0,2.25 -0.24967,0.61875 -0.45395,0.1125 -0.45395,-1.125 z m 88.673,-4.3833 c -2.7283,-1.7989 -9.615,-9.0706 -9.615,-10.153 0,-1.5554 1.7998,-1.5009 5.2341,0.1584 2.0234,0.9776 4.8896,1.7775 6.3693,1.7775 3.1849,0 4.3562,1.3414 2.2168,2.5387 -1.3923,0.77917 -1.3577,1.0526 0.41882,3.3111 3.1931,4.0594 0.23738,5.5722 -4.6241,2.3669 z m -120.8,-1.0734 c -0.32521,-0.52619 0.13917,-1.7638 1.0319,-2.7503 1.297,-1.4332 1.4158,-2.1258 0.59114,-3.4463 -1.2924,-2.0695 -0.64129,-2.7467 2.6409,-2.7467 1.4184,0 4.0632,-0.62019 5.8774,-1.3782 3.657,-1.528 6.1683,-1.1458 5.0185,0.76366 -0.39865,0.66204 -3.0579,3.2986 -5.9094,5.8591 -5.0068,4.4958 -8.0146,5.6985 -9.2505,3.6987 z m 31.085,-6.1902 c 0,-7.0351 1.0862,-10.02 2.2789,-6.2621 0.79726,2.5119 -0.38155,13.409 -1.4505,13.409 -0.4556,0 -0.82836,-3.2161 -0.82836,-7.1469 z m 99.445,6.2388 c -0.30867,-0.49942 -0.29911,-1.7338 0.0212,-2.7432 0.32034,-1.0093 0.12267,-2.3891 -0.43929,-3.0662 -0.79981,-0.9637 -0.60762,-1.3626 0.88478,-1.8362 1.0486,-0.33281 3.311,-1.8383 5.0276,-3.3455 1.7166,-1.5072 3.3629,-2.4985 3.6585,-2.2029 0.62663,0.62664 -2.7866,9.3716 -4.7542,12.181 -1.431,2.043 -3.4717,2.5131 -4.3986,1.0133 z m -138.02,-2.0854 c -1.4196,-1.7105 -5.5299,-11.211 -5.5299,-12.782 0,-1.7278 1.46,-1.7085 2.1264,0.0282 0.28546,0.74389 2.3543,2.5164 4.5973,3.9389 3.227,2.0465 3.8283,2.7939 2.8806,3.5804 -0.70914,0.58854 -1.035,2.1023 -0.7989,3.7111 0.43189,2.9427 -1.3933,3.7917 -3.2756,1.5236 z m 118.67,-37.387 c 0,-1.6506 1.4879,-3.4462 2.2243,-2.6842 1.134,1.1733 0.71067,3.894 -0.64932,4.1735 -1.0858,0.22311 -1.575,-0.23942 -1.575,-1.4892 z m -97.6,-0.0379 c -0.75875,-1.2277 0.47308,-3.8061 1.6357,-3.4238 1.6114,0.53 1.8125,4.2426 0.22982,4.2426 -0.74772,0 -1.5872,-0.36845 -1.8655,-0.81878 z m 112.35,-4.2048 c 0.30047,-0.78298 0.54629,-2.403 0.54629,-3.6 0,-2.8893 1.0729,-2.7503 2.9211,0.37847 1.1458,1.9398 1.2576,2.8065 0.46405,3.6 -1.6191,1.6191 -4.5883,1.3333 -3.9314,-0.37847 z m -128,-1.5412 c -0.71704,-0.86398 -0.40522,-1.8518 1.2074,-3.825 l 2.1741,-2.6602 0.0324,2.4014 c 0.0178,1.3208 0.27819,3.042 0.57865,3.825 0.68229,1.778 -2.5575,1.988 -3.9926,0.25882 z m 128.22,-9.4746 c -0.40826,-1.6441 -0.50125,-3.2304 -0.20664,-3.525 1.0172,-1.0172 1.5616,0.50136 1.2558,3.5028 l -0.30683,3.0115 -0.74229,-2.9894 z m -125.66,-1.2325 c 0.008,-1.638 0.40637,-3.5856 0.88622,-4.3281 0.63998,-0.99031 0.8761,-0.34501 0.88622,2.4219 0.007,2.0745 -0.39122,4.0222 -0.88622,4.3281 -0.53161,0.32855 -0.89436,-0.6628 -0.88622,-2.4219 z m 121.96,-30.205 c -1.2064,-6.2929 -1.4086,-11.025 -0.47101,-11.025 0.50474,0 0.93851,0.50625 0.96393,1.125 0.0254,0.61875 0.35019,3.8588 0.72171,7.2 0.71877,6.4642 -0.13089,8.3529 -1.2146,2.7 z m -117.38,0.675 c 0.008,-1.2375 0.58881,-4.8825 1.2906,-8.1 l 1.2759,-5.85 -0.36424,6.5089 c -0.20033,3.5799 -0.78109,7.2249 -1.2906,8.1 -0.81156,1.3939 -0.92454,1.3123 -0.9117,-0.65894 z m -4.5694,-68.43 c 0,-2.5074 -0.55037,-5.6526 -1.223,-6.9893 -0.67267,-1.3367 -1.4675,-4.0123 -1.7662,-5.9458 -0.62937,-4.0733 -3.4926,-7.3827 -10.295,-11.9 -5.4775,-3.6371 -10.719,-8.7846 -11.523,-11.315 -0.85502,-2.6939 0.33776,-3.0826 1.3433,-0.43778 1.1771,3.0959 5.315,5.1179 10.474,5.1179 3.4131,0 5.0353,-0.61379 8.666,-3.279 2.4568,-1.8035 4.839,-4.2578 5.2939,-5.4542 0.91532,-2.4075 2.6304,-2.008 2.6304,0.61268 0,3.7383 0.95764,4.5205 5.5343,4.5205 4.2999,0 5.1152,0.35365 9.0162,3.911 1.7811,1.6241 1.8813,1.6042 4.5158,-0.9 6.165,-5.8598 6.7897,-11.179 2.0685,-17.614 -1.7163,-2.3392 -4.7437,-5.0811 -6.7277,-6.0933 -4.3664,-2.2276 -4.6216,-3.0612 -0.68219,-2.2281 5.3218,1.1255 8.5758,3.86 11.548,9.7044 2.4598,4.8368 2.773,6.2302 2.3797,10.585 -0.24916,2.7584 -0.0571,5.7226 0.42658,6.587 0.66378,1.1861 0.30804,2.3965 -1.4498,4.9331 -1.2812,1.8488 -2.3294,3.8087 -2.3294,4.3555 0,0.54677 -1.8711,3.2911 -4.1581,6.0986 -2.8669,3.5194 -3.8687,5.3938 -3.2262,6.0363 0.96351,0.9635 23.666,2.5696 26.361,1.8649 0.836,-0.21862 1.7947,0.04698 2.1305,0.59026 0.79787,1.291 -25.574,1.1509 -27.182,-0.14441 -0.76345,-0.61499 -1.9909,-0.54657 -3.8252,0.21322 -1.4856,0.61534 -5.2322,1.1709 -8.3258,1.2345 l -5.6248,0.11572 -0.15308,4.0444 c -0.0841,2.2244 0.19896,4.4686 0.62921,4.9871 0.51075,0.61541 -0.13902,1.0128 -1.8719,1.1448 -2.6162,0.19936 -2.6542,0.13704 -2.6542,-4.3567 z m 6.1733,-21.609 c 2.0972,-4.738 -0.0972,-6.8141 -4.1798,-3.9545 -1.7019,1.192 -2.4849,1.233 -5.1497,0.26941 -2.2993,-0.83144 -3.4102,-0.86879 -4.1398,-0.13917 -1.0424,1.0424 -0.88115,1.1649 6.846,5.2032 4.3442,2.2704 5.0753,2.1182 6.6233,-1.3789 z m 8.0643,-6.9445 c 0.2161,-1.5147 -0.16222,-2.0158 -1.5219,-2.0158 -2.1542,0 -3.1766,1.3613 -2.4482,3.2596 0.76986,2.0062 3.6344,1.1088 3.9701,-1.2438 z m 42.02,21.384 c -0.30593,-0.495 0.0991,-0.9 0.9,-0.9 0.80092,0 1.2059,0.405 0.9,0.9 -0.30593,0.495 -0.71093,0.9 -0.9,0.9 -0.18908,0 -0.59408,-0.405 -0.9,-0.9 z m 4.05,-0.07749 c 0,-0.78327 11.665,-2.0578 12.371,-1.3517 0.29107,0.29107 0.36046,0.68474 0.15422,0.87481 -0.69861,0.64382 -12.525,1.0941 -12.525,0.4769 z m -9.225,-0.51855 c 0.61875,-0.24967 1.6312,-0.24967 2.25,0 0.61875,0.24967 0.1125,0.45395 -1.125,0.45395 -1.2375,0 -1.7438,-0.20428 -1.125,-0.45395 z m 24.98,-0.3044 c -0.30592,-0.495 0.30158,-0.9 1.35,-0.9 1.04842,0 1.6559,0.405 1.35,0.9 -0.30592,0.495 -0.91342,0.9 -1.35,0.9 -0.43657,0 -1.0441,-0.405 -1.35,-0.9 z m 6.3632,0.10232 c -0.57196,-0.92545 2.4397,-1.8723 6.0118,-1.89 2.6977,-0.01341 3.3269,1.2682 1.0514,2.1414 -2.1243,0.81518 -6.5002,0.65944 -7.0632,-0.25139 z m 36.796,-29.311 c -5.4935,-5.4935 0.76555,-13.981 8.0621,-10.932 5.1394,2.1474 5.1229,7.2125 -0.0369,11.271 -3.1198,2.454 -5.3252,2.3608 -8.0252,-0.3393 z m -134.01,-5.1912 c -0.77057,-1.1001 -1.401,-2.7468 -1.401,-3.6592 0,-1.9454 1.6454,-5.3074 3.0597,-6.2518 1.7329,-1.1571 6.5784,-0.73874 7.7466,0.66884 1.442,1.7375 0.59576,7.2854 -1.4573,9.554 -2.1143,2.3362 -6.2056,2.1757 -7.948,-0.31189 z m 152.21,-5.5645 c -1.2668,-2.6756 -2.7318,-5.1295 -3.2554,-5.4531 -0.52361,-0.3236 -0.95202,-1.3039 -0.95202,-2.1784 0,-4.0664 -8.5298,-8.2038 -16.913,-8.2038 -2.7428,0 -4.6774,-0.30375 -4.2991,-0.675 0.37825,-0.37125 4.3945,-0.675 8.925,-0.675 7.2926,0 8.223,-0.18062 8.1123,-1.575 -0.0688,-0.86625 0.235,-1.575 0.675,-1.575 0.44,0 0.8,0.6075 0.8,1.35 0,1.7823 1.4607,1.7323 2.1537,-0.07362 0.92673,-2.415 0.6185,-4.3549 -1.2808,-8.0611 -1.0049,-1.9609 -2.3698,-7.4238 -3.0332,-12.14 -1.1515,-8.1866 -3.0708,-13.274 -7.4606,-19.776 -0.96345,-1.4269 -0.11991,-0.93308 2.306,1.35 7.8372,7.3759 12.83,20.745 14.503,38.835 0.51052,5.5192 1.4922,11.392 2.1816,13.05 1.8166,4.3701 2.1917,10.665 0.63539,10.665 -0.43705,0 -1.8311,-2.1891 -3.098,-4.8647 z m -135.78,-13.459 c -1.8241,-0.80975 -2.2186,-1.406 -1.5888,-2.4019 0.46078,-0.7286 0.84398,-3.869 0.85156,-6.9786 0.0188,-7.7262 2.9194,-14.304 4.8967,-11.105 0.26903,0.43531 0.65511,2.9162 0.85795,5.5131 0.20364,2.6071 0.91524,5.0817 1.589,5.5256 1.0061,0.66298 0.96966,0.99837 -0.20784,1.9119 -2.223,1.7247 -3.6781,5.0482 -3.0612,6.9919 0.6329,1.9941 0.12016,2.0775 -3.3374,0.54265 z m 4.67,-28.477 c 0,-0.495 0.4289,-0.9 0.95311,-0.9 0.52422,0 0.70281,0.405 0.39689,0.9 -0.30593,0.495 -0.73484,0.9 -0.95312,0.9 -0.21829,0 -0.39688,-0.405 -0.39688,-0.9 z m 49.76,-27.041 c -0.9641,-2.5542 -0.90352,-2.6592 1.5338,-2.6592 2.0804,0 2.4542,0.31899 2.0746,1.7705 -0.87485,3.3454 -2.5274,3.7524 -3.6084,0.8887 z m 7.2504,-5.2051 c 1.0433,-1.1528 1.4895,-3.2903 1.4895,-7.1357 0,-7.1373 -1.2625,-8.5011 -7.5326,-8.1367 l -4.6174,0.2683 -0.84786,3.825 c -0.46632,2.1038 -1.1673,3.825 -1.5578,3.825 -0.39047,0 -0.47677,-1.7212 -0.19179,-3.825 0.44914,-3.3156 0.20715,-4.1156 -1.8172,-6.0069 -1.448,-1.3529 -2.3354,-3.1481 -2.3354,-4.725 0,-2.6523 1.5008,-3.4699 2.3426,-1.2762 0.85889,2.2382 9.3054,5.2771 13.211,4.7532 5.3911,-0.72308 7.8429,-3.5625 7.8596,-9.1019 0.0154,-5.0976 1.1378,-8.006 2.111,-5.47 0.31639,0.82449 0.57524,3.6378 0.57524,6.2517 0,3.9257 -0.46978,5.3438 -2.7,8.1502 -2.6801,3.3725 -3.4179,6.504 -1.919,8.145 0.42954,0.47025 1.0353,2.2129 1.346,3.8726 0.48442,2.5871 0.16678,3.3896 -2.2262,5.625 -3.05,2.8491 -5.5919,3.6152 -3.1903,0.9615 z m -9.3105,-37.054 c 0,-1.1463 3.6262,-1.1463 5.4,0 1.0042,0.64895 0.48544,0.87597 -2.025,0.88622 -1.8562,0.008 -3.375,-0.39122 -3.375,-0.88622 z"
         inkscape:connector-curvature="0"
         style="fill:#2c2a26" />
    </g>
  </g>
</svg>
