<?xml version="1.0" encoding="UTF-8" standalone="no"?>
<!-- Created with Inkscape (http://www.inkscape.org/) -->
<svg id="svg4951" xmlns:rdf="http://www.w3.org/1999/02/22-rdf-syntax-ns#" xmlns="http://www.w3.org/2000/svg" height="48" width="48" version="1.1" xmlns:cc="http://creativecommons.org/ns#" xmlns:xlink="http://www.w3.org/1999/xlink" xmlns:dc="http://purl.org/dc/elements/1.1/">
 <defs id="defs4953">
  <linearGradient id="linearGradient4542">
   <stop id="stop4544" stop-color="#fff" offset="0"/>
   <stop id="stop4546" stop-color="#515151" offset=".48090"/>
   <stop id="stop4548" stop-color="#fff" offset="1"/>
  </linearGradient>
  <linearGradient id="linearGradient4411">
   <stop id="stop4413" stop-color="#fff" offset="0"/>
   <stop id="stop4415" stop-color="#fff" stop-opacity="0" offset="1"/>
  </linearGradient>
  <radialGradient id="radialGradient4448" gradientUnits="userSpaceOnUse" cy="-17.681" cx="14.892" gradientTransform="matrix(-1.4387 3.8089e-8 -2.8328e-8 -1.07 45.169 -14.596)" r="25.571">
   <stop id="stop4532" stop-color="#5f5f5f" offset="0"/>
   <stop id="stop4534" stop-color="#515151" offset=".26238"/>
   <stop id="stop4536" stop-color="#404040" offset=".70495"/>
   <stop id="stop4538" stop-color="#343434" offset="1"/>
  </radialGradient>
  <linearGradient id="linearGradient4450" y2="32.568" xlink:href="#linearGradient4411" gradientUnits="userSpaceOnUse" x2="15.124" gradientTransform="matrix(.76418 0 0 .76418 12.377 18.778)" y1="-18.801" x1="15.124"/>
  <linearGradient id="linearGradient4528" y2="24.101" xlink:href="#linearGradient4542" gradientUnits="userSpaceOnUse" x2="26.584" y1="24" x1="21.5"/>
  <linearGradient id="linearGradient4554" y2="24.101" xlink:href="#linearGradient4542" gradientUnits="userSpaceOnUse" x2="26.584" gradientTransform="translate(9.9396 -23.682)" y1="24" x1="21.5"/>
  <radialGradient id="radialGradient4508" xlink:href="#linearGradient4411" gradientUnits="userSpaceOnUse" cy="-14.644" cx="21.327" gradientTransform="matrix(.15823 .89078 -1.0535 .18713 -20.984 -8.2319)" r="25.571"/>
  <radialGradient id="radialGradient4512" xlink:href="#linearGradient4411" gradientUnits="userSpaceOnUse" cy="-14.644" cx="21.327" gradientTransform="matrix(.15823 .89078 -1.0535 .18713 -75.383 -49.811)" r="25.571"/>
 </defs>
 <metadata id="metadata4956">
  <rdf:RDF>
   <cc:Work rdf:about="">
    <dc:format>image/svg+xml</dc:format>
    <dc:type rdf:resource="http://purl.org/dc/dcmitype/StillImage"/>
    <dc:title/>
   </cc:Work>
  </rdf:RDF>
 </metadata>
 <rect id="rect4622" transform="scale(1,-1)" rx="1.3118" ry="10" height="10" width="42" y="-46" x="3" fill="#2a2a2a"/>
 <circle id="path2985-6" cy="24" cx="24" r="20.526" fill="url(#radialGradient4448)"/>
 <circle id="path3755-9" opacity=".6" stroke-width=".94845" stroke="#242424" cy="24" cx="24" r="20.526" fill="none"/>
 <circle id="path3773-9" opacity=".6" stroke-width=".93261" stroke-opacity=".58824" stroke="url(#linearGradient4450)" cy="24" cx="24" r="19.54" fill="none"/>
 <circle id="circle4552" opacity=".39" transform="rotate(44.463)" cy=".31804" cx="33.94" r="2.5" fill="url(#linearGradient4554)"/>
 <g id="g4403" opacity=".3" stroke="#fff" fill="none">
  <g id="g4321">
   <g id="g4281">
    <g id="g4260">
     <circle id="path4406" opacity="1" cx="24" cy="24" r="18.9" stroke-width=".20006"/>
     <circle id="circle4256" opacity="1" stroke-width=".19997" cy="24.002" cx="23.998" r="18.4"/>
     <circle id="circle4258" opacity="1" cx="23.997" cy="24.003" r="17.9" stroke-width=".19997"/>
    </g>
    <g id="g4265" transform="matrix(.92105 0 0 .92105 1.8947 1.8947)">
     <circle id="circle4267" opacity="1" stroke-width=".20006" cy="24" cx="24" r="18.9"/>
     <circle id="circle4269" opacity="1" cx="23.998" cy="24.002" r="18.4" stroke-width=".19997"/>
     <circle id="circle4271" opacity="1" stroke-width=".19997" cy="24.003" cx="23.997" r="17.9"/>
    </g>
    <g id="g4273" transform="matrix(.84474 0 0 .84474 3.7763 3.6763)">
     <circle id="circle4275" opacity="1" cx="24" cy="24" r="18.9" stroke-width=".20006"/>
     <circle id="circle4277" opacity="1" stroke-width=".19997" cy="24.002" cx="23.998" r="18.4"/>
     <circle id="circle4279" opacity="1" cx="23.997" cy="24.003" r="17.9" stroke-width=".19997"/>
    </g>
   </g>
   <g id="g4295" transform="matrix(.77632 0 0 .77632 5.3684 5.3684)">
    <g id="g4297">
     <circle id="circle4299" opacity="1" stroke-width=".20006" cy="24" cx="24" r="18.9"/>
     <circle id="circle4301" opacity="1" cx="23.998" cy="24.002" r="18.4" stroke-width=".19997"/>
     <circle id="circle4303" opacity="1" stroke-width=".19997" cy="24.003" cx="23.997" r="17.9"/>
    </g>
    <g id="g4305" transform="matrix(.92105 0 0 .92105 1.8947 1.8947)">
     <circle id="circle4307" opacity="1" cx="24" cy="24" r="18.9" stroke-width=".20006"/>
     <circle id="circle4309" opacity="1" stroke-width=".19997" cy="24.002" cx="23.998" r="18.4"/>
     <circle id="circle4311" opacity="1" cx="23.997" cy="24.003" r="17.9" stroke-width=".19997"/>
    </g>
    <g id="g4313" transform="matrix(.84474 0 0 .84474 3.7763 3.6763)">
     <circle id="circle4315" opacity="1" stroke-width=".20006" cy="24" cx="24" r="18.9"/>
     <circle id="circle4317" opacity="1" cx="23.998" cy="24.002" r="18.4" stroke-width=".19997"/>
     <circle id="circle4319" opacity="1" stroke-width=".19997" cy="24.003" cx="23.997" r="17.9"/>
    </g>
   </g>
  </g>
  <g id="g4349" transform="matrix(.60526 0 0 .60526 9.4737 9.4737)">
   <g id="g4351">
    <g id="g4353">
     <circle id="circle4355" opacity="1" stroke-width=".20006" cy="24" cx="24" r="18.9"/>
     <circle id="circle4357" opacity="1" cx="23.998" cy="24.002" r="18.4" stroke-width=".19997"/>
     <circle id="circle4359" opacity="1" stroke-width=".19997" cy="24.003" cx="23.997" r="17.9"/>
    </g>
    <g id="g4361" transform="matrix(.92105 0 0 .92105 1.8947 1.8947)">
     <circle id="circle4363" opacity="1" cx="24" cy="24" r="18.9" stroke-width=".20006"/>
     <circle id="circle4365" opacity="1" stroke-width=".19997" cy="24.002" cx="23.998" r="18.4"/>
     <circle id="circle4367" opacity="1" cx="23.997" cy="24.003" r="17.9" stroke-width=".19997"/>
    </g>
    <g id="g4369" transform="matrix(.84474 0 0 .84474 3.7763 3.6763)">
     <circle id="circle4371" opacity="1" stroke-width=".20006" cy="24" cx="24" r="18.9"/>
     <circle id="circle4373" opacity="1" cx="23.998" cy="24.002" r="18.4" stroke-width=".19997"/>
     <circle id="circle4375" opacity="1" stroke-width=".19997" cy="24.003" cx="23.997" r="17.9"/>
    </g>
   </g>
   <g id="g4377" transform="matrix(.77632 0 0 .77632 5.3684 5.3684)">
    <g id="g4379">
     <circle id="circle4381" opacity="1" cx="24" cy="24" r="18.9" stroke-width=".20006"/>
     <circle id="circle4383" opacity="1" stroke-width=".19997" cy="24.002" cx="23.998" r="18.4"/>
     <circle id="circle4385" opacity="1" cx="23.997" cy="24.003" r="17.9" stroke-width=".19997"/>
    </g>
    <g id="g4387" transform="matrix(.92105 0 0 .92105 1.8947 1.8947)">
     <circle id="circle4389" opacity="1" stroke-width=".20006" cy="24" cx="24" r="18.9"/>
     <circle id="circle4391" opacity="1" cx="23.998" cy="24.002" r="18.4" stroke-width=".19997"/>
     <circle id="circle4393" opacity="1" stroke-width=".19997" cy="24.003" cx="23.997" r="17.9"/>
    </g>
    <g id="g4395" transform="matrix(.84474 0 0 .84474 3.7763 3.6763)">
     <circle id="circle4397" opacity="1" cx="24" cy="24" r="18.9" stroke-width=".20006"/>
     <circle id="circle4399" opacity="1" stroke-width=".19997" cy="24.002" cx="23.998" r="18.4"/>
     <circle id="circle4401" opacity="1" cx="23.997" cy="24.003" r="17.9" stroke-width=".19997"/>
    </g>
   </g>
  </g>
 </g>
 <circle id="path4520" cx="24" cy="24" r="2.5" fill="url(#linearGradient4528)"/>
 <circle id="circle4506" opacity=".6" cx="24.463" cy="24.37" r="20.526" fill="url(#radialGradient4508)"/>
 <path id="path4515" stroke-linejoin="round" d="m24 15a9 9 0 0 0 -9 9 9 9 0 0 0 9 9 9 9 0 0 0 9 -9 9 9 0 0 0 -9 -9zm0 6.5a2.5 2.5 0 0 1 2.5 2.5 2.5 2.5 0 0 1 -2.5 2.5 2.5 2.5 0 0 1 -2.5 -2.5 2.5 2.5 0 0 1 2.5 -2.5z" stroke="#2a2a2a" stroke-linecap="round" stroke-width="1.5" fill="#dc4f4f"/>
 <circle id="circle4510" opacity=".4" transform="rotate(195)" cy="-17.209" cx="-29.937" r="20.526" fill="url(#radialGradient4512)"/>
 <path id="path4523" d="m44.94 38.822c-0.85228 0.0851-1.6117-0.53763-1.6968-1.3899-0.05405-0.54142 0.19715-1.0257 0.59341-1.3413l-1.2521-12.539-4.2032-4.3237c-0.54933 0.13203-1.1491 0.0075-1.5706-0.42662l-2.2595-2.3214c-0.6373-0.65717-0.6229-1.7051 0.03337-2.3384 0.27878-0.27377 0.62993-0.42527 0.98872-0.4611 0.48442-0.04842 0.98476 0.11489 1.3507 0.49174l2.2597 2.324c0.42267 0.434 0.52986 1.0355 0.3829 1.5813l4.4056 4.5298 0.23125 0.49495 1.2805 12.824c0.45097 0.2323 0.79299 0.65732 0.84692 1.1974 0.08252 0.85254-0.5388 1.6132-1.3911 1.6983z" fill="#2a2a2a"/>
</svg>
