<?xml version="1.0" encoding="UTF-8" standalone="no"?>
<svg
   xmlns:dc="http://purl.org/dc/elements/1.1/"
   xmlns:cc="http://creativecommons.org/ns#"
   xmlns:rdf="http://www.w3.org/1999/02/22-rdf-syntax-ns#"
   xmlns:svg="http://www.w3.org/2000/svg"
   xmlns="http://www.w3.org/2000/svg"
   xmlns:xlink="http://www.w3.org/1999/xlink"
   viewBox="0 0 48 48"
   version="1.1"
   id="svg4290"
   height="48"
   width="48">
  <defs
     id="defs4292">
    <linearGradient
       id="linearGradient4886">
      <stop
         id="stop4888"
         offset="0"
         style="stop-color:#000000;stop-opacity:1;" />
      <stop
         id="stop4890"
         offset="1"
         style="stop-color:#000000;stop-opacity:0;" />
    </linearGradient>
    <linearGradient
       id="linearGradient4876">
      <stop
         id="stop4878"
         offset="0"
         style="stop-color:#000000;stop-opacity:0" />
      <stop
         style="stop-color:#000000;stop-opacity:1"
         offset="0.4919357"
         id="stop4884" />
      <stop
         id="stop4880"
         offset="1"
         style="stop-color:#000000;stop-opacity:0;" />
    </linearGradient>
    <linearGradient
       id="linearGradient4858">
      <stop
         id="stop4860"
         offset="0"
         style="stop-color:#ffffff;stop-opacity:1;" />
      <stop
         style="stop-color:#ffffff;stop-opacity:0.23529412"
         offset="0.17169811"
         id="stop4866" />
      <stop
         id="stop4868"
         offset="0.83396226"
         style="stop-color:#ffffff;stop-opacity:0.15686275" />
      <stop
         id="stop4862"
         offset="1"
         style="stop-color:#ffffff;stop-opacity:0.39215687" />
    </linearGradient>
    <radialGradient
       gradientTransform="matrix(-1.6620259e-8,2.2863212,-1.8206169,-1.3234853e-8,47.188702,-39.465438)"
       gradientUnits="userSpaceOnUse"
       r="19.5"
       fy="12.7937"
       fx="23.491604"
       cy="12.7937"
       cx="23.491604"
       id="radialGradient4851"
       xlink:href="#linearGradient4235" />
    <linearGradient
       gradientUnits="userSpaceOnUse"
       y2="29.964285"
       x2="-18.285713"
       y1="25.535713"
       x1="-18.285713"
       id="linearGradient4882"
       xlink:href="#linearGradient4876" />
    <radialGradient
       gradientUnits="userSpaceOnUse"
       gradientTransform="matrix(-1.9940476,0,0,-0.75,-93.243196,48.473215)"
       r="3"
       fy="27.678572"
       fx="-31.142857"
       cy="27.678572"
       cx="-31.142857"
       id="radialGradient4892"
       xlink:href="#linearGradient4886" />
    <radialGradient
       r="3"
       fy="27.678572"
       fx="-31.142857"
       cy="27.678572"
       cx="-31.142857"
       gradientTransform="matrix(-1.9940476,0,0,-0.75,-62.957483,48.473215)"
       gradientUnits="userSpaceOnUse"
       id="radialGradient4896"
       xlink:href="#linearGradient4886" />
    <linearGradient
       gradientUnits="userSpaceOnUse"
       y2="43.944736"
       x2="23.780001"
       y1="6.3847361"
       x1="23.780001"
       id="linearGradient4172"
       xlink:href="#linearGradient4858" />
    <linearGradient
       id="linearGradient3767">
      <stop
         id="stop3769"
         offset="0"
         style="stop-color:#ffffff;stop-opacity:1;" />
      <stop
         style="stop-color:#ffffff;stop-opacity:0.23529412;"
         offset="0.16666667"
         id="stop3777" />
      <stop
         style="stop-color:#ffffff;stop-opacity:0.15686275;"
         offset="0.83333331"
         id="stop3775" />
      <stop
         id="stop3771"
         offset="1"
         style="stop-color:#ffffff;stop-opacity:0.39215687;" />
    </linearGradient>
    <linearGradient
       id="linearGradient4235">
      <stop
         style="stop-color:#ffcd7d;stop-opacity:1"
         offset="0"
         id="stop4237" />
      <stop
         style="stop-color:#e69141;stop-opacity:1"
         offset="1"
         id="stop4239" />
    </linearGradient>
    <radialGradient
       gradientTransform="matrix(-4.0670814e-7,1.6625202,-1.3174684,-3.2229691e-7,1347.8899,-40.653582)"
       gradientUnits="userSpaceOnUse"
       r="21.5"
       fy="1004.3622"
       fx="33"
       cy="1004.3622"
       cx="33"
       id="radialGradient4281"
       xlink:href="#linearGradient4275" />
    <linearGradient
       id="linearGradient4275">
      <stop
         id="stop4277"
         offset="0"
         style="stop-color:#285555;stop-opacity:1" />
      <stop
         id="stop4279"
         offset="1"
         style="stop-color:#001e1e;stop-opacity:1" />
    </linearGradient>
    <linearGradient
       gradientTransform="translate(0.99999905,1)"
       gradientUnits="userSpaceOnUse"
       y2="38"
       x2="24"
       y1="10"
       x1="24"
       id="linearGradient4203"
       xlink:href="#linearGradient3767" />
    <linearGradient
       gradientUnits="userSpaceOnUse"
       y2="41"
       x2="24"
       y1="9"
       x1="24"
       id="linearGradient4193"
       xlink:href="#linearGradient4858" />
  </defs>
  <metadata
     id="metadata4295">
    <rdf:RDF>
      <cc:Work
         rdf:about="">
        <dc:format>image/svg+xml</dc:format>
        <dc:type
           rdf:resource="http://purl.org/dc/dcmitype/StillImage" />
        <dc:title />
      </cc:Work>
    </rdf:RDF>
  </metadata>
  <g
     id="layer1">
    <g
       style="opacity:0.4"
       transform="translate(39.142857,16.178572)"
       id="g4898">
      <rect
         style="opacity:1;fill:url(#linearGradient4882);fill-opacity:1;stroke:none;stroke-width:3;stroke-linejoin:round;stroke-miterlimit:4;stroke-dasharray:none;stroke-opacity:1"
         id="rect4870"
         width="32"
         height="4.5"
         x="-31.142857"
         y="25.571428" />
      <rect
         y="25.571428"
         x="-37.142857"
         height="4.5"
         width="6"
         id="rect4874"
         style="opacity:1;fill:url(#radialGradient4892);fill-opacity:1;stroke:none;stroke-width:3;stroke-linejoin:round;stroke-miterlimit:4;stroke-dasharray:none;stroke-opacity:1" />
      <rect
         style="opacity:1;fill:url(#radialGradient4896);fill-opacity:1;stroke:none;stroke-width:3;stroke-linejoin:round;stroke-miterlimit:4;stroke-dasharray:none;stroke-opacity:1"
         id="rect4894"
         width="6"
         height="4.5"
         x="-6.8571434"
         y="25.571428"
         transform="scale(-1,1)" />
    </g>
    <rect
       ry="1"
       rx="1"
       y="5.5"
       x="4.5"
       height="39"
       width="39"
       id="rect4838"
       style="opacity:1;fill:url(#radialGradient4851);fill-opacity:1;stroke:none;stroke-width:3;stroke-linejoin:round;stroke-miterlimit:4;stroke-dasharray:none;stroke-opacity:1" />
    <rect
       style="opacity:0.6;fill:none;fill-opacity:1;stroke:#be6414;stroke-width:1;stroke-linejoin:round;stroke-miterlimit:4;stroke-dasharray:none;stroke-opacity:1"
       id="rect4160"
       width="39"
       height="39"
       x="4.5"
       y="5.5"
       rx="1"
       ry="1" />
    <g
       id="g4302">
      <path
         style="opacity:0.3;fill:none;fill-rule:evenodd;stroke:#be6414;stroke-width:1px;stroke-linecap:butt;stroke-linejoin:miter;stroke-opacity:1"
         d="M 10,11 5,6"
         id="path4294" />
      <path
         style="opacity:0.3;fill:none;fill-rule:evenodd;stroke:#be6414;stroke-width:1px;stroke-linecap:butt;stroke-linejoin:miter;stroke-opacity:1"
         d="M 38,11 43,6"
         id="path4296" />
      <path
         style="opacity:0.3;fill:none;fill-rule:evenodd;stroke:#be6414;stroke-width:1px;stroke-linecap:butt;stroke-linejoin:miter;stroke-opacity:1"
         d="m 38,39 5,5"
         id="path4298" />
      <path
         style="opacity:0.3;fill:none;fill-rule:evenodd;stroke:#be6414;stroke-width:1px;stroke-linecap:butt;stroke-linejoin:miter;stroke-opacity:1"
         d="M 10,39 5,44"
         id="path4300" />
    </g>
    <rect
       style="opacity:0.4;fill:none;fill-opacity:1;stroke:url(#linearGradient4172);stroke-width:1;stroke-linejoin:round;stroke-miterlimit:4;stroke-dasharray:none;stroke-opacity:1"
       id="rect4162"
       width="37"
       height="37"
       x="5.5"
       y="6.5" />
    <rect
       style="fill:url(#radialGradient4281);fill-opacity:1;stroke:none;stroke-linejoin:round"
       id="rect4269"
       width="29"
       height="29"
       x="9.5"
       y="10.499998" />
    <rect
       y="10.500001"
       x="9.500001"
       height="29"
       width="29"
       id="rect4189"
       style="opacity:0.5;fill:none;fill-opacity:1;stroke:#000000;stroke-linejoin:round;stroke-opacity:1" />
    <rect
       y="11.500002"
       x="10.5"
       height="27"
       width="27"
       id="rect4193"
       style="opacity:0.15;fill:none;fill-opacity:1;stroke:url(#linearGradient4203);stroke-linejoin:round" />
    <path
       id="rect4308"
       d="m 14,12 0,3 -3,0 0,1 3,0 0,3 -3,0 0,1 3,0 0,3 -3,0 0,1 3,0 0,3 -3,0 0,1 3,0 0,3 -3,0 0,1 3,0 0,3 -3,0 0,1 3,0 0,2 1,0 0,-2 3,0 0,2 1,0 0,-2 3,0 0,2 1,0 0,-2 3,0 0,2 1,0 0,-2 3,0 0,2 1,0 0,-2 3,0 0,2 1,0 0,-2 2,0 0,-1 -2,0 0,-3 2,0 0,-1 -2,0 0,-3 2,0 0,-1 -2,0 0,-3 2,0 0,-1 -2,0 0,-3 2,0 0,-1 -2,0 0,-3 2,0 0,-1 -2,0 0,-3 -1,0 0,3 -3,0 0,-3 -1,0 0,3 -3,0 0,-3 -1,0 0,3 -3,0 0,-3 -1,0 0,3 -3,0 0,-3 -1,0 0,3 -3,0 0,-3 z m 1,4 3,0 0,3 -3,0 z m 4,0 3,0 0,3 -3,0 z m 4,0 3,0 0,3 -3,0 z m 4,0 3,0 0,3 -3,0 z m 4,0 3,0 0,3 -3,0 z m -16,4 3,0 0,3 -3,0 z m 4,0 3,0 0,3 -3,0 z m 4,0 3,0 0,3 -3,0 z m 4,0 3,0 0,3 -3,0 z m 4,0 3,0 0,3 -3,0 z m -16,4 3,0 0,3 -3,0 z m 4,0 3,0 0,3 -3,0 z m 4,0 3,0 0,3 -3,0 z m 4,0 3,0 0,3 -3,0 z m 4,0 3,0 0,3 -3,0 z m -16,4 3,0 0,3 -3,0 z m 4,0 3,0 0,3 -3,0 z m 4,0 3,0 0,3 -3,0 z m 4,0 3,0 0,3 -3,0 z m 4,0 3,0 0,3 -3,0 z m -16,4 3,0 0,3 -3,0 z m 4,0 3,0 0,3 -3,0 z m 4,0 3,0 0,3 -3,0 z m 4,0 3,0 0,3 -3,0 z m 4,0 3,0 0,3 -3,0 z"
       style="opacity:0.05;fill:#ffffff;fill-opacity:1;stroke:none;stroke-width:1;stroke-linecap:butt;stroke-linejoin:round;stroke-miterlimit:4;stroke-dasharray:none;stroke-opacity:1" />
    <rect
       y="9.5000019"
       x="8.4999981"
       height="31"
       width="31"
       id="rect4183"
       style="fill:none;fill-opacity:1;stroke:url(#linearGradient4193);stroke-linejoin:round;opacity:0.3" />
    <path
       id="path4193"
       d="m 15.000013,16.999996 0,3.000001 L 19,19.999998 19,35 l 3,0 0,-15.000002 4.000014,0 1e-6,12.000002 0.0029,0 c -9.99e-4,0.526275 0.13635,1.043625 0.398438,1.5 0.535997,0.92835 1.526637,1.500225 2.598633,1.5 L 32,34.999999 l 0,-3 -3.000014,1e-6 -1e-6,-12.000002 4.000003,-1e-6 0,-3.000001 z"
       style="opacity:0.07000002;fill:#000000;fill-opacity:1;stroke:#000000;stroke-width:1;stroke-linecap:butt;stroke-linejoin:round;stroke-miterlimit:4;stroke-dasharray:none;stroke-opacity:1" />
    <path
       style="opacity:0.15000018;fill:#000000;fill-opacity:1;stroke:none;stroke-width:1;stroke-linecap:butt;stroke-linejoin:round;stroke-miterlimit:4;stroke-dasharray:none;stroke-opacity:1"
       d="m 15.000013,16.999996 0,3.000001 L 19,19.999998 19,35 l 3,0 0,-15.000002 4.000014,0 1e-6,12.000002 0.0029,0 c -9.99e-4,0.526275 0.13635,1.043625 0.398438,1.5 0.535997,0.92835 1.526637,1.500225 2.598633,1.5 L 32,34.999999 l 0,-3 -3.000014,1e-6 -1e-6,-12.000002 4.000003,-1e-6 0,-3.000001 z"
       id="path4191" />
    <path
       id="rect4480"
       d="m 15.000013,15.999997 0,3.000001 3.999987,10e-7 0,15.000002 3,0 0,-15.000002 4.000014,0 1e-6,12.000002 0.0029,0 c -9.99e-4,0.526275 0.13635,1.043625 0.398438,1.5 0.535997,0.92835 1.526637,1.500225 2.598633,1.5 L 32,34 l 0,-3 -3.000014,1e-6 -1e-6,-12.000002 4.000003,-10e-7 0,-3.000001 z"
       style="opacity:1;fill:#ffffff;fill-opacity:1;stroke:none;stroke-width:1;stroke-linecap:butt;stroke-linejoin:round;stroke-miterlimit:4;stroke-dasharray:none;stroke-opacity:1" />
  </g>
</svg>
