<?xml version="1.0" encoding="UTF-8" standalone="no"?>
<!-- Created with Inkscape (http://www.inkscape.org/) -->

<svg
   xmlns:dc="http://purl.org/dc/elements/1.1/"
   xmlns:cc="http://creativecommons.org/ns#"
   xmlns:rdf="http://www.w3.org/1999/02/22-rdf-syntax-ns#"
   xmlns:svg="http://www.w3.org/2000/svg"
   xmlns="http://www.w3.org/2000/svg"
   xmlns:sodipodi="http://sodipodi.sourceforge.net/DTD/sodipodi-0.dtd"
   xmlns:inkscape="http://www.inkscape.org/namespaces/inkscape"
   id="svg4951"
   height="48"
   width="48"
   version="1.1"
   inkscape:version="0.91 r13725"
   sodipodi:docname="nexuiz.svg">
  <sodipodi:namedview
     pagecolor="#ffffff"
     bordercolor="#666666"
     borderopacity="1"
     objecttolerance="10"
     gridtolerance="10"
     guidetolerance="10"
     inkscape:pageopacity="0"
     inkscape:pageshadow="2"
     inkscape:window-width="1535"
     inkscape:window-height="876"
     id="namedview39"
     showgrid="false"
     inkscape:zoom="4.9166667"
     inkscape:cx="-10.779661"
     inkscape:cy="24"
     inkscape:window-x="65"
     inkscape:window-y="24"
     inkscape:window-maximized="1"
     inkscape:current-layer="svg4951" />
  <defs
     id="defs4953">
    <radialGradient
       id="radialGradient3302"
       gradientUnits="userSpaceOnUse"
       cy="186.17"
       cx="99.157"
       gradientTransform="matrix(.27083 0 0 .087623 -2.8551 25.187)"
       r="62.769">
      <stop
         id="stop3822-2-6-3"
         stop-color="#3d3d3d"
         offset="0" />
      <stop
         id="stop3864-8-7-7"
         stop-color="#686868"
         stop-opacity=".49804"
         offset=".5" />
      <stop
         id="stop3824-1-2-5"
         stop-color="#686868"
         stop-opacity="0"
         offset="1" />
    </radialGradient>
    <radialGradient
       id="radialGradient4448"
       gradientUnits="userSpaceOnUse"
       cy="-17.681"
       cx="14.892"
       gradientTransform="matrix(-1.4387 3.8089e-8 -2.8328e-8 -1.07 45.169 -14.596)"
       r="25.571">
      <stop
         id="stop3750-1-0-7-6-6-1-3-9-3"
         stop-color="#5f5f5f"
         offset="0" />
      <stop
         id="stop3752-3-7-4-0-32-8-923-0-7"
         stop-color="#515151"
         offset=".26238" />
      <stop
         id="stop3754-1-8-5-2-7-6-7-1-9"
         stop-color="#404040"
         offset=".70495" />
      <stop
         id="stop3756-1-6-2-6-6-1-96-6-0"
         stop-color="#343434"
         offset="1" />
    </radialGradient>
    <linearGradient
       id="linearGradient4450"
       y2="32.568"
       gradientUnits="userSpaceOnUse"
       x2="15.124"
       gradientTransform="matrix(.76418 0 0 .76418 12.377 18.778)"
       y1="-18.801"
       x1="15.124">
      <stop
         id="stop4413"
         stop-color="#fff"
         offset="0" />
      <stop
         id="stop4415"
         stop-color="#fff"
         stop-opacity="0"
         offset="1" />
    </linearGradient>
    <clipPath
       id="clipPath-147250665">
      <g
         id="g17"
         transform="translate(0 -1004.4)">
        <path
           id="path19"
           d="m-24 13c0 1.105-0.672 2-1.5 2s-1.5-0.895-1.5-2 0.672-2 1.5-2 1.5 0.895 1.5 2z"
           transform="matrix(15.333 0 0 11.5 415 878.86)"
           fill="#1890d0" />
      </g>
    </clipPath>
  </defs>
  <metadata
     id="metadata4956">
    <rdf:RDF>
      <cc:Work
         rdf:about="">
        <dc:format>image/svg+xml</dc:format>
        <dc:type
           rdf:resource="http://purl.org/dc/dcmitype/StillImage" />
        <dc:title />
      </cc:Work>
    </rdf:RDF>
  </metadata>
  <circle
     id="path2985-6"
     cy="24"
     cx="24"
     r="20.526"
     fill="url(#radialGradient4448)" />
  <g
     id="g4432"
     stroke-linejoin="round"
     opacity=".15"
     transform="translate(.0016737 -.0055)"
     stroke="#000"
     stroke-linecap="round"
     fill="none">
    <g
       id="g4434"
       stroke-linejoin="round"
       clip-path="url(#clipPath-147250665)"
       stroke="#000"
       stroke-linecap="round"
       fill="none">
      <!-- color: #2c7ea8 -->
      <g
         id="g4436"
         stroke-linejoin="round"
         stroke="#000"
         stroke-linecap="round">
        <path
           id="path4438"
           stroke-linejoin="round"
           d="m20.395 12c-0.07 0-0.148 0.023-0.219 0.074-0.074 0.051-0.133 0.145-0.145 0.223-0.027 0.156 0.008 0.23 0.074 0.363 0.309 0.555 0.617 0.984 0.734 1.316 0.203 0.457 0.199 0.879 0.145 1.164l-0.371 1.75c-1.855 0.426-3.645 0.859-5.438 1.461-0.348 0.109-0.617 0.223-0.883 0.363-0.023-0.004-0.051-0.004-0.074 0-0.094 0.059-0.098 0.141-0.148 0.219-0.023 0.043-0.066 0.09-0.074 0.148-0.008 0.055 0.02 0.152 0.074 0.219 0.156 0.211 0.367 0.301 0.664 0.438 0.293 0.137 0.633 0.273 0.883 0.367 1.246 0.449 2.848 0.813 4.117 0.949-0.344 1.527-0.672 3.035-1.18 4.52-0.121 0.363-0.277 0.742-0.438 1.098-0.461 1.02-1.051 1.949-1.617 2.844-0.602 0.836-1.105 1.652-1.762 2.406-0.125 0.129-0.32 0.242-0.441 0.363-0.059 0.066-0.102 0.164-0.148 0.223-0.02 0.027-0.055 0.039-0.074 0.074-0.02 0.031-0.008 0.051 0 0.145-0.004 0.023-0.004 0.051 0 0.074 0.016 0.027 0.043 0.055 0.074 0.074 0.02 0.027 0.043 0.055 0.074 0.074 0.023 0.004 0.051 0.004 0.074 0 0.133 0.02 0.242-0.031 0.367-0.074 0.129-0.039 0.219-0.074 0.371-0.145 0.305-0.145 0.695-0.301 1.027-0.512 0.473-0.297 0.828-0.602 1.102-0.801 0.484-0.352 1.574-1.355 2.133-2.039 0.641-0.723 1.32-1.5 1.84-2.48 0.008-0.02-0.012-0.055 0-0.074 0.035-0.063 0.238-0.449 0.293-0.586 0.109-0.273 0.184-0.547 0.219-0.656l1.617-4.887 5.66-1.313c-0.141 1.18-0.297 2.32-0.438 3.5-0.109 0.973-0.184 1.363-0.293 2.406-0.004 0.031 0.004 0.039 0 0.074-0.066 0.32-0.246 1.223-0.297 1.461-0.375 1.809-0.777 3.453-1.613 4.887-0.203 0.277-0.434 0.57-0.664 0.801-0.23-0.113-0.555-0.27-1.027-0.293h-0.074c-0.023-0.004-0.051-0.004-0.074 0 0 0-0.074 0.07-0.074 0.074-0.027 0.02-0.059 0.043-0.074 0.074-0.031 0.168 0.023 0.297 0.074 0.441 0.051 0.145 0.09 0.305 0.145 0.438 0.426 0.953 0.926 1.781 1.398 2.625 0.016 0.031 0.039 0.055 0.074 0.074 0.016 0.031 0.039 0.055 0.074 0.074 0.023 0.004 0.047 0.004 0.074 0 0.023 0.004 0.047 0.004 0.074 0 0.027-0.016 0.055-0.039 0.074-0.074 0.703-0.66 1.535-1.73 2.133-2.625 1.172-1.746 2.164-3.695 2.867-5.906 0.105-0.344 0.191-0.691 0.293-1.094l2.203-8.387c0.094-0.371 0.203-0.785 0.219-1.098 0.004-0.023 0.004-0.055 0-0.074-0.043-0.105-0.145-0.16-0.219-0.227-0.074-0.051-0.125-0.098-0.219-0.145-0.191-0.094-0.441-0.211-0.664-0.289-1.059-0.352-2.207-0.676-3.453-0.949-0.137-0.059-0.223-0.082-0.367-0.078-0.145 0.016-0.355 0.043-0.516 0.078-0.32 0.066-0.648 0.168-0.883 0.227l-2.941 0.648c0.125-0.387 0.332-0.961 0.145-1.676-0.25-0.816-0.898-1.293-1.613-1.531-0.613-0.207-1.211-0.391-1.84-0.586-0.102-0.023-0.563-0.188-1.027-0.219m-0.008-0.023"
           stroke="#000"
           stroke-linecap="round"
           fill="none" />
        <path
           id="path4440"
           opacity="1"
           style="color-rendering:auto;text-decoration-color:#000000;color:#000000;isolation:auto;mix-blend-mode:normal;shape-rendering:auto;solid-color:#000000;block-progression:tb;text-decoration-line:none;text-decoration-style:solid;image-rendering:auto;white-space:normal;text-indent:0;text-transform:none"
           d="m20.395 11.5c-0.01508 0-0.02793 0.01287-0.04297 0.01367a0.50005 0.50005 0 0 0 -0.21484 0.07227c-0.08283 0.02748-0.17155 0.02731-0.24609 0.08008-0.20408 0.14169-0.31095 0.29384-0.35156 0.55078-0.04122 0.25202 0.05022 0.53107 0.11719 0.66602a0.50005 0.50005 0 0 0 0.01172 0.01953c0.32442 0.5827 0.62877 1.0403 0.69922 1.2402a0.50005 0.50005 0 0 0 0.01562 0.03711c0.15565 0.35041 0.14741 0.66645 0.10938 0.86719l-0.305 1.439c-1.7468 0.40394-3.4565 0.81469-5.1719 1.3906-0.32036 0.10092-0.58007 0.21726-0.83398 0.34375-0.01643 0.0019-0.03073-0.0031-0.04883 0a0.50005 0.50005 0 0 0 -0.17969 0.07031c-0.13264 0.08325-0.23117 0.22094-0.27148 0.30078-0.04032 0.07984-0.0479 0.09518-0.0332 0.07227a0.50005 0.50005 0 0 0 -0.01953 0.0332c0.02757-0.05154-0.08985 0.05477-0.12695 0.3125-0.04341 0.29845 0.03255 0.41489 0.17774 0.5957 0.2425 0.31994 0.55879 0.45359 0.8457 0.58594h-0.0039c0.31243 0.14608 0.661 0.2835 0.91992 0.38086a0.50005 0.50005 0 0 0 0.0059 0.0039c1.1223 0.40442 2.4698 0.67291 3.6738 0.8457-0.30585 1.358-0.59833 2.6962-1.041 3.9902a0.50005 0.50005 0 0 0 0 0.0039c-0.11325 0.33974-0.26386 0.70569-0.41992 1.0508-0.44199 0.97793-1.0176 1.8857-1.584 2.7812-0.603 0.83958-1.0956 1.6277-1.707 2.332-0.04976 0.04848-0.2284 0.15418-0.42578 0.35156a0.50005 0.50005 0 0 0 -0.01953 0.01953c-0.14245 0.15935-0.1961 0.28357-0.16992 0.25 0.03749-0.04479 0.06943-0.06858 0.04687-0.05078-0.02417 0.01907-0.09349 0.08402-0.15039 0.17578-0.05617 0.09864-0.09064 0.27719-0.08594 0.3418 0.0049 0.06756 0.0093 0.07262 0.01172 0.10156l0.0059-0.12891c-0.01574 0.09049-0.01574 0.1556 0 0.24609a0.50005 0.50005 0 0 0 0.0625 0.16992c0.06448 0.10881 0.13487 0.17836 0.24219 0.24414l-0.14062-0.12891c0.03072 0.04147 0.09119 0.12734 0.21484 0.20312a0.50005 0.50005 0 0 0 0.17578 0.06641c0.03547 0.0062 0.06511-0.0013 0.0957 0 0.28556 0.03775 0.49627-0.06115 0.58984-0.09375h0.0039c0.13952-0.04304 0.26289-0.09071 0.41992-0.16406a0.50005 0.50005 0 0 0 0.002 -0.002c0.28132-0.13374 0.69459-0.29478 1.082-0.54102h-0.0039c0.50814-0.31906 0.88726-0.64144 1.1309-0.81836 0.55708-0.40515 1.6022-1.37 2.2129-2.1133l0.002-0.002c0.64226-0.72443 1.3535-1.5326 1.9062-2.5742a0.50005 0.50005 0 0 0 0.02148 -0.04883c0.02648-0.06619 0.0018-0.04515 0.0078-0.08789 0.07109-0.12912 0.20278-0.36708 0.28516-0.57227 0.1217-0.30482 0.2059-0.60852 0.23047-0.68555l0.002-0.0039 1.5273-4.6152 4.6875-1.0879c-0.116 0.9281-0.23665 1.8457-0.34961 2.791a0.50005 0.50005 0 0 0 0 0.0039c-0.10782 0.96247-0.18284 1.3564-0.29297 2.4102-0.0027 0.02839-0.000491 0.04025 0 0.06445v0.0039c-0.0716 0.3488-0.24324 1.2002-0.28906 1.4141a0.50005 0.50005 0 0 0 0 0.002c-0.37156 1.7924-0.76864 3.375-1.5508 4.7227-0.13438 0.18208-0.27869 0.34496-0.41992 0.50586-0.23595-0.09624-0.43701-0.21179-0.82031-0.23047a0.50005 0.50005 0 0 0 -0.02344 0h-0.07422l0.08594 0.0059c-0.09049-0.01574-0.1556-0.01574-0.24609 0a0.50005 0.50005 0 0 0 -0.25781 0.13086s-0.02115 0.01784-0.04297 0.03906c-0.01091 0.01061-0.0221 0.02175-0.03516 0.03516-0.0065 0.0067-0.01296 0.01323-0.02539 0.02734-0.0062 0.0071-0.01163 0.01393-0.02734 0.03516-0.0079 0.01062-0.03502 0.05444-0.03516 0.05469-0.000004 0.000007-0.0018 0.0035-0.002 0.0039-0.03458 0.03768-0.05023 0.02387-0.08594 0.09766a0.50005 0.50005 0 0 0 -0.04297 0.12695c-0.05809 0.31481 0.05041 0.57134 0.0957 0.69922 0.03906 0.11163 0.07747 0.27516 0.1543 0.46094a0.50005 0.50005 0 0 0 0.0039 0.01367c0.44017 0.98471 0.95054 1.8243 1.416 2.6562 0.05838 0.10885 0.16822 0.21917 0.27539 0.27734 0.02819 0.02209 0.04544 0.0586 0.07422 0.07422a0.50005 0.50005 0 0 0 0.15234 0.05273c0.08085 0.01406 0.16293 0.01225 0.23242 0.002 0.02438-0.0013 0.05203 0.0033 0.07422 0a0.50005 0.50005 0 0 0 0.18164 -0.06445c0.07737-0.04585 0.18436-0.13033 0.25781-0.26562l-0.0957 0.12695c0.75608-0.70983 1.5903-1.7909 2.2051-2.7109 1.1952-1.7806 2.2093-3.7736 2.9277-6.0332a0.50005 0.50005 0 0 0 0.002 -0.0059c0.10975-0.35955 0.19766-0.71349 0.29883-1.1133l0.002-0.0039 2.2012-8.3828a0.50005 0.50005 0 0 0 0.002 -0.0039c0.09057-0.35746 0.20114-0.76641 0.22656-1.1621 0.01337-0.07882 0.02058-0.12003-0.0039-0.23633a0.50005 0.50005 0 0 0 -0.02734 -0.08594c-0.12488-0.30495-0.34024-0.40326-0.3457-0.4082a0.50005 0.50005 0 0 0 -0.05078 -0.04102c-0.0442-0.03046-0.13074-0.10541-0.2793-0.17969a0.50005 0.50005 0 0 0 -0.0039 -0.002c-0.19861-0.09774-0.45859-0.2215-0.71875-0.3125a0.50005 0.50005 0 0 0 -0.0078 -0.002c-1.0745-0.35715-2.2398-0.68593-3.5039-0.96289l0.0918 0.0293c-0.16346-0.0704-0.37738-0.12477-0.58008-0.11914a0.50005 0.50005 0 0 0 -0.04102 0.002c-0.15364 0.01695-0.36937 0.04506-0.56641 0.08789-0.3511 0.07288-0.69025 0.1782-0.89844 0.23047l-2.2832 0.50195c0.07874-0.37028 0.22752-0.65292 0.0918-1.1719a0.50005 0.50005 0 0 0 -0.0059 -0.01953c-0.303-0.992-1.11-1.584-1.928-1.857h-0.002c-0.62066-0.20955-1.2238-0.39523-1.8516-0.58984a0.50005 0.50005 0 0 0 -0.03711 -0.0098c0.0416 0.0094-0.15991-0.05103-0.36328-0.10352-0.1572-0.04057-0.36501-0.07172-0.57226-0.09766a0.50005 0.50005 0 0 0 -0.208 -0.043zm0.22266 1.0547c0.10609 0.01837 0.21508 0.03055 0.30859 0.05469 0.16863 0.04352 0.24898 0.07895 0.39258 0.11133 0.61546 0.19076 1.1986 0.37026 1.791 0.57031a0.50005 0.50005 0 0 0 0.002 0.002c0.60759 0.20224 1.0879 0.56695 1.2852 1.1973 0.13926 0.55491-0.006 0.98235-0.13476 1.3809a0.50005 0.50005 0 0 0 0.58203 0.64258l2.9414-0.64844a0.50005 0.50005 0 0 0 0.01367 -0.0039c0.26043-0.06539 0.5769-0.16164 0.86328-0.2207a0.50005 0.50005 0 0 0 0.0059 -0.002c0.11549-0.02511 0.29506-0.04888 0.42969-0.06445 0.07301-0.0026 0.04218-0.0106 0.14844 0.03516a0.50005 0.50005 0 0 0 0.0918 0.0293c1.2279 0.26904 2.3588 0.5887 3.4023 0.93555 0.18426 0.06514 0.41688 0.17279 0.59766 0.26172 0.03423 0.01711 0.0652 0.04504 0.13672 0.0957-0.02744 0.23016-0.09651 0.54867-0.17969 0.87695l-2.2012 8.3828a0.50005 0.50005 0 0 0 -0.002 0.0059c-0.10235 0.40438-0.18531 0.7432-0.28516 1.0703v-0.0059c-0.68755 2.1624-1.6559 4.0679-2.8047 5.7793-0.51586 0.77207-1.2205 1.6301-1.8281 2.2539-0.4155-0.73337-0.83858-1.4447-1.1953-2.2402l-0.002-0.0078c-0.01872-0.04649-0.0518-0.14936-0.07812-0.23438 0.17015 0.04709 0.36486 0.07913 0.50195 0.14648a0.50005 0.50005 0 0 0 0.57422 -0.0957c0.26105-0.26219 0.50236-0.57014 0.71289-0.85742a0.50005 0.50005 0 0 0 0.0293 -0.04492c0.884-1.5163 1.2929-3.2151 1.6699-5.0332v-0.0039c0.05528-0.25828 0.2323-1.1479 0.29688-1.4609a0.50005 0.50005 0 0 0 0.0078 -0.04492c0.0037-0.0324 0.000718-0.04978 0-0.07813 0.1077-1.0306 0.18308-1.4184 0.29297-2.3984v-0.0039c0.14023-1.1732 0.296-2.3119 0.4375-3.4961a0.50005 0.50005 0 0 0 -0.61 -0.547l-5.6602 1.3125a0.50005 0.50005 0 0 0 -0.36133 0.33008l-1.6172 4.8887a0.50005 0.50005 0 0 0 -0.002 0.0039c-0.046 0.14326-0.11146 0.38369-0.20703 0.62305-0.01782 0.04368-0.22048 0.44386-0.25195 0.50391-0.04005 0.06341-0.0062 0.05863-0.01953 0.10742-0.03562 0.13031-0.05408 0.26912-0.05078 0.28711 0.0045 0.02473-0.05742-0.0215 0.0293-0.23828l0.02148-0.04883c-0.48682 0.91747-1.1322 1.6617-1.7715 2.3828a0.50005 0.50005 0 0 0 -0.01367 0.01563c-0.50902 0.62285-1.6317 1.6529-2.0391 1.9492-0.3044 0.22108-0.63636 0.50827-1.0742 0.7832a0.50005 0.50005 0 0 0 -0.002 0.002c-0.1546 0.09826-0.35594 0.18167-0.54492 0.26953 0.61553-0.73869 1.1115-1.5014 1.6562-2.2578a0.50005 0.50005 0 0 0 0.01758 -0.02539c0.56536-0.89398 1.1705-1.8429 1.6504-2.9043v-0.002c0.16509-0.36515 0.32673-0.75625 0.45508-1.1406l0.002-0.0039c0.51941-1.5194 0.8502-3.0451 1.1934-4.5684a0.50005 0.50005 0 0 0 -0.43555 -0.60742c-1.2175-0.13048-2.7963-0.48891-3.9941-0.91992l-0.0059-0.002c-0.24067-0.09061-0.57006-0.22255-0.8418-0.34961a0.50005 0.50005 0 0 0 -0.002 -0.002c-0.1913-0.08824-0.2243-0.12811-0.29688-0.17773 0.20514-0.10145 0.40364-0.19149 0.67774-0.27734a0.50005 0.50005 0 0 0 0.0098 -0.0039c1.7664-0.59307 3.5393-1.0221 5.3906-1.4473a0.50005 0.50005 0 0 0 0.37695 -0.38281l0.37109-1.75a0.50005 0.50005 0 0 0 0.002 -0.01172c0.06922-0.36531 0.06658-0.88659-0.17578-1.4434-0.14878-0.4092-0.42002-0.78801-0.68164-1.2344zm12.828 4.3496c0.04873 0.04412 0.01351-0.0015 0.03125 0.01563-0.000232 0.002-0.0017 0.0058-0.002 0.0078l-0.0293-0.02344zm-18.936 2.2617c0.0053-0.01082-0.0054 0.01575 0.002 0.002l-0.02149 0.03516c0.01486-0.02318 0.0091-0.01815 0.01953-0.03711z"
           fill="#000" />
      </g>
    </g>
  </g>
  <circle
     id="path3755-9"
     opacity=".6"
     stroke-width=".94845"
     stroke="#242424"
     cy="24"
     cx="24"
     r="20.526"
     fill="none" />
  <circle
     id="path3773-9"
     opacity=".6"
     stroke-width=".93261"
     stroke-opacity=".58824"
     stroke="url(#linearGradient4450)"
     cy="24"
     cx="24"
     r="19.54"
     fill="none" />
  <g
     id="g4420"
     stroke-linejoin="round"
     opacity=".15"
     transform="translate(.0016737 -.0055)"
     stroke="#000"
     stroke-linecap="round"
     stroke-width="2"
     fill="none">
    <g
       id="g4422"
       stroke-linejoin="round"
       clip-path="url(#clipPath-147250665)"
       stroke="#000"
       stroke-linecap="round"
       stroke-width="2"
       fill="none">
      <!-- color: #2c7ea8 -->
      <g
         id="g4424"
         stroke-linejoin="round"
         stroke="#000"
         stroke-linecap="round"
         stroke-width="2">
        <path
           id="path4426"
           stroke-linejoin="round"
           d="m20.395 12c-0.07 0-0.148 0.023-0.219 0.074-0.074 0.051-0.133 0.145-0.145 0.223-0.027 0.156 0.008 0.23 0.074 0.363 0.309 0.555 0.617 0.984 0.734 1.316 0.203 0.457 0.199 0.879 0.145 1.164l-0.371 1.75c-1.855 0.426-3.645 0.859-5.438 1.461-0.348 0.109-0.617 0.223-0.883 0.363-0.023-0.004-0.051-0.004-0.074 0-0.094 0.059-0.098 0.141-0.148 0.219-0.023 0.043-0.066 0.09-0.074 0.148-0.008 0.055 0.02 0.152 0.074 0.219 0.156 0.211 0.367 0.301 0.664 0.438 0.293 0.137 0.633 0.273 0.883 0.367 1.246 0.449 2.848 0.813 4.117 0.949-0.344 1.527-0.672 3.035-1.18 4.52-0.121 0.363-0.277 0.742-0.438 1.098-0.461 1.02-1.051 1.949-1.617 2.844-0.602 0.836-1.105 1.652-1.762 2.406-0.125 0.129-0.32 0.242-0.441 0.363-0.059 0.066-0.102 0.164-0.148 0.223-0.02 0.027-0.055 0.039-0.074 0.074-0.02 0.031-0.008 0.051 0 0.145-0.004 0.023-0.004 0.051 0 0.074 0.016 0.027 0.043 0.055 0.074 0.074 0.02 0.027 0.043 0.055 0.074 0.074 0.023 0.004 0.051 0.004 0.074 0 0.133 0.02 0.242-0.031 0.367-0.074 0.129-0.039 0.219-0.074 0.371-0.145 0.305-0.145 0.695-0.301 1.027-0.512 0.473-0.297 0.828-0.602 1.102-0.801 0.484-0.352 1.574-1.355 2.133-2.039 0.641-0.723 1.32-1.5 1.84-2.48 0.008-0.02-0.012-0.055 0-0.074 0.035-0.063 0.238-0.449 0.293-0.586 0.109-0.273 0.184-0.547 0.219-0.656l1.617-4.887 5.66-1.313c-0.141 1.18-0.297 2.32-0.438 3.5-0.109 0.973-0.184 1.363-0.293 2.406-0.004 0.031 0.004 0.039 0 0.074-0.066 0.32-0.246 1.223-0.297 1.461-0.375 1.809-0.777 3.453-1.613 4.887-0.203 0.277-0.434 0.57-0.664 0.801-0.23-0.113-0.555-0.27-1.027-0.293h-0.074c-0.023-0.004-0.051-0.004-0.074 0 0 0-0.074 0.07-0.074 0.074-0.027 0.02-0.059 0.043-0.074 0.074-0.031 0.168 0.023 0.297 0.074 0.441 0.051 0.145 0.09 0.305 0.145 0.438 0.426 0.953 0.926 1.781 1.398 2.625 0.016 0.031 0.039 0.055 0.074 0.074 0.016 0.031 0.039 0.055 0.074 0.074 0.023 0.004 0.047 0.004 0.074 0 0.023 0.004 0.047 0.004 0.074 0 0.027-0.016 0.055-0.039 0.074-0.074 0.703-0.66 1.535-1.73 2.133-2.625 1.172-1.746 2.164-3.695 2.867-5.906 0.105-0.344 0.191-0.691 0.293-1.094l2.203-8.387c0.094-0.371 0.203-0.785 0.219-1.098 0.004-0.023 0.004-0.055 0-0.074-0.043-0.105-0.145-0.16-0.219-0.227-0.074-0.051-0.125-0.098-0.219-0.145-0.191-0.094-0.441-0.211-0.664-0.289-1.059-0.352-2.207-0.676-3.453-0.949-0.137-0.059-0.223-0.082-0.367-0.078-0.145 0.016-0.355 0.043-0.516 0.078-0.32 0.066-0.648 0.168-0.883 0.227l-2.941 0.648c0.125-0.387 0.332-0.961 0.145-1.676-0.25-0.816-0.898-1.293-1.613-1.531-0.613-0.207-1.211-0.391-1.84-0.586-0.102-0.023-0.563-0.188-1.027-0.219m-0.008-0.023"
           stroke="#000"
           stroke-linecap="round"
           stroke-width="2"
           fill="none" />
        <path
           id="path4428"
           opacity=".15"
           style="color-rendering:auto;text-decoration-color:#000000;color:#000000;isolation:auto;mix-blend-mode:normal;shape-rendering:auto;solid-color:#000000;block-progression:tb;text-decoration-line:none;text-decoration-style:solid;image-rendering:auto;white-space:normal;text-indent:0;text-transform:none"
           d="m20.395 11c-0.01417 0-0.02496 0.01323-0.03906 0.01367a1.0001 1.0001 0 0 0 -0.5293 0.17188c-0.07089 0.03389-0.15512 0.02614-0.2207 0.07226-0.33414 0.23201-0.48993 0.44497-0.55859 0.88086-0.05503 0.3504 0.09386 0.82926 0.16211 0.9668a1.0001 1.0001 0 0 0 0.02148 0.04101c0.33984 0.6104 0.64212 1.0943 0.66602 1.1621a1.0001 1.0001 0 0 0 0.0293 0.07422c0.10794 0.243 0.09808 0.45164 0.07617 0.56836-0.000074 0.000394 0.000074 0.0016 0 0.002l-0.24023 1.1309c-1.6376 0.38207-3.2545 0.76621-4.8848 1.3125-0.0015 0.000478-0.0024 0.0015-0.0039 0.002-0.30401 0.09544-0.55429 0.21137-0.80469 0.33008-0.0079 0.0013-0.01333-0.0014-0.02148 0a1.0001 1.0001 0 0 0 -0.36133 0.13867c-0.21827 0.137-0.38954 0.37599-0.45117 0.49805-0.06164 0.12206-0.06024 0.11218-0.0059 0.02734a1.0001 1.0001 0 0 0 -0.04102 0.06836c0.07789-0.14562-0.11376 0.02338-0.17969 0.48047-0.0764 0.53313 0.04403 0.67752 0.27734 0.9668 0.3278 0.42861 0.74595 0.60761 1.0254 0.73633 0.33186 0.15517 0.68723 0.29578 0.95508 0.39648a1.0001 1.0001 0 0 0 0.01172 0.0039c0.99601 0.35892 2.1384 0.55648 3.2305 0.74609-0.26923 1.1792-0.52164 2.3518-0.90039 3.459a1.0001 1.0001 0 0 0 -0.002 0.0078c-0.10549 0.31648-0.24926 0.66777-0.40039 1.002-0.41931 0.92776-0.97541 1.811-1.5371 2.6992-0.61174 0.85194-1.0956 1.622-1.6699 2.2852 0.01163-0.01951-0.14151 0.06729-0.4082 0.33398a1.0001 1.0001 0 0 0 -0.03906 0.04102c-0.22591 0.25271-0.28976 0.39958-0.19141 0.27344a1.0001 1.0001 0 0 0 -0.01563 0.01953c0.1139-0.15376 0.18807-0.18557 0.14844-0.1543-0.03543 0.02795-0.16212 0.14669-0.26563 0.31055-0.08964 0.15855-0.13082 0.40736-0.13867 0.55078-0.01607 0.12098-0.02324 0.2199 0 0.35352a1.0001 1.0001 0 0 0 0.125 0.33789c0.11296 0.19062 0.22848 0.30542 0.41211 0.41797l-0.28125-0.25781c0.04144 0.05594 0.13916 0.1975 0.35547 0.33008a1.0001 1.0001 0 0 0 0.35156 0.13281c0.04673 0.0081 0.08338-0.0033 0.12305 0 0.43141 0.05207 0.74067-0.08767 0.80664-0.11133 0.15564-0.04855 0.311-0.10821 0.47656-0.18555a1.0001 1.0001 0 0 0 0.0059 -0.0039c0.2564-0.1219 0.68824-0.28933 1.1289-0.56836 0.54328-0.34113 0.945-0.68304 1.1582-0.83789a1.0001 1.0001 0 0 0 0.002 0c0.63363-0.46082 1.6454-1.3998 2.3047-2.2031 0.64154-0.72367 1.3803-1.5582 1.9629-2.6562a1.0001 1.0001 0 0 0 0.04492 -0.09766c0.02641-0.06602-0.007-0.03078 0.0078-0.08398 0.0807-0.14398 0.17842-0.30836 0.28516-0.57422a1.0001 1.0001 0 0 0 0 -0.002c0.13443-0.3367 0.2257-0.66662 0.24023-0.71289l0.002-0.0078 1.4375-4.3457 3.7168-0.86328c-0.08811 0.68985-0.17504 1.3749-0.25976 2.084a1.0001 1.0001 0 0 0 0 0.0078c-0.1056 0.94265-0.18153 1.3473-0.29102 2.3887-0.0034 0.02652 0.0011 0.03452 0 0.0625-0.07457 0.36382-0.24164 1.1967-0.2832 1.3906a1.0001 1.0001 0 0 0 -0.002 0.0059c-0.3681 1.7757-0.75924 3.2945-1.4883 4.5566-0.05944 0.07978-0.11501 0.13665-0.17578 0.21289-0.20393-0.06076-0.30179-0.13777-0.56445-0.15625-0.15798-0.02747-0.25804-0.02747-0.41602 0a1.0001 1.0001 0 0 0 -0.51563 0.25977s-0.02174 0.02047-0.04687 0.04492c-0.01257 0.01223-0.02575 0.02523-0.04492 0.04492-0.0096 0.0098-0.02013 0.01899-0.04297 0.04492-0.01142 0.01296-0.02381 0.02663-0.05469 0.06836-0.01544 0.02087-0.07017 0.10717-0.07031 0.10742-0.000009 0.000016-0.006 0.01369-0.0078 0.01758-0.04189 0.05692-0.05081 0.02063-0.09375 0.10938a1.0001 1.0001 0 0 0 -0.08203 0.25391c-0.08518 0.46162 0.0737 0.84526 0.11328 0.95703 0.02752 0.07869 0.06498 0.24674 0.16406 0.48633a1.0001 1.0001 0 0 0 0.01172 0.02539c0.45195 1.0111 0.96447 1.8594 1.4219 2.6758 0.09866 0.19115 0.30245 0.39432 0.48633 0.49414 0.02797 0.01919 0.04474 0.05927 0.07227 0.07422a1.0001 1.0001 0 0 0 0.30664 0.10742c0.1387 0.02412 0.2806 0.0205 0.39258 0.0039 0.02304-0.0021 0.05305 0.0031 0.07422 0a1.0001 1.0001 0 0 0 0.36328 -0.12891c0.12773-0.07569 0.31351-0.22144 0.44141-0.45703l-0.19336 0.25195c0.80882-0.75935 1.6479-1.852 2.2793-2.7969v-0.002c1.218-1.8148 2.2546-3.8506 2.9883-6.1582a1.0001 1.0001 0 0 0 0.0039 -0.01172c0.11452-0.37519 0.20424-0.7358 0.30469-1.1328l0.002-0.0078 2.2012-8.3789a1.0001 1.0001 0 0 0 0.002 -0.0078c0.08701-0.3434 0.19941-0.75561 0.23438-1.2188 0.02389-0.13549 0.03951-0.18878-0.0059-0.4043a1.0001 1.0001 0 0 0 -0.05469 -0.17383c-0.20677-0.5049-0.53573-0.64695-0.47266-0.58984a1.0001 1.0001 0 0 0 -0.10352 -0.08203c-0.0144-0.0099-0.13674-0.11329-0.33984-0.21484a1.0001 1.0001 0 0 0 -0.0059 -0.0039c-0.204-0.099-0.476-0.23-0.773-0.334a1.0001 1.0001 0 0 0 -0.01367 -0.0039c-1.09-0.3623-2.2725-0.69564-3.5547-0.97656l0.18164 0.05859c-0.18992-0.08179-0.52961-0.16742-0.79102-0.16016a1.0001 1.0001 0 0 0 -0.08203 0.0059c-0.1592 0.01757-0.37916 0.043-0.60742 0.0918-0.000767 0.000158-0.0012-0.000159-0.002 0-0.0037 0.000793-0.0061 0.0011-0.0098 0.002-0.38158 0.07961-0.73221 0.18872-0.91406 0.23438l-1.555 0.344c-0.0081-0.22096 0.03432-0.41107-0.0293-0.6543a1.0001 1.0001 0 0 0 -0.01172 -0.03906c-0.3591-1.1721-1.3266-1.8773-2.248-2.1855l-0.0059-0.002c-0.62746-0.21177-1.2336-0.39781-1.8594-0.5918a1.0001 1.0001 0 0 0 -0.07617 -0.02149c0.1342 0.03026-0.12691-0.04264-0.34766-0.09961-0.14195-0.03663-0.34608-0.06072-0.53516-0.08984a1.0001 1.0001 0 0 0 -0.371 -0.068zm4.2949 20.232c-0.0219-0.0015-0.02463-0.01259-0.04687-0.01367a1.0001 1.0001 0 0 0 -0.04883 0h-0.07422l0.16992 0.01367zm-3.075-17.89c0.44936 0.1398 0.89605 0.27594 1.334 0.42383a1.0001 1.0001 0 0 0 0.0039 0.002c0.49885 0.16605 0.81327 0.41747 0.95703 0.86133 0.09551 0.39721 0.007 0.67914-0.125 1.0879a1.0001 1.0001 0 0 0 1.168 1.2852l2.9395-0.64844a1.0001 1.0001 0 0 0 0.0293 -0.0059c0.28586-0.07177 0.58902-0.16662 0.8418-0.21875a1.0001 1.0001 0 0 0 0.0098 -0.002c0.06668-0.0145 0.19722-0.03026 0.31055-0.04492a1.0001 1.0001 0 0 0 0.14648 0.04492c1.2077 0.26461 2.3192 0.57892 3.3457 0.91992 0.0018 0.000606 0.004 0.0013 0.0059 0.002 0.09199 0.03296 0.21387 0.09247 0.33203 0.14648-0.03547 0.17073-0.05151 0.28497-0.10352 0.49024l-2.2012 8.3789a1.0001 1.0001 0 0 0 -0.002 0.0098c-0.10158 0.40132-0.18394 0.72785-0.27734 1.0352-0.67211 2.1138-1.6185 3.9755-2.7441 5.6523a1.0001 1.0001 0 0 0 0 0.002c-0.37643 0.56338-0.86113 1.0961-1.3242 1.6348-0.16589-0.29588-0.3269-0.60146-0.48047-0.90234a1.0001 1.0001 0 0 0 0.54688 -0.2793c0.2921-0.29337 0.54366-0.61846 0.76172-0.91602a1.0001 1.0001 0 0 0 0.05859 -0.08789c0.93187-1.5985 1.3476-3.3524 1.7266-5.1797l0.002-0.0078c0.05951-0.27841 0.23374-1.1548 0.29688-1.4609a1.0001 1.0001 0 0 0 0.01367 -0.08984c0.0034-0.03015-0.000595-0.04212 0-0.07422a1.0001 1.0001 0 0 0 0.002 -0.0078c0.105-1.018 0.179-1.403 0.289-2.392v-0.0059c0.13952-1.167 0.29543-2.3052 0.4375-3.4941a1.0001 1.0001 0 0 0 -1.2188 -1.0918l-5.6602 1.3125a1.0001 1.0001 0 0 0 -0.72266 0.66016l-1.6172 4.8867a1.0001 1.0001 0 0 0 -0.0039 0.0078c-0.05701 0.17753-0.11318 0.38608-0.19531 0.5918 0.01706-0.04378-0.24818 0.48851-0.23828 0.4707l0.0293-0.04883c-0.28798 0.45596-0.1472 0.71612-0.14062 0.75195 0.0066 0.03584-0.12079-0.07011 0.05664-0.51367l0.04492-0.09766c-0.45364 0.85494-1.0675 1.566-1.7051 2.2852a1.0001 1.0001 0 0 0 -0.02539 0.03125c-0.22528 0.27566-0.57374 0.55393-0.95508 0.91406 0.5004-0.79408 1.0277-1.6176 1.4609-2.5762 0.1698-0.37547 0.33661-0.77861 0.47266-1.1855l0.002-0.0078c0.53088-1.5538 0.86468-3.0975 1.207-4.6172a1.0001 1.0001 0 0 0 -0.86914 -1.2129c-1.1632-0.12466-2.7142-0.47885-3.8633-0.89062 1.5859-0.50656 3.1785-0.91867 4.8594-1.3047a1.0001 1.0001 0 0 0 0.75586 -0.76758l0.37109-1.75a1.0001 1.0001 0 0 0 0.0039 -0.02148c0.08459-0.44644 0.07307-1.07-0.21094-1.7285-0.03775-0.10148-0.09752-0.16534-0.14062-0.25586zm-8.5293 19.287c-0.000836 0.01871-0.02046 0.06139-0.01953 0.07422 0.0083 0.1145 0.01079 0.0985 0.01172 0.10938l0.0078-0.18359z"
           fill="#000" />
      </g>
    </g>
  </g>
  <g
     id="g47"
     transform="translate(.0016737 -.0055)">
    <g
       id="g49"
       clip-path="url(#clipPath-147250665)">
      <!-- color: #2c7ea8 -->
      <g
         id="g51">
        <path
           id="path53"
           d="m20.395 12c-0.07 0-0.148 0.023-0.219 0.074-0.074 0.051-0.133 0.145-0.145 0.223-0.027 0.156 0.008 0.23 0.074 0.363 0.309 0.555 0.617 0.984 0.734 1.316 0.203 0.457 0.199 0.879 0.145 1.164l-0.371 1.75c-1.855 0.426-3.645 0.859-5.438 1.461-0.348 0.109-0.617 0.223-0.883 0.363-0.023-0.004-0.051-0.004-0.074 0-0.094 0.059-0.098 0.141-0.148 0.219-0.023 0.043-0.066 0.09-0.074 0.148-0.008 0.055 0.02 0.152 0.074 0.219 0.156 0.211 0.367 0.301 0.664 0.438 0.293 0.137 0.633 0.273 0.883 0.367 1.246 0.449 2.848 0.813 4.117 0.949-0.344 1.527-0.672 3.035-1.18 4.52-0.121 0.363-0.277 0.742-0.438 1.098-0.461 1.02-1.051 1.949-1.617 2.844-0.602 0.836-1.105 1.652-1.762 2.406-0.125 0.129-0.32 0.242-0.441 0.363-0.059 0.066-0.102 0.164-0.148 0.223-0.02 0.027-0.055 0.039-0.074 0.074-0.02 0.031-0.008 0.051 0 0.145-0.004 0.023-0.004 0.051 0 0.074 0.016 0.027 0.043 0.055 0.074 0.074 0.02 0.027 0.043 0.055 0.074 0.074 0.023 0.004 0.051 0.004 0.074 0 0.133 0.02 0.242-0.031 0.367-0.074 0.129-0.039 0.219-0.074 0.371-0.145 0.305-0.145 0.695-0.301 1.027-0.512 0.473-0.297 0.828-0.602 1.102-0.801 0.484-0.352 1.574-1.355 2.133-2.039 0.641-0.723 1.32-1.5 1.84-2.48 0.008-0.02-0.012-0.055 0-0.074 0.035-0.063 0.238-0.449 0.293-0.586 0.109-0.273 0.184-0.547 0.219-0.656l1.617-4.887 5.66-1.313c-0.141 1.18-0.297 2.32-0.438 3.5-0.109 0.973-0.184 1.363-0.293 2.406-0.004 0.031 0.004 0.039 0 0.074-0.066 0.32-0.246 1.223-0.297 1.461-0.375 1.809-0.777 3.453-1.613 4.887-0.203 0.277-0.434 0.57-0.664 0.801-0.23-0.113-0.555-0.27-1.027-0.293h-0.074c-0.023-0.004-0.051-0.004-0.074 0 0 0-0.074 0.07-0.074 0.074-0.027 0.02-0.059 0.043-0.074 0.074-0.031 0.168 0.023 0.297 0.074 0.441 0.051 0.145 0.09 0.305 0.145 0.438 0.426 0.953 0.926 1.781 1.398 2.625 0.016 0.031 0.039 0.055 0.074 0.074 0.016 0.031 0.039 0.055 0.074 0.074 0.023 0.004 0.047 0.004 0.074 0 0.023 0.004 0.047 0.004 0.074 0 0.027-0.016 0.055-0.039 0.074-0.074 0.703-0.66 1.535-1.73 2.133-2.625 1.172-1.746 2.164-3.695 2.867-5.906 0.105-0.344 0.191-0.691 0.293-1.094l2.203-8.387c0.094-0.371 0.203-0.785 0.219-1.098 0.004-0.023 0.004-0.055 0-0.074-0.043-0.105-0.145-0.16-0.219-0.227-0.074-0.051-0.125-0.098-0.219-0.145-0.191-0.094-0.441-0.211-0.664-0.289-1.059-0.352-2.207-0.676-3.453-0.949-0.137-0.059-0.223-0.082-0.367-0.078-0.145 0.016-0.355 0.043-0.516 0.078-0.32 0.066-0.648 0.168-0.883 0.227l-2.941 0.648c0.125-0.387 0.332-0.961 0.145-1.676-0.25-0.816-0.898-1.293-1.613-1.531-0.613-0.207-1.211-0.391-1.84-0.586-0.102-0.023-0.563-0.188-1.027-0.219m-0.008-0.023"
           fill="#f9f9f9" />
        <path
           id="path4398"
           fill="none"
           d="m20.395 12c-0.07 0-0.148 0.023-0.219 0.074-0.074 0.051-0.133 0.145-0.145 0.223-0.027 0.156 0.008 0.23 0.074 0.363 0.309 0.555 0.617 0.984 0.734 1.316 0.203 0.457 0.199 0.879 0.145 1.164l-0.371 1.75c-1.855 0.426-3.645 0.859-5.438 1.461-0.348 0.109-0.617 0.223-0.883 0.363-0.023-0.004-0.051-0.004-0.074 0-0.094 0.059-0.098 0.141-0.148 0.219-0.023 0.043-0.066 0.09-0.074 0.148-0.008 0.055 0.02 0.152 0.074 0.219 0.156 0.211 0.367 0.301 0.664 0.438 0.293 0.137 0.633 0.273 0.883 0.367 1.246 0.449 2.848 0.813 4.117 0.949-0.344 1.527-0.672 3.035-1.18 4.52-0.121 0.363-0.277 0.742-0.438 1.098-0.461 1.02-1.051 1.949-1.617 2.844-0.602 0.836-1.105 1.652-1.762 2.406-0.125 0.129-0.32 0.242-0.441 0.363-0.059 0.066-0.102 0.164-0.148 0.223-0.02 0.027-0.055 0.039-0.074 0.074-0.02 0.031-0.008 0.051 0 0.145-0.004 0.023-0.004 0.051 0 0.074 0.016 0.027 0.043 0.055 0.074 0.074 0.02 0.027 0.043 0.055 0.074 0.074 0.023 0.004 0.051 0.004 0.074 0 0.133 0.02 0.242-0.031 0.367-0.074 0.129-0.039 0.219-0.074 0.371-0.145 0.305-0.145 0.695-0.301 1.027-0.512 0.473-0.297 0.828-0.602 1.102-0.801 0.484-0.352 1.574-1.355 2.133-2.039 0.641-0.723 1.32-1.5 1.84-2.48 0.008-0.02-0.012-0.055 0-0.074 0.035-0.063 0.238-0.449 0.293-0.586 0.109-0.273 0.184-0.547 0.219-0.656l1.617-4.887 5.66-1.313c-0.141 1.18-0.297 2.32-0.438 3.5-0.109 0.973-0.184 1.363-0.293 2.406-0.004 0.031 0.004 0.039 0 0.074-0.066 0.32-0.246 1.223-0.297 1.461-0.375 1.809-0.777 3.453-1.613 4.887-0.203 0.277-0.434 0.57-0.664 0.801-0.23-0.113-0.555-0.27-1.027-0.293h-0.074c-0.023-0.004-0.051-0.004-0.074 0 0 0-0.074 0.07-0.074 0.074-0.027 0.02-0.059 0.043-0.074 0.074-0.031 0.168 0.023 0.297 0.074 0.441 0.051 0.145 0.09 0.305 0.145 0.438 0.426 0.953 0.926 1.781 1.398 2.625 0.016 0.031 0.039 0.055 0.074 0.074 0.016 0.031 0.039 0.055 0.074 0.074 0.023 0.004 0.047 0.004 0.074 0 0.023 0.004 0.047 0.004 0.074 0 0.027-0.016 0.055-0.039 0.074-0.074 0.703-0.66 1.535-1.73 2.133-2.625 1.172-1.746 2.164-3.695 2.867-5.906 0.105-0.344 0.191-0.691 0.293-1.094l2.203-8.387c0.094-0.371 0.203-0.785 0.219-1.098 0.004-0.023 0.004-0.055 0-0.074-0.043-0.105-0.145-0.16-0.219-0.227-0.074-0.051-0.125-0.098-0.219-0.145-0.191-0.094-0.441-0.211-0.664-0.289-1.059-0.352-2.207-0.676-3.453-0.949-0.137-0.059-0.223-0.082-0.367-0.078-0.145 0.016-0.355 0.043-0.516 0.078-0.32 0.066-0.648 0.168-0.883 0.227l-2.941 0.648c0.125-0.387 0.332-0.961 0.145-1.676-0.25-0.816-0.898-1.293-1.613-1.531-0.613-0.207-1.211-0.391-1.84-0.586-0.102-0.023-0.563-0.188-1.027-0.219m-0.008-0.023" />
      </g>
    </g>
  </g>
</svg>
