<?xml version="1.0" encoding="UTF-8" standalone="no"?>
<!-- Created with Inkscape (http://www.inkscape.org/) -->

<svg
   xmlns:dc="http://purl.org/dc/elements/1.1/"
   xmlns:cc="http://creativecommons.org/ns#"
   xmlns:rdf="http://www.w3.org/1999/02/22-rdf-syntax-ns#"
   xmlns:svg="http://www.w3.org/2000/svg"
   xmlns="http://www.w3.org/2000/svg"
   xmlns:sodipodi="http://sodipodi.sourceforge.net/DTD/sodipodi-0.dtd"
   xmlns:inkscape="http://www.inkscape.org/namespaces/inkscape"
   id="svg3143"
   height="48"
   width="48"
   version="1.1"
   inkscape:version="0.91 r13725"
   sodipodi:docname="ninja-ide.svg">
  <sodipodi:namedview
     pagecolor="#ffffff"
     bordercolor="#666666"
     borderopacity="1"
     objecttolerance="10"
     gridtolerance="10"
     guidetolerance="10"
     inkscape:pageopacity="0"
     inkscape:pageshadow="2"
     inkscape:window-width="1535"
     inkscape:window-height="876"
     id="namedview48"
     showgrid="false"
     inkscape:zoom="4.9166667"
     inkscape:cx="-10.779661"
     inkscape:cy="24"
     inkscape:window-x="65"
     inkscape:window-y="24"
     inkscape:window-maximized="1"
     inkscape:current-layer="svg3143" />
  <defs
     id="defs3145">
    <radialGradient
       id="radialGradient3030"
       gradientUnits="userSpaceOnUse"
       cy="43.5"
       cx="4.993"
       gradientTransform="matrix(2.0038 0 0 1.4 27.988 -17.4)"
       r="2.5">
      <stop
         id="stop2883"
         stop-color="#181818"
         offset="0" />
      <stop
         id="stop2885"
         stop-color="#181818"
         stop-opacity="0"
         offset="1" />
    </radialGradient>
    <radialGradient
       id="radialGradient3032"
       gradientUnits="userSpaceOnUse"
       cy="43.5"
       cx="4.993"
       gradientTransform="matrix(2.0038 0 0 1.4 -20.012 -104.4)"
       r="2.5">
      <stop
         id="stop2889"
         stop-color="#181818"
         offset="0" />
      <stop
         id="stop2891"
         stop-color="#181818"
         stop-opacity="0"
         offset="1" />
    </radialGradient>
    <linearGradient
       id="linearGradient3034"
       y2="39.999"
       gradientUnits="userSpaceOnUse"
       x2="25.058"
       y1="47.028"
       x1="25.058">
      <stop
         id="stop2895"
         stop-color="#181818"
         stop-opacity="0"
         offset="0" />
      <stop
         id="stop2897"
         stop-color="#181818"
         offset=".5" />
      <stop
         id="stop2899"
         stop-color="#181818"
         stop-opacity="0"
         offset="1" />
    </linearGradient>
    <linearGradient
       id="linearGradient3044"
       y2="43"
       gradientUnits="userSpaceOnUse"
       x2="24"
       gradientTransform="translate(5.3e-6,1)"
       y1="5"
       x1="24">
      <stop
         id="stop3926-7"
         stop-color="#fff"
         offset="0" />
      <stop
         id="stop3928-3"
         stop-color="#fff"
         stop-opacity=".23529"
         offset=".063165" />
      <stop
         id="stop3930-7"
         stop-color="#fff"
         stop-opacity=".15686"
         offset=".95056" />
      <stop
         id="stop3932-1"
         stop-color="#fff"
         stop-opacity=".39216"
         offset="1" />
    </linearGradient>
    <radialGradient
       id="radialGradient3053"
       gradientUnits="userSpaceOnUse"
       cy="9.9941"
       cx="8.2761"
       gradientTransform="matrix(0,6.6678,-8.1859,0,105.88,-59.463)"
       r="12.672">
      <stop
         id="stop4360"
         stop-color="#b1f87e"
         offset="0" />
      <stop
         id="stop4362"
         stop-color="#6bab46"
         offset=".26238" />
      <stop
         id="stop4364"
         stop-color="#49832b"
         offset=".66094" />
      <stop
         id="stop4366"
         stop-color="#265c18"
         offset="1" />
    </radialGradient>
    <clipPath
       id="clipPath-581077431">
      <g
         id="g17"
         transform="translate(0 -1004.4)">
        <path
           id="path19"
           d="m-24 13c0 1.105-0.672 2-1.5 2s-1.5-0.895-1.5-2 0.672-2 1.5-2 1.5 0.895 1.5 2z"
           transform="matrix(15.333 0 0 11.5 415 878.86)"
           fill="#1890d0" />
      </g>
    </clipPath>
  </defs>
  <metadata
     id="metadata3148">
    <rdf:RDF>
      <cc:Work
         rdf:about="">
        <dc:format>image/svg+xml</dc:format>
        <dc:type
           rdf:resource="http://purl.org/dc/dcmitype/StillImage" />
        <dc:title />
      </cc:Work>
    </rdf:RDF>
  </metadata>
  <g
     id="g4176"
     transform="translate(0,-1)">
    <rect
       x="4.5"
       y="5.5"
       width="39"
       height="39"
       ry="2"
       rx="2"
       style="color:#000000;fill:url(#radialGradient3053)"
       id="rect5505-21" />
    <rect
       x="5.5"
       y="6.5"
       width="37"
       height="37"
       ry="1"
       rx="1"
       id="rect6741-2"
       style="opacity:0.5;fill:none;stroke:url(#linearGradient3044);stroke-linecap:round;stroke-linejoin:round" />
    <rect
       x="4.5"
       y="5.5"
       width="39"
       height="39"
       ry="2"
       rx="2"
       style="color:#000000;opacity:0.4;fill:none;stroke:#045300;stroke-linecap:round;stroke-linejoin:round"
       id="rect5505-21-1" />
    <g
       transform="matrix(1.0001,0,0,1.0002,-9.9934e-5,0.99886)"
       id="g65">
      <g
         clip-path="url(#clipPath-581077431)"
         id="g67">
        <!-- color: #cdcdcd -->
        <g
           id="g69">
          <path
             d="m 23.848,11 c -1.074,0 -2.098,0.094 -3,0.25 -2.652,0.465 -3.133,1.434 -3.133,3.223 l 0,2.363 6.27,0 0,0.789 -8.625,0 c -1.82,0 -3.418,1.082 -3.918,3.145 -0.578,2.363 -0.602,3.84 0,6.305 0.445,1.836 1.508,3.145 3.336,3.145 l 1.848,0 0,-3.137 c 0,-2.051 1.789,-3.852 3.918,-3.852 l 6.574,0 c 1.742,0 3.391,-1.422 3.391,-3.156 l 0,-5.602 c 0,-1.68 -1.691,-2.941 -3.391,-3.223 C 26.04,11.074 24.923,10.992 23.852,11 m -3.395,1.902 c 0.648,0 1.176,0.531 1.176,1.184 0,0.652 -0.527,1.184 -1.176,1.184 -0.648,0 -1.18,-0.531 -1.18,-1.184 0,-0.652 0.531,-1.184 1.18,-1.184"
             id="path71"
             inkscape:connector-curvature="0"
             style="fill:#2d2d2d" />
          <path
             d="m 21.863,13.984 c 0,0.828 -0.672,1.5 -1.5,1.5 -0.828,0 -1.5,-0.672 -1.5,-1.5 0,-0.828 0.672,-1.5 1.5,-1.5 0.828,0 1.5,0.672 1.5,1.5"
             id="path73"
             inkscape:connector-curvature="0"
             style="fill:#f9f9f9" />
          <path
             d="m 32.07,12.145 c -0.941,0.152 -1.488,0.898 -1.801,1.535 -0.641,0.063 -0.516,-0.523 -0.824,-0.848 -0.754,0.203 -0.871,0.023 -1.188,-0.656 l -0.469,0 c 0.863,0.582 1.473,1.422 1.473,2.438 l 0,1 0.688,-0.5 c 1.613,1.031 2.406,0.098 3.344,-1.098 l -1.344,0 c 0.398,-0.691 0.34,-1.141 0.125,-1.871 m -0.004,0"
             id="path75"
             inkscape:connector-curvature="0"
             style="fill:#d72735" />
          <path
             d="m 18.656,12.03 c -0.758,0.555 -0.945,1.336 -0.941,2.438 l 0,1.531 12.789,0 0,-1.531 c 0,-1.016 -0.629,-1.898 -1.445,-2.434 m -8.59,0.871 c 0.648,0 1.156,0.531 1.156,1.188 0,0.652 -0.508,1.156 -1.156,1.156 -0.648,0 -1.188,-0.508 -1.188,-1.156 0,-0.656 0.535,-1.188 1.188,-1.188"
             id="path77"
             inkscape:connector-curvature="0"
             style="fill:#d72735" />
          <path
             d="m 31.391,17.629 0,2.754 c 0,2.137 -1.832,3.676 -3.918,3.676 l -6.883,0 c -1.715,0 -3.137,1.707 -3.137,3.406 l 0,5.906 c 0,1.68 1.48,2.668 3.137,3.152 1.984,0.578 4.145,0.68 6.52,0 1.582,-0.453 3.137,-1.359 3.137,-3.152 l 0,-2.363 -6.266,0 0,-0.785 9.402,0 c 1.82,0 2.5,-1.258 3.133,-3.148 0.656,-1.941 0.629,-3.813 0,-6.305 -0.449,-1.793 -1.309,-3.145 -3.133,-3.145 m -5.875,14.961 c 0.648,0 1.176,0.527 1.176,1.18 0,0.652 -0.527,1.188 -1.176,1.188 -0.648,0 -1.176,-0.535 -1.176,-1.188 0,-0.652 0.527,-1.18 1.176,-1.18"
             id="path79"
             inkscape:connector-curvature="0"
             style="fill:#2d2d2d" />
          <path
             d="m 29.08,33.781 c 0,0.828 -0.672,1.5 -1.5,1.5 -0.82,0 -1.5,-0.672 -1.5,-1.5 0,-0.828 0.68,-1.5 1.5,-1.5 0.828,0 1.5,0.672 1.5,1.5"
             id="path81"
             inkscape:connector-curvature="0"
             style="fill:#f9f9f9" />
          <path
             d="m 17.457,32.03 0,1.344 c 0,1.223 0.758,2.07 1.793,2.625 l 9.219,0 c 1.012,-0.535 1.781,-1.363 1.781,-2.625 l 0,-1.344 m -2.684,0.469 c 0.691,0 1.25,0.559 1.25,1.25 0,0.688 -0.559,1.25 -1.25,1.25 -0.691,0 -1.25,-0.563 -1.25,-1.25 0,-0.691 0.559,-1.25 1.25,-1.25"
             id="path83"
             inkscape:connector-curvature="0"
             style="fill:#d72735" />
          <path
             d="m 15.887,35.891 c 0.945,-0.152 1.488,-0.902 1.801,-1.539 0.641,-0.059 0.52,0.523 0.828,0.852 0.754,-0.207 0.871,-0.023 1.184,0.656 l 0.469,0 C 19.31,35.274 18.7,34.434 18.7,33.422 l 0,-1 -0.688,0.5 c -1.613,-1.031 -2.406,-0.102 -3.348,1.094 l 1.344,0 c -0.395,0.695 -0.34,1.141 -0.125,1.875 m 0.004,0"
             id="path85"
             inkscape:connector-curvature="0"
             style="fill:#d72735" />
          <path
             d="m 19.27,15.25 c 0.043,-0.164 2.332,-2.598 2.332,-2.598 l -2.785,0.184 m 0.453,2.414"
             id="path87"
             inkscape:connector-curvature="0"
             style="fill:#d72735" />
          <path
             d="m 28.715,32.27 -2.641,3.148 3.18,-0.25 M 28.715,32.27"
             id="path89"
             inkscape:connector-curvature="0"
             style="fill:#d72735" />
        </g>
      </g>
    </g>
  </g>
</svg>
