<?xml version="1.0" encoding="UTF-8" standalone="no"?>
<!-- Created with Inkscape (http://www.inkscape.org/) -->

<svg
   xmlns:dc="http://purl.org/dc/elements/1.1/"
   xmlns:cc="http://creativecommons.org/ns#"
   xmlns:rdf="http://www.w3.org/1999/02/22-rdf-syntax-ns#"
   xmlns:svg="http://www.w3.org/2000/svg"
   xmlns="http://www.w3.org/2000/svg"
   xmlns:xlink="http://www.w3.org/1999/xlink"
   xmlns:sodipodi="http://sodipodi.sourceforge.net/DTD/sodipodi-0.dtd"
   xmlns:inkscape="http://www.inkscape.org/namespaces/inkscape"
   id="svg4951"
   height="48"
   width="48"
   version="1.1"
   inkscape:version="0.91 r13725"
   sodipodi:docname="opera-next-browser.svg">
  <sodipodi:namedview
     pagecolor="#ffffff"
     bordercolor="#666666"
     borderopacity="1"
     objecttolerance="10"
     gridtolerance="10"
     guidetolerance="10"
     inkscape:pageopacity="0"
     inkscape:pageshadow="2"
     inkscape:window-width="1535"
     inkscape:window-height="876"
     id="namedview29"
     showgrid="false"
     inkscape:zoom="4.9166667"
     inkscape:cx="-10.779661"
     inkscape:cy="24"
     inkscape:window-x="65"
     inkscape:window-y="24"
     inkscape:window-maximized="1"
     inkscape:current-layer="svg4951" />
  <defs
     id="defs4953">
    <linearGradient
       id="linearGradient3775">
      <stop
         id="stop3777"
         stop-color="#fff"
         stop-opacity=".58824"
         offset="0" />
      <stop
         id="stop3779"
         stop-color="#fff"
         offset="1" />
    </linearGradient>
    <radialGradient
       id="radialGradient4292"
       gradientUnits="userSpaceOnUse"
       cy="186.17"
       cx="99.157"
       gradientTransform="matrix(.27083 0 0 .064194 -2.8551 31.02)"
       r="62.769">
      <stop
         id="stop3822-2-6-3"
         stop-color="#3d3d3d"
         offset="0" />
      <stop
         id="stop3864-8-7-7"
         stop-color="#686868"
         stop-opacity=".49804"
         offset=".5" />
      <stop
         id="stop3824-1-2-5"
         stop-color="#686868"
         stop-opacity="0"
         offset="1" />
    </radialGradient>
    <linearGradient
       id="linearGradient4846"
       y2="345.98"
       xlink:href="#linearGradient3775"
       gradientUnits="userSpaceOnUse"
       x2="252.04"
       y1="172.59"
       x1="253.47" />
    <linearGradient
       inkscape:collect="always"
       xlink:href="#linearGradient3775"
       id="linearGradient4174"
       gradientUnits="userSpaceOnUse"
       x1="253.47"
       y1="172.59"
       x2="252.04"
       y2="345.98" />
    <linearGradient
       inkscape:collect="always"
       xlink:href="#linearGradient3775"
       id="linearGradient4176"
       gradientUnits="userSpaceOnUse"
       x1="253.47"
       y1="172.59"
       x2="252.04"
       y2="345.98" />
    <linearGradient
       inkscape:collect="always"
       xlink:href="#linearGradient3775"
       id="linearGradient4178"
       gradientUnits="userSpaceOnUse"
       x1="253.47"
       y1="172.59"
       x2="252.04"
       y2="345.98" />
    <linearGradient
       inkscape:collect="always"
       xlink:href="#linearGradient3775"
       id="linearGradient4180"
       gradientUnits="userSpaceOnUse"
       x1="253.47"
       y1="172.59"
       x2="252.04"
       y2="345.98" />
  </defs>
  <metadata
     id="metadata4956">
    <rdf:RDF>
      <cc:Work
         rdf:about="">
        <dc:format>image/svg+xml</dc:format>
        <dc:type
           rdf:resource="http://purl.org/dc/dcmitype/StillImage" />
        <dc:title />
      </cc:Work>
    </rdf:RDF>
  </metadata>
  <g
     id="g4157"
     transform="translate(-1.0012555,1.0024493)">
    <g
       transform="matrix(0.28667,0,0,-0.28703,-47.532,97.581)"
       id="g4798"
       style="fill:#4c8cff">
      <g
         id="g4800"
         style="fill:#4c8cff">
        <g
           id="g4802"
           style="fill:#4c8cff">
          <g
             id="g4804"
             style="fill:#4c8cff">
            <path
               d="m 185,260.56 c 0,-37.755 26.508,-72.139 66.281,-72.139 39.776,0 66.277,34.384 66.277,72.139 0,42.431 -27.281,70.703 -66.277,70.703 C 212.279,331.263 185,302.991 185,260.56 m 39.17,1.585 c 0,28.512 4.605,60.009 27.113,60.009 22.506,0 27.072,-31.831 27.072,-60.344 0,-26.413 -2.81,-62.401 -27.072,-62.401 -24.264,0 -27.113,36.326 -27.113,62.736"
               id="path4806"
               inkscape:connector-curvature="0"
               style="fill:#4c8cff" />
          </g>
        </g>
      </g>
    </g>
    <g
       transform="matrix(0.28667,0,0,-0.28703,-47.533,97.58)"
       id="g5167"
       style="opacity:0.7;fill:none;stroke:#002e54;stroke-width:3.48620009">
      <g
         id="g5169"
         style="fill:none;stroke:#002e54;stroke-width:3.48620009">
        <g
           id="g5175"
           style="fill:none;stroke:#002e54;stroke-width:3.48620009">
          <g
             id="g5177"
             style="fill:none;stroke:#002e54;stroke-width:3.48620009">
            <path
               d="m 185,260.56 c 0,-37.755 26.508,-72.139 66.281,-72.139 39.776,0 66.277,34.384 66.277,72.139 0,42.431 -27.281,70.703 -66.277,70.703 C 212.279,331.263 185,302.991 185,260.56 m 39.17,1.585 c 0,28.512 4.605,60.009 27.113,60.009 22.506,0 27.072,-31.831 27.072,-60.344 0,-26.413 -2.81,-62.401 -27.072,-62.401 -24.264,0 -27.113,36.326 -27.113,62.736"
               id="path5185"
               inkscape:connector-curvature="0"
               style="fill:none;stroke:#002e54;stroke-width:3.48620009" />
          </g>
        </g>
      </g>
    </g>
    <g
       transform="matrix(0.2716,0,0,-0.27302,-43.746,93.939)"
       id="g4810"
       style="opacity:0.2;fill:none;stroke:url(#linearGradient4846);stroke-width:3.67059994">
      <g
         id="g4812"
         style="fill:none;stroke:url(#linearGradient4180);stroke-width:3.67059994">
        <g
           id="g4814"
           style="fill:none;stroke:url(#linearGradient4178);stroke-width:3.67059994">
          <g
             id="g4816"
             style="fill:none;stroke:url(#linearGradient4176);stroke-width:3.67059994">
            <path
               d="m 185,260.56 c 0,-37.755 26.508,-72.139 66.281,-72.139 39.776,0 66.277,34.384 66.277,72.139 0,42.431 -27.281,70.703 -66.277,70.703 C 212.279,331.263 185,302.991 185,260.56"
               id="path4818"
               style="fill:none;stroke:url(#linearGradient4174);stroke-width:3.67059994"
               inkscape:connector-curvature="0" />
          </g>
        </g>
      </g>
    </g>
  </g>
</svg>
