<?xml version="1.0" encoding="UTF-8" standalone="no"?>
<!-- Created with Inkscape (http://www.inkscape.org/) -->

<svg
   xmlns:dc="http://purl.org/dc/elements/1.1/"
   xmlns:cc="http://creativecommons.org/ns#"
   xmlns:rdf="http://www.w3.org/1999/02/22-rdf-syntax-ns#"
   xmlns:svg="http://www.w3.org/2000/svg"
   xmlns="http://www.w3.org/2000/svg"
   xmlns:sodipodi="http://sodipodi.sourceforge.net/DTD/sodipodi-0.dtd"
   xmlns:inkscape="http://www.inkscape.org/namespaces/inkscape"
   id="svg4296"
   height="48"
   width="48"
   version="1.1"
   inkscape:version="0.91 r13725"
   sodipodi:docname="pillarsofeternity.svg">
  <sodipodi:namedview
     pagecolor="#ffffff"
     bordercolor="#666666"
     borderopacity="1"
     objecttolerance="10"
     gridtolerance="10"
     guidetolerance="10"
     inkscape:pageopacity="0"
     inkscape:pageshadow="2"
     inkscape:window-width="1535"
     inkscape:window-height="876"
     id="namedview48"
     showgrid="false"
     inkscape:zoom="4.9166667"
     inkscape:cx="-10.779661"
     inkscape:cy="24"
     inkscape:window-x="65"
     inkscape:window-y="24"
     inkscape:window-maximized="1"
     inkscape:current-layer="svg4296" />
  <defs
     id="defs4298">
    <radialGradient
       id="radialGradient3058"
       gradientUnits="userSpaceOnUse"
       cy="43.5"
       cx="4.993"
       gradientTransform="matrix(2.0038 0 0 1.4 27.988 -17.4)"
       r="2.5">
      <stop
         id="stop2883"
         stop-color="#181818"
         offset="0" />
      <stop
         id="stop2885"
         stop-color="#181818"
         stop-opacity="0"
         offset="1" />
    </radialGradient>
    <radialGradient
       id="radialGradient3060"
       gradientUnits="userSpaceOnUse"
       cy="43.5"
       cx="4.993"
       gradientTransform="matrix(2.0038 0 0 1.4 -20.012 -104.4)"
       r="2.5">
      <stop
         id="stop2889"
         stop-color="#181818"
         offset="0" />
      <stop
         id="stop2891"
         stop-color="#181818"
         stop-opacity="0"
         offset="1" />
    </radialGradient>
    <linearGradient
       id="linearGradient3062"
       y2="39.999"
       gradientUnits="userSpaceOnUse"
       x2="25.058"
       y1="47.028"
       x1="25.058">
      <stop
         id="stop2895"
         stop-color="#181818"
         stop-opacity="0"
         offset="0" />
      <stop
         id="stop2897"
         stop-color="#181818"
         offset=".5" />
      <stop
         id="stop2899"
         stop-color="#181818"
         stop-opacity="0"
         offset="1" />
    </linearGradient>
    <linearGradient
       id="linearGradient3074"
       y2="43"
       gradientUnits="userSpaceOnUse"
       x2="24"
       gradientTransform="translate(4e-6,1)"
       y1="5"
       x1="24">
      <stop
         id="stop3897"
         stop-color="#fff"
         offset="0" />
      <stop
         id="stop3899"
         stop-color="#fff"
         stop-opacity=".23529"
         offset=".052632" />
      <stop
         id="stop3901"
         stop-color="#fff"
         stop-opacity=".15686"
         offset=".95056" />
      <stop
         id="stop3903"
         stop-color="#fff"
         stop-opacity=".39216"
         offset="1" />
    </linearGradient>
    <radialGradient
       id="radialGradient3078"
       gradientUnits="userSpaceOnUse"
       cy="9.9571"
       cx="7.1184"
       gradientTransform="matrix(0,9.1402,-11.221,0,136.56,-77.888)"
       r="12.672">
      <stop
         id="stop3750-1-0-7-6-6-1-3-9-3"
         stop-color="#505050"
         offset="0" />
      <stop
         id="stop3752-3-7-4-0-32-8-923-0-7"
         stop-color="#2b2b2b"
         offset=".26238" />
      <stop
         id="stop3754-1-8-5-2-7-6-7-1-9"
         stop-color="#0a0a0a"
         offset=".70495" />
      <stop
         id="stop3756-1-6-2-6-6-1-96-6-0"
         offset="1" />
    </radialGradient>
  </defs>
  <metadata
     id="metadata4301">
    <rdf:RDF>
      <cc:Work
         rdf:about="">
        <dc:format>image/svg+xml</dc:format>
        <dc:type
           rdf:resource="http://purl.org/dc/dcmitype/StillImage" />
        <dc:title />
      </cc:Work>
    </rdf:RDF>
  </metadata>
  <g
     id="g4176"
     transform="translate(0,-1)">
    <rect
       x="4.5"
       y="5.5"
       width="39"
       height="39"
       ry="2"
       rx="2"
       style="color:#000000;fill:url(#radialGradient3078)"
       id="rect5505-21" />
    <g
       transform="matrix(1.1099,0,0,1.1099,45.133,2.28)"
       id="g4464"
       style="opacity:0.2;fill:#008292">
      <path
         d="m -13.615,36.683 c -0.21473,-0.82488 -0.73322,-2.8242 -0.70835,-3.1385 0.03011,-0.39935 -0.21473,-1.0016 -0.36923,-1.0016 -0.1545,0 -0.86678,-2.7286 -1.0815,-3.4278 -0.21735,-0.70049 -1.0815,-3.1961 -1.4219,-3.6609 -0.34174,-0.46743 -0.62062,-1.3984 -1.2386,-1.8304 -0.618,-0.43339 -1.9784,-0.56825 -2.2874,-0.30114 -0.30769,0.2671 -0.86547,1.0331 -1.2033,1.2334 -0.34174,0.19771 -0.90082,0.76334 -1.1142,1.2962 -0.21735,0.53159 -0.92962,2.6291 -0.92962,3.361 0,0.73322 -0.12046,1.6642 -0.24615,1.964 -0.12439,0.29853 -0.15581,2.2638 -0.06154,2.7627 0.09296,0.49885 0.1545,1.5005 0.12439,1.8645 -0.01964,0.21211 -0.0694,0.59313 -0.10606,0.87725 7.0221,0.01469 7.0957,0.004 10.644,7e-6 z m -1.3133,-0.11391 c -0.15057,-0.17676 -0.37578,-0.41768 -0.52111,-0.68085 -0.20818,-0.37578 -0.53944,-0.78822 -0.66514,-1.5777 -0.12308,-0.79084 -0.41506,-1.4966 -0.62193,-1.5345 -0.20949,-0.04321 -0.127,0.9545 -0.24746,1.5345 -0.02357,0.09951 -0.06154,0.19247 -0.10082,0.28674 -0.08249,-0.39411 -0.5185,-1.126 -0.54468,-1.655 -0.0288,-0.60098 -0.95712,-2.3646 -1.1142,-2.8295 -0.15319,-0.46743 0,-0.43339 0.06154,-0.79869 0.06416,-0.36792 -0.03011,-0.93224 0,-1.363 0.03011,-0.43601 0.03011,-0.83404 -0.03011,-1.2334 -0.06154,-0.40066 0.03011,-1.2321 0.18723,-1.2975 0.15319,-0.06678 0.12308,-0.96628 0.12308,-0.96628 0.37054,0.10213 0.309,1.566 0.34174,1.8318 0.02881,0.26579 0.15319,0.29853 0.37054,0.59967 0.21604,0.29722 0.34042,-0.20033 0.52504,-0.30114 0.18592,-0.09951 0.21735,0.43339 0.309,1.1326 0.08903,0.69787 0,2.0622 0.0275,2.6619 0.03273,0.59967 0.40327,1.0658 0.49624,1.0658 0.09165,0 0.1257,-0.73322 0.1257,-1.0331 0,-0.29853 0.18462,-0.89689 0.18462,-0.89689 0,0 0.18723,0.43077 0.21735,0.83142 0.03011,0.39804 0.83404,2.4943 0.9257,2.6278 0.09296,0.13617 0.18854,0.39804 0.21735,0.59967 0.03012,0.20033 0.68216,2.9931 0.68216,2.9931 l -0.94926,0 z"
         id="path4363"
         inkscape:connector-curvature="0" />
      <g
         id="g4454">
        <path
           d="m -23.667,36.684 c -0.16759,-0.26448 -0.32079,-0.55516 -0.27496,-0.71228 0.09296,-0.33126 0.37054,-2.3293 0.31031,-3.5614 -0.06416,-1.2308 0.15581,-2.0295 -0.21735,-2.2285 -0.36923,-0.20033 -0.80524,-0.56301 -0.8982,-0.93224 -0.09296,-0.36399 -0.27889,-0.76465 -0.6167,-0.9964 -0.33912,-0.23306 -0.21604,-0.56563 -0.37054,-0.76465 -0.15581,-0.20164 -0.34043,0.0982 -0.55778,0.0982 -0.21473,0 -0.49493,-0.29984 -0.70966,-0.20033 -0.21604,0.10082 -0.68085,1.4979 -1.02,1.3971 -0.34174,-0.09689 -1.1457,-0.32995 -1.6079,0.0694 -0.4635,0.39673 -0.96105,0.56432 -0.99116,0.9964 -0.03273,0.43208 0.06285,1.1653 -0.21735,1.4651 -0.27758,0.30115 -0.30769,0.39935 -0.33912,0.89951 -0.03142,0.49754 -0.15581,1.8632 -0.43077,1.8304 -0.2802,-0.03404 -0.62062,-0.03404 -0.62062,0.33257 0,0.36268 -0.06154,0.99771 -0.24615,1.2962 -0.18724,0.29984 -0.24615,0.49886 -0.31031,0.79869 -0.01309,0.06416 -0.02619,0.13617 -0.03404,0.21211 z m -4.5342,-5.2229 c -0.11129,0.78822 -0.11129,1.0226 -0.21866,1.3774 -0.10998,0.35352 0.07332,1.1404 -0.18331,0.62717 -0.25663,-0.51064 -0.47529,-0.70573 -0.50933,-1.0619 -0.02226,-0.20426 -0.1545,-0.62717 -0.28674,-0.74632 -0.06809,-0.7437 0.04714,-2.3057 0.04714,-2.3057 0.06023,-0.33126 0.15581,-0.46481 0.37054,-0.46481 0.21735,0 0.80393,0.13355 0.9257,0.36399 0,0 0.34174,0.50016 0.37316,0.59967 0.0144,0.05499 0.05106,0.32995 0.08249,0.63634 -0.05761,-0.05368 -0.09165,-0.05761 -0.09165,0.07332 0,0.27496 -0.40196,0.11784 -0.50934,0.90082 z m 2.0268,5.2242 -1.6052,0 c 0.03666,-0.34174 0.10998,-0.86285 0.25008,-1.0802 0.21866,-0.33257 0.43339,-0.76334 0.74239,-0.63241 0.31031,0.13486 0.24615,0.59836 0.46612,0.83535 0.21473,0.23175 0.21473,0.26448 0.21473,0.5329 0,0.12962 -0.03666,0.24484 -0.06808,0.34435 z m 1.6458,-5.9378 c -0.0563,0.12308 -0.127,0.34566 -0.21997,0.55123 -0.09165,-0.15188 -0.20295,-0.30115 -0.24354,-0.50409 -0.07463,-0.35221 -0.07463,-0.54861 -0.03797,-0.78691 0.03797,-0.23437 -0.65466,-0.58789 -0.69264,-0.86154 -0.02226,-0.16367 -0.13224,-0.32602 -0.27234,-0.40589 0.0144,-0.24615 0.0419,-0.45565 0.0419,-0.45565 0,0 0.55777,0.46743 0.7437,0.66514 0.18331,0.20164 0.12177,0.46743 0.27758,0.73322 0.1545,0.2671 0.31031,0.40066 0.46219,0.53421 0.15581,0.13224 0.03142,0.33388 -0.05892,0.53028 z"
           id="path4450"
           inkscape:connector-curvature="0" />
        <path
           d="m -29.869,36.686 c -0.10801,-0.41493 -0.36883,-1.4206 -0.35632,-1.5787 0.01515,-0.20088 -0.10801,-0.50384 -0.18573,-0.50384 -0.07772,0 -0.43601,-1.3726 -0.54402,-1.7243 -0.04027,-0.12976 -0.42054,-0.08608 -0.51964,-0.36463 -0.17001,-0.47787 -0.08744,-1.3292 -0.19562,-1.4769 -0.1719,-0.23513 -0.31219,-0.70341 -0.62306,-0.92075 -0.31087,-0.218 -0.99518,-0.28584 -1.1506,-0.15148 -0.07903,0.06859 -0.05068,0.43621 -0.16382,0.56438 -0.10846,0.12285 -0.35829,0.0067 -0.44145,0.05605 -0.08509,0.04923 -0.43528,0.7511 -0.43528,0.7511 l -0.03176,1.5829 c 0,0 -0.56106,-0.35942 -0.56106,0.0088 0,0.36883 -0.06059,0.83711 -0.12382,0.98793 -0.06257,0.15016 -0.07838,1.1388 -0.03095,1.3897 0.04676,0.25094 0.07771,0.75478 0.06257,0.93788 -0.0099,0.1067 -0.03491,0.29836 -0.05335,0.44128 3.5322,0.0074 3.5693,0.0019 5.3539,4e-6 z m -0.6606,-0.0573 c -0.07574,-0.08892 -0.18902,-0.2101 -0.26213,-0.34248 -0.10472,-0.18902 -0.27135,-0.39649 -0.33458,-0.79364 -0.06192,-0.39781 -0.20878,-0.7528 -0.31284,-0.7719 -0.10538,-0.02174 -0.06388,0.48014 -0.12448,0.7719 -0.01186,0.05006 -0.03095,0.09682 -0.05071,0.14424 -0.0415,-0.19824 -0.26082,-0.56642 -0.27399,-0.8325 -0.01449,-0.30231 -0.94866,-0.65997 -1.0277,-0.89378 -0.07706,-0.23513 0.4672,-0.7475 0.49816,-0.93126 0.03228,-0.18507 -0.49792,-0.73369 -0.48278,-0.95037 0.01514,-0.21932 0.46678,-0.45069 0.43648,-0.65157 -0.03095,-0.20154 0.04629,-0.32387 0.12533,-0.3568 -1.4007,-1.8299 0.05442,-0.48346 0.06192,-0.48606 0.18639,0.05137 0.15543,0.78771 0.1719,0.92141 0.01448,0.1337 0.10821,-0.34818 0.21754,-0.1967 0.10867,0.14951 0.1401,0.39758 0.23296,0.34687 0.09352,-0.05006 -0.31115,0.73193 -0.26505,1.0836 0.04479,0.35105 0.42048,0.52341 0.43432,0.82506 0.01647,0.30165 0.20286,0.53612 0.24962,0.53612 0.0461,0 0.06323,-0.36883 0.06323,-0.51965 0,-0.15017 0.09287,-0.45116 0.09287,-0.45116 0,0 0.09418,0.21669 0.10933,0.41822 0.01515,0.20022 0.41954,1.2547 0.46565,1.3219 0.04676,0.0685 0.09485,0.20022 0.10933,0.30165 0.01516,0.10077 0.34314,1.5056 0.34314,1.5056 l -0.4775,0 z"
           id="path4452"
           inkscape:connector-curvature="0" />
      </g>
      <g
         transform="matrix(-1,0,0,1,-38.082,0)"
         id="g4458">
        <path
           d="m -23.667,36.684 c -0.16759,-0.26448 -0.32079,-0.55516 -0.27496,-0.71228 0.09296,-0.33126 0.37054,-2.3293 0.31031,-3.5614 -0.06416,-1.2308 0.15581,-2.0295 -0.21735,-2.2285 -0.36923,-0.20033 -0.80524,-0.56301 -0.8982,-0.93224 -0.09296,-0.36399 -0.27889,-0.76465 -0.6167,-0.9964 -0.33912,-0.23306 -0.21604,-0.56563 -0.37054,-0.76465 -0.15581,-0.20164 -0.34043,0.0982 -0.55778,0.0982 -0.21473,0 -0.49493,-0.29984 -0.70966,-0.20033 -0.21604,0.10082 -0.68085,1.4979 -1.02,1.3971 -0.34174,-0.09689 -1.1457,-0.32995 -1.6079,0.0694 -0.4635,0.39673 -0.96105,0.56432 -0.99116,0.9964 -0.03273,0.43208 0.06285,1.1653 -0.21735,1.4651 -0.27758,0.30115 -0.30769,0.39935 -0.33912,0.89951 -0.03142,0.49754 -0.15581,1.8632 -0.43077,1.8304 -0.2802,-0.03404 -0.62062,-0.03404 -0.62062,0.33257 0,0.36268 -0.06154,0.99771 -0.24615,1.2962 -0.18724,0.29984 -0.24615,0.49886 -0.31031,0.79869 -0.01309,0.06416 -0.02619,0.13617 -0.03404,0.21211 z m -4.5342,-5.2229 c -0.11129,0.78822 -0.11129,1.0226 -0.21866,1.3774 -0.10998,0.35352 0.07332,1.1404 -0.18331,0.62717 -0.25663,-0.51064 -0.47529,-0.70573 -0.50933,-1.0619 -0.02226,-0.20426 -0.1545,-0.62717 -0.28674,-0.74632 -0.06809,-0.7437 0.04714,-2.3057 0.04714,-2.3057 0.06023,-0.33126 0.15581,-0.46481 0.37054,-0.46481 0.21735,0 0.80393,0.13355 0.9257,0.36399 0,0 0.34174,0.50016 0.37316,0.59967 0.0144,0.05499 0.05106,0.32995 0.08249,0.63634 -0.05761,-0.05368 -0.09165,-0.05761 -0.09165,0.07332 0,0.27496 -0.40196,0.11784 -0.50934,0.90082 z m 2.0268,5.2242 -1.6052,0 c 0.03666,-0.34174 0.10998,-0.86285 0.25008,-1.0802 0.21866,-0.33257 0.43339,-0.76334 0.74239,-0.63241 0.31031,0.13486 0.24615,0.59836 0.46612,0.83535 0.21473,0.23175 0.21473,0.26448 0.21473,0.5329 0,0.12962 -0.03666,0.24484 -0.06808,0.34435 z m 1.6458,-5.9378 c -0.0563,0.12308 -0.127,0.34566 -0.21997,0.55123 -0.09165,-0.15188 -0.20295,-0.30115 -0.24354,-0.50409 -0.07463,-0.35221 -0.07463,-0.54861 -0.03797,-0.78691 0.03797,-0.23437 -0.65466,-0.58789 -0.69264,-0.86154 -0.02226,-0.16367 -0.13224,-0.32602 -0.27234,-0.40589 0.0144,-0.24615 0.0419,-0.45565 0.0419,-0.45565 0,0 0.55777,0.46743 0.7437,0.66514 0.18331,0.20164 0.12177,0.46743 0.27758,0.73322 0.1545,0.2671 0.31031,0.40066 0.46219,0.53421 0.15581,0.13224 0.03142,0.33388 -0.05892,0.53028 z"
           id="path4460"
           inkscape:connector-curvature="0" />
        <path
           d="m -29.869,36.686 c -0.10801,-0.41493 -0.36883,-1.4206 -0.35632,-1.5787 0.01515,-0.20088 -0.10801,-0.50384 -0.18573,-0.50384 -0.07772,0 -0.43601,-1.3726 -0.54402,-1.7243 -0.04027,-0.12976 -0.42054,-0.08608 -0.51964,-0.36463 -0.17001,-0.47787 -0.08744,-1.3292 -0.19562,-1.4769 -0.1719,-0.23513 -0.31219,-0.70341 -0.62306,-0.92075 -0.31087,-0.218 -0.99518,-0.28584 -1.1506,-0.15148 -0.07903,0.06859 -0.05068,0.43621 -0.16382,0.56438 -0.10846,0.12285 -0.35829,0.0067 -0.44145,0.05605 -0.08509,0.04923 -0.43528,0.7511 -0.43528,0.7511 l -0.03176,1.5829 c 0,0 -0.56106,-0.35942 -0.56106,0.0088 0,0.36883 -0.06059,0.83711 -0.12382,0.98793 -0.06257,0.15016 -0.07838,1.1388 -0.03095,1.3897 0.04676,0.25094 0.07771,0.75478 0.06257,0.93788 -0.0099,0.1067 -0.03491,0.29836 -0.05335,0.44128 3.5322,0.0074 3.5693,0.0019 5.3539,4e-6 z m -0.6606,-0.0573 c -0.07574,-0.08892 -0.18902,-0.2101 -0.26213,-0.34248 -0.10472,-0.18902 -0.27135,-0.39649 -0.33458,-0.79364 -0.06192,-0.39781 -0.20878,-0.7528 -0.31284,-0.7719 -0.10538,-0.02174 -0.06388,0.48014 -0.12448,0.7719 -0.01186,0.05006 -0.03095,0.09682 -0.05071,0.14424 -0.0415,-0.19824 -0.26082,-0.56642 -0.27399,-0.8325 -0.01449,-0.30231 -0.94866,-0.65997 -1.0277,-0.89378 -0.07706,-0.23513 0.4672,-0.7475 0.49816,-0.93126 0.03228,-0.18507 -0.49792,-0.73369 -0.48278,-0.95037 0.01514,-0.21932 0.46678,-0.45069 0.43648,-0.65157 -0.03095,-0.20154 0.04629,-0.32387 0.12533,-0.3568 -1.4007,-1.8299 0.05442,-0.48346 0.06192,-0.48606 0.18639,0.05137 0.15543,0.78771 0.1719,0.92141 0.01448,0.1337 0.10821,-0.34818 0.21754,-0.1967 0.10867,0.14951 0.1401,0.39758 0.23296,0.34687 0.09352,-0.05006 -0.31115,0.73193 -0.26505,1.0836 0.04479,0.35105 0.42048,0.52341 0.43432,0.82506 0.01647,0.30165 0.20286,0.53612 0.24962,0.53612 0.0461,0 0.06323,-0.36883 0.06323,-0.51965 0,-0.15017 0.09287,-0.45116 0.09287,-0.45116 0,0 0.09418,0.21669 0.10933,0.41822 0.01515,0.20022 0.41954,1.2547 0.46565,1.3219 0.04676,0.0685 0.09485,0.20022 0.10933,0.30165 0.01516,0.10077 0.34314,1.5056 0.34314,1.5056 l -0.4775,0 z"
           id="path4462"
           inkscape:connector-curvature="0" />
      </g>
    </g>
    <rect
       x="4.5"
       y="5.5"
       width="39"
       height="39"
       ry="2"
       rx="2"
       style="color:#000000;opacity:0.7;fill:none;stroke:#000000;stroke-linecap:round;stroke-linejoin:round"
       id="rect5505-21-3-2" />
    <rect
       x="5.5"
       y="6.5"
       width="37"
       height="37"
       ry="1"
       rx="1"
       id="rect6741"
       style="opacity:0.3;fill:none;stroke:url(#linearGradient3074);stroke-linecap:round;stroke-linejoin:round" />
    <g
       transform="translate(0,-6)"
       id="g4223">
      <path
         d="m 10.122,17.503 a 0.5036,0.49653 0 0 0 -0.50355,0.49648 l 0,0.77186 a 0.5036,0.49653 0 0 0 0.50355,0.49648 c 0.43283,0 0.71711,0.07159 0.83204,0.13576 0.11493,0.06417 0.10425,0.0486 0.10425,0.17066 l 0,8.6631 c 0,0.10974 0.01835,0.09168 -0.11999,0.1629 -0.13834,0.07123 -0.46121,0.14545 -0.93826,0.14545 a 0.5036,0.49653 0 0 0 -0.5032,0.498 l 0,0.76992 a 0.5036,0.49653 0 0 0 0.50355,0.49648 l 5.2597,0 a 0.5036,0.49653 0 0 0 0.50355,-0.49648 l 0,-0.76992 a 0.5036,0.49653 0 0 0 -0.50355,-0.49648 c -0.45817,0 -0.76477,-0.07327 -0.89301,-0.14157 -0.12824,-0.06831 -0.11212,-0.05177 -0.11212,-0.16678 l 0,-2.9071 c 0.25374,0.01201 0.50575,0.03103 0.76319,0.03103 1.3852,0 2.594,-0.31902 3.5799,-0.9755 a 0.5036,0.49653 0 0 0 0.0039,-0.0019 c 1.0229,-0.69415 1.5559,-1.8145 1.5559,-3.165 0,-1.1821 -0.58746,-2.1831 -1.6306,-2.8024 -1.0272,-0.62032 -2.3225,-0.91344 -3.8573,-0.91344 l -4.5477,0 z m 18.224,0 a 0.5036,0.49653 0 0 0 -0.50355,0.49648 l 0,0.77186 a 0.5036,0.49653 0 0 0 0.50355,0.49648 c 0.46447,0 0.77715,0.07228 0.90875,0.14157 0.1316,0.0693 0.11605,0.05159 0.11605,0.16485 l 0,8.6631 c 0,0.11326 0.01554,0.09555 -0.11605,0.16484 -0.1316,0.0693 -0.44428,0.14351 -0.90875,0.14351 a 0.5036,0.49653 0 0 0 -0.50355,0.49648 l 0,0.76992 a 0.5036,0.49653 0 0 0 0.50355,0.49648 l 5.2774,0 a 0.5036,0.49653 0 0 0 0.50355,-0.49648 l 0,-0.76992 A 0.5036,0.49653 0 0 0 33.6234,28.54569 c -0.47076,0 -0.78756,-0.07324 -0.92252,-0.14351 -0.13496,-0.07027 -0.11802,-0.05335 -0.11802,-0.16484 l 0,-3.5102 1.5441,0 c 0.53411,0 0.89968,0.10719 1.135,0.26957 a 0.5036,0.49653 0 0 0 0.0098,0.0078 c 0.16676,0.10961 0.29702,0.33779 0.29702,0.88822 a 0.5036,0.49653 0 0 0 0.50355,0.49648 l 0.8163,0 a 0.5036,0.49653 0 0 0 0.50355,-0.49648 l 0,-4.4179 a 0.5036,0.49653 0 0 0 -0.0118,-0.10278 l 0.6196,0 a 0.5036,0.49653 0 0 0 0.50355,-0.49648 l 0,-2.8761 a 0.5036,0.49653 0 0 0 -0.50355,-0.49648 l -9.654,0 z m -17.119,0.99295 3.4422,0 c 1.4052,0 2.5073,0.26796 3.3321,0.76605 a 0.5036,0.49653 0 0 0 0.0039,0.0019 c 0.80561,0.47657 1.1448,1.0618 1.1448,1.9549 0,1.1133 -0.35926,1.8293 -1.1173,2.3447 -8.23e-4,5.59e-4 -0.0011,0.0014 -0.002,0.0019 -0.79602,0.52896 -1.7844,0.80289 -3.0134,0.80289 -0.41466,0 -0.82297,-0.01736 -1.2254,-0.05042 a 0.5036,0.49653 0 0 0 -0.54486,0.49648 l 0,3.423 c 0,0.42136 0.26597,0.83961 0.64124,1.0395 0.05546,0.02954 0.14387,0.01506 0.2026,0.03879 l -2.8777,0 c 0.05482,-0.02191 0.13884,-0.0082 0.1908,-0.03491 0.38253,-0.19696 0.66091,-0.61674 0.66091,-1.0434 l 0,-8.6631 c 0,-0.41432 -0.25024,-0.82965 -0.61567,-1.0337 -0.06118,-0.03416 -0.15705,-0.01805 -0.22227,-0.0446 z m 18.295,0 7.9742,0 0,1.5515 c -0.01488,-0.0585 -0.02974,-0.12355 -0.04524,-0.17648 l 0,-0.0019 c -0.043,-0.215 -0.159,-0.41 -0.31,-0.56 l 0.0236,0.02327 c -0.07809,-0.08799 -0.1384,-0.15797 -0.17703,-0.20557 l 0.03737,0.0543 C 36.87334,18.93202 36.6686,18.86999 36.48398,18.82035 36.41927,18.79193 36.33578,18.74944 36.3876,18.7835 l 0.07671,0.06206 c -0.21928,-0.2162 -0.2797,-0.15282 -0.35996,-0.16678 -0.07965,-0.01386 -0.1595,-0.02273 -0.25571,-0.02909 l -0.002,0 C 35.6854,18.63829 35.6403,18.63224 35.53389,18.63224 l -0.32849,0 -0.33045,0 -2.2915,0 c -0.24308,0 -0.50587,0.05454 -0.71402,0.23854 -0.20815,0.184 -0.29308,0.46139 -0.29308,0.70205 l 0,3.5277 a 0.5036,0.49653 0 0 0 0.50355,0.49648 l 2.0476,0 c 0.67364,0 1.2482,-0.11445 1.7014,-0.40726 a 0.5036,0.49653 0 0 0 0.002,-0.0019 c 0.25665,-0.1687 0.43415,-0.41068 0.55469,-0.69429 l 0,2.3777 c -0.121,-0.282 -0.298,-0.522 -0.552,-0.69 -0.459,-0.315 -1.04,-0.448 -1.708,-0.448 l -2.0476,0 a 0.5036,0.49653 0 0 0 -0.50355,0.49648 l 0,4.0067 c 0,0.42488 0.27489,0.84352 0.65501,1.0414 0.0537,0.02796 0.13995,0.01415 0.1967,0.03685 l -2.8954,0 c 0.05678,-0.02293 0.14298,-0.0086 0.1967,-0.03685 0.3777,-0.19889 0.64911,-0.61832 0.64911,-1.0414 l 0,-8.6631 c 0,-0.42312 -0.27141,-0.8406 -0.64911,-1.0395 -0.05641,-0.02971 -0.14674,-0.01498 -0.20653,-0.03879 z M 14.27,18.58322 c -0.14152,0 -0.26485,0.0055 -0.38946,0.02909 -0.12462,0.02363 -0.26344,0.05029 -0.417,0.20169 a 0.5036,0.49653 0 0 0 -0.03737,0.04073 c -0.14079,0.17352 -0.14032,0.28388 -0.15736,0.40145 -0.01703,0.11757 -0.02164,0.24224 -0.02164,0.38787 l 0,4.0901 a 0.5036,0.49653 0 0 0 0.41897,0.49066 c 0.2352,0.03865 0.4718,0.05818 0.70812,0.05818 1.0598,0 1.9296,-0.21478 2.5512,-0.72726 0.62156,-0.51248 0.92252,-1.3018 0.92252,-2.2167 0,-0.86416 -0.33054,-1.6211 -0.97169,-2.0926 -0.64115,-0.47143 -1.5193,-0.66326 -2.6063,-0.66326 z m -0.0118,0.99295 c 0.0058,-5.1e-5 0.0058,0 0.0118,0 0.96179,0 1.6211,0.18367 2.0044,0.46545 0.38322,0.28178 0.56649,0.65517 0.56649,1.2974 0,0.71703 -0.19446,1.151 -0.56256,1.4545 -0.3681,0.3035 -0.98458,0.49648 -1.904,0.49648 -0.04001,0 -0.07997,-0.0082 -0.11999,-0.0097 l 0,-3.6363 c 0,-0.03222 0.0031,-0.04047 0.0039,-0.06788 z m 18.324,0.05042 2.2915,0 0.33045,0 0.32849,0 c -0.06077,0 0.08159,0.0042 0.24194,0.01552 a 0.5036,0.49653 0 0 0 0.0039,0 c 0.07644,0.005 0.13136,0.01236 0.14949,0.01552 9.97e-4,1.73e-4 -0.0107,-0.0064 -0.0098,-0.0058 0.08453,0.04424 0.1567,0.07945 0.25964,0.11636 a 0.5036,0.49653 0 0 0 0.03934,0.01164 c 0.07002,0.01883 0.02507,0.0496 -0.05704,-0.08533 a 0.5036,0.49653 0 0 0 0.03934,0.0543 c 0.05397,0.06652 0.12061,0.14394 0.20457,0.23854 a 0.5036,0.49653 0 0 0 0.0236,0.02521 c 0.03326,0.03279 0.03251,0.04004 0.03541,0.0543 a 0.5036,0.49653 0 0 0 0.0118,0.04461 c 0.02941,0.09667 0.06175,0.22206 0.09441,0.37236 a 0.5036,0.49653 0 0 0 0.0118,0.04267 c 0.03616,0.11587 0.06447,0.25255 0.08458,0.41114 a 0.5036,0.49653 0 0 0 0.0079,0.04073 l -0.6019,0 a 0.5036,0.49653 0 0 0 -0.50355,0.49648 c 0,0.54935 -0.13073,0.77642 -0.29702,0.88629 -3.28e-4,2.17e-4 3.28e-4,0.0017 0,0.0019 -0.2184,0.14007 -0.5935,0.24242 -1.1448,0.24242 l -1.5441,0 0,-2.9789 z m -8.6135,1.4371 c -1.3409,0 -2.4838,0.47807 -3.2829,1.408 -0.78789,0.90524 -1.1782,2.068 -1.1782,3.4036 0,1.2265 0.42108,2.3334 1.2372,3.2387 a 0.5036,0.49653 0 0 0 0.0059,0.0058 c 0.83835,0.90287 1.9517,1.3769 3.218,1.3769 1.3489,0 2.5143,-0.51291 3.3537,-1.4933 0.82653,-0.96536 1.2471,-2.1498 1.2471,-3.4714 0,-1.2919 -0.43641,-2.407 -1.2982,-3.231 -0.84862,-0.8221 -1.9866,-1.2373 -3.3026,-1.2373 z m 0,0.99295 c 1.1131,0 1.9426,0.31755 2.5984,0.95416 a 0.5036,0.49653 0 0 0 0.0039,0.0019 c 0.66608,0.63682 0.99136,1.4374 0.99136,2.5192 0,1.1206 -0.33086,2.0374 -1.0091,2.8295 -0.35912,0.41944 -0.77506,0.69767 -1.2431,0.88435 0.29508,-0.17908 0.54838,-0.43028 0.72976,-0.74665 0.35171,-0.61351 0.51732,-1.344 0.51732,-2.1624 0,-0.43842 -0.03781,-0.872 -0.11212,-1.2994 -0.07493,-0.43096 -0.19898,-0.86418 -0.3698,-1.2994 -0.17726,-0.49515 -0.47407,-0.91719 -0.87334,-1.2276 -0.36073,-0.28995 -0.8165,-0.40822 -1.2844,-0.44411 0.01954,-2.17e-4 0.0314,-0.0097 0.05114,-0.0097 z m -1.2392,0.22496 c -0.28,0.16034 -0.52453,0.38108 -0.70025,0.6652 a 0.5036,0.49653 0 0 0 -0.0059,0.0058 c -0.33731,0.56814 -0.48388,1.2695 -0.48388,2.0829 0,1.2394 0.19642,2.2814 0.62747,3.1185 0.40605,0.78856 1.1098,1.2514 1.9218,1.3265 -0.04453,0.0012 -0.07448,0.02327 -0.11999,0.02327 -1.0255,0 -1.8081,-0.33734 -2.4745,-1.055 -0.66202,-0.73671 -0.97956,-1.5657 -0.97956,-2.5735 0,-1.1513 0.31322,-2.0428 0.93629,-2.7578 a 0.5036,0.49653 0 0 0 0.0039,-0.0039 c 0.34996,-0.40727 0.78239,-0.66089 1.2746,-0.83198 z m 1.015,0.71756 c 0.33825,0 0.58838,0.08865 0.82614,0.28121 a 0.5036,0.49653 0 0 0 0.0079,0.0058 c 0.24603,0.19059 0.42545,0.43932 0.54879,0.78544 a 0.5036,0.49653 0 0 0 0.0039,0.01357 c 0.15088,0.38252 0.25733,0.75696 0.32062,1.1209 0.06459,0.37149 0.09835,0.74738 0.09835,1.1306 0,0.68802 -0.13731,1.2372 -0.3875,1.6737 -0.23291,0.40628 -0.45689,0.53526 -0.88121,0.53526 -0.55604,0 -0.89415,-0.2136 -1.2176,-0.84168 -0.3329,-0.6465 -0.51732,-1.5342 -0.51732,-2.6686 0,-0.69042 0.12743,-1.2073 0.34422,-1.5748 0.21267,-0.34263 0.42812,-0.46157 0.85367,-0.46157 z"
         style="color:#000000;text-indent:0;text-decoration:none;text-decoration-line:none;text-decoration-style:solid;text-decoration-color:#000000;text-transform:none;block-progression:tb;white-space:normal;opacity:0.15;isolation:auto;mix-blend-mode:normal;solid-color:#000000;color-rendering:auto;image-rendering:auto;shape-rendering:auto"
         id="text4333"
         inkscape:connector-curvature="0" />
      <text
         line-height="125%"
         x="9.9639874"
         y="30.22476"
         font-weight="bold"
         transform="scale(1.0071,0.99295)"
         style="font-weight:bold;font-size:17.23999977px;line-height:125%;font-family:Kinnari;letter-spacing:0px;word-spacing:0px;opacity:0.15;fill:none;stroke:#000000;stroke-width:0.5;stroke-linecap:round;stroke-linejoin:round"
         xml:space="preserve"
         font-size="17.24px"
         id="text4337"
         sodipodi:linespacing="125%"><tspan
           x="9.9639874"
           y="30.22476"
           id="tspan4339">PoF</tspan></text>
      <g
         transform="scale(1.0071,0.99295)"
         id="text4245"
         style="fill:#9c7a38">
        <path
           d="m 19.515,21.369 q 0,1.8619 -1.3275,2.7756 -1.328,0.896 -3.276,0.896 -0.63788,0 -1.2585,-0.05172 l 0,3.448 q 0,0.81028 1.4999,0.81028 l 0,0.7758 -5.2237,0 0,-0.7758 q 1.5516,0 1.5516,-0.81028 l 0,-8.7234 q 0,-0.81028 -1.4309,-0.81028 l 0,-0.7758 4.5169,0 q 2.1895,0 3.5687,0.84476 1.3792,0.82752 1.3792,2.3964 z m -2.2929,0.12068 q 0,-2.2757 -3.0515,-2.2757 -0.36204,0 -0.44824,0.0862 -0.06896,0.0862 -0.06896,0.48272 l 0,4.1203 q 0.31032,0.05172 0.62064,0.05172 2.948,0 2.948,-2.4653 z"
           id="path4225"
           inkscape:connector-curvature="0" />
        <path
           d="m 27.87,25.713 q 0,1.8447 -1.1206,3.1721 -1.1206,1.3275 -2.948,1.3275 -1.7068,0 -2.8273,-1.224 -1.1034,-1.2413 -1.1034,-2.9308 0,-1.8792 1.0516,-3.1032 1.0516,-1.2413 2.8791,-1.2413 1.8102,0 2.9308,1.1034 1.1378,1.1034 1.1378,2.8963 z m -1.9998,0.81028 q 0,-0.62064 -0.10344,-1.224 -0.10344,-0.6034 -0.3448,-1.224 -0.22412,-0.63788 -0.70684,-1.0172 -0.48272,-0.39652 -1.1378,-0.39652 -0.84476,0 -1.2758,0.70684 -0.41376,0.70684 -0.41376,1.8447 0,1.793 0.56892,2.9135 0.56892,1.1206 1.655,1.1206 0.862,0 1.3102,-0.79304 0.44824,-0.79304 0.44824,-1.9309 z"
           id="path4227"
           inkscape:connector-curvature="0" />
        <path
           d="m 37.732,21.024 -0.82752,0 Q 36.87,20.74816 36.80104,20.52404 36.74932,20.28268 36.6976,20.11028 36.66312,19.93788 36.5252,19.79996 36.40452,19.66204 36.33556,19.57584 36.28384,19.48964 36.0942,19.43792 35.90456,19.36896 35.85284,19.33448 35.81836,19.3 35.55976,19.28276 35.3184,19.26552 35.28392,19.26552 q -0.03448,0 -0.32756,0 -0.29308,0 -0.32756,0 l -2.2757,0 q -0.49996,0 -0.49996,0.44824 l 0,3.5514 2.0343,0 q 0.91372,0 1.4137,-0.32756 0.5172,-0.3448 0.5172,-1.3102 l 0.81028,0 0,4.4479 -0.81028,0 q 0,-0.96544 -0.5172,-1.3102 -0.5172,-0.36204 -1.4137,-0.36204 l -2.0343,0 0,4.0341 q 0,0.81028 1.5344,0.81028 l 0,0.7758 -5.2409,0 0,-0.7758 q 1.5171,0 1.5171,-0.81028 l 0,-8.7234 q 0,-0.81028 -1.5171,-0.81028 l 0,-0.7758 9.5854,0 0,2.8963 z"
           id="path4229"
           inkscape:connector-curvature="0" />
      </g>
    </g>
  </g>
</svg>
