<?xml version="1.0" encoding="UTF-8" standalone="no"?>
<!-- Created with Inkscape (http://www.inkscape.org/) -->

<svg
   xmlns:dc="http://purl.org/dc/elements/1.1/"
   xmlns:cc="http://creativecommons.org/ns#"
   xmlns:rdf="http://www.w3.org/1999/02/22-rdf-syntax-ns#"
   xmlns:svg="http://www.w3.org/2000/svg"
   xmlns="http://www.w3.org/2000/svg"
   xmlns:sodipodi="http://sodipodi.sourceforge.net/DTD/sodipodi-0.dtd"
   xmlns:inkscape="http://www.inkscape.org/namespaces/inkscape"
   id="svg4951"
   height="48"
   width="48"
   version="1.1"
   inkscape:version="0.91 r13725"
   sodipodi:docname="pycharm.svg">
  <sodipodi:namedview
     pagecolor="#ffffff"
     bordercolor="#666666"
     borderopacity="1"
     objecttolerance="10"
     gridtolerance="10"
     guidetolerance="10"
     inkscape:pageopacity="0"
     inkscape:pageshadow="2"
     inkscape:window-width="1535"
     inkscape:window-height="876"
     id="namedview24"
     showgrid="false"
     inkscape:zoom="4.9166667"
     inkscape:cx="-10.779661"
     inkscape:cy="24"
     inkscape:window-x="65"
     inkscape:window-y="24"
     inkscape:window-maximized="1"
     inkscape:current-layer="svg4951" />
  <defs
     id="defs4953">
    <radialGradient
       id="radialGradient3302"
       gradientUnits="userSpaceOnUse"
       cy="186.17"
       cx="99.157"
       gradientTransform="matrix(.27083 0 0 .087623 -2.8551 25.187)"
       r="62.769">
      <stop
         id="stop3822-2-6-3"
         stop-color="#3d3d3d"
         offset="0" />
      <stop
         id="stop3864-8-7-7"
         stop-color="#686868"
         stop-opacity=".49804"
         offset=".5" />
      <stop
         id="stop3824-1-2-5"
         stop-color="#686868"
         stop-opacity="0"
         offset="1" />
    </radialGradient>
    <radialGradient
       id="radialGradient4448"
       gradientUnits="userSpaceOnUse"
       cy="-17.681"
       cx="14.892"
       gradientTransform="matrix(-1.4387 3.8089e-8 -2.8328e-8 -1.07 45.169 -14.596)"
       r="25.571">
      <stop
         id="stop3750-1-0-7-6-6-1-3-9-3"
         stop-color="#5f5f5f"
         offset="0" />
      <stop
         id="stop3752-3-7-4-0-32-8-923-0-7"
         stop-color="#515151"
         offset=".26238" />
      <stop
         id="stop3754-1-8-5-2-7-6-7-1-9"
         stop-color="#404040"
         offset=".70495" />
      <stop
         id="stop3756-1-6-2-6-6-1-96-6-0"
         stop-color="#343434"
         offset="1" />
    </radialGradient>
    <linearGradient
       id="linearGradient4450"
       y2="32.568"
       gradientUnits="userSpaceOnUse"
       x2="15.124"
       gradientTransform="matrix(.76418 0 0 .76418 12.377 18.778)"
       y1="-18.801"
       x1="15.124">
      <stop
         id="stop4413"
         stop-color="#fff"
         offset="0" />
      <stop
         id="stop4415"
         stop-color="#fff"
         stop-opacity="0"
         offset="1" />
    </linearGradient>
  </defs>
  <metadata
     id="metadata4956">
    <rdf:RDF>
      <cc:Work
         rdf:about="">
        <dc:format>image/svg+xml</dc:format>
        <dc:type
           rdf:resource="http://purl.org/dc/dcmitype/StillImage" />
        <dc:title />
      </cc:Work>
    </rdf:RDF>
  </metadata>
  <circle
     id="path2985-6"
     cy="24"
     cx="24"
     r="20.526"
     fill="url(#radialGradient4448)" />
  <circle
     id="path3755-9"
     opacity=".6"
     stroke-width=".94845"
     stroke="#242424"
     cy="24"
     cx="24"
     r="20.526"
     fill="none" />
  <circle
     id="path3773-9"
     opacity=".6"
     stroke-width=".93261"
     stroke-opacity=".58824"
     stroke="url(#linearGradient4450)"
     cy="24"
     cx="24"
     r="19.54"
     fill="none" />
  <g
     id="g4436"
     transform="translate(-.20769 -.096690)">
    <path
       id="path55"
       d="m13.314 35.009c-0.05924-0.06261-0.10918-3.1172-0.10579-6.786 0-7.4798 0.0694-8.1373 1.0478-10.171 1.4345-2.9877 4.7742-5.0269 8.1029-4.9541 0.49257 0.01015 1.1045 0.06261 1.3618 0.12269 0.45956 0.10238 0.44941 0.11592-0.79641 1.0907-3.6503 2.8557-5.6036 7.8166-4.0032 10.147 0.2649 0.3833 0.79048 0.92229 1.1705 1.193 0.58228 0.4163 0.87258 0.50599 1.8611 0.55506 1.0114 0.05331 1.2797 0.0034 1.9999-0.37061 2.4992-1.897 2.9986-5.9399 6.3179-6.0287 0.57213 0 0.61529 0.03638 0.73378 0.61514 0.21497 1.0475 0.12272 3.3482-0.17858 4.3991-1.1341 3.9565-4.6515 6.6464-8.7114 6.6599-0.5425 0.0034-1.5471-0.14554-2.2386-0.32745-0.694-0.18192-1.3161-0.33422-1.3888-0.33422-0.07279 0-0.14896 0.94513-0.17519 2.0984l-0.04316 2.0959-2.4197 0.04992c-1.3321 0.01946-2.473-0.01015-2.5356-0.06938m7.634-10.189c17.624 6.5406 8.8104 3.2652 0 0"
       fill="#f5971b" />
    <path
       id="path57"
       d="m28.881 35.013c-1.7358-0.3503-2.2216-0.48907-3.0781-0.88252-1.289-0.59483-2.2775-1.2861-1.9771-1.3716 2.5323-0.74037 3.4844-1.1897 4.8165-2.2676l0.87258-0.70398 1.9178 0.04992c1.0545 0.02623 2.0727 0.10577 2.2648 0.18192 0.53573 0.21153 1.3457 1.2464 1.4582 1.8776 0.22174 1.1998-0.37324 2.4157-1.4185 2.8989-0.5552 0.25807-1.0283 0.31053-2.6084 0.30038-1.0613-0.01015-2.0761-0.04654-2.2513-0.08292m-7.98-10.448c-0.72701-0.43322-1.2627-1.375-1.2627-2.2346 0-0.77337 0.40624-2.0324 1.1239-3.4971 0.75748-1.5433 2.9029-3.6756 4.5025-4.4752 1.9542-0.97136 2.8793-1.144 5.855-1.0839 2.2877 0.04654 2.6414 0.08884 3.0282 0.37991 0.52558 0.39684 1.1307 1.5763 1.0579 2.0756-0.08294 0.56522-0.27472 0.96548-0.61928 1.0243-0.76824 0.13124-1.0429-0.32463-1.2806 0.03006-0.23526 0.35099 2.0168 0.06694 0.45409 1.1835-0.82989 0.398-1.1059 0.47565-2.7089 0.53488-2.0693 0.07615-2.4332 0.13538-3.2169 0.50937-0.94198 0.45607-2.1159 1.5433-2.5196 2.3463-0.13541 0.27076-0.38678 0.89944-0.5552 1.4012-0.49596 1.4638-1.3288 2.1653-2.5856 2.1551-0.40624-0.0034-0.93267-0.14554-1.2797-0.3503m12.064-9.2212c0.47649-0.48906 0.01354-1.6093-0.66438-1.6093-0.76001 0-1.19 1.0052-0.65761 1.5501 0.29791 0.30038 1.0478 0.33676 1.3228 0.05584"
       fill="#fff" />
  </g>
</svg>
