<?xml version="1.0" encoding="UTF-8" standalone="no"?>
<!-- Created with Inkscape (http://www.inkscape.org/) -->

<svg
   xmlns:dc="http://purl.org/dc/elements/1.1/"
   xmlns:cc="http://creativecommons.org/ns#"
   xmlns:rdf="http://www.w3.org/1999/02/22-rdf-syntax-ns#"
   xmlns:svg="http://www.w3.org/2000/svg"
   xmlns="http://www.w3.org/2000/svg"
   xmlns:sodipodi="http://sodipodi.sourceforge.net/DTD/sodipodi-0.dtd"
   xmlns:inkscape="http://www.inkscape.org/namespaces/inkscape"
   id="svg3143"
   height="48"
   width="48"
   version="1.1"
   inkscape:version="0.91 r13725"
   sodipodi:docname="rwr.svg">
  <sodipodi:namedview
     pagecolor="#ffffff"
     bordercolor="#666666"
     borderopacity="1"
     objecttolerance="10"
     gridtolerance="10"
     guidetolerance="10"
     inkscape:pageopacity="0"
     inkscape:pageshadow="2"
     inkscape:window-width="1535"
     inkscape:window-height="876"
     id="namedview244"
     showgrid="false"
     inkscape:zoom="4.9166667"
     inkscape:cx="-10.779661"
     inkscape:cy="24"
     inkscape:window-x="65"
     inkscape:window-y="24"
     inkscape:window-maximized="1"
     inkscape:current-layer="svg3143" />
  <defs
     id="defs3145">
    <radialGradient
       id="radialGradient3030"
       gradientUnits="userSpaceOnUse"
       cy="43.5"
       cx="4.993"
       gradientTransform="matrix(2.0038,0,0,1.4,27.988,-17.4)"
       r="2.5">
      <stop
         id="stop2883"
         stop-color="#181818"
         offset="0" />
      <stop
         id="stop2885"
         stop-color="#181818"
         stop-opacity="0"
         offset="1" />
    </radialGradient>
    <radialGradient
       id="radialGradient3032"
       gradientUnits="userSpaceOnUse"
       cy="43.5"
       cx="4.993"
       gradientTransform="matrix(2.0038,0,0,1.4,-20.012,-104.4)"
       r="2.5">
      <stop
         id="stop2889"
         stop-color="#181818"
         offset="0" />
      <stop
         id="stop2891"
         stop-color="#181818"
         stop-opacity="0"
         offset="1" />
    </radialGradient>
    <linearGradient
       id="linearGradient3034"
       y2="39.999"
       gradientUnits="userSpaceOnUse"
       x2="25.058"
       y1="47.028"
       x1="25.058">
      <stop
         id="stop2895"
         stop-color="#181818"
         stop-opacity="0"
         offset="0" />
      <stop
         id="stop2897"
         stop-color="#181818"
         offset=".5" />
      <stop
         id="stop2899"
         stop-color="#181818"
         stop-opacity="0"
         offset="1" />
    </linearGradient>
    <linearGradient
       id="linearGradient3044"
       y2="43"
       gradientUnits="userSpaceOnUse"
       x2="24"
       gradientTransform="translate(5.3e-6,1)"
       y1="5"
       x1="24">
      <stop
         id="stop3926-7"
         stop-color="#fff"
         offset="0" />
      <stop
         id="stop3928-3"
         stop-color="#fff"
         stop-opacity=".23529"
         offset=".063165" />
      <stop
         id="stop3930-7"
         stop-color="#fff"
         stop-opacity=".15686"
         offset=".95056" />
      <stop
         id="stop3932-1"
         stop-color="#fff"
         stop-opacity=".39216"
         offset="1" />
    </linearGradient>
    <radialGradient
       id="radialGradient4504"
       gradientUnits="userSpaceOnUse"
       cy="9.9941"
       cx="8.2761"
       gradientTransform="matrix(0,6.6678,-8.1859,0,105.88,-59.463)"
       r="12.672">
      <stop
         id="stop4199"
         stop-color="#dec85b"
         offset="0" />
      <stop
         id="stop4201"
         stop-color="#dfb332"
         offset=".26238" />
      <stop
         id="stop4203"
         stop-color="#b0783c"
         offset=".66094" />
      <stop
         id="stop4205"
         stop-color="#5d3917"
         offset="1" />
    </radialGradient>
  </defs>
  <metadata
     id="metadata3148">
    <rdf:RDF>
      <cc:Work
         rdf:about="">
        <dc:format>image/svg+xml</dc:format>
        <dc:type
           rdf:resource="http://purl.org/dc/dcmitype/StillImage" />
        <dc:title />
      </cc:Work>
    </rdf:RDF>
  </metadata>
  <g
     id="g4381"
     transform="translate(0,-1)">
    <rect
       id="rect4502"
       style="color:#000000;fill:url(#radialGradient4504)"
       rx="2"
       ry="2"
       height="39"
       width="39"
       y="5.5"
       x="4.5" />
    <path
       id="rect4507"
       d="M 4.5,16.724 6.7812,19 l 6.8629,-7.68 2.371,4.8864 3.1387,-1.3251 2.824,4.119 6.5775,-2.9282 1.6059,1.0195 2.7646,-0.95086 2.6395,2.4883 3.487,0.371 2.057,-0.996 2.39,0.996 0,20 -39,0 z"
       inkscape:connector-curvature="0"
       style="fill:#a7701f" />
    <path
       id="rect5505-21"
       style="color:#000000;fill:#161616"
       d="m 22.998,7 c -0.122,-0.0177 -0.352,0.233 -0.578,0.6699 -0.188,0.3647 -0.586,0.9355 -0.883,1.2696 -0.297,0.334 -0.746,1.0139 -1,1.5095 -0.773,1.511 -1.97,3.442 -2.133,3.442 -0.353,0 -0.761,-0.347 -0.957,-0.813 -0.244,-0.582 -0.55,-0.635 -0.89,-0.154 -0.217,0.305 -0.211,0.416 0.068,1.023 0.172,0.375 0.316,0.809 0.318,0.963 0.005,0.341 -0.539,0.657 -0.896,0.522 -0.177,-0.067 -0.311,0.039 -0.426,0.338 -0.249,0.647 -0.206,0.908 0.15,0.908 0.459,0 0.842,0.17 0.842,0.375 0,0.097 -0.634,0.818 -1.41,1.601 -0.776,0.783 -1.41,1.501 -1.41,1.596 0,0.297 1.083,1.59 1.332,1.59 0.13,0 0.65,-0.747 1.154,-1.66 1.184,-2.146 1.25,-2.219 1.981,-2.159 l 0.595,0.049 0.014,0.996 c 0.011,0.762 0.126,1.193 0.483,1.84 0.697,1.265 0.945,1.439 1.703,1.198 0.342,-0.11 0.845,-0.213 1.119,-0.231 0.551,-0.036 0.547,-0.053 0.33,1.607 -0.133,1.021 -0.395,1.722 -0.641,1.715 -0.103,-0.003 -0.325,-0.107 -0.494,-0.234 -0.221,-0.166 -0.423,-0.188 -0.717,-0.078 -0.224,0.084 -0.629,0.154 -0.9,0.154 -0.565,0 -0.725,0.26 -0.512,0.83 0.172,0.459 -0.044,1.232 -0.381,1.36 -0.121,0.046 -0.356,-0.016 -0.521,-0.135 -0.252,-0.182 -0.301,-0.467 -0.309,-1.762 -0.01,-1.751 -0.215,-2.232 -1.093,-2.592 -0.453,-0.185 -0.6,-0.181 -0.965,0.022 -0.967,0.536 -1.014,1.286 -0.233,3.752 0.245,0.774 0.46,1.867 0.481,2.459 0.047,1.334 0.256,2.332 0.506,2.414 0.268,0.088 1.349,-0.886 1.66,-1.496 0.475,-0.932 1.07,-1.432 1.574,-1.323 0.383,0.083 0.494,0.022 0.717,-0.404 0.402,-0.768 1.031,-0.692 1.892,0.231 0.377,0.403 0.686,0.765 0.686,0.8 0,0.036 -0.113,0.379 -0.25,0.762 -0.137,0.383 -0.248,0.996 -0.248,1.361 0,0.747 0.55,2.009 0.973,2.233 0.336,0.178 3.053,-0.175 3.109,-0.404 0.021,-0.087 0.083,-0.362 0.139,-0.61 0.085,-0.384 0.184,-0.449 0.664,-0.449 l 0.564,0 0.055,1.98 c 0.051,1.852 0.081,2.003 0.447,2.295 0.476,0.38 1.555,0.418 1.852,0.065 0.31,-0.37 0.111,-3.049 -0.313,-4.196 -0.207,-0.559 -0.308,-1.136 -0.258,-1.474 0.104,-0.704 -0.519,-1.843 -1.049,-1.918 -0.279,-0.04 -0.429,0.09 -0.658,0.568 -0.397,0.83 -1.036,1.189 -1.592,0.895 -0.313,-0.166 -0.489,-0.172 -0.763,-0.028 -0.471,0.249 -0.682,0.097 -0.682,-0.492 0,-0.543 0.026,-0.554 0.746,-0.297 1.04,0.372 1.829,-0.51 2.03,-2.265 0.1,-0.883 -0.206,-1.796 -0.715,-2.125 -0.387,-0.25 -0.401,-0.326 -0.401,-2.256 0,-2.117 0.089,-2.391 0.778,-2.391 0.312,0 0.413,0.134 0.57,0.75 0.152,0.595 0.325,0.833 0.834,1.151 0.73,0.455 0.774,0.66 0.309,1.414 -0.183,0.295 -0.332,0.715 -0.333,0.933 0,0.516 0.449,0.998 0.93,0.998 0.816,0 1.159,-1.356 0.649,-2.562 -0.136,-0.321 -0.236,-0.856 -0.223,-1.188 0.013,-0.331 -0.063,-0.761 -0.168,-0.955 -0.105,-0.193 -0.271,-0.723 -0.369,-1.177 -0.206,-0.949 -0.701,-1.659 -1.156,-1.659 -0.173,0 -0.734,0.156 -1.248,0.346 -1.019,0.376 -1.304,0.29 -1.209,-0.367 0.048,-0.336 0.134,-0.381 0.64,-0.338 0.548,0.046 0.61,0.001 0.955,-0.701 0.305,-0.619 0.368,-1.029 0.367,-2.344 0,-2.018 -0.166,-2.594 -1.029,-3.562 -1.787,-2.0054 -3.946,-1.5615 -5.181,1.066 -0.522,1.109 -0.529,1.427 -0.053,1.928 l 0.373,0.392 -0.555,0.446 c -0.784,0.631 -0.694,1.197 0.223,1.39 1.205,0.255 1.412,0.387 1.412,0.908 0,0.265 0.054,0.506 0.123,0.536 0.236,0.103 1.022,1.341 0.937,1.476 -0.046,0.075 -0.509,0.138 -1.029,0.141 -0.566,0.003 -1.074,0.102 -1.267,0.246 -0.489,0.364 -0.82,0.293 -1.145,-0.25 -0.22,-0.367 -0.417,-0.492 -0.777,-0.492 -0.785,0 -1.161,-1.123 -0.494,-1.475 0.442,-0.234 0.442,-1.196 0,-2.012 l -0.334,-0.613 1.084,-2.137 c 0.809,-1.594 1.187,-2.174 1.494,-2.289 0.459,-0.172 0.493,-0.298 0.23,-0.8669 -0.153,-0.331 -0.1,-0.5347 0.332,-1.291 C 22.857,7.795 23.088,7.3046 23.088,7.1992 23.088,7.0731 23.054,7.0081 22.998,7 Z m -3.445,26.949 c -0.048,-0.004 -0.099,0.02 -0.155,0.074 -0.091,0.091 -0.111,0.252 -0.044,0.358 0.08,0.128 0.174,0.136 0.285,0.027 0.091,-0.09 0.113,-0.249 0.047,-0.355 -0.041,-0.064 -0.086,-0.099 -0.133,-0.104 z m 13.123,0.125 c -0.102,0.019 -0.15,0.14 -0.051,0.297 0.061,0.098 0.188,0.133 0.281,0.076 0.114,-0.069 0.11,-0.161 -0.01,-0.279 -0.079,-0.079 -0.159,-0.105 -0.22,-0.094 z m -24.16,0.797 c -0.072,0 -0.3891,0.424 -0.7051,0.941 -0.906,1.483 -0.9633,1.518 -2.4824,1.518 l -0.8281,0 0,5.17 c 0,1.108 0.892,2 2,2 l 35,0 c 1.108,0 2,-0.892 2,-2 l 0,-5.098 -1.533,0.018 c -2.645,0.03 -2.723,0.009 -2.959,-0.721 -0.278,-0.859 -0.4,-0.927 -0.955,-0.537 -0.272,0.191 -0.529,0.35 -0.571,0.35 -0.042,0 -0.067,-0.275 -0.056,-0.61 0.027,-0.864 -0.474,-0.952 -0.817,-0.142 -0.187,0.443 -0.346,0.588 -0.65,0.588 -0.315,0 -0.412,0.096 -0.453,0.449 -0.051,0.438 -0.087,0.452 -1.209,0.5 -0.635,0.027 -1.245,0.125 -1.358,0.217 -0.138,0.113 -0.309,0.111 -0.535,-0.008 -0.182,-0.097 -0.625,-0.176 -0.982,-0.176 -0.358,0 -0.88,-0.079 -1.162,-0.176 -0.408,-0.14 -0.632,-0.122 -1.096,0.096 -0.614,0.288 -1.032,0.259 -2.426,-0.174 -0.648,-0.201 -0.867,-0.202 -1.66,0.008 -1.241,0.328 -1.857,0.309 -3.166,-0.107 l -1.115,-0.356 -0.684,0.535 c -0.472,0.37 -0.748,0.487 -0.888,0.379 -0.112,-0.086 -0.665,-0.249 -1.227,-0.363 -0.821,-0.167 -1.296,-0.168 -2.414,-0.004 -1.21,0.178 -1.514,0.171 -2.32,-0.061 -0.832,-0.238 -0.989,-0.241 -1.522,-0.021 -0.327,0.135 -0.895,0.244 -1.263,0.244 -0.5662,0 -0.6704,-0.052 -0.6704,-0.338 0,-0.186 0.0724,-0.471 0.1602,-0.633 C 10.0804,36.155 10.0604,35.97 9.9027,35.758 9.6891,35.469 9.628,35.497 8.8363,36.229 7.5878,37.382 7.4137,37.243 8.2641,35.773 8.6692,35.073 8.727,34.871 8.518,34.871 l -0.002,0 z"
       inkscape:connector-curvature="0" />
    <rect
       id="rect6741-2"
       rx="1"
       ry="1"
       height="37"
       width="37"
       y="6.5"
       x="5.5"
       style="opacity:0.5;fill:none;stroke:url(#linearGradient3044);stroke-linecap:round;stroke-linejoin:round" />
    <rect
       id="rect5505-21-1"
       style="color:#000000;opacity:0.4;fill:none;stroke:#413400;stroke-linecap:round;stroke-linejoin:round"
       rx="2"
       ry="2"
       height="39"
       width="39"
       y="5.5"
       x="4.5" />
  </g>
  <text
     id="text4087-2-6-5"
     opacity=".8"
     xml:space="preserve"
     font-size="12.666px"
     y="9.3220615"
     x="870.4093"
     font-family="'Bitstream Vera Sans'"
     fill="#000000"><tspan
       id="tspan4089-7-2-9"
       y="9.3220615"
       x="870.4093" /></text>
  <text
     id="text4087-2-6-5-5"
     opacity=".8"
     xml:space="preserve"
     font-size="12.666px"
     y="-31.419645"
     x="894.37024"
     font-family="'Bitstream Vera Sans'"
     fill="#000000"><tspan
       id="tspan4089-7-2-9-6"
       y="-31.419645"
       x="894.37024" /></text>
  <text
     id="text4087-2-6-5-2"
     opacity=".8"
     xml:space="preserve"
     font-size="12.666px"
     y="-61.497787"
     x="-576.18811"
     font-family="'Bitstream Vera Sans'"
     fill="#000000"><tspan
       id="tspan4089-7-2-9-2"
       y="-61.497787"
       x="-576.18811" /></text>
  <text
     id="text4087-2-6-5-59"
     opacity=".8"
     xml:space="preserve"
     font-size="12.666px"
     y="684.05566"
     x="-2399.8743"
     font-family="'Bitstream Vera Sans'"
     fill="#000000"><tspan
       id="tspan4089-7-2-9-4"
       y="684.05566"
       x="-2399.8743" /></text>
  <text
     id="text4087-2-6-5-1"
     opacity=".8"
     xml:space="preserve"
     font-size="12.666px"
     y="-446.81876"
     x="-461.69702"
     font-family="'Bitstream Vera Sans'"
     fill="#000000"><tspan
       id="tspan4089-7-2-9-7"
       y="-446.81876"
       x="-461.69702" /></text>
  <text
     id="text4087-2-6-5-7"
     opacity=".8"
     xml:space="preserve"
     font-size="12.666px"
     y="-860.28888"
     x="345.90512"
     font-family="'Bitstream Vera Sans'"
     fill="#000000"><tspan
       id="tspan4089-7-2-9-1"
       y="-860.28888"
       x="345.90512" /></text>
  <text
     id="text4087-2-6-5-5-3"
     opacity=".8"
     xml:space="preserve"
     font-size="12.666px"
     y="-901.03058"
     x="369.86606"
     font-family="'Bitstream Vera Sans'"
     fill="#000000"><tspan
       id="tspan4089-7-2-9-6-5"
       y="-901.03058"
       x="369.86606" /></text>
  <text
     id="text4087-2-6-5-3"
     opacity=".8"
     xml:space="preserve"
     font-size="12.666px"
     y="-908.24048"
     x="-1121.597"
     font-family="'Bitstream Vera Sans'"
     fill="#000000"><tspan
       id="tspan4089-7-2-9-18"
       y="-908.24048"
       x="-1121.597" /></text>
  <text
     id="text4087-2-6-5-4"
     opacity=".8"
     xml:space="preserve"
     font-size="12.666px"
     y="-1181.4746"
     x="338.94565"
     font-family="'Bitstream Vera Sans'"
     fill="#000000"><tspan
       id="tspan4089-7-2-9-9"
       y="-1181.4746"
       x="338.94565" /></text>
  <text
     id="text4087-2-6-5-7-1"
     opacity=".8"
     xml:space="preserve"
     font-size="12.666px"
     y="-554.78326"
     x="1825.0692"
     font-family="'Bitstream Vera Sans'"
     fill="#000000"><tspan
       id="tspan4089-7-2-9-1-8"
       y="-554.78326"
       x="1825.0692" /></text>
  <text
     id="text4087-2-6-5-5-5"
     opacity=".8"
     xml:space="preserve"
     font-size="12.666px"
     y="-595.52502"
     x="1849.03"
     font-family="'Bitstream Vera Sans'"
     fill="#000000"><tspan
       id="tspan4089-7-2-9-6-9"
       y="-595.52502"
       x="1849.03" /></text>
  <text
     id="text4087-2-6-5-75"
     opacity=".8"
     xml:space="preserve"
     font-size="12.666px"
     y="-602.73492"
     x="357.5668"
     font-family="'Bitstream Vera Sans'"
     fill="#000000"><tspan
       id="tspan4089-7-2-9-3"
       y="-602.73492"
       x="357.5668" /></text>
  <text
     id="text4087-2-6-5-4-8"
     opacity=".8"
     xml:space="preserve"
     font-size="12.666px"
     y="-875.96893"
     x="1818.1097"
     font-family="'Bitstream Vera Sans'"
     fill="#000000"><tspan
       id="tspan4089-7-2-9-9-8"
       y="-875.96893"
       x="1818.1097" /></text>
  <text
     id="text4087-2-6-5-45"
     opacity=".8"
     xml:space="preserve"
     font-size="12.666px"
     y="-650.82623"
     x="-580.24951"
     font-family="'Bitstream Vera Sans'"
     fill="#000000"><tspan
       id="tspan4089-7-2-9-75"
       y="-650.82623"
       x="-580.24951" /></text>
  <text
     id="text4087-2-6-5-59-7"
     opacity=".8"
     xml:space="preserve"
     font-size="12.666px"
     y="94.727318"
     x="-2403.9353"
     font-family="'Bitstream Vera Sans'"
     fill="#000000"><tspan
       id="tspan4089-7-2-9-4-0"
       y="94.727318"
       x="-2403.9353" /></text>
  <text
     id="text4087-2-6-5-8"
     opacity=".8"
     xml:space="preserve"
     font-size="12.666px"
     y="187.59946"
     x="-689.17975"
     font-family="'Bitstream Vera Sans'"
     fill="#000000"><tspan
       id="tspan4089-7-2-9-19"
       y="187.59946"
       x="-689.17975" /></text>
  <text
     id="text4087-2-6-5-7-5"
     opacity=".8"
     xml:space="preserve"
     font-size="12.666px"
     y="8.4173126"
     x="419.84457"
     font-family="'Bitstream Vera Sans'"
     fill="#000000"><tspan
       id="tspan4089-7-2-9-1-2"
       y="8.4173126"
       x="419.84457" /></text>
  <text
     id="text4087-2-6-5-5-0"
     opacity=".8"
     xml:space="preserve"
     font-size="12.666px"
     y="-32.324394"
     x="443.80551"
     font-family="'Bitstream Vera Sans'"
     fill="#000000"><tspan
       id="tspan4089-7-2-9-6-2"
       y="-32.324394"
       x="443.80551" /></text>
  <text
     id="text4087-2-6-5-26"
     opacity=".8"
     xml:space="preserve"
     font-size="12.666px"
     y="-39.534367"
     x="-1047.6577"
     font-family="'Bitstream Vera Sans'"
     fill="#000000"><tspan
       id="tspan4089-7-2-9-90"
       y="-39.534367"
       x="-1047.6577" /></text>
  <text
     id="text4087-2-6-5-4-3"
     opacity=".8"
     xml:space="preserve"
     font-size="12.666px"
     y="-312.76843"
     x="412.8851"
     font-family="'Bitstream Vera Sans'"
     fill="#000000"><tspan
       id="tspan4089-7-2-9-9-5"
       y="-312.76843"
       x="412.8851" /></text>
  <text
     id="text4087-2-6-5-55"
     opacity=".8"
     xml:space="preserve"
     font-size="12.666px"
     y="-42.248611"
     x="-614.84949"
     font-family="'Bitstream Vera Sans'"
     fill="#000000"><tspan
       id="tspan4089-7-2-9-32"
       y="-42.248611"
       x="-614.84949" /></text>
  <text
     id="text4087-2-6-5-59-9"
     opacity=".8"
     xml:space="preserve"
     font-size="12.666px"
     y="703.30487"
     x="-2438.5356"
     font-family="'Bitstream Vera Sans'"
     fill="#000000"><tspan
       id="tspan4089-7-2-9-4-1"
       y="703.30487"
       x="-2438.5356" /></text>
  <text
     id="text4087-2-6-5-1-8"
     opacity=".8"
     xml:space="preserve"
     font-size="12.666px"
     y="-903.77911"
     x="-463.75644"
     font-family="'Bitstream Vera Sans'"
     fill="#000000"><tspan
       id="tspan4089-7-2-9-7-8"
       y="-903.77911"
       x="-463.75644" /></text>
  <text
     id="text4087-2-6-5-7-8"
     opacity=".8"
     xml:space="preserve"
     font-size="12.666px"
     y="-1317.2493"
     x="343.8457"
     font-family="'Bitstream Vera Sans'"
     fill="#000000"><tspan
       id="tspan4089-7-2-9-1-9"
       y="-1317.2493"
       x="343.8457" /></text>
  <text
     id="text4087-2-6-5-5-52"
     opacity=".8"
     xml:space="preserve"
     font-size="12.666px"
     y="-1357.991"
     x="367.80661"
     font-family="'Bitstream Vera Sans'"
     fill="#000000"><tspan
       id="tspan4089-7-2-9-6-4"
       y="-1357.991"
       x="367.80661" /></text>
  <text
     id="text4087-2-6-5-3-4"
     opacity=".8"
     xml:space="preserve"
     font-size="12.666px"
     y="-1365.2009"
     x="-1123.6565"
     font-family="'Bitstream Vera Sans'"
     fill="#000000"><tspan
       id="tspan4089-7-2-9-18-3"
       y="-1365.2009"
       x="-1123.6565" /></text>
  <text
     id="text4087-2-6-5-4-7"
     opacity=".8"
     xml:space="preserve"
     font-size="12.666px"
     y="-1638.4351"
     x="336.8862"
     font-family="'Bitstream Vera Sans'"
     fill="#000000"><tspan
       id="tspan4089-7-2-9-9-54"
       y="-1638.4351"
       x="336.8862" /></text>
  <text
     id="text4087-2-6-5-7-1-2"
     opacity=".8"
     xml:space="preserve"
     font-size="12.666px"
     y="-1011.7438"
     x="1823.0096"
     font-family="'Bitstream Vera Sans'"
     fill="#000000"><tspan
       id="tspan4089-7-2-9-1-8-0"
       y="-1011.7438"
       x="1823.0096" /></text>
  <text
     id="text4087-2-6-5-5-5-6"
     opacity=".8"
     xml:space="preserve"
     font-size="12.666px"
     y="-1052.4854"
     x="1846.9705"
     font-family="'Bitstream Vera Sans'"
     fill="#000000"><tspan
       id="tspan4089-7-2-9-6-9-8"
       y="-1052.4854"
       x="1846.9705" /></text>
  <text
     id="text4087-2-6-5-75-4"
     opacity=".8"
     xml:space="preserve"
     font-size="12.666px"
     y="-1059.6953"
     x="355.50735"
     font-family="'Bitstream Vera Sans'"
     fill="#000000"><tspan
       id="tspan4089-7-2-9-3-9"
       y="-1059.6953"
       x="355.50735" /></text>
  <text
     id="text4087-2-6-5-4-8-1"
     opacity=".8"
     xml:space="preserve"
     font-size="12.666px"
     y="-1332.9294"
     x="1816.0502"
     font-family="'Bitstream Vera Sans'"
     fill="#000000"><tspan
       id="tspan4089-7-2-9-9-8-8"
       y="-1332.9294"
       x="1816.0502" /></text>
  <text
     id="text4087-2-6-5-45-0"
     opacity=".8"
     xml:space="preserve"
     font-size="12.666px"
     y="-1107.7866"
     x="-582.30896"
     font-family="'Bitstream Vera Sans'"
     fill="#000000"><tspan
       id="tspan4089-7-2-9-75-2"
       y="-1107.7866"
       x="-582.30896" /></text>
  <text
     id="text4087-2-6-5-59-5"
     opacity=".8"
     xml:space="preserve"
     font-size="12.666px"
     y="-362.23315"
     x="-2405.9949"
     font-family="'Bitstream Vera Sans'"
     fill="#000000"><tspan
       id="tspan4089-7-2-9-4-00"
       y="-362.23315"
       x="-2405.9949" /></text>
  <text
     id="text4087-2-6-5-264"
     opacity=".8"
     xml:space="preserve"
     font-size="12.666px"
     y="-269.36099"
     x="-691.2392"
     font-family="'Bitstream Vera Sans'"
     fill="#000000"><tspan
       id="tspan4089-7-2-9-8"
       y="-269.36099"
       x="-691.2392" /></text>
  <text
     id="text4087-2-6-5-42"
     opacity=".8"
     xml:space="preserve"
     font-size="12.666px"
     y="-28.446817"
     x="148.77534"
     font-family="'Bitstream Vera Sans'"
     fill="#000000"><tspan
       id="tspan4089-7-2-9-93"
       y="-28.446817"
       x="148.77534" /></text>
  <text
     id="text4087-2-6-5-5-05"
     opacity=".8"
     xml:space="preserve"
     font-size="12.666px"
     y="-69.188538"
     x="172.73628"
     font-family="'Bitstream Vera Sans'"
     fill="#000000"><tspan
       id="tspan4089-7-2-9-6-49"
       y="-69.188538"
       x="172.73628" /></text>
  <text
     id="text4087-2-6-5-1-4"
     opacity=".8"
     xml:space="preserve"
     font-size="12.666px"
     y="-263.21716"
     x="-1097.0803"
     font-family="'Bitstream Vera Sans'"
     fill="#000000"><tspan
       id="tspan4089-7-2-9-7-7"
       y="-263.21716"
       x="-1097.0803" /></text>
  <text
     id="text4087-2-6-5-7-56"
     opacity=".8"
     xml:space="preserve"
     font-size="12.666px"
     y="-676.68732"
     x="-289.47836"
     font-family="'Bitstream Vera Sans'"
     fill="#000000"><tspan
       id="tspan4089-7-2-9-1-1"
       y="-676.68732"
       x="-289.47836" /></text>
  <text
     id="text4087-2-6-5-5-8"
     opacity=".8"
     xml:space="preserve"
     font-size="12.666px"
     y="-717.42902"
     x="-265.51743"
     font-family="'Bitstream Vera Sans'"
     fill="#000000"><tspan
       id="tspan4089-7-2-9-6-7"
       y="-717.42902"
       x="-265.51743" /></text>
  <text
     id="text4087-2-6-5-3-42"
     opacity=".8"
     xml:space="preserve"
     font-size="12.666px"
     y="-724.63892"
     x="-1756.9805"
     font-family="'Bitstream Vera Sans'"
     fill="#000000"><tspan
       id="tspan4089-7-2-9-18-39"
       y="-724.63892"
       x="-1756.9805" /></text>
  <text
     id="text4087-2-6-5-4-4"
     opacity=".8"
     xml:space="preserve"
     font-size="12.666px"
     y="-997.87305"
     x="-296.43781"
     font-family="'Bitstream Vera Sans'"
     fill="#000000"><tspan
       id="tspan4089-7-2-9-9-3"
       y="-997.87305"
       x="-296.43781" /></text>
  <text
     id="text4087-2-6-5-7-1-0"
     opacity=".8"
     xml:space="preserve"
     font-size="12.666px"
     y="-371.18167"
     x="1189.6857"
     font-family="'Bitstream Vera Sans'"
     fill="#000000"><tspan
       id="tspan4089-7-2-9-1-8-5"
       y="-371.18167"
       x="1189.6857" /></text>
  <text
     id="text4087-2-6-5-5-5-5"
     opacity=".8"
     xml:space="preserve"
     font-size="12.666px"
     y="-411.9234"
     x="1213.6465"
     font-family="'Bitstream Vera Sans'"
     fill="#000000"><tspan
       id="tspan4089-7-2-9-6-9-2"
       y="-411.9234"
       x="1213.6465" /></text>
  <text
     id="text4087-2-6-5-75-9"
     opacity=".8"
     xml:space="preserve"
     font-size="12.666px"
     y="-419.13336"
     x="-277.81668"
     font-family="'Bitstream Vera Sans'"
     fill="#000000"><tspan
       id="tspan4089-7-2-9-3-1"
       y="-419.13336"
       x="-277.81668" /></text>
  <text
     id="text4087-2-6-5-4-8-18"
     opacity=".8"
     xml:space="preserve"
     font-size="12.666px"
     y="-692.36743"
     x="1182.7262"
     font-family="'Bitstream Vera Sans'"
     fill="#000000"><tspan
       id="tspan4089-7-2-9-9-8-4"
       y="-692.36743"
       x="1182.7262" /></text>
  <text
     id="text4087-2-6-5-45-3"
     opacity=".8"
     xml:space="preserve"
     font-size="12.666px"
     y="-467.22464"
     x="-1215.6329"
     font-family="'Bitstream Vera Sans'"
     fill="#000000"><tspan
       id="tspan4089-7-2-9-75-7"
       y="-467.22464"
       x="-1215.6329" /></text>
  <text
     id="text4087-2-6-5-59-8"
     opacity=".8"
     xml:space="preserve"
     font-size="12.666px"
     y="278.32892"
     x="-3039.3188"
     font-family="'Bitstream Vera Sans'"
     fill="#000000"><tspan
       id="tspan4089-7-2-9-4-2"
       y="278.32892"
       x="-3039.3188" /></text>
  <g
     id="layer4-0"
     transform="matrix(.90475 0 0 .90475 -723.56 -677.78)">
    <text
       id="text4087-2-6-5-20"
       opacity=".8"
       xml:space="preserve"
       font-size="14px"
       y="1159.4154"
       x="-664.2738"
       font-family="'Bitstream Vera Sans'"
       fill="#000000"><tspan
         id="tspan4089-7-2-9-82"
         y="1159.4154"
         x="-664.2738" /></text>
  </g>
  <text
     id="text4087-2-6-5-9"
     opacity=".8"
     xml:space="preserve"
     font-size="12.666px"
     y="16.560049"
     x="870.4093"
     font-family="'Bitstream Vera Sans'"
     fill="#000000"><tspan
       id="tspan4089-7-2-9-43"
       y="16.560049"
       x="870.4093" /></text>
  <text
     id="text4087-2-6-5-5-51"
     opacity=".8"
     xml:space="preserve"
     font-size="12.666px"
     y="-24.181656"
     x="894.37024"
     font-family="'Bitstream Vera Sans'"
     fill="#000000"><tspan
       id="tspan4089-7-2-9-6-74"
       y="-24.181656"
       x="894.37024" /></text>
  <text
     id="text4087-2-6-5-2-3"
     opacity=".8"
     xml:space="preserve"
     font-size="12.666px"
     y="-54.2598"
     x="-576.18811"
     font-family="'Bitstream Vera Sans'"
     fill="#000000"><tspan
       id="tspan4089-7-2-9-2-1"
       y="-54.2598"
       x="-576.18811" /></text>
  <text
     id="text4087-2-6-5-59-4"
     opacity=".8"
     xml:space="preserve"
     font-size="12.666px"
     y="691.29364"
     x="-2399.8743"
     font-family="'Bitstream Vera Sans'"
     fill="#000000"><tspan
       id="tspan4089-7-2-9-4-6"
       y="691.29364"
       x="-2399.8743" /></text>
  <text
     id="text4087-2-6-5-1-9"
     opacity=".8"
     xml:space="preserve"
     font-size="12.666px"
     y="-439.58075"
     x="-461.69702"
     font-family="'Bitstream Vera Sans'"
     fill="#000000"><tspan
       id="tspan4089-7-2-9-7-4"
       y="-439.58075"
       x="-461.69702" /></text>
  <text
     id="text4087-2-6-5-7-2"
     opacity=".8"
     xml:space="preserve"
     font-size="12.666px"
     y="-853.05084"
     x="345.90512"
     font-family="'Bitstream Vera Sans'"
     fill="#000000"><tspan
       id="tspan4089-7-2-9-1-26"
       y="-853.05084"
       x="345.90512" /></text>
  <text
     id="text4087-2-6-5-5-3-4"
     opacity=".8"
     xml:space="preserve"
     font-size="12.666px"
     y="-893.7926"
     x="369.86606"
     font-family="'Bitstream Vera Sans'"
     fill="#000000"><tspan
       id="tspan4089-7-2-9-6-5-1"
       y="-893.7926"
       x="369.86606" /></text>
  <text
     id="text4087-2-6-5-3-2"
     opacity=".8"
     xml:space="preserve"
     font-size="12.666px"
     y="-901.0025"
     x="-1121.597"
     font-family="'Bitstream Vera Sans'"
     fill="#000000"><tspan
       id="tspan4089-7-2-9-18-8"
       y="-901.0025"
       x="-1121.597" /></text>
  <text
     id="text4087-2-6-5-4-89"
     opacity=".8"
     xml:space="preserve"
     font-size="12.666px"
     y="-1174.2366"
     x="338.94565"
     font-family="'Bitstream Vera Sans'"
     fill="#000000"><tspan
       id="tspan4089-7-2-9-9-2"
       y="-1174.2366"
       x="338.94565" /></text>
  <text
     id="text4087-2-6-5-7-1-8"
     opacity=".8"
     xml:space="preserve"
     font-size="12.666px"
     y="-547.54529"
     x="1825.0692"
     font-family="'Bitstream Vera Sans'"
     fill="#000000"><tspan
       id="tspan4089-7-2-9-1-8-8"
       y="-547.54529"
       x="1825.0692" /></text>
  <text
     id="text4087-2-6-5-5-5-8"
     opacity=".8"
     xml:space="preserve"
     font-size="12.666px"
     y="-588.28705"
     x="1849.03"
     font-family="'Bitstream Vera Sans'"
     fill="#000000"><tspan
       id="tspan4089-7-2-9-6-9-6"
       y="-588.28705"
       x="1849.03" /></text>
  <text
     id="text4087-2-6-5-75-8"
     opacity=".8"
     xml:space="preserve"
     font-size="12.666px"
     y="-595.49695"
     x="357.5668"
     font-family="'Bitstream Vera Sans'"
     fill="#000000"><tspan
       id="tspan4089-7-2-9-3-3"
       y="-595.49695"
       x="357.5668" /></text>
  <text
     id="text4087-2-6-5-4-8-8"
     opacity=".8"
     xml:space="preserve"
     font-size="12.666px"
     y="-868.7309"
     x="1818.1097"
     font-family="'Bitstream Vera Sans'"
     fill="#000000"><tspan
       id="tspan4089-7-2-9-9-8-3"
       y="-868.7309"
       x="1818.1097" /></text>
  <text
     id="text4087-2-6-5-45-33"
     opacity=".8"
     xml:space="preserve"
     font-size="12.666px"
     y="-643.58826"
     x="-580.24951"
     font-family="'Bitstream Vera Sans'"
     fill="#000000"><tspan
       id="tspan4089-7-2-9-75-8"
       y="-643.58826"
       x="-580.24951" /></text>
  <text
     id="text4087-2-6-5-59-7-0"
     opacity=".8"
     xml:space="preserve"
     font-size="12.666px"
     y="101.96531"
     x="-2403.9353"
     font-family="'Bitstream Vera Sans'"
     fill="#000000"><tspan
       id="tspan4089-7-2-9-4-0-4"
       y="101.96531"
       x="-2403.9353" /></text>
  <text
     id="text4087-2-6-5-8-7"
     opacity=".8"
     xml:space="preserve"
     font-size="12.666px"
     y="194.83745"
     x="-689.17975"
     font-family="'Bitstream Vera Sans'"
     fill="#000000"><tspan
       id="tspan4089-7-2-9-19-6"
       y="194.83745"
       x="-689.17975" /></text>
  <text
     id="text4087-2-6-5-7-5-8"
     opacity=".8"
     xml:space="preserve"
     font-size="12.666px"
     y="15.6553"
     x="419.84457"
     font-family="'Bitstream Vera Sans'"
     fill="#000000"><tspan
       id="tspan4089-7-2-9-1-2-9"
       y="15.6553"
       x="419.84457" /></text>
  <text
     id="text4087-2-6-5-5-0-0"
     opacity=".8"
     xml:space="preserve"
     font-size="12.666px"
     y="-25.086405"
     x="443.80551"
     font-family="'Bitstream Vera Sans'"
     fill="#000000"><tspan
       id="tspan4089-7-2-9-6-2-6"
       y="-25.086405"
       x="443.80551" /></text>
  <text
     id="text4087-2-6-5-26-8"
     opacity=".8"
     xml:space="preserve"
     font-size="12.666px"
     y="-32.296375"
     x="-1047.6577"
     font-family="'Bitstream Vera Sans'"
     fill="#000000"><tspan
       id="tspan4089-7-2-9-90-7"
       y="-32.296375"
       x="-1047.6577" /></text>
  <text
     id="text4087-2-6-5-4-3-9"
     opacity=".8"
     xml:space="preserve"
     font-size="12.666px"
     y="-305.53043"
     x="412.8851"
     font-family="'Bitstream Vera Sans'"
     fill="#000000"><tspan
       id="tspan4089-7-2-9-9-5-0"
       y="-305.53043"
       x="412.8851" /></text>
  <text
     id="text4087-2-6-5-55-3"
     opacity=".8"
     xml:space="preserve"
     font-size="12.666px"
     y="-35.01062"
     x="-614.84949"
     font-family="'Bitstream Vera Sans'"
     fill="#000000"><tspan
       id="tspan4089-7-2-9-32-3"
       y="-35.01062"
       x="-614.84949" /></text>
  <text
     id="text4087-2-6-5-59-9-3"
     opacity=".8"
     xml:space="preserve"
     font-size="12.666px"
     y="710.54291"
     x="-2438.5356"
     font-family="'Bitstream Vera Sans'"
     fill="#000000"><tspan
       id="tspan4089-7-2-9-4-1-7"
       y="710.54291"
       x="-2438.5356" /></text>
  <text
     id="text4087-2-6-5-1-8-3"
     opacity=".8"
     xml:space="preserve"
     font-size="12.666px"
     y="-896.54114"
     x="-463.75644"
     font-family="'Bitstream Vera Sans'"
     fill="#000000"><tspan
       id="tspan4089-7-2-9-7-8-2"
       y="-896.54114"
       x="-463.75644" /></text>
  <text
     id="text4087-2-6-5-7-8-6"
     opacity=".8"
     xml:space="preserve"
     font-size="12.666px"
     y="-1310.0112"
     x="343.8457"
     font-family="'Bitstream Vera Sans'"
     fill="#000000"><tspan
       id="tspan4089-7-2-9-1-9-5"
       y="-1310.0112"
       x="343.8457" /></text>
  <text
     id="text4087-2-6-5-5-52-2"
     opacity=".8"
     xml:space="preserve"
     font-size="12.666px"
     y="-1350.7531"
     x="367.80661"
     font-family="'Bitstream Vera Sans'"
     fill="#000000"><tspan
       id="tspan4089-7-2-9-6-4-6"
       y="-1350.7531"
       x="367.80661" /></text>
  <text
     id="text4087-2-6-5-3-4-5"
     opacity=".8"
     xml:space="preserve"
     font-size="12.666px"
     y="-1357.9629"
     x="-1123.6565"
     font-family="'Bitstream Vera Sans'"
     fill="#000000"><tspan
       id="tspan4089-7-2-9-18-3-8"
       y="-1357.9629"
       x="-1123.6565" /></text>
  <text
     id="text4087-2-6-5-4-7-7"
     opacity=".8"
     xml:space="preserve"
     font-size="12.666px"
     y="-1631.197"
     x="336.8862"
     font-family="'Bitstream Vera Sans'"
     fill="#000000"><tspan
       id="tspan4089-7-2-9-9-54-9"
       y="-1631.197"
       x="336.8862" /></text>
  <text
     id="text4087-2-6-5-7-1-2-6"
     opacity=".8"
     xml:space="preserve"
     font-size="12.666px"
     y="-1004.5058"
     x="1823.0096"
     font-family="'Bitstream Vera Sans'"
     fill="#000000"><tspan
       id="tspan4089-7-2-9-1-8-0-0"
       y="-1004.5058"
       x="1823.0096" /></text>
  <text
     id="text4087-2-6-5-5-5-6-4"
     opacity=".8"
     xml:space="preserve"
     font-size="12.666px"
     y="-1045.2474"
     x="1846.9705"
     font-family="'Bitstream Vera Sans'"
     fill="#000000"><tspan
       id="tspan4089-7-2-9-6-9-8-1"
       y="-1045.2474"
       x="1846.9705" /></text>
  <text
     id="text4087-2-6-5-75-4-0"
     opacity=".8"
     xml:space="preserve"
     font-size="12.666px"
     y="-1052.4573"
     x="355.50735"
     font-family="'Bitstream Vera Sans'"
     fill="#000000"><tspan
       id="tspan4089-7-2-9-3-9-4"
       y="-1052.4573"
       x="355.50735" /></text>
  <text
     id="text4087-2-6-5-4-8-1-8"
     opacity=".8"
     xml:space="preserve"
     font-size="12.666px"
     y="-1325.6914"
     x="1816.0502"
     font-family="'Bitstream Vera Sans'"
     fill="#000000"><tspan
       id="tspan4089-7-2-9-9-8-8-7"
       y="-1325.6914"
       x="1816.0502" /></text>
  <text
     id="text4087-2-6-5-45-0-0"
     opacity=".8"
     xml:space="preserve"
     font-size="12.666px"
     y="-1100.5486"
     x="-582.30896"
     font-family="'Bitstream Vera Sans'"
     fill="#000000"><tspan
       id="tspan4089-7-2-9-75-2-8"
       y="-1100.5486"
       x="-582.30896" /></text>
  <text
     id="text4087-2-6-5-59-5-6"
     opacity=".8"
     xml:space="preserve"
     font-size="12.666px"
     y="-354.99515"
     x="-2405.9949"
     font-family="'Bitstream Vera Sans'"
     fill="#000000"><tspan
       id="tspan4089-7-2-9-4-00-2"
       y="-354.99515"
       x="-2405.9949" /></text>
  <text
     id="text4087-2-6-5-264-4"
     opacity=".8"
     xml:space="preserve"
     font-size="12.666px"
     y="-262.12299"
     x="-691.2392"
     font-family="'Bitstream Vera Sans'"
     fill="#000000"><tspan
       id="tspan4089-7-2-9-8-7"
       y="-262.12299"
       x="-691.2392" /></text>
  <text
     id="text4087-2-6-5-42-9"
     opacity=".8"
     xml:space="preserve"
     font-size="12.666px"
     y="-21.20883"
     x="148.77534"
     font-family="'Bitstream Vera Sans'"
     fill="#000000"><tspan
       id="tspan4089-7-2-9-93-3"
       y="-21.20883"
       x="148.77534" /></text>
  <text
     id="text4087-2-6-5-5-05-9"
     opacity=".8"
     xml:space="preserve"
     font-size="12.666px"
     y="-61.95055"
     x="172.73628"
     font-family="'Bitstream Vera Sans'"
     fill="#000000"><tspan
       id="tspan4089-7-2-9-6-49-2"
       y="-61.95055"
       x="172.73628" /></text>
  <text
     id="text4087-2-6-5-1-4-8"
     opacity=".8"
     xml:space="preserve"
     font-size="12.666px"
     y="-255.97914"
     x="-1097.0803"
     font-family="'Bitstream Vera Sans'"
     fill="#000000"><tspan
       id="tspan4089-7-2-9-7-7-3"
       y="-255.97914"
       x="-1097.0803" /></text>
  <text
     id="text4087-2-6-5-7-56-0"
     opacity=".8"
     xml:space="preserve"
     font-size="12.666px"
     y="-669.44934"
     x="-289.47836"
     font-family="'Bitstream Vera Sans'"
     fill="#000000"><tspan
       id="tspan4089-7-2-9-1-1-1"
       y="-669.44934"
       x="-289.47836" /></text>
  <text
     id="text4087-2-6-5-5-8-7"
     opacity=".8"
     xml:space="preserve"
     font-size="12.666px"
     y="-710.19104"
     x="-265.51743"
     font-family="'Bitstream Vera Sans'"
     fill="#000000"><tspan
       id="tspan4089-7-2-9-6-7-8"
       y="-710.19104"
       x="-265.51743" /></text>
  <text
     id="text4087-2-6-5-3-42-9"
     opacity=".8"
     xml:space="preserve"
     font-size="12.666px"
     y="-717.401"
     x="-1756.9805"
     font-family="'Bitstream Vera Sans'"
     fill="#000000"><tspan
       id="tspan4089-7-2-9-18-39-1"
       y="-717.401"
       x="-1756.9805" /></text>
  <text
     id="text4087-2-6-5-4-4-5"
     opacity=".8"
     xml:space="preserve"
     font-size="12.666px"
     y="-990.63501"
     x="-296.43781"
     font-family="'Bitstream Vera Sans'"
     fill="#000000"><tspan
       id="tspan4089-7-2-9-9-3-4"
       y="-990.63501"
       x="-296.43781" /></text>
  <text
     id="text4087-2-6-5-7-1-0-9"
     opacity=".8"
     xml:space="preserve"
     font-size="12.666px"
     y="-363.9437"
     x="1189.6857"
     font-family="'Bitstream Vera Sans'"
     fill="#000000"><tspan
       id="tspan4089-7-2-9-1-8-5-2"
       y="-363.9437"
       x="1189.6857" /></text>
  <text
     id="text4087-2-6-5-5-5-5-5"
     opacity=".8"
     xml:space="preserve"
     font-size="12.666px"
     y="-404.68542"
     x="1213.6465"
     font-family="'Bitstream Vera Sans'"
     fill="#000000"><tspan
       id="tspan4089-7-2-9-6-9-2-7"
       y="-404.68542"
       x="1213.6465" /></text>
  <text
     id="text4087-2-6-5-75-9-4"
     opacity=".8"
     xml:space="preserve"
     font-size="12.666px"
     y="-411.89536"
     x="-277.81668"
     font-family="'Bitstream Vera Sans'"
     fill="#000000"><tspan
       id="tspan4089-7-2-9-3-1-9"
       y="-411.89536"
       x="-277.81668" /></text>
  <text
     id="text4087-2-6-5-4-8-18-9"
     opacity=".8"
     xml:space="preserve"
     font-size="12.666px"
     y="-685.12946"
     x="1182.7262"
     font-family="'Bitstream Vera Sans'"
     fill="#000000"><tspan
       id="tspan4089-7-2-9-9-8-4-4"
       y="-685.12946"
       x="1182.7262" /></text>
  <text
     id="text4087-2-6-5-45-3-5"
     opacity=".8"
     xml:space="preserve"
     font-size="12.666px"
     y="-459.98663"
     x="-1215.6329"
     font-family="'Bitstream Vera Sans'"
     fill="#000000"><tspan
       id="tspan4089-7-2-9-75-7-9"
       y="-459.98663"
       x="-1215.6329" /></text>
  <text
     id="text4087-2-6-5-59-8-3"
     opacity=".8"
     xml:space="preserve"
     font-size="12.666px"
     y="285.56689"
     x="-3039.3188"
     font-family="'Bitstream Vera Sans'"
     fill="#000000"><tspan
       id="tspan4089-7-2-9-4-2-5"
       y="285.56689"
       x="-3039.3188" /></text>
  <g
     id="layer4-0-7"
     transform="matrix(.90475 0 0 .90475 -723.56 -670.54)">
    <text
       id="text4087-2-6-5-20-0"
       opacity=".8"
       xml:space="preserve"
       font-size="14px"
       y="1159.4154"
       x="-664.2738"
       font-family="'Bitstream Vera Sans'"
       fill="#000000"><tspan
         id="tspan4089-7-2-9-82-8"
         y="1159.4154"
         x="-664.2738" /></text>
  </g>
  <text
     id="text7276"
     xml:space="preserve"
     font-size="12.666px"
     y="-362.716"
     x="429.08731"
     font-family="'Droid Sans'"
     fill="#000000"><tspan
       id="tspan7278"
       y="-362.716"
       x="429.08731" /><tspan
       id="tspan7280"
       y="-346.88293"
       x="429.08731" /></text>
  <text
     id="text4087-2-6-5-51"
     opacity=".8"
     xml:space="preserve"
     font-size="12.666px"
     y="-844.76056"
     x="894.27124"
     font-family="'Bitstream Vera Sans'"
     fill="#000000"><tspan
       id="tspan4089-7-2-9-97"
       y="-844.76056"
       x="894.27124" /></text>
  <text
     id="text4087-2-6-5-59-2"
     opacity=".8"
     xml:space="preserve"
     font-size="12.666px"
     y="-99.207092"
     x="-929.41473"
     font-family="'Bitstream Vera Sans'"
     fill="#000000"><tspan
       id="tspan4089-7-2-9-4-4"
       y="-99.207092"
       x="-929.41473" /></text>
  <text
     id="text4087-2-6-5-7-7"
     opacity=".8"
     xml:space="preserve"
     font-size="12.666px"
     y="-1129.7563"
     x="1621.3508"
     font-family="'Bitstream Vera Sans'"
     fill="#000000"><tspan
       id="tspan4089-7-2-9-1-6"
       y="-1129.7563"
       x="1621.3508" /></text>
  <text
     id="text4087-2-6-5-5-6"
     opacity=".8"
     xml:space="preserve"
     font-size="12.666px"
     y="-1170.498"
     x="1645.3116"
     font-family="'Bitstream Vera Sans'"
     fill="#000000"><tspan
       id="tspan4089-7-2-9-6-53"
       y="-1170.498"
       x="1645.3116" /></text>
  <text
     id="text4087-2-6-5-54"
     opacity=".8"
     xml:space="preserve"
     font-size="12.666px"
     y="-1177.708"
     x="153.84846"
     font-family="'Bitstream Vera Sans'"
     fill="#000000"><tspan
       id="tspan4089-7-2-9-0"
       y="-1177.708"
       x="153.84846" /></text>
  <text
     id="text4087-2-6-5-4-1"
     opacity=".8"
     xml:space="preserve"
     font-size="12.666px"
     y="-1450.9421"
     x="1614.3914"
     font-family="'Bitstream Vera Sans'"
     fill="#000000"><tspan
       id="tspan4089-7-2-9-9-28"
       y="-1450.9421"
       x="1614.3914" /></text>
</svg>
