<?xml version="1.0" encoding="UTF-8" standalone="no"?>
<!-- Created with Inkscape (http://www.inkscape.org/) -->

<svg
   xmlns:dc="http://purl.org/dc/elements/1.1/"
   xmlns:cc="http://creativecommons.org/ns#"
   xmlns:rdf="http://www.w3.org/1999/02/22-rdf-syntax-ns#"
   xmlns:svg="http://www.w3.org/2000/svg"
   xmlns="http://www.w3.org/2000/svg"
   xmlns:xlink="http://www.w3.org/1999/xlink"
   xmlns:sodipodi="http://sodipodi.sourceforge.net/DTD/sodipodi-0.dtd"
   xmlns:inkscape="http://www.inkscape.org/namespaces/inkscape"
   version="1.1"
   width="48"
   height="48"
   id="svg6649"
   inkscape:version="0.91 r13725"
   sodipodi:docname="silaty.svg">
  <sodipodi:namedview
     pagecolor="#ffffff"
     bordercolor="#666666"
     borderopacity="1"
     objecttolerance="10"
     gridtolerance="10"
     guidetolerance="10"
     inkscape:pageopacity="0"
     inkscape:pageshadow="2"
     inkscape:window-width="1600"
     inkscape:window-height="876"
     id="namedview45"
     showgrid="false"
     inkscape:zoom="4.9166667"
     inkscape:cx="-34.372881"
     inkscape:cy="16.474576"
     inkscape:window-x="0"
     inkscape:window-y="24"
     inkscape:window-maximized="1"
     inkscape:current-layer="svg6649" />
  <defs
     id="defs6651">
    <linearGradient
       x1="167.98311"
       y1="8.50811"
       x2="167.98311"
       y2="54.780239"
       id="linearGradient5414"
       xlink:href="#linearGradient5803"
       gradientUnits="userSpaceOnUse"
       gradientTransform="matrix(0.71090703,0,0,0.71090703,-91.334988,2.139763)" />
    <linearGradient
       id="linearGradient5803">
      <stop
         id="stop5805"
         style="stop-color:#fff5ef;stop-opacity:1"
         offset="0" />
      <stop
         id="stop5807"
         style="stop-color:#fef8dd;stop-opacity:1"
         offset="1" />
    </linearGradient>
    <linearGradient
       x1="23.99999"
       y1="4.999989"
       x2="23.99999"
       y2="43"
       id="linearGradient3058"
       xlink:href="#linearGradient3924-1"
       gradientUnits="userSpaceOnUse"
       gradientTransform="translate(4e-6,1.000006)" />
    <linearGradient
       id="linearGradient3924-1">
      <stop
         id="stop3926-3"
         style="stop-color:#ffffff;stop-opacity:1"
         offset="0" />
      <stop
         id="stop3928-91"
         style="stop-color:#ffffff;stop-opacity:0.23529412"
         offset="0.06316455" />
      <stop
         id="stop3930-6"
         style="stop-color:#ffffff;stop-opacity:0.15686275"
         offset="0.95056331" />
      <stop
         id="stop3932-6"
         style="stop-color:#ffffff;stop-opacity:0.39215687"
         offset="1" />
    </linearGradient>
    <radialGradient
       cx="6.7304144"
       cy="9.9571075"
       r="12.671875"
       fx="6.2001843"
       fy="9.9571075"
       id="radialGradient5521-1"
       xlink:href="#linearGradient2867-449-88-871-390-598-476-591-434-148-57-177-8-3-3-6-4-8-8-8"
       gradientUnits="userSpaceOnUse"
       gradientTransform="matrix(0,9.4975523,-11.65996,0,140.93055,-79.160978)" />
    <linearGradient
       id="linearGradient2867-449-88-871-390-598-476-591-434-148-57-177-8-3-3-6-4-8-8-8">
      <stop
         id="stop3750-1-0-7-6-6-1-3-9"
         style="stop-color:#ffcd7d;stop-opacity:1"
         offset="0" />
      <stop
         id="stop3752-3-7-4-0-32-8-923-0"
         style="stop-color:#fc8f36;stop-opacity:1"
         offset="0.26238" />
      <stop
         id="stop3754-1-8-5-2-7-6-7-1"
         style="stop-color:#e23a0e;stop-opacity:1"
         offset="0.704952" />
      <stop
         id="stop3756-1-6-2-6-6-1-96-6"
         style="stop-color:#ac441f;stop-opacity:1"
         offset="1" />
    </linearGradient>
    <radialGradient
       cx="4.9929786"
       cy="43.5"
       r="2.5"
       fx="4.9929786"
       fy="43.5"
       id="radialGradient3013"
       xlink:href="#linearGradient3688-166-749"
       gradientUnits="userSpaceOnUse"
       gradientTransform="matrix(2.003784,0,0,1.4,27.98813,-17.4)" />
    <linearGradient
       id="linearGradient3688-166-749">
      <stop
         id="stop2883"
         style="stop-color:#181818;stop-opacity:1"
         offset="0" />
      <stop
         id="stop2885"
         style="stop-color:#181818;stop-opacity:0"
         offset="1" />
    </linearGradient>
    <radialGradient
       cx="4.9929786"
       cy="43.5"
       r="2.5"
       fx="4.9929786"
       fy="43.5"
       id="radialGradient3015"
       xlink:href="#linearGradient3688-464-309"
       gradientUnits="userSpaceOnUse"
       gradientTransform="matrix(2.003784,0,0,1.4,-20.01187,-104.4)" />
    <linearGradient
       id="linearGradient3688-464-309">
      <stop
         id="stop2889"
         style="stop-color:#181818;stop-opacity:1"
         offset="0" />
      <stop
         id="stop2891"
         style="stop-color:#181818;stop-opacity:0"
         offset="1" />
    </linearGradient>
    <linearGradient
       id="linearGradient3702-501-757">
      <stop
         id="stop2895"
         style="stop-color:#181818;stop-opacity:0"
         offset="0" />
      <stop
         id="stop2897"
         style="stop-color:#181818;stop-opacity:1"
         offset="0.5" />
      <stop
         id="stop2899"
         style="stop-color:#181818;stop-opacity:0"
         offset="1" />
    </linearGradient>
    <linearGradient
       x1="25.058096"
       y1="47.027729"
       x2="25.058096"
       y2="39.999443"
       id="linearGradient6647"
       xlink:href="#linearGradient3702-501-757"
       gradientUnits="userSpaceOnUse" />
    <radialGradient
       r="19.99999"
       fy="8.4497671"
       fx="7.4956832"
       cy="8.4497671"
       cx="7.4956832"
       gradientTransform="matrix(5.1822454e-8,6.2364886,-6.5943653,-1.1489992e-7,119.72605,-94.246466)"
       gradientUnits="userSpaceOnUse"
       id="radialGradient3939"
       xlink:href="#linearGradient2867-449-88-871-390-598-476-591-434-148-57-177-7-7"
       inkscape:collect="always" />
    <linearGradient
       id="linearGradient2867-449-88-871-390-598-476-591-434-148-57-177-7-7">
      <stop
         offset="0"
         style="stop-color:#55c1ec;stop-opacity:1;"
         id="stop3750-7-7" />
      <stop
         offset="0.26238"
         style="stop-color:#18c3d4;stop-opacity:1;"
         id="stop3752-3-6" />
      <stop
         offset="0.704952"
         style="stop-color:#1594a8;stop-opacity:1;"
         id="stop3754-0-3" />
      <stop
         offset="1"
         style="stop-color:#2b56a0;stop-opacity:1;"
         id="stop3756-4-3" />
    </linearGradient>
    <radialGradient
       r="19.99999"
       fy="8.4497671"
       fx="7.4956832"
       cy="8.4497671"
       cx="7.4956832"
       gradientTransform="matrix(1.9509148e-8,2.3477965,-2.4825232,-4.3255371e-8,-2.7096423,-11.681201)"
       gradientUnits="userSpaceOnUse"
       id="radialGradient4786"
       xlink:href="#linearGradient2867-449-88-871-390-598-476-591-434-148-57-177-7-7"
       inkscape:collect="always" />
    <radialGradient
       r="19.99999"
       fy="-10.575334"
       fx="7.4956827"
       cy="-10.575334"
       cx="7.4956827"
       gradientTransform="matrix(1.9509148e-8,2.3477965,-2.4825232,-4.3255371e-8,-2.7096423,-11.681201)"
       gradientUnits="userSpaceOnUse"
       id="radialGradient4786-9"
       xlink:href="#linearGradient2867-449-88-871-390-598-476-591-434-148-57-177-7-7-9"
       inkscape:collect="always" />
    <linearGradient
       id="linearGradient2867-449-88-871-390-598-476-591-434-148-57-177-7-7-9">
      <stop
         offset="0"
         style="stop-color:#55c1ec;stop-opacity:1;"
         id="stop3750-7-7-4" />
      <stop
         offset="0.26238"
         style="stop-color:#18c3d4;stop-opacity:1;"
         id="stop3752-3-6-7" />
      <stop
         offset="0.704952"
         style="stop-color:#1594a8;stop-opacity:1;"
         id="stop3754-0-3-2" />
      <stop
         offset="1"
         style="stop-color:#2b56a0;stop-opacity:1;"
         id="stop3756-4-3-4" />
    </linearGradient>
    <radialGradient
       r="19.99999"
       fy="8.4497671"
       fx="7.4956832"
       cy="8.4497671"
       cx="7.4956832"
       gradientTransform="matrix(1.9509148e-8,2.3477965,-2.4825232,-4.3255371e-8,40.557848,-17.013112)"
       gradientUnits="userSpaceOnUse"
       id="radialGradient3526"
       xlink:href="#linearGradient2867-449-88-871-390-598-476-591-434-148-57-177-7-7-9"
       inkscape:collect="always" />
    <linearGradient
       y2="54.780239"
       x2="167.98311"
       y1="8.50811"
       x1="167.98311"
       gradientTransform="matrix(0.71615269,0,0,0.72061573,-68.771929,1.2537389)"
       gradientUnits="userSpaceOnUse"
       id="linearGradient5228-3"
       xlink:href="#linearGradient4475"
       inkscape:collect="always" />
    <linearGradient
       id="linearGradient4475">
      <stop
         id="stop4477"
         offset="0"
         style="stop-color:#fff5ef;stop-opacity:1;" />
      <stop
         id="stop4479"
         offset="1"
         style="stop-color:#ddfefc;stop-opacity:1" />
    </linearGradient>
    <linearGradient
       inkscape:collect="always"
       xlink:href="#linearGradient5803"
       id="linearGradient4336"
       gradientUnits="userSpaceOnUse"
       gradientTransform="matrix(0.71090703,0,0,0.71090703,-131.33499,2.139763)"
       x1="167.98311"
       y1="8.50811"
       x2="167.98311"
       y2="54.780239" />
    <linearGradient
       inkscape:collect="always"
       xlink:href="#linearGradient3924-1"
       id="linearGradient4342"
       gradientUnits="userSpaceOnUse"
       gradientTransform="translate(4e-6,1.000006)"
       x1="23.99999"
       y1="4.999989"
       x2="23.99999"
       y2="43" />
    <radialGradient
       inkscape:collect="always"
       xlink:href="#linearGradient2867-449-88-871-390-598-476-591-434-148-57-177-7-7-9"
       id="radialGradient4345"
       gradientUnits="userSpaceOnUse"
       gradientTransform="matrix(1.9509148e-8,2.3477965,-2.4825232,-4.3255371e-8,-2.7096423,-11.681201)"
       cx="7.4956827"
       cy="-10.575334"
       fx="7.4956827"
       fy="-10.575334"
       r="19.99999" />
  </defs>
  <metadata
     id="metadata6654">
    <rdf:RDF>
      <cc:Work
         rdf:about="">
        <dc:format>image/svg+xml</dc:format>
        <dc:type
           rdf:resource="http://purl.org/dc/dcmitype/StillImage" />
        <dc:title />
      </cc:Work>
    </rdf:RDF>
  </metadata>
  <g
     id="g4192"
     transform="translate(0,-0.99999475)">
    <rect
       width="39"
       height="39"
       rx="2"
       ry="2"
       x="4.5000124"
       y="5.4999948"
       id="rect5505-21"
       style="color:#000000;display:inline;overflow:visible;visibility:visible;fill:url(#radialGradient4345);fill-opacity:1;fill-rule:nonzero;stroke:none;stroke-width:2.66233778;marker:none;enable-background:accumulate" />
    <rect
       width="37"
       height="37"
       rx="1"
       ry="1"
       x="5.5000124"
       y="6.4999948"
       id="rect6741"
       style="opacity:0.5;fill:none;stroke:url(#linearGradient4342);stroke-width:1;stroke-linecap:round;stroke-linejoin:round;stroke-miterlimit:4;stroke-dasharray:none;stroke-dashoffset:0;stroke-opacity:1" />
    <rect
       width="39"
       height="39"
       rx="2"
       ry="2"
       x="4.5000124"
       y="5.4999948"
       id="rect5505-21-3-2"
       style="color:#000000;display:inline;overflow:visible;visibility:visible;opacity:0.4;fill:none;stroke:#003f64;stroke-width:1;stroke-linecap:round;stroke-linejoin:round;stroke-miterlimit:4;stroke-dasharray:none;stroke-dashoffset:0;stroke-opacity:1;marker:none;enable-background:accumulate" />
    <path
       inkscape:connector-curvature="0"
       style="color:#000000;font-style:normal;font-variant:normal;font-weight:normal;font-stretch:normal;font-size:medium;line-height:normal;font-family:Sans;-inkscape-font-specification:Sans;text-indent:0;text-align:start;text-decoration:none;text-decoration-line:none;letter-spacing:normal;word-spacing:normal;text-transform:none;direction:ltr;block-progression:tb;writing-mode:lr-tb;baseline-shift:baseline;text-anchor:start;display:inline;overflow:visible;visibility:visible;opacity:0.3;fill:#097cae;fill-opacity:1;fill-rule:nonzero;stroke:none;stroke-width:1;marker:none;enable-background:accumulate"
       d="M 30.849825,9.4890039 A 0.70803179,0.6990239 0 0 0 30.57067,10.779331 c 2.35422,1.475104 4.252841,3.698724 5.278569,6.489211 1.023921,2.78557 1.008558,5.686844 0.164955,8.305691 a 0.71040681,0.70136876 0 0 0 1.357709,0.413405 C 38.306489,23.086339 38.30122,19.873025 37.168881,16.792499 36.034544,13.70654 33.940131,11.23595 31.332002,9.6017499 A 0.70803179,0.6990239 0 0 0 30.849825,9.4890039 Z M 29.21296,12.558227 a 0.70803179,0.6990239 0 0 0 -0.317221,1.290324 c 1.62066,1.077014 2.923273,2.643081 3.641705,4.59757 0.730029,1.986038 0.748897,4.04901 0.177644,5.925478 a 0.70803179,0.6990239 0 1 0 1.34502,0.400878 C 34.715689,22.61901 34.705506,20.24368 33.869775,17.970079 33.047322,15.732597 31.555116,13.919552 29.695138,12.6835 a 0.70803179,0.6990239 0 0 0 -0.406045,-0.125273 0.70803179,0.6990239 0 0 0 -0.07613,0 z m -5.583102,0.72659 c -0.47176,0 -0.862842,0.386119 -0.862842,0.851866 0,0.465758 0.391082,0.851865 0.862842,0.851865 0.47176,0 0.850155,-0.386107 0.850155,-0.851865 0,-0.465747 -0.378395,-0.851866 -0.850155,-0.851866 z m 4.073127,2.129664 a 0.70939864,0.70037346 0 0 0 -0.06344,0.01252 0.70939864,0.70037346 0 0 0 -0.317222,1.265272 c 0.952504,0.70097 1.720539,1.668574 2.157107,2.856255 0.43921,1.194868 0.484152,2.423552 0.203022,3.570319 a 0.70939864,0.70037346 0 1 0 1.370398,0.338241 c 0.344372,-1.404745 0.294745,-2.926871 -0.241089,-4.384602 -0.532609,-1.448963 -1.472498,-2.649016 -2.639284,-3.507682 a 0.70939864,0.70037346 0 0 0 -0.469488,-0.15033 z m -4.073127,0.162858 c -0.707639,0 -1.294264,0.579161 -1.294264,1.277798 0,0.698647 0.586625,1.26527 1.294264,1.26527 0.70764,0 1.281576,-0.566623 1.281576,-1.26527 0,-0.698637 -0.573936,-1.277798 -1.281576,-1.277798 z m 0,3.11933 c -1.348795,0 -2.470001,0.893021 -2.842306,2.10461 l -0.494866,0 c -0.39944,0 -0.723266,0.319632 -0.723266,0.714064 l 0,7.466356 c 0,0.394418 0.323826,0.72659 0.723266,0.72659 l 6.661656,0 c 0.39944,0 0.735954,-0.332172 0.735954,-0.72659 l 0,-7.466356 c 0,-0.394432 -0.336514,-0.714064 -0.735954,-0.714064 l -0.494866,0 c -0.372305,-1.211589 -1.480713,-2.10461 -2.829618,-2.10461 z m -6.090657,13.517106 c -0.721044,0 -1.281576,0.553429 -1.281576,1.265269 l 0,9.946785 14.731777,0 0,-9.946785 c 0,-0.71184 -0.585909,-1.265269 -1.306953,-1.265269 l -12.143248,0 z"
       id="path4502" />
    <path
       id="path4481"
       d="m 30.67824,9.8734889 a 0.68878044,0.68232284 0 0 0 -0.271565,1.2594981 c 2.29021,1.439861 4.137207,3.610355 5.135046,6.334171 0.99608,2.719016 0.981135,5.550973 0.16047,8.10725 a 0.69109083,0.68461157 0 1 0 1.320793,0.403528 c 0.909174,-2.83198 0.904051,-5.968522 -0.197502,-8.975447 C 35.721987,13.99026 33.684521,11.578697 31.147306,9.9835423 A 0.68878044,0.68232284 0 0 0 30.67824,9.8734889 Z m -1.592358,2.9958921 a 0.68878044,0.68232284 0 0 0 -0.308596,1.259497 c 1.576594,1.05128 2.843789,2.579933 3.542688,4.487725 0.710178,1.938587 0.728534,3.952271 0.172813,5.783904 a 0.68878044,0.68232284 0 1 0 1.308449,0.391301 c 0.637756,-2.102015 0.62785,-4.420595 -0.185158,-6.639874 -0.800091,-2.184023 -2.251724,-3.953752 -4.061129,-5.160272 a 0.68878044,0.68232284 0 0 0 -0.395003,-0.122281 0.68878044,0.68232284 0 0 0 -0.07406,0 z m -5.431298,0.709232 c -0.458932,0 -0.839382,0.376893 -0.839382,0.831513 0,0.45463 0.38045,0.831512 0.839382,0.831512 0.458933,0 0.827039,-0.376882 0.827039,-0.831512 0,-0.45462 -0.368106,-0.831513 -0.827039,-0.831513 z m 3.962379,2.078781 a 0.69011013,0.68364007 0 0 0 -0.06172,0.01223 0.69011013,0.68364007 0 0 0 -0.308596,1.235042 c 0.926605,0.684221 1.673759,1.628709 2.098456,2.788013 0.427268,1.16632 0.470987,2.365648 0.197502,3.485017 a 0.69011013,0.68364007 0 1 0 1.333137,0.33016 c 0.33501,-1.371182 0.286733,-2.856942 -0.234532,-4.279844 -0.518128,-1.414345 -1.432461,-2.585726 -2.567522,-3.423876 a 0.69011013,0.68364007 0 0 0 -0.456723,-0.146739 z m -3.962379,0.158967 c -0.688399,0 -1.259073,0.565325 -1.259073,1.24727 0,0.681954 0.570674,1.23504 1.259073,1.23504 0.688399,0 1.24673,-0.553086 1.24673,-1.23504 0,-0.681945 -0.558331,-1.24727 -1.24673,-1.24727 z m 0,3.044804 c -1.312122,0 -2.402842,0.871684 -2.765024,2.054326 l -0.481411,0 c -0.388578,0 -0.7036,0.311994 -0.7036,0.697003 l 0,7.287967 c 0,0.384998 0.315022,0.709228 0.7036,0.709228 l 6.480526,0 c 0.388579,0 0.715944,-0.32423 0.715944,-0.709228 l 0,-7.287967 c 0,-0.385009 -0.327365,-0.697003 -0.715944,-0.697003 l -0.48141,0 c -0.362182,-1.182642 -1.440453,-2.054326 -2.752681,-2.054326 z m -5.925052,13.194153 c -0.70144,0 -1.24673,0.540211 -1.24673,1.235039 l 0,9.709136 14.331221,0 0,-9.709136 c 0,-0.694828 -0.569979,-1.235039 -1.271418,-1.235039 l -11.813073,0 z"
       style="color:#000000;font-style:normal;font-variant:normal;font-weight:normal;font-stretch:normal;font-size:medium;line-height:normal;font-family:Sans;-inkscape-font-specification:Sans;text-indent:0;text-align:start;text-decoration:none;text-decoration-line:none;letter-spacing:normal;word-spacing:normal;text-transform:none;direction:ltr;block-progression:tb;writing-mode:lr-tb;baseline-shift:baseline;text-anchor:start;display:inline;overflow:visible;visibility:visible;opacity:0.3;fill:#0959ae;fill-opacity:1;fill-rule:nonzero;stroke:#003f64;stroke-width:0.99530125;stroke-opacity:1;marker:none;enable-background:accumulate"
       inkscape:connector-curvature="0" />
    <path
       inkscape:connector-curvature="0"
       style="color:#000000;font-style:normal;font-variant:normal;font-weight:normal;font-stretch:normal;font-size:medium;line-height:normal;font-family:Sans;-inkscape-font-specification:Sans;text-indent:0;text-align:start;text-decoration:none;text-decoration-line:none;letter-spacing:normal;word-spacing:normal;text-transform:none;direction:ltr;block-progression:tb;writing-mode:lr-tb;baseline-shift:baseline;text-anchor:start;display:inline;overflow:visible;visibility:visible;fill:url(#linearGradient5228-3);fill-opacity:1;fill-rule:nonzero;stroke:none;stroke-width:3.49384832;marker:none;enable-background:accumulate"
       d="m 30.5985,9.5599219 a 0.68146364,0.68146364 0 0 0 -0.26868,1.2579121 c 2.265881,1.438049 4.093258,3.605809 5.080497,6.326196 0.985499,2.715592 0.970713,5.543983 0.158765,8.097041 a 0.68374946,0.68374946 0 1 0 1.306762,0.40302 C 37.775362,22.815676 37.770293,19.683085 36.680441,16.679945 35.588668,13.67151 33.572845,11.262983 31.062584,9.6698369 A 0.68146364,0.68146364 0 0 0 30.5985,9.5599219 Z m -1.575442,2.9921201 a 0.68146364,0.68146364 0 0 0 -0.305319,1.257912 c 1.559846,1.049956 2.813581,2.576682 3.505054,4.482072 0.702635,1.936147 0.720796,3.947296 0.170979,5.776622 a 0.68146364,0.68146364 0 1 0 1.29455,0.390808 c 0.63098,-2.099368 0.62118,-4.415027 -0.183192,-6.631513 -0.791592,-2.181274 -2.227805,-3.948774 -4.017989,-5.153773 a 0.68146364,0.68146364 0 0 0 -0.390807,-0.122128 0.68146364,0.68146364 0 0 0 -0.07328,0 z m -5.373603,0.708339 c -0.454057,0 -0.830465,0.376419 -0.830465,0.830465 0,0.454057 0.376408,0.830466 0.830465,0.830466 0.454058,0 0.818254,-0.376409 0.818254,-0.830466 0,-0.454046 -0.364196,-0.830465 -0.818254,-0.830465 z m 3.920288,2.076164 a 0.68277926,0.68277926 0 0 0 -0.06106,0.01221 0.68277926,0.68277926 0 0 0 -0.305318,1.233486 c 0.916761,0.68336 1.655978,1.626659 2.076164,2.784503 0.422729,1.164851 0.465983,2.362669 0.195404,3.480629 a 0.68277926,0.68277926 0 1 0 1.318975,0.329744 c 0.331449,-1.369457 0.283685,-2.853345 -0.232042,-4.274457 -0.512625,-1.412564 -1.417244,-2.582469 -2.540248,-3.419565 a 0.68277926,0.68277926 0 0 0 -0.451871,-0.146553 z m -3.920288,0.158765 c -0.681086,0 -1.245698,0.564614 -1.245698,1.245699 0,0.681097 0.564612,1.233486 1.245698,1.233486 0.681086,0 1.233486,-0.552389 1.233486,-1.233486 0,-0.681085 -0.5524,-1.245699 -1.233486,-1.245699 z m 0,3.040971 c -1.298183,0 -2.377317,0.870587 -2.735652,2.051739 l -0.476296,0 c -0.384451,0 -0.696127,0.311603 -0.696127,0.696125 l 0,7.278791 c 0,0.384509 0.311676,0.708339 0.696127,0.708339 l 6.411684,0 c 0.384451,0 0.708338,-0.32383 0.708338,-0.708339 l 0,-7.278791 c 0,-0.384522 -0.323887,-0.696125 -0.708338,-0.696125 l -0.476297,0 C 26.01456,19.406868 24.947743,18.536281 23.649455,18.536281 Z m -5.862112,13.17754 c -0.693987,0 -1.233486,0.539527 -1.233486,1.233485 l 0,9.69691 14.178983,0 0,-9.69691 c 0,-0.693958 -0.563924,-1.233485 -1.257911,-1.233485 l -11.687586,0 z"
       id="path4440" />
  </g>
</svg>
