<?xml version="1.0" encoding="UTF-8" standalone="no"?>
<!-- Created with Inkscape (http://www.inkscape.org/) -->

<svg
   xmlns:dc="http://purl.org/dc/elements/1.1/"
   xmlns:cc="http://creativecommons.org/ns#"
   xmlns:rdf="http://www.w3.org/1999/02/22-rdf-syntax-ns#"
   xmlns:svg="http://www.w3.org/2000/svg"
   xmlns="http://www.w3.org/2000/svg"
   xmlns:sodipodi="http://sodipodi.sourceforge.net/DTD/sodipodi-0.dtd"
   xmlns:inkscape="http://www.inkscape.org/namespaces/inkscape"
   id="svg5390"
   height="48"
   width="48"
   version="1.1"
   inkscape:version="0.91 r13725"
   sodipodi:docname="smartgit.svg">
  <sodipodi:namedview
     pagecolor="#ffffff"
     bordercolor="#666666"
     borderopacity="1"
     objecttolerance="10"
     gridtolerance="10"
     guidetolerance="10"
     inkscape:pageopacity="0"
     inkscape:pageshadow="2"
     inkscape:window-width="1535"
     inkscape:window-height="876"
     id="namedview39"
     showgrid="false"
     inkscape:zoom="4.9166667"
     inkscape:cx="-10.779661"
     inkscape:cy="24"
     inkscape:window-x="65"
     inkscape:window-y="24"
     inkscape:window-maximized="1"
     inkscape:current-layer="svg5390" />
  <defs
     id="defs5392">
    <radialGradient
       id="radialGradient3013"
       gradientUnits="userSpaceOnUse"
       cy="43.5"
       cx="4.993"
       gradientTransform="matrix(2.0038 0 0 1.4 27.988 -17.4)"
       r="2.5">
      <stop
         id="stop2883"
         stop-color="#181818"
         offset="0" />
      <stop
         id="stop2885"
         stop-color="#181818"
         stop-opacity="0"
         offset="1" />
    </radialGradient>
    <radialGradient
       id="radialGradient3015"
       gradientUnits="userSpaceOnUse"
       cy="43.5"
       cx="4.993"
       gradientTransform="matrix(2.0038 0 0 1.4 -20.012 -104.4)"
       r="2.5">
      <stop
         id="stop2889"
         stop-color="#181818"
         offset="0" />
      <stop
         id="stop2891"
         stop-color="#181818"
         stop-opacity="0"
         offset="1" />
    </radialGradient>
    <linearGradient
       id="linearGradient5388"
       y2="39.999"
       gradientUnits="userSpaceOnUse"
       x2="25.058"
       y1="47.028"
       x1="25.058">
      <stop
         id="stop2895"
         stop-color="#181818"
         stop-opacity="0"
         offset="0" />
      <stop
         id="stop2897"
         stop-color="#181818"
         offset=".5" />
      <stop
         id="stop2899"
         stop-color="#181818"
         stop-opacity="0"
         offset="1" />
    </linearGradient>
    <linearGradient
       id="linearGradient3031"
       y2="43"
       gradientUnits="userSpaceOnUse"
       x2="24"
       gradientTransform="translate(3.7e-6,1)"
       y1="5"
       x1="24">
      <stop
         id="stop3926-2-0"
         stop-color="#fff"
         offset="0" />
      <stop
         id="stop3928-2-0"
         stop-color="#fff"
         stop-opacity=".23529"
         offset=".063165" />
      <stop
         id="stop3930-6-1"
         stop-color="#fff"
         stop-opacity=".15686"
         offset=".95056" />
      <stop
         id="stop3932-1-6"
         stop-color="#fff"
         stop-opacity=".39216"
         offset="1" />
    </linearGradient>
    <radialGradient
       id="radialGradient3039"
       gradientUnits="userSpaceOnUse"
       cy="8.4498"
       cx="11.546"
       gradientTransform="matrix(1.9428e-8,2.337,-2.4723,-4.3056e-8,44.89,-11.435)"
       r="20">
      <stop
         id="stop3750-6-3-7-0-5-3-5-7"
         stop-color="#54bfec"
         offset="0" />
      <stop
         id="stop3752-3-7-7-6-4-4-3-4"
         stop-color="#55c1ec"
         offset=".26238" />
      <stop
         id="stop3754-1-7-4-6-36-7-7-2-4"
         stop-color="#3689e6"
         offset=".70495" />
      <stop
         id="stop3756-7-5-7-1-4-3-1-7"
         stop-color="#2b63a0"
         offset="1" />
    </radialGradient>
    <linearGradient
       id="linearGradient3041"
       y2="3.899"
       gradientUnits="userSpaceOnUse"
       x2="24"
       gradientTransform="translate(2e-6,1)"
       y1="44"
       x1="24">
      <stop
         id="stop3760-3-9-5"
         stop-color="#1e74bc"
         offset="0" />
      <stop
         id="stop3762-0-8-9"
         stop-color="#3fa8ea"
         offset="1" />
    </linearGradient>
  </defs>
  <metadata
     id="metadata5395">
    <rdf:RDF>
      <cc:Work
         rdf:about="">
        <dc:format>image/svg+xml</dc:format>
        <dc:type
           rdf:resource="http://purl.org/dc/dcmitype/StillImage" />
        <dc:title />
      </cc:Work>
    </rdf:RDF>
  </metadata>
  <g
     id="g4167"
     transform="translate(0,-1)">
    <rect
       x="4.5"
       y="5.5"
       width="39"
       ry="2"
       rx="2"
       style="color:#000000;fill:url(#radialGradient3039);stroke:url(#linearGradient3041);stroke-linecap:round;stroke-linejoin:round"
       height="39"
       id="rect5505-21-69-0" />
    <path
       d="m 9,8 0,2 -1.5,0 0,1 1.5,0 0,4 -1.5,0 0,1 1.5,0 0,4 -1.5,0 0,1 1.5,0 0,4 -1.5,0 0,1 1.5,0 0,4 -1.5,0 0,1 1.5,0 0,4 -1.5,0 0,1 1.5,0 0,4 -1.5,0 0,1 1.5,0 0,1 1,0 0,-1 4,0 0,1 1,0 0,-1 4,0 0,1 1,0 0,-1 4,0 0,1 1,0 0,-1 4,0 0,1 1,0 0,-1 4,0 0,1 1,0 0,-1 4,0 0,1 1,0 0,-1 1.5,0 0,-1 -1.5,0 0,-4 1.5,0 0,-1 -1.5,0 0,-4 1.5,0 0,-1 -1.5,0 0,-4 1.5,0 0,-1 -1.5,0 0,-4 1.5,0 0,-1 -1.5,0 0,-4 1.5,0 0,-1 -1.5,0 0,-4 1.5,0 0,-1 -1.5,0 0,-2 -1,0 0,2 -4,0 0,-2 -1,0 0,2 -4,0 0,-2 -1,0 0,2 -4,0 0,-2 -1,0 0,2 -4,0 0,-2 -1,0 0,2 -4,0 0,-2 -1,0 0,2 -4,0 0,-2 -1,0 z m 1,3 4,0 0,4 -4,0 0,-4 z m 5,0 4,0 0,4 -4,0 0,-4 z m 5,0 4,0 0,4 -4,0 0,-4 z m 5,0 4,0 0,4 -4,0 0,-4 z m 5,0 4,0 0,4 -4,0 0,-4 z m 5,0 4,0 0,4 -4,0 0,-4 z m -25,5 4,0 0,4 -4,0 0,-4 z m 5,0 4,0 0,4 -4,0 0,-4 z m 5,0 4,0 0,4 -4,0 0,-4 z m 5,0 4,0 0,4 -4,0 0,-4 z m 5,0 4,0 0,4 -4,0 0,-4 z m 5,0 4,0 0,4 -4,0 0,-4 z m -25,5 4,0 0,4 -4,0 0,-4 z m 5,0 4,0 0,4 -4,0 0,-4 z m 5,0 4,0 0,4 -4,0 0,-4 z m 5,0 4,0 0,4 -4,0 0,-4 z m 5,0 4,0 0,4 -4,0 0,-4 z m 5,0 4,0 0,4 -4,0 0,-4 z m -25,5 4,0 0,4 -4,0 0,-4 z m 5,0 4,0 0,4 -4,0 0,-4 z m 5,0 4,0 0,4 -4,0 0,-4 z m 5,0 4,0 0,4 -4,0 0,-4 z m 5,0 4,0 0,4 -4,0 0,-4 z m 5,0 4,0 0,4 -4,0 0,-4 z m -25,5 4,0 0,4 -4,0 0,-4 z m 5,0 4,0 0,4 -4,0 0,-4 z m 5,0 4,0 0,4 -4,0 0,-4 z m 5,0 4,0 0,4 -4,0 0,-4 z m 5,0 4,0 0,4 -4,0 0,-4 z m 5,0 4,0 0,4 -4,0 0,-4 z m -25,5 4,0 0,4 -4,0 0,-4 z m 5,0 4,0 0,4 -4,0 0,-4 z m 5,0 4,0 0,4 -4,0 0,-4 z m 5,0 4,0 0,4 -4,0 0,-4 z m 5,0 4,0 0,4 -4,0 0,-4 z m 5,0 4,0 0,4 -4,0 0,-4 z"
       style="color:#000000;opacity:0.1;fill:#ffffff"
       id="rect3132"
       inkscape:connector-curvature="0" />
    <path
       d="m 24.899,7 c -2.2536,0.10078 -4.7576,0.74565 -7.5938,2.0312 a 3.0056,3.0056 0 0 0 1.4688,5.75 c 0,0 2.2666,-0.04358 3.4375,0.34375 0.58543,0.19366 0.56343,0.34599 0.46875,0.125 -0.09468,-0.22099 0.18146,-0.06983 -0.5625,1.2188 l -2.125,3.6875 a 3.0056,3.0056 0 0 0 -2.5,1.5 l -8.0939,14.032 a 3.0056,3.0056 0 0 0 1.0938,4.0938 l 4.8438,2.8125 a 3.0056,3.0056 0 0 0 4.093,-1.094 l 8.125,-14.031 a 3.0056,3.0056 0 0 0 0.0625,-2.9375 l 1.75,-3.0312 a 3.0056,3.0056 0 0 0 1.0938,1.0625 l 2.2188,1.2812 a 3.0056,3.0056 0 0 0 4.093,-1.095 l 3.25,-5.6562 a 3.0056,3.0056 0 0 0 -1.062,-4.094 l -2.1875,-1.2812 a 3.0056,3.0056 0 0 0 -2.2812,-0.3125 l -0.28125,0.0625 c -0.778,-1.14 -1.89,-2.3866 -3.625,-3.2805 -1.505,-0.7749 -3.441,-1.288 -5.688,-1.1875 z"
       style="color:#000000;opacity:0.05;fill:#2e8ed3"
       id="path5258-8"
       inkscape:connector-curvature="0" />
    <rect
       x="5.5"
       y="6.5"
       width="37"
       height="37"
       ry="1"
       rx="1"
       id="rect6741-1"
       style="opacity:0.5;fill:none;stroke:url(#linearGradient3031);stroke-linecap:round;stroke-linejoin:round" />
    <path
       d="M 23.999,12 C 16.8212,12 11,17.9675 11,25.329 c 0,5.889 3.7245,10.884 8.8904,12.647 0.65042,0.12274 0.88744,-0.28884 0.88744,-0.64233 0,-0.31667 -0.01117,-1.1546 -0.01756,-2.2666 -3.616,0.80516 -4.379,-1.7871 -4.379,-1.7871 -0.59136,-1.54 -1.4437,-1.9499 -1.4437,-1.9499 -1.1803,-0.82644 0.08938,-0.81007 0.08938,-0.81007 1.3048,0.0941 1.9912,1.3739 1.9912,1.3739 1.1596,2.0366 3.043,1.4483 3.7836,1.1071 0.11811,-0.86081 0.4541,-1.4483 0.82519,-1.7813 -2.8866,-0.3363 -5.9216,-1.4802 -5.9216,-6.5878 0,-1.4549 0.50677,-2.6454 1.3383,-3.5766 -0.13407,-0.33712 -0.58019,-1.693 0.12769,-3.5275 0,0 1.0909,-0.3584 3.5745,1.3665 1.0367,-0.29621 2.1492,-0.4435 3.2545,-0.44922 1.1045,0.0056 2.2162,0.15301 3.2545,0.44922 2.482,-1.7249 3.5713,-1.3665 3.5713,-1.3665 0.70947,1.8345 0.26336,3.1904 0.13008,3.5275 0.83317,0.93118 1.336,2.1217 1.336,3.5766 0,5.1206 -3.0398,6.2474 -5.9352,6.5771 0.46607,0.41158 0.88186,1.2249 0.88186,2.4679 0,1.7822 -0.01596,3.2198 -0.01596,3.6568 0,0.35676 0.23463,0.77162 0.89383,0.64151 5.1619,-1.7666 8.8832,-6.7588 8.8832,-12.646 0,-7.362 -5.821,-13.33 -13.001,-13.33"
       id="path4177"
       inkscape:connector-curvature="0"
       style="opacity:0.15;fill:none;stroke:#000000;stroke-width:2;stroke-linecap:round;stroke-linejoin:round" />
    <path
       d="M 23.999,12 C 16.8212,12 11,17.9675 11,25.329 c 0,5.889 3.7245,10.884 8.8904,12.647 0.65042,0.12274 0.88744,-0.28884 0.88744,-0.64233 0,-0.31667 -0.01117,-1.1546 -0.01756,-2.2666 -3.616,0.80516 -4.379,-1.7871 -4.379,-1.7871 -0.59136,-1.54 -1.4437,-1.9499 -1.4437,-1.9499 -1.1803,-0.82644 0.08938,-0.81007 0.08938,-0.81007 1.3048,0.0941 1.9912,1.3739 1.9912,1.3739 1.1596,2.0366 3.043,1.4483 3.7836,1.1071 0.11811,-0.86081 0.4541,-1.4483 0.82519,-1.7813 -2.8866,-0.3363 -5.9216,-1.4802 -5.9216,-6.5878 0,-1.4549 0.50677,-2.6454 1.3383,-3.5766 -0.13407,-0.33712 -0.58019,-1.693 0.12769,-3.5275 0,0 1.0909,-0.3584 3.5745,1.3665 1.0367,-0.29621 2.1492,-0.4435 3.2545,-0.44922 1.1045,0.0056 2.2162,0.15301 3.2545,0.44922 2.482,-1.7249 3.5713,-1.3665 3.5713,-1.3665 0.70947,1.8345 0.26336,3.1904 0.13008,3.5275 0.83317,0.93118 1.336,2.1217 1.336,3.5766 0,5.1206 -3.0398,6.2474 -5.9352,6.5771 0.46607,0.41158 0.88186,1.2249 0.88186,2.4679 0,1.7822 -0.01596,3.2198 -0.01596,3.6568 0,0.35676 0.23463,0.77162 0.89383,0.64151 5.1619,-1.7666 8.8832,-6.7588 8.8832,-12.646 0,-7.362 -5.821,-13.33 -13.001,-13.33"
       id="path4179"
       inkscape:connector-curvature="0"
       style="opacity:0.15;fill:none;stroke:#000000;stroke-linecap:round;stroke-linejoin:round" />
    <path
       d="M 23.999,12 C 16.8212,12 11,17.9675 11,25.329 c 0,5.889 3.7245,10.884 8.8904,12.647 0.65042,0.12274 0.88744,-0.28884 0.88744,-0.64233 0,-0.31667 -0.01117,-1.1546 -0.01756,-2.2666 -3.616,0.80516 -4.379,-1.7871 -4.379,-1.7871 -0.59136,-1.54 -1.4437,-1.9499 -1.4437,-1.9499 -1.1803,-0.82644 0.08938,-0.81007 0.08938,-0.81007 1.3048,0.0941 1.9912,1.3739 1.9912,1.3739 1.1596,2.0366 3.043,1.4483 3.7836,1.1071 0.11811,-0.86081 0.4541,-1.4483 0.82519,-1.7813 -2.8866,-0.3363 -5.9216,-1.4802 -5.9216,-6.5878 0,-1.4549 0.50677,-2.6454 1.3383,-3.5766 -0.13407,-0.33712 -0.58019,-1.693 0.12769,-3.5275 0,0 1.0909,-0.3584 3.5745,1.3665 1.0367,-0.29621 2.1492,-0.4435 3.2545,-0.44922 1.1045,0.0056 2.2162,0.15301 3.2545,0.44922 2.482,-1.7249 3.5713,-1.3665 3.5713,-1.3665 0.70947,1.8345 0.26336,3.1904 0.13008,3.5275 0.83317,0.93118 1.336,2.1217 1.336,3.5766 0,5.1206 -3.0398,6.2474 -5.9352,6.5771 0.46607,0.41158 0.88186,1.2249 0.88186,2.4679 0,1.7822 -0.01596,3.2198 -0.01596,3.6568 0,0.35676 0.23463,0.77162 0.89383,0.64151 5.1619,-1.7666 8.8832,-6.7588 8.8832,-12.646 0,-7.362 -5.821,-13.33 -13.001,-13.33"
       id="path3815"
       inkscape:connector-curvature="0"
       style="fill:#ffffff;fill-rule:evenodd" />
  </g>
</svg>
