<?xml version="1.0" encoding="UTF-8" standalone="no"?>
<!-- Created with Inkscape (http://www.inkscape.org/) -->

<svg
   xmlns:dc="http://purl.org/dc/elements/1.1/"
   xmlns:cc="http://creativecommons.org/ns#"
   xmlns:rdf="http://www.w3.org/1999/02/22-rdf-syntax-ns#"
   xmlns:svg="http://www.w3.org/2000/svg"
   xmlns="http://www.w3.org/2000/svg"
   xmlns:sodipodi="http://sodipodi.sourceforge.net/DTD/sodipodi-0.dtd"
   xmlns:inkscape="http://www.inkscape.org/namespaces/inkscape"
   id="svg6649"
   height="48"
   width="48"
   version="1.1"
   inkscape:version="0.91 r13725"
   sodipodi:docname="stardrive2.svg">
  <sodipodi:namedview
     pagecolor="#ffffff"
     bordercolor="#666666"
     borderopacity="1"
     objecttolerance="10"
     gridtolerance="10"
     guidetolerance="10"
     inkscape:pageopacity="0"
     inkscape:pageshadow="2"
     inkscape:window-width="1535"
     inkscape:window-height="876"
     id="namedview43"
     showgrid="false"
     inkscape:zoom="4.9166667"
     inkscape:cx="-10.779661"
     inkscape:cy="24"
     inkscape:window-x="65"
     inkscape:window-y="24"
     inkscape:window-maximized="1"
     inkscape:current-layer="svg6649" />
  <defs
     id="defs6651">
    <radialGradient
       id="radialGradient5521-1"
       fx="6.2002"
       gradientUnits="userSpaceOnUse"
       cy="9.9571"
       cx="6.7304"
       gradientTransform="matrix(0,9.4976,-11.66,0,140.93,-79.161)"
       r="12.672">
      <stop
         id="stop4230"
         stop-color="#529bad"
         offset="0" />
      <stop
         id="stop4232"
         stop-color="#7ea5c3"
         offset=".26238" />
      <stop
         id="stop4234"
         stop-color="#bbb661"
         offset=".70495" />
      <stop
         id="stop4236"
         stop-color="#4b67b4"
         offset="1" />
    </radialGradient>
    <radialGradient
       id="radialGradient3013"
       gradientUnits="userSpaceOnUse"
       cy="43.5"
       cx="4.993"
       gradientTransform="matrix(2.0038 0 0 1.4 27.988 -17.4)"
       r="2.5">
      <stop
         id="stop2883"
         stop-color="#181818"
         offset="0" />
      <stop
         id="stop2885"
         stop-color="#181818"
         stop-opacity="0"
         offset="1" />
    </radialGradient>
    <radialGradient
       id="radialGradient3015"
       gradientUnits="userSpaceOnUse"
       cy="43.5"
       cx="4.993"
       gradientTransform="matrix(2.0038 0 0 1.4 -20.012 -104.4)"
       r="2.5">
      <stop
         id="stop2889"
         stop-color="#181818"
         offset="0" />
      <stop
         id="stop2891"
         stop-color="#181818"
         stop-opacity="0"
         offset="1" />
    </radialGradient>
    <linearGradient
       id="linearGradient6647"
       y2="39.999"
       gradientUnits="userSpaceOnUse"
       x2="25.058"
       y1="47.028"
       x1="25.058">
      <stop
         id="stop2895"
         stop-color="#181818"
         stop-opacity="0"
         offset="0" />
      <stop
         id="stop2897"
         stop-color="#181818"
         offset=".5" />
      <stop
         id="stop2899"
         stop-color="#181818"
         stop-opacity="0"
         offset="1" />
    </linearGradient>
    <clipPath
       id="clipPath-501592574">
      <g
         id="g17"
         transform="translate(0 -1004.4)">
        <path
           id="path19"
           d="m-24 13c0 1.105-0.672 2-1.5 2s-1.5-0.895-1.5-2 0.672-2 1.5-2 1.5 0.895 1.5 2z"
           fill="#1890d0"
           transform="matrix(15.333 0 0 11.5 415 878.86)" />
      </g>
    </clipPath>
    <linearGradient
       id="linearGradient3044"
       y2="43"
       gradientUnits="userSpaceOnUse"
       y1="5"
       gradientTransform="translate(-45.079,-5.2206)"
       x2="24"
       x1="24">
      <stop
         id="stop4349"
         stop-color="#fff"
         stop-opacity="0"
         offset="0" />
      <stop
         id="stop4351"
         stop-color="#fff"
         stop-opacity=".23529"
         offset=".063165" />
      <stop
         id="stop4353"
         stop-color="#fff"
         stop-opacity=".15686"
         offset=".95056" />
      <stop
         id="stop4355"
         stop-color="#fff"
         stop-opacity=".39216"
         offset="1" />
    </linearGradient>
  </defs>
  <metadata
     id="metadata6654">
    <rdf:RDF>
      <cc:Work
         rdf:about="">
        <dc:format>image/svg+xml</dc:format>
        <dc:type
           rdf:resource="http://purl.org/dc/dcmitype/StillImage" />
        <dc:title />
      </cc:Work>
    </rdf:RDF>
  </metadata>
  <g
     id="g47"
     transform="matrix(.90907 0 0 .92294 -63.753 1.5601)">
    <g
       id="g49"
       clip-path="url(#clipPath-501592574)">
      <!-- color: #6cce3d -->
    </g>
  </g>
  <g
     id="g4171"
     transform="translate(0,-1)">
    <rect
       x="4.5"
       y="5.5"
       width="39"
       height="39"
       ry="2"
       rx="2"
       style="color:#000000;fill:url(#radialGradient5521-1)"
       id="rect5505-21" />
    <g
       transform="matrix(1.014,0,0,1.0442,1.0798,-0.71755)"
       id="g4313"
       style="opacity:0.15;fill:none;stroke:#000000;stroke-width:1.94369996;stroke-linecap:round;stroke-linejoin:round">
      <path
         d="m 24.576,16.01 c -0.54463,5.3e-5 -0.98613,0.42879 -0.98618,0.95768 l 0,1.0942 c 5.4e-5,0.52889 0.44155,0.95763 0.98618,0.95768 l 0.47961,0 c 0.44774,0 0.80004,0.01648 1.0343,0.04115 0.0173,0.0017 0.03464,0.0029 0.05201,0.0037 0.08912,0.0047 0.03543,-0.01049 0.06164,-0.0037 0.0051,0.04745 0.0077,0.03693 0.0077,0.11784 l 0,8.3404 c -2.9228,0.0019 -5.8857,0.0036 -8.0917,0.0019 -1.0697,-8.31e-4 -1.8627,-0.0017 -2.5829,-0.0037 0.5471,-0.80035 1.2517,-1.8265 1.9685,-2.8656 1.1086,-1.607 1.7335,-2.5053 2.2189,-3.206 l 3.5961,4.2684 c 0.18712,0.22232 0.46707,0.35138 0.76275,0.35165 l 0.49309,0 c 0.7658,-5.51e-4 1.2388,-0.81148 0.84557,-1.4496 l -4.4378,-7.1826 C 20.80574,17.14467 20.48474,16.96786 20.1382,16.96765 l -3.9447,0 c -0.31074,-1.32e-4 -0.60338,0.14196 -0.78972,0.38345 l -10.354,13.409 c -0.49955,0.64626 -0.00123,1.5658 0.83016,1.5319 l 20.332,-0.81178 0,0.49193 c 0,0.07421 -0.0053,0.07252 -0.0096,0.12532 -0.03852,0.0096 -0.01929,0.0032 -0.09053,0.01309 -0.26155,0.0132 -0.61037,0.02244 -1.0555,0.02244 l -0.47961,0 c -0.54463,5.3e-5 -0.98613,0.42879 -0.98618,0.95768 l 0,1.1167 c 5.5e-5,0.52889 0.44155,0.95762 0.98618,0.95768 l 7.8894,0 7.8894,0 c 0.54463,-5.3e-5 0.98613,-0.42879 0.98618,-0.95768 l 0,-1.1167 c -5.9e-5,-0.5289 -0.44157,-0.95763 -0.98621,-0.95767 l -0.45649,0 c -0.45569,0 -0.80659,-0.0095 -1.0671,-0.02244 -0.06599,-0.0084 -0.05943,-0.0091 -0.10208,-0.0187 -0.0041,-0.05146 -0.0096,-0.04881 -0.0096,-0.11971 l 0,-0.99135 3.155,-0.12532 -0.04238,-3.3519 c 0,0 -2.4994,0.0028 -3.1126,0.0037 l 0,-8.3273 c 0,-0.07326 0.0031,-0.06045 0.0077,-0.10662 0.0322,-0.0065 6.96e-4,-0.004 0.06356,-0.0075 0.01672,-8.2e-4 0.03342,-0.0021 0.05008,-0.0037 0.23243,-0.02446 0.59378,-0.04115 1.0574,-0.04115 l 0.45649,0 c 0.54463,-5.3e-5 0.98613,-0.42879 0.98618,-0.95768 l 0,-1.0942 c -5.5e-5,-0.52889 -0.44155,-0.95762 -0.98618,-0.95768 l -7.8894,0 -7.8894,0 z m 1.6738,1.1429 0.05201,0.0037 c -0.01274,-0.0013 -0.03331,-5.85e-4 -0.04623,-0.0019 -0.002,-1.04e-4 -0.0038,-0.0018 -0.0058,-0.0019 z m 4.5399,0 c -0.0026,1.44e-4 -0.0051,0.0017 -0.0077,0.0019 -0.01168,0.0012 -0.03085,6.58e-4 -0.04237,0.0019 l 0.05008,-0.0037 z m 3.3495,0 0.05201,0.0037 c -0.01274,-0.0013 -0.03331,-5.85e-4 -0.04623,-0.0019 -0.002,-1.04e-4 -0.0038,-0.0018 -0.0058,-0.0019 z m 4.5399,0 c -0.0026,1.44e-4 -0.0051,0.0017 -0.0077,0.0019 -0.01168,0.0012 -0.03085,6.58e-4 -0.04238,0.0019 L 38.6791,17.153 Z m -11.395,0.26374 0.10786,0.06172 c -0.0245,-0.01633 -0.04876,-0.0059 -0.07319,-0.02057 -0.01551,-0.0085 -0.01901,-0.03332 -0.03467,-0.04115 z m 2.4732,0 c -0.0086,0.0043 -0.0107,0.01793 -0.01926,0.02245 -0.01565,0.0088 -0.03255,0.0037 -0.04815,0.01309 z m 5.4163,0 0.10786,0.06172 c -0.0245,-0.01633 -0.04876,-0.0059 -0.07319,-0.02057 -0.01551,-0.0085 -0.01901,-0.03332 -0.03467,-0.04115 z m 2.4732,0 c -0.0086,0.0043 -0.0107,0.01793 -0.01926,0.02245 -0.01565,0.0088 -0.03255,0.0037 -0.04815,0.01309 z m -9.9273,0.50877 1.6025,0 c -0.11772,0.1468 -0.29782,0.2393 -0.35056,0.40963 -0.09286,0.28864 -0.11364,0.55183 -0.11364,0.84358 l 0,7.7643 c -0.18036,1.21e-4 -0.49218,0.0018 -0.67415,0.0019 l 0,-7.7662 c 1.2e-5,-0.29179 -0.02079,-0.55497 -0.11364,-0.84358 -0.05274,-0.17032 -0.23284,-0.26283 -0.35056,-0.40963 z m 7.8894,0 1.6025,0 c -0.11772,0.1468 -0.29782,0.2393 -0.35056,0.40963 -0.09286,0.28864 -0.11364,0.55183 -0.11364,0.84358 l 0,7.755 c -0.22176,10e-5 -0.43229,0.0018 -0.67415,0.0019 l 0,-7.7568 c 0,-0.29175 -0.02078,-0.55494 -0.11364,-0.84358 -0.05274,-0.17032 -0.23284,-0.26283 -0.35056,-0.40963 z m -18.922,0.95768 2.8931,0 0.0019,0.0019 c -0.30527,0.01899 -0.58419,0.17446 -0.75504,0.42086 0,0 -1.4784,2.1341 -2.9585,4.2796 -0.74005,1.0728 -1.4815,2.1485 -2.0378,2.9628 -0.27817,0.40717 -0.50924,0.74904 -0.67415,0.99509 -0.08245,0.12302 -0.14738,0.22139 -0.19647,0.2974 -0.02454,0.03801 -0.04445,0.06978 -0.06549,0.10475 -0.01052,0.01748 -0.02101,0.0324 -0.03852,0.06547 -0.0088,0.01653 -0.01863,0.03651 -0.0366,0.07856 -0.009,0.02103 -0.02007,0.04797 -0.03467,0.09539 -0.0146,0.04743 -0.04237,0.27463 -0.04237,0.27496 0,1.7e-4 0.72745,0.92637 0.79164,0.93897 0.06419,0.0126 0.08382,0.01319 0.10208,0.01496 0.03654,0.0035 0.05036,0.003 0.06549,0.0037 0.03027,0.0014 0.05396,0.003 0.08475,0.0037 0.06158,0.0014 0.14344,0.0027 0.24847,0.0037 0.21006,0.0021 0.51226,0.0041 0.89758,0.0056 0.77063,0.003 1.8698,0.0046 3.1878,0.0056 2.636,0.002 6.148,8.57e-4 9.6615,-0.0019 0.83396,-6.47e-4 0.84582,-0.0011 1.668,-0.0019 l -21.575,0.86059 z m 15.322,0.13654 0.45649,0 0.47961,0 c 0.44774,0 0.80004,0.01648 1.0343,0.04115 0.0173,0.0017 0.03464,0.0029 0.05201,0.0037 0.08912,0.0047 0.03543,-0.01049 0.06164,-0.0037 0.0051,0.04746 0.0077,0.03691 0.0077,0.11784 l 0,8.3329 c -1.3046,0.0016 -1.7122,0.0021 -3.2706,0.0037 l 0,-8.3367 c 0,-0.07326 0.0031,-0.06045 0.0077,-0.10662 0.0322,-0.0065 6.97e-4,-0.004 0.06356,-0.0075 0.01672,-8.2e-4 0.03342,-0.0021 0.05008,-0.0037 0.23243,-0.02446 0.59378,-0.04115 1.0574,-0.04115 z m 2.0918,12.145 0,0.80617 c 0,0.07421 -0.0053,0.07252 -0.0096,0.12532 -0.03852,0.0096 -0.01929,0.0032 -0.09053,0.01309 -0.26155,0.0132 -0.61037,0.02244 -1.0555,0.02244 l -0.47961,0 -0.45649,0 c -0.45569,0 -0.80659,-0.0095 -1.0671,-0.02244 -0.06599,-0.0084 -0.05943,-0.0091 -0.10209,-0.0187 -0.0041,-0.05146 -0.0096,-0.04881 -0.0096,-0.11971 l 0,-0.67524 3.2706,-0.13093 z m 2.6465,0.46762 0,0.33856 c 0,0.31076 0.01739,0.58767 0.10594,0.88286 0.0031,0.0094 0.0063,0.01875 0.0096,0.02806 0.05354,0.16062 0.21919,0.23367 0.32744,0.36661 l -1.5602,0 c 0.10826,-0.13294 0.2739,-0.20598 0.32744,-0.36661 0.0033,-0.0093 0.0065,-0.01866 0.0096,-0.02806 0.08859,-0.29527 0.10594,-0.57213 0.10594,-0.88286 l 0,-0.31237 0.67415,-0.02619 z m -7.8894,0.31611 0,0.02245 c 0,0.31076 0.01739,0.58767 0.10594,0.88286 0.0031,0.0094 0.0063,0.01875 0.0096,0.02806 0.05354,0.16062 0.21919,0.23367 0.32744,0.36661 l -1.5602,0 c 0.10826,-0.13294 0.2739,-0.20598 0.32744,-0.36661 0.0033,-0.0093 0.0065,-0.01866 0.0096,-0.02806 0.08822,-0.29404 0.10579,-0.56996 0.10594,-0.87912 l 0.67415,-0.02619 z m -1.5351,1.7882 -0.03852,0.02058 c 0.0049,-0.0025 0.0066,-0.01056 0.01156,-0.01309 0.0091,-0.0049 0.01777,-0.0024 0.02697,-0.0075 z m 7.8894,0 -0.03852,0.02058 c 0.0049,-0.0025 0.0066,-0.01056 0.01156,-0.01309 0.0091,-0.0049 0.01778,-0.0024 0.02697,-0.0075 z"
         style="color:#000000;text-indent:0;text-decoration:none;text-decoration-line:none;text-decoration-style:solid;text-decoration-color:#000000;text-transform:none;block-progression:tb;white-space:normal;opacity:1;isolation:auto;mix-blend-mode:normal;solid-color:#000000;fill:#000000;color-rendering:auto;image-rendering:auto;shape-rendering:auto"
         id="path4315"
         inkscape:connector-curvature="0" />
    </g>
    <g
       transform="matrix(1.014,0,0,1.0442,1.0798,-0.71755)"
       id="g4317"
       style="opacity:0.15;fill:none;stroke:#000000;stroke-width:0.97183001;stroke-linecap:round;stroke-linejoin:round">
      <path
         d="m 24.576,16.489 c -0.27232,2.6e-5 -0.49306,0.21439 -0.49309,0.47884 l 0,1.0942 c 2.7e-5,0.26444 0.22078,0.47881 0.49309,0.47884 l 0.47961,0 c 0.45949,0 0.82478,0.01736 1.0863,0.04489 0.009,8.73e-4 0.01796,0.0015 0.02697,0.0019 0.24047,0.01265 0.37139,0.06559 0.38523,0.07482 0.01726,0.01171 0.03527,0.02233 0.05393,0.0318 0.05063,0.02531 0.03759,0.0153 0.04815,0.0505 l 0.0039,0.01309 c 0.01891,0.05673 0.04431,0.20546 0.0443,0.42086 l 0,8.7239 c -9.3e-5,0.03203 0.0031,0.06398 0.0096,0.09539 -3.1156,0.0021 -6.251,0.0037 -8.5944,0.0019 -1.3172,-10e-4 -2.4145,-0.0026 -3.182,-0.0056 -0.13568,-5.27e-4 -0.19954,-0.0013 -0.31396,-0.0019 0.13548,-0.20018 0.25651,-0.38171 0.43916,-0.64905 0.55392,-0.81078 1.2946,-1.8854 2.034,-2.9572 1.2939,-1.8756 2.2834,-3.3049 2.5868,-3.7428 l 4.0179,4.7678 c 0.09356,0.11116 0.23354,0.17569 0.38137,0.17582 l 0.49309,0 c 0.38409,8.9e-4 0.62174,-0.40612 0.42375,-0.72574 l -4.4378,-7.1826 C 20.47247,17.53437 20.31157,17.4463 20.13815,17.44672 l -3.9447,0 c -0.1552,-2.87e-4 -0.30149,0.0704 -0.39486,0.19079 l -10.354,13.407 C 5.19308,31.3681 5.44358,31.82985 5.86064,31.8114 l 20.85,-0.833 c -0.0039,0.02475 -0.0059,0.04977 -0.0058,0.07482 l 0,0.91653 c 0,0.22681 -0.02271,0.38695 -0.04623,0.46949 -0.003,0.01154 0.0094,0.0095 -0.05008,0.03928 -0.0065,0.0036 -0.01293,0.0073 -0.01926,0.01122 -0.03096,0.0172 -0.19293,0.06831 -0.44108,0.09539 -0.27447,0.01405 -0.63627,0.02432 -1.0921,0.02432 l -0.47961,0 c -0.27232,2.6e-5 -0.49306,0.21439 -0.49309,0.47884 l 0,1.1167 c 2.7e-5,0.26444 0.22078,0.47881 0.49309,0.47884 l 7.8894,0 7.8894,0 c 0.27232,-2.7e-5 0.49306,-0.2144 0.49309,-0.47884 l 0,-1.1167 c -2.7e-5,-0.26444 -0.22078,-0.47881 -0.49309,-0.47884 l -0.45649,0 c -0.47441,0 -0.84816,-0.0101 -1.1229,-0.02432 -0.22559,-0.02697 -0.38644,-0.07351 -0.45264,-0.10662 -0.05949,-0.02975 -0.04706,-0.02773 -0.05008,-0.03928 -0.02352,-0.08258 -0.04623,-0.24269 -0.04623,-0.46949 l 0,-1.3374 c 8.3e-5,-0.03779 -0.0044,-0.07547 -0.01348,-0.11223 l 3.6423,-0.1459 -0.02119,-2.3942 c 0,0 -2.806,0.0026 -3.6173,0.0037 0.0063,-0.03079 0.0096,-0.06212 0.0096,-0.09352 l 0,-8.7126 c 0,-0.21542 0.0254,-0.36414 0.0443,-0.42086 l 0.0039,-0.01309 c 0.01056,-0.03519 -0.0025,-0.02518 0.04815,-0.0505 0.01181,-0.0058 0.02338,-0.01202 0.03467,-0.0187 0.04977,-0.02986 0.18303,-0.0755 0.40642,-0.08791 0.0084,-4.27e-4 0.01671,-0.0011 0.02504,-0.0019 0.26063,-0.02743 0.6344,-0.04489 1.1095,-0.04489 l 0.45649,0 c 0.27232,-2.7e-5 0.49306,-0.2144 0.49309,-0.47884 l 0,-1.0942 c -2.7e-5,-0.26444 -0.22078,-0.47881 -0.49309,-0.47884 l -7.8894,0 -7.8894,0 z m 0.49309,0.95768 7.3964,0 7.3964,0 0,0.13842 c -0.46712,9.25e-4 -0.85141,0.01389 -1.1557,0.04489 -0.0015,8.4e-5 -0.0023,0.0018 -0.0039,0.0019 -0.31347,0.01781 -0.59353,0.07953 -0.84172,0.22259 -0.24505,0.12794 -0.4518,0.35565 -0.53161,0.61725 -0.06997,0.21435 -0.0886,0.43958 -0.0886,0.70704 l 0,8.2338 c -0.48895,3.61e-4 -1.0503,0.0014 -1.6603,0.0019 l 0,-8.2357 c 0,-0.26745 -0.01864,-0.49269 -0.0886,-0.70704 -0.07863,-0.2577 -0.28376,-0.47882 -0.52391,-0.6079 -0.25111,-0.1568 -0.52899,-0.21657 -0.85135,-0.23381 -0.0014,-7.2e-5 -0.0025,7.2e-5 -0.0039,0 -0.3124,-0.03177 -0.69517,-0.04676 -1.1672,-0.04676 l -0.47961,0 -0.45649,0 c -0.48757,0 -0.87837,0.01478 -1.1923,0.04676 -0.0015,8.4e-5 -0.0023,0.0018 -0.0039,0.0019 -0.31347,0.01781 -0.59353,0.07953 -0.84172,0.22259 -0.24505,0.12794 -0.4518,0.35565 -0.53161,0.61725 -0.06997,0.21435 -0.0886,0.43958 -0.0886,0.70704 l 0,8.2431 c -0.57236,4.81e-4 -1.0776,0.0015 -1.6603,0.0019 l 0,-8.245 c 10e-6,-0.26747 -0.01864,-0.49271 -0.0886,-0.70704 -0.07862,-0.2577 -0.28376,-0.47882 -0.52391,-0.6079 -0.25111,-0.1568 -0.52899,-0.21657 -0.85135,-0.23381 l -0.0039,0 c -0.309,-0.032 -0.69,-0.047 -1.154,-0.048 l 0,-0.13654 z m -8.6291,0.95768 3.4189,0 2.163,3.5034 -1.9955,-2.3699 c -0.20924,-0.2476 -0.60496,-0.22979 -0.78972,0.03554 0,0 -1.4808,2.1347 -2.9605,4.2796 -0.73984,1.0725 -1.4785,2.1478 -2.034,2.9609 -0.27777,0.40658 -0.5108,0.74575 -0.67415,0.98948 -0.08168,0.12186 -0.14448,0.22023 -0.19069,0.29179 -0.02311,0.03578 -0.04167,0.06487 -0.05778,0.09165 -0.0081,0.01339 -0.01486,0.02567 -0.02504,0.04489 -0.0051,0.0096 -0.01185,0.01928 -0.02119,0.04115 -0.0047,0.01093 -0.0099,0.02463 -0.01733,0.04863 -0.0074,0.02401 -0.02119,0.13809 -0.02119,0.13842 0,1.7e-4 0.36426,0.4631 0.39678,0.46949 0.03252,0.0064 0.04202,0.0065 0.05201,0.0075 0.01997,0.0019 0.02951,0.0032 0.04045,0.0037 0.02189,0.001 0.0445,0.0012 0.07319,0.0019 0.05738,0.0013 0.13679,0.0027 0.24077,0.0037 0.20796,0.0021 0.51086,0.0041 0.89565,0.0056 0.76958,0.003 1.8681,0.0046 3.1858,0.0056 2.6355,0.002 6.1481,8.57e-4 9.6615,-0.0019 6.7802,-0.0053 13.093,-0.01611 13.56,-0.01683 l 0,0.49754 -34.484,1.3767 9.5825,-12.409 z m 15.569,0.13654 0.45649,0 0.47961,0 c 0.45949,0 0.82478,0.01736 1.0863,0.04489 0.009,8.72e-4 0.01796,0.0015 0.02696,0.0019 0.24048,0.01265 0.37139,0.06559 0.38523,0.07482 0.01726,0.01171 0.03527,0.02233 0.05393,0.0318 0.05063,0.02531 0.03759,0.0153 0.04815,0.0505 l 0.0039,0.01309 c 0.0189,0.05672 0.0443,0.20544 0.0443,0.42086 l 0,8.7145 c -2.24e-4,0.03266 0.003,0.06525 0.0096,0.09727 -1.6341,0.0021 -2.2083,0.0016 -4.276,0.0037 0.0063,-0.03079 0.0096,-0.06212 0.0096,-0.09352 l 0,-8.722 c 0,-0.21542 0.0254,-0.36414 0.0443,-0.42086 l 0.0039,-0.01309 c 0.01056,-0.03519 -0.0025,-0.02518 0.04815,-0.0505 0.01181,-0.0058 0.02338,-0.01202 0.03467,-0.0187 0.04977,-0.02986 0.18303,-0.0755 0.40642,-0.08791 0.0084,-4.27e-4 0.01671,-0.0011 0.02504,-0.0019 0.26063,-0.02743 0.6344,-0.04489 1.1095,-0.04489 z m 2.5907,12.124 c -0.0039,0.02475 -0.0059,0.04977 -0.0058,0.07482 l 0,1.2308 c 0,0.22681 -0.02271,0.38695 -0.04623,0.46949 -0.003,0.01154 0.0094,0.0095 -0.05008,0.03928 -0.0065,0.0036 -0.01293,0.0073 -0.01926,0.01122 -0.03096,0.0172 -0.19293,0.06831 -0.44109,0.09539 -0.27447,0.01405 -0.63627,0.02432 -1.0921,0.02432 l -0.47961,0 -0.45649,0 c -0.47441,0 -0.84816,-0.0101 -1.1229,-0.02432 C 30.66054,32.55893 30.49969,32.51239 30.43349,32.47928 30.374,32.44953 30.38643,32.45155 30.38341,32.44 30.35989,32.35742 30.33718,32.19731 30.33718,31.97051 l 0,-1.0213 c 2.36e-4,-0.03842 -0.0043,-0.07673 -0.01348,-0.1141 l 4.276,-0.17021 z m 2.6407,0.46762 0,0.83797 c 0,0.28459 0.0196,0.52645 0.08668,0.75006 l 0.0039,0.01309 c 0.0868,0.26038 0.29922,0.47753 0.54124,0.59855 0.23556,0.11778 0.49821,0.1733 0.80705,0.20762 0.0096,0.0015 0.01922,0.0027 0.02889,0.0037 0.29279,0.01543 0.68193,0.02378 1.1538,0.02432 l 0,0.15899 -7.3964,0 -7.3964,0 0,-0.15899 c 0.47022,-2.08e-4 0.85571,-0.0086 1.1538,-0.02432 0.009,-3.94e-4 0.018,-10e-4 0.02697,-0.0019 0.3191,-0.03359 0.57727,-0.08662 0.81668,-0.21698 0.23801,-0.12191 0.44789,-0.33412 0.53354,-0.59107 l 0.0039,-0.01309 c 0.0671,-0.22364 0.08668,-0.46548 0.08668,-0.75006 l 0,-0.45639 1.6603,-0.06547 0,0.52186 c 0,0.28459 0.0196,0.52645 0.08668,0.75006 l 0.0039,0.01309 c 0.0868,0.26038 0.29922,0.47753 0.54124,0.59855 0.23556,0.11778 0.49821,0.1733 0.80705,0.20762 0.0096,0.0015 0.01923,0.0027 0.02889,0.0037 0.30207,0.01591 0.69758,0.02432 1.1904,0.02432 l 0.45649,0 0.47961,0 c 0.47779,0 0.86571,-0.0084 1.1672,-0.02432 0.009,-3.94e-4 0.018,-10e-4 0.02697,-0.0019 0.3191,-0.03359 0.57727,-0.08662 0.81668,-0.21698 0.23801,-0.12191 0.44789,-0.33412 0.53354,-0.59107 l 0.0039,-0.01309 c 0.0671,-0.22364 0.08668,-0.46548 0.08668,-0.75006 l 0,-0.77063 1.6603,-0.06734 z"
         style="color:#000000;text-indent:0;text-decoration:none;text-decoration-line:none;text-decoration-style:solid;text-decoration-color:#000000;text-transform:none;block-progression:tb;white-space:normal;opacity:1;isolation:auto;mix-blend-mode:normal;solid-color:#000000;fill:#000000;color-rendering:auto;image-rendering:auto;shape-rendering:auto"
         id="path4319"
         inkscape:connector-curvature="0" />
    </g>
    <rect
       x="4.5"
       y="5.5"
       width="39"
       height="39"
       ry="2"
       rx="2"
       style="color:#000000;opacity:0.4;fill:none;stroke:#2951ff;stroke-linecap:round;stroke-linejoin:round"
       id="rect5505-21-3-2" />
    <g
       transform="matrix(1.014,0,0,1.0442,1.0798,-0.71755)"
       id="text4296"
       style="fill:#ffffff">
      <path
         transform="matrix(0.98618,0,0,0.95768,-1.0649,0.68718)"
         d="m 26,17 0,1.143 0.486,0 c 0.478,0 0.864,0.017 1.157,0.048 0.292,0.016 0.507,0.071 0.646,0.166 0.154,0.08 0.255,0.199 0.301,0.358 0.046,0.143 0.068,0.34 0.068,0.594 l 0,9.109 c 1.34,-10e-4 1.371,-10e-4 2.684,-0.002 l 0,-9.107 c 0,-0.254 0.022,-0.451 0.068,-0.594 0.046,-0.159 0.147,-0.278 0.301,-0.358 0.154,-0.095 0.369,-0.15 0.646,-0.166 0.293,-0.031 0.687,-0.048 1.18,-0.048 l 0.463,0 0.486,0 c 0.478,0 0.864,0.017 1.157,0.048 0.292,0.016 0.507,0.071 0.646,0.166 0.154,0.08 0.255,0.199 0.301,0.358 0.046,0.143 0.068,0.34 0.068,0.594 l 0,9.099 c 0.979,-0.001 2.015,-0.001 2.684,-0.002 l 0,-9.097 c 0,-0.254 0.022,-0.451 0.068,-0.594 0.046,-0.159 0.147,-0.278 0.301,-0.358 0.154,-0.095 0.369,-0.15 0.646,-0.166 0.293,-0.031 0.687,-0.048 1.18,-0.048 l 0.463,0 0,-1.143 -8,0 -8,0 z M 17.5,18 7,32 43.5,30.5 43.5,29 c 0,0 -28.5,0.046 -28.5,0 0,-0.087 6,-9 6,-9 l 4.5,5.5 0.5,0 -4.5,-7.5 -4,0 z m 21.842,13.27 -2.684,0.111 0,1.285 c 0,0.27 -0.022,0.484 -0.068,0.643 -0.046,0.142 -0.147,0.254 -0.301,0.334 -0.139,0.079 -0.354,0.134 -0.646,0.166 -0.293,0.015 -0.679,0.025 -1.157,0.025 l -0.486,0 -0.463,0 c -0.493,0 -0.887,-0.01 -1.18,-0.025 -0.277,-0.032 -0.492,-0.087 -0.646,-0.166 -0.154,-0.08 -0.255,-0.192 -0.301,-0.334 -0.046,-0.159 -0.068,-0.373 -0.068,-0.643 l 0,-1.066 -2.684,0.109 0,0.957 c 0,0.27 -0.022,0.484 -0.068,0.643 -0.046,0.142 -0.147,0.254 -0.301,0.334 -0.139,0.079 -0.354,0.134 -0.646,0.166 -0.293,0.015 -0.679,0.025 -1.157,0.025 l -0.486,0 0,1.166 8,0 8,0 0,-1.166 -0.463,0 c -0.493,0 -0.887,-0.01 -1.18,-0.025 -0.277,-0.032 -0.492,-0.087 -0.646,-0.166 -0.154,-0.08 -0.255,-0.192 -0.301,-0.334 -0.046,-0.159 -0.068,-0.373 -0.068,-0.643 l 0,-1.396 z"
         id="path4301"
         inkscape:connector-curvature="0"
         style="fill:#ffffff" />
    </g>
    <rect
       x="5.5"
       y="6.5"
       width="37"
       height="37"
       ry="1"
       rx="1"
       id="rect6741-2-9"
       style="fill:none;stroke:url(#linearGradient3044);stroke-linecap:round;stroke-linejoin:round" />
  </g>
</svg>
