<?xml version="1.0" encoding="UTF-8" standalone="no"?>
<!-- Created with Inkscape (http://www.inkscape.org/) -->

<svg
   xmlns:dc="http://purl.org/dc/elements/1.1/"
   xmlns:cc="http://creativecommons.org/ns#"
   xmlns:rdf="http://www.w3.org/1999/02/22-rdf-syntax-ns#"
   xmlns:svg="http://www.w3.org/2000/svg"
   xmlns="http://www.w3.org/2000/svg"
   xmlns:xlink="http://www.w3.org/1999/xlink"
   xmlns:sodipodi="http://sodipodi.sourceforge.net/DTD/sodipodi-0.dtd"
   xmlns:inkscape="http://www.inkscape.org/namespaces/inkscape"
   version="1.0"
   width="48"
   height="48"
   id="svg2453"
   inkscape:version="0.48.4 r9939"
   sodipodi:docname="unity-display-panel.svg">
  <sodipodi:namedview
     pagecolor="#ffffff"
     bordercolor="#666666"
     borderopacity="1"
     objecttolerance="10"
     gridtolerance="10"
     guidetolerance="10"
     inkscape:pageopacity="0"
     inkscape:pageshadow="2"
     inkscape:window-width="1564"
     inkscape:window-height="1028"
     id="namedview55"
     showgrid="true"
     inkscape:zoom="19.25"
     inkscape:cx="24"
     inkscape:cy="24"
     inkscape:window-x="355"
     inkscape:window-y="24"
     inkscape:window-maximized="0"
     inkscape:current-layer="svg2453">
    <inkscape:grid
       type="xygrid"
       id="grid3951" />
  </sodipodi:namedview>
  <metadata
     id="metadata35">
    <rdf:RDF>
      <cc:Work
         rdf:about="">
        <dc:format>image/svg+xml</dc:format>
        <dc:type
           rdf:resource="http://purl.org/dc/dcmitype/StillImage" />
        <dc:title />
      </cc:Work>
    </rdf:RDF>
  </metadata>
  <defs
     id="defs2455">
    <radialGradient
       cx="605.71429"
       cy="486.64789"
       r="117.14286"
       fx="605.71429"
       fy="486.64789"
       id="radialGradient19613"
       xlink:href="#linearGradient5060"
       gradientUnits="userSpaceOnUse"
       gradientTransform="matrix(0.02891661,0,0,0.01235294,26.973101,38.470848)" />
    <linearGradient
       id="linearGradient5060">
      <stop
         id="stop5062"
         style="stop-color:#000000;stop-opacity:1"
         offset="0" />
      <stop
         id="stop5064"
         style="stop-color:#000000;stop-opacity:0"
         offset="1" />
    </linearGradient>
    <radialGradient
       cx="605.71429"
       cy="486.64789"
       r="117.14286"
       fx="605.71429"
       fy="486.64789"
       id="radialGradient19616"
       xlink:href="#linearGradient5060"
       gradientUnits="userSpaceOnUse"
       gradientTransform="matrix(-0.0289166,0,0,0.01235294,21.026894,38.470848)" />
    <linearGradient
       id="linearGradient5048">
      <stop
         id="stop5050"
         style="stop-color:#000000;stop-opacity:0"
         offset="0" />
      <stop
         id="stop5056"
         style="stop-color:#000000;stop-opacity:1"
         offset="0.5" />
      <stop
         id="stop5052"
         style="stop-color:#000000;stop-opacity:0"
         offset="1" />
    </linearGradient>
    <linearGradient
       x1="302.85715"
       y1="366.64789"
       x2="302.85715"
       y2="609.50507"
       id="linearGradient19619"
       xlink:href="#linearGradient5048"
       gradientUnits="userSpaceOnUse"
       gradientTransform="matrix(0.08449704,0,0,0.01235294,-6.5396456,38.470822)" />
    <linearGradient
       id="linearGradient3680-6-6-6-3-7-1-8-8">
      <stop
         id="stop3682-4-6-1-3-7-7-4-0"
         style="stop-color:#dcdcdc;stop-opacity:1"
         offset="0" />
      <stop
         id="stop3684-8-5-8-0-2-6-8-4"
         style="stop-color:#ffffff;stop-opacity:1"
         offset="1" />
    </linearGradient>
    <linearGradient
       y2="13.000008"
       x2="20"
       y1="26.000008"
       x1="20"
       gradientTransform="matrix(1.326882,0,0,1.326882,9.2598082,6.2451596)"
       gradientUnits="userSpaceOnUse"
       id="linearGradient3127-4-4"
       xlink:href="#linearGradient3680-6-6-6-3-7-1-8-8"
       inkscape:collect="always" />
    <linearGradient
       id="linearGradient2867-449-88-871-390-598-476-591-434-148-57-177-8-3-3-6-4-8-8-8-5-7">
      <stop
         id="stop3750-1-0-7-6-6-1-3-9-3-9"
         style="stop-color:#505050;stop-opacity:1"
         offset="0" />
      <stop
         id="stop3752-3-7-4-0-32-8-923-0-7-0"
         style="stop-color:#2b2b2b;stop-opacity:1"
         offset="0.26238" />
      <stop
         id="stop3754-1-8-5-2-7-6-7-1-9-1"
         style="stop-color:#0a0a0a;stop-opacity:1"
         offset="0.704952" />
      <stop
         id="stop3756-1-6-2-6-6-1-96-6-0-1"
         style="stop-color:#000000;stop-opacity:1"
         offset="1" />
    </linearGradient>
    <linearGradient
       id="linearGradient3462">
      <stop
         offset="0"
         style="stop-color:#ffffff;stop-opacity:1"
         id="stop3464" />
      <stop
         offset="0.03457849"
         style="stop-color:#ffffff;stop-opacity:0.23529412"
         id="stop3466" />
      <stop
         offset="0.96375686"
         style="stop-color:#ffffff;stop-opacity:0.15686275"
         id="stop3468" />
      <stop
         offset="1"
         style="stop-color:#ffffff;stop-opacity:0.39215687"
         id="stop3470" />
    </linearGradient>
    <linearGradient
       inkscape:collect="always"
       xlink:href="#linearGradient3680-6-6-6-3-7-1-8-8"
       id="linearGradient3324"
       gradientUnits="userSpaceOnUse"
       gradientTransform="matrix(1.326882,0,0,1.326882,9.2598082,6.2451596)"
       x1="20"
       y1="26.000008"
       x2="20"
       y2="13.000008" />
    <linearGradient
       inkscape:collect="always"
       xlink:href="#linearGradient3680-6-6-6-3-7-1-8-8"
       id="linearGradient3339"
       gradientUnits="userSpaceOnUse"
       gradientTransform="matrix(1.326882,0,0,1.326882,9.2598082,6.2451596)"
       x1="20"
       y1="26.000008"
       x2="20"
       y2="13.000008" />
    <linearGradient
       inkscape:collect="always"
       xlink:href="#linearGradient3462"
       id="linearGradient3345"
       gradientUnits="userSpaceOnUse"
       gradientTransform="matrix(1.1621621,0,0,0.91891888,-3.8918941,4.4459492)"
       x1="40.290417"
       y1="5.4143372"
       x2="40.290417"
       y2="42.437775" />
    <radialGradient
       inkscape:collect="always"
       xlink:href="#linearGradient2867-449-88-871-390-598-476-591-434-148-57-177-8-3-3-6-4-8-8-8-5-7"
       id="radialGradient3348"
       gradientUnits="userSpaceOnUse"
       gradientTransform="matrix(0,8.4371492,-12.947656,0,153.88012,-68.473106)"
       cx="7.1183534"
       cy="9.9571075"
       fx="7.1183534"
       fy="9.9571075"
       r="12.671875" />
    <linearGradient
       inkscape:collect="always"
       xlink:href="#linearGradient3680-6-6-6-3-7-1-8-8"
       id="linearGradient3352"
       gradientUnits="userSpaceOnUse"
       gradientTransform="matrix(1.326882,0,0,1.326882,9.2598082,6.2451596)"
       x1="20"
       y1="26.000008"
       x2="20"
       y2="13.000008" />
    <linearGradient
       inkscape:collect="always"
       xlink:href="#linearGradient3680-6-6-6-3-7-1-8-8"
       id="linearGradient3378"
       gradientUnits="userSpaceOnUse"
       gradientTransform="matrix(0.94777285,0,0,0.9730468,24.899863,25.579784)"
       x1="20"
       y1="26.000008"
       x2="20"
       y2="13.000008" />
    <linearGradient
       x1="54.596001"
       y1="42.034893"
       x2="54.596001"
       y2="9.693037"
       id="linearGradient3024-0"
       xlink:href="#linearGradient3680-6-6-6-3-7-4-4"
       gradientUnits="userSpaceOnUse"
       gradientTransform="matrix(0.98042811,0,0,0.98042811,-37.50467,2.701201)" />
    <linearGradient
       id="linearGradient3680-6-6-6-3-7-4-4">
      <stop
         id="stop3682-4-6-1-3-7-5-0"
         style="stop-color:#dcdcdc;stop-opacity:1"
         offset="0" />
      <stop
         id="stop3684-8-5-8-0-2-3-6"
         style="stop-color:#ffffff;stop-opacity:1"
         offset="1" />
    </linearGradient>
  </defs>
  <g
     id="g3257"
     style="opacity:0.4">
    <rect
       width="40.799999"
       height="2.9999998"
       x="3.5999999"
       y="43"
       id="rect2879"
       style="fill:url(#linearGradient19619);fill-opacity:1;fill-rule:nonzero;stroke:none;stroke-width:1;marker:none;visibility:visible;display:inline;overflow:visible" />
    <path
       d="m 3.6,43.00013 c 0,0 0,2.999835 0,2.999835 C 2.1108662,46.005612 0,45.327854 0,44.499854 0,43.671856 1.6617608,43.000131 3.6,43.00013 z"
       inkscape:connector-curvature="0"
       id="path2881"
       style="fill:url(#radialGradient19616);fill-opacity:1;fill-rule:nonzero;stroke:none;stroke-width:1;marker:none;visibility:visible;display:inline;overflow:visible" />
    <path
       d="m 44.4,43.00013 c 0,0 0,2.999835 0,2.999835 1.489133,0.0056 3.6,-0.672111 3.6,-1.500111 0,-0.827998 -1.661761,-1.499723 -3.6,-1.499724 z"
       inkscape:connector-curvature="0"
       id="path2883"
       style="fill:url(#radialGradient19613);fill-opacity:1;fill-rule:nonzero;stroke:none;stroke-width:1;marker:none;visibility:visible;display:inline;overflow:visible" />
  </g>
  <rect
     width="45"
     height="36"
     rx="1.5"
     ry="1.5"
     x="1.4999995"
     y="8.4999981"
     id="rect5505-21-3-8-5-2"
     style="opacity:0.9;color:#000000;fill:url(#radialGradient3348);fill-opacity:1;fill-rule:nonzero;stroke:none;stroke-width:0.99999994;marker:none;visibility:visible;display:inline;overflow:visible;enable-background:accumulate" />
  <rect
     width="43"
     height="34"
     rx="0.75"
     ry="0.75"
     x="2.5"
     y="9.5"
     id="rect6741-5-0-2-3"
     style="opacity:0.3;fill:none;stroke:url(#linearGradient3345);stroke-width:1;stroke-linecap:round;stroke-linejoin:round;stroke-miterlimit:4;stroke-opacity:1;stroke-dasharray:none;stroke-dashoffset:0" />
  <rect
     width="45"
     height="36"
     rx="1.5"
     ry="1.5"
     x="1.4999995"
     y="8.5"
     id="rect5505-21-3-8-9-1-1"
     style="opacity:0.7;color:#000000;fill:none;stroke:#000000;stroke-width:1;stroke-linecap:round;stroke-linejoin:round;stroke-miterlimit:4;stroke-opacity:1;stroke-dasharray:none;stroke-dashoffset:0;marker:none;visibility:visible;display:inline;overflow:visible;enable-background:accumulate" />
  <path
     d="m 15.823908,11.068548 a 1.445241,1.445241 0 0 0 -0.971072,0.647381 l -3.699321,5.918914 a 1.445241,1.445241 0 0 0 1.248521,2.219594 l 1.52597,0 0,8.970854 -1.572212,0 0,-1.52597 A 1.445241,1.445241 0 0 0 10.136202,26.0508 l -5.9189149,3.699321 a 1.445241,1.445241 0 0 0 0,2.497042 l 5.9189149,3.699321 a 1.445241,1.445241 0 0 0 0.832346,0.184967 1.445241,1.445241 0 0 0 0.184967,0.832347 l 3.699321,5.918915 a 1.445241,1.445241 0 0 0 2.497042,0 l 3.699321,-5.918915 a 1.445241,1.445241 0 0 0 -1.248521,-2.219593 l -1.52597,0 0,-1.572212 16.369498,0 0,1.525971 a 1.445241,1.445241 0 0 0 2.219593,1.24852 l 5.918914,-3.699321 a 1.445241,1.445241 0 0 0 0,-2.497042 L 36.863799,26.0508 a 1.445241,1.445241 0 0 0 -2.219593,1.248521 l 0,1.52597 -16.369498,0 0,-8.970854 1.52597,0 a 1.445241,1.445241 0 0 0 1.248521,-2.219594 l -3.699321,-5.918914 a 1.445241,1.445241 0 0 0 -1.52597,-0.647381 z m -3.468114,22.103445 1.572212,0 0,1.572212 -1.52597,0 a 1.445241,1.445241 0 0 0 -0.04624,0 1.445241,1.445241 0 0 0 0,-0.04624 l 0,-1.525971 z"
     inkscape:connector-curvature="0"
     id="path4135"
     style="opacity:0.15;color:#000000;fill:#000000;fill-opacity:1;fill-rule:nonzero;stroke:none;stroke-width:1;marker:none;visibility:visible;display:inline;overflow:visible;enable-background:accumulate" />
  <path
     d="m 16.101357,12.502024 -3.699321,5.918913 2.959456,0 0,11.837829 -4.439185,0 0,-2.959457 -5.9189141,3.699321 5.9189141,3.699321 0,-2.959456 4.439185,0 0,4.439185 -2.959456,0 3.699321,5.918914 3.699321,-5.918914 -2.959456,0 0,-4.439185 19.236471,0 0,2.959456 5.918914,-3.699321 -5.918914,-3.699321 0,2.959457 -19.236471,0 0,-11.837829 2.959456,0 -3.699321,-5.918913 z"
     inkscape:connector-curvature="0"
     id="rect4062-7"
     style="opacity:0.3;color:#000000;fill:#000000;fill-opacity:1;fill-rule:nonzero;stroke:none;stroke-width:1;marker:none;visibility:visible;display:inline;overflow:visible;enable-background:accumulate" />
  <path
     d="m 16.101357,11.022295 -3.699321,5.918914 2.959456,0 0,11.837828 -4.439185,0 0,-2.959457 -5.9189141,3.699321 5.9189141,3.699322 0,-2.959457 4.439185,0 0,4.439185 -2.959456,0 3.699321,5.918915 3.699321,-5.918915 -2.959456,0 0,-4.439185 19.236471,0 0,2.959457 5.918914,-3.699322 -5.918914,-3.699321 0,2.959457 -19.236471,0 0,-11.837828 2.959456,0 -3.699321,-5.918914 z"
     inkscape:connector-curvature="0"
     id="rect4062"
     style="color:#000000;fill:url(#linearGradient3024-0);fill-opacity:1;fill-rule:nonzero;stroke:none;stroke-width:1;marker:none;visibility:visible;display:inline;overflow:visible;enable-background:accumulate" />
</svg>
