<?xml version="1.0" encoding="UTF-8" standalone="no"?>
<!-- Created with Inkscape (http://www.inkscape.org/) -->

<svg
   xmlns:dc="http://purl.org/dc/elements/1.1/"
   xmlns:cc="http://creativecommons.org/ns#"
   xmlns:rdf="http://www.w3.org/1999/02/22-rdf-syntax-ns#"
   xmlns:svg="http://www.w3.org/2000/svg"
   xmlns="http://www.w3.org/2000/svg"
   xmlns:sodipodi="http://sodipodi.sourceforge.net/DTD/sodipodi-0.dtd"
   xmlns:inkscape="http://www.inkscape.org/namespaces/inkscape"
   id="svg4296"
   height="48"
   width="48"
   version="1.1"
   inkscape:version="0.91 r13725"
   sodipodi:docname="talos.svg">
  <sodipodi:namedview
     pagecolor="#ffffff"
     bordercolor="#666666"
     borderopacity="1"
     objecttolerance="10"
     gridtolerance="10"
     guidetolerance="10"
     inkscape:pageopacity="0"
     inkscape:pageshadow="2"
     inkscape:window-width="1535"
     inkscape:window-height="876"
     id="namedview72"
     showgrid="false"
     inkscape:zoom="4.9166667"
     inkscape:cx="-10.779661"
     inkscape:cy="24"
     inkscape:window-x="65"
     inkscape:window-y="24"
     inkscape:window-maximized="1"
     inkscape:current-layer="svg4296" />
  <defs
     id="defs4298">
    <linearGradient
       id="linearGradient3074"
       y2="43"
       gradientUnits="userSpaceOnUse"
       x2="24"
       gradientTransform="translate(4e-6,1)"
       y1="5"
       x1="24">
      <stop
         id="stop3897"
         stop-color="#fff"
         offset="0" />
      <stop
         id="stop3899"
         stop-color="#fff"
         stop-opacity=".23529"
         offset=".052632" />
      <stop
         id="stop3901"
         stop-color="#fff"
         stop-opacity=".15686"
         offset=".95056" />
      <stop
         id="stop3903"
         stop-color="#fff"
         stop-opacity=".39216"
         offset="1" />
    </linearGradient>
    <radialGradient
       id="radialGradient3078"
       gradientUnits="userSpaceOnUse"
       cy="9.9571"
       cx="7.1184"
       gradientTransform="matrix(0,9.1402,-11.221,0,136.56,-77.888)"
       r="12.672">
      <stop
         id="stop3750-1-0-7-6-6-1-3-9-3"
         stop-color="#505050"
         offset="0" />
      <stop
         id="stop3752-3-7-4-0-32-8-923-0-7"
         stop-color="#2b2b2b"
         offset=".26238" />
      <stop
         id="stop3754-1-8-5-2-7-6-7-1-9"
         stop-color="#0a0a0a"
         offset=".70495" />
      <stop
         id="stop3756-1-6-2-6-6-1-96-6-0"
         offset="1" />
    </radialGradient>
  </defs>
  <metadata
     id="metadata4301">
    <rdf:RDF>
      <cc:Work
         rdf:about="">
        <dc:format>image/svg+xml</dc:format>
        <dc:type
           rdf:resource="http://purl.org/dc/dcmitype/StillImage" />
        <dc:title />
      </cc:Work>
    </rdf:RDF>
  </metadata>
  <g
     id="g4200"
     transform="translate(0,-1)">
    <rect
       x="4.5"
       y="5.5"
       width="39"
       height="39"
       ry="2"
       rx="2"
       style="color:#000000;fill:url(#radialGradient3078)"
       id="rect5505-21" />
    <rect
       x="4.5"
       y="5.5"
       width="39"
       height="39"
       ry="2"
       rx="2"
       style="color:#000000;opacity:0.7;fill:none;stroke:#000000;stroke-linecap:round;stroke-linejoin:round"
       id="rect5505-21-3-2" />
    <rect
       x="5.5"
       y="6.5"
       width="37"
       height="37"
       ry="1"
       rx="1"
       id="rect6741"
       style="opacity:0.3;fill:none;stroke:url(#linearGradient3074);stroke-linecap:round;stroke-linejoin:round" />
    <g
       transform="matrix(0.99787,0,0,1.0048,0.044354,-1.1239)"
       id="g4432"
       style="fill:none;stroke:#000000;stroke-linecap:round;stroke-linejoin:round">
      <g
         transform="matrix(1,0,0,0.95178,1.4876e-7,2.2905)"
         id="g4364"
         style="opacity:0.15;stroke-width:2.04999995">
        <path
           d="m 31.439,20.729 c -0.7206,0.0015 -0.8256,0.01286 -1.2012,0.13867 -1.257,0.42109 -2.1158,1.5291 -2.1953,2.832 -0.09463,1.5507 0.93958,2.9166 2.4531,3.2363 0.47513,0.10041 1.214,0.1021 1.6973,0.0039 0.64924,-0.13192 1.1894,-0.42544 1.6719,-0.9082 0.64941,-0.64981 0.93355,-1.3578 0.93555,-2.3262 0.0028,-1.3868 -0.78962,-2.4223 -2.1895,-2.8594 -0.33313,-0.10401 -0.48342,-0.11869 -1.1719,-0.11719 z m -0.07617,0.23242 c 0.18938,-5.3e-5 0.37225,0.02464 0.57422,0.07227 0.9069,0.21382 1.528,0.79607 1.8672,1.7539 0.14463,0.40854 0.15314,0.48246 0.15234,1.1758 -5.91e-4,0.67027 -0.01181,0.77566 -0.13672,1.1348 -0.17067,0.49066 -0.30914,0.70998 -0.63476,1.0137 -0.29816,0.27807 -0.56071,0.42013 -0.96484,0.52539 -0.36216,0.09436 -0.92426,0.09414 -1.2812,-0.002 -0.97466,-0.26234 -1.7056,-1.0236 -1.9805,-2.0605 -0.12294,-0.46423 -0.12256,-1.4466 0.002,-1.8574 0.28402,-0.93699 0.87046,-1.4886 1.791,-1.6836 0.22533,-0.04774 0.42195,-0.07221 0.61133,-0.07227 z"
           id="path4366"
           inkscape:connector-curvature="0" />
        <path
           d="m 30.493,24.303 c -0.01513,-0.03938 -0.02049,-0.20661 -0.01199,-0.37163 0.01231,-0.23832 0.0312,-0.29539 0.09193,-0.27749 0.18094,0.05336 1.5232,0.06043 1.6201,0.0085 0.13055,-0.06987 0.14923,-0.01694 0.12387,0.35109 l -0.01929,0.28026 -0.78265,-0.01628 c -0.5077,-0.01056 -0.81986,0.0037 -0.88858,0.04041 -0.08287,0.04435 -0.11192,0.0411 -0.13341,-0.0149 z"
           id="path4368"
           inkscape:connector-curvature="0" />
        <path
           d="m 38.233,26.95 c -0.1453,-0.03689 -0.32301,-0.10563 -0.39491,-0.15274 -0.12498,-0.08189 -0.13073,-0.10671 -0.13073,-0.5644 0,-0.47656 0.02592,-0.63994 0.10158,-0.63994 0.02183,0 0.05494,0.1015 0.07354,0.22557 0.05945,0.39645 0.36811,0.72732 0.78704,0.84369 0.10139,0.02816 0.33339,0.05111 0.51555,0.05099 0.82237,-5.16e-4 1.3443,-0.59963 1.1763,-1.3503 -0.08777,-0.39219 -0.31443,-0.65458 -1.119,-1.2954 -0.73154,-0.58266 -0.98505,-0.84533 -1.1873,-1.2302 -0.0984,-0.18726 -0.11837,-0.30263 -0.11837,-0.68386 0,-0.4065 0.01564,-0.4852 0.1376,-0.69267 0.15652,-0.26624 0.39236,-0.46285 0.74223,-0.61874 0.30864,-0.13753 1.1497,-0.17777 1.668,-0.07981 l 0.35669,0.06743 0.01473,0.44629 c 0.01509,0.4568 -0.05497,0.74588 -0.12248,0.50539 -0.14044,-0.50029 -0.42977,-0.7351 -0.98524,-0.79957 -0.72839,-0.08454 -1.2765,0.32222 -1.2765,0.94734 0,0.43836 0.24404,0.74304 1.1035,1.3776 0.67298,0.49692 1.0866,0.91813 1.2692,1.2926 0.19726,0.40443 0.20842,0.9759 0.02704,1.3861 -0.15826,0.35793 -0.5607,0.73147 -0.94882,0.88069 -0.37673,0.14484 -1.2742,0.18942 -1.6897,0.08393 z"
           id="path4370"
           inkscape:connector-curvature="0" />
        <path
           d="m 8.8661,26.871 c 0,-0.0258 0.06957,-0.06219 0.15459,-0.08086 0.3346,-0.07349 0.3279,-0.01571 0.34436,-2.9655 l 0.01487,-2.6648 -0.77921,0.0012 c -0.42856,6.75e-4 -0.87093,0.02238 -0.98303,0.04825 -0.19219,0.04435 -0.37451,0.19937 -0.51632,0.43899 -0.11468,0.19378 -0.1349,0.0132 -0.04597,-0.41056 0.04992,-0.23789 0.12059,-0.45728 0.15703,-0.48753 0.04746,-0.03939 0.12556,-0.03903 0.27519,0.0013 0.14016,0.03774 0.98426,0.0539 2.5644,0.0491 l 2.3555,-0.0072 0,0.47197 c 0,0.33228 -0.01885,0.47825 -0.0637,0.4932 -0.03503,0.01168 -0.06369,-0.01399 -0.06369,-0.05705 0,-0.16359 -0.12274,-0.33619 -0.30006,-0.42194 -0.14479,-0.07002 -0.36058,-0.09355 -1.0121,-0.11035 l -0.82803,-0.02135 0,2.5668 c 0,1.4919 0.02054,2.6385 0.04904,2.7378 0.06273,0.21873 0.17236,0.2973 0.47331,0.33922 0.13315,0.01855 0.22925,0.0545 0.21356,0.07989 -0.03785,0.06123 -2.0098,0.06051 -2.0098,-7.54e-4 z"
           id="path4372"
           inkscape:connector-curvature="0" />
        <path
           d="m 13.554,26.875 c 0,-0.02321 0.12,-0.0699 0.26666,-0.10376 0.15381,-0.0355 0.32549,-0.11792 0.4057,-0.19476 0.09783,-0.09372 0.49547,-0.96819 1.3414,-2.9498 0.66127,-1.5491 1.2344,-2.8432 1.2736,-2.8757 0.03922,-0.03255 0.09498,-0.04454 0.12392,-0.02665 0.0776,0.04796 0.51269,0.97898 1.5129,3.2374 0.49029,1.107 0.94844,2.1321 1.0181,2.2779 0.14983,0.31366 0.3628,0.50794 0.60704,0.55376 0.3883,0.07285 0.13483,0.11847 -0.66392,0.1195 -0.50942,6.75e-4 -0.84077,-0.01837 -0.84077,-0.04829 0,-0.02716 0.04737,-0.04938 0.10526,-0.04938 0.18765,0 0.30239,-0.09612 0.30239,-0.25331 0,-0.1769 -0.41086,-1.2625 -1.1094,-2.9314 -0.67952,-1.6234 -0.72283,-1.7162 -0.79038,-1.6937 -0.07181,0.02393 -1.8709,4.4939 -1.8709,4.6484 0,0.11043 0.17351,0.23011 0.33361,0.23011 0.04072,0 0.07403,0.02293 0.07403,0.05096 0,0.03232 -0.38217,0.05096 -1.0446,0.05096 -0.57453,0 -1.0446,-0.01899 -1.0446,-0.0422 z"
           id="path4374"
           inkscape:connector-curvature="0" />
        <path
           d="m 21.911,26.864 c 0,-0.02235 0.06957,-0.05591 0.15459,-0.07459 0.33636,-0.07388 0.32949,-0.01197 0.32949,-2.97 l 0,-2.6692 -0.11479,-0.09297 c -0.06314,-0.05114 -0.20655,-0.10848 -0.31869,-0.12742 -0.44438,-0.07508 -0.09797,-0.12733 0.84414,-0.12733 0.96622,0 1.2352,0.04755 0.77911,0.13774 -0.13834,0.02736 -0.24673,0.08899 -0.31328,0.17813 -0.09862,0.13209 -0.10144,0.20839 -0.09139,2.4722 0.0057,1.2848 0.02997,2.4229 0.05398,2.5293 0.09053,0.4014 0.30017,0.49106 1.1482,0.49106 0.84378,0 1.0706,-0.10034 1.2219,-0.54059 0.07737,-0.22506 0.17935,-0.28726 0.17935,-0.10939 0,0.22638 -0.10912,0.72603 -0.18398,0.84248 l -0.07425,0.1155 -1.8072,-0.0071 c -0.99396,-0.0039 -1.8072,-0.0254 -1.8072,-0.04775 z"
           id="path4376"
           inkscape:connector-curvature="0" />
        <path
           d="m 13.104,24.252 c -0.21673,-0.2307 -0.09819,-0.59647 0.21912,-0.67611 0.44718,-0.11224 0.77253,0.35865 0.46222,0.66897 -0.17225,0.17226 -0.52277,0.17593 -0.68134,0.0071 z"
           id="path4378"
           inkscape:connector-curvature="0" />
        <path
           d="m 19.83,24.252 c -0.21673,-0.2307 -0.09819,-0.59647 0.21912,-0.67611 0.44718,-0.11224 0.77253,0.35865 0.46221,0.66897 -0.17226,0.17226 -0.52277,0.17593 -0.68134,0.0071 z"
           id="path4380"
           inkscape:connector-curvature="0" />
        <path
           d="m 26.404,24.252 c -0.21674,-0.2307 -0.09819,-0.59647 0.21912,-0.67611 0.44718,-0.11224 0.77253,0.35865 0.46222,0.66897 -0.17225,0.17226 -0.52277,0.17593 -0.68134,0.0071 z"
           id="path4382"
           inkscape:connector-curvature="0" />
        <path
           d="m 35.833,24.336 c -0.03561,-0.01433 -0.09986,-0.09392 -0.14275,-0.17687 -0.13259,-0.25639 0.01584,-0.52713 0.32033,-0.58425 0.45466,-0.08529 0.73621,0.37932 0.42093,0.6946 -0.09718,0.09718 -0.43028,0.1342 -0.59851,0.06651 z"
           id="path4384"
           inkscape:connector-curvature="0" />
      </g>
      <g
         transform="matrix(1,0,0,0.95178,1.4876e-7,2.2905)"
         id="g4386"
         style="opacity:0.15;stroke-width:1.02499998">
        <path
           d="m 31.439,20.729 c -0.7206,0.0015 -0.8256,0.01286 -1.2012,0.13867 -1.257,0.42109 -2.1158,1.5291 -2.1953,2.832 -0.09463,1.5507 0.93958,2.9166 2.4531,3.2363 0.47513,0.10041 1.214,0.1021 1.6973,0.0039 0.64924,-0.13192 1.1894,-0.42544 1.6719,-0.9082 0.64941,-0.64981 0.93355,-1.3578 0.93555,-2.3262 0.0028,-1.3868 -0.78962,-2.4223 -2.1895,-2.8594 -0.33313,-0.10401 -0.48342,-0.11869 -1.1719,-0.11719 z m -0.07617,0.23242 c 0.18938,-5.3e-5 0.37225,0.02464 0.57422,0.07227 0.9069,0.21382 1.528,0.79607 1.8672,1.7539 0.14463,0.40854 0.15314,0.48246 0.15234,1.1758 -5.91e-4,0.67027 -0.01181,0.77566 -0.13672,1.1348 -0.17067,0.49066 -0.30914,0.70998 -0.63476,1.0137 -0.29816,0.27807 -0.56071,0.42013 -0.96484,0.52539 -0.36216,0.09436 -0.92426,0.09414 -1.2812,-0.002 -0.97466,-0.26234 -1.7056,-1.0236 -1.9805,-2.0605 -0.12294,-0.46423 -0.12256,-1.4466 0.002,-1.8574 0.28402,-0.93699 0.87046,-1.4886 1.791,-1.6836 0.22533,-0.04774 0.42195,-0.07221 0.61133,-0.07227 z"
           id="path4388"
           inkscape:connector-curvature="0" />
        <path
           d="m 30.493,24.303 c -0.01513,-0.03938 -0.02049,-0.20661 -0.01199,-0.37163 0.01231,-0.23832 0.0312,-0.29539 0.09193,-0.27749 0.18094,0.05336 1.5232,0.06043 1.6201,0.0085 0.13055,-0.06987 0.14923,-0.01694 0.12387,0.35109 l -0.01929,0.28026 -0.78265,-0.01628 c -0.5077,-0.01056 -0.81986,0.0037 -0.88858,0.04041 -0.08287,0.04435 -0.11192,0.0411 -0.13341,-0.0149 z"
           id="path4390"
           inkscape:connector-curvature="0" />
        <path
           d="m 38.233,26.95 c -0.1453,-0.03689 -0.32301,-0.10563 -0.39491,-0.15274 -0.12498,-0.08189 -0.13073,-0.10671 -0.13073,-0.5644 0,-0.47656 0.02592,-0.63994 0.10158,-0.63994 0.02183,0 0.05494,0.1015 0.07354,0.22557 0.05945,0.39645 0.36811,0.72732 0.78704,0.84369 0.10139,0.02816 0.33339,0.05111 0.51555,0.05099 0.82237,-5.16e-4 1.3443,-0.59963 1.1763,-1.3503 -0.08777,-0.39219 -0.31443,-0.65458 -1.119,-1.2954 -0.73154,-0.58266 -0.98505,-0.84533 -1.1873,-1.2302 -0.0984,-0.18726 -0.11837,-0.30263 -0.11837,-0.68386 0,-0.4065 0.01564,-0.4852 0.1376,-0.69267 0.15652,-0.26624 0.39236,-0.46285 0.74223,-0.61874 0.30864,-0.13753 1.1497,-0.17777 1.668,-0.07981 l 0.35669,0.06743 0.01473,0.44629 c 0.01509,0.4568 -0.05497,0.74588 -0.12248,0.50539 -0.14044,-0.50029 -0.42977,-0.7351 -0.98524,-0.79957 -0.72839,-0.08454 -1.2765,0.32222 -1.2765,0.94734 0,0.43836 0.24404,0.74304 1.1035,1.3776 0.67298,0.49692 1.0866,0.91813 1.2692,1.2926 0.19726,0.40443 0.20842,0.9759 0.02704,1.3861 -0.15826,0.35793 -0.5607,0.73147 -0.94882,0.88069 -0.37673,0.14484 -1.2742,0.18942 -1.6897,0.08393 z"
           id="path4392"
           inkscape:connector-curvature="0" />
        <path
           d="m 8.8661,26.871 c 0,-0.0258 0.06957,-0.06219 0.15459,-0.08086 0.3346,-0.07349 0.3279,-0.01571 0.34436,-2.9655 l 0.01487,-2.6648 -0.77921,0.0012 c -0.42856,6.75e-4 -0.87093,0.02238 -0.98303,0.04825 -0.19219,0.04435 -0.37451,0.19937 -0.51632,0.43899 -0.11468,0.19378 -0.1349,0.0132 -0.04597,-0.41056 0.04992,-0.23789 0.12059,-0.45728 0.15703,-0.48753 0.04746,-0.03939 0.12556,-0.03903 0.27519,0.0013 0.14016,0.03774 0.98426,0.0539 2.5644,0.0491 l 2.3555,-0.0072 0,0.47197 c 0,0.33228 -0.01885,0.47825 -0.0637,0.4932 -0.03503,0.01168 -0.06369,-0.01399 -0.06369,-0.05705 0,-0.16359 -0.12274,-0.33619 -0.30006,-0.42194 -0.14479,-0.07002 -0.36058,-0.09355 -1.0121,-0.11035 l -0.82803,-0.02135 0,2.5668 c 0,1.4919 0.02054,2.6385 0.04904,2.7378 0.06273,0.21873 0.17236,0.2973 0.47331,0.33922 0.13315,0.01855 0.22925,0.0545 0.21356,0.07989 -0.03785,0.06123 -2.0098,0.06051 -2.0098,-7.54e-4 z"
           id="path4394"
           inkscape:connector-curvature="0" />
        <path
           d="m 13.554,26.875 c 0,-0.02321 0.12,-0.0699 0.26666,-0.10376 0.15381,-0.0355 0.32549,-0.11792 0.4057,-0.19476 0.09783,-0.09372 0.49547,-0.96819 1.3414,-2.9498 0.66127,-1.5491 1.2344,-2.8432 1.2736,-2.8757 0.03922,-0.03255 0.09498,-0.04454 0.12392,-0.02665 0.0776,0.04796 0.51269,0.97898 1.5129,3.2374 0.49029,1.107 0.94844,2.1321 1.0181,2.2779 0.14983,0.31366 0.3628,0.50794 0.60704,0.55376 0.3883,0.07285 0.13483,0.11847 -0.66392,0.1195 -0.50942,6.75e-4 -0.84077,-0.01837 -0.84077,-0.04829 0,-0.02716 0.04737,-0.04938 0.10526,-0.04938 0.18765,0 0.30239,-0.09612 0.30239,-0.25331 0,-0.1769 -0.41086,-1.2625 -1.1094,-2.9314 -0.67952,-1.6234 -0.72283,-1.7162 -0.79038,-1.6937 -0.07181,0.02393 -1.8709,4.4939 -1.8709,4.6484 0,0.11043 0.17351,0.23011 0.33361,0.23011 0.04072,0 0.07403,0.02293 0.07403,0.05096 0,0.03232 -0.38217,0.05096 -1.0446,0.05096 -0.57453,0 -1.0446,-0.01899 -1.0446,-0.0422 z"
           id="path4396"
           inkscape:connector-curvature="0" />
        <path
           d="m 21.911,26.864 c 0,-0.02235 0.06957,-0.05591 0.15459,-0.07459 0.33636,-0.07388 0.32949,-0.01197 0.32949,-2.97 l 0,-2.6692 -0.11479,-0.09297 c -0.06314,-0.05114 -0.20655,-0.10848 -0.31869,-0.12742 -0.44438,-0.07508 -0.09797,-0.12733 0.84414,-0.12733 0.96622,0 1.2352,0.04755 0.77911,0.13774 -0.13834,0.02736 -0.24673,0.08899 -0.31328,0.17813 -0.09862,0.13209 -0.10144,0.20839 -0.09139,2.4722 0.0057,1.2848 0.02997,2.4229 0.05398,2.5293 0.09053,0.4014 0.30017,0.49106 1.1482,0.49106 0.84378,0 1.0706,-0.10034 1.2219,-0.54059 0.07737,-0.22506 0.17935,-0.28726 0.17935,-0.10939 0,0.22638 -0.10912,0.72603 -0.18398,0.84248 l -0.07425,0.1155 -1.8072,-0.0071 c -0.99396,-0.0039 -1.8072,-0.0254 -1.8072,-0.04775 z"
           id="path4398"
           inkscape:connector-curvature="0" />
        <path
           d="m 13.104,24.252 c -0.21673,-0.2307 -0.09819,-0.59647 0.21912,-0.67611 0.44718,-0.11224 0.77253,0.35865 0.46222,0.66897 -0.17225,0.17226 -0.52277,0.17593 -0.68134,0.0071 z"
           id="path4400"
           inkscape:connector-curvature="0" />
        <path
           d="m 19.83,24.252 c -0.21673,-0.2307 -0.09819,-0.59647 0.21912,-0.67611 0.44718,-0.11224 0.77253,0.35865 0.46221,0.66897 -0.17226,0.17226 -0.52277,0.17593 -0.68134,0.0071 z"
           id="path4402"
           inkscape:connector-curvature="0" />
        <path
           d="m 26.404,24.252 c -0.21674,-0.2307 -0.09819,-0.59647 0.21912,-0.67611 0.44718,-0.11224 0.77253,0.35865 0.46222,0.66897 -0.17225,0.17226 -0.52277,0.17593 -0.68134,0.0071 z"
           id="path4404"
           inkscape:connector-curvature="0" />
        <path
           d="m 35.833,24.336 c -0.03561,-0.01433 -0.09986,-0.09392 -0.14275,-0.17687 -0.13259,-0.25639 0.01584,-0.52713 0.32033,-0.58425 0.45466,-0.08529 0.73621,0.37932 0.42093,0.6946 -0.09718,0.09718 -0.43028,0.1342 -0.59851,0.06651 z"
           id="path4406"
           inkscape:connector-curvature="0" />
      </g>
    </g>
    <g
       transform="matrix(1,0,0,0.95178,1.4876e-7,1.2905)"
       id="g4352"
       style="fill:#ffffff">
      <path
         d="m 31.439,20.729 c -0.7206,0.0015 -0.8256,0.01286 -1.2012,0.13867 -1.257,0.42109 -2.1158,1.5291 -2.1953,2.832 -0.09463,1.5507 0.93958,2.9166 2.4531,3.2363 0.47513,0.10041 1.214,0.1021 1.6973,0.0039 0.64924,-0.13192 1.1894,-0.42544 1.6719,-0.9082 0.64941,-0.64981 0.93355,-1.3578 0.93555,-2.3262 0.0028,-1.3868 -0.78962,-2.4223 -2.1895,-2.8594 -0.33313,-0.10401 -0.48342,-0.11869 -1.1719,-0.11719 z m -0.07617,0.23242 c 0.18938,-5.3e-5 0.37225,0.02464 0.57422,0.07227 0.9069,0.21382 1.528,0.79607 1.8672,1.7539 0.14463,0.40854 0.15314,0.48246 0.15234,1.1758 -5.91e-4,0.67027 -0.01181,0.77566 -0.13672,1.1348 -0.17067,0.49066 -0.30914,0.70998 -0.63476,1.0137 -0.29816,0.27807 -0.56071,0.42013 -0.96484,0.52539 -0.36216,0.09436 -0.92426,0.09414 -1.2812,-0.002 -0.97466,-0.26234 -1.7056,-1.0236 -1.9805,-2.0605 -0.12294,-0.46423 -0.12256,-1.4466 0.002,-1.8574 0.28402,-0.93699 0.87046,-1.4886 1.791,-1.6836 0.22533,-0.04774 0.42195,-0.07221 0.61133,-0.07227 z"
         id="path4328"
         inkscape:connector-curvature="0" />
      <path
         d="m 30.493,24.303 c -0.01513,-0.03938 -0.02049,-0.20661 -0.01199,-0.37163 0.01231,-0.23832 0.0312,-0.29539 0.09193,-0.27749 0.18094,0.05336 1.5232,0.06043 1.6201,0.0085 0.13055,-0.06987 0.14923,-0.01694 0.12387,0.35109 l -0.01929,0.28026 -0.78265,-0.01628 c -0.5077,-0.01056 -0.81986,0.0037 -0.88858,0.04041 -0.08287,0.04435 -0.11192,0.0411 -0.13341,-0.0149 z"
         id="path4324"
         inkscape:connector-curvature="0" />
      <path
         d="m 38.233,26.95 c -0.1453,-0.03689 -0.32301,-0.10563 -0.39491,-0.15274 -0.12498,-0.08189 -0.13073,-0.10671 -0.13073,-0.5644 0,-0.47656 0.02592,-0.63994 0.10158,-0.63994 0.02183,0 0.05494,0.1015 0.07354,0.22557 0.05945,0.39645 0.36811,0.72732 0.78704,0.84369 0.10139,0.02816 0.33339,0.05111 0.51555,0.05099 0.82237,-5.16e-4 1.3443,-0.59963 1.1763,-1.3503 -0.08777,-0.39219 -0.31443,-0.65458 -1.119,-1.2954 -0.73154,-0.58266 -0.98505,-0.84533 -1.1873,-1.2302 -0.0984,-0.18726 -0.11837,-0.30263 -0.11837,-0.68386 0,-0.4065 0.01564,-0.4852 0.1376,-0.69267 0.15652,-0.26624 0.39236,-0.46285 0.74223,-0.61874 0.30864,-0.13753 1.1497,-0.17777 1.668,-0.07981 l 0.35669,0.06743 0.01473,0.44629 c 0.01509,0.4568 -0.05497,0.74588 -0.12248,0.50539 -0.14044,-0.50029 -0.42977,-0.7351 -0.98524,-0.79957 -0.72839,-0.08454 -1.2765,0.32222 -1.2765,0.94734 0,0.43836 0.24404,0.74304 1.1035,1.3776 0.67298,0.49692 1.0866,0.91813 1.2692,1.2926 0.19726,0.40443 0.20842,0.9759 0.02704,1.3861 -0.15826,0.35793 -0.5607,0.73147 -0.94882,0.88069 -0.37673,0.14484 -1.2742,0.18942 -1.6897,0.08393 z"
         id="path4322"
         inkscape:connector-curvature="0" />
      <path
         d="m 8.8661,26.871 c 0,-0.0258 0.06957,-0.06219 0.15459,-0.08086 0.3346,-0.07349 0.3279,-0.01571 0.34436,-2.9655 l 0.01487,-2.6648 -0.77921,0.0012 c -0.42856,6.75e-4 -0.87093,0.02238 -0.98303,0.04825 -0.19219,0.04435 -0.37451,0.19937 -0.51632,0.43899 -0.11468,0.19378 -0.1349,0.0132 -0.04597,-0.41056 0.04992,-0.23789 0.12059,-0.45728 0.15703,-0.48753 0.04746,-0.03939 0.12556,-0.03903 0.27519,0.0013 0.14016,0.03774 0.98426,0.0539 2.5644,0.0491 l 2.3555,-0.0072 0,0.47197 c 0,0.33228 -0.01885,0.47825 -0.0637,0.4932 -0.03503,0.01168 -0.06369,-0.01399 -0.06369,-0.05705 0,-0.16359 -0.12274,-0.33619 -0.30006,-0.42194 -0.14479,-0.07002 -0.36058,-0.09355 -1.0121,-0.11035 l -0.82803,-0.02135 0,2.5668 c 0,1.4919 0.02054,2.6385 0.04904,2.7378 0.06273,0.21873 0.17236,0.2973 0.47331,0.33922 0.13315,0.01855 0.22925,0.0545 0.21356,0.07989 -0.03785,0.06123 -2.0098,0.06051 -2.0098,-7.54e-4 z"
         id="path4320"
         inkscape:connector-curvature="0" />
      <path
         d="m 13.554,26.875 c 0,-0.02321 0.12,-0.0699 0.26666,-0.10376 0.15381,-0.0355 0.32549,-0.11792 0.4057,-0.19476 0.09783,-0.09372 0.49547,-0.96819 1.3414,-2.9498 0.66127,-1.5491 1.2344,-2.8432 1.2736,-2.8757 0.03922,-0.03255 0.09498,-0.04454 0.12392,-0.02665 0.0776,0.04796 0.51269,0.97898 1.5129,3.2374 0.49029,1.107 0.94844,2.1321 1.0181,2.2779 0.14983,0.31366 0.3628,0.50794 0.60704,0.55376 0.3883,0.07285 0.13483,0.11847 -0.66392,0.1195 -0.50942,6.75e-4 -0.84077,-0.01837 -0.84077,-0.04829 0,-0.02716 0.04737,-0.04938 0.10526,-0.04938 0.18765,0 0.30239,-0.09612 0.30239,-0.25331 0,-0.1769 -0.41086,-1.2625 -1.1094,-2.9314 -0.67952,-1.6234 -0.72283,-1.7162 -0.79038,-1.6937 -0.07181,0.02393 -1.8709,4.4939 -1.8709,4.6484 0,0.11043 0.17351,0.23011 0.33361,0.23011 0.04072,0 0.07403,0.02293 0.07403,0.05096 0,0.03232 -0.38217,0.05096 -1.0446,0.05096 -0.57453,0 -1.0446,-0.01899 -1.0446,-0.0422 z"
         id="path4318"
         inkscape:connector-curvature="0" />
      <path
         d="m 21.911,26.864 c 0,-0.02235 0.06957,-0.05591 0.15459,-0.07459 0.33636,-0.07388 0.32949,-0.01197 0.32949,-2.97 l 0,-2.6692 -0.11479,-0.09297 c -0.06314,-0.05114 -0.20655,-0.10848 -0.31869,-0.12742 -0.44438,-0.07508 -0.09797,-0.12733 0.84414,-0.12733 0.96622,0 1.2352,0.04755 0.77911,0.13774 -0.13834,0.02736 -0.24673,0.08899 -0.31328,0.17813 -0.09862,0.13209 -0.10144,0.20839 -0.09139,2.4722 0.0057,1.2848 0.02997,2.4229 0.05398,2.5293 0.09053,0.4014 0.30017,0.49106 1.1482,0.49106 0.84378,0 1.0706,-0.10034 1.2219,-0.54059 0.07737,-0.22506 0.17935,-0.28726 0.17935,-0.10939 0,0.22638 -0.10912,0.72603 -0.18398,0.84248 l -0.07425,0.1155 -1.8072,-0.0071 c -0.99396,-0.0039 -1.8072,-0.0254 -1.8072,-0.04775 z"
         id="path4316"
         inkscape:connector-curvature="0" />
      <path
         d="m 13.104,24.252 c -0.21673,-0.2307 -0.09819,-0.59647 0.21912,-0.67611 0.44718,-0.11224 0.77253,0.35865 0.46222,0.66897 -0.17225,0.17226 -0.52277,0.17593 -0.68134,0.0071 z"
         id="path4314"
         inkscape:connector-curvature="0" />
      <path
         d="m 19.83,24.252 c -0.21673,-0.2307 -0.09819,-0.59647 0.21912,-0.67611 0.44718,-0.11224 0.77253,0.35865 0.46221,0.66897 -0.17226,0.17226 -0.52277,0.17593 -0.68134,0.0071 z"
         id="path4312"
         inkscape:connector-curvature="0" />
      <path
         d="m 26.404,24.252 c -0.21674,-0.2307 -0.09819,-0.59647 0.21912,-0.67611 0.44718,-0.11224 0.77253,0.35865 0.46222,0.66897 -0.17225,0.17226 -0.52277,0.17593 -0.68134,0.0071 z"
         id="path4310"
         inkscape:connector-curvature="0" />
      <path
         d="m 35.833,24.336 c -0.03561,-0.01433 -0.09986,-0.09392 -0.14275,-0.17687 -0.13259,-0.25639 0.01584,-0.52713 0.32033,-0.58425 0.45466,-0.08529 0.73621,0.37932 0.42093,0.6946 -0.09718,0.09718 -0.43028,0.1342 -0.59851,0.06651 z"
         id="path4308"
         inkscape:connector-curvature="0" />
    </g>
    <g
       transform="scale(1.1378,0.87887)"
       id="g4267"
       style="opacity:0.15;fill:none;stroke:#000000;stroke-width:2;stroke-linecap:round;stroke-linejoin:round">
      <path
         transform="scale(0.87887,1.1378)"
         d="m 17,10 0,0.455 1.873,0 0,3.545 0.717,0 0,-3.545 1.875,0 0,-0.455 L 17,10 Z m 5.156,0 0,4 0.715,0 0,-1.904 2.594,0 0,1.904 0.715,0 0,-4 -0.715,0 0,1.641 -2.594,0 0,-1.641 -0.715,0 z m 5.444,0 0,4 3.4,0 0,-0.455 -2.686,0 0,-1.449 2.512,0 0,-0.455 -2.512,0 0,-1.186 2.622,0 0,-0.455 -3.336,0 z m -2.416,25 c -0.756,0 -1.351,0.179 -1.786,0.537 -0.434,0.356 -0.652,0.845 -0.652,1.465 0,0.618 0.218,1.105 0.652,1.463 0.435,0.356 1.03,0.535 1.786,0.535 0.294,0 0.573,-0.032 0.836,-0.094 0.265,-0.062 0.515,-0.153 0.751,-0.277 l 0,-0.545 c -0.227,0.164 -0.469,0.284 -0.728,0.365 -0.256,0.081 -0.531,0.123 -0.82,0.123 -0.571,0 -1.008,-0.135 -1.311,-0.404 -0.303,-0.27 -0.453,-0.658 -0.453,-1.166 0,-0.51 0.15,-0.899 0.453,-1.168 0.303,-0.27 0.74,-0.406 1.311,-0.406 0.289,0 0.564,0.042 0.82,0.123 0.259,0.081 0.501,0.201 0.728,0.365 l 0,-0.549 C 26.54,35.245 26.291,35.154 26.025,35.094 25.762,35.032 25.482,35 25.184,35 Z M 7,35.07 l 0,3.856 0.6758,0 0,-1.551 0.8496,0 c 0.5594,0 0.9803,-0.096 1.2656,-0.291 0.288,-0.195 0.432,-0.483 0.432,-0.863 0,-0.377 -0.144,-0.663 -0.432,-0.858 C 9.5057,35.167 9.0848,35.07 8.5254,35.07 L 7,35.07 Z m 4.133,0 0,3.856 0.674,0 0,-1.631 0.736,0 c 0.267,0 0.479,0.043 0.633,0.127 0.156,0.084 0.315,0.255 0.48,0.514 l 0.639,0.99 0.725,0 -0.686,-1.055 c -0.138,-0.217 -0.276,-0.388 -0.414,-0.512 -0.136,-0.124 -0.275,-0.204 -0.42,-0.242 0.279,-0.062 0.49,-0.172 0.635,-0.332 0.147,-0.16 0.22,-0.363 0.22,-0.605 0,-0.372 -0.141,-0.65 -0.421,-0.834 -0.281,-0.185 -0.707,-0.276 -1.278,-0.276 l -1.523,0 z m 4.76,0 0,3.856 0.675,0 0,-3.856 -0.675,0 z m 2.019,0 0,3.856 0.654,0 0,-3.227 2.215,3.227 0.908,0 0,-3.856 -0.654,0 0,3.225 -2.213,-3.225 -0.91,0 z m 9.908,0 0,3.856 0.676,0 0,-3.856 -0.676,0 z m 2.02,0 0,3.856 0.676,0 0,-1.551 0.849,0 c 0.56,0 0.983,-0.096 1.268,-0.291 0.287,-0.195 0.429,-0.483 0.429,-0.863 0,-0.377 -0.142,-0.663 -0.429,-0.858 -0.285,-0.196 -0.708,-0.293 -1.268,-0.293 l -1.525,0 z m 4.133,0 0,3.856 3.105,0 0,-0.44 -2.43,0 0,-3.416 -0.675,0 z m 3.81,0 0,3.856 3.217,0 0,-0.44 -2.541,0 0,-1.396 2.377,0 0,-0.44 -2.377,0 0,-1.142 2.48,0 0,-0.438 -3.156,0 z m -30.107,0.428 0.8496,0 c 0.3142,0 0.5569,0.064 0.7285,0.19 0.1716,0.125 0.2559,0.302 0.2559,0.533 0,0.232 -0.0843,0.411 -0.2559,0.537 -0.1716,0.125 -0.4143,0.189 -0.7285,0.189 l -0.8496,0 0,-1.449 z m 4.1312,0 0.849,0 c 0.326,0 0.572,0.059 0.737,0.174 0.167,0.113 0.25,0.282 0.25,0.508 0,0.225 -0.083,0.396 -0.25,0.513 -0.165,0.116 -0.411,0.174 -0.737,0.174 l -0.849,0 0,-1.369 z m 18.709,0 0.849,0 c 0.314,0 0.557,0.064 0.729,0.19 0.171,0.125 0.258,0.302 0.258,0.533 0,0.232 -0.087,0.411 -0.258,0.537 -0.172,0.125 -0.415,0.189 -0.729,0.189 l -0.849,0 0,-1.449 z"
         id="path4269"
         inkscape:connector-curvature="0"
         style="fill:none;stroke:#000000;stroke-width:2;stroke-linecap:round;stroke-linejoin:round" />
    </g>
    <g
       transform="scale(1.1378,0.87887)"
       id="g4271"
       style="opacity:0.15;fill:none;stroke:#000000;stroke-linecap:round;stroke-linejoin:round">
      <path
         transform="scale(0.87887,1.1378)"
         d="m 17,10 0,0.455 1.873,0 0,3.545 0.717,0 0,-3.545 1.875,0 0,-0.455 L 17,10 Z m 5.156,0 0,4 0.715,0 0,-1.904 2.594,0 0,1.904 0.715,0 0,-4 -0.715,0 0,1.641 -2.594,0 0,-1.641 -0.715,0 z m 5.444,0 0,4 3.4,0 0,-0.455 -2.686,0 0,-1.449 2.512,0 0,-0.455 -2.512,0 0,-1.186 2.622,0 0,-0.455 -3.336,0 z m -2.416,25 c -0.756,0 -1.351,0.179 -1.786,0.537 -0.434,0.356 -0.652,0.845 -0.652,1.465 0,0.618 0.218,1.105 0.652,1.463 0.435,0.356 1.03,0.535 1.786,0.535 0.294,0 0.573,-0.032 0.836,-0.094 0.265,-0.062 0.515,-0.153 0.751,-0.277 l 0,-0.545 c -0.227,0.164 -0.469,0.284 -0.728,0.365 -0.256,0.081 -0.531,0.123 -0.82,0.123 -0.571,0 -1.008,-0.135 -1.311,-0.404 -0.303,-0.27 -0.453,-0.658 -0.453,-1.166 0,-0.51 0.15,-0.899 0.453,-1.168 0.303,-0.27 0.74,-0.406 1.311,-0.406 0.289,0 0.564,0.042 0.82,0.123 0.259,0.081 0.501,0.201 0.728,0.365 l 0,-0.549 C 26.54,35.245 26.291,35.154 26.025,35.094 25.762,35.032 25.482,35 25.184,35 Z M 7,35.07 l 0,3.856 0.6758,0 0,-1.551 0.8496,0 c 0.5594,0 0.9803,-0.096 1.2656,-0.291 0.288,-0.195 0.432,-0.483 0.432,-0.863 0,-0.377 -0.144,-0.663 -0.432,-0.858 C 9.5057,35.167 9.0848,35.07 8.5254,35.07 L 7,35.07 Z m 4.133,0 0,3.856 0.674,0 0,-1.631 0.736,0 c 0.267,0 0.479,0.043 0.633,0.127 0.156,0.084 0.315,0.255 0.48,0.514 l 0.639,0.99 0.725,0 -0.686,-1.055 c -0.138,-0.217 -0.276,-0.388 -0.414,-0.512 -0.136,-0.124 -0.275,-0.204 -0.42,-0.242 0.279,-0.062 0.49,-0.172 0.635,-0.332 0.147,-0.16 0.22,-0.363 0.22,-0.605 0,-0.372 -0.141,-0.65 -0.421,-0.834 -0.281,-0.185 -0.707,-0.276 -1.278,-0.276 l -1.523,0 z m 4.76,0 0,3.856 0.675,0 0,-3.856 -0.675,0 z m 2.019,0 0,3.856 0.654,0 0,-3.227 2.215,3.227 0.908,0 0,-3.856 -0.654,0 0,3.225 -2.213,-3.225 -0.91,0 z m 9.908,0 0,3.856 0.676,0 0,-3.856 -0.676,0 z m 2.02,0 0,3.856 0.676,0 0,-1.551 0.849,0 c 0.56,0 0.983,-0.096 1.268,-0.291 0.287,-0.195 0.429,-0.483 0.429,-0.863 0,-0.377 -0.142,-0.663 -0.429,-0.858 -0.285,-0.196 -0.708,-0.293 -1.268,-0.293 l -1.525,0 z m 4.133,0 0,3.856 3.105,0 0,-0.44 -2.43,0 0,-3.416 -0.675,0 z m 3.81,0 0,3.856 3.217,0 0,-0.44 -2.541,0 0,-1.396 2.377,0 0,-0.44 -2.377,0 0,-1.142 2.48,0 0,-0.438 -3.156,0 z m -30.107,0.428 0.8496,0 c 0.3142,0 0.5569,0.064 0.7285,0.19 0.1716,0.125 0.2559,0.302 0.2559,0.533 0,0.232 -0.0843,0.411 -0.2559,0.537 -0.1716,0.125 -0.4143,0.189 -0.7285,0.189 l -0.8496,0 0,-1.449 z m 4.1312,0 0.849,0 c 0.326,0 0.572,0.059 0.737,0.174 0.167,0.113 0.25,0.282 0.25,0.508 0,0.225 -0.083,0.396 -0.25,0.513 -0.165,0.116 -0.411,0.174 -0.737,0.174 l -0.849,0 0,-1.369 z m 18.709,0 0.849,0 c 0.314,0 0.557,0.064 0.729,0.19 0.171,0.125 0.258,0.302 0.258,0.533 0,0.232 -0.087,0.411 -0.258,0.537 -0.172,0.125 -0.415,0.189 -0.729,0.189 l -0.849,0 0,-1.449 z"
         id="path4273"
         inkscape:connector-curvature="0"
         style="fill:none;stroke:#000000;stroke-linecap:round;stroke-linejoin:round" />
    </g>
    <g
       transform="scale(1.1378,0.87887)"
       id="text4408"
       style="fill:#ffffff">
      <path
         transform="scale(0.87887,1.1378)"
         d="m 17,10 0,0.455 1.873,0 0,3.545 0.717,0 0,-3.545 1.875,0 0,-0.455 L 17,10 Z m 5.156,0 0,4 0.715,0 0,-1.904 2.594,0 0,1.904 0.715,0 0,-4 -0.715,0 0,1.641 -2.594,0 0,-1.641 -0.715,0 z m 5.444,0 0,4 3.4,0 0,-0.455 -2.686,0 0,-1.449 2.512,0 0,-0.455 -2.512,0 0,-1.186 2.622,0 0,-0.455 -3.336,0 z m -2.416,25 c -0.756,0 -1.351,0.179 -1.786,0.537 -0.434,0.356 -0.652,0.845 -0.652,1.465 0,0.618 0.218,1.105 0.652,1.463 0.435,0.356 1.03,0.535 1.786,0.535 0.294,0 0.573,-0.032 0.836,-0.094 0.265,-0.062 0.515,-0.153 0.751,-0.277 l 0,-0.545 c -0.227,0.164 -0.469,0.284 -0.728,0.365 -0.256,0.081 -0.531,0.123 -0.82,0.123 -0.571,0 -1.008,-0.135 -1.311,-0.404 -0.303,-0.27 -0.453,-0.658 -0.453,-1.166 0,-0.51 0.15,-0.899 0.453,-1.168 0.303,-0.27 0.74,-0.406 1.311,-0.406 0.289,0 0.564,0.042 0.82,0.123 0.259,0.081 0.501,0.201 0.728,0.365 l 0,-0.549 C 26.54,35.245 26.291,35.154 26.025,35.094 25.762,35.032 25.482,35 25.184,35 Z M 7,35.07 l 0,3.856 0.6758,0 0,-1.551 0.8496,0 c 0.5594,0 0.9803,-0.096 1.2656,-0.291 0.288,-0.195 0.432,-0.483 0.432,-0.863 0,-0.377 -0.144,-0.663 -0.432,-0.858 C 9.5057,35.167 9.0848,35.07 8.5254,35.07 L 7,35.07 Z m 4.133,0 0,3.856 0.674,0 0,-1.631 0.736,0 c 0.267,0 0.479,0.043 0.633,0.127 0.156,0.084 0.315,0.255 0.48,0.514 l 0.639,0.99 0.725,0 -0.686,-1.055 c -0.138,-0.217 -0.276,-0.388 -0.414,-0.512 -0.136,-0.124 -0.275,-0.204 -0.42,-0.242 0.279,-0.062 0.49,-0.172 0.635,-0.332 0.147,-0.16 0.22,-0.363 0.22,-0.605 0,-0.372 -0.141,-0.65 -0.421,-0.834 -0.281,-0.185 -0.707,-0.276 -1.278,-0.276 l -1.523,0 z m 4.76,0 0,3.856 0.675,0 0,-3.856 -0.675,0 z m 2.019,0 0,3.856 0.654,0 0,-3.227 2.215,3.227 0.908,0 0,-3.856 -0.654,0 0,3.225 -2.213,-3.225 -0.91,0 z m 9.908,0 0,3.856 0.676,0 0,-3.856 -0.676,0 z m 2.02,0 0,3.856 0.676,0 0,-1.551 0.849,0 c 0.56,0 0.983,-0.096 1.268,-0.291 0.287,-0.195 0.429,-0.483 0.429,-0.863 0,-0.377 -0.142,-0.663 -0.429,-0.858 -0.285,-0.196 -0.708,-0.293 -1.268,-0.293 l -1.525,0 z m 4.133,0 0,3.856 3.105,0 0,-0.44 -2.43,0 0,-3.416 -0.675,0 z m 3.81,0 0,3.856 3.217,0 0,-0.44 -2.541,0 0,-1.396 2.377,0 0,-0.44 -2.377,0 0,-1.142 2.48,0 0,-0.438 -3.156,0 z m -30.107,0.428 0.8496,0 c 0.3142,0 0.5569,0.064 0.7285,0.19 0.1716,0.125 0.2559,0.302 0.2559,0.533 0,0.232 -0.0843,0.411 -0.2559,0.537 -0.1716,0.125 -0.4143,0.189 -0.7285,0.189 l -0.8496,0 0,-1.449 z m 4.1312,0 0.849,0 c 0.326,0 0.572,0.059 0.737,0.174 0.167,0.113 0.25,0.282 0.25,0.508 0,0.225 -0.083,0.396 -0.25,0.513 -0.165,0.116 -0.411,0.174 -0.737,0.174 l -0.849,0 0,-1.369 z m 18.709,0 0.849,0 c 0.314,0 0.557,0.064 0.729,0.19 0.171,0.125 0.258,0.302 0.258,0.533 0,0.232 -0.087,0.411 -0.258,0.537 -0.172,0.125 -0.415,0.189 -0.729,0.189 l -0.849,0 0,-1.449 z"
         id="path4257"
         inkscape:connector-curvature="0" />
    </g>
  </g>
</svg>
