<?xml version="1.0" encoding="UTF-8" standalone="no"?>
<svg
   xmlns:dc="http://purl.org/dc/elements/1.1/"
   xmlns:cc="http://creativecommons.org/ns#"
   xmlns:rdf="http://www.w3.org/1999/02/22-rdf-syntax-ns#"
   xmlns:svg="http://www.w3.org/2000/svg"
   xmlns="http://www.w3.org/2000/svg"
   xmlns:xlink="http://www.w3.org/1999/xlink"
   version="1.1"
   id="svg2"
   viewBox="0 0 48 48.000001"
   height="48"
   width="48">
  <defs
     id="defs4">
    <linearGradient
       id="linearGradient4323">
      <stop
         id="stop4325"
         offset="0"
         style="stop-color:#000000;stop-opacity:1;" />
      <stop
         id="stop4327"
         offset="1"
         style="stop-color:#000000;stop-opacity:0;" />
    </linearGradient>
    <linearGradient
       id="linearGradient4174">
      <stop
         id="stop4162"
         offset="0"
         style="stop-color:#ffffff;stop-opacity:1;" />
      <stop
         style="stop-color:#ffffff;stop-opacity:0.23529412"
         offset="0.15164158"
         id="stop4176" />
      <stop
         id="stop4178"
         offset="0.86457443"
         style="stop-color:#ffffff;stop-opacity:0.15686275" />
      <stop
         id="stop4164"
         offset="1"
         style="stop-color:#ffffff;stop-opacity:0.39215687" />
    </linearGradient>
    <radialGradient
       gradientTransform="matrix(-1.6707338e-6,2.0975611,-1.5121982,-1.2044849e-6,1558.515,968.32317)"
       gradientUnits="userSpaceOnUse"
       r="20.5"
       fy="1014.7579"
       fx="21.949423"
       cy="1014.7579"
       cx="21.949423"
       id="radialGradient4149"
       xlink:href="#linearGradient4177" />
    <radialGradient
       gradientUnits="userSpaceOnUse"
       gradientTransform="matrix(1,0,0,0.32352941,0,707.49501)"
       r="17"
       fy="1045.8622"
       fx="24"
       cy="1045.8622"
       cx="24"
       id="radialGradient4329"
       xlink:href="#linearGradient4323" />
    <linearGradient
       gradientUnits="userSpaceOnUse"
       y2="1048.5426"
       x2="24.680264"
       y1="1008.285"
       x1="24.680264"
       id="linearGradient4167"
       xlink:href="#linearGradient4174" />
    <linearGradient
       id="linearGradient4177">
      <stop
         id="stop4179"
         offset="0"
         style="stop-color:#2ea6e1;stop-opacity:1" />
      <stop
         id="stop4181"
         offset="1"
         style="stop-color:#2284b3;stop-opacity:0.98431373" />
    </linearGradient>
  </defs>
  <metadata
     id="metadata7">
    <rdf:RDF>
      <cc:Work
         rdf:about="">
        <dc:format>image/svg+xml</dc:format>
        <dc:type
           rdf:resource="http://purl.org/dc/dcmitype/StillImage" />
        <dc:title />
      </cc:Work>
    </rdf:RDF>
  </metadata>
  <g
     transform="translate(0,-1004.3622)"
     id="layer1">
    <rect
       y="1040.3622"
       x="7"
       height="11"
       width="34"
       id="rect4321"
       style="opacity:0.5;fill:url(#radialGradient4329);fill-opacity:1;stroke:none;stroke-width:1;stroke-linejoin:round;stroke-miterlimit:4;stroke-dasharray:none;stroke-opacity:1" />
    <circle
       r="20.5"
       cy="1028.3622"
       cx="24"
       id="path4136"
       style="opacity:1;fill:url(#radialGradient4149);fill-opacity:1;stroke:none;stroke-width:1;stroke-linejoin:round;stroke-miterlimit:4;stroke-dasharray:none;stroke-opacity:1" />
    <circle
       style="opacity:0.60000005;fill:none;fill-opacity:1;stroke:#144696;stroke-width:1;stroke-linejoin:round;stroke-miterlimit:4;stroke-dasharray:none;stroke-opacity:1"
       id="circle4155"
       cx="24"
       cy="1028.3622"
       r="20.5" />
    <circle
       style="opacity:0.4;fill:none;fill-opacity:1;stroke:url(#linearGradient4167);stroke-width:1;stroke-linejoin:round;stroke-miterlimit:4;stroke-dasharray:none;stroke-opacity:1"
       id="circle4157"
       cx="24.000006"
       cy="1028.3623"
       r="19.500006" />
    <path
       id="path4196"
       d="m -43.757721,1030.6254 c -1.264462,-10e-5 -2.358407,0.7301 -2.883166,1.7917 l -9.276903,17.8455 c -0.21977,0.4391 -0.339237,0.9289 -0.33993,1.4342 -1.9e-5,1.7752 1.071398,3.2143 3.214279,3.2142 0.755155,10e-5 1.798206,-0.1555 2.907669,-0.5559 l 6.378049,-2.3011 6.414276,1.9736 c 1.4429,0.3866 2.157144,0.8861 2.871438,0.8835 2.142843,0 3.21431,-1.4391 3.214289,-3.2143 -1.27e-4,-0.5066 -0.119604,-0.9974 -0.339675,-1.4373 l -9.283197,-17.8546 c -0.527133,-1.055 -1.617574,-1.7796 -2.877129,-1.7795 z"
       style="opacity:1;fill:#65ffff;fill-opacity:0.98431373;stroke:none;stroke-width:1;stroke-linecap:butt;stroke-linejoin:round;stroke-miterlimit:4;stroke-dasharray:none;stroke-opacity:1" />
    <circle
       r="3"
       cy="1006.3622"
       cx="-56"
       id="path4186"
       style="opacity:0.594;fill:#c184b3;fill-opacity:0.98431373;stroke:none;stroke-width:1;stroke-linecap:butt;stroke-linejoin:round;stroke-miterlimit:4;stroke-dasharray:none;stroke-opacity:1" />
    <circle
       style="opacity:0.594;fill:#c184b3;fill-opacity:0.98431373;stroke:none;stroke-width:1;stroke-linecap:butt;stroke-linejoin:round;stroke-miterlimit:4;stroke-dasharray:none;stroke-opacity:1"
       id="circle4183"
       cx="-66"
       cy="1025.3619"
       r="3" />
    <circle
       style="opacity:0.594;fill:#c184b3;fill-opacity:0.98431373;stroke:none;stroke-width:1;stroke-linecap:butt;stroke-linejoin:round;stroke-miterlimit:4;stroke-dasharray:none;stroke-opacity:1"
       id="circle4185"
       cx="-47"
       cy="1025.3621"
       r="3" />
    <path
       id="path4187"
       d="m -68,1023.3622 2,5 19,0 2,-5 -8,-17 -6,0 z"
       style="opacity:0.50499998;fill:#65a7ff;fill-opacity:0.98431373;fill-rule:evenodd;stroke:none;stroke-width:1px;stroke-linecap:butt;stroke-linejoin:miter;stroke-opacity:1" />
    <path
       id="path4226"
       d="m 34.838836,1018.5233 c -0.922562,-0.9225 -2.300112,-0.8859 -3.410909,-0.5882 l -20.126128,6.7073 c -0.315021,0.1458 -0.606129,0.347 -0.858146,0.5985 -1.1716057,1.1716 -1.1715732,3.071 0,4.2426 1.767766,1.7678 6.010407,3.182 8.838834,4.5962 1.414214,2.8284 2.828427,7.0711 4.596194,8.8388 1.171573,1.1716 3.071036,1.1716 4.242641,0 0.241115,-0.242 0.435931,-0.5199 0.580029,-0.8204 l 6.725848,-20.164 c 0.297574,-1.1106 0.334137,-2.4883 -0.588363,-3.4108 z"
       style="opacity:0.07;fill:#000000;fill-opacity:0.98431373;stroke:#000000;stroke-width:1;stroke-linecap:butt;stroke-linejoin:round;stroke-miterlimit:4;stroke-dasharray:none;stroke-opacity:1" />
    <path
       style="opacity:0.15000007;fill:#000000;fill-opacity:0.98431373;stroke:none;stroke-width:1;stroke-linecap:butt;stroke-linejoin:round;stroke-miterlimit:4;stroke-dasharray:none;stroke-opacity:1"
       d="m 34.838836,1018.5233 c -0.922562,-0.9225 -2.300112,-0.8859 -3.410909,-0.5882 l -20.126128,6.7073 c -0.315021,0.1458 -0.606129,0.347 -0.858146,0.5985 -1.1716057,1.1716 -1.1715732,3.071 0,4.2426 1.767766,1.7678 6.010407,3.182 8.838834,4.5962 1.414214,2.8284 2.828427,7.0711 4.596194,8.8388 1.171573,1.1716 3.071036,1.1716 4.242641,0 0.241115,-0.242 0.435931,-0.5199 0.580029,-0.8204 l 6.725848,-20.164 c 0.297574,-1.1106 0.334137,-2.4883 -0.588363,-3.4108 z"
       id="path4224" />
    <path
       id="circle4189"
       d="m 34.838836,1017.5233 c -0.922562,-0.9225 -2.300112,-0.8859 -3.410909,-0.5882 l -20.126128,6.7073 c -0.315021,0.1458 -0.606129,0.347 -0.858146,0.5985 -1.1716057,1.1716 -1.1715732,3.071 0,4.2426 1.767766,1.7678 6.010407,3.182 8.838834,4.5962 1.414214,2.8284 2.828427,7.0711 4.596194,8.8388 1.171573,1.1716 3.071036,1.1716 4.242641,0 0.241115,-0.242 0.435931,-0.5199 0.580029,-0.8204 l 6.725848,-20.164 c 0.297574,-1.1106 0.334137,-2.4883 -0.588363,-3.4108 z"
       style="opacity:1;fill:#ffffff;fill-opacity:0.98431373;stroke:none;stroke-width:1;stroke-linecap:butt;stroke-linejoin:round;stroke-miterlimit:4;stroke-dasharray:none;stroke-opacity:1" />
    <path
       id="rect4205"
       d="m 33.424623,1018.9376 -19.075311,11.9213 c 1.402843,0.6491 2.870013,1.2626 4.176351,1.8728 l 14.89896,-13.7941 z"
       style="opacity:0.15;fill:#000000;fill-opacity:0.98431373;stroke:none;stroke-width:1;stroke-linecap:butt;stroke-linejoin:round;stroke-miterlimit:4;stroke-dasharray:none;stroke-opacity:1" />
    <path
       id="path4208"
       d="m 33.424623,1018.9376 -13.794106,14.8989 c 0.610145,1.3064 1.223652,2.7735 1.872728,4.1764 l 11.921378,-19.0753 z"
       style="opacity:0.07000002;fill:#000000;fill-opacity:0.98431373;stroke:none;stroke-width:1;stroke-linecap:butt;stroke-linejoin:round;stroke-miterlimit:4;stroke-dasharray:none;stroke-opacity:1" />
  </g>
</svg>
