<?xml version="1.0" encoding="UTF-8" standalone="no"?>
<!-- Created with Inkscape (http://www.inkscape.org/) -->

<svg
   xmlns:dc="http://purl.org/dc/elements/1.1/"
   xmlns:cc="http://creativecommons.org/ns#"
   xmlns:rdf="http://www.w3.org/1999/02/22-rdf-syntax-ns#"
   xmlns:svg="http://www.w3.org/2000/svg"
   xmlns="http://www.w3.org/2000/svg"
   xmlns:sodipodi="http://sodipodi.sourceforge.net/DTD/sodipodi-0.dtd"
   xmlns:inkscape="http://www.inkscape.org/namespaces/inkscape"
   id="svg3143"
   height="48"
   width="48"
   version="1.1"
   inkscape:version="0.91 r13725"
   sodipodi:docname="terraria.svg">
  <sodipodi:namedview
     pagecolor="#ffffff"
     bordercolor="#666666"
     borderopacity="1"
     objecttolerance="10"
     gridtolerance="10"
     guidetolerance="10"
     inkscape:pageopacity="0"
     inkscape:pageshadow="2"
     inkscape:window-width="1535"
     inkscape:window-height="876"
     id="namedview84"
     showgrid="false"
     inkscape:zoom="4.9166667"
     inkscape:cx="-10.779661"
     inkscape:cy="24"
     inkscape:window-x="65"
     inkscape:window-y="24"
     inkscape:window-maximized="1"
     inkscape:current-layer="svg3143" />
  <defs
     id="defs3145">
    <radialGradient
       id="radialGradient3030"
       gradientUnits="userSpaceOnUse"
       cy="43.5"
       cx="4.993"
       gradientTransform="matrix(2.0038 0 0 1.4 27.988 -17.4)"
       r="2.5">
      <stop
         id="stop2883"
         stop-color="#181818"
         offset="0" />
      <stop
         id="stop2885"
         stop-color="#181818"
         stop-opacity="0"
         offset="1" />
    </radialGradient>
    <radialGradient
       id="radialGradient3032"
       gradientUnits="userSpaceOnUse"
       cy="43.5"
       cx="4.993"
       gradientTransform="matrix(2.0038 0 0 1.4 -20.012 -104.4)"
       r="2.5">
      <stop
         id="stop2889"
         stop-color="#181818"
         offset="0" />
      <stop
         id="stop2891"
         stop-color="#181818"
         stop-opacity="0"
         offset="1" />
    </radialGradient>
    <linearGradient
       id="linearGradient3034"
       y2="39.999"
       gradientUnits="userSpaceOnUse"
       x2="25.058"
       y1="47.028"
       x1="25.058">
      <stop
         id="stop2895"
         stop-color="#181818"
         stop-opacity="0"
         offset="0" />
      <stop
         id="stop2897"
         stop-color="#181818"
         offset=".5" />
      <stop
         id="stop2899"
         stop-color="#181818"
         stop-opacity="0"
         offset="1" />
    </linearGradient>
    <linearGradient
       id="linearGradient3044"
       y2="43"
       gradientUnits="userSpaceOnUse"
       x2="24"
       gradientTransform="translate(4.4844e-6,0)"
       y1="5"
       x1="24">
      <stop
         id="stop3926-7"
         stop-color="#fff"
         offset="0" />
      <stop
         id="stop3928-3"
         stop-color="#fff"
         stop-opacity=".23529"
         offset=".063165" />
      <stop
         id="stop3930-7"
         stop-color="#fff"
         stop-opacity=".15686"
         offset=".95056" />
      <stop
         id="stop3932-1"
         stop-color="#fff"
         stop-opacity=".39216"
         offset="1" />
    </linearGradient>
    <filter
       id="filter4242"
       style="color-interpolation-filters:sRGB">
      <feColorMatrix
         id="feColorMatrix4244"
         values="1 0 0 0 0 0 1 0 0 0 0 0 1 0 0 0 0 0 1000 -500 "
         result="fbSourceGraphic" />
      <feColorMatrix
         id="feColorMatrix4250"
         values="0 0 0 -1 0 0 0 0 -1 0 0 0 0 -1 0 0 0 0 1 0"
         result="fbSourceGraphicAlpha"
         in="fbSourceGraphic" />
      <feColorMatrix
         id="feColorMatrix4252"
         values="1 0 0 0 0 0 1 0 0 0 0 0 1 0 0 0 0 0 1000 -500 "
         in="fbSourceGraphic" />
    </filter>
    <filter
       id="filter4246"
       style="color-interpolation-filters:sRGB">
      <feColorMatrix
         id="feColorMatrix4248"
         values="1 0 0 0 0 0 1 0 0 0 0 0 1 0 0 0 0 0 1000 -500 " />
    </filter>
    <filter
       id="filter4254"
       style="color-interpolation-filters:sRGB">
      <feColorMatrix
         id="feColorMatrix4256"
         values="1 0 0 0 0 0 1 0 0 0 0 0 1 0 0 0 0 0 1000 -500 " />
    </filter>
    <filter
       id="filter4258"
       style="color-interpolation-filters:sRGB">
      <feColorMatrix
         id="feColorMatrix4260"
         values="1 0 0 0 0 0 1 0 0 0 0 0 1 0 0 0 0 0 1000 -500 " />
    </filter>
    <filter
       id="filter4267"
       style="color-interpolation-filters:sRGB">
      <feColorMatrix
         id="feColorMatrix4269"
         values="1 0 0 0 0 0 1 0 0 0 0 0 1 0 0 0 0 0 1000 -500 " />
    </filter>
  </defs>
  <metadata
     id="metadata3148">
    <rdf:RDF>
      <cc:Work
         rdf:about="">
        <dc:format>image/svg+xml</dc:format>
        <dc:type
           rdf:resource="http://purl.org/dc/dcmitype/StillImage" />
        <dc:title />
      </cc:Work>
    </rdf:RDF>
  </metadata>
  <rect
     id="rect4376"
     style="color:#000000;fill:#007a35"
     rx="2"
     ry="2"
     height="39"
     width="39"
     y="4.5"
     x="4.5" />
  <path
     inkscape:connector-curvature="0"
     id="rect5505-21"
     style="color:#000000;fill:#0082fa"
     d="m 6.5,4.5 c -1.108,0 -2,0.892 -2,2 l 0,28.635 c 1.2383,-0.32441 2.5429,-0.62846 3.9688,-0.88672 4.3995,-0.79688 6.9924,2.0509 14.867,2.1562 7.0209,0.09389 10.063,-3.0465 14.148,-2.3984 2.2037,0.34957 4.2219,0.7816 6.0156,1.2793 l 0,-28.785 c 0,-1.108 -0.892,-2 -2,-2 l -35,0 z" />
  <g
     style="filter:url(#filter4246)"
     id="g4232"
     transform="translate(0,-1.5)">
    <rect
       style="fill:#196430"
       id="rect4208"
       height="4"
       width="4"
       y="35"
       x="4.5" />
    <rect
       style="fill:#007a35"
       id="rect4212"
       height="4"
       width="4"
       y="34"
       x="8.5" />
    <rect
       style="fill:#007a35"
       id="rect4214"
       height="4"
       width="4"
       y="34"
       x="8.5" />
    <rect
       style="fill:#196430"
       id="rect4216"
       height="4"
       width="4"
       y="34.5"
       x="12.5" />
    <rect
       style="fill:#007a35"
       id="rect4218"
       height="4"
       width="4"
       y="35.5"
       x="16.5" />
    <rect
       style="fill:#196430"
       id="rect4220"
       height="4"
       width="4"
       y="36.5"
       x="20.5" />
    <rect
       style="fill:#007a35"
       id="rect4222"
       height="4"
       width="4"
       y="36.5"
       x="24.5" />
    <rect
       style="fill:#196430"
       id="rect4224"
       height="4"
       width="4"
       y="36"
       x="28.5" />
    <rect
       style="fill:#007a35"
       id="rect4226"
       height="4"
       width="4"
       y="35"
       x="32.5" />
    <rect
       style="fill:#196430"
       id="rect4228"
       height="4"
       width="4"
       y="34.5"
       x="36.5" />
    <path
       style="fill:#007a35"
       inkscape:connector-curvature="0"
       id="rect4230"
       d="m 40.5,34 3,0 0,4 -3,0 z" />
    <rect
       style="fill:#196430"
       id="rect4348"
       height="4"
       width="4"
       y="35"
       x="4.5" />
  </g>
  <g
     style="filter:url(#filter4254)"
     id="g4350"
     transform="translate(4.0396,2.6159)">
    <rect
       style="fill:#196430"
       id="rect4352"
       height="4"
       width="4"
       y="35"
       x="4.5" />
    <rect
       style="fill:#007a35"
       id="rect4354"
       height="4"
       width="4"
       y="34"
       x="8.5" />
    <rect
       style="fill:#007a35"
       id="rect4356"
       height="4"
       width="4"
       y="34"
       x="8.5" />
    <rect
       style="fill:#196430"
       id="rect4358"
       height="4"
       width="4"
       y="34.5"
       x="12.5" />
    <rect
       style="fill:#007a35"
       id="rect4360"
       height="4"
       width="4"
       y="35.5"
       x="16.5" />
    <rect
       style="fill:#196430"
       id="rect4362"
       height="4"
       width="4"
       y="36.5"
       x="20.5" />
    <rect
       style="fill:#007a35"
       id="rect4364"
       height="4"
       width="4"
       y="36.5"
       x="24.5" />
    <rect
       style="fill:#196430"
       id="rect4366"
       height="4"
       width="4"
       y="36"
       x="28.5" />
    <rect
       style="fill:#007a35"
       id="rect4368"
       height="4"
       width="4"
       y="35"
       x="32.5" />
    <rect
       style="fill:#196430"
       id="rect4370"
       height="4.2287002"
       width="2.7042999"
       y="34.5"
       x="36.5" />
    <rect
       style="fill:#196430"
       id="rect4374"
       height="4"
       width="4"
       y="35"
       x="4.5" />
  </g>
  <rect
     style="opacity:0.5;fill:none;stroke:url(#linearGradient3044);stroke-linecap:round;stroke-linejoin:round"
     id="rect6741-2"
     rx="1"
     ry="1"
     height="37"
     width="37"
     y="5.5"
     x="5.5" />
  <rect
     id="rect5505-21-1"
     style="color:#000000;opacity:0.4;fill:none;stroke:#525252;stroke-linecap:round;stroke-linejoin:round"
     rx="2"
     ry="2"
     height="39"
     width="39"
     y="4.5"
     x="4.5" />
  <g
     style="fill:#ffffff;filter:url(#filter4258)"
     id="g4340"
     transform="translate(3,0)">
    <rect
       id="rect4275"
       height="4"
       width="4"
       y="11"
       x="25" />
    <rect
       id="rect4292"
       height="4"
       width="4"
       y="9"
       x="27" />
    <rect
       id="rect4294"
       height="4"
       width="4"
       y="7"
       x="30" />
    <rect
       id="rect4300"
       height="4"
       width="4"
       y="12"
       x="33" />
    <rect
       id="rect4302"
       height="4"
       width="4"
       y="9"
       x="32" />
    <rect
       id="rect4304"
       height="4"
       width="4"
       y="11"
       x="29" />
  </g>
  <g
     style="filter:url(#filter4242)"
     id="g4210"
     transform="matrix(0.13916,0,0,0.13916,1.9669,6.0232)">
    <path
       style="fill-opacity:0"
       inkscape:connector-curvature="0"
       id="path4224"
       d="m 126.55,249.66 c -1.7835,-1.351 -2.8503,-1.4319 -4.586,-0.34795 -1.7211,1.0748 -2.7343,1.0204 -4.2383,-0.22781 -1.0871,-0.90219 -1.9765,-2.161 -1.9765,-2.7972 0,-2.0834 6.8114,-7.2071 9.6348,-7.2475 1.9206,-0.0275 3.7433,-1.7177 5.9941,-5.5584 1.7789,-3.0354 4.0526,-6.198 5.0527,-7.028 1.3995,-1.1615 1.8184,-4.8416 1.8184,-15.975 0,-13.996 -0.10917,-14.58 -3.3589,-17.972 -1.8474,-1.9282 -4.0215,-3.5059 -4.8314,-3.5059 -0.80991,0 -2.9945,-1.1972 -4.8546,-2.6603 -3.6509,-2.8718 -3.8404,-2.8316 -13.157,2.7926 l -4.3266,2.612 -4.4234,-5.1415 c -2.4329,-2.8278 -5.0577,-5.1328 -5.8329,-5.1221 -0.7752,0.0112 -2.1234,-0.84089 -2.996,-1.8923 -1.3138,-1.5831 -1.1142,-2.4144 1.1617,-4.837 1.9258,-2.05 2.5233,-3.8215 1.9965,-5.9202 -0.57012,-2.2716 0.14443,-3.8534 2.9587,-6.5496 2.1144,-2.0258 4.3384,-3.1666 5.1705,-2.6523 0.80308,0.49634 3.5716,-0.0498 6.1524,-1.2135 4.2756,-1.928 5.0998,-1.9456 9.284,-0.19731 5.47,2.2855 6.7096,4.8412 4.8009,9.8979 -0.77805,2.0613 -0.98806,4.5101 -0.46668,5.4417 1.2271,2.1927 10.27,6.8101 11.657,5.9525 1.8939,-1.1705 1.2337,-13.815 -0.80988,-15.511 -1.0575,-0.87766 -1.875,-3.6026 -1.875,-6.25 0,-2.6474 0.81748,-5.3723 1.875,-6.25 3.4579,-2.8698 2.1868,-6.7017 -3.0182,-9.099 -4.0625,-1.8711 -5.37,-1.9774 -8.2396,-0.66995 -3.0572,1.393 -3.6548,1.2528 -5.764,-1.3519 -1.29,-1.6 -2.35,-3.91 -2.35,-5.13 0,-2.4856 -2.8233,-4.0224 -5.5015,-2.9947 -1.0036,0.38513 -2.7383,-0.73666 -4.0625,-2.6272 -1.271,-1.8146 -3.5766,-4.7481 -5.1235,-6.5189 -1.9983,-2.2875 -2.8125,-4.8042 -2.8125,-8.693 0,-4.6881 0.44834,-5.6439 3.125,-6.6615 1.7188,-0.65347 3.125,-1.7516 3.125,-2.4402 0,-0.68866 -1.4062,-2.1735 -3.125,-3.2997 -1.7188,-1.1262 -3.122,-2.686 -3.1183,-3.4663 0.0038,-0.7803 2.8189,-4.1322 6.2561,-7.4488 5.9099,-5.7025 6.1472,-6.1759 4.3683,-8.7156 -2.9465,-4.2067 -2.2666,-7.6203 2.1814,-10.953 8.5838,-6.4313 12.903,-7.5054 19.004,-4.7257 3.705,1.6881 9.4338,-0.22226 9.4338,-3.1458 0,-3.2298 3.5118,-5.0647 6.8138,-3.5602 2.1838,0.99502 4.0231,0.97222 6.823,-0.08459 3.5931,-1.3563 4.1384,-1.1487 8.7094,3.3147 4.2405,4.1407 5.2218,4.5767 7.5262,3.3434 2.2568,-1.2078 3.3898,-0.82351 7.6387,2.591 2.7439,2.205 4.9888,4.4587 4.9888,5.0082 0,1.7114 11.51,14.095 15.222,16.377 3.4235,2.1048 4.8013,6.5699 2.2877,7.4142 -0.68226,0.22916 -1.5982,4.9167 -2.0353,10.417 -0.50875,6.4005 -1.7342,11.8 -3.4045,15 -3.1983,6.1277 -7.0052,10.625 -8.994,10.625 -0.81868,0 -3.0376,1.2185 -4.9309,2.7078 -2.8121,2.212 -3.8697,2.4409 -5.7766,1.25 -2.8878,-1.8035 -6.7672,-1.8673 -9.9504,-0.16378 -2.2926,1.227 -2.4178,2.9316 -2.4178,32.917 0,17.392 0.30169,31.924 0.67042,32.293 1.1196,1.1196 9.838,-2.3758 11.162,-4.4753 0.83862,-1.3295 0.7574,-3.2418 -0.25115,-5.9138 -1.9193,-5.0847 -0.38722,-8.0355 5.435,-10.468 3.9142,-1.6355 4.9446,-1.6329 8.9062,0.0224 2.464,1.0295 5.4058,1.578 6.5374,1.2188 3.2552,-1.0332 9.2789,5.9939 8.341,9.7306 -0.53356,2.1259 -0.0203,3.701 1.7191,5.2751 3.4908,3.1592 3.0844,5.526 -1.2056,7.0215 -2.0529,0.71565 -4.8278,3.221 -6.2646,5.6561 -2.3428,3.9708 -2.9501,4.2932 -6.6271,3.5185 -2.2264,-0.46909 -5.5376,-2.2502 -7.3583,-3.9582 -3.5022,-3.2853 -6.1721,-2.8952 -9.758,1.4255 -0.88702,1.0688 -2.5708,1.9432 -3.7418,1.9432 -4.7613,0 -9.9256,9.6434 -6.3483,11.854 0.6691,0.41352 2.0799,2.5713 3.1351,4.795 1.8633,3.9265 6.2119,6.8313 13.644,9.1138 5.6096,1.7228 6.873,4.7602 3.4815,8.3703 -2.2729,2.4194 -3.9482,2.9566 -8.7082,2.7921 -3.2416,-0.112 -6.8876,-0.65482 -8.1022,-1.2063 -1.2146,-0.55147 -3.7458,-0.62858 -5.625,-0.17137 -6.0522,1.4726 -15.799,1.7689 -18.077,0.54957 -1.4258,-0.76306 -3.0746,-0.72525 -4.628,0.10613 -1.8418,0.98569 -2.9101,0.79465 -4.5115,-0.80678 -1.9644,-1.9644 -2.1733,-1.9642 -3.2739,0.003 -1.4128,2.5245 -2.2098,2.564 -5.2506,0.26075 z" />
    <path
       style="fill:#a4836b"
       inkscape:connector-curvature="0"
       id="path4222"
       d="m 145.06,248.89 c -0.49871,-0.80693 -2.5079,-1.0497 -4.9287,-0.59557 -3.0182,0.56622 -4.2779,0.26872 -4.8176,-1.1377 -0.97106,-2.5306 -4.5593,-2.4485 -4.5593,0.1043 0,1.4467 -0.61204,1.7392 -2.1875,1.0455 -1.2031,-0.52981 -3.7344,-1.0822 -5.625,-1.2275 -1.8906,-0.14532 -3.8168,-0.33452 -4.2804,-0.42046 -2.0135,-0.37324 5.2058,-6.3063 8.0923,-6.6506 2.3306,-0.27798 3.9888,-1.8924 6.1459,-5.9838 1.6248,-3.0817 3.7755,-6.0628 4.7794,-6.6246 1.4522,-0.81272 1.8253,-4.2948 1.8253,-17.039 0,-15.64 -0.0778,-16.095 -3.2955,-19.313 -1.8125,-1.8125 -3.9866,-3.2954 -4.8314,-3.2954 -0.84479,0 -2.9662,-1.125 -4.7142,-2.5 -3.9765,-3.1279 -6.8955,-3.1666 -10.203,-0.13495 -1.4193,1.3008 -4.3362,2.7358 -6.4819,3.1889 -3.5098,0.7412 -4.1641,0.37843 -6.5203,-3.615 -1.4405,-2.4414 -3.4486,-4.4389 -4.4624,-4.4389 -3.2349,0 -3.5891,-2.5932 -0.76479,-5.5996 2.2309,-2.3746 2.4845,-3.3884 1.369,-5.4726 -1.1202,-2.0931 -0.8756,-3.0178 1.3456,-5.0872 1.493,-1.391 3.889,-2.4653 5.3245,-2.3874 1.4354,0.0779 4.1565,-0.48444 6.0468,-1.2496 7.0056,-2.8358 15.429,1.3207 12.425,6.131 -0.81802,1.3098 -1.4873,4.0887 -1.4873,6.1753 0,2.971 0.74545,4.0928 3.4375,5.1726 1.8906,0.75836 4.6652,1.946 6.1657,2.6393 5.0384,2.3278 6.6468,0.46242 6.6468,-7.7087 0,-4.106 -0.5625,-7.8131 -1.25,-8.238 -0.6875,-0.4249 -1.25,-3.2374 -1.25,-6.25 0,-3.0126 0.5625,-5.8251 1.25,-6.25 0.6875,-0.4249 1.25,-2.3269 1.25,-4.2267 0,-2.681 -1.1808,-4.2273 -5.2754,-6.9081 -4.9754,-3.2575 -5.4615,-3.344 -8.5484,-1.5204 -3.5857,2.1181 -6.1762,0.84894 -6.1762,-3.026 0,-2.7496 -3.9585,-6.1937 -7.1187,-6.1937 -3.8362,0 -11.631,-10.63 -11.631,-15.861 0,-3.3307 0.64728,-4.4469 3.125,-5.3889 3.8116,-1.4492 4.144,-5.5925 0.625,-7.7901 -3.6168,-2.2587 -3.0704,-5.4979 1.25,-7.4103 2.0625,-0.91295 3.75,-2.1814 3.75,-2.8188 0,-0.63741 0.95156,-2.2104 2.1146,-3.4955 1.9861,-2.1946 1.9861,-2.5541 0,-5.9163 -1.163,-1.9688 -2.1146,-3.8327 -2.1146,-4.1418 0,-1.5993 6.4296,-7.1451 10.551,-9.101 3.921,-1.8607 5.3811,-1.9912 8.7298,-0.78024 2.2117,0.79976 5.1063,1.4362 6.4325,1.4144 2.7897,-0.046 6.7862,-2.7741 6.7862,-4.6325 0,-2.7816 3.4426,-4.2909 6.0594,-2.6567 2.0006,1.2494 3.193,1.2513 5.9188,0.0094 3.1699,-1.4443 3.747,-1.2296 8.0886,3.0098 3.8882,3.7968 5.2765,4.433 8.2485,3.7802 2.9318,-0.64393 4.3106,-0.04964 7.6788,3.3098 6.857,6.8392 14.006,15.54 14.006,17.047 0,0.78249 0.78144,1.4227 1.7365,1.4227 0.95508,0 3.0364,1.0526 4.6252,2.3391 2.7188,2.2016 2.7637,2.464 0.76349,4.4643 -1.63,1.637 -2.13,4.36 -2.13,11.54 0,7.0903 -0.56526,10.222 -2.2966,12.723 -1.2631,1.8249 -2.6268,4.2373 -3.0303,5.361 -0.40356,1.1237 -3.6856,4.0216 -7.2935,6.4397 -6.4577,4.3282 -6.6247,4.3657 -10.73,2.408 -3.9369,-1.8774 -4.3619,-1.8455 -7.5974,0.56937 l -3.4272,2.558 -0.33331,32.71 c -0.29987,29.427 -0.12644,32.789 1.7281,33.501 1.1338,0.43507 3.1043,0.13975 4.3789,-0.65625 1.2746,-0.796 3.1559,-1.4473 4.1806,-1.4473 1.0247,0 2.7663,-1.3784 3.8702,-3.0632 1.708,-2.6068 1.7725,-3.712 0.43246,-7.4177 -1.2713,-3.5158 -1.267,-4.7251 0.0224,-6.2787 2.4184,-2.914 9.219,-3.7513 13.381,-1.6475 1.9741,0.99778 4.3327,1.5498 5.2412,1.2267 2.8842,-1.0257 7.7724,4.674 6.9203,8.0691 -0.53358,2.1259 0.0811,3.8876 2.1101,6.0473 l 2.863,3.0476 -3.9981,1.3938 c -2.272,0.79204 -4.8051,2.9542 -5.8672,5.0082 -2.3493,4.543 -6.0998,4.6986 -11.805,0.48947 -2.3296,-1.7188 -5.0296,-3.125 -5.9999,-3.125 -0.97032,0 -3.4354,1.4062 -5.4781,3.125 -2.0426,1.7188 -4.4736,3.125 -5.4022,3.125 -2.0906,0 -6.8698,5.9071 -6.8698,8.491 0,3.9732 6.8607,16.448 9.0625,16.479 1.2031,0.0166 2.1875,0.59279 2.1875,1.2803 0,0.6875 1.5469,1.2679 3.4375,1.2898 3.6173,0.0419 7.8125,2.5076 7.8125,4.5918 0,3.6273 -10.171,6.4217 -14.375,3.9493 -3.6667,-2.1566 -8.5354,-2.3469 -10.668,-0.41692 -1.6788,1.5193 -2.8471,1.7152 -4.6078,0.77292 -1.4535,-0.7779 -3.0526,-0.82349 -4.1665,-0.11875 -2.4347,1.5404 -4.6066,1.4708 -5.627,-0.18034 z" />
    <path
       style="fill:#93705a"
       inkscape:connector-curvature="0"
       id="path4220"
       d="m 145.37,248.81 c -1.2072,-0.67555 -3.4914,-1.0584 -5.0762,-0.85069 -1.5848,0.20768 -3.8571,-0.59816 -5.0497,-1.7907 -2.5694,-2.5694 -4.0052,-2.7315 -5.3651,-0.60581 -1.2911,2.0182 -10.375,2.0802 -10.375,0.0709 0,-2.1001 5.0361,-5.3834 8.2573,-5.3834 1.4856,0 3.0569,-0.98438 3.4918,-2.1875 1.1485,-3.1772 3.7731,-7.4365 6.3089,-10.239 1.8524,-2.0469 2.2064,-4.8042 2.1821,-16.995 -0.0337,-16.87 -1.4202,-21.628 -6.6058,-22.665 -1.9286,-0.38574 -4.4663,-1.7618 -5.6393,-3.0579 -2.7062,-2.9904 -8.0414,-3.0215 -11.889,-0.0692 -5.81,4.4577 -7.3782,4.3512 -12.212,-0.82977 -2.4854,-2.6639 -5.3627,-5.1295 -6.394,-5.479 -1.5423,-0.52275 -1.3837,-1.171 0.8934,-3.6531 1.8817,-2.0511 2.5322,-3.9208 2.031,-5.8376 -1.0131,-3.874 2.9043,-8.1145 6.6318,-7.179 1.5348,0.38521 3.1395,0.13582 3.566,-0.5542 0.42646,-0.69003 3.5349,-1.2546 6.9076,-1.2546 4.6834,0 6.4242,0.54544 7.3677,2.3085 0.82115,1.5343 0.80902,2.735 -0.0362,3.5802 -0.69942,0.69942 -1.095,3.7387 -0.879,6.754 0.34234,4.7796 0.79323,5.5337 3.5177,5.8832 1.7188,0.22052 3.7683,1.2306 4.5546,2.2447 0.95755,1.2349 2.5054,1.5737 4.6875,1.0261 3.1129,-0.78129 3.2579,-1.1979 3.2579,-9.3584 0,-4.6974 -0.5625,-8.8884 -1.25,-9.3133 -1.845,-1.1403 -1.5184,-8.2476 0.4837,-10.527 2.2407,-2.5505 1.1978,-9.6538 -1.5465,-10.533 -1.1342,-0.36353 -3.5782,-1.651 -5.4312,-2.861 -2.8955,-1.8908 -3.801,-1.9688 -6.4433,-0.55462 -3.5619,1.9062 -5.8128,0.96737 -5.8128,-2.4246 0,-3.2558 -4.9627,-7.6552 -7.6671,-6.7969 -1.4476,0.45946 -2.6888,-0.27349 -3.6925,-2.1805 -0.83151,-1.5799 -2.8344,-4.4625 -4.4509,-6.4057 -3.3669,-4.0475 -2.9652,-9.0842 0.95161,-11.932 3.0933,-2.2489 2.9828,-4.9598 -0.34669,-8.5039 -2.6237,-2.7928 -2.6368,-2.956 -0.43126,-5.3931 1.2509,-1.3822 2.903,-2.5131 3.6713,-2.5131 0.76835,0 2.4789,-2.0089 3.8012,-4.4643 1.9535,-3.6274 2.124,-4.913 0.90925,-6.858 -2.2399,-3.5867 -1.8455,-5.3877 1.9426,-8.8695 5.547,-5.0985 10.565,-6.5806 15.833,-4.676 5.5014,1.9893 10.816,0.44549 12.605,-3.6619 1.0514,-2.4134 1.8927,-2.7497 5.295,-2.1165 2.2247,0.41406 5.1389,0.16737 6.476,-0.54819 2.0117,-1.0766 3.2491,-0.52943 7.174,3.1722 3.7945,3.5787 5.4937,4.3631 8.4971,3.9222 2.7285,-0.40046 4.8713,0.34043 7.8435,2.7119 2.2492,1.7946 4.0894,3.7625 4.0894,4.3731 3e-5,0.61062 2.25,3.5512 5,6.5346 2.75,2.9834 5,5.9994 5,6.7023 0,0.70286 0.70312,1.2904 1.5625,1.3057 0.85937,0.01529 2.8719,1.0351 4.4722,2.2662 2.6081,2.0064 2.7053,2.4081 0.9375,3.8753 -1.4595,1.2112 -2.0017,4.1158 -2.0855,11.171 -0.1371,11.545 -4.2882,20.756 -10.842,24.057 -2.2085,1.1122 -4.8386,2.7053 -5.8448,3.5403 -1.4386,1.1939 -2.7925,1.1699 -6.3384,-0.1123 -6.4512,-2.3328 -10.902,0.28982 -12.032,7.0896 -1.0083,6.0696 -1.2674,54.875 -0.31665,59.648 0.77335,3.8819 3.3269,4.3801 10.029,1.9566 5.3489,-1.9342 7.7907,-7.2842 5.3801,-11.788 -3.4896,-6.5203 4.8254,-11.247 12.979,-7.3781 2.46,1.1673 4.9718,1.8139 5.5818,1.4369 2.4154,-1.4928 6.5166,3.0719 6.5166,7.2531 0,2.2831 0.84375,4.8513 1.875,5.7072 2.5949,2.1536 2.3494,5 -0.43126,5 -2.4998,0 -5.5692,2.988 -6.898,6.7149 -0.66946,1.8777 -1.621,2.1825 -4.8174,1.5433 -2.1907,-0.43813 -5.1714,-1.913 -6.6238,-3.2774 -3.3599,-3.1565 -8.8641,-3.2328 -10.516,-0.14588 -0.68728,1.2842 -2.8948,2.6639 -4.9056,3.0661 -2.3934,0.47868 -4.6005,2.2594 -6.3908,5.1561 l -2.7347,4.4249 3.3883,6.9254 c 3.6828,7.5273 3.1231,10.803 -0.90171,5.2779 -1.3763,-1.8894 -3.239,-3.4352 -4.1394,-3.4352 -2.6656,0 -3.0935,-3.1235 -1.3389,-9.7747 2.0771,-7.8739 2.7746,-8.9753 5.6844,-8.9753 1.2938,0 2.7001,-0.5625 3.125,-1.25 0.43164,-0.6984 -0.52869,-1.25 -2.1762,-1.25 -5.7303,0 -5.9488,-1.2028 -5.9488,-32.75 0,-27.452 -0.5764,-32.624 -3.1686,-28.429 -0.44891,0.72634 -0.7517,6.492 -0.67287,12.812 0.29336,23.525 -0.0644,31.436 -1.4858,32.86 -0.52375,0.52447 -0.60062,2.8281 -0.17081,5.1192 0.46595,2.4837 0.19059,4.8775 -0.68198,5.9289 -1.1199,1.3494 -1.1073,2.4467 0.0535,4.6738 3.0726,5.8954 3.6266,7.292 3.6266,9.1435 0,1.0406 -0.8491,1.892 -1.8869,1.892 -2.8372,0 -1.4048,8.4516 1.9644,11.59 2.7212,2.5352 2.7219,2.5482 0.22631,4.5385 -3.7351,2.9789 -3.9356,5.35 -0.70528,8.3437 3.7611,3.4856 3.6777,4.7431 -0.2492,3.7576 -1.7329,-0.43492 -4.138,-0.26235 -5.3448,0.3835 -1.3847,0.74105 -3.0038,0.72113 -4.389,-0.054 z m -7.75,-62.31 c 0.4249,-0.6875 -0.1376,-1.25 -1.25,-1.25 -1.1124,0 -1.6749,0.5625 -1.25,1.25 0.4249,0.6875 0.9874,1.25 1.25,1.25 0.2626,0 0.8251,-0.5625 1.25,-1.25 z m 31.161,61.106 c -0.37,-0.61 -2.67,-1.11 -5.11,-1.11 -3.7362,0 -4.292,-0.34466 -3.5273,-2.1875 0.49919,-1.2031 0.93437,-2.8906 0.96707,-3.75 0.0832,-2.188 1.3129,-1.9678 6.6731,1.1948 3.2622,1.9248 4.8249,2.3022 5.1756,1.25 0.27634,-0.82899 2.2119,-1.5072 4.3013,-1.5072 3.1285,0 3.5406,0.31122 2.3351,1.7637 -2.0603,2.4825 0.65782,3.955 3.2882,1.7814 1.8131,-1.4983 1.8561,-1.4051 0.41719,0.90598 -1.2486,2.0056 -2.9575,2.5965 -7.7162,2.6683 -3.3618,0.0507 -6.4199,-0.4054 -6.7957,-1.0136 z m 0.72,-8.61 c 0,-0.6875 0.5625,-1.25 1.25,-1.25 0.6875,0 1.25,0.5625 1.25,1.25 0,0.6875 -0.5625,1.25 -1.25,1.25 -0.6875,0 -1.25,-0.5625 -1.25,-1.25 z" />
    <path
       style="fill:#646454"
       inkscape:connector-curvature="0"
       id="path4218"
       d="m 144.11,247.61 c -1.2449,-0.72413 -3.0265,-1.0238 -3.9591,-0.66591 -0.93259,0.35786 -2.0058,-0.15757 -2.3848,-1.1454 -0.78206,-2.038 -7.7078,-2.4633 -8.8927,-0.54607 -0.4249,0.6875 -2.755,1.25 -5.1779,1.25 -5.9225,0 -4.9482,-2.6243 1.7782,-4.7899 3.0257,-0.97415 5.487,-2.6597 5.9322,-4.0625 0.41853,-1.3187 1.2856,-2.3976 1.9267,-2.3976 0.64118,0 1.1658,-0.76161 1.1658,-1.6925 0,-0.93085 1.4062,-3.2098 3.125,-5.0644 2.9572,-3.1908 3.125,-4.1449 3.125,-17.765 0,-7.916 -0.58229,-15.481 -1.294,-16.811 -0.89739,-1.6768 -0.88598,-3.1802 0.0372,-4.9052 1.1245,-2.1012 1.7087,-2.2516 3.763,-0.96869 2.0293,1.2673 2.7157,1.1304 4.147,-0.82701 1.1885,-1.6254 1.9891,-1.9026 2.607,-0.90264 1.16,1.87 -0.46,12.68 -1.9,12.68 -1.6708,0 -1.3358,4.0464 0.84078,10.155 1.7749,4.9814 1.7649,6.5002 -0.11242,17.015 -1.7498,9.8006 -1.8093,12.114 -0.39372,15.312 0.91716,2.072 2.4815,3.7673 3.4763,3.7673 1.2979,0 1.1235,0.51834 -0.61764,1.8352 -2.8858,2.1827 -4.1742,2.2763 -7.1898,0.52214 z m 26.01,0.14 c -0.4249,-0.6875 0.34775,-1.25 1.717,-1.25 1.3917,0 2.8394,-1.1024 3.283,-2.5 0.43641,-1.375 1.3004,-2.5 1.92,-2.5 1.5814,0 -0.12025,4.067 -2.4675,5.8978 -2.4113,1.8806 -3.4568,1.9633 -4.4525,0.35225 z m 8.125,0 c 0,-0.6875 0.5625,-1.25 1.25,-1.25 0.6875,0 1.25,0.5625 1.25,1.25 0,0.6875 -0.5625,1.25 -1.25,1.25 -0.6875,0 -1.25,-0.5625 -1.25,-1.25 z m -15.63,-2.5088 c -0.94909,-1.5357 2.491,-3.0339 4.341,-1.8906 0.73163,0.45218 1.0066,1.3458 0.61108,1.9858 -0.95405,1.5437 -3.9751,1.4856 -4.9521,-0.0952 z m -2.3008,-17.277 c -2.429,-2.684 -2.4636,-3.1169 -0.74418,-9.3086 0.72084,-2.5957 1.8442,-4.3897 2.4964,-3.9866 0.74081,0.45785 0.71545,1.6117 -0.0676,3.0748 -1.8564,3.4687 -1.524,7.6355 0.81536,10.22 1.1378,1.2573 1.5062,2.2859 0.81874,2.2859 -0.6875,0 -2.1809,-1.0287 -3.3187,-2.2859 z m 29.81,-16.1 c -1.375,-0.33264 -3.625,-1.5663 -5,-2.7414 -1.375,-1.1752 -4.102,-2.8196 -6.0601,-3.6543 -2.7267,-1.1624 -3.3294,-2.0229 -2.5746,-3.676 0.97785,-2.1417 1.0876,-6.8482 0.2964,-12.708 -0.33889,-2.5098 0.39474,-3.3605 4.146,-4.8077 4.0383,-1.558 5.064,-1.5181 8.9997,0.34946 2.4431,1.1593 4.941,1.7994 5.5511,1.4224 2.4154,-1.4928 6.5166,3.0719 6.5166,7.2531 0,2.2831 0.84375,4.8513 1.875,5.7072 2.69,2.2325 2.3247,3.6409 -1.3016,5.0196 -1.7472,0.66427 -4.1378,2.8968 -5.3125,4.9612 -2.1554,3.7877 -2.6076,3.9698 -7.1358,2.8744 z m -20.62,-1.65 c 0,-0.66592 0.84375,-1.2108 1.875,-1.2108 1.03125,0 1.875,0.22108 1.875,0.49126 0,0.2702 -0.84375,0.81504 -1.875,1.2108 -1.0312,0.39572 -1.875,0.17465 -1.875,-0.49127 z m -9.54,-17.46 c 0,-7.2188 0.2066,-10.172 0.4591,-6.5625 0.2525,3.6094 0.2525,9.5156 0,13.125 -0.2525,3.6094 -0.4591,0.65625 -0.4591,-6.5625 z m -56.676,-8.8919 c -2.14,-2.67 -4.715,-4.86 -5.714,-4.86 -2.5438,0 -2.2607,-1.7102 0.73126,-4.4178 1.8245,-1.6512 2.3431,-3.2352 1.8276,-5.5822 -0.90144,-4.1042 2.9626,-8.1167 6.6802,-6.9368 1.3664,0.43369 2.8462,0.20314 3.2884,-0.51232 0.44219,-0.71548 3.5635,-1.3008 6.9362,-1.3008 4.6834,0 6.4242,0.54544 7.3677,2.3085 0.67952,1.2697 0.77123,2.8166 0.20381,3.4375 -1.6772,1.8354 -2.7369,11.523 -1.354,12.377 2.2563,1.3945 1.3208,2.8584 -2.7286,4.27 -2.1897,0.76335 -4.8616,2.1453 -5.9375,3.071 -4.3034,3.7027 -7.2117,3.2248 -11.295,-1.8562 z m 26.22,1.39 c 0,-0.6875 0.5625,-1.25 1.25,-1.25 0.6875,0 1.25,0.5625 1.25,1.25 0,0.6875 -0.5625,1.25 -1.25,1.25 -0.6875,0 -1.25,-0.5625 -1.25,-1.25 z m 9.358,-1.2775 c -0.4896,-0.79219 -0.26419,-2.0663 0.50091,-2.8314 2.035,-2.035 1.722,-13.726 -0.44417,-16.59 -2.442,-3.2286 -2.4671,-10.418 -0.0397,-11.349 1.9413,-0.74493 2.5309,-6.3117 0.91836,-8.6702 -0.5051,-0.73878 -3.3012,-2.6661 -6.2136,-4.283 -4.6231,-2.5666 -5.6789,-2.7344 -8.3183,-1.3218 -3.5315,1.89 -5.7615,0.92209 -5.7615,-2.5007 0,-3.5191 -4.6248,-7.7138 -7.499,-6.8016 -1.7529,0.55633 -2.8554,-0.18403 -4.2286,-2.8396 -1.0217,-1.9757 -2.7384,-4.3232 -3.815,-5.2167 -2.96,-2.45 -2.6,-10.88 0.54,-12.56 3.2401,-1.734 3.1736,-4.7468 -0.18347,-8.3203 -2.1872,-2.3281 -2.3975,-3.201 -1.1371,-4.7197 0.8505,-1.0248 2.4909,-2.163 3.6453,-2.5294 1.1544,-0.3664 3.1826,-2.6784 4.507,-5.1377 1.9569,-3.6337 2.128,-4.92 0.91314,-6.8653 -2.238,-3.5837 -1.8467,-5.3812 1.9426,-8.9225 4.6648,-4.3596 12.291,-7.027 14.312,-5.006 3.3319,3.3319 14.751,0.3169 14.751,-3.8947 0,-0.99499 2.5642,-1.5386 7.5791,-1.6067 6.7332,-0.09148 8.0181,0.30704 11.512,3.5707 3.1878,2.9779 4.7043,3.5484 8.0068,3.0125 3.81,-0.61828 4.6438,-0.01564 12.863,9.2967 4.834,5.4768 8.7891,10.364 8.7891,10.86 0,0.49613 1.6875,1.649 3.75,2.562 3.729,1.6506 4.8874,4.3499 2.5,5.8254 -0.6875,0.4249 -1.25,4.93 -1.25,10.011 0,7.8152 -0.55509,10.26 -3.6021,15.864 -2.1768,4.0036 -5.1385,7.4249 -7.4851,8.6469 -2.1357,1.1122 -4.7502,2.7417 -5.81,3.6213 -1.49,1.2366 -2.6404,1.2741 -5.0737,0.16541 -4.5356,-2.0665 -7.2512,-1.7805 -10.986,1.157 -2.9733,2.3388 -3.3107,3.4631 -3.4696,11.562 -0.17309,8.8236 -0.18903,8.8646 -0.96496,2.486 -0.43394,-3.5672 -1.1754,-6.8722 -1.6476,-7.3445 -0.47226,-0.47227 -2.4074,0.98196 -4.3004,3.2316 -2.4457,2.9065 -3.344,5.2247 -3.104,8.0102 0.18575,2.156 -0.25049,5.4671 -0.96941,7.358 -0.95727,2.5178 -0.89615,4.0961 0.22832,5.8967 1.2155,1.9463 1.2123,2.9761 -0.0152,4.9417 -0.85287,1.3657 -1.5507,3.6333 -1.5507,5.0392 0,1.4059 -0.98438,2.9053 -2.1875,3.332 -1.2031,0.42668 -3.116,1.5707 -4.2509,2.5422 -1.5103,1.2929 -2.302,1.3803 -2.9536,0.32609 z m 21,-16.848 c 0.01,-3.4375 0.25215,-4.6954 0.53946,-2.7953 0.28733,1.9001 0.27964,4.7126 -0.017,6.25 -0.29669,1.5374 -0.53177,-0.0172 -0.5224,-3.4547 z" />
    <path
       style="fill:#1e9a4a"
       inkscape:connector-curvature="0"
       id="path4216"
       d="m 183.41,205.72 c -4.1952,-3.7661 -4.925,-5.1032 -4.3512,-7.9723 0.37919,-1.896 0.0155,-4.7066 -0.80828,-6.2458 -1.2122,-2.2649 -1.1442,-3.1521 0.35642,-4.6527 2.0782,-2.0782 10.138,-2.4988 12.486,-0.65153 0.84079,0.66145 3.0756,1.5722 4.9662,2.0238 2.7208,0.64996 3.4375,1.5401 3.4375,4.2692 0,1.8964 0.78727,4.572 1.7495,5.9458 1.5828,2.2598 1.343,2.9413 -2.5168,7.1531 -5.4339,5.9294 -8.8276,5.9582 -15.32,0.1303 z m -77.66,-20.46 c 0,-0.68219 -1.6892,-2.7454 -3.7537,-4.5849 -3.4768,-3.0978 -3.6064,-3.5074 -1.7572,-5.5507 1.383,-1.5282 1.7448,-3.3521 1.1774,-5.9352 -0.90375,-4.1148 1.6074,-6.5908 5.62,-5.5414 1.1998,0.31375 2.5593,-0.041 3.0212,-0.78845 1.0453,-1.6914 11.52,-1.8038 12.551,-0.13474 0.41612,0.6733 0.10317,2.4451 -0.69546,3.9373 -0.79862,1.4922 -1.4606,5.3007 -1.4712,8.4633 -0.0172,5.1643 -0.45703,6.0367 -4.3174,8.5627 -4.4066,2.8833 -10.375,3.7877 -10.375,1.5721 z m 36.349,-10.739 c 0.06,-1.4562 0.35618,-1.7524 0.75521,-0.75521 0.36109,0.90233 0.31668,1.9805 -0.0987,2.3958 -0.41536,0.41537 -0.7108,-0.32292 -0.65652,-1.6406 z m -0.54431,-28.979 c -1.0438,-4.7559 -11.843,-10.109 -16.299,-8.0793 -3.3526,1.5275 -4.5059,0.93101 -4.5059,-2.3306 0,-2.546 -5.638,-7.3824 -8.6061,-7.3824 -1.1104,-2e-5 -3.5658,-1.9387 -5.4564,-4.3082 -4.2803,-5.3644 -4.7773,-12.55 -0.9375,-13.554 2.9539,-0.77247 3.2534,-4.9914 0.68395,-9.6341 -1.86,-3.344 -0.65,-6.25 2.59,-6.25 0.94706,0 1.7219,-0.77488 1.7219,-1.7219 0,-0.94707 0.84375,-2.4222 1.875,-3.2781 2.2456,-1.8637 2.4166,-5.4167 0.41498,-8.6218 -1.183,-1.8944 -0.98765,-2.9863 1.03,-5.756 3.0012,-4.12 11.112,-7.2643 14.316,-5.5497 1.2101,0.64763 3.6973,1.1775 5.527,1.1775 3.7437,0 10.587,-3.6075 10.589,-5.582 6.9e-4,-0.72573 3.0169,-1.322 6.875,-1.3591 3.7806,-0.03637 6.8738,0.39378 6.8738,0.95587 0,1.8954 8.0948,5.9758 11.875,5.9859 2.9543,0.0079 5.0762,1.4758 10,6.9184 3.4375,3.7997 8.4361,9.1729 11.108,11.94 l 4.858,5.032 -0.24793,11.279 c -0.19069,8.6756 -0.83524,12.338 -2.7924,15.867 -2.9979,5.4053 -7.2263,10.213 -8.9826,10.213 -0.6854,0 -2.3063,0.95941 -3.602,2.132 -1.9233,1.7405 -2.799,1.8553 -4.769,0.625 -3.2493,-2.0292 -8.7803,-1.8372 -11.748,0.40774 -1.3345,1.0094 -3.6349,1.8352 -5.1118,1.8352 -1.6474,0 -3.2327,1.2012 -4.1012,3.1073 -1.2388,2.7188 -1.824,2.9521 -4.6805,1.8661 -4.0522,-1.5406 -5.555,-0.68803 -5.555,3.1516 0,4.296 -2.063,4.9384 -2.9456,0.91721 z" />
    <path
       style="fill:#17883b"
       inkscape:connector-curvature="0"
       id="path4214"
       d="m 183.41,205.72 c -4.1952,-3.7661 -4.925,-5.1032 -4.3512,-7.9723 0.37919,-1.896 0.0155,-4.7066 -0.80828,-6.2458 -1.2122,-2.2649 -1.1442,-3.1521 0.35642,-4.6527 2.0782,-2.0782 10.138,-2.4988 12.486,-0.65153 0.84079,0.66145 3.0756,1.5722 4.9662,2.0238 5.8863,1.4062 4.1066,3.7051 -2.1993,2.8408 -6.5343,-0.89563 -11.214,1.7612 -9.3483,5.3072 0.57892,1.1003 1.3573,2.985 1.7296,4.1881 0.76288,2.4649 3.9898,2.7969 8.9299,0.91871 2.7232,-1.0354 3.1973,-1.8262 2.5768,-4.2984 -1.1581,-4.6142 0.87359,-4.6606 3.0748,-0.0701 1.9191,4.0021 1.883,4.1429 -2.2043,8.603 -5.3167,5.8015 -8.7541,5.8036 -15.209,0.009 z m -77.66,-20.46 c 0,-0.68219 -1.6892,-2.7454 -3.7537,-4.5849 -3.4768,-3.0978 -3.6064,-3.5074 -1.7572,-5.5507 1.383,-1.5282 1.7448,-3.3521 1.1774,-5.9352 -0.90375,-4.1148 1.6074,-6.5908 5.62,-5.5414 1.1998,0.31375 2.5593,-0.041 3.0212,-0.78845 1.0453,-1.6914 11.52,-1.8038 12.551,-0.13474 0.41612,0.6733 0.10317,2.4451 -0.69546,3.9373 -0.79862,1.4922 -1.4606,5.3007 -1.4712,8.4633 -0.0172,5.1643 -0.45703,6.0367 -4.3174,8.5627 -4.4066,2.8833 -10.375,3.7877 -10.375,1.5721 z m 10.096,-7.4135 c 4.4582,-4.4582 4.6087,-6.9129 0.58537,-9.5491 -2.915,-1.91 -3.2901,-1.8415 -7.5,1.3696 -5.1704,3.9437 -5.3801,5.0375 -1.7136,8.9403 3.4867,3.7114 4.2208,3.6467 8.6283,-0.76079 z m 26.253,-3.3253 c 0.06,-1.4562 0.35618,-1.7524 0.75521,-0.75522 0.36109,0.90234 0.31668,1.9805 -0.0987,2.3958 -0.41536,0.41536 -0.7108,-0.32292 -0.65652,-1.6406 z m -0.54431,-28.979 c -1.0438,-4.7559 -11.843,-10.109 -16.299,-8.0793 -3.3526,1.5275 -4.5059,0.93101 -4.5059,-2.3306 0,-2.546 -5.638,-7.3824 -8.6061,-7.3824 -1.1104,-2e-5 -3.5658,-1.9387 -5.4564,-4.3082 -4.2803,-5.3644 -4.7773,-12.55 -0.9375,-13.554 2.9539,-0.77247 3.2534,-4.9914 0.68395,-9.6341 -1.86,-3.344 -0.65,-6.25 2.59,-6.25 0.94706,0 1.7219,-0.77488 1.7219,-1.7219 0,-0.94707 0.84375,-2.4222 1.875,-3.2781 2.2456,-1.8637 2.4166,-5.4167 0.41498,-8.6218 -1.183,-1.8944 -0.98765,-2.9863 1.03,-5.756 3.0012,-4.12 11.112,-7.2643 14.316,-5.5497 1.2101,0.64763 3.6973,1.1775 5.527,1.1775 3.7437,0 10.587,-3.6075 10.589,-5.582 6.9e-4,-0.72573 3.0169,-1.322 6.875,-1.3591 3.7806,-0.03637 6.8738,0.39378 6.8738,0.95587 0,1.8809 8.0816,5.9758 11.803,5.9806 2.8704,0.0036 5.1377,1.5828 10.326,7.1922 3.6566,3.9531 7.4859,8.0784 8.5096,9.1674 2.39,2.544 2.38,4.895 -0.01,4.895 -1.04,0 -1.88,-0.562 -1.88,-1.25 0,-0.688 -1.12,-1.25 -2.5,-1.25 -1.375,0 -2.5,-0.52232 -2.5,-1.1607 0,-0.63839 -0.80799,-1.9687 -1.7955,-2.9562 -0.98754,-0.98754 -2.288,-3.6996 -2.89,-6.0268 -0.93727,-3.6235 -1.6659,-4.2605 -5.0731,-4.4348 -4.9762,-0.25453 -5.9013,1.0938 -2.7236,3.9696 2.3211,2.1006 2.337,2.3178 0.28302,3.8773 -2.9305,2.225 -4.7202,2.1692 -2.8463,-0.08869 1.6391,-1.975 0.61232,-4.9276 -1.3021,-3.7445 -0.64614,0.39934 -2.3336,0.35829 -3.7499,-0.09122 -2.3944,-0.75996 -2.4241,-0.92771 -0.42285,-2.3911 1.1837,-0.86556 1.767,-2.197 1.2962,-2.9588 -1.118,-1.8089 -4.5259,-0.48024 -4.5259,1.7645 0,0.9577 -1.112,1.7413 -2.4712,1.7413 -1.3592,0 -3.3926,1.4062 -4.5188,3.125 -1.1262,1.7188 -3.0477,3.125 -4.2701,3.125 -1.2224,0 -2.5463,0.84375 -2.942,1.875 -0.39573,1.0312 -1.553,1.875 -2.5716,1.875 -1.0187,0 -2.4047,0.98438 -3.0802,2.1875 -1.1696,2.0833 -1.2682,2.0833 -2.0708,0 -1.594,-4.1374 -2.7357,-2.1665 -4.276,7.3819 -1.3871,8.5987 -1.3341,9.6867 0.5228,10.726 1.1366,0.63606 2.5925,2.54 3.2354,4.2309 1.0052,2.644 1.5318,2.8802 3.7614,1.6869 2.0183,-1.0802 2.2775,-1.767 1.1704,-3.101 -0.78216,-0.94244 -2.1508,-1.4339 -3.0414,-1.0921 -0.89063,0.34177 -1.9749,-0.39479 -2.4094,-1.6368 -0.43454,-1.242 -1.1178,-2.9613 -1.5184,-3.8207 -0.4006,-0.85937 -0.11899,-1.5625 0.6258,-1.5625 0.74479,0 1.3542,0.79906 1.3542,1.7757 0,0.97662 1.7361,2.157 3.8579,2.623 2.7394,0.60168 4.2193,1.8841 5.1045,4.4232 1.8903,5.4226 5.2517,5.7606 11.114,1.1176 2.7714,-2.195 5.1536,-3.7824 5.2938,-3.5277 0.14017,0.25475 0.93151,1.6788 1.7585,3.1645 1.2239,2.1988 1.1658,2.831 -0.3125,3.3983 -2.3356,0.89626 -2.372,4.5254 -0.0453,4.5254 0.97395,0 2.0286,0.70313 2.3438,1.5625 0.45395,1.2381 0.92762,1.2272 2.2812,-0.052 1.409,-1.3317 1.4189,-1.7934 0.0564,-2.6355 -1.2439,-0.76876 -0.77813,-1.6635 1.8854,-3.6222 3.1973,-2.3512 3.3773,-2.863 1.8722,-5.3244 -0.99455,-1.6265 -1.2092,-3.1791 -0.53296,-3.8553 1.5314,-1.5314 5.8609,3.3906 5.9097,6.7186 0.0211,1.4377 0.81585,2.8756 1.7661,3.1954 1.2986,0.43699 1.5852,-0.38954 1.154,-3.3279 -0.46052,-3.1379 -0.13182,-3.9092 1.6658,-3.9092 2.5333,0 5.4841,-4.4466 3.6876,-5.5569 -0.63064,-0.38976 -1.3685,-0.0431 -1.6396,0.77046 -0.27643,0.8293 -1.1742,1.0581 -2.0435,0.52085 -2.027,-1.2527 3.9663,-6.9844 7.3032,-6.9844 1.2932,0 2.7084,-1.125 3.1448,-2.5 0.8805,-2.7742 2.5192,-3.2415 3.8449,-1.0965 0.47709,0.77195 0.75669,6.4419 0.62134,12.6 -0.1889,8.594 -0.83749,12.263 -2.7906,15.784 -2.9979,5.4053 -7.2263,10.213 -8.9826,10.213 -0.6854,0 -2.3063,0.95941 -3.602,2.132 -1.9233,1.7405 -2.799,1.8553 -4.769,0.625 -3.2493,-2.0292 -8.7803,-1.8372 -11.748,0.40774 -1.3345,1.0094 -3.6349,1.8352 -5.1118,1.8352 -1.6474,0 -3.2327,1.2012 -4.1012,3.1073 -1.2388,2.7188 -1.824,2.9521 -4.6805,1.8661 -4.0522,-1.5406 -5.555,-0.68803 -5.555,3.1516 0,4.296 -2.063,4.9384 -2.9456,0.91721 z m 37.72,-18.828 c 0.25,-1.76 -0.27,-2.71 -1.49,-2.71 -2.4308,0 -3.709,2.0939 -2.7708,4.5388 1.0179,2.6526 3.7745,1.472 4.2596,-1.8242 z m -25.162,0.34642 c 0.26592,-0.81211 -1.2451,-1.1184 -3.9561,-0.80191 -2.4125,0.28164 -4.0564,1.0458 -3.6533,1.6981 0.94936,1.5361 7.0482,0.81779 7.6094,-0.89621 z m 11.638,0.79122 c 0,-2.5406 -1.614,-5.1022 -3.2148,-5.1022 -0.9335,0 -2.2994,-1.125 -3.0352,-2.5 -1.2394,-2.3159 -5,-3.5651 -5,-1.6609 0,1.5314 4.1115,5.4109 5.7345,5.4109 0.87836,0 1.9541,1.125 2.3905,2.5 0.79456,2.5035 3.125,3.5119 3.125,1.3522 z m -16.824,-8.9354 c 1.1504,-1.8614 -0.18341,-2.8735 -2.5767,-1.9551 -1.1045,0.42383 -1.658,1.3371 -1.2301,2.0294 1.0132,1.6394 2.7689,1.6051 3.8069,-0.0743 z m -8.19,-1.16 c 0,-0.6875 -0.5625,-1.25 -1.25,-1.25 -0.6875,0 -1.25,0.5625 -1.25,1.25 0,0.6875 0.5625,1.25 1.25,1.25 0.6875,0 1.25,-0.5625 1.25,-1.25 z m -7.5,-3.6762 c 0,-0.64692 -0.5625,-1.5239 -1.25,-1.9488 -0.6875,-0.4249 -1.25,0.10441 -1.25,1.1762 0,1.07179 0.5625,1.9488 1.25,1.9488 0.6875,0 1.25,-0.5293 1.25,-1.1762 z m -5.63,-6.32 c 0.4249,-0.6875 -0.1376,-1.25 -1.25,-1.25 -1.1124,0 -1.6749,0.5625 -1.25,1.25 0.4249,0.6875 0.9874,1.25 1.25,1.25 0.2626,0 0.8251,-0.5625 1.25,-1.25 z m 1.875,-10 c 0,-0.6875 -0.84375,-1.25 -1.875,-1.25 -1.03125,0 -1.875,0.5625 -1.875,1.25 0,0.6875 0.84375,1.25 1.875,1.25 1.03125,0 1.875,-0.5625 1.875,-1.25 z m -0.23958,-8.8438 c -0.24636,-0.73906 -0.9823,-1.3438 -1.6354,-1.3438 -0.65312,0 -1.3891,0.60469 -1.6354,1.3438 -0.24635,0.73906 0.48959,1.3438 1.6354,1.3438 1.14581,0 1.8818,-0.60469 1.6354,-1.3438 z m 5.4985,-10.147 c -2.0498,-2.0498 -4.6409,0.54126 -3.504,3.504 0.78186,2.0375 0.97424,2.0436 2.9249,0.09295 1.6309,-1.6309 1.7576,-2.4184 0.57907,-3.5969 z m 7.24,0.241 c 0,-1.375 -0.5625,-2.5 -1.25,-2.5 -0.6875,0 -1.25,1.125 -1.25,2.5 0,1.375 0.5625,2.5 1.25,2.5 0.6875,0 1.25,-1.125 1.25,-2.5 z m 10.942,-3.0273 c 2.7375,-0.86885 3.9499,-3.2227 1.6599,-3.2227 -0.63128,0 -2.0375,-0.34143 -3.125,-0.75874 -1.3968,-0.53601 -1.9772,-0.02486 -1.9772,1.7413 0,1.375 -0.8794,2.8375 -1.9542,3.2499 -1.0906,0.4185 -1.5587,1.3899 -1.0592,2.1981 0.64471,1.0432 1.28,0.92171 2.2715,-0.43428 0.75707,-1.0354 2.64,-2.2835 4.1842,-2.7736 z m 22.399,14.077 c -2.24,-2.449 -2.08,-6.05 0.28,-6.05 0.97444,0 5.1308,6.7375 5.1308,8.317 0,1.3197 -3.4452,-0.12472 -5.4092,-2.2679 z" />
    <path
       style="fill:#196430"
       inkscape:connector-curvature="0"
       id="path4212"
       d="m 183.41,205.72 c -4.1952,-3.7661 -4.925,-5.1032 -4.3512,-7.9723 0.37919,-1.896 0.0155,-4.7066 -0.80828,-6.2458 -1.2069,-2.2551 -1.1468,-3.1495 0.30963,-4.6059 2.1571,-2.1571 8.6676,-2.5424 12.536,-0.74206 1.5264,0.7103 4.1815,1.9144 5.9002,2.6758 2.5845,1.1449 1.9323,1.2603 -3.7713,0.66718 -5.8846,-0.61197 -7.2324,-0.34589 -9.1868,1.8137 -2.2021,2.4333 -2.2051,2.7243 -0.0786,7.544 1.4214,3.2216 3.5148,5.5528 5.858,6.5234 3.3643,1.3935 3.876,1.2293 6.6176,-2.1239 1.6342,-1.9988 2.9916,-4.4448 3.0163,-5.4356 0.0324,-1.2992 0.53506,-1.1312 1.8029,0.60267 1.5776,2.1574 1.3531,2.8764 -2.1875,7.0081 -5.2427,6.1179 -9.0865,6.1892 -15.657,0.29056 z m -77.66,-20.46 c 0,-0.68219 -1.6892,-2.7454 -3.7537,-4.5849 -3.4768,-3.0978 -3.6064,-3.5074 -1.7572,-5.5507 1.383,-1.5282 1.7448,-3.3521 1.1774,-5.9352 -0.90375,-4.1148 1.6074,-6.5908 5.62,-5.5414 1.1998,0.31375 2.5593,-0.041 3.0212,-0.78845 1.0926,-1.7678 11.542,-1.7678 12.635,1e-5 0.46192,0.74741 0.21387,1.9849 -0.55123,2.75 -0.76509,0.7651 -1.4563,3.1067 -1.5361,5.2036 -0.0941,2.4747 -0.33605,2.9352 -0.68944,1.3125 -1.2965,-5.9536 -3.2056,-8.0968 -6.5505,-7.3538 -3.7249,0.82746 -10.115,7.1009 -10.115,9.9303 0,2.4303 5.5544,8.0485 7.9571,8.0485 1.0014,0 3.2144,-1.6563 4.9178,-3.6807 3.134,-3.7246 4.6687,-3.7828 4.5722,-0.17347 -0.1101,4.1189 -14.947,10.436 -14.947,6.3638 z m 36.349,-10.739 c 0.06,-1.4562 0.35618,-1.7524 0.75521,-0.75521 0.36109,0.90233 0.31668,1.9805 -0.0987,2.3958 -0.41536,0.41537 -0.7108,-0.32292 -0.65652,-1.6406 z m -0.54431,-28.979 c -1.0438,-4.7559 -11.843,-10.109 -16.299,-8.0793 -3.3526,1.5275 -4.5059,0.93101 -4.5059,-2.3306 0,-2.546 -5.638,-7.3824 -8.6061,-7.3824 -1.1104,-2e-5 -3.5658,-1.9387 -5.4564,-4.3082 -4.2803,-5.3644 -4.7773,-12.55 -0.9375,-13.554 2.9539,-0.77247 3.2534,-4.9914 0.68395,-9.6341 -1.86,-3.344 -0.65,-6.25 2.59,-6.25 0.94706,0 1.7219,-0.77488 1.7219,-1.7219 0,-0.94707 0.84375,-2.4222 1.875,-3.2781 2.2456,-1.8637 2.4166,-5.4167 0.41498,-8.6218 -1.183,-1.8944 -0.98765,-2.9863 1.03,-5.756 3.0012,-4.12 11.112,-7.2643 14.316,-5.5497 1.2101,0.64763 3.6973,1.1775 5.527,1.1775 3.7437,0 10.587,-3.6075 10.589,-5.582 0.002,-1.9153 13.533,-1.7821 14.271,0.14047 0.3585,0.93426 -0.0906,1.2991 -1.1152,0.90594 -0.9435,-0.36206 -2.3012,0.43614 -3.0171,1.7738 -0.92922,1.7363 -2.2039,2.2596 -4.4553,1.8292 -2.1456,-0.41016 -3.4003,0.0398 -3.9252,1.4077 -0.42434,1.1058 -1.2153,1.7363 -1.7578,1.401 -0.54242,-0.33524 -2.9041,0.19181 -5.2481,1.1712 -2.6362,1.1015 -6.263,1.5123 -9.5078,1.0771 -4.65,-0.623 -5.25,-0.417 -5.25,1.793 0,1.3728 -1.1478,3.9553 -2.5508,5.7388 l -2.5508,3.2428 2.5508,2.5508 c 1.4029,1.4029 2.5508,3.0742 2.5508,3.7138 0,0.63968 1.2656,1.4068 2.8125,1.7048 2.4114,0.46446 2.3223,0.56599 -0.625,0.71194 -4.1165,0.20385 -4.5465,2.9952 -0.9375,6.0853 3.1369,2.6859 3.1827,4.085 0.13374,4.085 -1.3014,0 -2.7174,0.91505 -3.1466,2.0334 -0.91446,2.383 1.2799,5.4666 3.8902,5.4666 1.3733,0 1.6187,0.92231 0.99762,3.75 -0.54153,2.4656 -0.33262,3.75 0.60991,3.75 0.84373,0 1.1208,0.98534 0.67348,2.3948 -1.0384,3.2718 1.5079,4.5446 4.2063,2.1026 2.5218,-2.2822 4.6406,-2.5592 5.757,-0.75277 0.42309,0.68458 -0.70831,1.9179 -2.5142,2.7407 l -3.2835,1.4961 2.9005,2.2315 c 3.1151,2.3966 6.0255,2.9716 6.0255,1.1906 0,-0.60305 2.5267,-0.81166 5.6149,-0.46358 3.5816,0.4037 6.3122,0.0542 7.5405,-0.96524 1.5657,-1.2994 2.8763,-1.2844 7.0124,0.0807 4.553,1.5026 5.2111,1.4566 6.2716,-0.4383 1.4662,-2.62 4.8106,-2.7883 4.8106,-0.24209 0,6.8953 16.363,-5.9511 17.912,-14.062 0.65941,-3.453 0.41226,-4.0625 -1.6473,-4.0625 -2.0531,0 -2.406,-0.85386 -2.3109,-5.5909 0.0865,-4.3075 0.64988,-5.7615 2.4544,-6.3342 1.2882,-0.40885 2.4125,-1.268 2.4984,-1.9091 0.0859,-0.64117 0.29687,-1.7283 0.46875,-2.4158 0.17187,-0.6875 0.38281,-1.6438 0.46875,-2.125 0.0859,-0.48125 0.79692,-0.23433 1.58,0.54872 0.8976,0.8976 1.3309,5.6461 1.1726,12.85 -0.19388,8.8204 -0.83141,12.472 -2.7956,16.014 -2.9979,5.4053 -7.2263,10.213 -8.9826,10.213 -0.6854,0 -2.3063,0.95941 -3.602,2.132 -1.9233,1.7405 -2.799,1.8553 -4.769,0.625 -3.2493,-2.0292 -8.7803,-1.8372 -11.748,0.40774 -1.3345,1.0094 -3.6349,1.8352 -5.1118,1.8352 -1.6474,0 -3.2327,1.2012 -4.1012,3.1073 -1.2388,2.7188 -1.824,2.9521 -4.6805,1.8661 -4.0522,-1.5406 -5.555,-0.68803 -5.555,3.1516 0,4.296 -2.063,4.9384 -2.9456,0.91721 z m -18.983,-32.879 c -0.92824,-1.5019 -4.3216,-1.5159 -4.3216,-0.0178 0,1.3546 2.7129,2.5003 4.0829,1.7241 0.52684,-0.29848 0.63427,-1.0663 0.23873,-1.7063 z m -3.306,-8.5855 c 0.3125,-0.9375 -0.15625,-1.4062 -1.0938,-1.0938 -0.90235,0.30078 -1.8867,1.2852 -2.1875,2.1875 -0.3125,0.9375 0.15625,1.4062 1.0938,1.0938 0.90234,-0.30079 1.8867,-1.2852 2.1875,-2.1875 z m 1.3632,-8.0572 c 1.1111,-1.3388 0.97908,-1.904 -0.58475,-2.5041 -2.5016,-0.95994 -4.2941,0.05523 -4.2941,2.4318 0,2.2914 3.0002,2.3358 4.8788,0.07221 z m 0.12,-17.013 c 0,-0.6875 -0.5625,-1.25 -1.25,-1.25 -0.6875,0 -1.25,0.5625 -1.25,1.25 0,0.6875 0.5625,1.25 1.25,1.25 0.6875,0 1.25,-0.5625 1.25,-1.25 z m 58.125,40 c -0.4249,-0.6875 0.16825,-1.25 1.3181,-1.25 1.616,0 1.9646,-0.85893 1.5353,-3.7836 -0.58664,-3.9971 1.0215,-4.443 3.2547,-0.90262 0.96346,1.5274 0.70169,2.6864 -1.0419,4.6131 -2.5799,2.8508 -3.9078,3.1976 -5.0662,1.3232 z m 7.1761,-31.705 c -2.9328,-1.4517 -4.902,-5.3609 -3.438,-6.8249 0.46274,-0.46273 1.6132,0.28278 2.5567,1.6567 0.94344,1.3739 2.6834,3.4824 3.8665,4.6855 2.3872,2.4275 1.2991,2.6034 -2.9852,0.4827 z m -6.9678,-9.1285 c -0.45834,-0.45833 -0.83334,-1.4146 -0.83334,-2.125 0,-0.78326 0.58221,-0.70945 1.4792,0.1875 0.81355,0.81354 1.1886,1.7698 0.83334,2.125 -0.35521,0.35521 -1.0208,0.27083 -1.4792,-0.1875 z m -13.34,-6.666 c 0,-0.6875 1.2656,-1.2414 2.8125,-1.2309 2.2743,0.01547 2.4537,0.25102 0.9375,1.2309 -2.4234,1.5662 -3.75,1.5662 -3.75,0 z m -5,-2.5 c 0,-0.6875 0.5293,-1.25 1.1762,-1.25 0.64693,0 1.5239,0.5625 1.9488,1.25 0.4249,0.6875 -0.10438,1.25 -1.1762,1.25 -1.07182,0 -1.9488,-0.5625 -1.9488,-1.25 z" />
  </g>
  <g
     style="fill:#ffffff;filter:url(#filter4267)"
     id="g4262"
     transform="translate(0,-1)">
    <rect
       id="rect4316"
       height="4"
       width="4"
       y="10"
       x="8" />
    <rect
       id="rect4318"
       height="4"
       width="4"
       y="9"
       x="10" />
    <rect
       id="rect4320"
       height="4"
       width="4"
       y="11"
       x="11" />
  </g>
</svg>
