<?xml version="1.0" encoding="UTF-8" standalone="no"?>
<!-- Created with Inkscape (http://www.inkscape.org/) -->

<svg
   xmlns:dc="http://purl.org/dc/elements/1.1/"
   xmlns:cc="http://creativecommons.org/ns#"
   xmlns:rdf="http://www.w3.org/1999/02/22-rdf-syntax-ns#"
   xmlns:svg="http://www.w3.org/2000/svg"
   xmlns="http://www.w3.org/2000/svg"
   xmlns:sodipodi="http://sodipodi.sourceforge.net/DTD/sodipodi-0.dtd"
   xmlns:inkscape="http://www.inkscape.org/namespaces/inkscape"
   id="svg4951"
   height="48"
   width="48"
   version="1.1"
   inkscape:version="0.91 r13725"
   sodipodi:docname="tomahawk.svg">
  <sodipodi:namedview
     pagecolor="#ffffff"
     bordercolor="#666666"
     borderopacity="1"
     objecttolerance="10"
     gridtolerance="10"
     guidetolerance="10"
     inkscape:pageopacity="0"
     inkscape:pageshadow="2"
     inkscape:window-width="1535"
     inkscape:window-height="876"
     id="namedview37"
     showgrid="false"
     inkscape:zoom="4.9166667"
     inkscape:cx="-10.779661"
     inkscape:cy="24"
     inkscape:window-x="65"
     inkscape:window-y="24"
     inkscape:window-maximized="1"
     inkscape:current-layer="svg4951" />
  <defs
     id="defs4953">
    <radialGradient
       id="radialGradient3302"
       gradientUnits="userSpaceOnUse"
       cy="186.17"
       cx="99.157"
       gradientTransform="matrix(.27083 0 0 .087623 -2.8551 25.187)"
       r="62.769">
      <stop
         id="stop3822-2-6-3"
         stop-color="#3d3d3d"
         offset="0" />
      <stop
         id="stop3864-8-7-7"
         stop-color="#686868"
         stop-opacity=".49804"
         offset=".5" />
      <stop
         id="stop3824-1-2-5"
         stop-color="#686868"
         stop-opacity="0"
         offset="1" />
    </radialGradient>
    <radialGradient
       id="radialGradient3037"
       gradientUnits="userSpaceOnUse"
       cy="-17.681"
       cx="14.892"
       gradientTransform="matrix(-1.7922 4.7451e-8 -3.529e-8 -1.3329 41.581 -41.248)"
       r="25.571">
      <stop
         id="stop3767"
         stop-color="#fff"
         offset="0" />
      <stop
         id="stop3769"
         stop-color="#e4e4e4"
         offset="1" />
    </radialGradient>
    <linearGradient
       id="linearGradient3039"
       y2="32.568"
       gradientUnits="userSpaceOnUse"
       x2="15.124"
       y1="-18.801"
       x1="15.124">
      <stop
         id="stop3777"
         stop-color="#fff"
         stop-opacity=".58824"
         offset="0" />
      <stop
         id="stop3779"
         stop-color="#fff"
         offset="1" />
    </linearGradient>
    <linearGradient
       id="linearGradient3127"
       y2="156"
       gradientUnits="userSpaceOnUse"
       y1="133.54"
       x2="36.164"
       x1="36.164">
      <stop
         id="stop5191"
         stop-color="#fff"
         offset="0" />
      <stop
         id="stop5193"
         stop-color="#fff"
         stop-opacity="0"
         offset="1" />
    </linearGradient>
    <clipPath
       id="clipPath-368322014">
      <g
         id="g17"
         transform="translate(0 -1004.4)">
        <path
           id="path19"
           d="m-24 13c0 1.105-0.672 2-1.5 2s-1.5-0.895-1.5-2 0.672-2 1.5-2 1.5 0.895 1.5 2z"
           transform="matrix(15.333 0 0 11.5 415 878.86)"
           fill="#1890d0" />
      </g>
    </clipPath>
  </defs>
  <metadata
     id="metadata4956">
    <rdf:RDF>
      <cc:Work
         rdf:about="">
        <dc:format>image/svg+xml</dc:format>
        <dc:type
           rdf:resource="http://purl.org/dc/dcmitype/StillImage" />
        <dc:title />
      </cc:Work>
    </rdf:RDF>
  </metadata>
  <path
     id="path2985"
     d="m40.781 6.8335a25.571 25.571 0 1 1 -51.141 0 25.571 25.571 0 1 1 51.141 0z"
     transform="matrix(.80271 0 0 .80271 11.791 18.515)"
     fill="url(#radialGradient3037)" />
  <path
     id="path3755"
     d="m40.781 6.8335a25.571 25.571 0 1 1 -51.141 0 25.571 25.571 0 1 1 51.141 0z"
     stroke-opacity=".16337"
     transform="matrix(.80271 0 0 .80271 11.791 18.515)"
     stroke="#004081"
     stroke-width="1.1816"
     fill="none" />
  <path
     id="path3773"
     d="m40.781 6.8335a25.571 25.571 0 1 1 -51.141 0 25.571 25.571 0 1 1 51.141 0z"
     stroke-opacity=".58824"
     transform="matrix(.76418 0 0 .76418 12.377 18.778)"
     stroke="url(#linearGradient3039)"
     stroke-width="1.2204"
     fill="none" />
  <path
     id="path4317-4"
     style="color:#000000"
     d="m35.312 139.5c-12.41 0-22.375 10.193-22.375 22.969v6.25h0.375 44.031 0.375v-6.25c0.001-12.77-9.995-22.97-22.406-22.97z"
     stroke="url(#linearGradient3127)"
     stroke-width="1.369"
     fill="none" />
  <g
     id="g4402"
     fill="none">
    <g
       id="g4404"
       transform="matrix(.77778 0 0 .79936 3 5.207)">
      <g
         id="g4406"
         fill="none"
         clip-path="url(#clipPath-368322014)">
        <!-- color: #e2e2e2 -->
        <g
           id="g4408"
           fill="none">
          <path
             id="path4410"
             fill="none"
             d="m18 11v25.02l18-12.504m-18-12.512" />
        </g>
      </g>
    </g>
    <path
       id="path4412"
       d="m27 16h4v26.8s-1.3096 0.43294-1.9781 0.6c-0.667 0.167-2.022 0.4-2.022 0.4z" />
  </g>
  <path
     id="path4396"
     opacity=".5"
     style="color-rendering:auto;text-decoration-color:#000000;color:#000000;isolation:auto;mix-blend-mode:normal;shape-rendering:auto;solid-color:#000000;block-progression:tb;text-decoration-line:none;text-decoration-style:solid;image-rendering:auto;white-space:normal;text-indent:0;text-transform:none"
     d="m17.02 13c-0.56-0.011-1.02 0.44-1.02 1v20c-0.000889 0.81431 0.91977 1.2883 1.582 0.81445l8.418-6.011v14.998l6-1.74v-18.057-8.004c-0.000055-0.55226-0.44774-0.99994-1-1h-4c-0.55226 0.000055-0.99994 0.44774-1 1v3.2012l-8.418-6.0156c-0.164-0.118-0.361-0.182-0.562-0.186zm0.98 2.945 8.418 6.016c0.662 0.474 1.583 0 1.582-0.815v-4.146h2v7.0039 18.047c-0.51683 0.15951-1.1206 0.35376-1.6172 0.47266-0.10863 0.02601-0.21922 0.04042-0.38281 0.07227v-15.736c0.000889-0.81431-0.91977-1.2883-1.582-0.81445l-8.418 6.011z"
     fill="#fff" />
  <path
     id="rect4378"
     d="m17 14v20l10-7.141v16.942s1.082-0.177 1.615-0.305c0.806-0.193 2.385-0.695 2.385-0.695v-18.797-8.004h-4v5.146l-10-7.146z"
     fill="#de372f" />
  <g
     id="g49"
     transform="matrix(.77778 0 0 .79936 3 5.207)">
    <g
       id="g51"
       clip-path="url(#clipPath-368322014)">
      <!-- color: #e2e2e2 -->
    </g>
  </g>
  <path
     id="path4389"
     opacity=".15"
     d="m17 14v20l10-7.141v16.942s1.082-0.177 1.615-0.305c0.806-0.193 2.385-0.695 2.385-0.695v-18.797-8.004h-4v5.146l-10-7.146zm1 1.945l8.418 6.016a1.0001 1.0001 0 0 0 1.582 -0.815v-4.146h2v7.004 18.047c-0.517 0.159-1.121 0.354-1.617 0.472-0.109 0.026-0.219 0.041-0.383 0.073v-15.737a1.0001 1.0001 0 0 0 -1.582 -0.814l-8.418 6.012v-16.112z" />
</svg>
