<?xml version="1.0" encoding="UTF-8" standalone="no"?>
<!-- Created with Inkscape (http://www.inkscape.org/) -->

<svg
   xmlns:dc="http://purl.org/dc/elements/1.1/"
   xmlns:cc="http://creativecommons.org/ns#"
   xmlns:rdf="http://www.w3.org/1999/02/22-rdf-syntax-ns#"
   xmlns:svg="http://www.w3.org/2000/svg"
   xmlns="http://www.w3.org/2000/svg"
   xmlns:xlink="http://www.w3.org/1999/xlink"
   xmlns:sodipodi="http://sodipodi.sourceforge.net/DTD/sodipodi-0.dtd"
   xmlns:inkscape="http://www.inkscape.org/namespaces/inkscape"
   id="svg3143"
   height="48"
   width="48"
   version="1.1"
   inkscape:version="0.91 r13725"
   sodipodi:docname="trine2.svg">
  <sodipodi:namedview
     pagecolor="#ffffff"
     bordercolor="#666666"
     borderopacity="1"
     objecttolerance="10"
     gridtolerance="10"
     guidetolerance="10"
     inkscape:pageopacity="0"
     inkscape:pageshadow="2"
     inkscape:window-width="1535"
     inkscape:window-height="876"
     id="namedview54"
     showgrid="false"
     inkscape:zoom="4.9166667"
     inkscape:cx="-10.779661"
     inkscape:cy="24"
     inkscape:window-x="65"
     inkscape:window-y="24"
     inkscape:window-maximized="1"
     inkscape:current-layer="svg3143" />
  <defs
     id="defs3145">
    <radialGradient
       id="radialGradient3030"
       gradientUnits="userSpaceOnUse"
       cy="43.5"
       cx="4.993"
       gradientTransform="matrix(2.0038 0 0 1.4 27.988 -17.4)"
       r="2.5">
      <stop
         id="stop2883"
         stop-color="#181818"
         offset="0" />
      <stop
         id="stop2885"
         stop-color="#181818"
         stop-opacity="0"
         offset="1" />
    </radialGradient>
    <radialGradient
       id="radialGradient3032"
       gradientUnits="userSpaceOnUse"
       cy="43.5"
       cx="4.993"
       gradientTransform="matrix(2.0038 0 0 1.4 -20.012 -104.4)"
       r="2.5">
      <stop
         id="stop2889"
         stop-color="#181818"
         offset="0" />
      <stop
         id="stop2891"
         stop-color="#181818"
         stop-opacity="0"
         offset="1" />
    </radialGradient>
    <linearGradient
       id="linearGradient3034"
       y2="39.999"
       gradientUnits="userSpaceOnUse"
       x2="25.058"
       y1="47.028"
       x1="25.058">
      <stop
         id="stop2895"
         stop-color="#181818"
         stop-opacity="0"
         offset="0" />
      <stop
         id="stop2897"
         stop-color="#181818"
         offset=".5" />
      <stop
         id="stop2899"
         stop-color="#181818"
         stop-opacity="0"
         offset="1" />
    </linearGradient>
    <linearGradient
       id="linearGradient3044"
       y2="43"
       gradientUnits="userSpaceOnUse"
       x2="24"
       gradientTransform="translate(5.3e-6,1)"
       y1="5"
       x1="24">
      <stop
         id="stop3926-7"
         stop-color="#fff"
         offset="0" />
      <stop
         id="stop3928-3"
         stop-color="#fff"
         stop-opacity=".23529"
         offset=".063165" />
      <stop
         id="stop3930-7"
         stop-color="#fff"
         stop-opacity=".15686"
         offset=".95056" />
      <stop
         id="stop3932-1"
         stop-color="#fff"
         stop-opacity=".39216"
         offset="1" />
    </linearGradient>
    <radialGradient
       id="radialGradient3053"
       gradientUnits="userSpaceOnUse"
       cy="9.9941"
       cx="8.2761"
       gradientTransform="matrix(0,6.6678,-8.1859,0,105.88,-59.463)"
       r="12.672">
      <stop
         id="stop4349"
         stop-color="#8ebfe8"
         offset="0" />
      <stop
         id="stop4351"
         stop-color="#6381cf"
         offset=".26238" />
      <stop
         id="stop4353"
         stop-color="#702999"
         offset=".66094" />
      <stop
         id="stop4355"
         stop-color="#300b69"
         offset="1" />
    </radialGradient>
    <clipPath
       id="clipPath-823863673">
      <g
         id="g4212"
         transform="translate(0 -1004.4)">
        <path
           id="path4214"
           d="m-24 13c0 1.105-0.672 2-1.5 2s-1.5-0.895-1.5-2 0.672-2 1.5-2 1.5 0.895 1.5 2z"
           transform="matrix(15.333 0 0 11.5 415 878.86)"
           fill="#1890d0" />
      </g>
    </clipPath>
    <linearGradient
       id="linearGradient5076"
       y2="36.417"
       gradientUnits="userSpaceOnUse"
       x2="22.532"
       y1="10.531"
       x1="22.032">
      <stop
         id="stop5072"
         stop-color="#ffab30"
         offset="0" />
      <stop
         id="stop5074"
         stop-color="#c67600"
         offset="1" />
    </linearGradient>
    <linearGradient
       inkscape:collect="always"
       xlink:href="#linearGradient5076"
       id="linearGradient4203"
       gradientUnits="userSpaceOnUse"
       x1="22.032"
       y1="10.531"
       x2="22.532"
       y2="36.417" />
    <linearGradient
       inkscape:collect="always"
       xlink:href="#linearGradient5076"
       id="linearGradient4205"
       gradientUnits="userSpaceOnUse"
       x1="22.032"
       y1="10.531"
       x2="22.532"
       y2="36.417" />
    <linearGradient
       inkscape:collect="always"
       xlink:href="#linearGradient5076"
       id="linearGradient4207"
       gradientUnits="userSpaceOnUse"
       x1="22.032"
       y1="10.531"
       x2="22.532"
       y2="36.417" />
    <linearGradient
       inkscape:collect="always"
       xlink:href="#linearGradient5076"
       id="linearGradient4209"
       gradientUnits="userSpaceOnUse"
       x1="22.032"
       y1="10.531"
       x2="22.532"
       y2="36.417" />
    <linearGradient
       inkscape:collect="always"
       xlink:href="#linearGradient5076"
       id="linearGradient4211"
       gradientUnits="userSpaceOnUse"
       x1="22.032"
       y1="10.531"
       x2="22.532"
       y2="36.417" />
  </defs>
  <metadata
     id="metadata3148">
    <rdf:RDF>
      <cc:Work
         rdf:about="">
        <dc:format>image/svg+xml</dc:format>
        <dc:type
           rdf:resource="http://purl.org/dc/dcmitype/StillImage" />
        <dc:title />
      </cc:Work>
    </rdf:RDF>
  </metadata>
  <g
     id="g4182"
     transform="translate(0,-1)">
    <rect
       x="4.5"
       y="5.5"
       width="39"
       height="39"
       ry="2"
       rx="2"
       style="color:#000000;fill:url(#radialGradient3053)"
       id="rect5505-21" />
    <rect
       x="5.5"
       y="6.5"
       width="37"
       height="37"
       ry="1"
       rx="1"
       id="rect6741-2"
       style="opacity:0.5;fill:none;stroke:url(#linearGradient3044);stroke-linecap:round;stroke-linejoin:round" />
    <rect
       x="4.5"
       y="5.5"
       width="39"
       height="39"
       ry="2"
       rx="2"
       style="color:#000000;opacity:0.4;fill:none;stroke:#0035a4;stroke-linecap:round;stroke-linejoin:round"
       id="rect5505-21-1" />
    <g
       transform="matrix(1.0003,0,0,1,0.69546,-1.1359)"
       id="g4335"
       style="fill:none;stroke:#000000;stroke-linecap:round;stroke-linejoin:round">
      <g
         transform="matrix(0.917,0,0,0.9167,1.2929,4.6349)"
         id="g4315"
         style="opacity:0.15;stroke-width:2.18140006">
        <g
           clip-path="url(#clipPath-823863673)"
           id="g4317"
           style="fill:none;stroke:#000000;stroke-width:2.18140006;stroke-linecap:round;stroke-linejoin:round">
          <!-- color: #5e4e50 -->
          <g
             id="g4319"
             style="fill:none;stroke:#000000;stroke-width:2.18140006;stroke-linecap:round;stroke-linejoin:round">
            <path
               d="m 17.04,33.992 0,-0.84 c 1.156,-0.473 1.379,-1.051 1.84,-2.109 0.73,-5.227 0.387,-11.11 -0.188,-15.586 -2.805,-1.07 -5.602,0.188 -4.676,1.828 0.246,0.398 1.262,0.211 1.145,-0.262 -0.555,-0.262 0.023,-0.617 0.262,-0.547 0.23,0.047 0.445,0.637 -0.113,1.313 -0.352,0.328 -0.703,0.41 -1.125,0.438 -0.656,0.023 -1.32,-0.086 -1.578,-0.438 -0.344,-0.609 -0.266,-1.086 -0.188,-1.746 0.297,-0.746 0.285,-1.414 0.223,-2.188 -0.035,-0.684 -0.344,-1.246 -0.637,-1.855 6.414,1.672 11.01,2.473 16.941,1.566 -0.324,1.453 -0.027,2.402 0.527,3.711 L 28.27,17.332 C 28.145,16.176 27.559,15.687 27.067,15.676 L 23.2,15.606 c -1.066,5.27 -0.852,9.461 -0.453,14.742 0.121,0.949 0.703,2.223 1.73,2.406 l 0.109,0.473 c -3.07,-0.277 -5.094,-0.02 -7.547,0.766"
               id="path4321"
               inkscape:connector-curvature="0" />
            <path
               d="m 27.367,21.559 c 0.707,-2.098 3.078,-2.559 4.227,-0.824 1.438,2.758 -0.414,5.969 -1.754,8.03 -1.316,2.293 -3.164,3.684 -4.969,5.277 l 0.16,1.262 c 2.598,-0.797 5.852,-0.371 8.02,0.695 0.305,-1.332 3.48,-3.176 2.867,-4.453 -0.82,-1.109 -2.539,-0.668 -2.711,0.539 -0.227,0.695 0.371,0.613 0.598,0.117 0.223,-0.496 0.73,-0.496 1.023,-0.195 0.172,0.891 -0.719,1.344 -1.301,1.625 -1.883,0.648 -4.059,0.301 -5.656,-0.387 3.762,-3.965 9.824,-9.08 6.508,-13.156 -1.711,-1.684 -3.891,-1.938 -6,-1.57 -1.117,0.352 -1.727,0.957 -2.469,1.777 -0.699,1.492 -0.281,2.211 1.23,2.578 0,0 0.078,-0.809 0.227,-1.316"
               id="path4323"
               inkscape:connector-curvature="0" />
          </g>
        </g>
      </g>
      <g
         transform="matrix(0.917,0,0,0.9167,1.2929,4.6349)"
         id="g4325"
         style="opacity:0.15;stroke-width:1.09070003">
        <g
           clip-path="url(#clipPath-823863673)"
           id="g4327"
           style="fill:none;stroke:#000000;stroke-width:1.09070003;stroke-linecap:round;stroke-linejoin:round">
          <!-- color: #5e4e50 -->
          <g
             id="g4329"
             style="fill:none;stroke:#000000;stroke-width:1.09070003;stroke-linecap:round;stroke-linejoin:round">
            <path
               d="m 17.04,33.992 0,-0.84 c 1.156,-0.473 1.379,-1.051 1.84,-2.109 0.73,-5.227 0.387,-11.11 -0.188,-15.586 -2.805,-1.07 -5.602,0.188 -4.676,1.828 0.246,0.398 1.262,0.211 1.145,-0.262 -0.555,-0.262 0.023,-0.617 0.262,-0.547 0.23,0.047 0.445,0.637 -0.113,1.313 -0.352,0.328 -0.703,0.41 -1.125,0.438 -0.656,0.023 -1.32,-0.086 -1.578,-0.438 -0.344,-0.609 -0.266,-1.086 -0.188,-1.746 0.297,-0.746 0.285,-1.414 0.223,-2.188 -0.035,-0.684 -0.344,-1.246 -0.637,-1.855 6.414,1.672 11.01,2.473 16.941,1.566 -0.324,1.453 -0.027,2.402 0.527,3.711 L 28.27,17.332 C 28.145,16.176 27.559,15.687 27.067,15.676 L 23.2,15.606 c -1.066,5.27 -0.852,9.461 -0.453,14.742 0.121,0.949 0.703,2.223 1.73,2.406 l 0.109,0.473 c -3.07,-0.277 -5.094,-0.02 -7.547,0.766"
               id="path4331"
               inkscape:connector-curvature="0" />
            <path
               d="m 27.367,21.559 c 0.707,-2.098 3.078,-2.559 4.227,-0.824 1.438,2.758 -0.414,5.969 -1.754,8.03 -1.316,2.293 -3.164,3.684 -4.969,5.277 l 0.16,1.262 c 2.598,-0.797 5.852,-0.371 8.02,0.695 0.305,-1.332 3.48,-3.176 2.867,-4.453 -0.82,-1.109 -2.539,-0.668 -2.711,0.539 -0.227,0.695 0.371,0.613 0.598,0.117 0.223,-0.496 0.73,-0.496 1.023,-0.195 0.172,0.891 -0.719,1.344 -1.301,1.625 -1.883,0.648 -4.059,0.301 -5.656,-0.387 3.762,-3.965 9.824,-9.08 6.508,-13.156 -1.711,-1.684 -3.891,-1.938 -6,-1.57 -1.117,0.352 -1.727,0.957 -2.469,1.777 -0.699,1.492 -0.281,2.211 1.23,2.578 0,0 0.078,-0.809 0.227,-1.316"
               id="path4333"
               inkscape:connector-curvature="0" />
          </g>
        </g>
      </g>
    </g>
    <g
       transform="matrix(0.917,0,0,0.9167,1.9915,2.9995)"
       id="g4244"
       style="fill:url(#linearGradient4211)">
      <g
         clip-path="url(#clipPath-823863673)"
         id="g4246"
         style="fill:url(#linearGradient4209)">
        <!-- color: #5e4e50 -->
        <g
           id="g4248"
           style="fill:url(#linearGradient4207)">
          <path
             d="m 17.04,33.992 0,-0.84 c 1.156,-0.473 1.379,-1.051 1.84,-2.109 0.73,-5.227 0.387,-11.11 -0.188,-15.586 -2.805,-1.07 -5.602,0.188 -4.676,1.828 0.246,0.398 1.262,0.211 1.145,-0.262 -0.555,-0.262 0.023,-0.617 0.262,-0.547 0.23,0.047 0.445,0.637 -0.113,1.313 -0.352,0.328 -0.703,0.41 -1.125,0.438 -0.656,0.023 -1.32,-0.086 -1.578,-0.438 -0.344,-0.609 -0.266,-1.086 -0.188,-1.746 0.297,-0.746 0.285,-1.414 0.223,-2.188 -0.035,-0.684 -0.344,-1.246 -0.637,-1.855 6.414,1.672 11.01,2.473 16.941,1.566 -0.324,1.453 -0.027,2.402 0.527,3.711 L 28.27,17.332 C 28.145,16.176 27.559,15.687 27.067,15.676 L 23.2,15.606 c -1.066,5.27 -0.852,9.461 -0.453,14.742 0.121,0.949 0.703,2.223 1.73,2.406 l 0.109,0.473 c -3.07,-0.277 -5.094,-0.02 -7.547,0.766"
             id="path4250"
             style="fill:url(#linearGradient4203)"
             inkscape:connector-curvature="0" />
          <path
             d="m 27.367,21.559 c 0.707,-2.098 3.078,-2.559 4.227,-0.824 1.438,2.758 -0.414,5.969 -1.754,8.03 -1.316,2.293 -3.164,3.684 -4.969,5.277 l 0.16,1.262 c 2.598,-0.797 5.852,-0.371 8.02,0.695 0.305,-1.332 3.48,-3.176 2.867,-4.453 -0.82,-1.109 -2.539,-0.668 -2.711,0.539 -0.227,0.695 0.371,0.613 0.598,0.117 0.223,-0.496 0.73,-0.496 1.023,-0.195 0.172,0.891 -0.719,1.344 -1.301,1.625 -1.883,0.648 -4.059,0.301 -5.656,-0.387 3.762,-3.965 9.824,-9.08 6.508,-13.156 -1.711,-1.684 -3.891,-1.938 -6,-1.57 -1.117,0.352 -1.727,0.957 -2.469,1.777 -0.699,1.492 -0.281,2.211 1.23,2.578 0,0 0.078,-0.809 0.227,-1.316"
             id="path4252"
             style="fill:url(#linearGradient4205)"
             inkscape:connector-curvature="0" />
        </g>
      </g>
    </g>
  </g>
</svg>
