<?xml version="1.0" encoding="UTF-8" standalone="no"?>
<!-- Created with Inkscape (http://www.inkscape.org/) -->

<svg
   xmlns:dc="http://purl.org/dc/elements/1.1/"
   xmlns:cc="http://creativecommons.org/ns#"
   xmlns:rdf="http://www.w3.org/1999/02/22-rdf-syntax-ns#"
   xmlns:svg="http://www.w3.org/2000/svg"
   xmlns="http://www.w3.org/2000/svg"
   xmlns:sodipodi="http://sodipodi.sourceforge.net/DTD/sodipodi-0.dtd"
   xmlns:inkscape="http://www.inkscape.org/namespaces/inkscape"
   id="svg6649"
   height="48"
   width="48"
   version="1.1"
   inkscape:version="0.91 r13725"
   sodipodi:docname="warhammerquest.svg">
  <sodipodi:namedview
     pagecolor="#ffffff"
     bordercolor="#666666"
     borderopacity="1"
     objecttolerance="10"
     gridtolerance="10"
     guidetolerance="10"
     inkscape:pageopacity="0"
     inkscape:pageshadow="2"
     inkscape:window-width="1535"
     inkscape:window-height="876"
     id="namedview38"
     showgrid="false"
     inkscape:zoom="4.9166667"
     inkscape:cx="-10.779661"
     inkscape:cy="24"
     inkscape:window-x="65"
     inkscape:window-y="24"
     inkscape:window-maximized="1"
     inkscape:current-layer="svg6649" />
  <defs
     id="defs6651">
    <linearGradient
       id="linearGradient3058"
       y2="43"
       gradientUnits="userSpaceOnUse"
       x2="24"
       gradientTransform="translate(4e-6,1)"
       y1="5"
       x1="24">
      <stop
         id="stop3926-3"
         stop-color="#fff"
         offset="0" />
      <stop
         id="stop3928-91"
         stop-color="#fff"
         stop-opacity=".23529"
         offset=".063165" />
      <stop
         id="stop3930-6"
         stop-color="#fff"
         stop-opacity=".15686"
         offset=".95056" />
      <stop
         id="stop3932-6"
         stop-color="#fff"
         stop-opacity=".39216"
         offset="1" />
    </linearGradient>
    <radialGradient
       id="radialGradient3013"
       gradientUnits="userSpaceOnUse"
       cy="43.5"
       cx="4.993"
       gradientTransform="matrix(2.0038,0,0,1.4,27.988,-17.4)"
       r="2.5">
      <stop
         id="stop2883"
         stop-color="#181818"
         offset="0" />
      <stop
         id="stop2885"
         stop-color="#181818"
         stop-opacity="0"
         offset="1" />
    </radialGradient>
    <radialGradient
       id="radialGradient3015"
       gradientUnits="userSpaceOnUse"
       cy="43.5"
       cx="4.993"
       gradientTransform="matrix(2.0038,0,0,1.4,-20.012,-104.4)"
       r="2.5">
      <stop
         id="stop2889"
         stop-color="#181818"
         offset="0" />
      <stop
         id="stop2891"
         stop-color="#181818"
         stop-opacity="0"
         offset="1" />
    </radialGradient>
    <linearGradient
       id="linearGradient6647"
       y2="39.999"
       gradientUnits="userSpaceOnUse"
       x2="25.058"
       y1="47.028"
       x1="25.058">
      <stop
         id="stop2895"
         stop-color="#181818"
         stop-opacity="0"
         offset="0" />
      <stop
         id="stop2897"
         stop-color="#181818"
         offset=".5" />
      <stop
         id="stop2899"
         stop-color="#181818"
         stop-opacity="0"
         offset="1" />
    </linearGradient>
  </defs>
  <metadata
     id="metadata6654">
    <rdf:RDF>
      <cc:Work
         rdf:about="">
        <dc:format>image/svg+xml</dc:format>
        <dc:type
           rdf:resource="http://purl.org/dc/dcmitype/StillImage" />
        <dc:title />
      </cc:Work>
    </rdf:RDF>
  </metadata>
  <g
     id="g4183"
     transform="translate(0,-1)">
    <rect
       id="rect4289"
       style="color:#000000;fill:#383838"
       rx="2"
       ry="2"
       height="39"
       width="39"
       y="5.5"
       x="4.5" />
    <g
       id="g4267"
       transform="matrix(0.13204,0,0,0.13202,96.624,36.487)">
      <path
         id="path4284"
         d="m -690,-87 0,-140 140,0 140,0 0,140 0,140 -140,0 -140,0 0,-140 z"
         inkscape:connector-curvature="0"
         style="fill:#ebedd9" />
      <path
         id="path4282"
         d="m -690,-87 0,-140 87.396,0 c 68.694,0 87.552,0.33435 88.125,1.5625 0.58332,1.25 0.875,1.25 1.4583,0 0.45314,-0.97099 3.3203,-1.5625 7.5738,-1.5625 4.8554,0 6.5854,0.4194 5.9527,1.4431 -0.58915,0.95325 -0.33849,1.1011 0.73841,0.43554 0.89668,-0.55418 3.4863,-1.1741 5.7547,-1.3777 3.2288,-0.28973 4.2986,0.17901 4.927,2.1587 1.0596,3.3386 -0.23999,4.4638 -3.0958,2.6803 -1.7774,-1.11 -2.8288,-1.0585 -4.5835,0.22455 -3.4033,2.4886 -0.21849,5.6855 5.664,5.6855 2.5323,0 8.0387,1.1598 12.236,2.5774 l 7.6321,2.5774 6.3738,-4.5791 c 4.1164,-2.9573 9.2468,-5.2344 14.486,-6.4294 5.487,-1.2516 8.1118,-2.4479 8.1118,-3.697 0,-1.0157 0.50969,-1.5317 1.1326,-1.1467 0.62296,0.38501 0.8386,1.8245 0.47921,3.1988 -0.55011,2.1036 -0.0374,2.4988 3.2424,2.4988 2.1427,0 3.8958,0.5625 3.8958,1.25 0,0.6875 0.4845,1.25 1.0767,1.25 0.59216,0 0.80784,-1.4062 0.47928,-3.125 -0.58237,-3.0464 0.36222,-3.7402 4.3816,-3.2183 0.85938,0.1116 1.5625,-0.40405 1.5625,-1.1459 0,-0.94615 0.72175,-0.96251 2.4178,-0.0548 3.051,1.6328 4.1989,1.6486 3.2072,0.044 -0.46656,-0.75491 1.237,-1.25 4.3012,-1.25 l 5.0738,0 0,23.646 c 0,17.747 -0.38979,23.803 -1.5625,24.276 -1.25,0.50439 -1.25,0.65022 0,0.72917 2.0302,0.12822 2.287,40.099 0.2577,40.099 -0.71764,0 -1.1621,0.70313 -0.98774,1.5625 0.17438,0.85938 -0.38497,2.8313 -1.243,4.3821 -1.3373,2.4171 -2.2446,2.7102 -6.3553,2.0528 -2.9601,-0.47334 -5.1227,-0.23689 -5.651,0.61787 -0.47067,0.76157 -3.2132,1.3868 -6.0945,1.3893 -3.0703,0.003 -6.9749,1.0631 -9.433,2.5618 -3.2416,1.9763 -6.0123,2.4982 -12.198,2.298 -4.4023,-0.14252 -8.3228,0.0595 -8.7123,0.44899 -0.38946,0.38946 -2.3457,0.23846 -4.3472,-0.33556 -2.1201,-0.60803 -3.9378,-0.56035 -4.3547,0.11424 -0.3936,0.63685 -1.6668,1.1135 -2.8294,1.0592 -1.3015,-0.0608 -1.5133,-0.34097 -0.55122,-0.72917 2.5973,-1.048 1.7793,-2.8267 -2.5,-5.4358 -5.5336,-3.3739 -10.44,-3.2743 -11.356,0.23062 -0.94487,3.6132 -0.28584,4.4296 4.4074,5.4605 2.1779,0.47835 6.6657,2.7716 9.9728,5.0962 3.3072,2.3246 6.3475,4.2264 6.7564,4.2264 0.40886,0 4.0769,2.619 8.1512,5.8199 4.0743,3.201 7.7286,5.4991 8.1207,5.1071 1.0807,-1.0807 -2.0154,-6.2125 -5.3132,-8.8065 -1.6096,-1.2661 -2.9265,-2.771 -2.9265,-3.3442 0,-1.2091 4.9498,-0.1907 7.0618,1.453 0.79025,0.61502 7.6944,0.84936 15.343,0.52076 10.116,-0.43464 15.601,-0.0941 20.126,1.2497 l 6.22,1.8471 0,11.889 c 0,10.955 -0.17174,11.793 -2.1875,10.665 -1.2031,-0.67295 -4.17,-4.2115 -6.5932,-7.8634 -4.5798,-6.9023 -9.7475,-9.9958 -8.1172,-4.8591 0.63575,2.0031 -0.46257,1.4154 -4.4578,-2.3851 -7.3334,-6.9761 -9.8944,-6.761 -9.8944,0.83091 0,5.8559 4.9236,26.005 8.2882,33.919 0.97471,2.2925 2.0699,7.6363 2.4338,11.875 1.3183,15.356 1.4245,15.634 6.5156,17.071 4.6936,1.3241 11.512,9.1145 11.512,13.153 0,1.0221 0.58035,1.8583 1.2897,1.8583 0.83297,0 1.1649,5.1957 0.9375,14.672 -0.32561,13.565 -0.54087,14.703 -2.8522,15.073 -1.375,0.22044 -3.3438,0.74046 -4.375,1.1556 -3.1097,1.2519 -13.75,1.478 -13.75,0.29216 0,-2.4768 -6.021,-4.0017 -17.691,-4.4803 -7.7542,-0.318 -14.761,-1.3795 -18.882,-2.8606 -3.6039,-1.2952 -8.0975,-2.7021 -9.9858,-3.1265 -1.8883,-0.42434 -5.8258,-2.4474 -8.75,-4.4958 -3.4823,-2.4392 -7.4733,-3.9611 -11.567,-4.4106 l -6.25,-0.68639 3.5042,2.8709 c 1.9273,1.579 7.8336,4.3627 13.125,6.186 5.2914,1.8233 14.965,5.3457 21.496,7.8275 6.5312,2.4818 14.125,5.0707 16.875,5.753 7.0106,1.7394 33.282,5.0298 34.441,4.3136 0.52714,-0.32579 1.8529,-0.24908 2.9462,0.17045 1.6939,0.65004 1.9878,3.5149 1.9878,19.379 l 0.01,18.614 -140,0 -140,0 0,-140 z m 78.75,64.977 c 0,-1.3875 -2.7612,-8.025 -6.136,-14.75 -3.3748,-6.725 -7.9515,-18.105 -10.171,-25.29 -4.52,-14.634 -10.96,-29.937 -12.61,-29.937 -0.59545,0 -1.0826,5.2937 -1.0826,11.764 0,11.692 2.535,21.977 7.105,28.827 0.90475,1.3561 1.6882,4.1686 1.7411,6.25 0.16765,6.6042 2.9401,13.666 5.9553,15.169 1.5715,0.78348 4.7256,3.4642 7.0091,5.9572 4.6194,5.0432 8.1896,5.9194 8.1896,2.01 z m 105,-6.0397 c 0,-2.6927 -6.9179,-12.688 -8.7816,-12.688 -1.9765,0 0.003,6.3944 3.3844,10.938 3.3907,4.5544 5.3973,5.205 5.3973,1.75 z m 31.25,-1.6025 c 0,-2.1537 -5.4182,-10.456 -5.8934,-9.0299 -0.61395,1.8418 3.2244,10.445 4.6601,10.445 0.67827,0 1.2332,-0.63672 1.2332,-1.415 z m -159.71,-15.107 c -1.2909,-2.6796 -1.3798,-2.5908 -1.4592,1.4592 -0.0645,3.2872 0.26233,3.9656 1.3746,2.8533 1.0789,-1.0789 1.101,-2.2028 0.0846,-4.3125 z m 134.04,-12.437 c 3.885,-1.7701 3.4394,-3.8993 -2.6201,-12.52 -4.2832,-6.0937 -5.1499,-8.5209 -3.0427,-8.5209 1.8512,0 9.984,8.9364 12.514,13.75 2.5935,4.9352 7.1875,9.5443 8.3522,8.3796 0.97545,-0.97545 0.43161,-2.0578 -6.4086,-12.755 -3.0774,-4.8125 -6.4139,-10.482 -7.4143,-12.599 -1.0004,-2.1168 -4.9454,-6.5196 -8.7666,-9.7842 -6.5332,-5.5814 -8.5522,-9.6029 -5.7048,-11.363 0.68546,-0.42363 -0.71968,-2.7888 -3.1332,-5.2739 -5.0965,-5.2477 -6.2874,-4.705 -6.764,3.082 -0.0526,0.85937 -0.93939,1.5625 -1.9706,1.5625 -2.6296,0 -2.3329,3.3985 0.625,7.1589 1.375,1.748 2.5,4.3316 2.5,5.7412 0,1.4096 3.0756,7.9478 6.8347,14.529 3.7591,6.5814 7.4704,13.79 8.2473,16.018 1.565,4.4895 2.1215,4.7032 6.7522,2.5933 z m 15.67,-19.829 c 0,-0.70909 -0.82234,-1.6048 -1.8274,-1.9905 -1.0051,-0.38568 -2.152,-1.724 -2.5488,-2.9739 -0.87955,-2.7712 -6.4877,-6.6325 -8.1452,-5.6081 -1.5182,0.9383 2.2339,6.8618 4.3464,6.8618 0.84563,0 2.5556,1.125 3.8,2.5 2.4615,2.7199 4.375,3.2495 4.375,1.2108 z m -45,-28.711 c 0,-0.6875 -0.5957,-1.25 -1.3238,-1.25 -0.72807,0 -0.97612,0.5625 -0.55122,1.25 0.4249,0.6875 1.0206,1.25 1.3238,1.25 0.30317,0 0.55122,-0.5625 0.55122,-1.25 z m 32.5,-12.5 c 3.5271,-3.5271 3.1125,-6.0324 -1.406,-8.4956 -2.1483,-1.1712 -6.5897,-4.0981 -9.8697,-6.5044 -5.6195,-4.1224 -6.5305,-4.375 -15.782,-4.375 l -9.8178,0 -0.38437,5.3125 c -0.42934,5.934 0.37393,6.3517 6.3109,3.2816 7.6624,-3.9624 10.984,-4.3204 16.685,-1.7987 5.4502,2.4109 9.2639,7.564 9.2639,12.518 0,3.2413 1.7984,3.2637 5,0.0621 z m -8.1686,-27.939 c 2.0623,-1.508 2.1547,-2.3024 0.86392,-7.4285 -0.79494,-3.157 -1.4453,-9.1508 -1.4453,-13.32 0,-4.1688 -0.86521,-13.34 -1.9227,-20.381 -1.0575,-7.0406 -1.8002,-15.486 -1.6504,-18.767 0.14974,-3.2814 -0.27341,-6.5119 -0.94031,-7.1788 -0.6669,-0.6669 -3.874,-1.5774 -7.127,-2.0232 -5.416,-0.74235 -5.8482,-0.6117 -5.1282,1.5505 1.9373,5.8179 4.498,10.486 5.7519,10.486 1.8521,0 4.678,3.8862 4.7269,6.5004 0.0219,1.169 -0.94109,2.6743 -2.1399,3.3452 -2.0262,1.1339 -1.9862,1.4257 0.56748,4.1439 3.4771,3.7012 2.1259,6.5008 -2.5689,5.3225 -2.815,-0.70652 -3.3189,-0.42813 -3.3189,1.8334 0,1.694 -1.1396,3.0997 -3.125,3.8546 -1.7188,0.65347 -3.125,2.1084 -3.125,3.2332 0,1.6828 0.82269,1.8907 4.645,1.1736 2.5547,-0.47927 5.4323,-1.9955 6.3947,-3.3694 1.1665,-1.6654 2.1664,-2.0814 2.9997,-1.2481 0.83334,0.83334 0.57678,2.2112 -0.76966,4.1335 -2.5134,3.5883 -2.5505,4.8272 -0.14466,4.8272 1.0312,0 1.875,0.5625 1.875,1.25 0,0.6875 -0.5625,1.25 -1.25,1.25 -2.3359,0 -1.263,3.9806 1.25,4.6378 3.4515,0.90259 3.2754,4.3818 -0.19631,3.8783 -1.483,-0.21509 -2.9361,0.31206 -3.2292,1.1714 -0.29308,0.85938 0.0567,1.5625 0.77732,1.5625 0.72061,0 1.9325,1.1627 2.693,2.5838 1.0757,2.0099 0.94023,3.2593 -0.60983,5.625 -1.9144,2.9218 -1.8782,3.0412 0.92225,3.0412 1.6032,0 3.9541,-0.75985 5.2241,-1.6886 z m 82.231,-2.0868 c 1.8906,-0.89424 3.4375,-2.0842 3.4375,-2.6443 0,-0.56012 -1.5469,-0.41176 -3.4375,0.3297 -1.8906,0.74146 -9.625,1.6889 -17.188,2.1055 -10.247,0.56442 -12.636,0.98548 -9.375,1.6529 6.4178,1.3137 22.591,0.43462 26.562,-1.4437 z m -109.42,-9.6175 c -2.0238,-2.0238 -2.2619,-2.0238 -4.2857,0 -2.0238,2.0238 -1.9048,2.1429 2.1429,2.1429 4.0476,0 4.1667,-0.11905 2.1429,-2.1429 z m 52.86,-15.9 c 0,-0.30318 -0.5625,-0.89887 -1.25,-1.3238 -0.6875,-0.4249 -1.25,-0.17685 -1.25,0.55123 0,0.72807 0.5625,1.3238 1.25,1.3238 0.6875,0 1.25,-0.24805 1.25,-0.55123 z m 28.357,-4.6667 c 1.5912,-1.4948 2.8929,-3.0417 2.8927,-3.4375 -1.7e-4,-0.39579 -3.7201,-0.78876 -8.2665,-0.87328 l -8.2662,-0.15367 3.89,2.463 c 2.1395,1.3546 3.5762,2.9707 3.1927,3.5912 -1.4169,2.2926 3.7608,1.0374 6.5572,-1.5897 z m 33.206,-0.56854 4.6875,-0.68331 -0.0113,-6.4526 c -0.006,-3.549 -0.36519,-9.4058 -0.79872,-13.015 -0.69424,-5.7798 -1.1302,-6.5625 -3.6549,-6.5625 -3.558,0 -5.0081,3.8762 -2.7831,7.439 1.4438,2.312 1.2226,2.913 -2.026,5.5033 -2.3325,1.8599 -3.3762,3.6134 -2.8957,4.8653 0.41932,1.0927 -0.22146,2.8376 -1.4505,3.9499 -2.8228,2.5546 -10.13,2.6862 -10.13,0.18247 0,-1.4842 -0.70283,-1.565 -3.9047,-0.44879 -3.2299,1.126 -3.554,1.5575 -1.875,2.4971 1.1163,0.62474 2.0297,2.0088 2.0297,3.0756 0,1.6485 1.3607,1.8191 9.0625,1.1363 4.9844,-0.44188 11.172,-1.1109 13.75,-1.4867 z m -106.8,-1.4011 c -0.50741,-2.6348 -2.7258,-2.4687 -3.2912,0.24647 -0.23581,1.1325 0.45324,1.941 1.6542,1.941 1.2874,0 1.9005,-0.81925 1.637,-2.1875 z m 58.988,-5.1667 c 0,-0.60732 -1.125,-1.3984 -2.5,-1.758 -1.4396,-0.37647 -2.5,-1.705 -2.5,-3.1323 0,-4.3913 -4.0981,-8.0312 -9.4471,-8.3909 -2.7104,-0.18225 -5.9123,-0.73653 -7.1154,-1.2317 -1.3296,-0.54725 -2.1875,-0.34229 -2.1875,0.52259 0,0.78263 0.84375,1.6866 1.875,2.0087 1.0312,0.32217 2.8594,0.9755 4.0625,1.4518 1.2031,0.47633 3.0312,0.90855 4.0625,0.96047 1.1771,0.0593 1.8244,1.2491 1.739,3.1964 -0.0749,1.7061 0.99562,4.0864 2.3788,5.2895 2.5913,2.254 9.6323,3.0459 9.6323,1.0833 z m -68.76,-10.08 c 0,-2.9848 -3.7625,-6.1203 -8.4753,-7.0628 -5.4472,-1.0894 -12.775,0.44752 -12.775,2.6796 0,2.6931 7.0869,8.5076 12.302,10.093 4.0118,1.2199 4.8412,1.0878 6.7603,-1.076 1.2031,-1.3565 2.1875,-3.4419 2.1875,-4.6342 z m 14.375,6.1947 c 0.4249,-0.6875 -0.10437,-1.25 -1.1762,-1.25 -1.07183,0 -1.9488,0.5625 -1.9488,1.25 0,0.6875 0.5293,1.25 1.1762,1.25 0.64693,0 1.5239,-0.5625 1.9488,-1.25 z m 83.926,-7.5 c 2.1773,0 3.5477,-1.1717 5.0466,-4.315 2.3642,-4.9578 1.3966,-6.9601 -4.9497,-10.242 -4.5042,-2.3292 -14.616,-1.257 -18.605,1.9727 -3.2646,2.6436 -2.2477,4.7006 2.9956,6.0592 6.5903,1.7077 5.8456,4.1326 -0.98171,3.1968 -4.7451,-0.65038 -5.7816,-0.46563 -5.3162,0.9476 0.63729,1.9353 9.577,3.6145 15.228,2.8602 1.9766,-0.26383 4.9388,-0.4797 6.5827,-0.4797 z m -35.176,-8.9025 c 0,-1.0116 -2.0638,-2.1306 -5,-2.711 -2.75,-0.54368 -8.6562,-1.814 -13.125,-2.823 -4.4688,-1.009 -9.0405,-1.8298 -10.159,-1.824 -1.1189,0.006 -2.7642,-0.86879 -3.6561,-1.9435 -1.4688,-1.7698 -1.727,-1.7657 -2.7392,0.043 -0.82989,1.4829 -0.096,2.9512 2.8508,5.704 2.1826,2.0389 4.7194,3.707 5.6374,3.707 0.91796,0 1.9803,0.5036 2.3607,1.1191 0.3804,0.61551 4.0914,1.0871 8.2467,1.048 4.1553,-0.0391 8.2048,0.5786 8.999,1.3728 1.7508,1.7508 6.5852,-0.95983 6.5852,-3.6923 z m -18.75,-1.1 c 0.4249,-0.6875 1.0206,-1.25 1.3238,-1.25 0.30317,0 0.55122,0.5625 0.55122,1.25 0,0.6875 -0.5957,1.25 -1.3238,1.25 -0.72808,0 -0.97613,-0.5625 -0.55123,-1.25 z m 69.95,-5.4342 c 1.6586,-1.2128 1.8851,-1.9426 0.80916,-2.6076 -1.5502,-0.95804 -5.1346,1.2723 -5.1346,3.1949 0,1.5789 1.6739,1.3516 4.3254,-0.58726 z m 7.7955,137.31 c -1.2302,-2.75 -3.7004,-7.1196 -5.4895,-9.7101 -1.7891,-2.5906 -2.9362,-5.0268 -2.5492,-5.4138 0.87464,-0.87464 5.9178,1.7307 5.9178,3.0572 0,0.53368 1.1568,2.212 2.5707,3.7297 1.935,2.0769 2.4738,4.0673 2.1788,8.0482 l -0.39192,5.2889 -2.2366,-5 z m -65.88,-149.66 c -3.1935,-1.7943 -3.5311,-2.2272 -1.25,-1.6029 1.7188,0.47036 4.4367,0.80823 6.0398,0.75082 1.7213,-0.0616 2.713,0.50114 2.4219,1.3745 -0.7588,2.2764 -2.4482,2.154 -7.2117,-0.52236 z"
         inkscape:connector-curvature="0"
         style="fill:#dae6a6" />
      <path
         id="path4280"
         d="m -689.66,42.088 0.0483,-10.963 0.83781,8.125 0.83781,8.125 0.21575,-8.3637 c 0.11,-4.6 -0.35,-8.711 -1.04,-9.136 -0.82,-0.507 -1.25,-44.805 -1.25,-128.82 l 0,-128.06 42.426,0 c 26.936,0 42.708,0.45639 43.199,1.25 0.4249,0.6875 1.335,1.25 2.0225,1.25 0.6875,0 0.90236,-0.5625 0.47746,-1.25 -0.50934,-0.82412 13.945,-1.25 42.426,-1.25 41.552,0 43.199,0.0902 43.199,2.3663 0,1.3014 0.84375,2.69 1.875,3.0858 1.3546,0.51982 1.875,-0.13691 1.875,-2.3663 0,-2.2077 0.68174,-3.0858 2.3958,-3.0858 1.3177,0 2.6796,0.70313 3.0263,1.5625 0.50439,1.25 0.65021,1.25 0.72916,0 0.14066,-2.227 4.6867,-1.9391 5.5661,0.35252 0.49832,1.2986 -0.36389,2.3313 -2.6788,3.2083 -1.8775,0.71129 -4.6334,2.4357 -6.1241,3.8321 -2.6664,2.4975 -2.9605,2.5065 -18.071,0.55061 -8.8446,-1.1448 -15.828,-1.5216 -16.461,-0.88817 -1.6378,1.6378 0.68373,2.6238 9.4208,4.0013 8.126,1.2812 10.203,2.7787 12.456,8.9814 0.69426,1.9115 2.9247,4.3351 4.9565,5.3858 4.7638,2.4634 3.9785,4.6102 -2.1852,5.9738 -2.6978,0.59684 -5.6082,1.2823 -6.4676,1.5233 -0.85937,0.24096 -1.5625,2.0045 -1.5625,3.9189 0,3.3828 -5.7219,10.348 -8.501,10.348 -0.67403,0 -1.4553,1.9688 -1.7363,4.375 -0.28092,2.4062 -0.29056,4.375 -0.0214,4.375 0.26914,0 1.94,-1.1411 3.7132,-2.5358 3.9377,-3.0974 6.8001,-1.4104 4.3267,2.5501 -0.84221,1.3485 -1.5312,2.7407 -1.5312,3.0938 0,1.3192 3.561,0.58382 4.0333,-0.83293 0.6842,-2.0526 4.7167,-0.29087 4.7167,2.0607 0,1.0528 -1.0561,1.9142 -2.347,1.9142 -1.2908,0 -3.0577,0.85645 -3.9265,1.9032 -0.96128,1.1583 -2.5473,1.5961 -4.052,1.1185 -1.3599,-0.4316 -3.7606,-0.0954 -5.3349,0.74722 -2.3443,1.2546 -3.3615,1.1824 -5.6196,-0.39919 -1.5164,-1.0621 -3.5362,-1.6322 -4.4886,-1.2667 -2.1157,0.81189 -2.2954,2.897 -0.24956,2.897 0.81506,0 2.7476,1.189 4.2944,2.6422 3.7845,3.5554 14.322,4.1268 15.186,0.8235 0.69959,-2.6752 4.0378,-2.9766 4.0378,-0.36451 0,2.5268 5.7983,3.8298 8.1942,1.8414 2.3701,-1.967 4.7423,-0.0214 4.0994,3.3622 -0.29911,1.5743 -2.2232,2.7508 -5.9845,3.6593 -3.2903,0.79475 -4.9371,1.7139 -4.0514,2.2613 0.82073,0.50724 1.4922,1.8047 1.4922,2.8832 0,1.5602 -0.95792,1.8144 -4.6875,1.2435 -5.0223,-0.76871 -24.796,4.2204 -24.557,6.1959 0.0717,0.59237 2.2097,1.415 4.7511,1.8281 6.0393,0.98166 7.1468,2.2594 7.9224,9.1402 0.74122,6.576 4.0711,8.2354 4.0711,2.0288 0,-8.1982 14.622,-12.934 23.404,-7.5792 3.9659,2.4181 4.95,4.4985 5.6283,11.898 0.22721,2.4787 1.1219,3.8872 2.6538,4.178 2.5322,0.4806 9.5639,-5.5124 9.5639,-8.1511 0,-2.1948 3.9355,-2.0849 6.9486,0.19411 2.2952,1.736 2.2067,1.8374 -1.6361,1.875 -3.463,0.0339 -4.0625,0.49006 -4.0625,3.091 0,1.6782 -0.5625,3.3989 -1.25,3.8238 -2.1421,1.3239 -1.3907,2.5238 2.5,3.9924 5.5365,2.0898 4.6096,4.1326 -1.875,4.1326 -3.1384,0 -5.625,-0.5873 -5.625,-1.3286 0,-0.73072 -0.98437,-1.2284 -2.1875,-1.1061 -6.8377,0.69554 -10.402,-0.33819 -15.312,-4.4404 -5.5197,-4.6116 -8.4987,-5.3763 -11.041,-2.8341 -1.2213,1.2213 -1.6956,0.94937 -2.2866,-1.3105 -0.9624,-3.6802 -4.5202,-3.0718 -4.8064,0.82194 -0.11838,1.61 -0.98787,3.4049 -1.9323,3.9886 -1.3789,0.8522 -0.80504,2.8609 2.9133,10.198 2.5467,5.025 5.7668,11.668 7.1557,14.761 1.3889,3.0938 4.3775,8.7232 6.6412,12.51 2.2637,3.7867 5.7356,11.538 7.7153,17.225 1.9797,5.687 4.2047,10.842 4.9445,11.456 0.7398,0.61399 3.277,0.72121 5.6383,0.23829 3.5424,-0.7245 4.4852,-1.6191 5.3913,-5.1157 0.86876,-3.3526 0.68758,-4.4673 -0.86761,-5.3377 -2.5114,-1.4055 -2.5421,-3.4758 -0.0515,-3.4758 1.0528,0 2.2633,0.98438 2.69,2.1875 0.42668,1.2031 1.6429,3.1959 2.7028,4.4283 2.2782,2.6493 4.9846,9.5746 6.4112,16.406 1.4434,6.9114 9.0164,12.329 10.786,7.7159 0.81041,-2.1119 -1.9055,-7.6041 -7.8562,-15.887 l -4.383,-6.1009 3.1068,0 c 3.9842,0 5.7473,-5.4411 2.8135,-8.6829 -1.0646,-1.1764 -1.9357,-2.7978 -1.9357,-3.603 0,-0.80524 -0.84375,-1.4641 -1.875,-1.4641 -1.0417,0 -1.875,-1.1111 -1.875,-2.5 0,-3.2434 2.5396,-3.2434 3.3878,0 0.69134,2.6437 2.431,3.1317 5.1088,1.433 1.2939,-0.82078 1.2276,-1.3557 -0.32791,-2.6467 -1.4855,-1.2329 -1.6119,-2.0248 -0.53111,-3.3272 0.78016,-0.94004 2.1934,-1.7092 3.1404,-1.7092 2.15,0 2.2695,-2.1086 0.15945,-2.8142 -0.85937,-0.2874 -1.6149,-2.4436 -1.679,-4.7917 -0.064,-2.348 -0.54911,-6.6054 -1.0779,-9.4608 -0.87558,-4.7278 -0.67022,-5.3825 2.2985,-7.3277 3.115,-2.041 3.5189,-2.0144 9.0798,0.59961 3.2009,1.5046 6.719,3.7938 7.8179,5.0871 3.2271,3.7978 5.2999,3.4334 6.9212,-1.2169 1.9156,-5.4941 4.1353,-6.2364 5.1641,-1.7268 0.44245,1.9395 1.9729,6.027 3.401,9.0835 1.4281,3.0564 2.7792,8.6814 3.0025,12.5 0.8813,15.075 3.3571,31.404 4.9636,32.737 0.91883,0.76255 1.6706,2.9853 1.6706,4.9394 0,4.7978 4.2318,7.2236 7.4776,4.2862 2.1204,-1.9189 2.4012,-1.866 4.271,0.80351 1.1008,1.5716 2.0014,4.9823 2.0014,7.5793 0,4.8975 1.6301,6.2918 3.045,2.6046 0.66944,-1.7445 1.2432,-1.4091 3.2587,1.9052 1.7604,2.8948 2.4462,6.2853 2.4462,12.094 0,7.4938 -0.21619,8.1252 -3.0228,8.8296 -1.6625,0.41726 -6.0219,0.16475 -9.6875,-0.56112 -3.6656,-0.72589 -11.446,-1.908 -17.29,-2.6269 -5.8438,-0.71892 -19.625,-4.0504 -30.625,-7.4033 -26.468,-8.0677 -30.219,-8.8697 -41.476,-8.8697 -12.817,0 -12.669,0.11262 11.476,8.7553 6.1875,2.2148 15.648,6.2134 21.023,8.8858 5.35,2.6835 10.9,4.87 12.31,4.87 1.959,0 2.4045,0.59704 1.8962,2.5409 -0.82381,3.1503 2.0591,5.1518 12.248,8.5032 6.5578,2.1571 27.734,5.8568 38.75,6.77 l 3.75,0.31088 0.36474,9.6683 c 0.33341,8.838 0.17237,9.6 -1.875,8.8725 -1.2319,-0.4377 -3.2452,-1.6603 -4.4741,-2.7169 -2.635,-2.2656 -16.743,-3.5964 -18.586,-1.7532 -1.8546,1.8546 1.067,5.8633 5.4898,7.5327 2.1204,0.80036 3.4737,2.0932 3.164,3.0226 -0.43832,1.3154 -25.494,1.6882 -131.85,1.962 l -131.31,0.33798 0.0483,-10.963 z m 80.147,-57.315 c 1.497,-3.901 0.65877,-6.6467 -6.2384,-20.436 -3.8484,-7.6941 -9.131,-20.564 -11.739,-28.6 -7.8347,-24.141 -12.633,-33.033 -16.005,-29.662 -0.48598,0.48574 -1.2385,7.0463 -1.6723,14.579 -0.56331,9.7821 -1.3463,14.312 -2.7401,15.852 -2.9749,3.2872 -4.5438,12.036 -3.1316,17.462 4.519,17.362 4.83,18.042 7.8963,17.273 2.1534,-0.54048 4.2641,0.39726 8.0913,3.5948 2.8479,2.3793 7.258,4.7085 9.8004,5.1759 2.5423,0.46741 6.2124,2.1749 8.1558,3.7944 4.1179,3.4316 6.5196,3.738 7.5828,0.96735 z m 105.77,-9.2409 c -1.907,-6.6492 -8.0757,-16.872 -10.454,-17.325 -3.0478,-0.58028 -4.0799,0.7021 -5.0754,6.3056 -0.78426,4.4145 -0.59581,4.7544 3.9109,7.0545 2.6042,1.3291 5.8064,3.6014 7.1161,5.0496 3.5962,3.9764 5.8021,3.4448 4.5029,-1.0851 z m -37.55,0.2806 c -0.15885,-3.6494 -5.2599,-14.997 -7.3719,-16.4 -2.4479,-1.6253 -2.5873,-1.4862 -2.5873,2.5823 0,2.9241 1.2857,5.9731 4.0175,9.5275 3.7334,4.8576 6.0389,6.5221 5.9417,4.2897 z m -34.96,-8.357 c 0,-1.9732 -2.6642,-6.9564 -3.7191,-6.9564 -1.7654,0 -1.6132,4.1677 0.21906,6 1.4727,1.4727 3.5,2.0267 3.5,0.95638 z m 24.189,-16.364 c -0.38577,-1.0053 -1.1804,-1.5318 -1.7658,-1.1699 -0.58544,0.36181 -0.7488,1.4804 -0.36304,2.4856 0.38577,1.0053 1.1804,1.5318 1.7658,1.1699 0.58544,-0.36181 0.7488,-1.4804 0.36304,-2.4856 z m 82.06,-6.842 c 0,-0.6875 -0.5625,-1.25 -1.25,-1.25 -0.6875,0 -1.25,0.5625 -1.25,1.25 0,0.6875 0.5625,1.25 1.25,1.25 0.6875,0 1.25,-0.5625 1.25,-1.25 z m -80,-91.097 c 0,-1.5984 -3.6755,-4.3942 -4.5833,-3.4864 -0.90786,0.90786 1.888,4.5833 3.4864,4.5833 0.60332,0 1.097,-0.49362 1.097,-1.0969 z m -8.75,-0.70429 c 0,-0.30318 -0.5625,-0.89887 -1.25,-1.3238 -0.6875,-0.4249 -1.25,-0.17685 -1.25,0.55123 0,0.72807 0.5625,1.3238 1.25,1.3238 0.6875,0 1.25,-0.24805 1.25,-0.55123 z m 25,-1.4575 c 0,-0.27019 -1.1582,-0.49126 -2.5738,-0.49126 -1.4156,0 -2.2413,0.53793 -1.835,1.1954 0.66702,1.0792 4.4087,0.48164 4.4087,-0.70415 z m -1.3382,-43.102 c 2.3076,-4.1057 2.5258,-5.3336 1.2262,-6.8995 -3.9002,-4.6995 -13.973,-6.8755 -21.935,-4.7389 -2.34,0.6279 -2.6305,1.4934 -2.3355,6.9599 0.41802,7.7473 1.7354,9.1144 8.4468,8.7659 2.9211,-0.15168 6.1038,0.24564 7.0727,0.88294 2.6362,1.7339 4.419,0.5564 7.5252,-4.9704 z m -65.278,-20.188 c -0.29899,-1.5549 -0.55498,-0.57707 -0.56885,2.1729 -0.0139,2.75 0.23075,4.0222 0.54362,2.8271 0.31287,-1.1951 0.32422,-3.4451 0.0252,-5 z m 176.62,263.5 c 0,-0.99068 0.58714,-2.1641 1.3048,-2.6076 1.614,-0.99748 5.1736,1.7781 4.2327,3.3005 -1.1195,1.8113 -5.5375,1.2586 -5.5375,-0.69286 z m 9.09,-0.699 c -0.12842,-1.7047 0.58225,-2.5 2.234,-2.5 1.589,0 2.4223,0.86006 2.4223,2.5 0,1.5674 -0.83334,2.5 -2.234,2.5 -1.3379,0 -2.3095,-1.0028 -2.4223,-2.5 z m 1.9814,-140.31 c -0.83206,-1.5469 -1.9013,-4.9219 -2.3761,-7.5 -0.75009,-4.0728 -0.55233,-4.6875 1.5081,-4.6875 3.1073,0 4.2713,3.2286 2.1203,5.8809 -1.173,1.4464 -1.2165,1.8072 -0.13985,1.1603 1.1332,-0.68078 1.5625,0.28372 1.5625,3.51 0,5.1706 -0.58219,5.5268 -2.6749,1.6363 z m -88.57,-2.19 c 0,-0.6875 0.5625,-1.25 1.25,-1.25 0.6875,0 1.25,0.5625 1.25,1.25 0,0.6875 -0.5625,1.25 -1.25,1.25 -0.6875,0 -1.25,-0.5625 -1.25,-1.25 z m 31.875,-17.5 c -0.4249,-0.6875 -0.21004,-1.25 0.47746,-1.25 0.6875,0 1.5976,0.5625 2.0225,1.25 0.4249,0.6875 0.21004,1.25 -0.47746,1.25 -0.6875,0 -1.5976,-0.5625 -2.0225,-1.25 z m 12.769,-26.261 c -1.9146,-0.57536 -10.442,-1.9835 -18.951,-3.1293 -15.369,-2.0697 -15.487,-2.0664 -18.065,0.51225 -2.5514,2.5514 -2.6646,2.5563 -6.6742,0.2905 -3.0452,-1.7208 -4.003,-3.0629 -3.7796,-5.2962 0.42201,-4.22 0.40126,-6.2108 -0.23109,-22.162 -0.47604,-12.008 -0.28564,-14.065 1.2476,-13.477 0.99515,0.38188 1.8094,0.19635 1.8094,-0.41228 0,-0.60863 -0.70312,-1.3577 -1.5625,-1.6646 -0.85937,-0.30692 -1.1693,-0.98133 -0.68881,-1.4987 0.48054,-0.51736 2.695,-0.30574 4.9211,0.47027 5.2927,1.8451 7.1926,-0.10552 2.8647,-2.9412 -2.641,-1.7304 -3.9632,-1.9088 -6.2904,-0.84847 -2.4533,1.1178 -3.1619,0.93997 -4.2335,-1.0622 -1.6479,-3.0792 -3.0928,-16.7 -2.0577,-19.398 0.70927,-1.8484 1.1278,-1.7936 4.0872,0.5342 1.8133,1.4264 4.2055,2.6113 5.3159,2.6331 3.2025,0.0631 5.7797,2.6729 8.2929,8.3978 1.4252,3.2464 3.157,5.3125 4.4531,5.3125 1.1665,0 3.305,0.98438 4.7522,2.1875 3.4873,2.8991 1.7101,5.6507 -3.8,5.8832 -2.2987,0.097 -5.4835,0.89247 -7.0775,1.7676 l -2.8981,1.5912 3.275,3.0352 c 2.4074,2.2311 4.693,3.0352 8.6273,3.0352 6.7269,0 7.7142,-0.97375 4.4791,-4.4174 l -2.5627,-2.7279 3.1708,-2.0776 c 3.1578,-2.069 8.692,-1.7355 10.142,0.61131 0.37782,0.61134 1.7788,1.1115 3.1132,1.1115 1.3344,0 2.4262,0.62808 2.4262,1.3957 0,1.3468 -2.1225,1.1417 -8.4375,-0.81559 -2.4296,-0.75303 -2.8125,-0.41964 -2.8125,2.4487 l 0,3.3204 10.312,-0.80505 c 5.6719,-0.44277 13.688,-0.95451 17.812,-1.1372 4.125,-0.18268 12.844,-1.0208 19.375,-1.8624 6.5312,-0.84165 12.156,-1.5439 12.5,-1.5605 3.5689,-0.17242 3.75,0.73276 3.75,18.742 l 0,18.476 -4.0625,1.6296 c -12.198,4.893 -32.928,6.797 -42.544,3.9075 z m 35.593,-9.5332 c 1.8489,-0.93034 4.2343,-2.9374 5.3009,-4.4602 3.2125,-4.5865 0.53767,-5.5025 -8.9679,-3.0712 -4.6446,1.188 -15.087,2.6429 -23.206,3.2331 -8.1186,0.59022 -15.134,1.4456 -15.589,1.9008 -1.6655,1.6655 3.0368,3.1567 10.35,3.2821 4.125,0.0708 10.312,0.53683 13.75,1.0357 7.3978,1.0737 13.727,0.41176 18.362,-1.9203 z m -13.443,-16.575 c 0.38038,-0.61546 -0.13091,-1.4346 -1.1362,-1.8204 -1.9533,-0.74956 -3.6216,0.80907 -2.2905,2.1401 1.13,1.13 2.6165,0.99135 3.4267,-0.31967 z m -63.04,-36.26 c 0,-1.2023 -3.04,-2.6586 -5.4147,-2.594 -0.80313,0.0219 -0.36837,0.86562 0.96615,1.875 2.7545,2.0834 4.4486,2.3572 4.4486,0.71899 z m 84.56,12.054 c -0.43354,-3.6094 -0.79314,-9.7637 -0.79912,-13.676 -0.006,-3.9126 -0.63965,-7.5023 -1.4082,-7.9773 -0.88203,-0.54512 -1.1213,-2.8772 -0.64891,-6.3238 0.4447,-3.2445 0.25086,-5.4602 -0.47769,-5.4602 -2.0354,0 -1.3751,-5.9253 0.75115,-6.7413 3.7206,-1.4277 5.2103,-0.75767 5.2103,2.3435 0,1.7062 -0.39626,2.8573 -0.88058,2.558 -1.12,-0.69216 -0.81537,3.998 0.33428,5.1477 1.2598,1.2598 1.0502,36.692 -0.21709,36.692 -0.59173,0 -1.4306,-2.9531 -1.8641,-6.5625 z m -45.736,1.8991 c -4.7838,-0.89839 -10.737,-6.1266 -13.203,-11.595 -2.0404,-4.5249 -2.0704,-5.204 -0.31645,-7.1821 1.0654,-1.2016 2.1358,-3.2632 2.3786,-4.5814 1.1404,-6.1904 23.757,-16.038 27.724,-12.071 0.73837,0.73836 2.8353,1.3425 4.66,1.3425 3.9487,0 9.9325,5.1432 9.9325,8.5373 0,1.3236 0.84721,3.1098 1.8827,3.9691 4.2111,3.4949 0.48963,13.474 -6.3478,17.021 -3.016,1.5647 -20.552,5.6666 -22.67,5.3026 -0.54461,-0.0936 -2.3631,-0.42805 -4.041,-0.74317 z m 17.18,-9.3411 c 0.82748,-0.82747 3.0494,-1.5306 4.9375,-1.5625 2.7246,-0.0461 3.9237,-1.0631 5.811,-4.9288 2.6458,-5.4192 2.1283,-7.1115 -3.4473,-11.274 -6.1372,-4.5821 -24.556,-1.5443 -24.556,4.05 0,1.3241 -0.35084,4.1617 -0.77962,6.3057 -0.73022,3.6511 -0.43311,4.0554 4.6875,6.3788 6.2471,2.8346 11.163,3.2144 13.347,1.0311 z m -78.218,6.2701 c 0.77259,-2.3178 3.4635,-2.7022 3.4635,-0.4948 0,1.0886 -0.89062,1.9792 -1.9792,1.9792 -1.08858,0 -1.7565,-0.66797 -1.4844,-1.4844 z m 31.589,-25.454 -5,-1.7464 5,0.68976 c 2.75,0.37936 5.5344,1.2085 6.1875,1.8425 1.6086,1.5615 -0.0819,1.3468 -6.1875,-0.78582 z"
         inkscape:connector-curvature="0"
         style="fill:#aaac57" />
      <path
         id="path4278"
         d="m -688.55,50.188 c 2.0635,-3.762 2.1217,-21.204 0.0731,-21.887 -1.18,-0.397 -1.52,-28.644 -1.52,-127.9 l 0,-127.4 42.364,0 42.364,0 0.66575,2.8125 c 0.36616,1.5469 1.0576,6.6324 1.5366,11.301 1.0533,10.267 4.9925,23.645 6.1265,20.807 0.7926,-1.984 -0.77404,-18.3 -2.7663,-28.81 l -1.0927,-5.7647 28.645,-0.22685 c 21.841,-0.17298 29.119,0.15709 30.641,1.3897 1.6351,1.3245 1.8186,1.3222 1.0157,-0.0127 -0.77907,-1.2952 1.2156,-1.5809 9.7292,-1.3932 5.8901,0.12982 10.409,0.72236 10.041,1.3168 -0.36736,0.5944 -0.0722,1.0807 0.65583,1.0807 0.72808,0 2.3785,1.0547 3.6675,2.3438 1.2891,1.2891 3.1172,2.6183 4.0625,2.9539 0.94531,0.33556 1.2737,1.0853 0.72981,1.666 -1.651,1.7628 -37.485,-3.2135 -39.107,-5.4308 -0.98605,-1.3485 -1.6569,-1.4924 -2.2774,-0.48842 -0.99275,1.6063 1.3903,4.2782 8.4814,9.5094 4.0144,2.9615 5.26,3.3333 7.1705,2.1401 2.8431,-1.7756 4.8461,-1.8557 4.8461,-0.19396 0,0.6875 -0.84375,1.25 -1.875,1.25 -2.2689,0 -2.3926,1.7051 -0.35981,4.9601 2.4228,3.8795 0.30787,4.2694 -4.6998,0.86659 -3.3558,-2.2803 -5.3596,-2.8735 -7.2847,-2.1565 -1.4606,0.54398 -5.3794,1.3892 -8.7086,1.8783 -7.2424,1.064 -15.825,4.568 -18.201,7.4306 -2.3995,2.8912 -0.40607,9.1967 3.9312,12.435 4.5871,3.4248 5.8185,1.716 2.2458,-3.1163 -3.9401,-5.3293 -2.4218,-10.423 3.107,-10.423 3.3714,0 3.6898,0.3513 3.398,3.75 -0.55594,6.4769 2.9434,9.3676 12.041,9.9468 9.7186,0.6187 10.684,0.2653 14.018,-5.129 1.4648,-2.37 3.3043,-4.095 4.0878,-3.8333 2.5025,0.83587 0.79252,8.6613 -2.45,11.212 -4.2538,3.3461 -6.4488,5.6488 -7.0211,7.3658 -0.28788,0.86362 -3.3972,1.5835 -7.4533,1.7257 -8.771,0.30738 -9.776,0.96564 -9.776,6.403 0,3.3968 0.58991,4.5725 2.5516,5.0855 1.7321,0.45295 2.4346,1.5194 2.1875,3.3205 -0.27634,2.0138 0.38906,2.7498 2.7609,3.0542 2.9582,0.37953 6.25,3.2568 6.25,5.463 0,1.6735 -5.4534,1.0614 -8.0514,-0.90366 -3.0918,-2.3385 -4.4486,-2.3264 -4.4486,0.0397 0,2.4826 -1.5079,2.3646 -6.491,-0.50828 -5.5748,-3.214 -21.037,-9.2557 -21.781,-8.511 -0.32851,0.32851 4.2692,3.0548 10.217,6.0583 7.6304,3.8532 11.42,6.5651 12.872,9.211 1.1319,2.0625 2.5694,4.1198 3.1946,4.5718 1.8762,1.3566 4.7281,-0.39502 4.1628,-2.5567 -0.40374,-1.5439 0.5227,-2.0806 3.9618,-2.295 7.939,-0.49493 19.301,-0.32418 19.925,0.29942 1.3496,1.3496 -1.272,2.1682 -6.6013,2.0613 -3.7739,-0.0757 -5.9804,0.49921 -6.6743,1.7392 -0.67709,1.2099 -3.9877,2.128 -9.5449,2.6469 -6.4273,0.60019 -9.3928,1.5388 -12.125,3.8374 -4.7724,4.0157 -4.5666,5.5941 0.67055,5.1429 2.6044,-0.22439 5.1799,0.41472 6.5625,1.6285 1.2516,1.0988 3.9632,2.8533 6.0257,3.8989 2.0625,1.0456 5.8625,3.9561 8.4445,6.4677 3.648,3.5486 4.53,5.2221 3.9566,7.5069 -0.42074,1.6763 0.0625,4.1999 1.124,5.8705 1.0241,1.6116 2.2631,5.9816 2.7533,9.711 1.1325,8.6161 3.9441,13.687 9.6747,17.448 5.1638,3.3892 12.644,17.257 14.037,26.025 0.81242,5.1126 0.71646,5.3034 -3.5656,7.0926 -4.7857,1.9996 -6.3873,6.1865 -5.5832,14.595 0.31533,3.2973 0.98008,4.278 2.9087,4.291 2.5726,0.0175 13.051,6.7806 13.098,8.4544 0.0146,0.51562 -7.1452,0.94805 -15.911,0.96094 -12.812,0.01887 -18.144,0.61179 -27.188,3.0236 -15.726,4.1939 -21.54,6.4487 -25.74,9.9832 -6.2341,5.2456 -18.405,10.69 -29.682,13.279 -5.955,1.3667 -12.308,3.0784 -14.118,3.8038 -3.3535,1.3441 -10.713,8.215 -9.7432,9.0963 0.83452,0.75829 20.896,-5.2068 29.909,-8.893 4.4688,-1.8277 11.781,-5.5167 16.25,-8.1977 10.744,-6.446 18.727,-9.515 22.75,-8.746 1.8039,0.34484 11.028,-0.34612 20.498,-1.5355 28.811,-3.6185 39.976,-1.5306 52.822,9.8778 7.2111,6.4045 22.162,13.973 38.777,19.63 8.9642,3.0518 12.935,3.6928 23.591,3.8084 l 12.82,0.162 0,5 c 0,4.6162 -0.21589,4.9315 -2.8125,4.1078 -6.569,-2.0839 -25.614,-2.2073 -31.746,-0.20568 -3.3368,1.0893 -8.5982,1.9861 -11.692,1.9928 -13.177,0.02863 -15.668,0.23106 -16.802,1.366 -0.66,0.658 -2.21,1.197 -3.45,1.197 -1.2375,0 -2.25,0.59786 -2.25,1.3286 0,0.73071 -0.98437,1.1622 -2.1875,0.9589 -1.2031,-0.20331 -3.5783,0.60508 -5.2781,1.7964 -1.6998,1.1914 -4.5123,2.1832 -6.25,2.2041 -2.758,0.03312 -2.8802,0.20057 -0.96196,1.3176 1.2086,0.7038 2.7166,0.95878 3.3511,0.5666 0.63455,-0.39218 1.4622,-0.21399 1.8391,0.39596 0.3874,0.62681 -9.1747,1.2039 -21.992,1.3273 -17.396,0.16745 -22.917,-0.15888 -23.705,-1.4011 -0.79244,-1.2492 -1.0317,-1.2622 -1.0464,-0.05687 -0.0113,0.9053 -1.6274,1.5625 -3.8429,1.5625 -2.6962,0 -3.5636,-0.46078 -2.9416,-1.5625 0.70572,-1.25 0.54548,-1.25 -0.80123,0 -1.3067,1.2129 -17.998,1.5625 -74.602,1.5625 l -72.919,0 1.5426,-2.8125 z m 82.04,-62.225 c 0.3162,-4.8425 -0.80591,-8.0463 -7.7469,-22.119 -4.4642,-9.0507 -9.7557,-21.69 -11.759,-28.087 -4.5841,-14.639 -11.117,-30.392 -13.385,-32.274 -3.4983,-2.9033 -6.7755,3e-4 -11.756,10.416 -12.164,25.438 -11.341,52.436 2.0404,66.943 3.0489,3.3054 5.3448,4.9802 5.358,3.9087 0.0127,-1.0312 1.3974,-2.5122 3.0772,-3.291 2.5453,-1.1801 3.4089,-1.0239 5.184,0.9375 1.1714,1.2944 2.9828,2.3535 4.0252,2.3535 1.0424,0 2.924,0.93092 4.1813,2.0687 2.1271,1.925 2.2859,1.925 2.2859,0 0,-1.1378 0.21255,-2.0687 0.47235,-2.0687 1.7882,0 9.4042,3.9701 10.768,5.6131 0.91636,1.1042 2.8403,1.8398 4.2755,1.6347 2.1401,-0.30578 2.6759,-1.3913 2.9792,-6.0355 z m 66.51,-9.88 c 0,-1.248 -0.83791,-4.644 -1.862,-7.5466 -1.7735,-5.0265 -1.7437,-5.3085 0.625,-5.9279 3.4471,-0.90145 3.107,-2.4438 -0.82823,-3.7556 -2.6135,-0.87115 -3.6602,-2.4147 -4.9448,-7.2917 -0.89625,-3.4026 -1.6544,-7.707 -1.6847,-9.5653 -0.0304,-1.8583 -0.74726,-4.8977 -1.5932,-6.7542 -1.3402,-2.9415 -1.2369,-3.5518 0.80351,-4.7463 1.2878,-0.75392 3.9178,-2.8685 5.8443,-4.699 2.9516,-2.8045 3.5166,-4.3782 3.5902,-10 0.11113,-8.4852 -1.8763,-20.973 -3.6146,-22.711 -0.84099,-0.84099 -1.7547,-0.89579 -2.4675,-0.148 -2.5847,2.7114 -8.6304,15.396 -8.6653,18.181 -0.10038,8.0146 -1.3873,19.704 -2.6006,23.623 -2.0997,6.7816 -1.6196,13.929 1.2522,18.64 2.2949,3.7643 2.4324,4.9019 1.1891,9.8394 -1.2164,4.8308 -1.1101,5.9097 0.78879,8.008 1.207,1.3338 3.1451,2.1764 4.3068,1.8727 1.302,-0.34048 3.1431,0.84206 4.7998,3.0828 2.8126,3.8042 5.0614,3.7593 5.0614,-0.101 z m -35,-8.6469 c 0,-3.8567 -2.561,-9.9425 -4.4966,-10.685 -1.1543,-0.44294 -2.7238,0.78002 -4.283,3.3373 -3.4449,5.65 -3.1703,8.1393 0.96707,8.7661 7.0152,1.0627 7.8125,0.91797 7.8125,-1.4182 z m 0,-49.754 c 0,-0.96865 0.76957,-2.0565 1.7102,-2.4174 2.2337,-0.85715 9.5398,-12.155 9.5398,-14.752 0,-4.2072 -6.4322,-2.0619 -14.619,4.8758 -11.836,10.03 -14.639,13.103 -13.236,14.507 0.95066,0.95066 2.8701,-0.32416 6.6305,-4.4037 5.5334,-6.0031 9.9741,-7.5145 9.9741,-3.3947 0,1.2908 -0.84375,3.0472 -1.875,3.903 -1.0312,0.85586 -1.875,2.6811 -1.875,4.0561 0,2.0805 0.31463,2.2389 1.875,0.94389 1.0312,-0.85586 1.875,-2.3486 1.875,-3.3173 z m 10.9,-60.245 c 2.0506,-0.60068 2.478,-1.2901 1.6371,-2.6409 -0.9667,-1.553 -2.2418,-1.6 -8.4753,-0.3125 -9.3158,1.9242 -15.648,1.9297 -17.562,0.0155 -0.825,-0.825 -1.5031,-4.3406 -1.507,-7.8125 -0.0114,-10.293 -3.0901,-18.528 -5.4809,-14.659 -0.34949,0.56549 0.17981,4.9246 1.1762,9.687 0.99642,4.7624 1.8117,10.112 1.8117,11.888 0,1.7763 0.375,3.6046 0.83333,4.063 1.0516,1.0516 23.841,0.86249 27.567,-0.22877 z m 5.616,-14.594 c 0.10563,-1.64 -5.4407,-4.3833 -6.9616,-3.4433 -0.66561,0.41137 0.0913,1.8018 1.6819,3.0899 2.9522,2.3906 5.139,2.537 5.2797,0.35348 z m -95.266,-11.926 c 0,-2.5422 -2.5976,-6.1678 -4.419,-6.1678 -2.1529,0 -2.335,1.7228 -0.53704,5.0822 1.3686,2.5573 4.956,3.3431 4.956,1.0856 z m 6.3672,-4.0506 c -0.98963,-0.98964 -1.3672,-0.66529 -1.3672,1.1744 0,3.3047 1.7481,5.0588 2.3047,2.3127 0.23635,-1.166 -0.18552,-2.7352 -0.9375,-3.4871 z m 85.508,-0.85011 c 0,-1.0218 -1.0114,-2.0527 -2.2476,-2.2907 -2.6581,-0.51191 -6.1649,2.0472 -5.1206,3.7369 1.154,1.8673 7.3682,0.64764 7.3682,-1.4462 z m -84.375,-18.04 c 0,-0.28752 -0.34143,-1.4125 -0.75874,-2.5 -1.0718,-2.793 -2.9913,-2.4575 -2.9913,0.52277 0,1.3889 0.83333,2.5 1.875,2.5 1.0312,0 1.875,-0.23524 1.875,-0.52277 z m -23.823,-5.2598 c 3.187,-5.4015 2.6743,-6.3306 -2.3457,-4.2513 -3.7683,1.5609 -5.9136,5.1764 -4.4636,7.5226 1.5254,2.4681 4.1735,1.1959 6.8092,-3.2714 z m 17.141,-1.1464 c 0.93971,-2.4488 0.78125,-2.563 -5.0124,-3.6115 -5.5358,-1.0019 -5.9449,1.2873 -0.70754,3.9595 3.9621,2.0215 4.831,1.9687 5.7199,-0.34798 z m 101.63,-16.256 c -1.8304,-2.2055 -6.3726,-1.9684 -7.1437,0.37282 -0.34958,1.0615 0.97076,1.5625 4.1176,1.5625 4.04,0 4.4269,-0.24744 3.026,-1.9353 z m -7.4499,-9.8659 c 0,-1.3193 -2.3989,-1.8736 -3.1124,-0.71916 -0.43182,0.69871 0.0918,1.2704 1.1636,1.2704 1.0718,0 1.9488,-0.24805 1.9488,-0.55123 z m 77.5,274.34 c 0,-0.66591 0.84375,-0.88699 1.875,-0.49126 1.0312,0.39574 1.875,0.94058 1.875,1.2108 0,0.27019 -0.84375,0.49126 -1.875,0.49126 -1.03125,0 -1.875,-0.54485 -1.875,-1.2108 z m -208.4,-11.905 c 0.009,-3.4375 0.25214,-4.6954 0.53946,-2.7953 0.28731,1.9001 0.27964,4.7126 -0.0171,6.25 -0.2967,1.5374 -0.53178,-0.01719 -0.52239,-3.4547 z m 269.51,-36.171 c -0.30045,-0.30046 -7.5661,-1.4406 -16.146,-2.5335 -11.252,-1.4334 -20.128,-3.5212 -31.85,-7.4912 -8.9375,-3.0271 -19.062,-5.8964 -22.5,-6.3762 -8.476,-1.183 -10.625,-2.5006 -10.625,-6.5145 0,-1.8556 -1.5021,-6.2427 -3.3381,-9.7493 -4.075,-7.7831 -3.3995,-10.539 2.5832,-10.539 3.3826,0 5.008,-0.8745 7.4682,-4.0181 l 3.1446,-4.0181 1.321,3.4744 c 0.72655,1.911 1.321,5.6447 1.321,8.2972 0,5.0188 4.8322,12.515 8.0675,12.515 0.87742,0 3.072,1.1616 4.8768,2.5812 6.0559,4.7636 7.6568,-0.25404 3.2094,-10.059 -1.3977,-3.0814 -3.4422,-6.598 -4.5432,-7.8146 -1.8402,-2.0334 -1.8126,-2.5638 0.34247,-6.5654 1.8307,-3.3994 2.572,-3.9467 3.3828,-2.4978 0.57111,1.0205 2.0981,1.8555 3.3932,1.8555 2.722,0 3.7594,-4.7488 2.2852,-10.462 -0.50904,-1.9728 -0.59889,-5.97 -0.19966,-8.8826 0.51094,-3.7277 -0.0574,-7.5018 -1.9194,-12.746 -3.3361,-9.3964 -3.3163,-11.192 0.13296,-12.094 3.3384,-0.87301 13.51,4.6873 14.334,7.8352 0.30402,1.1626 2.0626,2.6877 3.908,3.3892 2.7064,1.0288 3.6518,2.5525 4.8889,7.8791 1.0283,4.4276 1.1313,7.3555 0.3125,8.8854 -0.67163,1.255 -1.2212,4.1137 -1.2212,6.3528 0,3.8965 0.0842,3.967 1.9626,1.6447 1.832,-2.2649 1.9162,-2.0267 1.2648,3.5776 -0.4703,4.0462 -0.1297,6.8995 1.0445,8.75 0.95831,1.5103 2.4532,6.006 3.3219,9.9905 0.86874,3.9845 2.0468,7.5333 2.6178,7.8863 0.57108,0.35295 1.0383,2.2257 1.0383,4.1617 0,3.0021 0.5057,3.5227 3.4375,3.5386 1.8906,0.01 4.0966,-0.51426 4.902,-1.1655 1.9078,-1.5425 6.2863,1.1438 7.1313,4.3751 0.46488,1.7777 1.3553,2.2252 3.376,1.6968 3.9946,-1.0446 7.31,3.4929 7.3615,10.075 l 0.04,5.313 -4.7917,0 c -2.6354,0 -5.0375,-0.24582 -5.338,-0.54628 z m -57.821,-61.571 c -1.4077,-1.4077 -0.85736,-2.8827 1.0756,-2.8827 1.0312,0 1.875,0.5293 1.875,1.1762 0,1.5762 -1.952,2.7051 -2.9506,1.7065 z m -36.886,-54.125 c -3.6656,-2.7543 -7.4748,-5.0078 -8.4648,-5.0078 -0.99007,0 -3.4385,-1.2113 -5.4409,-2.6917 -4.5593,-3.3709 -3.4486,-6.1603 3.5715,-8.9692 9.8492,-3.9409 19.153,2.1086 18.674,12.141 -0.13533,2.8295 0.005,5.9179 0.31295,6.8632 1.1189,3.44 -2.1339,2.5619 -8.6523,-2.336 z m 57.135,-25.527 c -2.5168,-0.97474 -10.392,-2.3933 -17.5,-3.1523 -7.1082,-0.75905 -15.996,-2.1091 -19.75,-3.0001 l -6.8265,-1.62 -1.5339,-8.0414 c -3.0041,-15.749 -2.525,-16.558 10.037,-16.942 5.1701,-0.15808 16.881,-0.97517 26.025,-1.8158 9.1438,-0.84058 19.438,-1.6584 22.875,-1.8173 3.4375,-0.15891 12.395,-1.2007 19.905,-2.315 7.5103,-1.1144 13.838,-2.0261 14.062,-2.0261 0.22407,0 0.40741,5.3297 0.40741,11.844 l 0,11.844 -3.7015,-0.74029 c -2.0358,-0.40716 -7.5202,0.15247 -12.188,1.2436 -6.8244,1.5954 -42.312,5.8218 -48.799,5.8116 -2.6669,-0.004 -1.7265,1.8616 2.0679,4.103 2.6593,1.5709 6.4587,2.1445 14.204,2.1445 5.8157,0 13.604,0.58537 17.307,1.3008 3.7032,0.71545 9.5456,0.93801 12.983,0.49459 5.4136,-0.69833 7.0446,-1.6442 12.188,-7.0679 l 5.9375,-6.2617 0,4.9904 c 0,5.4552 0.25318,5.2697 -13.125,9.6169 -8.8095,2.8626 -28.725,3.6731 -34.576,1.4071 z m 21.278,-20.676 c 2.3108,-1.9766 3.8245,-4.2037 3.3637,-4.9492 -1.3811,-2.2347 -6.2283,-1.5324 -7.9001,1.1445 -0.8587,1.375 -2.4002,2.5 -3.4257,2.5 -1.8945,0 -2.5498,2.648 -1.0311,4.1667 1.673,1.673 4.887,0.65023 8.9931,-2.862 z m -107.68,-3.3536 c -1.902,-0.99657 -3.9685,-1.4966 -4.5922,-1.1111 -1.9516,1.2062 -2.8528,-1.852 -1.1503,-3.9034 1.2258,-1.477 2.9748,-1.7685 7.1656,-1.1941 3.421,0.4689 6.2035,0.21257 7.2662,-0.66941 2.053,-1.7038 2.3142,-1.4731 3.3848,2.9894 0.69917,2.9145 0.42814,3.4375 -1.7813,3.4375 -1.4333,0 -3.5574,0.50918 -4.7202,1.1315 -1.3963,0.7473 -3.2885,0.51624 -5.5725,-0.68045 z m 44.72,-12.95 c -0.97773,-1.582 0.67704,-1.582 3.125,0 1.6159,1.0442 1.5829,1.2144 -0.23872,1.2309 -1.1626,0.0105 -2.4614,-0.54336 -2.8863,-1.2309 z m 86.47,-19.688 c -0.30374,-8.0781 -0.75869,-16.076 -1.011,-17.773 -0.33871,-2.2785 0.185,-3.2157 2.0015,-3.5817 2.1365,-0.43047 2.2397,-0.23003 0.78444,1.5235 -0.92166,1.1105 -1.1028,2.0192 -0.40256,2.0192 0.78949,0 1.3434,6.1736 1.458,16.25 0.23568,20.725 -2.0621,21.993 -2.8303,1.5625 z m -74.959,10.157 c -0.48733,-0.48734 -0.88606,-1.3922 -0.88606,-2.0108 0,-1.5256 6.2569,-0.65711 6.6014,0.91636 0.32249,1.4732 -4.4271,2.3826 -5.7153,1.0944 z m 29.075,-1.6204 c -5.5998,-1.7461 -8.8634,-4.3674 -11.294,-9.0711 -2.315,-4.4804 -2.3169,-4.7278 -0.0739,-9.7379 1.2748,-2.8473 4.5302,-6.7796 7.2971,-8.8144 5.9998,-4.4123 16.497,-7.0431 20.198,-5.0621 1.3736,0.73509 3.597,1.3365 4.9411,1.3365 2.8418,0 8.7352,4.3937 7.5243,5.6096 -0.45173,0.45362 -2.5332,-0.0605 -4.6254,-1.1424 -7.3271,-3.789 -23.084,-1.2309 -24.699,4.0098 -0.36402,1.1814 -1.1764,3.1138 -1.8054,4.2942 -1.9725,3.7019 0.84691,8.3837 6.6292,11.008 6.2315,2.8285 9.8832,3.0212 16.114,0.85024 6.1469,-2.1417 8.4058,-4.223 9.6047,-8.8494 0.55659,-2.1479 1.5387,-3.7944 2.1825,-3.6588 2.0945,0.44103 2.0059,3.9325 -0.2189,8.6208 -1.6519,3.4811 -3.7119,5.2655 -8.5196,7.3798 -7.1338,3.1372 -18.49,4.7129 -23.255,3.2269 z m -47.45,-3.85 c 0,-0.6875 0.5293,-1.25 1.1762,-1.25 0.64692,0 1.5239,0.5625 1.9488,1.25 0.4249,0.6875 -0.10437,1.25 -1.1762,1.25 -1.07183,0 -1.9488,-0.5625 -1.9488,-1.25 z m 10.911,-0.16498 c -2.5869,-1.4477 -2.8486,-3.585 -0.43885,-3.585 2.1434,0 5.0178,3.2998 3.6246,4.1608 -0.56369,0.34838 -1.9972,0.0893 -3.1857,-0.57583 z m -11.402,-5.5622 c -0.41731,-1.0875 -0.75874,-3.0307 -0.75874,-4.3182 0,-2.0741 0.35893,-1.982 3.1489,0.80795 3.1522,3.1522 3.1676,5.4875 0.0361,5.4875 -0.91712,0 -2.0089,-0.88975 -2.4262,-1.9772 z m -17.843,-2.8221 c -2.4626,-3.9432 0.0281,-5.6097 3.1014,-2.0751 3.3064,3.8027 3.3762,4.3744 0.53389,4.3744 -1.2096,0 -2.8455,-1.0347 -3.6353,-2.2994 z m 14.093,-24.678 c -1.1124,-2.8988 -0.93069,-4.2728 0.56504,-4.2728 0.72807,0 0.97612,0.5625 0.55122,1.25 -0.4249,0.6875 -0.17685,1.25 0.55123,1.25 0.72807,0 1.3238,0.84375 1.3238,1.875 0,2.4754 -2.0288,2.406 -2.9913,-0.10223 z m 5.49,-3.03 c 0,-0.6875 0.5625,-1.25 1.25,-1.25 0.6875,0 1.25,0.5625 1.25,1.25 0,0.6875 -0.5625,1.25 -1.25,1.25 -0.6875,0 -1.25,-0.5625 -1.25,-1.25 z"
         inkscape:connector-curvature="0"
         style="fill:#6e8e40" />
      <path
         id="path4276"
         d="m -687.38,48.381 c 1.31,-2.563 2.38,-6.304 2.38,-8.313 0,-4.654 -2.57,-13.318 -3.95,-13.318 -0.58,0 -1.05,-26.109 -1.05,-58.021 0,-45.247 0.344,-58.16 1.5625,-58.651 1.25,-0.50439 1.25,-0.65021 0,-0.72916 -2.2402,-0.14149 -2.2402,-33.367 0,-34.271 1.25,-0.50439 1.25,-0.65022 0,-0.72917 -1.2227,-0.0772 -1.5625,-11.11 -1.5625,-50.724 l 0,-50.625 42.423,0 42.423,0 0.64752,5.3125 c 0.35614,2.9219 0.97201,8.125 1.3686,11.562 0.3966,3.4375 1.788,9.3428 3.092,13.123 2.3649,6.8554 2.3743,6.8639 3.708,3.3561 1.6891,-4.4427 1.7056,-7.1039 0.044,-7.1039 -0.81637,0 -1.0117,-2.1889 -0.52993,-5.9375 0.53217,-4.1405 0.148,-7.3892 -1.2694,-10.734 -2.7718,-6.5415 -1.2977,-8.0052 7.7743,-7.7198 3.9562,0.12445 8.1774,-0.3781 9.3805,-1.1168 1.5833,-0.97211 2.8408,-0.93508 4.5527,0.13408 1.3009,0.81241 2.7542,1.0883 3.2295,0.61318 1.5236,-1.523 10.638,-1.0995 9.3646,0.43502 -0.70927,0.85461 -0.43997,2.3683 0.71462,4.0167 1.3957,1.9926 1.4854,2.8724 0.36355,3.5657 -0.87864,0.54303 -2.228,-0.19213 -3.2909,-1.7929 -1.9978,-3.0089 -7.7467,-3.7446 -7.7467,-0.99142 0,0.94707 0.86759,2.442 1.928,3.322 1.3376,1.1101 1.529,1.9991 0.625,2.903 -0.71664,0.71664 -1.303,2.9427 -1.303,4.9467 0,3.4788 0.12735,3.5622 2.8125,1.8436 2.1482,-1.375 5.3221,-1.6251 13.438,-1.0591 10.675,0.74461 10.691,1.5981 0.0605,3.2578 -6.8023,1.062 -15.143,4.5263 -17.376,7.2169 -2.1915,2.6406 -0.85099,8.5125 2.8566,12.513 6.1524,6.6386 27.673,5.448 34.648,-1.9168 3.7933,-4.0054 4.811,-4.3227 4.811,-1.5004 0,1.0994 -2.5398,4.3979 -5.644,7.3301 -4.816,4.5492 -6.6686,5.4517 -12.628,6.1522 -3.8414,0.45148 -9.6028,0.47355 -12.803,0.049 -4.908,-0.65107 -6.1896,-0.36173 -8.1903,1.849 -2.2617,2.4991 -2.2703,2.733 -0.18564,5.0365 1.2024,1.3286 2.8566,2.1584 3.6761,1.844 1.5606,-0.59886 12.025,6.8048 12.025,8.5078 0,1.4355 -1.7825,1.2 -3.4364,-0.45394 -0.79005,-0.79004 -3.5744,-1.8092 -6.1875,-2.2649 -2.8679,-0.50009 -4.6149,-1.454 -4.4076,-2.4065 0.2162,-0.99327 -0.24699,-1.2105 -1.25,-0.58616 -1.9422,1.2089 -7.3103,0.63825 -9.2947,-0.98806 -0.88863,-0.72829 -1.7295,-0.73911 -2.169,-0.0279 -1.536,2.4853 -7.2649,2.4498 -9.7753,-0.0606 -4.0726,-4.0726 -5.522,-1.1449 -3.7296,7.5334 0.82505,3.9945 1.5001,9.2693 1.5001,11.722 0,6.6547 1.9082,7.5266 15.474,7.0699 6.5164,-0.21936 12.148,-0.0988 12.515,0.26787 0.36669,0.36669 -0.15586,2.2522 -1.1612,4.19 -2.4824,4.7849 -2.451,4.8338 2.7236,4.2297 4.2639,-0.49778 5.1269,0.0554 13.657,8.7531 5.0081,5.1065 8.8337,9.9929 8.5015,10.859 -0.33226,0.86585 -3.8061,2.1551 -7.7196,2.8649 -13.255,2.4043 -20.789,5.0752 -22.706,8.0499 -1.0123,1.5708 -4.0672,4.8248 -6.7887,7.2311 -2.7215,2.4062 -6.9535,6.2537 -9.4045,8.55 l -4.4564,4.175 3.5235,3.0308 c 3.173,2.7293 3.3999,3.433 2.2812,7.075 -1.2698,4.1341 -1.1823,11.593 0.15176,12.927 1.1321,1.1321 3.4086,-0.67568 3.4086,-2.7068 0,-1.2217 1.3934,-1.8012 4.331,-1.8012 4.3544,0 7.1796,-2.7151 6.0591,-5.823 -0.28714,-0.79638 0.0701,-1.8139 0.79391,-2.2613 0.75856,-0.46881 1.316,0.27688 1.316,1.7604 0,1.4156 0.55495,2.5738 1.2332,2.5738 1.6187,0 5.2184,8.6625 4.2505,10.229 -0.4123,0.66712 0.43518,2.3168 1.8833,3.6659 1.44812,1.3491 2.6329,3.6756 2.6329,5.1698 0,1.4943 1.4162,3.863 3.1472,5.2638 2.7483,2.2242 3.0009,3.0482 1.993,6.5024 -0.97612,3.3452 -0.72606,4.3576 1.6209,6.5625 1.5263,1.4339 3.6849,2.6071 4.7969,2.6071 2.5063,0 7.9056,7.3215 6.4082,8.6896 -0.60016,0.54835 -6.435,2.4954 -12.966,4.3267 -6.5312,1.8313 -14.969,5.2096 -18.75,7.5074 -11.569,7.0302 -19.419,10.575 -29.613,13.371 -5.3689,1.4729 -12.574,4.4462 -16.012,6.6074 -3.4375,2.1611 -7.7969,4.6076 -9.6875,5.4367 -4.2016,1.8424 -4.593,5.3109 -0.59935,5.3109 5.9239,0 45.328,-13.948 51.381,-18.188 1.42,-0.9926 3.3,-1.808 4.18,-1.808 2.2036,0 2.01,4.351 -0.27813,6.25 -1.0312,0.85586 -1.875,2.3449 -1.875,3.309 0,0.96408 -1.2776,2.2386 -2.839,2.8323 -3.4745,1.321 -6.5324,6.6863 -5.4373,9.5402 0.6529,1.7014 1.1576,1.8082 2.6589,0.56224 1.0192,-0.84584 3.3867,-1.2447 5.2612,-0.88635 1.8745,0.35834 5.6746,-0.23166 8.4447,-1.3111 7.5293,-2.934 23.25,-14.116 24.512,-17.434 0.6078,-1.5986 2.5759,-3.4658 4.3735,-4.1492 1.7976,-0.68345 3.5518,-2.3264 3.8982,-3.651 1.1641,-4.4516 20.46,-6.6507 32.268,-3.6775 3.5967,0.90565 7.5503,3.3239 11.438,6.9962 6.7573,6.3829 26.798,16.5 45.422,22.931 10.482,3.6194 13.378,4.0944 24.688,4.0493 12.768,-0.05088 12.812,-0.0405 12.812,3.0033 0,2.3175 -0.52778,2.9012 -2.1875,2.4196 -10.268,-2.9797 -13.071,-3.1972 -25.412,-1.9708 -12.937,1.2856 -41.869,1.6632 -43.639,0.56949 -1.6727,-1.0338 -15.614,2.3847 -16.675,4.0888 -0.74261,1.1925 -1.4902,1.2926 -2.6243,0.35136 -1.1238,-0.93262 -3.371,-0.77464 -7.7116,0.54215 -8.1464,2.4713 -18.466,2.4624 -20.524,-0.01788 -0.86874,-1.0468 -2.514,-1.6066 -3.6561,-1.2441 -1.1421,0.3625 -3.1721,-0.16941 -4.511,-1.182 -3.2373,-2.4483 -12.415,-2.3982 -20.024,0.10925 -9.1522,3.0158 -12.249,8.1551 -6.2816,10.424 8.8336,3.3585 3.1158,3.7125 -60.957,3.774 l -65.548,0.06287 2.3756,-4.6597 z m 84.145,-57.143 c 0.47136,-1.743 -2.7822,-9.8999 -9.7675,-24.488 -5.7609,-12.031 -11.998,-26.938 -13.861,-33.125 -1.8627,-6.1875 -5.2816,-15.367 -7.5976,-20.4 -3.893,-8.4588 -4.4735,-9.1193 -7.6895,-8.75 -2.9759,0.34176 -4.2215,1.8808 -8.6185,10.649 -12.539,25.004 -11.854,53.074 1.6533,67.717 3.0489,3.3054 5.3448,4.9802 5.358,3.9087 0.0127,-1.0312 1.3974,-2.5122 3.0772,-3.291 2.5453,-1.1801 3.4089,-1.0239 5.184,0.9375 1.1714,1.2944 2.9828,2.3535 4.0252,2.3535 1.0424,0 2.924,0.93092 4.1813,2.0687 2.1271,1.925 2.2859,1.925 2.2859,0 0,-1.1378 0.21255,-2.0687 0.47235,-2.0687 1.7354,0 9.3834,3.945 10.682,5.5103 2.4227,2.9191 9.7392,2.2148 10.614,-1.0218 z m 28.864,-18.263 c 1.26,-3.93 -2.86,-14.975 -5.58,-14.975 -2.8264,0 -6.2933,5.1404 -6.2933,9.331 0,2.5774 0.6052,3.169 3.242,3.169 2.1908,0 3.454,0.81065 3.8958,2.5 0.84613,3.2356 3.715,3.2205 4.7451,-0.025 z m -21.11,-29.663 c 0.9133,-1.2031 1.6784,-3.4729 1.7003,-5.044 0.0219,-1.5711 0.94819,-4.2429 2.0585,-5.9375 1.8638,-2.8446 1.8608,-3.081 -0.0392,-3.081 -1.1319,0 -2.4274,0.98438 -2.8788,2.1875 -0.45144,1.2031 -1.5234,2.75 -2.3821,3.4375 -2.2808,1.826 -3.6746,10.625 -1.683,10.625 0.8601,0 2.3111,-0.98438 3.2244,-2.1875 z m 19.24,-0.937 c 0,-1.0312 -0.5625,-1.875 -1.25,-1.875 -0.6875,0 -1.25,0.84375 -1.25,1.875 0,1.03125 0.5625,1.875 1.25,1.875 0.6875,0 1.25,-0.84375 1.25,-1.875 z m -79.331,-48.196 c 1.2884,-2.0846 -0.52721,-7.429 -2.5237,-7.429 -0.99397,0 -2.4238,-1.152 -3.1773,-2.5601 -0.94557,-1.7668 -2.1177,-2.3228 -3.7828,-1.7943 -1.327,0.42117 -3.1208,0.32339 -3.9864,-0.21727 -0.86553,-0.54067 -2.3262,-1.097 -3.2458,-1.2362 -0.91967,-0.13922 -2.6515,-1.1394 -3.8484,-2.2226 -2.4491,-2.2164 -6.3544,-2.6396 -6.3544,-0.68857 0,0.70452 1.3495,1.794 2.9989,2.4211 1.6494,0.62709 3.783,2.2597 4.7414,3.628 0.95842,1.3684 3.2219,3.1619 5.03,3.9857 1.8081,0.82381 3.6226,2.8335 4.0324,4.466 0.60257,2.4008 1.5626,2.9682 5.0224,2.9682 2.3526,0 4.6448,-0.59447 5.0939,-1.321 z m 79.331,-5.4802 c 0,-1.9908 -2.268,-3.8475 -3.3626,-2.7528 -1.0283,1.0283 0.5769,4.5541 2.0734,4.5541 0.70908,0 1.2892,-0.81055 1.2892,-1.8012 z m -77.5,-55.781 c 0,-2.5422 -2.5976,-6.1678 -4.419,-6.1678 -2.1529,0 -2.335,1.7228 -0.53704,5.0822 1.3686,2.5573 4.956,3.3431 4.956,1.0856 z m 6.3672,-4.0506 c -0.98963,-0.98964 -1.3672,-0.66529 -1.3672,1.1744 0,3.3047 1.7481,5.0588 2.3047,2.3127 0.23635,-1.166 -0.18552,-2.7352 -0.9375,-3.4871 z m 1.7356,-17.093 c 2.1768,-2.4053 2.0978,-2.618 -2.7842,-7.5 -3.9818,-3.9818 -5.9468,-5.0245 -9.4689,-5.0245 -3.6066,0 -4.4104,0.45081 -4.2642,2.3914 0.10337,1.3721 1.935,3.2283 4.2973,4.3548 3.0452,1.4522 4.1172,2.7823 4.1172,5.1086 0,2.4661 0.63289,3.1452 2.9313,3.1452 1.6122,0 3.9394,-1.114 5.1716,-2.4755 z m -24.426,-7.057 c 3.187,-5.4015 2.6743,-6.3306 -2.3457,-4.2513 -3.7683,1.5609 -5.9136,5.1764 -4.4636,7.5226 1.5254,2.4681 4.1735,1.1959 6.8092,-3.2714 z m 88.511,-3.905 c 0.28614,-0.85937 -0.38802,-1.5625 -1.4981,-1.5625 -1.11008,0 -2.3422,-0.84375 -2.7379,-1.875 -0.91627,-2.3878 -2.4814,-2.4045 -3.3902,-0.0362 -0.38809,1.0114 0.1825,2.727 1.268,3.8124 2.2135,2.2135 5.568,2.0348 6.3582,-0.33876 z m 4.0619,-7.9462 c 0,-1.797 -2.1689,-1.2821 -2.9276,0.69508 -0.46457,1.2106 -0.0944,1.5808 1.1163,1.1163 0.99624,-0.3823 1.8113,-1.1974 1.8113,-1.8114 z m -112.26,248.26 c 0.0255,-2.0625 0.30562,-2.7549 0.62255,-1.5387 0.31693,1.2162 0.29608,2.9037 -0.0463,3.75 -0.3424,0.84629 -0.60171,-0.14879 -0.57623,-2.2113 z m 257.26,-40.037 c -15.866,-2.2323 -23.826,-4.0529 -34.498,-7.89 -7.6304,-2.7435 -16.63,-5.3622 -20,-5.8193 -3.3696,-0.45712 -7.9547,-1.3917 -10.189,-2.0769 -3.4893,-1.07 -4.0625,-1.8162 -4.0625,-5.289 0,-2.2238 -1.125,-6.3718 -2.5,-9.2177 -3.3647,-6.9641 -3.188,-7.7952 1.6571,-7.7952 2.785,0 5.0981,-1.0016 7.0081,-3.0347 3.9256,-4.1786 6.3212,-2.8746 6.3949,3.481 0.0875,7.5455 3.4895,13.703 7.6625,13.87 1.8411,0.0735 4.4921,1.1693 5.8909,2.4353 2.7784,2.5144 6.3865,1.9263 6.3865,-1.0409 0,-2.8776 -4.9579,-14.819 -7.1744,-17.281 -2.6836,-2.9799 -1.0179,-4.2393 3.401,-2.5713 4.3866,1.6557 6.5995,-0.24631 8.5219,-7.3247 0.9854,-3.6284 0.84013,-5.1719 -0.69276,-7.3604 -1.6744,-2.3905 -1.7204,-3.643 -0.33659,-9.1588 0.88168,-3.5143 2.162,-7.0927 2.845,-7.9521 1.8924,-2.3807 6.5236,-1.8662 9.1305,1.0144 1.2826,1.4173 3.2938,2.3254 4.4691,2.0181 2.6726,-0.69891 4.2108,4.4024 2.3665,7.8485 -0.70414,1.3157 -1.2802,4.2242 -1.2802,6.4633 0,3.848 0.10062,3.9381 1.8352,1.6447 2.2665,-2.9966 2.3086,-2.2676 0.68546,11.851 -1.3161,11.448 -0.71979,16.347 1.9898,16.347 1.0109,0 1.7395,1.278 1.7395,3.0512 0,4.0922 1.9816,5.1055 3.1724,1.6222 0.8777,-2.5674 0.9982,-2.476 1.4597,1.1078 0.42218,3.2787 1.0444,3.9092 3.8729,3.9248 1.8535,0.01 4.029,-0.51426 4.8345,-1.1655 1.9078,-1.5425 6.2863,1.1438 7.1313,4.3751 0.46488,1.7777 1.3553,2.2252 3.376,1.6968 3.9946,-1.0446 7.31,3.4929 7.3615,10.075 0.0229,2.9219 -0.38029,5.254 -0.89591,5.1825 -0.51563,-0.0715 -10.219,-1.4359 -21.562,-3.0319 z m -16.646,-60.822 c -0.39903,-0.99716 -0.69523,-0.70098 -0.7552,0.75521 -0.0542,1.3177 0.24115,2.056 0.65652,1.6406 0.41536,-0.41538 0.45976,-1.4935 0.0986,-2.3958 z m -88.79,42.574 c -0.26082,-0.9432 -1.0359,-3.9649 -1.7223,-6.7149 -0.68646,-2.75 -1.6404,-5.9154 -2.1199,-7.0341 -0.72113,-1.6826 0.27526,-2.1813 5.7656,-2.8856 3.6506,-0.46834 8.0436,-1.6178 9.7624,-2.5543 3.1011,-1.6897 3.1346,-1.6533 4.375,4.7606 0.91496,4.731 1.7709,6.38 3.1935,6.1521 1.0689,-0.17119 3.8511,1.6569 6.1827,4.0625 l 4.2392,4.3738 -10.714,0 c -5.8927,0 -12.463,0.34982 -14.601,0.7774 -2.7428,0.54855 -4.0266,0.27258 -4.3612,-0.9375 z m 0.43149,-22.652 c -4.3579,-2.2148 -5.7686,-3.7423 -6.6378,-7.1875 -1.8754,-7.4331 -0.45827,-16.754 3.2103,-21.113 1.7925,-2.1302 3.6049,-4.9629 4.0276,-6.2947 0.69152,-2.1788 1.1981,-2.2728 5.0531,-0.93815 5.0086,1.734 12.388,8.3414 15.037,13.464 1.0209,1.9741 2.1852,5.9901 2.5874,8.9244 0.69121,5.0429 0.46756,5.5464 -4.0835,9.1937 -9.5611,7.6623 -11.221,8.004 -19.194,3.9518 z m 59.554,-18.055 c -1.4077,-1.4077 -0.85736,-2.8827 1.0756,-2.8827 1.0312,0 1.875,0.5293 1.875,1.1762 0,1.5762 -1.952,2.7051 -2.9506,1.7065 z m -92.352,-19.776 c 0.59653,-3.1205 2.4156,-5.16 3.5714,-4.0042 0.33147,0.33146 0.23307,2.0753 -0.21868,3.8752 -1.0757,4.2861 -4.1702,4.4052 -3.3527,0.12902 z m 118.11,1.581 c 0.28646,-0.85938 1.2708,-1.5625 2.1875,-1.5625 0.91666,0 1.901,0.70312 2.1875,1.5625 0.30983,0.92949 -0.57639,1.5625 -2.1875,1.5625 -1.61111,0 -2.4973,-0.63301 -2.1875,-1.5625 z m -14.375,-1.0376 c -1.2031,-0.70075 -2.1875,-2.5958 -2.1875,-4.2111 0,-2.5884 0.67876,-2.991 5.7177,-3.3918 6.3332,-0.5037 9.2692,1.3704 6.1727,3.9402 -1.0397,0.86289 -1.8904,2.3438 -1.8904,3.2908 0,2.0073 -4.6265,2.2275 -7.8125,0.37182 z m -116.84,-2.3399 c 0.35095,-1.342 0.0736,-2.6282 -0.61627,-2.8582 -0.68991,-0.22998 -0.34894,-1.1696 0.75769,-2.088 1.7088,-1.4182 2.0121,-1.3642 2.0121,0.3582 0,1.1154 0.5625,2.028 1.25,2.028 0.6875,0 1.25,1.125 1.25,2.5 0,1.7126 -0.83333,2.5 -2.6458,2.5 -2.0087,0 -2.4921,-0.58754 -2.0077,-2.4401 z m 6.54,-7.56 c 0.4249,-0.6875 1.0206,-1.25 1.3238,-1.25 0.30318,0 0.55123,0.5625 0.55123,1.25 0,0.6875 -0.5957,1.25 -1.3238,1.25 -0.72807,0 -0.97613,-0.5625 -0.55123,-1.25 z m 61.797,-27.475 c -2.3632,-2.0203 -5.4218,-3.7149 -6.7968,-3.7657 -2.8239,-0.10436 -8.125,-4.094 -8.125,-6.115 0,-1.7943 6.6835,-5.1454 10.25,-5.1396 1.581,0.003 4.7216,1.1308 6.9792,2.5072 4.019,2.4503 4.0871,2.6393 3.2682,9.0578 -0.46003,3.6054 -0.93607,6.6842 -1.0578,6.8419 -0.12175,0.15762 -2.155,-1.3664 -4.5182,-3.3867 z m -74.464,-30.634 c -0.39247,-1.0228 -0.214,-3.9721 0.39662,-6.554 1.3045,-5.516 4.1124,-6.5665 9.7214,-3.6368 2.0895,1.0914 6.471,3.1042 9.7366,4.473 3.2656,1.3687 5.9375,3.0063 5.9375,3.639 0,0.63272 -3.1831,1.5481 -7.0736,2.0342 -5.7938,0.72388 -7.2751,0.52378 -8.1871,-1.106 -1.5318,-2.7371 -4.3813,-2.4944 -5.9893,0.51024 -1.5832,2.9582 -3.5464,3.235 -4.542,0.64042 z m 174.54,0.8 c 0,-0.58095 1.125,-2.0744 2.5,-3.3187 2.4404,-2.2085 2.5,-2.1833 2.5,1.0563 0,2.4854 -0.62775,3.3187 -2.5,3.3187 -1.375,0 -2.5,-0.47532 -2.5,-1.0563 z m -81.001,-1.4268 c -2.2693,-0.53743 -4.2772,-1.183 -4.4621,-1.4346 -1.2115,-1.6485 -3.287,-11.577 -3.287,-15.724 l 0,-4.9766 15.312,-0.91459 c 38.713,-2.3122 48.684,-3.2117 60.938,-5.4968 7.2188,-1.3462 14.109,-2.8505 15.312,-3.3427 1.9701,-0.80604 2.1875,0.0502 2.1875,8.6137 0,8.579 -0.23723,9.5087 -2.4262,9.5087 -1.3344,0 -2.7739,0.5625 -3.1988,1.25 -0.4249,0.6875 -1.7237,1.2535 -2.8863,1.2577 -1.1626,0.004 -3.8012,0.89518 -5.8637,1.9799 -4.5719,2.4044 -30.675,5.4767 -46.875,5.517 -13.751,0.0342 -17.923,0.84105 -16.985,3.2847 0.7281,1.8974 -1.2559,2.0194 -7.766,0.47767 z m 59.577,-12.462 c 2.3108,-1.9766 3.8245,-4.2037 3.3637,-4.9492 -1.3811,-2.2347 -6.2283,-1.5324 -7.9001,1.1445 -0.8587,1.375 -2.4002,2.5 -3.4257,2.5 -1.8945,0 -2.5498,2.648 -1.0311,4.1667 1.673,1.673 4.887,0.65023 8.9931,-2.862 z m -145.46,-2.55 c -0.4249,-0.6875 -0.21004,-1.25 0.47746,-1.25 0.6875,0 1.5976,0.5625 2.0225,1.25 0.4249,0.6875 0.21004,1.25 -0.47746,1.25 -0.6875,0 -1.5976,-0.5625 -2.0225,-1.25 z m 32.495,-3.7588 c -1.1262,-1.8223 1.6065,-2.4707 9.0582,-2.149 4.2516,0.18352 6.5562,0.83156 6.5625,1.8454 0.0125,1.9248 -14.445,2.2059 -15.621,0.30367 z m 136.96,-31.866 c 0.0807,-8.5938 0.59616,-15.625 1.1452,-15.625 0.54908,0 0.9805,7.0312 0.95868,15.625 -0.0217,8.5938 -0.53719,15.625 -1.1453,15.625 -0.60807,0 -1.0395,-7.0312 -0.95867,-15.625 z m -46.441,9.5032 c -13.628,-4.4369 -15.33,-17.045 -3.4529,-25.582 5.0368,-3.6206 14.858,-6.0781 17.527,-4.3859 1.1576,0.73388 0.71459,1.0656 -1.4664,1.0981 -4.5929,0.0685 -13.68,4.5392 -14.485,7.1266 -0.38346,1.232 -1.2381,3.2479 -1.8991,4.4798 -1.9216,3.5806 1.349,8.6772 7.5868,11.823 6.5538,3.3049 11.725,3.551 18.155,0.86427 6.9059,-2.8855 7.0133,-1.0175 0.11687,2.0331 -6.6119,2.9248 -17.174,4.1413 -22.082,2.5433 z m -111.02,-5.5228 c -0.14587,-2.6571 2.0209,-7.1053 3.461,-7.1053 0.54872,0 0.99768,0.8125 0.99768,1.8056 0,0.99305 -0.55958,1.6962 -1.2435,1.5625 -0.68393,-0.13368 -1.6591,1.1632 -2.1671,2.8819 -0.64201,2.1724 -0.96154,2.4331 -1.0482,0.85532 z m 3.2361,-21.463 c -1.2432,-0.90904 -1.7279,-1.9819 -1.0772,-2.384 0.65075,-0.40218 1.8896,0.11992 2.7529,1.1602 2.1125,2.5454 1.1214,3.2692 -1.6758,1.2238 z m 40.26,-4.9813 c -16.51,-2.4019 -19.998,-3.1948 -19.265,-4.3801 0.37128,-0.60073 -0.31621,-1.3508 -1.5278,-1.6668 -1.6763,-0.43726 -1.5306,-0.60925 0.6097,-0.7196 1.5469,-0.0798 2.8125,0.4175 2.8125,1.105 0,1.904 4.5812,1.4903 6.6742,-0.60281 1.1902,-1.1902 3.9022,-1.7636 7.5835,-1.6034 4.9112,0.21374 5.3684,0.4433 3.1973,1.6053 -3.1444,1.6828 -1.9122,3.1009 2.6945,3.1009 3.944,0 9.8505,2.3689 9.8505,3.9506 0,0.57715 -0.42187,0.98773 -0.9375,0.91241 -0.51562,-0.0753 -5.777,-0.84102 -11.692,-1.7015 z m -33,-6.91 c 0.4249,-0.6875 1.8644,-1.25 3.1988,-1.25 1.3344,0 2.4262,0.5625 2.4262,1.25 0,0.6875 -1.4394,1.25 -3.1988,1.25 -1.8142,0 -2.8644,-0.54105 -2.4262,-1.25 z"
         inkscape:connector-curvature="0"
         style="fill:#b05f1d" />
      <path
         id="path4274"
         d="m -687.38,48.381 c 1.31,-2.563 2.38,-6.304 2.38,-8.313 0,-4.654 -2.57,-13.318 -3.95,-13.318 -0.58,0 -1.05,-26.109 -1.05,-58.021 0,-45.247 0.344,-58.16 1.5625,-58.651 1.25,-0.50439 1.25,-0.65021 0,-0.72916 -0.86,-0.055 -1.56,-1.224 -1.56,-2.599 0,-1.375 0.70313,-2.5086 1.5625,-2.5191 0.96767,-0.01125 1.0866,-0.36876 0.3125,-0.9375 -1.6083,-1.1816 -2.5535,-22.793 -0.99687,-22.793 0.63903,0 2.928,1.8281 5.0866,4.0625 5.4521,5.6436 7.8992,7.5676 11.924,9.375 4.2367,1.9027 15.403,2.0658 16.53,0.24146 1.2884,-2.0846 -0.52721,-7.429 -2.5237,-7.429 -0.99397,0 -2.4238,-1.152 -3.1773,-2.5601 -0.94557,-1.7668 -2.1177,-2.3228 -3.7828,-1.7943 -1.327,0.42117 -3.1208,0.32339 -3.9864,-0.21727 -0.86553,-0.54067 -2.3262,-1.097 -3.2458,-1.2362 -0.91967,-0.13922 -2.6515,-1.1394 -3.8484,-2.2226 -2.4906,-2.2539 -7.8913,-2.573 -11.437,-0.67553 -1.8744,1.0031 -2.4178,0.88607 -2.4178,-0.52083 0,-0.99815 0.70313,-2.0985 1.5625,-2.4453 1.25,-0.50439 1.25,-0.65022 0,-0.72917 -2.2446,-0.14176 -2.2446,-35.865 0,-36.771 1.25,-0.50438 1.25,-0.65022 0,-0.72917 -1.2066,-0.0762 -1.5625,-7.3596 -1.5625,-31.974 l 0,-31.875 42.5,0 c 39.628,0 42.503,0.14782 42.539,2.1875 0.0674,3.818 2.3355,19.219 4.9245,33.438 1.377,7.5625 2.5199,16.281 2.5398,19.375 0.0199,3.0938 0.85108,9 1.8471,13.125 0.99602,4.125 1.831,9.8218 1.8555,12.659 0.0633,7.3302 1.8023,8.2689 14.7,7.9349 6.0331,-0.15622 11.77,-0.21323 12.75,-0.12669 3.1383,0.27738 -3.3197,5.9111 -8.584,7.4883 -12.814,3.8393 -17.579,21.625 -5.6732,21.178 4.8259,-0.18143 6.1301,-3.2776 1.8519,-4.3963 -6.2088,-1.6236 0.93188,-14.112 8.069,-14.112 4.8588,0 12.034,3.3714 16.619,7.8086 2.4222,2.3443 4.0625,3.2291 4.0625,2.1914 0,-1.0186 1.7743,-0.0207 4.2778,2.4058 2.3528,2.2804 4.0079,4.8496 3.678,5.7094 -0.32991,0.85973 -3.8018,2.1439 -7.7153,2.8538 -18.241,3.3087 -25.81,7.426 -44.757,24.348 -10.034,8.9618 -15.503,16.929 -15.465,22.529 0.0195,2.8252 1.9775,6.9415 2.7912,5.8679 0.24546,-0.32384 1.414,-2.1357 2.5968,-4.0263 2.8063,-4.4858 4.5929,-4.3642 4.5929,0.3125 0,2.0625 0.64111,3.75 1.4247,3.75 2.1077,0 4.7401,-3.9672 4.7856,-7.2123 0.0428,-3.0554 6.0393,-13.455 7.1296,-12.365 0.36263,0.36264 0.0852,2.5252 -0.61656,4.8056 -1.2977,4.217 -1.23,11.681 0.11808,13.029 1.1321,1.1321 3.4087,-0.67568 3.4087,-2.7068 0,-1.2217 1.3934,-1.8012 4.331,-1.8012 4.3544,0 7.1796,-2.7151 6.0591,-5.823 -0.28714,-0.79638 0.0701,-1.8139 0.79391,-2.2613 0.75856,-0.46881 1.316,0.27688 1.316,1.7604 0,1.4156 0.55495,2.5738 1.2332,2.5738 1.6187,0 5.2184,8.6625 4.2505,10.229 -0.4123,0.66712 0.43518,2.3168 1.8833,3.6659 1.44812,1.3491 2.6329,3.6756 2.6329,5.1698 0,1.4943 1.3664,3.863 3.0364,5.2638 2.9043,2.4362 2.974,2.838 1.6016,9.2388 -1.3156,6.1362 -1.2304,6.8415 1.0261,8.4932 1.3535,0.99075 3.639,1.5063 5.0789,1.1456 1.7509,-0.43855 3.5726,0.36029 5.4998,2.4116 3.3211,3.5352 4.2181,2.9641 -11.868,7.5561 -6.1875,1.7664 -14.906,5.4039 -19.375,8.0835 -12.212,7.3224 -20.695,10.861 -33.098,13.807 -12.926,3.07 -16.211,4.5961 -20.965,9.7412 -7.1526,7.7413 -3.4679,8.2785 15.338,2.2362 15.353,-4.9328 31.776,-11.41 35.444,-13.979 1.41,-1.0046 3.29,-1.82 4.17,-1.82 2.2036,0 2.01,4.351 -0.27813,6.25 -1.0312,0.85586 -1.875,2.3449 -1.875,3.309 0,0.96408 -1.2776,2.2386 -2.839,2.8323 -3.4745,1.321 -6.5324,6.6863 -5.4373,9.5402 0.6529,1.7014 1.1576,1.8082 2.6589,0.56224 1.0192,-0.84584 3.3867,-1.2447 5.2612,-0.88635 1.8745,0.35834 5.6746,-0.23166 8.4447,-1.3111 7.5293,-2.934 23.25,-14.116 24.512,-17.434 0.6078,-1.5986 2.5759,-3.4658 4.3735,-4.1492 1.7976,-0.68345 3.5518,-2.3264 3.8982,-3.651 1.1641,-4.4516 20.46,-6.6507 32.268,-3.6775 3.5967,0.90565 7.5503,3.3239 11.438,6.9962 6.7573,6.3829 26.798,16.5 45.422,22.931 10.482,3.6194 13.378,4.0944 24.688,4.0493 12.768,-0.05088 12.812,-0.0405 12.812,3.0033 0,2.3175 -0.52778,2.9012 -2.1875,2.4196 -10.268,-2.9797 -13.071,-3.1972 -25.412,-1.9708 -12.937,1.2856 -41.869,1.6632 -43.639,0.56949 -1.6727,-1.0338 -15.614,2.3847 -16.675,4.0888 -0.74261,1.1925 -1.4902,1.2926 -2.6243,0.35136 -1.1238,-0.93262 -3.371,-0.77464 -7.7116,0.54215 -8.1464,2.4713 -18.466,2.4624 -20.524,-0.01788 -0.86874,-1.0468 -2.514,-1.6066 -3.6561,-1.2441 -1.1421,0.3625 -3.1721,-0.16941 -4.511,-1.182 -3.2373,-2.4483 -12.415,-2.3982 -20.024,0.10925 -9.1522,3.0158 -12.249,8.1551 -6.2816,10.424 8.8336,3.3585 3.1158,3.7125 -60.957,3.774 l -65.548,0.06287 2.3756,-4.6597 z m 53.63,-53.95 c 0,-1.3794 0.60315,-1.3229 3.0595,0.28659 3.0445,1.9948 4.8948,1.8429 10.512,-0.8633 2.5749,-1.2405 3.325,-0.97915 5.9508,2.0735 4.2195,4.9055 7.8882,4.0795 10.078,-2.269 l 1.7128,-4.9667 -10.517,-21.908 c -5.7846,-12.05 -12.041,-26.971 -13.904,-33.158 -1.8627,-6.1875 -5.2635,-15.328 -7.5574,-20.312 -3.5626,-7.741 -4.629,-9.0625 -7.3134,-9.0625 -5.9912,0 -13.526,14.186 -18.446,34.729 -2.0836,8.6997 -2.4818,13.416 -1.9758,23.396 0.6664,13.142 3.5558,23.125 6.6934,23.125 0.97353,0 3.299,2.5312 5.1677,5.625 3.285,5.4386 5.2908,7.0628 5.2908,4.2843 0,-0.7374 1.4519,-0.19865 3.2265,1.1972 2.6609,2.0931 3.6469,2.2754 5.625,1.04 1.3192,-0.82385 2.3985,-2.271 2.3985,-3.216 z m 51.878,-18.935 c 0.42645,-0.69002 2.0941,-0.9236 3.7059,-0.51907 4.1674,1.046 5.1064,-3.0035 2.5095,-10.822 -1.711,-5.1513 -2.5631,-6.2261 -4.6877,-5.9125 -3.0642,0.4522 -8.3175,9.9107 -8.3703,15.071 -0.0289,2.8208 0.5122,3.4375 3.016,3.4375 1.6782,0 3.4002,-0.56456 3.8266,-1.2546 z m 5.62,-33.121 c 0,-1.0312 -0.5625,-1.875 -1.25,-1.875 -0.6875,0 -1.25,0.84375 -1.25,1.875 0,1.03125 0.5625,1.875 1.25,1.875 0.6875,0 1.25,-0.84375 1.25,-1.875 z m -30,-26.919 c 0,-2.1458 -2.3731,-1.2788 -3.8006,1.3886 -1.2704,2.3738 -1.1678,2.4765 1.206,1.206 1.427,-0.76372 2.5946,-1.9313 2.5946,-2.5946 z m -23.726,-18.11 c 1.321,-1.5917 1.2436,-1.7746 -0.47194,-1.1163 -1.1285,0.43304 -2.0518,1.2897 -2.0518,1.9036 0,1.6074 0.72359,1.3817 2.5238,-0.78736 z m 7.6357,-5.176 c 1.5556,-1.8858 1.4533,-1.9399 -1.0969,-0.58102 -2.9087,1.5499 -3.6249,2.6607 -1.7156,2.6607 0.60332,0 1.869,-0.93584 2.8125,-2.0796 z m -15.784,-29.065 c 2.0625,-0.48905 3.75,-1.4932 3.75,-2.2313 0,-0.73817 1.4062,-2.4942 3.125,-3.9024 2.7646,-2.265 2.9088,-2.7674 1.25,-4.3562 -2.9077,-2.785 -13.549,-5.8654 -20.263,-5.8654 -8.5807,0 -17.135,3.8656 -17.218,7.7804 -0.0319,1.5085 6.5289,4.3697 12.168,5.3067 2.9219,0.48548 5.3125,1.3957 5.3125,2.0228 0,0.62707 -0.5625,1.1401 -1.25,1.1401 -0.6875,0 -1.25,0.50898 -1.25,1.131 0,1.1431 7.4788,0.60943 14.375,-1.0258 z m -33.13,-1.35 c -2.4698,-1.5961 -6.6115,-1.5961 -5.625,0 0.4249,0.6875 2.2862,1.2414 4.1363,1.2309 2.631,-0.015 2.9553,-0.28311 1.4887,-1.2309 z m 24.319,-26.25 4.1147,0 -2.0294,-4.3181 c -2.7979,-5.9532 -5.141,-6.6646 -5.2052,-1.5802 l -0.0508,4.0233 -3.616,-4.2282 c -4.1385,-4.8391 -8.3826,-4.7305 -7.0663,0.18084 0.41237,1.5385 0.75743,3.4613 0.76682,4.2729 0.0181,1.5634 4.5106,2.8539 7.3068,2.0989 0.91561,-0.24722 3.5163,-0.44949 5.7794,-0.44949 z m -10.093,-21.414 c -1.2027,-1.329 -4.0518,-3.569 -6.3314,-4.9779 -4.309,-2.6631 -5.561,-6.1077 -2.2199,-6.1077 1.0586,0 4.1524,1.1364 6.875,2.5254 3.7571,1.9167 4.9502,3.2725 4.9502,5.625 0,2.4183 0.64432,3.0996 2.9313,3.0996 1.6122,0 3.9394,-1.114 5.1716,-2.4755 2.1763,-2.4048 2.1003,-2.6155 -2.6604,-7.3762 -4.1539,-4.1539 -5.9873,-5.0365 -12.031,-5.7916 -13.386,-1.6725 -20.162,1.6759 -20.162,9.9636 0,8.0094 5.1246,10.509 10.319,5.033 3.7779,-3.9829 4.6757,-3.909 9.0202,0.74176 1.9756,2.1148 4.2066,3.4652 4.9579,3.0009 0.91871,-0.56779 0.64997,-1.6355 -0.82066,-3.2605 z m -32.74,227.04 c 0.0255,-2.0625 0.30562,-2.7549 0.62255,-1.5387 0.31693,1.2162 0.29608,2.9037 -0.0463,3.75 -0.3424,0.84629 -0.60171,-0.14879 -0.57623,-2.2113 z m 257.26,-40.037 c -15.783,-2.2206 -23.853,-4.0609 -34.375,-7.8387 -7.5625,-2.7153 -16.281,-5.3185 -19.375,-5.785 -12.429,-1.874 -12.5,-1.9068 -12.5,-5.7399 0,-1.9673 -0.49719,-3.8842 -1.1048,-4.2597 -1.2868,-0.79532 -6.3952,-11.34 -6.3952,-13.201 0,-0.695 1.8707,-1.2636 4.1571,-1.2636 2.8042,0 5.1008,-1.0045 7.0567,-3.0865 1.5948,-1.6976 3.3803,-2.7894 3.9679,-2.4262 0.58756,0.36314 1.0683,5.5158 1.0683,11.45 0,9.7122 0.18126,10.548 1.8144,8.3637 1.7687,-2.3653 1.896,-2.3398 5.0506,1.0111 1.7799,1.8906 4.1615,3.4375 5.2925,3.4375 1.131,0 3.341,1.2069 4.9112,2.682 l 2.8548,2.682 1.3371,-3.5169 c 1.1062,-2.9095 0.77035,-4.9379 -1.9446,-11.744 -1.805,-4.5252 -4.1672,-9.2154 -5.2496,-10.423 -2.6728,-2.9816 -1.0062,-4.2383 3.4101,-2.5713 4.3866,1.6557 6.5995,-0.24631 8.5219,-7.3247 0.9854,-3.6284 0.84013,-5.1719 -0.69276,-7.3604 -1.6744,-2.3905 -1.7204,-3.643 -0.33659,-9.1588 0.88168,-3.5143 2.162,-7.0927 2.845,-7.9521 2.0141,-2.5338 6.5309,-1.7958 9.7081,1.5862 5.3458,5.6903 4.0498,20.848 -3.7372,43.709 -5.5303,16.236 -3.3241,19.587 3.7149,5.6424 4.2522,-8.4236 6.129,-10.108 7.1049,-6.3758 0.37767,1.4442 1.4648,2.6258 2.4159,2.6258 0.95106,0 1.7292,0.85261 1.7292,1.8947 0,1.04209 0.69213,4.1124 1.5381,6.8228 l 1.5381,4.9282 7.5244,0.36466 c 6.9682,0.33771 7.5544,0.59571 7.9297,3.4897 0.3022,2.3301 1.9714,3.8929 6.5625,6.144 3.3865,1.6605 6.1572,3.7699 6.1572,4.6875 0,0.91765 -0.42187,1.6099 -0.9375,1.5384 -0.51562,-0.0715 -10.219,-1.4359 -21.562,-3.0319 z m -105.44,-18.248 c -0.26082,-0.9432 -1.0359,-3.9649 -1.7223,-6.7149 -0.68646,-2.75 -1.6375,-5.9078 -2.1135,-7.0174 -0.71091,-1.6573 0.2972,-2.1716 5.6486,-2.8815 3.5827,-0.47526 8.1135,-1.6913 10.068,-2.7022 l 3.5545,-1.8381 0,8.7821 c 0,8.8996 0.61181,9.8806 4.7733,7.6534 1.5252,-0.81624 3.1459,-0.29896 5.8553,1.8688 l 3.7464,2.9974 -10.781,0.0063 c -5.9297,0.0038 -12.53,0.35604 -14.668,0.78361 -2.7428,0.54855 -4.0266,0.27258 -4.3612,-0.9375 z m 0.43149,-22.652 c -4.3579,-2.2148 -5.7686,-3.7423 -6.6378,-7.1875 -1.8754,-7.4331 -0.45827,-16.754 3.2103,-21.113 1.7925,-2.1302 3.6049,-4.9629 4.0276,-6.2947 0.69152,-2.1788 1.1981,-2.2728 5.0531,-0.93815 5.0086,1.734 12.388,8.3414 15.037,13.464 1.0209,1.9741 2.1852,5.9901 2.5874,8.9244 0.69121,5.0429 0.46756,5.5464 -4.0835,9.1937 -9.5611,7.6623 -11.221,8.004 -19.194,3.9518 z m -32.798,-37.831 c 0.59653,-3.1205 2.4156,-5.16 3.5714,-4.0042 0.33147,0.33146 0.23307,2.0753 -0.21868,3.8752 -1.0757,4.2861 -4.1702,4.4052 -3.3527,0.12902 z m 117.8,1.8197 c 0,-0.72808 0.5625,-0.97612 1.25,-0.55122 0.6875,0.4249 1.25,1.0206 1.25,1.3238 0,0.30318 -0.5625,0.55122 -1.25,0.55122 -0.6875,0 -1.25,-0.5957 -1.25,-1.3238 z m -14.062,-1.2764 c -1.2031,-0.70075 -2.1875,-2.6524 -2.1875,-4.337 0,-2.646 0.5747,-3.0629 4.222,-3.0629 4.9625,0 7.2069,2.1712 6.205,6.0026 -0.77871,2.9778 -4.4554,3.6013 -8.2394,1.3973 z m -48.516,-37.375 c -2.3632,-2.0203 -5.4218,-3.7149 -6.7968,-3.7657 -2.8239,-0.10436 -8.125,-4.094 -8.125,-6.115 0,-1.7943 6.6835,-5.1454 10.25,-5.1396 1.581,0.003 4.7216,1.1308 6.9792,2.5072 4.019,2.4503 4.0871,2.6393 3.2682,9.0578 -0.46003,3.6054 -0.93607,6.6842 -1.0578,6.8419 -0.12175,0.15762 -2.155,-1.3664 -4.5182,-3.3867 z m 100.09,-29.84 c 0,-0.58095 1.125,-2.0744 2.5,-3.3187 2.4404,-2.2085 2.5,-2.1833 2.5,1.0563 0,2.4854 -0.62775,3.3187 -2.5,3.3187 -1.375,0 -2.5,-0.47532 -2.5,-1.0563 z m -173.2,-3.1916 c -2.0489,-8.1633 1.7046,-11.499 8.7807,-7.8026 2.0895,1.0914 6.471,3.1042 9.7366,4.473 3.2656,1.3687 5.9375,3.0063 5.9375,3.639 0,0.63272 -3.1831,1.5481 -7.0736,2.0342 -5.7938,0.72388 -7.2751,0.52378 -8.1871,-1.106 -1.4064,-2.513 -4.5916,-2.5791 -5.5373,-0.11476 -1.0739,2.7986 -2.8061,2.2667 -3.6568,-1.1229 z m 92.204,1.7648 c -2.2693,-0.53743 -4.2772,-1.183 -4.4621,-1.4346 -1.2115,-1.6485 -3.287,-11.577 -3.287,-15.724 l 0,-4.9766 15.312,-0.91459 c 38.713,-2.3122 48.684,-3.2117 60.938,-5.4968 7.2188,-1.3462 14.109,-2.8505 15.312,-3.3427 1.9701,-0.80604 2.1875,0.0502 2.1875,8.6137 0,8.3232 -0.28052,9.5087 -2.25,9.5087 -1.2375,0 -2.7844,0.48988 -3.4375,1.0886 -0.65313,0.59873 -2.7842,1.4657 -4.7356,1.9266 -3.3978,0.80246 -3.5139,0.68201 -2.7398,-2.8427 0.74581,-3.3956 0.4472,-3.7998 -3.8563,-5.2201 -5.8577,-1.9332 -22.815,-0.79199 -27.652,1.861 -1.8994,1.0418 -5.1015,3.2711 -7.1157,4.954 -2.9239,2.443 -3.3671,3.4155 -2.1984,4.8238 2.3006,2.7721 0.50862,3.4076 -9.6603,3.4259 -11.419,0.0206 -15.487,0.93297 -14.589,3.2722 0.7281,1.8974 -1.2559,2.0194 -7.766,0.47767 z m -62.436,-12.703 c -0.79005,-0.79004 -3.5744,-1.8092 -6.1875,-2.2649 -2.8679,-0.50009 -4.6149,-1.454 -4.4076,-2.4065 0.2162,-0.99327 -0.24699,-1.2105 -1.25,-0.58616 -1.9422,1.2089 -7.3103,0.63825 -9.2947,-0.98806 -0.88863,-0.72829 -1.7295,-0.73911 -2.169,-0.0279 -0.99698,1.6131 -6.9189,2.6101 -7.728,1.301 -2.0658,-3.3426 -4.3509,-16.355 -5.5695,-31.716 -0.76355,-9.625 -2.2106,-19.669 -3.2157,-22.32 -2.4938,-6.5776 -1.0478,-7.9791 7.9404,-7.6964 3.9562,0.12445 8.1774,-0.3781 9.3805,-1.1168 1.5833,-0.97211 2.8408,-0.93508 4.5527,0.13408 1.3009,0.81241 2.7542,1.0883 3.2295,0.61318 1.5236,-1.523 10.638,-1.0995 9.3646,0.43502 -0.70927,0.85461 -0.43997,2.3683 0.71462,4.0167 1.3957,1.9926 1.4854,2.8724 0.36355,3.5657 -0.87864,0.54303 -2.228,-0.19213 -3.2909,-1.7929 -1.9978,-3.0089 -7.7467,-3.7446 -7.7467,-0.99142 0,0.94707 0.86759,2.442 1.928,3.322 1.3376,1.1101 1.529,1.9991 0.625,2.903 -0.71664,0.71664 -1.303,2.9427 -1.303,4.9467 0,3.6168 0.0236,3.6283 3.182,1.5588 1.9085,-1.2505 4.2144,-1.7572 5.7618,-1.2661 2.2227,0.70545 1.6886,1.3278 -3.8588,4.496 -8.1695,4.6658 -10.022,8.2984 -7.2251,14.164 2.7654,5.799 6.5612,8.002 15.351,8.9095 9.5547,0.98645 20.987,-2.1208 23.844,-6.4807 2.275,-3.4721 4.195,-3.9421 4.195,-1.0269 0,1.0994 -2.5398,4.3979 -5.644,7.3301 -4.816,4.5492 -6.6686,5.4517 -12.628,6.1522 -3.8414,0.45148 -9.6028,0.47355 -12.803,0.049 -4.908,-0.65107 -6.1896,-0.36173 -8.1903,1.849 -2.2617,2.4991 -2.2703,2.733 -0.18564,5.0365 1.2024,1.3286 2.8566,2.1584 3.6761,1.844 1.5606,-0.59886 12.025,6.8048 12.025,8.5078 0,1.4355 -1.7825,1.2 -3.4364,-0.45394 z m -23.125,-40.751 c 0.28614,-0.85937 -0.38802,-1.5625 -1.4981,-1.5625 -1.11008,0 -2.3422,-0.84375 -2.7379,-1.875 -0.91627,-2.3878 -2.4814,-2.4045 -3.3902,-0.0362 -0.38809,1.0114 0.1825,2.727 1.268,3.8124 2.2135,2.2135 5.568,2.0348 6.3582,-0.33876 z m 4.0619,-7.9462 c 0,-1.797 -2.1689,-1.2821 -2.9276,0.69508 -0.46457,1.2106 -0.0944,1.5808 1.1163,1.1163 0.99624,-0.3823 1.8113,-1.1974 1.8113,-1.8114 z m 28.12,42.625 c -1.1262,-1.8223 1.6065,-2.4707 9.0582,-2.149 4.2516,0.18352 6.5562,0.83156 6.5625,1.8454 0.0125,1.9248 -14.445,2.2059 -15.621,0.30367 z m 136.96,-31.866 c 0.0807,-8.5938 0.59616,-15.625 1.1452,-15.625 0.54908,0 0.9805,7.0312 0.95868,15.625 -0.0217,8.5938 -0.53719,15.625 -1.1453,15.625 -0.60807,0 -1.0395,-7.0312 -0.95867,-15.625 z m -46.441,9.5032 c -13.628,-4.4369 -15.33,-17.045 -3.4529,-25.582 5.0368,-3.6206 14.858,-6.0781 17.527,-4.3859 1.1576,0.73388 0.71459,1.0656 -1.4664,1.0981 -4.5929,0.0685 -13.68,4.5392 -14.485,7.1266 -0.38346,1.232 -1.2381,3.2479 -1.8991,4.4798 -1.9216,3.5806 1.349,8.6772 7.5868,11.823 6.5538,3.3049 11.725,3.551 18.155,0.86427 6.9059,-2.8855 7.0133,-1.0175 0.11687,2.0331 -6.6119,2.9248 -17.174,4.1413 -22.082,2.5433 z m -107.78,-26.985 c -1.2432,-0.90904 -1.7279,-1.9819 -1.0772,-2.384 0.65075,-0.40218 1.8896,0.11992 2.7529,1.1602 2.1125,2.5454 1.1214,3.2692 -1.6758,1.2238 z m 40.26,-4.9813 c -16.51,-2.4019 -19.998,-3.1948 -19.265,-4.3801 0.37128,-0.60073 -0.31621,-1.3508 -1.5278,-1.6668 -1.6763,-0.43726 -1.5306,-0.60925 0.6097,-0.7196 1.5469,-0.0798 2.8125,0.4175 2.8125,1.105 0,1.904 4.5812,1.4903 6.6742,-0.60281 1.1902,-1.1902 3.9022,-1.7636 7.5835,-1.6034 4.9112,0.21374 5.3684,0.4433 3.1973,1.6053 -3.1444,1.6828 -1.9122,3.1009 2.6945,3.1009 3.944,0 9.8505,2.3689 9.8505,3.9506 0,0.57715 -0.42187,0.98773 -0.9375,0.91241 -0.51562,-0.0753 -5.777,-0.84102 -11.692,-1.7015 z m -33,-6.89 c 0.4249,-0.6875 1.8644,-1.25 3.1988,-1.25 1.3344,0 2.4262,0.5625 2.4262,1.25 0,0.6875 -1.4394,1.25 -3.1988,1.25 -1.8142,0 -2.8644,-0.54105 -2.4262,-1.25 z"
         inkscape:connector-curvature="0"
         style="fill:#5c5b27" />
      <path
         id="path4272"
         d="m -687.01,50.248 c 3.228,-4.9322 3.8273,-12.893 1.441,-19.142 -1.17,-3.083 -2.65,-5.606 -3.28,-5.606 -0.68,0 -1.15,-23.415 -1.15,-57.396 0,-44.747 0.34434,-57.535 1.5625,-58.026 1.25,-0.50439 1.25,-0.65021 0,-0.72916 -0.86,-0.055 -1.56,-1.224 -1.56,-2.599 0,-1.375 0.70313,-2.5086 1.5625,-2.5191 0.96767,-0.01125 1.0866,-0.36876 0.3125,-0.9375 -0.6875,-0.5051 -1.4114,-4.5746 -1.6087,-9.0434 l -0.35867,-8.125 3.7586,5.8734 c 2.0672,3.2304 4.9663,6.5198 6.4424,7.3098 4.2058,2.2509 22.812,1.082 25.797,-1.6207 1.329,-1.2031 3.7934,-2.1875 5.4765,-2.1875 1.6831,0 6.1388,-2.3194 9.9016,-5.1542 3.7628,-2.8348 9.7945,-6.826 13.404,-8.8693 4.3191,-2.4451 6.5625,-4.529 6.5625,-6.0958 0,-2.89 -1.2136,-2.9264 -13.434,-0.40222 -5.2681,1.0882 -15.524,2.0725 -22.79,2.1875 -11.653,0.18437 -14.491,-0.22454 -24.054,-3.4652 l -10.842,-3.6742 -0.045,-15.916 c -0.0324,-11.487 0.38425,-16.089 1.4974,-16.54 1.2095,-0.48915 1.2051,-0.64507 -0.0201,-0.72246 -1.2067,-0.0762 -1.5625,-7.3741 -1.5625,-32.046 l 0,-31.947 36.562,0.42202 c 20.109,0.23212 37.688,0.8803 39.062,1.4404 1.9724,0.80345 2.1043,0.73372 0.625,-0.33038 -1.4545,-1.0463 -0.65362,-1.3531 3.5712,-1.3679 3.8692,-0.0136 5.2714,0.43647 4.8424,1.5543 -0.99094,2.5823 2.6932,25.986 6.5407,41.552 0.67978,2.75 1.2631,8.6562 1.2963,13.125 0.0332,4.4688 0.56832,10.375 1.1891,13.125 0.62082,2.75 1.42,7.7535 1.7758,11.119 0.35589,3.3654 1.2703,6.7404 2.032,7.5 0.78535,0.78318 5.8208,1.3811 11.631,1.3811 5.6354,0 10.527,0.54913 10.871,1.2203 0.34375,0.67116 -2.1248,2.6739 -5.4857,4.4505 -10.158,5.3698 -14.027,12.005 -11.238,19.274 1.3447,3.5042 14.223,7.6396 14.223,4.5672 0,-0.61242 -1.1126,-3.5655 -2.4726,-6.5625 -3.0101,-6.6336 -3.076,-7.8468 -0.56316,-10.36 4.715,-4.715 16.482,-0.48242 22.893,8.2343 4.8603,6.609 4.8756,7.7158 0.092,6.6651 -2.3189,-0.50931 -4.5096,-0.24695 -5.6178,0.67277 -0.99913,0.82921 -3.2178,1.2398 -4.9303,0.91244 -2.3878,-0.45646 -4.2901,0.55791 -8.1597,4.3511 -3.2084,3.145 -5.7533,4.6749 -6.9883,4.201 -1.0682,-0.40993 -4.4952,0.75076 -7.6154,2.5793 -3.6867,2.1605 -7.864,3.4366 -11.93,3.6443 -5.5213,0.28209 -6.7172,0.87005 -10.17,4.9998 -2.1519,2.5741 -5.2076,7.5405 -6.7905,11.036 l -2.878,6.3564 4.1875,-4.0587 c 8.2446,-7.991 9.1353,-3.2484 2.0658,11 -4.1776,8.42 -4.3626,10.364 -1.6126,16.946 l 2.0098,4.8101 2.2531,-2.7824 c 2.6739,-3.3021 4.4205,-3.5364 5.4947,-0.73729 0.68643,1.7888 1.0557,1.8212 2.9462,0.25859 6.1902,-5.1166 8.4877,-5.3685 16.656,-1.8262 l 7.718,3.3472 1.819,-2.597 c 2.1225,-3.0303 4.9362,-1.5765 5.5812,2.8837 0.21886,1.5134 2.0198,3.4662 4.1376,4.4861 2.0625,0.99341 4.5938,2.2047 5.625,2.6918 1.1775,0.55619 1.6593,1.9923 1.2952,3.8606 -0.31889,1.6362 -0.60014,5.7336 -0.625,9.1052 -0.0435,5.8945 0.1215,6.1867 4.2916,7.5986 l 4.3368,1.4684 -9.9618,3.2424 c -5.479,1.7833 -16.807,6.665 -25.173,10.848 -9.6465,4.8233 -19.707,8.757 -27.5,10.753 -6.7588,1.7309 -15.09,4.3292 -18.513,5.7739 -9.5798,4.0429 -18.081,4.2196 -23.576,0.49011 -6.1592,-4.1797 -12.701,-5.356 -13.804,-2.482 -1.1648,3.0354 -0.0344,3.6881 3.5549,2.0526 3.5168,-1.6024 5.0011,-0.2848 3.8313,3.4008 -0.59938,1.8885 0.028,2.5506 3.0443,3.2131 2.0896,0.45895 3.7992,1.3258 3.7992,1.9264 0,1.4642 -8.4727,3.7374 -10.718,2.8757 -3.4236,-1.3138 -1.7492,2.0364 1.9822,3.966 2.9767,1.5393 3.6155,2.5379 3.0542,4.7743 -0.4741,1.889 0.10263,3.5631 1.7371,5.0422 2.0382,1.8446 3.2504,2.0063 7.2583,0.96869 2.6463,-0.68511 8.749,-1.6241 13.561,-2.0867 4.8125,-0.46258 10.156,-1.7668 11.875,-2.8984 1.7188,-1.1315 5.0938,-2.0574 7.5,-2.0574 3.7331,0 4.3604,-0.41264 4.2758,-2.8125 -0.0546,-1.5469 0.61063,-2.8125 1.4783,-2.8125 0.86764,0 1.9075,-1.0396 2.3108,-2.3103 1.3957,-4.3974 10.713,-6.3564 10.67,-2.2435 -0.008,0.78581 -0.8099,4.4157 -1.7816,8.0663 -1.5706,5.9003 -1.5519,6.72 0.16789,7.38 5.6822,2.1804 33.856,-8.3517 42.394,-15.848 2.2608,-1.985 7.9354,-5.882 12.61,-8.66 4.6748,-2.778 10.374,-7.0394 12.666,-9.4699 4.4459,-4.7158 8.5346,-6.3667 13.044,-5.2671 1.5342,0.37405 5.1576,1.2792 8.0522,2.0114 2.8945,0.73224 8.6493,3.5202 12.788,6.1954 4.1391,2.6752 12.74,6.9886 19.112,9.5853 6.3726,2.5967 15.983,6.5052 21.356,8.6856 5.373,2.1804 9.7244,4.4786 9.6699,5.1071 -0.13882,1.5998 -22.313,1.1949 -35.064,-0.64021 -5.8438,-0.84104 -12.594,-1.5279 -15,-1.5264 -6.8677,0.0038 -21.201,1.2564 -22.323,1.9501 -0.5588,0.34536 -2.6553,0.1679 -4.6589,-0.39438 -3.2753,-0.91915 -2.8861,-1.1216 3.8571,-2.0065 5.5562,-0.72915 6.8521,-1.2376 5,-1.9617 -3.8384,-1.5007 -11.728,-1.3228 -14.77,0.33305 -1.5017,0.8174 -6.1053,1.6214 -10.23,1.7868 -10.391,0.41642 -28.806,6.9728 -39.375,14.019 -0.34375,0.22918 -0.625,2.1979 -0.625,4.375 l 0,3.9583 -53.506,0.37305 -53.506,0.37306 1.8803,-2.8731 z M -632.5,3.699 c 0,-4.2231 1.8284,-4.9463 5.8487,-2.3132 4.6353,3.0358 19.515,2.8042 23.009,-0.35828 1.3156,-1.1906 2.392,-2.9213 2.392,-3.846 0,-0.92469 0.5625,-1.6813 1.25,-1.6813 2.5363,0 1.0857,-4.629 -4.5046,-14.375 -10.43,-18.183 -15.442,-29.148 -20.99,-45.919 -7.4285,-22.456 -11.806,-31.464 -15.546,-31.994 -4.2159,-0.59712 -7.5314,2.9549 -12.285,13.161 -9.5469,20.498 -12.314,46.692 -6.7871,64.25 2.1401,6.7991 3.7926,9.3798 9.4047,14.687 3.7446,3.5415 7.8798,6.439 9.1894,6.439 1.3096,0 3.3992,1.125 4.6436,2.5 3.0095,3.3255 4.375,3.1534 4.375,-0.55122 z m 60.62,-26.324 c -0.40291,-2.75 -1.6421,-8.5442 -2.7537,-12.876 -1.876,-7.3103 -2.2535,-7.849 -5.256,-7.5 -2.508,0.29149 -4.0071,1.9008 -6.6723,7.1626 -4.9972,9.8659 -4.6464,12.842 1.875,15.908 2.9219,1.3739 7.1636,2.4545 9.426,2.4015 4.0766,-0.09562 4.107,-0.14126 3.381,-5.0964 z m -47.53,-82.791 c 8.7812,-8.9117 9.0301,-10.854 0.85632,-6.6844 -13.033,6.649 -19.176,12.54 -14.883,14.272 3.8926,1.5707 6.27,0.2847 14.027,-7.5877 z m -18.147,-30.417 c 7.8351,-1.3529 11.371,-3.6644 5.6204,-3.674 l -3.6875,-0.006 3.75,-3.0335 c 3.3146,-2.6813 3.5323,-3.2425 1.875,-4.834 -2.9031,-2.7878 -13.543,-5.87 -20.263,-5.87 -8.5807,0 -17.135,3.8656 -17.218,7.7804 -0.0323,1.5295 6.5608,4.3749 12.378,5.3421 4.5787,0.76125 5.1384,1.1331 3.2751,2.1758 -2.4081,1.3476 -14.534,0.38418 -17.991,-1.4296 -1.1308,-0.59315 -4.5745,-1.4961 -7.6526,-2.0065 -5.1507,-0.85409 -5.4576,-0.76062 -3.8528,1.1731 5.3465,6.4421 22.114,8.1211 43.767,4.3824 z m 5.7007,-28.697 c 0.42208,-0.68293 -0.79285,-1.2286 -2.7566,-1.2382 -5.9432,-0.0289 -8.4589,-1.2213 -10.657,-5.0513 -2.7214,-4.7417 -5.9677,-4.8735 -6.0125,-0.24415 l -0.0333,3.4375 -2.1134,-3.408 c -4.0323,-6.5025 -8.1702,-5.6059 -8.1024,1.7557 0.021,2.2838 0.0931,4.5227 0.16025,4.9755 0.19819,1.3372 28.684,1.118 29.515,-0.22711 z m -19.208,-17.993 c 2.3323,-0.97449 5.3265,-2.9718 6.6537,-4.4384 2.2646,-2.5023 2.2882,-2.8744 0.38333,-6.0407 -3.4334,-5.7072 -7.3988,-7.7867 -16.755,-8.7864 -14.007,-1.4966 -20.468,1.6369 -20.468,9.9269 0,5.3688 3.5324,8.3047 10.725,8.9144 6.2566,0.53028 6.3413,0.49057 5.7452,-2.6954 -0.60055,-3.2101 -0.57716,-3.204 3.2138,0.82889 4.3498,4.6274 4.7168,4.7075 10.501,2.2907 z m 208.57,181.17 c -6.5312,-0.86605 -14.688,-2.648 -18.125,-3.96 l -6.25,-2.3853 0.42671,-7.1258 c 0.33327,-5.5653 -0.14578,-8.0522 -2.1875,-11.356 -4.3708,-7.072 -3.6675,-8.5356 3.6358,-7.5668 6.7493,0.89533 8.1318,-0.43858 3.5841,-3.4582 -4.2257,-2.8057 -2.1504,-7.2848 3.3752,-7.2848 5.961,0 5.9156,1.1249 -0.86473,21.378 -2.6777,7.9987 -2.7356,8.5676 -1.1299,11.107 0.97703,1.5454 1.9058,1.1536 5.4819,-2.3126 4.1174,-3.9908 4.342,-4.0584 5.1388,-1.548 0.95716,3.0158 1.9813,3.2672 4.3275,1.0626 1.3711,-1.2884 1.5428,-0.76744 0.97884,2.9694 -0.84929,5.6274 1.8307,7.3232 10.863,6.8734 4.9332,-0.24565 6.7374,0.25831 9.245,2.5823 l 3.11,2.888 -4.87,-0.14434 c -2.68,-0.07938 -10.22,-0.85294 -16.75,-1.719 z m -48.745,-12.814 c -5.348,-0.64505 -8.1646,-2.6632 -6.308,-4.5198 1.9577,-1.9577 1.5665,-5.803 -0.5904,-5.803 -1.941,0 -6.8436,-6.909 -6.852,-9.6562 -0.003,-1.0074 1.1812,-1.2941 3.4616,-0.838 2.5247,0.50494 4.1052,-0.01288 5.8187,-1.9062 1.2939,-1.4297 2.8278,-2.5995 3.4088,-2.5995 0.58094,0 1.0563,4.748 1.0563,10.551 0,9.7637 1.1884,13.832 3.125,10.699 0.99357,-1.6076 2.7124,-0.60664 4.4123,2.5696 1.4099,2.6345 1.5746,2.6016 -7.5322,1.5032 z m -45.53,-4.302 c -1.2452,-4.0368 -3.0436,-9.3219 -3.8389,-11.282 -0.76485,-1.8847 -0.009,-2.1059 6.4346,-1.8826 4.0157,0.1392 8.1451,-0.02475 9.1763,-0.36436 1.5209,-0.50081 1.875,0.74006 1.875,6.5698 0,3.953 -0.28125,7.227 -0.625,7.2756 -8.6706,1.2254 -12.576,1.1304 -13.022,-0.31684 z m 1.3797,-22.292 c -6.0232,-1.808 -7.1076,-3.4989 -7.1076,-11.083 0,-5.6873 0.57324,-7.6654 2.9706,-10.251 1.6338,-1.762 3.3592,-4.4282 3.8342,-5.9247 1.0833,-3.4133 2.5644,-3.3912 8.7832,0.13104 6.1088,3.4599 10.662,9.9612 10.662,15.224 0,4.4452 -4.5582,9.6396 -10.394,11.844 -3.9732,1.5012 -3.944,1.501 -8.7485,0.05875 z m 78.745,-12.39 c -1.9586,-0.39728 -4.4131,-2.1868 -5.5283,-4.0306 -1.79,-2.9592 -1.8094,-3.8336 -0.18099,-8.125 1.9567,-5.1564 5.9338,-6.9211 9.3006,-4.1268 2.7037,2.2438 2.1862,3.6929 -1.3188,3.6929 -2.3027,0 -3.125,0.66488 -3.125,2.5268 0,1.4822 1.2919,3.1154 3.125,3.9506 2.9233,1.3319 4.2853,5.2862 2.1875,6.3508 -0.51562,0.26167 -2.5226,0.15425 -4.46,-0.23873 z m -8.7692,-25.923 c -1.59,-1.584 -0.83,-2.916 1.66,-2.916 1.3889,0 2.5,0.83334 2.5,1.875 0,1.903 -2.6442,2.5641 -4.1667,1.0417 z m -52.71,-40.416 c -1.2444,-1.375 -3.4409,-2.5086 -4.8812,-2.5191 -1.4403,-0.0105 -3.3792,-0.50101 -4.3086,-1.09 -1.324,-0.83901 -1.0608,-1.5114 1.2156,-3.1059 6.1879,-4.3342 13.599,-1.1319 13.599,5.8759 0,3.994 -2.4404,4.358 -5.625,0.83907 z m 105.62,-26.176 c 0,-0.64692 0.5625,-1.5239 1.25,-1.9488 0.6875,-0.4249 1.25,0.1044 1.25,1.1762 0,1.0718 -0.5625,1.9488 -1.25,1.9488 -0.6875,0 -1.25,-0.5293 -1.25,-1.1762 z m -88.591,-6.406 c -2.12,-6.07 -1.85,-14.91 0.47,-14.91 1.0312,0 1.875,0.89319 1.875,1.9849 0,1.5831 0.94883,1.845 4.6875,1.2941 2.5781,-0.37993 11.438,-1.0673 19.688,-1.5275 13.576,-0.7573 56.924,-7.6065 62.118,-9.815 1.6643,-0.70769 2.0787,-0.27535 1.935,2.019 -0.10062,1.6057 -0.7724,3.3414 -1.4929,3.857 -0.86348,0.61795 -0.67089,1.396 0.56502,2.2827 1.6046,1.1512 1.617,1.4475 0.0865,2.0545 -0.9837,0.39015 -2.9524,1.9566 -4.375,3.4811 -1.4225,1.5245 -3.874,3.1761 -5.4478,3.6702 -2.5636,0.80498 -2.7806,0.57655 -2.0848,-2.1954 0.80094,-3.1912 -0.67258,-4.073 -10.487,-6.2761 -4.035,-0.90577 -19.561,2.1938 -23.001,4.5917 -7.8305,5.4586 -8.9822,6.7951 -7.4484,8.6432 1.2819,1.5446 -0.76754,1.9146 -14.437,2.6062 -8.7618,0.44334 -17.125,1.1395 -18.584,1.5471 -2.1548,0.60164 -2.9187,-0.0189 -4.0625,-3.2999 z m -90.765,-22.388 c -0.41478,-0.67112 -1.0925,-4.0774 -1.5061,-7.5696 -0.74656,-6.3035 -0.72915,-6.3436 2.4129,-5.555 3.4359,0.86236 3.5094,0.80249 10.401,-8.4677 2.4276,-3.2656 5.063,-5.9375 5.8565,-5.9375 1.0585,0 1.0433,0.39948 -0.0573,1.5 -2.0386,2.0386 -1.8889,7.8721 0.31111,12.126 2.5576,4.9459 7.2073,7.6044 15.689,8.9703 6.2552,1.0074 8.2851,0.80719 13.781,-1.359 4.4498,-1.754 6.2827,-2.0485 5.9208,-0.95159 -1.0045,3.0449 -6.642,4.677 -16.218,4.6953 -10.262,0.0196 -21.432,-3.2504 -24.408,-7.1461 -0.85227,-1.1154 -1.9398,-1.6378 -2.4167,-1.1609 -0.47689,0.4769 -0.20145,1.5327 0.61209,2.3462 2.0494,2.0494 1.8488,5.3663 -0.43926,7.2652 -1.5972,1.3255 -2.3705,1.1069 -4.618,-1.3055 -1.9417,-2.0842 -2.8551,-2.431 -3.2536,-1.2356 -0.30471,0.91413 0.47464,2.4142 1.7319,3.3336 2.171,1.5874 2.1519,1.6715 -0.37923,1.6715 -1.4658,0 -3.0045,-0.5491 -3.4193,-1.2202 z m 131.25,-14.414 c -6.0534,-2.1556 -8.1415,-4.7792 -8.1415,-10.23 0,-5.4966 1.7302,-5.2211 5.1231,0.81568 1.9673,3.5004 4.647,5.8597 9.1425,8.0493 5.8955,2.8716 6.0858,3.099 2.6094,3.1184 -2.0625,0.0115 -5.9926,-0.77772 -8.7335,-1.7537 z m 48.207,-2.5948 c 0.06,-1.4562 0.35617,-1.7524 0.7552,-0.7552 0.36108,0.90234 0.31668,1.9805 -0.0986,2.3958 -0.41537,0.41536 -0.7108,-0.32292 -0.65652,-1.6406 z m 0.0987,-9.2708 c 0,-1.7188 0.28373,-2.4219 0.63049,-1.5625 0.34676,0.85938 0.34676,2.2656 0,3.125 -0.34676,0.85938 -0.63049,0.15625 -0.63049,-1.5625 z m -53.95,-6.25 c 0,-0.6875 0.5625,-1.25 1.25,-1.25 0.6875,0 1.25,0.5625 1.25,1.25 0,0.6875 -0.5625,1.25 -1.25,1.25 -0.6875,0 -1.25,-0.5625 -1.25,-1.25 z m -114.06,-18.328 c 0.85938,-0.34677 2.2656,-0.34677 3.125,0 0.85938,0.34676 0.15625,0.63048 -1.5625,0.63048 -1.71875,0 -2.4219,-0.28372 -1.5625,-0.63048 z m 23.438,-0.42215 c 0.4249,-0.6875 1.0206,-1.25 1.3238,-1.25 0.30317,0 0.55122,0.5625 0.55122,1.25 0,0.6875 -0.5957,1.25 -1.3238,1.25 -0.72807,0 -0.97612,-0.5625 -0.55122,-1.25 z"
         inkscape:connector-curvature="0"
         style="fill:#4f3215" />
      <path
         id="path4270"
         d="m -687.19,50.812 c 4.9133,-5.5273 4.5078,-19.302 -0.73899,-25.099 -1.86,-2.055 -2.07,-7.975 -2.07,-58.823 0,-37.374 0.4237,-56.276 1.25,-55.765 0.6875,0.4249 1.25,-0.10438 1.25,-1.1762 0,-1.07182 -0.5625,-1.9488 -1.25,-1.9488 -0.6875,0 -1.25,-0.77815 -1.25,-1.7292 0,-2.4409 4.6188,-3.3613 6.3571,-1.2668 1.5185,1.8297 13.716,2.5059 15.37,0.85206 0.49165,-0.49164 3.5385,-1.582 6.7708,-2.4231 5.0758,-1.3208 6.0833,-1.2606 7.391,0.44158 1.1822,1.5388 1.1839,2.5494 0.008,4.6106 -0.82848,1.4519 -1.5955,4.3273 -1.7046,6.3898 -0.10905,2.0625 -1.6697,8.49 -3.4682,14.283 -8.0312,25.871 -7.3473,44.425 2.3761,64.467 1.6677,3.4375 3.3447,7.2927 3.7266,8.5672 0.46347,1.5468 1.3858,2.0518 2.7741,1.5191 1.384,-0.5311 3.5759,0.65339 6.552,3.5407 3.265,3.1677 5.8218,4.4594 9.4722,4.7856 l 5,0.44682 -4.4214,2.0384 c -5.2041,2.3992 -19.043,1.7052 -21.347,-1.0705 -0.77701,-0.93625 -2.2074,-1.7023 -3.1787,-1.7023 -0.97125,0 -3.0851,-0.86434 -4.6973,-1.9207 -2.7815,-1.8225 -3.1008,-1.7194 -6.2451,2.0173 -2.3889,2.839 -3.0686,4.6833 -2.4355,6.6082 0.48297,1.4686 0.78579,4.0764 0.67294,5.7952 -0.11285,1.7188 0.77519,4.5951 1.9734,6.3919 6.6671,9.9975 8.8644,12.487 13.149,14.898 l 4.7201,2.6563 2.1737,-2.6844 c 1.83,-2.2599 4.1694,-2.8578 14.793,-3.7806 6.9407,-0.60288 15.089,-0.85104 18.106,-0.55145 10.145,1.0072 16.688,0.8267 25.242,-0.69619 4.6781,-0.83288 8.8522,-1.1678 9.2758,-0.7442 0.42356,0.42356 -0.54082,2.1655 -2.1431,3.871 -3.461,3.684 -9.9371,5.187 -13.692,3.1775 -1.9938,-1.0671 -4.5397,-1.0884 -9.8191,-0.08237 -9.8296,1.8733 -16.502,3.9938 -16.502,5.2442 0,0.57746 -14.712,1.0499 -32.694,1.0499 -31.044,0 -32.596,-0.11036 -30.749,-2.1875 z m 22.684,-46.04 c 1.1734,-3.0578 0.919,-3.4619 -1.1163,-1.7728 -2.078,1.7246 -2.4878,3.75 -0.75874,3.75 0.61395,0 1.4577,-0.88975 1.875,-1.9772 z m 93.355,29.057 c 4.5214,-2.1753 10.594,-5.9998 13.495,-8.4988 2.9006,-2.4991 8.5852,-6.3087 12.632,-8.4659 4.0472,-2.1572 9.7043,-5.8818 12.571,-8.2771 2.867,-2.3953 6.6506,-4.7159 8.408,-5.157 5.1091,-1.2823 15.184,2.007 23.422,7.6474 4.193,2.8706 10.69,6.2187 14.437,7.4401 3.7475,1.2214 9.1299,3.2721 11.961,4.557 2.8311,1.285 7.8936,3.415 11.25,4.7334 3.3564,1.3184 5.9795,2.8851 5.829,3.4815 -0.53557,2.1223 -6.4107,1.7897 -25.442,-1.4403 -25.245,-4.2846 -48.236,-4.6166 -63.659,-0.91935 -15.047,3.607 -24.831,6.3908 -27.52,7.8298 -1.2736,0.68159 -3.0557,1.1909 -3.9602,1.1318 -0.90458,-0.05913 2.0547,-1.8872 6.5761,-4.0625 z m -39.47,-27.724 c 10.182,-3.4298 15.01,-7.9213 13.78,-12.821 -0.42979,-1.7124 -2.9267,-6.2739 -5.5486,-10.137 -7.6363,-11.25 -16.333,-29.563 -22.034,-46.398 -2.9101,-8.5938 -6.4453,-18.514 -7.8559,-22.046 l -2.5648,-6.421 3.5296,-0.70591 c 1.958,-0.39159 6.8616,-3.9332 11.013,-7.9539 4.1158,-3.9864 10.369,-10.007 13.896,-13.38 9.5638,-9.1438 8.8408,-9.6954 -5.7742,-4.4043 -3.6094,1.3067 -6.5625,2.0647 -6.5625,1.6844 0,-0.38027 1.9688,-2.5482 4.375,-4.8176 2.4931,-2.3513 4.375,-5.3417 4.375,-6.9521 0,-2.6855 -0.32606,-2.783 -6.5625,-1.9613 -3.6094,0.47555 -11.062,2.0284 -16.562,3.4508 -6.5171,1.6854 -14.354,2.6376 -22.5,2.7339 -10.787,0.12746 -13.999,-0.35877 -23.438,-3.5474 l -10.938,-3.6951 0,-4.7424 c 0,-2.6083 0.28977,-4.7424 0.64394,-4.7424 0.35416,0 3.8698,1.8281 7.8125,4.0625 7.0372,3.988 7.4549,4.0622 22.794,4.0453 15.172,-0.0167 31.616,-2.5839 36.25,-5.6592 1.6455,-1.092 1.6215,-1.3941 -0.19625,-2.4684 -1.2791,-0.75603 -1.8207,-2.1822 -1.4161,-3.7293 0.53982,-2.0643 -0.63544,-3.1051 -6.6788,-5.9146 -9.3602,-4.3516 -23.803,-5.2953 -35.435,-2.3153 -5.9915,1.5349 -8.2657,1.6694 -9.5936,0.5674 -2.4483,-2.0319 -3.762,-0.20736 -1.9452,2.7017 2.5579,4.0958 1.7688,4.774 -5.3598,4.6072 l -6.875,-0.16097 0,-8.3136 c 0,-8.2392 0.0308,-8.3135 3.4375,-8.3008 1.8906,0.007 22.533,-0.10268 45.873,-0.24389 l 42.435,-0.25676 1.6083,5.377 c 0.88455,2.9574 1.6254,7.627 1.6464,10.377 0.0602,7.8966 1.1165,8.6725 12.763,9.375 l 10.361,0.625 -3.8244,2.0965 c -5.002,2.742 -14.281,12.066 -15.686,15.761 -0.76176,2.0036 -0.52654,4.0279 0.75624,6.5086 2.4106,4.6616 3.7802,5.4257 10.426,5.8172 6.0594,0.35695 7.11,0.86775 5.8796,2.8586 -1.5331,2.4806 -12.966,1.5634 -16.916,-1.357 l -3.6387,-2.6902 -13.181,6.0638 c -7.4706,3.4366 -14.883,7.8192 -17.108,10.115 l -3.9271,4.0517 2.5771,5.4825 c 2.5354,5.3938 4.9442,13.171 8.55,27.606 1.0049,4.0229 2.7111,8.6635 3.7916,10.312 2.2482,3.4311 6.043,3.9531 7.1809,0.9877 0.7047,-1.8364 1.0481,-1.8292 3.968,0.084 3.0754,2.0151 3.3595,1.9702 7.4925,-1.1822 l 4.2959,-3.2767 1.164,3.0615 c 0.6402,1.6838 1.7561,3.2611 2.4799,3.5051 0.81867,0.27597 0.0859,3.9786 -1.9393,9.7991 -3.4056,9.7879 -5.1525,22.024 -3.6887,25.838 0.73069,1.9041 1.0312,1.9631 2.0218,0.39655 0.65,-1.018 1.19,-2.971 1.21,-4.346 0.0769,-5.0246 1.7849,-6.059 6.2188,-3.7662 2.7037,1.3982 5.1487,1.7869 7.3534,1.1692 1.8166,-0.50898 4.2872,-0.80065 5.4904,-0.64815 2.9247,0.3707 2.7921,-1.4853 -1.1115,-15.557 -1.8145,-6.5406 -2.9628,-12.228 -2.5519,-12.639 0.41094,-0.41094 3.0319,0.167 5.8243,1.2843 2.7924,1.1173 6.472,2.0315 8.1769,2.0315 3.6586,0 3.6538,-0.0445 1.1454,10.772 -1.0748,4.6346 -1.6298,9.7194 -1.2332,11.3 0.59832,2.3839 0.13309,2.9906 -2.7332,3.5646 -3.3086,0.66259 -18.449,7.4942 -30.329,13.685 -6.8102,3.5487 -18.024,6.966 -22.414,6.8302 -2.0578,-0.063625 -0.0702,-1.1571 5.5353,-3.0452 z m 153.76,-11.072 c -2.2662,-1.6571 -2.2526,-1.7467 0.39196,-2.5861 1.8748,-0.59504 3.7774,-0.053125 6.0272,1.7166 l 3.2877,2.5861 -3.6797,0 c -2.0238,0 -4.7361,-0.77248 -6.0272,-1.7166 z m -81.023,-19.245 c -1.1657,-3.2525 -2.1153,-6.1949 -2.1101,-6.5386 0.005,-0.34375 3.6646,-0.625 8.132,-0.625 8.8799,0 8.9167,0.04488 7.0355,8.5844 -0.68735,3.1202 -1.4468,3.6432 -5.8638,4.0386 -5.0379,0.45102 -5.0893,0.41206 -7.1937,-5.4594 z m 70.705,-1.7383 c -5.292,-6.6053 -5.1819,-7.8124 0.625,-6.8526 2.5781,0.42614 5.6719,0.78099 6.875,0.78855 1.2031,0.0075 2.1875,0.88545 2.1875,1.9508 0,2.449 -3.5137,9.3343 -4.7196,9.2484 -0.49797,-0.0355 -2.7335,-2.3463 -4.9679,-5.1352 z m -30.32,-0.762 c -3.3316,-0.49576 -6.25,-3.4078 -6.25,-6.2363 0,-1.1749 0.82636,-1.458 2.6064,-0.8931 1.7984,0.5708 3.5421,-0.05187 5.625,-2.0086 l 3.0186,-2.8359 0,5.7691 c 0,6.3539 -0.42811,6.8852 -5,6.2048 z m 38.304,-10.412 c -1.5541,-2.2188 -1.6623,-3.1024 -0.47255,-3.8582 3.9613,-2.5161 6.2737,0.76252 3.5592,5.0463 -0.83981,1.3253 -1.5057,1.069 -3.0866,-1.1881 z m -77.992,-5.4415 c -3.8525,-1.7207 -4.0625,-2.1608 -4.0625,-8.5159 0,-5.8144 0.49641,-7.1771 3.75,-10.294 2.0625,-1.976 3.75,-4.3312 3.75,-5.2339 0,-2.0478 0.37047,-2.0422 5.4553,0.08237 9.5607,3.9947 12.664,14.82 6.062,21.145 -4.3487,4.1663 -9.6829,5.1708 -14.955,2.8162 z m -35.061,-68.507 c -0.82392,-0.99276 -1.8535,-4.3987 -2.288,-7.5688 -0.72818,-5.3127 -0.54191,-5.8768 2.3801,-7.2082 4.3526,-1.9832 13.709,2.6617 17.167,8.5223 2.9716,5.0364 3.1452,6.1769 0.62137,4.0824 -1.0276,-0.85282 -2.9757,-1.261 -4.329,-0.90709 -1.3598,0.35559 -3.1522,-0.18972 -4.0063,-1.2189 -1.3312,-1.604 -1.9966,-1.3098 -4.7963,2.1205 -2.7487,3.3678 -3.482,3.7041 -4.7487,2.1778 z m 53.79,-10.93 c -0.8587,-1.375 -2.4002,-2.5 -3.4257,-2.5 -2.5181,0 -2.3714,-2.3839 0.20757,-3.3736 2.039,-0.78245 7.928,4.5608 7.928,7.1932 0,2.1144 -3.1094,1.2431 -4.7099,-1.3197 z m 105.96,-23.75 c 0,-0.6875 0.5625,-1.25 1.25,-1.25 0.6875,0 1.25,0.5625 1.25,1.25 0,0.6875 -0.5625,1.25 -1.25,1.25 -0.6875,0 -1.25,-0.5625 -1.25,-1.25 z m -83.892,-4.604 c -3.4496,-0.55875 -6.1079,-4.701 -6.1077,-9.5173 7e-5,-2.5912 0.49789,-2.7388 8.4375,-2.5011 4.6406,0.13894 10.273,0.62581 12.517,1.0819 2.244,0.45612 5.619,0.22683 7.5,-0.50955 1.881,-0.73637 6.2326,-1.678 9.6701,-2.0925 l 6.25,-0.75362 -3.5918,2.7897 c -1.9755,1.5343 -4.3737,4.661 -5.3293,6.948 l -1.7375,4.1583 -9.6707,0.0171 c -5.3189,0.009 -10.796,0.21757 -12.171,0.46261 -1.375,0.24505 -3.9702,0.2074 -5.7672,-0.0837 z m 74.83,-14.546 c -1.8906,-1.5503 -3.4375,-3.2195 -3.4375,-3.7093 0,-1.3966 6.2746,-1.0434 10.849,0.61057 4.6207,1.6708 5.246,2.8925 1.9638,3.8363 -1.2031,0.34594 -3.0312,0.95572 -4.0625,1.3551 -1.0312,0.39935 -3.4219,-0.54233 -5.3125,-2.0926 z m -268.3,-29.423 c 0.20507,-27.58 0.47548,-31.444 2.2346,-31.93 1.1007,-0.30457 14.553,-0.53105 29.895,-0.5033 25.929,0.0469 27.997,0.2162 29.363,2.4036 0.80827,1.2942 1.937,2.3532 2.5082,2.3532 1.6227,0 4.5805,-3.3628 3.7172,-4.2262 -0.42559,-0.4256 0.18498,-0.77381 1.3568,-0.77381 1.5726,0 2.0364,0.88867 1.7708,3.3931 -0.51149,4.8234 3.2895,5.3365 5.4919,0.74131 1.1223,-2.3416 2.639,-3.5094 4.5579,-3.5094 2.686,0 2.9138,0.60244 3.451,9.1252 0.31634,5.0189 1.3468,12.894 2.2898,17.5 2.9022,14.175 4.8801,29.89 4.0381,32.084 -0.89257,2.326 -4.9519,1.671 -8.412,-1.3572 -2.6036,-2.2787 -6.6412,-2.1845 -11.379,0.26546 -2.4503,1.2671 -5.2722,1.713 -7.7504,1.2248 -2.1434,-0.42229 -6.3626,-0.72667 -9.3758,-0.67641 -4.7167,0.0787 -5.9639,-0.48286 -8.9668,-4.0373 -2.9309,-3.4692 -3.8528,-3.9033 -5.7713,-2.7179 -1.7414,1.076 -3.099,0.99419 -5.7207,-0.3446 -4.2099,-2.1498 -4.4557,-4.1912 -0.50455,-4.1912 4.1138,0 10.293,-3.3146 13.296,-7.1319 2.4545,-3.1204 2.4661,-3.3563 0.34329,-6.9806 -3.6152,-6.1725 -7.6121,-8.1995 -18.879,-9.5743 -10.731,-1.3094 -13.104,-0.85913 -18.005,3.4162 -2.9292,2.555 -2.9292,11.587 0,15.169 1.4405,1.7616 4.4541,3.0298 8.8252,3.7137 3.6507,0.57122 7.2918,1.6926 8.0912,2.4921 1.3589,1.3589 1.4003,10.014 0.0546,11.396 -0.33469,0.34375 -5.4854,0.9422 -11.446,1.3299 -5.9606,0.38769 -11.843,1.1591 -13.072,1.7143 -2.1169,0.95624 -2.2223,-0.64344 -2.0013,-30.367 z m 44.86,-8.97 c 0,-1.6112 -3.5613,-3.0661 -4.7052,-1.9222 -0.46606,0.46607 -0.0199,1.3707 0.99141,2.0103 2.4197,1.5303 3.7138,1.4996 3.7138,-0.0881 z m 25.625,-6.2108 c 2.095,-0.90026 1.8419,-1.0885 -1.5625,-1.1621 -2.2344,-0.0483 -4.0625,0.47464 -4.0625,1.1621 0,1.484 2.1716,1.484 5.625,0 z m 10.625,-4.4488 c 0,-1.1823 -1.3362,-1.8012 -3.8885,-1.8012 l -3.8885,0 2.9447,2.3845 c 3.1425,2.5446 4.8322,2.3407 4.8322,-0.58327 z m 196.88,43.199 c 0.4249,-0.6875 1.0206,-1.25 1.3238,-1.25 0.30317,0 0.55122,0.5625 0.55122,1.25 0,0.6875 -0.5957,1.25 -1.3238,1.25 -0.72808,0 -0.97613,-0.5625 -0.55123,-1.25 z m -161.25,-10.612 c -2.0625,-0.97027 -5.2819,-3.0668 -7.1541,-4.6589 l -3.4041,-2.8948 2.3877,-3.6398 2.3877,-3.6398 2.1156,5.2874 c 1.2989,3.2463 3.8541,6.4688 6.6191,8.3476 4.8834,3.3183 3.0966,4.0436 -2.9518,1.1982 z m 110.45,-8.7835 c -3.1346,-1.7029 -6.8749,-8.9663 -5.3847,-10.457 0.38318,-0.38317 2.1634,1.1774 3.956,3.4679 1.7926,2.2905 4.9972,5.2244 7.1214,6.5197 3.7846,2.3078 3.7994,2.3542 0.73719,2.3098 -1.7188,-0.0249 -4.6122,-0.85331 -6.4299,-1.8408 z"
         inkscape:connector-curvature="0"
         style="fill:#24200f" />
    </g>
    <rect
       id="rect4286"
       rx="1.0135"
       ry="1.0135"
       height="37.5"
       width="37.5"
       y="6.25"
       x="5.25"
       style="fill:none;stroke:#2a2a2a;stroke-width:1.5;stroke-linecap:round;stroke-linejoin:round" />
    <rect
       id="rect6741"
       rx="1"
       ry="1"
       height="37"
       width="37"
       y="6.5"
       x="5.5"
       style="opacity:0.5;fill:none;stroke:url(#linearGradient3058);stroke-linecap:round;stroke-linejoin:round" />
    <rect
       id="rect5505-21-3-2"
       style="color:#000000;opacity:0.4;fill:none;stroke:#000000;stroke-linecap:round;stroke-linejoin:round"
       rx="2"
       ry="2"
       height="39"
       width="39"
       y="5.5"
       x="4.5" />
  </g>
</svg>
