<?xml version="1.0" encoding="UTF-8" standalone="no"?>
<!-- Created with Inkscape (http://www.inkscape.org/) -->

<svg
   xmlns:dc="http://purl.org/dc/elements/1.1/"
   xmlns:cc="http://creativecommons.org/ns#"
   xmlns:rdf="http://www.w3.org/1999/02/22-rdf-syntax-ns#"
   xmlns:svg="http://www.w3.org/2000/svg"
   xmlns="http://www.w3.org/2000/svg"
   xmlns:xlink="http://www.w3.org/1999/xlink"
   xmlns:sodipodi="http://sodipodi.sourceforge.net/DTD/sodipodi-0.dtd"
   xmlns:inkscape="http://www.inkscape.org/namespaces/inkscape"
   id="svg4296"
   height="48"
   width="48"
   version="1.1"
   inkscape:version="0.91 r13725"
   sodipodi:docname="wfto.svg">
  <sodipodi:namedview
     pagecolor="#ffffff"
     bordercolor="#666666"
     borderopacity="1"
     objecttolerance="10"
     gridtolerance="10"
     guidetolerance="10"
     inkscape:pageopacity="0"
     inkscape:pageshadow="2"
     inkscape:window-width="1535"
     inkscape:window-height="876"
     id="namedview48"
     showgrid="false"
     inkscape:zoom="7.54"
     inkscape:cx="7.3489014"
     inkscape:cy="26.774436"
     inkscape:window-x="65"
     inkscape:window-y="24"
     inkscape:window-maximized="1"
     inkscape:current-layer="svg4296" />
  <defs
     id="defs4298">
    <linearGradient
       id="linearGradient3074"
       y2="43"
       gradientUnits="userSpaceOnUse"
       x2="24"
       gradientTransform="translate(4e-6,0)"
       y1="5"
       x1="24">
      <stop
         id="stop3897"
         stop-color="#fff"
         offset="0" />
      <stop
         id="stop3899"
         stop-color="#fff"
         stop-opacity=".23529"
         offset=".052632" />
      <stop
         id="stop3901"
         stop-color="#fff"
         stop-opacity=".15686"
         offset=".95056" />
      <stop
         id="stop3903"
         stop-color="#fff"
         stop-opacity=".39216"
         offset="1" />
    </linearGradient>
    <radialGradient
       id="radialGradient3078"
       gradientUnits="userSpaceOnUse"
       cy="9.9571"
       cx="7.1184"
       gradientTransform="matrix(0,9.1402,-11.221,0,136.56,-78.888)"
       r="12.672">
      <stop
         id="stop3750-1-0-7-6-6-1-3-9-3"
         stop-color="#505050"
         offset="0" />
      <stop
         id="stop3752-3-7-4-0-32-8-923-0-7"
         stop-color="#2b2b2b"
         offset=".26238" />
      <stop
         id="stop3754-1-8-5-2-7-6-7-1-9"
         stop-color="#0a0a0a"
         offset=".70495" />
      <stop
         id="stop3756-1-6-2-6-6-1-96-6-0"
         offset="1" />
    </radialGradient>
    <linearGradient
       id="linearGradient4254"
       y2="56.339001"
       gradientUnits="userSpaceOnUse"
       x2="25.051001"
       y1="7.3013"
       x1="24.209999">
      <stop
         id="stop4258"
         stop-color="#fff"
         offset="0" />
      <stop
         id="stop4260"
         stop-color="#fff"
         stop-opacity="0"
         offset="1" />
    </linearGradient>
    <linearGradient
       id="linearGradient4340"
       y2="131.94"
       xlink:href="#linearGradient4334"
       gradientUnits="userSpaceOnUse"
       x2="665.5"
       y1="637.82001"
       x1="678.65002" />
    <linearGradient
       id="linearGradient4334">
      <stop
         id="stop4336"
         stop-color="#ff5600"
         offset="0" />
      <stop
         id="stop4338"
         stop-color="#ffa900"
         offset="1" />
    </linearGradient>
    <linearGradient
       id="linearGradient4342"
       y2="-47.887001"
       xlink:href="#linearGradient4334"
       gradientUnits="userSpaceOnUse"
       x2="648.72998"
       gradientTransform="matrix(0.03655,0,0,0.035059,0.46953,4.4568)"
       y1="1207.7"
       x1="639.69" />
  </defs>
  <metadata
     id="metadata4301">
    <rdf:RDF>
      <cc:Work
         rdf:about="">
        <dc:format>image/svg+xml</dc:format>
        <dc:type
           rdf:resource="http://purl.org/dc/dcmitype/StillImage" />
        <dc:title></dc:title>
      </cc:Work>
    </rdf:RDF>
  </metadata>
  <g
     transform="translate(0,-1)"
     id="g4173">
    <path
       style="opacity:0.15;fill:none;stroke:#000000;stroke-width:3;stroke-linecap:round;stroke-linejoin:round"
       inkscape:connector-curvature="0"
       d="m 14,15 0,2 -2,0 0,20 2,0 0,2 5,0 0,2 -5,0 0,2 20,0 0,-2 -5,0 0,-2 5,0 0,-2 2,0 0,-20 -2,0 0,-2 -20,0 z"
       id="path4237" />
    <path
       style="opacity:0.15;fill:none;stroke:#000000;stroke-width:2;stroke-linecap:round;stroke-linejoin:round"
       inkscape:connector-curvature="0"
       d="m 14,15 0,2 -2,0 0,20 2,0 0,2 5,0 0,2 -5,0 0,2 20,0 0,-2 -5,0 0,-2 5,0 0,-2 2,0 0,-20 -2,0 0,-2 -20,0 z"
       id="path4239" />
    <path
       style="fill:#91c2d0"
       inkscape:connector-curvature="0"
       d="m 14,15 0,2 -2,0 0,20 2,0 0,2 5,0 0,2 -5,0 0,2 20,0 0,-2 -5,0 0,-2 5,0 0,-2 2,0 0,-20 -2,0 0,-2 -20,0 z"
       id="path4303" />
    <g
       transform="translate(0,3)"
       id="g4266">
      <path
         style="fill:#161616"
         inkscape:connector-curvature="0"
         transform="translate(0,-3)"
         d="m 17,19 0,6 6,0 0,-6 -6,0 z m 11,0 0,6 6,0 0,-6 -6,0 z m -8,12 0,2 2,0 0,2 10,0 0,-2 2,0 0,-2 -14,0 z"
         id="path4301" />
    </g>
    <path
       style="opacity:0.5;fill:url(#linearGradient4254)"
       inkscape:connector-curvature="0"
       d="m 14,15 0,2 -2,0 0,20 2,0 0,2 5,0 0,2 -5,0 0,2 20,0 0,-2 -5,0 0,-2 5,0 0,-2 2,0 0,-20 -2,0 0,-2 -20,0 z m 1,1 18,0 0,1 a 1.0001,1.0001 0 0 0 1,1 l 1,0 0,18 -1,0 a 1.0001,1.0001 0 0 0 -1,1 l 0,1 -4,0 a 1.0001,1.0001 0 0 0 -1,1 l 0,2 a 1.0001,1.0001 0 0 0 1,1 l -10,0 a 1.0001,1.0001 0 0 0 1,-1 l 0,-2 a 1.0001,1.0001 0 0 0 -1,-1 l -4,0 0,-1 a 1.0001,1.0001 0 0 0 -1,-1 l -1,0 0,-18 1,0 a 1.0001,1.0001 0 0 0 1,-1 l 0,-1 z"
       id="path4241" />
  </g>
  <rect
     x="4.5"
     y="4.5"
     width="39"
     height="39"
     ry="2"
     rx="2"
     style="color:#000000;fill:url(#radialGradient3078)"
     id="rect5505-21" />
  <rect
     x="4.5"
     y="4.5"
     width="39"
     height="39"
     ry="2"
     rx="2"
     style="color:#000000;opacity:0.7;fill:none;stroke:#000000;stroke-linecap:round;stroke-linejoin:round"
     id="rect5505-21-3-2" />
  <rect
     style="opacity:0.3;fill:none;stroke:url(#linearGradient3074);stroke-linecap:round;stroke-linejoin:round"
     x="5.5"
     y="5.5"
     width="37"
     height="37"
     ry="1"
     rx="1"
     id="rect6741" />
  <g
     transform="translate(-1.5339778e-4,-0.99926652)"
     id="g4265">
    <g
       id="g4834"
       transform="translate(6.4909e-4,6.2407e-5)"
       style="opacity:0.3;fill:none;stroke:#ff0000;stroke-linecap:round;stroke-linejoin:round">
      <g
         id="g4836"
         transform="matrix(0.03655,0,0,0.035059,0.46953,4.4568)"
         style="fill:none;stroke:#ff0000;stroke-width:27.93600082;stroke-linecap:round;stroke-linejoin:round">
        <path
           id="path4838"
           d="m 31.463,9.002 c -0.16847,-0.00448 -0.33837,8.375e-4 -0.50586,0.017578 -0.42544,0.022788 -0.84402,0.12709 -1.2344,0.28906 -0.6568,0.2661 -1.2098,0.72326 -1.6699,1.2383 -0.10928,0.14655 -0.24541,0.27623 -0.33203,0.4375 0.26133,-0.08554 0.51271,-0.19811 0.77148,-0.29102 0.01206,1.6958 0.02175,3.3905 0.03125,5.0859 0.004,0.24927 -0.0208,0.50784 0.08008,0.74414 0.16192,0.40142 0.453,0.7928 0.88867,0.94531 0.31871,0.1164 0.67274,0.0875 0.99219,-0.01172 -0.12902,-0.16863 -0.29196,-0.31288 -0.40234,-0.49414 -0.10782,-0.1774 -0.08643,-0.38891 -0.08789,-0.58594 -0.0077,-1.2506 -0.01515,-2.5014 -0.01953,-3.752 -0.0015,-0.90733 -0.02,-1.8153 -0.0098,-2.7227 0.35015,-0.049784 0.70479,-0.067008 1.0586,-0.058594 0.48209,0.00947 0.97808,0.16258 1.3184,0.50195 0.39584,0.3853 0.53781,0.94732 0.51953,1.4746 -0.01572,0.20755 -0.09446,0.40423 -0.14453,0.60547 -0.03911,0.22613 -0.23337,0.38195 -0.40625,0.52148 -0.50439,0.37653 -1.1437,0.52153 -1.7617,0.62109 0.07346,0.2086 0.1547,0.4146 0.23438,0.62109 0.09247,0.19949 0.20014,0.39121 0.29883,0.58789 0.63268,1.097 1.5347,2.032 2.5332,2.832 0.703,0.588 1.492,1.109 2.384,1.391 -0.0318,-0.05119 -0.0709,-0.09635 -0.11914,-0.13281 -0.18567,-0.14655 -0.34933,-0.31599 -0.52148,-0.47656 -0.78984,-0.76709 -1.5351,-1.5817 -2.1875,-2.4609 -0.36733,-0.51221 -0.7235,-1.0481 -0.90625,-1.6504 0.07091,-0.08274 0.11108,-0.21003 0.23242,-0.23633 0.9079,-0.25874 1.7049,-0.94208 1.9863,-1.8203 0.17982,-0.60161 0.11262,-1.2808 -0.22656,-1.8203 -0.307,-0.4852 -0.795,-0.8408 -1.326,-1.0778 -0.461,-0.2001 -0.964,-0.3088 -1.469,-0.3222 z M 19.598,9.035203 c -0.34284,0.098866 -0.5669,0.39416 -0.75586,0.66797 -0.17434,0.26084 -0.30937,0.55481 -0.33203,0.86719 0.24488,0.027 0.49267,0.02669 0.73828,0.04492 0.16155,0.03296 0.31525,0.08984 0.47461,0.13086 0.19481,0.04382 0.34322,0.18038 0.51172,0.27539 0.16045,0.0887 0.25548,0.24528 0.375,0.375 0.15643,0.15987 0.21748,0.37659 0.31836,0.56836 0.10636,0.19458 0.12584,0.41695 0.18359,0.62695 0.09357,0.32219 0.08271,0.65998 0.11523,0.99023 0.03911,0.30466 -0.06109,0.60349 -0.1543,0.89062 -0.16996,0.48171 -0.36938,0.95609 -0.61719,1.4062 -0.09247,0.16302 -0.19239,0.323 -0.32031,0.46289 -0.06944,0.07152 -0.1506,0.14844 -0.25586,0.16211 -0.2087,-0.0018 -0.39925,-0.10356 -0.56445,-0.2168 -0.34211,-0.24191 -0.62014,-0.55681 -0.88476,-0.87305 -0.34576,-0.43088 -0.69639,-0.87661 -0.87109,-1.4004 -0.16082,-0.66051 -0.22061,-1.3409 -0.23633,-2.0176 -0.01681,-0.28784 0.02622,-0.5758 0.01563,-0.86328 -0.01425,0.01402 -0.04239,0.04297 -0.05664,0.05664 -0.16118,0.41966 -0.32196,0.83996 -0.47656,1.2617 -0.22624,0.63176 -0.23176,1.3144 -0.14258,1.9707 0.04057,0.2647 0.10666,0.53389 0.27734,0.75195 -0.27083,0.35304 -0.54193,0.71242 -0.88476,1.0059 -0.20285,0.16758 -0.43389,0.33994 -0.71094,0.36133 -0.70797,-0.30712 -1.2965,-0.87379 -1.5645,-1.5781 -0.29861,-0.74255 -0.31066,-1.5582 -0.24414,-2.3418 0.05848,-0.64263 0.21772,-1.3182 0.69141,-1.8027 0.24086,-0.25558 0.56596,-0.41891 0.90039,-0.5332 -0.05,-0.255 -0.201,-0.4769 -0.361,-0.6795 -0.155,-0.1897 -0.324,-0.3773 -0.545,-0.4961 -0.085,-0.047 -0.19,-0.0736 -0.285,-0.041 -0.241,0.0873 -0.462,0.2211 -0.643,0.3964 -0.363,0.3356 -0.594,0.7762 -0.775,1.2212 -0.343,0.899 -0.526,1.857 -0.518,2.816 -0.004,0.43333 0.07818,0.86234 0.16992,1.2852 0.08078,0.38074 0.25956,0.7351 0.4668,1.0664 0.27449,0.42632 0.59419,0.82614 0.94726,1.1953 0.34722,0.35515 0.73935,0.69956 1.2266,0.86328 0.09247,0.01823 0.19939,0.08103 0.28711,0.01758 0.41923,-0.25558 0.8376,-0.5205 1.1914,-0.85742 0.32054,-0.33096 0.62731,-0.67505 0.93359,-1.0176 0.19883,0.18126 0.381,0.37899 0.57617,0.56445 0.26206,0.25032 0.5046,0.52182 0.79883,0.74023 0.27851,0.21211 0.58007,0.39392 0.88672,0.56641 0.99087,-0.7748 1.8958,-1.7061 2.4082,-2.8438 0.37866,-0.85018 0.53196,-1.7805 0.51953,-2.7012 0.0106,-0.69522 -0.19046,-1.3936 -0.58008,-1.9805 -0.318,-0.4754 -0.725,-0.918 -1.252,-1.1852 -0.3,-0.144 -0.647,-0.2315 -0.982,-0.1796 z m 6.916,1.0723 c -0.23392,-0.0022 -0.46841,0.02314 -0.69531,0.08008 -0.82398,0.1537 -1.6073,0.5432 -2.1719,1.1445 -0.80234,0.83889 -1.1896,1.9883 -1.1992,3.1152 -0.04181,0.56235 0.16236,1.111 0.44336,1.5957 0.19328,0.32535 0.42302,0.65044 0.75781,0.85547 0.26959,0.16884 0.62849,0.1798 0.91797,0.05078 0.25994,-0.11836 0.43148,-0.36751 0.50195,-0.62891 -0.10994,-0.05357 -0.2219,-0.10328 -0.33594,-0.14844 -0.21988,-0.08891 -0.38244,-0.26311 -0.54297,-0.42578 -0.12866,-0.14641 -0.27504,-0.30226 -0.29492,-0.50195 0.7693,-0.01739 1.481,-0.34807 2.1406,-0.69922 0.02018,0.41257 0.04584,0.82571 0.01367,1.2383 -0.01813,0.25607 -0.0465,0.51774 -0.15234,0.75586 -0.05205,0.12088 -0.17808,0.24259 -0.10352,0.38086 0.41579,-0.092 0.84649,-0.22975 1.1523,-0.5293 0.3117,-0.32198 0.35212,-0.78718 0.33984,-1.2051 -0.0117,-1.0633 -0.0087,-2.1281 -0.02539,-3.1914 0.0012,-0.35424 -0.01412,-0.71108 0.05664,-1.0605 0.04006,-0.18988 0.10872,-0.39334 0.27539,-0.51562 0.02748,-0.02552 0.07186,-0.04414 0.0625,-0.08789 -0.36053,-0.13939 -0.75086,-0.21929 -1.1406,-0.22266 z m -0.85547,0.82031 c 0.14006,8.42e-4 0.28073,0.02399 0.41406,0.07813 -0.01199,1.0978 -0.01272,2.1955 -0.02734,3.293 -0.81141,0.16043 -1.6437,0.12077 -2.4668,0.12891 0.0044,-0.23812 -0.0013,-0.477 -0.0039,-0.71484 -0.01491,-0.37078 -0.01731,-0.75348 0.12305,-1.1055 0.20029,-0.50625 0.54009,-0.96107 0.96875,-1.3125 0.2731,-0.2168 0.63429,-0.36971 0.99219,-0.36719 z m 6.3027,12.076 c -0.10571,0.0073 -0.21069,0.02413 -0.3125,0.04883 -0.65928,0.21821 -1.138,0.85337 -1.3164,1.5547 -0.01311,-0.51568 -0.01399,-1.0356 0.15234,-1.5273 -0.16331,-0.03683 -0.34885,-0.11073 -0.49805,0.0098 -0.3367,0.22581 -0.22562,0.7062 -0.25586,1.0645 -0.41331,-0.0684 -0.83625,-0.04282 -1.2324,0.10156 -0.006,-0.40494 -0.0114,-0.81643 0.16602,-1.1855 -0.20968,-0.02063 -0.46598,-0.09843 -0.61719,0.11328 -0.2873,0.34306 -0.04977,0.84484 -0.14453,1.252 -0.09375,0.11941 -0.19632,0.22736 -0.28906,0.3457 0.0746,0.0055 0.22518,0.01792 0.30078,0.02344 0.02621,0.70457 0.1342,1.4413 -0.12891,2.1133 0.29536,-0.11074 0.61284,-0.29322 0.68945,-0.65039 0.11089,-0.53739 0.02766,-1.0928 0.08008,-1.6367 0.40625,-0.06949 0.82485,-5.46e-4 1.1797,0.22852 0.03226,0.68503 0.1061,1.3855 -0.10156,2.0488 0.18145,-0.0608 0.38981,-0.10037 0.50977,-0.27734 0.29032,-0.35608 0.21996,-0.86241 0.24414,-1.2988 0.1744,0.43968 0.34791,0.91543 0.71484,1.2129 0.50807,0.38002 1.266,0.45032 1.7539,-0.0078 -0.33569,-0.04234 -0.69739,0.03916 -1.0059,-0.14648 -0.45464,-0.25404 -0.81093,-0.77532 -0.79883,-1.3398 0.12601,-0.33214 0.54763,-0.34552 0.83594,-0.35742 0.26815,-0.02714 0.3951,0.241 0.5332,0.4375 0.21472,-0.15199 0.40871,-0.33561 0.58008,-0.54297 -0.5625,-0.56996 -1.3264,-0.15846 -1.9746,-0.07813 0.10887,-0.31592 0.20627,-0.65961 0.44922,-0.88867 0.21573,-0.22906 0.55519,-0.19798 0.82031,-0.10352 0.13105,0.11833 0.19443,0.29809 0.28516,0.45117 0.18952,-0.17804 0.59892,-0.51029 0.30859,-0.77734 -0.28352,-0.14981 -0.61062,-0.20943 -0.92773,-0.1875 z m -6.1875,0.07813 c -0.2199,0.02759 -0.43422,0.09541 -0.64063,0.23438 0.03529,0.23558 0.08632,0.468 0.16797,0.68945 0.27823,-0.24208 0.57932,-0.47394 0.94727,-0.51953 -0.10181,0.23124 -0.23688,0.45191 -0.28125,0.70703 -0.07963,1.1594 0.14151,2.3466 -0.13672,3.4844 0.3498,-0.18564 0.67389,-0.50152 0.76562,-0.92383 0.06968,-1.0552 -0.09563,-2.1262 0.05859,-3.1738 0.42843,0.03691 0.87424,-0.10093 1.1484,-0.47656 -0.66381,0.17678 -1.3696,-0.10425 -2.0293,-0.02148 z m -4.0664,0.01758 c -0.57359,-0.04777 -1.0849,0.31552 -1.4297,0.78125 0.0605,0.01628 0.17976,0.05095 0.24023,0.06836 0.07558,0.82616 -0.0068,1.6639 0.05469,2.4922 0.08367,0.37455 0.42288,0.5734 0.76562,0.51367 -0.07158,-0.20301 -0.18876,-0.39746 -0.17774,-0.62109 -0.0102,-0.94015 -0.01239,-1.8802 -0.02148,-2.8203 0.26815,-0.01521 0.55575,-0.05629 0.80273,0.08594 0.36996,0.22038 0.45362,0.81535 0.21875,1.1758 -0.21068,0.2334 -0.52947,0.28425 -0.80469,0.38086 0.19456,0.58298 0.5269,1.1031 0.94726,1.5254 0.37097,0.37346 0.7648,0.76162 1.2598,0.92773 -0.53831,-0.68069 -1.1912,-1.2914 -1.5117,-2.1426 0.4496,-0.21604 0.94789,-0.58845 0.92969,-1.1855 0.0373,-0.72194 -0.66759,-1.1935 -1.2734,-1.1816 z m -3.1582,0.02148 c -0.17501,8.67e-4 -0.35281,0.04054 -0.52539,0.12305 -1.0379,0.47854 -1.3177,2.0067 -0.76367,2.9941 0.3371,0.60708 1.0582,0.94325 1.6953,0.73047 0.93791,-0.21104 1.399,-1.3993 1.1934,-2.3398 -0.11292,-0.82594 -0.83832,-1.5156 -1.5996,-1.5078 z m -3.1895,0.03516 c -0.18044,0.01467 -0.35887,0.04869 -0.53125,0.10352 -0.30948,0.12051 -0.65777,0.2494 -0.82812,0.57617 0.28931,-0.0988 0.55815,-0.25841 0.85352,-0.33984 -0.16834,0.34414 -0.36298,0.70053 -0.33789,1.1055 0.03124,1.1323 0.14181,2.265 0.07227,3.3984 0.18952,-0.1053 0.39107,-0.22992 0.4707,-0.45898 0.31451,-0.7404 0.10647,-1.5738 0.13672,-2.3555 0.3246,-0.0043 0.5661,0.21385 0.76367,0.4668 0.12802,-0.15742 0.25334,-0.32065 0.36524,-0.49219 -0.31754,-0.30289 -0.76046,-0.32821 -1.1445,-0.17188 -0.01324,-0.49396 -0.05872,-0.98868 0.0078,-1.4805 0.35787,-0.05102 0.72335,0.07194 1.0137,0.29883 0.20665,0.16393 0.21989,0.46907 0.30859,0.70898 0.28629,-0.14873 0.68718,-0.58599 0.38476,-0.90625 -0.437,-0.35581 -0.99382,-0.49714 -1.5352,-0.45312 z m 2.9121,0.47461 c 0.36371,-0.01828 0.71888,0.20168 0.96484,0.48828 0.38871,0.49765 0.55747,1.2015 0.38086,1.832 -0.16211,0.60882 -0.93812,0.84418 -1.3809,0.43164 -0.45403,-0.39951 -0.78115,-1.0198 -0.73438,-1.666 0.0016,-0.39864 0.12563,-0.89055 0.51758,-1.0312 0.08388,-0.03213 0.16727,-0.05036 0.25195,-0.05469 z m 20.757,9.869 c -0.10219,-6.63e-4 -0.20445,0.005 -0.30664,0.01563 -0.55741,0.10292 -1.0938,0.36406 -1.5273,0.75781 0.14245,0.21414 0.22932,0.4711 0.23242,0.73437 l 0,3.9551 c -0.17342,-0.08367 -0.34335,-0.17536 -0.51367,-0.26367 0.05884,-0.37085 -0.21638,-0.68058 -0.51367,-0.81836 -0.096,0.15969 -0.18983,0.32128 -0.27344,0.48828 -0.07432,0.13479 -0.16419,0.275 -0.30664,0.32812 -0.26322,0.10358 -0.54861,0.07617 -0.82422,0.07617 0.17342,-0.25465 0.35285,-0.5294 0.36523,-0.85742 0.01239,-0.76128 -0.01211,-1.5216 -0.0059,-2.2832 0.0031,-0.24701 -0.01849,-0.50152 0.05273,-0.74023 0.05264,-0.1836 0.10171,-0.36798 0.11719,-0.56055 -0.32206,-0.0518 -0.65552,0.13764 -0.83203,0.42383 -0.11768,0.18393 -0.09032,0.41646 -0.09961,0.62695 0,0.85159 0.01816,1.7048 -0.04687,2.5547 -0.01548,0.21414 -0.04667,0.44482 -0.19531,0.60352 -0.08671,0.10923 -0.22298,0.12586 -0.34375,0.14844 0.02787,0.2158 0.20582,0.34554 0.37305,0.4375 0.52025,0.27191 1.1239,0.29003 1.6875,0.20703 0.29729,-0.04682 0.60636,-0.16106 0.78906,-0.43164 0.30658,0.37052 0.73166,0.61009 1.1621,0.77344 0.50787,0.19754 1.0563,0.11795 1.5703,0.01172 0.84536,-0.1836 1.6526,-0.70515 2.0645,-1.5352 0.26942,-0.54083 0.35923,-1.1643 0.34375,-1.7715 -0.01235,-0.51992 -0.17,-1.0343 -0.43941,-1.4629 -0.561,-0.883 -1.542,-1.411 -2.53,-1.418 z m -30.39,0.285 c -0.12263,-3.31e-4 -0.24446,0.0072 -0.36523,0.02539 -0.71937,0.11355 -1.3475,0.60947 -1.7578,1.2383 -0.3494,0.531 -0.4934,1.187 -0.5157,1.828 -0.011149,0.75066 0.13265,1.538 0.56836,2.1445 0.34157,0.46779 0.81159,0.84732 1.3535,0.99805 0.50446,0.15173 1.0431,0.08528 1.541,-0.06445 0.63297,-0.20717 1.1538,-0.71779 1.4688,-1.334 0.39143,-0.74501 0.48416,-1.6548 0.28906,-2.4805 -0.06875,-0.32038 -0.15354,-0.64576 -0.33594,-0.91602 -0.28521,-0.49734 -0.68133,-0.93518 -1.1777,-1.1875 -0.33259,-0.167 -0.70078,-0.25063 -1.0684,-0.25196 z m 30.244,0.24219 c 0.08671,-0.0023 0.17582,0.0064 0.26563,0.01172 0.60696,0.04913 1.1589,0.45206 1.4902,0.99024 0.27251,0.44588 0.369,0.99135 0.35352,1.5176 -0.0093,0.45252 -0.07811,0.90271 -0.20508,1.334 -0.15174,0.47277 -0.54798,0.78895 -0.92578,1.0449 -0.41806,0.27656 -0.9132,0.52423 -1.418,0.40039 -0.04336,-0.01959 -0.1452,-0.0082 -0.13281,-0.08984 -0.0031,-1.6029 -0.0039,-3.2073 -0.0039,-4.8105 -0.02167,-0.19821 0.17396,-0.29151 0.31641,-0.34961 0.08362,-0.03452 0.16996,-0.04651 0.25976,-0.04883 z m -6.6387,0.33789 c -0.14632,-0.0011 -0.29072,0.0157 -0.42969,0.07422 -0.50941,0.20128 -0.99668,0.54494 -1.2754,1.0566 -0.04336,0.0415 0.01742,0.08701 0.04297,0.11523 0.13858,-0.02448 0.25894,-0.11021 0.38281,-0.17578 0.01626,0.98937 0.01961,1.9794 0.02734,2.9688 0.02865,0.32744 0.15068,0.69262 0.43945,0.85156 0.20013,0.0664 0.41595,0.04214 0.62305,0.04297 -0.08942,-0.14318 -0.21027,-0.2673 -0.26563,-0.43164 -0.0085,-1.2193 -0.04263,-2.4406 0.03711,-3.6582 0.1618,-0.07346 0.32785,-0.18176 0.51172,-0.14648 0.16606,0.02573 0.3389,0.04142 0.49219,0.12109 0.38864,0.24485 0.54231,0.84405 0.29883,1.2578 -0.23458,0.39384 -0.67346,0.6145 -1.1035,0.61328 0.1169,0.36313 0.25954,0.71399 0.44922,1.041 0.61161,1.0246 1.5651,1.7655 2.5801,2.2734 -0.0151,-0.02406 -0.04545,-0.07163 -0.06055,-0.0957 -0.37974,-0.33076 -0.71579,-0.71488 -1.0332,-1.1133 -0.38748,-0.50796 -0.72807,-1.0671 -0.93555,-1.6875 0.28606,-0.15604 0.58939,-0.30784 0.79688,-0.58008 0.13587,-0.18592 0.23989,-0.39636 0.33008,-0.61133 0.0391,-0.08591 0.01719,-0.18256 0.01758,-0.27344 -0.0097,-0.44239 -0.16399,-0.90708 -0.49805,-1.1855 -0.27909,-0.2461 -0.63564,-0.36336 -0.98828,-0.42188 -0.14439,-0.01349 -0.29313,-0.03407 -0.43945,-0.03516 z m -7.0977,0.02344 c -0.12542,-0.0013 -0.24499,0.0383 -0.33789,0.14453 -0.19788,0.21912 -0.35347,0.50499 -0.36524,0.81641 0.28862,-3.31e-4 0.59315,0.02929 0.83594,0.21289 0.34683,0.23838 0.49066,0.69039 0.53711,1.1094 0.009,0.21713 0.05619,0.43953 -0.0039,0.65234 -0.08144,0.3154 -0.20742,0.61563 -0.33594,0.91211 -0.07275,0.14973 -0.14171,0.31678 -0.27734,0.41406 -0.1313,0.0342 -0.25544,-0.04528 -0.35547,-0.12695 -0.20965,-0.17729 -0.37444,-0.40672 -0.53516,-0.63281 -0.14338,-0.21447 -0.29192,-0.43793 -0.34766,-0.69922 -0.06534,-0.34927 -0.09639,-0.70497 -0.10352,-1.0605 -0.0047,-0.18194 0.02521,-0.36332 0.0098,-0.54492 -0.07927,0.07271 -0.09658,0.18589 -0.13281,0.28516 -0.10993,0.3423 -0.26022,0.67868 -0.27539,1.0469 -0.013,0.35026 -0.0086,0.71997 0.14062,1.041 -0.21247,0.29382 -0.43584,0.62515 -0.78516,0.73438 -0.24836,-0.12915 -0.47497,-0.311 -0.63476,-0.55469 -0.28428,-0.43658 -0.33339,-0.99251 -0.30274,-1.5098 0.02756,-0.3403 0.05803,-0.70397 0.24414,-0.99414 0.14183,-0.23639 0.37493,-0.37804 0.61523,-0.47266 -0.0545,-0.27722 -0.21997,-0.52292 -0.42188,-0.69922 -0.14802,-0.1328 -0.32833,0.0082 -0.45312,0.10742 -0.36418,0.3247 -0.52986,0.82727 -0.64258,1.3047 -0.05264,-0.20485 -0.08433,-0.42166 -0.19922,-0.59961 -0.19881,-0.38546 -0.59099,-0.61415 -0.98242,-0.70312 -0.21739,-0.0664 -0.44407,-0.07033 -0.66797,-0.08594 -0.26446,-0.01361 -0.5197,0.08935 -0.75195,0.21484 -0.30348,0.16799 -0.58799,0.38551 -0.8125,0.66406 -0.08144,0.10691 -0.16654,0.21927 -0.18945,0.35938 0.15917,-0.01693 0.29114,-0.11848 0.43359,-0.18555 0.02291,0.94388 0.02418,1.8898 0.04492,2.834 -0.0096,0.30378 0.05095,0.6252 0.23242,0.86523 0.19943,0.25431 0.54616,0.17143 0.81836,0.17774 -0.02911,-0.19057 -0.21238,-0.29621 -0.25976,-0.48047 -0.0195,-1.2045 -0.05674,-2.4094 0.0059,-3.6133 0.14833,-0.07769 0.30696,-0.17054 0.47852,-0.13867 0.22947,0.03287 0.48312,0.05908 0.66211,0.23438 0.30967,0.27955 0.4198,0.80648 0.20117,1.1816 -0.2465,0.38479 -0.68429,0.58074 -1.1113,0.58008 0.22358,0.80013 0.67548,1.5107 1.2422,2.0781 0.53574,0.51128 1.1437,0.93874 1.8027,1.2422 -0.0047,-0.06208 -0.03291,-0.11125 -0.07813,-0.14844 -0.82126,-0.76825 -1.5757,-1.6722 -1.9805,-2.7734 0.23287,-0.12417 0.47042,-0.25275 0.66211,-0.44531 0.14121,-0.14243 0.2376,-0.32326 0.32617,-0.50586 -0.04614,0.59694 0.01075,1.2357 0.31641,1.752 0.20346,0.35093 0.44881,0.68004 0.74609,0.94531 0.14462,0.12948 0.31246,0.22662 0.49609,0.27344 0.31834,-0.22775 0.63157,-0.47108 0.88086,-0.78516 0.08392,-0.10525 0.17029,-0.20854 0.25391,-0.31445 0.15143,0.166 0.30191,0.33525 0.45117,0.50391 0.20841,0.23639 0.45972,0.4232 0.72852,0.57227 0.17775,-0.17364 0.36517,-0.33714 0.5293,-0.52539 0.41651,-0.45916 0.74774,-1.0151 0.89453,-1.6406 0.15793,0.84727 0.76523,1.595 1.5527,1.8164 0.56577,0.15604 1.1973,0.11644 1.7129,-0.19531 0.53477,-0.32968 0.92477,-0.90644 1.0703,-1.5469 0.11768,-0.52988 0.1243,-1.1079 -0.08008,-1.6152 -0.21058,-0.51162 -0.59785,-0.92461 -1.0469,-1.2012 -0.41032,-0.25033 -0.90484,-0.33128 -1.3672,-0.23633 -0.35953,0.04682 -0.70931,0.18951 -1.002,0.41992 -0.37099,0.29449 -0.61551,0.73662 -0.74805,1.2051 -0.07958,-0.60259 -0.39336,-1.1791 -0.87305,-1.5117 -0.13192,-0.08367 -0.30319,-0.15231 -0.46484,-0.1543 z m -8.7168,0.12891 c -0.10966,0.01037 -0.21758,0.03269 -0.32422,0.06641 -0.53961,0.18094 -0.98215,0.60493 -1.2949,1.0996 -0.2818,0.44447 -0.42576,1.0026 -0.33789,1.5371 0.02323,0.36064 0.13694,0.70696 0.28906,1.0273 0.21096,0.44862 0.49511,0.90532 0.94336,1.1074 0.33522,0.14151 0.7037,0.27443 1.0664,0.17773 0.32632,-0.08715 0.63778,-0.23424 0.92774,-0.41602 -0.002,-0.01287 -0.0059,-0.03987 -0.0078,-0.05273 -0.27793,-0.06391 -0.55959,0.0339 -0.83984,0.002 -0.43935,-0.03196 -0.81407,-0.34266 -1.0723,-0.70703 -0.26554,-0.36603 -0.4287,-0.84296 -0.36328,-1.3086 0.31161,-0.25856 0.74489,-0.33703 1.127,-0.25195 0.2369,0.0635 0.26206,0.35522 0.38476,0.53906 0.29922,-0.21041 0.60776,-0.44815 0.77344,-0.79883 -0.22026,-0.24236 -0.54611,-0.32491 -0.84766,-0.37305 -0.51561,-0.02864 -0.98047,0.29143 -1.4941,0.29102 0.10839,-0.33823 0.22801,-0.67991 0.42969,-0.96875 0.11806,-0.166 0.27726,-0.32585 0.48242,-0.33789 0.21097,-0.01245 0.45077,-0.0043 0.62109,0.14844 0.09833,0.15189 0.14506,0.33363 0.20312,0.50586 0.28142,-0.16393 0.61594,-0.41104 0.60938,-0.79492 0.01935,-0.18966 -0.15793,-0.29259 -0.29883,-0.3457 -0.31122,-0.11205 -0.6476,-0.17759 -0.97656,-0.14648 z m -4.332,0.01172 c -0.19935,0.06059 -0.37578,0.18898 -0.50391,0.36328 -0.15484,0.20626 -0.31716,0.45188 -0.27148,0.73242 0.08903,0.96945 0.33577,1.9151 0.66016,2.8223 0.17806,0.46314 0.39185,0.92898 0.74023,1.2734 0.23497,-0.22535 0.41219,-0.50959 0.5918,-0.78516 0.42851,-0.70468 0.77943,-1.4695 1.0078,-2.2754 0.13625,-0.52871 0.24114,-1.1129 0.04101,-1.6387 -0.07045,-0.18094 -0.13834,-0.4003 -0.31641,-0.48828 -0.17613,-0.04897 -0.33585,0.09757 -0.45508,0.21875 -0.14942,0.16476 -0.29867,0.35358 -0.32422,0.5918 0.22955,0.18634 0.37854,0.46575 0.42383,0.76953 0.10026,0.4897 -0.02369,0.9894 -0.17969,1.4492 -0.12542,0.35317 -0.25963,0.71584 -0.50195,0.99805 -0.61199,-1.2384 -0.79792,-2.6534 -0.91211,-4.0312 z m -3.8125,0.0293 c 0.064101,9.96e-4 0.12659,0.0095 0.18945,0.02539 0.26446,0.06673 0.50636,0.20787 0.73242,0.36524 0.25146,0.17795 0.49441,0.38842 0.65234,0.66797 0.10312,0.19389 0.23427,0.36926 0.30859,0.58008 0.13935,0.37516 0.27382,0.76675 0.28125,1.1758 0.0257,0.5332 -0.04244,1.1112 -0.36914,1.5371 -0.3767,0.518 -1.1116,0.636 -1.6474,0.352 -0.3812,-0.205 -0.6761,-0.551 -0.9257,-0.914 -0.3559,-0.52 -0.6089,-1.149 -0.5918,-1.803 -0.00614,-0.38844 0.017512,-0.78751 0.15625,-1.1504 0.1375,-0.41334 0.48328,-0.74916 0.89453,-0.80859 0.1056,-0.01394 0.21378,-0.02934 0.32031,-0.02734 z m 19.895,0.56055 c 0.24495,3.31e-4 0.49023,0.07278 0.71289,0.17969 0.62337,0.29914 1.0317,0.99739 1.0977,1.7148 0.03376,0.40438 -0.02065,0.84563 -0.27148,1.166 -0.2369,0.30079 -0.62754,0.40927 -0.98242,0.37109 -0.70513,-0.07536 -1.3158,-0.67983 -1.4941,-1.4062 -0.048,-0.1816 -0.12248,-0.36375 -0.11133,-0.55664 0.01487,-0.3569 0.07036,-0.72714 0.25586,-1.0312 0.12604,-0.20418 0.32122,-0.36596 0.54883,-0.41211 0.08051,-0.01726 0.16239,-0.02539 0.24414,-0.02539 z"
           transform="matrix(27.36,0,0,28.523,-12.846,-127.12)"
           inkscape:connector-curvature="0"
           style="fill:none;stroke:#ff0000;stroke-width:1;stroke-linecap:round;stroke-linejoin:round" />
      </g>
    </g>
    <g
       id="g4732">
      <g
         id="g4318"
         transform="matrix(0.03655,0,0,0.035059,0.46953,4.4568)"
         style="fill:url(#linearGradient4340)">
        <path
           id="path3107"
           d="m 31.463,9.002 c -0.16847,-0.00448 -0.33837,8.375e-4 -0.50586,0.017578 -0.42544,0.022788 -0.84402,0.12709 -1.2344,0.28906 -0.6568,0.2661 -1.2098,0.72326 -1.6699,1.2383 -0.10928,0.14655 -0.24541,0.27623 -0.33203,0.4375 0.26133,-0.08554 0.51271,-0.19811 0.77148,-0.29102 0.01206,1.6958 0.02175,3.3905 0.03125,5.0859 0.004,0.24927 -0.0208,0.50784 0.08008,0.74414 0.16192,0.40142 0.453,0.7928 0.88867,0.94531 0.31871,0.1164 0.67274,0.0875 0.99219,-0.01172 -0.12902,-0.16863 -0.29196,-0.31288 -0.40234,-0.49414 -0.10782,-0.1774 -0.08643,-0.38891 -0.08789,-0.58594 -0.0077,-1.2506 -0.01515,-2.5014 -0.01953,-3.752 -0.0015,-0.90733 -0.02,-1.8153 -0.0098,-2.7227 0.35015,-0.049784 0.70479,-0.067008 1.0586,-0.058594 0.48209,0.00947 0.97808,0.16258 1.3184,0.50195 0.39584,0.3853 0.53781,0.94732 0.51953,1.4746 -0.01572,0.20755 -0.09446,0.40423 -0.14453,0.60547 -0.03911,0.22613 -0.23337,0.38195 -0.40625,0.52148 -0.50439,0.37653 -1.1437,0.52153 -1.7617,0.62109 0.07346,0.2086 0.1547,0.4146 0.23438,0.62109 0.09247,0.19949 0.20014,0.39121 0.29883,0.58789 0.63268,1.097 1.5347,2.032 2.5332,2.832 0.703,0.588 1.492,1.109 2.384,1.391 -0.0318,-0.05119 -0.0709,-0.09635 -0.11914,-0.13281 -0.18567,-0.14655 -0.34933,-0.31599 -0.52148,-0.47656 -0.78984,-0.76709 -1.5351,-1.5817 -2.1875,-2.4609 -0.36733,-0.51221 -0.7235,-1.0481 -0.90625,-1.6504 0.07091,-0.08274 0.11108,-0.21003 0.23242,-0.23633 0.9079,-0.25874 1.7049,-0.94208 1.9863,-1.8203 0.17982,-0.60161 0.11262,-1.2808 -0.22656,-1.8203 -0.307,-0.4852 -0.795,-0.8408 -1.326,-1.0778 -0.461,-0.2001 -0.964,-0.3088 -1.469,-0.3222 z M 19.598,9.035203 c -0.34284,0.098866 -0.5669,0.39416 -0.75586,0.66797 -0.17434,0.26084 -0.30937,0.55481 -0.33203,0.86719 0.24488,0.027 0.49267,0.02669 0.73828,0.04492 0.16155,0.03296 0.31525,0.08984 0.47461,0.13086 0.19481,0.04382 0.34322,0.18038 0.51172,0.27539 0.16045,0.0887 0.25548,0.24528 0.375,0.375 0.15643,0.15987 0.21748,0.37659 0.31836,0.56836 0.10636,0.19458 0.12584,0.41695 0.18359,0.62695 0.09357,0.32219 0.08271,0.65998 0.11523,0.99023 0.03911,0.30466 -0.06109,0.60349 -0.1543,0.89062 -0.16996,0.48171 -0.36938,0.95609 -0.61719,1.4062 -0.09247,0.16302 -0.19239,0.323 -0.32031,0.46289 -0.06944,0.07152 -0.1506,0.14844 -0.25586,0.16211 -0.2087,-0.0018 -0.39925,-0.10356 -0.56445,-0.2168 -0.34211,-0.24191 -0.62014,-0.55681 -0.88476,-0.87305 -0.34576,-0.43088 -0.69639,-0.87661 -0.87109,-1.4004 -0.16082,-0.66051 -0.22061,-1.3409 -0.23633,-2.0176 -0.01681,-0.28784 0.02622,-0.5758 0.01563,-0.86328 -0.01425,0.01402 -0.04239,0.04297 -0.05664,0.05664 -0.16118,0.41966 -0.32196,0.83996 -0.47656,1.2617 -0.22624,0.63176 -0.23176,1.3144 -0.14258,1.9707 0.04057,0.2647 0.10666,0.53389 0.27734,0.75195 -0.27083,0.35304 -0.54193,0.71242 -0.88476,1.0059 -0.20285,0.16758 -0.43389,0.33994 -0.71094,0.36133 -0.70797,-0.30712 -1.2965,-0.87379 -1.5645,-1.5781 -0.29861,-0.74255 -0.31066,-1.5582 -0.24414,-2.3418 0.05848,-0.64263 0.21772,-1.3182 0.69141,-1.8027 0.24086,-0.25558 0.56596,-0.41891 0.90039,-0.5332 -0.05,-0.255 -0.201,-0.4769 -0.361,-0.6795 -0.155,-0.1897 -0.324,-0.3773 -0.545,-0.4961 -0.085,-0.047 -0.19,-0.0736 -0.285,-0.041 -0.241,0.0873 -0.462,0.2211 -0.643,0.3964 -0.363,0.3356 -0.594,0.7762 -0.775,1.2212 -0.343,0.899 -0.526,1.857 -0.518,2.816 -0.004,0.43333 0.07818,0.86234 0.16992,1.2852 0.08078,0.38074 0.25956,0.7351 0.4668,1.0664 0.27449,0.42632 0.59419,0.82614 0.94726,1.1953 0.34722,0.35515 0.73935,0.69956 1.2266,0.86328 0.09247,0.01823 0.19939,0.08103 0.28711,0.01758 0.41923,-0.25558 0.8376,-0.5205 1.1914,-0.85742 0.32054,-0.33096 0.62731,-0.67505 0.93359,-1.0176 0.19883,0.18126 0.381,0.37899 0.57617,0.56445 0.26206,0.25032 0.5046,0.52182 0.79883,0.74023 0.27851,0.21211 0.58007,0.39392 0.88672,0.56641 0.99087,-0.7748 1.8958,-1.7061 2.4082,-2.8438 0.37866,-0.85018 0.53196,-1.7805 0.51953,-2.7012 0.0106,-0.69522 -0.19046,-1.3936 -0.58008,-1.9805 -0.318,-0.4754 -0.725,-0.918 -1.252,-1.1852 -0.3,-0.144 -0.647,-0.2315 -0.982,-0.1796 z m 6.916,1.0723 c -0.23392,-0.0022 -0.46841,0.02314 -0.69531,0.08008 -0.82398,0.1537 -1.6073,0.5432 -2.1719,1.1445 -0.80234,0.83889 -1.1896,1.9883 -1.1992,3.1152 -0.04181,0.56235 0.16236,1.111 0.44336,1.5957 0.19328,0.32535 0.42302,0.65044 0.75781,0.85547 0.26959,0.16884 0.62849,0.1798 0.91797,0.05078 0.25994,-0.11836 0.43148,-0.36751 0.50195,-0.62891 -0.10994,-0.05357 -0.2219,-0.10328 -0.33594,-0.14844 -0.21988,-0.08891 -0.38244,-0.26311 -0.54297,-0.42578 -0.12866,-0.14641 -0.27504,-0.30226 -0.29492,-0.50195 0.7693,-0.01739 1.481,-0.34807 2.1406,-0.69922 0.02018,0.41257 0.04584,0.82571 0.01367,1.2383 -0.01813,0.25607 -0.0465,0.51774 -0.15234,0.75586 -0.05205,0.12088 -0.17808,0.24259 -0.10352,0.38086 0.41579,-0.092 0.84649,-0.22975 1.1523,-0.5293 0.3117,-0.32198 0.35212,-0.78718 0.33984,-1.2051 -0.0117,-1.0633 -0.0087,-2.1281 -0.02539,-3.1914 0.0012,-0.35424 -0.01412,-0.71108 0.05664,-1.0605 0.04006,-0.18988 0.10872,-0.39334 0.27539,-0.51562 0.02748,-0.02552 0.07186,-0.04414 0.0625,-0.08789 -0.36053,-0.13939 -0.75086,-0.21929 -1.1406,-0.22266 z m -0.85547,0.82031 c 0.14006,8.42e-4 0.28073,0.02399 0.41406,0.07813 -0.01199,1.0978 -0.01272,2.1955 -0.02734,3.293 -0.81141,0.16043 -1.6437,0.12077 -2.4668,0.12891 0.0044,-0.23812 -0.0013,-0.477 -0.0039,-0.71484 -0.01491,-0.37078 -0.01731,-0.75348 0.12305,-1.1055 0.20029,-0.50625 0.54009,-0.96107 0.96875,-1.3125 0.2731,-0.2168 0.63429,-0.36971 0.99219,-0.36719 z m 6.3027,12.076 c -0.10571,0.0073 -0.21069,0.02413 -0.3125,0.04883 -0.65928,0.21821 -1.138,0.85337 -1.3164,1.5547 -0.01311,-0.51568 -0.01399,-1.0356 0.15234,-1.5273 -0.16331,-0.03683 -0.34885,-0.11073 -0.49805,0.0098 -0.3367,0.22581 -0.22562,0.7062 -0.25586,1.0645 -0.41331,-0.0684 -0.83625,-0.04282 -1.2324,0.10156 -0.006,-0.40494 -0.0114,-0.81643 0.16602,-1.1855 -0.20968,-0.02063 -0.46598,-0.09843 -0.61719,0.11328 -0.2873,0.34306 -0.04977,0.84484 -0.14453,1.252 -0.09375,0.11941 -0.19632,0.22736 -0.28906,0.3457 0.0746,0.0055 0.22518,0.01792 0.30078,0.02344 0.02621,0.70457 0.1342,1.4413 -0.12891,2.1133 0.29536,-0.11074 0.61284,-0.29322 0.68945,-0.65039 0.11089,-0.53739 0.02766,-1.0928 0.08008,-1.6367 0.40625,-0.06949 0.82485,-5.46e-4 1.1797,0.22852 0.03226,0.68503 0.1061,1.3855 -0.10156,2.0488 0.18145,-0.0608 0.38981,-0.10037 0.50977,-0.27734 0.29032,-0.35608 0.21996,-0.86241 0.24414,-1.2988 0.1744,0.43968 0.34791,0.91543 0.71484,1.2129 0.50807,0.38002 1.266,0.45032 1.7539,-0.0078 -0.33569,-0.04234 -0.69739,0.03916 -1.0059,-0.14648 -0.45464,-0.25404 -0.81093,-0.77532 -0.79883,-1.3398 0.12601,-0.33214 0.54763,-0.34552 0.83594,-0.35742 0.26815,-0.02714 0.3951,0.241 0.5332,0.4375 0.21472,-0.15199 0.40871,-0.33561 0.58008,-0.54297 -0.5625,-0.56996 -1.3264,-0.15846 -1.9746,-0.07813 0.10887,-0.31592 0.20627,-0.65961 0.44922,-0.88867 0.21573,-0.22906 0.55519,-0.19798 0.82031,-0.10352 0.13105,0.11833 0.19443,0.29809 0.28516,0.45117 0.18952,-0.17804 0.59892,-0.51029 0.30859,-0.77734 -0.28352,-0.14981 -0.61062,-0.20943 -0.92773,-0.1875 z m -6.1875,0.07813 c -0.2199,0.02759 -0.43422,0.09541 -0.64063,0.23438 0.03529,0.23558 0.08632,0.468 0.16797,0.68945 0.27823,-0.24208 0.57932,-0.47394 0.94727,-0.51953 -0.10181,0.23124 -0.23688,0.45191 -0.28125,0.70703 -0.07963,1.1594 0.14151,2.3466 -0.13672,3.4844 0.3498,-0.18564 0.67389,-0.50152 0.76562,-0.92383 0.06968,-1.0552 -0.09563,-2.1262 0.05859,-3.1738 0.42843,0.03691 0.87424,-0.10093 1.1484,-0.47656 -0.66381,0.17678 -1.3696,-0.10425 -2.0293,-0.02148 z m -4.0664,0.01758 c -0.57359,-0.04777 -1.0849,0.31552 -1.4297,0.78125 0.0605,0.01628 0.17976,0.05095 0.24023,0.06836 0.07558,0.82616 -0.0068,1.6639 0.05469,2.4922 0.08367,0.37455 0.42288,0.5734 0.76562,0.51367 -0.07158,-0.20301 -0.18876,-0.39746 -0.17774,-0.62109 -0.0102,-0.94015 -0.01239,-1.8802 -0.02148,-2.8203 0.26815,-0.01521 0.55575,-0.05629 0.80273,0.08594 0.36996,0.22038 0.45362,0.81535 0.21875,1.1758 -0.21068,0.2334 -0.52947,0.28425 -0.80469,0.38086 0.19456,0.58298 0.5269,1.1031 0.94726,1.5254 0.37097,0.37346 0.7648,0.76162 1.2598,0.92773 -0.53831,-0.68069 -1.1912,-1.2914 -1.5117,-2.1426 0.4496,-0.21604 0.94789,-0.58845 0.92969,-1.1855 0.0373,-0.72194 -0.66759,-1.1935 -1.2734,-1.1816 z m -3.1582,0.02148 c -0.17501,8.67e-4 -0.35281,0.04054 -0.52539,0.12305 -1.0379,0.47854 -1.3177,2.0067 -0.76367,2.9941 0.3371,0.60708 1.0582,0.94325 1.6953,0.73047 0.93791,-0.21104 1.399,-1.3993 1.1934,-2.3398 -0.11292,-0.82594 -0.83832,-1.5156 -1.5996,-1.5078 z m -3.1895,0.03516 c -0.18044,0.01467 -0.35887,0.04869 -0.53125,0.10352 -0.30948,0.12051 -0.65777,0.2494 -0.82812,0.57617 0.28931,-0.0988 0.55815,-0.25841 0.85352,-0.33984 -0.16834,0.34414 -0.36298,0.70053 -0.33789,1.1055 0.03124,1.1323 0.14181,2.265 0.07227,3.3984 0.18952,-0.1053 0.39107,-0.22992 0.4707,-0.45898 0.31451,-0.7404 0.10647,-1.5738 0.13672,-2.3555 0.3246,-0.0043 0.5661,0.21385 0.76367,0.4668 0.12802,-0.15742 0.25334,-0.32065 0.36524,-0.49219 -0.31754,-0.30289 -0.76046,-0.32821 -1.1445,-0.17188 -0.01324,-0.49396 -0.05872,-0.98868 0.0078,-1.4805 0.35787,-0.05102 0.72335,0.07194 1.0137,0.29883 0.20665,0.16393 0.21989,0.46907 0.30859,0.70898 0.28629,-0.14873 0.68718,-0.58599 0.38476,-0.90625 -0.437,-0.35581 -0.99382,-0.49714 -1.5352,-0.45312 z m 2.9121,0.47461 c 0.36371,-0.01828 0.71888,0.20168 0.96484,0.48828 0.38871,0.49765 0.55747,1.2015 0.38086,1.832 -0.16211,0.60882 -0.93812,0.84418 -1.3809,0.43164 -0.45403,-0.39951 -0.78115,-1.0198 -0.73438,-1.666 0.0016,-0.39864 0.12563,-0.89055 0.51758,-1.0312 0.08388,-0.03213 0.16727,-0.05036 0.25195,-0.05469 z m 20.757,9.869 c -0.10219,-6.63e-4 -0.20445,0.005 -0.30664,0.01563 -0.55741,0.10292 -1.0938,0.36406 -1.5273,0.75781 0.14245,0.21414 0.22932,0.4711 0.23242,0.73437 l 0,3.9551 c -0.17342,-0.08367 -0.34335,-0.17536 -0.51367,-0.26367 0.05884,-0.37085 -0.21638,-0.68058 -0.51367,-0.81836 -0.096,0.15969 -0.18983,0.32128 -0.27344,0.48828 -0.07432,0.13479 -0.16419,0.275 -0.30664,0.32812 -0.26322,0.10358 -0.54861,0.07617 -0.82422,0.07617 0.17342,-0.25465 0.35285,-0.5294 0.36523,-0.85742 0.01239,-0.76128 -0.01211,-1.5216 -0.0059,-2.2832 0.0031,-0.24701 -0.01849,-0.50152 0.05273,-0.74023 0.05264,-0.1836 0.10171,-0.36798 0.11719,-0.56055 -0.32206,-0.0518 -0.65552,0.13764 -0.83203,0.42383 -0.11768,0.18393 -0.09032,0.41646 -0.09961,0.62695 0,0.85159 0.01816,1.7048 -0.04687,2.5547 -0.01548,0.21414 -0.04667,0.44482 -0.19531,0.60352 -0.08671,0.10923 -0.22298,0.12586 -0.34375,0.14844 0.02787,0.2158 0.20582,0.34554 0.37305,0.4375 0.52025,0.27191 1.1239,0.29003 1.6875,0.20703 0.29729,-0.04682 0.60636,-0.16106 0.78906,-0.43164 0.30658,0.37052 0.73166,0.61009 1.1621,0.77344 0.50787,0.19754 1.0563,0.11795 1.5703,0.01172 0.84536,-0.1836 1.6526,-0.70515 2.0645,-1.5352 0.26942,-0.54083 0.35923,-1.1643 0.34375,-1.7715 -0.01235,-0.51992 -0.17,-1.0343 -0.43941,-1.4629 -0.561,-0.883 -1.542,-1.411 -2.53,-1.418 z m -30.39,0.285 c -0.12263,-3.31e-4 -0.24446,0.0072 -0.36523,0.02539 -0.71937,0.11355 -1.3475,0.60947 -1.7578,1.2383 -0.3494,0.531 -0.4934,1.187 -0.5157,1.828 -0.011149,0.75066 0.13265,1.538 0.56836,2.1445 0.34157,0.46779 0.81159,0.84732 1.3535,0.99805 0.50446,0.15173 1.0431,0.08528 1.541,-0.06445 0.63297,-0.20717 1.1538,-0.71779 1.4688,-1.334 0.39143,-0.74501 0.48416,-1.6548 0.28906,-2.4805 -0.06875,-0.32038 -0.15354,-0.64576 -0.33594,-0.91602 -0.28521,-0.49734 -0.68133,-0.93518 -1.1777,-1.1875 -0.33259,-0.167 -0.70078,-0.25063 -1.0684,-0.25196 z m 30.244,0.24219 c 0.08671,-0.0023 0.17582,0.0064 0.26563,0.01172 0.60696,0.04913 1.1589,0.45206 1.4902,0.99024 0.27251,0.44588 0.369,0.99135 0.35352,1.5176 -0.0093,0.45252 -0.07811,0.90271 -0.20508,1.334 -0.15174,0.47277 -0.54798,0.78895 -0.92578,1.0449 -0.41806,0.27656 -0.9132,0.52423 -1.418,0.40039 -0.04336,-0.01959 -0.1452,-0.0082 -0.13281,-0.08984 -0.0031,-1.6029 -0.0039,-3.2073 -0.0039,-4.8105 -0.02167,-0.19821 0.17396,-0.29151 0.31641,-0.34961 0.08362,-0.03452 0.16996,-0.04651 0.25976,-0.04883 z m -6.6387,0.33789 c -0.14632,-0.0011 -0.29072,0.0157 -0.42969,0.07422 -0.50941,0.20128 -0.99668,0.54494 -1.2754,1.0566 -0.04336,0.0415 0.01742,0.08701 0.04297,0.11523 0.13858,-0.02448 0.25894,-0.11021 0.38281,-0.17578 0.01626,0.98937 0.01961,1.9794 0.02734,2.9688 0.02865,0.32744 0.15068,0.69262 0.43945,0.85156 0.20013,0.0664 0.41595,0.04214 0.62305,0.04297 -0.08942,-0.14318 -0.21027,-0.2673 -0.26563,-0.43164 -0.0085,-1.2193 -0.04263,-2.4406 0.03711,-3.6582 0.1618,-0.07346 0.32785,-0.18176 0.51172,-0.14648 0.16606,0.02573 0.3389,0.04142 0.49219,0.12109 0.38864,0.24485 0.54231,0.84405 0.29883,1.2578 -0.23458,0.39384 -0.67346,0.6145 -1.1035,0.61328 0.1169,0.36313 0.25954,0.71399 0.44922,1.041 0.61161,1.0246 1.5651,1.7655 2.5801,2.2734 -0.0151,-0.02406 -0.04545,-0.07163 -0.06055,-0.0957 -0.37974,-0.33076 -0.71579,-0.71488 -1.0332,-1.1133 -0.38748,-0.50796 -0.72807,-1.0671 -0.93555,-1.6875 0.28606,-0.15604 0.58939,-0.30784 0.79688,-0.58008 0.13587,-0.18592 0.23989,-0.39636 0.33008,-0.61133 0.0391,-0.08591 0.01719,-0.18256 0.01758,-0.27344 -0.0097,-0.44239 -0.16399,-0.90708 -0.49805,-1.1855 -0.27909,-0.2461 -0.63564,-0.36336 -0.98828,-0.42188 -0.14439,-0.01349 -0.29313,-0.03407 -0.43945,-0.03516 z m -7.0977,0.02344 c -0.12542,-0.0013 -0.24499,0.0383 -0.33789,0.14453 -0.19788,0.21912 -0.35347,0.50499 -0.36524,0.81641 0.28862,-3.31e-4 0.59315,0.02929 0.83594,0.21289 0.34683,0.23838 0.49066,0.69039 0.53711,1.1094 0.009,0.21713 0.05619,0.43953 -0.0039,0.65234 -0.08144,0.3154 -0.20742,0.61563 -0.33594,0.91211 -0.07275,0.14973 -0.14171,0.31678 -0.27734,0.41406 -0.1313,0.0342 -0.25544,-0.04528 -0.35547,-0.12695 -0.20965,-0.17729 -0.37444,-0.40672 -0.53516,-0.63281 -0.14338,-0.21447 -0.29192,-0.43793 -0.34766,-0.69922 -0.06534,-0.34927 -0.09639,-0.70497 -0.10352,-1.0605 -0.0047,-0.18194 0.02521,-0.36332 0.0098,-0.54492 -0.07927,0.07271 -0.09658,0.18589 -0.13281,0.28516 -0.10993,0.3423 -0.26022,0.67868 -0.27539,1.0469 -0.013,0.35026 -0.0086,0.71997 0.14062,1.041 -0.21247,0.29382 -0.43584,0.62515 -0.78516,0.73438 -0.24836,-0.12915 -0.47497,-0.311 -0.63476,-0.55469 -0.28428,-0.43658 -0.33339,-0.99251 -0.30274,-1.5098 0.02756,-0.3403 0.05803,-0.70397 0.24414,-0.99414 0.14183,-0.23639 0.37493,-0.37804 0.61523,-0.47266 -0.0545,-0.27722 -0.21997,-0.52292 -0.42188,-0.69922 -0.14802,-0.1328 -0.32833,0.0082 -0.45312,0.10742 -0.36418,0.3247 -0.52986,0.82727 -0.64258,1.3047 -0.05264,-0.20485 -0.08433,-0.42166 -0.19922,-0.59961 -0.19881,-0.38546 -0.59099,-0.61415 -0.98242,-0.70312 -0.21739,-0.0664 -0.44407,-0.07033 -0.66797,-0.08594 -0.26446,-0.01361 -0.5197,0.08935 -0.75195,0.21484 -0.30348,0.16799 -0.58799,0.38551 -0.8125,0.66406 -0.08144,0.10691 -0.16654,0.21927 -0.18945,0.35938 0.15917,-0.01693 0.29114,-0.11848 0.43359,-0.18555 0.02291,0.94388 0.02418,1.8898 0.04492,2.834 -0.0096,0.30378 0.05095,0.6252 0.23242,0.86523 0.19943,0.25431 0.54616,0.17143 0.81836,0.17774 -0.02911,-0.19057 -0.21238,-0.29621 -0.25976,-0.48047 -0.0195,-1.2045 -0.05674,-2.4094 0.0059,-3.6133 0.14833,-0.07769 0.30696,-0.17054 0.47852,-0.13867 0.22947,0.03287 0.48312,0.05908 0.66211,0.23438 0.30967,0.27955 0.4198,0.80648 0.20117,1.1816 -0.2465,0.38479 -0.68429,0.58074 -1.1113,0.58008 0.22358,0.80013 0.67548,1.5107 1.2422,2.0781 0.53574,0.51128 1.1437,0.93874 1.8027,1.2422 -0.0047,-0.06208 -0.03291,-0.11125 -0.07813,-0.14844 -0.82126,-0.76825 -1.5757,-1.6722 -1.9805,-2.7734 0.23287,-0.12417 0.47042,-0.25275 0.66211,-0.44531 0.14121,-0.14243 0.2376,-0.32326 0.32617,-0.50586 -0.04614,0.59694 0.01075,1.2357 0.31641,1.752 0.20346,0.35093 0.44881,0.68004 0.74609,0.94531 0.14462,0.12948 0.31246,0.22662 0.49609,0.27344 0.31834,-0.22775 0.63157,-0.47108 0.88086,-0.78516 0.08392,-0.10525 0.17029,-0.20854 0.25391,-0.31445 0.15143,0.166 0.30191,0.33525 0.45117,0.50391 0.20841,0.23639 0.45972,0.4232 0.72852,0.57227 0.17775,-0.17364 0.36517,-0.33714 0.5293,-0.52539 0.41651,-0.45916 0.74774,-1.0151 0.89453,-1.6406 0.15793,0.84727 0.76523,1.595 1.5527,1.8164 0.56577,0.15604 1.1973,0.11644 1.7129,-0.19531 0.53477,-0.32968 0.92477,-0.90644 1.0703,-1.5469 0.11768,-0.52988 0.1243,-1.1079 -0.08008,-1.6152 -0.21058,-0.51162 -0.59785,-0.92461 -1.0469,-1.2012 -0.41032,-0.25033 -0.90484,-0.33128 -1.3672,-0.23633 -0.35953,0.04682 -0.70931,0.18951 -1.002,0.41992 -0.37099,0.29449 -0.61551,0.73662 -0.74805,1.2051 -0.07958,-0.60259 -0.39336,-1.1791 -0.87305,-1.5117 -0.13192,-0.08367 -0.30319,-0.15231 -0.46484,-0.1543 z m -8.7168,0.12891 c -0.10966,0.01037 -0.21758,0.03269 -0.32422,0.06641 -0.53961,0.18094 -0.98215,0.60493 -1.2949,1.0996 -0.2818,0.44447 -0.42576,1.0026 -0.33789,1.5371 0.02323,0.36064 0.13694,0.70696 0.28906,1.0273 0.21096,0.44862 0.49511,0.90532 0.94336,1.1074 0.33522,0.14151 0.7037,0.27443 1.0664,0.17773 0.32632,-0.08715 0.63778,-0.23424 0.92774,-0.41602 -0.002,-0.01287 -0.0059,-0.03987 -0.0078,-0.05273 -0.27793,-0.06391 -0.55959,0.0339 -0.83984,0.002 -0.43935,-0.03196 -0.81407,-0.34266 -1.0723,-0.70703 -0.26554,-0.36603 -0.4287,-0.84296 -0.36328,-1.3086 0.31161,-0.25856 0.74489,-0.33703 1.127,-0.25195 0.2369,0.0635 0.26206,0.35522 0.38476,0.53906 0.29922,-0.21041 0.60776,-0.44815 0.77344,-0.79883 -0.22026,-0.24236 -0.54611,-0.32491 -0.84766,-0.37305 -0.51561,-0.02864 -0.98047,0.29143 -1.4941,0.29102 0.10839,-0.33823 0.22801,-0.67991 0.42969,-0.96875 0.11806,-0.166 0.27726,-0.32585 0.48242,-0.33789 0.21097,-0.01245 0.45077,-0.0043 0.62109,0.14844 0.09833,0.15189 0.14506,0.33363 0.20312,0.50586 0.28142,-0.16393 0.61594,-0.41104 0.60938,-0.79492 0.01935,-0.18966 -0.15793,-0.29259 -0.29883,-0.3457 -0.31122,-0.11205 -0.6476,-0.17759 -0.97656,-0.14648 z m -4.332,0.01172 c -0.19935,0.06059 -0.37578,0.18898 -0.50391,0.36328 -0.15484,0.20626 -0.31716,0.45188 -0.27148,0.73242 0.08903,0.96945 0.33577,1.9151 0.66016,2.8223 0.17806,0.46314 0.39185,0.92898 0.74023,1.2734 0.23497,-0.22535 0.41219,-0.50959 0.5918,-0.78516 0.42851,-0.70468 0.77943,-1.4695 1.0078,-2.2754 0.13625,-0.52871 0.24114,-1.1129 0.04101,-1.6387 -0.07045,-0.18094 -0.13834,-0.4003 -0.31641,-0.48828 -0.17613,-0.04897 -0.33585,0.09757 -0.45508,0.21875 -0.14942,0.16476 -0.29867,0.35358 -0.32422,0.5918 0.22955,0.18634 0.37854,0.46575 0.42383,0.76953 0.10026,0.4897 -0.02369,0.9894 -0.17969,1.4492 -0.12542,0.35317 -0.25963,0.71584 -0.50195,0.99805 -0.61199,-1.2384 -0.79792,-2.6534 -0.91211,-4.0312 z m -3.8125,0.0293 c 0.064101,9.96e-4 0.12659,0.0095 0.18945,0.02539 0.26446,0.06673 0.50636,0.20787 0.73242,0.36524 0.25146,0.17795 0.49441,0.38842 0.65234,0.66797 0.10312,0.19389 0.23427,0.36926 0.30859,0.58008 0.13935,0.37516 0.27382,0.76675 0.28125,1.1758 0.0257,0.5332 -0.04244,1.1112 -0.36914,1.5371 -0.3767,0.518 -1.1116,0.636 -1.6474,0.352 -0.3812,-0.205 -0.6761,-0.551 -0.9257,-0.914 -0.3559,-0.52 -0.6089,-1.149 -0.5918,-1.803 -0.00614,-0.38844 0.017512,-0.78751 0.15625,-1.1504 0.1375,-0.41334 0.48328,-0.74916 0.89453,-0.80859 0.1056,-0.01394 0.21378,-0.02934 0.32031,-0.02734 z m 19.895,0.56055 c 0.24495,3.31e-4 0.49023,0.07278 0.71289,0.17969 0.62337,0.29914 1.0317,0.99739 1.0977,1.7148 0.03376,0.40438 -0.02065,0.84563 -0.27148,1.166 -0.2369,0.30079 -0.62754,0.40927 -0.98242,0.37109 -0.70513,-0.07536 -1.3158,-0.67983 -1.4941,-1.4062 -0.048,-0.1816 -0.12248,-0.36375 -0.11133,-0.55664 0.01487,-0.3569 0.07036,-0.72714 0.25586,-1.0312 0.12604,-0.20418 0.32122,-0.36596 0.54883,-0.41211 0.08051,-0.01726 0.16239,-0.02539 0.24414,-0.02539 z"
           transform="matrix(27.36,0,0,28.523,-12.846,-127.12)"
           style="fill:url(#linearGradient4342)"
           inkscape:connector-curvature="0" />
      </g>
    </g>
    <g
       id="g4751"
       style="fill:none">
      <g
         id="g4753"
         transform="matrix(0.03655,0,0,0.035059,0.46953,4.4568)">
        <path
           id="path4755"
           d="m 523.36,130.61 c 9.18,-1.48 18.65,1 26.86,5.11 14.42,7.62 25.57,20.24 34.28,33.81 10.66,16.74 16.12,36.64 15.83,56.47 0.34,26.26 -3.83,52.82 -14.19,77.07 -14.02,32.45 -38.77,59.01 -65.88,81.11 -8.39,-4.92 -16.66,-10.1 -24.28,-16.15 -8.05,-6.23 -14.7,-13.98 -21.87,-21.12 -5.34,-5.29 -10.32,-10.92 -15.76,-16.09 -8.38,9.77 -16.77,19.55 -25.54,28.99 -9.68,9.61 -21.14,17.19 -32.61,24.48 -2.4,1.81 -5.31,0.01 -7.84,-0.51 -13.33,-4.67 -24.03,-14.5 -33.53,-24.63 -9.66,-10.53 -18.41,-21.94 -25.92,-34.1 -5.67,-9.45 -10.56,-19.54 -12.77,-30.4 -2.51,-12.06 -4.77,-24.29 -4.66,-36.65 -0.23,-27.34 4.8,-54.65 14.17,-80.31 4.97,-12.69 11.29,-25.26 21.21,-34.83 4.95,-5 11.02,-8.86 17.59,-11.35 2.62,-0.93 5.48,-0.13 7.8,1.21 6.05,3.39 10.66,8.75 14.88,14.16 4.39,5.78 8.52,12.07 9.88,19.34 -9.15,3.26 -18.01,7.93 -24.6,15.22 -12.96,13.82 -17.33,33.13 -18.93,51.46 -1.82,22.35 -1.51,45.6 6.66,66.78 7.33,20.09 23.44,36.25 42.81,45.01 7.58,-0.61 13.89,-5.54 19.44,-10.32 9.38,-8.37 16.83,-18.59 24.24,-28.66 -4.67,-6.22 -6.48,-13.95 -7.59,-21.5 -2.44,-18.72 -2.3,-38.19 3.89,-56.21 4.23,-12.03 8.61,-24.02 13.02,-35.99 0.39,-0.39 1.15,-1.18 1.54,-1.58 0.29,8.2 -0.86,16.39 -0.4,24.6 0.43,19.3 2.08,38.7 6.48,57.54 4.78,14.94 14.38,27.7 23.84,39.99 7.24,9.02 14.82,17.97 24.18,24.87 4.52,3.23 9.72,6.13 15.43,6.18 2.88,-0.39 5.11,-2.55 7.01,-4.59 3.5,-3.99 6.22,-8.59 8.75,-13.24 6.78,-12.84 12.28,-26.33 16.93,-40.07 2.55,-8.19 5.27,-16.72 4.2,-25.41 -0.89,-9.42 -0.57,-19.05 -3.13,-28.24 -1.58,-5.99 -2.13,-12.34 -5.04,-17.89 -2.76,-5.47 -4.41,-11.65 -8.69,-16.21 -3.27,-3.7 -5.89,-8.17 -10.28,-10.7 -4.61,-2.71 -8.66,-6.62 -13.99,-7.87 -4.36,-1.17 -8.6,-2.8 -13.02,-3.74 -6.72,-0.52 -13.47,-0.51 -20.17,-1.28 0.62,-8.91 4.29,-17.27 9.06,-24.71 5.17,-7.81 11.33,-16.23 20.71,-19.05 z"
           inkscape:connector-curvature="0" />
        <path
           id="path4757"
           d="m 800.38,138.41 c 10.68,-4.62 22.14,-7.61 33.78,-8.26 18.33,-1.91 37.2,1.05 54,8.66 14.53,6.76 27.91,16.95 36.3,30.8 9.28,15.39 11.11,34.72 6.19,51.88 -7.7,25.05 -29.53,44.54 -54.37,51.92 -3.32,0.75 -4.38,4.42 -6.32,6.78 5,17.18 14.72,32.47 24.77,47.08 17.85,25.08 38.22,48.29 59.83,70.17 4.71,4.58 9.2,9.41 14.28,13.59 1.32,1.04 2.4,2.33 3.27,3.79 -24.4,-8.03 -45.99,-22.91 -65.24,-39.66 -27.32,-22.82 -51.99,-49.47 -69.3,-80.76 -2.7,-5.61 -5.66,-11.11 -8.19,-16.8 -2.18,-5.89 -4.4,-11.77 -6.41,-17.72 16.91,-2.84 34.39,-6.99 48.19,-17.73 4.73,-3.98 10.07,-8.41 11.14,-14.86 1.37,-5.74 3.5,-11.34 3.93,-17.26 0.5,-15.04 -3.36,-31.07 -14.19,-42.06 -9.31,-9.68 -22.89,-14.05 -36.08,-14.32 -9.68,-0.24 -19.41,0.28 -28.99,1.7 -0.28,25.88 0.27,51.77 0.31,77.65 0.12,35.67 0.28,71.33 0.49,107 0.04,5.62 -0.5,11.66 2.45,16.72 3.02,5.17 7.47,9.28 11,14.09 -8.74,2.83 -18.45,3.67 -27.17,0.35 -11.92,-4.35 -19.9,-15.53 -24.33,-26.98 -2.76,-6.74 -2.05,-14.1 -2.16,-21.21 -0.26,-48.36 -0.54,-96.73 -0.87,-145.1 -7.08,2.65 -13.95,5.85 -21.1,8.29 2.37,-4.6 6.12,-8.27 9.11,-12.45 12.59,-14.69 27.71,-27.71 45.68,-35.3 z"
           inkscape:connector-curvature="0" />
        <path
           id="path4759"
           d="m 890.72,201.44 c -8,-0.08 -16.02,0.84 -23.78,2.87 -28.18,5.48 -54.97,19.41 -74.28,40.85 -27.44,29.91 -40.67,70.88 -41,111.06 -1.43,20.05 5.54,39.59 15.15,56.87 6.61,11.6 14.43,23.19 25.88,30.5 9.22,6.02 21.53,6.45 31.43,1.85 8.89,-4.22 14.75,-13.12 17.16,-22.44 -3.76,-1.91 -7.57,-3.7 -11.47,-5.31 -7.52,-3.17 -13.1,-9.39 -18.59,-15.19 -4.4,-5.22 -9.38,-10.79 -10.06,-17.91 26.31,-0.62 50.59,-12.41 73.15,-24.93 0.69,14.71 1.6,29.44 0.5,44.15 -0.62,9.13 -1.6,18.45 -5.22,26.94 -1.78,4.31 -6.08,8.66 -3.53,13.59 14.22,-3.28 28.98,-8.16 39.44,-18.84 10.66,-11.48 11.98,-28.1 11.56,-43 -0.4,-37.91 -0.24,-75.84 -0.81,-113.75 0.04,-12.63 -0.51,-25.38 1.91,-37.84 1.37,-6.77 3.73,-13.99 9.43,-18.35 0.94,-0.91 2.42,-1.62 2.1,-3.18 -12.33,-4.97 -25.64,-7.82 -38.97,-7.94 z m -29.25,29.25 c 4.79,0.03 9.56,0.91 14.12,2.84 -0.41,39.14 -0.4,78.28 -0.9,117.41 -27.75,5.72 -56.23,4.24 -84.38,4.53 0.15,-8.49 -0.03,-16.96 -0.12,-25.44 -0.51,-13.22 -0.58,-26.89 4.22,-39.44 6.85,-18.05 18.46,-34.28 33.12,-46.81 9.34,-7.73 21.7,-13.18 33.94,-13.09 z"
           transform="scale(0.8,0.8)"
           inkscape:connector-curvature="0" />
      </g>
      <g
         id="g4761"
         transform="matrix(1.0588,0,0,1.1094,46.647,-13.232)">
        <path
           id="path4763"
           d="m -7.1947,42.125 c -0.096515,-5.98e-4 -0.19303,0.0036 -0.28954,0.01317 -0.52645,0.09277 -1.0324,0.3286 -1.4419,0.68353 0.13454,0.19303 0.21643,0.42496 0.21935,0.66228 l 0,3.5658 c -0.16378,-0.07542 -0.32464,-0.15861 -0.4855,-0.23822 0.05557,-0.33428 -0.20473,-0.6138 -0.4855,-0.738 -0.09067,0.14395 -0.17841,0.28999 -0.25737,0.44052 -0.07019,0.1215 -0.15501,0.24839 -0.28955,0.29628 -0.2486,0.09337 -0.51767,0.06733 -0.77797,0.06733 0.16378,-0.22954 0.33342,-0.47584 0.34511,-0.77151 0.0117,-0.68622 -0.0117,-1.3727 -0.0058,-2.0593 0.0029,-0.22266 -0.01755,-0.4507 0.04972,-0.66587 0.04972,-0.1655 0.09652,-0.33249 0.11114,-0.50606 -0.30417,-0.04669 -0.62004,0.1245 -0.78674,0.38246 -0.11114,0.1658 -0.08482,0.37438 -0.09359,0.56412 0,0.76762 0.01755,1.5364 -0.04387,2.3026 -0.01462,0.19303 -0.04387,0.40102 -0.18426,0.54407 -0.08189,0.09846 -0.21058,0.11342 -0.32464,0.13377 0.02632,0.19452 0.19303,0.31274 0.35096,0.39563 0.49135,0.2451 1.0617,0.26006 1.594,0.18525 0.28077,-0.0422 0.57324,-0.14425 0.7458,-0.38815 0.28955,0.33398 0.69023,0.54946 1.0968,0.6967 0.47965,0.17806 0.99732,0.10594 1.4828,0.01018 0.79839,-0.1655 1.5617,-0.63475 1.9507,-1.3829 0.25445,-0.48751 0.33926,-1.0492 0.32464,-1.5966 -0.011699,-0.46866 -0.16086,-0.93222 -0.41531,-1.3186 -0.52937,-0.79606 -1.4565,-1.2719 -2.3895,-1.2785 z m -0.13746,0.47614 c 0.08189,-0.0021 0.16671,0.0045 0.25152,0.0093 0.57324,0.04429 1.0938,0.4079 1.4068,0.89302 0.25737,0.40192 0.34804,0.89302 0.33342,1.3674 -0.0088,0.4079 -0.07312,0.81491 -0.19303,1.2037 -0.14331,0.42616 -0.51767,0.71016 -0.87448,0.9409 -0.39483,0.24929 -0.86278,0.47254 -1.3395,0.36092 -0.04095,-0.01766 -0.13746,-0.0069 -0.12576,-0.0805 -0.0029,-1.4449 -0.0029,-2.8903 -0.0029,-4.3355 -0.02047,-0.17866 0.16378,-0.26276 0.29832,-0.31513 0.07897,-0.03112 0.16086,-0.0419 0.24568,-0.04399 z"
           inkscape:connector-curvature="0" />
        <path
           id="path4765"
           d="m -35.896,42.381 c -0.11582,-2.99e-4 -0.23134,0.0081 -0.34541,0.02454 -0.67941,0.10235 -1.2731,0.54886 -1.6606,1.1157 -0.32991,0.47913 -0.46444,1.0696 -0.4855,1.6478 -0.01053,0.67665 0.12518,1.3853 0.53668,1.9321 0.32259,0.42167 0.76569,0.76373 1.2775,0.8996 0.47643,0.13677 0.98592,0.07811 1.4562,-0.05686 0.59781,-0.18674 1.0889,-0.64822 1.3863,-1.2037 0.36968,-0.67156 0.45742,-1.4901 0.27317,-2.2343 -0.06493,-0.28879 -0.14565,-0.58298 -0.31792,-0.82658 -0.26936,-0.4483 -0.64256,-0.84334 -1.1114,-1.0708 -0.31411,-0.15053 -0.66186,-0.22625 -1.009,-0.22744 z m -0.33458,0.69879 c 0.06054,8.98e-4 0.12079,0.0081 0.18016,0.02245 0.24977,0.06015 0.47819,0.18734 0.69169,0.3292 0.23749,0.16041 0.46707,0.34925 0.61623,0.60123 0.09739,0.17477 0.2214,0.33368 0.29159,0.52372 0.13161,0.33817 0.25708,0.69011 0.2641,1.0588 0.02427,0.48062 -0.0389,1.0028 -0.34745,1.3868 -0.35681,0.46716 -1.0514,0.5725 -1.5574,0.31603 -0.36003,-0.18435 -0.63875,-0.49589 -0.87448,-0.82299 -0.33605,-0.46865 -0.57558,-1.0355 -0.5595,-1.6253 -0.0058,-0.35014 0.01696,-0.71016 0.14799,-1.0373 0.12986,-0.37259 0.45713,-0.67575 0.84553,-0.72932 0.09973,-0.01257 0.20093,-0.02514 0.30154,-0.02334 z"
           inkscape:connector-curvature="0" />
        <path
           id="path4767"
           d="m -20.306,42.925 c -0.11845,-0.0012 -0.23193,0.03442 -0.31967,0.13018 -0.18689,0.19752 -0.33371,0.45519 -0.34482,0.7359 0.27258,-2.99e-4 0.56125,0.02723 0.79055,0.19273 0.32757,0.21488 0.46356,0.62278 0.50744,1.0005 0.0085,0.19572 0.05206,0.39563 -0.0047,0.58746 -0.07692,0.2843 -0.19566,0.55484 -0.31704,0.82209 -0.06871,0.13497 -0.13422,0.2855 -0.26233,0.37319 -0.12401,0.03083 -0.241,-0.0416 -0.33546,-0.11522 -0.198,-0.15981 -0.3536,-0.3666 -0.50539,-0.5704 -0.13541,-0.19333 -0.27551,-0.39474 -0.32815,-0.63026 -0.06171,-0.31483 -0.09096,-0.63535 -0.09769,-0.95586 -0.0044,-0.164 0.02369,-0.3274 0.0091,-0.4911 -0.07487,0.06554 -0.09183,0.16789 -0.12605,0.25737 -0.10383,0.30855 -0.24538,0.6126 -0.25971,0.94449 -0.01228,0.31573 -0.0073,0.64762 0.13366,0.93701 -0.20066,0.26485 -0.41241,0.56472 -0.74232,0.66318 -0.23456,-0.11642 -0.44865,-0.28071 -0.59956,-0.50038 -0.26849,-0.39354 -0.31411,-0.89541 -0.28516,-1.3617 0.02603,-0.30675 0.0544,-0.63355 0.23017,-0.89511 0.13395,-0.21308 0.35447,-0.34117 0.58143,-0.42646 -0.05147,-0.24989 -0.20765,-0.47135 -0.39834,-0.63026 -0.1398,-0.11971 -0.31002,0.0069 -0.42788,0.09636 -0.34394,0.29268 -0.50042,0.74697 -0.60687,1.1773 -0.04972,-0.18465 -0.08072,-0.38097 -0.18923,-0.54138 -0.18777,-0.34745 -0.55716,-0.55305 -0.92684,-0.63325 -0.20531,-0.05985 -0.41999,-0.06434 -0.63144,-0.07841 -0.24977,-0.01227 -0.48989,0.0814 -0.70924,0.19452 -0.28662,0.15143 -0.55569,0.34655 -0.76773,0.59764 -0.07692,0.09637 -0.15764,0.19812 -0.17928,0.32441 0.15033,-0.01526 0.27492,-0.10684 0.40946,-0.16729 0.02164,0.85082 0.02252,1.7028 0.04211,2.554 -0.0091,0.27383 0.04884,0.56442 0.22023,0.78079 0.18835,0.22924 0.51533,0.15442 0.77241,0.16011 -0.02749,-0.17178 -0.20034,-0.26695 -0.24509,-0.43304 -0.01842,-1.0857 -0.05352,-2.1721 0.0056,-3.2572 0.14009,-0.07003 0.29042,-0.15412 0.45245,-0.12539 0.21672,0.02963 0.45508,0.05417 0.62413,0.21218 0.29247,0.25198 0.39659,0.72603 0.19011,1.0642 -0.23281,0.34685 -0.64665,0.52342 -1.05,0.52282 0.21116,0.72124 0.63817,1.362 1.1734,1.8734 0.50597,0.46087 1.0813,0.84663 1.7036,1.1202 -0.0044,-0.05596 -0.0313,-0.10115 -0.074,-0.13467 -0.77563,-0.69251 -1.4878,-1.5062 -1.8701,-2.4989 0.21994,-0.11193 0.44338,-0.22744 0.62442,-0.40102 0.13337,-0.12839 0.22432,-0.29268 0.30797,-0.45728 -0.04358,0.53808 0.01111,1.1151 0.29978,1.5804 0.19215,0.31633 0.42291,0.612 0.70368,0.85112 0.13658,0.11671 0.2954,0.2056 0.46883,0.24779 0.30066,-0.2053 0.59722,-0.42586 0.83266,-0.70897 0.07926,-0.09487 0.16057,-0.18794 0.23953,-0.28341 0.14302,0.14964 0.28399,0.30166 0.42496,0.45369 0.19683,0.21308 0.4352,0.38187 0.68906,0.51624 0.16788,-0.15652 0.34424,-0.30346 0.49925,-0.47314 0.39337,-0.41389 0.70661,-0.91576 0.84524,-1.4796 0.14916,0.76373 0.72328,1.438 1.467,1.6376 0.53434,0.14066 1.1307,0.10594 1.6176,-0.17507 0.50506,-0.29717 0.87357,-0.8179 1.011,-1.3952 0.11114,-0.47763 0.11699,-0.99896 -0.07604,-1.4562 -0.19888,-0.46117 -0.56564,-0.83346 -0.98972,-1.0828 -0.38752,-0.22565 -0.85313,-0.29717 -1.2898,-0.21158 -0.33956,0.0422 -0.67034,0.16939 -0.94672,0.37708 -0.35038,0.26545 -0.58143,0.66528 -0.70661,1.0875 -0.07516,-0.54317 -0.37232,-1.0636 -0.82535,-1.3635 -0.12459,-0.07542 -0.28604,-0.13766 -0.4387,-0.13946 z m 2.8653,0.65839 c 0.23134,2.99e-4 0.46327,0.06554 0.67356,0.1619 0.58874,0.26964 0.97422,0.899 1.0365,1.5457 0.03188,0.36451 -0.02077,0.76343 -0.25767,1.0522 -0.22374,0.27114 -0.59167,0.3684 -0.92684,0.33398 -0.66595,-0.06793 -1.2427,-0.6135 -1.4112,-1.2683 -0.04533,-0.1637 -0.1164,-0.3274 -0.10587,-0.50128 0.01404,-0.32171 0.06785,-0.6554 0.24304,-0.92953 0.11904,-0.18405 0.30329,-0.32979 0.51826,-0.37139 0.07604,-0.01556 0.15296,-0.02334 0.23017,-0.02334 z"
           inkscape:connector-curvature="0" />
        <path
           id="path4769"
           d="m -14.008,42.972 c 0.26249,-0.10549 0.54765,-0.06098 0.82038,-0.03666 0.33305,0.05275 0.67122,0.15974 0.93481,0.38157 0.3155,0.25101 0.45991,0.66849 0.46905,1.0673 -3.65e-4,0.08192 0.02084,0.16984 -0.01609,0.24727 -0.08518,0.19378 -0.18316,0.38381 -0.31148,0.5514 -0.19595,0.2454 -0.48331,0.38269 -0.75348,0.52335 0.19596,0.55926 0.51767,1.0632 0.88362,1.521 0.29978,0.35912 0.61857,0.70478 0.97722,1.0029 0.01426,0.0217 0.04277,0.06472 0.05703,0.08641 -0.95856,-0.45788 -1.8594,-1.1256 -2.437,-2.0492 -0.17914,-0.29478 -0.31514,-0.61163 -0.42554,-0.93896 0.40617,0.0011 0.82074,-0.19677 1.0423,-0.55178 0.22995,-0.37296 0.08555,-0.91389 -0.2815,-1.1346 -0.14477,-0.07182 -0.30856,-0.08567 -0.46539,-0.10886 -0.17365,-0.0318 -0.32976,0.06546 -0.48258,0.13168 -0.07531,1.0976 -0.04387,2.1985 -0.03583,3.2976 0.05228,0.14814 0.16634,0.25924 0.25079,0.3883 -0.19559,-7.48e-4 -0.39849,0.02282 -0.5875,-0.03703 -0.27273,-0.14328 -0.38862,-0.47322 -0.41567,-0.76837 -0.0073,-0.89182 -0.0106,-1.7836 -0.02596,-2.6755 -0.11699,0.05911 -0.22995,0.13579 -0.36083,0.15786 -0.02413,-0.02544 -0.08226,-0.06621 -0.04131,-0.10362 0.26323,-0.46125 0.72387,-0.77062 1.205,-0.95205 z"
           inkscape:connector-curvature="0" />
        <path
           id="path4771"
           d="m -31.217,43.253 c 0.1126,-0.10923 0.26176,-0.24203 0.4281,-0.19789 0.16817,0.07931 0.23361,0.2772 0.30015,0.4403 0.18901,0.47397 0.08993,1.0018 -0.03875,1.4784 -0.2157,0.72648 -0.54838,1.4144 -0.95308,2.0496 -0.16963,0.24839 -0.33671,0.50576 -0.55862,0.70889 -0.32903,-0.31049 -0.52974,-0.73022 -0.69791,-1.1477 -0.30636,-0.81775 -0.5407,-1.671 -0.62479,-2.5449 -0.04314,-0.25288 0.11114,-0.47471 0.25737,-0.66064 0.12101,-0.15712 0.28772,-0.27233 0.476,-0.32695 0.10785,1.242 0.28333,2.5176 0.86132,3.6339 0.22886,-0.25438 0.35498,-0.58133 0.47344,-0.89968 0.14733,-0.41449 0.26468,-0.86414 0.17,-1.3056 -0.04277,-0.27383 -0.18389,-0.52671 -0.40068,-0.69468 0.02413,-0.21472 0.16634,-0.38456 0.30746,-0.53307 z"
           inkscape:connector-curvature="0" />
        <path
           id="path4773"
           d="m -28.845,43.101 c 0.40288,-0.12158 0.83792,-0.06135 1.2298,0.07332 0.13307,0.04788 0.29978,0.14028 0.2815,0.31124 0.0062,0.34603 -0.30892,0.56824 -0.5747,0.716 -0.05484,-0.15524 -0.0998,-0.31947 -0.19266,-0.45638 -0.16086,-0.13766 -0.38825,-0.14402 -0.5875,-0.1328 -0.19376,0.01085 -0.34365,0.15487 -0.45516,0.30451 -0.19047,0.26036 -0.30344,0.56824 -0.4058,0.87312 0.48514,3.74e-4 0.9242,-0.28879 1.4112,-0.26298 0.28479,0.04339 0.59225,0.11821 0.80027,0.33668 -0.15647,0.3161 -0.44748,0.53045 -0.73008,0.72012 -0.11589,-0.16572 -0.13892,-0.42908 -0.36266,-0.48631 -0.36083,-0.07669 -0.77102,-0.006 -1.0653,0.22707 -0.06178,0.41972 0.09286,0.85067 0.34365,1.1806 0.24385,0.32845 0.59737,0.60752 1.0123,0.63632 0.26468,0.0288 0.5312,-0.05836 0.79369,-7.48e-4 0.0018,0.0116 0.0058,0.03516 0.0077,0.04676 -0.27385,0.16385 -0.56924,0.29628 -0.87743,0.37483 -0.34256,0.08716 -0.69023,-0.0318 -1.0068,-0.15936 -0.42335,-0.18218 -0.69133,-0.59517 -0.89057,-0.99956 -0.14368,-0.28879 -0.25152,-0.60041 -0.27346,-0.92549 -0.08299,-0.48182 0.05411,-0.98385 0.32025,-1.3845 0.2954,-0.44591 0.71216,-0.82935 1.2218,-0.99245 z"
           inkscape:connector-curvature="0" />
      </g>
      <g
         id="g4775"
         transform="matrix(2.7574,0,0,2.9021,54.27,-57.01)">
        <path
           id="path4777"
           d="m -8.8068,27.601 c 0.054107,-0.04152 0.12138,-0.01609 0.1806,-0.0034 -0.060322,0.16946 -0.059591,0.34865 -0.054838,0.52634 0.064709,-0.24166 0.23836,-0.4605 0.47746,-0.53569 0.1477,-0.03404 0.31221,-0.02132 0.44931,0.04751 0.10529,0.09202 -0.042774,0.20687 -0.1115,0.26822 -0.032903,-0.05275 -0.055935,-0.11484 -0.10346,-0.15562 -0.096149,-0.03255 -0.21972,-0.04339 -0.29795,0.03554 -0.088107,0.07893 -0.1232,0.19789 -0.16269,0.30675 0.23507,-0.02768 0.51219,-0.16984 0.71619,0.02656 -0.06215,0.07145 -0.13234,0.13467 -0.21021,0.18704 -0.050085,-0.06771 -0.096149,-0.16011 -0.1934,-0.15076 -0.10456,0.0041 -0.25737,0.009 -0.30307,0.12345 -0.00439,0.19452 0.1243,0.37408 0.28918,0.46162 0.11187,0.06397 0.24348,0.03554 0.36522,0.05013 -0.17694,0.15786 -0.45187,0.13355 -0.63612,0.0026 -0.13307,-0.1025 -0.19595,-0.26598 -0.2592,-0.41748 -0.00877,0.15038 0.016451,0.32471 -0.088838,0.44741 -0.043505,0.06098 -0.11918,0.07482 -0.18499,0.09577 0.075311,-0.22857 0.048989,-0.47022 0.03729,-0.70627 -0.12869,-0.07893 -0.28077,-0.10287 -0.4281,-0.07893 -0.01901,0.18742 0.010968,0.37895 -0.029247,0.56412 -0.027785,0.12307 -0.14294,0.18592 -0.25006,0.22408 0.095418,-0.23156 0.0563,-0.48556 0.046795,-0.72834 -0.027419,-0.0019 -0.081526,-0.0056 -0.10858,-0.0075 0.033634,-0.04078 0.070558,-0.07856 0.10456,-0.11971 0.034365,-0.14028 -0.051913,-0.31311 0.052279,-0.43132 0.054838,-0.07295 0.1477,-0.04601 0.22374,-0.0389 -0.064343,0.12719 -0.06215,0.26934 -0.059956,0.40888 0.14368,-0.04975 0.29686,-0.05911 0.44675,-0.03554 0.010968,-0.12345 -0.029247,-0.28879 0.092859,-0.3666 z"
           inkscape:connector-curvature="0" />
        <path
           id="path4779"
           d="m -12.328,27.873 c 0.12503,-0.16048 0.31075,-0.2858 0.51877,-0.26934 0.21972,-0.0041 0.47526,0.15861 0.46174,0.40738 0.0066,0.20575 -0.17438,0.33368 -0.33744,0.40813 0.11626,0.29328 0.35352,0.50427 0.54875,0.73882 -0.1795,-0.05724 -0.32281,-0.19153 -0.45735,-0.32022 -0.15245,-0.14552 -0.27273,-0.32471 -0.34329,-0.52559 0.09981,-0.03329 0.21497,-0.05088 0.29137,-0.1313 0.08518,-0.1242 0.0552,-0.3292 -0.07897,-0.40514 -0.08957,-0.04901 -0.19376,-0.03479 -0.29101,-0.02955 0.0033,0.32396 0.004,0.64792 0.0077,0.97188 -0.004,0.07706 0.03875,0.14402 0.06471,0.21398 -0.1243,0.02058 -0.2475,-0.04788 -0.27785,-0.17694 -0.0223,-0.28543 0.0073,-0.57422 -0.02011,-0.8589 -0.02193,-0.006 -0.06507,-0.01758 -0.08701,-0.02319 z"
           inkscape:connector-curvature="0" />
        <path
           id="path4781"
           d="m -10.567,27.679 c 0.29942,-0.19153 0.64746,0.0079 0.96844,-0.07332 -0.09944,0.12943 -0.26066,0.17657 -0.41604,0.16385 -0.05593,0.36099 0.0037,0.73022 -0.02157,1.0938 -0.03327,0.14552 -0.15062,0.25438 -0.27748,0.31835 0.1009,-0.39204 0.02084,-0.80129 0.04972,-1.2008 0.01609,-0.08791 0.06471,-0.16385 0.10163,-0.24353 -0.13344,0.01571 -0.24238,0.09577 -0.34329,0.17919 -0.02961,-0.07631 -0.04862,-0.15637 -0.06142,-0.23754 z"
           inkscape:connector-curvature="0" />
        <path
           id="path4783"
           d="m -14.304,27.659 c 0.25006,-0.07556 0.53778,-0.04339 0.74909,0.12008 0.10968,0.11036 -0.03583,0.26149 -0.13966,0.31274 -0.03217,-0.08267 -0.03656,-0.18779 -0.1115,-0.24428 -0.10529,-0.07818 -0.238,-0.12083 -0.36778,-0.10325 -0.02413,0.16946 -0.0077,0.34004 -0.0029,0.51025 0.13929,-0.05387 0.29978,-0.04489 0.41494,0.05948 -0.04058,0.05911 -0.08555,0.11484 -0.13198,0.16909 -0.07165,-0.08716 -0.1594,-0.16235 -0.27712,-0.16086 -0.01097,0.26934 0.06471,0.55664 -0.04935,0.81177 -0.02888,0.07893 -0.102,0.12195 -0.17073,0.15824 0.02522,-0.39054 -0.01499,-0.78072 -0.02632,-1.1709 -0.0091,-0.13953 0.06142,-0.26261 0.12247,-0.38119 -0.10712,0.02806 -0.20473,0.08342 -0.30965,0.11746 0.06178,-0.1126 0.18828,-0.15712 0.30051,-0.19864 z"
           inkscape:connector-curvature="0" />
        <path
           id="path4785"
           d="m -12.955,27.611 c -0.06347,2.99e-4 -0.12752,0.01437 -0.1901,0.0428 -0.37641,0.1649 -0.4779,0.69131 -0.27697,1.0316 0.12225,0.20919 0.38314,0.32501 0.61419,0.25168 0.34014,-0.07272 0.50802,-0.48212 0.43344,-0.80623 -0.04095,-0.2846 -0.30446,-0.52252 -0.58055,-0.51983 z m -0.10032,0.17567 c 0.1319,-0.0063 0.26059,0.06973 0.34979,0.16849 0.14097,0.17148 0.2021,0.41389 0.13805,0.63116 -0.05879,0.20979 -0.34014,0.29089 -0.50071,0.14874 -0.16466,-0.13766 -0.28311,-0.35164 -0.26615,-0.5743 5.85e-4,-0.13736 0.04533,-0.30675 0.18747,-0.35523 0.03042,-0.01107 0.06083,-0.01736 0.09154,-0.01885 z"
           inkscape:connector-curvature="0" />
      </g>
    </g>
    <g
       id="g4787"
       style="fill:none">
      <g
         id="g4789"
         transform="matrix(0.03655,0,0,0.035059,0.46953,4.4568)">
        <path
           id="path4791"
           d="m 523.36,130.61 c 9.18,-1.48 18.65,1 26.86,5.11 14.42,7.62 25.57,20.24 34.28,33.81 10.66,16.74 16.12,36.64 15.83,56.47 0.34,26.26 -3.83,52.82 -14.19,77.07 -14.02,32.45 -38.77,59.01 -65.88,81.11 -8.39,-4.92 -16.66,-10.1 -24.28,-16.15 -8.05,-6.23 -14.7,-13.98 -21.87,-21.12 -5.34,-5.29 -10.32,-10.92 -15.76,-16.09 -8.38,9.77 -16.77,19.55 -25.54,28.99 -9.68,9.61 -21.14,17.19 -32.61,24.48 -2.4,1.81 -5.31,0.01 -7.84,-0.51 -13.33,-4.67 -24.03,-14.5 -33.53,-24.63 -9.66,-10.53 -18.41,-21.94 -25.92,-34.1 -5.67,-9.45 -10.56,-19.54 -12.77,-30.4 -2.51,-12.06 -4.77,-24.29 -4.66,-36.65 -0.23,-27.34 4.8,-54.65 14.17,-80.31 4.97,-12.69 11.29,-25.26 21.21,-34.83 4.95,-5 11.02,-8.86 17.59,-11.35 2.62,-0.93 5.48,-0.13 7.8,1.21 6.05,3.39 10.66,8.75 14.88,14.16 4.39,5.78 8.52,12.07 9.88,19.34 -9.15,3.26 -18.01,7.93 -24.6,15.22 -12.96,13.82 -17.33,33.13 -18.93,51.46 -1.82,22.35 -1.51,45.6 6.66,66.78 7.33,20.09 23.44,36.25 42.81,45.01 7.58,-0.61 13.89,-5.54 19.44,-10.32 9.38,-8.37 16.83,-18.59 24.24,-28.66 -4.67,-6.22 -6.48,-13.95 -7.59,-21.5 -2.44,-18.72 -2.3,-38.19 3.89,-56.21 4.23,-12.03 8.61,-24.02 13.02,-35.99 0.39,-0.39 1.15,-1.18 1.54,-1.58 0.29,8.2 -0.86,16.39 -0.4,24.6 0.43,19.3 2.08,38.7 6.48,57.54 4.78,14.94 14.38,27.7 23.84,39.99 7.24,9.02 14.82,17.97 24.18,24.87 4.52,3.23 9.72,6.13 15.43,6.18 2.88,-0.39 5.11,-2.55 7.01,-4.59 3.5,-3.99 6.22,-8.59 8.75,-13.24 6.78,-12.84 12.28,-26.33 16.93,-40.07 2.55,-8.19 5.27,-16.72 4.2,-25.41 -0.89,-9.42 -0.57,-19.05 -3.13,-28.24 -1.58,-5.99 -2.13,-12.34 -5.04,-17.89 -2.76,-5.47 -4.41,-11.65 -8.69,-16.21 -3.27,-3.7 -5.89,-8.17 -10.28,-10.7 -4.61,-2.71 -8.66,-6.62 -13.99,-7.87 -4.36,-1.17 -8.6,-2.8 -13.02,-3.74 -6.72,-0.52 -13.47,-0.51 -20.17,-1.28 0.62,-8.91 4.29,-17.27 9.06,-24.71 5.17,-7.81 11.33,-16.23 20.71,-19.05 z"
           inkscape:connector-curvature="0" />
        <path
           id="path4793"
           d="m 800.38,138.41 c 10.68,-4.62 22.14,-7.61 33.78,-8.26 18.33,-1.91 37.2,1.05 54,8.66 14.53,6.76 27.91,16.95 36.3,30.8 9.28,15.39 11.11,34.72 6.19,51.88 -7.7,25.05 -29.53,44.54 -54.37,51.92 -3.32,0.75 -4.38,4.42 -6.32,6.78 5,17.18 14.72,32.47 24.77,47.08 17.85,25.08 38.22,48.29 59.83,70.17 4.71,4.58 9.2,9.41 14.28,13.59 1.32,1.04 2.4,2.33 3.27,3.79 -24.4,-8.03 -45.99,-22.91 -65.24,-39.66 -27.32,-22.82 -51.99,-49.47 -69.3,-80.76 -2.7,-5.61 -5.66,-11.11 -8.19,-16.8 -2.18,-5.89 -4.4,-11.77 -6.41,-17.72 16.91,-2.84 34.39,-6.99 48.19,-17.73 4.73,-3.98 10.07,-8.41 11.14,-14.86 1.37,-5.74 3.5,-11.34 3.93,-17.26 0.5,-15.04 -3.36,-31.07 -14.19,-42.06 -9.31,-9.68 -22.89,-14.05 -36.08,-14.32 -9.68,-0.24 -19.41,0.28 -28.99,1.7 -0.28,25.88 0.27,51.77 0.31,77.65 0.12,35.67 0.28,71.33 0.49,107 0.04,5.62 -0.5,11.66 2.45,16.72 3.02,5.17 7.47,9.28 11,14.09 -8.74,2.83 -18.45,3.67 -27.17,0.35 -11.92,-4.35 -19.9,-15.53 -24.33,-26.98 -2.76,-6.74 -2.05,-14.1 -2.16,-21.21 -0.26,-48.36 -0.54,-96.73 -0.87,-145.1 -7.08,2.65 -13.95,5.85 -21.1,8.29 2.37,-4.6 6.12,-8.27 9.11,-12.45 12.59,-14.69 27.71,-27.71 45.68,-35.3 z"
           inkscape:connector-curvature="0" />
        <path
           id="path4795"
           d="m 890.72,201.44 c -8,-0.08 -16.02,0.84 -23.78,2.87 -28.18,5.48 -54.97,19.41 -74.28,40.85 -27.44,29.91 -40.67,70.88 -41,111.06 -1.43,20.05 5.54,39.59 15.15,56.87 6.61,11.6 14.43,23.19 25.88,30.5 9.22,6.02 21.53,6.45 31.43,1.85 8.89,-4.22 14.75,-13.12 17.16,-22.44 -3.76,-1.91 -7.57,-3.7 -11.47,-5.31 -7.52,-3.17 -13.1,-9.39 -18.59,-15.19 -4.4,-5.22 -9.38,-10.79 -10.06,-17.91 26.31,-0.62 50.59,-12.41 73.15,-24.93 0.69,14.71 1.6,29.44 0.5,44.15 -0.62,9.13 -1.6,18.45 -5.22,26.94 -1.78,4.31 -6.08,8.66 -3.53,13.59 14.22,-3.28 28.98,-8.16 39.44,-18.84 10.66,-11.48 11.98,-28.1 11.56,-43 -0.4,-37.91 -0.24,-75.84 -0.81,-113.75 0.04,-12.63 -0.51,-25.38 1.91,-37.84 1.37,-6.77 3.73,-13.99 9.43,-18.35 0.94,-0.91 2.42,-1.62 2.1,-3.18 -12.33,-4.97 -25.64,-7.82 -38.97,-7.94 z m -29.25,29.25 c 4.79,0.03 9.56,0.91 14.12,2.84 -0.41,39.14 -0.4,78.28 -0.9,117.41 -27.75,5.72 -56.23,4.24 -84.38,4.53 0.15,-8.49 -0.03,-16.96 -0.12,-25.44 -0.51,-13.22 -0.58,-26.89 4.22,-39.44 6.85,-18.05 18.46,-34.28 33.12,-46.81 9.34,-7.73 21.7,-13.18 33.94,-13.09 z"
           transform="scale(0.8,0.8)"
           inkscape:connector-curvature="0" />
      </g>
      <g
         id="g4797"
         transform="matrix(1.0588,0,0,1.1094,46.647,-13.232)">
        <path
           id="path4799"
           d="m -7.1947,42.125 c -0.096515,-5.98e-4 -0.19303,0.0036 -0.28954,0.01317 -0.52645,0.09277 -1.0324,0.3286 -1.4419,0.68353 0.13454,0.19303 0.21643,0.42496 0.21935,0.66228 l 0,3.5658 c -0.16378,-0.07542 -0.32464,-0.15861 -0.4855,-0.23822 0.05557,-0.33428 -0.20473,-0.6138 -0.4855,-0.738 -0.09067,0.14395 -0.17841,0.28999 -0.25737,0.44052 -0.07019,0.1215 -0.15501,0.24839 -0.28955,0.29628 -0.2486,0.09337 -0.51767,0.06733 -0.77797,0.06733 0.16378,-0.22954 0.33342,-0.47584 0.34511,-0.77151 0.0117,-0.68622 -0.0117,-1.3727 -0.0058,-2.0593 0.0029,-0.22266 -0.01755,-0.4507 0.04972,-0.66587 0.04972,-0.1655 0.09652,-0.33249 0.11114,-0.50606 -0.30417,-0.04669 -0.62004,0.1245 -0.78674,0.38246 -0.11114,0.1658 -0.08482,0.37438 -0.09359,0.56412 0,0.76762 0.01755,1.5364 -0.04387,2.3026 -0.01462,0.19303 -0.04387,0.40102 -0.18426,0.54407 -0.08189,0.09846 -0.21058,0.11342 -0.32464,0.13377 0.02632,0.19452 0.19303,0.31274 0.35096,0.39563 0.49135,0.2451 1.0617,0.26006 1.594,0.18525 0.28077,-0.0422 0.57324,-0.14425 0.7458,-0.38815 0.28955,0.33398 0.69023,0.54946 1.0968,0.6967 0.47965,0.17806 0.99732,0.10594 1.4828,0.01018 0.79839,-0.1655 1.5617,-0.63475 1.9507,-1.3829 0.25445,-0.48751 0.33926,-1.0492 0.32464,-1.5966 -0.011699,-0.46866 -0.16086,-0.93222 -0.41531,-1.3186 -0.52937,-0.79606 -1.4565,-1.2719 -2.3895,-1.2785 z m -0.13746,0.47614 c 0.08189,-0.0021 0.16671,0.0045 0.25152,0.0093 0.57324,0.04429 1.0938,0.4079 1.4068,0.89302 0.25737,0.40192 0.34804,0.89302 0.33342,1.3674 -0.0088,0.4079 -0.07312,0.81491 -0.19303,1.2037 -0.14331,0.42616 -0.51767,0.71016 -0.87448,0.9409 -0.39483,0.24929 -0.86278,0.47254 -1.3395,0.36092 -0.04095,-0.01766 -0.13746,-0.0069 -0.12576,-0.0805 -0.0029,-1.4449 -0.0029,-2.8903 -0.0029,-4.3355 -0.02047,-0.17866 0.16378,-0.26276 0.29832,-0.31513 0.07897,-0.03112 0.16086,-0.0419 0.24568,-0.04399 z"
           inkscape:connector-curvature="0" />
        <path
           id="path4801"
           d="m -35.896,42.381 c -0.11582,-2.99e-4 -0.23134,0.0081 -0.34541,0.02454 -0.67941,0.10235 -1.2731,0.54886 -1.6606,1.1157 -0.32991,0.47913 -0.46444,1.0696 -0.4855,1.6478 -0.01053,0.67665 0.12518,1.3853 0.53668,1.9321 0.32259,0.42167 0.76569,0.76373 1.2775,0.8996 0.47643,0.13677 0.98592,0.07811 1.4562,-0.05686 0.59781,-0.18674 1.0889,-0.64822 1.3863,-1.2037 0.36968,-0.67156 0.45742,-1.4901 0.27317,-2.2343 -0.06493,-0.28879 -0.14565,-0.58298 -0.31792,-0.82658 -0.26936,-0.4483 -0.64256,-0.84334 -1.1114,-1.0708 -0.31411,-0.15053 -0.66186,-0.22625 -1.009,-0.22744 z m -0.33458,0.69879 c 0.06054,8.98e-4 0.12079,0.0081 0.18016,0.02245 0.24977,0.06015 0.47819,0.18734 0.69169,0.3292 0.23749,0.16041 0.46707,0.34925 0.61623,0.60123 0.09739,0.17477 0.2214,0.33368 0.29159,0.52372 0.13161,0.33817 0.25708,0.69011 0.2641,1.0588 0.02427,0.48062 -0.0389,1.0028 -0.34745,1.3868 -0.35681,0.46716 -1.0514,0.5725 -1.5574,0.31603 -0.36003,-0.18435 -0.63875,-0.49589 -0.87448,-0.82299 -0.33605,-0.46865 -0.57558,-1.0355 -0.5595,-1.6253 -0.0058,-0.35014 0.01696,-0.71016 0.14799,-1.0373 0.12986,-0.37259 0.45713,-0.67575 0.84553,-0.72932 0.09973,-0.01257 0.20093,-0.02514 0.30154,-0.02334 z"
           inkscape:connector-curvature="0" />
        <path
           id="path4803"
           d="m -20.306,42.925 c -0.11845,-0.0012 -0.23193,0.03442 -0.31967,0.13018 -0.18689,0.19752 -0.33371,0.45519 -0.34482,0.7359 0.27258,-2.99e-4 0.56125,0.02723 0.79055,0.19273 0.32757,0.21488 0.46356,0.62278 0.50744,1.0005 0.0085,0.19572 0.05206,0.39563 -0.0047,0.58746 -0.07692,0.2843 -0.19566,0.55484 -0.31704,0.82209 -0.06871,0.13497 -0.13422,0.2855 -0.26233,0.37319 -0.12401,0.03083 -0.241,-0.0416 -0.33546,-0.11522 -0.198,-0.15981 -0.3536,-0.3666 -0.50539,-0.5704 -0.13541,-0.19333 -0.27551,-0.39474 -0.32815,-0.63026 -0.06171,-0.31483 -0.09096,-0.63535 -0.09769,-0.95586 -0.0044,-0.164 0.02369,-0.3274 0.0091,-0.4911 -0.07487,0.06554 -0.09183,0.16789 -0.12605,0.25737 -0.10383,0.30855 -0.24538,0.6126 -0.25971,0.94449 -0.01228,0.31573 -0.0073,0.64762 0.13366,0.93701 -0.20066,0.26485 -0.41241,0.56472 -0.74232,0.66318 -0.23456,-0.11642 -0.44865,-0.28071 -0.59956,-0.50038 -0.26849,-0.39354 -0.31411,-0.89541 -0.28516,-1.3617 0.02603,-0.30675 0.0544,-0.63355 0.23017,-0.89511 0.13395,-0.21308 0.35447,-0.34117 0.58143,-0.42646 -0.05147,-0.24989 -0.20765,-0.47135 -0.39834,-0.63026 -0.1398,-0.11971 -0.31002,0.0069 -0.42788,0.09636 -0.34394,0.29268 -0.50042,0.74697 -0.60687,1.1773 -0.04972,-0.18465 -0.08072,-0.38097 -0.18923,-0.54138 -0.18777,-0.34745 -0.55716,-0.55305 -0.92684,-0.63325 -0.20531,-0.05985 -0.41999,-0.06434 -0.63144,-0.07841 -0.24977,-0.01227 -0.48989,0.0814 -0.70924,0.19452 -0.28662,0.15143 -0.55569,0.34655 -0.76773,0.59764 -0.07692,0.09637 -0.15764,0.19812 -0.17928,0.32441 0.15033,-0.01526 0.27492,-0.10684 0.40946,-0.16729 0.02164,0.85082 0.02252,1.7028 0.04211,2.554 -0.0091,0.27383 0.04884,0.56442 0.22023,0.78079 0.18835,0.22924 0.51533,0.15442 0.77241,0.16011 -0.02749,-0.17178 -0.20034,-0.26695 -0.24509,-0.43304 -0.01842,-1.0857 -0.05352,-2.1721 0.0056,-3.2572 0.14009,-0.07003 0.29042,-0.15412 0.45245,-0.12539 0.21672,0.02963 0.45508,0.05417 0.62413,0.21218 0.29247,0.25198 0.39659,0.72603 0.19011,1.0642 -0.23281,0.34685 -0.64665,0.52342 -1.05,0.52282 0.21116,0.72124 0.63817,1.362 1.1734,1.8734 0.50597,0.46087 1.0813,0.84663 1.7036,1.1202 -0.0044,-0.05596 -0.0313,-0.10115 -0.074,-0.13467 -0.77563,-0.69251 -1.4878,-1.5062 -1.8701,-2.4989 0.21994,-0.11193 0.44338,-0.22744 0.62442,-0.40102 0.13337,-0.12839 0.22432,-0.29268 0.30797,-0.45728 -0.04358,0.53808 0.01111,1.1151 0.29978,1.5804 0.19215,0.31633 0.42291,0.612 0.70368,0.85112 0.13658,0.11671 0.2954,0.2056 0.46883,0.24779 0.30066,-0.2053 0.59722,-0.42586 0.83266,-0.70897 0.07926,-0.09487 0.16057,-0.18794 0.23953,-0.28341 0.14302,0.14964 0.28399,0.30166 0.42496,0.45369 0.19683,0.21308 0.4352,0.38187 0.68906,0.51624 0.16788,-0.15652 0.34424,-0.30346 0.49925,-0.47314 0.39337,-0.41389 0.70661,-0.91576 0.84524,-1.4796 0.14916,0.76373 0.72328,1.438 1.467,1.6376 0.53434,0.14066 1.1307,0.10594 1.6176,-0.17507 0.50506,-0.29717 0.87357,-0.8179 1.011,-1.3952 0.11114,-0.47763 0.11699,-0.99896 -0.07604,-1.4562 -0.19888,-0.46117 -0.56564,-0.83346 -0.98972,-1.0828 -0.38752,-0.22565 -0.85313,-0.29717 -1.2898,-0.21158 -0.33956,0.0422 -0.67034,0.16939 -0.94672,0.37708 -0.35038,0.26545 -0.58143,0.66528 -0.70661,1.0875 -0.07516,-0.54317 -0.37232,-1.0636 -0.82535,-1.3635 -0.12459,-0.07542 -0.28604,-0.13766 -0.4387,-0.13946 z m 2.8653,0.65839 c 0.23134,2.99e-4 0.46327,0.06554 0.67356,0.1619 0.58874,0.26964 0.97422,0.899 1.0365,1.5457 0.03188,0.36451 -0.02077,0.76343 -0.25767,1.0522 -0.22374,0.27114 -0.59167,0.3684 -0.92684,0.33398 -0.66595,-0.06793 -1.2427,-0.6135 -1.4112,-1.2683 -0.04533,-0.1637 -0.1164,-0.3274 -0.10587,-0.50128 0.01404,-0.32171 0.06785,-0.6554 0.24304,-0.92953 0.11904,-0.18405 0.30329,-0.32979 0.51826,-0.37139 0.07604,-0.01556 0.15296,-0.02334 0.23017,-0.02334 z"
           inkscape:connector-curvature="0" />
        <path
           id="path4805"
           d="m -14.008,42.972 c 0.26249,-0.10549 0.54765,-0.06098 0.82038,-0.03666 0.33305,0.05275 0.67122,0.15974 0.93481,0.38157 0.3155,0.25101 0.45991,0.66849 0.46905,1.0673 -3.65e-4,0.08192 0.02084,0.16984 -0.01609,0.24727 -0.08518,0.19378 -0.18316,0.38381 -0.31148,0.5514 -0.19595,0.2454 -0.48331,0.38269 -0.75348,0.52335 0.19596,0.55926 0.51767,1.0632 0.88362,1.521 0.29978,0.35912 0.61857,0.70478 0.97722,1.0029 0.01426,0.0217 0.04277,0.06472 0.05703,0.08641 -0.95856,-0.45788 -1.8594,-1.1256 -2.437,-2.0492 -0.17914,-0.29478 -0.31514,-0.61163 -0.42554,-0.93896 0.40617,0.0011 0.82074,-0.19677 1.0423,-0.55178 0.22995,-0.37296 0.08555,-0.91389 -0.2815,-1.1346 -0.14477,-0.07182 -0.30856,-0.08567 -0.46539,-0.10886 -0.17365,-0.0318 -0.32976,0.06546 -0.48258,0.13168 -0.07531,1.0976 -0.04387,2.1985 -0.03583,3.2976 0.05228,0.14814 0.16634,0.25924 0.25079,0.3883 -0.19559,-7.48e-4 -0.39849,0.02282 -0.5875,-0.03703 -0.27273,-0.14328 -0.38862,-0.47322 -0.41567,-0.76837 -0.0073,-0.89182 -0.0106,-1.7836 -0.02596,-2.6755 -0.11699,0.05911 -0.22995,0.13579 -0.36083,0.15786 -0.02413,-0.02544 -0.08226,-0.06621 -0.04131,-0.10362 0.26323,-0.46125 0.72387,-0.77062 1.205,-0.95205 z"
           inkscape:connector-curvature="0" />
        <path
           id="path4807"
           d="m -31.217,43.253 c 0.1126,-0.10923 0.26176,-0.24203 0.4281,-0.19789 0.16817,0.07931 0.23361,0.2772 0.30015,0.4403 0.18901,0.47397 0.08993,1.0018 -0.03875,1.4784 -0.2157,0.72648 -0.54838,1.4144 -0.95308,2.0496 -0.16963,0.24839 -0.33671,0.50576 -0.55862,0.70889 -0.32903,-0.31049 -0.52974,-0.73022 -0.69791,-1.1477 -0.30636,-0.81775 -0.5407,-1.671 -0.62479,-2.5449 -0.04314,-0.25288 0.11114,-0.47471 0.25737,-0.66064 0.12101,-0.15712 0.28772,-0.27233 0.476,-0.32695 0.10785,1.242 0.28333,2.5176 0.86132,3.6339 0.22886,-0.25438 0.35498,-0.58133 0.47344,-0.89968 0.14733,-0.41449 0.26468,-0.86414 0.17,-1.3056 -0.04277,-0.27383 -0.18389,-0.52671 -0.40068,-0.69468 0.02413,-0.21472 0.16634,-0.38456 0.30746,-0.53307 z"
           inkscape:connector-curvature="0" />
        <path
           id="path4809"
           d="m -28.845,43.101 c 0.40288,-0.12158 0.83792,-0.06135 1.2298,0.07332 0.13307,0.04788 0.29978,0.14028 0.2815,0.31124 0.0062,0.34603 -0.30892,0.56824 -0.5747,0.716 -0.05484,-0.15524 -0.0998,-0.31947 -0.19266,-0.45638 -0.16086,-0.13766 -0.38825,-0.14402 -0.5875,-0.1328 -0.19376,0.01085 -0.34365,0.15487 -0.45516,0.30451 -0.19047,0.26036 -0.30344,0.56824 -0.4058,0.87312 0.48514,3.74e-4 0.9242,-0.28879 1.4112,-0.26298 0.28479,0.04339 0.59225,0.11821 0.80027,0.33668 -0.15647,0.3161 -0.44748,0.53045 -0.73008,0.72012 -0.11589,-0.16572 -0.13892,-0.42908 -0.36266,-0.48631 -0.36083,-0.07669 -0.77102,-0.006 -1.0653,0.22707 -0.06178,0.41972 0.09286,0.85067 0.34365,1.1806 0.24385,0.32845 0.59737,0.60752 1.0123,0.63632 0.26468,0.0288 0.5312,-0.05836 0.79369,-7.48e-4 0.0018,0.0116 0.0058,0.03516 0.0077,0.04676 -0.27385,0.16385 -0.56924,0.29628 -0.87743,0.37483 -0.34256,0.08716 -0.69023,-0.0318 -1.0068,-0.15936 -0.42335,-0.18218 -0.69133,-0.59517 -0.89057,-0.99956 -0.14368,-0.28879 -0.25152,-0.60041 -0.27346,-0.92549 -0.08299,-0.48182 0.05411,-0.98385 0.32025,-1.3845 0.2954,-0.44591 0.71216,-0.82935 1.2218,-0.99245 z"
           inkscape:connector-curvature="0" />
      </g>
      <g
         id="g4811"
         transform="matrix(2.7574,0,0,2.9021,54.27,-57.01)">
        <path
           id="path4813"
           d="m -8.8068,27.601 c 0.054107,-0.04152 0.12138,-0.01609 0.1806,-0.0034 -0.060322,0.16946 -0.059591,0.34865 -0.054838,0.52634 0.064709,-0.24166 0.23836,-0.4605 0.47746,-0.53569 0.1477,-0.03404 0.31221,-0.02132 0.44931,0.04751 0.10529,0.09202 -0.042774,0.20687 -0.1115,0.26822 -0.032903,-0.05275 -0.055935,-0.11484 -0.10346,-0.15562 -0.096149,-0.03255 -0.21972,-0.04339 -0.29795,0.03554 -0.088107,0.07893 -0.1232,0.19789 -0.16269,0.30675 0.23507,-0.02768 0.51219,-0.16984 0.71619,0.02656 -0.06215,0.07145 -0.13234,0.13467 -0.21021,0.18704 -0.050085,-0.06771 -0.096149,-0.16011 -0.1934,-0.15076 -0.10456,0.0041 -0.25737,0.009 -0.30307,0.12345 -0.00439,0.19452 0.1243,0.37408 0.28918,0.46162 0.11187,0.06397 0.24348,0.03554 0.36522,0.05013 -0.17694,0.15786 -0.45187,0.13355 -0.63612,0.0026 -0.13307,-0.1025 -0.19595,-0.26598 -0.2592,-0.41748 -0.00877,0.15038 0.016451,0.32471 -0.088838,0.44741 -0.043505,0.06098 -0.11918,0.07482 -0.18499,0.09577 0.075311,-0.22857 0.048989,-0.47022 0.03729,-0.70627 -0.12869,-0.07893 -0.28077,-0.10287 -0.4281,-0.07893 -0.01901,0.18742 0.010968,0.37895 -0.029247,0.56412 -0.027785,0.12307 -0.14294,0.18592 -0.25006,0.22408 0.095418,-0.23156 0.0563,-0.48556 0.046795,-0.72834 -0.027419,-0.0019 -0.081526,-0.0056 -0.10858,-0.0075 0.033634,-0.04078 0.070558,-0.07856 0.10456,-0.11971 0.034365,-0.14028 -0.051913,-0.31311 0.052279,-0.43132 0.054838,-0.07295 0.1477,-0.04601 0.22374,-0.0389 -0.064343,0.12719 -0.06215,0.26934 -0.059956,0.40888 0.14368,-0.04975 0.29686,-0.05911 0.44675,-0.03554 0.010968,-0.12345 -0.029247,-0.28879 0.092859,-0.3666 z"
           inkscape:connector-curvature="0" />
        <path
           id="path4815"
           d="m -12.328,27.873 c 0.12503,-0.16048 0.31075,-0.2858 0.51877,-0.26934 0.21972,-0.0041 0.47526,0.15861 0.46174,0.40738 0.0066,0.20575 -0.17438,0.33368 -0.33744,0.40813 0.11626,0.29328 0.35352,0.50427 0.54875,0.73882 -0.1795,-0.05724 -0.32281,-0.19153 -0.45735,-0.32022 -0.15245,-0.14552 -0.27273,-0.32471 -0.34329,-0.52559 0.09981,-0.03329 0.21497,-0.05088 0.29137,-0.1313 0.08518,-0.1242 0.0552,-0.3292 -0.07897,-0.40514 -0.08957,-0.04901 -0.19376,-0.03479 -0.29101,-0.02955 0.0033,0.32396 0.004,0.64792 0.0077,0.97188 -0.004,0.07706 0.03875,0.14402 0.06471,0.21398 -0.1243,0.02058 -0.2475,-0.04788 -0.27785,-0.17694 -0.0223,-0.28543 0.0073,-0.57422 -0.02011,-0.8589 -0.02193,-0.006 -0.06507,-0.01758 -0.08701,-0.02319 z"
           inkscape:connector-curvature="0" />
        <path
           id="path4817"
           d="m -10.567,27.679 c 0.29942,-0.19153 0.64746,0.0079 0.96844,-0.07332 -0.09944,0.12943 -0.26066,0.17657 -0.41604,0.16385 -0.05593,0.36099 0.0037,0.73022 -0.02157,1.0938 -0.03327,0.14552 -0.15062,0.25438 -0.27748,0.31835 0.1009,-0.39204 0.02084,-0.80129 0.04972,-1.2008 0.01609,-0.08791 0.06471,-0.16385 0.10163,-0.24353 -0.13344,0.01571 -0.24238,0.09577 -0.34329,0.17919 -0.02961,-0.07631 -0.04862,-0.15637 -0.06142,-0.23754 z"
           inkscape:connector-curvature="0" />
        <path
           id="path4819"
           d="m -14.304,27.659 c 0.25006,-0.07556 0.53778,-0.04339 0.74909,0.12008 0.10968,0.11036 -0.03583,0.26149 -0.13966,0.31274 -0.03217,-0.08267 -0.03656,-0.18779 -0.1115,-0.24428 -0.10529,-0.07818 -0.238,-0.12083 -0.36778,-0.10325 -0.02413,0.16946 -0.0077,0.34004 -0.0029,0.51025 0.13929,-0.05387 0.29978,-0.04489 0.41494,0.05948 -0.04058,0.05911 -0.08555,0.11484 -0.13198,0.16909 -0.07165,-0.08716 -0.1594,-0.16235 -0.27712,-0.16086 -0.01097,0.26934 0.06471,0.55664 -0.04935,0.81177 -0.02888,0.07893 -0.102,0.12195 -0.17073,0.15824 0.02522,-0.39054 -0.01499,-0.78072 -0.02632,-1.1709 -0.0091,-0.13953 0.06142,-0.26261 0.12247,-0.38119 -0.10712,0.02806 -0.20473,0.08342 -0.30965,0.11746 0.06178,-0.1126 0.18828,-0.15712 0.30051,-0.19864 z"
           inkscape:connector-curvature="0" />
        <path
           id="path4821"
           d="m -12.955,27.611 c -0.06347,2.99e-4 -0.12752,0.01437 -0.1901,0.0428 -0.37641,0.1649 -0.4779,0.69131 -0.27697,1.0316 0.12225,0.20919 0.38314,0.32501 0.61419,0.25168 0.34014,-0.07272 0.50802,-0.48212 0.43344,-0.80623 -0.04095,-0.2846 -0.30446,-0.52252 -0.58055,-0.51983 z m -0.10032,0.17567 c 0.1319,-0.0063 0.26059,0.06973 0.34979,0.16849 0.14097,0.17148 0.2021,0.41389 0.13805,0.63116 -0.05879,0.20979 -0.34014,0.29089 -0.50071,0.14874 -0.16466,-0.13766 -0.28311,-0.35164 -0.26615,-0.5743 5.85e-4,-0.13736 0.04533,-0.30675 0.18747,-0.35523 0.03042,-0.01107 0.06083,-0.01736 0.09154,-0.01885 z"
           inkscape:connector-curvature="0" />
      </g>
    </g>
  </g>
</svg>
