<?xml version="1.0" encoding="UTF-8" standalone="no"?>
<!-- Created with Inkscape (http://www.inkscape.org/) -->

<svg
   xmlns:dc="http://purl.org/dc/elements/1.1/"
   xmlns:cc="http://creativecommons.org/ns#"
   xmlns:rdf="http://www.w3.org/1999/02/22-rdf-syntax-ns#"
   xmlns:svg="http://www.w3.org/2000/svg"
   xmlns="http://www.w3.org/2000/svg"
   xmlns:xlink="http://www.w3.org/1999/xlink"
   xmlns:sodipodi="http://sodipodi.sourceforge.net/DTD/sodipodi-0.dtd"
   xmlns:inkscape="http://www.inkscape.org/namespaces/inkscape"
   id="svg4061"
   height="48"
   width="48"
   version="1.1"
   inkscape:version="0.91 r13725"
   sodipodi:docname="winetricks.svg">
  <sodipodi:namedview
     pagecolor="#ffffff"
     bordercolor="#666666"
     borderopacity="1"
     objecttolerance="10"
     gridtolerance="10"
     guidetolerance="10"
     inkscape:pageopacity="0"
     inkscape:pageshadow="2"
     inkscape:window-width="1535"
     inkscape:window-height="876"
     id="namedview63"
     showgrid="false"
     inkscape:zoom="4.9166667"
     inkscape:cx="-10.779661"
     inkscape:cy="24"
     inkscape:window-x="65"
     inkscape:window-y="24"
     inkscape:window-maximized="1"
     inkscape:current-layer="svg4061" />
  <defs
     id="defs4063">
    <linearGradient
       id="linearGradient3026"
       y2="40.496"
       gradientUnits="userSpaceOnUse"
       x2="71.204"
       gradientTransform="matrix(1.617 0 0 1.617 -92.707 -21.06)"
       y1="15.369"
       x1="71.204">
      <stop
         id="stop4808-4"
         stop-color="#fff"
         offset="0" />
      <stop
         id="stop4810-0"
         stop-color="#fff"
         stop-opacity=".23529"
         offset=".42448" />
      <stop
         id="stop4812-8"
         stop-color="#fff"
         stop-opacity=".15686"
         offset=".82090" />
      <stop
         id="stop4814-0"
         stop-color="#fff"
         stop-opacity=".39216"
         offset="1" />
    </linearGradient>
    <radialGradient
       id="radialGradient3029"
       fx="4.459"
       fy="8.5089"
       gradientUnits="userSpaceOnUse"
       cy="8.6258"
       cx="15.026"
       gradientTransform="matrix(-3.4973e-8 1.8855 -1.7764 -5.4723e-8 39.14 -7.9932)"
       r="20">
      <stop
         id="stop4170"
         stop-color="#ff9696"
         offset="0" />
      <stop
         id="stop4172"
         stop-color="#fd7676"
         offset=".26238" />
      <stop
         id="stop4174"
         stop-color="#f94040"
         offset=".66094" />
      <stop
         id="stop4176"
         stop-color="#e42020"
         offset="1" />
    </radialGradient>
    <radialGradient
       id="radialGradient3032"
       gradientUnits="userSpaceOnUse"
       cy="3.99"
       cx="23.896"
       gradientTransform="matrix(0 2.8885 -3.8128 0 39.213 -65.95)"
       r="20.397">
      <stop
         id="stop3244-9-33-7-0-9"
         stop-color="#fff"
         offset="0" />
      <stop
         id="stop3246-3-5-0-8-5"
         stop-color="#ddd"
         offset=".26238" />
      <stop
         id="stop3248-1-7-8-8-1"
         stop-color="#abacae"
         offset=".66094" />
      <stop
         id="stop3250-9-3-0-5-1"
         stop-color="#89898b"
         offset="1" />
    </radialGradient>
    <radialGradient
       id="radialGradient3035"
       gradientUnits="userSpaceOnUse"
       cy="186.17"
       cx="99.157"
       gradientTransform="matrix(.27083 0 0 .087623 -2.8551 25.187)"
       r="62.769">
      <stop
         id="stop3822-2-6-3"
         stop-color="#3d3d3d"
         offset="0" />
      <stop
         id="stop3864-8-7-7"
         stop-color="#686868"
         stop-opacity=".49804"
         offset=".5" />
      <stop
         id="stop3824-1-2-5"
         stop-color="#686868"
         stop-opacity="0"
         offset="1" />
    </radialGradient>
    <linearGradient
       id="ButtonShadow"
       y2="7.0165"
       gradientUnits="userSpaceOnUse"
       x2="45.448"
       gradientTransform="scale(1.0059 .99417)"
       y1="92.54"
       x1="45.448">
      <stop
         id="stop3750"
         offset="0" />
      <stop
         id="stop3752"
         stop-opacity=".58824"
         offset="1" />
    </linearGradient>
    <filter
       id="filter3174"
       style="color-interpolation-filters:sRGB">
      <feGaussianBlur
         id="feGaussianBlur3176"
         stdDeviation="1.71" />
    </filter>
    <linearGradient
       id="linearGradient3185"
       y2="-167.53"
       xlink:href="#SVGID_14_"
       gradientUnits="userSpaceOnUse"
       x2="206.69"
       gradientTransform="matrix(.72832 0 0 -.72832 -296.09 -106.83)"
       y1="-167.53"
       x1="206.69" />
    <linearGradient
       id="SVGID_14_"
       y2="-167.53"
       gradientUnits="userSpaceOnUse"
       x2="206.69"
       gradientTransform="matrix(1 0 0 -1 -270.96 -122.07)"
       y1="-167.53"
       x1="206.69">
      <stop
         id="stop3506"
         stop-color="#7e9ec4"
         offset="0" />
      <stop
         id="stop3508"
         stop-color="#151d89"
         offset="1" />
    </linearGradient>
    <linearGradient
       id="linearGradient3182"
       y2="-167.53"
       xlink:href="#SVGID_14_"
       gradientUnits="userSpaceOnUse"
       x2="206.69"
       gradientTransform="matrix(.72832 0 0 -.72832 -376.09 -105.83)"
       y1="-167.53"
       x1="206.69" />
    <filter
       id="filter3174-6"
       style="color-interpolation-filters:sRGB">
      <feGaussianBlur
         id="feGaussianBlur3176-3"
         stdDeviation="1.71" />
    </filter>
    <linearGradient
       id="linearGradient3185-7"
       y2="-167.53"
       xlink:href="#SVGID_14_"
       gradientUnits="userSpaceOnUse"
       x2="206.69"
       gradientTransform="matrix(.72832 0 0 -.72832 -324.21 -98.141)"
       y1="-167.53"
       x1="206.69" />
    <linearGradient
       id="linearGradient3182-5"
       y2="-167.53"
       xlink:href="#SVGID_14_"
       gradientUnits="userSpaceOnUse"
       x2="206.69"
       gradientTransform="matrix(.72832 0 0 -.72832 -404.21 -97.141)"
       y1="-167.53"
       x1="206.69" />
    <linearGradient
       id="linearGradient8007"
       y2="7.0165"
       xlink:href="#ButtonShadow"
       gradientUnits="userSpaceOnUse"
       x2="45.448"
       gradientTransform="scale(1.0059 .99417)"
       y1="92.54"
       x1="45.448" />
    <filter
       id="filter3174-3"
       style="color-interpolation-filters:sRGB">
      <feGaussianBlur
         id="feGaussianBlur3176-9"
         stdDeviation="1.71" />
    </filter>
    <linearGradient
       id="linearGradient3185-5"
       y2="-167.53"
       xlink:href="#SVGID_14_"
       gradientUnits="userSpaceOnUse"
       x2="206.69"
       gradientTransform="matrix(.72832 0 0 -.72832 -292.59 -106.29)"
       y1="-167.53"
       x1="206.69" />
    <linearGradient
       id="linearGradient3182-4"
       y2="-167.53"
       xlink:href="#SVGID_14_"
       gradientUnits="userSpaceOnUse"
       x2="206.69"
       gradientTransform="matrix(.72832 0 0 -.72832 -372.59 -105.29)"
       y1="-167.53"
       x1="206.69" />
  </defs>
  <metadata
     id="metadata4066">
    <rdf:RDF>
      <cc:Work
         rdf:about="">
        <dc:format>image/svg+xml</dc:format>
        <dc:type
           rdf:resource="http://purl.org/dc/dcmitype/StillImage" />
        <dc:title />
      </cc:Work>
    </rdf:RDF>
  </metadata>
  <path
     id="path2555-7-2"
     style="color:#000000"
     d="m24 3.5c-11.311 0-20.5 9.189-20.5 20.5s9.189 20.5 20.5 20.5 20.5-9.189 20.5-20.5-9.189-20.5-20.5-20.5z"
     fill="url(#radialGradient3032)" />
  <path
     id="path2555-7-65"
     style="color:#000000"
     d="m24 3.5c-11.311 0-20.5 9.189-20.5 20.5s9.189 20.5 20.5 20.5 20.5-9.189 20.5-20.5-9.189-20.5-20.5-20.5z"
     fill="url(#radialGradient3029)" />
  <path
     id="path4176"
     opacity=".5"
     stroke-linejoin="round"
     style="color:#000000"
     d="m43.5 24c0 10.77-8.73 19.5-19.5 19.5s-19.5-8.73-19.5-19.5 8.73-19.5 19.5-19.5 19.5 8.73 19.5 19.5z"
     stroke="url(#linearGradient3026)"
     stroke-linecap="round"
     fill="none" />
  <path
     id="path2555-7-1-7"
     opacity=".5"
     stroke-linejoin="round"
     style="color:#000000"
     d="m24 3.5001c-11.311 0-20.5 9.1888-20.5 20.5s9.1888 20.5 20.5 20.5 20.5-9.1888 20.5-20.5-9.189-20.5-20.5-20.5z"
     stroke="#980000"
     stroke-linecap="round"
     fill="none" />
  <g
     id="layer2"
     display="none"
     transform="translate(-226.38 -26.326)">
    <rect
       id="rect3745"
       opacity=".9"
       rx="6"
       ry="6"
       height="85"
       filter="url(#filter3174)"
       width="86"
       y="7"
       x="5"
       fill="url(#ButtonShadow)" />
  </g>
  <path
     id="rect3005-5"
     style="color:#000000"
     d="m-94.954 14.303v12h-8l10 10 10-10h-8v-12z"
     fill="#fff" />
  <g
     id="layer2-7"
     display="none"
     transform="translate(-254.51 -17.64)">
    <rect
       id="rect3745-8"
       opacity=".9"
       rx="6"
       ry="6"
       height="85"
       filter="url(#filter3174-6)"
       width="86"
       y="7"
       x="5"
       fill="url(#linearGradient8007)" />
  </g>
  <g
     id="layer2-5"
     display="none"
     transform="translate(-222.88 -25.786)">
    <rect
       id="rect3745-2"
       opacity=".9"
       rx="6"
       ry="6"
       height="85"
       filter="url(#filter3174-3)"
       width="86"
       y="7"
       x="5"
       fill="url(#linearGradient8007)" />
  </g>
  <g
     id="g8855"
     opacity=".15"
     transform="translate(-.27376 .95783)">
    <path
       id="path8857"
       style="enable-background:new"
       d="m38.726 24.249-5.1684-0.78925-3.1211 4.0989-0.87428-5.3483-4.7185-1.8158 4.6281-2.5162 0.20495-5.2211 3.7346 3.7932 4.8451-1.411-2.32 4.8605 2.7895 4.3491z" />
    <path
       id="path8859"
       style="enable-background:new"
       d="m27.263 31.07-3.4064-0.68243-2.1005 2.502-0.52672-3.4366-3.0994-1.3206 3.0808-1.4415 0.18494-3.3181 2.4308 2.5457 3.2137-0.73012-1.5785 3.0149 1.8012 2.8669z" />
    <path
       id="path8861"
       style="enable-background:new"
       d="m15.216 34.406-2.2751-0.90151-1.8191 1.5377 0.12262-2.5255-1.9704-1.3214 2.3509-0.65931 0.60135-2.3544 1.3303 2.118 2.3421-0.13363-1.5287 1.9683 0.84613 2.2718z" />
  </g>
  <g
     id="g8850"
     fill="#fff"
     transform="translate(-.27376 -.042166)">
    <path
       id="path4024"
       style="enable-background:new"
       d="m38.726 24.249-5.1684-0.78925-3.1211 4.0989-0.87428-5.3483-4.7185-1.8158 4.6281-2.5162 0.20495-5.2211 3.7346 3.7932 4.8451-1.411-2.32 4.8605 2.7895 4.3491z" />
    <path
       id="path4026"
       style="enable-background:new"
       d="m27.263 31.07-3.4064-0.68243-2.1005 2.502-0.52672-3.4366-3.0994-1.3206 3.0808-1.4415 0.18494-3.3181 2.4308 2.5457 3.2137-0.73012-1.5785 3.0149 1.8012 2.8669z" />
    <path
       id="path4028"
       style="enable-background:new"
       d="m15.216 34.406-2.2751-0.90151-1.8191 1.5377 0.12262-2.5255-1.9704-1.3214 2.3509-0.65931 0.60135-2.3544 1.3303 2.118 2.3421-0.13363-1.5287 1.9683 0.84613 2.2718z" />
  </g>
</svg>
