<?xml version="1.0" encoding="UTF-8" standalone="no"?>
<!-- Created with Inkscape (http://www.inkscape.org/) -->

<svg
   xmlns:dc="http://purl.org/dc/elements/1.1/"
   xmlns:cc="http://creativecommons.org/ns#"
   xmlns:rdf="http://www.w3.org/1999/02/22-rdf-syntax-ns#"
   xmlns:svg="http://www.w3.org/2000/svg"
   xmlns="http://www.w3.org/2000/svg"
   xmlns:sodipodi="http://sodipodi.sourceforge.net/DTD/sodipodi-0.dtd"
   xmlns:inkscape="http://www.inkscape.org/namespaces/inkscape"
   id="svg3143"
   height="48"
   width="48"
   version="1.1"
   inkscape:version="0.91 r13725"
   sodipodi:docname="wps-office-wpsmain.svg">
  <sodipodi:namedview
     pagecolor="#ffffff"
     bordercolor="#666666"
     borderopacity="1"
     objecttolerance="10"
     gridtolerance="10"
     guidetolerance="10"
     inkscape:pageopacity="0"
     inkscape:pageshadow="2"
     inkscape:window-width="1535"
     inkscape:window-height="876"
     id="namedview38"
     showgrid="false"
     inkscape:zoom="4.9166667"
     inkscape:cx="-10.779661"
     inkscape:cy="24"
     inkscape:window-x="65"
     inkscape:window-y="24"
     inkscape:window-maximized="1"
     inkscape:current-layer="svg3143" />
  <defs
     id="defs3145">
    <radialGradient
       id="radialGradient3030"
       gradientUnits="userSpaceOnUse"
       cy="43.5"
       cx="4.993"
       gradientTransform="matrix(2.0038 0 0 1.4 27.988 -17.4)"
       r="2.5">
      <stop
         id="stop2883"
         stop-color="#181818"
         offset="0" />
      <stop
         id="stop2885"
         stop-color="#181818"
         stop-opacity="0"
         offset="1" />
    </radialGradient>
    <radialGradient
       id="radialGradient3032"
       gradientUnits="userSpaceOnUse"
       cy="43.5"
       cx="4.993"
       gradientTransform="matrix(2.0038 0 0 1.4 -20.012 -104.4)"
       r="2.5">
      <stop
         id="stop2889"
         stop-color="#181818"
         offset="0" />
      <stop
         id="stop2891"
         stop-color="#181818"
         stop-opacity="0"
         offset="1" />
    </radialGradient>
    <linearGradient
       id="linearGradient3034"
       y2="39.999"
       gradientUnits="userSpaceOnUse"
       x2="25.058"
       y1="47.028"
       x1="25.058">
      <stop
         id="stop2895"
         stop-color="#181818"
         stop-opacity="0"
         offset="0" />
      <stop
         id="stop2897"
         stop-color="#181818"
         offset=".5" />
      <stop
         id="stop2899"
         stop-color="#181818"
         stop-opacity="0"
         offset="1" />
    </linearGradient>
    <linearGradient
       id="linearGradient3044"
       y2="43"
       gradientUnits="userSpaceOnUse"
       x2="24"
       gradientTransform="translate(5.3e-6,1)"
       y1="5"
       x1="24">
      <stop
         id="stop3926-7"
         stop-color="#fff"
         offset="0" />
      <stop
         id="stop3928-3"
         stop-color="#fff"
         stop-opacity=".23529"
         offset=".063165" />
      <stop
         id="stop3930-7"
         stop-color="#fff"
         stop-opacity=".15686"
         offset=".95056" />
      <stop
         id="stop3932-1"
         stop-color="#fff"
         stop-opacity=".39216"
         offset="1" />
    </linearGradient>
    <radialGradient
       id="radialGradient3053"
       gradientUnits="userSpaceOnUse"
       cy="9.9941"
       cx="8.2761"
       gradientTransform="matrix(0,6.6678,-8.1859,0,105.88,-59.463)"
       r="12.672">
      <stop
         id="stop3244"
         stop-color="#7ec1f8"
         offset="0" />
      <stop
         id="stop3246"
         stop-color="#4f97e3"
         offset=".26238" />
      <stop
         id="stop3248"
         stop-color="#2674c6"
         offset=".66094" />
      <stop
         id="stop3250"
         stop-color="#0b4169"
         offset="1" />
    </radialGradient>
  </defs>
  <metadata
     id="metadata3148">
    <rdf:RDF>
      <cc:Work
         rdf:about="">
        <dc:format>image/svg+xml</dc:format>
        <dc:type
           rdf:resource="http://purl.org/dc/dcmitype/StillImage" />
        <dc:title />
      </cc:Work>
    </rdf:RDF>
  </metadata>
  <g
     id="g4166"
     transform="translate(0,-1)">
    <rect
       x="4.5"
       y="5.5"
       width="39"
       height="39"
       ry="2"
       rx="2"
       style="color:#000000;fill:url(#radialGradient3053)"
       id="rect5505-21" />
    <rect
       x="5.5"
       y="6.5"
       width="37"
       height="37"
       ry="1"
       rx="1"
       id="rect6741-2"
       style="opacity:0.5;fill:none;stroke:url(#linearGradient3044);stroke-linecap:round;stroke-linejoin:round" />
    <rect
       x="4.5"
       y="5.5"
       width="39"
       height="39"
       ry="2"
       rx="2"
       style="color:#000000;opacity:0.4;fill:none;stroke:#004685;stroke-linecap:round;stroke-linejoin:round"
       id="rect5505-21-1" />
    <g
       transform="matrix(0.83458,0,0,0.80365,7.8456,3.463)"
       id="g4205"
       style="opacity:0.15;fill:none;stroke:#000000;stroke-width:2.44210005">
      <path
         transform="matrix(1.1982,0,0,1.2443,-9.4006,-4.3091)"
         d="M 15.152,15 A 1.1685,1.1252 0 0 0 14,16.141 l 0,17.734 a 1.1685,1.1252 0 0 0 2.094,0.687 L 24,24.676 31.904,34.562 A 1.1685,1.1252 0 0 0 34,33.875 L 34,16.141 A 1.1685,1.1252 0 0 0 32.814,15 a 1.1685,1.1252 0 0 0 -1.15,1.141 l 0,14.429 -6.713,-8.394 a 1.1685,1.1252 0 0 0 -1.013,-0.459 1.1685,1.1252 0 0 0 -0.002,0 1.1685,1.1252 0 0 0 -0.887,0.459 l -6.713,8.392 0,-14.427 A 1.1685,1.1252 0 0 0 15.152,15 Z"
         style="color:#000000;text-indent:0;text-decoration:none;text-decoration-line:none;text-decoration-style:solid;text-decoration-color:#000000;text-transform:none;block-progression:tb;white-space:normal;opacity:1;isolation:auto;mix-blend-mode:normal;solid-color:#000000;fill:none;stroke:#000000;stroke-width:2;stroke-linecap:round;stroke-linejoin:round;color-rendering:auto;image-rendering:auto;shape-rendering:auto"
         id="path4207"
         inkscape:connector-curvature="0" />
    </g>
    <g
       transform="matrix(0.83458,0,0,0.80365,7.8456,3.463)"
       id="g4209"
       style="opacity:0.15;fill:none;stroke:#000000;stroke-width:1.22099996">
      <path
         transform="matrix(1.1982,0,0,1.2443,-9.4006,-4.3091)"
         d="M 15.152,15 A 1.1685,1.1252 0 0 0 14,16.141 l 0,17.734 a 1.1685,1.1252 0 0 0 2.094,0.687 L 24,24.676 31.904,34.562 A 1.1685,1.1252 0 0 0 34,33.875 L 34,16.141 A 1.1685,1.1252 0 0 0 32.814,15 a 1.1685,1.1252 0 0 0 -1.15,1.141 l 0,14.429 -6.713,-8.394 a 1.1685,1.1252 0 0 0 -1.013,-0.459 1.1685,1.1252 0 0 0 -0.002,0 1.1685,1.1252 0 0 0 -0.887,0.459 l -6.713,8.392 0,-14.427 A 1.1685,1.1252 0 0 0 15.152,15 Z"
         style="color:#000000;text-indent:0;text-decoration:none;text-decoration-line:none;text-decoration-style:solid;text-decoration-color:#000000;text-transform:none;block-progression:tb;white-space:normal;opacity:1;isolation:auto;mix-blend-mode:normal;solid-color:#000000;fill:none;stroke:#000000;stroke-width:1;stroke-linecap:round;stroke-linejoin:round;color-rendering:auto;image-rendering:auto;shape-rendering:auto"
         id="path4211"
         inkscape:connector-curvature="0" />
    </g>
    <g
       transform="matrix(0.83458,0,0,0.80365,7.8456,3.463)"
       id="g4260"
       style="stroke:#ffffff">
      <path
         transform="matrix(1.1982,0,0,1.2443,-9.4006,-4.3091)"
         d="M 15.152,15 A 1.1685,1.1252 0 0 0 14,16.141 l 0,17.734 a 1.1685,1.1252 0 0 0 2.094,0.687 L 24,24.676 31.904,34.562 A 1.1685,1.1252 0 0 0 34,33.875 L 34,16.141 A 1.1685,1.1252 0 0 0 32.814,15 a 1.1685,1.1252 0 0 0 -1.15,1.141 l 0,14.429 -6.713,-8.394 a 1.1685,1.1252 0 0 0 -1.013,-0.459 1.1685,1.1252 0 0 0 -0.002,0 1.1685,1.1252 0 0 0 -0.887,0.459 l -6.713,8.392 0,-14.427 A 1.1685,1.1252 0 0 0 15.152,15 Z"
         style="color:#000000;text-indent:0;text-decoration:none;text-decoration-line:none;text-decoration-style:solid;text-decoration-color:#000000;text-transform:none;block-progression:tb;white-space:normal;isolation:auto;mix-blend-mode:normal;solid-color:#000000;fill:#ffffff;fill-rule:evenodd;color-rendering:auto;image-rendering:auto;shape-rendering:auto"
         id="path4262"
         inkscape:connector-curvature="0" />
    </g>
  </g>
</svg>
