<?xml version="1.0" encoding="UTF-8" standalone="no"?>
<!-- Created with Inkscape (http://www.inkscape.org/) -->

<svg
   xmlns:dc="http://purl.org/dc/elements/1.1/"
   xmlns:cc="http://creativecommons.org/ns#"
   xmlns:rdf="http://www.w3.org/1999/02/22-rdf-syntax-ns#"
   xmlns:svg="http://www.w3.org/2000/svg"
   xmlns="http://www.w3.org/2000/svg"
   xmlns:sodipodi="http://sodipodi.sourceforge.net/DTD/sodipodi-0.dtd"
   xmlns:inkscape="http://www.inkscape.org/namespaces/inkscape"
   id="svg4951"
   height="48px"
   width="48px"
   version="1.1"
   inkscape:version="0.91 r13725"
   sodipodi:docname="xbmc.svg">
  <sodipodi:namedview
     pagecolor="#ffffff"
     bordercolor="#666666"
     borderopacity="1"
     objecttolerance="10"
     gridtolerance="10"
     guidetolerance="10"
     inkscape:pageopacity="0"
     inkscape:pageshadow="2"
     inkscape:window-width="1535"
     inkscape:window-height="876"
     id="namedview31"
     showgrid="false"
     inkscape:zoom="4.9166667"
     inkscape:cx="-10.779661"
     inkscape:cy="24"
     inkscape:window-x="65"
     inkscape:window-y="24"
     inkscape:window-maximized="1"
     inkscape:current-layer="svg4951" />
  <defs
     id="defs4953">
    <linearGradient
       id="linearGradient3189"
       y2="40.496"
       gradientUnits="userSpaceOnUse"
       x2="71.204"
       gradientTransform="matrix(1.617,0,0,1.617,-92.707,-21.06)"
       y1="15.369"
       x1="71.204">
      <stop
         id="stop4808-4"
         stop-color="#fff"
         offset="0" />
      <stop
         id="stop4810-0"
         stop-color="#fff"
         stop-opacity=".23529"
         offset=".42448" />
      <stop
         id="stop4812-8"
         stop-color="#fff"
         stop-opacity=".15686"
         offset=".82090" />
      <stop
         id="stop4814-0"
         stop-color="#fff"
         stop-opacity=".39216"
         offset="1" />
    </linearGradient>
    <radialGradient
       id="radialGradient3192"
       gradientUnits="userSpaceOnUse"
       cy="3.99"
       cx="23.896"
       gradientTransform="matrix(0,2.8885,-3.8128,0,39.213,-65.95)"
       r="20.397">
      <stop
         id="stop5352"
         stop-color="#5a7da5"
         offset="0" />
      <stop
         id="stop5354"
         stop-color="#13396b"
         offset="1" />
    </radialGradient>
    <radialGradient
       id="radialGradient3195"
       gradientUnits="userSpaceOnUse"
       cy="186.17"
       cx="99.157"
       gradientTransform="matrix(0.27083,0,0,0.087623,-2.8551,25.187)"
       r="62.769">
      <stop
         id="stop3822-2-6-3"
         stop-color="#3d3d3d"
         offset="0" />
      <stop
         id="stop3864-8-7-7"
         stop-color="#686868"
         stop-opacity=".49804"
         offset=".5" />
      <stop
         id="stop3824-1-2-5"
         stop-color="#686868"
         stop-opacity="0"
         offset="1" />
    </radialGradient>
  </defs>
  <metadata
     id="metadata4956">
    <rdf:RDF>
      <cc:Work
         rdf:about="">
        <dc:format>image/svg+xml</dc:format>
        <dc:type
           rdf:resource="http://purl.org/dc/dcmitype/StillImage" />
        <dc:title />
      </cc:Work>
    </rdf:RDF>
  </metadata>
  <path
     inkscape:connector-curvature="0"
     d="M 24,3.5 C 12.689,3.5 3.5,12.6888 3.5,24 3.5,35.3112 12.6888,44.5 24,44.5 35.3112,44.5 44.5,35.3112 44.5,24 44.5,12.6888 35.311,3.5 24,3.5 Z"
     style="color:#000000;fill:url(#radialGradient3192)"
     id="path2555-7-2" />
  <path
     inkscape:connector-curvature="0"
     d="M 43.5,24 C 43.5,34.77 34.77,43.5 24,43.5 13.23,43.5 4.5,34.77 4.5,24 4.5,13.23 13.23,4.5 24,4.5 34.77,4.5 43.5,13.23 43.5,24 Z"
     style="color:#000000;opacity:0.3;fill:none;stroke:url(#linearGradient3189);stroke-linecap:round;stroke-linejoin:round"
     id="path4176" />
  <path
     inkscape:connector-curvature="0"
     d="M 24,3.5 C 12.689,3.5 3.5,12.689 3.5,24 3.5,35.311 12.689,44.5 24,44.5 35.311,44.5 44.5,35.311 44.5,24 44.5,12.689 35.311,3.5 24,3.5 Z"
     style="color:#000000;opacity:0.7;fill:none;stroke:#203860"
     id="path3871" />
  <g
     transform="translate(-0.19974,0)"
     id="g4376">
    <g
       style="opacity:0.15"
       transform="matrix(0.056535,0,0,0.056535,3.16,13.88)"
       id="g4368">
      <path
         style="fill-rule:evenodd"
         inkscape:connector-curvature="0"
         d="m 661.66,322.61 c 8.2551,-3.7344 16.117,-11.557 23.979,-22.525 -160.38,2.5158 -403.75,2.5158 -618.35,2.1227 0.58965,1.2579 1.2579,2.4765 1.8869,3.7344 l 43.752,0 c 224.38,-0.3931 428.05,-0.3931 548.73,16.707"
         id="path4370" />
      <path
         inkscape:connector-curvature="0"
         d="m 260.3,63.648 -4.6229,31.857 -27.894,0 c -16.95,0 -32.643,6.0066 -47.078,17.988 -3.8052,3.1448 -7.2016,6.4154 -10.221,9.9061 -1.6982,-3.4907 -3.8052,-6.7613 -6.384,-9.9061 -9.8747,-11.982 -23.366,-17.988 -40.316,-17.988 l -36.039,0 c -1.2894,6.7299 0,12.453 3.8052,17.202 3.8367,4.7486 9.0885,7.1702 15.85,7.1702 l 11.793,0 c 10.095,0 17.988,3.6165 23.68,10.912 5.6921,7.2959 7.6104,16.038 5.6921,26.133 -1.9183,10.126 -7.0758,18.743 -15.535,25.945 -8.4595,7.1701 -17.831,10.818 -27.894,10.818 l -11.793,0 c -6.7613,0 -12.925,2.3272 -18.586,7.0758 -5.6606,4.7486 -9.1514,10.441 -10.409,17.202 l 36.165,0 c 16.95,0 32.549,-5.9122 46.983,-17.8 3.7738,-3.1134 7.2016,-6.4468 10.189,-9.9376 1.6982,3.4907 3.8996,6.8242 6.5097,9.9376 9.8747,11.887 23.24,17.8 40.191,17.8 l 36.165,0 c 1.2894,-6.7613 0,-12.453 -3.8366,-17.202 -3.8367,-4.7486 -9.1828,-7.0758 -15.913,-7.0758 l -11.699,0 c -10.126,0 -18.051,-3.648 -23.775,-10.818 -5.755,-7.2016 -7.6733,-15.818 -5.7235,-25.945 1.9183,-10.095 7.1387,-18.837 15.63,-26.133 8.491,-7.2959 17.831,-10.912 27.926,-10.912 l 11.793,0 c 6.5726,0 12.611,-2.3586 18.177,-6.8871 l -6.3839,43.65 c -2.5473,17.234 1.478,31.825 12.17,43.901 10.441,12.265 24.498,18.303 41.48,18.303 17.296,0 33.02,-6.038 47.172,-18.303 14.152,-12.076 22.643,-26.668 25.158,-43.901 2.5158,-17.265 -1.5724,-31.857 -11.95,-43.933 -10.692,-11.982 -24.844,-18.083 -42.14,-18.083 l -36.794,0 0.62896,-4.8115 c 1.2579,-7.1072 -0.31448,-13.334 -5.0317,-18.491 -4.0882,-5.1575 -9.969,-7.6733 -17.139,-7.6733 z m 17.768,55.726 37.109,0 c 10.063,0 18.24,3.5222 24.529,10.818 5.6606,7.2645 7.862,16.227 6.6041,26.448 -1.5724,10.221 -6.2896,18.963 -14.466,26.322 -8.1765,7.4217 -17.296,11.195 -27.674,11.195 -10.378,0 -18.554,-3.7738 -24.529,-11.195 -5.9751,-7.3588 -8.1765,-16.101 -6.9186,-26.322 l 5.3462,-37.266 z"
         id="path4372" />
      <path
         inkscape:connector-curvature="0"
         d="m 442.23,94.624 c -17.296,0 -33.02,6.0695 -46.858,18.177 -14.152,12.296 -22.643,26.857 -25.158,44.122 l -9.1199,61.921 c 7.233,0 13.837,-2.4215 19.498,-7.579 5.9751,-5.0631 9.4344,-11.195 10.378,-18.46 l 5.3462,-35.882 c 1.5724,-10.315 6.2896,-19.152 14.466,-26.636 8.1765,-7.2959 17.611,-10.912 27.674,-10.912 10.378,0 18.554,3.6165 24.529,10.912 5.9751,7.4846 8.1765,16.322 6.6041,26.636 l -5.0317,35.882 c -1.2579,7.1387 0.62896,13.114 5.0317,18.271 4.4027,5.126 10.063,7.7676 17.296,7.7676 l 9.1199,-61.921 c 1.2579,-10.315 6.2896,-19.152 14.466,-26.636 8.1765,-7.2959 17.296,-10.912 27.674,-10.912 10.063,0 18.24,3.6165 24.215,10.912 5.9751,7.4846 8.491,16.322 6.9186,26.636 l -5.3462,35.882 c -0.94344,7.1387 0.62896,13.114 5.0317,18.271 4.4027,5.126 10.063,7.7676 17.296,7.7676 l 4.4027,-28.995 c 1.8869,3.8052 4.0882,7.4217 7.233,10.818 10.692,12.107 24.529,18.177 41.511,18.177 l 36.794,0 c 0.94344,-6.8242 -0.62896,-12.674 -4.7172,-17.517 -4.0882,-4.7801 -9.7489,-7.1702 -16.353,-7.1702 l -11.95,0 c -10.378,0 -18.554,-3.7109 -24.529,-11.007 -6.2896,-7.2645 -8.491,-16.007 -7.233,-26.228 1.5724,-10.315 6.6041,-19.152 14.781,-26.636 8.1765,-7.2959 17.611,-10.912 27.674,-10.912 l 11.95,0 c 6.9186,0 13.208,-2.5473 18.869,-7.3588 5.3462,-4.8116 8.491,-10.504 9.4344,-17.391 l -36.48,0 c -17.296,0 -32.706,6.0695 -46.858,18.177 -6.9186,6.038 -12.579,12.642 -16.667,19.844 -1.8869,-7.233 -5.6606,-13.869 -10.692,-19.844 -10.692,-12.107 -24.529,-18.177 -41.826,-18.177 -9.4344,0 -18.869,2.2328 -28.303,6.5726 -9.4344,4.3398 -17.925,10.158 -24.844,17.8 -5.0317,-7.6419 -11.636,-13.648 -19.498,-17.988 -8.1765,-4.214 -16.982,-6.3839 -26.731,-6.3839 z"
         id="path4374" />
    </g>
    <g
       transform="matrix(0.056535,0,0,0.056535,2.5597,13.08)"
       id="g4172">
      <path
         style="fill:#d9822b;fill-rule:evenodd"
         inkscape:connector-curvature="0"
         d="m 661.66,322.61 c 8.2551,-3.7344 16.117,-11.557 23.979,-22.525 -160.38,2.5158 -403.75,2.5158 -618.35,2.1227 0.58965,1.2579 1.2579,2.4765 1.8869,3.7344 l 43.752,0 c 224.38,-0.3931 428.05,-0.3931 548.73,16.707"
         id="path22" />
      <path
         style="fill:#82c223"
         inkscape:connector-curvature="0"
         d="m 260.3,63.648 -4.6229,31.857 -27.894,0 c -16.95,0 -32.643,6.0066 -47.078,17.988 -3.8052,3.1448 -7.2016,6.4154 -10.221,9.9061 -1.6982,-3.4907 -3.8052,-6.7613 -6.384,-9.9061 -9.8747,-11.982 -23.366,-17.988 -40.316,-17.988 l -36.039,0 c -1.2894,6.7299 0,12.453 3.8052,17.202 3.8367,4.7486 9.0885,7.1702 15.85,7.1702 l 11.793,0 c 10.095,0 17.988,3.6165 23.68,10.912 5.6921,7.2959 7.6104,16.038 5.6921,26.133 -1.9183,10.126 -7.0758,18.743 -15.535,25.945 -8.4595,7.1701 -17.831,10.818 -27.894,10.818 l -11.793,0 c -6.7613,0 -12.925,2.3272 -18.586,7.0758 -5.6606,4.7486 -9.1514,10.441 -10.409,17.202 l 36.165,0 c 16.95,0 32.549,-5.9122 46.983,-17.8 3.7738,-3.1134 7.2016,-6.4468 10.189,-9.9376 1.6982,3.4907 3.8996,6.8242 6.5097,9.9376 9.8747,11.887 23.24,17.8 40.191,17.8 l 36.165,0 c 1.2894,-6.7613 0,-12.453 -3.8366,-17.202 -3.8367,-4.7486 -9.1828,-7.0758 -15.913,-7.0758 l -11.699,0 c -10.126,0 -18.051,-3.648 -23.775,-10.818 -5.755,-7.2016 -7.6733,-15.818 -5.7235,-25.945 1.9183,-10.095 7.1387,-18.837 15.63,-26.133 8.491,-7.2959 17.831,-10.912 27.926,-10.912 l 11.793,0 c 6.5726,0 12.611,-2.3586 18.177,-6.8871 l -6.3839,43.65 c -2.5473,17.234 1.478,31.825 12.17,43.901 10.441,12.265 24.498,18.303 41.48,18.303 17.296,0 33.02,-6.038 47.172,-18.303 14.152,-12.076 22.643,-26.668 25.158,-43.901 2.5158,-17.265 -1.5724,-31.857 -11.95,-43.933 -10.692,-11.982 -24.844,-18.083 -42.14,-18.083 l -36.794,0 0.62896,-4.8115 c 1.2579,-7.1072 -0.31448,-13.334 -5.0317,-18.491 -4.0882,-5.1575 -9.969,-7.6733 -17.139,-7.6733 z m 17.768,55.726 37.109,0 c 10.063,0 18.24,3.5222 24.529,10.818 5.6606,7.2645 7.862,16.227 6.6041,26.448 -1.5724,10.221 -6.2896,18.963 -14.466,26.322 -8.1765,7.4217 -17.296,11.195 -27.674,11.195 -10.378,0 -18.554,-3.7738 -24.529,-11.195 -5.9751,-7.3588 -8.1765,-16.101 -6.9186,-26.322 l 5.3462,-37.266 z"
         id="path46" />
      <path
         style="fill:#bdd1e3"
         inkscape:connector-curvature="0"
         d="m 442.23,94.624 c -17.296,0 -33.02,6.0695 -46.858,18.177 -14.152,12.296 -22.643,26.857 -25.158,44.122 l -9.1199,61.921 c 7.233,0 13.837,-2.4215 19.498,-7.579 5.9751,-5.0631 9.4344,-11.195 10.378,-18.46 l 5.3462,-35.882 c 1.5724,-10.315 6.2896,-19.152 14.466,-26.636 8.1765,-7.2959 17.611,-10.912 27.674,-10.912 10.378,0 18.554,3.6165 24.529,10.912 5.9751,7.4846 8.1765,16.322 6.6041,26.636 l -5.0317,35.882 c -1.2579,7.1387 0.62896,13.114 5.0317,18.271 4.4027,5.126 10.063,7.7676 17.296,7.7676 l 9.1199,-61.921 c 1.2579,-10.315 6.2896,-19.152 14.466,-26.636 8.1765,-7.2959 17.296,-10.912 27.674,-10.912 10.063,0 18.24,3.6165 24.215,10.912 5.9751,7.4846 8.491,16.322 6.9186,26.636 l -5.3462,35.882 c -0.94344,7.1387 0.62896,13.114 5.0317,18.271 4.4027,5.126 10.063,7.7676 17.296,7.7676 l 4.4027,-28.995 c 1.8869,3.8052 4.0882,7.4217 7.233,10.818 10.692,12.107 24.529,18.177 41.511,18.177 l 36.794,0 c 0.94344,-6.8242 -0.62896,-12.674 -4.7172,-17.517 -4.0882,-4.7801 -9.7489,-7.1702 -16.353,-7.1702 l -11.95,0 c -10.378,0 -18.554,-3.7109 -24.529,-11.007 -6.2896,-7.2645 -8.491,-16.007 -7.233,-26.228 1.5724,-10.315 6.6041,-19.152 14.781,-26.636 8.1765,-7.2959 17.611,-10.912 27.674,-10.912 l 11.95,0 c 6.9186,0 13.208,-2.5473 18.869,-7.3588 5.3462,-4.8116 8.491,-10.504 9.4344,-17.391 l -36.48,0 c -17.296,0 -32.706,6.0695 -46.858,18.177 -6.9186,6.038 -12.579,12.642 -16.667,19.844 -1.8869,-7.233 -5.6606,-13.869 -10.692,-19.844 -10.692,-12.107 -24.529,-18.177 -41.826,-18.177 -9.4344,0 -18.869,2.2328 -28.303,6.5726 -9.4344,4.3398 -17.925,10.158 -24.844,17.8 -5.0317,-7.6419 -11.636,-13.648 -19.498,-17.988 -8.1765,-4.214 -16.982,-6.3839 -26.731,-6.3839 z"
         id="path48" />
    </g>
  </g>
</svg>
