<?xml version="1.0" encoding="UTF-8" standalone="no"?>
<!-- Created with Inkscape (http://www.inkscape.org/) -->

<svg
   xmlns:dc="http://purl.org/dc/elements/1.1/"
   xmlns:cc="http://creativecommons.org/ns#"
   xmlns:rdf="http://www.w3.org/1999/02/22-rdf-syntax-ns#"
   xmlns:svg="http://www.w3.org/2000/svg"
   xmlns="http://www.w3.org/2000/svg"
   xmlns:xlink="http://www.w3.org/1999/xlink"
   xmlns:sodipodi="http://sodipodi.sourceforge.net/DTD/sodipodi-0.dtd"
   xmlns:inkscape="http://www.inkscape.org/namespaces/inkscape"
   width="64"
   height="64"
   id="svg5824"
   version="1.1"
   inkscape:version="0.48.1 r9760"
   sodipodi:docname="Nuevo documento 8">
  <defs
     id="defs5826">
    <radialGradient
       inkscape:collect="always"
       xlink:href="#linearGradient6782"
       id="radialGradient4873"
       gradientUnits="userSpaceOnUse"
       gradientTransform="matrix(1.01041,0,0,1.5833576,-3.27732,-103.94435)"
       cx="314.96875"
       cy="182.45779"
       fx="314.96875"
       fy="182.45779"
       r="9.03125" />
    <linearGradient
       id="linearGradient6782">
      <stop
         id="stop6784"
         style="stop-color:#fae751;stop-opacity:1;"
         offset="0" />
      <stop
         id="stop6786"
         style="stop-color:#a5c662;stop-opacity:1;"
         offset="0.69999999" />
      <stop
         id="stop6788"
         style="stop-color:#789d2e;stop-opacity:1;"
         offset="1" />
    </linearGradient>
    <clipPath
       id="clipPath11530">
      <path
         d="m 118.625,209.5 c 2.58333,-0.38773 5.16667,-0.51062 7.75,0.75 0,0 0.28209,5.48132 -1.625,5.625 -2.37827,0.17918 -6.125,-6.375 -6.125,-6.375 z"
         inkscape:connector-curvature="0"
         id="path11532"
         style="fill:none;stroke:#000000;stroke-width:0.0875215;stroke-linecap:butt;stroke-linejoin:miter;stroke-miterlimit:4;stroke-opacity:1;stroke-dasharray:none;stroke-dashoffset:0;marker:none;visibility:visible;display:inline;overflow:visible" />
    </clipPath>
    <linearGradient
       inkscape:collect="always"
       xlink:href="#linearGradient11579"
       id="linearGradient4875"
       gradientUnits="userSpaceOnUse"
       gradientTransform="matrix(0.0875215,0,0,0.0875215,302.93664,165.20034)"
       x1="182.1021"
       y1="187.81308"
       x2="183.49422"
       y2="191.96733" />
    <linearGradient
       id="linearGradient11579">
      <stop
         id="stop11581"
         style="stop-color:#000000;stop-opacity:1"
         offset="0" />
      <stop
         id="stop11583"
         style="stop-color:#000000;stop-opacity:0"
         offset="1" />
    </linearGradient>
    <linearGradient
       inkscape:collect="always"
       xlink:href="#linearGradient11579"
       id="linearGradient4877"
       gradientUnits="userSpaceOnUse"
       gradientTransform="matrix(0.0875215,0,0,0.0875215,302.92809,165.21598)"
       x1="182.1021"
       y1="187.81308"
       x2="183.49422"
       y2="191.96733" />
    <linearGradient
       inkscape:collect="always"
       xlink:href="#linearGradient6499"
       id="linearGradient4879"
       gradientUnits="userSpaceOnUse"
       x1="315.33218"
       y1="186.3179"
       x2="315.33218"
       y2="169.37483" />
    <linearGradient
       id="linearGradient6499">
      <stop
         id="stop6501"
         style="stop-color:#ffffff;stop-opacity:1"
         offset="0" />
      <stop
         id="stop6503"
         style="stop-color:#ffffff;stop-opacity:0;"
         offset="1" />
    </linearGradient>
    <radialGradient
       inkscape:collect="always"
       xlink:href="#linearGradient6537"
       id="radialGradient4881"
       gradientUnits="userSpaceOnUse"
       gradientTransform="matrix(1,0,0,0.654798,0,24.0225)"
       cx="177.5556"
       cy="69.5896"
       fx="177.5556"
       fy="69.5896"
       r="9.4960012" />
    <linearGradient
       id="linearGradient6537">
      <stop
         id="stop6539"
         style="stop-color:#000000;stop-opacity:1"
         offset="0" />
      <stop
         id="stop6541"
         style="stop-color:#000000;stop-opacity:0"
         offset="1" />
    </linearGradient>
    <radialGradient
       inkscape:collect="always"
       xlink:href="#linearGradient6537"
       id="radialGradient4883"
       gradientUnits="userSpaceOnUse"
       gradientTransform="matrix(1,0,0,0.654798,0,24.0225)"
       cx="177.5556"
       cy="69.5896"
       fx="177.5556"
       fy="69.5896"
       r="9.4960012" />
    <radialGradient
       inkscape:collect="always"
       xlink:href="#linearGradient6808"
       id="radialGradient4885"
       gradientUnits="userSpaceOnUse"
       gradientTransform="matrix(0.9215132,0.2781314,-1.3177176,3.5229476,249.73513,-518.24733)"
       cx="318.60828"
       cy="170.59293"
       fx="318.60828"
       fy="170.59293"
       r="0.82419753" />
    <linearGradient
       id="linearGradient6808">
      <stop
         id="stop6810"
         style="stop-color:#244206;stop-opacity:1"
         offset="0" />
      <stop
         id="stop6812"
         style="stop-color:#000000;stop-opacity:1"
         offset="1" />
    </linearGradient>
    <linearGradient
       inkscape:collect="always"
       xlink:href="#linearGradient6597"
       id="linearGradient4887"
       gradientUnits="userSpaceOnUse"
       x1="169.5137"
       y1="55.164879"
       x2="180.91669"
       y2="57.766956" />
    <linearGradient
       id="linearGradient6597">
      <stop
         id="stop6599"
         style="stop-color:#eeeeec;stop-opacity:0"
         offset="0" />
      <stop
         id="stop6605"
         style="stop-color:#ffffff;stop-opacity:1"
         offset="0.52820206" />
      <stop
         id="stop6601"
         style="stop-color:#eeeeec;stop-opacity:0"
         offset="1" />
    </linearGradient>
    <radialGradient
       inkscape:collect="always"
       xlink:href="#linearGradient4008"
       id="radialGradient4889"
       gradientUnits="userSpaceOnUse"
       gradientTransform="matrix(5.5457,0,0,5.2229,-825.952,-246.098)"
       cx="182.12123"
       cy="58.899124"
       fx="182.12123"
       fy="58.899124"
       r="2.3375301" />
    <linearGradient
       id="linearGradient4008">
      <stop
         id="stop4010"
         style="stop-color:#fff9e8;stop-opacity:1"
         offset="0" />
      <stop
         id="stop4012"
         style="stop-color:#a7cc5c;stop-opacity:1"
         offset="1" />
    </linearGradient>
    <radialGradient
       inkscape:collect="always"
       xlink:href="#linearGradient6537"
       id="radialGradient4891"
       gradientUnits="userSpaceOnUse"
       gradientTransform="matrix(1,0,0,0.654798,0,24.0225)"
       cx="177.5556"
       cy="69.5896"
       fx="177.5556"
       fy="69.5896"
       r="9.4960012" />
    <radialGradient
       inkscape:collect="always"
       xlink:href="#linearGradient6537"
       id="radialGradient4893"
       gradientUnits="userSpaceOnUse"
       gradientTransform="matrix(1,0,0,0.654798,0,24.0225)"
       cx="177.5556"
       cy="69.5896"
       fx="177.5556"
       fy="69.5896"
       r="9.4960012" />
    <radialGradient
       inkscape:collect="always"
       xlink:href="#linearGradient6820"
       id="radialGradient4895"
       gradientUnits="userSpaceOnUse"
       gradientTransform="matrix(0.9755308,0.2659644,-1.46191,3.5985779,257.06371,-527.35152)"
       cx="318.60828"
       cy="170.59293"
       fx="318.60828"
       fy="170.59293"
       r="0.82419753" />
    <linearGradient
       id="linearGradient6820">
      <stop
         id="stop6822"
         style="stop-color:#244206;stop-opacity:1"
         offset="0" />
      <stop
         id="stop6824"
         style="stop-color:#000000;stop-opacity:1"
         offset="1" />
    </linearGradient>
    <radialGradient
       inkscape:collect="always"
       xlink:href="#linearGradient6320"
       id="radialGradient4897"
       gradientUnits="userSpaceOnUse"
       gradientTransform="matrix(1.30576,0.343183,-2.81145,10.6971,110.55,-617.947)"
       cx="173.32843"
       cy="58.523705"
       fx="173.32843"
       fy="58.523705"
       r="4.8357935" />
    <linearGradient
       id="linearGradient6320">
      <stop
         id="stop6322"
         style="stop-color:#ffffff;stop-opacity:1"
         offset="0" />
      <stop
         id="stop6324"
         style="stop-color:#ffffff;stop-opacity:0"
         offset="1" />
    </linearGradient>
    <radialGradient
       inkscape:collect="always"
       xlink:href="#linearGradient6814"
       id="radialGradient4899"
       gradientUnits="userSpaceOnUse"
       gradientTransform="matrix(5.5457,0,0,5.2229,-825.952,-246.098)"
       cx="182.12123"
       cy="58.899124"
       fx="182.12123"
       fy="58.899124"
       r="2.3375301" />
    <linearGradient
       id="linearGradient6814">
      <stop
         id="stop6816"
         style="stop-color:#a7cc5c;stop-opacity:1"
         offset="0" />
      <stop
         id="stop6818"
         style="stop-color:#a7cc5c;stop-opacity:0"
         offset="1" />
    </linearGradient>
    <radialGradient
       inkscape:collect="always"
       xlink:href="#linearGradient12297"
       id="radialGradient4901"
       gradientUnits="userSpaceOnUse"
       gradientTransform="matrix(1,0,0,0.492308,0,89.6458)"
       cx="142.75"
       cy="172.86737"
       fx="142.75"
       fy="172.86737"
       r="16.25" />
    <linearGradient
       id="linearGradient12297">
      <stop
         id="stop12299"
         style="stop-color:#fdfcbc;stop-opacity:1"
         offset="0" />
      <stop
         id="stop12301"
         style="stop-color:#fdfcbc;stop-opacity:0"
         offset="1" />
    </linearGradient>
    <radialGradient
       inkscape:collect="always"
       xlink:href="#linearGradient12477"
       id="radialGradient4903"
       gradientUnits="userSpaceOnUse"
       gradientTransform="matrix(0.529412,-2.51372e-7,4.60027e-7,0.7,81.1764,34.5)"
       cx="172.5"
       cy="104.07143"
       fx="172.5"
       fy="104.07143"
       r="8.5" />
    <linearGradient
       id="linearGradient12477">
      <stop
         id="stop12479"
         style="stop-color:#616161;stop-opacity:1"
         offset="0" />
      <stop
         id="stop12481"
         style="stop-color:#000000;stop-opacity:1"
         offset="1" />
    </linearGradient>
    <radialGradient
       inkscape:collect="always"
       xlink:href="#linearGradient12297"
       id="radialGradient4905"
       gradientUnits="userSpaceOnUse"
       gradientTransform="matrix(1,0,0,0.492308,0,89.6458)"
       cx="142.75"
       cy="172.86737"
       fx="142.75"
       fy="172.86737"
       r="16.25" />
    <radialGradient
       inkscape:collect="always"
       xlink:href="#linearGradient12477"
       id="radialGradient4907"
       gradientUnits="userSpaceOnUse"
       gradientTransform="matrix(0.529412,-2.51372e-7,4.60027e-7,0.7,81.1764,34.5)"
       cx="172.5"
       cy="104.07143"
       fx="172.5"
       fy="104.07143"
       r="8.5" />
    <radialGradient
       inkscape:collect="always"
       xlink:href="#linearGradient6537"
       id="radialGradient4909"
       gradientUnits="userSpaceOnUse"
       gradientTransform="matrix(1,0,0,0.654798,0,24.0225)"
       cx="177.5556"
       cy="69.5896"
       fx="177.5556"
       fy="69.5896"
       r="9.4960012" />
    <radialGradient
       inkscape:collect="always"
       xlink:href="#linearGradient6537"
       id="radialGradient4911"
       gradientUnits="userSpaceOnUse"
       gradientTransform="matrix(1,0,0,0.654798,0,24.0225)"
       cx="177.5556"
       cy="69.5896"
       fx="177.5556"
       fy="69.5896"
       r="9.4960012" />
    <radialGradient
       inkscape:collect="always"
       xlink:href="#linearGradient6537"
       id="radialGradient4913"
       gradientUnits="userSpaceOnUse"
       gradientTransform="matrix(1,0,0,0.654798,0,24.0225)"
       cx="177.5556"
       cy="69.5896"
       fx="177.5556"
       fy="69.5896"
       r="9.4960012" />
    <radialGradient
       inkscape:collect="always"
       xlink:href="#linearGradient6537"
       id="radialGradient4915"
       gradientUnits="userSpaceOnUse"
       gradientTransform="matrix(1,0,0,0.654798,0,24.0225)"
       cx="177.5556"
       cy="69.5896"
       fx="177.5556"
       fy="69.5896"
       r="9.4960012" />
    <radialGradient
       r="10.625"
       fy="4.625"
       fx="62.625"
       cy="4.625"
       cx="62.625"
       gradientTransform="matrix(2.9176471,0,0,0.988234,128.71092,257.86302)"
       gradientUnits="userSpaceOnUse"
       id="radialGradient3022"
       xlink:href="#linearGradient8838-5"
       inkscape:collect="always" />
    <linearGradient
       id="linearGradient8838-5">
      <stop
         id="stop8840-0"
         style="stop-color:#000000;stop-opacity:1"
         offset="0" />
      <stop
         id="stop8842-6"
         style="stop-color:#000000;stop-opacity:0"
         offset="1" />
    </linearGradient>
  </defs>
  <sodipodi:namedview
     id="base"
     pagecolor="#ffffff"
     bordercolor="#666666"
     borderopacity="1.0"
     inkscape:pageopacity="0.0"
     inkscape:pageshadow="2"
     inkscape:zoom="11.140625"
     inkscape:cx="32"
     inkscape:cy="32"
     inkscape:document-units="px"
     inkscape:current-layer="layer1"
     showgrid="false"
     fit-margin-top="0"
     fit-margin-left="0"
     fit-margin-right="0"
     fit-margin-bottom="0" />
  <metadata
     id="metadata5829">
    <rdf:RDF>
      <cc:Work
         rdf:about="">
        <dc:format>image/svg+xml</dc:format>
        <dc:type
           rdf:resource="http://purl.org/dc/dcmitype/StillImage" />
        <dc:title></dc:title>
      </cc:Work>
    </rdf:RDF>
  </metadata>
  <g
     inkscape:label="Capa 1"
     inkscape:groupmode="layer"
     id="layer1"
     transform="translate(-279.42856,-208.93361)">
    <path
       inkscape:connector-curvature="0"
       d="m 342.42857,262.43361 c 0,5.79899 -13.87917,10.5 -31,10.5 -17.12082,0 -31,-4.70101 -31,-10.5 0,-5.79899 13.87918,-10.5 31,-10.5 17.12083,0 31,4.70101 31,10.5 l 0,0 z"
       id="path8836-9"
       style="opacity:0.3;fill:url(#radialGradient3022);fill-opacity:1;fill-rule:evenodd;stroke:none;stroke-width:0.99999988;marker:none;visibility:visible;display:inline;overflow:visible;enable-background:new" />
    <g
       style="display:inline;enable-background:new"
       id="g4775"
       transform="matrix(0.96944185,0,0,0.96944185,264.89535,197.59594)">
      <g
         id="g4777"
         transform="matrix(1.9639212,0,0,1.9424365,-705.1461,-274.64491)" />
      <g
         style="opacity:0.24630498"
         id="g4779"
         transform="matrix(4.5089271,0,0,5.5666383,-1390.9247,-930.83207)" />
      <path
         style="fill:url(#radialGradient4873);fill-opacity:1;fill-rule:nonzero;stroke:#42770c;stroke-width:0.33388636;stroke-linecap:round;stroke-linejoin:round;stroke-miterlimit:4;stroke-opacity:1;stroke-dasharray:none;stroke-dashoffset:0;marker:none;visibility:visible;display:inline;overflow:visible"
         id="path4781"
         transform="matrix(3.0894383,0,0,-3.0894383,-925.07651,596.1516)"
         d="m 323.5,177.84375 a 8.53125,8.53125 0 1 1 -17.0625,0 8.53125,8.53125 0 1 1 17.0625,0 z"
         inkscape:connector-curvature="0" />
      <g
         id="g4783"
         transform="matrix(1.2857143,0,0,1.2857143,16.12281,16.014879)">
        <g
           id="g4785"
           transform="matrix(-6.3250506,5.4648949,5.4648949,6.3250506,1037.8937,-2858.9753)">
          <g
             id="g4787"
             transform="matrix(-0.820668,0.571405,0.571405,0.820668,471.332,-148.098)">
            <path
               style="fill:#a4ac9b;fill-opacity:1;fill-rule:nonzero;stroke:none;stroke-width:5;marker:none;visibility:visible;display:inline;overflow:visible"
               id="path4789"
               inkscape:connector-curvature="0"
               d="m 313.21176,183.47929 c 0.22609,-0.0339 0.45219,-0.0447 0.67829,0.0657 0,0 0.0247,0.47973 -0.14223,0.4923 -0.20815,0.0157 -0.53606,-0.55795 -0.53606,-0.55795 z" />
            <path
               style="opacity:0.6;fill:none;stroke:#000000;stroke-width:1.09665382;stroke-linecap:butt;stroke-linejoin:miter;stroke-miterlimit:4;stroke-opacity:1;stroke-dasharray:none;stroke-dashoffset:0;marker:none;visibility:visible;display:inline;overflow:visible"
               id="path4791"
               clip-path="url(#clipPath11530)"
               transform="matrix(0.0875215,0,0,0.0875215,302.82958,165.14354)"
               inkscape:connector-curvature="0"
               d="m 118.625,209.5 c 2.58333,-0.38773 5.16667,-0.51062 7.75,0.75 0,0 0.28209,5.48132 -1.625,5.625 -2.37827,0.17918 -6.125,-6.375 -6.125,-6.375 z" />
            <path
               style="fill:#ffffff;fill-opacity:1;fill-rule:nonzero;stroke:none;stroke-width:1;marker:none;visibility:visible;display:inline;overflow:visible"
               id="path4793"
               inkscape:connector-curvature="0"
               d="m 313.70406,183.94972 c -0.15838,-0.088 -0.27148,-0.2666 -0.37196,-0.47043 l 0.22974,-0.0109 c 2.9e-4,0.17617 0.0545,0.33435 0.14222,0.48137 z" />
          </g>
          <path
             style="opacity:0.5;fill:url(#linearGradient4875);fill-opacity:1;fill-rule:nonzero;stroke:none;stroke-width:1;marker:none;visibility:visible;display:inline;overflow:visible"
             id="path4795"
             inkscape:connector-curvature="0"
             d="m 318.6134,181.89137 0.13151,0.18179 c 0.11446,-0.37326 0.24526,-0.49053 0.39066,-0.37905 l -0.004,-0.25142 c -0.18429,0.10922 -0.37372,0.20049 -0.5183,0.44868 z" />
        </g>
        <g
           id="g4797"
           transform="matrix(6.2400607,5.0819736,-5.0819736,6.2400607,-1030.7704,-2721.3999)">
          <g
             id="g4799"
             transform="matrix(-0.820668,0.571405,0.571405,0.820668,471.332,-148.098)">
            <path
               style="fill:#a4ac9b;fill-opacity:1;fill-rule:nonzero;stroke:none;stroke-width:5;marker:none;visibility:visible;display:inline;overflow:visible"
               id="path4801"
               inkscape:connector-curvature="0"
               d="m 313.2277,183.48724 c 0.22609,-0.0339 0.45219,-0.0447 0.67829,0.0656 0,0 0.0247,0.47973 -0.14223,0.4923 -0.20815,0.0157 -0.53606,-0.55795 -0.53606,-0.55795 z" />
            <path
               style="opacity:0.6;fill:none;stroke:#000000;stroke-width:1.13906765;stroke-linecap:butt;stroke-linejoin:miter;stroke-miterlimit:4;stroke-opacity:1;stroke-dasharray:none;stroke-dashoffset:0;marker:none;visibility:visible;display:inline;overflow:visible"
               id="path4803"
               clip-path="url(#clipPath11530)"
               transform="matrix(0.0875215,0,0,0.0875215,302.84552,165.15149)"
               inkscape:connector-curvature="0"
               d="m 118.625,209.5 c 2.58333,-0.38773 5.16667,-0.51062 7.75,0.75 0,0 0.28209,5.48132 -1.625,5.625 -2.37827,0.17918 -6.125,-6.375 -6.125,-6.375 z" />
            <path
               style="fill:#ffffff;fill-opacity:1;fill-rule:nonzero;stroke:none;stroke-width:1;marker:none;visibility:visible;display:inline;overflow:visible"
               id="path4805"
               inkscape:connector-curvature="0"
               d="m 313.72,183.95767 c -0.15838,-0.088 -0.27148,-0.2666 -0.37196,-0.47043 l 0.22974,-0.0109 c 2.9e-4,0.17617 0.0545,0.33435 0.14222,0.48137 z" />
          </g>
          <path
             style="opacity:0.5;fill:url(#linearGradient4877);fill-opacity:1;fill-rule:nonzero;stroke:none;stroke-width:1;marker:none;visibility:visible;display:inline;overflow:visible"
             id="path4807"
             inkscape:connector-curvature="0"
             d="m 318.60485,181.90701 0.13151,0.1818 c 0.11446,-0.37327 0.24526,-0.49054 0.39067,-0.37906 l -0.004,-0.25142 c -0.18429,0.10923 -0.37372,0.20049 -0.51831,0.44868 z" />
        </g>
      </g>
      <path
         style="fill:none;stroke:#000000;stroke-width:1.03203678;stroke-linecap:butt;stroke-linejoin:miter;stroke-miterlimit:4;stroke-opacity:1;stroke-dasharray:none"
         id="path4809"
         inkscape:connector-curvature="0"
         d="m 25.204699,57.642554 45.642544,0" />
      <path
         transform="matrix(3.0407028,0,0,-3.0407028,-909.72951,587.50603)"
         d="m 314.96875,169.5 c -4.61781,0 -8.34375,3.72594 -8.34375,8.34375 0,4.61781 3.72594,8.34375 8.34375,8.34375 4.61781,0 8.34375,-3.72594 8.34375,-8.34375 0,-4.61781 -3.72594,-8.34375 -8.34375,-8.34375 z"
         id="path4811"
         style="opacity:0.85;fill:none;stroke:url(#linearGradient4879);stroke-width:0.33923781;stroke-linecap:round;stroke-linejoin:round;stroke-miterlimit:4;stroke-opacity:1;stroke-dasharray:none;stroke-dashoffset:0;marker:none;visibility:visible;display:inline;overflow:visible"
         inkscape:original="M 314.96875 169.4375 C 310.32124 169.4375 306.5625 173.19624 306.5625 177.84375 C 306.5625 182.49126 310.32124 186.25 314.96875 186.25 C 319.61626 186.25 323.375 182.49126 323.375 177.84375 C 323.375 173.19624 319.61626 169.4375 314.96875 169.4375 z "
         inkscape:radius="-0.055082489"
         sodipodi:type="inkscape:offset" />
      <g
         style="display:inline"
         id="g4813"
         transform="matrix(-4.1673404,2.1084133,2.1084133,4.1673404,994.95756,-1354.1937)">
        <g
           id="g4815"
           transform="translate(-0.038229,-0.1623)">
          <path
             style="fill:url(#radialGradient4881);fill-opacity:1;fill-rule:nonzero;stroke:none;stroke-width:1;marker:none;visibility:visible;display:inline;overflow:visible"
             id="path4817"
             transform="matrix(0.08349323,0.02755453,-0.03453944,0.08152897,305.81145,160.84909)"
             d="m 187.0516,69.5896 a 9.4960012,6.2179646 0 1 1 -18.992,0 9.4960012,6.2179646 0 1 1 18.992,0 z"
             inkscape:connector-curvature="0" />
          <path
             style="opacity:0.60395998;fill:url(#radialGradient4883);fill-opacity:1;fill-rule:nonzero;stroke:none;stroke-width:1;marker:none;visibility:visible;display:inline;overflow:visible"
             id="path4819"
             transform="matrix(0.1027214,0.03699095,-0.04281278,0.1085284,303.09392,157.37857)"
             d="m 187.0516,69.5896 a 9.4960012,6.2179646 0 1 1 -18.992,0 9.4960012,6.2179646 0 1 1 18.992,0 z"
             inkscape:connector-curvature="0" />
        </g>
        <path
           style="fill:url(#radialGradient4885);fill-opacity:1;fill-rule:nonzero;stroke:none;stroke-width:0.22086616;marker:none;visibility:visible;display:inline;overflow:visible"
           id="path4821"
           inkscape:connector-curvature="0"
           d="m 317.56868,170.64923 c -0.50716,0.60775 0.94601,1.4143 1.34518,0.64672 0.44663,-0.85884 -0.0474,-2.02942 -0.56597,-2.54579 -0.11396,-0.11371 -0.36282,0.013 -0.33031,0.15591 0.1368,0.60141 -0.11676,1.34518 -0.4489,1.74316 z" />
        <path
           style="opacity:0.5;fill:url(#linearGradient4887);fill-opacity:1;fill-rule:nonzero;stroke:none;stroke-width:1;marker:none;visibility:visible;display:inline;overflow:visible"
           id="path4823"
           transform="matrix(0.08586584,-0.00220027,-0.00220027,0.08263014,303.25157,166.04882)"
           inkscape:connector-curvature="0"
           d="m 174.77724,40.6145 c 0.70089,7.224853 0.0346,13.617072 -5.26353,23.170447 1.29167,2.459055 2.65061,4.881692 6.54732,5.930312 5.59619,-12.023014 2.73915,-21.291555 -1.28379,-29.100759 z" />
        <path
           style="opacity:0.3;fill:url(#radialGradient4889);fill-opacity:1;fill-rule:nonzero;stroke:none;stroke-width:1;marker:none;visibility:visible;display:inline;overflow:visible"
           id="path4825"
           transform="matrix(0.08586584,-0.00220027,-0.00220027,0.08263014,303.31021,166.05581)"
           inkscape:connector-curvature="0"
           d="m 180.62153,46.373452 c 4.51286,9.999051 5.00169,18.586203 -1.25934,23.80693 1.60337,-8.459106 3.20867,-16.791152 1.25934,-23.80693 z" />
      </g>
      <g
         style="display:inline"
         id="g4827"
         transform="matrix(4.1954244,1.7411202,-1.7411202,4.1954244,-970.3241,-1241.5504)">
        <g
           id="g4829"
           transform="translate(-0.038229,-0.1623)">
          <path
             style="fill:url(#radialGradient4891);fill-opacity:1;fill-rule:nonzero;stroke:none;stroke-width:1;marker:none;visibility:visible;display:inline;overflow:visible"
             id="path4831"
             transform="matrix(0.08207133,0.03209209,-0.03002257,0.08300587,305.57563,159.7882)"
             d="m 187.0516,69.5896 a 9.4960012,6.2179646 0 1 1 -18.992,0 9.4960012,6.2179646 0 1 1 18.992,0 z"
             inkscape:connector-curvature="0" />
          <path
             style="opacity:0.60395998;fill:url(#radialGradient4893);fill-opacity:1;fill-rule:nonzero;stroke:none;stroke-width:1;marker:none;visibility:visible;display:inline;overflow:visible"
             id="path4833"
             transform="matrix(0.1048998,0.04088923,-0.0408339,0.1120144,302.4214,156.37649)"
             d="m 187.0516,69.5896 a 9.4960012,6.2179646 0 1 1 -18.992,0 9.4960012,6.2179646 0 1 1 18.992,0 z"
             inkscape:connector-curvature="0" />
        </g>
        <path
           style="fill:url(#radialGradient4895);fill-opacity:1;fill-rule:nonzero;stroke:none;stroke-width:0.22708903;marker:none;visibility:visible;display:inline;overflow:visible"
           id="path4835"
           inkscape:connector-curvature="0"
           d="m 317.45948,170.57723 c -0.5499,0.62574 0.98217,1.41858 1.41991,0.63253 0.48978,-0.87949 -0.0158,-2.05871 -0.55861,-2.5736 -0.11928,-0.11337 -0.38617,0.0197 -0.35403,0.16407 0.13528,0.60793 -0.14716,1.36724 -0.50727,1.777 z" />
        <path
           style="opacity:0.5;fill:url(#radialGradient4897);fill-opacity:1;fill-rule:nonzero;stroke:none;stroke-width:1;marker:none;visibility:visible;display:inline;overflow:visible"
           id="path4837"
           transform="matrix(0.09137928,-0.00375159,-0.00375159,0.08389633,302.30788,166.16171)"
           inkscape:connector-curvature="0"
           d="m 174.77724,40.6145 c 0.70089,7.224853 0.0346,13.617072 -5.26353,23.170447 1.29167,2.459055 2.65061,4.881692 6.54732,5.930312 5.59619,-12.023014 2.73915,-21.291555 -1.28379,-29.100759 z" />
        <path
           style="opacity:0.3;fill:url(#radialGradient4899);fill-opacity:1;fill-rule:nonzero;stroke:none;stroke-width:1;marker:none;visibility:visible;display:inline;overflow:visible"
           id="path4839"
           transform="matrix(0.09137928,-0.00375159,-0.00375159,0.08389633,302.37014,166.16777)"
           inkscape:connector-curvature="0"
           d="m 180.62153,46.373452 c 4.51286,9.999051 5.00169,18.586203 -1.25934,23.80693 1.60337,-8.459106 3.20867,-16.791152 1.25934,-23.80693 z" />
      </g>
      <path
         style="fill:url(#radialGradient4901);fill-opacity:1;fill-rule:evenodd;stroke:none;display:inline"
         id="path4841"
         transform="matrix(0.19780226,0,0,-0.1663848,34.549441,79.923219)"
         inkscape:connector-curvature="0"
         d="m 126.5,187 c 0,0 2.21085,-41.34679 15.5,-41.5 13.73126,-0.15831 17,42.5 17,42.5 -15.30721,-21.80794 -23.64549,-10.16504 -32.5,-1 z" />
      <g
         id="g4843"
         transform="matrix(1.2857143,0,0,1.2857143,32.584546,32.350265)">
        <g
           id="g4845"
           transform="matrix(0.300126,0,0,0.1287939,-28.672113,-2.6773104)">
          <path
             style="fill:url(#radialGradient4903);fill-opacity:1;fill-rule:nonzero;stroke:none;stroke-width:1;marker:none;visibility:visible;display:inline;overflow:visible"
             id="path4847"
             transform="matrix(0.9799806,0,0,1.1418151,4.7533844,-19.895539)"
             d="m 181,115 a 8.5,17 0 1 1 -17,0 8.5,17 0 1 1 17,0 z"
             inkscape:connector-curvature="0" />
        </g>
        <path
           style="fill:#eeeeec;fill-opacity:1;fill-rule:nonzero;stroke:none;stroke-width:1;marker:none;visibility:visible;display:inline;overflow:visible"
           id="path4849"
           transform="matrix(1.1401677,0,0,1.1291879,-348.81058,-54.748133)"
           d="m 326.9375,57.59375 a 0.40625,0.40625 0 1 1 -0.8125,0 0.40625,0.40625 0 1 1 0.8125,0 z"
           inkscape:connector-curvature="0" />
      </g>
      <path
         style="fill:url(#radialGradient4905);fill-opacity:1;fill-rule:evenodd;stroke:none;display:inline"
         id="path4851"
         transform="matrix(0.19780226,0,0,-0.1663848,4.978013,79.923219)"
         inkscape:connector-curvature="0"
         d="m 126.5,187 c 0,0 2.21085,-41.34679 15.5,-41.5 13.73126,-0.15831 17,42.5 17,42.5 -15.30721,-21.80794 -23.64549,-10.16504 -32.5,-1 z" />
      <g
         id="g4853"
         transform="matrix(1.2857143,0,0,1.2857143,1.7166354,32.350265)">
        <g
           id="g4855"
           transform="matrix(0.300126,0,0,0.1287939,-28.672113,-2.6773104)">
          <path
             style="fill:url(#radialGradient4907);fill-opacity:1;fill-rule:nonzero;stroke:none;stroke-width:1;marker:none;visibility:visible;display:inline;overflow:visible"
             id="path4857"
             transform="matrix(0.9799806,0,0,1.1418151,8.1132233,-19.895539)"
             d="m 181,115 a 8.5,17 0 1 1 -17,0 8.5,17 0 1 1 17,0 z"
             inkscape:connector-curvature="0" />
        </g>
        <path
           style="fill:#eeeeec;fill-opacity:1;fill-rule:nonzero;stroke:none;stroke-width:1;marker:none;visibility:visible;display:inline;overflow:visible"
           id="path4859"
           transform="matrix(1.1401677,0,0,1.1291879,-347.80221,-54.748133)"
           d="m 326.9375,57.59375 a 0.40625,0.40625 0 1 1 -0.8125,0 0.40625,0.40625 0 1 1 0.8125,0 z"
           inkscape:connector-curvature="0" />
      </g>
      <g
         id="g4861"
         transform="matrix(-4.1673404,2.1084133,2.1084133,4.1673404,994.77468,-1354.9507)">
        <path
           style="fill:url(#radialGradient4909);fill-opacity:1;fill-rule:nonzero;stroke:none;stroke-width:1;marker:none;visibility:visible;display:inline;overflow:visible"
           id="path4863"
           transform="matrix(0.08349323,0.02755453,-0.03453944,0.08152897,305.81145,160.84909)"
           d="m 187.0516,69.5896 a 9.4960012,6.2179646 0 1 1 -18.992,0 9.4960012,6.2179646 0 1 1 18.992,0 z"
           inkscape:connector-curvature="0" />
        <path
           style="opacity:0.60395998;fill:url(#radialGradient4911);fill-opacity:1;fill-rule:nonzero;stroke:none;stroke-width:1;marker:none;visibility:visible;display:inline;overflow:visible"
           id="path4865"
           transform="matrix(0.1027214,0.03699095,-0.04281278,0.1085284,303.09392,157.37857)"
           d="m 187.0516,69.5896 a 9.4960012,6.2179646 0 1 1 -18.992,0 9.4960012,6.2179646 0 1 1 18.992,0 z"
           inkscape:connector-curvature="0" />
      </g>
      <g
         id="g4867"
         transform="matrix(4.1954244,1.7411202,-1.7411202,4.1954244,-970.2019,-1242.2979)">
        <path
           style="fill:url(#radialGradient4913);fill-opacity:1;fill-rule:nonzero;stroke:none;stroke-width:1;marker:none;visibility:visible;display:inline;overflow:visible"
           id="path4869"
           transform="matrix(0.08207133,0.03209209,-0.03002257,0.08300587,305.57563,159.7882)"
           d="m 187.0516,69.5896 a 9.4960012,6.2179646 0 1 1 -18.992,0 9.4960012,6.2179646 0 1 1 18.992,0 z"
           inkscape:connector-curvature="0" />
        <path
           style="opacity:0.60395998;fill:url(#radialGradient4915);fill-opacity:1;fill-rule:nonzero;stroke:none;stroke-width:1;marker:none;visibility:visible;display:inline;overflow:visible"
           id="path4871"
           transform="matrix(0.1048998,0.04088923,-0.0408339,0.1120144,302.4214,156.37649)"
           d="m 187.0516,69.5896 a 9.4960012,6.2179646 0 1 1 -18.992,0 9.4960012,6.2179646 0 1 1 18.992,0 z"
           inkscape:connector-curvature="0" />
      </g>
    </g>
  </g>
</svg>
