<?xml version="1.0" encoding="UTF-8" standalone="no"?>
<svg
   xmlns:dc="http://purl.org/dc/elements/1.1/"
   xmlns:cc="http://creativecommons.org/ns#"
   xmlns:rdf="http://www.w3.org/1999/02/22-rdf-syntax-ns#"
   xmlns:svg="http://www.w3.org/2000/svg"
   xmlns="http://www.w3.org/2000/svg"
   xmlns:xlink="http://www.w3.org/1999/xlink"
   version="1.1"
   id="svg2"
   height="64"
   width="64">
  <defs
     id="defs4">
    <linearGradient
       id="linearGradient4265">
      <stop
         style="stop-color:#ffffff;stop-opacity:1;"
         offset="0"
         id="stop4267" />
      <stop
         id="stop4269"
         offset="0.22222222"
         style="stop-color:#ffffff;stop-opacity:0.23529412;" />
      <stop
         id="stop4271"
         offset="0.77777779"
         style="stop-color:#ffffff;stop-opacity:0.15686275;" />
      <stop
         style="stop-color:#ffffff;stop-opacity:0.39215687;"
         offset="1"
         id="stop4273" />
    </linearGradient>
    <linearGradient
       id="linearGradient4238">
      <stop
         id="stop4240"
         offset="0"
         style="stop-color:#fde289;stop-opacity:1" />
      <stop
         id="stop4242"
         offset="1"
         style="stop-color:#f2b035;stop-opacity:1" />
    </linearGradient>
    <linearGradient
       id="linearGradient4217">
      <stop
         id="stop4219"
         offset="0"
         style="stop-color:#c8c8c8;stop-opacity:1;" />
      <stop
         id="stop4221"
         offset="1"
         style="stop-color:#a5a5a5;stop-opacity:1" />
    </linearGradient>
    <linearGradient
       id="linearGradient4338">
      <stop
         id="stop4340"
         offset="0"
         style="stop-color:#be5ac8;stop-opacity:1" />
      <stop
         id="stop4342"
         offset="1"
         style="stop-color:#5a326e;stop-opacity:1" />
    </linearGradient>
    <linearGradient
       id="linearGradient3796">
      <stop
         id="stop3798"
         offset="0"
         style="stop-color:#000000;stop-opacity:1;" />
      <stop
         id="stop3800"
         offset="1"
         style="stop-color:#000000;stop-opacity:0;" />
    </linearGradient>
    <linearGradient
       id="linearGradient3767">
      <stop
         id="stop3769"
         offset="0"
         style="stop-color:#ffffff;stop-opacity:1;" />
      <stop
         style="stop-color:#ffffff;stop-opacity:0.23529412;"
         offset="0.08994294"
         id="stop3777" />
      <stop
         style="stop-color:#ffffff;stop-opacity:0.15686275;"
         offset="0.87385589"
         id="stop3775" />
      <stop
         id="stop3771"
         offset="1"
         style="stop-color:#ffffff;stop-opacity:0.39215687;" />
    </linearGradient>
    <radialGradient
       gradientTransform="matrix(1.3198722e-8,1.8493312,-1.3583557,0,54.44806,-41.565401)"
       gradientUnits="userSpaceOnUse"
       r="28"
       fy="16.101473"
       fx="29.309135"
       cy="16.101473"
       cx="29.309135"
       id="radialGradient3791"
       xlink:href="#linearGradient4338" />
    <radialGradient
       gradientUnits="userSpaceOnUse"
       gradientTransform="matrix(1,0,0,0.3125,0,718.34275)"
       r="24"
       fy="1044.8622"
       fx="32"
       cy="1044.8622"
       cx="32"
       id="radialGradient3802"
       xlink:href="#linearGradient3796" />
    <linearGradient
       gradientUnits="userSpaceOnUse"
       y2="60.501682"
       x2="26.386984"
       y1="3.548188"
       x1="26.386984"
       id="linearGradient3814"
       xlink:href="#linearGradient3767" />
    <linearGradient
       gradientUnits="userSpaceOnUse"
       y2="44"
       x2="25"
       y1="24"
       x1="25"
       id="linearGradient4223"
       xlink:href="#linearGradient4217" />
    <linearGradient
       gradientTransform="translate(24.5,978.86216)"
       gradientUnits="userSpaceOnUse"
       y2="64"
       x2="7"
       y1="19"
       x1="7"
       id="linearGradient4236"
       xlink:href="#linearGradient3767" />
    <linearGradient
       gradientUnits="userSpaceOnUse"
       y2="54"
       x2="30"
       y1="9"
       x1="30"
       id="linearGradient4244"
       xlink:href="#linearGradient4238" />
    <linearGradient
       gradientUnits="userSpaceOnUse"
       y2="54"
       x2="35"
       y1="9"
       x1="35"
       id="linearGradient4263"
       xlink:href="#linearGradient4265" />
  </defs>
  <metadata
     id="metadata7">
    <rdf:RDF>
      <cc:Work
         rdf:about="">
        <dc:format>image/svg+xml</dc:format>
        <dc:type
           rdf:resource="http://purl.org/dc/dcmitype/StillImage" />
        <dc:title />
      </cc:Work>
    </rdf:RDF>
  </metadata>
  <g
     transform="translate(0,-988.36218)"
     id="layer1">
    <rect
       y="1037.3622"
       x="8"
       height="15"
       width="48"
       id="rect3793"
       style="fill:url(#radialGradient3802);fill-opacity:1;stroke:none;opacity:0.4" />
    <path
       transform="matrix(1.0535714,0,0,1.0535714,-1.827168,986.64796)"
       d="m 60.107143,32 a 28,28 0 0 1 -28,28 A 28,28 0 0 1 4.1071434,32 28,28 0 0 1 32.107143,4 a 28,28 0 0 1 28,28 z"
       id="path3013"
       style="opacity:1;fill:url(#radialGradient3791);fill-opacity:1;stroke:none" />
    <path
       style="opacity:0.6;fill:none;fill-opacity:1;stroke:#320028;stroke-opacity:1;stroke-width:0.94915257;stroke-miterlimit:4;stroke-dasharray:none"
       id="path3015"
       d="m 60.107143,32 a 28,28 0 0 1 -28,28 A 28,28 0 0 1 4.1071434,32 28,28 0 0 1 32.107143,4 a 28,28 0 0 1 28,28 z"
       transform="matrix(1.0535714,0,0,1.0535714,-1.827168,986.64796)" />
    <path
       style="fill:none;fill-opacity:1;stroke:url(#linearGradient3814);stroke-opacity:1;stroke-width:0.98245609;stroke-miterlimit:4;stroke-dasharray:none;opacity:0.4"
       id="path3804"
       d="m 60.107143,32 a 28,28 0 0 1 -28,28 A 28,28 0 0 1 4.1071434,32 28,28 0 0 1 32.107143,4 a 28,28 0 0 1 28,28 z"
       transform="matrix(1.0178572,0,0,1.0178572,-0.68048706,987.79081)" />
    <path
       id="path4201"
       transform="translate(0,988.36218)"
       d="M 32 8.5 A 23.5 23.5 0 0 0 8.5 32 A 23.5 23.5 0 0 0 32 55.5 A 23.5 23.5 0 0 0 55.5 32 A 23.5 23.5 0 0 0 32 8.5 z M 32 16.5 A 15.5 15.5 0 0 1 47.5 32 A 15.5 15.5 0 0 1 32 47.5 A 15.5 15.5 0 0 1 16.5 32 A 15.5 15.5 0 0 1 32 16.5 z "
       style="opacity:1;fill:url(#linearGradient4223);fill-opacity:1;stroke:none" />
    <path
       style="opacity:0.3;fill:none;fill-opacity:1;stroke:#000000;stroke-opacity:1"
       d="M 32 8.5 A 23.5 23.5 0 0 0 8.5 32 A 23.5 23.5 0 0 0 32 55.5 A 23.5 23.5 0 0 0 55.5 32 A 23.5 23.5 0 0 0 32 8.5 z M 32 16.5 A 15.5 15.5 0 0 1 47.5 32 A 15.5 15.5 0 0 1 32 47.5 A 15.5 15.5 0 0 1 16.5 32 A 15.5 15.5 0 0 1 32 16.5 z "
       transform="translate(0,988.36218)"
       id="path4215" />
    <path
       id="path4225"
       d="m 32,997.86218 a 22.5,22.5 0 0 0 -22.5,22.50002 22.5,22.5 0 0 0 22.5,22.5 22.5,22.5 0 0 0 22.5,-22.5 A 22.5,22.5 0 0 0 32,997.86218 Z m 0,6.00002 a 16.5,16.5 0 0 1 16.5,16.5 16.5,16.5 0 0 1 -16.5,16.5 16.5,16.5 0 0 1 -16.5,-16.5 16.5,16.5 0 0 1 16.5,-16.5 z"
       style="opacity:0.5;fill:none;fill-opacity:1;stroke:url(#linearGradient4236);stroke-width:1;stroke-linecap:butt;stroke-linejoin:round;stroke-miterlimit:4;stroke-dasharray:none;stroke-opacity:1" />
    <path
       id="circle4209"
       transform="translate(0,988.36218)"
       d="M 32.34375 8.5019531 A 23.5 23.5 0 0 0 15.382812 15.382812 L 9.5 9.5 L 9.5 28.5 L 28.5 28.5 L 21.039062 21.039062 A 15.5 15.5 0 0 1 37.931641 17.679688 A 15.5 15.5 0 0 1 47.5 32 A 15.5 15.5 0 0 1 37.931641 46.320312 A 15.5 15.5 0 0 1 21.039062 42.960938 L 15.382812 48.617188 A 23.5 23.5 0 0 0 40.992188 53.710938 A 23.5 23.5 0 0 0 55.5 32 A 23.5 23.5 0 0 0 40.992188 10.289062 A 23.5 23.5 0 0 0 32.34375 8.5019531 z "
       style="opacity:1;fill:url(#linearGradient4244);fill-opacity:1;stroke:none" />
    <path
       id="path4248"
       transform="translate(0,988.36218)"
       d="m 32.064453,9.5 c -0.26958,-9.381e-4 -0.539155,0.00297 -0.808594,0.011719 C 26.030635,9.6885454 21.03009,11.67951 17.113281,15.142578 L 17,15 l -1.5,1.5 -5,-5 0,16 16,0 L 19.834,20.934 21,20 20.958984,19.738281 c 6.605755,-5.947675 16.735795,-5.593599 22.910157,0.800781 6.173333,6.393671 6.173333,16.528205 0,22.921876 -6.174362,6.39438 -16.304402,6.748456 -22.910157,0.800781 l -4.013672,4.458984 c 9.007676,8.109937 22.820703,7.627193 31.240235,-1.091797 8.418638,-8.718733 8.418638,-22.539079 0,-31.257812 C 43.961263,11.996178 38.145913,9.5175737 32.064453,9.5 Z"
       style="opacity:0.4;fill:none;fill-opacity:1;stroke:url(#linearGradient4263)" />
    <path
       style="opacity:0.6;fill:none;fill-opacity:1;stroke:#965a0a;stroke-opacity:1"
       d="M 32.34375 8.5019531 A 23.5 23.5 0 0 0 15.382812 15.382812 L 9.5 9.5 L 9.5 28.5 L 28.5 28.5 L 21.039062 21.039062 A 15.5 15.5 0 0 1 37.931641 17.679688 A 15.5 15.5 0 0 1 47.5 32 A 15.5 15.5 0 0 1 37.931641 46.320312 A 15.5 15.5 0 0 1 21.039062 42.960938 L 15.382812 48.617188 A 23.5 23.5 0 0 0 40.992188 53.710938 A 23.5 23.5 0 0 0 55.5 32 A 23.5 23.5 0 0 0 40.992188 10.289062 A 23.5 23.5 0 0 0 32.34375 8.5019531 z "
       transform="translate(0,988.36218)"
       id="path4290" />
    <path
       id="path4211"
       d="m 30.99999,1007.4638 -0.49219,14.7381 a 1.5000069,1.4995783 0 0 0 0,0.01 1.5000069,1.4995783 0 0 0 -0.0078,0.1503 1.5000069,1.4995783 0 0 0 0.002,0.049 l -0.002,0.053 0.0039,0 a 1.5000069,1.4995783 0 0 0 0.373049,0.8885 l -0.0059,0.01 0.04297,0.045 c 0.0091,0.01 0.01799,0.018 0.02734,0.027 0.03324,0.033 0.06733,0.067 0.107423,0.092 l 8.662149,7.9646 1.414069,-1.4137 -0.0039,0 -7.644567,-8.3121 L 33,1007.4638 l -2.00001,0 z"
       style="opacity:0.07;fill:#000000;fill-opacity:1;stroke:#000000;stroke-width:1;stroke-linecap:butt;stroke-linejoin:round;stroke-miterlimit:4;stroke-dasharray:none;stroke-opacity:1" />
    <path
       style="opacity:0.15000013;fill:#000000;fill-opacity:1;stroke:none;stroke-width:1;stroke-linecap:butt;stroke-linejoin:round;stroke-miterlimit:4;stroke-dasharray:none;stroke-opacity:1"
       d="m 30.99999,1007.4638 -0.49219,14.7381 a 1.5000069,1.4995783 0 0 0 0,0.01 1.5000069,1.4995783 0 0 0 -0.0078,0.1503 1.5000069,1.4995783 0 0 0 0.002,0.049 l -0.002,0.053 0.0039,0 a 1.5000069,1.4995783 0 0 0 0.373049,0.8885 l -0.0059,0.01 0.04297,0.045 c 0.0091,0.01 0.01799,0.018 0.02734,0.027 0.03324,0.033 0.06733,0.067 0.107423,0.092 l 8.662149,7.9646 1.414069,-1.4137 -0.0039,0 -7.644567,-8.3121 L 33,1007.4638 l -2.00001,0 z"
       id="path4209" />
    <path
       id="rect4199"
       transform="translate(0,988.36218)"
       d="M 31 18.101562 L 30.507812 32.84375 A 1.5 1.5 0 0 0 30.507812 32.849609 A 1.5 1.5 0 0 0 30.5 33 A 1.5 1.5 0 0 0 30.501953 33.048828 L 30.5 33.101562 L 30.503906 33.101562 A 1.5 1.5 0 0 0 30.876953 33.990234 L 30.871094 33.998047 L 30.914062 34.042969 C 30.923163 34.052969 30.932056 34.061312 30.941406 34.070312 C 30.974646 34.103313 31.00874 34.137109 31.048828 34.162109 L 39.710938 42.128906 L 41.125 40.714844 L 41.121094 40.710938 L 33.476562 32.396484 L 33 18.101562 L 31 18.101562 z "
       style="opacity:1;fill:#ffffff;fill-opacity:1;stroke:none;stroke-width:1;stroke-linecap:butt;stroke-linejoin:round;stroke-miterlimit:4;stroke-dasharray:none;stroke-opacity:1" />
  </g>
</svg>
