<?xml version="1.0" encoding="UTF-8" standalone="no"?>
<!-- Created with Inkscape (http://www.inkscape.org/) -->

<svg
   xmlns:dc="http://purl.org/dc/elements/1.1/"
   xmlns:cc="http://creativecommons.org/ns#"
   xmlns:rdf="http://www.w3.org/1999/02/22-rdf-syntax-ns#"
   xmlns:svg="http://www.w3.org/2000/svg"
   xmlns="http://www.w3.org/2000/svg"
   xmlns:xlink="http://www.w3.org/1999/xlink"
   xmlns:sodipodi="http://sodipodi.sourceforge.net/DTD/sodipodi-0.dtd"
   xmlns:inkscape="http://www.inkscape.org/namespaces/inkscape"
   version="1.0"
   width="64"
   height="64"
   id="svg3367"
   inkscape:version="0.48.4 r9939"
   sodipodi:docname="dvdstyler.svg">
  <metadata
     id="metadata120">
    <rdf:RDF>
      <cc:Work
         rdf:about="">
        <dc:format>image/svg+xml</dc:format>
        <dc:type
           rdf:resource="http://purl.org/dc/dcmitype/StillImage" />
        <dc:title />
      </cc:Work>
    </rdf:RDF>
  </metadata>
  <sodipodi:namedview
     pagecolor="#ffffff"
     bordercolor="#666666"
     borderopacity="1"
     objecttolerance="10"
     gridtolerance="10"
     guidetolerance="10"
     inkscape:pageopacity="0"
     inkscape:pageshadow="2"
     inkscape:window-width="1169"
     inkscape:window-height="910"
     id="namedview118"
     showgrid="false"
     inkscape:zoom="5.65625"
     inkscape:cx="6.5414369"
     inkscape:cy="35.712707"
     inkscape:window-x="686"
     inkscape:window-y="43"
     inkscape:window-maximized="0"
     inkscape:current-layer="svg3367" />
  <defs
     id="defs3369">
    <linearGradient
       id="linearGradient23419">
      <stop
         id="stop23421"
         style="stop-color:#000000;stop-opacity:1"
         offset="0" />
      <stop
         id="stop23423"
         style="stop-color:#000000;stop-opacity:0"
         offset="1" />
    </linearGradient>
    <linearGradient
       id="linearGradient3772">
      <stop
         id="stop3774"
         style="stop-color:#b4b4b4;stop-opacity:1"
         offset="0" />
      <stop
         id="stop3776"
         style="stop-color:#969696;stop-opacity:1"
         offset="1" />
    </linearGradient>
    <linearGradient
       x1="12.2744"
       y1="32.4165"
       x2="35.391201"
       y2="14.2033"
       id="linearGradient3263"
       gradientUnits="userSpaceOnUse">
      <stop
         id="stop3265"
         style="stop-color:#ad61ad;stop-opacity:1;"
         offset="0" />
      <stop
         id="stop3267"
         style="stop-color:#c97cc9;stop-opacity:1;"
         offset="0.5" />
      <stop
         id="stop3269"
         style="stop-color:#bea1be;stop-opacity:1;"
         offset="1" />
    </linearGradient>
    <linearGradient
       id="linearGradient3428">
      <stop
         id="stop3430"
         style="stop-color:#aaaaaa;stop-opacity:1"
         offset="0" />
      <stop
         id="stop3432"
         style="stop-color:#d4d4d4;stop-opacity:1"
         offset="1" />
    </linearGradient>
    <linearGradient
       x1="10.609375"
       y1="17.886322"
       x2="9.7297754"
       y2="20.612656"
       id="linearGradient3354"
       xlink:href="#linearGradient3519"
       gradientUnits="userSpaceOnUse"
       spreadMethod="reflect" />
    <linearGradient
       x1="12.371647"
       y1="16.188046"
       x2="14.609327"
       y2="13.461712"
       id="linearGradient3352"
       xlink:href="#linearGradient3511"
       gradientUnits="userSpaceOnUse"
       spreadMethod="reflect" />
    <linearGradient
       x1="14.084608"
       y1="13.045606"
       x2="16.994024"
       y2="10.732353"
       id="linearGradient3350"
       xlink:href="#linearGradient3503"
       gradientUnits="userSpaceOnUse"
       spreadMethod="reflect" />
    <linearGradient
       x1="17.494959"
       y1="11.200086"
       x2="21.047453"
       y2="9.7956104"
       id="linearGradient3348"
       xlink:href="#linearGradient3495"
       gradientUnits="userSpaceOnUse"
       spreadMethod="reflect" />
    <linearGradient
       x1="20.580074"
       y1="10.774516"
       x2="24.27351"
       y2="9.8622112"
       id="linearGradient3346"
       xlink:href="#linearGradient3487"
       gradientUnits="userSpaceOnUse"
       spreadMethod="reflect" />
    <linearGradient
       id="linearGradient6036">
      <stop
         id="stop6038"
         style="stop-color:#ffffff;stop-opacity:1"
         offset="0" />
      <stop
         id="stop6040"
         style="stop-color:#ffffff;stop-opacity:0"
         offset="1" />
    </linearGradient>
    <linearGradient
       id="linearGradient3519">
      <stop
         id="stop3521"
         style="stop-color:#fcd9cd;stop-opacity:1"
         offset="0" />
      <stop
         id="stop3523"
         style="stop-color:#fcd9cd;stop-opacity:0"
         offset="1" />
    </linearGradient>
    <linearGradient
       x1="10.609375"
       y1="17.886322"
       x2="9.7297754"
       y2="20.612656"
       id="linearGradient3319"
       xlink:href="#linearGradient3519"
       gradientUnits="userSpaceOnUse"
       spreadMethod="reflect" />
    <linearGradient
       id="linearGradient3511">
      <stop
         id="stop3513"
         style="stop-color:#ebeec7;stop-opacity:1"
         offset="0" />
      <stop
         id="stop3515"
         style="stop-color:#ebeec7;stop-opacity:0"
         offset="1" />
    </linearGradient>
    <linearGradient
       x1="12.371647"
       y1="16.188046"
       x2="14.609327"
       y2="13.461712"
       id="linearGradient3317"
       xlink:href="#linearGradient3511"
       gradientUnits="userSpaceOnUse"
       spreadMethod="reflect" />
    <linearGradient
       id="linearGradient3503">
      <stop
         id="stop3505"
         style="stop-color:#c4ebdd;stop-opacity:1"
         offset="0" />
      <stop
         id="stop3507"
         style="stop-color:#c4ebdd;stop-opacity:0"
         offset="1" />
    </linearGradient>
    <linearGradient
       x1="14.084608"
       y1="13.045606"
       x2="16.994024"
       y2="10.732353"
       id="linearGradient3315"
       xlink:href="#linearGradient3503"
       gradientUnits="userSpaceOnUse"
       spreadMethod="reflect" />
    <linearGradient
       id="linearGradient3495">
      <stop
         id="stop3497"
         style="stop-color:#c1cbe4;stop-opacity:1"
         offset="0" />
      <stop
         id="stop3499"
         style="stop-color:#c1cbe4;stop-opacity:0"
         offset="1" />
    </linearGradient>
    <linearGradient
       x1="17.494959"
       y1="11.200086"
       x2="21.047453"
       y2="9.7956104"
       id="linearGradient3313"
       xlink:href="#linearGradient3495"
       gradientUnits="userSpaceOnUse"
       spreadMethod="reflect" />
    <linearGradient
       id="linearGradient3487">
      <stop
         id="stop3489"
         style="stop-color:#e6cde2;stop-opacity:1"
         offset="0" />
      <stop
         id="stop3491"
         style="stop-color:#e6cde2;stop-opacity:0"
         offset="1" />
    </linearGradient>
    <linearGradient
       x1="20.580074"
       y1="10.774516"
       x2="24.27351"
       y2="9.8622112"
       id="linearGradient3311"
       xlink:href="#linearGradient3487"
       gradientUnits="userSpaceOnUse"
       spreadMethod="reflect" />
    <linearGradient
       x1="10.50172"
       y1="3.6100161"
       x2="48.798885"
       y2="54.698483"
       id="linearGradient2453"
       xlink:href="#linearGradient6036"
       gradientUnits="userSpaceOnUse"
       gradientTransform="matrix(1.4326785,0,0,1.4326784,-2.8814227,-3.8167684)" />
    <linearGradient
       x1="18.775953"
       y1="4.0378027"
       x2="18.203465"
       y2="45.962208"
       id="linearGradient2462"
       xlink:href="#linearGradient6036"
       gradientUnits="userSpaceOnUse"
       gradientTransform="matrix(0.62450098,0,0,0.62450068,16.795277,16.387662)" />
    <linearGradient
       x1="21.448364"
       y1="15.5"
       x2="21.448364"
       y2="32.509201"
       id="linearGradient2465"
       xlink:href="#linearGradient3428"
       gradientUnits="userSpaceOnUse"
       gradientTransform="matrix(1.3636365,0,0,1.3636365,-0.7272728,-0.7270911)" />
    <linearGradient
       x1="33.129894"
       y1="13.843696"
       x2="11.734221"
       y2="33.606174"
       id="linearGradient2470"
       xlink:href="#linearGradient3263"
       gradientUnits="userSpaceOnUse"
       gradientTransform="matrix(0,1.7039112,-1.7039112,0,71.360361,-8.8936953)" />
    <linearGradient
       x1="-21.915663"
       y1="3"
       x2="-21.915663"
       y2="45.032898"
       id="linearGradient2472"
       xlink:href="#linearGradient3772"
       gradientUnits="userSpaceOnUse"
       gradientTransform="matrix(1.4545456,0,0,1.4545456,70.203729,-2.9089097)" />
    <radialGradient
       cx="23.334524"
       cy="41.63604"
       r="22.627417"
       fx="23.334524"
       fy="41.63604"
       id="radialGradient2475"
       xlink:href="#linearGradient23419"
       gradientUnits="userSpaceOnUse"
       gradientTransform="matrix(1.4142136,0,0,0.41779697,-1.0000012,37.150034)" />
    <linearGradient
       x1="32.892288"
       y1="8.0590115"
       x2="36.358372"
       y2="5.4565363"
       id="linearGradient3598"
       xlink:href="#linearGradient8589"
       gradientUnits="userSpaceOnUse"
       gradientTransform="matrix(0.6371285,0,0,0.6445638,18.829693,18.744517)" />
    <linearGradient
       id="linearGradient8589">
      <stop
         id="stop8591"
         style="stop-color:#fefefe;stop-opacity:1"
         offset="0" />
      <stop
         id="stop8593"
         style="stop-color:#cbcbcb;stop-opacity:1"
         offset="1" />
    </linearGradient>
    <filter
       x="-0.14846256"
       y="-0.16434373"
       width="1.2969251"
       height="1.3286875"
       color-interpolation-filters="sRGB"
       id="filter3212">
      <feGaussianBlur
         stdDeviation="0.77391625"
         id="feGaussianBlur3214" />
    </filter>
    <linearGradient
       x1="24"
       y1="1.9999999"
       x2="24"
       y2="46.01725"
       id="linearGradient3602"
       xlink:href="#linearGradient3211"
       gradientUnits="userSpaceOnUse"
       gradientTransform="matrix(0.6363646,0,0,0.6279076,18.727264,16.930216)" />
    <linearGradient
       id="linearGradient3211">
      <stop
         id="stop3213"
         style="stop-color:#ffffff;stop-opacity:1"
         offset="0" />
      <stop
         id="stop3215"
         style="stop-color:#ffffff;stop-opacity:0"
         offset="1" />
    </linearGradient>
    <radialGradient
       cx="102"
       cy="112.3047"
       r="139.55859"
       id="radialGradient3605"
       xlink:href="#XMLID_8_"
       gradientUnits="userSpaceOnUse"
       gradientTransform="matrix(0.2340426,0,0,-0.2542968,19.02129,50.288672)" />
    <radialGradient
       cx="102"
       cy="112.3047"
       r="139.55859"
       id="XMLID_8_"
       gradientUnits="userSpaceOnUse">
      <stop
         id="stop41"
         style="stop-color:#b7b8b9;stop-opacity:1"
         offset="0" />
      <stop
         id="stop47"
         style="stop-color:#ececec;stop-opacity:1"
         offset="0.18851049" />
      <stop
         id="stop49"
         style="stop-color:#fafafa;stop-opacity:0"
         offset="0.25718147" />
      <stop
         id="stop51"
         style="stop-color:#ffffff;stop-opacity:0"
         offset="0.30111277" />
      <stop
         id="stop53"
         style="stop-color:#fafafa;stop-opacity:0"
         offset="0.53130001" />
      <stop
         id="stop55"
         style="stop-color:#ebecec;stop-opacity:0"
         offset="0.84490001" />
      <stop
         id="stop57"
         style="stop-color:#e1e2e3;stop-opacity:0"
         offset="1" />
    </radialGradient>
    <linearGradient
       x1="25.132275"
       y1="0.98520643"
       x2="25.132275"
       y2="47.013336"
       id="linearGradient3608"
       xlink:href="#linearGradient3600"
       gradientUnits="userSpaceOnUse"
       gradientTransform="matrix(0.6571436,0,0,0.6301241,18.228566,15.910352)" />
    <linearGradient
       id="linearGradient3600">
      <stop
         id="stop3602"
         style="stop-color:#f4f4f4;stop-opacity:1"
         offset="0" />
      <stop
         id="stop3604"
         style="stop-color:#dbdbdb;stop-opacity:1"
         offset="1" />
    </linearGradient>
    <linearGradient
       x1="-51.786404"
       y1="50.786446"
       x2="-51.786404"
       y2="2.9062471"
       id="linearGradient3610"
       xlink:href="#linearGradient3104"
       gradientUnits="userSpaceOnUse"
       gradientTransform="matrix(0.5306412,0,0,0.5897023,57.269618,15.208092)" />
    <linearGradient
       id="linearGradient3104">
      <stop
         id="stop3106"
         style="stop-color:#9a9a9a;stop-opacity:1"
         offset="0" />
      <stop
         id="stop3108"
         style="stop-color:#afafaf;stop-opacity:1"
         offset="1" />
    </linearGradient>
    <radialGradient
       cx="605.71429"
       cy="486.64789"
       r="117.14286"
       fx="605.71429"
       fy="486.64789"
       id="radialGradient3613"
       xlink:href="#linearGradient5060"
       gradientUnits="userSpaceOnUse"
       gradientTransform="matrix(0.01566318,0,0,0.00823529,35.610446,42.980566)" />
    <linearGradient
       id="linearGradient5060">
      <stop
         id="stop5062"
         style="stop-color:#000000;stop-opacity:1"
         offset="0" />
      <stop
         id="stop5064"
         style="stop-color:#000000;stop-opacity:0"
         offset="1" />
    </linearGradient>
    <radialGradient
       cx="605.71429"
       cy="486.64789"
       r="117.14286"
       fx="605.71429"
       fy="486.64789"
       id="radialGradient3616"
       xlink:href="#linearGradient5060"
       gradientUnits="userSpaceOnUse"
       gradientTransform="matrix(-0.01566318,0,0,0.00823529,33.389579,42.980566)" />
    <linearGradient
       x1="3.7797408"
       y1="106.37297"
       x2="3.7797408"
       y2="99.720741"
       id="linearGradient3619"
       xlink:href="#linearGradient5048"
       gradientUnits="userSpaceOnUse"
       gradientTransform="matrix(3.1586968,0,0,0.3008283,19.296394,16)" />
    <linearGradient
       id="linearGradient5048">
      <stop
         id="stop5050"
         style="stop-color:#000000;stop-opacity:0"
         offset="0" />
      <stop
         id="stop5056"
         style="stop-color:#000000;stop-opacity:1"
         offset="0.5" />
      <stop
         id="stop5052"
         style="stop-color:#000000;stop-opacity:0"
         offset="1" />
    </linearGradient>
    <linearGradient
       id="linearGradient5060-179">
      <stop
         id="stop2675"
         style="stop-color:#000000;stop-opacity:1"
         offset="0" />
      <stop
         id="stop2677"
         style="stop-color:#000000;stop-opacity:0"
         offset="1" />
    </linearGradient>
    <radialGradient
       cx="605.71429"
       cy="486.64789"
       r="117.14286"
       fx="605.71429"
       fy="486.64789"
       id="radialGradient3717"
       xlink:href="#linearGradient5060-179"
       gradientUnits="userSpaceOnUse"
       gradientTransform="matrix(0.03079083,0,0,0.02470588,24.610252,31.941642)" />
    <radialGradient
       id="radialGradient2469"
       gradientUnits="userSpaceOnUse"
       cy="4.625"
       cx="62.625"
       gradientTransform="matrix(2.1647,0,0,0.75294,-111.56,36.518)"
       r="10.625">
      <stop
         id="stop8840"
         offset="0" />
      <stop
         id="stop8842"
         style="stop-opacity:0"
         offset="1" />
    </radialGradient>
    <linearGradient
       id="linearGradient2452"
       y2="34.224998"
       gradientUnits="userSpaceOnUse"
       x2="24.104"
       gradientTransform="matrix(1.5469986,0,0,1.537692,10.065929,11.12063)"
       y1="15.181"
       x1="24.104">
      <stop
         id="stop2266"
         style="stop-color:#e88266;stop-opacity:1;"
         offset="0" />
      <stop
         id="stop2268"
         style="stop-color:#ab2a30;stop-opacity:1;"
         offset="1" />
    </linearGradient>
    <linearGradient
       gradientTransform="matrix(0.83715666,0,0,0.83715666,26.692158,25.364462)"
       id="linearGradient3269"
       y2="45"
       gradientUnits="userSpaceOnUse"
       x2="24"
       y1="5"
       x1="24">
      <stop
         id="stop3261"
         style="stop-color:#fff"
         offset="0" />
      <stop
         id="stop3263"
         style="stop-color:#fff;stop-opacity:0"
         offset="1" />
    </linearGradient>
    <radialGradient
       r="10.625"
       cy="4.625"
       cx="62.625"
       gradientTransform="matrix(1.6128557,0,0,0.56099392,-70.05891,39.187306)"
       gradientUnits="userSpaceOnUse"
       id="radialGradient4076"
       xlink:href="#radialGradient2469"
       inkscape:collect="always" />
    <linearGradient
       inkscape:collect="always"
       xlink:href="#linearGradient5665-8"
       id="linearGradient4142"
       gradientUnits="userSpaceOnUse"
       gradientTransform="matrix(1.3280111,0,0,1.3288079,2.4772158,-2.5712903)"
       x1="28.059"
       y1="18.868"
       x2="33.437"
       y2="23.743" />
    <linearGradient
       id="linearGradient5665-8"
       y2="23.743"
       gradientUnits="userSpaceOnUse"
       x2="33.437"
       gradientTransform="matrix(2.6458971,0,0,2.6474846,-5.3085782,5.3363521)"
       y1="18.868"
       x1="28.059">
      <stop
         id="stop6953-3"
         style="stop-color:#6e3d09"
         offset="0" />
      <stop
         id="stop6959-8"
         style="stop-color:#ea8113"
         offset=".24242" />
      <stop
         id="stop6961-6"
         style="stop-color:#5c3307"
         offset=".62121" />
      <stop
         id="stop6955-1"
         style="stop-color:#e07c12"
         offset="1" />
    </linearGradient>
    <linearGradient
       id="linearGradient5662-9"
       y2="33.438999"
       gradientUnits="userSpaceOnUse"
       x2="23.108999"
       gradientTransform="matrix(1.3280111,0,0,1.3288079,2.4772158,-2.5712903)"
       y1="30.000999"
       x1="19.395">
      <stop
         id="stop6941-9"
         style="stop-color:#bdbdbd"
         offset="0" />
      <stop
         id="stop6947-5"
         style="stop-color:#e2e2e2"
         offset=".33333" />
      <stop
         id="stop6949-7"
         style="stop-color:#a3a3a3"
         offset=".66667" />
      <stop
         id="stop6943-4"
         style="stop-color:#ddd"
         offset="1" />
    </linearGradient>
    <radialGradient
       id="radialGradient5658-0"
       gradientUnits="userSpaceOnUse"
       cy="35.356998"
       cx="15.415"
       gradientTransform="matrix(1.3209196,0,0,1.2879982,1.5794798,0.0448028)"
       r="7.5791998">
      <stop
         id="stop6965-0"
         style="stop-color:#51210c;stop-opacity:1;"
         offset="0" />
      <stop
         offset="0.5"
         style="stop-color:#a73f16;stop-opacity:1;"
         id="stop3969" />
      <stop
         id="stop6967-5"
         offset="1"
         style="stop-color:#e161dd;stop-opacity:1;" />
    </radialGradient>
    <linearGradient
       id="linearGradient5652-0"
       y2="42.282001"
       gradientUnits="userSpaceOnUse"
       x2="7.7521"
       gradientTransform="matrix(1.1318639,0,0,1.1325013,5.4411768,4.8123636)"
       y1="37.751999"
       x1="13.236">
      <stop
         id="stop2448-2"
         style="stop-color:#fff"
         offset="0" />
      <stop
         id="stop2450-2"
         style="stop-color:#fff;stop-opacity:0"
         offset="1" />
    </linearGradient>
    <linearGradient
       inkscape:collect="always"
       xlink:href="#linearGradient5665-8-6"
       id="linearGradient4142-3"
       gradientUnits="userSpaceOnUse"
       gradientTransform="matrix(1.2068047,-0.13499881,0.13507981,1.2075288,8.2195233,3.4139387)"
       x1="28.059"
       y1="18.868"
       x2="33.437"
       y2="23.743" />
    <linearGradient
       id="linearGradient5665-8-6"
       y2="23.743"
       gradientUnits="userSpaceOnUse"
       x2="33.437"
       gradientTransform="matrix(2.6458971,0,0,2.6474846,-5.3085782,5.3363521)"
       y1="18.868"
       x1="28.059">
      <stop
         id="stop6953-3-2"
         style="stop-color:#6e3d09"
         offset="0" />
      <stop
         id="stop6959-8-1"
         style="stop-color:#ea8113"
         offset=".24242" />
      <stop
         id="stop6961-6-4"
         style="stop-color:#5c3307"
         offset=".62121" />
      <stop
         id="stop6955-1-0"
         style="stop-color:#e07c12"
         offset="1" />
    </linearGradient>
    <linearGradient
       id="linearGradient5662-9-2"
       y2="33.438999"
       gradientUnits="userSpaceOnUse"
       x2="23.108999"
       gradientTransform="matrix(1.2068047,-0.13499881,0.13507981,1.2075288,8.2195233,3.4139387)"
       y1="30.000999"
       x1="19.395">
      <stop
         id="stop6941-9-8"
         style="stop-color:#bdbdbd"
         offset="0" />
      <stop
         id="stop6947-5-9"
         style="stop-color:#e2e2e2"
         offset=".33333" />
      <stop
         id="stop6949-7-8"
         style="stop-color:#a3a3a3"
         offset=".66667" />
      <stop
         id="stop6943-4-1"
         style="stop-color:#ddd"
         offset="1" />
    </linearGradient>
    <radialGradient
       id="radialGradient5658-0-9"
       gradientUnits="userSpaceOnUse"
       cy="35.356998"
       cx="15.415"
       gradientTransform="matrix(1.2003604,-0.13427793,0.13093131,1.1704437,7.6696678,5.8825215)"
       r="7.5791998">
      <stop
         id="stop6965-0-1"
         style="stop-color:#51210c;stop-opacity:1;"
         offset="0" />
      <stop
         offset="0.5"
         style="stop-color:#a73f16;stop-opacity:1;"
         id="stop3969-2" />
      <stop
         id="stop6967-5-8"
         offset="1"
         style="stop-color:#e161dd;stop-opacity:1;" />
    </radialGradient>
    <linearGradient
       id="linearGradient5652-0-4"
       y2="42.282001"
       gradientUnits="userSpaceOnUse"
       x2="7.7521"
       gradientTransform="matrix(1.0285597,-0.11505949,0.11512429,1.0291389,11.663559,9.8223903)"
       y1="37.751999"
       x1="13.236">
      <stop
         id="stop2448-2-9"
         style="stop-color:#fff"
         offset="0" />
      <stop
         id="stop2450-2-6"
         style="stop-color:#fff;stop-opacity:0"
         offset="1" />
    </linearGradient>
    <filter
       inkscape:collect="always"
       id="filter4182"
       x="-0.10521975"
       width="1.2104395"
       y="-0.13961123"
       height="1.2792225">
      <feGaussianBlur
         inkscape:collect="always"
         stdDeviation="0.64185135"
         id="feGaussianBlur4184" />
    </filter>
    <linearGradient
       inkscape:collect="always"
       xlink:href="#linearGradient3487"
       id="linearGradient3925"
       gradientUnits="userSpaceOnUse"
       spreadMethod="reflect"
       x1="20.580074"
       y1="10.774516"
       x2="24.27351"
       y2="9.8622112" />
    <linearGradient
       inkscape:collect="always"
       xlink:href="#linearGradient3495"
       id="linearGradient3927"
       gradientUnits="userSpaceOnUse"
       spreadMethod="reflect"
       x1="17.494959"
       y1="11.200086"
       x2="21.047453"
       y2="9.7956104" />
    <linearGradient
       inkscape:collect="always"
       xlink:href="#linearGradient3503"
       id="linearGradient3929"
       gradientUnits="userSpaceOnUse"
       spreadMethod="reflect"
       x1="14.084608"
       y1="13.045606"
       x2="16.994024"
       y2="10.732353" />
    <linearGradient
       inkscape:collect="always"
       xlink:href="#linearGradient3511"
       id="linearGradient3931"
       gradientUnits="userSpaceOnUse"
       spreadMethod="reflect"
       x1="12.371647"
       y1="16.188046"
       x2="14.609327"
       y2="13.461712" />
    <linearGradient
       inkscape:collect="always"
       xlink:href="#linearGradient3519"
       id="linearGradient3933"
       gradientUnits="userSpaceOnUse"
       spreadMethod="reflect"
       x1="10.609375"
       y1="17.886322"
       x2="9.7297754"
       y2="20.612656" />
    <linearGradient
       inkscape:collect="always"
       xlink:href="#linearGradient3487"
       id="linearGradient3947"
       gradientUnits="userSpaceOnUse"
       spreadMethod="reflect"
       x1="20.580074"
       y1="10.774516"
       x2="24.27351"
       y2="9.8622112" />
    <linearGradient
       inkscape:collect="always"
       xlink:href="#linearGradient3495"
       id="linearGradient3949"
       gradientUnits="userSpaceOnUse"
       spreadMethod="reflect"
       x1="17.494959"
       y1="11.200086"
       x2="21.047453"
       y2="9.7956104" />
    <linearGradient
       inkscape:collect="always"
       xlink:href="#linearGradient3503"
       id="linearGradient3951"
       gradientUnits="userSpaceOnUse"
       spreadMethod="reflect"
       x1="14.084608"
       y1="13.045606"
       x2="16.994024"
       y2="10.732353" />
    <linearGradient
       inkscape:collect="always"
       xlink:href="#linearGradient3511"
       id="linearGradient3953"
       gradientUnits="userSpaceOnUse"
       spreadMethod="reflect"
       x1="12.371647"
       y1="16.188046"
       x2="14.609327"
       y2="13.461712" />
    <linearGradient
       inkscape:collect="always"
       xlink:href="#linearGradient3519"
       id="linearGradient3955"
       gradientUnits="userSpaceOnUse"
       spreadMethod="reflect"
       x1="10.609375"
       y1="17.886322"
       x2="9.7297754"
       y2="20.612656" />
    <linearGradient
       inkscape:collect="always"
       xlink:href="#linearGradient3487"
       id="linearGradient3969"
       gradientUnits="userSpaceOnUse"
       spreadMethod="reflect"
       x1="20.580074"
       y1="10.774516"
       x2="24.27351"
       y2="9.8622112" />
    <linearGradient
       inkscape:collect="always"
       xlink:href="#linearGradient3495"
       id="linearGradient3971"
       gradientUnits="userSpaceOnUse"
       spreadMethod="reflect"
       x1="17.494959"
       y1="11.200086"
       x2="21.047453"
       y2="9.7956104" />
    <linearGradient
       inkscape:collect="always"
       xlink:href="#linearGradient3503"
       id="linearGradient3973"
       gradientUnits="userSpaceOnUse"
       spreadMethod="reflect"
       x1="14.084608"
       y1="13.045606"
       x2="16.994024"
       y2="10.732353" />
    <linearGradient
       inkscape:collect="always"
       xlink:href="#linearGradient3511"
       id="linearGradient3975"
       gradientUnits="userSpaceOnUse"
       spreadMethod="reflect"
       x1="12.371647"
       y1="16.188046"
       x2="14.609327"
       y2="13.461712" />
    <linearGradient
       inkscape:collect="always"
       xlink:href="#linearGradient3519"
       id="linearGradient3977"
       gradientUnits="userSpaceOnUse"
       spreadMethod="reflect"
       x1="10.609375"
       y1="17.886322"
       x2="9.7297754"
       y2="20.612656" />
  </defs>
  <path
     d="M 64,54.545455 C 64.0015,59.76691 49.674283,64 32.000002,64 14.325723,64 -0.00164801,59.76691 1.4218201e-7,54.545455 -0.00164386,49.323999 14.325723,45.090907 32.000002,45.090907 c 17.674281,0 32.001652,4.233092 31.999998,9.454548 l 0,0 z"
     id="path23417"
     style="opacity:0.3;fill:url(#radialGradient2475);fill-opacity:1;fill-rule:evenodd;stroke:none;stroke-width:2;marker:none;visibility:visible;display:inline;overflow:visible"
     inkscape:connector-curvature="0" />
  <path
     d="m 61.81818,32.000187 c 0,-16.527945 -13.290236,-29.8181836 -29.818178,-29.8181836 -16.527946,0 -29.8181836,13.2902406 -29.8181836,29.8181836 -2.9e-6,16.527942 13.2902396,29.818183 29.8181836,29.818183 16.52794,0 29.818178,-13.290241 29.818178,-29.818183 z m -18.909086,0 c 0,6.004553 -4.784394,10.909091 -10.909092,10.909091 -6.244844,0 -10.909092,-5.025906 -10.909092,-10.909091 0,-6.00335 4.423953,-10.909092 10.909092,-10.909092 6.485139,0 10.909092,5.024684 10.909092,10.909092 z"
     id="path2781"
     style="fill:url(#linearGradient2470);fill-rule:nonzero;stroke:url(#linearGradient2472);stroke-width:1.45454561999999998;stroke-miterlimit:4;stroke-opacity:1"
     inkscape:connector-curvature="0" />
  <path
     d="m 32.000002,20.363822 c -6.423273,0 -11.636364,5.213092 -11.636364,11.636365 0,6.423273 5.213091,11.636364 11.636364,11.636364 6.423273,0 11.636364,-5.213091 11.636364,-11.636364 0,-6.423273 -5.213091,-11.636365 -11.636364,-11.636365 z m 0,5.818183 c 3.211637,0 5.818182,2.606545 5.818182,5.818182 0,3.211636 -2.606545,5.818182 -5.818182,5.818182 -3.211636,0 -5.818182,-2.606546 -5.818182,-5.818182 0,-3.211637 2.606546,-5.818182 5.818182,-5.818182 z"
     id="path2474"
     style="opacity:0.5;fill:#ffffff;fill-opacity:1;fill-rule:nonzero;stroke:none;stroke-width:1;marker:none;visibility:visible;display:inline;overflow:visible;enable-background:accumulate"
     inkscape:connector-curvature="0" />
  <g
     style="opacity:0.2"
     id="g3957"
     transform="matrix(-1.3966149,0.40641076,-0.40641076,-1.3966149,75.45208,57.042517)">
    <path
       d="M 15.856928,5.7307748 20.625,16.34375 C 21.660403,15.885186 22.795334,15.625 24,15.625 c 0.03206,0 0.06178,-3.6e-4 0.09375,0 L 24.10801,4.0047512 c -2.94215,-0.070687 -5.543041,0.6572865 -8.251083,1.7260236 l 10e-7,0 z"
       transform="matrix(0.9996011,0.02824295,-0.02824295,0.9996011,0.6924114,-0.6708346)"
       id="path3959"
       style="opacity:0.8;fill:url(#linearGradient3969);fill-opacity:1;fill-rule:nonzero;stroke:none"
       inkscape:connector-curvature="0" />
    <path
       d="m 12.121471,7.9060109 6.931026,9.3601041 c 0.913109,-0.669755 1.965938,-1.167064 3.142629,-1.425169 0.03132,-0.0069 0.06026,-0.01359 0.09157,-0.02009 L 19.857174,4.426276 c -2.888973,0.5613244 -5.31953,1.8556038 -7.735703,3.4797349 l 0,0 z"
       id="path3961"
       style="opacity:0.8;fill:url(#linearGradient3971);fill-opacity:1;fill-rule:nonzero;stroke:none"
       inkscape:connector-curvature="0" />
    <path
       d="m 8.2523933,11.646535 9.2137237,7.155818 c 0.70865,-0.883264 1.596891,-1.636119 2.666685,-2.18998 0.02847,-0.01474 0.05469,-0.02872 0.08325,-0.0431 L 14.86585,6.2506132 C 12.220599,7.5405321 10.165881,9.452393 8.2523933,11.646535 z"
       id="path3963"
       style="opacity:0.8;fill:url(#linearGradient3973);fill-opacity:1;fill-rule:nonzero;stroke:none"
       inkscape:connector-curvature="0" />
    <path
       d="m 5.6328855,16.073974 c 7.1748065,2.242248 7.8502625,7.031463 12.7767855,1.754127 L 10.499985,9.1321388 C 8.2787249,11.062747 6.9132871,13.459349 5.6328855,16.073974 z"
       id="path3965"
       style="opacity:0.8;fill:url(#linearGradient3975);fill-opacity:1;fill-rule:nonzero;stroke:none"
       inkscape:connector-curvature="0" />
    <path
       d="M 7.155289,13.193173 C 5.9722117,14.945185 5.2475768,16.829547 4.6301929,18.837116 L 15.96875,21.8125 C 16.184264,21.049497 16.486796,20.297733 16.9375,19.59375 16.95479,19.56675 16.98246,19.52673 17,19.5 L 7.155289,13.193173 z"
       id="path3967"
       style="opacity:0.8;fill:url(#linearGradient3977);fill-opacity:1;fill-rule:nonzero;stroke:none"
       inkscape:connector-curvature="0" />
  </g>
  <path
     d="m 32.000002,21.091095 c -6.021818,0 -10.909092,4.887273 -10.909092,10.909092 0,6.021819 4.887274,10.909091 10.909092,10.909091 6.021818,0 10.909092,-4.887272 10.909092,-10.909091 0,-6.021819 -4.887274,-10.909092 -10.909092,-10.909092 z m 0,5.454546 c 3.010909,0 5.454546,2.443636 5.454546,5.454546 0,3.010909 -2.443637,5.454545 -5.454546,5.454545 -3.010909,0 -5.454546,-2.443636 -5.454546,-5.454545 0,-3.01091 2.443637,-5.454546 5.454546,-5.454546 z"
     id="path3418"
     style="fill:none;stroke:url(#linearGradient2465);stroke-width:1.45454562;stroke-linecap:butt;stroke-linejoin:round;stroke-miterlimit:4;stroke-opacity:1;stroke-dasharray:none;stroke-dashoffset:0;marker:none;visibility:visible;display:inline;overflow:visible;enable-background:accumulate"
     inkscape:connector-curvature="0" />
  <g
     transform="matrix(-0.01053336,1.4545073,-1.4545073,-0.01053336,67.834136,-3.3053497)"
     id="g3913">
    <path
       inkscape:connector-curvature="0"
       style="opacity:0.8;fill:url(#linearGradient3925);fill-opacity:1;fill-rule:nonzero;stroke:none"
       id="path3915"
       transform="matrix(0.9996011,0.02824295,-0.02824295,0.9996011,0.6924114,-0.6708346)"
       d="M 15.856928,5.7307748 20.625,16.34375 C 21.660403,15.885186 22.795334,15.625 24,15.625 c 0.03206,0 0.06178,-3.6e-4 0.09375,0 L 24.10801,4.0047512 c -2.94215,-0.070687 -5.543041,0.6572865 -8.251083,1.7260236 l 10e-7,0 z" />
    <path
       inkscape:connector-curvature="0"
       style="opacity:0.8;fill:url(#linearGradient3927);fill-opacity:1;fill-rule:nonzero;stroke:none"
       id="path3917"
       d="m 12.121471,7.9060109 6.931026,9.3601041 c 0.913109,-0.669755 1.965938,-1.167064 3.142629,-1.425169 0.03132,-0.0069 0.06026,-0.01359 0.09157,-0.02009 L 19.857174,4.426276 c -2.888973,0.5613244 -5.31953,1.8556038 -7.735703,3.4797349 l 0,0 z" />
    <path
       inkscape:connector-curvature="0"
       style="opacity:0.8;fill:url(#linearGradient3929);fill-opacity:1;fill-rule:nonzero;stroke:none"
       id="path3919"
       d="m 8.2523933,11.646535 9.2137237,7.155818 c 0.70865,-0.883264 1.596891,-1.636119 2.666685,-2.18998 0.02847,-0.01474 0.05469,-0.02872 0.08325,-0.0431 L 14.86585,6.2506132 C 12.220599,7.5405321 10.165881,9.452393 8.2523933,11.646535 z" />
    <path
       inkscape:connector-curvature="0"
       style="opacity:0.8;fill:url(#linearGradient3931);fill-opacity:1;fill-rule:nonzero;stroke:none"
       id="path3921"
       d="m 5.6328855,16.073974 c 7.1748065,2.242248 7.8502625,7.031463 12.7767855,1.754127 L 10.499985,9.1321388 C 8.2787249,11.062747 6.9132871,13.459349 5.6328855,16.073974 z" />
    <path
       inkscape:connector-curvature="0"
       style="opacity:0.8;fill:url(#linearGradient3933);fill-opacity:1;fill-rule:nonzero;stroke:none"
       id="path3923"
       d="M 7.155289,13.193173 C 5.9722117,14.945185 5.2475768,16.829547 4.6301929,18.837116 L 15.96875,21.8125 C 16.184264,21.049497 16.486796,20.297733 16.9375,19.59375 16.95479,19.56675 16.98246,19.52673 17,19.5 L 7.155289,13.193173 z" />
  </g>
  <path
     d="m 32.000002,19.636548 c -6.852988,0 -12.363637,5.510649 -12.363637,12.363639 0,6.852989 5.510649,12.363637 12.363637,12.363637 6.852991,0 12.363637,-5.510648 12.363637,-12.363637 0,-6.85299 -5.510646,-12.363639 -12.363637,-12.363639 l 0,0 0,0 0,0 z"
     id="path3281"
     style="opacity:0.8;fill:none;stroke:url(#linearGradient2462);stroke-width:1.45454526;stroke-miterlimit:4;stroke-opacity:1"
     inkscape:connector-curvature="0" />
  <g
     id="g3527"
     transform="matrix(0.13968656,-1.4478225,1.4478225,0.13968656,-5.321484,63.571098)">
    <path
       d="M 15.856928,5.7307748 20.625,16.34375 C 21.660403,15.885186 22.795334,15.625 24,15.625 c 0.03206,0 0.06178,-3.6e-4 0.09375,0 L 24.10801,4.0047512 c -2.94215,-0.070687 -5.543041,0.6572865 -8.251083,1.7260236 l 10e-7,0 z"
       transform="matrix(0.9996011,0.02824295,-0.02824295,0.9996011,0.6924114,-0.6708346)"
       id="path3296"
       style="opacity:0.8;fill:url(#linearGradient3346);fill-opacity:1;fill-rule:nonzero;stroke:none"
       inkscape:connector-curvature="0" />
    <path
       d="m 12.121471,7.9060109 6.931026,9.3601041 c 0.913109,-0.669755 1.965938,-1.167064 3.142629,-1.425169 0.03132,-0.0069 0.06026,-0.01359 0.09157,-0.02009 L 19.857174,4.426276 c -2.888973,0.5613244 -5.31953,1.8556038 -7.735703,3.4797349 l 0,0 z"
       id="path3308"
       style="opacity:0.8;fill:url(#linearGradient3348);fill-opacity:1;fill-rule:nonzero;stroke:none"
       inkscape:connector-curvature="0" />
    <path
       d="m 8.2523933,11.646535 9.2137237,7.155818 c 0.70865,-0.883264 1.596891,-1.636119 2.666685,-2.18998 0.02847,-0.01474 0.05469,-0.02872 0.08325,-0.0431 L 14.86585,6.2506132 C 12.220599,7.5405321 10.165881,9.452393 8.2523933,11.646535 z"
       id="path3310"
       style="opacity:0.8;fill:url(#linearGradient3350);fill-opacity:1;fill-rule:nonzero;stroke:none"
       inkscape:connector-curvature="0" />
    <path
       d="m 5.6328855,16.073974 c 7.1748065,2.242248 7.8502625,7.031463 12.7767855,1.754127 L 10.499985,9.1321388 C 8.2787249,11.062747 6.9132871,13.459349 5.6328855,16.073974 z"
       id="path3312"
       style="opacity:0.8;fill:url(#linearGradient3352);fill-opacity:1;fill-rule:nonzero;stroke:none"
       inkscape:connector-curvature="0" />
    <path
       d="M 7.155289,13.193173 C 5.9722117,14.945185 5.2475768,16.829547 4.6301929,18.837116 L 15.96875,21.8125 C 16.184264,21.049497 16.486796,20.297733 16.9375,19.59375 16.95479,19.56675 16.98246,19.52673 17,19.5 L 7.155289,13.193173 z"
       id="path3314"
       style="opacity:0.8;fill:url(#linearGradient3354);fill-opacity:1;fill-rule:nonzero;stroke:none"
       inkscape:connector-curvature="0" />
  </g>
  <path
     d="m 32.000004,3.6365501 c -15.721561,0 -28.3636409,12.6420809 -28.3636409,28.3636369 0,15.721557 12.6420799,28.363638 28.3636409,28.363638 15.72156,0 28.363632,-12.642081 28.363632,-28.363638 0,-15.721556 -12.642072,-28.3636369 -28.363632,-28.3636369 l 0,0 0,0 z"
     id="path3272"
     style="opacity:0.4;fill:none;stroke:url(#linearGradient2453);stroke-width:1.4545455;stroke-miterlimit:4;stroke-opacity:1"
     inkscape:connector-curvature="0" />
  <path
     inkscape:connector-curvature="0"
     id="path2454"
     style="opacity:0.53333004;fill:#ffffff"
     d="m 55.330173,11.508055 c 0.0214,0.191117 -0.116073,0.36342 -0.307091,0.384789 -0.191027,0.02137 -0.3632,-0.116279 -0.384533,-0.307421 -0.0214,-0.19112 0.116074,-0.363421 0.307092,-0.384791 0.191027,-0.02137 0.363199,0.116277 0.384532,0.307423 z" />
  <path
     inkscape:connector-curvature="0"
     id="path6937"
     style="fill:url(#linearGradient4142-3);stroke:#673907;stroke-width:1.21469641;stroke-linecap:round"
     d="m 39.944743,29.683958 5.420127,4.040345 C 53.084812,24.226113 63.586712,2.37117 63.586712,2.37117 63.939633,0.83473356 62.005085,0.10795095 61.200368,1.2070212 c 0,0 -14.617006,18.8701128 -21.256283,28.4765208 z" />
  <path
     inkscape:connector-curvature="0"
     id="path6935"
     style="fill:url(#linearGradient5662-9-2);stroke:#787a75;stroke-width:1.21469641;stroke-linecap:round"
     d="m 32.15326,43.059314 2.972054,2.0318 9.254054,-10.042116 0.236601,-0.889414 1.318325,-0.169225 c -0.739035,-1.827656 -4.141907,-4.895825 -6.404661,-4.642703 l 0.246221,1.30519 -0.757223,0.549325 -6.865377,11.857162 z" />
  <path
     d="m 20.9,54.699518 c 7.971305,-0.891707 14.126904,-0.61861 14.623047,-6.549462 0.399845,-4.779493 -6.277152,-6.301285 -8.994671,-1.770352 C 23.910871,50.745132 20.900054,54.7 20.900054,54.7 z"
     style="fill:#000000;fill-opacity:1;filter:url(#filter4182);opacity:0.5"
     id="path4170"
     inkscape:connector-curvature="0" />
  <path
     inkscape:connector-curvature="0"
     id="path6933"
     style="fill:url(#radialGradient5658-0-9)"
     d="m 20.8,53.999518 c 7.971305,-0.891707 14.126904,-0.61861 14.623047,-6.549462 0.399845,-4.779493 -6.277152,-6.301285 -8.994671,-1.770352 C 23.810871,50.045132 20.800054,54 20.800054,54 z" />
  <path
     inkscape:connector-curvature="0"
     id="path6971"
     style="opacity:0.52777997;fill:#ffffff"
     d="m 31.505951,45.498238 c 0.07969,0.710596 -0.431538,1.351221 -1.141747,1.430669 -0.71021,0.07944 -1.350363,-0.432324 -1.429653,-1.143021 -0.07969,-0.710577 0.43154,-1.351203 1.14175,-1.43065 0.710209,-0.07944 1.350353,0.432334 1.42965,1.143002 z" />
  <path
     inkscape:connector-curvature="0"
     id="path6983"
     style="opacity:0.6;fill:#ffffff"
     d="m 42.21173,32.403138 c 0.0737,0.656867 -0.398925,1.249059 -1.055445,1.3225 -0.65652,0.07344 -1.248273,-0.399639 -1.321572,-1.056597 -0.0737,-0.656866 0.398916,-1.249056 1.055436,-1.322498 0.65652,-0.07344 1.248283,0.399637 1.321581,1.056595 z" />
  <path
     inkscape:connector-curvature="0"
     id="path6985"
     style="opacity:0.6;fill:none;stroke:#ffffff;stroke-width:1.21469641;stroke-linecap:round;stroke-linejoin:round"
     d="m 39.602657,34.381354 -5.570278,8.133562" />
  <path
     inkscape:connector-curvature="0"
     id="path1571"
     style="opacity:0.42778003;fill:url(#linearGradient5652-0-4)"
     d="m 22.296347,53.031778 c 0,0 3.810294,-2.433468 5.198163,-5.577987 0.491033,-1.112514 1.967335,-0.37515 1.235623,0.75976 -1.580391,2.451376 -6.433821,4.818241 -6.433821,4.818241 z" />
  <path
     inkscape:connector-curvature="0"
     id="path2454-8"
     style="opacity:0.53333004;fill:#ffffff"
     d="m 62.361408,1.8580614 c 0.02222,0.1983149 -0.120436,0.3771064 -0.31865,0.3992796 -0.198214,0.022174 -0.37687,-0.1206576 -0.399007,-0.318999 -0.02222,-0.1983167 0.120444,-0.3771073 0.318659,-0.3992806 0.198214,-0.022174 0.376869,0.1206568 0.398998,0.319 z" />
  <g
     transform="matrix(1.4529155,-0.06884099,0.06884099,1.4529155,-3.8777289,-2.1995146)"
     id="g3935"
     style="opacity:0.2">
    <path
       inkscape:connector-curvature="0"
       style="opacity:0.80000000000000004;fill:url(#linearGradient3947);fill-opacity:1;fill-rule:nonzero;stroke:none"
       id="path3937"
       transform="matrix(0.9996011,0.02824295,-0.02824295,0.9996011,0.6924114,-0.6708346)"
       d="M 15.856928,5.7307748 20.625,16.34375 C 21.660403,15.885186 22.795334,15.625 24,15.625 c 0.03206,0 0.06178,-3.6e-4 0.09375,0 L 24.10801,4.0047512 c -2.94215,-0.070687 -5.543041,0.6572865 -8.251083,1.7260236 l 10e-7,0 z" />
    <path
       inkscape:connector-curvature="0"
       style="opacity:0.80000000000000004;fill:url(#linearGradient3949);fill-opacity:1;fill-rule:nonzero;stroke:none"
       id="path3939"
       d="m 12.121471,7.9060109 6.931026,9.3601041 c 0.913109,-0.669755 1.965938,-1.167064 3.142629,-1.425169 0.03132,-0.0069 0.06026,-0.01359 0.09157,-0.02009 L 19.857174,4.426276 c -2.888973,0.5613244 -5.31953,1.8556038 -7.735703,3.4797349 l 0,0 z" />
    <path
       inkscape:connector-curvature="0"
       style="opacity:0.80000000000000004;fill:url(#linearGradient3951);fill-opacity:1;fill-rule:nonzero;stroke:none"
       id="path3941"
       d="m 8.2523933,11.646535 9.2137237,7.155818 c 0.70865,-0.883264 1.596891,-1.636119 2.666685,-2.18998 0.02847,-0.01474 0.05469,-0.02872 0.08325,-0.0431 L 14.86585,6.2506132 C 12.220599,7.5405321 10.165881,9.452393 8.2523933,11.646535 z" />
    <path
       inkscape:connector-curvature="0"
       style="opacity:0.80000000000000004;fill:url(#linearGradient3953);fill-opacity:1;fill-rule:nonzero;stroke:none"
       id="path3943"
       d="m 5.6328855,16.073974 c 7.1748065,2.242248 7.8502625,7.031463 12.7767855,1.754127 L 10.499985,9.1321388 C 8.2787249,11.062747 6.9132871,13.459349 5.6328855,16.073974 z" />
    <path
       inkscape:connector-curvature="0"
       style="opacity:0.80000000000000004;fill:url(#linearGradient3955);fill-opacity:1;fill-rule:nonzero;stroke:none"
       id="path3945"
       d="M 7.155289,13.193173 C 5.9722117,14.945185 5.2475768,16.829547 4.6301929,18.837116 L 15.96875,21.8125 C 16.184264,21.049497 16.486796,20.297733 16.9375,19.59375 16.95479,19.56675 16.98246,19.52673 17,19.5 L 7.155289,13.193173 z" />
  </g>
</svg>
