<?xml version="1.0" encoding="UTF-8" standalone="no"?>
<svg
   xmlns:dc="http://purl.org/dc/elements/1.1/"
   xmlns:cc="http://creativecommons.org/ns#"
   xmlns:rdf="http://www.w3.org/1999/02/22-rdf-syntax-ns#"
   xmlns:svg="http://www.w3.org/2000/svg"
   xmlns="http://www.w3.org/2000/svg"
   xmlns:xlink="http://www.w3.org/1999/xlink"
   xmlns:sodipodi="http://sodipodi.sourceforge.net/DTD/sodipodi-0.dtd"
   xmlns:inkscape="http://www.inkscape.org/namespaces/inkscape"
   version="1.1"
   width="64"
   height="64"
   id="svg6086"
   inkscape:version="0.91 r"
   sodipodi:docname="youtube.svg">
  <sodipodi:namedview
     pagecolor="#ffffff"
     bordercolor="#666666"
     borderopacity="1"
     objecttolerance="10"
     gridtolerance="10"
     guidetolerance="10"
     inkscape:pageopacity="0"
     inkscape:pageshadow="2"
     inkscape:window-width="640"
     inkscape:window-height="480"
     id="namedview4225"
     showgrid="false"
     inkscape:zoom="14.94739"
     inkscape:cx="13.523945"
     inkscape:cy="32"
     inkscape:current-layer="layer1" />
  <defs
     id="defs6088">
    <linearGradient
       x1="23.99999"
       y1="4.999989"
       x2="23.99999"
       y2="43"
       id="linearGradient3966"
       xlink:href="#linearGradient3924-2-2-5-8"
       gradientUnits="userSpaceOnUse"
       gradientTransform="matrix(1.4324324,0,0,1.4324324,-2.378381,-2.3783712)" />
    <linearGradient
       id="linearGradient3924-2-2-5-8">
      <stop
         id="stop3926-9-4-9-6"
         style="stop-color:#ffffff;stop-opacity:1"
         offset="0" />
      <stop
         id="stop3928-9-8-6-5"
         style="stop-color:#ffffff;stop-opacity:0.23529412"
         offset="0.06316455" />
      <stop
         id="stop3930-3-5-1-7"
         style="stop-color:#ffffff;stop-opacity:0.15686275"
         offset="0.95056331" />
      <stop
         id="stop3932-8-0-4-8"
         style="stop-color:#ffffff;stop-opacity:0.39215687"
         offset="1" />
    </linearGradient>
    <linearGradient
       x1="167.98311"
       y1="8.50811"
       x2="167.98311"
       y2="54.780239"
       id="linearGradient4385-4"
       xlink:href="#linearGradient5803-2-7"
       gradientUnits="userSpaceOnUse"
       gradientTransform="translate(-58.000052,3.759402e-6)" />
    <linearGradient
       id="linearGradient5803-2-7">
      <stop
         id="stop5805-3-6"
         style="stop-color:#fffdf3;stop-opacity:1"
         offset="0" />
      <stop
         id="stop5807-0-0"
         style="stop-color:#fbebeb;stop-opacity:1"
         offset="1" />
    </linearGradient>
    <radialGradient
       cx="8.276144"
       cy="9.9941158"
       r="12.671875"
       fx="8.276144"
       fy="9.9941158"
       id="radialGradient3969"
       xlink:href="#linearGradient3242"
       gradientUnits="userSpaceOnUse"
       gradientTransform="matrix(0,9.4032488,-11.544185,0,147.47589,-87.114158)" />
    <linearGradient
       id="linearGradient3242">
      <stop
         id="stop3244"
         style="stop-color:#f89b7e;stop-opacity:1"
         offset="0" />
      <stop
         id="stop3246"
         style="stop-color:#e35d4f;stop-opacity:1"
         offset="0.26238" />
      <stop
         id="stop3248"
         style="stop-color:#c6262e;stop-opacity:1"
         offset="0.66093999" />
      <stop
         id="stop3250"
         style="stop-color:#690b2c;stop-opacity:1"
         offset="1" />
    </linearGradient>
    <radialGradient
       cx="4.9929786"
       cy="43.5"
       r="2.5"
       fx="4.9929786"
       fy="43.5"
       id="radialGradient3337-2-2"
       xlink:href="#linearGradient3688-166-749-4-0-3-8"
       gradientUnits="userSpaceOnUse"
       gradientTransform="matrix(2.003784,0,0,1.4,27.98813,-17.4)" />
    <linearGradient
       id="linearGradient3688-166-749-4-0-3-8">
      <stop
         id="stop2883-4-0-1-8"
         style="stop-color:#181818;stop-opacity:1"
         offset="0" />
      <stop
         id="stop2885-9-2-9-6"
         style="stop-color:#181818;stop-opacity:0"
         offset="1" />
    </linearGradient>
    <radialGradient
       cx="4.9929786"
       cy="43.5"
       r="2.5"
       fx="4.9929786"
       fy="43.5"
       id="radialGradient3339-1-4"
       xlink:href="#linearGradient3688-464-309-9-2-4-2"
       gradientUnits="userSpaceOnUse"
       gradientTransform="matrix(2.003784,0,0,1.4,-20.01187,-104.4)" />
    <linearGradient
       id="linearGradient3688-464-309-9-2-4-2">
      <stop
         id="stop2889-7-9-6-9"
         style="stop-color:#181818;stop-opacity:1"
         offset="0" />
      <stop
         id="stop2891-6-6-1-7"
         style="stop-color:#181818;stop-opacity:0"
         offset="1" />
    </linearGradient>
    <linearGradient
       id="linearGradient3702-501-757-8-4-1-1">
      <stop
         id="stop2895-8-9-9-1"
         style="stop-color:#181818;stop-opacity:0"
         offset="0" />
      <stop
         id="stop2897-7-8-7-7"
         style="stop-color:#181818;stop-opacity:1"
         offset="0.5" />
      <stop
         id="stop2899-4-5-1-5"
         style="stop-color:#181818;stop-opacity:0"
         offset="1" />
    </linearGradient>
    <linearGradient
       x1="25.058096"
       y1="47.027729"
       x2="25.058096"
       y2="39.999443"
       id="linearGradient6084"
       xlink:href="#linearGradient3702-501-757-8-4-1-1"
       gradientUnits="userSpaceOnUse" />
    <linearGradient
       id="linearGradient2490-1">
      <stop
         id="stop2492-7"
         style="stop-color:#791235;stop-opacity:1"
         offset="0" />
      <stop
         id="stop2494-2"
         style="stop-color:#dd3b27;stop-opacity:1"
         offset="1" />
    </linearGradient>
  </defs>
  <metadata
     id="metadata6091">
    <rdf:RDF>
      <cc:Work
         rdf:about="">
        <dc:format>image/svg+xml</dc:format>
        <dc:type
           rdf:resource="http://purl.org/dc/dcmitype/StillImage" />
        <dc:title></dc:title>
      </cc:Work>
    </rdf:RDF>
  </metadata>
  <g
     id="layer1">
    <g
       transform="matrix(1.5789502,0,0,0.7142857,-5.894751,27.928572)"
       id="g3712-8-2-4-4"
       style="opacity:0.6">
      <rect
         width="5"
         height="7"
         x="38"
         y="40"
         id="rect2801-5-5-7-9"
         style="fill:url(#radialGradient3337-2-2);fill-opacity:1;stroke:none" />
      <rect
         width="5"
         height="7"
         x="-10"
         y="-47"
         transform="scale(-1,-1)"
         id="rect3696-3-0-3-7"
         style="fill:url(#radialGradient3339-1-4);fill-opacity:1;stroke:none" />
      <rect
         width="28"
         height="7.0000005"
         x="10"
         y="40"
         id="rect3700-5-6-8-4"
         style="fill:url(#linearGradient6084);fill-opacity:1;stroke:none" />
    </g>
    <rect
       width="55"
       height="55"
       rx="3"
       ry="3"
       x="4.499999"
       y="4.5000019"
       id="rect5505-21-3-8-5-2"
       style="color:#000000;fill:url(#radialGradient3969);fill-opacity:1;fill-rule:nonzero;stroke:none;stroke-width:0.99999994;marker:none;visibility:visible;display:inline;overflow:visible;enable-background:accumulate" />
    <rect
       width="53"
       height="53"
       rx="2"
       ry="2"
       x="5.499999"
       y="5.5000019"
       id="rect6741-5-0-2-3"
       style="opacity:0.5;fill:none;stroke:url(#linearGradient3966);stroke-width:1;stroke-linecap:round;stroke-linejoin:round;stroke-miterlimit:4;stroke-opacity:1;stroke-dasharray:none;stroke-dashoffset:0" />
    <rect
       width="55"
       height="55"
       rx="3"
       ry="3"
       x="4.499999"
       y="4.5000019"
       id="rect5505-21-3-8-9-1-1"
       style="opacity:0.35;color:#000000;fill:none;stroke:#410000;stroke-width:1;stroke-linecap:round;stroke-linejoin:round;stroke-miterlimit:4;stroke-opacity:1;stroke-dasharray:none;stroke-dashoffset:0;marker:none;visibility:visible;display:inline;overflow:visible;enable-background:accumulate" />
    <g
       transform="translate(-1.6110855,1.873794)"
       id="g4786"
       style="stroke:none;stroke-opacity:1;fill:#000000;fill-opacity:1;opacity:0.2">
      <path
         style="fill:#000000;fill-opacity:1;stroke:none;stroke-opacity:1"
         d="m 29.591478,13.626991 c -1.16664,-0.0121 -9.333125,0 -9.333125,9.333124 0,4.666562 3.499922,6.999844 8.166485,6.999844 -1.166641,3.499921 1.16664,4.666561 -1.050206,4.733402 0,0 -10.6162,1.099799 -10.6162,8.099643 0,4.666562 5.34998,5.833202 9.333125,5.833202 6.316424,0 11.666404,-2.33328 11.666404,-8.166484 0,-5.833202 -5.833202,-5.833202 -5.833202,-9.333123 l 0,-1.13322 c 0,0 4.802417,-1.879339 5.833202,-7.033264 1.166641,-5.833202 -3.499922,-6.999843 -3.499922,-6.999843 l 1.166641,0 c 2.333281,0 3.835103,-2.233017 3.835103,-2.233017 z m 2.333281,15.166327 c -6.999843,2.333281 -11.666406,-10.499765 -5.833202,-12.833046 5.833202,-2.333281 12.833045,10.499765 5.833202,12.833046 z m -4.666562,8.166483 c 3.499921,0 9.809485,1.380558 6.999842,6.999844 -2.33328,4.666561 -13.999686,3.499921 -13.999686,-2.333282 0,-3.499922 3.499922,-4.666562 6.999844,-4.666562 z"
         id="path4788"
         inkscape:connector-curvature="0"
         sodipodi:nodetypes="ssccsccccscccszzzsscs" />
      <path
         style="fill:#000000;fill-opacity:1;stroke:none;stroke-opacity:1"
         d="m 39.709433,29.472088 4.13627,0 0,-4.136271 2.481763,0 0,4.136271 4.136271,0 0,2.481763 -4.136271,0 0,4.13627 -2.481763,0 0,-4.136271 -4.13627,0 z"
         id="path4790"
         inkscape:connector-curvature="0"
         sodipodi:nodetypes="ccccccccccccc" />
    </g>
    <g
       id="g4782"
       transform="translate(-1.6110855,0.87379594)">
      <path
         sodipodi:nodetypes="ssccsccccscccszzzsscs"
         inkscape:connector-curvature="0"
         id="path3817"
         d="m 29.591478,13.626991 c -1.16664,-0.0121 -9.333125,0 -9.333125,9.333124 0,4.666562 3.499922,6.999844 8.166485,6.999844 -1.166641,3.499921 1.16664,4.666561 -1.050206,4.733402 0,0 -10.6162,1.099799 -10.6162,8.099643 0,4.666562 5.34998,5.833202 9.333125,5.833202 6.316424,0 11.666404,-2.33328 11.666404,-8.166484 0,-5.833202 -5.833202,-5.833202 -5.833202,-9.333123 l 0,-1.13322 c 0,0 4.802417,-1.879339 5.833202,-7.033264 1.166641,-5.833202 -3.499922,-6.999843 -3.499922,-6.999843 l 1.166641,0 c 2.333281,0 3.835103,-2.233017 3.835103,-2.233017 z m 2.333281,15.166327 c -6.999843,2.333281 -11.666406,-10.499765 -5.833202,-12.833046 5.833202,-2.333281 12.833045,10.499765 5.833202,12.833046 z m -4.666562,8.166483 c 3.499921,0 9.809485,1.380558 6.999842,6.999844 -2.33328,4.666561 -13.999686,3.499921 -13.999686,-2.333282 0,-3.499922 3.499922,-4.666562 6.999844,-4.666562 z"
         style="fill:#ffffff;fill-opacity:1;stroke:none" />
      <path
         sodipodi:nodetypes="ccccccccccccc"
         inkscape:connector-curvature="0"
         id="path3825"
         d="m 39.709433,29.472088 4.13627,0 0,-4.136271 2.481763,0 0,4.136271 4.136271,0 0,2.481763 -4.136271,0 0,4.13627 -2.481763,0 0,-4.136271 -4.13627,0 z"
         style="fill:#ffffff;fill-opacity:1;stroke:none" />
    </g>
  </g>
</svg>
