<?xml version="1.0" encoding="UTF-8" standalone="no"?>
<svg
   xmlns:dc="http://purl.org/dc/elements/1.1/"
   xmlns:cc="http://creativecommons.org/ns#"
   xmlns:rdf="http://www.w3.org/1999/02/22-rdf-syntax-ns#"
   xmlns:svg="http://www.w3.org/2000/svg"
   xmlns="http://www.w3.org/2000/svg"
   xmlns:xlink="http://www.w3.org/1999/xlink"
   xmlns:sodipodi="http://sodipodi.sourceforge.net/DTD/sodipodi-0.dtd"
   xmlns:inkscape="http://www.inkscape.org/namespaces/inkscape"
   version="1.0"
   width="64"
   height="64"
   viewBox="0 0 51.2 51.2"
   preserveAspectRatio="xMidYMid meet"
   id="svg2"
   sodipodi:version="0.32"
   inkscape:version="0.48.4 r9939"
   sodipodi:docname="128.svg">
  <defs
     id="defs13">
    <linearGradient
       id="linearGradient2764">
      <stop
         style="stop-color:#32000c;stop-opacity:1;"
         offset="0"
         id="stop2776" />
      <stop
         id="stop2769"
         offset="0.53846157"
         style="stop-color:#7d001f;stop-opacity:1;" />
      <stop
         style="stop-color:#210019;stop-opacity:1;"
         offset="1"
         id="stop2768" />
    </linearGradient>
    <radialGradient
       inkscape:collect="always"
       xlink:href="#linearGradient2764"
       id="radialGradient2770"
       cx="330.83142"
       cy="238.79865"
       fx="330.83142"
       fy="238.79865"
       r="61.696739"
       gradientTransform="matrix(0.11509451,0,0,0.11382065,-1.2497656,-3.5600217)"
       gradientUnits="userSpaceOnUse" />
    <radialGradient
       inkscape:collect="always"
       xlink:href="#linearGradient2764"
       id="radialGradient2772"
       cx="233.28448"
       cy="256.52219"
       fx="233.28448"
       fy="256.52219"
       r="222.42589"
       gradientTransform="matrix(0.11509451,0,0,0.10942945,-1.2497656,-2.4110078)"
       gradientUnits="userSpaceOnUse" />
  </defs>
  <sodipodi:namedview
     inkscape:window-height="931"
     inkscape:window-width="1122"
     inkscape:pageshadow="2"
     inkscape:pageopacity="0.0"
     guidetolerance="10.0"
     gridtolerance="10.0"
     objecttolerance="10.0"
     borderopacity="1.0"
     bordercolor="#666666"
     pagecolor="#ffffff"
     id="base"
     inkscape:zoom="6.1484375"
     inkscape:cx="64"
     inkscape:cy="64"
     inkscape:window-x="609"
     inkscape:window-y="52"
     inkscape:current-layer="svg2"
     showgrid="false"
     inkscape:window-maximized="0" />
  <metadata
     id="metadata4">
Created by potrace 1.7, written by Peter Selinger 2001-2005
<rdf:RDF>
  <cc:Work
     rdf:about="">
    <dc:format>image/svg+xml</dc:format>
    <dc:type
       rdf:resource="http://purl.org/dc/dcmitype/StillImage" />
    <dc:title></dc:title>
  </cc:Work>
</rdf:RDF>
</metadata>
  <path
     style="fill:url(#radialGradient2772);fill-opacity:1;stroke:none"
     id="path8"
     d="M 13.05792,3.5421005 C -1.7547428,10.106804 -4.6162801,27.276027 7.8398231,35.355662 13.394572,39.058828 13.394572,40.910411 8.0081486,42.257017 -2.5963714,44.950228 8.6814516,50 25.345698,50 c 11.782801,0 21.545693,-2.693211 22.892298,-6.228052 0.50498,-1.17828 0,-2.188234 -1.17828,-2.188234 -5.8914,-0.168326 -6.396377,-3.029863 -1.346605,-8.079635 C 55.812658,23.572862 51.436188,8.4235468 36.960173,3.0371235 30.563796,0.5122376 19.285972,0.8488891 13.05792,3.5421005 z M 42.683248,8.9285237 C 52.446143,13.80997 51.436188,29.464262 41.336642,33.335754 31.237098,37.207245 24.672395,31.820822 25.514024,20.542999 l 0.336651,-5.049772 -5.049771,5.8914 c -4.544795,5.554749 -5.049772,5.723075 -9.257915,3.534841 C 5.6515887,21.721279 5.9882402,18.691416 13.05792,11.958387 21.137555,4.3837289 31.742076,3.205449 42.683248,8.9285237 z m 0.168325,36.6950073 c -4.376469,2.524886 -28.278721,3.534839 -29.625327,1.17828 -0.841629,-1.346605 2.019909,-1.851583 9.42624,-1.851583 6.396378,-0.168325 11.782801,-1.009954 13.80271,-2.524886 2.35656,-1.851583 3.703166,-1.851583 6.228052,-0.336651 2.861538,1.851583 2.861538,2.019909 0.168325,3.53484 z"
     inkscape:connector-curvature="0" />
  <path
     style="fill:url(#radialGradient2770);fill-opacity:1;stroke:none"
     id="path10"
     d="m 30.732121,18.691416 c -1.851583,2.35656 -1.346606,2.693211 3.198189,2.693211 4.881446,0 5.218097,0.336652 4.208143,4.544795 l -1.17828,4.71312 3.703166,-3.198189 c 5.218097,-4.71312 4.039817,-10.099543 -2.524886,-10.772846 -3.198189,-0.336652 -6.059726,0.504977 -7.406332,2.019909 z"
     inkscape:connector-curvature="0" />
</svg>
