<?xml version="1.0" encoding="UTF-8" standalone="no"?>
<!-- Created with Inkscape (http://www.inkscape.org/) -->

<svg
   xmlns:dc="http://purl.org/dc/elements/1.1/"
   xmlns:cc="http://creativecommons.org/ns#"
   xmlns:rdf="http://www.w3.org/1999/02/22-rdf-syntax-ns#"
   xmlns:svg="http://www.w3.org/2000/svg"
   xmlns="http://www.w3.org/2000/svg"
   xmlns:xlink="http://www.w3.org/1999/xlink"
   xmlns:sodipodi="http://sodipodi.sourceforge.net/DTD/sodipodi-0.dtd"
   xmlns:inkscape="http://www.inkscape.org/namespaces/inkscape"
   version="1.0"
   width="64"
   height="64"
   id="svg3367"
   sodipodi:version="0.32"
   inkscape:version="0.47 r22583"
   sodipodi:docname="brasero64b.svg"
   inkscape:output_extension="org.inkscape.output.svg.inkscape">
  <metadata
     id="metadata71">
    <rdf:RDF>
      <cc:Work
         rdf:about="">
        <dc:format>image/svg+xml</dc:format>
        <dc:type
           rdf:resource="http://purl.org/dc/dcmitype/StillImage" />
        <dc:title />
      </cc:Work>
    </rdf:RDF>
  </metadata>
  <sodipodi:namedview
     inkscape:window-height="706"
     inkscape:window-width="640"
     inkscape:pageshadow="2"
     inkscape:pageopacity="0.0"
     guidetolerance="10.0"
     gridtolerance="10.0"
     objecttolerance="10.0"
     borderopacity="1.0"
     bordercolor="#666666"
     pagecolor="#ffffff"
     id="base"
     showgrid="false"
     inkscape:zoom="11.313708"
     inkscape:cx="25.314359"
     inkscape:cy="25.558038"
     inkscape:window-x="399"
     inkscape:window-y="49"
     inkscape:current-layer="svg3367" />
  <defs
     id="defs3369">
    <linearGradient
       id="linearGradient5057">
      <stop
         offset="0"
         style="stop-color:#000000;stop-opacity:1;"
         id="stop5059" />
      <stop
         offset="1"
         style="stop-color:#1e1e1e;stop-opacity:1;"
         id="stop5061" />
    </linearGradient>
    <linearGradient
       id="linearGradient5039">
      <stop
         offset="0"
         style="stop-color:#505050;stop-opacity:1;"
         id="stop5041" />
      <stop
         offset="0.26238"
         style="stop-color:#414141;stop-opacity:1;"
         id="stop5043" />
      <stop
         offset="0.62257278"
         style="stop-color:#282828;stop-opacity:1;"
         id="stop5045" />
      <stop
         offset="1"
         style="stop-color:#1b1b1b;stop-opacity:1;"
         id="stop5047" />
    </linearGradient>
    <linearGradient
       id="linearGradient23419">
      <stop
         id="stop23421"
         style="stop-color:#000000;stop-opacity:1"
         offset="0" />
      <stop
         id="stop23423"
         style="stop-color:#000000;stop-opacity:0"
         offset="1" />
    </linearGradient>
    <linearGradient
       id="linearGradient3772">
      <stop
         id="stop3774"
         style="stop-color:#b4b4b4;stop-opacity:1"
         offset="0" />
      <stop
         id="stop3776"
         style="stop-color:#969696;stop-opacity:1"
         offset="1" />
    </linearGradient>
    <linearGradient
       x1="12.2744"
       y1="32.4165"
       x2="35.391201"
       y2="14.2033"
       id="linearGradient3263"
       gradientUnits="userSpaceOnUse">
      <stop
         id="stop3265"
         style="stop-color:#dedbde;stop-opacity:1"
         offset="0" />
      <stop
         id="stop3267"
         style="stop-color:#e6e6e6;stop-opacity:1"
         offset="0.5" />
      <stop
         id="stop3269"
         style="stop-color:#d2d2d2;stop-opacity:1"
         offset="1" />
    </linearGradient>
    <linearGradient
       id="linearGradient3428">
      <stop
         id="stop3430"
         style="stop-color:#aaaaaa;stop-opacity:1"
         offset="0" />
      <stop
         id="stop3432"
         style="stop-color:#d4d4d4;stop-opacity:1"
         offset="1" />
    </linearGradient>
    <linearGradient
       x1="10.609375"
       y1="17.886322"
       x2="9.7297754"
       y2="20.612656"
       id="linearGradient3354"
       xlink:href="#linearGradient3519"
       gradientUnits="userSpaceOnUse"
       spreadMethod="reflect" />
    <linearGradient
       x1="12.371647"
       y1="16.188046"
       x2="14.609327"
       y2="13.461712"
       id="linearGradient3352"
       xlink:href="#linearGradient3511"
       gradientUnits="userSpaceOnUse"
       spreadMethod="reflect" />
    <linearGradient
       x1="14.084608"
       y1="13.045606"
       x2="16.994024"
       y2="10.732353"
       id="linearGradient3350"
       xlink:href="#linearGradient3503"
       gradientUnits="userSpaceOnUse"
       spreadMethod="reflect" />
    <linearGradient
       x1="17.494959"
       y1="11.200086"
       x2="21.047453"
       y2="9.7956104"
       id="linearGradient3348"
       xlink:href="#linearGradient3495"
       gradientUnits="userSpaceOnUse"
       spreadMethod="reflect" />
    <linearGradient
       x1="20.580074"
       y1="10.774516"
       x2="24.27351"
       y2="9.8622112"
       id="linearGradient3346"
       xlink:href="#linearGradient3487"
       gradientUnits="userSpaceOnUse"
       spreadMethod="reflect" />
    <linearGradient
       id="linearGradient6036">
      <stop
         id="stop6038"
         style="stop-color:#ffffff;stop-opacity:1"
         offset="0" />
      <stop
         id="stop6040"
         style="stop-color:#ffffff;stop-opacity:0"
         offset="1" />
    </linearGradient>
    <linearGradient
       id="linearGradient3519">
      <stop
         id="stop3521"
         style="stop-color:#fcd9cd;stop-opacity:1"
         offset="0" />
      <stop
         id="stop3523"
         style="stop-color:#fcd9cd;stop-opacity:0"
         offset="1" />
    </linearGradient>
    <linearGradient
       x1="10.609375"
       y1="17.886322"
       x2="9.7297754"
       y2="20.612656"
       id="linearGradient3319"
       xlink:href="#linearGradient3519"
       gradientUnits="userSpaceOnUse"
       spreadMethod="reflect" />
    <linearGradient
       id="linearGradient3511">
      <stop
         id="stop3513"
         style="stop-color:#ebeec7;stop-opacity:1"
         offset="0" />
      <stop
         id="stop3515"
         style="stop-color:#ebeec7;stop-opacity:0"
         offset="1" />
    </linearGradient>
    <linearGradient
       x1="12.371647"
       y1="16.188046"
       x2="14.609327"
       y2="13.461712"
       id="linearGradient3317"
       xlink:href="#linearGradient3511"
       gradientUnits="userSpaceOnUse"
       spreadMethod="reflect" />
    <linearGradient
       id="linearGradient3503">
      <stop
         id="stop3505"
         style="stop-color:#c4ebdd;stop-opacity:1"
         offset="0" />
      <stop
         id="stop3507"
         style="stop-color:#c4ebdd;stop-opacity:0"
         offset="1" />
    </linearGradient>
    <linearGradient
       x1="14.084608"
       y1="13.045606"
       x2="16.994024"
       y2="10.732353"
       id="linearGradient3315"
       xlink:href="#linearGradient3503"
       gradientUnits="userSpaceOnUse"
       spreadMethod="reflect" />
    <linearGradient
       id="linearGradient3495">
      <stop
         id="stop3497"
         style="stop-color:#c1cbe4;stop-opacity:1"
         offset="0" />
      <stop
         id="stop3499"
         style="stop-color:#c1cbe4;stop-opacity:0"
         offset="1" />
    </linearGradient>
    <linearGradient
       x1="17.494959"
       y1="11.200086"
       x2="21.047453"
       y2="9.7956104"
       id="linearGradient3313"
       xlink:href="#linearGradient3495"
       gradientUnits="userSpaceOnUse"
       spreadMethod="reflect" />
    <linearGradient
       id="linearGradient3487">
      <stop
         id="stop3489"
         style="stop-color:#e6cde2;stop-opacity:1"
         offset="0" />
      <stop
         id="stop3491"
         style="stop-color:#e6cde2;stop-opacity:0"
         offset="1" />
    </linearGradient>
    <linearGradient
       x1="20.580074"
       y1="10.774516"
       x2="24.27351"
       y2="9.8622112"
       id="linearGradient3311"
       xlink:href="#linearGradient3487"
       gradientUnits="userSpaceOnUse"
       spreadMethod="reflect" />
    <linearGradient
       inkscape:collect="always"
       xlink:href="#linearGradient6036"
       id="linearGradient2453"
       gradientUnits="userSpaceOnUse"
       gradientTransform="matrix(1.3590716,0,0,1.3592434,-0.9233902,-2.848944)"
       x1="10.50172"
       y1="3.6100161"
       x2="48.798885"
       y2="54.698483" />
    <linearGradient
       inkscape:collect="always"
       xlink:href="#linearGradient6036"
       id="linearGradient2462"
       gradientUnits="userSpaceOnUse"
       gradientTransform="matrix(0.59241593,0,0,0.59249062,17.742377,16.319867)"
       x1="18.775953"
       y1="4.0378027"
       x2="18.203465"
       y2="45.962208" />
    <linearGradient
       inkscape:collect="always"
       xlink:href="#linearGradient3428"
       id="linearGradient2465"
       gradientUnits="userSpaceOnUse"
       gradientTransform="matrix(1.2935767,0,0,1.2937404,1.1200857,0.082366)"
       x1="21.448364"
       y1="15.5"
       x2="21.448364"
       y2="32.509201" />
    <linearGradient
       inkscape:collect="always"
       xlink:href="#linearGradient3263"
       id="linearGradient2470"
       gradientUnits="userSpaceOnUse"
       gradientTransform="matrix(0,1.6165737,-1.6163692,0,69.504064,-7.665642)"
       x1="12.2744"
       y1="32.4165"
       x2="35.391201"
       y2="14.2033" />
    <linearGradient
       inkscape:collect="always"
       xlink:href="#linearGradient3772"
       id="linearGradient2472"
       gradientUnits="userSpaceOnUse"
       gradientTransform="matrix(1.3798152,0,0,1.3799898,68.406857,-1.987619)"
       x1="-21.915663"
       y1="3"
       x2="-21.915663"
       y2="45.032898" />
    <radialGradient
       inkscape:collect="always"
       xlink:href="#linearGradient23419"
       id="radialGradient2475"
       gradientUnits="userSpaceOnUse"
       gradientTransform="matrix(1.3415554,0,0,0.39638192,0.86136921,36.018024)"
       cx="23.334524"
       cy="41.63604"
       fx="23.334524"
       fy="41.63604"
       r="22.627417" />
    <linearGradient
       id="linearGradient8838">
      <stop
         id="stop8840"
         style="stop-color:#000000;stop-opacity:1"
         offset="0" />
      <stop
         id="stop8842"
         style="stop-color:#000000;stop-opacity:0"
         offset="1" />
    </linearGradient>
    <linearGradient
       id="linearGradient3242">
      <stop
         id="stop3244"
         style="stop-color:#fadf6e;stop-opacity:1"
         offset="0" />
      <stop
         id="stop3246"
         style="stop-color:#fad350;stop-opacity:1"
         offset="0.26238" />
      <stop
         id="stop3248"
         style="stop-color:#f4b325;stop-opacity:1"
         offset="0.62257278" />
      <stop
         id="stop3250"
         style="stop-color:#ae744f;stop-opacity:1"
         offset="1" />
    </linearGradient>
    <linearGradient
       id="linearGradient2490">
      <stop
         id="stop2492"
         style="stop-color:#866c05;stop-opacity:1;"
         offset="0" />
      <stop
         id="stop2494"
         style="stop-color:#f7c80d;stop-opacity:1;"
         offset="1" />
    </linearGradient>
    <linearGradient
       id="linearGradient4873">
      <stop
         id="stop4875"
         style="stop-color:#ffffff;stop-opacity:1"
         offset="0" />
      <stop
         id="stop4877"
         style="stop-color:#ffffff;stop-opacity:0"
         offset="1" />
    </linearGradient>
    <radialGradient
       inkscape:collect="always"
       xlink:href="#linearGradient3242"
       id="radialGradient5024"
       gradientUnits="userSpaceOnUse"
       gradientTransform="matrix(-2.7360303e-7,1.6996143,-2.2431769,-3.6119683e-7,54.941072,-11.154141)"
       cx="23.895569"
       cy="3.9900076"
       fx="23.895569"
       fy="3.99001"
       r="20.397499" />
    <linearGradient
       inkscape:collect="always"
       xlink:href="#linearGradient2490"
       id="linearGradient5026"
       gradientUnits="userSpaceOnUse"
       gradientTransform="matrix(0.71204163,0,0,0.71213173,28.901783,27.948961)"
       x1="18.379414"
       y1="44.980297"
       x2="18.379412"
       y2="3.0816143" />
    <radialGradient
       inkscape:collect="always"
       xlink:href="#linearGradient8838"
       id="radialGradient5029"
       gradientUnits="userSpaceOnUse"
       gradientTransform="matrix(1.5583796,0,0,0.38964357,-51.602738,55.657927)"
       cx="62.625"
       cy="4.625"
       fx="62.625"
       fy="4.625"
       r="10.625" />
    <radialGradient
       inkscape:collect="always"
       xlink:href="#linearGradient5039"
       id="radialGradient5037"
       cx="35.759037"
       cy="23.538076"
       fx="35.759037"
       fy="23.538076"
       r="11"
       gradientTransform="matrix(-4.8339923e-7,3.1516255,-4.1595634,-6.3815913e-7,143.89892,-83.239972)"
       gradientUnits="userSpaceOnUse" />
    <linearGradient
       inkscape:collect="always"
       xlink:href="#linearGradient5057"
       id="linearGradient5055"
       x1="32.858582"
       y1="46.66407"
       x2="32.858582"
       y2="25.04262"
       gradientUnits="userSpaceOnUse"
       gradientTransform="matrix(1.3798152,0,0,1.3799898,-3.3500791,-4.415083)" />
    <linearGradient
       inkscape:collect="always"
       xlink:href="#linearGradient4873"
       id="linearGradient3746"
       gradientUnits="userSpaceOnUse"
       gradientTransform="matrix(1.4988557,0,0,1.4990113,-44.838211,52.730368)"
       x1="63.397362"
       y1="-17.947781"
       x2="63.397362"
       y2="18.707354" />
  </defs>
  <path
     style="opacity:0.3;fill:url(#radialGradient5029);fill-opacity:1;fill-rule:evenodd;stroke:none;stroke-width:0.99999988;marker:none;visibility:visible;display:inline;overflow:visible"
     id="path8836"
     d="M 62.548565,57.460031 C 62.548565,59.746472 55.135393,61.6 45.990782,61.6 36.846172,61.6 29.433,59.746472 29.433,57.460031 c 0,-2.286442 7.413172,-4.13997 16.557782,-4.13997 9.144611,0 16.557783,1.853528 16.557783,4.13997 l 0,0 z" />
  <path
     style="opacity:0.3;fill:url(#radialGradient2475);fill-opacity:1;fill-rule:evenodd;stroke:none;stroke-width:2;marker:none;visibility:visible;display:inline;overflow:visible"
     id="path23417"
     d="m 62.521862,52.521795 c 0.0015,4.953822 -13.589709,8.969935 -30.355934,8.969935 -16.766226,0 -30.3574981,-4.016113 -30.3559346,-8.969935 -0.00156,-4.95382 13.5897086,-8.969932 30.3559346,-8.969932 16.766225,0 30.357497,4.016112 30.355934,8.969932 l 0,0 z" />
  <path
     style="fill:url(#linearGradient2470);fill-rule:nonzero;stroke:url(#linearGradient2472);stroke-width:1;stroke-miterlimit:4;stroke-opacity:1"
     id="path2781"
     d="m 60.452139,31.132136 c 0,-15.68077 -12.607428,-28.289791 -28.286211,-28.289791 -15.678788,0 -28.2862118,12.609022 -28.2862118,28.289791 -2.8e-6,15.680769 12.6074248,28.289791 28.2862118,28.289791 15.678782,-3e-6 28.286211,-12.609021 28.286211,-28.289791 z m -17.937597,0 c 0,5.696777 -4.538585,10.349924 -10.348614,10.349924 -5.924002,0 -10.348614,-4.768297 -10.348614,-10.349924 0,-5.695636 4.196662,-10.349923 10.348614,-10.349923 6.151951,0 10.348614,4.767133 10.348614,10.349923 z" />
  <path
     style="opacity:0.5;fill:#ffffff;fill-opacity:1;fill-rule:nonzero;stroke:none;stroke-width:1;marker:none;visibility:visible;display:inline;overflow:visible;enable-background:accumulate"
     id="path2474"
     d="m 32.165928,20.092218 c -6.093264,0 -11.038522,4.945883 -11.038522,11.039918 0,6.094035 4.945258,11.039919 11.038522,11.039919 6.093264,0 11.038521,-4.945884 11.038521,-11.039919 0,-6.094035 -4.945257,-11.039918 -11.038521,-11.039918 z m 0,5.519959 c 3.046632,0 5.51926,2.472942 5.51926,5.519959 0,3.047018 -2.472628,5.51996 -5.51926,5.51996 -3.046632,0 -5.519261,-2.472942 -5.519261,-5.51996 0,-3.047017 2.472629,-5.519959 5.519261,-5.519959 z" />
  <path
     style="fill:none;stroke:url(#linearGradient2465);stroke-width:1;stroke-linecap:butt;stroke-linejoin:round;stroke-miterlimit:4;stroke-opacity:1;stroke-dasharray:none;stroke-dashoffset:0;marker:none;visibility:visible;display:inline;overflow:visible;enable-background:accumulate"
     id="path3418"
     d="m 32.165928,20.782213 c -5.712435,0 -10.348614,4.636765 -10.348614,10.349923 0,5.713158 4.636179,10.349924 10.348614,10.349924 5.712435,0 10.348614,-4.636766 10.348614,-10.349924 0,-5.713158 -4.636179,-10.349923 -10.348614,-10.349923 z m 0,5.174961 c 2.856217,0 5.174307,2.318383 5.174307,5.174962 0,2.856579 -2.31809,5.174962 -5.174307,5.174962 -2.856218,0 -5.174307,-2.318383 -5.174307,-5.174962 0,-2.856579 2.318089,-5.174962 5.174307,-5.174962 z" />
  <path
     style="opacity:0.8;fill:none;stroke:url(#linearGradient2462);stroke-width:0.99999982;stroke-miterlimit:4;stroke-opacity:1"
     id="path3281"
     d="m 32.165928,19.402221 c -6.500902,0 -11.72843,5.22819 -11.72843,11.729914 0,6.501724 5.227528,11.729914 11.72843,11.729914 6.500904,0 11.728429,-5.22819 11.728429,-11.729914 0,-6.501724 -5.227525,-11.729914 -11.728429,-11.729914 l 0,0 0,0 0,0 z" />
  <g
     id="g3527"
     transform="matrix(1.3798152,0,0,1.3799898,-0.94963713,-1.987619)">
    <path
       style="opacity:0.8;fill:url(#linearGradient3346);fill-opacity:1;fill-rule:nonzero;stroke:none"
       id="path3296"
       transform="matrix(0.9996011,0.02824295,-0.02824295,0.9996011,0.6924114,-0.6708346)"
       d="M 15.856928,5.7307748 20.625,16.34375 C 21.660403,15.885186 22.795334,15.625 24,15.625 c 0.03206,0 0.06178,-3.6e-4 0.09375,0 L 24.10801,4.0047512 c -2.94215,-0.070687 -5.543041,0.6572865 -8.251083,1.7260236 l 10e-7,0 z" />
    <path
       style="opacity:0.8;fill:url(#linearGradient3348);fill-opacity:1;fill-rule:nonzero;stroke:none"
       id="path3308"
       d="m 12.121471,7.9060109 6.931026,9.3601041 c 0.913109,-0.669755 1.965938,-1.167064 3.142629,-1.425169 0.03132,-0.0069 0.06026,-0.01359 0.09157,-0.02009 L 19.857174,4.426276 c -2.888973,0.5613244 -5.31953,1.8556038 -7.735703,3.4797349 l 0,0 z" />
    <path
       style="opacity:0.8;fill:url(#linearGradient3350);fill-opacity:1;fill-rule:nonzero;stroke:none"
       id="path3310"
       d="m 8.2523933,11.646535 9.2137237,7.155818 c 0.70865,-0.883264 1.596891,-1.636119 2.666685,-2.18998 0.02847,-0.01474 0.05469,-0.02872 0.08325,-0.0431 L 14.86585,6.2506132 C 12.220599,7.5405321 10.165881,9.452393 8.2523933,11.646535 z" />
    <path
       style="opacity:0.8;fill:url(#linearGradient3352);fill-opacity:1;fill-rule:nonzero;stroke:none"
       id="path3312"
       d="m 5.6328855,16.073974 c 7.1748065,2.242248 7.8502625,7.031463 12.7767855,1.754127 L 10.499985,9.1321388 C 8.2787249,11.062747 6.9132871,13.459349 5.6328855,16.073974 z" />
    <path
       style="opacity:0.8;fill:url(#linearGradient3354);fill-opacity:1;fill-rule:nonzero;stroke:none"
       id="path3314"
       d="M 7.155289,13.193173 C 5.9722117,14.945185 5.2475768,16.829547 4.6301929,18.837116 L 15.96875,21.8125 C 16.184264,21.049497 16.486796,20.297733 16.9375,19.59375 16.95479,19.56675 16.98246,19.52673 17,19.5 L 7.155289,13.193173 z" />
  </g>
  <path
     style="opacity:0.4;fill:none;stroke:url(#linearGradient2453);stroke-width:0.99999994;stroke-miterlimit:4;stroke-opacity:1"
     id="path3272"
     d="m 32.165929,4.222336 c -14.913832,0 -26.9063984,11.994085 -26.9063984,26.909802 0,14.915717 11.9925664,26.909798 26.9063984,26.909798 14.913832,0 26.906395,-11.994081 26.906395,-26.909798 0,-14.915717 -11.992563,-26.909802 -26.906395,-26.909802 l 0,0 0,0 z" />
  <g
     id="g3297"
     transform="matrix(-1.3798152,0,0,-1.3799898,65.281491,64.239241)">
    <path
       style="opacity:0.8;fill:url(#linearGradient3311);fill-opacity:1;fill-rule:nonzero;stroke:none"
       id="path3299"
       transform="matrix(0.9996011,0.02824295,-0.02824295,0.9996011,0.6924114,-0.6708346)"
       d="M 15.856928,5.7307748 20.625,16.34375 C 21.660403,15.885186 22.795334,15.625 24,15.625 c 0.03206,0 0.06178,-3.6e-4 0.09375,0 L 24.10801,4.0047512 c -2.94215,-0.070687 -5.543041,0.6572865 -8.251083,1.7260236 l 10e-7,0 z" />
    <path
       style="opacity:0.8;fill:url(#linearGradient3313);fill-opacity:1;fill-rule:nonzero;stroke:none"
       id="path3301"
       d="m 12.121471,7.9060109 6.931026,9.3601041 c 0.913109,-0.669755 1.965938,-1.167064 3.142629,-1.425169 0.03132,-0.0069 0.06026,-0.01359 0.09157,-0.02009 L 19.857174,4.426276 c -2.888973,0.5613244 -5.31953,1.8556038 -7.735703,3.4797349 l 0,0 z" />
    <path
       style="opacity:0.8;fill:url(#linearGradient3315);fill-opacity:1;fill-rule:nonzero;stroke:none"
       id="path3303"
       d="m 8.2523933,11.646535 9.2137237,7.155818 c 0.70865,-0.883264 1.596891,-1.636119 2.666685,-2.18998 0.02847,-0.01474 0.05469,-0.02872 0.08325,-0.0431 L 14.86585,6.2506132 C 12.220599,7.5405321 10.165881,9.452393 8.2523933,11.646535 z" />
    <path
       style="opacity:0.8;fill:url(#linearGradient3317);fill-opacity:1;fill-rule:nonzero;stroke:none"
       id="path3305"
       d="m 5.6328855,16.073974 c 7.1748065,2.242248 7.8502625,7.031463 12.7767855,1.754127 L 10.499985,9.1321388 C 8.2787249,11.062747 6.9132871,13.459349 5.6328855,16.073974 z" />
    <path
       style="opacity:0.8;fill:url(#linearGradient3319);fill-opacity:1;fill-rule:nonzero;stroke:none"
       id="path3307"
       d="M 7.155289,13.193173 C 5.9722117,14.945185 5.2475768,16.829547 4.6301929,18.837116 L 15.96875,21.8125 C 16.184264,21.049497 16.486796,20.297733 16.9375,19.59375 16.95479,19.56675 16.98246,19.52673 17,19.5 L 7.155289,13.193173 z" />
  </g>
  <path
     style="fill:url(#radialGradient5024);fill-opacity:1;stroke:url(#linearGradient5026);stroke-width:1.00365424;stroke-linecap:round;stroke-linejoin:round;stroke-miterlimit:4;stroke-opacity:1;stroke-dasharray:none;stroke-dashoffset:0"
     id="path2555"
     d="m 45.990785,30.552692 c -7.992653,0 -14.485599,6.493766 -14.485599,14.487429 0,7.993665 6.492946,14.487435 14.485599,14.487431 7.992649,0 14.485602,-6.493766 14.485594,-14.487431 0,-7.993663 -6.492945,-14.487429 -14.485594,-14.487429 z" />
  <path
     style="color:#000000;fill:url(#radialGradient5037);fill-opacity:1;fill-rule:nonzero;stroke:url(#linearGradient5055);stroke-width:1;stroke-linecap:round;stroke-linejoin:round;stroke-miterlimit:4;stroke-opacity:1;stroke-dasharray:none;stroke-dashoffset:0.44999996;marker:none;visibility:visible;display:inline;overflow:visible;enable-background:accumulate"
     d="m 38.173735,32.887766 c -4.005513,2.579778 -6.68348,7.04918 -6.68348,12.16116 0,0.235159 0.03201,0.457559 0.04312,0.689995 l 14.056867,0 -7.416506,-12.851155 z m 15.652278,0 -7.416506,12.851155 14.013748,0 c 0.01118,-0.232436 0.04312,-0.454836 0.04312,-0.689995 0,-3.264888 -1.102245,-6.28915 -2.932107,-8.711185 -0.30977,-0.410016 -0.649348,-0.792005 -0.991743,-1.164367 -0.04115,-0.04387 -0.08767,-0.08603 -0.129357,-0.129374 -0.390358,-0.406013 -0.815659,-0.805647 -1.250458,-1.164366 -0.216592,-0.177261 -0.426862,-0.352622 -0.646788,-0.517496 -0.227236,-0.165375 -0.458157,-0.31966 -0.689908,-0.474372 z m -7.847699,13.54115 -6.597241,11.471165 c 1.983942,1.022019 4.214396,1.63874 6.597241,1.638738 2.393653,0 4.649842,-0.608031 6.640361,-1.638738 L 45.978314,46.428916 z"
     id="rect4411"
     sodipodi:nodetypes="csccccccsssssscccscc" />
  <path
     sodipodi:type="inkscape:offset"
     inkscape:radius="0.34021315"
     inkscape:original="M 48.40625 34.34375 C 41.1667 34.34375 35.28125 40.228453 35.28125 47.46875 C 35.28125 54.709318 41.1667 60.5625 48.40625 60.5625 C 55.645133 60.5625 61.5 54.709383 61.5 47.46875 C 61.5 40.228453 55.645133 34.34375 48.40625 34.34375 z "
     style="opacity:0.4;fill:none;stroke:url(#linearGradient3746);stroke-width:0.99999994;stroke-miterlimit:4;stroke-opacity:1;stroke-dasharray:none"
     id="path3744"
     d="m 48.40625,34 c -7.423913,0 -13.46875,6.044086 -13.46875,13.46875 0,7.424928 6.045825,13.4375 13.46875,13.4375 7.422273,0 13.4375,-6.013467 13.4375,-13.4375 C 61.84375,40.045044 55.829513,34 48.40625,34 z"
     transform="translate(-2.400442,-2.427464)" />
</svg>
