<?xml version="1.0" encoding="UTF-8" standalone="no"?>
<!-- Created with Inkscape (http://www.inkscape.org/) -->

<svg
   xmlns:dc="http://purl.org/dc/elements/1.1/"
   xmlns:cc="http://creativecommons.org/ns#"
   xmlns:rdf="http://www.w3.org/1999/02/22-rdf-syntax-ns#"
   xmlns:svg="http://www.w3.org/2000/svg"
   xmlns="http://www.w3.org/2000/svg"
   xmlns:xlink="http://www.w3.org/1999/xlink"
   xmlns:sodipodi="http://sodipodi.sourceforge.net/DTD/sodipodi-0.dtd"
   xmlns:inkscape="http://www.inkscape.org/namespaces/inkscape"
   version="1.1"
   width="64"
   height="64"
   id="svg4161"
   inkscape:version="0.48.4 r9939"
   sodipodi:docname="accessories-calculator.svg">
  <sodipodi:namedview
     pagecolor="#ffffff"
     bordercolor="#666666"
     borderopacity="1"
     objecttolerance="10"
     gridtolerance="10"
     guidetolerance="10"
     inkscape:pageopacity="0"
     inkscape:pageshadow="2"
     inkscape:window-width="1364"
     inkscape:window-height="700"
     id="namedview45"
     showgrid="false"
     showborder="false"
     inkscape:snap-bbox="true"
     inkscape:bbox-paths="true"
     inkscape:bbox-nodes="true"
     inkscape:snap-bbox-edge-midpoints="true"
     inkscape:snap-bbox-midpoints="true"
     inkscape:zoom="1"
     inkscape:cx="26.567955"
     inkscape:cy="25.217836"
     inkscape:window-x="0"
     inkscape:window-y="28"
     inkscape:window-maximized="1"
     inkscape:current-layer="layer2">
    <inkscape:grid
       type="xygrid"
       id="grid3913"
       empspacing="4"
       visible="true"
       enabled="true"
       snapvisiblegridlinesonly="true" />
  </sodipodi:namedview>
  <defs
     id="defs4163">
    <linearGradient
       inkscape:collect="always"
       id="linearGradient3905">
      <stop
         style="stop-color:#ffffff;stop-opacity:1;"
         offset="0"
         id="stop3907" />
      <stop
         style="stop-color:#ffffff;stop-opacity:0;"
         offset="1"
         id="stop3909" />
    </linearGradient>
    <linearGradient
       id="linearGradient3688-166-749-4-0-3-8">
      <stop
         id="stop2883-4-0-1-8"
         style="stop-color:#181818;stop-opacity:1"
         offset="0" />
      <stop
         id="stop2885-9-2-9-6"
         style="stop-color:#181818;stop-opacity:0"
         offset="1" />
    </linearGradient>
    <linearGradient
       id="linearGradient3688-464-309-9-2-4-2">
      <stop
         id="stop2889-7-9-6-9"
         style="stop-color:#181818;stop-opacity:1"
         offset="0" />
      <stop
         id="stop2891-6-6-1-7"
         style="stop-color:#181818;stop-opacity:0"
         offset="1" />
    </linearGradient>
    <linearGradient
       id="linearGradient3702-501-757-8-4-1-1">
      <stop
         id="stop2895-8-9-9-1"
         style="stop-color:#181818;stop-opacity:0"
         offset="0" />
      <stop
         id="stop2897-7-8-7-7"
         style="stop-color:#181818;stop-opacity:1"
         offset="0.5" />
      <stop
         id="stop2899-4-5-1-5"
         style="stop-color:#181818;stop-opacity:0"
         offset="1" />
    </linearGradient>
    <linearGradient
       inkscape:collect="always"
       xlink:href="#linearGradient3702-501-757-8-4-1-1"
       id="linearGradient3897"
       gradientUnits="userSpaceOnUse"
       x1="25.058096"
       y1="47.027729"
       x2="25.058096"
       y2="39.999443"
       gradientTransform="matrix(1.5789502,0,0,0.7142857,-5.894751,27.928572)" />
    <radialGradient
       inkscape:collect="always"
       xlink:href="#linearGradient3688-464-309-9-2-4-2"
       id="radialGradient3900"
       gradientUnits="userSpaceOnUse"
       gradientTransform="matrix(3.1638751,0,0,0.99999998,-25.702995,-102.5)"
       cx="4.9929786"
       cy="43.5"
       fx="4.9929786"
       fy="43.5"
       r="2.5" />
    <radialGradient
       inkscape:collect="always"
       xlink:href="#linearGradient3688-166-749-4-0-3-8"
       id="radialGradient3903"
       gradientUnits="userSpaceOnUse"
       gradientTransform="matrix(3.1638751,0,0,0.99999998,38.297112,15.500001)"
       cx="4.9929786"
       cy="43.5"
       fx="4.9929786"
       fy="43.5"
       r="2.5" />
    <linearGradient
       inkscape:collect="always"
       xlink:href="#linearGradient3905"
       id="linearGradient3911"
       x1="32"
       y1="4"
       x2="32"
       y2="60"
       gradientUnits="userSpaceOnUse" />
    <linearGradient
       id="linearGradient5618">
      <stop
         style="stop-color:#3e3e3e;stop-opacity:1;"
         offset="0"
         id="stop5620" />
      <stop
         style="stop-color:#595959;stop-opacity:1;"
         offset="1"
         id="stop5622" />
    </linearGradient>
    <linearGradient
       id="outerBackgroundGradient-0">
      <stop
         style="stop-color:#3f3f3f;stop-opacity:1;"
         offset="0"
         id="stop3864-8-6-9" />
      <stop
         id="stop4668"
         offset="0.5"
         style="stop-color:#595959;stop-opacity:1;" />
      <stop
         id="stop4666"
         offset="0.5"
         style="stop-color:#3f3f3f;stop-opacity:1;" />
      <stop
         style="stop-color:#595959;stop-opacity:1;"
         offset="1"
         id="stop3866-9-1-6" />
    </linearGradient>
    <linearGradient
       inkscape:collect="always"
       xlink:href="#linearGradient4163"
       id="linearGradient4172"
       gradientUnits="userSpaceOnUse"
       gradientTransform="matrix(0,-1,1,0,148,492)"
       x1="291"
       y1="172"
       x2="349"
       y2="172" />
    <linearGradient
       id="linearGradient4163">
      <stop
         id="stop4165"
         offset="0"
         style="stop-color:#f55c11;stop-opacity:1;" />
      <stop
         style="stop-color:#ff8431;stop-opacity:1;"
         offset="0.5"
         id="stop4672" />
      <stop
         style="stop-color:#ee7d1a;stop-opacity:1;"
         offset="1"
         id="stop4670" />
    </linearGradient>
    <linearGradient
       inkscape:collect="always"
       xlink:href="#outerBackgroundGradient-0"
       id="linearGradient4215"
       gradientUnits="userSpaceOnUse"
       gradientTransform="matrix(0,-1,-1,0,64,64)"
       x1="4.5"
       y1="32"
       x2="59.5"
       y2="32" />
    <linearGradient
       inkscape:collect="always"
       xlink:href="#linearGradient4163"
       id="linearGradient4229"
       gradientUnits="userSpaceOnUse"
       gradientTransform="matrix(0,-1,-1,0,64,64)"
       x1="4.5"
       y1="32"
       x2="59.5"
       y2="32" />
  </defs>
  <metadata
     id="metadata4166">
    <rdf:RDF>
      <cc:Work
         rdf:about="">
        <dc:format>image/svg+xml</dc:format>
        <dc:type
           rdf:resource="http://purl.org/dc/dcmitype/StillImage" />
        <dc:title></dc:title>
      </cc:Work>
    </rdf:RDF>
  </metadata>
  <g
     inkscape:groupmode="layer"
     id="layer1"
     inkscape:label="Background"
     style="display:inline">
    <rect
       width="7.8947511"
       height="5"
       x="54.105358"
       y="56.5"
       id="rect2801-5-5-7-9"
       style="opacity:0.6;fill:url(#radialGradient3903);fill-opacity:1;stroke:none" />
    <rect
       width="7.8947511"
       height="5"
       x="-9.8947506"
       y="-61.5"
       transform="scale(-1,-1)"
       id="rect3696-3-0-3-7"
       style="opacity:0.6;fill:url(#radialGradient3900);fill-opacity:1;stroke:none" />
    <rect
       width="44.210606"
       height="5.0000005"
       x="9.8947506"
       y="56.5"
       id="rect3700-5-6-8-4"
       style="opacity:0.6;fill:url(#linearGradient3897);fill-opacity:1;stroke:none" />
    <path
       style="color:#000000;fill:url(#linearGradient4215);fill-opacity:1;fill-rule:nonzero;stroke:none;stroke-width:0.99999994000000003;marker:none;visibility:visible;display:inline;overflow:visible;enable-background:accumulate"
       d="M 7.5 4.5 C 5.838 4.5 4.5 5.838 4.5 7.5 L 4.5 56.5 C 4.5 58.162 5.838 59.5 7.5 59.5 L 32 59.5 L 32 32 L 59.5 32 L 59.5 7.5 C 59.5 5.838 58.162 4.5 56.5 4.5 L 7.5 4.5 z "
       id="rect5505-21-3-8-5-2" />
    <path
       style="color:#000000;fill:url(#linearGradient4229);fill-opacity:1;fill-rule:nonzero;stroke:none;stroke-width:0.99999994000000003;marker:none;visibility:visible;display:inline;overflow:visible;enable-background:accumulate"
       d="M 32 32 L 32 59.5 L 56.5 59.5 C 58.162 59.5 59.5 58.162 59.5 56.5 L 59.5 32 L 32 32 z "
       id="rect4224" />
    <rect
       style="opacity:0.1;fill:none;stroke:url(#linearGradient3911);stroke-width:1;stroke-linecap:round;stroke-linejoin:round;stroke-miterlimit:4;stroke-opacity:1;stroke-dasharray:none;stroke-dashoffset:0"
       id="rect6741-5-0-2-3"
       y="5.4287739"
       x="5.4999986"
       ry="2"
       rx="2"
       height="53.142479"
       width="53" />
    <rect
       style="opacity:0.61000001;color:#000000;fill:none;stroke:#000000;stroke-width:1;stroke-linecap:round;stroke-linejoin:round;stroke-miterlimit:4;stroke-opacity:1;stroke-dasharray:none;stroke-dashoffset:0;marker:none;visibility:visible;display:inline;overflow:visible;enable-background:accumulate"
       id="rect5505-21-3-8-9-1-1"
       y="4.5000019"
       x="4.4999986"
       ry="3"
       rx="3"
       height="55"
       width="55" />
    <path
       style="opacity:0.15;color:#000000;fill:#ffffff;fill-opacity:1;fill-rule:nonzero;stroke:none;stroke-width:0.99999994;marker:none;visibility:visible;display:inline;overflow:visible;enable-background:accumulate"
       d="M 7.5,5 C 6.1063514,5 5,6.1063514 5,7.5 l 0,1 C 5,7.1063514 6.1063514,6 7.5,6 l 49,0 C 57.893649,6 59,7.1063514 59,8.5 l 0,-1 C 59,6.1063514 57.893649,5 56.5,5 l -49,0 z"
       id="rect3932"
       inkscape:connector-curvature="0" />
    <path
       id="path3946"
       d="M 7.5,59 C 6.1063514,59 5,57.893649 5,56.5 l 0,-1 C 5,56.893649 6.1063514,58 7.5,58 l 49,0 c 1.393649,0 2.5,-1.106351 2.5,-2.5 l 0,1 c 0,1.393649 -1.106351,2.5 -2.5,2.5 l -49,0 z"
       style="opacity:0.15;color:#000000;fill:#ffffff;fill-opacity:1;fill-rule:nonzero;stroke:none;stroke-width:0.99999994;marker:none;visibility:visible;display:inline;overflow:visible;enable-background:accumulate"
       inkscape:connector-curvature="0" />
    <path
       style="opacity:0.15;color:#000000;fill:#ffffff;fill-opacity:1;fill-rule:nonzero;stroke:none;stroke-width:0.99999994;marker:none;visibility:visible;display:inline;overflow:visible;enable-background:accumulate"
       d="M 7.5 5 C 6.1063514 5 5 6.1063514 5 7.5 L 5 8.5 L 5 31 L 6 31 L 6 7.5 C 6 7.0644847 6.1214113 6.6669069 6.3125 6.3125 C 6.6669069 6.1214113 7.0644848 6 7.5 6 L 31 6 L 31 5 L 8.5 5 L 7.5 5 z M 32 5 L 32 6 L 32 31 L 33 31 L 33 6 L 56.5 6 C 57.893649 6 59 7.1063514 59 8.5 L 59 7.5 C 59 6.1063514 57.893649 5 56.5 5 L 33 5 L 32 5 z M 5 32 L 5 33 L 5 56.5 C 5 57.893649 6.106351 59 7.5 59 L 8.5 59 C 7.106351 59 6 57.893649 6 56.5 L 6 33 L 31 33 L 31 32 L 6 32 L 5 32 z M 32 32 L 32 59 L 33 59 L 33 33 L 59 33 L 59 32 L 32 32 z "
       id="path4260" />
  </g>
  <g
     inkscape:groupmode="layer"
     id="layer2"
     inkscape:label="Symbol"
     style="display:inline">
    <path
       sodipodi:nodetypes="ccccc"
       d="m 51,17 0,3 -11,0 0,-3 z"
       style="font-size:9.881423px;font-style:normal;font-variant:normal;font-weight:normal;font-stretch:normal;line-height:125%;letter-spacing:0px;word-spacing:0px;opacity:0.2;fill:#000000;fill-opacity:1;stroke:none;display:inline;enable-background:new;font-family:Helvetica;-inkscape-font-specification:Helvetica"
       id="path4355"
       inkscape:connector-curvature="0" />
    <path
       inkscape:connector-curvature="0"
       style="font-size:medium;font-style:normal;font-variant:normal;font-weight:normal;font-stretch:normal;text-indent:0;text-align:start;text-decoration:none;line-height:normal;letter-spacing:normal;word-spacing:normal;text-transform:none;direction:ltr;block-progression:tb;writing-mode:lr-tb;text-anchor:start;baseline-shift:baseline;opacity:0.2;color:#000000;fill:#000000;fill-opacity:1;stroke:none;stroke-width:10.99999809;marker:none;visibility:visible;display:inline;overflow:visible;enable-background:new;font-family:Sans;-inkscape-font-specification:Sans"
       d="m 12.00005,40 0,1.375 c 0,0.37969 0.15742,0.71992 0.40625,0.96875 0.0311,0.0311 0.0598,0.0657 0.0937,0.0937 l 3.0625,3.0625 -3.0625,3.0625 c -0.30559,0.25219 -0.5,0.63534 -0.5,1.0625 l 0,1.375 1.375,0 c 0.42716,0 0.8103,-0.19441 1.0625,-0.5 l 3.0625,-3.0625 3.0625,3.0625 0.0937,0.0937 C 20.90512,50.84257 21.24535,51 21.62505,51 l 1.375,0 0,-1.375 c 0,-0.3797 -0.15743,-0.71993 -0.40625,-0.96875 -0.0311,-0.0311 -0.0598,-0.0657 -0.0937,-0.0937 l -3.0625,-3.0625 3.15625,-3.15625 c 0.24877,-0.24888 0.4062,-0.58911 0.4062,-0.9688 l 0,-1.375 -1.375,0 c -0.42716,0 -0.8103,0.19441 -1.0625,0.5 l -3.0625,3.0625 -3.0625,-3.0625 c -0.028,-0.034 -0.0627,-0.0626 -0.0937,-0.0937 C 14.09497,40.15742 13.75475,40 13.37505,40 l -1.375,0 z"
       id="path4357" />
    <path
       inkscape:connector-curvature="0"
       style="opacity:0.2;color:#000000;fill:#000000;fill-opacity:1;fill-rule:nonzero;stroke:none;stroke-width:2;marker:none;visibility:visible;display:inline;overflow:visible;enable-background:new"
       d="m 16.00005,13 0,4 -4,0 0,3 4,0 0,4 3,0 0,-4 4,0 0,-3 -4,0 0,-4 -3,0 z"
       id="path4359" />
    <path
       inkscape:connector-curvature="0"
       style="opacity:0.2;color:#000000;fill:#000000;fill-opacity:1;fill-rule:nonzero;stroke:none;stroke-width:2;marker:none;visibility:visible;display:inline;overflow:visible;enable-background:new"
       d="m 40,41 0,3 11,0 0,-3 -11,0 z m 0,6 0,3 11,0 0,-3 -11,0 z"
       id="rect4361" />
    <path
       inkscape:connector-curvature="0"
       id="path4323"
       style="font-size:9.881423px;font-style:normal;font-variant:normal;font-weight:normal;font-stretch:normal;line-height:125%;letter-spacing:0px;word-spacing:0px;fill:#ffffff;fill-opacity:1;stroke:none;display:inline;enable-background:new;font-family:Helvetica;-inkscape-font-specification:Helvetica"
       d="m 51,16 0,3 -11,0 0,-3 z"
       sodipodi:nodetypes="ccccc" />
    <path
       id="path4325"
       d="m 12.00005,39 0,1.375 c 0,0.37969 0.15742,0.71992 0.40625,0.96875 0.0311,0.0311 0.0598,0.0657 0.0937,0.0937 l 3.0625,3.0625 -3.0625,3.0625 c -0.30559,0.25219 -0.5,0.63534 -0.5,1.0625 l 0,1.375 1.375,0 c 0.42716,0 0.8103,-0.19441 1.0625,-0.5 l 3.0625,-3.0625 3.0625,3.0625 0.0937,0.0937 C 20.90512,49.84257 21.24535,50 21.62505,50 l 1.375,0 0,-1.375 c 0,-0.3797 -0.15743,-0.71993 -0.40625,-0.96875 -0.0311,-0.0311 -0.0598,-0.0657 -0.0937,-0.0937 l -3.0625,-3.0625 3.15625,-3.15625 c 0.24877,-0.24888 0.4062,-0.58911 0.4062,-0.9688 l 0,-1.375 -1.375,0 c -0.42716,0 -0.8103,0.19441 -1.0625,0.5 l -3.0625,3.0625 -3.0625,-3.0625 c -0.028,-0.034 -0.0627,-0.0626 -0.0937,-0.0937 C 14.09497,39.15742 13.75475,39 13.37505,39 l -1.375,0 z"
       style="font-size:medium;font-style:normal;font-variant:normal;font-weight:normal;font-stretch:normal;text-indent:0;text-align:start;text-decoration:none;line-height:normal;letter-spacing:normal;word-spacing:normal;text-transform:none;direction:ltr;block-progression:tb;writing-mode:lr-tb;text-anchor:start;baseline-shift:baseline;color:#000000;fill:#ffffff;fill-opacity:1;stroke:none;stroke-width:10.99999809;marker:none;visibility:visible;display:inline;overflow:visible;enable-background:new;font-family:Sans;-inkscape-font-specification:Sans"
       inkscape:connector-curvature="0" />
    <path
       id="path4327"
       d="m 16.00005,12 0,4 -4,0 0,3 4,0 0,4 3,0 0,-4 4,0 0,-3 -4,0 0,-4 -3,0 z"
       style="color:#000000;fill:#ffffff;fill-opacity:1;fill-rule:nonzero;stroke:none;stroke-width:2;marker:none;visibility:visible;display:inline;overflow:visible;enable-background:new"
       inkscape:connector-curvature="0" />
    <path
       inkscape:connector-curvature="0"
       style="color:#000000;fill:#ffffff;fill-opacity:1;fill-rule:nonzero;stroke:none;stroke-width:2;marker:none;visibility:visible;display:inline;overflow:visible;enable-background:new"
       d="m 40,40 0,3 11,0 0,-3 -11,0 z m 0,6 0,3 11,0 0,-3 -11,0 z"
       id="rect4329" />
    <path
       inkscape:connector-curvature="0"
       style="opacity:0.2;fill:#000000;fill-opacity:1;stroke:none;display:inline;enable-background:new"
       d="m 30.999999,5.0000019 0,26.0000001 -26.0000004,0 0,1 26.0000004,0 0,27 1,0 0,-27 27,0 0,-1 -27,0 0,-26.0000001 z"
       id="rect4338"
       sodipodi:nodetypes="ccccccccccccc" />
  </g>
</svg>
