<?xml version="1.0" encoding="UTF-8" standalone="no"?>
<!-- Created with Inkscape (http://www.inkscape.org/) -->

<svg
   xmlns:dc="http://purl.org/dc/elements/1.1/"
   xmlns:cc="http://creativecommons.org/ns#"
   xmlns:rdf="http://www.w3.org/1999/02/22-rdf-syntax-ns#"
   xmlns:svg="http://www.w3.org/2000/svg"
   xmlns="http://www.w3.org/2000/svg"
   xmlns:xlink="http://www.w3.org/1999/xlink"
   xmlns:sodipodi="http://sodipodi.sourceforge.net/DTD/sodipodi-0.dtd"
   xmlns:inkscape="http://www.inkscape.org/namespaces/inkscape"
   version="1.0"
   width="64"
   height="64"
   id="svg11300"
   style="display:inline;enable-background:new"
   inkscape:version="0.48.3.1 r9886"
   sodipodi:docname="kdenlive.svg">
  <metadata
     id="metadata62">
    <rdf:RDF>
      <cc:Work
         rdf:about="">
        <dc:format>image/svg+xml</dc:format>
        <dc:type
           rdf:resource="http://purl.org/dc/dcmitype/StillImage" />
        <dc:title>Candy Icon Theme</dc:title>
      </cc:Work>
    </rdf:RDF>
  </metadata>
  <sodipodi:namedview
     pagecolor="#ffffff"
     bordercolor="#666666"
     borderopacity="1"
     objecttolerance="10"
     gridtolerance="10"
     guidetolerance="10"
     inkscape:pageopacity="0"
     inkscape:pageshadow="2"
     inkscape:window-width="1920"
     inkscape:window-height="1032"
     id="namedview60"
     showgrid="true"
     inkscape:zoom="6.703125"
     inkscape:cx="64"
     inkscape:cy="58.032634"
     inkscape:window-x="0"
     inkscape:window-y="26"
     inkscape:window-maximized="1"
     inkscape:current-layer="layer1"
     showguides="false"
     inkscape:snap-global="false">
    <inkscape:grid
       type="xygrid"
       id="grid3100"
       empspacing="5"
       visible="true"
       enabled="true"
       snapvisiblegridlinesonly="true" />
  </sodipodi:namedview>
  <title
     id="title2897">Candy Icon Theme</title>
  <defs
     id="defs3">
    <linearGradient
       id="linearGradient3616">
      <stop
         id="stop3618"
         style="stop-color:#000000;stop-opacity:0"
         offset="0" />
      <stop
         id="stop3620"
         style="stop-color:#000000;stop-opacity:1"
         offset="1" />
    </linearGradient>
    <linearGradient
       id="linearGradient2831-3">
      <stop
         id="stop2833-9"
         style="stop-color:#729fcf;stop-opacity:1"
         offset="0" />
      <stop
         id="stop2835-7"
         style="stop-color:#729fcf;stop-opacity:0"
         offset="1" />
    </linearGradient>
    <linearGradient
       id="linearGradient3922">
      <stop
         id="stop3924"
         style="stop-color:#316297;stop-opacity:1"
         offset="0" />
      <stop
         id="stop3926"
         style="stop-color:#6da3dd;stop-opacity:1"
         offset="1" />
    </linearGradient>
    <linearGradient
       id="linearGradient3596">
      <stop
         id="stop3598"
         style="stop-color:#1e1e1e;stop-opacity:1"
         offset="0" />
      <stop
         id="stop3600"
         style="stop-color:#505050;stop-opacity:1"
         offset="1" />
    </linearGradient>
    <linearGradient
       id="linearGradient3652">
      <stop
         id="stop3654"
         style="stop-color:#000000;stop-opacity:1"
         offset="0" />
      <stop
         id="stop3656"
         style="stop-color:#323232;stop-opacity:1"
         offset="1" />
    </linearGradient>
    <linearGradient
       id="linearGradient5594">
      <stop
         id="stop5596"
         style="stop-color:#ffffff;stop-opacity:1"
         offset="0" />
      <stop
         id="stop5598"
         style="stop-color:#ffffff;stop-opacity:0"
         offset="1" />
    </linearGradient>
    <linearGradient
       id="linearGradient3667">
      <stop
         id="stop3669"
         style="stop-color:#2b4561;stop-opacity:1"
         offset="0" />
      <stop
         id="stop3671"
         style="stop-color:#4a85c4;stop-opacity:1"
         offset="1" />
    </linearGradient>
    <linearGradient
       x1="158"
       y1="6"
       x2="158"
       y2="-38"
       id="linearGradient4739"
       xlink:href="#linearGradient3667"
       gradientUnits="userSpaceOnUse"
       gradientTransform="matrix(1.837297,0,0,0.83873012,-118.00009,41.847858)" />
    <radialGradient
       cx="158"
       cy="8.3000002"
       r="14"
       fx="158"
       fy="8.3000002"
       id="radialGradient4742"
       xlink:href="#linearGradient5594"
       gradientUnits="userSpaceOnUse"
       gradientTransform="matrix(1.754806,0,0,0.29954645,-104.96651,-45.350123)" />
    <radialGradient
       cx="158"
       cy="11.484326"
       r="19"
       fx="158"
       fy="11.484326"
       id="radialGradient4745"
       xlink:href="#linearGradient5594"
       gradientUnits="userSpaceOnUse"
       gradientTransform="matrix(3.1024933,6.2386781e-8,-5.0740095e-8,4.5633972,-423.19392,-25.021195)" />
    <radialGradient
       cx="158"
       cy="11.484326"
       r="19"
       fx="158"
       fy="11.484326"
       id="radialGradient4748"
       xlink:href="#linearGradient3616"
       gradientUnits="userSpaceOnUse"
       gradientTransform="matrix(3.1024933,6.2386777e-8,-5.0740095e-8,4.5633971,-423.19391,-25.021195)" />
    <linearGradient
       x1="14.875"
       y1="37.75"
       x2="23.375"
       y2="37.75"
       id="linearGradient4754"
       xlink:href="#linearGradient2831-3"
       gradientUnits="userSpaceOnUse"
       gradientTransform="matrix(4.703535,0,1.8141274,4.9090907,-79.43726,-128.81816)" />
    <linearGradient
       x1="158"
       y1="49"
       x2="158"
       y2="5"
       id="linearGradient4759"
       xlink:href="#linearGradient3667"
       gradientUnits="userSpaceOnUse"
       gradientTransform="matrix(1.837297,0,0,0.83873012,-118.00009,-48.735003)" />
    <linearGradient
       x1="158"
       y1="49"
       x2="158"
       y2="5"
       id="linearGradient4766"
       xlink:href="#linearGradient3922"
       gradientUnits="userSpaceOnUse"
       gradientTransform="matrix(1.4099206,0.96060919,-1.2551481,1.7505339,-47.17392,-101.07965)" />
    <linearGradient
       x1="158"
       y1="49"
       x2="158"
       y2="5"
       id="linearGradient4769"
       xlink:href="#linearGradient3596"
       gradientUnits="userSpaceOnUse"
       gradientTransform="matrix(1.5629977,1.064904,-1.2729718,1.7753923,-71.593313,-120.74538)" />
    <linearGradient
       x1="155"
       y1="49"
       x2="155"
       y2="5"
       id="linearGradient4771"
       xlink:href="#linearGradient3652"
       gradientUnits="userSpaceOnUse"
       gradientTransform="matrix(1.5629977,1.064904,-1.2729718,1.7753923,-71.593313,-120.74538)" />
    <filter
       x="-0.085959181"
       y="-0.84240001"
       width="1.1719184"
       height="2.6847999"
       color-interpolation-filters="sRGB"
       id="filter4905">
      <feGaussianBlur
         stdDeviation="3.51"
         id="feGaussianBlur4907" />
    </filter>
    <radialGradient
       cx="62.625"
       cy="4.625"
       r="10.625"
       fx="62.625"
       fy="4.625"
       id="radialGradient3534"
       xlink:href="#linearGradient8838"
       gradientUnits="userSpaceOnUse"
       gradientTransform="matrix(2.1647059,0,0,0.7529402,-111.56471,36.517647)" />
    <linearGradient
       id="linearGradient8838">
      <stop
         id="stop8840"
         style="stop-color:black;stop-opacity:1"
         offset="0" />
      <stop
         id="stop8842"
         style="stop-color:black;stop-opacity:0"
         offset="1" />
    </linearGradient>
    <radialGradient
       cx="23.895569"
       cy="3.9900031"
       r="20.397499"
       fx="23.895569"
       fy="3.9900031"
       id="radialGradient3529"
       xlink:href="#linearGradient3242-187-536"
       gradientUnits="userSpaceOnUse"
       gradientTransform="matrix(0,2.2874593,-3.0194057,0,36.047437,-50.630156)" />
    <linearGradient
       id="linearGradient3242-187-536">
      <stop
         id="stop2782"
         style="stop-color:#ffffff;stop-opacity:1;"
         offset="0" />
      <stop
         id="stop2784"
         style="stop-color:#d8d5d5;stop-opacity:1;"
         offset="1" />
    </linearGradient>
    <linearGradient
       x1="18.379412"
       y1="44.980297"
       x2="18.379412"
       y2="3.0816143"
       id="linearGradient3531"
       xlink:href="#linearGradient2490-182-124"
       gradientUnits="userSpaceOnUse"
       gradientTransform="matrix(0.9584364,0,0,0.9584366,0.9975246,1.9975253)" />
    <linearGradient
       id="linearGradient2490-182-124">
      <stop
         id="stop2788"
         style="stop-color:#7f7f7f;stop-opacity:1;"
         offset="0" />
      <stop
         id="stop2790"
         style="stop-color:#b7b7b7;stop-opacity:1;"
         offset="1" />
    </linearGradient>
    <linearGradient
       x1="63.397362"
       y1="-12.489107"
       x2="63.397362"
       y2="5.4675598"
       id="linearGradient3526"
       xlink:href="#linearGradient4873"
       gradientUnits="userSpaceOnUse"
       gradientTransform="matrix(2.1153735,0,0,2.1153253,-107.57709,32.426559)" />
    <linearGradient
       id="linearGradient4873">
      <stop
         id="stop4875"
         style="stop-color:white;stop-opacity:1"
         offset="0" />
      <stop
         id="stop4877"
         style="stop-color:white;stop-opacity:0"
         offset="1" />
    </linearGradient>
    <radialGradient
       r="10.625"
       fy="4.625"
       fx="62.625"
       cy="4.625"
       cx="62.625"
       gradientTransform="matrix(2.1647059,0,0,0.7529402,-111.56471,36.517647)"
       gradientUnits="userSpaceOnUse"
       id="radialGradient3969"
       xlink:href="#linearGradient8838"
       inkscape:collect="always" />
    <linearGradient
       id="linearGradient3343"
       y2="92.621162"
       gradientUnits="userSpaceOnUse"
       x2="78.94915"
       gradientTransform="matrix(1.1476,0,0,1.0201,-71.942133,-65.101347)"
       y1="76.020393"
       x1="79.480911"
       spreadMethod="pad">
      <stop
         id="stop2266"
         style="stop-color:#d7e866"
         offset="0" />
      <stop
         id="stop2268"
         style="stop-color:#8cab2a"
         offset="1" />
    </linearGradient>
    <linearGradient
       id="linearGradient3339"
       y2="46.874001"
       gradientUnits="userSpaceOnUse"
       x2="13.759"
       gradientTransform="matrix(0.9547,0,0,0.92917,0.89918,2.1998)"
       y1="14.66"
       x1="34.403999">
      <stop
         id="stop4224"
         style="stop-color:#fff"
         offset="0" />
      <stop
         id="stop4226"
         style="stop-color:#fff;stop-opacity:0"
         offset="1" />
    </linearGradient>
    <linearGradient
       inkscape:collect="always"
       xlink:href="#linearGradient3596"
       id="linearGradient3112"
       gradientUnits="userSpaceOnUse"
       gradientTransform="matrix(1.6198295,1.1036247,-1.3192581,1.839947,-63.923052,-134.78715)"
       x1="158"
       y1="49"
       x2="158"
       y2="5" />
    <linearGradient
       inkscape:collect="always"
       xlink:href="#linearGradient3652"
       id="linearGradient3114"
       gradientUnits="userSpaceOnUse"
       gradientTransform="matrix(1.6198295,1.1036247,-1.3192581,1.839947,-63.923052,-134.78715)"
       x1="155"
       y1="49"
       x2="155"
       y2="5" />
    <linearGradient
       inkscape:collect="always"
       xlink:href="#linearGradient3922"
       id="linearGradient3116"
       gradientUnits="userSpaceOnUse"
       gradientTransform="matrix(1.4611864,0.99553765,-1.3007862,1.8141847,-38.615766,-114.40636)"
       x1="158"
       y1="49"
       x2="158"
       y2="5" />
    <linearGradient
       inkscape:collect="always"
       xlink:href="#linearGradient3667"
       id="linearGradient3118"
       gradientUnits="userSpaceOnUse"
       gradientTransform="matrix(1.9041025,0,0,0.86922705,-119.56466,-64.271609)"
       x1="158"
       y1="49"
       x2="158"
       y2="5" />
    <radialGradient
       inkscape:collect="always"
       xlink:href="#linearGradient5594"
       id="radialGradient3120"
       gradientUnits="userSpaceOnUse"
       gradientTransform="matrix(1.8186121,0,0,0.31043819,-106.05717,-60.763651)"
       cx="158"
       cy="8.3000002"
       fx="158"
       fy="8.3000002"
       r="14" />
    <linearGradient
       inkscape:collect="always"
       xlink:href="#linearGradient3667"
       id="linearGradient3122"
       gradientUnits="userSpaceOnUse"
       gradientTransform="matrix(1.9041025,0,0,0.86922705,-119.56466,29.604922)"
       x1="158"
       y1="6"
       x2="158"
       y2="-38" />
    <linearGradient
       inkscape:collect="always"
       xlink:href="#linearGradient3596"
       id="linearGradient3124"
       gradientUnits="userSpaceOnUse"
       gradientTransform="matrix(-1.6198295,-1.1036247,1.3192581,-1.839947,435.61086,238.71794)"
       x1="158"
       y1="49"
       x2="158"
       y2="5" />
    <linearGradient
       inkscape:collect="always"
       xlink:href="#linearGradient3652"
       id="linearGradient3126"
       gradientUnits="userSpaceOnUse"
       gradientTransform="matrix(-1.6198295,-1.1036247,1.3192581,-1.839947,435.61086,238.71794)"
       x1="155"
       y1="49"
       x2="155"
       y2="5" />
    <linearGradient
       inkscape:collect="always"
       xlink:href="#linearGradient3667"
       id="linearGradient3128"
       gradientUnits="userSpaceOnUse"
       gradientTransform="matrix(1.9041025,0,0,0.86922705,-482.29497,59.154821)"
       x1="158"
       y1="6"
       x2="158"
       y2="-38" />
    <radialGradient
       inkscape:collect="always"
       xlink:href="#linearGradient5594"
       id="radialGradient3130"
       gradientUnits="userSpaceOnUse"
       gradientTransform="matrix(1.8186121,0,0,0.31043819,-105.70155,-66.628351)"
       cx="158"
       cy="8.3000002"
       fx="158"
       fy="8.3000002"
       r="14" />
    <linearGradient
       inkscape:collect="always"
       xlink:href="#linearGradient3922"
       id="linearGradient3132"
       gradientUnits="userSpaceOnUse"
       gradientTransform="matrix(-1.4611864,-0.99553775,1.3007862,-1.8141847,415.33064,211.39188)"
       x1="158"
       y1="49"
       x2="160.04018"
       y2="-1.533323" />
    <linearGradient
       inkscape:collect="always"
       xlink:href="#linearGradient3922"
       id="linearGradient3134"
       gradientUnits="userSpaceOnUse"
       gradientTransform="matrix(-1.4611864,-0.99553775,1.3007862,-1.8141847,410.30366,218.33714)"
       x1="158"
       y1="49"
       x2="158"
       y2="5" />
    <radialGradient
       inkscape:collect="always"
       xlink:href="#linearGradient5594"
       id="radialGradient3136"
       gradientUnits="userSpaceOnUse"
       gradientTransform="matrix(1.8186121,0,0,0.31043819,-106.43462,-66.215806)"
       cx="158"
       cy="8.3000002"
       fx="158"
       fy="8.3000002"
       r="14" />
    <linearGradient
       id="SVGID_1_"
       gradientUnits="userSpaceOnUse"
       x1="225.66701"
       y1="4"
       x2="385.73611"
       y2="4"
       gradientTransform="matrix(1,0,0,-1,-106,204)">
      <stop
         offset="0"
         style="stop-color:#A6A8AB"
         id="stop3213" />
      <stop
         offset="0.5"
         style="stop-color:#FFFFFF"
         id="stop3215" />
      <stop
         offset="1"
         style="stop-color:#A6A8AB"
         id="stop3217" />
    </linearGradient>
    <linearGradient
       y2="4"
       x2="385.73611"
       y1="4"
       x1="225.66701"
       gradientTransform="matrix(1,0,0,-1,-106,204)"
       gradientUnits="userSpaceOnUse"
       id="linearGradient3242"
       xlink:href="#SVGID_1_"
       inkscape:collect="always" />
    <linearGradient
       id="SVGID_1_-2"
       gradientUnits="userSpaceOnUse"
       x1="225.66701"
       y1="4"
       x2="385.73611"
       y2="4"
       gradientTransform="matrix(1,0,0,-1,-106,204)">
      <stop
         offset="0"
         style="stop-color:#A6A8AB"
         id="stop3213-6" />
      <stop
         offset="0.5"
         style="stop-color:#FFFFFF"
         id="stop3215-5" />
      <stop
         offset="1"
         style="stop-color:#A6A8AB"
         id="stop3217-9" />
    </linearGradient>
    <linearGradient
       y2="4"
       x2="385.73611"
       y1="4"
       x1="225.66701"
       gradientTransform="matrix(1,0,0,-1,-106,204)"
       gradientUnits="userSpaceOnUse"
       id="linearGradient3242-6"
       xlink:href="#SVGID_1_-2"
       inkscape:collect="always" />
  </defs>
  <g
     transform="translate(-3,-68)"
     id="layer1"
     style="display:inline">
    <g
       id="layer6"
       style="display:none" />
    <g
       id="g3996"
       transform="matrix(0.53184904,0,0,0.53184904,5.7464585,62.151565)" />
    <g
       id="g4085"
       transform="matrix(0.53184904,0,0,0.53184904,5.7464585,62.151565)" />
    <g
       transform="matrix(0.53184904,0,0,0.53184904,5.2146094,62.151565)"
       id="g4238" />
    <g
       id="g4600"
       transform="matrix(0.53184904,0,0,0.53184904,5.7464585,62.151565)" />
    <g
       id="g4909"
       transform="matrix(0.41540173,0,0,0.44427062,-33.453521,64.589702)">
      <rect
         y="-55.960594"
         x="207.44896"
         height="87.258385"
         width="6.9054756"
         id="rect3073"
         style="fill:#ffffff;fill-opacity:1;fill-rule:evenodd;stroke:#ffffff;stroke-width:0.07840604;stroke-linecap:round;stroke-linejoin:round;stroke-miterlimit:4;stroke-opacity:1;stroke-dasharray:none"
         transform="matrix(0.8264184,0.56305651,-0.58270268,0.81268541,0,0)" />
      <rect
         style="fill:#ffffff;fill-opacity:1;fill-rule:evenodd;stroke:#ffffff;stroke-width:0.07840604;stroke-linecap:round;stroke-linejoin:round;stroke-miterlimit:4;stroke-opacity:1;stroke-dasharray:none"
         id="rect3071"
         width="6.9054756"
         height="87.258385"
         x="148.10503"
         y="-56.093212"
         transform="matrix(0.8264184,0.56305651,-0.58270268,0.81268541,0,0)" />
      <path
         d="m 157.30345,35.208535 c -0.64759,-0.441219 -1.62075,-0.166312 -2.18195,0.616388 l -52.67608,73.466447 c -0.5612,0.7827 -0.49165,1.76803 0.15594,2.20925 l 54.35613,37.034 c 0.6476,0.44122 1.62074,0.16632 2.18194,-0.61639 l 52.6761,-73.466445 c 0.5612,-0.782702 0.49164,-1.768027 -0.15596,-2.209246 l -0.58446,-0.398216 -0.5065,0.706408 c -0.28061,0.391349 -0.76717,0.5288 -1.09099,0.308192 l -3.50684,-2.38929 c -0.3238,-0.22061 -0.35858,-0.713274 -0.078,-1.104623 l 0.5065,-0.706408 -43.83558,-29.866129 -0.5065,0.706408 c -0.2806,0.39135 -0.76718,0.528803 -1.09097,0.308192 l -3.50687,-2.38929 c -0.32381,-0.220614 -0.35859,-0.713274 -0.078,-1.104624 l 0.5065,-0.706407 -0.58447,-0.398217 z m -2.37655,5.741289 3.50684,2.38929 c 0.32381,0.22061 0.35858,0.713274 0.078,1.104625 l -1.5195,2.119224 c -0.28062,0.39135 -0.76718,0.528801 -1.09098,0.308191 l -3.5069,-2.389288 c -0.3238,-0.220615 -0.35857,-0.713275 -0.078,-1.104625 l 1.5195,-2.119225 c 0.2806,-0.39135 0.76718,-0.528806 1.09099,-0.308192 z m 48.51138,33.05185 3.50684,2.389289 c 0.3238,0.22061 0.35859,0.713274 0.078,1.104625 l -1.5195,2.119224 c -0.2806,0.391351 -0.76718,0.528802 -1.09098,0.308192 l -3.50684,-2.389289 c -0.32379,-0.22061 -0.35857,-0.713274 -0.078,-1.104625 l 1.5195,-2.119224 c 0.28059,-0.39135 0.76717,-0.528801 1.09097,-0.308192 z m -53.57638,-25.987768 3.50684,2.389289 c 0.32379,0.220611 0.35857,0.713275 0.078,1.104626 l -1.51951,2.119223 c -0.2806,0.391351 -0.76718,0.528802 -1.09098,0.308192 l -3.50684,-2.389289 c -0.3238,-0.220615 -0.35858,-0.713275 -0.078,-1.104624 l 1.51951,-2.119225 c 0.2806,-0.39135 0.76717,-0.528805 1.09099,-0.308192 z m 48.51138,33.051851 3.50684,2.389288 c 0.32379,0.220609 0.35857,0.713274 0.078,1.104625 l -1.51951,2.119224 c -0.2806,0.39135 -0.76718,0.528802 -1.09098,0.308192 l -3.50683,-2.38929 c -0.3238,-0.220608 -0.35859,-0.713274 -0.078,-1.104624 l 1.51951,-2.119225 c 0.2806,-0.391349 0.76719,-0.5288 1.09099,-0.30819 z m -53.57641,-25.987769 3.50685,2.389289 c 0.3238,0.220611 0.35859,0.713274 0.078,1.104625 l -1.51952,2.119224 c -0.28058,0.39135 -0.76717,0.528802 -1.09096,0.308192 l -3.50685,-2.38929 c -0.3238,-0.220613 -0.35857,-0.713274 -0.078,-1.104624 l 1.5195,-2.119225 c 0.2806,-0.391349 0.76717,-0.528806 1.09096,-0.308191 z m 48.51139,33.051849 3.50685,2.38929 c 0.3238,0.220608 0.35857,0.713274 0.078,1.104624 l -1.5195,2.119225 c -0.28059,0.391348 -0.76718,0.5288 -1.09096,0.30819 l -3.50686,-2.389288 c -0.3238,-0.220609 -0.35858,-0.713274 -0.078,-1.104623 l 1.5195,-2.119226 c 0.2806,-0.39135 0.76718,-0.528801 1.09097,-0.308192 z m -53.57639,-25.987767 3.50685,2.389288 c 0.3238,0.22061 0.35857,0.713274 0.078,1.104626 l -1.5195,2.119223 c -0.2806,0.391351 -0.76717,0.528802 -1.09097,0.308192 l -3.50684,-2.389289 c -0.3238,-0.220613 -0.35859,-0.713274 -0.078,-1.104624 l 1.51951,-2.119224 c 0.28059,-0.391351 0.76717,-0.528807 1.09097,-0.308192 z m 48.51138,33.05185 3.50684,2.389291 c 0.32382,0.220608 0.35859,0.713268 0.078,1.104626 l -1.5195,2.119223 c -0.28061,0.39135 -0.76719,0.5288 -1.09099,0.30819 l -3.50685,-2.389283 c -0.32379,-0.220613 -0.35857,-0.713283 -0.078,-1.104631 l 1.5195,-2.119223 c 0.2806,-0.391351 0.76718,-0.528803 1.09098,-0.308193 z m -53.57638,-25.987769 3.50684,2.389289 c 0.32379,0.22061 0.35858,0.713274 0.078,1.104626 l -1.51952,2.119224 c -0.2806,0.391349 -0.76718,0.528801 -1.09098,0.308192 l -3.50684,-2.38929 c -0.3238,-0.220614 -0.35857,-0.713275 -0.078,-1.104624 l 1.5195,-2.119226 c 0.28061,-0.391349 0.76719,-0.528805 1.09099,-0.308191 z m 48.51138,33.051859 3.50684,2.38928 c 0.32379,0.22061 0.35857,0.71328 0.078,1.10463 l -1.51951,2.11922 c -0.2806,0.39135 -0.76717,0.52881 -1.09097,0.30819 l -3.50684,-2.38929 c -0.32379,-0.22061 -0.35859,-0.71328 -0.078,-1.10462 l 1.5195,-2.11923 c 0.28061,-0.39134 0.76718,-0.5288 1.09098,-0.30818 z m -53.5764,-25.987778 3.50686,2.38929 c 0.32379,0.22061 0.35857,0.713275 0.078,1.104625 l -1.5195,2.119225 c -0.2806,0.39135 -0.76718,0.5288 -1.09098,0.308192 l -3.50685,-2.38929 c -0.3238,-0.220615 -0.35858,-0.713274 -0.078,-1.104624 l 1.5195,-2.119226 c 0.28061,-0.391349 0.76717,-0.528805 1.09098,-0.308192 z m 48.51139,33.051858 3.50684,2.38928 c 0.3238,0.22061 0.35858,0.71328 0.078,1.10463 l -1.5195,2.11922 c -0.28059,0.39135 -0.76718,0.5288 -1.09097,0.3082 l -3.50686,-2.38931 c -0.3238,-0.2206 -0.35857,-0.71325 -0.078,-1.10461 l 1.5195,-2.11923 c 0.2806,-0.39134 0.76718,-0.52879 1.09098,-0.30818 z m -53.5764,-25.987775 3.50685,2.389289 c 0.3238,0.220609 0.35859,0.713274 0.078,1.104625 l -1.5195,2.119223 c -0.2806,0.391351 -0.76717,0.528802 -1.09096,0.308192 l -3.50685,-2.389289 c -0.3238,-0.220613 -0.35857,-0.713273 -0.078,-1.104624 l 1.5195,-2.119224 c 0.28059,-0.391351 0.76716,-0.528806 1.09096,-0.308192 z m 48.51138,33.051855 3.50686,2.38928 c 0.3238,0.22061 0.35858,0.71327 0.078,1.10462 l -1.5195,2.11923 c -0.2806,0.39136 -0.76718,0.5288 -1.09097,0.30819 l -3.50685,-2.38929 c -0.3238,-0.22061 -0.35858,-0.71327 -0.078,-1.10463 l 1.51951,-2.11922 c 0.28059,-0.39135 0.76718,-0.52879 1.09097,-0.30818 z m -53.57637,-25.987773 3.50683,2.389289 c 0.3238,0.220609 0.35858,0.713274 0.078,1.104625 l -1.5195,2.119225 c -0.28061,0.39135 -0.76719,0.528803 -1.09099,0.308193 l -3.50685,-2.389292 c -0.3238,-0.220613 -0.35857,-0.713274 -0.078,-1.104623 l 1.51951,-2.119226 c 0.2806,-0.39135 0.76718,-0.528806 1.09099,-0.308191 z m 48.51138,33.051843 3.50683,2.38929 c 0.32379,0.22063 0.35859,0.71328 0.078,1.10462 l -1.51952,2.11924 c -0.2806,0.39135 -0.76718,0.52879 -1.09098,0.30818 l -3.50683,-2.38928 c -0.3238,-0.22062 -0.35858,-0.71328 -0.078,-1.10463 l 1.5195,-2.11922 c 0.28061,-0.39136 0.76719,-0.52881 1.09099,-0.3082 z m -53.5764,-25.987753 3.50685,2.38928 c 0.32379,0.220613 0.35857,0.713283 0.078,1.104633 l -1.5195,2.11922 c -0.2806,0.39135 -0.76718,0.5288 -1.09098,0.30819 l -3.50685,-2.38929 c -0.3238,-0.22062 -0.35858,-0.71328 -0.078,-1.104623 l 1.5195,-2.119232 c 0.28061,-0.391348 0.76718,-0.528806 1.09098,-0.308178 z m 48.51138,33.051833 3.50685,2.3893 c 0.32379,0.22062 0.35857,0.71327 0.078,1.10463 l -1.5195,2.11922 c -0.2806,0.39134 -0.76717,0.52879 -1.09097,0.30818 l -3.50684,-2.38928 c -0.32381,-0.22061 -0.3586,-0.71328 -0.078,-1.10463 l 1.5195,-2.11922 c 0.28062,-0.39136 0.76718,-0.5288 1.09098,-0.3082 z m -53.57639,-25.98776 3.50684,2.38928 c 0.32381,0.22061 0.35859,0.71328 0.078,1.10463 l -1.51951,2.11923 c -0.28059,0.39135 -0.76718,0.5288 -1.09097,0.30819 l -3.50685,-2.3893 c -0.3238,-0.2206 -0.35857,-0.71326 -0.078,-1.10462 l 1.5195,-2.11922 c 0.2806,-0.39135 0.76717,-0.52881 1.09097,-0.30819 z m 48.51138,33.05185 3.50685,2.38929 c 0.3238,0.22061 0.35858,0.71327 0.078,1.10463 l -1.5195,2.11922 c -0.28061,0.39135 -0.76717,0.5288 -1.09098,0.30819 l -3.50685,-2.38929 c -0.32379,-0.22061 -0.35857,-0.71328 -0.078,-1.10462 l 1.5195,-2.11923 c 0.2806,-0.39134 0.76718,-0.5288 1.09098,-0.30819 z"
         id="rect3773"
         style="fill:url(#linearGradient3112);fill-opacity:1;stroke:url(#linearGradient3114);stroke-width:0.78394759;stroke-linejoin:round;stroke-miterlimit:4;stroke-opacity:1;stroke-dasharray:none"
         inkscape:connector-curvature="0" />
      <path
         d="m 164.27816,39.434803 -11.14302,15.54098 40.91322,27.875056 11.14302,-15.540982 -40.91322,-27.875054 z M 152.62864,55.68219 120.71909,100.18591 161.6323,128.06096 193.54186,83.557246 152.62864,55.68219 z m -32.41605,45.21012 -11.14303,15.54098 40.91323,27.87506 11.14301,-15.54099 -40.91321,-27.87505 z"
         id="path2958"
         style="fill:url(#linearGradient3116);fill-opacity:1;stroke:none"
         inkscape:connector-curvature="0" />
      <rect
         width="49.506668"
         height="0.86922693"
         x="156.53033"
         y="-59.925472"
         id="rect2964"
         style="fill:url(#linearGradient3118);fill-opacity:1;stroke:none"
         transform="matrix(0.82641841,0.5630565,-0.5827027,0.8126854,0,0)" />
      <rect
         width="50.921143"
         height="0.86922693"
         x="155.8231"
         y="-59.056244"
         id="rect2982"
         style="opacity:0.6;fill:url(#radialGradient3120);fill-opacity:1;stroke:none"
         transform="matrix(0.82641841,0.5630565,-0.5827027,0.8126854,0,0)" />
      <rect
         width="49.506668"
         height="0.86922693"
         x="156.53033"
         y="33.951057"
         id="rect2984"
         style="fill:url(#linearGradient3122);fill-opacity:1;stroke:none"
         transform="matrix(0.82641841,0.5630565,-0.5827027,0.8126854,0,0)" />
      <g
         transform="matrix(1.7768513,0,0,1.7780032,57.136384,41.057099)"
         id="g3538" />
      <path
         inkscape:connector-curvature="0"
         style="fill:url(#linearGradient3124);fill-opacity:1;stroke:url(#linearGradient3126);stroke-width:0.78394759;stroke-linejoin:round;stroke-miterlimit:4;stroke-opacity:1;stroke-dasharray:none"
         id="path3069"
         d="m 214.38438,68.722248 c 0.64759,0.44121 1.62444,0.168618 2.18195,-0.616386 l 13.50386,-19.014058 c 0.68844,-0.969352 -0.22931,-2.343839 -0.22931,-2.343839 L 176.24084,10.21999 c -0.6476,-0.4412133 -2.34966,-0.4596663 -3.26448,0.827103 l -13.10405,18.431904 c -0.55791,0.784752 -0.49165,1.768032 0.15595,2.209252 l 0.58446,0.398211 0.50651,-0.706404 c 0.28061,-0.391351 0.76716,-0.528803 1.09098,-0.308204 l 3.50684,2.389299 c 0.3238,0.22061 0.35859,0.713275 0.078,1.104626 l -0.50649,0.706405 43.83559,29.866123 0.5065,-0.706404 c 0.2806,-0.39135 0.76717,-0.528802 1.09096,-0.308193 l 3.50688,2.389289 c 0.32381,0.22062 0.35859,0.713275 0.078,1.104636 l -0.5065,0.706404 0.58447,0.398211 z m 2.37656,-5.741293 -3.50684,-2.389288 c -0.32381,-0.220601 -0.35859,-0.713276 -0.078,-1.104617 l 1.5195,-2.119232 c 0.28062,-0.391351 0.76718,-0.528794 1.09099,-0.308193 l 3.50684,2.389288 c 0.3238,0.22062 0.35857,0.713275 0.078,1.104626 l -1.5195,2.119234 c -0.2806,0.391339 -0.76717,0.528802 -1.09099,0.308182 z m -48.51139,-33.051846 -3.50684,-2.389294 c -0.32381,-0.220607 -0.35858,-0.713275 -0.078,-1.104622 l 1.51949,-2.119222 c 0.28062,-0.391347 0.7672,-0.528803 1.091,-0.308196 l 3.50684,2.389297 c 0.32379,0.220606 0.35857,0.713274 0.078,1.104621 l -1.5195,2.119223 c -0.28059,0.391351 -0.76718,0.528803 -1.09099,0.308193 z m 53.57639,25.987762 -3.50684,-2.389278 c -0.32379,-0.22062 -0.35857,-0.713275 -0.078,-1.104626 l 1.51951,-2.119233 c 0.2806,-0.391351 0.76717,-0.528792 1.09097,-0.308183 l 3.50684,2.389289 c 0.32381,0.22061 0.35859,0.713275 0.078,1.104615 l -1.51952,2.119223 c -0.28059,0.391361 -0.76717,0.528814 -1.09097,0.308193 z m -48.51138,-33.05185 -3.50686,-2.389287 c -0.32379,-0.220606 -0.35856,-0.713274 -0.078,-1.104621 l 1.5195,-2.119223 c 0.2806,-0.391358 0.76719,-0.528803 1.09099,-0.308196 l 3.50684,2.389288 c 0.3238,0.220616 0.35857,0.713274 0.078,1.10463 l -1.51949,2.119224 c -0.28061,0.391347 -0.76719,0.528801 -1.09098,0.308185 z"
         sodipodi:nodetypes="cssccssccscscccccscccccccccccccccccsscsccccsssccccscsssccc" />
      <rect
         transform="matrix(-0.82641841,-0.5630565,0.5827027,-0.8126854,0,0)"
         style="fill:url(#linearGradient3128);fill-opacity:1;stroke:none"
         id="rect3078"
         y="63.500965"
         x="-206.2002"
         height="0.86922693"
         width="49.506668" />
      <rect
         transform="matrix(0.82641841,0.5630565,-0.5827027,0.8126854,0,0)"
         style="opacity:0.6;fill:url(#radialGradient3130);fill-opacity:1;stroke:none"
         id="rect3096"
         y="-64.920944"
         x="156.17873"
         height="0.86922693"
         width="50.921143" />
      <path
         sodipodi:nodetypes="ccccc"
         d="M 212.43666,57.550717 223.57968,42.00974 182.66646,14.134686 171.52343,29.675659 z"
         id="path3104"
         style="fill:url(#linearGradient3132);fill-opacity:1;stroke:none"
         inkscape:connector-curvature="0" />
      <path
         inkscape:connector-curvature="0"
         style="fill:url(#linearGradient3134);fill-opacity:1;stroke:none"
         id="path3071"
         d="M 207.40968,64.49598 218.55269,48.955003 177.63948,21.079948 166.49646,36.620922 z"
         sodipodi:nodetypes="ccccc" />
      <rect
         transform="matrix(0.82641841,0.5630565,-0.5827027,0.8126854,0,0)"
         style="opacity:0.6;fill:url(#radialGradient3136);fill-opacity:1;stroke:none"
         id="rect3108"
         y="-64.5084"
         x="155.44566"
         height="0.86922693"
         width="50.921143" />
      <polygon
         transform="matrix(0.20486884,-0.25878684,0.37637468,0.2604927,69.045066,51.80916)"
         style="opacity:0.7;fill:url(#linearGradient3242-6);stroke:#a8a8a8"
         points="175,280 162.5,300 150,280 150,100 162.5,120 175,100 187.5,120 200,100 212.5,120 225,100 237.5,120 250,100 250,280 237.5,300 225,280 212.5,300 200,280 187.5,300 "
         id="polygon3219" />
    </g>
    <g
       transform="matrix(0.53184904,0,0,0.53184904,5.2146094,62.151565)"
       id="g4407" />
  </g>
</svg>
