<?xml version="1.0" encoding="UTF-8" standalone="no"?>
<!-- Creator: CorelDRAW X6 -->

<svg
   xmlns:dc="http://purl.org/dc/elements/1.1/"
   xmlns:cc="http://creativecommons.org/ns#"
   xmlns:rdf="http://www.w3.org/1999/02/22-rdf-syntax-ns#"
   xmlns:svg="http://www.w3.org/2000/svg"
   xmlns="http://www.w3.org/2000/svg"
   xmlns:sodipodi="http://sodipodi.sourceforge.net/DTD/sodipodi-0.dtd"
   xmlns:inkscape="http://www.inkscape.org/namespaces/inkscape"
   id="svg2"
   style="clip-rule:evenodd;fill-rule:evenodd;image-rendering:optimizeQuality;shape-rendering:geometricPrecision;text-rendering:geometricPrecision"
   xml:space="preserve"
   height="64"
   width="64"
   version="1.1"
   viewBox="0 0 4724.3916 4724.3909"
   inkscape:version="0.91 r"
   sodipodi:docname="gwoffice.svg"><sodipodi:namedview
     pagecolor="#ffffff"
     bordercolor="#666666"
     borderopacity="1"
     objecttolerance="10"
     gridtolerance="10"
     guidetolerance="10"
     inkscape:pageopacity="0"
     inkscape:pageshadow="2"
     inkscape:window-width="1630"
     inkscape:window-height="903"
     id="namedview15"
     showgrid="false"
     inkscape:zoom="12.109375"
     inkscape:cx="32"
     inkscape:cy="32"
     inkscape:window-x="75"
     inkscape:window-y="34"
     inkscape:window-maximized="0"
     inkscape:current-layer="svg2" /><metadata
     id="metadata18"><rdf:RDF><cc:Work
         rdf:about=""><dc:format>image/svg+xml</dc:format><dc:type
           rdf:resource="http://purl.org/dc/dcmitype/StillImage" /><dc:title></dc:title></cc:Work></rdf:RDF></metadata><defs
     id="defs4"><style
       id="style6"
       type="text/css"><![CDATA[
    .fil2 {fill:#11A861}
    .fil0 {fill:#3777E3}
    .fil1 {fill:#FFCF63}
   ]]></style></defs><path
     id="polygon4149"
     d="m 4642.1119,2893.4652 -800.9387,1388.0145 -2974.25906,0 793.12226,-1388.0145 z"
     inkscape:connector-curvature="0"
     style="fill:#4e8dcc" /><path
     id="path4152"
     d="m 1560.9481,310.89888 1602.4953,-0.34932 1487.1296,2575.78414 -1598.6005,7.1181 z"
     inkscape:connector-curvature="0"
     style="fill:#fcc345" /><path
     id="path4154"
     d="M 875.38854,4281.3454 73.845479,2893.7339 1560.975,318.08405 2366.386,1698.8461 Z"
     inkscape:connector-curvature="0"
     style="fill:#6cbf48" /><path
     id="path4156"
     d="m 3163.4434,310.53627 -1602.4953,0.38732 57.3149,99.14064 1545.1482,-0.38761 1429.9168,2476.80318 57.1215,-0.1983 L 3163.4542,310.49759 Z"
     inkscape:connector-curvature="0"
     style="opacity:0.1;fill:#ffffff" /><path
     id="path4161"
     d="m 1560.9481,310.92574 1491.0244,2582.49916 1598.6005,-7.1643 -57.1215,-98.9459 -1541.522,6.9707 -1433.6773,-2483.3841 -57.3148,0 z"
     inkscape:connector-curvature="0"
     style="opacity:0.3" /><path
     id="path4166"
     d="M 1560.9481,318.08405 73.818619,2893.7339 102.50157,2943.4257 1560.8904,417.19916 2337.5608,1748.6723 2366.4357,1698.8461 1560.8904,318.08405 Z"
     inkscape:connector-curvature="0"
     style="opacity:0.1;fill:#ffffff" /><path
     id="path4171"
     d="M 2337.6185,1649.5572 875.33484,4182.2303 102.5056,2844.1763 73.844129,2893.7339 875.29324,4281.3454 2366.4518,1698.8461 l -28.8507,-49.3763 z"
     inkscape:connector-curvature="0"
     style="opacity:0.3" /><path
     id="path4176"
     d="m 1660.0633,2893.4652 -793.12236,1388.0145 56.7347,0 736.39306,-1288.8188 2924.8358,0 57.1215,-99.1406 -2981.9143,0 z"
     inkscape:connector-curvature="0"
     style="opacity:0.1;fill:#ffffff" /><path
     id="path4181"
     d="m 4584.8992,2893.4652 -743.7394,1288.8188 -2917.44926,0 -56.7347,99.1406 2974.25916,0 800.8716,-1388.0144 -57.1215,0 z"
     inkscape:connector-curvature="0"
     style="opacity:0.3" /></svg>