<?xml version="1.0" encoding="UTF-8" standalone="no"?>
<svg
   xmlns:dc="http://purl.org/dc/elements/1.1/"
   xmlns:cc="http://creativecommons.org/ns#"
   xmlns:rdf="http://www.w3.org/1999/02/22-rdf-syntax-ns#"
   xmlns:svg="http://www.w3.org/2000/svg"
   xmlns="http://www.w3.org/2000/svg"
   xmlns:xlink="http://www.w3.org/1999/xlink"
   xmlns:sodipodi="http://sodipodi.sourceforge.net/DTD/sodipodi-0.dtd"
   xmlns:inkscape="http://www.inkscape.org/namespaces/inkscape"
   height="64"
   width="64"
   version="1.1"
   id="svg48"
   sodipodi:docname="postman.svg"
   inkscape:version="0.92.2 2405546, 2018-03-11">
  <metadata
     id="metadata52">
    <rdf:RDF>
      <cc:Work
         rdf:about="">
        <dc:format>image/svg+xml</dc:format>
        <dc:type
           rdf:resource="http://purl.org/dc/dcmitype/StillImage" />
        <dc:title></dc:title>
      </cc:Work>
    </rdf:RDF>
  </metadata>
  <sodipodi:namedview
     pagecolor="#ffffff"
     bordercolor="#666666"
     borderopacity="1"
     objecttolerance="10"
     gridtolerance="10"
     guidetolerance="10"
     inkscape:pageopacity="0"
     inkscape:pageshadow="2"
     inkscape:window-width="1366"
     inkscape:window-height="705"
     id="namedview50"
     showgrid="false"
     inkscape:zoom="5.2149125"
     inkscape:cx="28.238717"
     inkscape:cy="37.529124"
     inkscape:window-x="0"
     inkscape:window-y="30"
     inkscape:window-maximized="1"
     inkscape:current-layer="svg48"
     showguides="true"
     inkscape:guide-bbox="true">
    <sodipodi:guide
       position="32.023548,51.678719"
       orientation="0,1"
       id="guide881"
       inkscape:locked="false" />
    <sodipodi:guide
       position="32.311184,12.656013"
       orientation="0,1"
       id="guide883"
       inkscape:locked="false" />
    <sodipodi:guide
       position="16.395289,30.201849"
       orientation="1,0"
       id="guide885"
       inkscape:locked="false" />
    <sodipodi:guide
       position="45.446592,28.188392"
       orientation="1,0"
       id="guide887"
       inkscape:locked="false" />
  </sodipodi:namedview>
  <defs
     id="defs32">
    <linearGradient
       id="c"
       y2="40.496"
       gradientUnits="userSpaceOnUse"
       x2="71.204"
       gradientTransform="matrix(2.3269 0 0 2.3269 -135.94 -32.843)"
       y1="15.369"
       x1="71.204">
      <stop
         stop-color="#fff"
         offset="0"
         id="stop2" />
      <stop
         stop-color="#fff"
         stop-opacity=".23529"
         offset=".42448"
         id="stop4" />
      <stop
         stop-color="#fff"
         stop-opacity=".15686"
         offset=".82090"
         id="stop6" />
      <stop
         stop-color="#fff"
         stop-opacity=".39216"
         offset="1"
         id="stop8" />
    </linearGradient>
    <radialGradient
       id="a"
       gradientUnits="userSpaceOnUse"
       cy="3.8502"
       cx="17.187"
       gradientTransform="matrix(0 8.3346 -10.16 0 71.885 -169.24)"
       r="20.397">
      <stop
         stop-color="#ffcd7d"
         offset="0"
         id="stop11" />
      <stop
         stop-color="#fc8f36"
         offset=".26238"
         id="stop13" />
      <stop
         stop-color="#e23a0e"
         offset=".70495"
         id="stop15" />
      <stop
         stop-color="#ac441f"
         offset="1"
         id="stop17" />
    </radialGradient>
    <radialGradient
       id="b"
       gradientUnits="userSpaceOnUse"
       cy="186.17"
       cx="99.157"
       gradientTransform="matrix(1 0 0 .16667 0 155.14)"
       r="62.769">
      <stop
         stop-color="#3d3d3d"
         offset="0"
         id="stop20" />
      <stop
         stop-color="#686868"
         stop-opacity=".49804"
         offset=".5"
         id="stop22" />
      <stop
         stop-color="#686868"
         stop-opacity="0"
         offset="1"
         id="stop24" />
    </radialGradient>
    <linearGradient
       id="d"
       y2="51.388"
       gradientUnits="userSpaceOnUse"
       x2="30"
       y1="11.119"
       x1="30">
      <stop
         stop-color="#fff5ef"
         offset="0"
         id="stop27" />
      <stop
         stop-color="#fef8dd"
         offset="1"
         id="stop29" />
    </linearGradient>
    <linearGradient
       inkscape:collect="always"
       xlink:href="#a-3"
       id="linearGradient126"
       gradientUnits="userSpaceOnUse"
       gradientTransform="matrix(1.3754155,0,0,1.3754143,-1.4653483,-1.5649308)"
       x1="9.6787319"
       y1="51.138325"
       x2="40.686417"
       y2="-1.323205" />
    <linearGradient
       id="a-3">
      <stop
         offset="0"
         stop-color="#c2765a"
         id="stop2-6" />
      <stop
         offset="1"
         stop-color="#fa531a"
         id="stop4-7" />
    </linearGradient>
    <linearGradient
       id="h"
       gradientTransform="matrix(1.3754155,0,0,1.3754143,-1.4661528,-1.5649308)"
       gradientUnits="userSpaceOnUse"
       x1="34.754807"
       x2="24.917271"
       y1="28.54948"
       y2="10.87181">
      <stop
         offset="0"
         stop-color="#5a5a5a"
         id="stop33" />
      <stop
         offset="1"
         stop-color="#818181"
         id="stop35" />
    </linearGradient>
    <linearGradient
       id="g"
       gradientTransform="matrix(1.3754155,0,0,1.3754143,-1.4661528,-1.5649308)"
       gradientUnits="userSpaceOnUse"
       x1="34.890392"
       x2="18.77293"
       y1="37.160549"
       y2="9.671772">
      <stop
         offset="0"
         stop-color="#848381"
         id="stop28" />
      <stop
         offset="1"
         stop-color="#c2c2c2"
         id="stop30" />
    </linearGradient>
    <linearGradient
       id="f"
       gradientTransform="matrix(1.3754155,0,0,1.3754143,-1.4661528,-1.5649308)"
       gradientUnits="userSpaceOnUse"
       x1="30.248758"
       x2="21.298958"
       y1="24.96496"
       y2="14.535133">
      <stop
         offset="0"
         stop-color="#ec7b00"
         id="stop23" />
      <stop
         offset="1"
         stop-color="#b99f83"
         id="stop25" />
    </linearGradient>
  </defs>
  <path
     d="m161.93 186.17a62.769 10.462 0 1 1 -125.54 0 62.769 10.462 0 1 1 125.54 0z"
     transform="matrix(.38235 0 0 .71691 -5.913 -76.968)"
     fill="url(#b)"
     id="path34" />
  <path
     style="color:#000000"
     d="m32 2.5c-16.277 0-29.5 13.223-29.5 29.5s13.223 29.5 29.5 29.5 29.5-13.223 29.5-29.5-13.223-29.5-29.5-29.5z"
     fill="url(#a)"
     id="path36" />
  <path
     opacity=".4"
     stroke-linejoin="round"
     style="color:#000000"
     d="m32 2.5c-16.277 0-29.5 13.223-29.5 29.5s13.223 29.5 29.5 29.5 29.5-13.223 29.5-29.5-13.223-29.5-29.5-29.5z"
     stroke="#640000"
     stroke-linecap="round"
     fill="none"
     id="path38" />
  <path
     opacity=".8"
     stroke-linejoin="round"
     style="color:#000000"
     d="m60.5 32c0 15.74-12.76 28.5-28.5 28.5s-28.5-12.76-28.5-28.5 12.76-28.5 28.5-28.5 28.5 12.76 28.5 28.5z"
     stroke="url(#c)"
     stroke-linecap="round"
     fill="none"
     id="path40" />
  <path
     id="path49"
     d="m 25.580365,30.32283 c 5.23181,-5.847208 10.96691,-11.923543 14.557431,-9.048822 l -11.66676,11.575486 z"
     inkscape:connector-curvature="0"
     style="fill:url(#f);stroke-width:1.20826423" />
  <path
     id="path51"
     d="m 31.372252,35.834998 9.70599,-10.493359 c 1.001707,-1.082968 -0.328953,3.753674 -2.702924,6.261639 l -5.553626,5.867094 m -6.466231,-0.540358 4.326623,-0.785482 1.927679,1.686454 c -3.154899,3.450224 -6.961501,5.740907 -10.859647,8.240232 l 0.364637,3.938014 -4.34359,-3.903983 M 38.975015,20.418863 c -0.578713,-2.365559 -0.572657,-3.583092 0.684628,-5.003859 2.36898,-2.677016 5.006715,-1.698922 6.759862,-0.499409 l -3.694444,4.340575 2.986696,3.089418 c -0.995925,0.76003 -1.828472,1.787618 -3.030765,0.877778 z"
     inkscape:connector-curvature="0"
     style="fill:url(#g);stroke-width:1.20826423" />
  <path
     id="path53"
     d="m 26.958263,35.702062 1.642079,-1.639158 1.86664,1.681042 c 0,0 -2.247328,0.482285 -3.104102,0.593696 -0.856775,0.111401 -0.601864,-0.373814 -0.404617,-0.63558 z m 2.061882,-2.142605 10.706534,-11.196128 c 0.817497,-0.854882 4.484355,-0.120476 0.695348,3.552948 l -9.7114,9.415203 z M 42.85264,18.869206 46.733847,15.587753 c 0.47148,0.71024 1.132533,1.651638 1.20715,3.294671 l -1.371592,0.644456 c 0.025,-0.747406 0.0086,-2.07989 0.03357,-1.784227 l 0.200716,2.364714 c 0.02726,0.321151 -0.206332,0.02145 -0.227227,-0.592084 l 1.327308,-0.636422 c -0.01866,1.0567 -1.55603,2.933111 -2.45718,3.915094 z"
     inkscape:connector-curvature="0"
     style="fill:url(#h);stroke-width:1.20826423" />
  <path
     id="path55"
     d="m 43.474141,12.469592 c -3.040858,0 -5.58766,2.280641 -5.923683,5.303198 -0.04491,0.419199 -0.04658,0.833409 -0.0065,1.239296 -2.506877,0.337689 -5.644217,2.824601 -12.885383,10.065764 -0.113106,0.114786 -0.209601,0.24287 -0.284455,0.382601 -0.123106,0.08318 -0.234553,0.182984 -0.3327,0.297766 l -2.696518,3.172269 c -0.47742,0.560595 -0.585548,1.354079 -0.277801,2.022799 0.309409,0.66706 0.984783,1.10123 1.718383,1.10123 0.118108,0 0.287785,-0.01996 0.402563,-0.04493 l 2.119285,-0.455794 c -0.04326,0.173001 -0.06155,0.352657 -0.05656,0.530652 -0.005,0.0065 -0.01172,0.01333 -0.01662,0.0183 l -8.245921,8.893007 c -0.07652,0.08483 -0.143059,0.171338 -0.199618,0.266156 -0.168013,0.07819 -0.32438,0.186314 -0.46245,0.324382 l -2.590052,2.576742 c -0.542298,0.540634 -0.703657,1.349089 -0.412543,2.054408 0.292773,0.706981 0.976465,1.166103 1.741673,1.166103 l 5.417981,-0.02163 c 0.362641,-0.0017 0.705318,-0.119775 0.98312,-0.326044 0.04158,0.0033 0.08484,0.0033 0.126429,0.0033 0.580557,0 1.119526,-0.261169 1.480505,-0.715299 0.359313,-0.452468 0.489064,-1.03469 0.357648,-1.598613 l -0.4625,-1.969538 c 3.446749,-1.947943 6.214794,-4.368318 8.478802,-6.344542 0.607174,-0.528989 1.184404,-1.034687 1.731691,-1.492147 0.154705,-0.129756 0.282793,-0.284457 0.38094,-0.457458 0.05989,-0.0366 0.116452,-0.07984 0.17134,-0.124768 6.785369,-5.657522 8.443866,-10.233776 8.676757,-10.974028 0.06488,-0.169675 0.139925,-2.289323 0.284647,-2.883188 1.42702,-0.252441 2.18859,-0.09716 3.108869,-0.561893 1.001575,-0.336346 1.224677,-0.887908 1.821522,-1.387347 0.269483,-0.241206 0.495718,-0.479088 0.695338,-0.736926 l 0.144723,-0.192966 c 0.005,-0.0082 0.0499,-0.07154 0.05489,-0.07819 l 0.101482,-0.153041 0.06322,-0.103138 0.07984,-0.133085 0.08318,-0.154702 c 0.0033,-0.0065 0.03993,-0.07819 0.04326,-0.08318 0.0499,-0.09981 0.0915,-0.186312 0.129758,-0.276138 0.05489,-0.133086 0.08318,-0.202946 0.108127,-0.272813 0.005,-0.01172 0.02663,-0.07318 0.03161,-0.08484 l 0.06488,-0.19962 c 0.0033,-0.01003 0.02829,-0.09149 0.03161,-0.104805 l 0.0499,-0.191299 c 0.0017,-0.0065 0.01996,-0.08151 0.02163,-0.08817 l 0.04491,-0.221242 c 0.0017,-0.0082 0.01497,-0.07653 0.01497,-0.08318 0.01663,-0.09981 0.03161,-0.201284 0.04326,-0.302757 0.01002,-0.09649 0.0183,-0.196292 0.02495,-0.296099 0.0065,-0.14306 0.0082,-0.229562 0.0082,-0.312738 -0.275493,-1.862023 -1.011992,-3.631991 -2.312273,-4.722587 -0.870005,-0.683695 -1.913014,-1.109547 -3.017569,-1.232647 -0.221246,-0.02329 -0.440825,-0.0366 -0.658742,-0.0366 m -25.975375,34.29611 2.977645,2.932727 -5.409665,0.02163 h -0.0017 c -0.196293,0 -0.294437,-0.239543 -0.154703,-0.377612 l 2.588387,-2.576741 m 13.406053,-10.33026 1.206031,1.207694 c -0.555605,0.464113 -1.141152,0.976466 -1.758308,1.515438 -2.405404,2.102646 -5.401347,4.71765 -9.125896,6.65062 -0.09815,0.0499 -0.149715,0.163024 -0.12477,0.269485 l 0.708648,3.024222 c 0.03493,0.153039 -0.0865,0.27281 -0.21792,0.27281 -0.05323,0 -0.106459,-0.01997 -0.153039,-0.06488 l -3.230479,-3.183878 8.244248,-8.891339 4.451495,-0.80014 m -2.273989,-2.278975 1.560351,1.562012 -3.002594,0.532317 c -0.01333,0.0033 -0.02827,0.005 -0.04326,0.005 -0.197956,0 -0.312734,-0.24786 -0.166348,-0.397575 l 1.651844,-1.701747 m -3.321989,-3.320319 2.48359,2.481922 -4.955532,1.066294 c -0.0183,0.0033 -0.03493,0.0065 -0.05157,0.0065 -0.187973,0 -0.306081,-0.2279 -0.174665,-0.382604 l 2.698177,-3.172271 m 15.853048,-5.086945 c -0.153041,0.628801 -0.327709,1.074616 -0.327709,1.074616 0,0 -1.224325,4.4465 -8.169392,10.233771 -0.0033,-0.005 -0.005,-0.01333 -0.01172,-0.01662 l -1.149471,-1.139491 c 0,0 9.258978,-9.500176 9.658215,-10.152263 m -0.690345,-3.65302 c 0.958169,0.956505 0.766866,2.441999 -1.00475,4.213613 l -8.701711,8.833079 -1.598611,-1.583642 z m -2.317246,-1.463907 c 0.610502,0 1.117866,0.234552 1.565344,0.68203 0.0065,0.0033 0.01172,0.0065 0.01662,0.01003 L 28.391151,32.769001 25.83437,30.253807 c 6.722156,-6.722153 10.168906,-9.621609 12.319795,-9.621609 m 8.224289,-0.64377 c 0.109794,0 0.219581,-0.04159 0.284459,-0.118109 0.825088,-0.948188 0.212926,-2.122609 0.187972,-2.17085 -0.05489,-0.10315 -0.182981,-0.164686 -0.316063,-0.164686 -0.04326,0 -0.0865,0.0065 -0.129756,0.01996 -0.174665,0.05489 -0.259505,0.207938 -0.187973,0.341017 0.005,0.01003 0.499046,0.969812 -0.123106,1.685112 -0.104816,0.121439 -0.06155,0.282793 0.09649,0.36264 0.05656,0.02993 0.123106,0.04492 0.187975,0.04492 m 0.304418,-4.173636 c 0.708648,0.698664 1.107884,1.65018 1.116202,2.636626 v 0.01662 c 0,0.0599 -0.0017,0.119775 -0.005,0.179659 0,0.01172 0,0.02328 -0.0017,0.03327 -0.0033,0.06821 -0.0082,0.1364 -0.01662,0.206273 -0.0065,0.06987 -0.01662,0.138067 -0.02994,0.207935 -0.0033,0.01996 -0.0065,0.04159 -0.01003,0.06155 -0.01003,0.04824 -0.01996,0.09649 -0.02993,0.143062 -0.005,0.02329 -0.01002,0.04658 -0.01662,0.06821 -0.01172,0.04659 -0.02328,0.09149 -0.0366,0.1364 -0.005,0.02162 -0.01333,0.04493 -0.01996,0.06821 -0.01333,0.04492 -0.02829,0.08817 -0.04326,0.13475 -0.0082,0.01996 -0.01498,0.04159 -0.02329,0.06155 -0.01662,0.04824 -0.0366,0.09649 -0.05656,0.144725 -0.0065,0.01333 -0.01333,0.02994 -0.0183,0.04658 -0.02663,0.05989 -0.05489,0.12144 -0.08485,0.179654 -0.01172,0.02329 -0.02329,0.04493 -0.03494,0.06488 -0.0183,0.03827 -0.03827,0.0732 -0.05823,0.109795 -0.01662,0.02993 -0.03493,0.0599 -0.05323,0.08983 -0.01498,0.02495 -0.02993,0.0499 -0.04658,0.07318 -0.02163,0.03494 -0.04326,0.06821 -0.06655,0.101481 -0.01172,0.0183 -0.02495,0.0366 -0.03827,0.05489 -0.02663,0.03827 -0.05157,0.0732 -0.07984,0.109794 -0.0065,0.0082 -0.01333,0.01662 -0.01996,0.02495 -0.13973,0.179656 -0.296099,0.34434 -0.464114,0.494055 -0.0065,0.0065 -0.01333,0.01172 -0.01996,0.01662 -0.03827,0.03493 -0.07984,0.06987 -0.12144,0.101482 -0.0065,0.0065 -0.01498,0.01173 -0.01996,0.0183 -0.128093,0.09982 -0.259504,0.191303 -0.397572,0.274479 -0.01333,0.0065 -0.02495,0.01497 -0.0366,0.02328 -0.01172,0.0065 -0.02328,0.01172 -0.03494,0.0183 L 43.290818,18.94215 46.68267,15.814797 m -3.208833,-1.681786 c 0.156367,0 0.314397,0.01002 0.475759,0.02827 0.805127,0.08817 1.550371,0.39591 2.172516,0.884973 l -4.047269,3.731203 c -0.04825,0.04326 -0.07652,0.104805 -0.07819,0.169675 -0.0033,0.06488 0.02163,0.128093 0.06488,0.174667 l 3.087437,3.263763 c -0.517346,0.221243 -1.084596,0.342678 -1.67347,0.342678 -0.15637,0 -0.3144,-0.01003 -0.474095,-0.02663 -2.353839,-0.262833 -4.057248,-2.390433 -3.79608,-4.744266 0.242868,-2.195803 2.110966,-3.82436 4.26851,-3.82436"
     inkscape:connector-curvature="0"
     style="fill:#ffffff;fill-rule:evenodd;stroke-width:1.20826423"
     sodipodi:nodetypes="ccccccccsccccccccccccscccccccccccccccccccccccccccccccccccccsccccccccscccccccscccccsccccccccccccccccccccccscccccccsccccccccccccccccccccccccccccccccccccccsccc" />
  <path
     id="path57"
     d="m 43.474275,12.469592 c -3.040861,0 -5.587663,2.280641 -5.923683,5.303198 -0.04493,0.419199 -0.04659,0.833409 -0.0067,1.239296 -6.037267,1.965787 -10.831828,8.17865 -16.19906,13.9184 -0.477419,0.560595 -0.585541,1.354079 -0.277802,2.022799 0.309415,0.66706 0.984789,1.10123 1.718389,1.10123 0.118108,0 0.287781,-0.01996 0.402566,-0.04493 l 2.119284,-0.455794 c -0.04326,0.173001 -0.06154,0.352657 -0.05654,0.530652 -0.0047,0.0065 -0.01174,0.01333 -0.01662,0.0183 l -8.245914,8.893004 c -0.07652,0.08483 -0.14306,0.171338 -0.199618,0.266156 -0.168009,0.07819 -0.32438,0.186313 -0.462452,0.324382 l -2.59005,2.576741 c -0.5423,0.540634 -0.703655,1.349089 -0.412543,2.054408 0.292773,0.706982 0.976464,1.166104 1.741671,1.166104 l 5.417983,-0.02163 c 0.362641,-0.0017 0.705317,-0.119774 0.98312,-0.326043 0.04158,0.0032 0.08485,0.0032 0.126424,0.0032 0.580562,0 1.119531,-0.261167 1.48051,-0.715299 0.359311,-0.452468 0.489061,-1.03469 0.357649,-1.598614 l -0.462476,-1.969483 c 3.446743,-1.947941 6.214795,-4.368316 8.478801,-6.344541 0.607175,-0.528988 1.184399,-1.034686 1.731692,-1.492147 3.349481,-3.375816 7.651833,-6.786162 9.229037,-11.556246 0.397104,-1.925135 0.243773,-2.296269 0.219262,-3.054644 0.62997,0.133952 0,0 0.848691,0.08365 2.260095,-0.0898 3.837247,-1.439044 4.842421,-2.598366 l 0.144721,-0.192965 c 0.0047,-0.0082 0.04993,-0.07154 0.05487,-0.07819 l 0.101481,-0.153041 0.06321,-0.103138 0.07984,-0.133084 0.08318,-0.154704 c 0.0033,-0.0065 0.03992,-0.07819 0.04326,-0.08318 0.04993,-0.09981 0.0915,-0.186311 0.129756,-0.276138 0.05487,-0.133086 0.08318,-0.202946 0.108129,-0.272812 0.0047,-0.01173 0.02664,-0.07319 0.03157,-0.08485 l 0.06488,-0.19962 c 0.0033,-0.01002 0.02831,-0.09149 0.03164,-0.104804 l 0.04993,-0.191299 c 0.0013,-0.0065 0.01996,-0.08151 0.02163,-0.08817 l 0.04492,-0.221241 c 0.002,-0.0082 0.01495,-0.07653 0.01495,-0.08318 0.01662,-0.09981 0.03157,-0.201283 0.04326,-0.302756 0.01001,-0.09649 0.01829,-0.196292 0.02497,-0.296099 0.0067,-0.143061 0.0082,-0.229563 0.0082,-0.312739 -0.05013,-2.087391 -1.011989,-3.631995 -2.312273,-4.722591 -0.870005,-0.683695 -1.913014,-1.109548 -3.017565,-1.232647 -0.221251,-0.02328 -0.440827,-0.0366 -0.658747,-0.0366"
     inkscape:connector-curvature="0"
     style="fill:none;stroke:url(#linearGradient126);stroke-width:0.66750395;stroke-miterlimit:4;stroke-dasharray:none" />
</svg>
