<?xml version="1.0" encoding="UTF-8" standalone="no"?>
<svg
   xmlns:dc="http://purl.org/dc/elements/1.1/"
   xmlns:cc="http://creativecommons.org/ns#"
   xmlns:rdf="http://www.w3.org/1999/02/22-rdf-syntax-ns#"
   xmlns:svg="http://www.w3.org/2000/svg"
   xmlns="http://www.w3.org/2000/svg"
   xmlns:xlink="http://www.w3.org/1999/xlink"
   xmlns:sodipodi="http://sodipodi.sourceforge.net/DTD/sodipodi-0.dtd"
   xmlns:inkscape="http://www.inkscape.org/namespaces/inkscape"
   version="1.1"
   width="64"
   height="64"
   id="svg4082"
   inkscape:version="0.91 r"
   sodipodi:docname="puddletag.svg">
  <sodipodi:namedview
     pagecolor="#ffffff"
     bordercolor="#666666"
     borderopacity="1"
     objecttolerance="10"
     gridtolerance="10"
     guidetolerance="10"
     inkscape:pageopacity="0"
     inkscape:pageshadow="2"
     inkscape:window-width="640"
     inkscape:window-height="480"
     id="namedview56"
     showgrid="false"
     inkscape:zoom="9.8565873"
     inkscape:cx="25.153449"
     inkscape:cy="33.262192"
     inkscape:current-layer="svg4082" />
  <defs
     id="defs4084">
    <linearGradient
       x1="20.153708"
       y1="3.0216999"
       x2="20.153708"
       y2="26.666777"
       id="linearGradient4015"
       xlink:href="#linearGradient4017"
       gradientUnits="userSpaceOnUse" />
    <linearGradient
       id="linearGradient4017">
      <stop
         id="stop4019"
         style="stop-color:#ffffff;stop-opacity:1"
         offset="0" />
      <stop
         id="stop4021"
         style="stop-color:#ffffff;stop-opacity:0.23529412"
         offset="0.49550432" />
      <stop
         id="stop4023"
         style="stop-color:#ffffff;stop-opacity:0.15686275"
         offset="0.88038814" />
      <stop
         id="stop4025"
         style="stop-color:#ffffff;stop-opacity:0.39215687"
         offset="1" />
    </linearGradient>
    <radialGradient
       cx="680.5658"
       cy="365.6579"
       r="12.052631"
       fx="681.32629"
       fy="354.21619"
       id="radialGradient3182"
       xlink:href="#linearGradient9165-5-1"
       gradientUnits="userSpaceOnUse" />
    <linearGradient
       id="linearGradient9165-5-1">
      <stop
         id="stop9167-7-12"
         style="stop-color:#acb9bf;stop-opacity:1"
         offset="0" />
      <stop
         id="stop9169-0-4"
         style="stop-color:#acb9bf;stop-opacity:0"
         offset="1" />
    </linearGradient>
    <radialGradient
       cx="680.5658"
       cy="365.6579"
       r="12.052631"
       fx="680.60205"
       fy="355.25784"
       id="radialGradient3164"
       xlink:href="#linearGradient9165-59"
       gradientUnits="userSpaceOnUse"
       gradientTransform="matrix(0.59927171,0,0,0.59403611,-389.15478,-205.61691)" />
    <linearGradient
       id="linearGradient9165-59">
      <stop
         id="stop9167-6"
         style="stop-color:#b6c5cc;stop-opacity:1"
         offset="0" />
      <stop
         id="stop9169-9"
         style="stop-color:#e5f0f6;stop-opacity:0"
         offset="1" />
    </linearGradient>
    <radialGradient
       cx="676"
       cy="-233.5"
       r="29.5"
       fx="680.40613"
       fy="-249.59378"
       id="radialGradient3169"
       xlink:href="#linearGradient4747-3"
       gradientUnits="userSpaceOnUse"
       gradientTransform="matrix(0.81780319,1.9067797e-8,-1.5649504e-8,0.65951858,-536.83494,170.99757)" />
    <linearGradient
       id="linearGradient4747-3">
      <stop
         id="stop4749-7"
         style="stop-color:#ffffff;stop-opacity:1"
         offset="0" />
      <stop
         id="stop9072-8"
         style="stop-color:#f7f7f7;stop-opacity:1"
         offset="0.5" />
      <stop
         id="stop4751-3"
         style="stop-color:#dbe0e1;stop-opacity:1"
         offset="1" />
    </linearGradient>
    <radialGradient
       cx="4.9929786"
       cy="43.5"
       r="2.5"
       fx="4.9929786"
       fy="43.5"
       id="radialGradient3176"
       xlink:href="#linearGradient3688-5"
       gradientUnits="userSpaceOnUse"
       gradientTransform="matrix(2.003784,0,0,1.4,27.98813,-17.4)" />
    <linearGradient
       id="linearGradient3688-5">
      <stop
         id="stop3690-8"
         style="stop-color:#000000;stop-opacity:1"
         offset="0" />
      <stop
         id="stop3692-6"
         style="stop-color:#000000;stop-opacity:0"
         offset="1" />
    </linearGradient>
    <radialGradient
       cx="4.9929786"
       cy="43.5"
       r="2.5"
       fx="4.9929786"
       fy="43.5"
       id="radialGradient3178"
       xlink:href="#linearGradient3688-5"
       gradientUnits="userSpaceOnUse"
       gradientTransform="matrix(2.003784,0,0,1.4,-20.01187,-104.4)" />
    <linearGradient
       x1="25.058096"
       y1="47.027729"
       x2="25.058096"
       y2="39.999443"
       id="linearGradient3180"
       xlink:href="#linearGradient3702-4-7"
       gradientUnits="userSpaceOnUse" />
    <linearGradient
       id="linearGradient3702-4-7">
      <stop
         id="stop3704-7-8"
         style="stop-color:#000000;stop-opacity:0"
         offset="0" />
      <stop
         id="stop3710-0-0"
         style="stop-color:#000000;stop-opacity:1"
         offset="0.5" />
      <stop
         id="stop3706-7-2"
         style="stop-color:#000000;stop-opacity:0"
         offset="1" />
    </linearGradient>
    <linearGradient
       x1="20.153708"
       y1="3.0216999"
       x2="20.153708"
       y2="26.666777"
       id="linearGradient3027"
       xlink:href="#linearGradient4017"
       gradientUnits="userSpaceOnUse"
       gradientTransform="matrix(2,0,0,2,0,4)" />
    <radialGradient
       cx="680.5658"
       cy="365.6579"
       r="12.052631"
       fx="681.32629"
       fy="354.21619"
       id="radialGradient3030"
       xlink:href="#linearGradient9165-5-1"
       gradientUnits="userSpaceOnUse"
       gradientTransform="matrix(0.89356594,0,0,0.88575922,-589.93894,-297.29202)" />
    <radialGradient
       cx="680.5658"
       cy="365.6579"
       r="12.052631"
       fx="680.60205"
       fy="355.25784"
       id="radialGradient3033"
       xlink:href="#linearGradient9165-59"
       gradientUnits="userSpaceOnUse"
       gradientTransform="matrix(1.1985434,0,0,1.1880722,-778.30956,-411.23382)" />
    <radialGradient
       cx="676"
       cy="-233.5"
       r="29.5"
       fx="680.40613"
       fy="-249.59378"
       id="radialGradient3037"
       xlink:href="#linearGradient2867-449-88-871-390-598-476-591-434-148-57-177-3-8"
       gradientUnits="userSpaceOnUse"
       gradientTransform="matrix(1.6356064,3.8135594e-8,-3.1299008e-8,1.3190372,-1073.6699,341.99514)" />
    <radialGradient
       cx="4.9929786"
       cy="43.5"
       r="2.5"
       fx="4.9929786"
       fy="43.5"
       id="radialGradient3044"
       xlink:href="#linearGradient3688-5"
       gradientUnits="userSpaceOnUse"
       gradientTransform="matrix(2.003784,0,0,1.4,27.98813,-17.4)" />
    <radialGradient
       cx="4.9929786"
       cy="43.5"
       r="2.5"
       fx="4.9929786"
       fy="43.5"
       id="radialGradient3046"
       xlink:href="#linearGradient3688-5"
       gradientUnits="userSpaceOnUse"
       gradientTransform="matrix(2.003784,0,0,1.4,-20.01187,-104.4)" />
    <linearGradient
       x1="25.058096"
       y1="47.027729"
       x2="25.058096"
       y2="39.999443"
       id="linearGradient3048"
       xlink:href="#linearGradient3702-4-7"
       gradientUnits="userSpaceOnUse" />
    <linearGradient
       x1="20.153708"
       y1="3.0216999"
       x2="20.153708"
       y2="26.666777"
       id="linearGradient3027-0"
       xlink:href="#linearGradient4017-9"
       gradientUnits="userSpaceOnUse"
       gradientTransform="matrix(2,0,0,2,0,4)" />
    <linearGradient
       id="linearGradient4017-9">
      <stop
         id="stop4019-8"
         style="stop-color:#ffffff;stop-opacity:1"
         offset="0" />
      <stop
         id="stop4021-9"
         style="stop-color:#ffffff;stop-opacity:0.23529412"
         offset="0.49550432" />
      <stop
         id="stop4023-5"
         style="stop-color:#ffffff;stop-opacity:0.15686275"
         offset="0.88038814" />
      <stop
         id="stop4025-8"
         style="stop-color:#ffffff;stop-opacity:0.39215687"
         offset="1" />
    </linearGradient>
    <radialGradient
       gradientTransform="matrix(2.003784,0,0,1.4,27.98813,-17.4)"
       gradientUnits="userSpaceOnUse"
       xlink:href="#linearGradient3688-166-749-4-0-3-8"
       id="radialGradient3337-2-2"
       fy="43.5"
       fx="4.9929786"
       r="2.5"
       cy="43.5"
       cx="4.9929786" />
    <linearGradient
       id="linearGradient3688-166-749-4-0-3-8">
      <stop
         offset="0"
         style="stop-color:#181818;stop-opacity:1"
         id="stop2883-4-0-1-8" />
      <stop
         offset="1"
         style="stop-color:#181818;stop-opacity:0"
         id="stop2885-9-2-9-6" />
    </linearGradient>
    <radialGradient
       gradientTransform="matrix(2.003784,0,0,1.4,-20.01187,-104.4)"
       gradientUnits="userSpaceOnUse"
       xlink:href="#linearGradient3688-166-749-4-0-3-8"
       id="radialGradient3339-1-4"
       fy="43.5"
       fx="4.9929786"
       r="2.5"
       cy="43.5"
       cx="4.9929786" />
    <linearGradient
       gradientUnits="userSpaceOnUse"
       xlink:href="#linearGradient3702-501-757-8-4-1-1"
       id="linearGradient6394"
       y2="39.999443"
       x2="25.058096"
       y1="47.027729"
       x1="25.058096" />
    <linearGradient
       id="linearGradient3702-501-757-8-4-1-1">
      <stop
         offset="0"
         style="stop-color:#181818;stop-opacity:0"
         id="stop2895-8-9-9-1" />
      <stop
         offset="0.5"
         style="stop-color:#181818;stop-opacity:1"
         id="stop2897-7-8-7-7" />
      <stop
         offset="1"
         style="stop-color:#181818;stop-opacity:0"
         id="stop2899-4-5-1-5" />
    </linearGradient>
    <radialGradient
       cx="7.8500957"
       cy="9.9571075"
       r="12.671875"
       fx="7.3198657"
       fy="9.9571075"
       id="radialGradient5521-1"
       xlink:href="#linearGradient2867-449-88-871-390-598-476-591-434-148-57-177-3-8"
       gradientUnits="userSpaceOnUse"
       gradientTransform="matrix(0,8.3467704,-16.443533,0,121.94509,-83.175527)" />
    <linearGradient
       id="linearGradient2867-449-88-871-390-598-476-591-434-148-57-177-3-8">
      <stop
         offset="0"
         style="stop-color:#90dbec;stop-opacity:1"
         id="stop3750-8-9" />
      <stop
         offset="0.26238"
         style="stop-color:#42baea;stop-opacity:1"
         id="stop3752-3-2" />
      <stop
         offset="0.704952"
         style="stop-color:#3689e6;stop-opacity:1"
         id="stop3754-7-2" />
      <stop
         offset="1"
         style="stop-color:#2b63a0;stop-opacity:1"
         id="stop3756-9-3" />
    </linearGradient>
    <linearGradient
       gradientTransform="matrix(1.4324324,0,0,1.4362832,-77.335319,-6.995162)"
       gradientUnits="userSpaceOnUse"
       xlink:href="#linearGradient3924-2-2-5-8"
       id="linearGradient3381-5-4"
       y2="43"
       x2="23.99999"
       y1="4.999989"
       x1="23.99999" />
    <linearGradient
       id="linearGradient3924-2-2-5-8">
      <stop
         offset="0"
         style="stop-color:#ffffff;stop-opacity:1"
         id="stop3926-9-4-9-6" />
      <stop
         offset="0.06316455"
         style="stop-color:#ffffff;stop-opacity:0.23529412"
         id="stop3928-9-8-6-5" />
      <stop
         offset="0.95056331"
         style="stop-color:#ffffff;stop-opacity:0.15686275"
         id="stop3930-3-5-1-7" />
      <stop
         offset="1"
         style="stop-color:#ffffff;stop-opacity:0.39215687"
         id="stop3932-8-0-4-8" />
    </linearGradient>
    <radialGradient
       inkscape:collect="always"
       xlink:href="#linearGradient4017-9"
       id="radialGradient4809"
       cx="26.682663"
       cy="32.95932"
       fx="26.682663"
       fy="32.95932"
       r="29.907242"
       gradientTransform="matrix(0.71158837,0.006192,-0.00564367,0.64857441,7.881602,10.804252)"
       gradientUnits="userSpaceOnUse" />
  </defs>
  <metadata
     id="metadata4087">
    <rdf:RDF>
      <cc:Work
         rdf:about="">
        <dc:format>image/svg+xml</dc:format>
        <dc:type
           rdf:resource="http://purl.org/dc/dcmitype/StillImage" />
        <dc:title></dc:title>
      </cc:Work>
    </rdf:RDF>
  </metadata>
  <g
     transform="matrix(1.4210393,0,0,1.1663938,-2.1052206,7.1794886)"
     id="g3712-3-7"
     style="opacity:0.23999999">
    <rect
       width="5"
       height="7"
       x="38"
       y="40"
       id="rect2801-5"
       style="fill:url(#radialGradient3044);fill-opacity:1;stroke:none" />
    <rect
       width="5"
       height="7"
       x="-10"
       y="-47"
       transform="scale(-1,-1)"
       id="rect3696-8"
       style="fill:url(#radialGradient3046);fill-opacity:1;stroke:none" />
    <rect
       width="28"
       height="7.0000005"
       x="10"
       y="40"
       id="rect3700-8"
       style="fill:url(#linearGradient3048);fill-opacity:1;stroke:none" />
  </g>
  <path
     d="m 37.27664,9.000003 c -5.872872,0 -10.958994,3.445355 -13.480054,8.445966 -1.633992,-1.063624 -3.568278,-1.689161 -5.64761,-1.689161 -5.828346,0 -10.5531776,4.840068 -10.5531776,10.8108 0,0.94926 0.146552,1.867634 0.3710032,2.74487 C 3.7573592,32.220938 1.0000294,37.16892 1.0000294,42.783724 1.0000294,51.7675 8.0601156,59 16.829806,59 l 30.340456,0 c 8.7697,0 15.829766,-7.2325 15.829766,-16.216276 0,-7.173908 -4.520912,-13.22219 -10.800548,-15.371606 0.17038,-0.932366 0.247338,-1.88849 0.247338,-2.871524 0,-8.582895 -6.7919,-15.540591 -15.170178,-15.540591 z"
     id="rect4519"
     style="color:#000000;fill:url(#radialGradient3037);fill-opacity:1.0;fill-rule:nonzero;stroke:none;stroke-width:1;marker:none;visibility:visible;display:inline;overflow:visible;enable-background:accumulate" />
  <path
     d="m 37.375,9.5 c -5.578939,0 -10.440134,3.276679 -12.84375,8.0625 a 0.98720122,0.98720122 0 0 1 -1.40625,0.375 c -1.512137,-0.988066 -3.272043,-1.53125 -5.1875,-1.53125 -5.376804,0 -9.75,4.431502 -9.75,10 0,0.847124 0.1578364,1.710392 0.375,2.5625 a 0.98720122,0.98720122 0 0 1 -0.40625,1.0625 C 4.1437861,32.814155 1.5,37.565248 1.5,42.96875 1.5,51.616392 8.2266887,58.5 16.59375,58.5 l 30.8125,0 C 55.773291,58.5 62.5,51.616391 62.5,42.96875 c 0,-6.904803 -4.301757,-12.695512 -10.28125,-14.75 a 0.98720122,0.98720122 0 0 1 -0.65625,-1.125 c 0.160866,-0.883667 0.21875,-1.797772 0.21875,-2.75 C 51.78125,16.107322 45.340439,9.5 37.375,9.5 z"
     id="path3072"
     style="color:#000000;fill:none;stroke:url(#linearGradient3027-0);stroke-width:1;stroke-linecap:round;stroke-linejoin:round;stroke-miterlimit:4;stroke-opacity:1;stroke-dasharray:none;stroke-dashoffset:0;marker:none;visibility:visible;display:inline;overflow:visible;enable-background:accumulate" />
  <path
     style="color:#000000;fill:none;fill-opacity:1;fill-rule:nonzero;stroke:#000000;stroke-width:1;marker:none;visibility:visible;display:inline;overflow:visible;enable-background:accumulate;stroke-opacity:1;opacity:0.4"
     id="path4397"
     d="m 37.27664,9.000003 c -5.872872,0 -10.958994,3.445355 -13.480054,8.445966 -1.633992,-1.063624 -3.568278,-1.689161 -5.64761,-1.689161 -5.828346,0 -10.5531776,4.840068 -10.5531776,10.8108 0,0.94926 0.146552,1.867634 0.3710032,2.74487 C 3.7573592,32.220938 1.0000294,37.16892 1.0000294,42.783724 1.0000294,51.7675 8.0601156,59 16.829806,59 l 30.340456,0 c 8.7697,0 15.829766,-7.2325 15.829766,-16.216276 0,-7.173908 -4.520912,-13.22219 -10.800548,-15.371606 0.17038,-0.932366 0.247338,-1.88849 0.247338,-2.871524 0,-8.582895 -6.7919,-15.540591 -15.170178,-15.540591 z" />
  <g
     id="g4775"
     transform="translate(13.036613,4.0261504)"
     style="stroke:url(#radialGradient4809)">
    <path
       inkscape:connector-curvature="0"
       id="path4025"
       d="m 10.260761,38.488446 c -0.2702716,-0.286068 -0.2992146,0.02969 -0.148922,0.89411 0.153259,0.88104 0.753817,2.115787 1.638141,3.457219 0.884322,1.341428 2.041776,2.78315 3.365629,4.142701 0.940567,0.965758 2.363287,2.003304 3.842181,2.831344 1.478896,0.828041 3.02306,1.449412 4.199593,1.669003 1.577007,0.294349 2.212039,0.295047 1.906199,0 -0.30584,-0.29505 -1.537607,-0.877955 -3.752827,-1.788219 -1.300733,-0.534421 -2.27178,-1.020893 -3.157142,-1.609394 -0.885364,-0.5885 -1.68548,-1.273398 -2.68059,-2.265075 -1.391439,-1.386738 -3.015197,-3.458659 -3.603905,-4.589757 -0.81696,-1.569872 -1.338087,-2.455864 -1.608357,-2.741932 z"
       style="color:#000000;display:inline;overflow:visible;visibility:visible;opacity:0.06000001;fill:none;fill-opacity:1;stroke:url(#radialGradient4809);stroke-width:0.95340729;stroke-opacity:1;marker:none;enable-background:accumulate" />
    <path
       inkscape:connector-curvature="0"
       id="path4023"
       d="m 10.260761,38.488446 c 0.27027,0.286068 0.791397,1.17206 1.608357,2.741932 0.588708,1.131098 2.212466,3.203019 3.603905,4.589757 0.99511,0.991677 1.795226,1.676575 2.68059,2.265075 0.885362,0.588501 1.856409,1.074973 3.157142,1.609394 2.21522,0.910264 3.446987,1.493169 3.752827,1.788219 0.30584,0.295047 -0.329192,0.294349 -1.906199,0 C 21.98085,51.263232 20.436686,50.641861 18.95779,49.81382 17.478896,48.98578 16.056176,47.948234 15.115609,46.982476 13.791756,45.622925 12.634302,44.181203 11.74998,42.839775 10.865656,41.498343 10.265098,40.263596 10.111839,39.382556 9.9615464,38.518138 9.9904934,38.202378 10.260761,38.488446 Z"
       style="color:#000000;display:inline;overflow:visible;visibility:visible;opacity:0.2;fill:none;fill-opacity:1;stroke:url(#radialGradient4809);stroke-width:0.95340729;stroke-opacity:1;marker:none;enable-background:accumulate" />
    <path
       inkscape:connector-curvature="0"
       id="path4021"
       d="m 9.3970164,32.885368 c -0.09484,-0.628752 -0.178706,-0.213592 -0.178706,0.923911 -0.003,1.137178 0.08088,1.641292 0.178706,1.132537 0.09247,-0.508748 0.09546,-1.427694 0,-2.056448 z"
       style="color:#000000;display:inline;overflow:visible;visibility:visible;opacity:0.06000001;fill:none;fill-opacity:1;stroke:url(#radialGradient4809);stroke-width:0.95340729;stroke-opacity:1;marker:none;enable-background:accumulate" />
    <path
       inkscape:connector-curvature="0"
       id="path4019"
       d="m 9.3970164,32.885368 c 0.09546,0.628754 0.09247,1.5477 0,2.056448 -0.09784,0.508755 -0.18167,0.0048 -0.178706,-1.132537 0,-1.137503 0.08386,-1.552663 0.178706,-0.923911 z"
       style="color:#000000;display:inline;overflow:visible;visibility:visible;opacity:0.2;fill:none;fill-opacity:1;stroke:url(#radialGradient4809);stroke-width:0.95340729;stroke-opacity:1;marker:none;enable-background:accumulate" />
    <path
       inkscape:connector-curvature="0"
       id="path4015"
       d="m -2.7890388,31.781156 c 0.227981,0.141167 0.418659,0.712697 0.418659,1.25677 0,0.544069 -0.190678,1.115599 -0.418659,1.256767 -0.247626,0.153047 -0.41866,-0.360822 -0.41866,-1.256767 0,-0.895956 0.171034,-1.409817 0.41866,-1.25677 z"
       style="color:#000000;display:inline;overflow:visible;visibility:visible;opacity:0.2;fill:none;fill-opacity:1;stroke:url(#radialGradient4809);stroke-width:0.95723861;stroke-opacity:1;marker:none;enable-background:accumulate" />
    <path
       inkscape:connector-curvature="0"
       id="path4013"
       d="m 28.846194,29.994415 c -0.799765,-0.149457 -1.525273,-0.02742 -2.114688,0.327839 -0.589417,0.355284 -1.038793,0.927533 -1.221159,1.669004 -0.182364,0.74147 -0.09376,1.643408 0.327628,2.652521 0.260262,0.623295 0.434479,0.997139 0.685041,1.192144 0.250558,0.195007 0.573202,0.234338 1.04245,0.178822 0.766864,-0.09069 1.214477,-0.375119 1.280728,-0.625876 0.03313,-0.125378 -0.04351,-0.24942 -0.208492,-0.327837 -0.164981,-0.07842 -0.425786,-0.115921 -0.804175,-0.0894 -0.512236,0.03591 -0.802281,0.02219 -0.982882,-0.149016 -0.180607,-0.171201 -0.242414,-0.498848 -0.297845,-1.07293 -0.04744,-0.488861 -0.03805,-0.855211 0.08936,-1.162342 0.127392,-0.307133 0.361777,-0.55731 0.714824,-0.804695 0.627253,-0.43966 1.205155,-0.655489 1.846628,-0.625877 0.641476,0.02962 1.362313,0.29586 2.233828,0.804697 l 1.429643,0.834502 -1.548783,-1.460378 c -0.81341,-0.772746 -1.672342,-1.191705 -2.472107,-1.341164 z"
       style="color:#000000;display:inline;overflow:visible;visibility:visible;opacity:0.06000001;fill:none;fill-opacity:1;stroke:url(#radialGradient4809);stroke-width:0.95340729;stroke-opacity:1;marker:none;enable-background:accumulate" />
    <path
       inkscape:connector-curvature="0"
       id="path4011"
       d="m 28.846194,29.994415 c 0.799763,0.14946 1.658697,0.568419 2.472101,1.341163 l 1.548784,1.460378 -1.429647,-0.834502 c -0.871515,-0.508836 -1.592353,-0.775087 -2.233827,-0.804697 -0.641473,-0.02962 -1.219376,0.186218 -1.846628,0.625876 -0.353048,0.247387 -0.587434,0.497564 -0.714824,0.804698 -0.127392,0.307132 -0.136789,0.67348 -0.08936,1.162341 0.05541,0.574082 0.117245,0.901728 0.297844,1.072929 0.1806,0.171204 0.470647,0.184927 0.982882,0.149018 0.378389,-0.02653 0.639195,0.01111 0.804176,0.0894 0.164982,0.07842 0.241619,0.202462 0.20849,0.327837 -0.06626,0.250759 -0.513862,0.535197 -1.280726,0.625878 -0.469248,0.05551 -0.791893,0.01617 -1.042451,-0.178824 -0.250562,-0.195003 -0.424778,-0.568849 -0.685042,-1.192143 -0.421373,-1.009113 -0.509991,-1.911049 -0.327627,-2.65252 0.182364,-0.741473 0.631741,-1.313722 1.221159,-1.669003 0.589416,-0.355282 1.314923,-0.477299 2.114687,-0.32784 z"
       style="color:#000000;display:inline;overflow:visible;visibility:visible;opacity:0.2;fill:none;fill-opacity:1;stroke:url(#radialGradient4809);stroke-width:0.95340729;stroke-opacity:1;marker:none;enable-background:accumulate" />
    <path
       inkscape:connector-curvature="0"
       id="path4007"
       d="m -6.2579407,29.806232 c 0.1154734,0.285512 0.1154734,0.761795 0,1.047308 -0.114879,0.285516 -0.2093309,0.06237 -0.2093309,-0.508693 0,-0.571036 0.094459,-0.824132 0.2093309,-0.538615 z"
       style="color:#000000;display:inline;overflow:visible;visibility:visible;opacity:0.2;fill:none;fill-opacity:1;stroke:url(#radialGradient4809);stroke-width:0.95723861;stroke-opacity:1;marker:none;enable-background:accumulate" />
    <path
       inkscape:connector-curvature="0"
       id="path4003"
       d="m -1.8620048,26.484768 c 0.05415,-0.11351 0.146516,0.01534 0.269139,0.329154 0.148221,0.379856 0.195579,0.928661 0.149522,1.406385 -0.04606,0.477729 -0.174028,0.867771 -0.358851,0.867771 -0.08747,0 -0.165589,-0.699454 -0.149522,-1.556001 0.01191,-0.593126 0.03555,-0.933789 0.08971,-1.047309 z"
       style="color:#000000;display:inline;overflow:visible;visibility:visible;opacity:0.2;fill:none;fill-opacity:1;stroke:url(#radialGradient4809);stroke-width:0.95723861;stroke-opacity:1;marker:none;enable-background:accumulate" />
    <path
       inkscape:connector-curvature="0"
       id="path4001"
       d="m 26.791073,26.119944 c -1.093528,0.311551 -2.109542,0.936543 -3.216708,1.937238 -0.962212,0.869925 -1.629237,1.907401 -1.995552,2.980361 -0.366313,1.072959 -0.433918,2.191171 -0.238274,3.278396 0.195641,1.087227 0.676205,2.127242 1.399864,3.039971 0.723659,0.912727 1.70113,1.685804 2.918864,2.23527 0.779619,0.351756 1.231641,0.542017 1.69771,0.566268 0.466066,0.02426 0.922542,-0.116589 1.697708,-0.387448 0.564996,-0.197397 1.125761,-0.495329 1.638138,-0.894108 0.512377,-0.398776 0.97848,-0.896929 1.429648,-1.49018 0.973183,-1.280474 1.401143,-2.05728 1.310512,-2.235271 -0.09064,-0.177991 -0.688949,0.247246 -1.757277,1.341161 -0.999562,1.023758 -2.347177,2.178407 -3.008218,2.563113 -0.57449,0.334538 -0.91915,0.503834 -1.310511,0.476857 -0.391362,-0.02699 -0.837173,-0.252025 -1.69771,-0.685482 -0.971397,-0.489375 -1.782398,-1.143471 -2.382747,-1.937235 -0.600346,-0.793764 -0.991574,-1.742235 -1.191372,-2.801541 -0.08966,-0.474533 -0.06425,-0.990153 0.08936,-1.549787 0.153613,-0.559637 0.420976,-1.154479 0.774394,-1.72861 0.35342,-0.57413 0.800746,-1.12118 1.310511,-1.639198 0.509765,-0.51802 1.104843,-1.009473 1.727491,-1.400769 1.215965,-0.764181 2.096923,-1.155173 2.978436,-1.162341 0.440749,-0.0037 0.86568,0.113324 1.340295,0.298035 0.474616,0.184713 0.991784,0.462127 1.57857,0.834501 1.103022,0.700076 1.983171,1.410903 2.650807,2.205468 0.667638,0.794562 1.12683,1.673585 1.459432,2.682326 0.26056,0.790048 0.357347,1.553699 0.327628,2.32468 -0.0297,0.770983 -0.171853,1.548901 -0.446766,2.265074 -0.274911,0.716174 -0.686575,1.371217 -1.161588,1.996843 -0.475015,0.625626 -1.037896,1.199471 -1.667922,1.698805 -0.630027,0.499337 -1.315171,0.94425 -2.055123,1.281557 -0.739946,0.337308 -1.518399,0.57575 -2.323176,0.715286 -0.80478,0.139538 -1.647575,0.183387 -2.472102,0.0894 -0.824527,-0.09396 -1.643143,-0.322257 -2.442314,-0.685483 -1.052033,-0.478282 -2.294635,-1.511431 -3.335849,-2.682327 -1.041212,-1.170896 -1.877385,-2.481662 -2.144472,-3.487023 -0.18555,-0.697885 -0.296196,-1.051284 -0.357413,-1.102732 -0.0612,-0.05145 -0.06861,0.188894 -0.08936,0.715284 -0.02179,0.590535 0.136713,1.262055 0.446765,1.937237 0.310051,0.675181 0.775633,1.358225 1.340294,2.026645 0.564665,0.668422 1.223734,1.307373 1.965768,1.877629 0.742036,0.570253 1.570372,1.079693 2.412531,1.460377 1.176829,0.53196 2.400407,0.80371 3.603907,0.834503 1.203497,0.0308 2.374817,-0.171649 3.484768,-0.596076 1.109951,-0.424424 2.141833,-1.073744 3.038002,-1.907431 0.896171,-0.833685 1.671651,-1.872781 2.233829,-3.069772 0.505111,-1.075227 0.779347,-2.400395 0.833961,-3.725451 0.05459,-1.325059 -0.11666,-2.631393 -0.536118,-3.636042 -0.2158,-0.516777 -0.553789,-1.041737 -0.982885,-1.549785 -0.429094,-0.508053 -0.949666,-1.017828 -1.519001,-1.46038 -1.138667,-0.885103 -2.491516,-1.565362 -3.752828,-1.847826 -1.346681,-0.3016 -2.510377,-0.311547 -3.603906,0 z"
       style="color:#000000;display:inline;overflow:visible;visibility:visible;opacity:0.06000001;fill:none;fill-opacity:1;stroke:url(#radialGradient4809);stroke-width:0.95340729;stroke-opacity:1;marker:none;enable-background:accumulate" />
    <path
       inkscape:connector-curvature="0"
       id="path3999"
       d="m 26.791073,26.119944 c 1.09353,-0.311549 2.257225,-0.301601 3.603906,0 1.261313,0.282464 2.614161,0.962722 3.752828,1.847826 0.569335,0.442551 1.089908,0.952326 1.519001,1.460378 0.429097,0.50805 0.767085,1.033009 0.982885,1.549787 0.419448,1.004647 0.590729,2.310982 0.536118,3.636042 -0.05459,1.325056 -0.328849,2.650224 -0.83396,3.725451 -0.562178,1.196989 -1.337659,2.236087 -2.233829,3.069772 -0.896169,0.833686 -1.928052,1.483005 -3.038003,1.907431 -1.10995,0.424427 -2.281271,0.626864 -3.484767,0.596073 -1.2035,-0.0308 -2.427079,-0.302541 -3.603908,-0.834502 C 23.149186,42.697519 22.320849,42.18808 21.578813,41.617827 20.836779,41.047569 20.17771,40.408619 19.613045,39.740198 19.048383,39.071777 18.582802,38.388734 18.272752,37.713552 17.9627,37.03837 17.804198,36.366851 17.825987,35.776316 c 0.02073,-0.52639 0.02812,-0.766735 0.08936,-0.715284 0.0612,0.05146 0.171864,0.404845 0.357413,1.102732 0.267087,1.00536 1.103259,2.316126 2.144471,3.487021 1.041214,1.170897 2.283818,2.204047 3.33585,2.682328 0.799172,0.363225 1.617788,0.591508 2.442314,0.685483 0.824527,0.09397 1.667323,0.05013 2.472103,-0.0894 0.804776,-0.139537 1.583229,-0.377979 2.323176,-0.715287 0.739951,-0.337308 1.425096,-0.78222 2.055123,-1.281556 0.630026,-0.499335 1.192906,-1.07318 1.667921,-1.698806 0.475014,-0.625625 0.886678,-1.280668 1.161588,-1.996842 0.274914,-0.716174 0.417049,-1.494093 0.446767,-2.265077 0.02971,-0.770981 -0.06706,-1.53463 -0.327628,-2.324679 -0.332603,-1.00874 -0.791795,-1.887763 -1.459433,-2.682326 -0.667635,-0.794563 -1.547784,-1.50539 -2.650807,-2.205468 -0.586786,-0.372372 -1.103954,-0.649787 -1.57857,-0.8345 -0.474614,-0.184714 -0.899545,-0.301621 -1.340295,-0.298034 -0.881512,0.0072 -1.762471,0.398159 -2.978435,1.162339 -0.622649,0.391298 -1.217727,0.882751 -1.727492,1.400771 -0.509764,0.518016 -0.957091,1.065066 -1.310511,1.639197 -0.353418,0.574131 -0.620781,1.168974 -0.774394,1.728611 -0.153611,0.559634 -0.17902,1.075254 -0.08936,1.549787 0.199798,1.059304 0.591026,2.007776 1.191373,2.801539 0.600348,0.793764 1.411349,1.44786 2.382747,1.937235 0.860536,0.433459 1.306348,0.658506 1.697709,0.685483 0.39136,0.027 0.736021,-0.142318 1.310511,-0.476856 0.661041,-0.384708 2.008656,-1.539357 3.008218,-2.563114 1.068329,-1.093915 1.666646,-1.519153 1.757277,-1.341161 0.09064,0.177991 -0.337329,0.954797 -1.310512,2.235271 -0.451168,0.593252 -0.917271,1.091402 -1.429648,1.49018 -0.512376,0.39878 -1.073141,0.69671 -1.638138,0.894109 -0.775165,0.270848 -1.231642,0.4117 -1.697708,0.387446 -0.466068,-0.02424 -0.918091,-0.214513 -1.697709,-0.566267 -1.217735,-0.549464 -2.195205,-1.322542 -2.918864,-2.235271 -0.72366,-0.912727 -1.204223,-1.952741 -1.399864,-3.039968 -0.195645,-1.087226 -0.128033,-2.205438 0.238273,-3.278398 0.366315,-1.072959 1.03334,-2.110434 1.995552,-2.980362 1.107167,-1.000694 2.123181,-1.625685 3.216709,-1.937236 z"
       style="color:#000000;display:inline;overflow:visible;visibility:visible;opacity:0.2;fill:none;fill-opacity:1;stroke:url(#radialGradient4809);stroke-width:0.95340729;stroke-opacity:1;marker:none;enable-background:accumulate" />
    <path
       inkscape:connector-curvature="0"
       id="path3995"
       d="m 24.393998,14.575382 1.644737,0.02993 -2.661485,1.017382 c -1.457764,0.561161 -3.116978,1.496538 -4.665077,2.573387 -1.548098,1.076849 -2.974739,2.281581 -3.94737,3.41123 -0.688116,0.799447 -1.956233,2.737217 -2.811006,4.279002 -0.807161,1.456458 -1.282551,2.262209 -1.555028,2.573386 -0.136232,0.155587 -0.217405,0.164355 -0.269139,0.08976 -0.05172,-0.07457 -0.0598,-0.241359 -0.0598,-0.508691 0,-0.741901 0.582689,-2.020049 1.525122,-3.471079 0.942432,-1.451033 2.245781,-3.087338 3.618422,-4.458538 1.802118,-1.80026 3.500233,-3.191119 5.053833,-4.129386 0.776804,-0.469136 1.525483,-0.810122 2.212921,-1.047309 0.687437,-0.237186 1.333952,-0.364806 1.913878,-0.359076 z"
       style="color:#000000;display:inline;overflow:visible;visibility:visible;opacity:0.2;fill:none;fill-opacity:1;stroke:url(#radialGradient4809);stroke-width:0.95723861;stroke-opacity:1;marker:none;enable-background:accumulate" />
    <path
       inkscape:connector-curvature="0"
       id="path3993"
       d="m -10.558494,34.256334 c 0.02381,0.940318 0.05278,1.943429 0.119137,1.311357 0.04492,-0.442637 0.0019,-1.100644 0,-1.728609 -0.03748,0.140345 -0.08543,0.275335 -0.119137,0.417252 z"
       style="color:#000000;display:inline;overflow:visible;visibility:visible;opacity:0.2;fill:none;fill-opacity:1;stroke:url(#radialGradient4809);stroke-width:0.95340729;stroke-opacity:1;marker:none;enable-background:accumulate" />
    <path
       inkscape:connector-curvature="0"
       id="path3991"
       d="m 5.2861824,52.527418 c -0.04117,-0.324667 -0.8799,-2.129866 -2.144472,-4.559953 -1.348159,-2.590723 -2.88555596,-5.874559 -3.39541796,-7.301885 -0.509859,-1.427329 -0.95042924,-2.566011 -1.01266724,-2.503504 -0.06225,0.06251 0.0564,1.068139 0.26805924,2.205466 0.225886,1.214563 0.863842,3.002732 1.727494,4.887792 0.86365096,1.885063 1.93869896,3.841886 3.00821796,5.454065 0.715815,1.079106 1.229813,1.6572 1.459432,1.818019 l 0.08935,0 z"
       style="color:#000000;display:inline;overflow:visible;visibility:visible;opacity:0.2;fill:none;fill-opacity:1;stroke:url(#radialGradient4809);stroke-width:0.95340729;stroke-opacity:1;marker:none;enable-background:accumulate" />
    <path
       inkscape:connector-curvature="0"
       id="path3989"
       d="m 32.228931,8.5608422 c 0.110581,0.19691 0.239236,0.39486 0.239236,0.598461 0,0.252648 -0.415065,0.454981 -1.166271,0.598461 -0.751207,0.14348 -1.816863,0.233669 -3.16986,0.239385 -1.304036,0.0056 -2.604652,0.1460128 -3.887562,0.4189228 -1.28291,0.272913 -2.569798,0.656465 -3.797851,1.167001 -1.228047,0.510535 -2.419168,1.136813 -3.558613,1.855231 -1.139446,0.71842 -2.212556,1.557128 -3.229669,2.453694 -1.017109,0.896561 -1.979866,1.857567 -2.840911,2.902538 -0.8610436,1.044971 -1.6313966,2.157823 -2.3026326,3.321463 -0.671235,1.16364 -1.226958,2.368123 -1.674643,3.620693 -0.447684,1.252571 -0.766538,2.548317 -0.956938,3.860079 -0.180806,1.245541 -0.25154,2.570443 -0.209331,3.919924 0.04221,1.349481 0.195951,2.745049 0.448564,4.129385 0.252615,1.384338 0.596249,2.74936 1.046654,4.099465 0.450402,1.350099 1.009157,2.673142 1.644736,3.919923 0.552986,1.084346 1.5035336,2.407829 2.5418696,3.560848 1.038334,1.153018 2.137445,2.132988 2.930624,2.543463 0.729473,0.377424 1.120737,0.416702 1.136365,0.209458 0.01561,-0.207238 -0.338605,-0.655936 -1.046654,-1.316614 C 13.088524,49.4611 11.613689,47.58343 10.33896,45.665468 9.0642334,43.747505 7.9858504,41.778547 7.5578594,40.399004 7.0396954,38.727553 6.7399724,36.442816 6.6607304,34.14508 c -0.07925,-2.297738 0.07609,-4.589344 0.478467,-6.283848 0.376499,-1.586775 0.971036,-3.161287 1.734452,-4.638079 0.763416,-1.476792 1.6929476,-2.86635 2.7811036,-4.159309 1.088153,-1.292959 2.327532,-2.465731 3.67823,-3.501002 1.350699,-1.035268 2.814958,-1.929504 4.366032,-2.63323 1.315944,-0.597071 2.740771,-1.063366 4.156704,-1.406385 1.415934,-0.343019 2.81092,-0.58108 4.126798,-0.658309 1.315875,-0.07721 2.542842,-0.02077 3.558616,0.179539 1.015769,0.200306 1.816898,0.557729 2.332535,1.047309 0.660432,0.627186 1.02091,1.139224 1.046654,1.496155 0.01285,0.178463 -0.06247,0.323491 -0.20933,0.418921 -0.146863,0.09545 -0.380499,0.147532 -0.687803,0.149617 -1.023844,0.0069 -1.538498,0.188878 -1.555022,0.448848 -0.01652,0.259966 0.463499,0.586043 1.465311,0.927612 1.504784,0.513021 2.884766,1.174256 3.977275,1.885156 -0.767646,-3.639926 -2.838278,-6.744283 -5.681822,-8.8572328 z"
       style="color:#000000;display:inline;overflow:visible;visibility:visible;opacity:0.2;fill:none;fill-opacity:1;stroke:url(#radialGradient4809);stroke-width:0.95723861;stroke-opacity:1;marker:none;enable-background:accumulate" />
    <path
       inkscape:connector-curvature="0"
       id="path3987"
       d="m 26.165601,6.0025073 c -0.0046,0.03078 -0.19344,0.08979 -0.148921,0.119213 0.189342,0.125123 0.855292,0.239113 2.144474,0.4768569 0.568961,0.10496 0.897446,0.344712 1.37008,0.506662 C 28.46747,6.6067362 27.348971,6.2249653 26.165601,6.0025053 Z"
       style="color:#000000;display:inline;overflow:visible;visibility:visible;opacity:0.2;fill:none;fill-opacity:1;stroke:url(#radialGradient4809);stroke-width:0.95340729;stroke-opacity:1;marker:none;enable-background:accumulate" />
    <path
       inkscape:connector-curvature="0"
       id="path3985"
       d="m 10.33896,13.528073 c -1.1482376,1.059902 -2.1837326,2.157001 -3.1100486,3.321462 -0.995178,1.251032 -1.862203,2.5699 -2.631582,3.97977 -0.769377,1.409871 -1.458476,2.910153 -2.033492,4.518387 -0.403285,1.128369 -0.633686,2.023771 -0.777513,3.171847 -0.143828,1.148077 -0.197417,2.557907 -0.209331,4.727848 -0.01108,2.218981 0.01066,3.628529 0.149522,4.787695 0.138919,1.159161 0.411714,2.078833 0.837322,3.32146 0.711915,2.077113 1.885472,4.539457 3.110048,6.642926 1.224576,2.103468 2.495695,3.846735 3.349285,4.458541 0.234528,0.167814 0.492583,0.295111 0.568183,0.299229 0.162507,0.0074 -1.388269,-2.60319 -2.541868,-4.278999 -1.108059,-1.609818 -2.034833,-3.404753 -2.751198,-5.296388 -0.716363,-1.891634 -1.224143,-3.879831 -1.52512,-5.894847 -0.300977,-2.015018 -0.407253,-4.064502 -0.269139,-6.044466 0.138114,-1.97996 0.50556,-3.898913 1.10646,-5.685383 0.727991,-2.164467 1.500048,-3.959567 2.452154,-5.595619 0.952108,-1.636052 2.088211,-3.106436 3.528711,-4.668002 1.4208636,-1.540194 2.9025576,-2.814872 4.6052656,-3.949846 1.70271,-1.134975 3.634109,-2.1206368 5.921057,-3.0521548 1.139304,-0.464109 1.90448,-0.821037 2.332538,-1.07723 0.428061,-0.256193 0.50249,-0.436379 0.209332,-0.478769 -0.593464,-0.08581 -1.951916,0.328356 -3.468902,0.957537 -1.516988,0.629183 -3.186529,1.488033 -4.425841,2.3339998 -1.064978,0.726935 -1.975918,1.482107 -2.900721,2.244234 -0.337159,0.50547 -0.74113,0.949109 -1.016747,1.496153 -0.157062,-0.102292 -0.345667,-0.14573 -0.508375,-0.239385 z"
       style="color:#000000;display:inline;overflow:visible;visibility:visible;opacity:0.2;fill:none;fill-opacity:1;stroke:url(#radialGradient4809);stroke-width:0.95723861;stroke-opacity:1;marker:none;enable-background:accumulate" />
    <path
       inkscape:connector-curvature="0"
       id="path3983"
       d="m 38.090179,22.475076 c 0.07669,-0.631245 0.179427,-1.25988 0.179427,-1.915078 0,-0.0407 3.15e-4,-0.07908 0,-0.119688 -0.04443,-0.01929 -0.04493,-0.0099 -0.08972,-0.02993 -2.484864,-1.104342 -4.126541,-1.771095 -5.562206,-2.124539 -1.435667,-0.353447 -2.680596,-0.421514 -4.306225,-0.329154 -1.229484,0.06986 -2.155658,0.213954 -3.050243,0.448847 -0.894584,0.23489 -1.740891,0.565352 -2.84091,1.107153 -1.466173,0.72227 -2.751525,1.611702 -3.857658,2.603309 -1.106136,0.991605 -2.036116,2.107915 -2.781104,3.291537 -0.744986,1.183625 -1.321828,2.442063 -1.704546,3.740389 -0.382716,1.298324 -0.578756,2.61414 -0.598087,3.949846 -0.01932,1.335707 0.133293,2.684 0.478471,3.979771 0.345177,1.295768 0.874123,2.561873 1.584928,3.740385 0.710806,1.178514 1.613838,2.277675 2.69139,3.261617 1.07755,0.98394 2.352432,1.831413 3.797851,2.543463 1.211627,0.596843 1.986805,0.946403 2.840909,1.137076 0.854106,0.190675 1.768327,0.23953 3.229669,0.239384 1.363713,-1.31e-4 2.311668,-0.04953 3.139954,-0.209461 0.828289,-0.159938 1.54692,-0.453919 2.48206,-0.897692 1.413716,-0.671047 2.671494,-1.544398 3.767947,-2.603309 1.096449,-1.058908 2.043581,-2.303657 2.781102,-3.710463 0.485425,-0.92615 0.765647,-1.583695 0.927032,-2.393848 0.161389,-0.810151 0.179429,-1.773971 0.179429,-3.291538 5.92e-4,-1.043052 -0.0288,-1.969787 -0.149524,-2.812769 -0.120714,-0.842986 -0.33179,-1.596495 -0.598087,-2.304079 -0.266297,-0.707582 -0.610461,-1.367998 -1.046653,-2.004847 -0.436191,-0.636847 -0.954554,-1.254374 -1.584929,-1.885155 -1.106862,-1.107563 -2.407954,-1.954489 -3.797849,-2.573385 -1.389895,-0.618893 -2.858168,-0.992105 -4.336128,-1.107153 -1.477963,-0.115055 -2.965055,0.01496 -4.336127,0.418923 -1.371073,0.403972 -2.638923,1.066674 -3.708139,2.004846 -1.083944,0.951066 -2.054756,2.063029 -2.751199,3.082078 -0.696441,1.019051 -1.106459,1.942913 -1.106459,2.573385 0.0015,0.463506 0.03448,0.658695 0.209331,0.508693 0.17485,-0.150001 0.492622,-0.6412 1.016748,-1.556 0.590039,-1.029415 1.231685,-1.901523 1.94378,-2.663156 0.712095,-0.76163 1.48553,-1.413615 2.332537,-1.915076 0.847005,-0.501462 1.756433,-0.85825 2.751199,-1.107155 0.994767,-0.248906 2.074288,-0.385039 3.229667,-0.388999 0.9207,-0.0031 1.780339,0.09423 2.601678,0.299231 0.821341,0.205017 1.615963,0.53032 2.362443,0.957537 0.746476,0.427218 1.456996,0.952415 2.15311,1.615848 0.696115,0.663432 1.363245,1.450259 2.033495,2.363924 0.77086,1.049132 1.150009,1.597119 1.345695,2.363924 0.195684,0.766803 0.209331,1.751903 0.209331,3.710461 -6.03e-4,1.638957 -0.04578,2.701614 -0.179428,3.530925 -0.133635,0.829311 -0.339722,1.446851 -0.717701,2.154463 -0.648825,1.214865 -1.832032,2.543224 -3.199765,3.710461 -1.367734,1.16724 -2.94562,2.167785 -4.336127,2.693079 -0.729104,0.275447 -1.453341,0.456131 -2.212921,0.568539 -0.75958,0.112409 -1.535063,0.160365 -2.302633,0.119689 -1.535141,-0.08136 -3.08342,-0.47322 -4.515557,-1.107158 -1.432132,-0.633931 -2.768269,-1.526357 -3.917467,-2.633229 -1.149195,-1.106872 -2.094776,-2.419764 -2.7811,-3.919926 -0.34376,-0.751292 -0.626671,-1.622155 -0.837323,-2.54346 -0.210649,-0.921307 -0.348537,-1.886062 -0.41866,-2.872619 -0.07011,-0.986552 -0.07783,-1.985426 0,-2.932463 0.07783,-0.947031 0.245284,-1.860406 0.47847,-2.663152 0.332001,-1.142735 0.861848,-2.246624 1.584929,-3.261618 0.723084,-1.014991 1.622029,-1.925168 2.661483,-2.752923 1.039458,-0.827756 2.21769,-1.543516 3.498809,-2.124539 1.281122,-0.581022 2.67871,-1.041823 4.126797,-1.316614 1.102547,-0.209235 2.203314,-0.274839 3.289477,-0.179539 1.086162,0.0953 2.166624,0.35077 3.229669,0.748076 1.063041,0.397308 2.106767,0.948978 3.139953,1.64577 0.458306,0.309087 0.894219,0.76942 1.345695,1.137078 z"
       style="color:#000000;display:inline;overflow:visible;visibility:visible;opacity:0.2;fill:none;fill-opacity:1;stroke:url(#radialGradient4809);stroke-width:0.95723861;stroke-opacity:1;marker:none;enable-background:accumulate" />
    <path
       inkscape:connector-curvature="0"
       id="path3981"
       d="m 45.386835,28.788847 c -1.316383,-1.814839 -3.099457,-3.166877 -5.05383,-4.249078 1.116326,1.161669 2.05647,2.180397 2.571773,3.141924 0.623224,1.162904 0.906738,2.38728 1.166268,4.219156 0.263693,1.860638 0.260356,3.726212 -0.0299,5.535771 -0.29026,1.809556 -0.840404,3.57007 -1.674643,5.266463 -0.473228,0.961988 -1.055265,1.855466 -1.704549,2.663153 -0.649282,0.807689 -1.378603,1.523923 -2.21292,2.184385 -0.834317,0.660466 -1.752794,1.245144 -2.781104,1.765462 -1.028306,0.52032 -2.177819,0.989213 -3.409091,1.376462 -1.248832,0.392847 -1.940183,0.744175 -2.0634,0.95754 -0.123214,0.213363 0.346239,0.28761 1.465313,0.11969 1.155226,-0.173334 2.325561,-0.569966 3.498806,-1.107156 1.173244,-0.537189 2.33091,-1.219236 3.409095,-2.034769 1.078181,-0.815534 2.090489,-1.744567 2.960528,-2.752923 0.870038,-1.008361 1.604298,-2.086101 2.153112,-3.201771 0.612507,-1.244406 0.928708,-1.980755 1.10646,-3.08208 0.177751,-1.101322 0.226552,-2.574095 0.269139,-5.386155 0.04362,-2.848923 0.194382,-4.769024 0.328946,-5.416077 z"
       style="color:#000000;display:inline;overflow:visible;visibility:visible;opacity:0.2;fill:none;fill-opacity:1;stroke:url(#radialGradient4809);stroke-width:0.95723861;stroke-opacity:1;marker:none;enable-background:accumulate" />
    <path
       inkscape:connector-curvature="0"
       id="path3979"
       d="m 35.434329,53.497146 c 7.279534,-1.110888 12.866838,-7.47862 12.866838,-15.25945 0,-0.270975 -0.105793,-0.507452 -0.119125,-0.774895 -0.149588,0.946604 -0.245927,1.873693 -0.536117,2.831345 -0.470316,1.552074 -1.112106,3.090878 -1.876416,4.530148 -0.764307,1.439268 -1.655894,2.783025 -2.62102,3.934078 -0.965129,1.151049 -1.995008,2.114121 -3.067788,2.801539 -0.901108,0.577322 -2.88366,1.330679 -4.646358,1.937235 z"
       style="color:#000000;display:inline;overflow:visible;visibility:visible;opacity:0.2;fill:none;fill-opacity:1;stroke:url(#radialGradient4809);stroke-width:0.95340729;stroke-opacity:1;marker:none;enable-background:accumulate" />
    <path
       inkscape:connector-curvature="0"
       id="path3977"
       d="m -1.7124828,52.368239 c 0.6966222,0.301032 1.43713924,0.495383 2.18301424,0.688233 -0.05833,-0.07751 -0.120548,-0.09447 -0.179426,-0.17954 -0.451568,-0.65249 -0.926736,-1.524428 -1.55502424,-2.693078 -1.204786,-2.240706 -2.065034,-4.192553 -2.7212927,-6.283848 -0.6562582,-2.091295 -1.1196182,-4.327007 -1.4952166,-7.121696 l -0.6279916,-4.57823 0.1794269,4.997155 c 0.099399,2.818499 0.2581728,4.576887 0.7177038,6.343694 0.4595319,1.766805 1.2157901,3.537188 2.5717712,6.313771 0.679368,1.39063 0.701456,1.780539 0.927035,2.513539 z"
       style="color:#000000;display:inline;overflow:visible;visibility:visible;opacity:0.2;fill:none;fill-opacity:1;stroke:url(#radialGradient4809);stroke-width:0.95723861;stroke-opacity:1;marker:none;enable-background:accumulate" />
    <path
       inkscape:connector-curvature="0"
       id="path3975"
       d="m -8.5985229,46.898726 c 0.6604404,0.991966 1.4605955,1.875652 2.3231794,2.682325 -0.5906452,-1.182849 -1.1608275,-2.269166 -1.9955515,-4.381131 -0.9835601,-2.487772 -1.5875771,-3.573977 -1.7274918,-3.367807 -0.1399152,0.206167 0.2075369,1.68689 1.1318049,4.261915 0.1216636,0.339085 0.1509233,0.465244 0.268059,0.804698 z"
       style="color:#000000;display:inline;overflow:visible;visibility:visible;opacity:0.2;fill:none;fill-opacity:1;stroke:url(#radialGradient4809);stroke-width:0.95340729;stroke-opacity:1;marker:none;enable-background:accumulate" />
    <path
       inkscape:connector-curvature="0"
       id="path3971"
       d="m 1.0328964,12.953853 c -0.87889996,0.416102 -1.64195396,1.000805 -2.3624422,1.645771 -0.764413,1.248102 -1.740824,2.682685 -2.2727293,3.710461 -0.5697601,1.100927 -0.6826017,1.782597 -0.9868415,2.633232 -0.061818,0.463119 -0.2691389,0.866013 -0.2691389,1.346538 0,0.289464 0.093294,0.554699 0.1196179,0.837846 0.2656832,-0.495003 0.4847652,-0.887724 0.8971287,-1.945001 0.7779921,-1.994254 2.0573321,-4.306108 3.49880734,-6.493308 0.441101,-0.669293 0.911637,-1.107774 1.37559996,-1.735539 z"
       style="color:#000000;display:inline;overflow:visible;visibility:visible;opacity:0.2;fill:none;fill-opacity:1;stroke:url(#radialGradient4809);stroke-width:0.95723861;stroke-opacity:1;marker:none;enable-background:accumulate" />
    <path
       inkscape:connector-curvature="0"
       id="path3969"
       d="m 7.0674814,12.564349 c -0.474317,-0.08512 -0.940487,-0.22552 -1.435408,-0.239386 -0.180412,0.213647 -0.262219,0.248556 -0.448564,0.478771 -1.243989,1.536832 -2.592203,3.423361 -3.678232,5.176695 -0.54763796,0.88401 -1.15671896,2.13287 -1.58493096,3.171846 -0.428211,1.038977 -0.691416,1.85523 -0.508374,1.85523 0.101187,0 1.095494,-1.53649 2.18301896,-3.411231 0.888708,-1.532211 1.827434,-2.934855 2.870816,-4.249079 0.79578,-1.002356 1.703961,-1.896356 2.601674,-2.782846 z"
       style="color:#000000;display:inline;overflow:visible;visibility:visible;opacity:0.2;fill:none;fill-opacity:1;stroke:url(#radialGradient4809);stroke-width:0.95723861;stroke-opacity:1;marker:none;enable-background:accumulate" />
  </g>
</svg>
