<?xml version="1.0" encoding="UTF-8" standalone="no"?>
<!-- Created with Inkscape (http://www.inkscape.org/) -->

<svg
   xmlns:dc="http://purl.org/dc/elements/1.1/"
   xmlns:cc="http://creativecommons.org/ns#"
   xmlns:rdf="http://www.w3.org/1999/02/22-rdf-syntax-ns#"
   xmlns:svg="http://www.w3.org/2000/svg"
   xmlns="http://www.w3.org/2000/svg"
   xmlns:xlink="http://www.w3.org/1999/xlink"
   xmlns:sodipodi="http://sodipodi.sourceforge.net/DTD/sodipodi-0.dtd"
   xmlns:inkscape="http://www.inkscape.org/namespaces/inkscape"
   version="1.1"
   width="64"
   height="64"
   id="svg2970"
   inkscape:version="0.91 r"
   sodipodi:docname="python.svg">
  <metadata
     id="metadata51">
    <rdf:RDF>
      <cc:Work
         rdf:about="">
        <dc:format>image/svg+xml</dc:format>
        <dc:type
           rdf:resource="http://purl.org/dc/dcmitype/StillImage" />
        <dc:title></dc:title>
      </cc:Work>
    </rdf:RDF>
  </metadata>
  <sodipodi:namedview
     pagecolor="#ffffff"
     bordercolor="#666666"
     borderopacity="1"
     objecttolerance="10"
     gridtolerance="10"
     guidetolerance="10"
     inkscape:pageopacity="0"
     inkscape:pageshadow="2"
     inkscape:window-width="1693"
     inkscape:window-height="1018"
     id="namedview49"
     showgrid="false"
     inkscape:zoom="15.464782"
     inkscape:cx="31"
     inkscape:cy="33.788822"
     inkscape:window-x="75"
     inkscape:window-y="33"
     inkscape:window-maximized="0"
     inkscape:current-layer="layer1" />
  <defs
     id="defs2972">
    <linearGradient
       x1="25.314978"
       y1="10.905374"
       x2="25.314978"
       y2="35.926235"
       id="linearGradient4153"
       xlink:href="#linearGradient4147"
       gradientUnits="userSpaceOnUse"
       gradientTransform="matrix(1.6472721,0,0,1.5273568,-12.491891,-9.415589)" />
    <linearGradient
       id="linearGradient4147">
      <stop
         id="stop4149"
         style="stop-color:#ffffff;stop-opacity:1"
         offset="0" />
      <stop
         id="stop4151"
         style="stop-color:#ffffff;stop-opacity:0"
         offset="1" />
    </linearGradient>
    <linearGradient
       x1="17.848959"
       y1="29.074141"
       x2="17.848959"
       y2="10"
       id="linearGradient4137"
       xlink:href="#linearGradient2490"
       gradientUnits="userSpaceOnUse"
       gradientTransform="matrix(1.4774554,0,0,1.4774554,-7.4023388,-9.9069458)" />
    <linearGradient
       id="linearGradient2490">
      <stop
         id="stop2492"
         style="stop-color:#24506a;stop-opacity:1;"
         offset="0" />
      <stop
         id="stop2494"
         style="stop-color:#588dad;stop-opacity:1;"
         offset="1" />
    </linearGradient>
    <linearGradient
       x1="94.693123"
       y1="112.51051"
       x2="94.693123"
       y2="64.052887"
       id="linearGradient3144"
       xlink:href="#linearGradient4126"
       gradientUnits="userSpaceOnUse"
       gradientTransform="matrix(0.32086638,0,0,0.32086638,-61.664018,-17.929808)" />
    <linearGradient
       id="linearGradient4126">
      <stop
         id="stop4128"
         style="stop-color:#ffffff;stop-opacity:1"
         offset="0" />
      <stop
         id="stop4130"
         style="stop-color:#ffffff;stop-opacity:0.16494845"
         offset="1" />
    </linearGradient>
    <radialGradient
       cx="22.503616"
       cy="23.333052"
       r="9.0009785"
       fx="22.503616"
       fy="23.333052"
       id="radialGradient4129"
       xlink:href="#linearGradient3993"
       gradientUnits="userSpaceOnUse"
       gradientTransform="matrix(0,-1.9715323,1.8609775,0,-21.845825,68.664709)" />
    <linearGradient
       id="linearGradient3993">
      <stop
         id="stop3995"
         style="stop-color:#7fa4c3;stop-opacity:1;"
         offset="0" />
      <stop
         id="stop4001"
         style="stop-color:#185f9a;stop-opacity:1;"
         offset="1" />
    </linearGradient>
    <linearGradient
       x1="32.158463"
       y1="17.561676"
       x2="32.158463"
       y2="34.486629"
       id="linearGradient4242"
       xlink:href="#linearGradient2943"
       gradientUnits="userSpaceOnUse"
       gradientTransform="matrix(1.4964409,0,0,1.477109,43.70749,-13.296656)" />
    <linearGradient
       id="linearGradient4244">
      <stop
         id="stop4246"
         style="stop-color:#b27700;stop-opacity:1"
         offset="0" />
      <stop
         id="stop4248"
         style="stop-color:#c79f00;stop-opacity:1"
         offset="1" />
    </linearGradient>
    <linearGradient
       x1="94.693123"
       y1="112.51051"
       x2="94.693123"
       y2="64.052887"
       id="linearGradient3132"
       xlink:href="#linearGradient4126"
       gradientUnits="userSpaceOnUse"
       gradientTransform="matrix(0.32086638,0,0,0.32086638,-72.449775,-1.7900602)" />
    <linearGradient
       id="linearGradient2943">
      <stop
         id="stop2945"
         style="stop-color:#ffffff;stop-opacity:1"
         offset="0" />
      <stop
         id="stop2947"
         style="stop-color:#ffffff;stop-opacity:0.16494845"
         offset="1" />
    </linearGradient>
    <radialGradient
       cx="23.51512"
       cy="23.14295"
       r="9.0193043"
       fx="23.51512"
       fy="23.14295"
       id="radialGradient4234"
       xlink:href="#linearGradient3846-8"
       gradientUnits="userSpaceOnUse"
       gradientTransform="matrix(2.0409038e-7,2.027321,-2.2036281,2.2183921e-7,130.11278,-27.084376)" />
    <linearGradient
       id="linearGradient3230">
      <stop
         id="stop3232"
         style="stop-color:#ffefa7;stop-opacity:1"
         offset="0" />
      <stop
         id="stop3234"
         style="stop-color:#ffc64c;stop-opacity:1"
         offset="1" />
    </linearGradient>
    <linearGradient
       id="linearGradient4114">
      <stop
         id="stop4116"
         style="stop-color:#000000;stop-opacity:1"
         offset="0" />
      <stop
         id="stop4118"
         style="stop-color:#000000;stop-opacity:0"
         offset="1" />
    </linearGradient>
    <radialGradient
       cx="15.115514"
       cy="63.965389"
       r="12.289036"
       fx="15.115514"
       fy="63.965389"
       id="radialGradient2968"
       xlink:href="#linearGradient4114"
       gradientUnits="userSpaceOnUse"
       gradientTransform="matrix(1.6030069,0,0,0.57250216,-1.8869169,0.49856279)" />
    <linearGradient
       x1="29.812393"
       y1="36.000034"
       x2="29.812393"
       y2="16.857258"
       id="linearGradient3861"
       xlink:href="#linearGradient4244"
       gradientUnits="userSpaceOnUse"
       gradientTransform="matrix(1.4964409,0,0,1.477109,43.70749,-13.296656)" />
    <radialGradient
       inkscape:collect="always"
       xlink:href="#linearGradient3846-8"
       id="radialGradient4068"
       gradientUnits="userSpaceOnUse"
       gradientTransform="matrix(-4.265026e-8,2.2993806,-2.1663498,-6.6734924e-8,50.463463,-7.0160564)"
       cx="15.026252"
       cy="8.6257601"
       fx="4.4589653"
       fy="8.5088921"
       r="19.99999" />
    <linearGradient
       id="linearGradient3846-8">
      <stop
         id="stop3848-0"
         style="stop-color:#fff3cb;stop-opacity:1"
         offset="0" />
      <stop
         id="stop3850-8"
         style="stop-color:#fdde76;stop-opacity:1"
         offset="0.26238" />
      <stop
         id="stop3852-6"
         style="stop-color:#f9c440;stop-opacity:1"
         offset="0.66093999" />
      <stop
         id="stop3854-6"
         style="stop-color:#e48b20;stop-opacity:1"
         offset="1" />
    </linearGradient>
    <linearGradient
       inkscape:collect="always"
       xlink:href="#linearGradient4806-2"
       id="linearGradient3845"
       x1="35.500191"
       y1="-11.500189"
       x2="35.500191"
       y2="83.499809"
       gradientUnits="userSpaceOnUse"
       gradientTransform="translate(-81.313742,-31.364217)" />
    <linearGradient
       id="linearGradient4806-2">
      <stop
         id="stop4808-4"
         style="stop-color:#ffffff;stop-opacity:1"
         offset="0" />
      <stop
         id="stop4810-0"
         style="stop-color:#ffffff;stop-opacity:0.23529412"
         offset="0.42447853" />
      <stop
         id="stop4812-8"
         style="stop-color:#ffffff;stop-opacity:0.15686275"
         offset="0.82089913" />
      <stop
         id="stop4814-0"
         style="stop-color:#ffffff;stop-opacity:0.39215687"
         offset="1" />
    </linearGradient>
    <radialGradient
       inkscape:collect="always"
       xlink:href="#linearGradient4806-2"
       id="radialGradient3849"
       gradientUnits="userSpaceOnUse"
       gradientTransform="matrix(-4.1644932e-8,2.2443531,-2.1152858,-6.5137859e-8,-31.28137,-53.223909)"
       cx="15.026252"
       cy="8.6257601"
       fx="4.4589653"
       fy="8.5088921"
       r="19.99999" />
    <linearGradient
       id="linearGradient3119">
      <stop
         id="stop3121"
         style="stop-color:#ffffff;stop-opacity:1"
         offset="0" />
      <stop
         id="stop3123"
         style="stop-color:#ffffff;stop-opacity:0.23529412"
         offset="0.42447853" />
      <stop
         id="stop3125"
         style="stop-color:#ffffff;stop-opacity:0.15686275"
         offset="0.82089913" />
      <stop
         id="stop3127"
         style="stop-color:#ffffff;stop-opacity:0.39215687"
         offset="1" />
    </linearGradient>
    <radialGradient
       r="19.99999"
       fy="8.5088921"
       fx="4.4589653"
       cy="8.6257601"
       cx="15.026252"
       gradientTransform="matrix(-4.265026e-8,2.2993806,-2.1663498,-6.6734924e-8,-56.994163,-16.304192)"
       gradientUnits="userSpaceOnUse"
       id="radialGradient3137"
       xlink:href="#linearGradient3846-8"
       inkscape:collect="always" />
    <linearGradient
       inkscape:collect="always"
       xlink:href="#linearGradient3119"
       id="linearGradient4206"
       x1="22.204878"
       y1="5.6112266"
       x2="21.678833"
       y2="31.78916"
       gradientUnits="userSpaceOnUse"
       gradientTransform="matrix(0.95238097,0,0,0.95238097,0.40442086,1.8293569)" />
    <radialGradient
       inkscape:collect="always"
       xlink:href="#linearGradient3846-8"
       id="radialGradient4250"
       gradientUnits="userSpaceOnUse"
       gradientTransform="matrix(0,1.9715323,-1.8609775,0,65.86242,-19.320736)"
       cx="22.503616"
       cy="23.333052"
       fx="22.503616"
       fy="23.333052"
       r="9.0009785" />
    <linearGradient
       inkscape:collect="always"
       xlink:href="#linearGradient3119"
       id="linearGradient4252"
       gradientUnits="userSpaceOnUse"
       gradientTransform="matrix(-0.95238097,0,0,-0.95238097,43.612174,47.514615)"
       x1="22.204878"
       y1="5.6112266"
       x2="21.678833"
       y2="31.78916" />
    <linearGradient
       x1="94.693123"
       y1="112.51051"
       x2="94.693123"
       y2="64.052887"
       id="linearGradient3144-6"
       xlink:href="#linearGradient4147"
       gradientUnits="userSpaceOnUse"
       gradientTransform="matrix(0.32086638,0,0,0.32086638,-14.681877,-13.518093)" />
    <linearGradient
       inkscape:collect="always"
       xlink:href="#linearGradient4147"
       id="linearGradient4210"
       gradientUnits="userSpaceOnUse"
       gradientTransform="matrix(-0.32086638,0,0,-0.32086638,58.597165,62.899234)"
       x1="94.693123"
       y1="112.51051"
       x2="94.693123"
       y2="64.052887" />
  </defs>
  <g
     transform="matrix(1.5228884,0,0,1.5228884,-3.0264348,-6.2390815)"
     id="layer1">
    <path
       d="m 42.042761,37.118901 a 19.699408,7.0355025 0 0 1 -39.3988143,0 19.699408,7.0355025 0 1 1 39.3988143,0 z"
       id="path2917"
       style="display:inline;opacity:0.3;fill:url(#radialGradient2968);fill-opacity:1;stroke:none"
       inkscape:connector-curvature="0" />
    <path
       d="m 13.660981,11.144485 c 0,-2.3591326 0.632568,-3.356442 4.125426,-3.9676164 2.371356,-0.4155988 5.411947,-0.4675477 8.247794,0 2.239955,0.3697606 3.894029,1.7964281 3.894029,4.0119364 l 0,7.783302 c 0,2.282733 -1.243704,4.700878 -3.538664,4.700878 l -7.835291,-0.178811 c -2.799175,0 -5.817762,2.616175 -6.158704,5.271889 l -0.562579,3.539485 -2.8571423,0 c -2.3988602,0 -2.9789889,-2.135221 -3.5657167,-4.555469 -0.7914701,-3.251448 -0.7578564,-5.18887 0,-8.3028 0.6570125,-2.71667 2.756396,-4.149872 5.15525,-4.149872 l 3.095598,0 8.250853,0 0,-0.02764 -8.250853,0 0,-4.125284 z"
       id="path2730"
       style="fill:url(#radialGradient4129);fill-opacity:1;stroke:none"
       inkscape:connector-curvature="0"
       sodipodi:nodetypes="cccssccccsccscccccc" />
    <path
       d="m 15.723695,10.628037 c 0,-0.8617563 0.690627,-1.5584949 1.54627,-1.5584949 0.852589,0 1.546271,0.6967386 1.546271,1.5584949 0,0.858698 -0.693682,1.555437 -1.546271,1.555437 -0.855643,0 -1.54627,-0.696739 -1.54627,-1.555437 z"
       id="path2734"
       style="opacity:0.72000002;fill:#ffffff;stroke-width:1;stroke-miterlimit:4;stroke-dasharray:none"
       inkscape:connector-curvature="0" />
    <path
       d="m 14.059001,11.344529 c 0,-2.2435272 0.345411,-3.0214943 3.664614,-3.6027189 2.253459,-0.3952331 5.14288,-0.4446363 7.837737,0 2.128592,0.3516411 3.700431,1.2822198 3.700431,3.3891599 l 0,7.82807 c 0,2.170871 -1.096636,4.129577 -3.277497,4.129577 l -7.701449,-0.212665 c -2.660008,0 -5.571137,2.445357 -6.193453,4.757841 l -0.832933,4.047922 -1.9053573,-0.04262 c -2.7958993,-0.06254 -2.830882,-2.030586 -3.3884395,-4.332235 -0.7521204,-3.092116 -0.7201779,-4.934596 0,-7.895934 0.6243477,-2.583542 2.6203702,-3.409727 4.8989468,-3.477719 l 2.81384,0 8.735616,-0.127853 -1e-6,-0.963875 -8.309437,-0.04262 z"
       id="path4198"
       style="opacity:0.6;fill:none;fill-opacity:1;stroke:url(#linearGradient4206);stroke-width:0.62537801;stroke-miterlimit:4;stroke-dasharray:none;stroke-opacity:1"
       inkscape:connector-curvature="0"
       sodipodi:nodetypes="cccssccccsccsccccc" />
    <path
       sodipodi:nodetypes="cccssccccsccscccccc"
       inkscape:connector-curvature="0"
       style="fill:url(#radialGradient4250);fill-opacity:1;stroke:none"
       id="path4242"
       d="m 30.355613,38.199487 c 0,2.359132 -0.632567,3.356442 -4.125426,3.967616 -2.371355,0.415599 -5.411946,0.467548 -8.247794,0 -2.239955,-0.369761 -3.89403,-1.796428 -3.89403,-4.011936 l 0,-7.783301 c 0,-2.282734 1.243705,-4.700878 3.538664,-4.700878 l 7.835293,0.17881 c 2.799175,0 5.817762,-2.616174 6.158704,-5.271889 l 0.562579,-3.539484 2.857143,0 c 2.39886,0 2.978988,2.135221 3.565716,4.555468 0.79147,3.251448 0.757856,5.18887 0,8.3028 -0.657012,2.71667 -2.756396,4.149872 -5.155251,4.149872 l -3.095598,0 -8.250852,0 0,0.02764 8.250852,0 0,4.125284 z" />
    <path
       inkscape:connector-curvature="0"
       style="opacity:0.72000002;fill:#ffffff;stroke-width:1;stroke-miterlimit:4;stroke-dasharray:none"
       id="path4244"
       d="m 28.2929,38.715936 c 0,0.861755 -0.690627,1.558494 -1.546271,1.558494 -0.852588,0 -1.54627,-0.696739 -1.54627,-1.558494 0,-0.858699 0.693682,-1.555438 1.54627,-1.555438 0.855644,0 1.546271,0.696739 1.546271,1.555438 z" />
    <path
       sodipodi:nodetypes="cccssccccsccsccccc"
       inkscape:connector-curvature="0"
       style="opacity:0.6;fill:none;fill-opacity:1;stroke:url(#linearGradient4252);stroke-width:0.62537801;stroke-miterlimit:4;stroke-dasharray:none;stroke-opacity:1"
       id="path4248"
       d="m 29.957593,37.999443 c 0,2.243527 -0.34541,3.021495 -3.664613,3.602718 -2.253459,0.395234 -5.14288,0.444637 -7.837738,0 -2.128592,-0.351641 -3.700431,-1.282219 -3.700431,-3.389159 l 0,-7.828069 c 0,-2.170872 1.096636,-4.129578 3.277497,-4.129578 l 7.70145,0.212665 c 2.660008,0 5.571137,-2.445356 6.193452,-4.757841 l 0.832934,-4.047922 1.905357,0.04262 c 2.7959,0.06254 2.830882,2.030587 3.38844,4.332235 0.75212,3.092117 0.720178,4.934597 0,7.895935 -0.624348,2.583542 -2.62037,3.409727 -4.898948,3.477718 l -2.81384,0 -8.735615,0.127853 1e-6,0.963876 8.309437,0.04262 z" />
    <path
       d="m 21.674535,5.8924072 c -1.281494,0.031041 -2.511957,0.1784488 -3.601297,0.3693642 -3.667502,0.6417329 -4.293856,2.0014485 -4.293857,4.4785346 l 0,4.293857 8.633884,0 0,0.04616 -8.633884,0 -3.278104,0 c -2.518799,0 -4.712081,1.487524 -5.401946,4.340026 -0.468331,1.924309 -0.680284,3.430956 -0.600215,5.03258 5.705373,-6.466673 11.827258,-6.939268 14.866894,-6.925572 6.018356,0.02652 8.852887,-1.453398 11.727304,-4.70939 l 0,-2.077671 c 0,-2.3262819 -1.988071,-4.0902893 -4.340027,-4.4785364 C 25.078366,5.9856207 23.322173,5.8524894 21.674535,5.8924018 Z"
       id="path2738"
       style="opacity:0.4;fill:url(#linearGradient3144-6);fill-opacity:1;stroke:none"
       inkscape:connector-curvature="0" />
    <path
       inkscape:connector-curvature="0"
       style="opacity:0.4;fill:url(#linearGradient4210);fill-opacity:1;stroke:none"
       id="path4208"
       d="m 22.240753,43.488734 c 1.281494,-0.03104 2.511957,-0.178449 3.601297,-0.369365 3.667502,-0.641733 4.293856,-2.001448 4.293857,-4.478534 l 0,-4.293857 -8.633884,0 0,-0.04616 8.633884,0 3.278104,0 c 2.518799,0 4.712081,-1.487524 5.401946,-4.340026 0.468331,-1.92431 0.680284,-3.430957 0.600215,-5.032581 -5.705373,6.466674 -11.827258,6.939269 -14.866894,6.925573 -6.018356,-0.02652 -8.852887,1.453398 -11.727304,4.70939 l 0,2.077671 c 0,2.326282 1.988071,4.090289 4.340027,4.478536 1.674921,0.276139 3.431114,0.40927 5.078752,0.369358 z" />
    <path
       d="m 30.355613,38.199487 c 0,2.359132 -0.632567,3.356442 -4.125426,3.967616 -2.371355,0.415599 -5.411946,0.467548 -8.247794,0 -2.239955,-0.369761 -3.89403,-1.796428 -3.89403,-4.011936 l 0,-7.783301 c 0,-2.282734 1.243705,-4.700878 3.538664,-4.700878 l 7.835293,0.17881 c 2.799175,0 5.817762,-2.616174 6.158704,-5.271889 l 0.562579,-3.539484 2.857143,0 c 2.39886,0 2.978988,2.135221 3.565716,4.555468 0.79147,3.251448 0.757856,5.18887 0,8.3028 -0.657012,2.71667 -2.756396,4.149872 -5.155251,4.149872 l -3.095598,0 -8.250852,0 0,0.02764 8.250852,0 0,4.125284 z"
       id="path4246"
       style="opacity:0.6;fill:none;fill-opacity:1;stroke:#674514;stroke-width:0.62537801;stroke-miterlimit:4;stroke-dasharray:none;stroke-opacity:1"
       inkscape:connector-curvature="0"
       sodipodi:nodetypes="cccssccccsccscccccc" />
    <path
       sodipodi:nodetypes="cccssccccsccscccccc"
       inkscape:connector-curvature="0"
       style="opacity:0.6;fill:none;fill-opacity:1;stroke:#144767;stroke-width:0.62537801;stroke-miterlimit:4;stroke-dasharray:none;stroke-opacity:1"
       id="path4196"
       d="m 13.660981,11.144485 c 0,-2.3591326 0.632568,-3.356442 4.125426,-3.9676164 2.371356,-0.4155988 5.411947,-0.4675477 8.247794,0 2.239955,0.3697606 3.894029,1.7964281 3.894029,4.0119364 l 0,7.783302 c 0,2.282733 -1.243704,4.700878 -3.538664,4.700878 l -7.835291,-0.178811 c -2.799175,0 -5.817762,2.616175 -6.158704,5.271889 l -0.562579,3.539485 -2.8571423,0 c -2.3988602,0 -2.9789889,-2.135221 -3.5657167,-4.555469 -0.7914701,-3.251448 -0.7578564,-5.18887 0,-8.3028 0.6570125,-2.71667 2.756396,-4.149872 5.15525,-4.149872 l 3.095598,0 8.250853,0 0,-0.02764 -8.250853,0 0,-4.125284 z" />
  </g>
</svg>
