<?xml version="1.0" encoding="UTF-8" standalone="no"?>
<!-- Created with Inkscape (http://www.inkscape.org/) -->

<svg
   xmlns:dc="http://purl.org/dc/elements/1.1/"
   xmlns:cc="http://creativecommons.org/ns#"
   xmlns:rdf="http://www.w3.org/1999/02/22-rdf-syntax-ns#"
   xmlns:svg="http://www.w3.org/2000/svg"
   xmlns="http://www.w3.org/2000/svg"
   xmlns:xlink="http://www.w3.org/1999/xlink"
   xmlns:sodipodi="http://sodipodi.sourceforge.net/DTD/sodipodi-0.dtd"
   xmlns:inkscape="http://www.inkscape.org/namespaces/inkscape"
   version="1.1"
   width="64"
   height="64"
   id="svg4352"
   inkscape:version="0.48.4 r9939"
   sodipodi:docname="synapse.svg">
  <sodipodi:namedview
     pagecolor="#ffffff"
     bordercolor="#666666"
     borderopacity="1"
     objecttolerance="10"
     gridtolerance="10"
     guidetolerance="10"
     inkscape:pageopacity="0"
     inkscape:pageshadow="2"
     inkscape:window-width="1855"
     inkscape:window-height="1056"
     id="namedview64"
     showgrid="true"
     inkscape:snap-global="false"
     inkscape:zoom="14.4375"
     inkscape:cx="20.640693"
     inkscape:cy="34.770563"
     inkscape:window-x="65"
     inkscape:window-y="24"
     inkscape:window-maximized="1"
     inkscape:current-layer="layer1">
    <inkscape:grid
       type="xygrid"
       id="grid3058" />
  </sodipodi:namedview>
  <defs
     id="defs4354">
    <linearGradient
       x1="31.899628"
       y1="12.294439"
       x2="31.899628"
       y2="24.540121"
       id="linearGradient4263"
       xlink:href="#linearGradient4252"
       gradientUnits="userSpaceOnUse" />
    <linearGradient
       id="linearGradient4252">
      <stop
         id="stop4254"
         style="stop-color:#000000;stop-opacity:1"
         offset="0" />
      <stop
         id="stop4256"
         style="stop-color:#000000;stop-opacity:0"
         offset="1" />
    </linearGradient>
    <linearGradient
       x1="32.26038"
       y1="38.92131"
       x2="32.26038"
       y2="51.793919"
       id="linearGradient4272"
       xlink:href="#linearGradient4266"
       gradientUnits="userSpaceOnUse" />
    <linearGradient
       id="linearGradient4266">
      <stop
         id="stop4268"
         style="stop-color:#000000;stop-opacity:1"
         offset="0" />
      <stop
         id="stop4270"
         style="stop-color:#000000;stop-opacity:0"
         offset="1" />
    </linearGradient>
    <linearGradient
       x1="32.105934"
       y1="22.973545"
       x2="32.105934"
       y2="40.893845"
       id="linearGradient4282"
       xlink:href="#linearGradient4276"
       gradientUnits="userSpaceOnUse" />
    <linearGradient
       id="linearGradient4276">
      <stop
         id="stop4278"
         style="stop-color:#000000;stop-opacity:1"
         offset="0" />
      <stop
         id="stop4280"
         style="stop-color:#000000;stop-opacity:0"
         offset="1" />
    </linearGradient>
    <linearGradient
       x1="-90.675308"
       y1="49.843208"
       x2="-90.675308"
       y2="3.9778562"
       id="linearGradient3014-6"
       xlink:href="#linearGradient3104-6-4"
       gradientUnits="userSpaceOnUse"
       gradientTransform="matrix(1.0843523,0,0,1.1997367,138.31765,-0.5041793)" />
    <linearGradient
       id="linearGradient3104-6-4">
      <stop
         id="stop3106-3-7"
         style="stop-color:#000000;stop-opacity:0.31782946"
         offset="0" />
      <stop
         id="stop3108-9-2"
         style="stop-color:#000000;stop-opacity:0.24031007"
         offset="1" />
    </linearGradient>
    <linearGradient
       x1="23.99999"
       y1="4.999989"
       x2="23.99999"
       y2="43"
       id="linearGradient3107-996"
       xlink:href="#linearGradient3924-45"
       gradientUnits="userSpaceOnUse"
       gradientTransform="matrix(1.4324324,0,0,1.4324324,-2.3783747,-2.3783645)" />
    <linearGradient
       id="linearGradient3924-45">
      <stop
         id="stop3124"
         style="stop-color:#ffffff;stop-opacity:1"
         offset="0" />
      <stop
         id="stop3126"
         style="stop-color:#ffffff;stop-opacity:0.23529412"
         offset="0.06316455" />
      <stop
         id="stop3128"
         style="stop-color:#ffffff;stop-opacity:0.15686275"
         offset="0.95056331" />
      <stop
         id="stop3130"
         style="stop-color:#ffffff;stop-opacity:0.39215687"
         offset="1" />
    </linearGradient>
    <linearGradient
       x1="-15.95268"
       y1="5.2698884"
       x2="-15.95268"
       y2="48.714642"
       id="linearGradient3058-7"
       xlink:href="#linearGradient3600-9-9"
       gradientUnits="userSpaceOnUse"
       gradientTransform="matrix(1.3142827,0,0,1.2602393,57.681227,-2.1204556)" />
    <linearGradient
       id="linearGradient3600-9-9">
      <stop
         id="stop3602-3-6"
         style="stop-color:#f4f4f4;stop-opacity:1"
         offset="0" />
      <stop
         id="stop3604-7-0"
         style="stop-color:#dbdbdb;stop-opacity:1"
         offset="1" />
    </linearGradient>
    <radialGradient
       cx="4.9929786"
       cy="43.5"
       r="2.5"
       fx="4.9929786"
       fy="43.5"
       id="radialGradient2873-966-168-714"
       xlink:href="#linearGradient3688-166-749-654"
       gradientUnits="userSpaceOnUse"
       gradientTransform="matrix(2.003784,0,0,1.4,27.98813,-17.4)" />
    <linearGradient
       id="linearGradient3688-166-749-654">
      <stop
         id="stop3088"
         style="stop-color:#181818;stop-opacity:1"
         offset="0" />
      <stop
         id="stop3090"
         style="stop-color:#181818;stop-opacity:0"
         offset="1" />
    </linearGradient>
    <radialGradient
       cx="4.9929786"
       cy="43.5"
       r="2.5"
       fx="4.9929786"
       fy="43.5"
       id="radialGradient2875-742-326-419"
       xlink:href="#linearGradient3688-464-309-604"
       gradientUnits="userSpaceOnUse"
       gradientTransform="matrix(2.003784,0,0,1.4,-20.01187,-104.4)" />
    <linearGradient
       id="linearGradient3688-464-309-604">
      <stop
         id="stop3094"
         style="stop-color:#181818;stop-opacity:1"
         offset="0" />
      <stop
         id="stop3096"
         style="stop-color:#181818;stop-opacity:0"
         offset="1" />
    </linearGradient>
    <linearGradient
       x1="25.058096"
       y1="47.027729"
       x2="25.058096"
       y2="39.999443"
       id="linearGradient2877-634-617-908"
       xlink:href="#linearGradient3702-501-757-795"
       gradientUnits="userSpaceOnUse" />
    <linearGradient
       id="linearGradient3702-501-757-795">
      <stop
         id="stop3100"
         style="stop-color:#181818;stop-opacity:0"
         offset="0" />
      <stop
         id="stop3102"
         style="stop-color:#181818;stop-opacity:1"
         offset="0.5" />
      <stop
         id="stop3104"
         style="stop-color:#181818;stop-opacity:0"
         offset="1" />
    </linearGradient>
    <linearGradient
       inkscape:collect="always"
       xlink:href="#linearGradient3972-0"
       id="linearGradient3867"
       gradientUnits="userSpaceOnUse"
       gradientTransform="matrix(0.14063491,0,0,-0.14063491,8.8662093,73.370131)"
       x1="454.86929"
       y1="56.658657"
       x2="454.86929"
       y2="450.91153" />
    <linearGradient
       id="linearGradient3972-0">
      <stop
         id="stop3974"
         style="stop-color:#3ea38d;stop-opacity:1;"
         offset="0" />
      <stop
         id="stop3976"
         style="stop-color:#51eadd;stop-opacity:1;"
         offset="1" />
    </linearGradient>
    <linearGradient
       inkscape:collect="always"
       xlink:href="#linearGradient3972-0-2"
       id="linearGradient3863"
       gradientUnits="userSpaceOnUse"
       gradientTransform="matrix(0.13544477,0,0,-0.13544477,-2.1075161,66.673622)"
       x1="454.86929"
       y1="56.658657"
       x2="454.86929"
       y2="450.91153" />
    <linearGradient
       id="linearGradient3972-0-2">
      <stop
         id="stop3974-4"
         style="stop-color:#3ea38d;stop-opacity:1;"
         offset="0" />
      <stop
         id="stop3976-6"
         style="stop-color:#51eadd;stop-opacity:1;"
         offset="1" />
    </linearGradient>
  </defs>
  <metadata
     id="metadata4357">
    <rdf:RDF>
      <cc:Work
         rdf:about="">
        <dc:format>image/svg+xml</dc:format>
        <dc:type
           rdf:resource="http://purl.org/dc/dcmitype/StillImage" />
        <dc:title />
      </cc:Work>
    </rdf:RDF>
  </metadata>
  <g
     id="layer1">
    <g
       transform="matrix(1.5000021,0,0,0.5555561,-4.0000114,35.888881)"
       id="g2036"
       style="display:inline">
      <g
         transform="matrix(1.052632,0,0,1.285713,-1.263158,-13.42854)"
         id="g3712"
         style="opacity:0.4">
        <rect
           width="5"
           height="7"
           x="38"
           y="40"
           id="rect2801"
           style="fill:url(#radialGradient2873-966-168-714);fill-opacity:1;stroke:none" />
        <rect
           width="5"
           height="7"
           x="-10"
           y="-47"
           transform="scale(-1,-1)"
           id="rect3696"
           style="fill:url(#radialGradient2875-742-326-419);fill-opacity:1;stroke:none" />
        <rect
           width="28"
           height="7.0000005"
           x="10"
           y="40"
           id="rect3700"
           style="fill:url(#linearGradient2877-634-617-908);fill-opacity:1;stroke:none" />
      </g>
    </g>
    <rect
       width="54"
       height="54"
       rx="2.5"
       ry="2.5"
       x="5"
       y="5"
       id="rect5505-21"
       style="color:#000000;fill:url(#linearGradient3058-7);fill-opacity:1;fill-rule:nonzero;stroke:none;stroke-width:0.99999994000000003;marker:none;visibility:visible;display:inline;overflow:visible;enable-background:accumulate;opacity:0.9" />
    <rect
       width="55"
       height="55"
       rx="3"
       ry="3"
       x="4.5"
       y="4.5"
       id="rect5505-21-8"
       style="color:#000000;fill:none;stroke:url(#linearGradient3014-6);stroke-width:0.9999218;stroke-linecap:butt;stroke-linejoin:round;stroke-miterlimit:4;stroke-opacity:1;stroke-dasharray:none;stroke-dashoffset:0;marker:none;visibility:visible;display:inline;overflow:visible;enable-background:accumulate" />
    <path
       sodipodi:nodetypes="cccccccsccccccccccccccccccccccccccccccc"
       d="m 32.559185,43.406264 c 5.984305,0 10.835571,-4.827316 10.835571,-10.835579 0,0 0.07189,-1.017824 -0.239426,-2.167114 l -16.640364,0 c 0.449224,-1.254847 1.254983,-2.380672 2.34912,-3.132161 2.51722,-1.987336 6.329499,-1.264693 8.473763,0.965043 l 5.151133,0 c -1.672788,-3.825197 -5.487762,-6.501356 -9.929779,-6.501356 -5.984342,0 -10.835589,4.851265 -10.835589,10.835588 0,0 0,1.113602 0.215499,2.16711 l 16.647372,0 c -0.936753,2.367797 -3.173679,4.286562 -5.773345,4.308848 -0.130086,0.0062 -0.259686,0.0062 -0.389397,0.0036 -1.742662,-0.03538 -3.433623,-0.861739 -4.609359,-2.145952 l -5.184993,0 c 1.672806,3.825193 5.487781,6.501364 9.929794,6.501364 z m 2.343189,15.593225 0.120727,-6.899928 c 8.066052,-1.005307 14.615998,-6.89044 16.602426,-14.608214 l -5.103255,0 c -2.092917,5.570792 -7.634334,9.915512 -13.690388,9.874967 -0.146844,0.0036 -0.295513,0.0062 -0.442094,0.0053 -2.198733,-0.01313 -4.359974,-0.559006 -6.319006,-1.537708 -3.528649,-1.588433 -6.148755,-4.72757 -7.429071,-8.342066 l -5.141704,0 c 1.986437,7.717793 8.536384,13.602926 16.602426,14.608215 l 0,6.899945 z M 51.625509,27.650024 C 49.639081,19.932231 43.089135,14.047108 35.023101,13.041801 l 0,-7.1417944 -4.920666,0 0,7.1417944 C 22.036384,14.047108 15.486437,19.932231 13.5,27.650024 l 5.069638,0 c 1.98921,-5.868179 8.137443,-10.08815 14.353533,-9.87017 6.052166,-0.03061 11.542454,4.29292 13.589474,9.87017 z"
       inkscape:connector-curvature="0"
       id="path3116"
       style="opacity:0.6;fill:#ffffff;fill-opacity:1;stroke:none;display:inline;enable-background:new" />
    <path
       style="fill:url(#linearGradient3863);fill-opacity:1;stroke:none;display:inline;enable-background:new"
       id="path3859"
       inkscape:connector-curvature="0"
       d="m 32.559185,42.506266 c 5.984305,0 10.835571,-4.827312 10.835571,-10.835578 0,0 0.07189,-1.017825 -0.239426,-2.167112 l -16.640364,0 c 0.449224,-1.25485 1.254983,-2.380675 2.34912,-3.13216 2.51722,-1.987339 6.329499,-1.264697 8.473763,0.965039 l 5.151133,0 c -1.672788,-3.825193 -5.487762,-6.501356 -9.929779,-6.501356 -5.984342,0 -10.835589,4.851265 -10.835589,10.835589 0,0 0,1.113603 0.215499,2.167114 l 16.647372,0 c -0.936753,2.367792 -3.173679,4.28656 -5.773345,4.308843 -0.130086,0.0062 -0.259686,0.0062 -0.389397,0.0036 -1.742662,-0.03539 -3.433623,-0.861734 -4.609359,-2.145952 l -5.184993,0 c 1.672806,3.825194 5.487781,6.501365 9.929794,6.501365 z m 2.343189,16.493223 0.120727,-7.799926 c 8.066052,-1.005307 14.615998,-6.890439 16.602426,-14.608214 l -5.103255,0 c -2.092917,5.570797 -7.634334,9.915512 -13.690388,9.874968 -0.146844,0.0036 -0.295513,0.0062 -0.442094,0.0053 -2.198733,-0.01312 -4.359974,-0.559006 -6.319006,-1.537709 -3.528649,-1.588432 -6.148755,-4.727569 -7.429071,-8.342066 l -5.141704,0 c 1.986437,7.717792 8.536384,13.602925 16.602426,14.608214 l 0,7.799944 z M 51.625509,26.750027 C 49.639081,19.032233 43.089135,13.147109 35.023101,12.141802 l 0,-7.1417924 -4.920666,0 0,7.1417924 C 22.036384,13.147109 15.486437,19.032233 13.5,26.750027 l 5.069638,0 c 1.98921,-5.868181 8.137443,-10.088151 14.353533,-9.870171 6.052166,-0.03061 11.542454,4.292925 13.589474,9.870171 z"
       sodipodi:nodetypes="cccccccsccccccccccccccccccccccccccccccc" />
    <rect
       width="53"
       height="53"
       rx="2"
       ry="2"
       x="5.5"
       y="5.5"
       id="rect6741"
       style="fill:none;stroke:url(#linearGradient3107-996);stroke-width:1;stroke-linecap:round;stroke-linejoin:round;stroke-miterlimit:4;stroke-opacity:1;stroke-dasharray:none;stroke-dashoffset:0" />
  </g>
</svg>
