<?xml version="1.0" encoding="UTF-8" standalone="no"?>
<!-- Created with Inkscape (http://www.inkscape.org/) -->

<svg
   xmlns:dc="http://purl.org/dc/elements/1.1/"
   xmlns:cc="http://creativecommons.org/ns#"
   xmlns:rdf="http://www.w3.org/1999/02/22-rdf-syntax-ns#"
   xmlns:svg="http://www.w3.org/2000/svg"
   xmlns="http://www.w3.org/2000/svg"
   xmlns:xlink="http://www.w3.org/1999/xlink"
   xmlns:sodipodi="http://sodipodi.sourceforge.net/DTD/sodipodi-0.dtd"
   xmlns:inkscape="http://www.inkscape.org/namespaces/inkscape"
   width="64"
   height="64"
   id="svg2"
   version="1.1"
   inkscape:version="0.91 r"
   sodipodi:docname="vlc-64-alt.svg">
  <defs
     id="defs4">
    <linearGradient
       id="linearGradient4716">
      <stop
         style="stop-color:#d7d7d7;stop-opacity:1"
         offset="0"
         id="stop4718" />
      <stop
         style="stop-color:#ffffff;stop-opacity:1"
         offset="1"
         id="stop4720" />
    </linearGradient>
    <linearGradient
       id="linearGradient4666">
      <stop
         id="stop4668"
         offset="0"
         style="stop-color:#ffffff;stop-opacity:1;" />
      <stop
         style="stop-color:#ffffff;stop-opacity:0.23529412;"
         offset="0.49999869"
         id="stop4670" />
      <stop
         style="stop-color:#ffffff;stop-opacity:0.15686275;"
         offset="0.49999869"
         id="stop4672" />
      <stop
         id="stop4674"
         offset="1"
         style="stop-color:#ffffff;stop-opacity:0.39215687;" />
    </linearGradient>
    <linearGradient
       id="linearGradient4648">
      <stop
         id="stop4650"
         offset="0"
         style="stop-color:#f55a0a;stop-opacity:1" />
      <stop
         id="stop4652"
         offset="1"
         style="stop-color:#ffb414;stop-opacity:1" />
    </linearGradient>
    <linearGradient
       id="linearGradient4642">
      <stop
         id="stop4644"
         offset="0"
         style="stop-color:#f55a0a;stop-opacity:1" />
      <stop
         id="stop4646"
         offset="1"
         style="stop-color:#ffb414;stop-opacity:1" />
    </linearGradient>
    <linearGradient
       inkscape:collect="always"
       id="linearGradient4224">
      <stop
         style="stop-color:#f02814;stop-opacity:1;"
         offset="0"
         id="stop4226" />
      <stop
         style="stop-color:#f02814;stop-opacity:0;"
         offset="1"
         id="stop4228" />
    </linearGradient>
    <linearGradient
       id="linearGradient4620">
      <stop
         id="stop4622"
         offset="0"
         style="stop-color:#ffffff;stop-opacity:1;" />
      <stop
         style="stop-color:#ffffff;stop-opacity:0.23529412;"
         offset="0.10738681"
         id="stop4624" />
      <stop
         style="stop-color:#ffffff;stop-opacity:0.15686275;"
         offset="0.92841429"
         id="stop4626" />
      <stop
         id="stop4628"
         offset="1"
         style="stop-color:#ffffff;stop-opacity:0.39215687;" />
    </linearGradient>
    <linearGradient
       id="linearGradient4324">
      <stop
         id="stop4326"
         offset="0"
         style="stop-color:#ffffff;stop-opacity:1;" />
      <stop
         style="stop-color:#ffffff;stop-opacity:0.23529412;"
         offset="0.07692308"
         id="stop4328" />
      <stop
         style="stop-color:#ffffff;stop-opacity:0.15686275;"
         offset="0.87385589"
         id="stop4330" />
      <stop
         id="stop4332"
         offset="1"
         style="stop-color:#ffffff;stop-opacity:0.392" />
    </linearGradient>
    <linearGradient
       inkscape:collect="always"
       id="linearGradient3801">
      <stop
         style="stop-color:#000000;stop-opacity:1;"
         offset="0"
         id="stop3803" />
      <stop
         style="stop-color:#000000;stop-opacity:0;"
         offset="1"
         id="stop3805" />
    </linearGradient>
    <linearGradient
       id="linearGradient3789">
      <stop
         style="stop-color:#000000;stop-opacity:0;"
         offset="0"
         id="stop3791" />
      <stop
         id="stop3797"
         offset="0.5"
         style="stop-color:#000000;stop-opacity:1;" />
      <stop
         style="stop-color:#000000;stop-opacity:0;"
         offset="1"
         id="stop3793" />
    </linearGradient>
    <linearGradient
       id="linearGradient3779">
      <stop
         style="stop-color:#f55a0a;stop-opacity:1"
         offset="0"
         id="stop3781" />
      <stop
         style="stop-color:#ffb414;stop-opacity:1"
         offset="1"
         id="stop3783" />
    </linearGradient>
    <linearGradient
       id="linearGradient3767">
      <stop
         style="stop-color:#ffffff;stop-opacity:1;"
         offset="0"
         id="stop3769" />
      <stop
         id="stop3777"
         offset="0.08994294"
         style="stop-color:#ffffff;stop-opacity:0.23529412;" />
      <stop
         id="stop3775"
         offset="0.87385589"
         style="stop-color:#ffffff;stop-opacity:0.15686275;" />
      <stop
         style="stop-color:#ffffff;stop-opacity:0.39215687;"
         offset="1"
         id="stop3771" />
    </linearGradient>
    <linearGradient
       inkscape:collect="always"
       xlink:href="#linearGradient3767"
       id="linearGradient3773"
       x1="29"
       y1="1013.3625"
       x2="29"
       y2="995.36249"
       gradientUnits="userSpaceOnUse"
       gradientTransform="translate(0,30.499556)" />
    <linearGradient
       inkscape:collect="always"
       xlink:href="#linearGradient3789"
       id="linearGradient3795"
       x1="31.907684"
       y1="1044.7737"
       x2="31.907684"
       y2="1049.8818"
       gradientUnits="userSpaceOnUse" />
    <radialGradient
       inkscape:collect="always"
       xlink:href="#linearGradient3801"
       id="radialGradient3807"
       cx="10.0625"
       cy="1047.4336"
       fx="10.0625"
       fy="1047.4336"
       r="4"
       gradientTransform="matrix(-2.0268164,2.1791036e-8,0,-0.58132218,30.457347,1656.3032)"
       gradientUnits="userSpaceOnUse" />
    <radialGradient
       inkscape:collect="always"
       xlink:href="#linearGradient3801"
       id="radialGradient3811"
       gradientUnits="userSpaceOnUse"
       gradientTransform="matrix(-2.0268164,2.1791036e-8,0,-0.58132218,-33.542653,1656.3032)"
       cx="10.0625"
       cy="1047.4336"
       fx="10.0625"
       fy="1047.4336"
       r="4" />
    <linearGradient
       inkscape:collect="always"
       xlink:href="#linearGradient4648"
       id="linearGradient4214"
       x1="32"
       y1="39"
       x2="32"
       y2="63"
       gradientUnits="userSpaceOnUse"
       gradientTransform="translate(0,987.86216)" />
    <linearGradient
       inkscape:collect="always"
       xlink:href="#linearGradient4224"
       id="linearGradient4230"
       x1="35"
       y1="1050.3622"
       x2="35"
       y2="1043.3622"
       gradientUnits="userSpaceOnUse"
       gradientTransform="translate(0,-0.50152)" />
    <linearGradient
       inkscape:collect="always"
       xlink:href="#linearGradient4642"
       id="linearGradient4550"
       x1="14.5"
       y1="28.749975"
       x2="49.5"
       y2="28.749975"
       gradientUnits="userSpaceOnUse" />
    <linearGradient
       inkscape:collect="always"
       xlink:href="#linearGradient4666"
       id="linearGradient4686"
       x1="33"
       y1="992.39343"
       x2="33"
       y2="1039.3622"
       gradientUnits="userSpaceOnUse" />
    <linearGradient
       inkscape:collect="always"
       xlink:href="#linearGradient4716"
       id="linearGradient4713"
       gradientUnits="userSpaceOnUse"
       x1="21"
       y1="19"
       x2="42"
       y2="19"
       gradientTransform="translate(0,988.3622)" />
    <linearGradient
       inkscape:collect="always"
       xlink:href="#linearGradient4716"
       id="linearGradient4217"
       x1="14.5"
       y1="43.727097"
       x2="49.5"
       y2="43.727097"
       gradientUnits="userSpaceOnUse" />
  </defs>
  <sodipodi:namedview
     id="base"
     pagecolor="#ffffff"
     bordercolor="#666666"
     borderopacity="1.0"
     inkscape:pageopacity="0.0"
     inkscape:pageshadow="2"
     inkscape:zoom="5.6568543"
     inkscape:cx="40.331287"
     inkscape:cy="41.77932"
     inkscape:document-units="px"
     inkscape:current-layer="layer1"
     showgrid="false"
     showguides="false"
     inkscape:guide-bbox="true"
     inkscape:window-width="1366"
     inkscape:window-height="713"
     inkscape:window-x="0"
     inkscape:window-y="30"
     inkscape:window-maximized="1">
    <inkscape:grid
       type="xygrid"
       id="grid2985"
       empspacing="5"
       visible="true"
       enabled="true"
       snapvisiblegridlinesonly="true" />
    <sodipodi:guide
       orientation="0,1"
       position="11,4"
       id="guide2987" />
    <sodipodi:guide
       orientation="0,1"
       position="12,60"
       id="guide2989" />
    <sodipodi:guide
       orientation="0,1"
       position="10,32"
       id="guide2991" />
  </sodipodi:namedview>
  <metadata
     id="metadata7">
    <rdf:RDF>
      <cc:Work
         rdf:about="">
        <dc:format>image/svg+xml</dc:format>
        <dc:type
           rdf:resource="http://purl.org/dc/dcmitype/StillImage" />
        <dc:title />
      </cc:Work>
    </rdf:RDF>
  </metadata>
  <g
     inkscape:label="Livello 1"
     inkscape:groupmode="layer"
     id="layer1"
     transform="translate(0,-988.36218)">
    <g
       id="g3832">
      <rect
         transform="scale(-1,1)"
         style="opacity:0.40000001;fill:url(#radialGradient3811);fill-opacity:1;stroke:none"
         id="rect3809"
         width="8"
         height="5"
         x="-62"
         y="1044.8622" />
      <rect
         y="1044.8622"
         x="2"
         height="5"
         width="8"
         id="rect3799"
         style="opacity:0.40000001;fill:url(#radialGradient3807);fill-opacity:1;stroke:none" />
      <rect
         y="1044.8622"
         x="10"
         height="5"
         width="44"
         id="rect3787"
         style="opacity:0.40000001;fill:url(#linearGradient3795);fill-opacity:1;stroke:none" />
    </g>
    <path
       style="opacity:1;fill:url(#linearGradient4214);fill-opacity:1;stroke:none;stroke-width:1;stroke-linecap:butt;stroke-linejoin:miter;stroke-miterlimit:4;stroke-dasharray:none;stroke-opacity:1"
       d="m 11.5,1024.8622 c -1.662,0 -2.5278467,1.4065 -3,3 l -4,13.5 0,4.5 c 0,1.108 0.892,2 2,2 l 51,0 c 1.108,0 2,-0.892 2,-2 l 0,-4.5 -4,-13.5 c -0.472153,-1.5935 -1.338,-3 -3,-3 z"
       id="rect4190"
       inkscape:connector-curvature="0"
       sodipodi:nodetypes="ssccssccsss" />
    <path
       sodipodi:nodetypes="ssccssccsss"
       inkscape:connector-curvature="0"
       id="path4206"
       d="m 11.5,1024.8622 c -1.6620002,0 -2.527847,1.4065 -3.0000002,3 l -3.9999995,13.5 0,4.5 c 0,1.108 0.892,2 2,2 l 50.9999997,0 c 1.108,0 2,-0.892 2,-2 l 0,-4.5 -4,-13.5 c -0.472153,-1.5935 -1.338,-3 -3,-3 z"
       style="opacity:1;fill:url(#linearGradient4230);fill-opacity:1;stroke:none;stroke-width:1;stroke-linecap:butt;stroke-linejoin:miter;stroke-miterlimit:4;stroke-dasharray:none;stroke-opacity:1" />
    <path
       style="opacity:0.6;fill:none;fill-opacity:1;stroke:#c82800;stroke-width:1;stroke-linecap:butt;stroke-linejoin:miter;stroke-miterlimit:4;stroke-dasharray:none;stroke-opacity:1"
       d="m 11.5,1024.8622 c -1.662,0 -2.5278467,1.4065 -3,3 l -4,13.5 0,4.5 c 0,1.108 0.892,2 2,2 l 51,0 c 1.108,0 2,-0.892 2,-2 l 0,-4.5 -4,-13.5 c -0.472153,-1.5935 -1.338,-3 -3,-3 z"
       id="rect4192"
       inkscape:connector-curvature="0"
       sodipodi:nodetypes="ssccssccsss" />
    <path
       style="opacity:0.4;fill:none;fill-opacity:1;stroke:url(#linearGradient3773);stroke-linejoin:miter;stroke-opacity:1"
       d="m 11.5,1025.8622 41,0 c 1.108,0 1.689132,0.9365 2,2 l 3.8,13 c 0.310839,1.0634 -0.392,2 -1.5,2 l -49.5,0 c -1.108,0 -1.9108685,-0.9365 -1.6,-2 l 3.8,-13 c 0.3108685,-1.0635 0.892,-2 2,-2 z"
       id="rect3765"
       inkscape:connector-curvature="0"
       sodipodi:nodetypes="sssssssss" />
    <path
       d="m 36.5,995.36218 a 4.5,1.5 0 0 1 -4.5,1.5 4.5,1.5 0 0 1 -4.5,-1.5 4.5,1.5 0 0 1 4.5,-1.5 4.5,1.5 0 0 1 4.5,1.5 z m -9,0 -13,40.50002 c 6.1e-5,1.7863 3.335534,3.4369 8.75,4.3301 5.414519,0.8931 12.085481,0.8931 17.5,0 5.414466,-0.8932 8.749939,-2.5438 8.75,-4.3301 l -13,-40.50002"
       style="opacity:0.2;fill:none;fill-opacity:1;stroke:#ffffff;stroke-width:1;stroke-linecap:butt;stroke-linejoin:miter;stroke-miterlimit:4;stroke-dasharray:none;stroke-opacity:1"
       id="path4618"
       inkscape:connector-curvature="0" />
    <path
       style="opacity:1;fill:url(#linearGradient4550);fill-opacity:1;stroke:none;stroke-width:1;stroke-linecap:butt;stroke-linejoin:miter;stroke-miterlimit:4;stroke-dasharray:none;stroke-opacity:1"
       d="m 32,3.5 c -1.951032,0 -3.973007,1.0219025 -4.5,2.5 l -13,40.5 c 6.1e-5,1.78631 3.335534,3.436923 8.75,4.330078 5.414519,0.893164 12.085481,0.893164 17.5,0 C 46.164466,49.936923 49.499939,48.28631 49.5,46.5 L 36.5,6 C 36.124506,4.5986398 34,3.5 32,3.5 Z"
       transform="translate(0,988.36218)"
       id="rect4526"
       inkscape:connector-curvature="0"
       sodipodi:nodetypes="cccssccc" />
    <path
       style="opacity:1;fill:url(#linearGradient4713);fill-opacity:1;stroke:none;stroke-width:1;stroke-linecap:butt;stroke-linejoin:miter;stroke-miterlimit:4;stroke-dasharray:none;stroke-opacity:1"
       d="m 25.253906,1001.3622 -3.853515,12 c 7.599609,3 14.599609,3 21.199218,0 l -3.853515,-12 c -3.746094,2 -8.746094,2 -13.492188,0 z"
       id="path4694"
       inkscape:connector-curvature="0"
       sodipodi:nodetypes="ccccc" />
    <path
       style="opacity:1;fill:url(#linearGradient4217);fill-opacity:1.0;stroke:none;stroke-width:1;stroke-linecap:butt;stroke-linejoin:miter;stroke-miterlimit:4;stroke-dasharray:none;stroke-opacity:1"
       d="M 17.871094,36 14.5,46.5 c 6.1e-5,1.78631 3.335534,3.436923 8.75,4.330078 0.378557,0.06073 0.764892,0.117406 1.158203,0.169922 5.381378,0.72187 10.333121,0.477062 15.181641,0 0.393971,-0.0525 0.780958,-0.109184 1.160156,-0.169922 C 46.164466,49.936923 49.499939,48.28631 49.5,46.5 L 46.128906,36 C 37,40 27,40 17.871094,36 Z"
       transform="translate(0,988.36218)"
       id="rect4206"
       inkscape:connector-curvature="0"
       sodipodi:nodetypes="ccccccccc" />
    <path
       id="path4676"
       d="m 28.4,994.66218 -12.7,39.90002 c 0.3,1.8 2.135513,2.7369 7.55,3.6301 5.414519,0.8932 12.085481,0.8932 17.5,0 5.414487,-0.8932 7.449963,-2.1438 7.45,-3.9301 L 35.6,994.66218 c -0.750517,-2.19925 -6.058271,-2.54327 -7.2,0 z"
       style="opacity:0.4;fill:none;fill-opacity:1;stroke:url(#linearGradient4686);stroke-width:1;stroke-linecap:butt;stroke-linejoin:miter;stroke-miterlimit:4;stroke-dasharray:none;stroke-opacity:1"
       inkscape:connector-curvature="0"
       sodipodi:nodetypes="ccssccc" />
    <path
       sodipodi:nodetypes="cccssccc"
       inkscape:connector-curvature="0"
       id="path4237"
       transform="translate(0,988.36218)"
       d="m 32,3.5 c -1.951032,0 -3.973007,1.0219025 -4.5,2.5 l -13,40.5 c 6.1e-5,1.78631 3.335534,3.436923 8.75,4.330078 5.414519,0.893164 12.085481,0.893164 17.5,0 C 46.164466,49.936923 49.499939,48.28631 49.5,46.5 L 36.5,6 C 36.124506,4.5986398 34,3.5 32,3.5 Z"
       style="opacity:0.60000001;fill:none;fill-opacity:1;stroke:#c82800;stroke-width:1;stroke-linecap:butt;stroke-linejoin:miter;stroke-miterlimit:4;stroke-dasharray:none;stroke-opacity:1" />
  </g>
</svg>
