<?xml version="1.0" encoding="UTF-8" standalone="no"?>
<!-- Created with Inkscape (http://www.inkscape.org/) -->

<svg
   xmlns:dc="http://purl.org/dc/elements/1.1/"
   xmlns:cc="http://creativecommons.org/ns#"
   xmlns:rdf="http://www.w3.org/1999/02/22-rdf-syntax-ns#"
   xmlns:svg="http://www.w3.org/2000/svg"
   xmlns="http://www.w3.org/2000/svg"
   xmlns:xlink="http://www.w3.org/1999/xlink"
   xmlns:sodipodi="http://sodipodi.sourceforge.net/DTD/sodipodi-0.dtd"
   xmlns:inkscape="http://www.inkscape.org/namespaces/inkscape"
   version="1.0"
   width="64"
   height="64"
   id="svg2453"
   inkscape:version="0.91 r"
   sodipodi:docname="xterm.svg">
  <sodipodi:namedview
     pagecolor="#ffffff"
     bordercolor="#666666"
     borderopacity="1"
     objecttolerance="10"
     gridtolerance="10"
     guidetolerance="10"
     inkscape:pageopacity="0"
     inkscape:pageshadow="2"
     inkscape:window-width="1855"
     inkscape:window-height="1056"
     id="namedview55"
     showgrid="true"
     inkscape:zoom="14.3125"
     inkscape:cx="19.144105"
     inkscape:cy="32"
     inkscape:window-x="65"
     inkscape:window-y="24"
     inkscape:window-maximized="1"
     inkscape:current-layer="svg2453">
    <inkscape:grid
       type="xygrid"
       id="grid3339" />
  </sodipodi:namedview>
  <metadata
     id="metadata35">
    <rdf:RDF>
      <cc:Work
         rdf:about="">
        <dc:format>image/svg+xml</dc:format>
        <dc:type
           rdf:resource="http://purl.org/dc/dcmitype/StillImage" />
        <dc:title />
      </cc:Work>
    </rdf:RDF>
  </metadata>
  <defs
     id="defs2455">
    <linearGradient
       id="linearGradient3462">
      <stop
         id="stop3464"
         style="stop-color:#ffffff;stop-opacity:1"
         offset="0" />
      <stop
         id="stop3466"
         style="stop-color:#ffffff;stop-opacity:0.23529412"
         offset="0.03457849" />
      <stop
         id="stop3468"
         style="stop-color:#ffffff;stop-opacity:0.15686275"
         offset="0.96375686" />
      <stop
         id="stop3470"
         style="stop-color:#ffffff;stop-opacity:0.39215687"
         offset="1" />
    </linearGradient>
    <linearGradient
       id="linearGradient5060-2">
      <stop
         id="stop5062-3"
         style="stop-color:#000000;stop-opacity:1"
         offset="0" />
      <stop
         id="stop5064-1"
         style="stop-color:#000000;stop-opacity:0"
         offset="1" />
    </linearGradient>
    <linearGradient
       id="linearGradient5048-8">
      <stop
         id="stop5050-4"
         style="stop-color:#000000;stop-opacity:0"
         offset="0" />
      <stop
         id="stop5056-5"
         style="stop-color:#000000;stop-opacity:1"
         offset="0.5" />
      <stop
         id="stop5052-1"
         style="stop-color:#000000;stop-opacity:0"
         offset="1" />
    </linearGradient>
    <radialGradient
       cx="605.71429"
       cy="486.64789"
       r="117.14286"
       fx="605.71429"
       fy="486.64789"
       id="radialGradient3172"
       xlink:href="#linearGradient5060-2"
       gradientUnits="userSpaceOnUse"
       gradientTransform="matrix(0.03212956,0,0,0.02058823,40.136784,48.451416)" />
    <radialGradient
       cx="605.71429"
       cy="486.64789"
       r="117.14286"
       fx="605.71429"
       fy="486.64789"
       id="radialGradient3175"
       xlink:href="#linearGradient5060-2"
       gradientUnits="userSpaceOnUse"
       gradientTransform="matrix(-0.03212956,0,0,0.02058823,23.863217,48.451416)" />
    <linearGradient
       x1="302.85715"
       y1="366.64789"
       x2="302.85715"
       y2="609.50507"
       id="linearGradient3178"
       xlink:href="#linearGradient5048-8"
       gradientUnits="userSpaceOnUse"
       gradientTransform="matrix(0.11390532,0,0,0.02058823,-9.1686406,48.451416)" />
    <linearGradient
       inkscape:collect="always"
       xlink:href="#linearGradient3462"
       id="linearGradient3133"
       gradientUnits="userSpaceOnUse"
       gradientTransform="matrix(1.5405405,0,0,1.2162162,-4.9729751,5.8820652)"
       x1="40.290417"
       y1="5.4143372"
       x2="40.290417"
       y2="42.437775" />
    <radialGradient
       inkscape:collect="always"
       xlink:href="#linearGradient2867-449-88-871-390-598-476-591-434-148-57-177-8-3-3-6-4-8-8-8-5-7"
       id="radialGradient3136"
       gradientUnits="userSpaceOnUse"
       gradientTransform="matrix(0,11.015167,-16.975815,0,202.28727,-88.992668)"
       cx="7.1183534"
       cy="9.9571075"
       fx="7.1183534"
       fy="9.9571075"
       r="12.671875" />
    <linearGradient
       id="linearGradient3680-6-6-6-3-7-1-8">
      <stop
         offset="0"
         style="stop-color:#dcdcdc;stop-opacity:1"
         id="stop3682-4-6-1-3-7-7-4" />
      <stop
         offset="1"
         style="stop-color:#ffffff;stop-opacity:1"
         id="stop3684-8-5-8-0-2-6-8" />
    </linearGradient>
    <linearGradient
       id="linearGradient2867-449-88-871-390-598-476-591-434-148-57-177-8-3-3-6-4-8-8-8-5">
      <stop
         offset="0"
         style="stop-color:#919caf;stop-opacity:1;"
         id="stop3750-1-0-7-6-6-1-3-9-3" />
      <stop
         offset="0.26238"
         style="stop-color:#68758e;stop-opacity:1;"
         id="stop3752-3-7-4-0-32-8-923-0-7" />
      <stop
         offset="0.704952"
         style="stop-color:#485a6c;stop-opacity:1;"
         id="stop3754-1-8-5-2-7-6-7-1-9" />
      <stop
         offset="1"
         style="stop-color:#444c5c;stop-opacity:1;"
         id="stop3756-1-6-2-6-6-1-96-6-0" />
    </linearGradient>
    <radialGradient
       cx="4.9929786"
       cy="43.5"
       r="2.5"
       fx="4.9929786"
       fy="43.5"
       id="radialGradient3337-2-2"
       xlink:href="#linearGradient3688-166-749-4-0-3-8"
       gradientUnits="userSpaceOnUse"
       gradientTransform="matrix(2.003784,0,0,1.4,27.98813,-17.4)" />
    <linearGradient
       id="linearGradient3688-166-749-4-0-3-8">
      <stop
         id="stop2883-4-0-1-8"
         style="stop-color:#181818;stop-opacity:1"
         offset="0" />
      <stop
         id="stop2885-9-2-9-6"
         style="stop-color:#181818;stop-opacity:0"
         offset="1" />
    </linearGradient>
    <radialGradient
       cx="4.9929786"
       cy="43.5"
       r="2.5"
       fx="4.9929786"
       fy="43.5"
       id="radialGradient3339-1-4"
       xlink:href="#linearGradient3688-166-749-4-0-3-8"
       gradientUnits="userSpaceOnUse"
       gradientTransform="matrix(2.003784,0,0,1.4,-20.01187,-104.4)" />
    <linearGradient
       x1="25.058096"
       y1="47.027729"
       x2="25.058096"
       y2="39.999443"
       id="linearGradient4159"
       xlink:href="#linearGradient3702-501-757-8-4-1-1"
       gradientUnits="userSpaceOnUse" />
    <linearGradient
       id="linearGradient3702-501-757-8-4-1-1">
      <stop
         id="stop2895-8-9-9-1"
         style="stop-color:#181818;stop-opacity:0"
         offset="0" />
      <stop
         id="stop2897-7-8-7-7"
         style="stop-color:#181818;stop-opacity:1"
         offset="0.5" />
      <stop
         id="stop2899-4-5-1-5"
         style="stop-color:#181818;stop-opacity:0"
         offset="1" />
    </linearGradient>
    <radialGradient
       cx="7.1183534"
       cy="9.9571075"
       r="12.671875"
       fx="7.1183534"
       fy="9.9571075"
       id="radialGradient3988-3"
       xlink:href="#linearGradient2867-449-88-871-390-598-476-591-434-148-57-177-8-3-3-6-4-8-8-8-5-7"
       gradientUnits="userSpaceOnUse"
       gradientTransform="matrix(0,12.890089,-15.824912,0,190.74237,-113.0978)" />
    <linearGradient
       id="linearGradient2867-449-88-871-390-598-476-591-434-148-57-177-8-3-3-6-4-8-8-8-5-7">
      <stop
         id="stop3750-1-0-7-6-6-1-3-9-3-9"
         style="stop-color:#505050;stop-opacity:1"
         offset="0" />
      <stop
         id="stop3752-3-7-4-0-32-8-923-0-7-0"
         style="stop-color:#2b2b2b;stop-opacity:1"
         offset="0.26238" />
      <stop
         id="stop3754-1-8-5-2-7-6-7-1-9-1"
         style="stop-color:#0a0a0a;stop-opacity:1"
         offset="0.704952" />
      <stop
         id="stop3756-1-6-2-6-6-1-96-6-0-1"
         style="stop-color:#000000;stop-opacity:1"
         offset="1" />
    </linearGradient>
    <linearGradient
       x1="23.99999"
       y1="4.999989"
       x2="23.99999"
       y2="43"
       id="linearGradient3180"
       xlink:href="#linearGradient3924-2-2-5-8"
       gradientUnits="userSpaceOnUse"
       gradientTransform="matrix(1.4324324,0,0,1.4362832,-2.378381,-2.4707781)" />
    <linearGradient
       id="linearGradient3924-2-2-5-8">
      <stop
         id="stop3926-9-4-9-6"
         style="stop-color:#ffffff;stop-opacity:1"
         offset="0" />
      <stop
         id="stop3928-9-8-6-5"
         style="stop-color:#ffffff;stop-opacity:0.23529412"
         offset="0.06316455" />
      <stop
         id="stop3930-3-5-1-7"
         style="stop-color:#ffffff;stop-opacity:0.15686275"
         offset="0.95056331" />
      <stop
         id="stop3932-8-0-4-8"
         style="stop-color:#ffffff;stop-opacity:0.39215687"
         offset="1" />
    </linearGradient>
    <linearGradient
       x1="20"
       y1="26.000008"
       x2="20"
       y2="13.000008"
       id="linearGradient4069"
       xlink:href="#linearGradient3680-6-6-6-3-7-1-8"
       gradientUnits="userSpaceOnUse"
       gradientTransform="matrix(1.0251942,0,0,1.0251942,-64.567905,5.8444656)" />
  </defs>
  <rect
     width="55"
     height="5"
     x="4.5"
     y="56"
     id="rect2879-0"
     style="opacity:0.3;fill:url(#linearGradient3178);fill-opacity:1;fill-rule:nonzero;stroke:none;stroke-width:1;marker:none;visibility:visible;display:inline;overflow:visible" />
  <path
     d="m 4.5,56.000216 c 0,0 0,4.9997 0,4.9997 -1.654593,0.01 -4,-1.1202 -4,-2.5002 0,-1.38 1.8464008,-2.4995 4,-2.4995 z"
     id="path2881-4"
     style="opacity:0.3;fill:url(#radialGradient3175);fill-opacity:1;fill-rule:nonzero;stroke:none;stroke-width:1;marker:none;visibility:visible;display:inline;overflow:visible" />
  <path
     d="m 59.5,56.000216 c 0,0 0,4.9997 0,4.9997 1.654592,0.01 4,-1.1202 4,-2.5002 0,-1.38 -1.846401,-2.4995 -4,-2.4995 z"
     id="path2883-6"
     style="opacity:0.3;fill:url(#radialGradient3172);fill-opacity:1;fill-rule:nonzero;stroke:none;stroke-width:1;marker:none;visibility:visible;display:inline;overflow:visible" />
  <rect
     width="59"
     height="47"
     rx="2"
     ry="2"
     x="2.5"
     y="11.499998"
     id="rect5505-21-3-8-5-2"
     style="opacity:0.9;color:#000000;fill:url(#radialGradient3136);fill-opacity:1.0;fill-rule:nonzero;stroke:none;stroke-width:0.99999994;marker:none;visibility:visible;display:inline;overflow:visible;enable-background:accumulate" />
  <rect
     width="59"
     height="47"
     rx="2"
     ry="2"
     x="2.5"
     y="11.5"
     id="rect5505-21-3-8-9-1-1"
     style="opacity:0.7;color:#000000;fill:#000000;stroke:#000000;stroke-width:1;stroke-linecap:round;stroke-linejoin:round;stroke-miterlimit:4;stroke-opacity:1;stroke-dasharray:none;stroke-dashoffset:0;marker:none;visibility:visible;display:inline;overflow:visible;enable-background:accumulate;clip-rule:nonzero;isolation:auto;mix-blend-mode:normal;color-interpolation:sRGB;color-interpolation-filters:linearRGB;solid-color:#000000;solid-opacity:1;fill-opacity:0;fill-rule:nonzero;filter-blend-mode:normal;filter-gaussianBlur-deviation:0;color-rendering:auto;image-rendering:auto;shape-rendering:auto;text-rendering:auto" />
  <g
     transform="translate(64.447598,0.47511)"
     id="layer1">
    <path
       d="m -51.124675,18.434526 a 0.71542172,0.71542172 0 0 0 -0.724345,0.724344 l 0,0.241448 c -0.711444,0.134528 -1.412866,0.364384 -2.028164,0.869213 -0.0057,0.0047 -0.01844,-0.0047 -0.02415,0 l 0,0.02415 c -1.260444,1.000538 -1.35277,2.829996 -0.434607,4.032184 a 0.71542172,0.71542172 0 0 0 0.02415,0.02415 c 0.689649,0.836764 1.614626,1.217764 2.462771,1.545268 l 0,0.796779 c -0.706451,-0.130044 -1.408601,-0.254004 -2.076454,-0.555341 a 0.71542172,0.71542172 0 0 0 -1.014082,0.65191 l 0,1.835006 a 0.71542172,0.71542172 0 0 0 0.434607,0.65191 c 0.851875,0.361476 1.755444,0.47487 2.655929,0.555331 l 0,0.917503 a 0.71542172,0.71542172 0 0 0 0.724345,0.724344 l 0.772634,0 a 0.71542172,0.71542172 0 0 0 0.724344,-0.724344 l 0,-0.989937 c 0.545044,-0.07312 1.101482,-0.12743 1.641847,-0.410462 l 0,0.02414 c 0.01039,-0.0051 0.01382,-0.01894 0.02415,-0.02414 1.019211,-0.51414 1.751961,-1.553394 1.714282,-2.728364 6.1e-5,-0.0079 1.2e-5,-0.01621 0,-0.02415 -8.5e-4,-0.573962 -0.203137,-1.11183 -0.531186,-1.569413 a 0.71542172,0.71542172 0 0 0 0,-0.02415 c -0.760761,-1.015165 -1.919886,-1.396213 -2.849088,-1.738427 l 0,-0.700199 c 0.536726,0.09332 1.091886,0.167838 1.521123,0.338027 a 0.71542172,0.71542172 0 0 0 0.917503,-0.410462 l 0.676055,-1.641847 a 0.71542172,0.71542172 0 0 0 -0.362172,-0.917503 c -0.863471,-0.369914 -1.835127,-0.544444 -2.752509,-0.627765 l 0,-0.144869 a 0.71542172,0.71542172 0 0 0 -0.724349,-0.724334 l -0.772634,0 z m 6.953706,12.362145 a 0.71542172,0.71542172 0 0 0 -0.724344,0.724344 l 0,2.317902 a 0.71542172,0.71542172 0 0 0 0.724344,0.724345 l 8.498975,0 a 0.71542172,0.71542172 0 0 0 0.724344,-0.724345 l 0,-2.317902 a 0.71542172,0.71542172 0 0 0 -0.724344,-0.724344 l -8.498975,0 z"
       inkscape:connector-curvature="0"
       id="path4108"
       style="color:#000000;font-style:normal;font-variant:normal;font-weight:bold;font-stretch:normal;font-size:14.31169891px;line-height:125%;font-family:'Open Sans';-inkscape-font-specification:'Open Sans Bold';letter-spacing:0px;word-spacing:0px;display:inline;overflow:visible;visibility:visible;opacity:0.15;fill:#000000;fill-opacity:1;fill-rule:nonzero;stroke:none;marker:none;enable-background:accumulate" />
    <path
       d="m -51.124675,19.15887 0,0.820924 c -0.841379,0.08038 -1.66439,0.302464 -2.317903,0.845068 -0.937962,0.724924 -1.003031,2.164062 -0.313882,3.066392 0.666344,0.808489 1.664695,1.180017 2.631785,1.545268 l 0,2.173033 c -1.078317,-0.08808 -2.110709,-0.378824 -3.090537,-0.820924 l 0,1.835006 c 0.980732,0.416153 2.024407,0.606914 3.090537,0.627765 l 0,1.496979 0.772634,0 0,-1.545268 c 0.652596,-0.05865 1.474473,-0.174734 2.052309,-0.482897 0.802729,-0.394102 1.363663,-1.22821 1.327965,-2.100598 0.0032,-0.42179 -0.135786,-0.833639 -0.386317,-1.183096 -0.670171,-0.894281 -1.982851,-1.282492 -2.993957,-1.690137 l 0,-2.076454 c 0.801671,0.0652 1.76731,0.26044 2.51106,0.55533 l 0.676055,-1.641847 c -0.949722,-0.406864 -2.151703,-0.585219 -3.187115,-0.627765 l 0,-0.796779 -0.772634,0 z m 0,2.535205 0,1.665993 c -0.408175,-0.179518 -0.984359,-0.40476 -0.965793,-0.917503 -0.0191,-0.484003 0.552582,-0.701946 0.965793,-0.74849 z m 0.772634,4.128764 c 0.404814,0.197553 1.149827,0.354394 1.158951,0.869213 0.02326,0.525335 -0.700674,0.783998 -1.158951,0.845069 l 0,-1.714282 z m 6.181072,5.698176 0,2.317902 8.498975,0 0,-2.317902 -8.498975,0 z"
       inkscape:connector-curvature="0"
       id="path4041"
       style="color:#000000;font-style:normal;font-variant:normal;font-weight:bold;font-stretch:normal;font-size:14.31169891px;line-height:125%;font-family:'Open Sans';-inkscape-font-specification:'Open Sans Bold';letter-spacing:0px;word-spacing:0px;display:inline;overflow:visible;visibility:visible;opacity:0.3;fill:#000000;fill-opacity:1;fill-rule:nonzero;stroke:none;marker:none;enable-background:accumulate" />
    <path
       d="m -51.124675,18.386236 0,0.820924 c -0.841379,0.08038 -1.66439,0.302464 -2.317903,0.845068 -0.937962,0.724924 -1.003031,2.164062 -0.313882,3.066392 0.666344,0.808488 1.664695,1.180017 2.631785,1.545268 l 0,2.173033 c -1.078317,-0.08808 -2.110709,-0.378824 -3.090537,-0.820924 l 0,1.835006 c 0.980732,0.416153 2.024407,0.606913 3.090537,0.627765 l 0,1.496979 0.772634,0 0,-1.545268 c 0.652596,-0.05865 1.474473,-0.174734 2.052309,-0.482897 0.802729,-0.394102 1.363663,-1.22821 1.327965,-2.100598 0.0032,-0.42179 -0.135786,-0.833639 -0.386317,-1.183096 -0.670171,-0.894281 -1.982851,-1.282493 -2.993957,-1.690137 l 0,-2.076454 c 0.801671,0.0652 1.76731,0.26044 2.51106,0.55533 l 0.676055,-1.641847 c -0.949722,-0.406865 -2.151703,-0.585219 -3.187115,-0.627765 l 0,-0.796779 -0.772634,0 z m 0,2.535205 0,1.665993 c -0.408175,-0.179518 -0.984359,-0.40476 -0.965793,-0.917503 -0.0191,-0.484003 0.552582,-0.701946 0.965793,-0.74849 z m 0.772634,4.128764 c 0.404814,0.197553 1.149827,0.354394 1.158951,0.869213 0.02326,0.525335 -0.700674,0.783998 -1.158951,0.845069 l 0,-1.714282 z m 6.181072,5.698176 0,2.317902 8.498975,0 0,-2.317902 -8.498975,0 z"
       inkscape:connector-curvature="0"
       id="path4041-4"
       style="color:#000000;font-style:normal;font-variant:normal;font-weight:bold;font-stretch:normal;font-size:14.31169891px;line-height:125%;font-family:'Open Sans';-inkscape-font-specification:'Open Sans Bold';letter-spacing:0px;word-spacing:0px;display:inline;overflow:visible;visibility:visible;fill:url(#linearGradient4069);fill-opacity:1;fill-rule:nonzero;stroke:none;marker:none;enable-background:accumulate" />
    <path
       d="m -43.621329,11.66695 15.484604,23.269074 -15.610873,22.539996 3.335677,0.04887 18.820496,-27.227636 -12.250154,-18.630303 z m 36.6995299,0 -18.7699889,27.105464 12.351168,18.752475 8.1107329,-0.01765 1.290213,-0.446612 -15.2068139,-22.926986 15.1310529,-22.075736 -1.407638,-0.380777 z"
       inkscape:connector-curvature="0"
       id="path3889"
       style="opacity:0.2;fill:#ffffff;fill-opacity:1;stroke:none"
       sodipodi:nodetypes="cccccccccccccccc" />
  </g>
  <rect
     width="57"
     height="45"
     rx="1"
     ry="1"
     x="3.5"
     y="12.571251"
     id="rect6741-5-0-2-3"
     style="opacity:0.29999999999999999;fill:none;stroke:url(#linearGradient3133);stroke-width:1;stroke-linecap:round;stroke-linejoin:round;stroke-miterlimit:4;stroke-opacity:1;stroke-dasharray:none;stroke-dashoffset:0" />
</svg>
