<?xml version="1.0" encoding="UTF-8" standalone="no"?>
<!-- Created with Inkscape (http://www.inkscape.org/) -->

<svg
   xmlns:dc="http://purl.org/dc/elements/1.1/"
   xmlns:cc="http://creativecommons.org/ns#"
   xmlns:rdf="http://www.w3.org/1999/02/22-rdf-syntax-ns#"
   xmlns:svg="http://www.w3.org/2000/svg"
   xmlns="http://www.w3.org/2000/svg"
   xmlns:sodipodi="http://sodipodi.sourceforge.net/DTD/sodipodi-0.dtd"
   xmlns:inkscape="http://www.inkscape.org/namespaces/inkscape"
   inkscape:export-ydpi="90.000000"
   inkscape:export-xdpi="90.000000"
   inkscape:export-filename="/home/patrick/Desktop/desktop.png"
   width="16"
   height="16"
   id="svg11300"
   sodipodi:version="0.32"
   inkscape:version="0.91 r"
   sodipodi:docname="plugin-gnomecompat.svg"
   inkscape:output_extension="org.inkscape.output.svg.inkscape"
   version="1.0">
  <defs
     id="defs3" />
  <sodipodi:namedview
     stroke="#ef2929"
     fill="#eeeeec"
     id="base"
     pagecolor="#ffffff"
     bordercolor="#666666"
     borderopacity="0.25490196"
     inkscape:pageopacity="0.0"
     inkscape:pageshadow="2"
     inkscape:zoom="11.461022"
     inkscape:cx="9.4053601"
     inkscape:cy="24"
     inkscape:current-layer="g2990"
     showgrid="false"
     inkscape:grid-bbox="true"
     inkscape:document-units="px"
     inkscape:showpageshadow="false"
     inkscape:window-width="1855"
     inkscape:window-height="1056"
     inkscape:window-x="65"
     inkscape:window-y="24"
     showguides="true"
     inkscape:guide-bbox="true"
     inkscape:window-maximized="1"
     inkscape:snap-global="false">
    <inkscape:grid
       type="xygrid"
       id="grid7913"
       empspacing="5"
       visible="true"
       enabled="true"
       snapvisiblegridlinesonly="true" />
  </sodipodi:namedview>
  <metadata
     id="metadata4">
    <rdf:RDF>
      <cc:Work
         rdf:about="">
        <dc:format>image/svg+xml</dc:format>
        <dc:type
           rdf:resource="http://purl.org/dc/dcmitype/StillImage" />
        <dc:creator>
          <cc:Agent>
            <dc:title>Patrick Niklaus</dc:title>
          </cc:Agent>
        </dc:creator>
        <dc:source />
        <cc:license
           rdf:resource="http://creativecommons.org/licenses/GPL/2.0/" />
        <dc:title></dc:title>
        <dc:subject>
          <rdf:Bag />
        </dc:subject>
      </cc:Work>
      <cc:License
         rdf:about="http://creativecommons.org/licenses/GPL/2.0/">
        <cc:permits
           rdf:resource="http://web.resource.org/cc/Reproduction" />
        <cc:permits
           rdf:resource="http://web.resource.org/cc/Distribution" />
        <cc:requires
           rdf:resource="http://web.resource.org/cc/Notice" />
        <cc:permits
           rdf:resource="http://web.resource.org/cc/DerivativeWorks" />
        <cc:requires
           rdf:resource="http://web.resource.org/cc/ShareAlike" />
        <cc:requires
           rdf:resource="http://web.resource.org/cc/SourceCode" />
      </cc:License>
    </rdf:RDF>
  </metadata>
  <g
     id="layer1"
     inkscape:label="Layer 1"
     inkscape:groupmode="layer"
     transform="translate(0,-16)">
    <g
       id="g2990"
       transform="matrix(0.19947888,0,0,0.19947888,6.5034486,27.735437)">
      <path
         inkscape:connector-curvature="0"
         style="fill:#353945;fill-opacity:1;stroke:none;stroke-width:4;stroke-miterlimit:4;stroke-dasharray:none;stroke-opacity:1"
         id="path8"
         d="m 27.847179,-56.323943 c -13.694233,0 -16.261984,22.276583 -8.558211,22.276583 7.702648,0 22.252989,-22.276583 8.558211,-22.276583 z m -21.1693716,2.722474 c -0.217422,-10e-4 -0.437452,0.02345 -0.678389,0.0597 -7.706561,1.14272 -4.990604,16.446111 -0.887131,16.73228 3.9736183,0.277201 8.3066086,-16.765362 1.56552,-16.791903 z m -13.098196,6.060981 c -0.470951,-0.03519 -1.002333,0.08394 -1.582909,0.357703 -6.1941954,2.920084 -0.947821,14.959061 2.522206,14.148916 3.147256,-0.733058 3.613177,-14.167034 -0.939297,-14.506619 z m -10.1237294,9.459106 c -0.538551,-0.02085 -1.119387,0.166584 -1.739459,0.655787 -4.958485,3.913995 1.674884,13.369764 4.592204,11.903367 2.552628,-1.283657 0.917137,-12.414207 -2.852745,-12.559154 z m 26.700868,7.233445 c -10.38534061,0.402751 -23.141812,6.500225 -25.413643,18.123323 -2.590014,13.24020775 10.6476294,31.596602 24.4743217,31.596602 6.8020393,0 14.6570703,-7.008962 16.1249053,-15.8976627 C 26.463389,-3.8037992 12.147263,-1.0934102 12.661595,3.3916385 13.277783,8.7675931 9.2010307,11.427907 5.2166714,7.9622147 -7.4673016,-3.0701202 26.223337,-8.5820032 24.002942,-23.654254 c -0.748726,-5.08252 -6.740435,-7.469267 -13.846192,-7.193683 z" />
    </g>
  </g>
</svg>
