<?xml version="1.0" encoding="UTF-8" standalone="no"?>
<!-- Created with Inkscape (http://www.inkscape.org/) -->

<svg
   xmlns:dc="http://purl.org/dc/elements/1.1/"
   xmlns:cc="http://creativecommons.org/ns#"
   xmlns:rdf="http://www.w3.org/1999/02/22-rdf-syntax-ns#"
   xmlns:svg="http://www.w3.org/2000/svg"
   xmlns="http://www.w3.org/2000/svg"
   xmlns:sodipodi="http://sodipodi.sourceforge.net/DTD/sodipodi-0.dtd"
   xmlns:inkscape="http://www.inkscape.org/namespaces/inkscape"
   width="16"
   height="16"
   id="svg2"
   sodipodi:version="0.32"
   inkscape:version="0.91 r"
   sodipodi:docname="plugin-snow.svg"
   version="1.0"
   inkscape:export-filename="/home/andrew/Desktop/logo_lights_mod.png"
   inkscape:export-xdpi="90"
   inkscape:export-ydpi="90"
   inkscape:output_extension="org.inkscape.output.svg.inkscape">
  <defs
     id="defs4" />
  <sodipodi:namedview
     id="base"
     pagecolor="#ffffff"
     bordercolor="#666666"
     borderopacity="1.0"
     gridtolerance="10000"
     guidetolerance="10"
     objecttolerance="10"
     inkscape:pageopacity="0.0"
     inkscape:pageshadow="2"
     inkscape:zoom="7.5572037"
     inkscape:cx="1.1079348"
     inkscape:cy="24"
     inkscape:document-units="px"
     inkscape:current-layer="layer1"
     inkscape:window-width="1278"
     inkscape:window-height="710"
     inkscape:window-x="75"
     inkscape:window-y="49"
     width="48px"
     height="48px"
     showguides="true"
     inkscape:guide-bbox="true"
     showgrid="false"
     inkscape:window-maximized="0" />
  <metadata
     id="metadata7">
    <rdf:RDF>
      <cc:Work
         rdf:about="">
        <dc:format>image/svg+xml</dc:format>
        <dc:type
           rdf:resource="http://purl.org/dc/dcmitype/StillImage" />
        <dc:title></dc:title>
      </cc:Work>
    </rdf:RDF>
  </metadata>
  <g
     inkscape:label="Layer 1"
     inkscape:groupmode="layer"
     id="layer1"
     transform="translate(-9.618716,-166.6052)">
    <path
       style="fill:#353945;fill-opacity:1;stroke:none;stroke-width:0.74699867;stroke-miterlimit:4;stroke-dasharray:none;stroke-opacity:1"
       d="m 17.334703,182.0191 c 0.232163,-0.50358 -0.275075,-1.11661 -0.554538,-0.38537 -0.604071,0.53036 -0.929638,-0.63659 -0.16256,-0.68897 0.50504,-0.2051 1.145603,-1.39174 0.458057,-1.45702 -0.640751,0.35473 -1.251862,1.57682 -1.941469,1.34936 0.08806,-0.88819 1.276967,-1.15131 1.759063,-1.84595 0.578166,-0.22756 0.739977,-1.87462 -0.07449,-1.17703 -0.219106,0.40681 -1.261634,1.19229 -1.291251,0.41357 0.478248,-0.71797 1.511228,-0.97947 1.792507,-1.82809 0.09073,-0.48678 0.16367,-1.6514 -0.596851,-1.07219 -0.984902,0.251 -1.239036,1.27162 -1.391904,2.13293 0.118092,0.68401 -1.036626,1.00406 -0.780892,0.15302 0.221649,-0.39473 0.736806,-1.82497 -0.185346,-1.20601 -0.762538,0.61844 -0.802265,1.68347 -1.069428,2.5559 0.137426,0.49049 -0.770004,1.11367 -0.637745,0.34181 0.05405,-0.64288 0.63103,-1.45499 0.37384,-1.98504 -1.002952,-0.006 -0.950219,1.30277 -1.380331,1.87958 -0.844586,0.0925 0.153135,-1.45008 -0.717559,-0.84331 -0.631252,0.4366 -0.656243,-0.61558 -0.02847,-0.6034 0.645298,-0.44236 -1.2673616,-0.10762 -0.669055,-0.89358 0.734133,0.0303 1.600244,0.66281 2.315064,0.11059 0.481656,-0.68964 -0.919983,-0.50914 -1.342074,-0.73186 -0.530181,0.0911 -1.4570816,-0.58916 -0.429398,-0.63357 0.936528,0.30932 1.932656,0.49743 2.900832,0.73471 0.605456,-0.11015 1.268119,-0.90649 0.21172,-0.86725 -0.41655,0.0247 -1.568544,-0.26061 -0.925344,-0.72286 1.053178,0.11507 2.137184,0.8096 3.185664,0.29791 0.57364,-0.11095 1.029081,-0.77146 0.190563,-0.91538 -0.80651,-0.58078 -1.792067,-0.20612 -2.626911,0.0784 -0.416125,0.35749 -1.460779,0.026 -0.723137,-0.44896 0.403745,-0.20952 1.687681,-0.0388 1.436307,-0.65897 -0.840954,-0.67025 -1.889651,-0.0382 -2.794025,0.0968 -0.402657,0.13859 -1.276572,0.56037 -1.328772,-0.16323 0.807648,-0.28735 1.760757,-0.18393 2.478359,-0.69359 -0.673364,-0.76255 -1.687529,-0.16299 -2.479966,-0.0788 -0.7518446,-0.62621 1.412729,-0.56706 0.358672,-1.09081 -0.7048906,-0.20081 0.333342,-0.94261 0.554026,-0.29351 0.375526,-0.17676 -0.22838,-1.47774 0.554235,-0.91171 0.245522,0.71272 0.361676,1.69452 1.227131,1.92045 0.464441,-0.52988 -0.45137,-1.49253 -0.332146,-2.22726 0.261368,-0.74281 0.815402,0.57741 0.758856,0.96234 0.19805,0.78139 0.305362,1.87144 1.229207,2.14114 0.887635,-0.18072 -0.881503,-1.69625 0.312509,-1.8848 0.648937,0.83072 0.314881,2.21518 1.366424,2.7666 0.33719,0.34573 1.287164,0.53932 1.005503,-0.23608 0.297147,-0.9738 -0.692316,-1.57831 -1.334472,-2.10049 -0.546251,-0.15094 -0.802395,-1.08059 0.01038,-0.74807 0.417696,0.18039 1.068549,1.41361 1.351327,0.75517 0.17579,-0.90416 -0.693347,-1.39468 -1.255357,-1.91576 -0.307177,-0.39852 -1.124965,-0.79296 -1.098295,-1.20136 0.724131,-0.24669 1.145422,0.78206 1.700623,1.11253 0.707031,0.78108 0.870989,-0.49273 0.318296,-0.83927 -0.378683,-0.227 -1.505045,-1.20492 -0.44051,-1.07953 0.409906,0.10227 0.833237,0.77107 0.686825,0.0349 0.165522,-0.56295 0.735567,-0.32261 0.577756,0.21153 0.342068,0.43842 0.993094,-0.97797 1.210564,-0.0504 -0.405676,0.58939 -1.767127,1.21826 -1.076122,2.02332 0.684743,-0.3044 1.028887,-1.10727 1.746821,-1.397 0.890221,-0.0442 -0.463562,0.94863 -0.718727,1.19693 -0.509651,0.55135 -1.430405,0.97509 -1.197053,1.87846 0.48327,0.86486 1.027474,-1.25543 1.793018,-0.71181 -0.08413,0.96819 -1.325579,1.1017 -1.739369,1.87366 -0.0516,0.49528 -0.311026,1.91337 0.595402,1.30885 1.070228,-0.27997 1.279735,-1.30433 1.414682,-2.22959 -0.05534,-0.57497 0.909404,-0.83952 0.71681,-0.135 -0.25644,0.42406 -0.655379,1.69888 0.307069,1.16373 0.832898,-0.52708 0.767857,-1.63339 1.054973,-2.46882 -0.0477,-0.40698 0.64111,-1.11434 0.651436,-0.37701 -0.110158,0.66226 -0.739162,1.51551 -0.507727,2.06038 0.921978,0.0504 1.174758,-1.02 1.229307,-1.7056 0.45196,-0.48526 0.950334,0.2019 0.433362,0.55938 0.0539,0.7332 0.929674,-0.50976 0.945369,0.33318 -0.02681,0.38971 -0.91581,0.48357 -0.163187,0.65913 0.580659,-0.10147 0.854963,0.63533 0.129441,0.59913 -0.718452,-0.14957 -1.921407,-0.62268 -2.276555,0.25555 0.756731,0.33291 1.720685,0.19443 2.444224,0.65992 -0.181547,0.7332 -1.355967,-0.10052 -1.93463,-0.11702 -0.640152,-0.29138 -2.227381,-0.42603 -2.186401,0.44594 0.502928,0.24304 1.838733,-0.0303 1.573978,0.86809 -1.036338,-0.0712 -2.062098,-0.82938 -3.100598,-0.34958 -0.449654,0.0623 -1.184039,0.73764 -0.355515,0.88581 0.776562,0.69295 1.904683,0.30694 2.732025,-0.0589 0.656481,-0.2459 1.100313,0.58226 0.207742,0.57392 -0.432742,-0.026 -1.525215,0.34722 -0.68243,0.72898 0.709005,0.43756 1.503034,-0.10862 2.238241,-0.18954 0.47409,0.025 1.639372,-0.73381 1.53469,0.0258 -0.667203,0.45475 -1.608357,0.27193 -2.351656,0.61878 -0.373588,0.40416 0.91184,0.72071 1.24408,0.48083 0.365121,-0.33047 1.869654,-0.19777 1.115373,0.35683 -0.343092,-0.0145 -1.097092,0.21399 -0.381385,0.42909 0.66969,0.32631 -0.419908,0.85021 -0.594747,0.28565 -0.211561,0.31123 0.367233,1.40672 -0.435566,1.00523 -0.28793,-0.71153 -0.39736,-1.91223 -1.425866,-1.87267 -0.08999,0.85574 0.632305,1.58363 0.579103,2.4174 -0.954917,0.0181 -0.633991,-1.31575 -0.961446,-1.92779 -0.02847,-0.61659 -0.945311,-1.92619 -1.452419,-1.24582 0.07603,0.52476 0.943668,1.57705 -0.01398,1.69582 -0.599424,-0.81 -0.266586,-2.12453 -1.236967,-2.69318 -0.3048,-0.35178 -1.260063,-0.66196 -1.015708,0.13979 -0.280248,0.95471 0.634978,1.61503 1.292375,2.12515 0.563631,0.19154 0.530469,1.2043 -0.132526,0.74175 -0.329898,-0.4819 -1.409054,-1.40863 -1.173843,-0.2084 0.279507,0.77493 1.080352,1.17727 1.600381,1.77858 0.329379,0.24524 1.034478,0.95182 0.194641,0.82413 -0.655854,-0.38899 -1.044726,-1.32952 -1.841781,-1.3742 -0.399587,0.66268 0.424224,1.23242 0.884795,1.60418 0.789605,0.45507 -0.27106,0.92749 -0.523703,0.2874 -0.832012,-0.71077 0.005,1.09262 -0.911357,0.60146 z"
       id="path30942"
       inkscape:connector-curvature="0" />
  </g>
</svg>
