<?xml version="1.0" encoding="UTF-8" standalone="no"?>
<svg
   xmlns:dc="http://purl.org/dc/elements/1.1/"
   xmlns:cc="http://creativecommons.org/ns#"
   xmlns:rdf="http://www.w3.org/1999/02/22-rdf-syntax-ns#"
   xmlns:svg="http://www.w3.org/2000/svg"
   xmlns="http://www.w3.org/2000/svg"
   xmlns:sodipodi="http://sodipodi.sourceforge.net/DTD/sodipodi-0.dtd"
   xmlns:inkscape="http://www.inkscape.org/namespaces/inkscape"
   height="16"
   id="svg7384"
   version="1.1"
   width="16"
   inkscape:version="0.91 r"
   sodipodi:docname="object-flip-vertical.svg">
  <sodipodi:namedview
     pagecolor="#ffffff"
     bordercolor="#666666"
     borderopacity="1"
     objecttolerance="10"
     gridtolerance="10"
     guidetolerance="10"
     inkscape:pageopacity="0"
     inkscape:pageshadow="2"
     inkscape:window-width="769"
     inkscape:window-height="480"
     id="namedview20"
     showgrid="false"
     inkscape:zoom="14.75"
     inkscape:cx="8"
     inkscape:cy="8"
     inkscape:window-x="75"
     inkscape:window-y="34"
     inkscape:window-maximized="0"
     inkscape:current-layer="svg7384" />
  <metadata
     id="metadata90">
    <rdf:RDF>
      <cc:Work
         rdf:about="">
        <dc:format>image/svg+xml</dc:format>
        <dc:type
           rdf:resource="http://purl.org/dc/dcmitype/StillImage" />
        <dc:title>elementary Symbolic Icon Theme</dc:title>
      </cc:Work>
    </rdf:RDF>
  </metadata>
  <title
     id="title9167">elementary Symbolic Icon Theme</title>
  <defs
     id="defs7386">
    <filter
       color-interpolation-filters="sRGB"
       id="filter7554">
      <feBlend
         id="feBlend7556"
         in2="BackgroundImage"
         mode="darken" />
    </filter>
    <filter
       color-interpolation-filters="sRGB"
       id="filter7554-7">
      <feBlend
         id="feBlend7556-6"
         in2="BackgroundImage"
         mode="darken" />
    </filter>
  </defs>
  <g
     id="layer9"
     label="status"
     style="display:inline;fill:#353945;fill-opacity:1"
     transform="matrix(0,-1,1,0,-24,509.00035)" />
  <g
     id="layer10"
     style="display:inline;fill:#353945;fill-opacity:1"
     transform="matrix(0,-1,1,0,-24,509.00035)" />
  <g
     id="layer13"
     style="display:inline;fill:#353945;fill-opacity:1"
     transform="matrix(0,-1,1,0,-24,509.00035)" />
  <g
     id="layer14"
     transform="matrix(0,-1,1,0,-24,509.00035)"
     style="fill:#353945;fill-opacity:1" />
  <g
     id="layer15"
     style="display:inline;fill:#353945;fill-opacity:1"
     transform="matrix(0,-1,1,0,-24,509.00035)" />
  <g
     id="g71291"
     style="display:inline;fill:#353945;fill-opacity:1"
     transform="matrix(0,-1,1,0,-24,509.00035)" />
  <g
     id="layer12"
     style="display:inline;fill:#353945;fill-opacity:1"
     transform="matrix(0,-1,1,0,-7.99984,509.0005)">
    <path
       d="m 500,11 0,10 2,0 0,-10 -2,0 z"
       id="path15417"
       style="color:#000000;font-style:normal;font-variant:normal;font-weight:normal;font-stretch:normal;font-size:medium;line-height:normal;font-family:Sans;-inkscape-font-specification:Sans;text-indent:0;text-align:start;text-decoration:none;text-decoration-line:none;letter-spacing:normal;word-spacing:normal;text-transform:none;direction:ltr;block-progression:tb;writing-mode:lr-tb;baseline-shift:baseline;text-anchor:start;display:inline;overflow:visible;visibility:visible;fill:#353945;fill-opacity:1;stroke:none;stroke-width:2;marker:none;enable-background:accumulate"
       inkscape:connector-curvature="0" />
    <path
       d="m 497.0004,18 0,1 c 0,0.26528 0.093,0.53057 0.28125,0.71875 l 3.71875,3.71875 c 0,0 2.47917,-2.47917 3.71875,-3.71875 0.18814,-0.18817 0.28122,-0.45344 0.28125,-0.71875 l 0,-1 -1,0 c -0.2653,0 -0.53058,0.0931 -0.71875,0.28125 l -2.28125,2.28125 -2.28125,-2.28125 C 498.53097,18.09314 498.26571,17.99996 498.0004,18 Z"
       id="path3613-6-6-5-4"
       style="color:#000000;font-style:normal;font-variant:normal;font-weight:normal;font-stretch:normal;font-size:medium;line-height:normal;font-family:'Bitstream Vera Sans';-inkscape-font-specification:'Bitstream Vera Sans';text-indent:0;text-align:start;text-decoration:none;text-decoration-line:none;letter-spacing:normal;word-spacing:normal;text-transform:none;direction:ltr;block-progression:tb;writing-mode:lr-tb;text-anchor:start;display:inline;overflow:visible;visibility:visible;fill:#353945;fill-opacity:1;stroke:none;stroke-width:2;marker:none;enable-background:accumulate"
       inkscape:connector-curvature="0" />
    <path
       d="m 497.00061,13.99999 0,-1 c 0,-0.26528 0.093,-0.53057 0.28125,-0.71875 l 3.71875,-3.71875 c 0,0 2.47917,2.47917 3.71875,3.71875 0.18814,0.18817 0.28122,0.45344 0.28125,0.71875 l 0,1 -1,0 c -0.2653,0 -0.53058,-0.0931 -0.71875,-0.28125 l -2.28125,-2.28125 -2.28125,2.28125 c -0.18818,0.18811 -0.45344,0.28129 -0.71875,0.28125 z"
       id="path3613-6-6-5-4-5"
       style="color:#000000;font-style:normal;font-variant:normal;font-weight:normal;font-stretch:normal;font-size:medium;line-height:normal;font-family:'Bitstream Vera Sans';-inkscape-font-specification:'Bitstream Vera Sans';text-indent:0;text-align:start;text-decoration:none;text-decoration-line:none;letter-spacing:normal;word-spacing:normal;text-transform:none;direction:ltr;block-progression:tb;writing-mode:lr-tb;text-anchor:start;display:inline;overflow:visible;visibility:visible;fill:#353945;fill-opacity:1;stroke:none;stroke-width:2;marker:none;enable-background:accumulate"
       inkscape:connector-curvature="0" />
  </g>
</svg>
