<?xml version="1.0" encoding="UTF-8" standalone="no"?>
<svg
   xmlns:dc="http://purl.org/dc/elements/1.1/"
   xmlns:cc="http://creativecommons.org/ns#"
   xmlns:rdf="http://www.w3.org/1999/02/22-rdf-syntax-ns#"
   xmlns:svg="http://www.w3.org/2000/svg"
   xmlns="http://www.w3.org/2000/svg"
   xmlns:sodipodi="http://sodipodi.sourceforge.net/DTD/sodipodi-0.dtd"
   xmlns:inkscape="http://www.inkscape.org/namespaces/inkscape"
   height="16"
   id="svg7384"
   version="1.1"
   width="16.000196"
   inkscape:version="0.91 r"
   sodipodi:docname="go-first.svg">
  <sodipodi:namedview
     pagecolor="#ffffff"
     bordercolor="#666666"
     borderopacity="1"
     objecttolerance="10"
     gridtolerance="10"
     guidetolerance="10"
     inkscape:pageopacity="0"
     inkscape:pageshadow="2"
     inkscape:window-width="1447"
     inkscape:window-height="799"
     id="namedview18"
     showgrid="false"
     inkscape:zoom="14.75"
     inkscape:cx="-3.6609187"
     inkscape:cy="8"
     inkscape:window-x="75"
     inkscape:window-y="34"
     inkscape:window-maximized="0"
     inkscape:current-layer="svg7384" />
  <metadata
     id="metadata90">
    <rdf:RDF>
      <cc:Work
         rdf:about="">
        <dc:format>image/svg+xml</dc:format>
        <dc:type
           rdf:resource="http://purl.org/dc/dcmitype/StillImage" />
        <dc:title>elementary Symbolic Icon Theme</dc:title>
      </cc:Work>
    </rdf:RDF>
  </metadata>
  <title
     id="title9167">elementary Symbolic Icon Theme</title>
  <defs
     id="defs7386">
    <filter
       color-interpolation-filters="sRGB"
       id="filter7554">
      <feBlend
         id="feBlend7556"
         in2="BackgroundImage"
         mode="darken" />
    </filter>
    <filter
       color-interpolation-filters="sRGB"
       id="filter7554-7">
      <feBlend
         id="feBlend7556-6"
         in2="BackgroundImage"
         mode="darken" />
    </filter>
  </defs>
  <g
     id="layer9"
     label="status"
     style="display:inline"
     transform="matrix(0.53571429,0,0,0.53571429,-167.67868,23.483259)" />
  <g
     id="layer10"
     style="display:inline"
     transform="matrix(0.53571429,0,0,0.53571429,-167.67868,23.483259)" />
  <g
     id="layer13"
     style="display:inline"
     transform="matrix(0.53571429,0,0,0.53571429,-167.67868,23.483259)" />
  <g
     id="layer14"
     transform="matrix(0.53571429,0,0,0.53571429,-167.67868,23.483259)" />
  <g
     id="layer15"
     style="display:inline"
     transform="matrix(0.53571429,0,0,0.53571429,-167.67868,23.483259)" />
  <g
     id="g71291"
     style="display:inline"
     transform="matrix(0.53571429,0,0,0.53571429,-167.67868,23.483259)" />
  <g
     id="layer12"
     style="display:inline;fill:#353945;fill-opacity:1"
     transform="matrix(0.53571429,0,0,0.53571429,-167.67868,20.827007)">
    <path
       d="m 321.0002,-30.6875 -6,5.28125 0,-4.625 -2,0 0,11 2,0 0,-4.625 6,5.3125 0,-3.65625 6,0 0,-5 -6,0 0,-3.6875 z"
       id="rect3839"
       style="color:#bebebe;display:inline;overflow:visible;visibility:visible;fill:#353945;fill-opacity:1;fill-rule:nonzero;stroke:none;stroke-width:1;marker:none;enable-background:accumulate"
       inkscape:connector-curvature="0" />
  </g>
  <g
     transform="matrix(-0.53571429,0,0,-0.53571429,176.17868,8.516741)"
     style="display:inline"
     label="status"
     id="g4145" />
  <g
     transform="matrix(-0.53571429,0,0,-0.53571429,176.17868,8.516741)"
     style="display:inline"
     id="g4147" />
  <g
     transform="matrix(-0.53571429,0,0,-0.53571429,176.17868,8.516741)"
     style="display:inline"
     id="g4149" />
  <g
     transform="matrix(-0.53571429,0,0,-0.53571429,176.17868,8.516741)"
     id="g4151" />
  <g
     transform="matrix(-0.53571429,0,0,-0.53571429,176.17868,8.516741)"
     style="display:inline"
     id="g4153" />
  <g
     transform="matrix(-0.53571429,0,0,-0.53571429,176.17868,8.516741)"
     style="display:inline"
     id="g4155" />
  <g
     transform="matrix(-0.53571429,0,0,-0.53571429,183.67868,-5.4397323)"
     style="display:inline;fill:#353945;fill-opacity:1"
     id="g4157">
    <path
       inkscape:connector-curvature="0"
       style="color:#bebebe;display:inline;overflow:visible;visibility:visible;fill:#353945;fill-opacity:1;fill-rule:nonzero;stroke:none;stroke-width:1;marker:none;enable-background:accumulate"
       id="path4159"
       d="m 321.0002,-30.6875 -6,5.28125 0,-4.625 -2,0 0,11 2,0 0,-4.625 6,5.3125 0,-3.65625 6,0 0,-5 -6,0 0,-3.6875 z" />
  </g>
</svg>
