<?xml version="1.0" encoding="UTF-8" standalone="no"?>
<!-- Created with Inkscape (http://www.inkscape.org/) -->

<svg
   xmlns:dc="http://purl.org/dc/elements/1.1/"
   xmlns:cc="http://creativecommons.org/ns#"
   xmlns:rdf="http://www.w3.org/1999/02/22-rdf-syntax-ns#"
   xmlns:svg="http://www.w3.org/2000/svg"
   xmlns="http://www.w3.org/2000/svg"
   xmlns:sodipodi="http://sodipodi.sourceforge.net/DTD/sodipodi-0.dtd"
   xmlns:inkscape="http://www.inkscape.org/namespaces/inkscape"
   width="16"
   height="16"
   id="svg3128"
   sodipodi:version="0.32"
   inkscape:version="0.91 r"
   sodipodi:docname="draw-freehand.svg"
   inkscape:export-filename="/home/andreas/projekt/tango/22/draw-freehand.png"
   inkscape:export-xdpi="90.000000"
   inkscape:export-ydpi="90.000000"
   version="1.1">
  <defs
     id="defs3130" />
  <sodipodi:namedview
     id="base"
     pagecolor="#ffffff"
     bordercolor="#666666"
     borderopacity="1.0"
     inkscape:pageopacity="0.0"
     inkscape:pageshadow="2"
     inkscape:zoom="20.677414"
     inkscape:cx="-5.9609072"
     inkscape:cy="4.5873004"
     inkscape:current-layer="layer1"
     showgrid="false"
     inkscape:grid-bbox="true"
     inkscape:document-units="px"
     fill="#2e3436"
     inkscape:window-width="1280"
     inkscape:window-height="949"
     inkscape:window-x="75"
     inkscape:window-y="34"
     showguides="true"
     inkscape:guide-bbox="true"
     inkscape:window-maximized="0">
    <sodipodi:guide
       position="8.4974819,26.320122"
       orientation="0,1"
       id="guide5403" />
  </sodipodi:namedview>
  <metadata
     id="metadata3133">
    <rdf:RDF>
      <cc:Work
         rdf:about="">
        <dc:format>image/svg+xml</dc:format>
        <dc:type
           rdf:resource="http://purl.org/dc/dcmitype/StillImage" />
        <dc:title></dc:title>
        <dc:creator>
          <cc:Agent>
            <dc:title>Andreas Nilsson</dc:title>
          </cc:Agent>
        </dc:creator>
        <dc:contributor>
          <cc:Agent>
            <dc:title>Jakub Steiner</dc:title>
          </cc:Agent>
        </dc:contributor>
        <cc:license
           rdf:resource="http://creativecommons.org/licenses/by-sa/2.0/" />
        <dc:source>http://tango-project.org</dc:source>
      </cc:Work>
      <cc:License
         rdf:about="http://creativecommons.org/licenses/by-sa/2.0/">
        <cc:permits
           rdf:resource="http://web.resource.org/cc/Reproduction" />
        <cc:permits
           rdf:resource="http://web.resource.org/cc/Distribution" />
        <cc:requires
           rdf:resource="http://web.resource.org/cc/Notice" />
        <cc:requires
           rdf:resource="http://web.resource.org/cc/Attribution" />
        <cc:permits
           rdf:resource="http://web.resource.org/cc/DerivativeWorks" />
        <cc:requires
           rdf:resource="http://web.resource.org/cc/ShareAlike" />
      </cc:License>
    </rdf:RDF>
  </metadata>
  <g
     id="layer1"
     inkscape:label="Layer 1"
     inkscape:groupmode="layer"
     transform="translate(0,-6)">
    <path
       style="fill:#353945;fill-opacity:1"
       d="m 10.127241,21.271903 c -1.2513454,-0.65248 -1.2034542,-1.678773 0.234137,-5.017454 0.508604,-1.181195 0.899516,-2.222876 0.868692,-2.314854 -0.03083,-0.09198 -1.047176,0.856009 -2.2585603,2.106627 C 7.7601256,17.296847 6.5098849,18.452277 6.1931982,18.613841 5.3542263,19.041859 4.6278793,19.00097 4.2367318,18.503693 3.6200252,17.719663 3.889903,16.725047 5.8345415,12.615075 7.1729276,9.7864088 7.7353258,8.2617158 7.4013564,8.3673451 7.2986992,8.3998133 6.6798798,9.1808512 6.0262012,10.102984 4.0292664,12.920024 3.6266666,13.398845 3.0536834,13.638258 2.5671727,13.841543 2.4711917,13.839545 2.1348742,13.619168 1.6684377,13.313536 1.435269,12.73039 1.5636206,12.190486 1.6173469,11.964485 2.0313361,11.068418 2.4835945,10.199224 3.3215334,8.5887956 3.4549106,8.0031901 3.0924999,7.5257638 2.7799036,7.1139606 2.3277422,7.2041795 1.7562173,7.7923903 1.1893143,8.3758563 0.7,8.4970659 0.7,8.0540422 0.7,7.7589724 1.476943,6.9469492 2.0311861,6.6627509 2.5603949,6.39139 3.0749304,6.4605776 3.507231,6.8612283 4.3358784,7.6292086 4.2537667,8.5243734 3.1545044,10.706556 c -0.4247058,0.843097 -0.7713261,1.649549 -0.7702686,1.792115 0.00642,0.864065 0.8302783,0.03315 2.529588,-2.5512195 C 6.3303301,7.7931799 6.979309,7.104229 7.5920856,7.104229 c 0.4827232,0 0.8486173,0.2825257 1.005319,0.776259 0.1582522,0.4986186 -0.2076031,1.7543826 -1.1136345,3.822456 -1.2181684,2.780537 -2.1519398,5.070069 -2.27515,5.578481 l -0.1074181,0.44325 0.500213,-0.289963 c 0.2751166,-0.159478 1.1623069,-1.014253 1.9715337,-1.899506 2.4144733,-2.641309 3.1897933,-3.348328 3.7966423,-3.462176 0.74608,-0.139969 1.24639,0.121595 1.406414,0.735278 0.191589,0.734735 -0.01064,1.565796 -0.960865,3.948669 -0.466113,1.168868 -0.89001,2.337873 -0.941992,2.597789 -0.08521,0.426068 -0.05718,0.472568 0.284867,0.472568 0.426378,0 1.312304,-0.605372 2.103286,-1.437225 0.29054,-0.30555 0.675146,-0.555546 0.854681,-0.555546 0.374424,0 0.993018,0.592685 0.993018,0.95143 0,0.34618 -1.730071,1.900493 -2.613928,2.348387 -0.857228,0.4344 -1.704132,0.483586 -2.367831,0.137523 z"
       id="path5392"
       inkscape:connector-curvature="0" />
  </g>
</svg>
