<?xml version="1.0" encoding="UTF-8" standalone="no"?>
<!-- Created with Inkscape (http://www.inkscape.org/) -->

<svg
   xmlns:dc="http://purl.org/dc/elements/1.1/"
   xmlns:cc="http://creativecommons.org/ns#"
   xmlns:rdf="http://www.w3.org/1999/02/22-rdf-syntax-ns#"
   xmlns:svg="http://www.w3.org/2000/svg"
   xmlns="http://www.w3.org/2000/svg"
   xmlns:xlink="http://www.w3.org/1999/xlink"
   xmlns:sodipodi="http://sodipodi.sourceforge.net/DTD/sodipodi-0.dtd"
   xmlns:inkscape="http://www.inkscape.org/namespaces/inkscape"
   width="16"
   height="16"
   id="svg4908"
   sodipodi:version="0.32"
   inkscape:version="0.91 r"
   version="1.0"
   sodipodi:docname="plugin-matecompat.svg"
   inkscape:output_extension="org.inkscape.output.svg.inkscape"
   inkscape:export-xdpi="90"
   inkscape:export-ydpi="90">
  <defs
     id="defs4910">
    <linearGradient
       inkscape:collect="always"
       id="linearGradient5671">
      <stop
         style="stop-color:#729fcf;stop-opacity:1;"
         offset="0"
         id="stop5673" />
      <stop
         style="stop-color:#3465a4;stop-opacity:1"
         offset="1"
         id="stop5675" />
    </linearGradient>
    <linearGradient
       inkscape:collect="always"
       xlink:href="#linearGradient5671"
       id="linearGradient5677"
       x1="10.915961"
       y1="14.010388"
       x2="10.915961"
       y2="18.908218"
       gradientUnits="userSpaceOnUse"
       gradientTransform="matrix(2.3340955,0,0,2.0797356,-1.8209963,2.8226078)" />
    <linearGradient
       inkscape:collect="always"
       xlink:href="#linearGradient5671"
       id="linearGradient3022"
       gradientUnits="userSpaceOnUse"
       gradientTransform="matrix(2.3340955,0,0,2.0797356,-1.8209963,2.8226078)"
       x1="10.915961"
       y1="14.010388"
       x2="10.915961"
       y2="18.908218" />
  </defs>
  <sodipodi:namedview
     id="base"
     pagecolor="#ffffff"
     bordercolor="#666666"
     borderopacity="1.0"
     inkscape:pageopacity="0.0"
     inkscape:pageshadow="2"
     inkscape:zoom="8"
     inkscape:cx="6.4184543"
     inkscape:cy="33.475858"
     inkscape:current-layer="layer1"
     showgrid="true"
     inkscape:grid-bbox="true"
     inkscape:document-units="px"
     width="48px"
     height="48px"
     inkscape:window-width="1278"
     inkscape:window-height="948"
     inkscape:window-x="75"
     inkscape:window-y="34"
     inkscape:window-maximized="0">
    <inkscape:grid
       type="xygrid"
       id="grid5068" />
  </sodipodi:namedview>
  <metadata
     id="metadata4913">
    <rdf:RDF>
      <cc:Work
         rdf:about="">
        <dc:format>image/svg+xml</dc:format>
        <dc:type
           rdf:resource="http://purl.org/dc/dcmitype/StillImage" />
        <dc:title></dc:title>
      </cc:Work>
    </rdf:RDF>
  </metadata>
  <g
     id="layer1"
     inkscape:label="Layer 1"
     inkscape:groupmode="layer"
     transform="translate(0,-32)">
    <path
       inkscape:connector-curvature="0"
       style="fill:#87a556;fill-opacity:1;fill-rule:evenodd;stroke:none;stroke-width:0.99999988px;stroke-linecap:butt;stroke-linejoin:miter;stroke-opacity:1"
       d="M 0.505924,35.562736 8.2398835,40.127201 0.5,44.695164 0.5059,35.562736 Z"
       id="path5070" />
    <path
       inkscape:connector-curvature="0"
       style="fill:#87a556;fill-opacity:1;stroke:none;stroke-width:1;stroke-linecap:round;stroke-linejoin:round;stroke-miterlimit:4;stroke-dasharray:none;stroke-dashoffset:0;stroke-opacity:1"
       d="m 15.5,40.172704 c 0,-4.044668 -3.277625,-7.327296 -7.3161263,-7.327296 -2.3319431,0 -4.4011926,1.099861 -5.7412045,2.803584 l 0.915912,0.580823 c 1.1432376,-1.39925 2.8899917,-2.28978 4.8364621,-2.28978 3.4404337,0 6.2326697,2.792235 6.2326697,6.232669 0,3.440434 -2.792236,6.232669 -6.2326697,6.232669 -1.9408574,0 -3.6819287,-0.886306 -4.8252925,-2.27861 l -0.915912,0.580822 C 3.7941689,46.404256 5.8575623,47.5 8.1838737,47.5 12.222375,47.5 15.5,44.217372 15.5,40.172704 Z"
       id="path5067" />
    <path
       inkscape:connector-curvature="0"
       style="fill:#87a556;fill-opacity:1;stroke:none;stroke-width:1;stroke-linecap:round;stroke-linejoin:round;stroke-miterlimit:4;stroke-dasharray:none;stroke-dashoffset:0;stroke-opacity:1"
       d="m 12.662907,40.183874 c 0,-2.472427 -2.006607,-4.479033 -4.4790333,-4.479033 -1.3163223,0 -2.4976597,0.569365 -3.3173886,1.474395 l 0.949421,0.591991 c 0.6106682,-0.603121 1.4455185,-0.97176 2.3679676,-0.97176 1.8681923,0 3.3844063,1.526222 3.3844063,3.406746 0,1.880524 -1.516214,3.406746 -3.3844063,3.406746 -0.9396435,0 -1.7880565,-0.382183 -2.4014766,-1.005269 l -0.915912,0.580822 c 0.8197289,0.90503 2.0010663,1.474395 3.3173886,1.474395 2.4724263,0 4.4790333,-2.006607 4.4790333,-4.479033 z"
       id="path5648" />
  </g>
</svg>
