<?xml version="1.0" encoding="UTF-8" standalone="no"?>
<!-- Created with Inkscape (http://www.inkscape.org/) -->

<svg
   xmlns:dc="http://purl.org/dc/elements/1.1/"
   xmlns:cc="http://creativecommons.org/ns#"
   xmlns:rdf="http://www.w3.org/1999/02/22-rdf-syntax-ns#"
   xmlns:svg="http://www.w3.org/2000/svg"
   xmlns="http://www.w3.org/2000/svg"
   xmlns:xlink="http://www.w3.org/1999/xlink"
   xmlns:sodipodi="http://sodipodi.sourceforge.net/DTD/sodipodi-0.dtd"
   xmlns:inkscape="http://www.inkscape.org/namespaces/inkscape"
   version="1.0"
   width="16"
   height="16"
   id="svg3783"
   inkscape:version="0.91 r"
   sodipodi:docname="application-vnd.openofficeorg.extension.svg">
  <sodipodi:namedview
     pagecolor="#ffffff"
     bordercolor="#666666"
     borderopacity="1"
     objecttolerance="10"
     gridtolerance="10"
     guidetolerance="10"
     inkscape:pageopacity="0"
     inkscape:pageshadow="2"
     inkscape:window-width="1257"
     inkscape:window-height="883"
     id="namedview26"
     showgrid="false"
     inkscape:zoom="14.75"
     inkscape:cx="8"
     inkscape:cy="8"
     inkscape:window-x="75"
     inkscape:window-y="34"
     inkscape:window-maximized="0"
     inkscape:current-layer="svg3783" />
  <metadata
     id="metadata43">
    <rdf:RDF>
      <cc:Work
         rdf:about="">
        <dc:format>image/svg+xml</dc:format>
        <dc:type
           rdf:resource="http://purl.org/dc/dcmitype/StillImage" />
        <dc:title />
      </cc:Work>
    </rdf:RDF>
  </metadata>
  <defs
     id="defs3785">
    <linearGradient
       id="linearGradient3702">
      <stop
         id="stop3704"
         style="stop-color:#000000;stop-opacity:0"
         offset="0" />
      <stop
         id="stop3710"
         style="stop-color:#000000;stop-opacity:1"
         offset="0.5" />
      <stop
         id="stop3706"
         style="stop-color:#000000;stop-opacity:0"
         offset="1" />
    </linearGradient>
    <linearGradient
       id="linearGradient3688">
      <stop
         id="stop3690"
         style="stop-color:#000000;stop-opacity:1"
         offset="0" />
      <stop
         id="stop3692"
         style="stop-color:#000000;stop-opacity:0"
         offset="1" />
    </linearGradient>
    <linearGradient
       id="linearGradient2490">
      <stop
         id="stop2492"
         style="stop-color:#455f0e;stop-opacity:1"
         offset="0" />
      <stop
         id="stop2494"
         style="stop-color:#84a718;stop-opacity:1"
         offset="1" />
    </linearGradient>
    <linearGradient
       id="linearGradient3242">
      <stop
         id="stop3244"
         style="stop-color:#eef87e;stop-opacity:1"
         offset="0" />
      <stop
         id="stop3246"
         style="stop-color:#cde34f;stop-opacity:1"
         offset="0.26238" />
      <stop
         id="stop3248"
         style="stop-color:#93b723;stop-opacity:1"
         offset="0.66093999" />
      <stop
         id="stop3250"
         style="stop-color:#5a7e0d;stop-opacity:1"
         offset="1" />
    </linearGradient>
    <linearGradient
       id="linearGradient4222">
      <stop
         id="stop4224"
         style="stop-color:#ffffff;stop-opacity:1"
         offset="0" />
      <stop
         id="stop4226"
         style="stop-color:#ffffff;stop-opacity:0"
         offset="1" />
    </linearGradient>
    <radialGradient
       cx="7.4404225"
       cy="15.377086"
       r="19.99999"
       fx="7.4404225"
       fy="15.377086"
       id="radialGradient2492"
       xlink:href="#linearGradient3242"
       gradientUnits="userSpaceOnUse"
       gradientTransform="matrix(0,0.79916167,-1.1527969,-2.6393699e-8,20.904779,-2.641053)" />
    <linearGradient
       x1="24"
       y1="44"
       x2="24"
       y2="3.8990016"
       id="linearGradient2494"
       xlink:href="#linearGradient2490"
       gradientUnits="userSpaceOnUse"
       gradientTransform="matrix(0.29352229,0,0,0.29352229,-0.82084874,2.7317815)" />
  </defs>
  <path
     d="m 6.4999999,0.50000009 c -0.980526,0 -2,0.79578941 -2,1.77631571 0,0.612829 0.527473,1.2043637 1,1.523684 l 0,0.7524572 -4.2105262,0 C 0.85210531,4.552457 0.5,4.9045623 0.5,5.3419307 l 0,3.3365233 C 0.82553991,8.2699483 1.319013,8 1.8815789,8 c 0.9805263,0 1.7763158,0.7957895 1.7763158,1.7763158 0,0.9805262 -0.7957895,1.7763162 -1.7763158,1.7763162 -0.5625659,0 -1.05603899,-0.269948 -1.3815789,-0.678454 l 0,3.836348 C 0.5,15.147895 0.85210531,15.5 1.2894737,15.5 l 3.7105262,0 c -0.408505,-0.32554 -0.776316,-0.819013 -0.776316,-1.381579 0,-0.980526 0.79579,-1.776315 1.776316,-1.776315 0.980527,0 1.776316,0.795789 1.776316,1.776315 0,0.562566 -0.36781,1.056039 -0.776316,1.381579 l 3.7052631,0 C 11.142631,15.5 11.5,15.147895 11.5,14.710526 l 0,-4.223684 0.755757,0 c 0.31932,0.472528 0.215751,1.054122 1.744243,1.054122 0.980527,0 1.5,-0.855619 1.5,-2.0409643 0,-1.1853455 -0.519473,-1.9891565 -1.5,-1.9891565 -1.528492,0 -1.424923,0.5297868 -1.744243,1.0023144 l -0.755757,0 0,-3.1712269 C 11.5,4.9045623 11.142631,4.552457 10.705263,4.552457 l -3.2052631,0 0,-0.7524572 c 0.472528,-0.3193203 1,-0.910855 1,-1.523684 0,-0.9805263 -1.019473,-1.77631571 -2,-1.77631571 z"
     inkscape:connector-curvature="0"
     id="rect3558"
     style="fill:#5ca329;fill-opacity:1;stroke:none;stroke-width:1.00000012;stroke-linecap:round;stroke-linejoin:round;stroke-miterlimit:4;stroke-dasharray:none;stroke-dashoffset:0;stroke-opacity:1" />
</svg>
