<?xml version="1.0" encoding="UTF-8" standalone="no"?>
<!-- Created with Inkscape (http://www.inkscape.org/) -->

<svg
   xmlns:dc="http://purl.org/dc/elements/1.1/"
   xmlns:cc="http://creativecommons.org/ns#"
   xmlns:rdf="http://www.w3.org/1999/02/22-rdf-syntax-ns#"
   xmlns:svg="http://www.w3.org/2000/svg"
   xmlns="http://www.w3.org/2000/svg"
   xmlns:xlink="http://www.w3.org/1999/xlink"
   xmlns:sodipodi="http://sodipodi.sourceforge.net/DTD/sodipodi-0.dtd"
   xmlns:inkscape="http://www.inkscape.org/namespaces/inkscape"
   width="16"
   height="16"
   id="svg5460"
   version="1.1"
   inkscape:version="0.91 r"
   viewBox="0 0 16 16"
   sodipodi:docname="system-software-update-16.svg">
  <defs
     id="defs5462">
    <linearGradient
       inkscape:collect="always"
       id="linearGradient6028">
      <stop
         style="stop-color:#ffffff;stop-opacity:1;"
         offset="0"
         id="stop6030" />
      <stop
         id="stop6036"
         offset="0.22518581"
         style="stop-color:#ffffff;stop-opacity:0.23529412" />
      <stop
         style="stop-color:#ffffff;stop-opacity:0.15686275"
         offset="0.75916636"
         id="stop6038" />
      <stop
         style="stop-color:#ffffff;stop-opacity:0.39215687"
         offset="1"
         id="stop6032" />
    </linearGradient>
    <linearGradient
       inkscape:collect="always"
       id="linearGradient6015">
      <stop
         style="stop-color:#f5aa14;stop-opacity:1"
         offset="0"
         id="stop6017" />
      <stop
         style="stop-color:#f03200;stop-opacity:1"
         offset="1"
         id="stop6019" />
    </linearGradient>
    <linearGradient
       id="linearGradient4644-104-3-3-6-2-3-4">
      <stop
         offset="0"
         style="stop-color:#ff4035;stop-opacity:1;"
         id="stop5237-6-5-1-7-5-2" />
      <stop
         offset="1"
         style="stop-color:#dc311a;stop-opacity:1;"
         id="stop5239-4-6-4-8-4-8" />
    </linearGradient>
    <linearGradient
       inkscape:collect="always"
       xlink:href="#linearGradient6028"
       id="linearGradient4162"
       x1="8"
       y1="1"
       x2="8"
       y2="15"
       gradientUnits="userSpaceOnUse" />
    <linearGradient
       inkscape:collect="always"
       xlink:href="#linearGradient6015"
       id="linearGradient4150"
       x1="8"
       y1="-1"
       x2="8"
       y2="18"
       gradientUnits="userSpaceOnUse" />
  </defs>
  <sodipodi:namedview
     id="base"
     pagecolor="#ffffff"
     bordercolor="#666666"
     borderopacity="1.0"
     inkscape:pageopacity="0.0"
     inkscape:pageshadow="2"
     inkscape:zoom="10.658701"
     inkscape:cx="5.0251005"
     inkscape:cy="1.2723834"
     inkscape:current-layer="layer1"
     showgrid="true"
     inkscape:grid-bbox="true"
     inkscape:document-units="px"
     inkscape:window-width="1366"
     inkscape:window-height="713"
     inkscape:window-x="0"
     inkscape:window-y="30"
     inkscape:window-maximized="1">
    <inkscape:grid
       type="xygrid"
       id="grid4160" />
  </sodipodi:namedview>
  <metadata
     id="metadata5465">
    <rdf:RDF>
      <cc:Work
         rdf:about="">
        <dc:format>image/svg+xml</dc:format>
        <dc:type
           rdf:resource="http://purl.org/dc/dcmitype/StillImage" />
        <dc:title />
      </cc:Work>
    </rdf:RDF>
  </metadata>
  <g
     id="layer1"
     inkscape:label="Layer 1"
     inkscape:groupmode="layer">
    <circle
       style="opacity:1;fill:url(#linearGradient4150);fill-opacity:1;stroke:none;stroke-width:3;stroke-linejoin:round;stroke-miterlimit:4;stroke-dasharray:none;stroke-opacity:1"
       id="path6013"
       cx="8"
       cy="8"
       r="7.5" />
    <circle
       r="7.5"
       cy="8"
       cx="8"
       id="circle4150"
       style="opacity:0.60000005;fill:none;fill-opacity:1;stroke:#780f00;stroke-width:1;stroke-linejoin:round;stroke-miterlimit:4;stroke-dasharray:none;stroke-opacity:1" />
    <circle
       r="6.4999986"
       cy="8"
       cx="7.9999986"
       id="circle4152"
       style="opacity:0.40000001;fill:none;fill-opacity:1;stroke:url(#linearGradient4162);stroke-width:1;stroke-linejoin:round;stroke-miterlimit:4;stroke-dasharray:none;stroke-opacity:1" />
    <path
       inkscape:connector-curvature="0"
       style="opacity:0.07;fill:#000000;fill-opacity:1;stroke:#000000;stroke-width:1;stroke-linecap:round;stroke-linejoin:round;stroke-miterlimit:4;stroke-dasharray:none;stroke-opacity:1"
       d="M 8.0371094,4.0002138 A 5,4.9999997 0 0 0 6.0859375,4.3810732 5,4.9999997 0 0 0 3,9.0002135 l 0,3.0000005 3,-3.0000005 -1.5,0 A 3.4999998,3.4999995 0 0 1 6.6601562,5.7658387 3.4999998,3.4999995 0 0 1 10.474609,6.5256041 L 11.535156,5.4650576 A 5,4.9999997 0 0 0 8.0371094,4.0002138 Z M 13,6.0002135 l -3,3 1.5,0 A 3.4999998,3.4999995 0 0 1 9.3398438,12.234589 3.4999998,3.4999995 0 0 1 5.5253906,11.474823 L 4.4648438,12.53537 A 5,4.9999997 0 0 0 9.9140625,13.619355 5,4.9999997 0 0 0 13,9.0002135 l 0,-3 z"
       id="path4283" />
    <path
       id="path4281"
       d="M 8.0371094,4.0002138 A 5,4.9999997 0 0 0 6.0859375,4.3810732 5,4.9999997 0 0 0 3,9.0002135 l 0,3.0000005 3,-3.0000005 -1.5,0 A 3.4999998,3.4999995 0 0 1 6.6601562,5.7658387 3.4999998,3.4999995 0 0 1 10.474609,6.5256041 L 11.535156,5.4650576 A 5,4.9999997 0 0 0 8.0371094,4.0002138 Z M 13,6.0002135 l -3,3 1.5,0 A 3.4999998,3.4999995 0 0 1 9.3398438,12.234589 3.4999998,3.4999995 0 0 1 5.5253906,11.474823 L 4.4648438,12.53537 A 5,4.9999997 0 0 0 9.9140625,13.619355 5,4.9999997 0 0 0 13,9.0002135 l 0,-3 z"
       style="opacity:0.14999999;fill:#000000;fill-opacity:1;stroke:none;stroke-width:1;stroke-linecap:round;stroke-linejoin:round;stroke-miterlimit:4;stroke-dasharray:none;stroke-opacity:1"
       inkscape:connector-curvature="0" />
    <path
       style="opacity:1;fill:#f5f5f5;fill-opacity:1;stroke:none;stroke-width:1;stroke-linecap:round;stroke-linejoin:round;stroke-miterlimit:4;stroke-dasharray:none;stroke-opacity:1"
       d="M 8.0371094 3 A 5 5 0 0 0 6.0859375 3.3808594 A 5 5 0 0 0 3 8 L 3 11 L 6 8 L 4.5 8 A 3.4999998 3.4999998 0 0 1 6.6601562 4.765625 A 3.4999998 3.4999998 0 0 1 10.474609 5.5253906 L 11.535156 4.4648438 A 5 5 0 0 0 8.0371094 3 z M 13 5 L 10 8 L 11.5 8 A 3.4999998 3.4999998 0 0 1 9.3398438 11.234375 A 3.4999998 3.4999998 0 0 1 5.5253906 10.474609 L 4.4648438 11.535156 A 5 5 0 0 0 9.9140625 12.619141 A 5 5 0 0 0 13 8 L 13 5 z "
       id="rect4251" />
  </g>
</svg>
