<?xml version="1.0" encoding="UTF-8" standalone="no"?>
<svg
   xmlns:dc="http://purl.org/dc/elements/1.1/"
   xmlns:cc="http://creativecommons.org/ns#"
   xmlns:rdf="http://www.w3.org/1999/02/22-rdf-syntax-ns#"
   xmlns:svg="http://www.w3.org/2000/svg"
   xmlns="http://www.w3.org/2000/svg"
   xmlns:sodipodi="http://sodipodi.sourceforge.net/DTD/sodipodi-0.dtd"
   xmlns:inkscape="http://www.inkscape.org/namespaces/inkscape"
   height="22"
   width="22"
   version="1.1"
   viewBox="0 0 24 24"
   id="svg2"
   inkscape:version="0.91 r13725"
   sodipodi:docname="clipit-trayicon.svg">
  <metadata
     id="metadata16">
    <rdf:RDF>
      <cc:Work
         rdf:about="">
        <dc:format>image/svg+xml</dc:format>
        <dc:type
           rdf:resource="http://purl.org/dc/dcmitype/StillImage" />
      </cc:Work>
    </rdf:RDF>
  </metadata>
  <defs
     id="defs14" />
  <sodipodi:namedview
     pagecolor="#c4c4c4"
     bordercolor="#666666"
     borderopacity="1"
     objecttolerance="10"
     gridtolerance="10"
     guidetolerance="10"
     inkscape:pageopacity="0"
     inkscape:pageshadow="2"
     inkscape:window-width="1600"
     inkscape:window-height="814"
     id="namedview12"
     showgrid="false"
     inkscape:zoom="9.8333333"
     inkscape:cx="-21.050847"
     inkscape:cy="12"
     inkscape:window-x="0"
     inkscape:window-y="24"
     inkscape:window-maximized="1"
     inkscape:current-layer="svg2" />
  <path
     style="fill:#ffffff;fill-opacity:1"
     inkscape:connector-curvature="0"
     id="path6-2"
     d="m 6.5454542,6.5454542 0,1.0909091 0,1.0909091 0,9.8181816 4.3636368,0 1.090909,0 1.090909,0 0,-4.363636 4.363636,0 0,-1.090909 0,-1.090909 0,-3.2727276 0,-1.0909091 0,-1.0909091 -1.193454,0 c -0.230182,0.6278182 -0.836728,1.0909091 -1.533819,1.0909091 l -0.545454,0 -4.3636365,0 -0.5454546,0 c -0.6968727,0 -1.3035272,-0.4630909 -1.5340363,-1.0909091 l -1.1932364,0 z m 2.4545455,3.2727273 6.0000003,0 c 0.150545,0 0.272727,0.1221818 0.272727,0.2727275 l 0,0.545454 c 0,0.150546 -0.122182,0.272728 -0.272727,0.272728 l -6.0000003,0 c -0.1510909,0 -0.2727273,-0.122182 -0.2727273,-0.272728 l 0,-0.545454 c 0,-0.1505457 0.1216364,-0.2727275 0.2727273,-0.2727275 z M 8.9999997,12 15,12 c 0.150545,0 0.272727,0.122182 0.272727,0.272727 l 0,0.545455 c 0,0.150545 -0.122182,0.272727 -0.272727,0.272727 l -1.909091,0 -1.090909,0 -1.090909,0 -1.9090913,0 c -0.1510909,0 -0.2727273,-0.122182 -0.2727273,-0.272727 l 0,-0.545455 C 8.7272724,12.122182 8.8489088,12 8.9999997,12 Z m 0,2.181818 0.8181818,0 0.2727275,0 0.818182,0 0.818181,0 C 11.877818,14.181818 12,14.304 12,14.454545 L 12,15 c 0,0.150545 -0.122182,0.272727 -0.272728,0.272727 l -0.818181,0 -0.818182,0 -0.2727275,0 -0.8181818,0 C 8.8489088,15.272727 8.7272724,15.150545 8.7272724,15 l 0,-0.545455 c 0,-0.150545 0.1216364,-0.272727 0.2727273,-0.272727 z" />
  <path
     inkscape:connector-curvature="0"
     id="path8-3"
     d="m 5.9999996,4.363636 c -0.8971636,0 -1.6363636,0.7393091 -1.6363636,1.6363636 l 0,13.0909094 c 0,0.896727 0.7392,1.636364 1.6363636,1.636364 l 12.0000004,0 c 0.896727,0 1.636363,-0.739637 1.636363,-1.636364 l 0,-13.0909094 C 19.636363,5.1029451 18.896727,4.363636 18,4.363636 l -1.755273,0 c 0.072,0.1665818 0.118909,0.3474545 0.118909,0.5454545 l 0,0.5454546 1.636364,0 c 0.312,0 0.545454,0.2338909 0.545454,0.5454545 l 0,8.1818184 -5.454545,5.454545 -7.0909094,0 c -0.3115636,0 -0.5454545,-0.233454 -0.5454545,-0.545454 l 0,-13.0909094 c 0,-0.3115636 0.2338909,-0.5454545 0.5454545,-0.5454545 l 1.6363637,0 0,-0.5454546 c 0,-0.198 0.0468,-0.3788727 0.1193455,-0.5454545 l -1.7557092,0 z"
     style="color:#000000;text-indent:0;text-decoration:none;text-decoration-line:none;text-decoration-style:solid;text-decoration-color:#000000;text-transform:none;block-progression:tb;white-space:normal;isolation:auto;mix-blend-mode:normal;solid-color:#000000;fill:#ffffff;fill-opacity:1;color-rendering:auto;image-rendering:auto;shape-rendering:auto" />
  <path
     style="fill:#ffffff;fill-opacity:1"
     inkscape:connector-curvature="0"
     id="path10-4"
     d="m 10.909091,3.2727269 0,0.5454545 0,0.5454546 -1.0909095,0 -0.5454546,0 c -0.3021818,0 -0.5454545,0.2432727 -0.5454545,0.5454545 l 0,1.0909091 c 0,0.3021819 0.2432727,0.5454546 0.5454545,0.5454546 l 5.4545451,0 c 0.302182,0 0.545455,-0.2432727 0.545455,-0.5454546 l 0,-1.0909091 c 0,-0.3021818 -0.243273,-0.5454545 -0.545455,-0.5454545 l -0.545454,0 -1.090909,0 0,-0.5454546 0,-0.5454545 -0.545455,0 -1.090909,0 -0.545454,0 z" />
</svg>
