<?xml version="1.0" encoding="UTF-8" standalone="no"?>
<!-- Created with Inkscape (http://www.inkscape.org/) -->

<svg
   xmlns:dc="http://purl.org/dc/elements/1.1/"
   xmlns:cc="http://creativecommons.org/ns#"
   xmlns:rdf="http://www.w3.org/1999/02/22-rdf-syntax-ns#"
   xmlns:svg="http://www.w3.org/2000/svg"
   xmlns="http://www.w3.org/2000/svg"
   xmlns:sodipodi="http://sodipodi.sourceforge.net/DTD/sodipodi-0.dtd"
   xmlns:inkscape="http://www.inkscape.org/namespaces/inkscape"
   version="1.1"
   width="22"
   height="22"
   id="svg3815"
   inkscape:version="0.91 r13725"
   sodipodi:docname="gpm-keyboard-020.svg">
  <sodipodi:namedview
     pagecolor="#797979"
     bordercolor="#666666"
     borderopacity="1"
     objecttolerance="10"
     gridtolerance="10"
     guidetolerance="10"
     inkscape:pageopacity="0"
     inkscape:pageshadow="2"
     inkscape:window-width="1535"
     inkscape:window-height="876"
     id="namedview8"
     showgrid="false"
     inkscape:zoom="10.727273"
     inkscape:cx="-4.940678"
     inkscape:cy="11"
     inkscape:window-x="65"
     inkscape:window-y="24"
     inkscape:window-maximized="1"
     inkscape:current-layer="svg3815" />
  <defs
     id="defs13" />
  <metadata
     id="metadata3820">
    <rdf:RDF>
      <cc:Work
         rdf:about="">
        <dc:format>image/svg+xml</dc:format>
        <dc:type
           rdf:resource="http://purl.org/dc/dcmitype/StillImage" />
        <dc:title></dc:title>
      </cc:Work>
    </rdf:RDF>
  </metadata>
  <path
     d="m 12.5,18.5 0,-12 c 0,-0.554 0.446,-1 1,-1 l 5,0 c 0.554,0 1,0.446 1,1 l 0,12 c 0,0.554 -0.446,1 -1,1 l -5,0 c -0.554,0 -1,-0.446 -1,-1 z M 14.503,5.382 c 7e-4,-0.32804 0.0015,-0.65608 0.0025,-0.98411 0.04076,-0.59782 0.6496,-0.97673 1.2122,-0.89747 0.53292,0.023433 1.1769,-0.12412 1.5549,0.3632 0.35076,0.43848 0.1914,1.0212 0.2278,1.5372"
     inkscape:connector-curvature="0"
     id="rect2442"
     style="fill:none;stroke:#ffffff;stroke-linecap:round" />
  <path
     d="M 3,5 C 2.446,5 2,5.446 2,6 l 0,13 c 0,0.554 0.446,1 1,1 l 5,0 c 0.554,0 1,-0.446 1,-1 L 9,6 C 9,5.446 8.554,5 8,5 L 3,5 Z M 3,8 4,8 4,9 3,9 3,8 Z M 5,8 6,8 6,9 5,9 5,8 Z m 2,1 1,0 0,7 -1,0 0,-7 z m -4,1 1,0 0,1 -1,0 0,-1 z m 2,0 1,0 0,1 -1,0 0,-1 z m -2,2 1,0 0,1 -1,0 0,-1 z m 2,0 1,0 0,1 -1,0 0,-1 z m -2,2 1,0 0,1 -1,0 0,-1 z m 2,0 1,0 0,1 -1,0 0,-1 z m -2,2 1,0 0,1 -1,0 0,-1 z m 2,0 1,0 0,1 -1,0 0,-1 z"
     inkscape:connector-curvature="0"
     id="rect2397"
     style="fill:#ffffff;fill-rule:evenodd" />
  <rect
     width="4"
     height="2"
     rx="0.5"
     ry="0.5"
     x="14"
     y="16"
     id="rect3728"
     style="fill:#d33636;fill-opacity:1;fill-rule:evenodd" />
</svg>
