<?xml version="1.0" encoding="UTF-8" standalone="no"?>
<svg
   xmlns:dc="http://purl.org/dc/elements/1.1/"
   xmlns:cc="http://creativecommons.org/ns#"
   xmlns:rdf="http://www.w3.org/1999/02/22-rdf-syntax-ns#"
   xmlns:svg="http://www.w3.org/2000/svg"
   xmlns="http://www.w3.org/2000/svg"
   xmlns:sodipodi="http://sodipodi.sourceforge.net/DTD/sodipodi-0.dtd"
   xmlns:inkscape="http://www.inkscape.org/namespaces/inkscape"
   height="22"
   width="22"
   version="1.1"
   viewBox="0 0 22 22"
   id="svg2"
   inkscape:version="0.91 r13725"
   sodipodi:docname="kazam-paused.svg">
  <metadata
     id="metadata18">
    <rdf:RDF>
      <cc:Work
         rdf:about="">
        <dc:format>image/svg+xml</dc:format>
        <dc:type
           rdf:resource="http://purl.org/dc/dcmitype/StillImage" />
        <dc:title></dc:title>
      </cc:Work>
    </rdf:RDF>
  </metadata>
  <defs
     id="defs16" />
  <sodipodi:namedview
     pagecolor="#ffffff"
     bordercolor="#666666"
     borderopacity="1"
     objecttolerance="10"
     gridtolerance="10"
     guidetolerance="10"
     inkscape:pageopacity="0"
     inkscape:pageshadow="2"
     inkscape:window-width="1600"
     inkscape:window-height="814"
     id="namedview14"
     showgrid="false"
     inkscape:zoom="9.8333333"
     inkscape:cx="-21.050847"
     inkscape:cy="12"
     inkscape:window-x="0"
     inkscape:window-y="24"
     inkscape:window-maximized="1"
     inkscape:current-layer="svg2" />
  <g
     transform="translate(-1,-1029.4)"
     id="g4"
     style="fill:#ffffff;fill-opacity:1">
    <path
       style="color:#000000;text-indent:0;text-decoration:none;text-decoration-line:none;text-decoration-style:solid;text-decoration-color:#000000;text-transform:none;block-progression:tb;white-space:normal;opacity:0.4;isolation:auto;mix-blend-mode:normal;solid-color:#000000;fill:#ffffff;fill-opacity:1;color-rendering:auto;image-rendering:auto;shape-rendering:auto"
       d="m 12,4 c -4.4124,0 -8,3.5877 -8,8 0,4.412 3.5876,8 8,8 l 0,-1 C 8.1281,19 5,15.872 5,12 5,8.1281 8.1281,5 12,5 c 3.872,0 7,3.1281 7,7 0,0.341 -0.031,0.672 -0.078,1 l 1.01,0 C 19.973,12.671 20,12.34 20,12 20,7.5877 16.412,4 12,4 Z m 6.318,11 C 18.221,15.204 18.116,15.403 18,15.596 l 0,1.679 c 0.381,-0.432 0.719,-0.902 1,-1.41 L 19,15 18.318,15 Z M 15,18.318 c -0.322,0.153 -0.654,0.286 -1,0.389 l 0,0.293 1,0 0,-0.682 z"
       transform="translate(0,1028.4)"
       id="path6"
       inkscape:connector-curvature="0" />
    <path
       d="m 12,6 2.887,5 1.67,-2.8926 A 6,6 0 0 0 12,6 Z M 10.906,6.1055 A 6,6 0 0 0 6.8047,9.0078 L 12.578,9.002 10.906,6.1055 Z M 17.191,9.0078 14.887,13 16,13 A 1.0001,1.0001 0 0 1 16.5,13.137 1.0001,1.0001 0 0 1 17,13 l 0.906,0 A 6,6 0 0 0 18,12 6,6 0 0 0 17.191,9.0078 Z M 9.6875,10.004 6.3477,10.008 A 6,6 0 0 0 6,12 6,6 0 0 0 6.8086,14.992 L 9.6875,10.004 Z M 9.6934,11.998 9.6914,12 10.846,14 12,14.004 12,14.002 10.846,13.996 9.6934,11.998 Z M 9.1133,13.002 7.4434,15.893 A 6,6 0 0 0 12,18 L 9.1133,13.002 Z m 2.3107,2 L 12,16 12,15.004 11.424,15.002 Z M 14,15.01 l 0,2.636 a 6,6 0 0 0 1,-0.464 l 0,-2.168 -1,-0.004 z"
       transform="translate(0,1028.4)"
       id="path8"
       style="opacity:0.4;fill:#ffffff;fill-opacity:1"
       inkscape:connector-curvature="0" />
    <path
       d="m 10.844,10 -1.1526,1.996 1.1546,2 L 12,14.002 12,14 a 1.0001,1.0001 0 0 1 1,-1 l 0.73,0 0.579,-1.002 -1.155,-1.998 -2.31,0 z"
       transform="translate(0,1028.4)"
       id="path10"
       style="opacity:0.4;fill:#ffffff;fill-opacity:1"
       inkscape:connector-curvature="0" />
    <path
       style="clip-rule:evenodd;fill:#ffffff;fill-opacity:1;fill-rule:evenodd;image-rendering:optimizeQuality;shape-rendering:geometricPrecision"
       d="m 13,1042.4 0,6 3,0 0,-6 -3,0 z m 4,0 0,6 3,0 0,-6 -3,0 z"
       id="path12"
       inkscape:connector-curvature="0" />
  </g>
</svg>
