<?xml version="1.0" encoding="UTF-8" standalone="no"?>
<!-- Created with Inkscape (http://www.inkscape.org/) -->

<svg
   xmlns:dc="http://purl.org/dc/elements/1.1/"
   xmlns:cc="http://creativecommons.org/ns#"
   xmlns:rdf="http://www.w3.org/1999/02/22-rdf-syntax-ns#"
   xmlns:svg="http://www.w3.org/2000/svg"
   xmlns="http://www.w3.org/2000/svg"
   xmlns:xlink="http://www.w3.org/1999/xlink"
   xmlns:sodipodi="http://sodipodi.sourceforge.net/DTD/sodipodi-0.dtd"
   xmlns:inkscape="http://www.inkscape.org/namespaces/inkscape"
   version="1.0"
   width="22"
   height="22"
   id="svg3167"
   inkscape:version="0.91 r13725"
   sodipodi:docname="nm-signal-0-secure.svg">
  <sodipodi:namedview
     pagecolor="#7d7d7d"
     bordercolor="#666666"
     borderopacity="1"
     objecttolerance="10"
     gridtolerance="10"
     guidetolerance="10"
     inkscape:pageopacity="0"
     inkscape:pageshadow="2"
     inkscape:window-width="1535"
     inkscape:window-height="876"
     id="namedview18"
     showgrid="false"
     inkscape:zoom="10.727273"
     inkscape:cx="-4.9406777"
     inkscape:cy="11"
     inkscape:window-x="65"
     inkscape:window-y="24"
     inkscape:window-maximized="1"
     inkscape:current-layer="svg3167" />
  <metadata
     id="metadata20">
    <rdf:RDF>
      <cc:Work
         rdf:about="">
        <dc:format>image/svg+xml</dc:format>
        <dc:type
           rdf:resource="http://purl.org/dc/dcmitype/StillImage" />
        <dc:title />
      </cc:Work>
    </rdf:RDF>
  </metadata>
  <defs
     id="defs3169">
    <linearGradient
       id="linearGradient3587-8-5-3-2">
      <stop
         id="stop3589-2-7-0-1"
         style="stop-color:#000000;stop-opacity:1"
         offset="0" />
      <stop
         id="stop3591-3-5-2-8"
         style="stop-color:#363636;stop-opacity:1"
         offset="1" />
    </linearGradient>
    <linearGradient
       x1="66.09668"
       y1="9.3638258"
       x2="66.09668"
       y2="27.363825"
       id="linearGradient2395"
       xlink:href="#linearGradient3678"
       gradientUnits="userSpaceOnUse"
       gradientTransform="translate(-52.096803,-7.363826)" />
    <linearGradient
       x1="14"
       y1="3"
       x2="14"
       y2="21"
       id="linearGradient2398"
       xlink:href="#linearGradient3678"
       gradientUnits="userSpaceOnUse"
       gradientTransform="translate(-1.0001235,-1)" />
    <linearGradient
       x1="66.09668"
       y1="9.3638258"
       x2="66.09668"
       y2="27.363825"
       id="linearGradient2393"
       xlink:href="#linearGradient3587-8-5-3-2"
       gradientUnits="userSpaceOnUse"
       gradientTransform="translate(-51.09668,-6.363826)" />
    <linearGradient
       id="linearGradient3678">
      <stop
         id="stop3680"
         style="stop-color:#ffffff;stop-opacity:1"
         offset="0" />
      <stop
         id="stop3682"
         style="stop-color:#e6e6e6;stop-opacity:1"
         offset="1" />
    </linearGradient>
    <linearGradient
       x1="159.68553"
       y1="14.403693"
       x2="159.68553"
       y2="38.279892"
       id="linearGradient2388"
       xlink:href="#linearGradient3678"
       gradientUnits="userSpaceOnUse"
       gradientTransform="matrix(-0.4100229,0,0,0.5447147,78.029995,-3.8459034)" />
    <linearGradient
       x1="66.09668"
       y1="9.3638258"
       x2="66.09668"
       y2="27.363825"
       id="linearGradient3629"
       xlink:href="#linearGradient3678"
       gradientUnits="userSpaceOnUse"
       gradientTransform="translate(-52.096803,-7.363826)" />
  </defs>
  <g
     id="g4151">
    <path
       style="color:#000000;display:inline;overflow:visible;visibility:visible;opacity:0.4;fill:#ffffff;fill-opacity:1;fill-rule:nonzero;stroke:none;stroke-width:1;marker:none;enable-background:accumulate"
       id="path4112-19-69-3-0-8-8"
       inkscape:connector-curvature="0"
       d="m 11,5.0355077 c -2.853422,0 -5.468321,1.09634 -7.5,2.9227766 l 1.2959168,1.459363 C 6.6076327,7.8291993 8.5135773,7.0355063 11,7.0355063 c 2.486423,0 4.334381,0.747499 6.23286,2.414286 L 18.5,7.9582843 C 16.468321,6.1318477 13.853421,5.0355077 11,5.0355077 Z m 0,3.9999986 c -1.847888,0 -3.5041267,0.736481 -4.8649357,1.8611557 l 1.3245282,1.41372 c 0.90637,-0.649172 2.3168195,-1.274876 3.4869315,-1.274876 1.198417,0 2.676027,0.639835 3.595257,1.318069 l 1.364636,-1.477654 C 14.545608,9.7512463 12.847888,9.0355063 11,9.0355063 Z m 0,3.9999997 c -0.883784,0 -1.758278,0.463138 -2.1184755,0.860829 L 11,16.2 13.139037,13.916897 C 12.77884,13.498644 11.883784,13.035506 11,13.035506 Z" />
    <path
       style="fill:#ffffff"
       id="rect2822"
       inkscape:connector-curvature="0"
       d="m 18,9.9998003 c -1.108,0 -2,0.9107597 -2,2.0311997 L 16,13 c -0.554,0 -1,0.446 -1,1 l 0,3 c 0,0.554 0.446,1 1,1 l 4,0 c 0.554,0 1,-0.446 1,-1 l 0,-3 c 0,-0.554 -0.446,-1 -1,-1 l 0,-0.96875 c 0,-1.12 -0.892,-2.031 -2,-2.031 z M 18,10.9998 c 0.554,0 1,0.44236 1,1 l 0,1 -2,0 0,-1 c 0,-0.55764 0.446,-1 1,-1 z" />
  </g>
</svg>
