<?xml version="1.0" encoding="UTF-8" standalone="no"?>
<svg
   xmlns:dc="http://purl.org/dc/elements/1.1/"
   xmlns:cc="http://creativecommons.org/ns#"
   xmlns:rdf="http://www.w3.org/1999/02/22-rdf-syntax-ns#"
   xmlns:svg="http://www.w3.org/2000/svg"
   xmlns="http://www.w3.org/2000/svg"
   xmlns:sodipodi="http://sodipodi.sourceforge.net/DTD/sodipodi-0.dtd"
   xmlns:inkscape="http://www.inkscape.org/namespaces/inkscape"
   height="22"
   width="22"
   version="1.1"
   viewBox="0 0 22 22"
   id="svg2"
   inkscape:version="0.91 r13725"
   sodipodi:docname="pidgin-tray-busy.svg">
  <metadata
     id="metadata14">
    <rdf:RDF>
      <cc:Work
         rdf:about="">
        <dc:format>image/svg+xml</dc:format>
        <dc:type
           rdf:resource="http://purl.org/dc/dcmitype/StillImage" />
        <dc:title></dc:title>
      </cc:Work>
    </rdf:RDF>
  </metadata>
  <defs
     id="defs12" />
  <sodipodi:namedview
     pagecolor="#ffffff"
     bordercolor="#666666"
     borderopacity="1"
     objecttolerance="10"
     gridtolerance="10"
     guidetolerance="10"
     inkscape:pageopacity="0"
     inkscape:pageshadow="2"
     inkscape:window-width="1600"
     inkscape:window-height="843"
     id="namedview10"
     showgrid="false"
     inkscape:zoom="1"
     inkscape:cx="11.689712"
     inkscape:cy="10.983051"
     inkscape:window-x="0"
     inkscape:window-y="0"
     inkscape:window-maximized="1"
     inkscape:current-layer="svg2"
     showguides="false" />
  <path
     style="color:#000000;font-style:normal;font-variant:normal;font-weight:normal;font-stretch:normal;font-size:medium;line-height:normal;font-family:sans-serif;text-indent:0;text-align:start;text-decoration:none;text-decoration-line:none;text-decoration-style:solid;text-decoration-color:#000000;letter-spacing:normal;word-spacing:normal;text-transform:none;direction:ltr;block-progression:tb;writing-mode:lr-tb;baseline-shift:baseline;text-anchor:start;white-space:normal;clip-rule:nonzero;display:inline;overflow:visible;visibility:visible;opacity:1;isolation:auto;mix-blend-mode:normal;color-interpolation:sRGB;color-interpolation-filters:linearRGB;solid-color:#000000;solid-opacity:1;fill:#ffffff;fill-opacity:1;fill-rule:nonzero;stroke:none;stroke-width:2;stroke-linecap:round;stroke-linejoin:round;stroke-miterlimit:4;stroke-dasharray:none;stroke-dashoffset:0;stroke-opacity:1;color-rendering:auto;image-rendering:auto;shape-rendering:auto;text-rendering:auto;enable-background:accumulate"
     d="M 11 2.9433594 C 6.6321695 2.9433594 3 6.2714969 3 10.443359 C 3 14.615222 6.6321695 17.943359 11 17.943359 A 1.0001 1.0001 0 0 0 11.001953 17.943359 C 11.614308 17.942059 12.215061 17.824888 12.810547 17.693359 C 14.038717 18.501853 15.474734 19.234414 17.177734 18.927734 A 1.0001 1.0001 0 0 0 17.726562 17.255859 C 17.14453 16.640262 16.836679 16.256812 16.818359 15.4375 C 18.149899 14.070205 18.998132 12.328759 19 10.445312 A 1.0001 1.0001 0 0 0 19 10.443359 C 19 6.2715439 15.36783 2.9433594 11 2.9433594 z M 6.9550781 9.0449219 L 15.046875 9.0449219 C 15.899538 9.0426719 16.324538 10.105788 15.716797 10.720703 C 15.533124 10.90576 15.284425 11.0065 15.027344 11 L 6.9746094 11 C 6.7175284 11.006506 6.4688292 10.905758 6.2851562 10.720703 C 5.6774153 10.105788 6.1024151 9.0426719 6.9550781 9.0449219 z "
     id="path4251" />
</svg>
