<?xml version="1.0" encoding="UTF-8" standalone="no"?>
<!-- Created with Inkscape (http://www.inkscape.org/) -->

<svg
   xmlns:dc="http://purl.org/dc/elements/1.1/"
   xmlns:cc="http://creativecommons.org/ns#"
   xmlns:rdf="http://www.w3.org/1999/02/22-rdf-syntax-ns#"
   xmlns:svg="http://www.w3.org/2000/svg"
   xmlns="http://www.w3.org/2000/svg"
   xmlns:sodipodi="http://sodipodi.sourceforge.net/DTD/sodipodi-0.dtd"
   xmlns:inkscape="http://www.inkscape.org/namespaces/inkscape"
   version="1.1"
   width="16"
   height="16"
   id="svg3808"
   inkscape:version="0.48.4 r9939"
   sodipodi:docname="drive-harddisk-symbolic.svg">
  <sodipodi:namedview
     pagecolor="#ffffff"
     bordercolor="#666666"
     borderopacity="1"
     objecttolerance="10"
     gridtolerance="10"
     guidetolerance="10"
     inkscape:pageopacity="0"
     inkscape:pageshadow="2"
     inkscape:window-width="640"
     inkscape:window-height="480"
     id="namedview7"
     showgrid="false"
     inkscape:zoom="14.75"
     inkscape:cx="8"
     inkscape:cy="8"
     inkscape:window-x="65"
     inkscape:window-y="24"
     inkscape:window-maximized="0"
     inkscape:current-layer="layer1" />
  <defs
     id="defs3810" />
  <metadata
     id="metadata3813">
    <rdf:RDF>
      <cc:Work
         rdf:about="">
        <dc:format>image/svg+xml</dc:format>
        <dc:type
           rdf:resource="http://purl.org/dc/dcmitype/StillImage" />
        <dc:title></dc:title>
      </cc:Work>
    </rdf:RDF>
  </metadata>
  <g
     id="layer1">
    <path
       d="M 2.21875,0 C 1.3476902,0 0.99350999,1.045648 0.99999999,1.3125 L 0,12.03125 c -0.0079469,0.113236 -0.01084733,0.245263 0,0.375 l 0,0.0625 c 0.01029663,0.08033 0.03491088,0.148462 0.0625,0.21875 L 0.5,15.125 C 0.5829421,15.440774 0.5278882,16.006374 0.99999999,16 L 14.53125,16 c 0.354071,0.0045 0.848543,0.05309 0.9375,-0.40625 L 16,12.875 c 0.009,-0.0901 0.0083,-0.214216 0,-0.3125 -0.0018,-0.02081 0.0028,-0.04188 0,-0.0625 L 15,1.375 C 15.026533,0.99692184 14.574285,0 13.5,0 z M 2,13 14.5,13 14.78125,13 14.4375,15 12,15 9.40625,15 2.21875,15 2.0625,13.5625 z"
       inkscape:connector-curvature="0"
       id="rect3308-5"
       style="color:#bebebe;fill:#bebebe;fill-opacity:1;fill-rule:nonzero;stroke:none;stroke-width:1;marker:none;visibility:visible;display:inline;overflow:visible;enable-background:accumulate"
       sodipodi:nodetypes="scccccccccccccssccccccccc" />
  </g>
</svg>
