<?xml version="1.0" encoding="UTF-8" standalone="no"?>
<!-- Created with Inkscape (http://www.inkscape.org/) -->

<svg
   xmlns:dc="http://purl.org/dc/elements/1.1/"
   xmlns:cc="http://creativecommons.org/ns#"
   xmlns:rdf="http://www.w3.org/1999/02/22-rdf-syntax-ns#"
   xmlns:svg="http://www.w3.org/2000/svg"
   xmlns="http://www.w3.org/2000/svg"
   xmlns:sodipodi="http://sodipodi.sourceforge.net/DTD/sodipodi-0.dtd"
   xmlns:inkscape="http://www.inkscape.org/namespaces/inkscape"
   id="svg2"
   version="1.1"
   inkscape:version="0.91 r"
   width="24"
   height="24"
   sodipodi:docname="grive-app-ind-con-1.svg">
  <metadata
     id="metadata8">
    <rdf:RDF>
      <cc:Work
         rdf:about="">
        <dc:format>image/svg+xml</dc:format>
        <dc:type
           rdf:resource="http://purl.org/dc/dcmitype/StillImage" />
        <dc:title></dc:title>
      </cc:Work>
    </rdf:RDF>
  </metadata>
  <defs
     id="defs6" />
  <sodipodi:namedview
     pagecolor="#7e7e7e"
     bordercolor="#666666"
     borderopacity="1"
     objecttolerance="10"
     gridtolerance="10"
     guidetolerance="10"
     inkscape:pageopacity="0"
     inkscape:pageshadow="2"
     inkscape:window-width="1600"
     inkscape:window-height="845"
     id="namedview4"
     showgrid="false"
     inkscape:zoom="14.06"
     inkscape:cx="-5.7763513"
     inkscape:cy="14.506805"
     inkscape:window-x="0"
     inkscape:window-y="30"
     inkscape:window-maximized="1"
     inkscape:current-layer="g4431"
     showguides="true"
     inkscape:guide-bbox="true" />
  <g
     id="g4431"
     transform="translate(0.01112805,-40.003561)">
    <path
       inkscape:connector-curvature="0"
       id="path4425"
       d="M 2.9888721,54.560393 C 4.9027178,51.076587 6.8584674,47.527474 8.4410092,44.696966 9.464882,46.338424 10.756062,48.672725 11.551584,50.084457 9.5507155,53.702136 8.1227512,56.256761 6.0746367,59.96843 5.0030172,58.11039 3.8707977,56.11315 2.9888721,54.560393 Z"
       style="fill:#ffffff;fill-opacity:1;stroke:none;stroke-width:0.03750969;stroke-miterlimit:3.5333333;stroke-dasharray:none;stroke-opacity:1"
       sodipodi:nodetypes="ccccc" />
    <path
       inkscape:connector-curvature="0"
       id="path4427"
       d="m 8.8692597,44.009289 c 2.2193243,-6.32e-4 3.8925563,-0.01551 6.2811243,0.0054 1.991908,3.532884 3.765276,6.669451 5.534744,9.812029 -2.10574,0 -4.21148,0 -6.317221,0 -1.786759,-3.296865 -3.642964,-6.536769 -5.4986473,-9.817422 z"
       style="fill:#ffffff;fill-opacity:1;stroke:none;stroke-width:0.03750969;stroke-miterlimit:3.5333333;stroke-dasharray:none;stroke-opacity:1;opacity:0.4"
       sodipodi:nodetypes="ccccc" />
    <path
       inkscape:connector-curvature="0"
       id="path4429"
       d="m 9.8809443,54.470603 c 3.9859187,-0.03998 7.8366767,-0.0052 11.1079277,-0.02109 -1.093882,2.001859 -2.021569,3.672087 -3.077453,5.53521 -3.73124,0.0063 -7.462478,0.01256 -11.1937175,0.01884 1.0831686,-1.934796 2.0487547,-3.607418 3.1632428,-5.532961 z"
       style="fill:#ffffff;fill-opacity:1;stroke:none;stroke-width:0.03750969;stroke-miterlimit:3.5333333;stroke-dasharray:none;stroke-opacity:1"
       sodipodi:nodetypes="ccccc" />
  </g>
</svg>
