<?xml version="1.0" encoding="UTF-8" standalone="no"?>
<!-- Created with Inkscape (http://www.inkscape.org/) -->

<svg
   xmlns:dc="http://purl.org/dc/elements/1.1/"
   xmlns:cc="http://creativecommons.org/ns#"
   xmlns:rdf="http://www.w3.org/1999/02/22-rdf-syntax-ns#"
   xmlns:svg="http://www.w3.org/2000/svg"
   xmlns="http://www.w3.org/2000/svg"
   xmlns:sodipodi="http://sodipodi.sourceforge.net/DTD/sodipodi-0.dtd"
   xmlns:inkscape="http://www.inkscape.org/namespaces/inkscape"
   id="svg2"
   version="1.1"
   inkscape:version="0.91 r"
   width="24"
   height="24"
   sodipodi:docname="grive-app-ind.svg">
  <metadata
     id="metadata8">
    <rdf:RDF>
      <cc:Work
         rdf:about="">
        <dc:format>image/svg+xml</dc:format>
        <dc:type
           rdf:resource="http://purl.org/dc/dcmitype/StillImage" />
        <dc:title></dc:title>
      </cc:Work>
    </rdf:RDF>
  </metadata>
  <defs
     id="defs6" />
  <sodipodi:namedview
     pagecolor="#7e7e7e"
     bordercolor="#666666"
     borderopacity="1"
     objecttolerance="10"
     gridtolerance="10"
     guidetolerance="10"
     inkscape:pageopacity="0"
     inkscape:pageshadow="2"
     inkscape:window-width="1600"
     inkscape:window-height="845"
     id="namedview4"
     showgrid="false"
     inkscape:zoom="14.06"
     inkscape:cx="-5.7763513"
     inkscape:cy="14.506805"
     inkscape:window-x="0"
     inkscape:window-y="30"
     inkscape:window-maximized="1"
     inkscape:current-layer="g4431"
     showguides="true"
     inkscape:guide-bbox="true" />
  <g
     id="g4431"
     transform="translate(0.01112805,-40.003561)">
    <g
       id="g4140"
       transform="matrix(1.0240007,0,0,1.052483,-0.28774106,-2.7292996)">
      <path
         sodipodi:nodetypes="ccccc"
         style="fill:#ffffff;fill-opacity:1;stroke:none;stroke-width:0.03750969;stroke-miterlimit:3.5333333;stroke-dasharray:none;stroke-opacity:1"
         d="m 3.1998154,54.432891 c 1.8689886,-3.310083 3.778899,-6.682216 5.3243489,-9.371578 0.9998751,1.559605 2.2607927,3.777504 3.0376687,5.118839 -1.9539718,3.43728 -3.3484673,5.864516 -5.3485777,9.3911 C 5.1667526,57.805864 4.0610702,55.908219 3.1998154,54.432891 Z"
         id="path4425"
         inkscape:connector-curvature="0" />
      <path
         sodipodi:nodetypes="ccccc"
         style="fill:#ffffff;fill-opacity:1;stroke:none;stroke-width:0.03750969;stroke-miterlimit:3.5333333;stroke-dasharray:none;stroke-opacity:1"
         d="m 8.9423774,44.407927 c 2.1673076,-6e-4 3.8013216,-0.01474 6.1339066,0.0051 1.945221,3.356713 3.677025,6.336873 5.405019,9.322743 -2.056385,0 -4.11277,0 -6.169156,0 -1.744881,-3.132464 -3.55758,-6.210807 -5.3697696,-9.327867 z"
         id="path4427"
         inkscape:connector-curvature="0" />
      <path
         sodipodi:nodetypes="ccccc"
         style="fill:#ffffff;fill-opacity:1;stroke:none;stroke-width:0.03750969;stroke-miterlimit:3.5333333;stroke-dasharray:none;stroke-opacity:1"
         d="m 9.93035,54.347579 c 3.892496,-0.03799 7.652999,-0.0049 10.847578,-0.02004 -1.068243,1.902035 -1.974187,3.488975 -3.005323,5.259192 -3.643786,0.006 -7.287571,0.01193 -10.9313572,0.0179 C 7.8990289,57.766315 8.8419835,56.1771 9.93035,54.347576 Z"
         id="path4429"
         inkscape:connector-curvature="0" />
    </g>
  </g>
</svg>
