<?xml version="1.0" encoding="UTF-8" standalone="no"?>
<!-- Created with Inkscape (http://www.inkscape.org/) -->

<svg
   xmlns:dc="http://purl.org/dc/elements/1.1/"
   xmlns:cc="http://creativecommons.org/ns#"
   xmlns:rdf="http://www.w3.org/1999/02/22-rdf-syntax-ns#"
   xmlns:svg="http://www.w3.org/2000/svg"
   xmlns="http://www.w3.org/2000/svg"
   xmlns:xlink="http://www.w3.org/1999/xlink"
   xmlns:sodipodi="http://sodipodi.sourceforge.net/DTD/sodipodi-0.dtd"
   xmlns:inkscape="http://www.inkscape.org/namespaces/inkscape"
   version="1.1"
   width="64"
   height="64"
   id="svg4161"
   inkscape:version="0.91 r"
   sodipodi:docname="atunes.svg">
  <sodipodi:namedview
     pagecolor="#ffffff"
     bordercolor="#666666"
     borderopacity="1"
     objecttolerance="10"
     gridtolerance="10"
     guidetolerance="10"
     inkscape:pageopacity="0"
     inkscape:pageshadow="2"
     inkscape:window-width="1855"
     inkscape:window-height="1056"
     id="namedview45"
     showgrid="true"
     inkscape:zoom="16.139131"
     inkscape:cx="32.000054"
     inkscape:cy="36.206895"
     inkscape:window-x="65"
     inkscape:window-y="24"
     inkscape:window-maximized="1"
     inkscape:current-layer="g4200">
    <inkscape:grid
       type="xygrid"
       id="grid4207" />
  </sodipodi:namedview>
  <defs
     id="defs4163">
    <linearGradient
       x1="20"
       y1="26.000008"
       x2="20"
       y2="13.000008"
       id="linearGradient4069"
       xlink:href="#linearGradient3680-6-6-6-3-7-1"
       gradientUnits="userSpaceOnUse"
       gradientTransform="matrix(1.326882,0,0,1.326882,-0.399219,-0.2324859)" />
    <linearGradient
       id="linearGradient3680-6-6-6-3-7-1">
      <stop
         id="stop3682-4-6-1-3-7-7"
         style="stop-color:#dcdcdc;stop-opacity:1"
         offset="0" />
      <stop
         id="stop3684-8-5-8-0-2-6"
         style="stop-color:#ffffff;stop-opacity:1"
         offset="1" />
    </linearGradient>
    <linearGradient
       x1="23.99999"
       y1="4.999989"
       x2="23.99999"
       y2="43"
       id="linearGradient3180"
       xlink:href="#linearGradient3924-2-2-5-8"
       gradientUnits="userSpaceOnUse"
       gradientTransform="matrix(1.4324324,0,0,1.4362832,-2.378381,-2.4707781)" />
    <linearGradient
       id="linearGradient3924-2-2-5-8">
      <stop
         id="stop3926-9-4-9-6"
         style="stop-color:#ffffff;stop-opacity:1"
         offset="0" />
      <stop
         id="stop3928-9-8-6-5"
         style="stop-color:#ffffff;stop-opacity:0.23529412"
         offset="0.06316455" />
      <stop
         id="stop3930-3-5-1-7"
         style="stop-color:#ffffff;stop-opacity:0.15686275"
         offset="0.95056331" />
      <stop
         id="stop3932-8-0-4-8"
         style="stop-color:#ffffff;stop-opacity:0.39215687"
         offset="1" />
    </linearGradient>
    <radialGradient
       cx="7.1183534"
       cy="9.9571075"
       r="12.671875"
       fx="7.1183534"
       fy="9.9571075"
       id="radialGradient3988-3"
       xlink:href="#linearGradient2867-449-88-871-390-598-476-591-434-148-57-177-8-3-3-6-4-8-8-8-5-7"
       gradientUnits="userSpaceOnUse"
       gradientTransform="matrix(0,12.890089,-15.824912,0,190.74237,-113.0978)" />
    <linearGradient
       id="linearGradient2867-449-88-871-390-598-476-591-434-148-57-177-8-3-3-6-4-8-8-8-5-7">
      <stop
         id="stop3750-1-0-7-6-6-1-3-9-3-9"
         style="stop-color:#505050;stop-opacity:1"
         offset="0" />
      <stop
         id="stop3752-3-7-4-0-32-8-923-0-7-0"
         style="stop-color:#2b2b2b;stop-opacity:1"
         offset="0.26238" />
      <stop
         id="stop3754-1-8-5-2-7-6-7-1-9-1"
         style="stop-color:#0a0a0a;stop-opacity:1"
         offset="0.704952" />
      <stop
         id="stop3756-1-6-2-6-6-1-96-6-0-1"
         style="stop-color:#000000;stop-opacity:1"
         offset="1" />
    </linearGradient>
    <radialGradient
       cx="4.9929786"
       cy="43.5"
       r="2.5"
       fx="4.9929786"
       fy="43.5"
       id="radialGradient3337-2-2"
       xlink:href="#linearGradient3688-166-749-4-0-3-8"
       gradientUnits="userSpaceOnUse"
       gradientTransform="matrix(2.003784,0,0,1.4,27.98813,-17.4)" />
    <linearGradient
       id="linearGradient3688-166-749-4-0-3-8">
      <stop
         id="stop2883-4-0-1-8"
         style="stop-color:#181818;stop-opacity:1"
         offset="0" />
      <stop
         id="stop2885-9-2-9-6"
         style="stop-color:#181818;stop-opacity:0"
         offset="1" />
    </linearGradient>
    <radialGradient
       cx="4.9929786"
       cy="43.5"
       r="2.5"
       fx="4.9929786"
       fy="43.5"
       id="radialGradient3339-1-4"
       xlink:href="#linearGradient3688-464-309-9-2-4-2"
       gradientUnits="userSpaceOnUse"
       gradientTransform="matrix(2.003784,0,0,1.4,-20.01187,-104.4)" />
    <linearGradient
       id="linearGradient3688-464-309-9-2-4-2">
      <stop
         id="stop2889-7-9-6-9"
         style="stop-color:#181818;stop-opacity:1"
         offset="0" />
      <stop
         id="stop2891-6-6-1-7"
         style="stop-color:#181818;stop-opacity:0"
         offset="1" />
    </linearGradient>
    <linearGradient
       id="linearGradient3702-501-757-8-4-1-1">
      <stop
         id="stop2895-8-9-9-1"
         style="stop-color:#181818;stop-opacity:0"
         offset="0" />
      <stop
         id="stop2897-7-8-7-7"
         style="stop-color:#181818;stop-opacity:1"
         offset="0.5" />
      <stop
         id="stop2899-4-5-1-5"
         style="stop-color:#181818;stop-opacity:0"
         offset="1" />
    </linearGradient>
    <linearGradient
       x1="25.058096"
       y1="47.027729"
       x2="25.058096"
       y2="39.999443"
       id="linearGradient4159"
       xlink:href="#linearGradient3702-501-757-8-4-1-1"
       gradientUnits="userSpaceOnUse" />
  </defs>
  <metadata
     id="metadata4166">
    <rdf:RDF>
      <cc:Work
         rdf:about="">
        <dc:format>image/svg+xml</dc:format>
        <dc:type
           rdf:resource="http://purl.org/dc/dcmitype/StillImage" />
        <dc:title />
      </cc:Work>
    </rdf:RDF>
  </metadata>
  <g
     id="layer1">
    <g
       transform="matrix(1.5789502,0,0,0.7142857,-5.894751,27.928572)"
       id="g3712-8-2-4-4"
       style="opacity:0.6">
      <rect
         width="5"
         height="7"
         x="38"
         y="40"
         id="rect2801-5-5-7-9"
         style="fill:url(#radialGradient3337-2-2);fill-opacity:1;stroke:none" />
      <rect
         width="5"
         height="7"
         x="-10"
         y="-47"
         transform="scale(-1,-1)"
         id="rect3696-3-0-3-7"
         style="fill:url(#radialGradient3339-1-4);fill-opacity:1;stroke:none" />
      <rect
         width="28"
         height="7.0000005"
         x="10"
         y="40"
         id="rect3700-5-6-8-4"
         style="fill:url(#linearGradient4159);fill-opacity:1;stroke:none" />
    </g>
    <rect
       width="55"
       height="55"
       rx="3"
       ry="3"
       x="4.5"
       y="4.5"
       id="rect5505-21-3-8-5-2"
       style="opacity:0.9;color:#000000;fill:url(#radialGradient3988-3);fill-opacity:1;fill-rule:nonzero;stroke:none;stroke-width:0.99999994;marker:none;visibility:visible;display:inline;overflow:visible;enable-background:accumulate" />
    <rect
       width="53"
       height="53.142479"
       rx="2"
       ry="2"
       x="5.4999986"
       y="5.4287739"
       id="rect6741-5-0-2-3"
       style="opacity:0.3;fill:none;stroke:url(#linearGradient3180);stroke-width:1;stroke-linecap:round;stroke-linejoin:round;stroke-miterlimit:4;stroke-opacity:1;stroke-dasharray:none;stroke-dashoffset:0" />
    <rect
       width="55"
       height="55"
       rx="3"
       ry="3"
       x="4.4999986"
       y="4.5000019"
       id="rect5505-21-3-8-9-1-1"
       style="opacity:0.7;color:#000000;fill:none;stroke:#000000;stroke-width:1;stroke-linecap:round;stroke-linejoin:round;stroke-miterlimit:4;stroke-opacity:1;stroke-dasharray:none;stroke-dashoffset:0;marker:none;visibility:visible;display:inline;overflow:visible;enable-background:accumulate" />
    <g
       id="g4194"
       transform="translate(0.01250531,-0.01252748)">
      <path
         inkscape:connector-curvature="0"
         id="path4290-16"
         d="m 11.136804,8.8631697 c -0.717594,-0.7174825 -1.8810616,-0.7174825 -2.5986186,0 -0.717568,0.7176051 -0.717593,1.8811133 0,2.5987183 0.717581,0.717483 1.8810496,0.717483 2.5986186,0 0.717567,-0.717605 0.717592,-1.8811132 0,-2.5987183 z m -0.649655,0.2165801 0.433098,0.4331599 -0.649655,0.6496183 0.649655,0.64962 -0.433098,0.43316 -0.6496546,-0.649617 -0.649654,0.649617 -0.433111,-0.43316 0.649654,-0.64962 -0.649654,-0.6496183 0.433111,-0.4331601 0.649654,0.6496176 0.6496546,-0.6496175 z"
         style="fill:#1a1a1a;fill-opacity:1;stroke:none;stroke-width:10.2221384" />
      <path
         inkscape:connector-curvature="0"
         id="path4290-4-7"
         d="m 55.436803,8.5631704 c -0.717588,-0.7174825 -1.881055,-0.7174825 -2.598621,0 -0.717563,0.7176051 -0.717588,1.8811126 0,2.5987176 0.717589,0.717483 1.881056,0.717483 2.598621,0 0.717566,-0.717605 0.71759,-1.8811125 0,-2.5987176 z m -0.649656,0.21658 0.433104,0.43316 -0.649654,0.6496176 0.649654,0.64962 -0.433104,0.43316 -0.649654,-0.649617 -0.649656,0.649617 -0.433102,-0.43316 0.649655,-0.64962 -0.649655,-0.6496177 0.433102,-0.4331601 0.649656,0.6496176 0.649654,-0.6496176 z"
         style="fill:#1a1a1a;fill-opacity:1;stroke:none;stroke-width:10.2221384" />
      <path
         style="fill:#1a1a1a;fill-opacity:1;stroke:none;stroke-width:10.2221384"
         d="m 11.136804,52.86317 c -0.717594,-0.717483 -1.8810616,-0.717483 -2.5986186,0 -0.717568,0.717605 -0.717593,1.881113 0,2.598718 0.717581,0.717483 1.8810496,0.717483 2.5986186,0 0.717567,-0.717605 0.717592,-1.881113 0,-2.598718 z m -0.649655,0.21658 0.433098,0.43316 -0.649655,0.649618 0.649655,0.64962 -0.433098,0.43316 -0.6496546,-0.649617 -0.649654,0.649617 -0.433111,-0.43316 0.649654,-0.64962 -0.649654,-0.649618 0.433111,-0.43316 0.649654,0.649617 0.6496546,-0.649617 z"
         id="path4209"
         inkscape:connector-curvature="0" />
      <path
         style="fill:#1a1a1a;fill-opacity:1;stroke:none;stroke-width:10.2221384"
         d="m 55.436803,52.56317 c -0.717588,-0.717482 -1.881055,-0.717482 -2.598621,0 -0.717563,0.717606 -0.717588,1.881113 0,2.598718 0.717589,0.717483 1.881056,0.717483 2.598621,0 0.717566,-0.717605 0.71759,-1.881112 0,-2.598718 z m -0.649656,0.21658 0.433104,0.43316 -0.649654,0.649618 0.649654,0.64962 -0.433104,0.43316 -0.649654,-0.649617 -0.649656,0.649617 -0.433102,-0.43316 0.649655,-0.64962 -0.649655,-0.649618 0.433102,-0.43316 0.649656,0.649618 0.649654,-0.649618 z"
         id="path4211"
         inkscape:connector-curvature="0" />
    </g>
    <g
       id="g4200"
       transform="translate(-0.3750205,-0.29996064)">
      <circle
         r="5.512507"
         cy="14.537464"
         cx="32.375031"
         id="path3790-5-75"
         style="fill:#1a1a1a;fill-opacity:1;stroke:none;stroke-width:20.57165718" />
      <circle
         r="3.0625038"
         id="path3755-4"
         style="fill:#333333;fill-opacity:1;stroke:none;stroke-width:9.03518009"
         cx="32.375031"
         cy="14.537464" />
      <path
         sodipodi:nodetypes="cscsc"
         inkscape:connector-curvature="0"
         id="path3790-6-46"
         d="m 35.437526,14.53747 c 0,-1.266895 -1.371131,-2.625064 -3.062504,-2.625064 -1.691375,0 -3.062508,1.261517 -3.062508,2.625064 0,-1.691358 1.371133,-3.062512 3.062508,-3.062512 1.691373,0 3.062504,1.371154 3.062504,3.062512 z"
         style="opacity:0.2;fill:#ffffff;fill-opacity:1;stroke:none;stroke-width:10.22213936" />
      <path
         sodipodi:nodetypes="cscsc"
         inkscape:connector-curvature="0"
         id="path3790-6-4-8"
         d="m 35.437526,14.53747 c 0,1.266895 -1.371131,2.625053 -3.062504,2.625053 -1.691375,0 -3.062508,-1.261505 -3.062508,-2.625053 0,1.691358 1.371133,3.062501 3.062508,3.062501 1.691373,0 3.062504,-1.371143 3.062504,-3.062501 z"
         style="opacity:0.2;fill:#000000;fill-opacity:1;stroke:none;stroke-width:10.22213936" />
      <circle
         r="15.312519"
         cy="41.15044"
         cx="32.375019"
         style="opacity:0.2;fill:#000000;fill-opacity:1;stroke:none;stroke-width:12.77767372"
         id="circle4233" />
      <circle
         id="path3753-7"
         style="fill:#ffc82d;fill-opacity:1;stroke:none;stroke-width:12.77767372"
         cx="32.375019"
         cy="39.649948"
         r="15.312519" />
      <path
         sodipodi:nodetypes="cscsc"
         inkscape:connector-curvature="0"
         id="path3753-4-8-0"
         d="m 47.075039,39.650008 c 0,-7.114689 -6.610836,-13.475013 -14.700017,-13.475013 -8.089184,0 -14.700019,6.439948 -14.700019,13.475013 0,-8.575012 6.610835,-14.700025 14.700019,-14.700025 8.089181,0 14.700017,6.125013 14.700017,14.700025 z"
         style="opacity:0.3;fill:#000000;fill-opacity:1;stroke:none;stroke-width:10.2221384" />
      <path
         sodipodi:nodetypes="cscsc"
         inkscape:connector-curvature="0"
         id="path3753-4-8-0-0"
         d="m 47.075039,39.650008 c 0,7.114678 -6.610836,13.475014 -14.700017,13.475014 -8.089184,0 -14.700019,-6.43996 -14.700019,-13.475014 0,8.575013 6.610835,14.700014 14.700019,14.700014 8.089181,0 14.700017,-6.125001 14.700017,-14.700014 z"
         style="opacity:0.3;fill:#ffffff;fill-opacity:1;stroke:none;stroke-width:10.2221384" />
      <circle
         r="15.312519"
         id="path3757-9"
         style="fill:none;stroke:#1a1a1a;stroke-width:1.22500145;stroke-miterlimit:4;stroke-dasharray:none;stroke-opacity:1"
         cx="32.375019"
         cy="39.649948" />
      <ellipse
         ry="4.9000058"
         rx="4.9000063"
         cy="39.649948"
         cx="32.375019"
         id="path3790-5-7-4"
         style="fill:#1a1a1a;fill-opacity:1;stroke:none;stroke-width:18.28591728" />
      <circle
         r="4.2875056"
         cy="39.649948"
         cx="32.375019"
         id="path3790-62"
         style="fill:#333333;fill-opacity:1;stroke:none;stroke-width:16.00017929" />
      <path
         sodipodi:nodetypes="cscsc"
         inkscape:connector-curvature="0"
         id="path3790-6"
         d="m 36.662524,39.649959 c 0,-1.773677 -1.91958,-3.675 -4.287504,-3.675 -2.367931,0 -4.287506,1.766083 -4.287506,3.675 0,-2.367924 1.919575,-4.287512 4.287506,-4.287512 2.367924,0 4.287504,1.919588 4.287504,4.287512 z"
         style="opacity:0.2;fill:#ffffff;fill-opacity:1;stroke:none;stroke-width:10.22213936" />
      <path
         sodipodi:nodetypes="cscsc"
         inkscape:connector-curvature="0"
         id="path3790-6-4"
         d="m 36.662524,39.649959 c 0,1.773679 -1.91958,3.675 -4.287504,3.675 -2.367931,0 -4.287506,-1.766082 -4.287506,-3.675 0,2.367926 1.919575,4.287501 4.287506,4.287501 2.367924,0 4.287504,-1.919575 4.287504,-4.287501 z"
         style="opacity:0.2;fill:#000000;fill-opacity:1;stroke:none;stroke-width:10.22213936" />
      <circle
         id="circle4235"
         style="opacity:0.2;fill:#000000;fill-opacity:1;stroke:none;stroke-width:12.77767372"
         cx="32.375019"
         cy="15.555716"
         r="5.1842451" />
      <circle
         r="5.1842451"
         cy="14.555659"
         cx="32.375019"
         style="fill:#ffc82d;fill-opacity:1;stroke:none;stroke-width:12.77767372"
         id="circle4186" />
      <path
         style="opacity:0.3;fill:#000000;fill-opacity:1;stroke:none;stroke-width:10.2221384"
         d="m 37.351895,14.555681 c 0,-2.408768 -2.238181,-4.5621351 -4.976875,-4.5621351 -2.738694,0 -4.976875,2.1803251 -4.976875,4.5621351 0,-2.903178 2.238181,-4.9768781 4.976875,-4.9768781 2.738694,0 4.976875,2.0737001 4.976875,4.9768781 z"
         id="path4188"
         inkscape:connector-curvature="0"
         sodipodi:nodetypes="cscsc" />
      <path
         style="opacity:0.3;fill:#ffffff;fill-opacity:1;stroke:none;stroke-width:10.2221384"
         d="m 37.351895,14.555681 c 0,2.408763 -2.238181,4.562134 -4.976875,4.562134 -2.738694,0 -4.976875,-2.180329 -4.976875,-4.562134 0,2.903178 2.238181,4.976874 4.976875,4.976874 2.738694,0 4.976875,-2.073696 4.976875,-4.976874 z"
         id="path4190"
         inkscape:connector-curvature="0"
         sodipodi:nodetypes="cscsc" />
      <circle
         r="5.1842451"
         cy="14.555659"
         cx="32.375019"
         style="fill:none;stroke:#1a1a1a;stroke-width:0.41473958;stroke-miterlimit:4;stroke-dasharray:none;stroke-opacity:1"
         id="circle4192" />
      <ellipse
         style="fill:#1a1a1a;fill-opacity:1;stroke:none;stroke-width:18.28591728"
         id="ellipse4194"
         cx="32.375019"
         cy="14.555659"
         rx="1.6589586"
         ry="1.6589583" />
      <circle
         r="1.4515887"
         style="fill:#333333;fill-opacity:1;stroke:none;stroke-width:16.00017929"
         id="circle4196"
         cx="32.375019"
         cy="14.555659" />
      <path
         style="opacity:0.2;fill:#ffffff;fill-opacity:1;stroke:none;stroke-width:10.22213936"
         d="m 33.826608,14.555664 c 0,-0.600501 -0.649898,-1.244217 -1.451588,-1.244217 -0.801693,0 -1.451589,0.597929 -1.451589,1.244217 0,-0.80169 0.649896,-1.451591 1.451589,-1.451591 0.80169,0 1.451588,0.649901 1.451588,1.451591 z"
         id="path4198"
         inkscape:connector-curvature="0"
         sodipodi:nodetypes="cscsc" />
      <path
         style="opacity:0.2;fill:#000000;fill-opacity:1;stroke:none;stroke-width:10.22213936"
         d="m 33.826608,14.555664 c 0,0.600501 -0.649898,1.244217 -1.451588,1.244217 -0.801693,0 -1.451589,-0.597929 -1.451589,-1.244217 0,0.801691 0.649896,1.451587 1.451589,1.451587 0.80169,0 1.451588,-0.649896 1.451588,-1.451587 z"
         id="path4200"
         inkscape:connector-curvature="0"
         sodipodi:nodetypes="cscsc" />
    </g>
  </g>
</svg>
