<?xml version="1.0" encoding="UTF-8" standalone="no"?>
<!-- Created with Inkscape (http://www.inkscape.org/) -->
<svg
   xmlns:dc="http://purl.org/dc/elements/1.1/"
   xmlns:cc="http://creativecommons.org/ns#"
   xmlns:rdf="http://www.w3.org/1999/02/22-rdf-syntax-ns#"
   xmlns:svg="http://www.w3.org/2000/svg"
   xmlns="http://www.w3.org/2000/svg"
   xmlns:xlink="http://www.w3.org/1999/xlink"
   xmlns:sodipodi="http://sodipodi.sourceforge.net/DTD/sodipodi-0.dtd"
   xmlns:inkscape="http://www.inkscape.org/namespaces/inkscape"
   width="64"
   height="64"
   id="svg2383"
   sodipodi:version="0.32"
   inkscape:version="0.46"
   sodipodi:docname="f-spot64.svg"
   inkscape:output_extension="org.inkscape.output.svg.inkscape"
   version="1.0">
  <defs
     id="defs2385">
    <inkscape:perspective
       sodipodi:type="inkscape:persp3d"
       inkscape:vp_x="0 : 32 : 1"
       inkscape:vp_y="0 : 1000 : 0"
       inkscape:vp_z="64 : 32 : 1"
       inkscape:persp3d-origin="32 : 21.333333 : 1"
       id="perspective3613" />
    <linearGradient
       id="linearGradient3393"
       inkscape:collect="always">
      <stop
         id="stop3395"
         offset="0"
         style="stop-color:#787878;stop-opacity:1" />
      <stop
         id="stop3397"
         offset="1"
         style="stop-color:#000000;stop-opacity:0;" />
    </linearGradient>
    <linearGradient
       inkscape:collect="always"
       id="linearGradient3700">
      <stop
         style="stop-color:#505050;stop-opacity:1"
         offset="0"
         id="stop3702" />
      <stop
         style="stop-color:#000000;stop-opacity:0;"
         offset="1"
         id="stop3704" />
    </linearGradient>
    <linearGradient
       inkscape:collect="always"
       id="linearGradient3634">
      <stop
         style="stop-color:#6e66a1;stop-opacity:1"
         offset="0"
         id="stop3636" />
      <stop
         style="stop-color:#bba4ce;stop-opacity:1"
         offset="1"
         id="stop3638" />
    </linearGradient>
    <linearGradient
       inkscape:collect="always"
       id="linearGradient3562">
      <stop
         style="stop-color:#dde0da;stop-opacity:1;"
         offset="0"
         id="stop3564" />
      <stop
         style="stop-color:#fefefe;stop-opacity:1"
         offset="1"
         id="stop3566" />
    </linearGradient>
    <linearGradient
       inkscape:collect="always"
       xlink:href="#linearGradient3562"
       id="linearGradient3568"
       x1="25.535715"
       y1="47.34375"
       x2="24.075893"
       y2="3.2745535"
       gradientUnits="userSpaceOnUse" />
    <linearGradient
       inkscape:collect="always"
       xlink:href="#linearGradient3562"
       id="linearGradient3584"
       x1="26.453072"
       y1="50.466114"
       x2="5.9077115"
       y2="11.494244"
       gradientUnits="userSpaceOnUse" />
    <linearGradient
       inkscape:collect="always"
       xlink:href="#linearGradient3562"
       id="linearGradient3592"
       x1="37.541813"
       y1="36.501263"
       x2="-4.5721736"
       y2="23.525108"
       gradientUnits="userSpaceOnUse" />
    <linearGradient
       inkscape:collect="always"
       xlink:href="#linearGradient3562"
       id="linearGradient3600"
       x1="21.25334"
       y1="7.6655416"
       x2="8.1792622"
       y2="49.803047"
       gradientUnits="userSpaceOnUse" />
    <linearGradient
       inkscape:collect="always"
       xlink:href="#linearGradient3562"
       id="linearGradient3608"
       x1="2.9355922"
       y1="10.051413"
       x2="23.988573"
       y2="48.750671"
       gradientUnits="userSpaceOnUse" />
    <linearGradient
       inkscape:collect="always"
       xlink:href="#linearGradient3562"
       id="linearGradient3616"
       x1="-7.480278"
       y1="24.138245"
       x2="34.630806"
       y2="37.123749"
       gradientUnits="userSpaceOnUse" />
    <linearGradient
       inkscape:collect="always"
       xlink:href="#linearGradient3562"
       id="linearGradient3624"
       x1="25.535713"
       y1="47.343746"
       x2="24.075891"
       y2="3.2745531"
       gradientUnits="userSpaceOnUse" />
    <linearGradient
       inkscape:collect="always"
       xlink:href="#linearGradient3562"
       id="linearGradient3632"
       x1="35.341187"
       y1="18.640963"
       x2="-3.6654432"
       y2="39.281532"
       gradientUnits="userSpaceOnUse" />
    <linearGradient
       inkscape:collect="always"
       xlink:href="#linearGradient3634"
       id="linearGradient3640"
       x1="21.814819"
       y1="40.261147"
       x2="21.814827"
       y2="8.9754496"
       gradientUnits="userSpaceOnUse" />
    <linearGradient
       inkscape:collect="always"
       xlink:href="#linearGradient3634"
       id="linearGradient3648"
       x1="19.80084"
       y1="45.667255"
       x2="6.2789488"
       y2="17.589403"
       gradientUnits="userSpaceOnUse" />
    <linearGradient
       inkscape:collect="always"
       xlink:href="#linearGradient3634"
       id="linearGradient3656"
       x1="29.455231"
       y1="37.61702"
       x2="-0.05588657"
       y2="27.520758"
       gradientUnits="userSpaceOnUse" />
    <linearGradient
       inkscape:collect="always"
       xlink:href="#linearGradient3634"
       id="linearGradient3664"
       x1="30.47822"
       y1="24.992828"
       x2="2.2689438"
       y2="38.806553"
       gradientUnits="userSpaceOnUse" />
    <linearGradient
       inkscape:collect="always"
       xlink:href="#linearGradient3634"
       id="linearGradient3672"
       x1="22.373316"
       y1="15.501928"
       x2="11.973993"
       y2="45.112785"
       gradientUnits="userSpaceOnUse" />
    <linearGradient
       inkscape:collect="always"
       xlink:href="#linearGradient3634"
       id="linearGradient3680"
       x1="9.3672466"
       y1="14.67219"
       x2="23.256353"
       y2="42.567436"
       gradientUnits="userSpaceOnUse" />
    <linearGradient
       inkscape:collect="always"
       xlink:href="#linearGradient3634"
       id="linearGradient3688"
       x1="0.3235828"
       y1="22.928778"
       x2="29.832392"
       y2="33.031612"
       gradientUnits="userSpaceOnUse" />
    <linearGradient
       inkscape:collect="always"
       xlink:href="#linearGradient3634"
       id="linearGradient3696"
       x1="21.814817"
       y1="40.261143"
       x2="21.814825"
       y2="8.9754496"
       gradientUnits="userSpaceOnUse" />
    <radialGradient
       inkscape:collect="always"
       xlink:href="#linearGradient3700"
       id="radialGradient3727"
       gradientUnits="userSpaceOnUse"
       gradientTransform="matrix(1.0211027,0,0,1.008688,0.7334451,-6.6208874)"
       cx="22.785715"
       cy="30.357143"
       fx="22.785715"
       fy="30.357143"
       r="23.5" />
    <radialGradient
       inkscape:collect="always"
       xlink:href="#linearGradient3393"
       id="radialGradient3359"
       gradientUnits="userSpaceOnUse"
       gradientTransform="matrix(1.0211027,0,0,1.008688,0.7334451,-6.6208874)"
       cx="22.785715"
       cy="30.357143"
       fx="22.785715"
       fy="30.357143"
       r="23.5" />
    <linearGradient
       inkscape:collect="always"
       xlink:href="#linearGradient3562"
       id="linearGradient3361"
       gradientUnits="userSpaceOnUse"
       x1="-7.480278"
       y1="24.138245"
       x2="34.630806"
       y2="37.123749" />
    <linearGradient
       inkscape:collect="always"
       xlink:href="#linearGradient3634"
       id="linearGradient3363"
       gradientUnits="userSpaceOnUse"
       x1="0.3235828"
       y1="22.928778"
       x2="29.832392"
       y2="33.031612" />
    <linearGradient
       inkscape:collect="always"
       xlink:href="#linearGradient3562"
       id="linearGradient3365"
       gradientUnits="userSpaceOnUse"
       x1="2.9355922"
       y1="10.051413"
       x2="23.988573"
       y2="48.750671" />
    <linearGradient
       inkscape:collect="always"
       xlink:href="#linearGradient3634"
       id="linearGradient3367"
       gradientUnits="userSpaceOnUse"
       x1="9.3672466"
       y1="14.67219"
       x2="23.256353"
       y2="42.567436" />
    <linearGradient
       inkscape:collect="always"
       xlink:href="#linearGradient3562"
       id="linearGradient3369"
       gradientUnits="userSpaceOnUse"
       x1="21.25334"
       y1="7.6655416"
       x2="8.1792622"
       y2="49.803047" />
    <linearGradient
       inkscape:collect="always"
       xlink:href="#linearGradient3634"
       id="linearGradient3371"
       gradientUnits="userSpaceOnUse"
       x1="22.373316"
       y1="15.501928"
       x2="11.973993"
       y2="45.112785" />
    <linearGradient
       inkscape:collect="always"
       xlink:href="#linearGradient3562"
       id="linearGradient3373"
       gradientUnits="userSpaceOnUse"
       x1="35.341187"
       y1="18.640963"
       x2="-3.6654432"
       y2="39.281532" />
    <linearGradient
       inkscape:collect="always"
       xlink:href="#linearGradient3634"
       id="linearGradient3375"
       gradientUnits="userSpaceOnUse"
       x1="30.47822"
       y1="24.992828"
       x2="2.2689438"
       y2="38.806553" />
    <linearGradient
       inkscape:collect="always"
       xlink:href="#linearGradient3562"
       id="linearGradient3377"
       gradientUnits="userSpaceOnUse"
       x1="37.541813"
       y1="36.501263"
       x2="-4.5721736"
       y2="23.525108" />
    <linearGradient
       inkscape:collect="always"
       xlink:href="#linearGradient3634"
       id="linearGradient3379"
       gradientUnits="userSpaceOnUse"
       x1="29.455231"
       y1="37.61702"
       x2="-0.05588657"
       y2="27.520758" />
    <linearGradient
       inkscape:collect="always"
       xlink:href="#linearGradient3562"
       id="linearGradient3381"
       gradientUnits="userSpaceOnUse"
       x1="26.453072"
       y1="50.466114"
       x2="5.9077115"
       y2="11.494244" />
    <linearGradient
       inkscape:collect="always"
       xlink:href="#linearGradient3634"
       id="linearGradient3383"
       gradientUnits="userSpaceOnUse"
       x1="19.80084"
       y1="45.667255"
       x2="6.2789488"
       y2="17.589403" />
    <linearGradient
       inkscape:collect="always"
       xlink:href="#linearGradient3562"
       id="linearGradient3385"
       gradientUnits="userSpaceOnUse"
       x1="25.535715"
       y1="47.34375"
       x2="24.075893"
       y2="3.2745535" />
    <linearGradient
       inkscape:collect="always"
       xlink:href="#linearGradient3634"
       id="linearGradient3387"
       gradientUnits="userSpaceOnUse"
       x1="21.814819"
       y1="40.261147"
       x2="21.814827"
       y2="8.9754496" />
    <linearGradient
       inkscape:collect="always"
       xlink:href="#linearGradient3562"
       id="linearGradient3389"
       gradientUnits="userSpaceOnUse"
       x1="25.535713"
       y1="47.343746"
       x2="24.075891"
       y2="3.2745531" />
    <linearGradient
       inkscape:collect="always"
       xlink:href="#linearGradient3634"
       id="linearGradient3391"
       gradientUnits="userSpaceOnUse"
       x1="21.814817"
       y1="40.261143"
       x2="21.814825"
       y2="8.9754496" />
  </defs>
  <sodipodi:namedview
     id="base"
     pagecolor="#ffffff"
     bordercolor="#666666"
     borderopacity="1.0"
     inkscape:pageopacity="0.0"
     inkscape:pageshadow="2"
     inkscape:zoom="1"
     inkscape:cx="40.971791"
     inkscape:cy="37.60793"
     inkscape:current-layer="layer1"
     showgrid="true"
     inkscape:grid-bbox="true"
     inkscape:document-units="px" />
  <metadata
     id="metadata2388">
    <rdf:RDF>
      <cc:Work
         rdf:about="">
        <dc:format>image/svg+xml</dc:format>
        <dc:type
           rdf:resource="http://purl.org/dc/dcmitype/StillImage" />
      </cc:Work>
    </rdf:RDF>
  </metadata>
  <g
     id="layer1"
     inkscape:label="Layer 1"
     inkscape:groupmode="layer">
    <g
       id="g3322"
       transform="scale(1.3333333,1.3333333)">
      <path
         sodipodi:nodetypes="cssscccccccccc"
         id="path3698"
         d="M 24,0.28605485 C 10.754256,0.28605485 1e-07,10.915299 0,24 C 0,37.084701 10.754256,47.713946 24,47.713945 C 37.245744,47.713945 47.999998,37.084701 48,24 C 48,10.915299 37.245744,0.28605485 24,0.28605485 z M 24.293163,19.687851 L 27.110889,21.135982 L 28.258577,24.400306 L 26.971161,27.075175 L 23.599694,28.24072 L 20.906968,26.928337 L 19.75928,23.635407 L 21.160949,20.746254 L 24.293163,19.687851 z"
         style="opacity:1;fill:url(#radialGradient3359);fill-opacity:1;fill-rule:nonzero;stroke:none;stroke-width:1;stroke-linecap:round;stroke-linejoin:miter;marker:none;marker-start:none;marker-mid:none;marker-end:none;stroke-miterlimit:4;stroke-dasharray:none;stroke-dashoffset:0;stroke-opacity:1;visibility:visible;display:inline;overflow:visible;enable-background:accumulate" />
      <g
         transform="matrix(0.967043,0,0,0.967043,0.748877,0.7809403)"
         id="g3505">
        <g
           id="g3299"
           transform="matrix(3.8459173e-3,-0.9999926,0.9999926,3.8459173e-3,0.293858,48.187691)">
          <rect
             transform="matrix(0.9441169,-0.3296108,0.3315597,0.9434342,0,0)"
             ry="0"
             y="35.205051"
             x="6.7375641"
             height="16.320839"
             width="16.398882"
             id="rect3301"
             style="fill:url(#linearGradient3361);fill-opacity:1;fill-rule:nonzero;stroke:#204d90;stroke-width:0.77556086;stroke-linecap:round;stroke-linejoin:miter;marker:none;marker-start:none;marker-mid:none;marker-end:none;stroke-miterlimit:4;stroke-dasharray:none;stroke-dashoffset:0;stroke-opacity:1;visibility:visible;display:inline;overflow:visible;enable-background:accumulate" />
          <path
             transform="matrix(0.9451823,-0.326543,0.3359712,0.9418723,0,0)"
             d="M 9.21875,37.78125 L 9.21875,46.25 L 20.3125,46.25 L 20.3125,37.78125 L 9.21875,37.78125 z"
             id="path3303"
             style="fill:url(#linearGradient3363);fill-opacity:1;fill-rule:nonzero;stroke:#204d90;stroke-width:0.77557951;stroke-linecap:round;stroke-linejoin:miter;marker:none;marker-start:none;marker-mid:none;marker-end:none;stroke-miterlimit:4;stroke-dasharray:none;stroke-dashoffset:0;stroke-opacity:1;visibility:visible;display:inline;overflow:visible;enable-background:accumulate"
             inkscape:original="M 8.6875 37.25 L 8.6875 46.78125 L 20.84375 46.78125 L 20.84375 37.25 L 8.6875 37.25 z "
             inkscape:radius="-0.52779955"
             sodipodi:type="inkscape:offset" />
          <path
             transform="matrix(0.9441169,-0.3296108,0.3315597,0.9434342,0,0)"
             d="M 7.46875,35.9375 L 7.46875,50.8125 L 22.40625,50.8125 L 22.40625,35.9375 L 7.46875,35.9375 z"
             id="path3305"
             style="fill:none;fill-opacity:1;fill-rule:nonzero;stroke:#ffffff;stroke-width:0.77556086;stroke-linecap:round;stroke-linejoin:miter;marker:none;marker-start:none;marker-mid:none;marker-end:none;stroke-miterlimit:4;stroke-dasharray:none;stroke-dashoffset:0;stroke-opacity:1;visibility:visible;display:inline;overflow:visible;enable-background:accumulate"
             inkscape:original="M 6.75 35.21875 L 6.75 51.53125 L 23.125 51.53125 L 23.125 35.21875 L 6.75 35.21875 z "
             inkscape:radius="-0.73105997"
             sodipodi:type="inkscape:offset" />
        </g>
        <g
           id="g3221"
           transform="matrix(-0.6948339,-0.7191702,0.7191702,-0.6948339,23.653201,57.650379)">
          <rect
             transform="matrix(0.9441169,-0.3296108,0.3315597,0.9434342,0,0)"
             ry="0"
             y="35.205051"
             x="6.7375641"
             height="16.320839"
             width="16.398882"
             id="rect3223"
             style="fill:url(#linearGradient3365);fill-opacity:1;fill-rule:nonzero;stroke:#204d90;stroke-width:0.77556086;stroke-linecap:round;stroke-linejoin:miter;marker:none;marker-start:none;marker-mid:none;marker-end:none;stroke-miterlimit:4;stroke-dasharray:none;stroke-dashoffset:0;stroke-opacity:1;visibility:visible;display:inline;overflow:visible;enable-background:accumulate" />
          <path
             transform="matrix(0.9451823,-0.326543,0.3359712,0.9418723,0,0)"
             d="M 9.21875,37.78125 L 9.21875,46.25 L 20.3125,46.25 L 20.3125,37.78125 L 9.21875,37.78125 z"
             id="path3225"
             style="fill:url(#linearGradient3367);fill-opacity:1;fill-rule:nonzero;stroke:#204d90;stroke-width:0.77557951;stroke-linecap:round;stroke-linejoin:miter;marker:none;marker-start:none;marker-mid:none;marker-end:none;stroke-miterlimit:4;stroke-dasharray:none;stroke-dashoffset:0;stroke-opacity:1;visibility:visible;display:inline;overflow:visible;enable-background:accumulate"
             inkscape:original="M 8.6875 37.25 L 8.6875 46.78125 L 20.84375 46.78125 L 20.84375 37.25 L 8.6875 37.25 z "
             inkscape:radius="-0.52779955"
             sodipodi:type="inkscape:offset" />
          <path
             transform="matrix(0.9441169,-0.3296108,0.3315597,0.9434342,0,0)"
             d="M 7.5625,36.03125 L 7.5625,50.71875 L 22.3125,50.71875 L 22.3125,36.03125 L 7.5625,36.03125 z"
             id="path3227"
             style="fill:none;fill-opacity:1;fill-rule:nonzero;stroke:#ffffff;stroke-width:0.77556086;stroke-linecap:round;stroke-linejoin:miter;marker:none;marker-start:none;marker-mid:none;marker-end:none;stroke-miterlimit:4;stroke-dasharray:none;stroke-dashoffset:0;stroke-opacity:1;visibility:visible;display:inline;overflow:visible;enable-background:accumulate"
             inkscape:original="M 6.75 35.21875 L 6.75 51.53125 L 23.125 51.53125 L 23.125 35.21875 L 6.75 35.21875 z "
             inkscape:radius="-0.80071568"
             sodipodi:type="inkscape:offset" />
        </g>
        <g
           id="g3291"
           transform="matrix(-0.9999927,-3.8083354e-3,3.8083354e-3,-0.9999927,48.141909,47.656449)">
          <rect
             transform="matrix(0.9441169,-0.3296108,0.3315597,0.9434342,0,0)"
             ry="0"
             y="35.205051"
             x="6.7375641"
             height="16.320839"
             width="16.398882"
             id="rect3293"
             style="fill:url(#linearGradient3369);fill-opacity:1;fill-rule:nonzero;stroke:#204d90;stroke-width:0.77556086;stroke-linecap:round;stroke-linejoin:miter;marker:none;marker-start:none;marker-mid:none;marker-end:none;stroke-miterlimit:4;stroke-dasharray:none;stroke-dashoffset:0;stroke-opacity:1;visibility:visible;display:inline;overflow:visible;enable-background:accumulate" />
          <path
             transform="matrix(0.9451823,-0.326543,0.3359712,0.9418723,0,0)"
             d="M 9.21875,37.78125 L 9.21875,46.25 L 20.3125,46.25 L 20.3125,37.78125 L 9.21875,37.78125 z"
             id="path3295"
             style="fill:url(#linearGradient3371);fill-opacity:1;fill-rule:nonzero;stroke:#204d90;stroke-width:0.77557951;stroke-linecap:round;stroke-linejoin:miter;marker:none;marker-start:none;marker-mid:none;marker-end:none;stroke-miterlimit:4;stroke-dasharray:none;stroke-dashoffset:0;stroke-opacity:1;visibility:visible;display:inline;overflow:visible;enable-background:accumulate"
             inkscape:original="M 8.6875 37.25 L 8.6875 46.78125 L 20.84375 46.78125 L 20.84375 37.25 L 8.6875 37.25 z "
             inkscape:radius="-0.52779955"
             sodipodi:type="inkscape:offset" />
          <path
             transform="matrix(0.9441169,-0.3296108,0.3315597,0.9434342,0,0)"
             d="M 7.5625,36.03125 L 7.5625,50.71875 L 22.3125,50.71875 L 22.3125,36.03125 L 7.5625,36.03125 z"
             id="path3297"
             style="fill:none;fill-opacity:1;fill-rule:nonzero;stroke:#ffffff;stroke-width:0.77556086;stroke-linecap:round;stroke-linejoin:miter;marker:none;marker-start:none;marker-mid:none;marker-end:none;stroke-miterlimit:4;stroke-dasharray:none;stroke-dashoffset:0;stroke-opacity:1;visibility:visible;display:inline;overflow:visible;enable-background:accumulate"
             inkscape:original="M 6.75 35.21875 L 6.75 51.53125 L 23.125 51.53125 L 23.125 35.21875 L 6.75 35.21875 z "
             inkscape:radius="-0.80706638"
             sodipodi:type="inkscape:offset" />
        </g>
        <g
           id="g3255"
           transform="matrix(-0.7103026,0.7038965,-0.7038965,-0.7103026,57.805429,23.724448)">
          <rect
             transform="matrix(0.9441169,-0.3296108,0.3315597,0.9434342,0,0)"
             ry="0"
             y="35.205051"
             x="6.7375641"
             height="16.320839"
             width="16.398882"
             id="rect3257"
             style="fill:url(#linearGradient3373);fill-opacity:1;fill-rule:nonzero;stroke:#204d90;stroke-width:0.77556086;stroke-linecap:round;stroke-linejoin:miter;marker:none;marker-start:none;marker-mid:none;marker-end:none;stroke-miterlimit:4;stroke-dasharray:none;stroke-dashoffset:0;stroke-opacity:1;visibility:visible;display:inline;overflow:visible;enable-background:accumulate" />
          <path
             transform="matrix(0.9451823,-0.326543,0.3359712,0.9418723,0,0)"
             d="M 9.21875,37.78125 L 9.21875,46.25 L 20.3125,46.25 L 20.3125,37.78125 L 9.21875,37.78125 z"
             id="path3259"
             style="fill:url(#linearGradient3375);fill-opacity:1;fill-rule:nonzero;stroke:#204d90;stroke-width:0.77557951;stroke-linecap:round;stroke-linejoin:miter;marker:none;marker-start:none;marker-mid:none;marker-end:none;stroke-miterlimit:4;stroke-dasharray:none;stroke-dashoffset:0;stroke-opacity:1;visibility:visible;display:inline;overflow:visible;enable-background:accumulate"
             inkscape:original="M 8.6875 37.25 L 8.6875 46.78125 L 20.84375 46.78125 L 20.84375 37.25 L 8.6875 37.25 z "
             inkscape:radius="-0.52779955"
             sodipodi:type="inkscape:offset" />
          <path
             transform="matrix(0.9441169,-0.3296108,0.3315597,0.9434342,0,0)"
             d="M 7.5,35.96875 L 7.5,50.78125 L 22.375,50.78125 L 22.375,35.96875 L 7.5,35.96875 z"
             id="path3261"
             style="fill:none;fill-opacity:1;fill-rule:nonzero;stroke:#ffffff;stroke-width:0.77556086;stroke-linecap:round;stroke-linejoin:miter;marker:none;marker-start:none;marker-mid:none;marker-end:none;stroke-miterlimit:4;stroke-dasharray:none;stroke-dashoffset:0;stroke-opacity:1;visibility:visible;display:inline;overflow:visible;enable-background:accumulate"
             inkscape:original="M 6.75 35.21875 L 6.75 51.53125 L 23.125 51.53125 L 23.125 35.21875 L 6.75 35.21875 z "
             inkscape:radius="-0.74104595"
             sodipodi:type="inkscape:offset" />
        </g>
        <g
           id="g3229"
           transform="matrix(-4.0678484e-3,0.9999917,-0.9999917,-4.0678484e-3,47.791297,-0.1123155)">
          <rect
             transform="matrix(0.9441169,-0.3296108,0.3315597,0.9434342,0,0)"
             ry="0"
             y="35.205051"
             x="6.7375641"
             height="16.320839"
             width="16.398882"
             id="rect3231"
             style="fill:url(#linearGradient3377);fill-opacity:1;fill-rule:nonzero;stroke:#204d90;stroke-width:0.77556086;stroke-linecap:round;stroke-linejoin:miter;marker:none;marker-start:none;marker-mid:none;marker-end:none;stroke-miterlimit:4;stroke-dasharray:none;stroke-dashoffset:0;stroke-opacity:1;visibility:visible;display:inline;overflow:visible;enable-background:accumulate" />
          <path
             transform="matrix(0.9451823,-0.326543,0.3359712,0.9418723,0,0)"
             d="M 9.21875,37.78125 L 9.21875,46.25 L 20.3125,46.25 L 20.3125,37.78125 L 9.21875,37.78125 z"
             id="path3233"
             style="fill:url(#linearGradient3379);fill-opacity:1;fill-rule:nonzero;stroke:#204d90;stroke-width:0.77557951;stroke-linecap:round;stroke-linejoin:miter;marker:none;marker-start:none;marker-mid:none;marker-end:none;stroke-miterlimit:4;stroke-dasharray:none;stroke-dashoffset:0;stroke-opacity:1;visibility:visible;display:inline;overflow:visible;enable-background:accumulate"
             inkscape:original="M 8.6875 37.25 L 8.6875 46.78125 L 20.84375 46.78125 L 20.84375 37.25 L 8.6875 37.25 z "
             inkscape:radius="-0.52779955"
             sodipodi:type="inkscape:offset" />
          <path
             transform="matrix(0.9441169,-0.3296108,0.3315597,0.9434342,0,0)"
             d="M 7.46875,35.9375 L 7.46875,50.8125 L 22.40625,50.8125 L 22.40625,35.9375 L 7.46875,35.9375 z"
             id="path3235"
             style="fill:none;fill-opacity:1;fill-rule:nonzero;stroke:#ffffff;stroke-width:0.77556086;stroke-linecap:round;stroke-linejoin:miter;marker:none;marker-start:none;marker-mid:none;marker-end:none;stroke-miterlimit:4;stroke-dasharray:none;stroke-dashoffset:0;stroke-opacity:1;visibility:visible;display:inline;overflow:visible;enable-background:accumulate"
             inkscape:original="M 6.75 35.21875 L 6.75 51.53125 L 23.125 51.53125 L 23.125 35.21875 L 6.75 35.21875 z "
             inkscape:radius="-0.70616615"
             sodipodi:type="inkscape:offset" />
        </g>
        <g
           id="g3213"
           transform="matrix(0.7041642,0.7100372,-0.7100372,0.7041642,23.78185,-9.6565206)">
          <rect
             transform="matrix(0.9441169,-0.3296108,0.3315597,0.9434342,0,0)"
             ry="0"
             y="35.205051"
             x="6.7375641"
             height="16.320839"
             width="16.398882"
             id="rect3215"
             style="fill:url(#linearGradient3381);fill-opacity:1;fill-rule:nonzero;stroke:#204d90;stroke-width:0.77556086;stroke-linecap:round;stroke-linejoin:miter;marker:none;marker-start:none;marker-mid:none;marker-end:none;stroke-miterlimit:4;stroke-dasharray:none;stroke-dashoffset:0;stroke-opacity:1;visibility:visible;display:inline;overflow:visible;enable-background:accumulate" />
          <path
             transform="matrix(0.9451823,-0.326543,0.3359712,0.9418723,0,0)"
             d="M 9.21875,37.78125 L 9.21875,46.25 L 20.3125,46.25 L 20.3125,37.78125 L 9.21875,37.78125 z"
             id="path3217"
             style="fill:url(#linearGradient3383);fill-opacity:1;fill-rule:nonzero;stroke:#204d90;stroke-width:0.77557951;stroke-linecap:round;stroke-linejoin:miter;marker:none;marker-start:none;marker-mid:none;marker-end:none;stroke-miterlimit:4;stroke-dasharray:none;stroke-dashoffset:0;stroke-opacity:1;visibility:visible;display:inline;overflow:visible;enable-background:accumulate"
             inkscape:original="M 8.6875 37.25 L 8.6875 46.78125 L 20.84375 46.78125 L 20.84375 37.25 L 8.6875 37.25 z "
             inkscape:radius="-0.52779955"
             sodipodi:type="inkscape:offset" />
          <path
             transform="matrix(0.9441169,-0.3296108,0.3315597,0.9434342,0,0)"
             d="M 7.5625,36.03125 L 7.5625,50.71875 L 22.3125,50.71875 L 22.3125,36.03125 L 7.5625,36.03125 z"
             id="path3219"
             style="fill:none;fill-opacity:1;fill-rule:nonzero;stroke:#ffffff;stroke-width:0.77556086;stroke-linecap:round;stroke-linejoin:miter;marker:none;marker-start:none;marker-mid:none;marker-end:none;stroke-miterlimit:4;stroke-dasharray:none;stroke-dashoffset:0;stroke-opacity:1;visibility:visible;display:inline;overflow:visible;enable-background:accumulate"
             inkscape:original="M 6.75 35.21875 L 6.75 51.53125 L 23.125 51.53125 L 23.125 35.21875 L 6.75 35.21875 z "
             inkscape:radius="-0.79936308"
             sodipodi:type="inkscape:offset" />
        </g>
        <g
           id="g3208"
           transform="matrix(0.9999912,-4.1850698e-3,4.1850698e-3,0.9999912,-0.3994247,0.5714542)">
          <path
             style="fill:url(#linearGradient3385);fill-opacity:1;fill-rule:nonzero;stroke:#204d90;stroke-width:0.77556002;stroke-linecap:round;stroke-linejoin:miter;marker:none;marker-start:none;marker-mid:none;marker-end:none;stroke-miterlimit:4;stroke-dasharray:none;stroke-dashoffset:0;stroke-opacity:1;visibility:visible;display:inline;overflow:visible;enable-background:accumulate"
             d="M 29.857143,27.133929 L 17.75,31.5 L 23.21875,46.84375 L 38.71875,41.40625 L 34.482143,29.897321 L 31.058036,31.03125 L 29.857143,27.133929 z"
             transform="matrix(0.9999913,4.1850702e-3,-4.1850702e-3,0.9999913,0.4018128,-0.5697776)"
             id="rect2406"
             sodipodi:nodetypes="ccccccc" />
          <path
             style="fill:url(#linearGradient3387);fill-opacity:1;fill-rule:nonzero;stroke:#204d90;stroke-width:0.77556014;stroke-linecap:round;stroke-linejoin:miter;marker:none;marker-start:none;marker-mid:none;marker-end:none;stroke-miterlimit:4;stroke-dasharray:none;stroke-dashoffset:0;stroke-opacity:1;visibility:visible;display:inline;overflow:visible;enable-background:accumulate"
             d="M 30.379464,29.776786 L 21.15625,33.0625 L 24.03125,41.03125 L 34.5,37.34375 L 32.160714,30.808036 L 30.915179,31.209821 L 30.379464,29.776786 z"
             transform="matrix(0.9999913,4.1850702e-3,-4.1850702e-3,0.9999913,0.4018128,-0.5697776)"
             id="path3202"
             sodipodi:nodetypes="ccccccc" />
          <path
             sodipodi:type="inkscape:offset"
             inkscape:radius="0.21677566"
             inkscape:original="M 29.96875 28.25 L 19.0625 32.125 L 23.84375 45.59375 L 37.4375 40.78125 L 33.625 30.3125 L 30.9375 31.25 L 29.96875 28.25 z "
             style="fill:none;fill-opacity:1;fill-rule:nonzero;stroke:#ffffff;stroke-width:0.77556002;stroke-linecap:round;stroke-linejoin:miter;marker:none;marker-start:none;marker-mid:none;marker-end:none;stroke-miterlimit:4;stroke-dasharray:none;stroke-dashoffset:0;stroke-opacity:1;visibility:visible;display:inline;overflow:visible;enable-background:accumulate"
             id="path3615"
             d="M 29.90625,28.03125 L 19,31.90625 C 18.977614,31.913219 18.956507,31.923772 18.9375,31.9375 C 18.926046,31.946825 18.915575,31.957296 18.90625,31.96875 C 18.894796,31.978075 18.884325,31.988546 18.875,32 C 18.861272,32.019007 18.850719,32.040114 18.84375,32.0625 C 18.840731,32.083224 18.840731,32.104276 18.84375,32.125 C 18.840731,32.145724 18.840731,32.166776 18.84375,32.1875 L 23.625,45.65625 C 23.631969,45.678636 23.642522,45.699743 23.65625,45.71875 C 23.665575,45.730204 23.676046,45.740675 23.6875,45.75 C 23.696825,45.761454 23.707296,45.771925 23.71875,45.78125 C 23.737757,45.794978 23.758864,45.805531 23.78125,45.8125 C 23.801974,45.815519 23.823026,45.815519 23.84375,45.8125 C 23.864474,45.815519 23.885526,45.815519 23.90625,45.8125 L 37.5,41 C 37.522386,40.993031 37.543493,40.982478 37.5625,40.96875 C 37.573954,40.959425 37.584425,40.948954 37.59375,40.9375 C 37.605204,40.928175 37.615675,40.917704 37.625,40.90625 C 37.638728,40.887243 37.649281,40.866136 37.65625,40.84375 C 37.659269,40.823026 37.659269,40.801974 37.65625,40.78125 C 37.659269,40.760526 37.659269,40.739474 37.65625,40.71875 L 33.84375,30.25 C 33.836781,30.227614 33.826228,30.206507 33.8125,30.1875 C 33.803175,30.176046 33.792704,30.165575 33.78125,30.15625 C 33.762243,30.142522 33.741136,30.131969 33.71875,30.125 C 33.709425,30.113546 33.698954,30.103075 33.6875,30.09375 C 33.656624,30.086912 33.624626,30.086912 33.59375,30.09375 C 33.583347,30.092998 33.572903,30.092998 33.5625,30.09375 L 31.09375,30.96875 L 30.1875,28.1875 C 30.178175,28.176046 30.167704,28.165575 30.15625,28.15625 C 30.149281,28.133864 30.138728,28.112757 30.125,28.09375 C 30.083457,28.052727 30.027124,28.030194 29.96875,28.03125 C 29.948026,28.028231 29.926974,28.028231 29.90625,28.03125 L 29.90625,28.03125 z"
             transform="matrix(0.9999913,4.1850702e-3,-4.1850702e-3,0.9999913,0.4018128,-0.5697776)" />
        </g>
        <g
           id="g3434"
           transform="matrix(0.7103016,-0.7038974,0.7038974,0.7103016,-9.7145072,24.245471)">
          <path
             style="fill:url(#linearGradient3389);fill-opacity:1;fill-rule:nonzero;stroke:#204d90;stroke-width:0.77556014;stroke-linecap:round;stroke-linejoin:miter;marker:none;marker-start:none;marker-mid:none;marker-end:none;stroke-miterlimit:4;stroke-dasharray:none;stroke-dashoffset:0;stroke-opacity:1;visibility:visible;display:inline;overflow:visible;enable-background:accumulate"
             d="M 29.34375,24.5 L 24.90625,33.5625 L 39.59375,40.6875 L 46.78125,25.96875 L 45.5625,25.375 L 31.34375,30.382265 L 29.34375,24.5 z"
             transform="matrix(0.7103017,0.7038975,-0.7038975,0.7103017,23.966556,-10.383581)"
             id="rect3436"
             sodipodi:nodetypes="ccccccc" />
          <path
             style="fill:url(#linearGradient3391);fill-opacity:1;fill-rule:nonzero;stroke:#204d90;stroke-width:0.77556014;stroke-linecap:round;stroke-linejoin:miter;marker:none;marker-start:none;marker-mid:none;marker-end:none;stroke-miterlimit:4;stroke-dasharray:none;stroke-dashoffset:0;stroke-opacity:1;visibility:visible;display:inline;overflow:visible;enable-background:accumulate"
             d="M 40.40625,27.1875 L 31.34375,30.28125 L 30.5625,28 L 28.4375,32.3125 L 36.0625,35.96875 L 40.40625,27.1875 z"
             id="path3438"
             transform="matrix(0.7103017,0.7038975,-0.7038975,0.7103017,23.966556,-10.383581)"
             sodipodi:nodetypes="cccccc" />
          <path
             sodipodi:type="inkscape:offset"
             inkscape:radius="0.269319"
             inkscape:original="M 44.25 25.65625 L 31.40625 30.25 L 29.8125 25.875 L 26.28125 33.09375 L 39.15625 39.34375 L 45.46875 26.4375 L 44.25 25.65625 z "
             style="fill:none;fill-opacity:1;fill-rule:nonzero;stroke:#ffffff;stroke-width:0.77556014;stroke-linecap:round;stroke-linejoin:miter;marker:none;marker-start:none;marker-mid:none;marker-end:none;stroke-miterlimit:4;stroke-dasharray:none;stroke-dashoffset:0;stroke-opacity:1;visibility:visible;display:inline;overflow:visible;enable-background:accumulate"
             id="path3617"
             d="M 44.21875,25.375 C 44.196648,25.382659 44.175638,25.393164 44.15625,25.40625 L 31.5625,29.90625 L 30.0625,25.78125 C 30.048509,25.745943 30.02721,25.713994 30,25.6875 C 29.932685,25.625568 29.83854,25.602032 29.75,25.625 C 29.71709,25.629546 29.685305,25.640141 29.65625,25.65625 C 29.632117,25.6735 29.611,25.694617 29.59375,25.71875 C 29.582495,25.728293 29.572043,25.738745 29.5625,25.75 L 26.03125,32.96875 C 26.010874,33.007275 26.00015,33.050169 26,33.09375 C 26.004648,33.166346 26.038462,33.233974 26.09375,33.28125 C 26.111,33.305383 26.132117,33.3265 26.15625,33.34375 L 39.03125,39.59375 C 39.069775,39.614126 39.112669,39.62485 39.15625,39.625 C 39.228846,39.620352 39.296474,39.586538 39.34375,39.53125 C 39.367883,39.514 39.389,39.492883 39.40625,39.46875 L 45.71875,26.5625 C 45.739126,26.523975 45.74985,26.481081 45.75,26.4375 C 45.745352,26.364904 45.711538,26.297276 45.65625,26.25 C 45.646707,26.238745 45.636255,26.228293 45.625,26.21875 L 44.40625,25.4375 C 44.353928,25.39366 44.286912,25.371321 44.21875,25.375 z"
             transform="matrix(0.7103017,0.7038975,-0.7038975,0.7103017,23.966556,-10.383581)" />
        </g>
        <path
           style="fill:none;fill-rule:evenodd;stroke:#204d90;stroke-width:0.7755602px;stroke-linecap:butt;stroke-linejoin:miter;stroke-opacity:1"
           d="M 29.270364,24.2422 L 31.341176,30.353623 L 46.576405,24.92659"
           id="path3331"
           sodipodi:nodetypes="ccc" />
      </g>
    </g>
  </g>
</svg>
