<?xml version="1.0" encoding="UTF-8" standalone="no"?>
<!-- Created with Inkscape (http://www.inkscape.org/) -->

<svg
   xmlns:dc="http://purl.org/dc/elements/1.1/"
   xmlns:cc="http://creativecommons.org/ns#"
   xmlns:rdf="http://www.w3.org/1999/02/22-rdf-syntax-ns#"
   xmlns:svg="http://www.w3.org/2000/svg"
   xmlns="http://www.w3.org/2000/svg"
   xmlns:xlink="http://www.w3.org/1999/xlink"
   xmlns:sodipodi="http://sodipodi.sourceforge.net/DTD/sodipodi-0.dtd"
   xmlns:inkscape="http://www.inkscape.org/namespaces/inkscape"
   width="64"
   height="64"
   id="svg2"
   version="1.1"
   inkscape:version="0.91 r"
   sodipodi:docname="libreoffice-draw-last-64.svg">
  <defs
     id="defs4">
    <linearGradient
       id="linearGradient4620">
      <stop
         id="stop4622"
         offset="0"
         style="stop-color:#ffffff;stop-opacity:1;" />
      <stop
         style="stop-color:#ffffff;stop-opacity:0.23529412;"
         offset="0.10738681"
         id="stop4624" />
      <stop
         style="stop-color:#ffffff;stop-opacity:0.15686275;"
         offset="0.92841429"
         id="stop4626" />
      <stop
         id="stop4628"
         offset="1"
         style="stop-color:#ffffff;stop-opacity:0.39215687;" />
    </linearGradient>
    <linearGradient
       id="linearGradient4324">
      <stop
         id="stop4326"
         offset="0"
         style="stop-color:#ffffff;stop-opacity:1;" />
      <stop
         style="stop-color:#ffffff;stop-opacity:0.23529412;"
         offset="0.07692308"
         id="stop4328" />
      <stop
         style="stop-color:#ffffff;stop-opacity:0.15686275;"
         offset="0.87385589"
         id="stop4330" />
      <stop
         id="stop4332"
         offset="1"
         style="stop-color:#ffffff;stop-opacity:0.392" />
    </linearGradient>
    <linearGradient
       inkscape:collect="always"
       id="linearGradient3801">
      <stop
         style="stop-color:#000000;stop-opacity:1;"
         offset="0"
         id="stop3803" />
      <stop
         style="stop-color:#000000;stop-opacity:0;"
         offset="1"
         id="stop3805" />
    </linearGradient>
    <linearGradient
       id="linearGradient3789">
      <stop
         style="stop-color:#000000;stop-opacity:0;"
         offset="0"
         id="stop3791" />
      <stop
         id="stop3797"
         offset="0.5"
         style="stop-color:#000000;stop-opacity:1;" />
      <stop
         style="stop-color:#000000;stop-opacity:0;"
         offset="1"
         id="stop3793" />
    </linearGradient>
    <linearGradient
       id="linearGradient3779">
      <stop
         style="stop-color:#ebdcd2;stop-opacity:1"
         offset="0"
         id="stop3781" />
      <stop
         style="stop-color:#c8b9a0;stop-opacity:1"
         offset="1"
         id="stop3783" />
    </linearGradient>
    <linearGradient
       id="linearGradient3767">
      <stop
         style="stop-color:#ffffff;stop-opacity:1;"
         offset="0"
         id="stop3769" />
      <stop
         id="stop3777"
         offset="0.08994294"
         style="stop-color:#ffffff;stop-opacity:0.23529412;" />
      <stop
         id="stop3775"
         offset="0.87385589"
         style="stop-color:#ffffff;stop-opacity:0.15686275;" />
      <stop
         style="stop-color:#ffffff;stop-opacity:0.39215687;"
         offset="1"
         id="stop3771" />
    </linearGradient>
    <linearGradient
       inkscape:collect="always"
       xlink:href="#linearGradient3789"
       id="linearGradient3795"
       x1="31.907684"
       y1="1044.7737"
       x2="31.907684"
       y2="1049.8818"
       gradientUnits="userSpaceOnUse" />
    <radialGradient
       inkscape:collect="always"
       xlink:href="#linearGradient3801"
       id="radialGradient3807"
       cx="10.0625"
       cy="1047.4336"
       fx="10.0625"
       fy="1047.4336"
       r="4"
       gradientTransform="matrix(-2.0268164,2.1791036e-8,0,-0.58132218,30.457347,1656.3032)"
       gradientUnits="userSpaceOnUse" />
    <radialGradient
       inkscape:collect="always"
       xlink:href="#linearGradient3801"
       id="radialGradient3811"
       gradientUnits="userSpaceOnUse"
       gradientTransform="matrix(-2.0268164,2.1791036e-8,0,-0.58132218,-33.542653,1656.3032)"
       cx="10.0625"
       cy="1047.4336"
       fx="10.0625"
       fy="1047.4336"
       r="4" />
    <radialGradient
       inkscape:collect="always"
       xlink:href="#linearGradient4235-7"
       id="radialGradient4216"
       gradientUnits="userSpaceOnUse"
       gradientTransform="matrix(4.6432974e-7,2.6688888,-2.4259838,4.2206945e-7,2442.0307,-83.14267)"
       cx="34.771698"
       cy="993.46204"
       fx="34.771698"
       fy="993.46204"
       r="27" />
    <linearGradient
       inkscape:collect="always"
       xlink:href="#linearGradient3767"
       id="linearGradient4220"
       gradientUnits="userSpaceOnUse"
       x1="15.480333"
       y1="993.34076"
       x2="15.480333"
       y2="1047.38"
       gradientTransform="translate(0,-988.36218)" />
    <linearGradient
       id="linearGradient4235">
      <stop
         offset="0"
         style="stop-color:#50d214;stop-opacity:1"
         id="stop4237" />
      <stop
         offset="1"
         style="stop-color:#1ea014;stop-opacity:1"
         id="stop4243" />
    </linearGradient>
    <linearGradient
       id="linearGradient4613">
      <stop
         id="stop4615"
         style="stop-color:#f08223;stop-opacity:1"
         offset="0" />
      <stop
         id="stop4617"
         style="stop-color:#f0370a;stop-opacity:1"
         offset="1" />
    </linearGradient>
    <linearGradient
       id="linearGradient4235-3">
      <stop
         offset="0"
         style="stop-color:#969696;stop-opacity:1"
         id="stop4237-3" />
      <stop
         offset="1"
         style="stop-color:#505050;stop-opacity:1"
         id="stop4243-0" />
    </linearGradient>
    <linearGradient
       id="linearGradient4235-8">
      <stop
         offset="0"
         style="stop-color:#c8d2dc;stop-opacity:1"
         id="stop4237-6" />
      <stop
         offset="1"
         style="stop-color:#828c96;stop-opacity:1"
         id="stop4243-5" />
    </linearGradient>
    <linearGradient
       id="linearGradient4235-7">
      <stop
         offset="0"
         style="stop-color:#f0d214;stop-opacity:1"
         id="stop4237-2" />
      <stop
         offset="1"
         style="stop-color:#f09b0a;stop-opacity:1"
         id="stop4243-9" />
    </linearGradient>
  </defs>
  <sodipodi:namedview
     id="base"
     pagecolor="#ffffff"
     bordercolor="#666666"
     borderopacity="1.0"
     inkscape:pageopacity="0.0"
     inkscape:pageshadow="2"
     inkscape:zoom="4.959763"
     inkscape:cx="30.780082"
     inkscape:cy="26.970859"
     inkscape:document-units="px"
     inkscape:current-layer="layer1"
     showgrid="true"
     showguides="true"
     inkscape:guide-bbox="true"
     inkscape:window-width="1366"
     inkscape:window-height="713"
     inkscape:window-x="0"
     inkscape:window-y="30"
     inkscape:window-maximized="1">
    <inkscape:grid
       type="xygrid"
       id="grid2985"
       empspacing="5"
       visible="true"
       enabled="true"
       snapvisiblegridlinesonly="true" />
    <sodipodi:guide
       orientation="0,1"
       position="11,4"
       id="guide2987" />
    <sodipodi:guide
       orientation="0,1"
       position="12,60"
       id="guide2989" />
    <sodipodi:guide
       orientation="0,1"
       position="10,32"
       id="guide2991" />
  </sodipodi:namedview>
  <metadata
     id="metadata7">
    <rdf:RDF>
      <cc:Work
         rdf:about="">
        <dc:format>image/svg+xml</dc:format>
        <dc:type
           rdf:resource="http://purl.org/dc/dcmitype/StillImage" />
        <dc:title></dc:title>
      </cc:Work>
    </rdf:RDF>
  </metadata>
  <g
     inkscape:label="Livello 1"
     inkscape:groupmode="layer"
     id="layer1"
     transform="translate(0,-988.36218)">
    <g
       id="g3832">
      <rect
         transform="scale(-1,1)"
         style="opacity:0.40000001;fill:url(#radialGradient3811);fill-opacity:1;stroke:none"
         id="rect3809"
         width="8"
         height="5"
         x="-62"
         y="1044.8622" />
      <rect
         y="1044.8622"
         x="2"
         height="5"
         width="8"
         id="rect3799"
         style="opacity:0.40000001;fill:url(#radialGradient3807);fill-opacity:1;stroke:none" />
      <rect
         y="1044.8622"
         x="10"
         height="5"
         width="44"
         id="rect3787"
         style="opacity:0.40000001;fill:url(#linearGradient3795);fill-opacity:1;stroke:none" />
    </g>
    <path
       style="fill:url(#radialGradient4216);fill-opacity:1.0;stroke:none;stroke-linejoin:round"
       d="M 7.5 4.5 C 5.838 4.5 4.5 5.838 4.5 7.5 L 4.5 56.5 C 4.5 58.162 5.838 59.5 7.5 59.5 L 56.5 59.5 C 58.162 59.5 59.5 58.162 59.5 56.5 L 59.5 27.5 L 36.5 4.5 L 7.5 4.5 z M 44.5 4.5 L 59.5 19.5 L 59.5 7.5 C 59.5 5.838 58.162 4.50001 56.5 4.5 L 44.5 4.5 z "
       transform="translate(0,988.36218)"
       id="rect4202" />
    <path
       style="opacity:0.6;fill:none;fill-opacity:1;stroke:#be6400;stroke-linejoin:round;stroke-opacity:1"
       d="M 7.5 4.5 C 5.838 4.5 4.5 5.838 4.5 7.5 L 4.5 56.5 C 4.5 58.162 5.838 59.5 7.5 59.5 L 56.5 59.5 C 58.162 59.5 59.5 58.162 59.5 56.5 L 59.5 27.5 L 36.5 4.5 L 7.5 4.5 z M 44.5 4.5 L 59.5 19.5 L 59.5 7.5 C 59.5 5.838 58.162 4.5 56.5 4.5 L 44.5 4.5 z "
       transform="translate(0,988.36218)"
       id="rect4208" />
    <path
       style="opacity:0.4;fill:none;fill-opacity:1;stroke:url(#linearGradient4220);stroke-linejoin:miter;stroke-opacity:1"
       d="M 7.5 5.5 C 6.392 5.5 5.5 6.392 5.5 7.5 L 5.5 56.5 C 5.5 57.608 6.392 58.5 7.5 58.5 L 56.5 58.5 C 57.608 58.5 58.5 57.608 58.5 56.5 L 58.5 28 L 36 5.5 L 7.5 5.5 z M 47 5.5 L 58.5 17 L 58.5 7.5 C 58.5 6.392 57.608 5.5 56.5 5.5 L 47 5.5 z "
       transform="translate(0,988.36218)"
       id="rect3765" />
    <path
       inkscape:connector-curvature="0"
       style="opacity:0.07;fill:#000000;fill-opacity:1;stroke:#000000;stroke-width:1;stroke-linecap:round;stroke-linejoin:round;stroke-miterlimit:4;stroke-dasharray:none;stroke-opacity:1"
       d="m 19,1013.3622 a 3,2.999725 0 0 0 -3,2.9997 3,2.999725 0 0 0 3,2.9997 3,2.999725 0 0 0 1.662109,-0.5038 l 3.117188,2.3377 c -0.09279,0 -0.187646,0 -0.279297,0.01 -1.871597,0.1384 -3.501159,0.9244 -4.677734,2.1736 -1.846737,1.9605 -2.558667,4.9421 -1.726563,7.9836 l -1.095703,0 0,5.9995 6,0 0,-5.9995 -2.802734,0 c -0.924507,-2.6326 -0.346876,-5.0978 1.080078,-6.6127 1.548772,-1.6441 4.091272,-2.327 7.34375,-0.6718 l 0.378906,0.283 0,3.9996 5.333984,0 6.804688,5.103 A 3,2.999725 0 0 0 40,1034.3603 a 3,2.999725 0 0 0 3,2.9997 3,2.999725 0 0 0 3,-2.9997 3,2.999725 0 0 0 -3,-2.9998 3,2.999725 0 0 0 -1.662109,0.5058 l -2.414063,-1.8104 c 1.577226,0.01 3.050443,-0.3925 4.251953,-1.1854 1.478477,-0.9758 2.511834,-2.5701 2.695313,-4.5074 0.143012,-1.5101 -0.216951,-3.1995 -1.132813,-5.0015 l 1.261719,0 0,-5.9994 -6,0 0,5.9994 2.443359,0 c 1.179766,1.917 1.555339,3.5472 1.435547,4.8121 -0.129021,1.3624 -0.783164,2.3549 -1.804687,3.029 -1.865611,1.2312 -5.075692,1.2517 -8.074219,-0.8554 l 0,-3.9859 -5.337891,0 -6.800781,-5.1012 A 3,2.999725 0 0 0 22,1016.3619 a 3,2.999725 0 0 0 -3,-2.9997 z"
       id="path4481" />
    <path
       id="path4479"
       d="m 19,1013.3622 a 3,2.999725 0 0 0 -3,2.9997 3,2.999725 0 0 0 3,2.9997 3,2.999725 0 0 0 1.662109,-0.5038 l 3.117188,2.3377 c -0.09279,0 -0.187646,0 -0.279297,0.01 -1.871597,0.1384 -3.501159,0.9244 -4.677734,2.1736 -1.846737,1.9605 -2.558667,4.9421 -1.726563,7.9836 l -1.095703,0 0,5.9995 6,0 0,-5.9995 -2.802734,0 c -0.924507,-2.6326 -0.346876,-5.0978 1.080078,-6.6127 1.548772,-1.6441 4.091272,-2.327 7.34375,-0.6718 l 0.378906,0.283 0,3.9996 5.333984,0 6.804688,5.103 A 3,2.999725 0 0 0 40,1034.3603 a 3,2.999725 0 0 0 3,2.9997 3,2.999725 0 0 0 3,-2.9997 3,2.999725 0 0 0 -3,-2.9998 3,2.999725 0 0 0 -1.662109,0.5058 l -2.414063,-1.8104 c 1.577226,0.01 3.050443,-0.3925 4.251953,-1.1854 1.478477,-0.9758 2.511834,-2.5701 2.695313,-4.5074 0.143012,-1.5101 -0.216951,-3.1995 -1.132813,-5.0015 l 1.261719,0 0,-5.9994 -6,0 0,5.9994 2.443359,0 c 1.179766,1.917 1.555339,3.5472 1.435547,4.8121 -0.129021,1.3624 -0.783164,2.3549 -1.804687,3.029 -1.865611,1.2312 -5.075692,1.2517 -8.074219,-0.8554 l 0,-3.9859 -5.337891,0 -6.800781,-5.1012 A 3,2.999725 0 0 0 22,1016.3619 a 3,2.999725 0 0 0 -3,-2.9997 z"
       style="opacity:0.15000014;fill:#000000;fill-opacity:1;stroke:none;stroke-width:1;stroke-linecap:round;stroke-linejoin:round;stroke-miterlimit:4;stroke-dasharray:none;stroke-opacity:1"
       inkscape:connector-curvature="0" />
    <path
       style="opacity:1;fill:#ffffff;fill-opacity:1;stroke:none;stroke-width:1;stroke-linecap:round;stroke-linejoin:round;stroke-miterlimit:4;stroke-dasharray:none;stroke-opacity:1"
       d="M 19 24 A 3 3 0 0 0 16 27 A 3 3 0 0 0 19 30 A 3 3 0 0 0 20.662109 29.496094 L 23.779297 31.833984 C 23.686507 31.837637 23.591651 31.83502 23.5 31.841797 C 21.628403 31.980297 19.998841 32.766325 18.822266 34.015625 C 16.975529 35.976352 16.263599 38.958246 17.095703 42 L 16 42 L 16 48 L 22 48 L 22 42 L 19.197266 42 C 18.272759 39.367153 18.85039 36.901761 20.277344 35.386719 C 21.826116 33.742428 24.368616 33.059553 27.621094 34.714844 L 28 35 L 28 39 L 33.333984 39 L 40.138672 44.103516 A 3 3 0 0 0 40 45 A 3 3 0 0 0 43 48 A 3 3 0 0 0 46 45 A 3 3 0 0 0 43 42 A 3 3 0 0 0 41.337891 42.505859 L 38.923828 40.695312 C 40.501054 40.704598 41.974271 40.302767 43.175781 39.509766 C 44.654258 38.533966 45.687615 36.939453 45.871094 35.001953 C 46.014106 33.491687 45.654143 31.80211 44.738281 30 L 46 30 L 46 24 L 40 24 L 40 30 L 42.443359 30 C 43.623125 31.917093 43.998698 33.547563 43.878906 34.8125 C 43.749885 36.175 43.095742 37.167597 42.074219 37.841797 C 40.208608 39.07309 36.998527 39.093626 34 36.986328 L 34 33 L 28.662109 33 L 21.861328 27.898438 A 3 3 0 0 0 22 27 A 3 3 0 0 0 19 24 z "
       transform="translate(0,988.36218)"
       id="rect4415" />
  </g>
</svg>
