<?xml version="1.0" encoding="UTF-8" standalone="no"?>
<!-- Created with Inkscape (http://www.inkscape.org/) -->

<svg
   xmlns:dc="http://purl.org/dc/elements/1.1/"
   xmlns:cc="http://creativecommons.org/ns#"
   xmlns:rdf="http://www.w3.org/1999/02/22-rdf-syntax-ns#"
   xmlns:svg="http://www.w3.org/2000/svg"
   xmlns="http://www.w3.org/2000/svg"
   xmlns:sodipodi="http://sodipodi.sourceforge.net/DTD/sodipodi-0.dtd"
   xmlns:inkscape="http://www.inkscape.org/namespaces/inkscape"
   id="svg3039"
   version="1.1"
   inkscape:version="0.91 r"
   width="24"
   height="24"
   sodipodi:docname="pushbullet-indicator-sync0-light.svg">
  <metadata
     id="metadata3045">
    <rdf:RDF>
      <cc:Work
         rdf:about="">
        <dc:format>image/svg+xml</dc:format>
        <dc:type
           rdf:resource="http://purl.org/dc/dcmitype/StillImage" />
        <dc:title></dc:title>
      </cc:Work>
    </rdf:RDF>
  </metadata>
  <defs
     id="defs3043" />
  <sodipodi:namedview
     pagecolor="#2d2d2d"
     bordercolor="#666666"
     borderopacity="1"
     objecttolerance="10"
     gridtolerance="10"
     guidetolerance="10"
     inkscape:pageopacity="0"
     inkscape:pageshadow="2"
     inkscape:window-width="1504"
     inkscape:window-height="844"
     id="namedview3041"
     showgrid="false"
     inkscape:zoom="1"
     inkscape:cx="8.7296566"
     inkscape:cy="12.094819"
     inkscape:window-x="94"
     inkscape:window-y="30"
     inkscape:window-maximized="0"
     inkscape:current-layer="svg3039" />
  <path
     style="fill:#ffffff;fill-opacity:1"
     d="M 4 6 L 4 18 L 6 18 L 6 6 L 4 6 z M 8 6 L 8 18 L 12.251953 17.966797 C 15.183205 17.934167 15.459937 17.894843 16.699219 17.291016 C 19.401249 15.974521 20.678915 12.786357 19.640625 9.9472656 C 18.954895 8.0722573 17.393369 6.684604 15.404297 6.1796875 C 14.779542 6.0210954 14.383517 6 11.955078 6 L 8 6 z M 14 8 C 15.4826 8 16.4128 8.55829 17 9.25 L 17 8 L 18 8 L 18 10 L 18 11 L 17 11 L 15 11 L 15 10 L 16.3125 10 C 15.8775 9.443 15.17 9 14 9 C 11 9 11 12 11 12 L 10 12 C 10 12 10 8 14 8 z M 17 12 L 18 12 C 18 12 18 15.99999 14 16 C 12.5174 15.99999 11.5872 15.4417 11 14.75 L 11 16 L 10 16 L 10 14 L 10 13 L 11 13 L 13 13 L 13 14 L 11.6875 14 C 12.12286 14.55672 12.83 15.00001 14 15 C 17 15.00001 17 12 17 12 z "
     id="path3075" />
  <g
     transform="translate(-419.99881,-135.99962)"
     id="g3997" />
</svg>
