<?xml version="1.0" encoding="UTF-8" standalone="no"?>
<!-- Created with Inkscape (http://www.inkscape.org/) -->

<svg
   xmlns:dc="http://purl.org/dc/elements/1.1/"
   xmlns:cc="http://creativecommons.org/ns#"
   xmlns:rdf="http://www.w3.org/1999/02/22-rdf-syntax-ns#"
   xmlns:svg="http://www.w3.org/2000/svg"
   xmlns="http://www.w3.org/2000/svg"
   xmlns:sodipodi="http://sodipodi.sourceforge.net/DTD/sodipodi-0.dtd"
   xmlns:inkscape="http://www.inkscape.org/namespaces/inkscape"
   id="svg3039"
   version="1.1"
   inkscape:version="0.91 r"
   width="24"
   height="24"
   sodipodi:docname="pushbullet-indicator-sync3-light.svg">
  <metadata
     id="metadata3045">
    <rdf:RDF>
      <cc:Work
         rdf:about="">
        <dc:format>image/svg+xml</dc:format>
        <dc:type
           rdf:resource="http://purl.org/dc/dcmitype/StillImage" />
        <dc:title></dc:title>
      </cc:Work>
    </rdf:RDF>
  </metadata>
  <defs
     id="defs3043" />
  <sodipodi:namedview
     pagecolor="#2d2d2d"
     bordercolor="#666666"
     borderopacity="1"
     objecttolerance="10"
     gridtolerance="10"
     guidetolerance="10"
     inkscape:pageopacity="0"
     inkscape:pageshadow="2"
     inkscape:window-width="1504"
     inkscape:window-height="844"
     id="namedview3041"
     showgrid="false"
     inkscape:zoom="17.31"
     inkscape:cx="8.7296566"
     inkscape:cy="12.094819"
     inkscape:window-x="94"
     inkscape:window-y="30"
     inkscape:window-maximized="0"
     inkscape:current-layer="svg3039" />
  <path
     style="fill:#ffffff;fill-opacity:1"
     d="M 4 6 L 4 18 L 6 18 L 6 6 L 4 6 z M 8 6 L 8 18 L 12.251953 17.966797 C 15.183205 17.934167 15.459937 17.894843 16.699219 17.291016 C 19.401249 15.974521 20.678915 12.786357 19.640625 9.9472656 C 18.954895 8.0722573 17.393369 6.684604 15.404297 6.1796875 C 14.779542 6.0210954 14.383517 6 11.955078 6 L 8 6 z M 14 6.34375 L 15.414062 7.7578125 L 16.121094 8.4648438 L 15.414062 9.171875 L 14 10.585938 L 13.292969 9.8789062 L 14.220703 8.9511719 C 13.519197 8.8653574 12.706214 9.0515842 11.878906 9.8789062 C 9.7575788 12.00022 11.878906 14.121094 11.878906 14.121094 L 11.171875 14.828125 C 11.171875 14.828125 8.343455 12.000309 11.171875 9.171875 C 12.220239 8.1235256 13.273416 7.8597011 14.177734 7.9335938 L 13.292969 7.0507812 L 14 6.34375 z M 16.828125 9.171875 C 16.828125 9.171875 19.656552 11.999698 16.828125 14.828125 C 15.779768 15.876482 14.726592 16.140306 13.822266 16.066406 L 14.707031 16.949219 L 14 17.65625 L 12.585938 16.242188 L 11.878906 15.535156 L 12.585938 14.828125 L 14 13.414062 L 14.707031 14.121094 L 13.779297 15.048828 C 14.480747 15.135095 15.293779 14.948409 16.121094 14.121094 C 18.242414 11.999773 16.121094 9.8789062 16.121094 9.8789062 L 16.828125 9.171875 z "
     id="path3075" />
  <g
     transform="matrix(-0.70710678,0.70710678,-0.70710678,-0.70710678,425.53503,-190.23197)"
     id="g3997" />
</svg>
