<?xml version="1.0" encoding="UTF-8" standalone="no"?>
<!-- Created with Inkscape (http://www.inkscape.org/) -->

<svg
   xmlns:dc="http://purl.org/dc/elements/1.1/"
   xmlns:cc="http://creativecommons.org/ns#"
   xmlns:rdf="http://www.w3.org/1999/02/22-rdf-syntax-ns#"
   xmlns:svg="http://www.w3.org/2000/svg"
   xmlns="http://www.w3.org/2000/svg"
   xmlns:sodipodi="http://sodipodi.sourceforge.net/DTD/sodipodi-0.dtd"
   xmlns:inkscape="http://www.inkscape.org/namespaces/inkscape"
   inkscape:export-ydpi="90.000000"
   inkscape:export-xdpi="90.000000"
   inkscape:export-filename="/home/jimmac/Desktop/wi-fi.png"
   width="16"
   height="16"
   id="svg11300"
   sodipodi:version="0.32"
   inkscape:version="0.91 r"
   sodipodi:docname="plugin-regex.svg"
   inkscape:output_extension="org.inkscape.output.svg.inkscape"
   sodipodi:modified="true"
   version="1.0">
  <defs
     id="defs3">
    <linearGradient
       id="linearGradient5048">
      <stop
         style="stop-color:black;stop-opacity:0;"
         offset="0"
         id="stop5050" />
      <stop
         id="stop5056"
         offset="0.5"
         style="stop-color:black;stop-opacity:1;" />
      <stop
         style="stop-color:black;stop-opacity:0;"
         offset="1"
         id="stop5052" />
    </linearGradient>
    <linearGradient
       id="linearGradient3832">
      <stop
         style="stop-color:#ffffff;stop-opacity:1;"
         offset="0"
         id="stop3834" />
      <stop
         style="stop-color:#e0e0e0;stop-opacity:1;"
         offset="1"
         id="stop3836" />
    </linearGradient>
  </defs>
  <sodipodi:namedview
     stroke="#ef2929"
     fill="#eeeeec"
     id="base"
     pagecolor="#ffffff"
     bordercolor="#666666"
     borderopacity="0.25490196"
     inkscape:pageopacity="0.0"
     inkscape:pageshadow="2"
     inkscape:zoom="35.625"
     inkscape:cx="8"
     inkscape:cy="8"
     inkscape:current-layer="layer1"
     showgrid="false"
     inkscape:grid-bbox="true"
     inkscape:document-units="px"
     inkscape:showpageshadow="false"
     inkscape:window-width="1406"
     inkscape:window-height="710"
     inkscape:window-x="75"
     inkscape:window-y="255"
     showguides="true"
     inkscape:guide-bbox="true"
     showborder="true"
     inkscape:window-maximized="0">
    <inkscape:grid
       type="xygrid"
       id="grid8803"
       visible="true"
       enabled="true"
       empspacing="5"
       snapvisiblegridlinesonly="true" />
  </sodipodi:namedview>
  <metadata
     id="metadata4">
    <rdf:RDF>
      <cc:Work
         rdf:about="">
        <dc:format>image/svg+xml</dc:format>
        <dc:type
           rdf:resource="http://purl.org/dc/dcmitype/StillImage" />
        <dc:creator>
          <cc:Agent>
            <dc:title>Patrick Niklaus</dc:title>
          </cc:Agent>
        </dc:creator>
        <dc:source />
        <cc:license
           rdf:resource="http://creativecommons.org/licenses/GPL/2.0/" />
        <dc:title>State</dc:title>
        <dc:subject>
          <rdf:Bag />
        </dc:subject>
      </cc:Work>
      <cc:License
         rdf:about="http://creativecommons.org/licenses/GPL/2.0/">
        <cc:permits
           rdf:resource="http://web.resource.org/cc/Reproduction" />
        <cc:permits
           rdf:resource="http://web.resource.org/cc/Distribution" />
        <cc:requires
           rdf:resource="http://web.resource.org/cc/Notice" />
        <cc:permits
           rdf:resource="http://web.resource.org/cc/DerivativeWorks" />
        <cc:requires
           rdf:resource="http://web.resource.org/cc/ShareAlike" />
        <cc:requires
           rdf:resource="http://web.resource.org/cc/SourceCode" />
      </cc:License>
    </rdf:RDF>
  </metadata>
  <g
     id="layer1"
     inkscape:label="Layer 1"
     inkscape:groupmode="layer"
     transform="translate(0,-16)">
    <path
       style="font-style:normal;font-weight:normal;font-size:28px;font-family:Sans;fill:#353945;fill-opacity:1;stroke:none;stroke-width:1;stroke-linecap:butt;stroke-linejoin:miter;stroke-miterlimit:4;stroke-dasharray:none;stroke-opacity:1"
       d="m 6.6863781,16.541529 c -0.296777,0.06794 -0.507679,0.341115 -0.506461,0.656077 l 0,3.838027 -3.671823,-2.099435 c -0.150747,-0.08874 -0.329603,-0.110941 -0.496304,-0.06159 -0.1667,0.04934 -0.307244,0.166125 -0.39,0.324011 l -1.04456592,2.033827 c -0.08327,0.160265 -0.10002,0.348797 -0.04625,0.522112 0.05374,0.173314 0.173331,0.316443 0.33114599,0.396395 l 3.51356193,1.869805 -3.51356193,1.902616 c -0.15781499,0.07994 -0.27739299,0.223078 -0.33114599,0.396391 -0.05374,0.173313 -0.03701,0.361843 0.04625,0.522111 l 1.04456592,2.033829 c 0.08273,0.157885 0.2233,0.274647 0.39,0.324008 0.166701,0.04936 0.345557,0.02717 0.496304,-0.06158 l 3.671823,-2.099436 0,3.805229 c 0.0068,0.359421 0.286257,0.649125 0.633078,0.656074 l 2.374025,0 C 9.5338331,31.493 9.813384,31.203347 9.82009,30.843926 l 0,-3.772425 3.640164,2.066632 c 0.150746,0.08875 0.32961,0.110938 0.496303,0.06158 0.166709,-0.04936 0.307252,-0.166123 0.39,-0.324008 l 1.076226,-2.033829 c 0.08326,-0.160268 0.100013,-0.348798 0.04624,-0.522111 -0.05374,-0.173313 -0.173331,-0.316444 -0.331147,-0.396391 l -3.481892,-1.902616 3.481895,-1.869805 c 0.157816,-0.07992 0.277393,-0.223081 0.331154,-0.396395 0.05374,-0.173315 0.03701,-0.361847 -0.04624,-0.522112 l -1.076228,-2.033827 c -0.08274,-0.157886 -0.223299,-0.274651 -0.390008,-0.324011 -0.166693,-0.04934 -0.345557,-0.02714 -0.496295,0.06159 l -3.640172,2.066631 0,-3.805223 C 9.81329,16.838182 9.5338331,16.54848 9.1870201,16.541529 l -2.374025,0 c -0.04208,-0.0044 -0.0845,-0.0044 -0.126617,0 z"
       id="path2199"
       inkscape:connector-curvature="0" />
  </g>
</svg>
