<?xml version="1.0" encoding="UTF-8" standalone="no"?>
<!-- Created with Inkscape (http://www.inkscape.org/) -->

<svg
   xmlns:dc="http://purl.org/dc/elements/1.1/"
   xmlns:cc="http://creativecommons.org/ns#"
   xmlns:rdf="http://www.w3.org/1999/02/22-rdf-syntax-ns#"
   xmlns:svg="http://www.w3.org/2000/svg"
   xmlns="http://www.w3.org/2000/svg"
   xmlns:xlink="http://www.w3.org/1999/xlink"
   xmlns:sodipodi="http://sodipodi.sourceforge.net/DTD/sodipodi-0.dtd"
   xmlns:inkscape="http://www.inkscape.org/namespaces/inkscape"
   width="24"
   height="24"
   id="svg5014"
   version="1.1"
   inkscape:version="0.91 r"
   sodipodi:docname="24.svg">
  <defs
     id="defs5016">
    <linearGradient
       inkscape:collect="always"
       id="linearGradient3910">
      <stop
         style="stop-color:#4d1556;stop-opacity:1;"
         offset="0"
         id="stop3912" />
      <stop
         style="stop-color:#312b32;stop-opacity:1"
         offset="1"
         id="stop3914" />
    </linearGradient>
    <linearGradient
       inkscape:collect="always"
       id="linearGradient3872">
      <stop
         style="stop-color:#ffffff;stop-opacity:1;"
         offset="0"
         id="stop3874" />
      <stop
         style="stop-color:#ffffff;stop-opacity:0;"
         offset="1"
         id="stop3876" />
    </linearGradient>
    <linearGradient
       inkscape:collect="always"
       id="linearGradient5200">
      <stop
         style="stop-color:#000000;stop-opacity:1;"
         offset="0"
         id="stop5202" />
      <stop
         style="stop-color:#000000;stop-opacity:0;"
         offset="1"
         id="stop5204" />
    </linearGradient>
    <linearGradient
       inkscape:collect="always"
       id="linearGradient5174">
      <stop
         style="stop-color:#ffffff;stop-opacity:1;"
         offset="0"
         id="stop5176" />
      <stop
         style="stop-color:#ffffff;stop-opacity:0;"
         offset="1"
         id="stop5178" />
    </linearGradient>
    <linearGradient
       id="linearGradient5082">
      <stop
         style="stop-color:#ffffff;stop-opacity:1;"
         offset="0"
         id="stop5084" />
      <stop
         id="stop5086"
         offset="0.46633396"
         style="stop-color:#ffffff;stop-opacity:0.74901961;" />
      <stop
         id="stop5088"
         offset="0.67677671"
         style="stop-color:#ffffff;stop-opacity:0" />
      <stop
         style="stop-color:#ffffff;stop-opacity:0;"
         offset="1"
         id="stop5090" />
    </linearGradient>
    <linearGradient
       inkscape:collect="always"
       id="linearGradient5072">
      <stop
         style="stop-color:#000000;stop-opacity:1;"
         offset="0"
         id="stop5074" />
      <stop
         style="stop-color:#000000;stop-opacity:0;"
         offset="1"
         id="stop5076" />
    </linearGradient>
    <linearGradient
       id="linearGradient5049">
      <stop
         id="stop5051"
         offset="0"
         style="stop-color:#000000;stop-opacity:1;" />
      <stop
         id="stop5053"
         offset="1"
         style="stop-color:#000000;stop-opacity:0;" />
    </linearGradient>
    <linearGradient
       id="linearGradient5002">
      <stop
         id="stop5004"
         offset="0"
         style="stop-color:#ffffff;stop-opacity:1;" />
      <stop
         style="stop-color:#ffffff;stop-opacity:0.74901961;"
         offset="0.5"
         id="stop5006" />
      <stop
         style="stop-color:#ffffff;stop-opacity:0.49803922;"
         offset="0.5"
         id="stop5008" />
      <stop
         id="stop5010"
         offset="1"
         style="stop-color:#ffffff;stop-opacity:0;" />
    </linearGradient>
    <linearGradient
       id="linearGradient4979">
      <stop
         style="stop-color:#ffffff;stop-opacity:1;"
         offset="0"
         id="stop4981" />
      <stop
         id="stop5000"
         offset="0.5"
         style="stop-color:#ffffff;stop-opacity:0.74901961;" />
      <stop
         id="stop4998"
         offset="0.5"
         style="stop-color:#ffffff;stop-opacity:0.49803922;" />
      <stop
         style="stop-color:#ffffff;stop-opacity:0;"
         offset="1"
         id="stop4983" />
    </linearGradient>
    <linearGradient
       id="linearGradient4935">
      <stop
         style="stop-color:#e5cf08;stop-opacity:1;"
         offset="0"
         id="stop4937" />
      <stop
         id="stop4977"
         offset="0.5"
         style="stop-color:#e9d414;stop-opacity:1;" />
      <stop
         style="stop-color:#fff279;stop-opacity:1;"
         offset="1"
         id="stop4939" />
    </linearGradient>
    <linearGradient
       inkscape:collect="always"
       id="linearGradient4927">
      <stop
         style="stop-color:#c09e06;stop-opacity:1;"
         offset="0"
         id="stop4929" />
      <stop
         style="stop-color:#b99b13;stop-opacity:1"
         offset="1"
         id="stop4931" />
    </linearGradient>
    <linearGradient
       id="linearGradient4033">
      <stop
         style="stop-color:#ffffff;stop-opacity:1;"
         offset="0"
         id="stop4035" />
      <stop
         style="stop-color:#0051ff;stop-opacity:1;"
         offset="1"
         id="stop4037" />
    </linearGradient>
    <linearGradient
       id="linearGradient3107">
      <stop
         id="stop3109"
         offset="0"
         style="stop-color:#232323;stop-opacity:1;" />
      <stop
         style="stop-color:#535353;stop-opacity:1;"
         offset="0.78331226"
         id="stop3111" />
      <stop
         style="stop-color:#676767;stop-opacity:1;"
         offset="0.78331226"
         id="stop3113" />
      <stop
         id="stop3115"
         offset="1"
         style="stop-color:#676767;stop-opacity:1;" />
    </linearGradient>
    <linearGradient
       id="linearGradient3988-5">
      <stop
         style="stop-color:#ededed;stop-opacity:1;"
         offset="0"
         id="stop3990-5" />
      <stop
         style="stop-color:#fafafa;stop-opacity:1;"
         offset="1"
         id="stop3992-0" />
    </linearGradient>
    <linearGradient
       id="linearGradient3960">
      <stop
         style="stop-color:#000000;stop-opacity:0;"
         offset="0"
         id="stop3962" />
      <stop
         id="stop3970"
         offset="0.5"
         style="stop-color:#000000;stop-opacity:1;" />
      <stop
         style="stop-color:#000000;stop-opacity:0;"
         offset="1"
         id="stop3964" />
    </linearGradient>
    <linearGradient
       inkscape:collect="always"
       id="linearGradient3944">
      <stop
         style="stop-color:#000000;stop-opacity:1;"
         offset="0"
         id="stop3946" />
      <stop
         style="stop-color:#000000;stop-opacity:0;"
         offset="1"
         id="stop3948" />
    </linearGradient>
    <linearGradient
       id="linearGradient3154">
      <stop
         style="stop-color:#000000;stop-opacity:0;"
         offset="0"
         id="stop3156" />
      <stop
         id="stop3158"
         offset="0.5"
         style="stop-color:#000000;stop-opacity:1;" />
      <stop
         style="stop-color:#000000;stop-opacity:0;"
         offset="1"
         id="stop3160" />
    </linearGradient>
    <radialGradient
       inkscape:collect="always"
       xlink:href="#linearGradient3944"
       id="radialGradient4001"
       gradientUnits="userSpaceOnUse"
       gradientTransform="matrix(1,0,0,0.75,0,10.875)"
       cx="9"
       cy="43.5"
       fx="9"
       fy="43.5"
       r="2" />
    <linearGradient
       id="linearGradient3988-5-5">
      <stop
         style="stop-color:#ededed;stop-opacity:1;"
         offset="0"
         id="stop3990-5-2" />
      <stop
         style="stop-color:#fafafa;stop-opacity:1;"
         offset="1"
         id="stop3992-0-1" />
    </linearGradient>
    <linearGradient
       id="linearGradient3100">
      <stop
         style="stop-color:#ededed;stop-opacity:1;"
         offset="0"
         id="stop3102" />
      <stop
         style="stop-color:#fafafa;stop-opacity:1;"
         offset="1"
         id="stop3104" />
    </linearGradient>
    <linearGradient
       id="linearGradient3916">
      <stop
         style="stop-color:#232323;stop-opacity:1;"
         offset="0"
         id="stop3918" />
      <stop
         id="stop3926"
         offset="0.80000001"
         style="stop-color:#535353;stop-opacity:1;" />
      <stop
         id="stop3924"
         offset="0.80000001"
         style="stop-color:#676767;stop-opacity:1;" />
      <stop
         style="stop-color:#676767;stop-opacity:1;"
         offset="1"
         id="stop3920" />
    </linearGradient>
    <linearGradient
       inkscape:collect="always"
       xlink:href="#linearGradient3960-9"
       id="linearGradient3933"
       gradientUnits="userSpaceOnUse"
       gradientTransform="matrix(1.2727273,0,0,1,-9.4545455,-16)"
       x1="25"
       y1="45"
       x2="25"
       y2="42" />
    <linearGradient
       id="linearGradient3960-9">
      <stop
         style="stop-color:#000000;stop-opacity:0;"
         offset="0"
         id="stop3962-7" />
      <stop
         id="stop3970-0"
         offset="0.5"
         style="stop-color:#000000;stop-opacity:1;" />
      <stop
         style="stop-color:#000000;stop-opacity:0;"
         offset="1"
         id="stop3964-8" />
    </linearGradient>
    <linearGradient
       inkscape:collect="always"
       xlink:href="#linearGradient4935"
       id="linearGradient5136"
       x1="1"
       y1="11.5"
       x2="3"
       y2="11.5"
       gradientUnits="userSpaceOnUse"
       gradientTransform="translate(-5,0)" />
    <linearGradient
       inkscape:collect="always"
       xlink:href="#linearGradient4935"
       id="linearGradient5146"
       x1="0.5"
       y1="26"
       x2="3.5"
       y2="26"
       gradientUnits="userSpaceOnUse"
       gradientTransform="translate(-5,0)" />
    <linearGradient
       inkscape:collect="always"
       xlink:href="#linearGradient4927"
       id="linearGradient5158"
       x1="-3.5"
       y1="11.5"
       x2="-0.5"
       y2="11.5"
       gradientUnits="userSpaceOnUse"
       gradientTransform="translate(-1,0)" />
    <linearGradient
       inkscape:collect="always"
       xlink:href="#linearGradient4927"
       id="linearGradient5160"
       x1="-4"
       y1="26"
       x2="0"
       y2="26"
       gradientUnits="userSpaceOnUse"
       gradientTransform="translate(-1,0)" />
    <linearGradient
       inkscape:collect="always"
       xlink:href="#linearGradient5174"
       id="linearGradient5180"
       x1="1"
       y1="11.5"
       x2="2"
       y2="11.5"
       gradientUnits="userSpaceOnUse"
       gradientTransform="translate(1,0)" />
    <linearGradient
       inkscape:collect="always"
       xlink:href="#linearGradient5072"
       id="linearGradient5190"
       gradientUnits="userSpaceOnUse"
       x1="15"
       y1="-1"
       x2="15"
       y2="13" />
    <linearGradient
       inkscape:collect="always"
       xlink:href="#linearGradient5082"
       id="linearGradient5192"
       gradientUnits="userSpaceOnUse"
       x1="8"
       y1="8"
       x2="24"
       y2="8" />
    <linearGradient
       inkscape:collect="always"
       xlink:href="#linearGradient4935"
       id="linearGradient5194"
       gradientUnits="userSpaceOnUse"
       x1="20"
       y1="20"
       x2="20"
       y2="0" />
    <linearGradient
       inkscape:collect="always"
       xlink:href="#linearGradient4927"
       id="linearGradient5196"
       gradientUnits="userSpaceOnUse"
       x1="32"
       y1="12"
       x2="0"
       y2="12" />
    <radialGradient
       inkscape:collect="always"
       xlink:href="#linearGradient5200"
       id="radialGradient5206"
       cx="17"
       cy="29.5"
       fx="17"
       fy="29.5"
       r="10"
       gradientTransform="matrix(1.0501527,0,0,0.16950381,-5.8544149,20.804599)"
       gradientUnits="userSpaceOnUse" />
    <radialGradient
       inkscape:collect="always"
       xlink:href="#linearGradient5200"
       id="radialGradient5210"
       gradientUnits="userSpaceOnUse"
       gradientTransform="matrix(0.75010906,0,0,0.08407926,-0.75367326,23.174536)"
       cx="17"
       cy="29.5"
       fx="17"
       fy="29.5"
       r="10" />
    <linearGradient
       inkscape:collect="always"
       xlink:href="#linearGradient4927"
       id="linearGradient5232"
       gradientUnits="userSpaceOnUse"
       x1="32"
       y1="12"
       x2="0"
       y2="12" />
    <linearGradient
       inkscape:collect="always"
       xlink:href="#linearGradient4935"
       id="linearGradient5234"
       gradientUnits="userSpaceOnUse"
       x1="20"
       y1="20"
       x2="20"
       y2="0" />
    <linearGradient
       inkscape:collect="always"
       xlink:href="#linearGradient5082"
       id="linearGradient5236"
       gradientUnits="userSpaceOnUse"
       x1="8"
       y1="8"
       x2="24"
       y2="8" />
    <linearGradient
       inkscape:collect="always"
       xlink:href="#linearGradient5072"
       id="linearGradient5238"
       gradientUnits="userSpaceOnUse"
       x1="15"
       y1="-1"
       x2="15"
       y2="13" />
    <linearGradient
       inkscape:collect="always"
       xlink:href="#linearGradient4927"
       id="linearGradient5292"
       gradientUnits="userSpaceOnUse"
       x1="32"
       y1="12"
       x2="0"
       y2="12" />
    <linearGradient
       inkscape:collect="always"
       xlink:href="#linearGradient4935"
       id="linearGradient5294"
       gradientUnits="userSpaceOnUse"
       x1="20"
       y1="20"
       x2="20"
       y2="0" />
    <linearGradient
       inkscape:collect="always"
       xlink:href="#linearGradient5082"
       id="linearGradient5296"
       gradientUnits="userSpaceOnUse"
       x1="8"
       y1="8"
       x2="24"
       y2="8" />
    <linearGradient
       inkscape:collect="always"
       xlink:href="#linearGradient5072"
       id="linearGradient5298"
       gradientUnits="userSpaceOnUse"
       x1="15"
       y1="-1"
       x2="15"
       y2="13" />
    <linearGradient
       inkscape:collect="always"
       xlink:href="#linearGradient4927"
       id="linearGradient5328"
       gradientUnits="userSpaceOnUse"
       gradientTransform="translate(0,6)"
       x1="32"
       y1="12"
       x2="0"
       y2="12" />
    <linearGradient
       inkscape:collect="always"
       xlink:href="#linearGradient4927"
       id="linearGradient3112"
       gradientUnits="userSpaceOnUse"
       gradientTransform="matrix(1.4827597,0,0,1.4958136,0.27586153,-8.0380383)"
       x1="32"
       y1="12"
       x2="0"
       y2="12" />
    <linearGradient
       inkscape:collect="always"
       xlink:href="#linearGradient4935"
       id="linearGradient3114"
       gradientUnits="userSpaceOnUse"
       gradientTransform="matrix(1.4827597,0,0,1.4958136,0.27586153,-8.0380383)"
       x1="20"
       y1="20"
       x2="20"
       y2="0" />
    <linearGradient
       inkscape:collect="always"
       xlink:href="#linearGradient5082"
       id="linearGradient3116"
       gradientUnits="userSpaceOnUse"
       gradientTransform="matrix(1.4827587,0,0,1.4958136,0.27586222,-8.0380384)"
       x1="8"
       y1="8"
       x2="24"
       y2="8" />
    <linearGradient
       inkscape:collect="always"
       xlink:href="#linearGradient5072"
       id="linearGradient3118"
       gradientUnits="userSpaceOnUse"
       gradientTransform="matrix(1.4827587,0,0,1.4958136,0.27586222,-8.0380384)"
       x1="15"
       y1="-1"
       x2="15"
       y2="13" />
    <linearGradient
       inkscape:collect="always"
       xlink:href="#linearGradient3872"
       id="linearGradient3878"
       x1="13.62069"
       y1="17.390793"
       x2="16.286045"
       y2="7.9919209"
       gradientUnits="userSpaceOnUse" />
    <linearGradient
       inkscape:collect="always"
       xlink:href="#linearGradient3872"
       id="linearGradient3881"
       gradientUnits="userSpaceOnUse"
       x1="13.62069"
       y1="17.390793"
       x2="16.286045"
       y2="7.9919209"
       gradientTransform="matrix(0.51885194,0,0,0.51885194,-0.45244662,15.352213)" />
    <linearGradient
       inkscape:collect="always"
       xlink:href="#linearGradient5072"
       id="linearGradient3889"
       gradientUnits="userSpaceOnUse"
       gradientTransform="matrix(0.76933221,0,0,0.77610579,-0.30931498,11.181661)"
       x1="15"
       y1="-1"
       x2="15"
       y2="13" />
    <linearGradient
       inkscape:collect="always"
       xlink:href="#linearGradient5082"
       id="linearGradient3896"
       gradientUnits="userSpaceOnUse"
       gradientTransform="matrix(0.76933221,0,0,0.77610579,-0.30931498,11.181661)"
       x1="8"
       y1="8"
       x2="24"
       y2="8" />
    <linearGradient
       inkscape:collect="always"
       xlink:href="#linearGradient4935"
       id="linearGradient3900"
       gradientUnits="userSpaceOnUse"
       gradientTransform="matrix(0.76933276,0,0,0.77610579,-0.30931537,11.181661)"
       x1="20"
       y1="20"
       x2="20"
       y2="0" />
    <linearGradient
       inkscape:collect="always"
       xlink:href="#linearGradient4927"
       id="linearGradient3903"
       gradientUnits="userSpaceOnUse"
       gradientTransform="matrix(0.76933276,0,0,0.77610579,-0.30931537,11.181661)"
       x1="32"
       y1="12"
       x2="0"
       y2="12" />
    <linearGradient
       inkscape:collect="always"
       xlink:href="#linearGradient3872"
       id="linearGradient3908"
       gradientUnits="userSpaceOnUse"
       gradientTransform="matrix(-0.51885194,0,0,0.51885194,24.38012,15.10968)"
       x1="13.62069"
       y1="17.390793"
       x2="16.286045"
       y2="7.9919209" />
    <linearGradient
       inkscape:collect="always"
       xlink:href="#linearGradient3910"
       id="linearGradient3917"
       x1="25"
       y1="11"
       x2="25"
       y2="4"
       gradientUnits="userSpaceOnUse"
       gradientTransform="matrix(0.50007271,0,0,0.50007271,-0.00356423,15.498255)" />
  </defs>
  <sodipodi:namedview
     id="base"
     pagecolor="#ffffff"
     bordercolor="#666666"
     borderopacity="1.0"
     inkscape:pageopacity="0.40784314"
     inkscape:pageshadow="2"
     inkscape:zoom="38.5"
     inkscape:cx="12"
     inkscape:cy="12"
     inkscape:current-layer="layer1"
     showgrid="false"
     showborder="true"
     inkscape:grid-bbox="true"
     inkscape:document-units="px"
     inkscape:snap-bbox="true"
     inkscape:bbox-paths="true"
     inkscape:snap-bbox-edge-midpoints="true"
     inkscape:bbox-nodes="true"
     inkscape:snap-bbox-midpoints="true"
     inkscape:window-width="1855"
     inkscape:window-height="1056"
     inkscape:window-x="65"
     inkscape:window-y="24"
     inkscape:window-maximized="1"
     inkscape:showpageshadow="false"
     inkscape:snap-global="true"
     inkscape:object-paths="true"
     inkscape:snap-intersection-paths="true"
     inkscape:object-nodes="false"
     inkscape:snap-smooth-nodes="true">
    <inkscape:grid
       type="xygrid"
       id="grid5131"
       empspacing="4"
       visible="true"
       enabled="true"
       snapvisiblegridlinesonly="true" />
  </sodipodi:namedview>
  <metadata
     id="metadata5019">
    <rdf:RDF>
      <cc:Work
         rdf:about="">
        <dc:format>image/svg+xml</dc:format>
        <dc:type
           rdf:resource="http://purl.org/dc/dcmitype/StillImage" />
        <dc:title></dc:title>
      </cc:Work>
    </rdf:RDF>
  </metadata>
  <g
     id="layer1"
     inkscape:label="Background"
     inkscape:groupmode="layer"
     transform="translate(0,-8)">
    <ellipse
       style="opacity:0.2;fill:url(#radialGradient5206);fill-opacity:1;stroke:none"
       id="path5198"
       cx="11.99818"
       cy="25.804962"
       rx="10.501527"
       ry="1.6950381" />
    <ellipse
       id="path5208"
       style="opacity:0.2;fill:url(#radialGradient5210);fill-opacity:1;stroke:none"
       cx="11.99818"
       cy="25.654875"
       rx="7.5010905"
       ry="0.8407926" />
    <path
       inkscape:connector-curvature="0"
       id="path3120"
       d="m 6.8255538,17.795464 c -0.1232624,-0.0055 -0.2427433,0.0044 -0.3594273,0.01563 -0.6838329,0.06606 -1.2428047,0.454336 -1.7658817,0.828245 l -0.1562727,0.109391 0.078136,0.203155 c 0.051579,0.117701 0.099766,0.211483 0.1406453,0.296918 l 0.1406457,0.281291 0.2500363,-0.1719 c 0.4635443,-0.325189 0.894441,-0.595785 1.3595726,-0.640718 0.6726053,-0.06498 1.6360744,0.264457 2.8754182,1.172045 l 0.156273,0.109391 0.1719,-0.125018 c 0.06357,-0.05063 0.155158,-0.10663 0.265663,-0.203155 L 10.216673,19.467585 9.9666352,19.26443 C 8.715203,18.292675 7.6883897,17.834239 6.8255538,17.795464 Z m 10.3608822,0.01563 c -0.864966,0.01791 -1.895735,0.474109 -3.156709,1.453336 l -0.250037,0.203155 0.234409,0.203154 c 0.110514,0.09654 0.202101,0.152533 0.265664,0.203155 l 0.1719,0.125018 0.156273,-0.109391 c 1.087093,-0.798111 1.966563,-1.159049 2.594127,-1.172045 0.616283,-0.01276 1.12803,0.236897 1.672118,0.609463 l 0.250036,0.1719 0.125019,-0.28129 c 0.04057,-0.08424 0.104826,-0.161379 0.156272,-0.281291 l 0.07814,-0.203155 -0.1719,-0.125018 c -0.625815,-0.447908 -1.29702,-0.814142 -2.125309,-0.796991 z"
       style="color:#000000;font-style:normal;font-variant:normal;font-weight:normal;font-stretch:normal;font-size:medium;line-height:normal;font-family:Sans;-inkscape-font-specification:Sans;text-indent:0;text-align:start;text-decoration:none;text-decoration-line:none;letter-spacing:normal;word-spacing:normal;text-transform:none;direction:ltr;block-progression:tb;writing-mode:lr-tb;baseline-shift:baseline;text-anchor:start;display:inline;overflow:visible;visibility:visible;opacity:0.4;fill:#000000;fill-opacity:1;stroke:none;stroke-width:1;marker:none;enable-background:accumulate" />
    <path
       sodipodi:nodetypes="cccscccsc"
       inkscape:connector-curvature="0"
       style="fill:none;stroke:url(#linearGradient3903);stroke-width:1.50021887;stroke-miterlimit:4;stroke-dasharray:none;stroke-opacity:1"
       d="m 9.6920115,13.509978 c 0,0 -1.5386662,1.552212 -7.6933284,1.552212 0,9.313269 4.615997,9.313269 4.615997,9.313269 3.0773314,0 3.8466639,-2.328317 5.3853289,-2.328317 1.538667,0 2.308,2.328317 6.154663,2.328317 0,0 3.846664,0 3.846664,-9.313269 -6.923995,0 -7.693327,-1.552212 -7.693327,-1.552212 -0.769333,0 -0.769333,1.552212 -2.308,1.552212 -1.538665,0 -1.538665,-1.552212 -2.3079975,-1.552212 z"
       id="path4925" />
    <path
       id="path4923"
       d="m 9.6920115,13.509978 c 0,0 -1.5386662,1.552212 -7.6933284,1.552212 0,9.313269 4.615997,9.313269 4.615997,9.313269 3.0773314,0 3.8466639,-2.328317 5.3853289,-2.328317 1.538667,0 2.308,2.328317 6.154663,2.328317 0,0 3.846664,0 3.846664,-9.313269 -6.923995,0 -7.693327,-1.552212 -7.693327,-1.552212 -0.769333,0 -0.769333,1.552212 -2.308,1.552212 -1.538665,0 -1.538665,-1.552212 -2.3079975,-1.552212 z"
       style="fill:none;stroke:url(#linearGradient3900);stroke-width:1.00014544;stroke-miterlimit:4;stroke-dasharray:none;stroke-opacity:1"
       inkscape:connector-curvature="0"
       sodipodi:nodetypes="cccscccsc" />
    <path
       style="fill:#a161ab;fill-opacity:1;stroke:none"
       d="m 9.6920035,13.509978 c 0,0 -1.5386637,1.552212 -7.6933219,1.552212 0,9.313269 4.615993,9.313269 4.615993,9.313269 3.0773289,0 3.8466614,-2.328318 5.3853264,-2.328318 1.538663,0 2.307996,2.328318 6.154657,2.328318 0,0 3.846661,0 3.846661,-9.313269 -6.92399,0 -7.693322,-1.552212 -7.693322,-1.552212 -0.769333,0 -0.769333,1.552212 -2.307996,1.552212 -1.538665,0 -1.538665,-1.552212 -2.3079975,-1.552212 z m -3.2456204,4.438355 c 1.0524021,-0.101665 2.3317816,0.337496 4.0149529,1.770492 -0.8298675,0.833619 -1.7958132,1.447593 -3.0773285,1.552211 -1.9458274,-0.175537 -2.6590082,-1.155691 -3.0773294,-2.328317 0.6428322,-0.506557 1.3211705,-0.915313 2.139705,-0.994386 z m 10.7466089,0 c 0.98096,-0.02031 1.765665,0.415464 2.50033,0.994386 -0.418321,1.172626 -1.131501,2.15278 -3.077329,2.328317 -1.281516,-0.104618 -2.247462,-0.718592 -3.077329,-1.552211 1.496153,-1.273774 2.673368,-1.750178 3.654328,-1.770492 z"
       id="path4915"
       inkscape:connector-curvature="0" />
    <path
       style="opacity:0.5;fill:url(#linearGradient3896);fill-opacity:1;stroke:none"
       d="m 9.6920035,13.509978 c 0,0 -0.663994,0.656867 -2.7888294,1.115652 1.0366217,0.377866 3.6971089,1.10396 4.3274949,1.988771 1.614212,2.52783 -0.842919,5.880234 -3.0052052,7.518525 1.8131672,-0.598609 2.5462692,-2.085785 3.7745372,-2.085785 1.228268,0 1.961368,1.487176 3.774536,2.085785 -2.162285,-1.638291 -4.619417,-4.990695 -3.005204,-7.518525 0.630385,-0.884811 3.290872,-1.610905 4.327493,-1.988771 -2.124834,-0.458785 -2.788829,-1.115652 -2.788829,-1.115652 -0.769333,0 -0.769333,1.552212 -2.307996,1.552212 -1.538665,0 -1.538665,-1.552212 -2.3079975,-1.552212 z"
       id="path4943"
       inkscape:connector-curvature="0" />
    <path
       d="M 6.4463886,17.948333 C 7.4987907,17.846668 8.7781717,18.285829 10.461344,19.718825 9.6314765,20.552444 8.6655298,21.166418 7.384013,21.271036 5.4381841,21.095499 4.7250029,20.115345 4.3066814,18.942719 4.949514,18.436162 5.6278531,18.027406 6.4463886,17.948333 Z m 10.7466174,0 c 0.980961,-0.02031 1.765666,0.415464 2.500332,0.994386 -0.418322,1.172626 -1.131503,2.15278 -3.077331,2.328317 -1.281518,-0.104618 -2.247464,-0.718592 -3.077331,-1.552211 1.496153,-1.273774 2.673369,-1.750178 3.65433,-1.770492 z"
       style="opacity:0.8;fill:none;stroke:url(#linearGradient3917);stroke-width:0.5000729;stroke-miterlimit:4;stroke-dasharray:none;stroke-opacity:1"
       inkscape:connector-curvature="0"
       sodipodi:nodetypes="scccsscccs"
       id="path4968" />
    <path
       style="opacity:0.2;fill:#ffffff;fill-opacity:1;stroke:none"
       d="m 8.1773813,14.286084 c -0.3522372,0.120847 -0.7653568,0.229678 -1.2742072,0.339546 1.0366217,0.377866 3.6971089,1.10396 4.3274949,1.988771 0.27954,0.437756 0.42281,0.90841 0.480832,1.382439 0.06815,-0.746976 -0.04826,-1.481143 -0.480832,-2.158544 -0.442662,-0.621323 -1.8737645,-1.153035 -3.0532877,-1.552212 z"
       id="path4987"
       inkscape:connector-curvature="0"
       sodipodi:nodetypes="cccccc" />
    <path
       sodipodi:nodetypes="cccccc"
       inkscape:connector-curvature="0"
       id="path4996"
       d="m 15.702411,14.310337 c 0.352238,0.120847 0.765357,0.229678 1.274207,0.339547 -1.036622,0.377865 -3.697107,1.103959 -4.327493,1.988771 -0.279541,0.437755 -0.422811,0.90841 -0.480833,1.382438 -0.06815,-0.746975 0.04826,-1.481143 0.480833,-2.158544 0.442661,-0.621322 1.873763,-1.153035 3.053286,-1.552212 z"
       style="opacity:0.1;fill:#ffffff;fill-opacity:1;stroke:none" />
    <path
       style="color:#000000;font-style:normal;font-variant:normal;font-weight:normal;font-stretch:normal;font-size:medium;line-height:normal;font-family:Sans;-inkscape-font-specification:Sans;text-indent:0;text-align:start;text-decoration:none;text-decoration-line:none;letter-spacing:normal;word-spacing:normal;text-transform:none;direction:ltr;block-progression:tb;writing-mode:lr-tb;baseline-shift:baseline;text-anchor:start;display:inline;overflow:visible;visibility:visible;opacity:0.4;fill:#ffffff;fill-opacity:1;stroke:none;stroke-width:1;marker:none;enable-background:accumulate"
       d="m 4.0903035,19.379279 c -0.00888,0.007 -0.015187,0.01727 -0.024041,0.02425 l -0.2163748,0.194027 0.096166,0.242533 c 0.2211822,0.620011 0.5404711,1.249432 1.0818732,1.721984 0.5414027,0.472552 1.300013,0.780018 2.3320381,0.873119 l 0.024039,0 0.024038,0 c 1.3866296,-0.113199 2.4490395,-0.800844 3.317746,-1.673478 l 0.312541,-0.29104 -0.336583,-0.266786 c -0.04136,-0.03522 -0.07924,-0.0629 -0.120209,-0.09701 -0.6879405,0.660043 -1.4877595,1.19694 -2.4762877,1.430945 -0.223501,0.05291 -0.4545476,0.101456 -0.6972073,0.121267 l -0.024038,0 c -0.00874,-9.01e-4 -0.015367,9e-4 -0.024039,0 C 7.15356,21.64047 6.967947,21.59745 6.7829666,21.56207 6.0430405,21.420575 5.4610494,21.164012 5.0279269,20.78597 4.5804738,20.395419 4.3043304,19.89026 4.0903035,19.379279 Z m 15.8193945,0.02425 c -0.213327,0.503701 -0.496222,0.997169 -0.937625,1.382438 -0.433121,0.378043 -1.015113,0.634606 -1.755039,0.776106 -0.184169,0.04256 -0.37705,0.07565 -0.601041,0.09701 l -0.02404,0 c -0.24266,-0.01981 -0.473708,-0.06836 -0.697208,-0.121267 -0.988528,-0.234005 -1.788348,-0.770902 -2.476287,-1.430945 -0.04081,0.03398 -0.079,0.06193 -0.120209,0.09701 l -0.336583,0.266786 0.312541,0.29104 c 0.868706,0.872634 1.931116,1.560279 3.317746,1.673478 l 0.02404,0 0.02404,0 c 1.032025,-0.0931 1.790636,-0.400567 2.332038,-0.873119 0.541402,-0.472552 0.860691,-1.101974 1.081874,-1.721984 l 0.09617,-0.242533 -0.216375,-0.194027 c -0.005,-0.004 -0.01898,0.004 -0.02404,0 z"
       id="path5023"
       inkscape:connector-curvature="0"
       sodipodi:nodetypes="ccccscccccccscccssccscccscccccccscccc" />
    <path
       style="opacity:0.2;fill:url(#linearGradient3889);fill-opacity:1;stroke:none"
       d="m 8.1292973,14.286084 c -0.2421827,0.08084 -0.5288304,0.165385 -0.8414568,0.242533 0.3160174,-0.07872 0.5972033,-0.160021 0.8414568,-0.242533 z M 6.9031741,14.62563 c -1.1572488,0.249868 -2.7343862,0.43656 -4.9044925,0.43656 0,9.313269 4.615993,9.313269 4.615993,9.313269 0.6207923,0 1.1525831,-0.09126 1.6107892,-0.242533 0.00864,-0.0065 0.015392,-0.01766 0.024038,-0.02426 2.1559242,-1.645348 4.5889262,-4.97654 2.9811622,-7.494272 -0.630383,-0.884812 -3.2908697,-1.610905 -4.3274914,-1.988771 z m 10.0734439,0.02425 c -1.093192,0.386095 -3.594547,1.104476 -4.207285,1.964518 -1.542655,2.415771 0.633491,5.569857 2.716703,7.275992 0.695444,0.282617 1.541597,0.485066 2.668622,0.485066 0,0 3.846661,0 3.846661,-9.313269 -2.303896,0 -3.885256,-0.182962 -5.024701,-0.412307 z M 6.4463831,17.94833 C 7.4987852,17.846665 8.7781647,18.285826 10.461336,19.718822 9.6314685,20.552441 8.6655228,21.166415 7.3840075,21.271033 5.4381801,21.095496 4.7249993,20.115342 4.3066781,18.942716 4.9495103,18.436159 5.6278486,18.027403 6.4463831,17.94833 Z m 10.7466089,0 c 0.98096,-0.02031 1.765665,0.415464 2.50033,0.994386 -0.418321,1.172626 -1.131501,2.15278 -3.077329,2.328317 -1.281516,-0.104618 -2.247462,-0.718592 -3.077329,-1.552211 1.496153,-1.273774 2.673368,-1.750178 3.654328,-1.770492 z"
       id="path5069"
       inkscape:connector-curvature="0" />
    <path
       style="opacity:0.5;fill:none;stroke:#ffffff;stroke-width:0.25003645;stroke-linecap:butt;stroke-linejoin:miter;stroke-miterlimit:4;stroke-dasharray:none;stroke-opacity:1"
       d="m 11.807677,22.047142 0,-3.111175 0,-3.097671"
       id="path5093"
       inkscape:connector-curvature="0"
       sodipodi:nodetypes="ccc" />
    <path
       style="opacity:0.1;fill:#000000;fill-opacity:1;stroke:none"
       d="m 1.9986816,15.06219 c 0,9.313269 4.615993,9.313269 4.615993,9.313269 2.1483884,0.36957 3.9063034,-2.263683 5.3853264,-2.328318 3.054722,1.299101 3.126577,2.307783 6.154657,2.328318 0,0 3.846661,0 3.846661,-9.313269 -0.0087,0 -0.01539,5e-6 -0.02404,0 -0.213173,8.5154 -3.822621,8.537163 -3.822621,8.537163 -3.061798,0.0538 -3.821545,-1.583807 -6.154657,-2.328317 -2.2879815,0.934359 -3.0545465,2.157112 -5.3853259,2.328317 0,0 -4.3361473,-0.02176 -4.5919518,-8.537163 -0.00859,6e-6 -0.015432,0 -0.024042,0 z"
       id="path5106"
       inkscape:connector-curvature="0"
       sodipodi:nodetypes="ccccccccccc" />
    <path
       style="opacity:0.1;fill:#000000;fill-opacity:1;stroke:none"
       d="m 9.6920035,13.509978 c -2.0335881,1.308685 -5.3215718,1.544517 -7.6933219,1.552212 0,0.273934 0.01629,0.518049 0.024041,0.776106 2.6648427,-0.121326 5.3813598,-0.0661 7.6692804,-1.552212 0.769332,0 0.769332,1.552212 2.307997,1.552212 1.538664,0 1.538664,-1.552212 2.307996,-1.552212 2.168762,1.287387 4.839869,1.541894 7.66928,1.552212 0.0065,-0.258057 0.02404,-0.502172 0.02404,-0.776106 -2.857444,-0.116813 -5.307368,-0.01196 -7.693322,-1.552212 -0.769333,0 -0.769333,1.552212 -2.307996,1.552212 -1.538665,0 -1.538665,-1.552212 -2.307997,-1.552212 z m -5.144909,6.01482 c -0.083666,0.06115 -0.1581338,0.129187 -0.2404164,0.194027 0.4183212,1.172625 1.131502,2.152779 3.0773294,2.328316 1.2815153,-0.104617 2.247461,-0.718591 3.0773285,-1.55221 -0.15908,-0.135437 -0.304775,-0.245738 -0.456792,-0.363801 -0.7275955,0.615279 -1.5651281,1.053747 -2.6205365,1.139906 -1.6138247,-0.145587 -2.3838726,-0.842943 -2.836913,-1.746238 z m 14.8817695,0 c -0.453734,0.898016 -1.205543,1.601237 -2.812871,1.746238 -1.055409,-0.08616 -1.892941,-0.524627 -2.620537,-1.139906 -0.148298,0.115232 -0.301783,0.231831 -0.456792,0.363801 0.829867,0.833619 1.795813,1.447593 3.077329,1.55221 1.945828,-0.175537 2.659008,-1.155691 3.077329,-2.328316 -0.08734,-0.06883 -0.175456,-0.129773 -0.264458,-0.194027 z m -6.130616,2.71637 c 0.181151,0.28098 0.38974,0.540417 0.601041,0.800359 -0.210288,-0.258342 -0.420708,-0.523244 -0.601041,-0.800359 z"
       id="path5116"
       inkscape:connector-curvature="0"
       sodipodi:nodetypes="ccccsccccscccccccccccccccccc" />
    <path
       sodipodi:nodetypes="cccsscssscssssscssscssccccsssssssc"
       inkscape:connector-curvature="0"
       id="path3895"
       d="m 9.3733125,12.757953 -0.210784,0.226998 c 0,0 -0.0047,0.01478 -0.1945697,0.129713 -0.1898796,0.11493 -0.5246503,0.276019 -1.0539178,0.453995 -1.0585354,0.355952 -2.9038832,0.74585 -5.918155,0.74585 l -0.7458496,0 0,0.74585 c 0,4.780561 1.1993847,7.332828 2.5294031,8.674555 0.6650093,0.670864 1.3526245,1.022224 1.8808383,1.199846 0.5282138,0.177621 0.9566331,0.194569 0.9566331,0.194569 1.7278443,0 2.8957306,-0.69497 3.7130351,-1.313344 0.408652,-0.309187 0.748753,-0.601404 1.021489,-0.778278 0.272737,-0.176874 0.453078,-0.243212 0.648566,-0.243212 0.195488,0 0.373148,0.07682 0.664778,0.259426 0.291631,0.182605 0.670213,0.4657 1.134989,0.778278 0.929553,0.625158 2.286925,1.29713 4.361599,1.29713 0,0 0.407654,-0.02197 0.875563,-0.210784 0.467908,-0.188811 1.062391,-0.555541 1.621412,-1.232273 1.118043,-1.353463 2.091622,-3.866006 2.091622,-8.625913 l 0,-0.74585 -0.74585,0 c -3.405945,0 -5.260159,-0.387143 -6.193794,-0.729636 -0.466818,-0.171246 -0.70647,-0.337443 -0.810707,-0.421567 -0.03909,-0.03155 -0.04082,-0.04001 -0.04864,-0.04864 -0.0026,-0.0029 -0.01622,-0.01622 -0.01621,-0.01621 l -0.162141,-0.340497 -0.47021,0 c -0.444571,0 -0.81825,0.262756 -1.02149,0.486424 -0.203239,0.223668 -0.317341,0.437922 -0.437781,0.599923 -0.240881,0.324002 -0.326039,0.47021 -0.843134,0.47021 -0.517095,0 -0.602254,-0.146208 -0.843135,-0.47021 -0.12044,-0.162001 -0.234542,-0.376255 -0.437781,-0.599923 -0.20324,-0.223668 -0.576919,-0.486424 -1.0214905,-0.486424 z"
       style="color:#000000;font-style:normal;font-variant:normal;font-weight:normal;font-stretch:normal;font-size:medium;line-height:normal;font-family:Sans;-inkscape-font-specification:Sans;text-indent:0;text-align:start;text-decoration:none;text-decoration-line:none;letter-spacing:normal;word-spacing:normal;text-transform:none;direction:ltr;block-progression:tb;writing-mode:lr-tb;baseline-shift:baseline;text-anchor:start;display:inline;overflow:visible;visibility:visible;opacity:0.41000001;fill:none;stroke:#000000;stroke-width:1;stroke-miterlimit:4;stroke-dasharray:none;stroke-opacity:1;marker:none;enable-background:accumulate" />
    <path
       sodipodi:nodetypes="ccccsccccsc"
       inkscape:connector-curvature="0"
       id="path3098"
       d="m 9.6920035,13.009914 c -2.0335881,1.308685 -5.3215718,1.544517 -7.6933219,1.552212 0,0.273934 0.01629,0.518049 0.024041,0.776106 2.6648427,-0.121326 5.3813598,-0.0661 7.6692804,-1.552212 0.769332,0 0.769332,1.552212 2.307997,1.552212 1.538664,0 1.538664,-1.552212 2.307996,-1.552212 2.168762,1.287387 4.839869,1.541894 7.66928,1.552212 0.0065,-0.258057 0.02404,-0.502172 0.02404,-0.776106 -2.857444,-0.116813 -5.307368,-0.01196 -7.693322,-1.552212 -0.769333,0 -0.769333,1.552212 -2.307996,1.552212 -1.538665,0 -1.538665,-1.552212 -2.307999,-1.552212 z"
       style="opacity:0.4;fill:#ffffff;fill-opacity:1;stroke:none" />
    <path
       sodipodi:nodetypes="ccccccccccscccs"
       inkscape:connector-curvature="0"
       id="path3870"
       d="m 8.1292973,14.286084 c -0.2421827,0.08084 -0.5288304,0.165385 -0.8414568,0.242533 0.3160174,-0.07872 0.5972033,-0.160021 0.8414568,-0.242533 z M 6.9031741,14.62563 c -1.1572488,0.249868 -2.7343862,0.43656 -4.9044925,0.43656 0,9.313269 4.615993,9.313269 4.615993,9.313269 0.6207923,0 1.1525831,-0.09126 1.6107892,-0.242533 0.00864,-0.0065 0.015392,-0.01766 0.024038,-0.02426 C 10.405427,22.463322 12.838429,19.13213 11.230665,16.614398 10.600282,15.729587 7.9397948,15.003493 6.9031741,14.62563 Z m -0.456791,3.322703 c 1.0524021,-0.101665 2.3317816,0.337496 4.0149529,1.770492 -0.8298675,0.833619 -1.7958132,1.447593 -3.0773285,1.552211 -1.9458274,-0.175537 -2.6590082,-1.155691 -3.0773294,-2.328317 0.6428322,-0.506557 1.3211705,-0.915313 2.139705,-0.994386 z"
       style="opacity:0.2;fill:url(#linearGradient3881);fill-opacity:1;stroke:none" />
    <path
       style="opacity:0.2;fill:url(#linearGradient3908);fill-opacity:1;stroke:none"
       d="m 15.798376,14.043551 c 0.242183,0.08084 0.52883,0.165385 0.841457,0.242534 -0.316018,-0.07872 -0.597204,-0.160022 -0.841457,-0.242534 z m 1.226123,0.339547 c 1.157249,0.249868 2.734386,0.436559 4.904492,0.436559 0,9.313269 -4.615992,9.313269 -4.615992,9.313269 -0.620793,0 -1.152583,-0.09126 -1.61079,-0.242533 -0.0086,-0.0065 -0.01539,-0.01766 -0.02404,-0.02426 -2.155925,-1.645345 -4.588927,-4.976537 -2.981163,-7.494269 0.630384,-0.884812 3.29087,-1.610905 4.327491,-1.988768 z M 17.48129,17.7058 c -1.052402,-0.101665 -2.331782,0.337496 -4.014953,1.770492 0.829867,0.833619 1.795813,1.447594 3.077329,1.552211 1.945827,-0.175537 2.659008,-1.155691 3.077329,-2.328317 C 18.978163,18.19363 18.299825,17.784873 17.48129,17.7058 Z"
       id="path3906"
       inkscape:connector-curvature="0"
       sodipodi:nodetypes="ccccccccccscccs" />
  </g>
  <g
     inkscape:groupmode="layer"
     id="layer2"
     inkscape:label="Symbol"
     transform="translate(0,-8)" />
</svg>
