<?xml version="1.0" encoding="UTF-8" standalone="no"?>
<!-- Created with Inkscape (http://www.inkscape.org/) -->

<svg
   xmlns:dc="http://purl.org/dc/elements/1.1/"
   xmlns:cc="http://creativecommons.org/ns#"
   xmlns:rdf="http://www.w3.org/1999/02/22-rdf-syntax-ns#"
   xmlns:svg="http://www.w3.org/2000/svg"
   xmlns="http://www.w3.org/2000/svg"
   xmlns:sodipodi="http://sodipodi.sourceforge.net/DTD/sodipodi-0.dtd"
   xmlns:inkscape="http://www.inkscape.org/namespaces/inkscape"
   width="24"
   height="24"
   id="svg2888"
   version="1.1"
   inkscape:version="0.91 r"
   sodipodi:docname="fluxgui-dark.svg"
   inkscape:export-filename="/home/zach/lookit.png"
   inkscape:export-xdpi="30.9375"
   inkscape:export-ydpi="30.9375"
   sodipodi:version="0.32"
   inkscape:output_extension="org.inkscape.output.svg.inkscape">
  <defs
     id="defs2890">
    <inkscape:perspective
       sodipodi:type="inkscape:persp3d"
       inkscape:vp_x="0 : 32 : 1"
       inkscape:vp_y="0 : 1000 : 0"
       inkscape:vp_z="64 : 32 : 1"
       inkscape:persp3d-origin="32 : 21.333333 : 1"
       id="perspective2896" />
    <inkscape:perspective
       id="perspective3281"
       inkscape:persp3d-origin="372.04724 : 350.78739 : 1"
       inkscape:vp_z="744.09448 : 526.18109 : 1"
       inkscape:vp_y="0 : 1000 : 0"
       inkscape:vp_x="0 : 526.18109 : 1"
       sodipodi:type="inkscape:persp3d" />
  </defs>
  <sodipodi:namedview
     id="base"
     pagecolor="#ffffff"
     bordercolor="#666666"
     borderopacity="1.0"
     inkscape:pageopacity="0.0"
     inkscape:pageshadow="2"
     inkscape:zoom="6.0255032"
     inkscape:cx="-0.048962874"
     inkscape:cy="2.5186105"
     inkscape:current-layer="layer1"
     showgrid="true"
     inkscape:document-units="px"
     inkscape:grid-bbox="true"
     inkscape:window-width="1280"
     inkscape:window-height="761"
     inkscape:window-x="0"
     inkscape:window-y="19"
     inkscape:window-maximized="1" />
  <metadata
     id="metadata2893">
    <rdf:RDF>
      <cc:Work
         rdf:about="">
        <dc:format>image/svg+xml</dc:format>
        <dc:type
           rdf:resource="http://purl.org/dc/dcmitype/StillImage" />
        <dc:title></dc:title>
      </cc:Work>
    </rdf:RDF>
  </metadata>
  <g
     id="layer1"
     inkscape:label="Layer 1"
     inkscape:groupmode="layer"
     transform="translate(0,-40)">
    <path
       style="fill:#ffffff;fill-opacity:1;fill-rule:nonzero;stroke:none;stroke-width:0.438;stroke-linecap:butt;stroke-linejoin:miter;stroke-miterlimit:4;stroke-dasharray:none;stroke-dashoffset:0;stroke-opacity:1"
       d="M 12.5 4.21875 A 7.2808208 7.2808208 0 0 0 5.21875 11.5 A 7.2808208 7.2808208 0 0 0 5.2265625 11.697266 C 5.4007848 11.173133 5.4290562 11.20254 6.1445312 10.541016 C 6.9360762 9.8091586 8.0136454 9.1804227 9.3496094 8.9648438 C 12.004561 8.536426 15.297861 9.7198355 19.126953 14.498047 A 7.2808208 7.2808208 0 0 0 19.78125 11.5 A 7.2808208 7.2808208 0 0 0 12.5 4.21875 z M 10.382812 10.642578 C 10.112852 10.635639 9.8592524 10.653291 9.6230469 10.691406 C 8.6782249 10.843867 7.9175305 11.290387 7.3359375 11.828125 C 6.7783659 12.343653 5.8389723 13.575988 5.6621094 13.980469 A 7.2808208 7.2808208 0 0 0 12.5 18.78125 A 7.2808208 7.2808208 0 0 0 18.875 15.013672 L 18.158203 15.964844 C 14.967975 11.952584 12.272537 10.691153 10.382812 10.642578 z M 5.2832031 12.400391 A 7.2808208 7.2808208 0 0 0 5.5234375 13.564453 L 5.2832031 12.400391 z "
       transform="translate(0,40)"
       id="path2496" />
  </g>
</svg>
