<?xml version="1.0" encoding="UTF-8" standalone="no"?>
<!-- Created with Inkscape (http://www.inkscape.org/) -->

<svg
   xmlns:dc="http://purl.org/dc/elements/1.1/"
   xmlns:cc="http://creativecommons.org/ns#"
   xmlns:rdf="http://www.w3.org/1999/02/22-rdf-syntax-ns#"
   xmlns:svg="http://www.w3.org/2000/svg"
   xmlns="http://www.w3.org/2000/svg"
   xmlns:xlink="http://www.w3.org/1999/xlink"
   xmlns:sodipodi="http://sodipodi.sourceforge.net/DTD/sodipodi-0.dtd"
   xmlns:inkscape="http://www.inkscape.org/namespaces/inkscape"
   width="24"
   height="24"
   viewBox="0 0 24 24"
   id="svg2"
   version="1.1"
   inkscape:version="0.91 r"
   sodipodi:docname="libreoffice-calc-24.svg">
  <defs
     id="defs4">
    <linearGradient
       inkscape:collect="always"
       id="linearGradient4179">
      <stop
         style="stop-color:#000000;stop-opacity:1;"
         offset="0"
         id="stop4181" />
      <stop
         style="stop-color:#000000;stop-opacity:0;"
         offset="1"
         id="stop4183" />
    </linearGradient>
    <linearGradient
       inkscape:collect="always"
       id="linearGradient4169">
      <stop
         style="stop-color:#000000;stop-opacity:0"
         offset="0"
         id="stop4171" />
      <stop
         id="stop4177"
         offset="0.47755489"
         style="stop-color:#000000;stop-opacity:1" />
      <stop
         style="stop-color:#000000;stop-opacity:0;"
         offset="1"
         id="stop4173" />
    </linearGradient>
    <linearGradient
       inkscape:collect="always"
       id="linearGradient4153">
      <stop
         style="stop-color:#ffffff;stop-opacity:1;"
         offset="0"
         id="stop4155" />
      <stop
         id="stop4161"
         offset="0.23699637"
         style="stop-color:#ffffff;stop-opacity:0.23529412" />
      <stop
         style="stop-color:#ffffff;stop-opacity:0.15686275"
         offset="0.74583048"
         id="stop4163" />
      <stop
         style="stop-color:#ffffff;stop-opacity:0.39215687"
         offset="1"
         id="stop4157" />
    </linearGradient>
    <linearGradient
       inkscape:collect="always"
       xlink:href="#linearGradient4169"
       id="linearGradient4175"
       x1="-15.982143"
       y1="1039.7662"
       x2="-15.982143"
       y2="1042.7015"
       gradientUnits="userSpaceOnUse" />
    <radialGradient
       inkscape:collect="always"
       xlink:href="#linearGradient4179"
       id="radialGradient4185"
       cx="-22.865589"
       cy="1041.1704"
       fx="-22.865589"
       fy="1041.1704"
       r="1.5"
       gradientUnits="userSpaceOnUse"
       gradientTransform="matrix(-1.9988904,0,0,-1,-68.571395,2082.3408)" />
    <radialGradient
       inkscape:collect="always"
       xlink:href="#linearGradient4179"
       id="radialGradient4189"
       gradientUnits="userSpaceOnUse"
       gradientTransform="matrix(-1.9988904,0,0,-1,-38.857108,2082.3408)"
       cx="-22.865589"
       cy="1041.1704"
       fx="-22.865589"
       fy="1041.1704"
       r="1.5" />
    <linearGradient
       id="linearGradient3767">
      <stop
         style="stop-color:#ffffff;stop-opacity:1;"
         offset="0"
         id="stop3769" />
      <stop
         id="stop3777"
         offset="0.08994294"
         style="stop-color:#ffffff;stop-opacity:0.23529412;" />
      <stop
         id="stop3775"
         offset="0.87385589"
         style="stop-color:#ffffff;stop-opacity:0.15686275;" />
      <stop
         style="stop-color:#ffffff;stop-opacity:0.39215687;"
         offset="1"
         id="stop3771" />
    </linearGradient>
    <radialGradient
       inkscape:collect="always"
       xlink:href="#linearGradient4235"
       id="radialGradient4186"
       gradientUnits="userSpaceOnUse"
       gradientTransform="matrix(0,2.5263159,-2.1052659,0,2188.2464,-25.093273)"
       cx="11.911921"
       cy="1033.7157"
       fx="11.911921"
       fy="1033.7157"
       r="9.5" />
    <linearGradient
       inkscape:collect="always"
       xlink:href="#linearGradient4153"
       id="linearGradient4196"
       gradientUnits="userSpaceOnUse"
       x1="11.648685"
       y1="1031.4045"
       x2="11.648685"
       y2="1049.4226"
       gradientTransform="translate(0,-1028.3622)" />
    <linearGradient
       id="linearGradient4235">
      <stop
         offset="0"
         style="stop-color:#50d214;stop-opacity:1"
         id="stop4237" />
      <stop
         offset="1"
         style="stop-color:#1ea014;stop-opacity:1"
         id="stop4243" />
    </linearGradient>
  </defs>
  <sodipodi:namedview
     id="base"
     pagecolor="#ffffff"
     bordercolor="#666666"
     borderopacity="1.0"
     inkscape:pageopacity="0.0"
     inkscape:pageshadow="2"
     inkscape:zoom="10.329198"
     inkscape:cx="10.940329"
     inkscape:cy="8.3746719"
     inkscape:document-units="px"
     inkscape:current-layer="layer1"
     showgrid="true"
     units="px"
     inkscape:window-width="1366"
     inkscape:window-height="713"
     inkscape:window-x="0"
     inkscape:window-y="30"
     inkscape:window-maximized="1">
    <inkscape:grid
       type="xygrid"
       id="grid4282" />
  </sodipodi:namedview>
  <metadata
     id="metadata7">
    <rdf:RDF>
      <cc:Work
         rdf:about="">
        <dc:format>image/svg+xml</dc:format>
        <dc:type
           rdf:resource="http://purl.org/dc/dcmitype/StillImage" />
        <dc:title></dc:title>
      </cc:Work>
    </rdf:RDF>
  </metadata>
  <g
     inkscape:label="Livello 1"
     inkscape:groupmode="layer"
     id="layer1"
     transform="translate(0,-1028.3622)">
    <g
       id="g4191"
       transform="translate(26.857143,8.5892508)"
       style="opacity:0.40000001">
      <rect
         y="1039.7729"
         x="-22.857143"
         height="3"
         width="16"
         id="rect4165"
         style="opacity:1;fill:url(#linearGradient4175);fill-opacity:1;stroke:none;stroke-width:1;stroke-linejoin:round;stroke-miterlimit:4;stroke-dasharray:none;stroke-opacity:0.39215686" />
      <rect
         style="opacity:1;fill:url(#radialGradient4185);fill-opacity:1;stroke:none;stroke-width:1;stroke-linejoin:round;stroke-miterlimit:4;stroke-dasharray:none;stroke-opacity:0.39215686"
         id="rect4167"
         width="3"
         height="3"
         x="-25.857143"
         y="1039.7729" />
      <rect
         transform="scale(-1,1)"
         y="1039.7729"
         x="3.8571434"
         height="3"
         width="3"
         id="rect4187"
         style="opacity:1;fill:url(#radialGradient4189);fill-opacity:1;stroke:none;stroke-width:1;stroke-linejoin:round;stroke-miterlimit:4;stroke-dasharray:none;stroke-opacity:0.39215686" />
    </g>
    <path
       style="opacity:1;fill:url(#radialGradient4186);fill-opacity:1.0;stroke:none;stroke-width:3;stroke-linejoin:round;stroke-miterlimit:4;stroke-dasharray:none;stroke-opacity:1"
       d="M 3.5 2.5 C 2.946 2.5 2.5 2.946 2.5 3.5 L 2.5 20.5 C 2.5 21.054 2.946 21.5 3.5 21.5 L 20.5 21.5 C 21.054 21.5 21.5 21.054 21.5 20.5 L 21.5 11 L 13 2.5 L 3.5 2.5 z M 17 2.5 L 21.5 7 L 21.5 3.5 C 21.5 2.946 21.054 2.5 20.5 2.5 L 17 2.5 z "
       transform="translate(0,1028.3622)"
       id="rect4180" />
    <path
       id="path4189"
       d="m 3.5,1030.8622 c -0.554,0 -1,0.446 -1,1 l 0,17 c 0,0.554 0.446,1 1,1 l 17,0 c 0.554,0 1,-0.446 1,-1 l 0,-10 -8,-8 z m 13,0 5,5 0,-4 c 0,-0.554 -0.446,-1 -1,-1 z"
       style="opacity:0.6;fill:none;fill-opacity:1;stroke:#005a00;stroke-width:1;stroke-linejoin:miter;stroke-miterlimit:4;stroke-dasharray:none;stroke-opacity:1"
       inkscape:connector-curvature="0"
       sodipodi:nodetypes="ssssssccsccssc" />
    <path
       style="opacity:0.4;fill:none;fill-opacity:1;stroke:url(#linearGradient4196);stroke-width:1;stroke-linejoin:miter;stroke-miterlimit:4;stroke-dasharray:none;stroke-opacity:1"
       d="m 3.5,3.5 0,17 17,0 0,-9.599609 L 13.1,3.5 Z M 18.900391,3.5 20.5,5.0996094 20.5,3.5 Z"
       transform="translate(0,1028.3622)"
       id="rect4162"
       inkscape:connector-curvature="0"
       sodipodi:nodetypes="cccccccccc" />
    <path
       inkscape:connector-curvature="0"
       style="opacity:0.07;fill:#000000;fill-opacity:1;stroke:#000000;stroke-width:1;stroke-linecap:round;stroke-linejoin:round;stroke-miterlimit:4;stroke-dasharray:none;stroke-opacity:1"
       d="m 7,1038.3622 0,1 0,1 0,1 0,2 0,1 0,2 0,1 10,0 0,-1 0,-8 -9,0 -1,0 z m 1,1 2,0 0,1 -2,0 0,-1 z m 3,0 2,0 0,1 -2,0 0,-1 z m 3,0 2,0 0,1 -2,0 0,-1 z m -6,2 2,0 0,2 -2,0 0,-2 z m 3,0 2,0 0,2 -2,0 0,-2 z m 3,0 2,0 0,2 -2,0 0,-2 z m -6,3 2,0 0,2 -2,0 0,-2 z m 3,0 2,0 0,2 -2,0 0,-2 z m 3,0 2,0 0,2 -2,0 0,-2 z"
       id="path4210" />
    <path
       id="path4208"
       d="m 7,1038.3622 0,1 0,1 0,1 0,2 0,1 0,2 0,1 10,0 0,-1 0,-8 -9,0 -1,0 z m 1,1 2,0 0,1 -2,0 0,-1 z m 3,0 2,0 0,1 -2,0 0,-1 z m 3,0 2,0 0,1 -2,0 0,-1 z m -6,2 2,0 0,2 -2,0 0,-2 z m 3,0 2,0 0,2 -2,0 0,-2 z m 3,0 2,0 0,2 -2,0 0,-2 z m -6,3 2,0 0,2 -2,0 0,-2 z m 3,0 2,0 0,2 -2,0 0,-2 z m 3,0 2,0 0,2 -2,0 0,-2 z"
       style="opacity:0.14999995;fill:#000000;fill-opacity:1;stroke:none;stroke-width:1;stroke-linecap:round;stroke-linejoin:round;stroke-miterlimit:4;stroke-dasharray:none;stroke-opacity:1"
       inkscape:connector-curvature="0" />
    <path
       style="opacity:1;fill:#ffffff;fill-opacity:1;stroke:none;stroke-width:1;stroke-linecap:round;stroke-linejoin:round;stroke-miterlimit:4;stroke-dasharray:none;stroke-opacity:1"
       d="M 7 9 L 7 10 L 7 11 L 7 12 L 7 14 L 7 15 L 7 17 L 7 18 L 17 18 L 17 17 L 17 9 L 8 9 L 7 9 z M 8 10 L 10 10 L 10 11 L 8 11 L 8 10 z M 11 10 L 13 10 L 13 11 L 11 11 L 11 10 z M 14 10 L 16 10 L 16 11 L 14 11 L 14 10 z M 8 12 L 10 12 L 10 14 L 8 14 L 8 12 z M 11 12 L 13 12 L 13 14 L 11 14 L 11 12 z M 14 12 L 16 12 L 16 14 L 14 14 L 14 12 z M 8 15 L 10 15 L 10 17 L 8 17 L 8 15 z M 11 15 L 13 15 L 13 17 L 11 17 L 11 15 z M 14 15 L 16 15 L 16 17 L 14 17 L 14 15 z "
       transform="translate(0,1028.3622)"
       id="rect4191" />
  </g>
</svg>
