<?xml version="1.0" encoding="UTF-8" standalone="no"?>
<svg
   xmlns:dc="http://purl.org/dc/elements/1.1/"
   xmlns:cc="http://creativecommons.org/ns#"
   xmlns:rdf="http://www.w3.org/1999/02/22-rdf-syntax-ns#"
   xmlns:svg="http://www.w3.org/2000/svg"
   xmlns="http://www.w3.org/2000/svg"
   xmlns:xlink="http://www.w3.org/1999/xlink"
   width="24"
   height="24"
   viewBox="0 0 24 24"
   id="svg2"
   version="1.1">
  <defs
     id="defs4">
    <linearGradient
       id="linearGradient4179">
      <stop
         style="stop-color:#000000;stop-opacity:1;"
         offset="0"
         id="stop4181" />
      <stop
         style="stop-color:#000000;stop-opacity:0;"
         offset="1"
         id="stop4183" />
    </linearGradient>
    <linearGradient
       id="linearGradient4169">
      <stop
         style="stop-color:#000000;stop-opacity:0"
         offset="0"
         id="stop4171" />
      <stop
         id="stop4177"
         offset="0.47755489"
         style="stop-color:#000000;stop-opacity:1" />
      <stop
         style="stop-color:#000000;stop-opacity:0;"
         offset="1"
         id="stop4173" />
    </linearGradient>
    <linearGradient
       id="linearGradient4153">
      <stop
         style="stop-color:#ffffff;stop-opacity:1;"
         offset="0"
         id="stop4155" />
      <stop
         id="stop4161"
         offset="0.23699637"
         style="stop-color:#ffffff;stop-opacity:0.23529412" />
      <stop
         style="stop-color:#ffffff;stop-opacity:0.15686275"
         offset="0.74583048"
         id="stop4163" />
      <stop
         style="stop-color:#ffffff;stop-opacity:0.39215687"
         offset="1"
         id="stop4157" />
    </linearGradient>
    <radialGradient
       xlink:href="#linearGradient3779"
       id="radialGradient4149"
       cx="12.555243"
       cy="1033.7792"
       fx="12.555243"
       fy="1033.7792"
       r="9.5"
       gradientUnits="userSpaceOnUse"
       gradientTransform="matrix(1.9689672e-6,2.280465,-1.9138714,1.6524481e-6,1990.3386,1007.0643)" />
    <linearGradient
       xlink:href="#linearGradient4169"
       id="linearGradient4175"
       x1="-15.982143"
       y1="1039.7662"
       x2="-15.982143"
       y2="1042.7015"
       gradientUnits="userSpaceOnUse" />
    <radialGradient
       xlink:href="#linearGradient4179"
       id="radialGradient4185"
       cx="-22.865589"
       cy="1041.1704"
       fx="-22.865589"
       fy="1041.1704"
       r="1.5"
       gradientUnits="userSpaceOnUse"
       gradientTransform="matrix(-1.9988904,0,0,-1,-68.571395,2082.3408)" />
    <radialGradient
       xlink:href="#linearGradient4179"
       id="radialGradient4189"
       gradientUnits="userSpaceOnUse"
       gradientTransform="matrix(-1.9988904,0,0,-1,-38.857108,2082.3408)"
       cx="-22.865589"
       cy="1041.1704"
       fx="-22.865589"
       fy="1041.1704"
       r="1.5" />
    <linearGradient
       xlink:href="#linearGradient4153"
       id="linearGradient4172"
       x1="11.648685"
       y1="1031.4045"
       x2="11.648685"
       y2="1049.4226"
       gradientUnits="userSpaceOnUse" />
    <linearGradient
       id="linearGradient4205">
      <stop
         style="stop-color:#4be67d;stop-opacity:1"
         offset="0"
         id="stop4207" />
      <stop
         style="stop-color:#1e963c;stop-opacity:1"
         offset="1"
         id="stop4209" />
    </linearGradient>
    <linearGradient
       id="linearGradient3779">
      <stop
         style="stop-color:#ffffff;stop-opacity:1"
         offset="0"
         id="stop3781" />
      <stop
         style="stop-color:#ebebeb;stop-opacity:1"
         offset="1"
         id="stop3783" />
    </linearGradient>
    <linearGradient
       id="linearGradient4221">
      <stop
         id="stop4223"
         offset="0"
         style="stop-color:#f0d750;stop-opacity:1" />
      <stop
         id="stop4225"
         offset="1"
         style="stop-color:#dc7d32;stop-opacity:1" />
    </linearGradient>
    <linearGradient
       id="linearGradient4274">
      <stop
         style="stop-color:#d7e1eb;stop-opacity:1"
         offset="0"
         id="stop4276" />
      <stop
         style="stop-color:#96a0aa;stop-opacity:1"
         offset="1"
         id="stop4278" />
    </linearGradient>
    <linearGradient
       id="linearGradient4238">
      <stop
         id="stop4240"
         offset="0"
         style="stop-color:#f0645a;stop-opacity:1" />
      <stop
         id="stop4242"
         offset="1"
         style="stop-color:#aa1400;stop-opacity:1" />
    </linearGradient>
    <radialGradient
       xlink:href="#linearGradient4274"
       id="radialGradient4410"
       cx="12"
       cy="6.4772725"
       fx="12"
       fy="6.4772725"
       r="7.5"
       gradientTransform="matrix(4.9878977e-8,2.5333334,-1.7333333,3.412772e-8,23.227271,-24.400001)"
       gradientUnits="userSpaceOnUse" />
    <radialGradient
       xlink:href="#linearGradient4221"
       id="radialGradient4416"
       gradientUnits="userSpaceOnUse"
       gradientTransform="matrix(-1.1886045e-8,1.8666666,-0.66666659,0,12.010489,-15.084209)"
       cx="13.973684"
       cy="10.515734"
       fx="13.973684"
       fy="10.515734"
       r="7.5" />
    <radialGradient
       xlink:href="#linearGradient4205"
       id="radialGradient4422"
       gradientUnits="userSpaceOnUse"
       gradientTransform="matrix(4.9878977e-8,2.5333334,-1.7333333,3.412772e-8,23.227271,-24.400001)"
       cx="12"
       cy="6.4772725"
       fx="12"
       fy="6.4772725"
       r="7.5" />
    <radialGradient
       xlink:href="#linearGradient4238"
       id="radialGradient4482"
       cx="-12"
       cy="4.4166665"
       fx="-12"
       fy="4.4166665"
       r="4.5"
       gradientTransform="matrix(-4.085118e-8,2.6666667,-1.5555555,-2.3829854e-8,-5.1296304,35)"
       gradientUnits="userSpaceOnUse" />
    <linearGradient
       xlink:href="#linearGradient4153"
       id="linearGradient4497"
       x1="-12"
       y1="1"
       x2="-12"
       y2="12"
       gradientUnits="userSpaceOnUse" />
  </defs>
  <metadata
     id="metadata7">
    <rdf:RDF>
      <cc:Work
         rdf:about="">
        <dc:format>image/svg+xml</dc:format>
        <dc:type
           rdf:resource="http://purl.org/dc/dcmitype/StillImage" />
        <dc:title />
      </cc:Work>
    </rdf:RDF>
  </metadata>
  <g
     id="layer1"
     transform="translate(0,-1028.3622)">
    <g
       id="g4191"
       transform="translate(26.857143,8.5892508)"
       style="opacity:0.40000001">
      <rect
         y="1039.7729"
         x="-22.857143"
         height="3"
         width="16"
         id="rect4165"
         style="opacity:1;fill:url(#linearGradient4175);fill-opacity:1;stroke:none;stroke-width:1;stroke-linejoin:round;stroke-miterlimit:4;stroke-dasharray:none;stroke-opacity:0.39215686" />
      <rect
         style="opacity:1;fill:url(#radialGradient4185);fill-opacity:1;stroke:none;stroke-width:1;stroke-linejoin:round;stroke-miterlimit:4;stroke-dasharray:none;stroke-opacity:0.39215686"
         id="rect4167"
         width="3"
         height="3"
         x="-25.857143"
         y="1039.7729" />
      <rect
         transform="scale(-1,1)"
         y="1039.7729"
         x="3.8571434"
         height="3"
         width="3"
         id="rect4187"
         style="opacity:1;fill:url(#radialGradient4189);fill-opacity:1;stroke:none;stroke-width:1;stroke-linejoin:round;stroke-miterlimit:4;stroke-dasharray:none;stroke-opacity:0.39215686" />
    </g>
    <path
       style="opacity:1;fill:url(#radialGradient4149);fill-opacity:1;stroke:none;stroke-width:3;stroke-linejoin:round;stroke-miterlimit:4;stroke-dasharray:none;stroke-opacity:1"
       d="M 2.4996533,1030.8627 9,1028.8622 l 6,2 6.499653,-2 0,19 -6.499653,2 -6,-2 -6.5003467,2.0005 z"
       id="rect4136" />
    <path
       style="opacity:0.3;fill:none;fill-opacity:1;stroke:#000000;stroke-width:1;stroke-linejoin:round;stroke-miterlimit:4;stroke-dasharray:none;stroke-opacity:1"
       d="M 2.4996533,1030.8627 9,1028.862 l 6,2.0002 6.499653,-1.9997 0,19 -6.499653,1.9997 -6,-2.0002 -6.5003467,2.0007 z"
       id="rect4160" />
    <path
       style="opacity:1;fill:none;fill-opacity:1;stroke:url(#linearGradient4172);stroke-width:1;stroke-linejoin:round;stroke-miterlimit:4;stroke-dasharray:none;stroke-opacity:1"
       d="m 3.5,1031.5622 5.5,-1.6999 6,1.9999 5.5,-1.7 0,17 -5.5,1.7 -6,-1.9999 -5.5,1.6999 z"
       id="rect4162" />
    <path
       style="opacity:1;fill:url(#radialGradient4410);fill-opacity:1;stroke:none;stroke-width:3;stroke-linejoin:round;stroke-miterlimit:4;stroke-dasharray:none;stroke-opacity:1"
       d="M 9,3 8.5,3.15625 8.5,5.6679688 9,5.5 15,7.5 19.5,6 19.5,3.5 15,4.8007812 Z M 6.5,3.7773438 4.5,4.4003906 4.5,13 6.5,12.333984 Z M 9,13.5 l -0.5,0.166016 0,4.089843 0.5,-0.15625 3.5,1.109375 0,-4.042968 z M 19.5,14 15,15.5 14.5,15.333984 14.5,19.341797 15,19.5 19.5,18 Z"
       transform="translate(0,1028.3622)"
       id="path4389" />
    <path
       id="path4412"
       transform="translate(0,1028.3622)"
       d="M 9,3 8.5,3.15625 8.5,5.6679688 9,5.5 15,7.5 19.5,6 19.5,3.5 15,4.8007812 Z M 6.5,3.7773438 4.5,4.4003906 4.5,13 6.5,12.333984 Z M 9,13.5 l -0.5,0.166016 0,4.089843 0.5,-0.15625 3.5,1.109375 0,-4.042968 z M 19.5,14 15,15.5 14.5,15.333984 14.5,19.341797 15,19.5 19.5,18 Z"
       style="opacity:0.6;fill:none;fill-opacity:1;stroke:#5a646e;stroke-width:1;stroke-linejoin:round;stroke-miterlimit:4;stroke-dasharray:none;stroke-opacity:1" />
    <path
       id="path4414"
       transform="translate(0,1028.3622)"
       d="M 6.5,14.333984 4.5,15 l 0,4 2,-0.623047 z"
       style="opacity:1;fill:url(#radialGradient4416);fill-opacity:1;stroke:none;stroke-width:3;stroke-linejoin:round;stroke-miterlimit:4;stroke-dasharray:none;stroke-opacity:1" />
    <path
       style="opacity:0.6;fill:none;fill-opacity:1;stroke:#b43c0f;stroke-width:1;stroke-linejoin:round;stroke-miterlimit:4;stroke-dasharray:none;stroke-opacity:1"
       d="M 6.5,14.333984 4.5,15 l 0,4 2,-0.623047 z"
       transform="translate(0,1028.3622)"
       id="path4418" />
    <path
       id="path4420"
       transform="translate(0,1028.3622)"
       d="M 9,7.5 8.5,7.6679688 8.5,11.666016 9,11.5 l 6,2 4.5,-1.5 0,-4 -4.5,1.5 z"
       style="opacity:1;fill:url(#radialGradient4422);fill-opacity:1;stroke:none;stroke-width:3;stroke-linejoin:round;stroke-miterlimit:4;stroke-dasharray:none;stroke-opacity:1" />
    <path
       style="opacity:0.6;fill:none;fill-opacity:1;stroke:#145a0f;stroke-width:1;stroke-linejoin:round;stroke-miterlimit:4;stroke-dasharray:none;stroke-opacity:1"
       d="M 9,7.5 8.5,7.6679688 8.5,11.666016 9,11.5 l 6,2 4.5,-1.5 0,-4 -4.5,1.5 z"
       transform="translate(0,1028.3622)"
       id="path4424" />
    <path
       id="path4511"
       d="m 9,1028.8622 6,2 0,19 -6,-2 z"
       style="opacity:0.20000001;fill:#000000;fill-opacity:1;stroke:none;stroke-width:3;stroke-linejoin:round;stroke-miterlimit:4;stroke-dasharray:none;stroke-opacity:1" />
    <g
       id="g4499"
       transform="translate(27,0.50003003)">
      <path
         id="path4426"
         transform="translate(0,1028.3622)"
         d="m -12,0.5 c -2.485281,7.7e-7 -4.499999,2.0147189 -4.5,4.5 0,3 0.5,4 4.5,9 4,-5 4.5,-6 4.5,-9 -8e-7,-2.4852811 -2.0147189,-4.49999923 -4.5,-4.5 z"
         style="opacity:1;fill:url(#radialGradient4482);fill-opacity:1;stroke:none;stroke-width:1;stroke-linecap:butt;stroke-linejoin:round;stroke-miterlimit:4;stroke-dasharray:none;stroke-opacity:1" />
      <circle
         style="opacity:0.4;fill:#000000;fill-opacity:1;stroke:none;stroke-width:1;stroke-linecap:butt;stroke-linejoin:round;stroke-miterlimit:4;stroke-dasharray:none;stroke-opacity:1"
         id="circle4466"
         cx="-12"
         cy="1033.3622"
         r="2.4999998" />
      <circle
         r="2.4999998"
         cy="1033.3622"
         cx="-12"
         id="circle4474"
         style="opacity:0.6;fill:none;fill-opacity:1;stroke:#780000;stroke-width:1;stroke-linecap:butt;stroke-linejoin:round;stroke-miterlimit:4;stroke-dasharray:none;stroke-opacity:1" />
      <path
         style="opacity:0.6;fill:none;fill-opacity:1;stroke:#780000;stroke-width:1;stroke-linecap:butt;stroke-linejoin:round;stroke-miterlimit:4;stroke-dasharray:none;stroke-opacity:1"
         d="m -12,0.5 c -2.485281,7.7e-7 -4.499999,2.0147189 -4.5,4.5 0,3 0.5,4 4.5,9 4,-5 4.5,-6 4.5,-9 -8e-7,-2.4852811 -2.0147189,-4.49999923 -4.5,-4.5 z"
         transform="translate(0,1028.3622)"
         id="path4484" />
      <path
         id="path4486"
         transform="translate(0,1028.3622)"
         d="m -12,1.5 c -1.932997,0 -3.5,1.5670034 -3.5,3.5 0,3 1.5,5 3.5,7.5 C -10,10 -8.5,8 -8.5,5 -8.5,3.0670034 -10.067003,1.5 -12,1.5 Z"
         style="opacity:0.4;fill:none;fill-opacity:1;stroke:url(#linearGradient4497);stroke-width:1;stroke-linecap:butt;stroke-linejoin:round;stroke-miterlimit:4;stroke-dasharray:none;stroke-opacity:1" />
    </g>
  </g>
</svg>
