<?xml version="1.0" encoding="UTF-8" standalone="no"?>
<!-- Created with Inkscape (http://www.inkscape.org/) -->

<svg
   xmlns:dc="http://purl.org/dc/elements/1.1/"
   xmlns:cc="http://creativecommons.org/ns#"
   xmlns:rdf="http://www.w3.org/1999/02/22-rdf-syntax-ns#"
   xmlns:svg="http://www.w3.org/2000/svg"
   xmlns="http://www.w3.org/2000/svg"
   xmlns:xlink="http://www.w3.org/1999/xlink"
   xmlns:sodipodi="http://sodipodi.sourceforge.net/DTD/sodipodi-0.dtd"
   xmlns:inkscape="http://www.inkscape.org/namespaces/inkscape"
   width="24.000011"
   height="24"
   id="svg6000"
   version="1.1"
   inkscape:version="0.48.1 r9760"
   sodipodi:docname="netbeans22.svg">
  <defs
     id="defs6002">
    <linearGradient
       inkscape:collect="always"
       xlink:href="#linearGradient4371"
       id="linearGradient4958"
       gradientUnits="userSpaceOnUse"
       gradientTransform="matrix(0.19098158,0,0,0.19122919,132.66391,86.744821)"
       x1="96.53125"
       y1="96.349068"
       x2="96.53125"
       y2="51.303764" />
    <linearGradient
       inkscape:collect="always"
       id="linearGradient4371">
      <stop
         style="stop-color:#aebdc6;stop-opacity:1;"
         offset="0"
         id="stop4373" />
      <stop
         style="stop-color:#d1dadf;stop-opacity:1"
         offset="1"
         id="stop4375" />
    </linearGradient>
    <linearGradient
       inkscape:collect="always"
       xlink:href="#linearGradient4337"
       id="linearGradient4960"
       gradientUnits="userSpaceOnUse"
       gradientTransform="matrix(0.19098158,0,0,0.19122919,132.66391,86.744821)"
       x1="43.109417"
       y1="95.349419"
       x2="43.109417"
       y2="48.280468" />
    <linearGradient
       inkscape:collect="always"
       id="linearGradient4337">
      <stop
         style="stop-color:#7795cb;stop-opacity:1;"
         offset="0"
         id="stop4339" />
      <stop
         style="stop-color:#a2b7dc;stop-opacity:1"
         offset="1"
         id="stop4341" />
    </linearGradient>
    <linearGradient
       inkscape:collect="always"
       xlink:href="#linearGradient4397"
       id="linearGradient4962"
       gradientUnits="userSpaceOnUse"
       gradientTransform="matrix(-0.19098158,0,0,0.19122919,159.22229,86.744821)"
       x1="43.406246"
       y1="52.561516"
       x2="40.531254"
       y2="59.561516" />
    <linearGradient
       inkscape:collect="always"
       id="linearGradient4397">
      <stop
         style="stop-color:#ffffff;stop-opacity:1;"
         offset="0"
         id="stop4399" />
      <stop
         style="stop-color:#ffffff;stop-opacity:0;"
         offset="1"
         id="stop4401" />
    </linearGradient>
    <linearGradient
       inkscape:collect="always"
       xlink:href="#linearGradient4298"
       id="linearGradient4964"
       gradientUnits="userSpaceOnUse"
       x1="43.016502"
       y1="38.863907"
       x2="43.016502"
       y2="129.62564" />
    <linearGradient
       inkscape:collect="always"
       id="linearGradient4298">
      <stop
         style="stop-color:#ffffff;stop-opacity:1;"
         offset="0"
         id="stop4300" />
      <stop
         style="stop-color:#ffffff;stop-opacity:0;"
         offset="1"
         id="stop4302" />
    </linearGradient>
    <linearGradient
       inkscape:collect="always"
       xlink:href="#linearGradient4298"
       id="linearGradient4966"
       gradientUnits="userSpaceOnUse"
       x1="96.961967"
       y1="39.049812"
       x2="96.961967"
       y2="129.64438" />
    <linearGradient
       inkscape:collect="always"
       xlink:href="#linearGradient4384"
       id="linearGradient4968"
       gradientUnits="userSpaceOnUse"
       gradientTransform="matrix(0.19098158,0,0,0.19122919,132.66391,86.744821)"
       x1="77.531258"
       y1="65.804642"
       x2="115.6882"
       y2="99.304642" />
    <linearGradient
       inkscape:collect="always"
       id="linearGradient4384">
      <stop
         style="stop-color:#ffffff;stop-opacity:1;"
         offset="0"
         id="stop4386" />
      <stop
         style="stop-color:#ffffff;stop-opacity:0;"
         offset="1"
         id="stop4388" />
    </linearGradient>
    <linearGradient
       inkscape:collect="always"
       xlink:href="#linearGradient4397"
       id="linearGradient4970"
       gradientUnits="userSpaceOnUse"
       gradientTransform="matrix(0.19098158,0,0,0.19122919,132.66391,86.744821)"
       x1="43.406246"
       y1="52.561516"
       x2="40.531254"
       y2="59.561516" />
    <linearGradient
       inkscape:collect="always"
       xlink:href="#linearGradient4384"
       id="linearGradient4972"
       gradientUnits="userSpaceOnUse"
       gradientTransform="matrix(-0.19098158,0,0,0.19122919,159.2223,86.744821)"
       x1="77.531258"
       y1="65.804642"
       x2="115.6882"
       y2="99.304642" />
    <radialGradient
       inkscape:collect="always"
       xlink:href="#linearGradient4286"
       id="radialGradient4974"
       gradientUnits="userSpaceOnUse"
       gradientTransform="matrix(0,0.20000381,-0.24087558,0,146.12666,77.767395)"
       cx="57.438339"
       cy="1.0861706"
       fx="57.438339"
       fy="1.0861706"
       r="50.720798" />
    <linearGradient
       id="linearGradient4286">
      <stop
         style="stop-color:#edf5f4;stop-opacity:1;"
         offset="0"
         id="stop4288" />
      <stop
         id="stop4355"
         offset="0.54185843"
         style="stop-color:#c6e0dd;stop-opacity:1;" />
      <stop
         style="stop-color:#9fcbc4;stop-opacity:1;"
         offset="1"
         id="stop4290" />
    </linearGradient>
    <linearGradient
       inkscape:collect="always"
       xlink:href="#linearGradient4298"
       id="linearGradient4976"
       gradientUnits="userSpaceOnUse"
       x1="71.270515"
       y1="20.490189"
       x2="71.270515"
       y2="61.467667" />
    <radialGradient
       r="10.625"
       fy="4.625"
       fx="62.625"
       cy="4.625"
       cx="62.625"
       gradientTransform="matrix(1.1294118,0,0,0.44117577,194.98488,160.49139)"
       gradientUnits="userSpaceOnUse"
       id="radialGradient3024"
       xlink:href="#linearGradient8838"
       inkscape:collect="always" />
    <linearGradient
       id="linearGradient8838">
      <stop
         id="stop8840"
         style="stop-color:#000000;stop-opacity:1"
         offset="0" />
      <stop
         id="stop8842"
         style="stop-color:#000000;stop-opacity:0"
         offset="1" />
    </linearGradient>
  </defs>
  <sodipodi:namedview
     id="base"
     pagecolor="#ffffff"
     bordercolor="#666666"
     borderopacity="1.0"
     inkscape:pageopacity="0.0"
     inkscape:pageshadow="2"
     inkscape:zoom="29.708333"
     inkscape:cx="11.000007"
     inkscape:cy="11"
     inkscape:document-units="px"
     inkscape:current-layer="layer1"
     showgrid="false"
     fit-margin-top="0"
     fit-margin-left="0"
     fit-margin-right="0"
     fit-margin-bottom="0" />
  <metadata
     id="metadata6005">
    <rdf:RDF>
      <cc:Work
         rdf:about="">
        <dc:format>image/svg+xml</dc:format>
        <dc:type
           rdf:resource="http://purl.org/dc/dcmitype/StillImage" />
        <dc:title></dc:title>
      </cc:Work>
    </rdf:RDF>
  </metadata>
  <g
     inkscape:label="Capa 1"
     inkscape:groupmode="layer"
     id="layer1"
     transform="translate(-253.71428,-143.21933)">
    <path
       inkscape:connector-curvature="0"
       style="opacity:0.3;fill:url(#radialGradient3024);fill-opacity:1;fill-rule:evenodd;stroke:none;stroke-width:0.99999988;marker:none;visibility:visible;display:inline;overflow:visible;enable-background:new"
       id="path8836-0"
       d="m 277.71429,162.53183 c 0,2.58884 -5.37258,4.6875 -12,4.6875 -6.62741,0 -12,-2.09866 -12,-4.6875 0,-2.58883 5.37259,-4.6875 12,-4.6875 6.62742,0 12,2.09867 12,4.6875 l 0,0 z" />
    <g
       style="display:inline;enable-background:new"
       id="g4946"
       transform="matrix(1.0355097,0,0,1,114.47757,54.219325)">
      <path
         inkscape:connector-curvature="0"
         id="path4817"
         d="m 155.64735,94.232631 c 0.0331,0.0385 0.0416,0.0757 -0.006,0.1016 -3.13446,1.70447 -9.6093,4.24 -9.66248,4.26082 -7.2e-4,0.29242 -0.0358,8.887179 -0.0358,12.764539 0,0.34187 0.60982,-0.036 0.81167,-0.13146 2.7813,-1.31603 6.35815,-2.76876 8.97017,-4.27875 0.24539,-0.14187 0.4118,-0.46327 0.4118,-0.74699 0,-3.87287 0.0537,-7.253749 0.0537,-11.091289 0,-0.34076 -0.22947,-0.73746 -0.54311,-0.87847 z"
         style="fill:url(#linearGradient4958);fill-opacity:1;stroke:#617e91;stroke-width:0.9827044px;stroke-linecap:round;stroke-linejoin:round;stroke-opacity:1" />
      <path
         sodipodi:nodetypes="csssssscssc"
         inkscape:connector-curvature="0"
         id="path4819"
         d="m 136.50145,94.256531 c -0.0183,0.005 -0.0356,0.0122 -0.0537,0.018 -0.32875,0.10384 -0.53714,0.53928 -0.53714,0.88444 0,3.44067 0.0477,7.204799 0.0477,10.786529 0,0.36765 0.12214,0.82457 0.43568,1.0159 2.27881,1.39055 5.90193,2.85979 8.92838,4.28472 0.19996,0.0942 0.64457,0.37065 0.64457,0.1494 0,-4.97677 -0.0287,-12.536509 -0.0298,-12.806379 -0.0195,-0.009 -0.53336,-0.23422 -1.31718,-0.58137 -2.23749,-0.99097 -6.67502,-2.97214 -8.09464,-3.72128 -0.0146,-0.008 -0.0197,-0.0184 -0.0239,-0.0299 z"
         style="fill:url(#linearGradient4960);fill-opacity:1;stroke:#496ca9;stroke-width:0.9827044px;stroke-linecap:round;stroke-linejoin:round;stroke-opacity:1" />
      <path
         style="opacity:0.7;fill:url(#linearGradient4962);fill-opacity:1;stroke:none"
         d="m 155.38475,94.256541 c 0.0183,0.005 0.0356,0.0122 0.0537,0.0179 0.21239,0.0671 0.37138,0.27182 0.45955,0.50197 -0.0512,0.28629 -0.17571,0.57071 -0.40584,0.71114 -2.27881,1.39056 -5.90193,2.8598 -8.92839,4.28473 -0.17147,0.0807 -0.52403,0.295049 -0.62068,0.21513 10e-4,-0.33828 0.006,-1.35767 0.006,-1.39836 0.0195,-0.009 0.53514,-0.23252 1.31896,-0.57967 2.23748,-0.99097 6.67324,-2.97384 8.09284,-3.72299 0.0146,-0.008 0.0197,-0.0184 0.0239,-0.0299 z"
         id="path4821"
         inkscape:connector-curvature="0" />
      <path
         transform="matrix(0.19098158,0,0,0.19122919,132.66391,86.744821)"
         d="m 22,45.8125 c 0.01505,17.474882 0.25,36.422455 0.25,54.59375 0,0.81159 0.766303,1.57443 -0.125,1.03125 10.402906,6.33977 27.320717,13.44385 42.5,20.4375 C 64.601014,97.934521 64.516223,69.413891 64.5,65.21875 62.160343,64.190743 55.907894,61.436067 46.4375,57.1875 36.994813,52.951362 28.144507,48.851428 22,45.8125 z"
         id="path4823"
         style="opacity:0.7;fill:none;stroke:url(#linearGradient4964);stroke-width:5.14221287px;stroke-linecap:round;stroke-linejoin:round;stroke-opacity:1"
         inkscape:original="M 20.09375 39.28125 C 19.99811 39.30917 19.907232 39.34512 19.8125 39.375 C 18.09118 39.917989 17 42.195069 17 44 C 17 61.99237 17.25 81.676262 17.25 100.40625 C 17.25 102.32881 17.889534 104.71825 19.53125 105.71875 C 31.46335 112.99045 50.434401 120.67356 66.28125 128.125 C 67.328262 128.61732 69.65625 130.06324 69.65625 128.90625 C 69.65625 102.88104 69.506006 63.34874 69.5 61.9375 C 69.105973 61.764476 30.255943 44.727398 20.21875 39.4375 C 20.1423 39.39721 20.11562 39.34096 20.09375 39.28125 z "
         inkscape:radius="-5.0096698"
         sodipodi:type="inkscape:offset" />
      <path
         transform="matrix(0.19098158,0,0,0.19122919,132.66391,86.744821)"
         d="m 118,43.75 c 0,0.40257 -0.1467,0.176413 0,0.125 0,-0.04312 0,-0.08186 0,-0.125 z m 0,2.84375 c -16.24845,8.194483 -38.352517,17.01372 -43.09375,18.875 -0.01957,4.979325 -0.128024,35.64906 -0.15625,56.4375 14.066815,-6.51348 30.66859,-13.50122 42.90625,-20.5 -0.0128,0.0226 0.0625,0.0697 0.0625,0.34375 0,-0.13125 -2e-5,-0.24397 0,-0.375 0.003,-19.142125 0.25648,-36.078269 0.28125,-54.78125 z"
         id="path4825"
         style="opacity:0.7;fill:none;stroke:url(#linearGradient4966);stroke-width:5.14221287px;stroke-linecap:round;stroke-linejoin:round;stroke-opacity:1"
         inkscape:original="M 120.34375 39.15625 C 120.51695 39.357474 120.56167 39.552154 120.3125 39.6875 C 103.90013 48.600707 69.997204 61.85987 69.71875 61.96875 C 69.71305 63.49792 69.53125 108.44274 69.53125 128.71875 C 69.53125 130.50646 72.724328 128.5307 73.78125 128.03125 C 88.344459 121.14932 107.0732 113.55255 120.75 105.65625 C 122.03491 104.9144 122.90625 103.23369 122.90625 101.75 C 122.90625 81.497549 123.1875 63.81781 123.1875 43.75 C 123.1875 41.968115 121.98599 39.893652 120.34375 39.15625 z "
         inkscape:radius="-5.1893806"
         sodipodi:type="inkscape:offset" />
      <path
         sodipodi:nodetypes="cscssssssc"
         inkscape:connector-curvature="0"
         id="path4827"
         d="m 155.64735,94.232631 c 0.0331,0.0385 0.0416,0.0757 -0.006,0.1016 -3.13446,1.70447 -9.60929,4.24 -9.66248,4.26082 -7.2e-4,0.29242 -0.0358,8.887189 -0.0358,12.764539 0,0.34187 0.60982,-0.036 0.81167,-0.13146 0.47401,-0.22429 1.21547,-1.3737 1.29509,-1.93023 0,0 -0.26743,-6.11807 1.22943,-8.59335 1.47049,-2.431639 5.85973,-3.762689 5.86076,-4.314609 3.8e-4,-0.20567 1.0504,-1.07065 1.0504,-1.27884 0,-0.34076 -0.22948,-0.73745 -0.54311,-0.87847 z"
         style="opacity:0.4;fill:url(#linearGradient4968);fill-opacity:1;stroke:none" />
      <path
         inkscape:connector-curvature="0"
         id="path4829"
         d="m 136.50145,94.256541 c -0.0183,0.005 -0.0356,0.0122 -0.0537,0.0179 -0.2124,0.0671 -0.37138,0.27182 -0.45955,0.50197 0.0512,0.28629 0.1757,0.57071 0.40583,0.71114 2.27882,1.39056 5.90194,2.8598 8.9284,4.28473 0.17146,0.0807 0.52403,0.295049 0.62068,0.21513 -7.2e-4,-0.33828 -0.006,-1.35767 -0.006,-1.39836 -0.0195,-0.009 -0.53514,-0.23252 -1.31896,-0.57967 -2.23749,-0.99097 -6.67324,-2.97384 -8.09285,-3.72299 -0.0146,-0.008 -0.0197,-0.0184 -0.0239,-0.0299 z"
         style="opacity:0.5;fill:url(#linearGradient4970);fill-opacity:1;stroke:none" />
      <path
         style="opacity:0.15;fill:url(#linearGradient4972);fill-opacity:1;stroke:none"
         d="m 136.23887,94.232631 c -0.0331,0.0385 -0.0416,0.0757 0.006,0.1016 3.13446,1.70447 9.60929,4.24 9.66248,4.26082 7.2e-4,0.29242 0.0358,8.887189 0.0358,12.764539 0,0.34187 -0.60982,-0.036 -0.81167,-0.13146 -0.47401,-0.22429 -1.21547,-1.3737 -1.29509,-1.93023 0,0 0.26742,-6.11807 -1.22944,-8.59335 -1.47048,-2.431639 -5.85973,-3.762689 -5.86075,-4.314609 -3.9e-4,-0.20567 -1.0504,-1.07065 -1.0504,-1.27884 0,-0.34076 0.22947,-0.73745 0.5431,-0.87847 z"
         id="path4831"
         inkscape:connector-curvature="0"
         sodipodi:nodetypes="cscssssssc" />
      <path
         sodipodi:nodetypes="cssssssc"
         inkscape:connector-curvature="0"
         id="path4833"
         d="m 145.96168,98.601751 c 0,0 -7.50836,-3.30089 -9.43502,-4.31762 -0.1168,-0.0616 0.13056,-0.25989 0.25232,-0.31042 3.48716,-1.44727 5.40112,-2.1677 8.40563,-3.31976 0.51153,-0.19615 1.2022,-0.18719 1.58056,-0.0719 2.84951,0.86815 5.27611,2.05261 8.45779,3.40436 0.16603,0.0705 0.57874,0.26037 0.41997,0.3467 -3.14737,1.71149 -9.68125,4.26866 -9.68125,4.26866 z"
         style="fill:url(#radialGradient4974);fill-opacity:1;stroke:#49a998;stroke-width:0.9827044px;stroke-linecap:round;stroke-linejoin:round;stroke-opacity:1;display:inline;enable-background:new" />
      <path
         transform="matrix(0.19098158,0,0,0.19122919,132.66391,86.744821)"
         d="m 70.09375,24.75 c -1.068946,0.02959 -2.158057,0.222784 -2.71875,0.4375 -12.758441,4.88582 -22.939417,8.904179 -35.5625,14.03125 13.755083,6.497853 35.142472,16.06369 37.90625,17.28125 2.660325,-1.049315 23.276048,-9.318481 39.375,-17 C 95.898908,33.761717 84.58848,28.653732 72.375,24.9375 72.220736,24.890562 71.16001,24.720486 70.09375,24.75 z"
         id="path4835"
         style="opacity:0.7;fill:none;stroke:url(#linearGradient4976);stroke-width:5.14221287px;stroke-linecap:round;stroke-linejoin:round;stroke-opacity:1;display:inline;enable-background:new"
         inkscape:original="M 69.96875 19.65625 C 68.482203 19.697397 66.90171 19.924653 65.5625 20.4375 C 49.830547 26.46202 39.821588 30.244295 21.5625 37.8125 C 20.924924 38.076768 19.607164 39.115176 20.21875 39.4375 C 30.306979 44.754296 69.625 62 69.625 62 C 69.625 62 103.83258 48.637393 120.3125 39.6875 C 121.14385 39.236015 118.99434 38.243868 118.125 37.875 C 101.46541 30.806182 88.76409 24.602357 73.84375 20.0625 C 72.853189 19.761099 71.455297 19.615103 69.96875 19.65625 z "
         inkscape:radius="-5.0801167"
         sodipodi:type="inkscape:offset" />
    </g>
  </g>
</svg>
