<?xml version="1.0" encoding="UTF-8" standalone="no"?>
<!-- Created with Inkscape (http://www.inkscape.org/) -->

<svg
   xmlns:dc="http://purl.org/dc/elements/1.1/"
   xmlns:cc="http://creativecommons.org/ns#"
   xmlns:rdf="http://www.w3.org/1999/02/22-rdf-syntax-ns#"
   xmlns:svg="http://www.w3.org/2000/svg"
   xmlns="http://www.w3.org/2000/svg"
   xmlns:xlink="http://www.w3.org/1999/xlink"
   xmlns:sodipodi="http://sodipodi.sourceforge.net/DTD/sodipodi-0.dtd"
   xmlns:inkscape="http://www.inkscape.org/namespaces/inkscape"
   width="24"
   height="24"
   viewBox="0 0 24 24"
   id="svg4812"
   version="1.1"
   inkscape:version="0.91 r"
   sodipodi:docname="nylas-n1-24.svg">
  <defs
     id="defs4814">
    <linearGradient
       inkscape:collect="always"
       id="linearGradient5394">
      <stop
         style="stop-color:#000000;stop-opacity:1;"
         offset="0"
         id="stop5396" />
      <stop
         style="stop-color:#000000;stop-opacity:0;"
         offset="1"
         id="stop5398" />
    </linearGradient>
    <linearGradient
       inkscape:collect="always"
       id="linearGradient5380">
      <stop
         style="stop-color:#ffffff;stop-opacity:1;"
         offset="0"
         id="stop5382" />
      <stop
         id="stop5388"
         offset="0.21292116"
         style="stop-color:#ffffff;stop-opacity:0.23529412" />
      <stop
         style="stop-color:#ffffff;stop-opacity:0.15686275"
         offset="0.76530349"
         id="stop5390" />
      <stop
         style="stop-color:#ffffff;stop-opacity:0.39215687"
         offset="1"
         id="stop5384" />
    </linearGradient>
    <radialGradient
       inkscape:collect="always"
       xlink:href="#linearGradient4177"
       id="radialGradient5373"
       cx="9.9911003"
       cy="1035.1057"
       fx="9.9911003"
       fy="1035.1057"
       r="10.5"
       gradientUnits="userSpaceOnUse"
       gradientTransform="matrix(-5.7041504e-6,2,-1.8095367,-5.1609347e-6,1885.0618,1013.3853)" />
    <radialGradient
       inkscape:collect="always"
       xlink:href="#linearGradient5394"
       id="radialGradient5400"
       cx="12"
       cy="1049.3622"
       fx="12"
       fy="1049.3622"
       r="12"
       gradientTransform="matrix(1,0,0,0.25,0,787.02164)"
       gradientUnits="userSpaceOnUse" />
    <linearGradient
       id="linearGradient4644-104-3-3-6-2-3-4-1">
      <stop
         offset="0"
         style="stop-color:#ff4035;stop-opacity:1;"
         id="stop5237-6-5-1-7-5-2-4" />
      <stop
         offset="1"
         style="stop-color:#dc311a;stop-opacity:1;"
         id="stop5239-4-6-4-8-4-8-9" />
    </linearGradient>
    <linearGradient
       inkscape:collect="always"
       xlink:href="#linearGradient5380"
       id="linearGradient4166"
       x1="11.964534"
       y1="1030.3882"
       x2="11.964534"
       y2="1050.2637"
       gradientUnits="userSpaceOnUse" />
    <linearGradient
       id="linearGradient4177">
      <stop
         style="stop-color:#39a8ff;stop-opacity:1"
         offset="0"
         id="stop4179" />
      <stop
         style="stop-color:#2850bf;stop-opacity:1"
         offset="1"
         id="stop4181" />
    </linearGradient>
  </defs>
  <sodipodi:namedview
     id="base"
     pagecolor="#ffffff"
     bordercolor="#666666"
     borderopacity="1.0"
     inkscape:pageopacity="0.0"
     inkscape:pageshadow="2"
     inkscape:zoom="16.844977"
     inkscape:cx="9.126615"
     inkscape:cy="9.6297962"
     inkscape:document-units="px"
     inkscape:current-layer="layer1"
     showgrid="true"
     units="px"
     inkscape:window-width="1366"
     inkscape:window-height="713"
     inkscape:window-x="0"
     inkscape:window-y="30"
     inkscape:window-maximized="1">
    <inkscape:grid
       type="xygrid"
       id="grid4232" />
  </sodipodi:namedview>
  <metadata
     id="metadata4817">
    <rdf:RDF>
      <cc:Work
         rdf:about="">
        <dc:format>image/svg+xml</dc:format>
        <dc:type
           rdf:resource="http://purl.org/dc/dcmitype/StillImage" />
        <dc:title></dc:title>
      </cc:Work>
    </rdf:RDF>
  </metadata>
  <g
     inkscape:label="Livello 1"
     inkscape:groupmode="layer"
     id="layer1"
     transform="translate(0,-1028.3622)">
    <rect
       style="opacity:0.4;fill:url(#radialGradient5400);fill-opacity:1;stroke:none;stroke-width:3;stroke-linejoin:round;stroke-miterlimit:4;stroke-dasharray:none;stroke-opacity:1"
       id="rect5392"
       width="24"
       height="6"
       x="0"
       y="1046.3622" />
    <circle
       style="opacity:1;fill:url(#radialGradient5373);fill-opacity:1;stroke:none;stroke-width:3;stroke-linejoin:round;stroke-miterlimit:4;stroke-dasharray:none;stroke-opacity:1"
       id="path5365"
       cx="12"
       cy="1040.3622"
       r="10.5" />
    <circle
       r="10.5"
       cy="1040.3622"
       cx="12"
       id="circle4154"
       style="opacity:0.6;fill:none;fill-opacity:1;stroke:#144682;stroke-width:1;stroke-linejoin:round;stroke-miterlimit:4;stroke-dasharray:none;stroke-opacity:1" />
    <circle
       r="9.5"
       cy="1040.3623"
       cx="12.000002"
       id="circle4156"
       style="opacity:0.4;fill:none;fill-opacity:1;stroke:url(#linearGradient4166);stroke-width:1;stroke-linejoin:round;stroke-miterlimit:4;stroke-dasharray:none;stroke-opacity:1" />
    <path
       sodipodi:nodetypes="cccccccccccccccccccccccccccccccc"
       inkscape:connector-curvature="0"
       id="path4177"
       d="m 12.5,1034.1507 0,3 5.5,3.1754 0,-3 z m -6.5,2.2473 0,1 5.5,3.1753 0,-3 -3.5,-2.0206 c -2,-1.1547 -2,0.8453 -2,0.8453 z m 6.5,1.7527 0,3 5.5,3.1754 0,-3 z m -6.5,0.2477 0,3 5.5,3.1754 0,-3 z m 6.5,3.7527 0,3 3.5,2.0207 c 0,0 2,1.1547 2,-0.8453 l 0,-1 z m -6.5,0.2477 0,3 5.5,3.1754 0,-3 z"
       style="display:inline;opacity:0.07;fill:#000000;fill-opacity:1;stroke:#000000;stroke-width:1;stroke-linecap:round;stroke-linejoin:round;stroke-miterlimit:4;stroke-dasharray:none;stroke-opacity:1;enable-background:new" />
    <path
       style="display:inline;opacity:0.15000013;fill:#000000;fill-opacity:1;stroke:none;stroke-width:2;stroke-linecap:round;stroke-linejoin:round;stroke-miterlimit:4;stroke-dasharray:none;stroke-opacity:1;enable-background:new"
       d="m 12.5,1034.1507 0,3 5.5,3.1754 0,-3 z m -6.5,2.2473 0,1 5.5,3.1753 0,-3 -3.5,-2.0206 c -2,-1.1547 -2,0.8453 -2,0.8453 z m 6.5,1.7527 0,3 5.5,3.1754 0,-3 z m -6.5,0.2477 0,3 5.5,3.1754 0,-3 z m 6.5,3.7527 0,3 3.5,2.0207 c 0,0 2,1.1547 2,-0.8453 l 0,-1 z m -6.5,0.2477 0,3 5.5,3.1754 0,-3 z"
       id="path4175"
       inkscape:connector-curvature="0"
       sodipodi:nodetypes="cccccccccccccccccccccccccccccccc" />
    <path
       sodipodi:nodetypes="cccccccccccccccccccccccccccccccc"
       inkscape:connector-curvature="0"
       id="path4361"
       d="m 12.5,1033.1504 0,3 5.5,3.1754 0,-3 z m -6.5,2.2473 0,1 5.5,3.1753 0,-3 -3.5,-2.0206 c -2,-1.1547 -2,0.8453 -2,0.8453 z m 6.5,1.7527 0,3 5.5,3.1754 0,-3 z m -6.5,0.2477 0,3 5.5,3.1754 0,-3 z m 6.5,3.7527 0,3 3.5,2.0207 c 0,0 2,1.1547 2,-0.8453 l 0,-1 z m -6.5,0.2477 0,3 5.5,3.1754 0,-3 z"
       style="display:inline;opacity:1;fill:#ffffff;fill-opacity:1;stroke:none;stroke-width:2;stroke-linecap:round;stroke-linejoin:round;stroke-miterlimit:4;stroke-dasharray:none;stroke-opacity:1;enable-background:new" />
  </g>
</svg>
