<?xml version="1.0" encoding="UTF-8" standalone="no"?>
<!-- Created with Inkscape (http://www.inkscape.org/) -->

<svg
   xmlns:dc="http://purl.org/dc/elements/1.1/"
   xmlns:cc="http://creativecommons.org/ns#"
   xmlns:rdf="http://www.w3.org/1999/02/22-rdf-syntax-ns#"
   xmlns:svg="http://www.w3.org/2000/svg"
   xmlns="http://www.w3.org/2000/svg"
   xmlns:xlink="http://www.w3.org/1999/xlink"
   xmlns:sodipodi="http://sodipodi.sourceforge.net/DTD/sodipodi-0.dtd"
   xmlns:inkscape="http://www.inkscape.org/namespaces/inkscape"
   width="24"
   height="24"
   viewBox="0 0 24 24"
   id="svg4812"
   version="1.1"
   inkscape:version="0.91 r"
   sodipodi:docname="preferences-desktop-sound-24.svg">
  <defs
     id="defs4814">
    <linearGradient
       inkscape:collect="always"
       id="linearGradient5394">
      <stop
         style="stop-color:#000000;stop-opacity:1;"
         offset="0"
         id="stop5396" />
      <stop
         style="stop-color:#000000;stop-opacity:0;"
         offset="1"
         id="stop5398" />
    </linearGradient>
    <linearGradient
       inkscape:collect="always"
       id="linearGradient5380">
      <stop
         style="stop-color:#ffffff;stop-opacity:1;"
         offset="0"
         id="stop5382" />
      <stop
         id="stop5388"
         offset="0.21292116"
         style="stop-color:#ffffff;stop-opacity:0.23529412" />
      <stop
         style="stop-color:#ffffff;stop-opacity:0.15686275"
         offset="0.76530349"
         id="stop5390" />
      <stop
         style="stop-color:#ffffff;stop-opacity:0.39215687"
         offset="1"
         id="stop5384" />
    </linearGradient>
    <radialGradient
       inkscape:collect="always"
       xlink:href="#linearGradient5394"
       id="radialGradient5400"
       cx="12"
       cy="1049.3622"
       fx="12"
       fy="1049.3622"
       r="12"
       gradientTransform="matrix(1,0,0,0.25,0,787.02164)"
       gradientUnits="userSpaceOnUse" />
    <linearGradient
       id="linearGradient4644-104-3-3-6-2-3-4-1">
      <stop
         offset="0"
         style="stop-color:#ff4035;stop-opacity:1;"
         id="stop5237-6-5-1-7-5-2-4" />
      <stop
         offset="1"
         style="stop-color:#dc311a;stop-opacity:1;"
         id="stop5239-4-6-4-8-4-8-9" />
    </linearGradient>
    <linearGradient
       id="linearGradient4177">
      <stop
         id="stop4306"
         offset="0"
         style="stop-color:#f5f5f5;stop-opacity:1" />
      <stop
         id="stop4308"
         offset="1"
         style="stop-color:#bebebe;stop-opacity:1" />
    </linearGradient>
    <linearGradient
       inkscape:collect="always"
       xlink:href="#linearGradient4221"
       id="linearGradient4200"
       x1="36.782623"
       y1="1041.8406"
       x2="36.782623"
       y2="999.18817"
       gradientUnits="userSpaceOnUse"
       gradientTransform="matrix(0.37209331,0,0,0.37209331,0.09301144,-1420.0319)" />
    <linearGradient
       id="linearGradient4221"
       inkscape:collect="always">
      <stop
         id="stop4223"
         offset="0"
         style="stop-color:#333333;stop-opacity:1" />
      <stop
         id="stop4225"
         offset="1"
         style="stop-color:#5a5a5a;stop-opacity:1" />
    </linearGradient>
    <linearGradient
       inkscape:collect="always"
       xlink:href="#linearGradient4227"
       id="linearGradient4214"
       gradientUnits="userSpaceOnUse"
       x1="30"
       y1="998.97229"
       x2="30"
       y2="1041.7429"
       gradientTransform="matrix(0.27906974,0,0,0.27906974,3.0697667,755.6101)" />
    <linearGradient
       id="linearGradient4227"
       inkscape:collect="always">
      <stop
         id="stop4229"
         offset="0"
         style="stop-color:#e6b43c;stop-opacity:1" />
      <stop
         id="stop4231"
         offset="1"
         style="stop-color:#ffeb5a;stop-opacity:1" />
    </linearGradient>
    <linearGradient
       inkscape:collect="always"
       xlink:href="#linearGradient4221"
       id="linearGradient4219"
       gradientUnits="userSpaceOnUse"
       gradientTransform="matrix(0.13953487,0,0,0.13953487,7.5348832,-1182.7384)"
       x1="30"
       y1="1000.9114"
       x2="30"
       y2="1042.3622" />
    <linearGradient
       gradientTransform="matrix(0.33333332,0,0,0.4285715,1.333331,603.9213)"
       inkscape:collect="always"
       xlink:href="#linearGradient4247"
       id="linearGradient4255"
       x1="32"
       y1="1011.3622"
       x2="32"
       y2="1018.3622"
       gradientUnits="userSpaceOnUse" />
    <linearGradient
       inkscape:collect="always"
       id="linearGradient4247">
      <stop
         style="stop-color:#ffffff;stop-opacity:1;"
         offset="0"
         id="stop4249" />
      <stop
         style="stop-color:#ffffff;stop-opacity:0;"
         offset="1"
         id="stop4251" />
    </linearGradient>
    <radialGradient
       inkscape:collect="always"
       xlink:href="#linearGradient4177"
       id="radialGradient4184"
       cx="36.000004"
       cy="1027.3622"
       fx="36.000004"
       fy="1027.3622"
       r="10.5"
       gradientUnits="userSpaceOnUse"
       gradientTransform="matrix(2.6110595e-6,2.5714302,-1.5238079,1.5472919e-6,1601.5025,934.7891)" />
    <linearGradient
       inkscape:collect="always"
       xlink:href="#linearGradient5380"
       id="linearGradient4197"
       x1="36"
       y1="2"
       x2="36"
       y2="22"
       gradientUnits="userSpaceOnUse" />
  </defs>
  <sodipodi:namedview
     id="base"
     pagecolor="#ffffff"
     bordercolor="#666666"
     borderopacity="1.0"
     inkscape:pageopacity="0.0"
     inkscape:pageshadow="2"
     inkscape:zoom="13.19072"
     inkscape:cx="12.008774"
     inkscape:cy="13.149476"
     inkscape:document-units="px"
     inkscape:current-layer="layer1"
     showgrid="true"
     units="px"
     inkscape:window-width="1366"
     inkscape:window-height="713"
     inkscape:window-x="0"
     inkscape:window-y="30"
     inkscape:window-maximized="1">
    <inkscape:grid
       type="xygrid"
       id="grid4232" />
  </sodipodi:namedview>
  <metadata
     id="metadata4817">
    <rdf:RDF>
      <cc:Work
         rdf:about="">
        <dc:format>image/svg+xml</dc:format>
        <dc:type
           rdf:resource="http://purl.org/dc/dcmitype/StillImage" />
        <dc:title />
      </cc:Work>
    </rdf:RDF>
  </metadata>
  <g
     inkscape:label="Livello 1"
     inkscape:groupmode="layer"
     id="layer1"
     transform="translate(0,-1028.3622)">
    <rect
       style="opacity:0.4;fill:url(#radialGradient5400);fill-opacity:1;stroke:none;stroke-width:3;stroke-linejoin:round;stroke-miterlimit:4;stroke-dasharray:none;stroke-opacity:1"
       id="rect5392"
       width="24"
       height="6"
       x="0"
       y="1046.3622" />
    <g
       id="g4201"
       transform="translate(-24,1.0468747e-4)">
      <path
         inkscape:connector-curvature="0"
         id="path4172"
         d="m 36,1029.8622 a 10.500001,10.500001 0 0 0 -6.142578,2 l -1.357422,0 c -0.554,0 -1,0.446 -1,1 l 0,1.3516 a 10.500001,10.500001 0 0 0 -2,6.1484 10.500001,10.500001 0 0 0 2,6.1426 l 0,1.3574 c 0,0.554 0.446,1 1,1 l 1.351563,0 a 10.500001,10.500001 0 0 0 6.148437,2 10.500001,10.500001 0 0 0 6.142578,-2 l 1.357422,0 c 0.554,0 1,-0.446 1,-1 l 0,-1.3535 a 10.500001,10.500001 0 0 0 2,-6.1465 10.500001,10.500001 0 0 0 -2,-6.1426 l 0,-1.3574 c 0,-0.554 -0.446,-1 -1,-1 l -1.351562,0 a 10.500001,10.500001 0 0 0 -6.148438,-2 z"
         style="opacity:1;fill:url(#radialGradient4184);fill-opacity:1;stroke:none;stroke-width:1;stroke-linecap:butt;stroke-linejoin:miter;stroke-miterlimit:4;stroke-dasharray:none;stroke-opacity:1" />
      <path
         id="path4186"
         transform="translate(0,1028.3622)"
         d="m 36,2.5 a 9.5,9.5 0 0 0 -5.824219,2 L 28.5,4.5 l 0,1.6894531 A 9.5,9.5 0 0 0 26.5,12 a 9.5,9.5 0 0 0 2,5.824219 l 0,1.675781 1.689453,0 A 9.5,9.5 0 0 0 36,21.5 a 9.5,9.5 0 0 0 5.824219,-2 l 1.675781,0 0,-1.689453 A 9.5,9.5 0 0 0 45.5,12 9.5,9.5 0 0 0 43.5,6.1757812 L 43.5,4.5 41.810547,4.5 A 9.5,9.5 0 0 0 36,2.5 Z"
         style="opacity:1;fill:none;fill-opacity:1;stroke:url(#linearGradient4197);stroke-width:1;stroke-linecap:butt;stroke-linejoin:miter;stroke-miterlimit:4;stroke-dasharray:none;stroke-opacity:1"
         inkscape:connector-curvature="0" />
      <path
         style="opacity:0.3;fill:none;fill-opacity:1;stroke:#000000;stroke-width:1;stroke-linecap:butt;stroke-linejoin:miter;stroke-miterlimit:4;stroke-dasharray:none;stroke-opacity:1"
         d="m 36,1029.8622 a 10.500001,10.500001 0 0 0 -6.142578,2 l -1.357422,0 c -0.554,0 -1,0.446 -1,1 l 0,1.3516 a 10.500001,10.500001 0 0 0 -2,6.1484 10.500001,10.500001 0 0 0 2,6.1426 l 0,1.3574 c 0,0.554 0.446,1 1,1 l 1.351563,0 a 10.500001,10.500001 0 0 0 6.148437,2 10.500001,10.500001 0 0 0 6.142578,-2 l 1.357422,0 c 0.554,0 1,-0.446 1,-1 l 0,-1.3535 a 10.500001,10.500001 0 0 0 2,-6.1465 10.500001,10.500001 0 0 0 -2,-6.1426 l 0,-1.3574 c 0,-0.554 -0.446,-1 -1,-1 l -1.351562,0 a 10.500001,10.500001 0 0 0 -6.148438,-2 z"
         id="path4199"
         inkscape:connector-curvature="0" />
    </g>
    <circle
       style="opacity:1;fill:url(#linearGradient4200);fill-opacity:1;stroke:none;stroke-width:1;stroke-linecap:butt;stroke-linejoin:round;stroke-miterlimit:4;stroke-dasharray:none;stroke-opacity:1"
       id="path4192"
       cx="12"
       cy="-1040.3623"
       r="8"
       transform="scale(1,-1)" />
    <circle
       r="6"
       cy="1040.3623"
       cx="12"
       id="circle4212"
       style="opacity:1;fill:url(#linearGradient4214);fill-opacity:1;stroke:none;stroke-width:1;stroke-linecap:butt;stroke-linejoin:round;stroke-miterlimit:4;stroke-dasharray:none;stroke-opacity:1" />
    <circle
       style="opacity:1;fill:url(#linearGradient4219);fill-opacity:1;stroke:none;stroke-width:1;stroke-linecap:butt;stroke-linejoin:round;stroke-miterlimit:4;stroke-dasharray:none;stroke-opacity:1"
       id="circle4217"
       cx="12"
       cy="-1040.3623"
       r="3"
       transform="scale(1,-1)" />
    <ellipse
       style="opacity:0.3;fill:url(#linearGradient4255);fill-opacity:1;stroke:none;stroke-width:1;stroke-linecap:butt;stroke-linejoin:round;stroke-miterlimit:4;stroke-dasharray:none;stroke-opacity:1"
       id="path4245"
       cx="12"
       cy="1038.8622"
       rx="1.9999998"
       ry="1.4999999" />
  </g>
</svg>
