<?xml version="1.0" encoding="UTF-8" standalone="no"?>
<!-- Created with Inkscape (http://www.inkscape.org/) -->

<svg
   xmlns:dc="http://purl.org/dc/elements/1.1/"
   xmlns:cc="http://creativecommons.org/ns#"
   xmlns:rdf="http://www.w3.org/1999/02/22-rdf-syntax-ns#"
   xmlns:svg="http://www.w3.org/2000/svg"
   xmlns="http://www.w3.org/2000/svg"
   xmlns:xlink="http://www.w3.org/1999/xlink"
   xmlns:sodipodi="http://sodipodi.sourceforge.net/DTD/sodipodi-0.dtd"
   xmlns:inkscape="http://www.inkscape.org/namespaces/inkscape"
   width="24"
   height="24"
   id="svg4493"
   version="1.1"
   inkscape:version="0.48.4 r9939"
   sodipodi:docname="puddletag.svg">
  <defs
     id="defs4495">
    <linearGradient
       id="linearGradient4222">
      <stop
         id="stop4224"
         style="stop-color:#ffffff;stop-opacity:1"
         offset="0" />
      <stop
         id="stop4226"
         style="stop-color:#ffffff;stop-opacity:0"
         offset="1" />
    </linearGradient>
    <linearGradient
       id="linearGradient2867-449-88-871-390-598-476-591-434-148-958-144-827-141-6">
      <stop
         offset="0"
         style="stop-color:#6af7f7;stop-opacity:1;"
         id="stop10190-4" />
      <stop
         offset="0.26238"
         style="stop-color:#62c5f5;stop-opacity:1;"
         id="stop10192-1" />
      <stop
         offset="0.704952"
         style="stop-color:#4a8ad2;stop-opacity:1;"
         id="stop10194-9" />
      <stop
         offset="1"
         style="stop-color:#2b6bb1;stop-opacity:1;"
         id="stop10196-8" />
    </linearGradient>
    <linearGradient
       id="linearGradient3707-319-631-396-347-895-373-4">
      <stop
         offset="0"
         style="stop-color:#345676;stop-opacity:1;"
         id="stop10200-9" />
      <stop
         offset="1"
         style="stop-color:#78b0d2;stop-opacity:1;"
         id="stop10204-0" />
    </linearGradient>
    <linearGradient
       inkscape:collect="always"
       xlink:href="#linearGradient4222-7"
       id="linearGradient3869"
       gradientUnits="userSpaceOnUse"
       gradientTransform="matrix(0.48820757,0,0,0.5127765,3.1596484,7.5353929)"
       x1="18.110691"
       y1="8.2320061"
       x2="18.110691"
       y2="44.100899" />
    <linearGradient
       id="linearGradient4222-7">
      <stop
         id="stop4224-9"
         style="stop-color:#ffffff;stop-opacity:1"
         offset="0" />
      <stop
         id="stop4226-3"
         style="stop-color:#ffffff;stop-opacity:0"
         offset="1" />
    </linearGradient>
    <linearGradient
       inkscape:collect="always"
       xlink:href="#linearGradient4222-7"
       id="linearGradient3713"
       gradientUnits="userSpaceOnUse"
       x1="17.422222"
       y1="7.2707062"
       x2="17.422222"
       y2="24.373737" />
    <linearGradient
       y2="57.938599"
       x2="-67.681168"
       y1="23.898327"
       x1="-67.701897"
       gradientTransform="matrix(0.4503686,2.452074e-4,-2.742051e-4,0.40274137,52.788895,-1.9657329)"
       gradientUnits="userSpaceOnUse"
       id="linearGradient4770"
       xlink:href="#linearGradient4747"
       inkscape:collect="always" />
    <linearGradient
       id="linearGradient4747">
      <stop
         id="stop4749"
         style="stop-color:#ffffff;stop-opacity:1;"
         offset="0" />
      <stop
         id="stop4751"
         style="stop-color:#d2d2d2;stop-opacity:1;"
         offset="1" />
    </linearGradient>
    <linearGradient
       y2="64.665039"
       x2="-67.677078"
       y1="23.898327"
       x1="-67.701897"
       gradientTransform="matrix(0.4503686,2.452074e-4,-2.742051e-4,0.40274137,52.788895,-1.9657329)"
       gradientUnits="userSpaceOnUse"
       id="linearGradient4808-0"
       xlink:href="#linearGradient4747"
       inkscape:collect="always" />
    <linearGradient
       y2="58.244873"
       x2="-67.680984"
       y1="23.898327"
       x1="-67.701897"
       gradientTransform="matrix(0.4503686,2.452074e-4,-2.742051e-4,0.40274137,52.788895,-1.9657329)"
       gradientUnits="userSpaceOnUse"
       id="linearGradient4808"
       xlink:href="#linearGradient4747"
       inkscape:collect="always" />
    <linearGradient
       y2="64.665039"
       x2="-67.677078"
       y1="23.898327"
       x1="-67.701897"
       gradientTransform="matrix(0.4503686,2.452074e-4,-2.742051e-4,0.40274137,52.788895,-1.9657329)"
       gradientUnits="userSpaceOnUse"
       id="linearGradient4558-3"
       xlink:href="#linearGradient4747"
       inkscape:collect="always" />
    <linearGradient
       y2="64.665039"
       x2="-67.677078"
       y1="23.898327"
       x1="-67.701897"
       gradientTransform="matrix(0.4503686,2.452074e-4,-2.742051e-4,0.40274137,52.788895,-1.9657329)"
       gradientUnits="userSpaceOnUse"
       id="linearGradient4558-3-7"
       xlink:href="#linearGradient4747"
       inkscape:collect="always" />
    <linearGradient
       inkscape:collect="always"
       xlink:href="#linearGradient2867-449-88-871-390-598-476-591-434-148-57-177"
       id="linearGradient3803"
       gradientUnits="userSpaceOnUse"
       gradientTransform="matrix(0.21987336,1.3933474e-4,-1.33869e-4,0.22885061,26.01156,3.9262049)"
       x1="-60.969666"
       y1="13.668072"
       x2="-60.908253"
       y2="114.5354" />
    <linearGradient
       id="linearGradient3104-9">
      <stop
         offset="0"
         style="stop-color:#a0a0a0;stop-opacity:1"
         id="stop3106-9" />
      <stop
         offset="1"
         style="stop-color:#c8c8c8;stop-opacity:1"
         id="stop3108-3" />
    </linearGradient>
    <radialGradient
       inkscape:collect="always"
       xlink:href="#linearGradient3688"
       id="radialGradient3622"
       gradientUnits="userSpaceOnUse"
       gradientTransform="matrix(2.003784,0,0,1.4,27.98813,-17.4)"
       cx="4.9929786"
       cy="43.5"
       fx="4.9929786"
       fy="43.5"
       r="2.5" />
    <linearGradient
       id="linearGradient3688">
      <stop
         offset="0"
         style="stop-color:black;stop-opacity:1"
         id="stop3690" />
      <stop
         offset="1"
         style="stop-color:black;stop-opacity:0"
         id="stop3692" />
    </linearGradient>
    <radialGradient
       inkscape:collect="always"
       xlink:href="#linearGradient3688"
       id="radialGradient3624"
       gradientUnits="userSpaceOnUse"
       gradientTransform="matrix(2.003784,0,0,1.4,-20.01187,-104.4)"
       cx="4.9929786"
       cy="43.5"
       fx="4.9929786"
       fy="43.5"
       r="2.5" />
    <linearGradient
       inkscape:collect="always"
       xlink:href="#linearGradient3702"
       id="linearGradient3626"
       gradientUnits="userSpaceOnUse"
       x1="25.058096"
       y1="47.027729"
       x2="25.058096"
       y2="39.999443" />
    <linearGradient
       id="linearGradient3702">
      <stop
         offset="0"
         style="stop-color:black;stop-opacity:0"
         id="stop3704" />
      <stop
         offset="0.5"
         style="stop-color:black;stop-opacity:1"
         id="stop3710" />
      <stop
         offset="1"
         style="stop-color:black;stop-opacity:0"
         id="stop3706" />
    </linearGradient>
    <radialGradient
       inkscape:collect="always"
       xlink:href="#linearGradient2867-449-88-871-390-598-476-591-434-148-57-177"
       id="radialGradient3927"
       gradientUnits="userSpaceOnUse"
       gradientTransform="matrix(1.2135145,2.8220341e-8,-2.3221845e-8,0.97608755,-776.88932,248.96999)"
       cx="676"
       cy="-233.5"
       fx="680.40613"
       fy="-249.59378"
       r="29.5" />
    <linearGradient
       id="linearGradient2867-449-88-871-390-598-476-591-434-148-57-177">
      <stop
         id="stop3750"
         style="stop-color:#90dbec;stop-opacity:1;"
         offset="0" />
      <stop
         id="stop3752"
         style="stop-color:#55c1ec;stop-opacity:1;"
         offset="0.26238" />
      <stop
         id="stop3754"
         style="stop-color:#3689e6;stop-opacity:1;"
         offset="0.704952" />
      <stop
         id="stop3756"
         style="stop-color:#2b63a0;stop-opacity:1;"
         offset="1" />
    </linearGradient>
    <radialGradient
       r="29.5"
       fy="-249.59378"
       fx="680.40613"
       cy="-233.5"
       cx="676"
       gradientTransform="matrix(1.2135145,2.8220341e-8,-2.3221845e-8,0.97608755,-863.71237,242.28005)"
       gradientUnits="userSpaceOnUse"
       id="radialGradient3946"
       xlink:href="#linearGradient2867-449-88-871-390-598-476-591-434-148-57-177"
       inkscape:collect="always" />
  </defs>
  <sodipodi:namedview
     id="base"
     pagecolor="#ffffff"
     bordercolor="#666666"
     borderopacity="1.0"
     inkscape:pageopacity="0.0"
     inkscape:pageshadow="2"
     inkscape:zoom="38.5"
     inkscape:cx="17.777177"
     inkscape:cy="13.038961"
     inkscape:current-layer="layer1"
     showgrid="true"
     inkscape:grid-bbox="true"
     inkscape:document-units="px"
     inkscape:window-width="1855"
     inkscape:window-height="1056"
     inkscape:window-x="65"
     inkscape:window-y="24"
     inkscape:window-maximized="1" />
  <metadata
     id="metadata4498">
    <rdf:RDF>
      <cc:Work
         rdf:about="">
        <dc:format>image/svg+xml</dc:format>
        <dc:type
           rdf:resource="http://purl.org/dc/dcmitype/StillImage" />
        <dc:title></dc:title>
      </cc:Work>
    </rdf:RDF>
  </metadata>
  <g
     id="layer1"
     inkscape:label="Layer 1"
     inkscape:groupmode="layer"
     transform="translate(0,-8)">
    <g
       transform="matrix(0.54998982,0,0,0.55555607,-0.9499748,5.8888809)"
       id="g2036"
       style="opacity:0.6;display:inline">
      <g
         transform="matrix(1.052632,0,0,1.285713,-1.263158,-13.42854)"
         id="g3712"
         style="opacity:0.4">
        <rect
           width="5"
           height="7"
           x="38"
           y="40"
           id="rect2801"
           style="fill:url(#radialGradient3622);fill-opacity:1;stroke:none" />
        <rect
           width="5"
           height="7"
           x="-10"
           y="-47"
           transform="scale(-1,-1)"
           id="rect3696"
           style="fill:url(#radialGradient3624);fill-opacity:1;stroke:none" />
        <rect
           width="28"
           height="7.0000005"
           x="10"
           y="40"
           id="rect3700"
           style="fill:url(#linearGradient3626);fill-opacity:1;stroke:none" />
      </g>
    </g>
    <path
       style="color:#000000;fill:url(#linearGradient3803);fill-opacity:1;fill-rule:nonzero;stroke:none;stroke-width:0.99999988;marker:none;visibility:visible;display:inline;overflow:visible;enable-background:accumulate"
       d="m 14,11.531208 c -2.261511,0 -4.1404988,1.412817 -4.96875,3.375 -0.4708285,-0.210039 -0.9708293,-0.375 -1.53125,-0.375 -2.1852293,0 -3.96875,1.783521 -3.96875,3.96875 0,0.284943 0.06737,0.544584 0.125,0.8125 -1.8428288,1.014491 -3.125,2.938602 -3.125,5.1875 0,2.878574 2.0645738,5.286004 4.78125,5.84375 0.2940869,0.09207 0.6558404,0.15625 1.0625,0.15625 l 11.25,0 c 0.375968,0 0.683426,-0.03708 0.9375,-0.125 0.02074,-0.0072 0.0425,-0.02353 0.0625,-0.03125 2.746368,-0.534374 4.84375,-2.944059 4.84375,-5.84375 0,-2.728636 -1.86769,-4.979592 -4.375,-5.6875 0.215172,-0.566753 0.375,-1.153231 0.375,-1.8125 0,-3.013656 -2.455093,-5.46875 -5.46875,-5.46875 z"
       id="rect4519"
       inkscape:connector-curvature="0"
       sodipodi:nodetypes="scsscscssccscss" />
    <path
       id="path3826"
       d="m 14,11.531208 c -2.261511,0 -4.1404988,1.412817 -4.96875,3.375 -0.4708285,-0.210039 -0.9708293,-0.375 -1.53125,-0.375 -2.1852293,0 -3.96875,1.783521 -3.96875,3.96875 0,0.284943 0.06737,0.544584 0.125,0.8125 -1.8428288,1.014491 -3.125,2.938602 -3.125,5.1875 0,2.878574 2.0645738,5.286004 4.78125,5.84375 0.2940869,0.09207 0.6558404,0.15625 1.0625,0.15625 l 11.25,0 c 0.375968,0 0.683426,-0.03708 0.9375,-0.125 0.02074,-0.0072 0.0425,-0.02353 0.0625,-0.03125 2.746368,-0.534374 4.84375,-2.944059 4.84375,-5.84375 0,-2.728636 -1.86769,-4.979592 -4.375,-5.6875 0.215172,-0.566753 0.375,-1.153231 0.375,-1.8125 0,-3.013656 -2.455093,-5.46875 -5.46875,-5.46875 z"
       style="opacity:0.59999999999999998;color:#000000;fill:none;stroke:#001f3b;stroke-width:0.99999987999999995;stroke-linecap:round;stroke-linejoin:round;stroke-miterlimit:4;stroke-opacity:1;stroke-dasharray:none;stroke-dashoffset:0;marker:none;visibility:visible;display:inline;overflow:visible;enable-background:accumulate"
       inkscape:connector-curvature="0"
       sodipodi:nodetypes="scsscscssccscss" />
    <path
       inkscape:connector-curvature="0"
       d="m 10.586989,18.817686 a 3.4818681,3.3740195 0 0 1 -6.9637366,0 3.4818681,3.3740195 0 1 1 6.9637366,0 z"
       id="path9151-6"
       style="opacity:0.15;color:#000000;fill:none;stroke:none;stroke-width:1.1760155;marker:none;visibility:visible;display:inline;overflow:visible;enable-background:accumulate" />
    <path
       d="m 13.747766,13.269939 c -1.931983,0 -3.605152,1.128545 -4.4344973,2.766522 C 8.7757399,15.688064 8.1394229,15.483168 7.45539,15.483168 c -1.9173337,0 -3.4716486,1.585389 -3.4716486,3.541135 0,0.310935 0.048212,0.611753 0.1220481,0.899096 -1.3847688,0.952682 -2.2918392,2.573421 -2.2918392,4.41258 0,2.942684 2.3225365,5.311727 5.2074766,5.311727 l 9.9810151,0 c 2.884945,0 5.207474,-2.369043 5.207474,-5.311727 0,-2.349851 -1.487231,-4.331 -3.553024,-5.035052 0.05605,-0.305401 0.08137,-0.618586 0.08137,-0.940583 0,-2.811373 -2.234311,-5.090405 -4.99049,-5.090405 z"
       id="rect4519-65"
       style="color:#000000;fill:none;stroke:none;stroke-width:1;marker:none;visibility:visible;display:inline;overflow:visible;enable-background:accumulate"
       inkscape:connector-curvature="0" />
    <path
       style="opacity:0.06000001;color:#000000;fill:none;stroke:#000000;stroke-width:0.32826051;stroke-opacity:1;marker:none;visibility:visible;display:inline;overflow:visible;enable-background:accumulate"
       d="m 9.1529005,24.573201 c -0.093291,-0.09825 -0.103276,0.01021 -0.051401,0.307083 0.052897,0.302596 0.2601838,0.726671 0.5654129,1.187388 0.3052281,0.460716 0.7047306,0.95588 1.1616656,1.422819 0.324643,0.331691 0.815701,0.688038 1.32615,0.97243 0.510448,0.284393 1.043424,0.497804 1.449511,0.573222 0.544312,0.10109 0.763498,0.101329 0.657934,0 C 14.15661,28.934815 13.73146,28.734608 12.966866,28.421976 12.517911,28.238428 12.182748,28.071349 11.877162,27.869226 11.571574,27.667105 11.295409,27.431875 10.951941,27.091283 10.471678,26.615005 9.9112306,25.9034 9.7080335,25.514922 9.426055,24.975747 9.2461865,24.671452 9.1529016,24.573201 z"
       id="path4025"
       inkscape:connector-curvature="0" />
    <path
       style="opacity:0.2;color:#000000;fill:none;stroke:#ffffff;stroke-width:0.32826051;stroke-opacity:1;marker:none;visibility:visible;display:inline;overflow:visible;enable-background:accumulate"
       d="m 9.1529005,24.573201 c 0.093291,0.09825 0.2731534,0.402546 0.555132,0.941721 0.203196,0.388478 0.7636445,1.100083 1.2439075,1.576361 0.343468,0.340592 0.619633,0.575822 0.925221,0.777943 0.305586,0.202123 0.640749,0.369202 1.089704,0.55275 0.764594,0.312632 1.189746,0.512832 1.295307,0.614167 0.105565,0.101329 -0.113622,0.10109 -0.657934,0 -0.406087,-0.07541 -0.939063,-0.288829 -1.449511,-0.573222 -0.510448,-0.284392 -1.001509,-0.640739 -1.32615,-0.97243 C 10.371643,27.023552 9.9721407,26.528388 9.6669116,26.067672 9.3616835,25.606955 9.154397,25.18288 9.1014992,24.880284 9.0496218,24.5834 9.0596181,24.474951 9.1529,24.573201 z"
       id="path4023"
       inkscape:connector-curvature="0" />
    <path
       style="opacity:0.06000001;color:#000000;fill:none;stroke:#000000;stroke-width:0.32826051;stroke-opacity:1;marker:none;visibility:visible;display:inline;overflow:visible;enable-background:accumulate"
       d="m 8.8547748,22.648813 c -0.032734,-0.215945 -0.061679,-0.07336 -0.061679,0.317319 -0.00103,0.390566 0.027917,0.563705 0.061679,0.388973 0.03191,-0.174731 0.032949,-0.490344 0,-0.706292 z"
       id="path4021"
       inkscape:connector-curvature="0" />
    <path
       style="opacity:0.2;color:#000000;fill:none;stroke:#ffffff;stroke-width:0.32826051;stroke-opacity:1;marker:none;visibility:visible;display:inline;overflow:visible;enable-background:accumulate"
       d="m 8.8547748,22.648813 c 0.032949,0.215948 0.03191,0.531561 0,0.706292 -0.033772,0.174732 -0.062706,0.0016 -0.061679,-0.388973 0,-0.390676 0.028945,-0.533264 0.061679,-0.317319 z"
       id="path4019"
       inkscape:connector-curvature="0" />
    <path
       style="opacity:0.06000001;color:#000000;fill:none;stroke:#000000;stroke-width:0.32826051;stroke-opacity:1;marker:none;visibility:visible;display:inline;overflow:visible;enable-background:accumulate"
       d="m 4.6193216,22.249604 c -0.085125,-0.05235 -0.1439234,0.123428 -0.1439234,0.429917 0,0.306487 0.058798,0.48227 0.1439234,0.429915 0.078372,-0.0483 0.1439232,-0.243798 0.1439232,-0.429915 0,-0.186115 -0.06555,-0.381626 -0.1439232,-0.429917 z"
       id="path4017"
       inkscape:connector-curvature="0" />
    <path
       style="opacity:0.2;color:#000000;fill:none;stroke:#ffffff;stroke-width:0.32826051;stroke-opacity:1;marker:none;visibility:visible;display:inline;overflow:visible;enable-background:accumulate"
       d="m 4.6193216,22.249604 c 0.078372,0.0483 0.1439232,0.243802 0.1439232,0.429917 0,0.186117 -0.06555,0.381627 -0.1439232,0.429915 -0.085125,0.05235 -0.1439234,-0.123428 -0.1439234,-0.429915 0,-0.306489 0.058798,-0.48227 0.1439234,-0.429917 z"
       id="path4015"
       inkscape:connector-curvature="0" />
    <path
       style="opacity:0.06000001;color:#000000;fill:none;stroke:#000000;stroke-width:0.32826051;stroke-opacity:1;marker:none;visibility:visible;display:inline;overflow:visible;enable-background:accumulate"
       d="m 15.56776,21.655911 c -0.276042,-0.05133 -0.526455,-0.0094 -0.729896,0.112598 -0.203438,0.122021 -0.358544,0.318562 -0.421487,0.573221 -0.06293,0.254659 -0.03236,0.564431 0.113081,0.911013 0.08983,0.214071 0.149964,0.34247 0.236446,0.409445 0.08647,0.06699 0.197844,0.08048 0.359808,0.06142 0.264686,-0.03116 0.419182,-0.128836 0.442048,-0.214958 0.01144,-0.04306 -0.01502,-0.08567 -0.07197,-0.112597 -0.05694,-0.02694 -0.146965,-0.03981 -0.277567,-0.0307 -0.176802,0.01232 -0.276911,0.0076 -0.339246,-0.05118 -0.06234,-0.05879 -0.08367,-0.171332 -0.1028,-0.3685 -0.01637,-0.167901 -0.01313,-0.293725 0.03084,-0.399209 0.04398,-0.105488 0.124869,-0.191409 0.246726,-0.276375 0.216499,-0.151002 0.415964,-0.225129 0.637374,-0.214958 0.221408,0.01021 0.470209,0.101611 0.771016,0.276376 l 0.493452,0.28661 -0.534571,-0.50157 C 16.140264,21.851125 15.843798,21.707232 15.567755,21.6559 z"
       id="path4013"
       inkscape:connector-curvature="0" />
    <path
       style="opacity:0.2;color:#000000;fill:none;stroke:#ffffff;stroke-width:0.32826051;stroke-opacity:1;marker:none;visibility:visible;display:inline;overflow:visible;enable-background:accumulate"
       d="m 15.56776,21.655911 c 0.276044,0.05133 0.57251,0.195224 0.85326,0.460624 l 0.534573,0.50157 -0.493452,-0.286611 c -0.300807,-0.174761 -0.549609,-0.266206 -0.771017,-0.276375 -0.221407,-0.01021 -0.420876,0.06396 -0.637375,0.214958 -0.121854,0.08497 -0.202753,0.17089 -0.246725,0.276375 -0.04398,0.105487 -0.0472,0.231308 -0.03084,0.399208 0.01913,0.197169 0.04047,0.3097 0.1028,0.3685 0.06233,0.0588 0.162445,0.06351 0.339247,0.05118 0.130603,-0.0091 0.220621,0.0038 0.277565,0.03072 0.05694,0.02694 0.0834,0.06954 0.07197,0.112597 -0.02286,0.08613 -0.177363,0.183813 -0.44205,0.214959 -0.161963,0.01907 -0.273324,0.0055 -0.359808,-0.06142 -0.08647,-0.06699 -0.146614,-0.195374 -0.236445,-0.409445 -0.14544,-0.346583 -0.176027,-0.656355 -0.113082,-0.911013 0.06293,-0.254661 0.218048,-0.451201 0.42149,-0.573222 0.203439,-0.122022 0.453853,-0.16393 0.729895,-0.112598 z"
       id="path4011"
       inkscape:connector-curvature="0" />
    <path
       style="opacity:0.06000001;color:#000000;fill:none;stroke:#000000;stroke-width:0.32826051;stroke-opacity:1;marker:none;visibility:visible;display:inline;overflow:visible;enable-background:accumulate"
       d="m 3.4268155,21.574022 c -0.039486,-0.09766 -0.071957,-0.0111 -0.071957,0.18425 0,0.195348 0.032471,0.271683 0.071957,0.174013 0.0397,-0.09766 0.0397,-0.260595 0,-0.358263 z"
       id="path4009"
       inkscape:connector-curvature="0" />
    <path
       style="opacity:0.2;color:#000000;fill:none;stroke:#ffffff;stroke-width:0.32826051;stroke-opacity:1;marker:none;visibility:visible;display:inline;overflow:visible;enable-background:accumulate"
       d="m 3.4268155,21.574022 c 0.0397,0.09766 0.0397,0.260596 0,0.358263 -0.039495,0.09766 -0.071957,0.02133 -0.071957,-0.174013 0,-0.19534 0.032471,-0.281918 0.071957,-0.18425 z"
       id="path4007"
       inkscape:connector-curvature="0" />
    <path
       style="opacity:0.06000001;color:#000000;fill:none;stroke:#000000;stroke-width:0.32826051;stroke-opacity:1;marker:none;visibility:visible;display:inline;overflow:visible;enable-background:accumulate"
       d="m 4.9380085,20.437814 c -0.018621,0.03882 -0.026748,0.155368 -0.030844,0.358264 -0.00552,0.293008 0.021333,0.532278 0.051401,0.532278 0.063541,0 0.1075296,-0.133426 0.1233631,-0.296848 0.015835,-0.16342 -4.591e-4,-0.351156 -0.051401,-0.481095 -0.042151,-0.107355 -0.073903,-0.151431 -0.092523,-0.112599 z"
       id="path4005"
       inkscape:connector-curvature="0" />
    <path
       style="opacity:0.2;color:#000000;fill:none;stroke:#ffffff;stroke-width:0.32826051;stroke-opacity:1;marker:none;visibility:visible;display:inline;overflow:visible;enable-background:accumulate"
       d="m 4.9380085,20.437814 c 0.018621,-0.03882 0.050371,0.0052 0.092524,0.112599 0.050952,0.129939 0.067235,0.317675 0.051401,0.481095 -0.015835,0.163422 -0.059827,0.296848 -0.1233623,0.296848 -0.030068,0 -0.056928,-0.23927 -0.051401,-0.532278 0.00411,-0.202896 0.012224,-0.319431 0.030844,-0.358264 z"
       id="path4003"
       inkscape:connector-curvature="0" />
    <path
       style="opacity:0.06000001;color:#000000;fill:none;stroke:#000000;stroke-width:0.32826051;stroke-opacity:1;marker:none;visibility:visible;display:inline;overflow:visible;enable-background:accumulate"
       d="m 14.858425,20.325216 c -0.377437,0.107007 -0.728119,0.321657 -1.110264,0.665348 -0.332113,0.298777 -0.56234,0.655101 -0.688774,1.023612 -0.126435,0.368509 -0.149769,0.752561 -0.08224,1.125971 0.06752,0.373408 0.233396,0.730604 0.483172,1.044082 0.249775,0.313478 0.587152,0.578994 1.00746,0.767709 0.26909,0.120809 0.425108,0.186155 0.585973,0.194485 0.160866,0.0084 0.318421,-0.04004 0.585975,-0.133069 0.19501,-0.0678 0.388562,-0.170123 0.565411,-0.307084 0.17685,-0.136961 0.337729,-0.308051 0.49345,-0.511806 0.3359,-0.43978 0.483613,-0.706576 0.452329,-0.767707 -0.03128,-0.06112 -0.237792,0.08492 -0.606532,0.460625 -0.345004,0.35161 -0.81014,0.748176 -1.038303,0.880304 -0.198287,0.114899 -0.317248,0.173044 -0.45233,0.163778 -0.13508,-0.0092 -0.288954,-0.08656 -0.585973,-0.235428 -0.335282,-0.168078 -0.615204,-0.39273 -0.822417,-0.665349 -0.207212,-0.272619 -0.342248,-0.598373 -0.41121,-0.962194 -0.03095,-0.162978 -0.02218,-0.340069 0.03084,-0.532277 0.05303,-0.192208 0.145302,-0.396508 0.267285,-0.593695 0.121986,-0.197185 0.276383,-0.38507 0.45233,-0.562984 0.175949,-0.177916 0.381342,-0.346706 0.596253,-0.481097 0.419698,-0.26246 0.723764,-0.396746 1.028023,-0.399208 0.152127,-0.0013 0.298794,0.03892 0.46261,0.10236 0.163816,0.06344 0.34232,0.158718 0.544852,0.286609 0.380714,0.240445 0.684503,0.484577 0.91494,0.757472 0.230437,0.272894 0.388932,0.574797 0.503731,0.92125 0.08992,0.271345 0.123339,0.533621 0.113083,0.798417 -0.01022,0.264796 -0.05931,0.531973 -0.154205,0.777942 -0.09489,0.245973 -0.236973,0.470947 -0.400927,0.685821 -0.163954,0.214872 -0.358235,0.41196 -0.575693,0.583458 -0.217457,0.171497 -0.453938,0.324303 -0.709337,0.440152 -0.255396,0.115849 -0.524083,0.197741 -0.801856,0.245666 -0.277774,0.04793 -0.568668,0.06298 -0.85326,0.0307 -0.284589,-0.03228 -0.567138,-0.11068 -0.842977,-0.235429 -0.363115,-0.164272 -0.792005,-0.519108 -1.151386,-0.921255 -0.35938,-0.402146 -0.64799,-0.852331 -0.740176,-1.197625 -0.06405,-0.239689 -0.102239,-0.361066 -0.123363,-0.378734 -0.02113,-0.01768 -0.02368,0.06488 -0.03084,0.245664 -0.0074,0.202822 0.04719,0.433456 0.154203,0.665347 0.107018,0.231893 0.267714,0.466486 0.46261,0.696056 0.194896,0.229571 0.422378,0.44902 0.678495,0.644876 0.256118,0.195853 0.542023,0.370822 0.832698,0.501568 0.40619,0.182703 0.828513,0.276036 1.243907,0.286611 0.415395,0.01064 0.819681,-0.05895 1.202787,-0.204722 0.383105,-0.145771 0.739266,-0.368781 1.048584,-0.655112 0.309318,-0.286329 0.576978,-0.643209 0.771017,-1.054317 0.174342,-0.36929 0.268996,-0.82442 0.287846,-1.279514 0.01885,-0.455094 -0.04026,-0.903757 -0.185045,-1.248804 -0.07448,-0.177489 -0.191143,-0.357787 -0.339246,-0.532278 -0.148106,-0.174492 -0.327784,-0.349575 -0.524293,-0.501569 -0.393016,-0.303991 -0.859959,-0.537627 -1.295308,-0.63464 -0.464814,-0.103587 -0.86647,-0.107007 -1.243906,0 z"
       id="path4001"
       inkscape:connector-curvature="0" />
    <path
       style="opacity:0.2;color:#000000;fill:none;stroke:#ffffff;stroke-width:0.32826051;stroke-opacity:1;marker:none;visibility:visible;display:inline;overflow:visible;enable-background:accumulate"
       d="m 14.858425,20.325216 c 0.377438,-0.107007 0.779094,-0.103587 1.243908,0 0.435348,0.09701 0.902291,0.33065 1.295308,0.63464 0.196509,0.151994 0.376189,0.327078 0.524292,0.501569 0.148105,0.174491 0.264763,0.354789 0.339248,0.532278 0.144774,0.345046 0.203893,0.79371 0.185043,1.248805 -0.01885,0.455092 -0.113503,0.910224 -0.287846,1.279513 -0.194038,0.411108 -0.461698,0.767987 -0.771017,1.054318 -0.309317,0.286331 -0.665477,0.50934 -1.048583,0.655111 -0.383105,0.14577 -0.787393,0.215297 -1.202787,0.204722 -0.415394,-0.01064 -0.837718,-0.103912 -1.243906,-0.286611 -0.290676,-0.130746 -0.57658,-0.305714 -0.832698,-0.501569 -0.256119,-0.195855 -0.4836,-0.415305 -0.678496,-0.644874 -0.194896,-0.22957 -0.355593,-0.464164 -0.462609,-0.696057 -0.107016,-0.231892 -0.161725,-0.462526 -0.154204,-0.665346 0.0071,-0.180788 0.0098,-0.263337 0.03084,-0.245666 0.02113,0.01766 0.05932,0.139044 0.123363,0.378736 0.09218,0.345292 0.380796,0.795477 0.740176,1.197623 0.359381,0.402146 0.788272,0.756985 1.151386,0.921252 0.275838,0.124748 0.558388,0.203153 0.842978,0.235429 0.284589,0.03227 0.575484,0.01721 0.853258,-0.03069 0.277774,-0.04793 0.546461,-0.129819 0.801858,-0.245668 0.255398,-0.115848 0.491878,-0.268654 0.709336,-0.440152 0.217457,-0.171498 0.411738,-0.368585 0.575693,-0.583459 0.163952,-0.214872 0.30604,-0.439847 0.400927,-0.685819 0.09489,-0.24597 0.143948,-0.513148 0.154205,-0.777944 0.01022,-0.264795 -0.02314,-0.527071 -0.113083,-0.798416 -0.1148,-0.346457 -0.273293,-0.64836 -0.503731,-0.921254 -0.230438,-0.272894 -0.534226,-0.517028 -0.91494,-0.757472 -0.202533,-0.127891 -0.381036,-0.223171 -0.544852,-0.286609 -0.163815,-0.06344 -0.310483,-0.103598 -0.46261,-0.102361 -0.304259,0.0025 -0.608326,0.13675 -1.028023,0.399208 -0.21491,0.134393 -0.420305,0.303182 -0.596251,0.481098 -0.17595,0.177914 -0.330347,0.365799 -0.452332,0.562985 -0.121984,0.197187 -0.214265,0.401487 -0.267286,0.593694 -0.05303,0.192208 -0.0618,0.369299 -0.03084,0.532277 0.06897,0.363821 0.203997,0.689575 0.41121,0.962194 0.207212,0.272619 0.487134,0.497271 0.822417,0.665348 0.297019,0.14887 0.450893,0.226164 0.585972,0.235429 0.135083,0.0092 0.254043,-0.04889 0.452331,-0.163777 0.228163,-0.132129 0.693299,-0.528695 1.038303,-0.880306 0.368739,-0.375708 0.575252,-0.521755 0.606533,-0.460624 0.03128,0.06113 -0.116431,0.327926 -0.45233,0.767707 -0.155723,0.203754 -0.316601,0.374844 -0.493451,0.511806 -0.176848,0.136961 -0.3704,0.239286 -0.565411,0.307082 -0.267553,0.09302 -0.42511,0.141399 -0.585974,0.133071 -0.160865,-0.0084 -0.316883,-0.07368 -0.585973,-0.194487 -0.420307,-0.188714 -0.757686,-0.454229 -1.007461,-0.767707 -0.249775,-0.313478 -0.415645,-0.670673 -0.483171,-1.044083 -0.06753,-0.373409 -0.04419,-0.757462 0.08224,-1.125972 0.126436,-0.368509 0.356664,-0.724832 0.688777,-1.023611 0.382145,-0.34369 0.732826,-0.558343 1.110264,-0.665346 z"
       id="path3999"
       inkscape:connector-curvature="0" />
    <path
       style="opacity:0.06000001;color:#000000;fill:none;stroke:#000000;stroke-width:0.32826051;stroke-opacity:1;marker:none;visibility:visible;display:inline;overflow:visible;enable-background:accumulate"
       d="m 13.964046,16.363844 c -0.199361,-0.002 -0.421614,0.0417 -0.657935,0.122834 -0.23632,0.08113 -0.493694,0.197781 -0.760737,0.358264 -0.53408,0.320964 -1.117843,0.796748 -1.737357,1.412583 -0.471873,0.469061 -0.9199273,1.028809 -1.243907,1.52518 -0.32398,0.496369 -0.5242914,0.933598 -0.5242914,1.187388 0,0.09145 0.00271,0.148498 0.020557,0.174013 0.017778,0.02551 0.045686,0.02252 0.092523,-0.03071 0.093669,-0.106454 0.2570939,-0.382079 0.5345714,-0.880306 0.2938462,-0.527414 0.729788,-1.190288 0.966341,-1.463764 0.334362,-0.38643 0.824799,-0.798546 1.356989,-1.166915 0.532192,-0.368369 1.102579,-0.688343 1.603715,-0.880305 l 0.91494,-0.348028 -0.565412,-0.01021 z"
       id="path3997"
       inkscape:connector-curvature="0" />
    <path
       style="opacity:0.2;color:#000000;fill:none;stroke:#ffffff;stroke-width:0.32826051;stroke-opacity:1;marker:none;visibility:visible;display:inline;overflow:visible;enable-background:accumulate"
       d="m 13.964046,16.363844 0.565412,0.01021 -0.914939,0.348028 c -0.501137,0.191962 -1.071525,0.511937 -1.603717,0.880305 -0.532189,0.368369 -1.022627,0.780485 -1.356989,1.166915 -0.236552,0.273476 -0.6724953,0.93635 -0.9663405,1.463764 -0.2774785,0.498227 -0.4409024,0.773858 -0.534572,0.880306 -0.046837,0.05321 -0.074735,0.05622 -0.092523,0.03069 -0.017779,-0.02551 -0.020557,-0.08257 -0.020557,-0.174014 0,-0.25379 0.2003105,-0.691019 0.524291,-1.187387 0.3239807,-0.496371 0.7720345,-1.056119 1.2439075,-1.52518 0.619516,-0.615834 1.203277,-1.091619 1.737359,-1.412584 0.267042,-0.160482 0.524415,-0.277127 0.760736,-0.358263 0.236319,-0.08113 0.458573,-0.124794 0.657934,-0.122833 z"
       id="path3995"
       inkscape:connector-curvature="0" />
    <path
       style="opacity:0.2;color:#000000;fill:none;stroke:#ffffff;stroke-width:0.32826051;stroke-opacity:1;marker:none;visibility:visible;display:inline;overflow:visible;enable-background:accumulate"
       d="m 1.9670239,23.119674 c 0.00823,0.322954 0.018218,0.667474 0.041123,0.450388 0.015506,-0.152024 6.482e-4,-0.378018 0,-0.593694 -0.012934,0.0482 -0.029488,0.09456 -0.041123,0.143306 z"
       id="path3993"
       inkscape:connector-curvature="0" />
    <path
       style="opacity:0.2;color:#000000;fill:none;stroke:#ffffff;stroke-width:0.32826051;stroke-opacity:1;marker:none;visibility:visible;display:inline;overflow:visible;enable-background:accumulate"
       d="M 7.2304988,29.70149 C 7.2162832,29.589981 6.9267962,28.969983 6.4903229,28.135364 6.0249986,27.245578 5.4943583,26.117738 5.3183769,25.627519 5.1423957,25.1373 4.9903311,24.746219 4.9688497,24.767686 c -0.021482,0.02146 0.019471,0.366855 0.092524,0.757472 0.077961,0.417145 0.2981595,1.031294 0.5962534,1.678723 0.2980931,0.647427 0.6691514,1.319502 1.0383018,1.873208 0.2470676,0.370619 0.424476,0.569167 0.5037306,0.624401 l 0.030844,0 z"
       id="path3991"
       inkscape:connector-curvature="0" />
    <path
       style="opacity:0.2;color:#000000;fill:none;stroke:#ffffff;stroke-width:0.32826051;stroke-opacity:1;marker:none;visibility:visible;display:inline;overflow:visible;enable-background:accumulate"
       d="m 16.657467,14.306387 c 0.03801,0.06737 0.08224,0.135076 0.08224,0.204724 0,0.08643 -0.142686,0.155639 -0.40093,0.20472 -0.258242,0.04907 -0.624583,0.07993 -1.089704,0.08188 -0.448289,0.002 -0.895403,0.04995 -1.336428,0.143305 -0.441027,0.09336 -0.883422,0.224564 -1.305589,0.399208 -0.422167,0.174644 -0.831639,0.388883 -1.223346,0.634639 -0.391709,0.245758 -0.760613,0.532664 -1.110265,0.839361 -0.349654,0.306697 -0.6806198,0.635438 -0.9766219,0.992901 -0.2960015,0.357465 -0.5608255,0.738151 -0.791577,1.136208 -0.2307505,0.398059 -0.421792,0.810088 -0.5756924,1.23857 -0.1539003,0.42848 -0.2635137,0.87173 -0.328968,1.320456 -0.062155,0.426077 -0.086471,0.8793 -0.071966,1.34093 0.014516,0.461631 0.067364,0.939028 0.1542033,1.412582 0.086846,0.473556 0.2049727,0.940502 0.3598083,1.402349 0.1548348,0.461841 0.346919,0.914429 0.5654123,1.340927 0.1901005,0.370935 0.5168698,0.823672 0.8738182,1.218098 0.3569482,0.394424 0.7347912,0.729654 1.0074622,0.870069 0.250772,0.129109 0.385278,0.142546 0.39065,0.07165 0.0054,-0.07089 -0.116403,-0.224384 -0.359809,-0.45039 C 10.077556,28.297567 9.570551,27.655253 9.1323385,26.999155 8.6941239,26.343058 8.3234079,25.669516 8.1762777,25.197602 7.9981481,24.62583 7.8951123,23.844267 7.8678708,23.058255 c -0.027243,-0.786011 0.026158,-1.569924 0.1644835,-2.14958 0.1294291,-0.542806 0.3338125,-1.081416 0.5962526,-1.586597 0.26244,-0.505183 0.5819855,-0.980523 0.9560619,-1.422819 0.3740742,-0.442297 0.8001362,-0.84348 1.2644662,-1.197625 0.464331,-0.354146 0.9677,-0.660045 1.500914,-0.900777 0.452382,-0.204246 0.942195,-0.363757 1.428951,-0.481098 0.486758,-0.117339 0.966311,-0.198776 1.418671,-0.225193 0.45236,-0.02642 0.874154,-0.0072 1.223347,0.06142 0.349193,0.06852 0.624597,0.190788 0.801857,0.358264 0.227037,0.214548 0.350959,0.389706 0.359808,0.511804 0.0044,0.06105 -0.02148,0.110661 -0.07197,0.143307 -0.05049,0.03264 -0.130805,0.05046 -0.236446,0.05118 -0.351968,0.0024 -0.528889,0.06461 -0.534572,0.153541 -0.0057,0.08893 0.159337,0.200475 0.503731,0.317319 0.517301,0.175495 0.991698,0.40169 1.367271,0.644874 -0.263896,-1.245148 -0.975719,-2.307087 -1.953242,-3.029887 z"
       id="path3989"
       inkscape:connector-curvature="0" />
    <path
       style="opacity:0.2;color:#000000;fill:none;stroke:#ffffff;stroke-width:0.32826051;stroke-opacity:1;marker:none;visibility:visible;display:inline;overflow:visible;enable-background:accumulate"
       d="m 14.642541,13.415845 c -0.0016,0.01064 -0.06676,0.03082 -0.0514,0.04094 0.06536,0.04297 0.29521,0.08212 0.740177,0.163777 0.196379,0.03604 0.309759,0.118393 0.47289,0.174013 -0.367163,-0.171206 -0.753219,-0.302326 -1.161664,-0.378732 z"
       id="path3987"
       inkscape:connector-curvature="0" />
    <path
       style="opacity:0.2;color:#000000;fill:none;stroke:#ffffff;stroke-width:0.32826051;stroke-opacity:1;marker:none;visibility:visible;display:inline;overflow:visible;enable-background:accumulate"
       d="M 9.1323404,16.005582 C 8.7376094,16.368153 8.3816366,16.743449 8.0631965,17.14179 7.7210846,17.569742 7.4230263,18.020902 7.1585371,18.503191 6.894048,18.98548 6.6571558,19.498697 6.4594825,20.048843 6.3208452,20.434836 6.2416401,20.741135 6.1921961,21.13387 c -0.049446,0.392734 -0.067871,0.87501 -0.071966,1.617306 -0.00384,0.759069 0.00365,1.241247 0.051401,1.637776 0.047753,0.396525 0.1415347,0.711128 0.2878465,1.136206 0.2447352,0.710541 0.6481703,1.55286 1.0691422,2.272416 0.4209735,0.719555 0.8579462,1.315892 1.1513855,1.52518 0.080627,0.0574 0.1693355,0.100949 0.1953248,0.10236 0.055862,0.0026 -0.4772468,-0.890502 -0.87382,-1.463764 C 7.6205918,27.410664 7.3019946,26.796651 7.0557295,26.14956 6.8094653,25.50247 6.6349047,24.822346 6.5314377,24.133047 6.427972,23.443749 6.3914369,22.742662 6.4389144,22.065354 c 0.047482,-0.677306 0.1737967,-1.333743 0.3803685,-1.94486 0.2502625,-0.740423 0.5156727,-1.354491 0.8429779,-1.914152 0.327307,-0.559662 0.7178659,-1.06265 1.2130672,-1.596833 0.4884494,-0.526871 0.9978141,-0.962912 1.583154,-1.351165 0.585342,-0.388253 1.2493,-0.725428 2.035486,-1.044082 0.391659,-0.158764 0.654703,-0.280861 0.801858,-0.368499 0.147153,-0.08765 0.172739,-0.149278 0.07196,-0.16378 -0.204016,-0.02935 -0.671012,0.112324 -1.192505,0.327556 -0.521495,0.215232 -1.095436,0.509028 -1.521475,0.798417 -0.366107,0.24867 -0.6792625,0.506998 -0.9971829,0.767707 -0.1159051,0.172913 -0.2547782,0.324673 -0.3495269,0.511806 -0.053991,-0.03498 -0.1188295,-0.04986 -0.1747632,-0.08188 z"
       id="path3985"
       inkscape:connector-curvature="0" />
    <path
       style="opacity:0.2;color:#000000;fill:none;stroke:#ffffff;stroke-width:0.32826051;stroke-opacity:1;marker:none;visibility:visible;display:inline;overflow:visible;enable-background:accumulate"
       d="m 18.67239,19.066177 c 0.02636,-0.215938 0.06169,-0.430981 0.06169,-0.655111 0,-0.01392 1.07e-4,-0.02706 0,-0.04094 -0.01528,-0.0066 -0.01546,-0.0034 -0.03084,-0.01021 -0.854217,-0.377773 -1.418577,-0.605856 -1.912117,-0.726764 -0.493538,-0.120907 -0.92151,-0.144191 -1.480351,-0.112597 -0.42266,0.02391 -0.741053,0.07319 -1.048586,0.153542 -0.30753,0.08035 -0.598466,0.193397 -0.97662,0.378737 -0.504027,0.247073 -0.945892,0.551331 -1.326147,0.89054 -0.380258,0.339209 -0.699959,0.721076 -0.956063,1.125971 -0.256104,0.404895 -0.454406,0.835383 -0.585974,1.279513 -0.131564,0.444132 -0.198958,0.894248 -0.205603,1.351166 -0.0066,0.45692 0.04582,0.918144 0.164484,1.361404 0.118661,0.443256 0.300498,0.876365 0.544851,1.279511 0.244355,0.403147 0.554791,0.779148 0.925221,1.115737 0.37043,0.336586 0.808696,0.626491 1.305588,0.870068 0.416522,0.204168 0.683006,0.323747 0.976622,0.388971 0.293617,0.06523 0.607897,0.08194 1.110264,0.08189 0.468805,-4.6e-5 0.794683,-0.01694 1.079424,-0.07165 0.28474,-0.0547 0.531786,-0.155276 0.853258,-0.307081 0.485994,-0.229553 0.918381,-0.528309 1.295309,-0.890542 0.376927,-0.362232 0.702523,-0.788038 0.956061,-1.269277 0.166875,-0.316817 0.263207,-0.541751 0.318687,-0.818888 0.05547,-0.277137 0.06168,-0.606842 0.06168,-1.125971 2.02e-4,-0.356809 -0.0099,-0.673825 -0.0514,-0.962194 -0.04149,-0.288369 -0.114059,-0.54613 -0.205603,-0.788181 -0.09154,-0.24205 -0.20986,-0.467966 -0.359807,-0.68582 -0.149949,-0.217856 -0.328149,-0.4291 -0.544851,-0.644878 -0.380508,-0.378875 -0.827784,-0.668592 -1.305591,-0.880304 -0.477804,-0.211713 -0.982551,-0.339381 -1.490631,-0.378735 -0.50808,-0.03936 -1.019299,0.0051 -1.490633,0.143305 -0.471336,0.138191 -0.907183,0.364889 -1.274747,0.685818 -0.372629,0.325343 -0.706366,0.705722 -0.945783,1.05432 -0.239414,0.348597 -0.380368,0.664631 -0.380368,0.880304 5.17e-4,0.158556 0.01186,0.225326 0.07196,0.174014 0.06011,-0.05132 0.169348,-0.219343 0.349528,-0.532277 0.202837,-0.352144 0.423417,-0.650475 0.668213,-0.911014 0.244797,-0.26054 0.510681,-0.48357 0.801859,-0.65511 0.291174,-0.17154 0.603809,-0.293591 0.94578,-0.378736 0.341972,-0.08515 0.713078,-0.131714 1.110265,-0.13307 0.316509,-0.0011 0.612026,0.03222 0.89438,0.10236 0.282352,0.07014 0.55552,0.181411 0.812137,0.327555 0.256616,0.146143 0.500872,0.325802 0.740177,0.552749 0.239302,0.226948 0.468643,0.496107 0.699055,0.808653 0.265,0.358888 0.395338,0.546343 0.462611,0.808651 0.06727,0.26231 0.07197,0.599293 0.07197,1.269278 -2.07e-4,0.560655 -0.01574,0.924169 -0.06168,1.207861 -0.04594,0.283691 -0.116786,0.494939 -0.246726,0.736999 -0.223045,0.415581 -0.629797,0.869987 -1.099984,1.269276 -0.470186,0.399291 -1.012617,0.741558 -1.490632,0.92125 -0.250644,0.09423 -0.499615,0.156034 -0.760736,0.194486 -0.261121,0.03844 -0.527711,0.05485 -0.791579,0.04094 -0.527742,-0.02784 -1.059995,-0.161876 -1.552321,-0.378736 -0.492325,-0.216854 -0.95165,-0.522135 -1.34671,-0.900775 -0.395059,-0.378639 -0.720121,-0.827753 -0.956061,-1.340929 -0.118172,-0.257003 -0.21543,-0.554908 -0.287844,-0.87007 -0.07241,-0.31516 -0.119818,-0.645184 -0.143925,-0.982665 -0.02409,-0.337481 -0.02676,-0.679176 0,-1.003139 0.02676,-0.323961 0.08431,-0.636409 0.164484,-0.911011 0.114133,-0.390909 0.296279,-0.768528 0.544853,-1.115738 0.248574,-0.34721 0.557604,-0.658563 0.914938,-0.941721 0.357334,-0.283159 0.762375,-0.528006 1.202787,-0.726764 0.440412,-0.198756 0.920861,-0.356387 1.418672,-0.450388 0.379021,-0.07158 0.757434,-0.09402 1.130824,-0.06142 0.373392,0.03258 0.744821,0.119993 1.110264,0.255902 0.365444,0.135911 0.724244,0.324628 1.079425,0.562986 0.157551,0.105736 0.307406,0.263205 0.462611,0.388973 z"
       id="path3983"
       inkscape:connector-curvature="0" />
    <path
       style="opacity:0.2;color:#000000;fill:none;stroke:#ffffff;stroke-width:0.32231453;stroke-opacity:1;marker:none;visibility:visible;display:inline;overflow:visible;enable-background:accumulate"
       d="m 21.083044,21.371901 c -0.444338,-0.609575 -1.046202,-1.063703 -1.705889,-1.427197 0.376808,0.390186 0.694148,0.732359 0.868087,1.055323 0.210365,0.3906 0.306062,0.801849 0.393665,1.417147 0.08901,0.624958 0.08788,1.251576 -0.01012,1.859378 -0.09797,0.607801 -0.283672,1.19913 -0.565264,1.768922 -0.159736,0.323117 -0.356198,0.623222 -0.57536,0.894511 -0.219161,0.27129 -0.465338,0.511863 -0.746957,0.733702 -0.281619,0.221839 -0.591644,0.418223 -0.938744,0.59299 -0.347097,0.174768 -0.735109,0.33226 -1.150717,0.462332 -0.421535,0.13195 -0.654895,0.249957 -0.696486,0.321621 -0.04159,0.07167 0.11687,0.09659 0.494607,0.0402 0.389938,-0.05822 0.784977,-0.191444 1.180998,-0.371877 0.396022,-0.180434 0.786785,-0.409522 1.150719,-0.683446 0.363932,-0.273926 0.705632,-0.585974 0.999308,-0.924663 0.293675,-0.338692 0.54152,-0.70069 0.726769,-1.075425 0.206747,-0.417977 0.313478,-0.665305 0.373479,-1.035223 0.06,-0.369915 0.07647,-0.864598 0.09085,-1.809124 0.01473,-0.956909 0.06561,-1.60184 0.111032,-1.819175 z"
       id="path3981"
       inkscape:connector-curvature="0" />
    <path
       style="opacity:0.2;color:#000000;fill:none;stroke:#ffffff;stroke-width:0.32826051;stroke-opacity:1;marker:none;visibility:visible;display:inline;overflow:visible;enable-background:accumulate"
       d="m 17.692182,29.334432 c 2.505126,-0.397912 4.283508,-2.785842 4.516606,-4.94548 0.01001,-0.09256 -0.03652,-0.174286 -0.04112,-0.266139 -0.05163,0.325111 -0.08488,0.643522 -0.185044,0.97243 -0.162332,0.533062 -0.38385,1.061567 -0.647655,1.555886 -0.263803,0.494321 -0.571541,0.955837 -0.904659,1.351168 -0.333118,0.395331 -0.688587,0.726097 -1.058863,0.962194 -0.311021,0.198282 -1.070857,0.161617 -1.679268,0.369941 z"
       id="path3979"
       inkscape:connector-curvature="0"
       sodipodi:nodetypes="cscssscc" />
    <path
       style="opacity:0.2;color:#000000;fill:none;stroke:#ffffff;stroke-width:0.32826051;stroke-opacity:1;marker:none;visibility:visible;display:inline;overflow:visible;enable-background:accumulate"
       d="m 4.9894099,29.292045 c 0.2394783,0.102979 0.4940464,0.169461 0.7504561,0.235432 -0.020051,-0.02652 -0.04144,-0.03231 -0.061679,-0.06142 C 5.5229513,29.242852 5.3596022,28.944579 5.1436153,28.544808 4.7294455,27.778306 4.4337175,27.110617 4.2081146,26.395225 3.9825126,25.679837 3.8232233,24.915043 3.6941028,23.959035 l -0.215884,-1.566123 0.061679,1.709428 c 0.034173,0.964153 0.088753,1.565664 0.2467252,2.170055 0.1579734,0.604389 0.4179529,1.210003 0.8840993,2.159817 0.2335469,0.475708 0.2411401,0.609089 0.318687,0.859833 z"
       id="path3977"
       inkscape:connector-curvature="0" />
    <path
       style="opacity:0.2;color:#000000;fill:none;stroke:#ffffff;stroke-width:0.32826051;stroke-opacity:1;marker:none;visibility:visible;display:inline;overflow:visible;enable-background:accumulate"
       d="m 2.71748,27.388129 c 0.227955,0.340694 0.5041327,0.644197 0.8018573,0.921249 C 3.315473,27.903127 3.1186723,27.53003 2.8305628,26.804671 2.4910819,25.950243 2.2826022,25.577184 2.2343094,25.647992 c -0.048296,0.07081 0.07163,0.579366 0.3906487,1.463762 0.041993,0.116459 0.052092,0.159789 0.092523,0.276375 z"
       id="path3975"
       inkscape:connector-curvature="0" />
    <path
       style="opacity:0.2;color:#000000;fill:none;stroke:#ffffff;stroke-width:0.32826051;stroke-opacity:1;marker:none;visibility:visible;display:inline;overflow:visible;enable-background:accumulate"
       d="M 6.0826979,15.833513 C 5.7805581,15.975855 5.5182433,16.17587 5.2705612,16.396499 5.0077779,16.823451 4.6721166,17.314195 4.4892631,17.665777 4.2933968,18.042382 4.2546043,18.275567 4.150016,18.566554 4.128768,18.724979 4.057493,18.8628 4.057493,19.027179 c 0,0.09902 0.032069,0.189751 0.041123,0.286611 C 4.189952,19.144459 4.2652647,19.010116 4.4070229,18.648442 4.674473,17.966246 5.1142728,17.175406 5.60981,16.427206 5.761447,16.198255 5.9232035,16.048259 6.0826995,15.833513 z"
       id="path3971"
       inkscape:connector-curvature="0" />
    <path
       style="opacity:0.2;color:#000000;fill:none;stroke:#ffffff;stroke-width:0.32826051;stroke-opacity:1;marker:none;visibility:visible;display:inline;overflow:visible;enable-background:accumulate"
       d="m 8.0323562,15.626846 c -0.1630564,-0.02912 -0.3233117,-0.07714 -0.4934506,-0.08188 -0.062025,0.07308 -0.090148,0.08503 -0.1542035,0.163776 -0.4276474,0.525721 -0.8911228,1.171066 -1.2644677,1.770847 -0.1882608,0.302403 -0.397646,0.729613 -0.5448519,1.085028 -0.1472061,0.355413 -0.2376882,0.634637 -0.1747637,0.634637 0.034781,0 0.3765985,-0.525603 0.750457,-1.166916 0.3055122,-0.52414 0.628218,-1.003957 0.9869011,-1.453526 C 7.4115425,16.235921 7.7237492,15.9301 8.0323562,15.62685 z"
       id="path3969"
       inkscape:connector-curvature="0" />
    <path
       style="opacity:0.6;color:#000000;fill:none;stroke:url(#linearGradient3869);stroke-width:1;stroke-linecap:round;stroke-linejoin:round;stroke-miterlimit:4;stroke-opacity:1;stroke-dasharray:none;stroke-dashoffset:0;marker:none;visibility:visible;display:inline;overflow:visible;enable-background:accumulate"
       d="m 14.001425,12.368048 c -1.895057,-0.03829 -3.588664,1.305415 -4.2723625,3.023635 -0.4434539,0.656611 -1.2278071,0.20784 -1.789526,0.02618 -2.0078119,-0.420954 -4.0731603,1.712179 -3.4381114,3.700185 0.1865336,0.833993 -0.8052608,1.068825 -1.2755245,1.507021 -1.9532001,1.522741 -2.44479687,4.542029 -1.0436077,6.593512 1.0618571,1.686654 3.1045985,2.569362 5.0580419,2.430717 3.5353562,-0.0057 7.0711662,0.01153 10.6062372,-0.0087 0.69554,-0.11942 2.132361,-0.485542 2.972477,-1.275159 2.050752,-1.638992 2.419358,-4.928213 0.74132,-6.958078 -0.717404,-0.956291 -1.801962,-1.539556 -2.920003,-1.888879 -0.752461,-0.451448 -0.219607,-1.339537 -0.07115,-1.957772 0.45134,-2.660975 -1.885688,-5.258071 -4.567788,-5.192662 z"
       id="path3862"
       sodipodi:nodetypes="ccccccccccccc" />
  </g>
</svg>
