<?xml version="1.0" encoding="UTF-8" standalone="no"?>
<!-- Created with Inkscape (http://www.inkscape.org/) -->

<svg
   xmlns:dc="http://purl.org/dc/elements/1.1/"
   xmlns:cc="http://creativecommons.org/ns#"
   xmlns:rdf="http://www.w3.org/1999/02/22-rdf-syntax-ns#"
   xmlns:svg="http://www.w3.org/2000/svg"
   xmlns="http://www.w3.org/2000/svg"
   xmlns:xlink="http://www.w3.org/1999/xlink"
   xmlns:sodipodi="http://sodipodi.sourceforge.net/DTD/sodipodi-0.dtd"
   xmlns:inkscape="http://www.inkscape.org/namespaces/inkscape"
   width="24"
   height="24"
   viewBox="0 0 24 24"
   id="svg4812"
   version="1.1"
   inkscape:version="0.91 r"
   sodipodi:docname="skype-24.svg">
  <defs
     id="defs4814">
    <linearGradient
       inkscape:collect="always"
       id="linearGradient5394">
      <stop
         style="stop-color:#000000;stop-opacity:1;"
         offset="0"
         id="stop5396" />
      <stop
         style="stop-color:#000000;stop-opacity:0;"
         offset="1"
         id="stop5398" />
    </linearGradient>
    <linearGradient
       inkscape:collect="always"
       id="linearGradient5380">
      <stop
         style="stop-color:#ffffff;stop-opacity:1;"
         offset="0"
         id="stop5382" />
      <stop
         id="stop5388"
         offset="0.21292116"
         style="stop-color:#ffffff;stop-opacity:0.23529412" />
      <stop
         style="stop-color:#ffffff;stop-opacity:0.15686275"
         offset="0.76530349"
         id="stop5390" />
      <stop
         style="stop-color:#ffffff;stop-opacity:0.39215687"
         offset="1"
         id="stop5384" />
    </linearGradient>
    <linearGradient
       inkscape:collect="always"
       id="linearGradient5367">
      <stop
         style="stop-color:#1eb4dc;stop-opacity:1"
         offset="0"
         id="stop5369" />
      <stop
         style="stop-color:#0a64dc;stop-opacity:1"
         offset="1"
         id="stop5371" />
    </linearGradient>
    <radialGradient
       inkscape:collect="always"
       xlink:href="#linearGradient5367"
       id="radialGradient5373"
       cx="7.895381"
       cy="1035.0258"
       fx="7.895381"
       fy="1035.0258"
       r="10.5"
       gradientUnits="userSpaceOnUse"
       gradientTransform="matrix(4.2512125e-6,2.8181204,-2.3953304,3.6134221e-6,2491.42,-22.4931)" />
    <radialGradient
       inkscape:collect="always"
       xlink:href="#linearGradient5394"
       id="radialGradient5400"
       cx="12"
       cy="1049.3622"
       fx="12"
       fy="1049.3622"
       r="12"
       gradientTransform="matrix(1,0,0,0.25,0,787.02164)"
       gradientUnits="userSpaceOnUse" />
    <linearGradient
       id="linearGradient4644-104-3-3-6-2-3-4-1">
      <stop
         offset="0"
         style="stop-color:#ff4035;stop-opacity:1;"
         id="stop5237-6-5-1-7-5-2-4" />
      <stop
         offset="1"
         style="stop-color:#dc311a;stop-opacity:1;"
         id="stop5239-4-6-4-8-4-8-9" />
    </linearGradient>
    <linearGradient
       inkscape:collect="always"
       xlink:href="#linearGradient5380"
       id="linearGradient4190"
       x1="11"
       y1="1"
       x2="11"
       y2="21"
       gradientUnits="userSpaceOnUse" />
  </defs>
  <sodipodi:namedview
     id="base"
     pagecolor="#ffffff"
     bordercolor="#666666"
     borderopacity="1.0"
     inkscape:pageopacity="0.0"
     inkscape:pageshadow="2"
     inkscape:zoom="11.911197"
     inkscape:cx="10.696029"
     inkscape:cy="2.8497021"
     inkscape:document-units="px"
     inkscape:current-layer="layer1"
     showgrid="true"
     units="px"
     inkscape:window-width="1366"
     inkscape:window-height="713"
     inkscape:window-x="0"
     inkscape:window-y="30"
     inkscape:window-maximized="1">
    <inkscape:grid
       type="xygrid"
       id="grid4232" />
  </sodipodi:namedview>
  <metadata
     id="metadata4817">
    <rdf:RDF>
      <cc:Work
         rdf:about="">
        <dc:format>image/svg+xml</dc:format>
        <dc:type
           rdf:resource="http://purl.org/dc/dcmitype/StillImage" />
        <dc:title></dc:title>
      </cc:Work>
    </rdf:RDF>
  </metadata>
  <g
     inkscape:label="Livello 1"
     inkscape:groupmode="layer"
     id="layer1"
     transform="translate(0,-1028.3622)">
    <rect
       style="opacity:0.4;fill:url(#radialGradient5400);fill-opacity:1;stroke:none;stroke-width:3;stroke-linejoin:round;stroke-miterlimit:4;stroke-dasharray:none;stroke-opacity:1"
       id="rect5392"
       width="24"
       height="6"
       x="0"
       y="1046.3622" />
    <path
       style="opacity:1;fill:url(#radialGradient5373);fill-opacity:1;stroke:none;stroke-width:3;stroke-linejoin:round;stroke-miterlimit:4;stroke-dasharray:none;stroke-opacity:1"
       d="M 7.5 1.5 A 6.0000005 6.0000005 0 0 0 1.5 7.5 A 6.0000005 6.0000005 0 0 0 2.5683594 10.90625 A 9.5 9.5 0 0 0 2.5 12 A 9.5 9.5 0 0 0 12 21.5 A 9.5 9.5 0 0 0 13.080078 21.427734 A 6.0000005 6.0000005 0 0 0 16.5 22.5 A 6.0000005 6.0000005 0 0 0 22.5 16.5 A 6.0000005 6.0000005 0 0 0 21.431641 13.09375 A 9.5 9.5 0 0 0 21.5 12 A 9.5 9.5 0 0 0 12 2.5 A 9.5 9.5 0 0 0 10.923828 2.5722656 A 6.0000005 6.0000005 0 0 0 7.5 1.5 z "
       transform="translate(0,1028.3622)"
       id="path5365" />
    <path
       style="opacity:0.4;fill:none;fill-opacity:1;stroke:url(#linearGradient4190);stroke-width:1;stroke-linejoin:round;stroke-miterlimit:4;stroke-dasharray:none;stroke-opacity:1"
       d="M 7.5 2.5 A 4.9999995 4.9999995 0 0 0 2.5 7.5 A 4.9999995 4.9999995 0 0 0 3.6191406 10.646484 A 8.5 8.5 0 0 0 3.5 12 A 8.5 8.5 0 0 0 12 20.5 A 8.5 8.5 0 0 0 13.361328 20.386719 A 4.9999995 4.9999995 0 0 0 16.5 21.5 A 4.9999995 4.9999995 0 0 0 21.5 16.5 A 4.9999995 4.9999995 0 0 0 20.380859 13.351562 A 8.5 8.5 0 0 0 20.5 12 A 8.5 8.5 0 0 0 12 3.5 A 8.5 8.5 0 0 0 10.638672 3.6132812 A 4.9999995 4.9999995 0 0 0 7.5 2.5 z "
       transform="translate(0,1028.3622)"
       id="circle4172" />
    <path
       id="path4181"
       transform="translate(0,1028.3622)"
       d="M 7.5 1.5 A 6.0000005 6.0000005 0 0 0 1.5 7.5 A 6.0000005 6.0000005 0 0 0 2.5683594 10.90625 A 9.5 9.5 0 0 0 2.5 12 A 9.5 9.5 0 0 0 12 21.5 A 9.5 9.5 0 0 0 13.080078 21.427734 A 6.0000005 6.0000005 0 0 0 16.5 22.5 A 6.0000005 6.0000005 0 0 0 22.5 16.5 A 6.0000005 6.0000005 0 0 0 21.431641 13.09375 A 9.5 9.5 0 0 0 21.5 12 A 9.5 9.5 0 0 0 12 2.5 A 9.5 9.5 0 0 0 10.923828 2.5722656 A 6.0000005 6.0000005 0 0 0 7.5 1.5 z "
       style="opacity:0.6;fill:none;fill-opacity:1;stroke:#144696;stroke-width:1;stroke-linejoin:round;stroke-miterlimit:4;stroke-dasharray:none;stroke-opacity:1" />
    <path
       style="color:#000000;display:inline;overflow:visible;visibility:visible;opacity:0.07000002;fill:#000000;fill-opacity:1;fill-rule:nonzero;stroke:#000000;stroke-width:1;stroke-linejoin:round;stroke-opacity:1;marker:none;enable-background:accumulate"
       d="m 11.787137,1035.3619 c 0.739966,2e-4 0.874219,0.01 1.327524,0.1038 1.957505,0.4026 3.324576,1.3809 3.379156,2.427 0.0083,0.1589 -0.01244,0.3468 -0.04023,0.4283 -0.06716,0.1969 -0.290864,0.4334 -0.536374,0.5581 -0.178606,0.091 -0.254912,0.1038 -0.590011,0.1038 -0.299126,0 -0.410426,-0.018 -0.536374,-0.078 -0.0885,-0.042 -0.412002,-0.318 -0.710695,-0.61 -0.605055,-0.5915 -0.840255,-0.7377 -1.461619,-0.8955 -0.426483,-0.1084 -1.326769,-0.1099 -1.729806,-0.013 -0.79481,0.1912 -1.2368352,0.6543 -1.23366,1.2979 0.00204,0.4144 0.2433493,0.729 0.764333,0.9604 0.389289,0.1729 0.61643,0.2302 2.373454,0.61 0.803787,0.1738 1.618404,0.3631 1.810262,0.4283 1.45101,0.4929 2.220967,1.3759 2.373455,2.6995 0.120301,1.0442 -0.226158,2.0273 -0.952064,2.7255 -0.62609,0.6021 -1.501437,0.9814 -2.668461,1.168 -0.454172,0.072 -1.73053,0.1131 -2.212542,0.065 -1.7724787,-0.1771 -3.1093498,-0.8055 -3.7814355,-1.7781 C 7.1260703,1045.2214 7,1044.8495 7,1044.5117 c 0,-0.4425 0.1752032,-0.7408 0.5363735,-0.9344 0.1918222,-0.103 0.2431915,-0.1169 0.5900119,-0.1169 0.54311,0 0.6983811,0.1011 1.287297,0.8047 0.6116976,0.7309 1.0618216,1.0239 1.7834436,1.1681 1.297728,0.2592 2.545942,-0.138 2.950056,-0.9344 0.09477,-0.1869 0.121157,-0.2622 0.120684,-0.5452 -5.71e-4,-0.2837 -0.02734,-0.3599 -0.120684,-0.5321 -0.121776,-0.2247 -0.36295,-0.444 -0.630239,-0.5581 -0.0978,-0.042 -1.015035,-0.2838 -2.038221,-0.5321 -1.023186,-0.2482 -2.0103538,-0.4954 -2.1857238,-0.5581 -1.2524946,-0.4469 -1.9245357,-1.1093 -2.1723139,-2.1024 -0.117759,-0.472 -0.1198253,-1.2203 0,-1.6613 0.374166,-1.3771 1.5273035,-2.2322 3.4462027,-2.5697 0.304103,-0.053 0.596838,-0.078 1.220251,-0.078 z"
       id="path4251"
       inkscape:connector-curvature="0" />
    <path
       inkscape:connector-curvature="0"
       id="path4249"
       d="m 11.787137,1035.3619 c 0.739966,2e-4 0.874219,0.01 1.327524,0.1038 1.957505,0.4026 3.324576,1.3809 3.379156,2.427 0.0083,0.1589 -0.01244,0.3468 -0.04023,0.4283 -0.06716,0.1969 -0.290864,0.4334 -0.536374,0.5581 -0.178606,0.091 -0.254912,0.1038 -0.590011,0.1038 -0.299126,0 -0.410426,-0.018 -0.536374,-0.078 -0.0885,-0.042 -0.412002,-0.318 -0.710695,-0.61 -0.605055,-0.5915 -0.840255,-0.7377 -1.461619,-0.8955 -0.426483,-0.1084 -1.326769,-0.1099 -1.729806,-0.013 -0.79481,0.1912 -1.2368352,0.6543 -1.23366,1.2979 0.00204,0.4144 0.2433493,0.729 0.764333,0.9604 0.389289,0.1729 0.61643,0.2302 2.373454,0.61 0.803787,0.1738 1.618404,0.3631 1.810262,0.4283 1.45101,0.4929 2.220967,1.3759 2.373455,2.6995 0.120301,1.0442 -0.226158,2.0273 -0.952064,2.7255 -0.62609,0.6021 -1.501437,0.9814 -2.668461,1.168 -0.454172,0.072 -1.73053,0.1131 -2.212542,0.065 -1.7724787,-0.1771 -3.1093498,-0.8055 -3.7814355,-1.7781 C 7.1260703,1045.2214 7,1044.8495 7,1044.5117 c 0,-0.4425 0.1752032,-0.7408 0.5363735,-0.9344 0.1918222,-0.103 0.2431915,-0.1169 0.5900119,-0.1169 0.54311,0 0.6983811,0.1011 1.287297,0.8047 0.6116976,0.7309 1.0618216,1.0239 1.7834436,1.1681 1.297728,0.2592 2.545942,-0.138 2.950056,-0.9344 0.09477,-0.1869 0.121157,-0.2622 0.120684,-0.5452 -5.71e-4,-0.2837 -0.02734,-0.3599 -0.120684,-0.5321 -0.121776,-0.2247 -0.36295,-0.444 -0.630239,-0.5581 -0.0978,-0.042 -1.015035,-0.2838 -2.038221,-0.5321 -1.023186,-0.2482 -2.0103538,-0.4954 -2.1857238,-0.5581 -1.2524946,-0.4469 -1.9245357,-1.1093 -2.1723139,-2.1024 -0.117759,-0.472 -0.1198253,-1.2203 0,-1.6613 0.374166,-1.3771 1.5273035,-2.2322 3.4462027,-2.5697 0.304103,-0.053 0.596838,-0.078 1.220251,-0.078 z"
       style="color:#000000;display:inline;overflow:visible;visibility:visible;opacity:0.15000006;fill:#000000;fill-opacity:1;fill-rule:nonzero;stroke:none;stroke-width:1;marker:none;enable-background:accumulate" />
    <path
       style="color:#000000;display:inline;overflow:visible;visibility:visible;fill:#ffffff;fill-opacity:1;fill-rule:nonzero;stroke:none;stroke-width:1;marker:none;enable-background:accumulate"
       d="m 11.787137,1034.3619 c 0.739966,2e-4 0.874219,0.01 1.327524,0.1038 1.957505,0.4026 3.324576,1.3809 3.379156,2.427 0.0083,0.1589 -0.01244,0.3468 -0.04023,0.4283 -0.06716,0.1969 -0.290864,0.4334 -0.536374,0.5581 -0.178606,0.091 -0.254912,0.1038 -0.590011,0.1038 -0.299126,0 -0.410426,-0.018 -0.536374,-0.078 -0.0885,-0.042 -0.412002,-0.318 -0.710695,-0.61 -0.605055,-0.5915 -0.840255,-0.7377 -1.461619,-0.8955 -0.426483,-0.1084 -1.326769,-0.1099 -1.729806,-0.013 -0.79481,0.1912 -1.2368352,0.6543 -1.23366,1.2979 0.00204,0.4144 0.2433493,0.729 0.764333,0.9604 0.389289,0.1729 0.61643,0.2302 2.373454,0.61 0.803787,0.1738 1.618404,0.3631 1.810262,0.4283 1.45101,0.4929 2.220967,1.3759 2.373455,2.6995 0.120301,1.0442 -0.226158,2.0273 -0.952064,2.7255 -0.62609,0.6021 -1.501437,0.9814 -2.668461,1.168 -0.454172,0.072 -1.73053,0.1131 -2.212542,0.065 -1.7724787,-0.1771 -3.1093498,-0.8055 -3.7814355,-1.7781 C 7.1260703,1044.2214 7,1043.8495 7,1043.5117 c 0,-0.4425 0.1752032,-0.7408 0.5363735,-0.9344 0.1918222,-0.103 0.2431915,-0.1169 0.5900119,-0.1169 0.54311,0 0.6983811,0.1011 1.287297,0.8047 0.6116976,0.7309 1.0618216,1.0239 1.7834436,1.1681 1.297728,0.2592 2.545942,-0.138 2.950056,-0.9344 0.09477,-0.1869 0.121157,-0.2622 0.120684,-0.5452 -5.71e-4,-0.2837 -0.02734,-0.3599 -0.120684,-0.5321 -0.121776,-0.2247 -0.36295,-0.444 -0.630239,-0.5581 -0.0978,-0.042 -1.015035,-0.2838 -2.038221,-0.5321 -1.023186,-0.2482 -2.0103538,-0.4954 -2.1857238,-0.5581 -1.2524946,-0.4469 -1.9245357,-1.1093 -2.1723139,-2.1024 -0.117759,-0.472 -0.1198253,-1.2203 0,-1.6613 0.374166,-1.3771 1.5273035,-2.2322 3.4462027,-2.5697 0.304103,-0.053 0.596838,-0.078 1.220251,-0.078 z"
       id="path2879"
       inkscape:connector-curvature="0" />
  </g>
</svg>
