<?xml version="1.0" encoding="UTF-8" standalone="no"?>
<!-- Created with Inkscape (http://www.inkscape.org/) -->

<svg
   xmlns:dc="http://purl.org/dc/elements/1.1/"
   xmlns:cc="http://creativecommons.org/ns#"
   xmlns:rdf="http://www.w3.org/1999/02/22-rdf-syntax-ns#"
   xmlns:svg="http://www.w3.org/2000/svg"
   xmlns="http://www.w3.org/2000/svg"
   xmlns:xlink="http://www.w3.org/1999/xlink"
   xmlns:sodipodi="http://sodipodi.sourceforge.net/DTD/sodipodi-0.dtd"
   xmlns:inkscape="http://www.inkscape.org/namespaces/inkscape"
   version="1.1"
   width="24"
   height="24"
   id="svg6034"
   inkscape:version="0.91 r"
   sodipodi:docname="logviewer.svg">
  <sodipodi:namedview
     pagecolor="#ffffff"
     bordercolor="#666666"
     borderopacity="1"
     objecttolerance="10"
     gridtolerance="10"
     guidetolerance="10"
     inkscape:pageopacity="0"
     inkscape:pageshadow="2"
     inkscape:window-width="1564"
     inkscape:window-height="789"
     id="namedview3415"
     showgrid="false"
     inkscape:zoom="28.410773"
     inkscape:cx="5.699573"
     inkscape:cy="12"
     inkscape:window-x="165"
     inkscape:window-y="137"
     inkscape:window-maximized="0"
     inkscape:current-layer="g7983" />
  <defs
     id="defs6036">
    <linearGradient
       id="linearGradient3688-166-749-654">
      <stop
         id="stop3088"
         style="stop-color:#181818;stop-opacity:1"
         offset="0" />
      <stop
         id="stop3090"
         style="stop-color:#181818;stop-opacity:0"
         offset="1" />
    </linearGradient>
    <linearGradient
       id="linearGradient3688-464-309-604">
      <stop
         id="stop3094"
         style="stop-color:#181818;stop-opacity:1"
         offset="0" />
      <stop
         id="stop3096"
         style="stop-color:#181818;stop-opacity:0"
         offset="1" />
    </linearGradient>
    <linearGradient
       id="linearGradient3702-501-757-795">
      <stop
         id="stop3100"
         style="stop-color:#181818;stop-opacity:0"
         offset="0" />
      <stop
         id="stop3102"
         style="stop-color:#181818;stop-opacity:1"
         offset="0.5" />
      <stop
         id="stop3104"
         style="stop-color:#181818;stop-opacity:0"
         offset="1" />
    </linearGradient>
    <radialGradient
       cx="31.999998"
       cy="4.3419166"
       r="27.5"
       fx="31.999998"
       fy="4.3419166"
       id="radialGradient3163"
       xlink:href="#linearGradient4632-92-3-0-8-1-7"
       gradientUnits="userSpaceOnUse"
       gradientTransform="matrix(0,0.77011207,-0.770112,0,15.343762,1006.6669)" />
    <linearGradient
       id="linearGradient4632-92-3-0-8-1-7">
      <stop
         id="stop4634-68-8-0-2-9-4"
         style="stop-color:#fafafa;stop-opacity:1"
         offset="0" />
      <stop
         id="stop4636-8-21-7-1-4-0"
         style="stop-color:#e1e1e1;stop-opacity:1"
         offset="1" />
    </linearGradient>
    <linearGradient
       x1="16.80644"
       y1="20.620281"
       x2="16.80644"
       y2="42.728077"
       id="linearGradient3159"
       xlink:href="#linearGradient4035"
       gradientUnits="userSpaceOnUse"
       gradientTransform="matrix(0.78604747,0,0,0.78604747,-0.83288355,1015.4648)" />
    <linearGradient
       id="linearGradient4035">
      <stop
         id="stop4037"
         style="stop-color:#ffffff;stop-opacity:1"
         offset="0" />
      <stop
         id="stop4039"
         style="stop-color:#ffffff;stop-opacity:0.23529412"
         offset="0.05555556" />
      <stop
         id="stop4041"
         style="stop-color:#ffffff;stop-opacity:0.15686275"
         offset="0.94444442" />
      <stop
         id="stop4043"
         style="stop-color:#ffffff;stop-opacity:0.39215687"
         offset="1" />
    </linearGradient>
    <linearGradient
       x1="25.058096"
       y1="47.027729"
       x2="25.058096"
       y2="39.999443"
       id="linearGradient6110"
       xlink:href="#linearGradient3702-501-757-795"
       gradientUnits="userSpaceOnUse"
       gradientTransform="matrix(0.57142897,0,0,0.42857138,-1.7523777,1031.2194)" />
    <radialGradient
       cx="4.9929786"
       cy="43.5"
       r="2.5"
       fx="4.9929786"
       fy="43.5"
       id="radialGradient6113"
       xlink:href="#linearGradient3688-464-309-604"
       gradientUnits="userSpaceOnUse"
       gradientTransform="matrix(1.1864531,0,0,0.59999999,-9.8886228,-1075.9622)" />
    <radialGradient
       cx="4.9964824"
       cy="43.5"
       r="2.5"
       fx="4.9964824"
       fy="43.5"
       id="radialGradient6116"
       xlink:href="#linearGradient3688-166-749-654"
       gradientUnits="userSpaceOnUse"
       gradientTransform="matrix(1.2022703,1.5809436e-7,-3.0819731e-8,0.60000462,13.992879,1023.7621)" />
    <linearGradient
       x1="44.200016"
       y1="1037.505"
       x2="53.800014"
       y2="1037.505"
       id="linearGradient4967"
       xlink:href="#linearGradient12739"
       gradientUnits="userSpaceOnUse"
       gradientTransform="matrix(0.31250001,0,0,0.3888889,1029.5496,-421.47421)" />
    <linearGradient
       id="linearGradient12739">
      <stop
         id="stop12741"
         style="stop-color:#ffffff;stop-opacity:1"
         offset="0" />
      <stop
         id="stop12743"
         style="stop-color:#ffffff;stop-opacity:0"
         offset="1" />
    </linearGradient>
    <radialGradient
       cx="51.91"
       cy="38.188026"
       r="27.5"
       fx="51.91"
       fy="38.188026"
       id="radialGradient4973"
       xlink:href="#linearGradient12727"
       gradientUnits="userSpaceOnUse"
       gradientTransform="matrix(0,0.13397128,-0.13397131,0,23.116094,1039.4437)"
       spreadMethod="pad" />
    <linearGradient
       id="linearGradient12727">
      <stop
         id="stop12729"
         style="stop-color:#181818;stop-opacity:0"
         offset="0" />
      <stop
         id="stop12745"
         style="stop-color:#181818;stop-opacity:0"
         offset="0.53846145" />
      <stop
         id="stop12731"
         style="stop-color:#181818;stop-opacity:1"
         offset="1" />
    </linearGradient>
    <linearGradient
       x1="30.5"
       y1="29.999983"
       x2="49.5"
       y2="29.999983"
       id="linearGradient4975"
       xlink:href="#linearGradient4632-92-3-0-8-1-7-6"
       gradientUnits="userSpaceOnUse"
       gradientTransform="matrix(0.36842106,0,0,0.36842106,3.2631459,1035.3092)" />
    <linearGradient
       id="linearGradient4632-92-3-0-8-1-7-6">
      <stop
         id="stop4634-68-8-0-2-9-4-8"
         style="stop-color:#fafafa;stop-opacity:1"
         offset="0" />
      <stop
         id="stop4636-8-21-7-1-4-0-7"
         style="stop-color:#e1e1e1;stop-opacity:1"
         offset="1" />
    </linearGradient>
    <linearGradient
       x1="33.243969"
       y1="42.379356"
       x2="66.731972"
       y2="42.379356"
       id="linearGradient4977"
       xlink:href="#linearGradient3878"
       gradientUnits="userSpaceOnUse"
       gradientTransform="matrix(0,0.27950309,-0.27950308,0,29.847012,1032.3904)" />
    <linearGradient
       id="linearGradient3878">
      <stop
         id="stop3880"
         style="stop-color:#ffffff;stop-opacity:1"
         offset="0" />
      <stop
         id="stop3882"
         style="stop-color:#ffffff;stop-opacity:0.23529412"
         offset="0.07692312" />
      <stop
         id="stop3884"
         style="stop-color:#ffffff;stop-opacity:0.15686275"
         offset="0.92307693" />
      <stop
         id="stop3886"
         style="stop-color:#ffffff;stop-opacity:0.39215687"
         offset="1" />
    </linearGradient>
    <linearGradient
       x1="79.457138"
       y1="22.857172"
       x2="79.457138"
       y2="50.057175"
       id="linearGradient4985"
       xlink:href="#linearGradient4220-7"
       gradientUnits="userSpaceOnUse"
       gradientTransform="matrix(0.41938988,0,0,0.41938988,-15.323523,1031.0724)" />
    <linearGradient
       id="linearGradient4220-7">
      <stop
         id="stop4222-7"
         style="stop-color:#7a8498;stop-opacity:1"
         offset="0" />
      <stop
         id="stop4224-0"
         style="stop-color:#34405c;stop-opacity:1"
         offset="1" />
    </linearGradient>
    <clipPath
       id="clipPath6787">
      <rect
         width="7"
         height="7"
         rx="25"
         ry="25"
         x="14.499982"
         y="1042.8618"
         id="rect6789"
         style="color:#000000;fill:url(#linearGradient6791);fill-opacity:1;fill-rule:nonzero;stroke:none;stroke-width:0.99999994;marker:none;visibility:visible;display:inline;overflow:visible;enable-background:accumulate" />
    </clipPath>
    <linearGradient
       x1="30.5"
       y1="29.999983"
       x2="49.5"
       y2="29.999983"
       id="linearGradient6791"
       xlink:href="#linearGradient4632-92-3-0-8-1-7-6"
       gradientUnits="userSpaceOnUse"
       gradientTransform="matrix(0.36842106,0,0,0.36842106,3.2631459,1035.3092)" />
  </defs>
  <metadata
     id="metadata6039">
    <rdf:RDF>
      <cc:Work
         rdf:about="">
        <dc:format>image/svg+xml</dc:format>
        <dc:type
           rdf:resource="http://purl.org/dc/dcmitype/StillImage" />
        <dc:title></dc:title>
      </cc:Work>
    </rdf:RDF>
  </metadata>
  <g
     transform="translate(0,-1028.3622)"
     id="layer1">
    <g
       id="g7983">
      <g
         id="g7978">
        <rect
           width="3"
           height="3"
           x="20"
           y="1048.3622"
           id="rect2801"
           style="opacity:0.4;fill:url(#radialGradient6116);fill-opacity:1;stroke:none" />
        <rect
           width="3"
           height="3"
           x="-4"
           y="-1051.3622"
           transform="scale(-1,-1)"
           id="rect3696"
           style="opacity:0.4;fill:url(#radialGradient6113);fill-opacity:1;stroke:none" />
        <rect
           width="16"
           height="3"
           x="4"
           y="1048.3622"
           id="rect3700"
           style="opacity:0.4;fill:url(#linearGradient6110);fill-opacity:1;stroke:none" />
      </g>
      <rect
         width="18"
         height="18"
         x="3"
         y="1031.3622"
         id="rect5505-21-3-8-5-2"
         style="color:#000000;fill:url(#radialGradient3163);fill-opacity:1;fill-rule:nonzero;stroke:none;stroke-width:0.99999994;marker:none;visibility:visible;display:inline;overflow:visible;enable-background:accumulate" />
      <rect
         width="19"
         height="19"
         rx="1"
         ry="1"
         x="2.5"
         y="1030.8622"
         id="rect3993"
         style="opacity:0.3;fill:none;stroke:#000000;stroke-width:0.99999994;stroke-opacity:1" />
      <rect
         width="17"
         height="17"
         x="3.4999986"
         y="1031.8622"
         id="rect6741-5-0-2-3"
         style="opacity:0.5;fill:none;stroke:url(#linearGradient3159);stroke-width:1;stroke-linecap:round;stroke-linejoin:round;stroke-miterlimit:4;stroke-opacity:1;stroke-dasharray:none;stroke-dashoffset:0" />
      <g
         id="g4219"
         transform="matrix(0.32618354,0,0,0.32618354,1.4550214,1029.9652)">
        <path
           d="M 50.279958,32.321004 A 17.948251,17.948251 0 0 1 32.331706,50.269256 17.948251,17.948251 0 0 1 14.383453,32.321004 17.948251,17.948251 0 0 1 32.331706,14.372751 17.948251,17.948251 0 0 1 50.279958,32.321004 Z"
           id="path44775-5-0-5-1-7-9-8-6"
           style="fill:#ffffff;enable-background:new"
           inkscape:connector-curvature="0" />
        <path
           id="path44775-5-0-5-1-7-9-9"
           d="m 32.335909,13.480152 c -6.069545,0 -11.436827,3.027688 -14.685146,7.63934 -2.056714,2.919924 -3.274003,6.476807 -3.274003,10.319812 0,9.912544 8.046606,17.940005 17.959149,17.940005 9.912545,0 17.940005,-8.027461 17.940005,-17.940005 0,-3.844598 -1.215732,-7.399208 -3.274003,-10.319812 -3.248583,-4.609606 -8.598054,-7.63934 -14.666002,-7.63934 z"
           style="fill:#7c9fc8;enable-background:new"
           inkscape:connector-curvature="0" />
        <rect
           ry="0.47840798"
           rx="0.47840798"
           y="23.359392"
           x="24.332794"
           height="3.6760738"
           width="3.6760738"
           id="rect44799-14-9-6-6-8-5-65"
           style="fill:#e6e8e4;enable-background:new" />
        <rect
           ry="0.47840801"
           rx="0.47840801"
           y="23.359392"
           x="30.488647"
           height="3.6760738"
           width="3.6470084"
           id="rect44799-1-96-7-5-2-7-8-3"
           style="fill:#e6e8e4;enable-background:new" />
        <rect
           ry="0.47840801"
           rx="0.47840801"
           y="23.359392"
           x="36.586414"
           height="3.6760738"
           width="3.6760738"
           id="rect44799-1-3-1-4-2-3-8-0-5"
           style="fill:#e6e8e4;enable-background:new" />
        <path
           id="path44775-5-0-5-1-7-9-9-9-2"
           d="m 14.577676,33.844534 c 1.300876,8.633866 8.76091,15.247582 17.758233,15.247582 9.002147,0 16.449578,-6.620805 17.741638,-15.261465 l -35.499871,0.01391 z"
           style="fill:#7298c3;enable-background:new"
           inkscape:connector-curvature="0" />
        <rect
           ry="0.47840798"
           rx="0.47840798"
           y="29.486181"
           x="24.332794"
           height="3.6760738"
           width="3.6760738"
           id="rect44799-14-9-6-6-8-5-4-9"
           style="fill:#e6e8e4;enable-background:new" />
        <rect
           ry="0.47840801"
           rx="0.47840801"
           y="29.486181"
           x="30.488647"
           height="3.6760738"
           width="3.6470084"
           id="rect44799-1-96-7-5-2-7-8-1-2"
           style="fill:#e6e8e4;enable-background:new" />
        <rect
           ry="0.47840801"
           rx="0.47840801"
           y="29.486181"
           x="36.586414"
           height="3.6760738"
           width="3.6760738"
           id="rect44799-1-3-1-4-2-3-8-0-6-9"
           style="fill:#e6e8e4;enable-background:new" />
        <rect
           ry="0.47840798"
           rx="0.47840798"
           y="35.612972"
           x="24.332794"
           height="3.6760738"
           width="3.6760738"
           id="rect44799-14-9-6-6-8-5-4-8-2"
           style="fill:#e6e8e4;enable-background:new" />
        <rect
           ry="0.47840801"
           rx="0.47840801"
           y="35.612972"
           x="30.488647"
           height="3.6760738"
           width="3.6470084"
           id="rect44799-1-96-7-5-2-7-8-1-6-8"
           style="fill:#e6e8e4;enable-background:new" />
        <rect
           ry="0.47840801"
           rx="0.47840801"
           y="35.612972"
           x="36.586414"
           height="3.6760738"
           width="3.6760738"
           id="rect44799-1-3-1-4-2-3-8-0-6-2-0"
           style="fill:#e6e8e4;enable-background:new" />
        <path
           id="rect44799-14-9-6-6-8-5-9-5"
           d="m 24.945472,23.359392 c -0.339425,0 -0.612679,0.273254 -0.612679,0.612679 l 0,0.612678 c 0,-0.339424 0.273254,-0.612678 0.612679,-0.612678 l 2.450715,0 c 0.339424,0 0.612679,0.273254 0.612679,0.612678 l 0,-0.612678 c 0,-0.339425 -0.273255,-0.612679 -0.612679,-0.612679 l -2.450715,0 z"
           style="fill:#f9faf9;enable-background:new"
           inkscape:connector-curvature="0" />
        <path
           id="rect44799-14-9-6-6-8-5-9-4-3"
           d="m 31.072301,23.359392 c -0.339424,0 -0.612678,0.273254 -0.612678,0.612679 l 0,0.612678 c 0,-0.339424 0.273254,-0.612678 0.612678,-0.612678 l 2.450716,0 c 0.339424,0 0.612679,0.273254 0.612679,0.612678 l 0,-0.612678 c 0,-0.339425 -0.273255,-0.612679 -0.612679,-0.612679 l -2.450716,0 z"
           style="fill:#f9faf9;enable-background:new"
           inkscape:connector-curvature="0" />
        <path
           id="rect44799-14-9-6-6-8-5-9-4-4-5"
           d="m 37.199091,23.359392 c -0.339424,0 -0.612679,0.273254 -0.612679,0.612679 l 0,0.612678 c 0,-0.339424 0.273255,-0.612678 0.612679,-0.612678 l 2.450716,0 c 0.339424,0 0.612679,0.273254 0.612679,0.612678 l 0,-0.612678 c 0,-0.339425 -0.273255,-0.612679 -0.612679,-0.612679 l -2.450716,0 z"
           style="fill:#f9faf9;enable-background:new"
           inkscape:connector-curvature="0" />
        <path
           id="rect44799-14-9-6-6-8-5-9-7-8"
           d="m 24.945472,29.486181 c -0.339425,0 -0.612679,0.273255 -0.612679,0.612679 l 0,0.612679 c 0,-0.339424 0.273254,-0.612679 0.612679,-0.612679 l 2.450715,0 c 0.339424,0 0.612679,0.273255 0.612679,0.612679 l 0,-0.612679 c 0,-0.339424 -0.273255,-0.612679 -0.612679,-0.612679 l -2.450715,0 z"
           style="fill:#f9faf9;enable-background:new"
           inkscape:connector-curvature="0" />
        <path
           id="rect44799-14-9-6-6-8-5-9-4-7-1"
           d="m 31.072301,29.486181 c -0.339424,0 -0.612678,0.273255 -0.612678,0.612679 l 0,0.612679 c 0,-0.339424 0.273254,-0.612679 0.612678,-0.612679 l 2.450716,0 c 0.339424,0 0.612679,0.273255 0.612679,0.612679 l 0,-0.612679 c 0,-0.339424 -0.273255,-0.612679 -0.612679,-0.612679 l -2.450716,0 z"
           style="fill:#f9faf9;enable-background:new"
           inkscape:connector-curvature="0" />
        <path
           id="rect44799-14-9-6-6-8-5-9-4-4-6-3"
           d="m 37.199091,29.486181 c -0.339424,0 -0.612679,0.273255 -0.612679,0.612679 l 0,0.612679 c 0,-0.339424 0.273255,-0.612679 0.612679,-0.612679 l 2.450716,0 c 0.339424,0 0.612679,0.273255 0.612679,0.612679 l 0,-0.612679 c 0,-0.339424 -0.273255,-0.612679 -0.612679,-0.612679 l -2.450716,0 z"
           style="fill:#f9faf9;enable-background:new"
           inkscape:connector-curvature="0" />
        <path
           id="rect44799-14-9-6-6-8-5-9-7-7-0"
           d="m 24.945472,35.612971 c -0.339425,0 -0.612679,0.273254 -0.612679,0.612679 l 0,0.612678 c 0,-0.339424 0.273254,-0.612678 0.612679,-0.612678 l 2.450715,0 c 0.339424,0 0.612679,0.273254 0.612679,0.612678 l 0,-0.612678 c 0,-0.339425 -0.273255,-0.612679 -0.612679,-0.612679 l -2.450715,0 z"
           style="fill:#f9faf9;enable-background:new"
           inkscape:connector-curvature="0" />
        <path
           id="rect44799-14-9-6-6-8-5-9-4-7-6-4"
           d="m 31.072301,35.612971 c -0.339424,0 -0.612678,0.273254 -0.612678,0.612679 l 0,0.612678 c 0,-0.339424 0.273254,-0.612678 0.612678,-0.612678 l 2.450716,0 c 0.339424,0 0.612679,0.273254 0.612679,0.612678 l 0,-0.612678 c 0,-0.339425 -0.273255,-0.612679 -0.612679,-0.612679 l -2.450716,0 z"
           style="fill:#f9faf9;enable-background:new"
           inkscape:connector-curvature="0" />
        <path
           id="rect44799-14-9-6-6-8-5-9-4-4-6-9-6"
           d="m 37.199091,35.612971 c -0.339424,0 -0.612679,0.273254 -0.612679,0.612679 l 0,0.612678 c 0,-0.339424 0.273255,-0.612678 0.612679,-0.612678 l 2.450716,0 c 0.339424,0 0.612679,0.273254 0.612679,0.612678 l 0,-0.612678 c 0,-0.339425 -0.273255,-0.612679 -0.612679,-0.612679 l -2.450716,0 z"
           style="fill:#f9faf9;enable-background:new"
           inkscape:connector-curvature="0" />
      </g>
    </g>
  </g>
</svg>
