<?xml version="1.0" encoding="UTF-8" standalone="no"?>
<!-- Created with Inkscape (http://www.inkscape.org/) -->

<svg
   xmlns:dc="http://purl.org/dc/elements/1.1/"
   xmlns:cc="http://creativecommons.org/ns#"
   xmlns:rdf="http://www.w3.org/1999/02/22-rdf-syntax-ns#"
   xmlns:svg="http://www.w3.org/2000/svg"
   xmlns="http://www.w3.org/2000/svg"
   xmlns:xlink="http://www.w3.org/1999/xlink"
   xmlns:sodipodi="http://sodipodi.sourceforge.net/DTD/sodipodi-0.dtd"
   xmlns:inkscape="http://www.inkscape.org/namespaces/inkscape"
   version="1.0"
   width="16"
   height="16"
   id="svg8472"
   inkscape:version="0.91 r"
   sodipodi:docname="tool-node-editor.svg">
  <sodipodi:namedview
     pagecolor="#ffffff"
     bordercolor="#666666"
     borderopacity="1"
     objecttolerance="10"
     gridtolerance="10"
     guidetolerance="10"
     inkscape:pageopacity="0"
     inkscape:pageshadow="2"
     inkscape:window-width="1366"
     inkscape:window-height="713"
     id="namedview18"
     showgrid="true"
     inkscape:zoom="9.0445763"
     inkscape:cx="5.348647"
     inkscape:cy="8.5333765"
     inkscape:window-x="0"
     inkscape:window-y="30"
     inkscape:window-maximized="1"
     inkscape:current-layer="svg8472">
    <inkscape:grid
       type="xygrid"
       id="grid4146" />
  </sodipodi:namedview>
  <defs
     id="defs8474">
    <linearGradient
       inkscape:collect="always"
       id="linearGradient4182">
      <stop
         style="stop-color:#ffffff;stop-opacity:1;"
         offset="0"
         id="stop4184" />
      <stop
         style="stop-color:#ffffff;stop-opacity:0;"
         offset="1"
         id="stop4186" />
    </linearGradient>
    <linearGradient
       inkscape:collect="always"
       id="linearGradient4151">
      <stop
         style="stop-color:#787878;stop-opacity:1"
         offset="0"
         id="stop4153" />
      <stop
         style="stop-color:#505050;stop-opacity:1"
         offset="1"
         id="stop4155" />
    </linearGradient>
    <linearGradient
       id="linearGradient7653">
      <stop
         id="stop7655"
         style="stop-color:#babdb6;stop-opacity:1"
         offset="0" />
      <stop
         id="stop7657"
         style="stop-color:#eeeeec;stop-opacity:0"
         offset="1" />
    </linearGradient>
    <linearGradient
       id="linearGradient7669">
      <stop
         id="stop7671"
         style="stop-color:#555753;stop-opacity:1"
         offset="0" />
      <stop
         id="stop7673"
         style="stop-color:#555753;stop-opacity:0"
         offset="1" />
    </linearGradient>
    <linearGradient
       x1="336.38605"
       y1="426.56412"
       x2="336.38605"
       y2="424.16095"
       id="linearGradient9774"
       xlink:href="#linearGradient7653"
       gradientUnits="userSpaceOnUse"
       gradientTransform="matrix(0.6619286,0,0,0.5541422,-220.77558,-231.53464)" />
    <linearGradient
       x1="336.38605"
       y1="427.76694"
       x2="336.38605"
       y2="424.16095"
       id="linearGradient9777"
       xlink:href="#linearGradient7669"
       gradientUnits="userSpaceOnUse"
       gradientTransform="matrix(0.6626178,0,0,0.5383127,-221.02564,-224.722)" />
    <linearGradient
       inkscape:collect="always"
       xlink:href="#linearGradient4151"
       id="linearGradient4157"
       x1="8"
       y1="8"
       x2="8"
       y2="14.261623"
       gradientUnits="userSpaceOnUse" />
    <linearGradient
       inkscape:collect="always"
       xlink:href="#linearGradient4182"
       id="linearGradient4188"
       x1="8"
       y1="9"
       x2="8"
       y2="14"
       gradientUnits="userSpaceOnUse" />
  </defs>
  <metadata
     id="metadata8477">
    <rdf:RDF>
      <cc:Work
         rdf:about="">
        <dc:format>image/svg+xml</dc:format>
        <dc:type
           rdf:resource="http://purl.org/dc/dcmitype/StillImage" />
        <dc:title></dc:title>
        <dc:date>2006-05-01</dc:date>
        <dc:creator>
          <cc:Agent>
            <dc:title>Lapo Calamandrei</dc:title>
          </cc:Agent>
        </dc:creator>
        <cc:license
           rdf:resource="http://creativecommons.org/licenses/GPL/2.0/" />
        <dc:subject>
          <rdf:Bag>
            <rdf:li>node</rdf:li>
            <rdf:li>vertex</rdf:li>
            <rdf:li>smooth</rdf:li>
            <rdf:li>curve</rdf:li>
          </rdf:Bag>
        </dc:subject>
      </cc:Work>
      <cc:License
         rdf:about="http://creativecommons.org/licenses/GPL/2.0/">
        <cc:permits
           rdf:resource="http://web.resource.org/cc/Reproduction" />
        <cc:permits
           rdf:resource="http://web.resource.org/cc/Distribution" />
        <cc:requires
           rdf:resource="http://web.resource.org/cc/Notice" />
        <cc:permits
           rdf:resource="http://web.resource.org/cc/DerivativeWorks" />
        <cc:requires
           rdf:resource="http://web.resource.org/cc/ShareAlike" />
        <cc:requires
           rdf:resource="http://web.resource.org/cc/SourceCode" />
      </cc:License>
    </rdf:RDF>
  </metadata>
  <path
     style="opacity:1;fill:#555753;fill-opacity:1;stroke:none;stroke-width:1;stroke-linecap:butt;stroke-linejoin:miter;stroke-miterlimit:4;stroke-dasharray:none;stroke-opacity:1"
     d="m 0,9 a 7.999999,7.999999 0 0 1 4,-6.927734 7.999999,7.999999 0 0 1 8,0 A 7.999999,7.999999 0 0 1 16,9 l -3,0 a 4.9999986,4.9999986 0 0 0 -2.5,-4.3300781 4.9999986,4.9999986 0 0 0 -5,0 A 4.9999986,4.9999986 0 0 0 3,9 L 0,9 Z"
     id="path4152"
     inkscape:connector-curvature="0" />
  <path
     style="opacity:1;fill:#babdb6;fill-opacity:1;stroke:none;stroke-width:1;stroke-linecap:butt;stroke-linejoin:miter;stroke-miterlimit:4;stroke-dasharray:none;stroke-opacity:1"
     d="m 1,9 a 6.999999,6.999999 0 0 1 3.5,-6.0625 6.999999,6.999999 0 0 1 7,0 A 6.999999,6.999999 0 0 1 15,9 l -1,0 a 5.9999986,5.9999986 0 0 0 -3,-5.1953125 5.9999986,5.9999986 0 0 0 -6,0 A 5.9999986,5.9999986 0 0 0 2,9 L 1,9 Z"
     id="path4160"
     inkscape:connector-curvature="0" />
  <path
     style="opacity:1;fill:#3465a4;fill-opacity:1;stroke:none;stroke-width:1;stroke-linecap:butt;stroke-linejoin:miter;stroke-miterlimit:4;stroke-dasharray:none;stroke-opacity:1"
     d="M 2.5,5 A 2.5,2.5 0 0 1 0,2.5 2.5,2.5 0 0 1 2.5,0 2.5,2.5 0 0 1 4.4980469,1 L 11.503906,1 A 2.5,2.5 0 0 1 13.5,0 2.5,2.5 0 0 1 16,2.5 2.5,2.5 0 0 1 13.5,5 2.5,2.5 0 0 1 11.501953,4 L 4.4960938,4 A 2.5,2.5 0 0 1 2.5,5 Z m 0,-2 A 0.49999994,0.49999994 0 0 0 3,2.5 0.49999994,0.49999994 0 0 0 2.5,2 0.49999994,0.49999994 0 0 0 2,2.5 0.49999994,0.49999994 0 0 0 2.5,3 Z m 11,0 A 0.49999994,0.49999994 0 0 0 14,2.5 0.49999994,0.49999994 0 0 0 13.5,2 0.49999994,0.49999994 0 0 0 13,2.5 0.49999994,0.49999994 0 0 0 13.5,3 Z"
     id="path4190"
     inkscape:connector-curvature="0" />
  <path
     style="opacity:1;fill:#e5edf7;fill-opacity:1;stroke:none;stroke-width:1;stroke-linecap:butt;stroke-linejoin:miter;stroke-miterlimit:4;stroke-dasharray:none;stroke-opacity:1"
     d="M 2.5,4 A 1.5000004,1.5000004 0 0 1 1,2.5 1.5000004,1.5000004 0 0 1 2.5,1 1.5000004,1.5000004 0 0 1 3.9121094,2 L 12.087891,2 A 1.5000004,1.5000004 0 0 1 13.5,1 1.5000004,1.5000004 0 0 1 15,2.5 1.5000004,1.5000004 0 0 1 13.5,4 1.5000004,1.5000004 0 0 1 12.087891,3 L 3.9121094,3 A 1.5000004,1.5000004 0 0 1 2.5,4 Z m 0,-1 A 0.49999988,0.49999988 0 0 0 3,2.5 0.49999988,0.49999988 0 0 0 2.5,2 0.49999988,0.49999988 0 0 0 2,2.5 0.49999988,0.49999988 0 0 0 2.5,3 Z m 11,0 A 0.49999988,0.49999988 0 0 0 14,2.5 0.49999988,0.49999988 0 0 0 13.5,2 0.49999988,0.49999988 0 0 0 13,2.5 0.49999988,0.49999988 0 0 0 13.5,3 Z"
     id="circle4200"
     inkscape:connector-curvature="0" />
  <rect
     style="opacity:1;fill:#d3d7cf;fill-opacity:1;stroke:#888a85;stroke-width:1;stroke-linecap:butt;stroke-linejoin:round;stroke-miterlimit:4;stroke-dasharray:none;stroke-opacity:1"
     id="rect4166"
     width="5"
     height="5"
     x="5.5"
     y="-5.5"
     transform="scale(1,-1)" />
  <rect
     style="opacity:0.8;fill:none;fill-opacity:1;stroke:#ffffff;stroke-width:1;stroke-linecap:butt;stroke-linejoin:miter;stroke-miterlimit:4;stroke-dasharray:none;stroke-opacity:1"
     id="rect4168"
     width="3"
     height="3"
     x="6.5"
     y="-4.5"
     transform="scale(1,-1)" />
  <path
     style="fill:url(#linearGradient4157);fill-opacity:1;fill-rule:evenodd;stroke:none;stroke-width:1px;stroke-linecap:butt;stroke-linejoin:miter;stroke-opacity:1"
     d="m 8,7.5 -3.5,7 7,0 z"
     id="path4147"
     inkscape:connector-curvature="0"
     sodipodi:nodetypes="cccc" />
  <path
     sodipodi:nodetypes="cccc"
     inkscape:connector-curvature="0"
     id="path4159"
     d="m 8,7.5 -3.5,7 7,0 z"
     style="fill:none;fill-opacity:1;fill-rule:evenodd;stroke:#000000;stroke-width:1px;stroke-linecap:butt;stroke-linejoin:round;stroke-opacity:1;opacity:0.7" />
  <path
     style="opacity:0.4;fill:none;fill-opacity:1;fill-rule:evenodd;stroke:url(#linearGradient4188);stroke-width:1px;stroke-linecap:butt;stroke-linejoin:miter;stroke-opacity:1"
     d="m 8,9.7 -1.9,3.8 3.8,0 z"
     id="path4180"
     inkscape:connector-curvature="0"
     sodipodi:nodetypes="cccc" />
</svg>
