<?xml version="1.0" encoding="UTF-8" standalone="no"?>
<svg
   xmlns:dc="http://purl.org/dc/elements/1.1/"
   xmlns:cc="http://creativecommons.org/ns#"
   xmlns:rdf="http://www.w3.org/1999/02/22-rdf-syntax-ns#"
   xmlns:svg="http://www.w3.org/2000/svg"
   xmlns="http://www.w3.org/2000/svg"
   xmlns:xlink="http://www.w3.org/1999/xlink"
   xmlns:sodipodi="http://sodipodi.sourceforge.net/DTD/sodipodi-0.dtd"
   xmlns:inkscape="http://www.inkscape.org/namespaces/inkscape"
   version="1.1"
   width="48"
   height="48"
   id="svg4031"
   inkscape:version="0.91 r13725"
   sodipodi:docname="aptdaemon-setup.svg">
  <sodipodi:namedview
     pagecolor="#ffffff"
     bordercolor="#666666"
     borderopacity="1"
     objecttolerance="10"
     gridtolerance="10"
     guidetolerance="10"
     inkscape:pageopacity="0"
     inkscape:pageshadow="2"
     inkscape:window-width="1535"
     inkscape:window-height="876"
     id="namedview55"
     showgrid="false"
     inkscape:zoom="4.9166667"
     inkscape:cx="-10.779661"
     inkscape:cy="24"
     inkscape:window-x="65"
     inkscape:window-y="24"
     inkscape:window-maximized="1"
     inkscape:current-layer="svg4031" />
  <defs
     id="defs4033">
    <linearGradient
       x1="71.204407"
       y1="6.2375584"
       x2="71.204407"
       y2="44.340794"
       id="linearGradient3114"
       xlink:href="#linearGradient4011"
       gradientUnits="userSpaceOnUse"
       gradientTransform="matrix(1.054054,0,0,1.054054,-51.611001,-2.7279009)" />
    <linearGradient
       id="linearGradient4011">
      <stop
         id="stop4013"
         style="stop-color:#ffffff;stop-opacity:1"
         offset="0" />
      <stop
         id="stop4015"
         style="stop-color:#ffffff;stop-opacity:0.23529412"
         offset="0.507761" />
      <stop
         id="stop4017"
         style="stop-color:#ffffff;stop-opacity:0.15686275"
         offset="0.83456558" />
      <stop
         id="stop4019"
         style="stop-color:#ffffff;stop-opacity:0.39215687"
         offset="1" />
    </linearGradient>
    <radialGradient
       cx="3.9722471"
       cy="8.4497671"
       r="19.99999"
       fx="3.9722471"
       fy="8.4497671"
       id="radialGradient3117"
       xlink:href="#linearGradient2867-449-88-871-390-598-476-591-434-148-57-177-3-8"
       gradientUnits="userSpaceOnUse"
       gradientTransform="matrix(0,2.4988347,-2.6434689,-6.8014435e-8,46.336814,-12.180468)" />
    <linearGradient
       id="linearGradient2867-449-88-871-390-598-476-591-434-148-57-177-3-8">
      <stop
         id="stop3750-8-9"
         style="stop-color:#90dbec;stop-opacity:1"
         offset="0" />
      <stop
         id="stop3752-3-2"
         style="stop-color:#42baea;stop-opacity:1"
         offset="0.26238" />
      <stop
         id="stop3754-7-2"
         style="stop-color:#3689e6;stop-opacity:1"
         offset="0.704952" />
      <stop
         id="stop3756-9-3"
         style="stop-color:#2b63a0;stop-opacity:1"
         offset="1" />
    </linearGradient>
    <linearGradient
       id="linearGradient3820-7-2-1">
      <stop
         id="stop3822-2-6-3"
         style="stop-color:#3d3d3d;stop-opacity:1"
         offset="0" />
      <stop
         id="stop3864-8-7-7"
         style="stop-color:#686868;stop-opacity:0.49803922"
         offset="0.5" />
      <stop
         id="stop3824-1-2-5"
         style="stop-color:#686868;stop-opacity:0"
         offset="1" />
    </linearGradient>
    <radialGradient
       cx="99.157013"
       cy="186.17059"
       r="62.769119"
       fx="99.157013"
       fy="186.17059"
       id="radialGradient4029"
       xlink:href="#linearGradient3820-7-2-1"
       gradientUnits="userSpaceOnUse"
       gradientTransform="matrix(0.27083381,0,0,0.08762273,-2.855072,25.187228)" />
    <radialGradient
       cx="6.702713"
       cy="73.615715"
       r="7.228416"
       fx="6.702713"
       fy="73.615715"
       id="radialGradient3026"
       xlink:href="#linearGradient10691"
       gradientUnits="userSpaceOnUse"
       gradientTransform="matrix(1.6600963,0,0,0.36315008,24.872987,18.641448)" />
    <linearGradient
       x1="32.036148"
       y1="19"
       x2="32.036148"
       y2="47.012184"
       id="linearGradient3021"
       xlink:href="#linearGradient3309-1"
       gradientUnits="userSpaceOnUse"
       gradientTransform="matrix(0.77777782,0,0,0.77777782,11.889023,10.333331)" />
    <linearGradient
       x1="86.132919"
       y1="105.105"
       x2="84.63858"
       y2="20.895"
       id="linearGradient3017"
       xlink:href="#linearGradient5128"
       gradientUnits="userSpaceOnUse"
       gradientTransform="matrix(0.15623116,0,0,0.15623125,26.001335,26.157431)" />
    <linearGradient
       x1="12.47939"
       y1="2"
       x2="12.47939"
       y2="22.006775"
       id="linearGradient3014"
       xlink:href="#linearGradient3805"
       gradientUnits="userSpaceOnUse"
       gradientTransform="translate(24.000135,24)" />
    <linearGradient
       x1="12"
       y1="16"
       x2="12"
       y2="8"
       id="linearGradient3011"
       xlink:href="#linearGradient3805"
       gradientUnits="userSpaceOnUse"
       gradientTransform="matrix(1.0116033,0,0,1.0116033,23.860895,23.860761)" />
    <linearGradient
       id="linearGradient10691">
      <stop
         id="stop10693"
         style="stop-color:#000000;stop-opacity:1"
         offset="0" />
      <stop
         id="stop10695"
         style="stop-color:#000000;stop-opacity:0"
         offset="1" />
    </linearGradient>
    <linearGradient
       x1="63.9995"
       y1="3.1001"
       x2="63.9995"
       y2="122.8994"
       id="linearGradient3309-1"
       gradientUnits="userSpaceOnUse">
      <stop
         id="stop3311-5"
         style="stop-color:#f6f6f6;stop-opacity:1"
         offset="0" />
      <stop
         id="stop3313-0"
         style="stop-color:#d2d2d2;stop-opacity:1"
         offset="1" />
    </linearGradient>
    <linearGradient
       id="linearGradient5128">
      <stop
         id="stop5130"
         style="stop-color:#ffffff;stop-opacity:1"
         offset="0" />
      <stop
         id="stop5132"
         style="stop-color:#959595;stop-opacity:1"
         offset="1" />
    </linearGradient>
    <linearGradient
       id="linearGradient3805">
      <stop
         id="stop3807"
         style="stop-color:#ffffff;stop-opacity:1"
         offset="0" />
      <stop
         id="stop3809"
         style="stop-color:#ffffff;stop-opacity:0"
         offset="1" />
    </linearGradient>
  </defs>
  <metadata
     id="metadata4036">
    <rdf:RDF>
      <cc:Work
         rdf:about="">
        <dc:format>image/svg+xml</dc:format>
        <dc:type
           rdf:resource="http://purl.org/dc/dcmitype/StillImage" />
        <dc:title />
      </cc:Work>
    </rdf:RDF>
  </metadata>
  <path
     inkscape:connector-curvature="0"
     style="color:#000000;display:inline;overflow:visible;visibility:visible;fill:url(#radialGradient3117);fill-opacity:1;fill-rule:nonzero;stroke:none;stroke-width:1;marker:none;enable-background:accumulate"
     id="path2555"
     d="M 24.000003,3.4999982 C 12.68881,3.4999982 3.4999996,12.688804 3.4999996,23.999998 3.4999996,35.311192 12.68881,44.500003 24.000003,44.5 35.311191,44.5 44.500011,35.311192 44.5,23.999998 44.5,12.688804 35.311191,3.4999982 24.000003,3.4999982 Z" />
  <path
     inkscape:connector-curvature="0"
     style="color:#000000;display:inline;overflow:visible;visibility:visible;opacity:0.5;fill:none;stroke:url(#linearGradient3114);stroke-width:1;stroke-linecap:round;stroke-linejoin:round;stroke-miterlimit:4;stroke-dasharray:none;stroke-dashoffset:0;stroke-opacity:1;marker:none;enable-background:accumulate"
     id="path8655"
     d="m 43.5,23.999308 c 0,10.7699 -8.73109,19.50069 -19.499753,19.50069 -10.769649,0 -19.5002474,-8.730889 -19.5002474,-19.50069 0,-10.769402 8.7305984,-19.4993078 19.5002474,-19.4993078 C 34.76891,4.5000002 43.5,13.229906 43.5,23.999308 l 0,0 z" />
  <path
     inkscape:connector-curvature="0"
     style="color:#000000;display:inline;overflow:visible;visibility:visible;opacity:0.05;fill:#000000;fill-opacity:1;fill-rule:nonzero;stroke:none;stroke-width:1;marker:none;enable-background:accumulate"
     id="path3993"
     d="M 21.90625,13.03125 A 0.96812821,0.96812821 0 0 0 21.03125,14 l 0,11.03125 -7.03125,0 a 0.96812821,0.96812821 0 0 0 -0.6875,1.65625 l 10,10 a 0.96812821,0.96812821 0 0 0 1.375,0 l 10,-10 A 0.96812821,0.96812821 0 0 0 34,25.03125 l -7.03125,0 0,-11.03125 A 0.96812821,0.96812821 0 0 0 26,13.03125 l -4,0 a 0.96812821,0.96812821 0 0 0 -0.09375,0 z" />
  <path
     inkscape:connector-curvature="0"
     style="color:#000000;display:inline;overflow:visible;visibility:visible;opacity:0.15;fill:#000000;fill-opacity:1;fill-rule:nonzero;stroke:none;stroke-width:1;marker:none;enable-background:accumulate"
     id="rect3005-5-7"
     d="m 22,14 0,12 -8,0 10,10 10,-10 -8,0 0,-12 z" />
  <path
     inkscape:connector-curvature="0"
     style="color:#000000;display:inline;overflow:visible;visibility:visible;fill:#ffffff;fill-opacity:1;fill-rule:nonzero;stroke:none;stroke-width:1;marker:none;enable-background:accumulate"
     id="rect3005-5"
     d="m 22,13 0,12 -8,0 10,10 10,-10 -8,0 0,-12 z" />
  <path
     inkscape:connector-curvature="0"
     style="color:#000000;display:inline;overflow:visible;visibility:visible;opacity:0.5;fill:#000000;fill-opacity:0;fill-rule:nonzero;stroke:#00537d;stroke-width:1;stroke-linecap:round;stroke-linejoin:round;stroke-miterlimit:4;stroke-dasharray:none;stroke-dashoffset:0;stroke-opacity:1;marker:none;enable-background:accumulate"
     id="path2555-6"
     d="m 24.000003,3.499998 c -11.311193,0 -20.5000034,9.188806 -20.5000034,20.5 0,11.311194 9.1888104,20.500005 20.5000034,20.500002 11.311188,0 20.500008,-9.188808 20.499997,-20.500002 0,-11.311194 -9.188809,-20.5 -20.499997,-20.5 z" />
  <path
     inkscape:connector-curvature="0"
     style="color:#000000;display:block;overflow:visible;visibility:visible;fill:url(#linearGradient3021);fill-opacity:1;fill-rule:nonzero;stroke:none;stroke-width:1;marker:none;enable-background:accumulate"
     id="rect3623"
     d="m 34.500135,25.5 c -0.554,0 -1,0.446 -1,1 l 0,1.375 c -0.507329,0.155783 -1.006769,0.350474 -1.46875,0.59375 L 31.062635,27.5 c -0.391737,-0.391737 -1.045763,-0.391737 -1.4375,0 l -2.125,2.125 c -0.391737,0.391737 -0.391737,1.045763 0,1.4375 l 0.96875,0.96875 c -0.243276,0.461981 -0.437967,0.96142 -0.59375,1.46875 l -1.375,0 c -0.554,0 -1,0.446 -1,1 l 0,3 c 0,0.554 0.446,1 1,1 l 1.375,0 c 0.155783,0.507329 0.350474,1.006769 0.59375,1.46875 l -0.96875,0.96875 c -0.391737,0.391737 -0.391737,1.045763 0,1.4375 l 2.125,2.125 c 0.391737,0.391737 1.045763,0.391737 1.4375,0 l 0.96875,-0.96875 c 0.461981,0.243276 0.961421,0.437967 1.46875,0.59375 l 0,1.375 c 0,0.554 0.446,1 1,1 l 3,0 c 0.554,0 1,-0.446 1,-1 l 0,-1.375 c 0.507329,-0.155783 1.006769,-0.350474 1.46875,-0.59375 L 40.937635,44.5 c 0.391737,0.391737 1.045763,0.391737 1.4375,0 l 2.125,-2.125 c 0.391737,-0.391737 0.391737,-1.045763 0,-1.4375 l -0.96875,-0.96875 c 0.243276,-0.461981 0.437967,-0.961421 0.59375,-1.46875 l 1.375,0 c 0.554,0 1,-0.446 1,-1 l 0,-3 c 0,-0.554 -0.446,-1 -1,-1 l -1.375,0 c -0.155783,-0.50733 -0.350474,-1.006769 -0.59375,-1.46875 l 0.96875,-0.96875 c 0.391737,-0.391737 0.391737,-1.045763 0,-1.4375 l -2.125,-2.125 c -0.391737,-0.391737 -1.045763,-0.391737 -1.4375,0 l -0.96875,0.96875 C 39.506904,28.225474 39.007464,28.030783 38.500135,27.875 l 0,-1.375 c 0,-0.554 -0.446,-1 -1,-1 l -3,0 z m 1.5,8 c 1.380712,0 2.5,1.119288 2.5,2.5 0,1.380712 -1.119288,2.5 -2.5,2.5 -1.380712,0 -2.5,-1.119288 -2.5,-2.5 0,-1.380712 1.119288,-2.5 2.5,-2.5 z" />
  <path
     inkscape:connector-curvature="0"
     style="opacity:0.05;fill:#000000;fill-opacity:1;stroke:none"
     id="path3315"
     d="m 36.000135,30 c -3.310303,0 -6,2.689698 -6,6 0,3.310302 2.689697,6 6,6 3.310301,0 6,-2.689698 6,-6 0,-3.310302 -2.689699,-6 -6,-6 z m 0,3 c 1.656854,0 3,1.343146 3,3 0,1.656854 -1.343146,3 -3,3 -1.656854,0 -3,-1.343146 -3,-3 0,-1.656854 1.343146,-3 3,-3 z" />
  <path
     inkscape:connector-curvature="0"
     style="fill:none;stroke:url(#linearGradient3017);stroke-width:1;stroke-miterlimit:4;stroke-dasharray:none"
     id="path28"
     d="m 36.000135,29.499999 c -3.584102,0 -6.5,2.9159 -6.5,6.499999 0,3.584102 2.915898,6.500002 6.5,6.500002 3.584101,0 6.5,-2.9159 6.5,-6.500002 0,-3.584099 -2.915899,-6.499999 -6.5,-6.499999 z" />
  <path
     inkscape:connector-curvature="0"
     style="color:#000000;display:block;overflow:visible;visibility:visible;opacity:0.8;fill:none;stroke:url(#linearGradient3014);stroke-width:1;stroke-linecap:butt;stroke-linejoin:round;stroke-miterlimit:4;stroke-dasharray:none;stroke-dashoffset:0;stroke-opacity:1;marker:none;enable-background:accumulate"
     id="path3799"
     d="m 34.500135,26.46875 c -0.07417,0.388719 -0.0095,0.901108 -0.03125,1.336433 0.06469,0.778079 -0.770277,1.052854 -1.368285,1.21661 -0.547024,0.311236 -1.348995,0.671898 -1.836968,0.0542 -0.296165,-0.296161 -0.592331,-0.592327 -0.888497,-0.888493 -0.431729,0.286672 -0.784758,0.763345 -1.186035,1.123535 -0.319464,0.360602 -0.755537,0.672903 -1.001465,1.063965 0.40702,0.490131 1.048516,0.837591 1.225798,1.476969 -0.02466,0.798464 -0.54016,1.529218 -0.812388,2.267025 -0.501821,0.56435 -1.315041,0.280668 -1.974346,0.349756 -0.344567,-0.01288 -0.07033,0.586347 -0.157814,0.825709 0.0012,0.744981 -0.0024,1.490108 0.0018,2.234998 0.64556,0.06419 1.356986,-0.150581 1.945494,0.179668 0.555612,0.579212 0.675635,1.474124 1.006772,2.188766 0.04177,0.75274 -0.732313,1.126431 -1.149336,1.641136 -0.217388,0.272406 0.385277,0.504146 0.51592,0.750367 0.507702,0.507702 1.015405,1.015404 1.523107,1.523106 0.522463,-0.304869 0.839728,-0.98896 1.445434,-1.204942 0.81514,-0.106648 1.513688,0.546448 2.283828,0.733976 0.650694,0.452082 0.363529,1.310427 0.426988,1.975154 -0.08851,0.418476 0.527859,0.12987 0.768962,0.214562 0.763896,-0.0012 1.527939,0.0024 2.291745,-0.0018 0.06419,-0.64556 -0.150581,-1.356986 0.179668,-1.945494 0.579212,-0.555612 1.474124,-0.675635 2.188766,-1.006772 0.75274,-0.04177 1.126431,0.732313 1.641136,1.149336 0.272406,0.217388 0.504146,-0.385277 0.750367,-0.515921 0.507702,-0.507702 1.015404,-1.015404 1.523106,-1.523106 -0.304869,-0.522463 -0.98896,-0.839728 -1.204942,-1.445435 -0.106648,-0.815139 0.546448,-1.513687 0.733976,-2.283827 0.452082,-0.650694 1.310427,-0.363529 1.975154,-0.426988 0.418476,0.08851 0.12987,-0.527859 0.214562,-0.768962 -0.0012,-0.763896 0.0024,-1.527939 -0.0018,-2.291745 -0.64556,-0.06419 -1.356986,0.150581 -1.945494,-0.179668 -0.555602,-0.579205 -0.675625,-1.474117 -1.006762,-2.188759 -0.04177,-0.75274 0.732313,-1.126431 1.149336,-1.641136 0.217388,-0.272406 -0.385277,-0.504146 -0.515921,-0.750366 -0.507702,-0.507703 -1.015404,-1.015405 -1.523106,-1.523107 -0.522463,0.304869 -0.839728,0.98896 -1.445435,1.204942 -0.815139,0.106648 -1.513687,-0.546448 -2.283827,-0.733976 -0.650694,-0.452082 -0.363529,-1.310427 -0.426988,-1.975154 0.08851,-0.418476 -0.527859,-0.12987 -0.768962,-0.214562 -0.754096,0 -1.508192,0 -2.262288,0 z" />
  <path
     inkscape:connector-curvature="0"
     style="color:#000000;display:block;overflow:visible;visibility:visible;opacity:0.4;fill:none;stroke:url(#linearGradient3011);stroke-width:0.99999994;stroke-opacity:1;marker:none;enable-background:accumulate"
     id="path3822"
     d="m 39.500135,36 a 3.5,3.5 0 0 1 -7,0 3.5,3.5 0 1 1 7,0 z" />
  <path
     inkscape:connector-curvature="0"
     style="color:#000000;display:block;overflow:visible;visibility:visible;opacity:0.3;fill:none;stroke:#000000;stroke-width:1;stroke-linecap:butt;stroke-linejoin:round;stroke-miterlimit:4;stroke-dasharray:none;stroke-dashoffset:0;stroke-opacity:1;marker:none;enable-background:accumulate"
     id="rect3623-2"
     d="m 34.500135,25.5 c -0.554,0 -1,0.446 -1,1 l 0,1.375 c -0.507329,0.155783 -1.006769,0.350474 -1.46875,0.59375 L 31.062635,27.5 c -0.391737,-0.391737 -1.045763,-0.391737 -1.4375,0 l -2.125,2.125 c -0.391737,0.391737 -0.391737,1.045763 0,1.4375 l 0.96875,0.96875 c -0.243276,0.461981 -0.437967,0.96142 -0.59375,1.46875 l -1.375,0 c -0.554,0 -1,0.446 -1,1 l 0,3 c 0,0.554 0.446,1 1,1 l 1.375,0 c 0.155783,0.507329 0.350474,1.006769 0.59375,1.46875 l -0.96875,0.96875 c -0.391737,0.391737 -0.391737,1.045763 0,1.4375 l 2.125,2.125 c 0.391737,0.391737 1.045763,0.391737 1.4375,0 l 0.96875,-0.96875 c 0.461981,0.243276 0.961421,0.437967 1.46875,0.59375 l 0,1.375 c 0,0.554 0.446,1 1,1 l 3,0 c 0.554,0 1,-0.446 1,-1 l 0,-1.375 c 0.507329,-0.155783 1.006769,-0.350474 1.46875,-0.59375 L 40.937635,44.5 c 0.391737,0.391737 1.045763,0.391737 1.4375,0 l 2.125,-2.125 c 0.391737,-0.391737 0.391737,-1.045763 0,-1.4375 l -0.96875,-0.96875 c 0.243276,-0.461981 0.437967,-0.961421 0.59375,-1.46875 l 1.375,0 c 0.554,0 1,-0.446 1,-1 l 0,-3 c 0,-0.554 -0.446,-1 -1,-1 l -1.375,0 c -0.155783,-0.50733 -0.350474,-1.006769 -0.59375,-1.46875 l 0.96875,-0.96875 c 0.391737,-0.391737 0.391737,-1.045763 0,-1.4375 l -2.125,-2.125 c -0.391737,-0.391737 -1.045763,-0.391737 -1.4375,0 l -0.96875,0.96875 C 39.506904,28.225474 39.007464,28.030783 38.500135,27.875 l 0,-1.375 c 0,-0.554 -0.446,-1 -1,-1 l -3,0 z m 1.5,8 c 1.380712,0 2.5,1.119288 2.5,2.5 0,1.380712 -1.119288,2.5 -2.5,2.5 -1.380712,0 -2.5,-1.119288 -2.5,-2.5 0,-1.380712 1.119288,-2.5 2.5,-2.5 z" />
</svg>
