<?xml version="1.0" encoding="UTF-8" standalone="no"?>
<!-- Created with Inkscape (http://www.inkscape.org/) -->

<svg
   xmlns:dc="http://purl.org/dc/elements/1.1/"
   xmlns:cc="http://creativecommons.org/ns#"
   xmlns:rdf="http://www.w3.org/1999/02/22-rdf-syntax-ns#"
   xmlns:svg="http://www.w3.org/2000/svg"
   xmlns="http://www.w3.org/2000/svg"
   xmlns:xlink="http://www.w3.org/1999/xlink"
   xmlns:sodipodi="http://sodipodi.sourceforge.net/DTD/sodipodi-0.dtd"
   xmlns:inkscape="http://www.inkscape.org/namespaces/inkscape"
   version="1.1"
   width="24"
   height="24"
   id="svg3979"
   inkscape:version="0.48.4 r9939"
   sodipodi:docname="audio-x-generic.svg">
  <sodipodi:namedview
     pagecolor="#ffffff"
     bordercolor="#666666"
     borderopacity="1"
     objecttolerance="10"
     gridtolerance="10"
     guidetolerance="10"
     inkscape:pageopacity="0"
     inkscape:pageshadow="2"
     inkscape:window-width="640"
     inkscape:window-height="480"
     id="namedview48"
     showgrid="true"
     inkscape:zoom="9.8333333"
     inkscape:cx="12"
     inkscape:cy="12"
     inkscape:window-x="75"
     inkscape:window-y="34"
     inkscape:window-maximized="0"
     inkscape:current-layer="layer1">
    <inkscape:grid
       type="xygrid"
       id="grid3062" />
  </sodipodi:namedview>
  <defs
     id="defs3981">
    <linearGradient
       x1="-51.786404"
       y1="50.786446"
       x2="-51.786404"
       y2="2.9062471"
       id="linearGradient3114"
       xlink:href="#linearGradient3104-6-2"
       gradientUnits="userSpaceOnUse"
       gradientTransform="matrix(0.37459597,0,0,0.4144562,28.426726,8.1982324)" />
    <linearGradient
       id="linearGradient3104-6-2">
      <stop
         id="stop3106-3-4"
         style="stop-color:#000000;stop-opacity:0.31782946"
         offset="0" />
      <stop
         id="stop3108-9-9"
         style="stop-color:#000000;stop-opacity:0.24031007"
         offset="1" />
    </linearGradient>
    <linearGradient
       x1="16.626165"
       y1="15.298182"
       x2="20.054544"
       y2="24.627615"
       id="linearGradient3135"
       xlink:href="#linearGradient8265-821-176-38-919-66-249-7-7-8"
       gradientUnits="userSpaceOnUse"
       gradientTransform="matrix(0.39077928,0,0,0.59639877,2.6029975,7.5932432)" />
    <linearGradient
       id="linearGradient8265-821-176-38-919-66-249-7-7-8">
      <stop
         id="stop2687-1-9-6"
         style="stop-color:#ffffff;stop-opacity:1"
         offset="0" />
      <stop
         id="stop2689-5-4-8"
         style="stop-color:#ffffff;stop-opacity:0"
         offset="1" />
    </linearGradient>
    <linearGradient
       x1="23.99999"
       y1="6.6499596"
       x2="23.99999"
       y2="41.441586"
       id="linearGradient3138"
       xlink:href="#linearGradient3917"
       gradientUnits="userSpaceOnUse"
       gradientTransform="matrix(0.45945947,0,0,0.45945947,0.9742203,8.9717327)" />
    <linearGradient
       id="linearGradient3917">
      <stop
         id="stop3919"
         style="stop-color:#ffffff;stop-opacity:1"
         offset="0" />
      <stop
         id="stop3921"
         style="stop-color:#ffffff;stop-opacity:0.23529412"
         offset="0.01020449" />
      <stop
         id="stop3923"
         style="stop-color:#ffffff;stop-opacity:0.15686275"
         offset="0.99008638" />
      <stop
         id="stop3925"
         style="stop-color:#ffffff;stop-opacity:0.39215687"
         offset="1" />
    </linearGradient>
    <linearGradient
       x1="25.132275"
       y1="0.98520643"
       x2="25.132275"
       y2="47.013336"
       id="linearGradient3125"
       xlink:href="#linearGradient3600-9-9"
       gradientUnits="userSpaceOnUse"
       gradientTransform="matrix(0.4301289,0,0,0.41244197,1.6769074,9.4686024)" />
    <linearGradient
       id="linearGradient3600-9-9">
      <stop
         id="stop3602-3-7"
         style="stop-color:#f4f4f4;stop-opacity:1"
         offset="0" />
      <stop
         id="stop3604-7-3"
         style="stop-color:#dbdbdb;stop-opacity:1"
         offset="1" />
    </linearGradient>
    <radialGradient
       cx="4.9929786"
       cy="43.5"
       r="2.5"
       fx="4.9929786"
       fy="43.5"
       id="radialGradient3082"
       xlink:href="#linearGradient3688-166-749"
       gradientUnits="userSpaceOnUse"
       gradientTransform="matrix(2.003784,0,0,1.4,27.98813,-17.4)" />
    <linearGradient
       id="linearGradient3688-166-749">
      <stop
         id="stop2883"
         style="stop-color:#181818;stop-opacity:1"
         offset="0" />
      <stop
         id="stop2885"
         style="stop-color:#181818;stop-opacity:0"
         offset="1" />
    </linearGradient>
    <radialGradient
       cx="4.9929786"
       cy="43.5"
       r="2.5"
       fx="4.9929786"
       fy="43.5"
       id="radialGradient3084"
       xlink:href="#linearGradient3688-464-309"
       gradientUnits="userSpaceOnUse"
       gradientTransform="matrix(2.003784,0,0,1.4,-20.01187,-104.4)" />
    <linearGradient
       id="linearGradient3688-464-309">
      <stop
         id="stop2889"
         style="stop-color:#181818;stop-opacity:1"
         offset="0" />
      <stop
         id="stop2891"
         style="stop-color:#181818;stop-opacity:0"
         offset="1" />
    </linearGradient>
    <linearGradient
       x1="25.058096"
       y1="47.027729"
       x2="25.058096"
       y2="39.999443"
       id="linearGradient3086"
       xlink:href="#linearGradient3702-501-757"
       gradientUnits="userSpaceOnUse" />
    <linearGradient
       id="linearGradient3702-501-757">
      <stop
         id="stop2895"
         style="stop-color:#181818;stop-opacity:0"
         offset="0" />
      <stop
         id="stop2897"
         style="stop-color:#181818;stop-opacity:1"
         offset="0.5" />
      <stop
         id="stop2899"
         style="stop-color:#181818;stop-opacity:0"
         offset="1" />
    </linearGradient>
    <linearGradient
       x1="12.913282"
       y1="14.076225"
       x2="12.913282"
       y2="23.088869"
       id="linearGradient4109"
       xlink:href="#linearGradient4097"
       gradientUnits="userSpaceOnUse"
       gradientTransform="matrix(1,0,0,-1,-0.10169561,39.40468)" />
    <linearGradient
       id="linearGradient4097">
      <stop
         id="stop4099"
         style="stop-color:#000000;stop-opacity:1"
         offset="0" />
      <stop
         id="stop4101"
         style="stop-color:#000000;stop-opacity:0"
         offset="1" />
    </linearGradient>
    <linearGradient
       x1="12.913282"
       y1="14.076225"
       x2="12.913282"
       y2="25.962694"
       id="linearGradient4103"
       xlink:href="#linearGradient4097"
       gradientUnits="userSpaceOnUse"
       gradientTransform="translate(-0.10169561,-0.60169637)" />
    <linearGradient
       id="linearGradient3037">
      <stop
         id="stop3039"
         style="stop-color:#000000;stop-opacity:1"
         offset="0" />
      <stop
         id="stop3041"
         style="stop-color:#000000;stop-opacity:0"
         offset="1" />
    </linearGradient>
    <linearGradient
       x1="12.098314"
       y1="29.917463"
       x2="12.098314"
       y2="9.9835634"
       id="linearGradient4119"
       xlink:href="#linearGradient3104-5"
       gradientUnits="userSpaceOnUse"
       gradientTransform="translate(-0.10169561,-0.60169637)" />
    <linearGradient
       id="linearGradient3104-5">
      <stop
         id="stop3106-6"
         style="stop-color:#a0a0a0;stop-opacity:1"
         offset="0" />
      <stop
         id="stop3108-9"
         style="stop-color:#bebebe;stop-opacity:1"
         offset="1" />
    </linearGradient>
  </defs>
  <metadata
     id="metadata3984">
    <rdf:RDF>
      <cc:Work
         rdf:about="">
        <dc:format>image/svg+xml</dc:format>
        <dc:type
           rdf:resource="http://purl.org/dc/dcmitype/StillImage" />
        <dc:title />
      </cc:Work>
    </rdf:RDF>
  </metadata>
  <g
     transform="translate(0,-8)"
     id="layer1">
    <g
       transform="matrix(0.55,0,0,0.3333336,-1.2000011,15.33331)"
       id="g2036"
       style="display:inline">
      <g
         transform="matrix(1.052632,0,0,1.285713,-1.263158,-13.42854)"
         id="g3712"
         style="opacity:0.4">
        <rect
           width="5"
           height="7"
           x="38"
           y="40"
           id="rect2801"
           style="fill:url(#radialGradient3082);fill-opacity:1;stroke:none" />
        <rect
           width="5"
           height="7"
           x="-10"
           y="-47"
           transform="scale(-1,-1)"
           id="rect3696"
           style="fill:url(#radialGradient3084);fill-opacity:1;stroke:none" />
        <rect
           width="28"
           height="7.0000005"
           x="10"
           y="40"
           id="rect3700"
           style="fill:url(#linearGradient3086);fill-opacity:1;stroke:none" />
      </g>
    </g>
    <rect
       width="18"
       height="18"
       x="3.000001"
       y="10.999999"
       id="rect5505-21-8-5"
       style="color:#000000;fill:url(#linearGradient3125);fill-opacity:1;fill-rule:nonzero;stroke:none;stroke-width:0.99999994;marker:none;visibility:visible;display:inline;overflow:visible;enable-background:accumulate" />
    <rect
       width="17"
       height="17"
       x="3.5012455"
       y="11.498756"
       id="rect6741-9"
       style="fill:none;stroke:url(#linearGradient3138);stroke-width:1;stroke-linecap:round;stroke-linejoin:miter;stroke-miterlimit:4;stroke-opacity:1;stroke-dasharray:none;stroke-dashoffset:0" />
    <path
       d="M 3.5764341,11 C 3.2547127,11 3,11.418213 3,11.824999 L 3.00603,22 C 3.5238425,21.988917 20.606966,17.945168 21,17.750658 l 0,-5.925659 C 21,11.514064 20.748387,11 20.46981,11 L 3.576473,11 z"
       inkscape:connector-curvature="0"
       id="path3333"
       style="opacity:0.4;fill:url(#linearGradient3135);fill-opacity:1;fill-rule:evenodd;stroke:none" />
    <rect
       width="19.000078"
       height="19.000078"
       x="2.4999619"
       y="10.49996"
       id="rect5505-21-8-6"
       style="color:#000000;fill:none;stroke:url(#linearGradient3114);stroke-width:0.9999218;stroke-linecap:butt;stroke-linejoin:round;stroke-miterlimit:4;stroke-opacity:1;stroke-dasharray:none;stroke-dashoffset:0;marker:none;visibility:visible;display:inline;overflow:visible;enable-background:accumulate" />
    <path
       d="m 11.398306,14.398306 c -0.277,0 -0.5,0.223 -0.5,0.5 l 0,1.125 c -0.502703,0.114469 -0.9674375,0.310809 -1.3906265,0.578125 L 8.7108046,15.804556 c -0.195869,-0.195869 -0.507256,-0.195869 -0.703125,0 l -0.703125,0.703125 c -0.195869,0.195868 -0.195869,0.507255 0,0.703125 l 0.796875,0.796874 c -0.267316,0.423189 -0.463656,0.887922 -0.578125,1.390625 l -1.125,0 c -0.277,0 -0.5,0.223 -0.5,0.500001 l 0,1 c 0,0.276999 0.223,0.499999 0.5,0.499999 l 1.125,0 c 0.114469,0.502703 0.310809,0.967436 0.578125,1.390625 l -0.796875,0.796875 c -0.195869,0.195869 -0.195869,0.507256 0,0.703125 l 0.703125,0.703125 c 0.195868,0.195868 0.507256,0.19587 0.703125,0 L 9.5076795,24.19518 c 0.423189,0.267316 0.8879235,0.463655 1.3906265,0.578125 l 0,1.125 c 0,0.277 0.223,0.5 0.5,0.5 l 0.999999,0 c 0.277001,0 0.500001,-0.223 0.500001,-0.5 l 0,-1.125 c 0.502703,-0.11447 0.967436,-0.310809 1.390625,-0.578125 l 0.796874,0.796875 c 0.195869,0.195868 0.507257,0.195868 0.703125,0 l 0.703126,-0.703125 c 0.195867,-0.195868 0.195869,-0.507257 0,-0.703125 L 15.69518,22.78893 c 0.267317,-0.423189 0.463656,-0.887922 0.578126,-1.390625 l 1.124999,0 c 0.277001,0 0.500001,-0.223 0.500001,-0.499999 l 0,-1 c 0,-0.277001 -0.223,-0.500001 -0.500001,-0.500001 l -1.124999,0 C 16.158836,18.895602 15.962497,18.430869 15.69518,18.00768 l 0.796876,-0.796874 c 0.195867,-0.195869 0.195867,-0.507256 0,-0.703125 L 15.78893,15.804556 c -0.195868,-0.195869 -0.507256,-0.195869 -0.703125,0 l -0.796874,0.796875 c -0.423189,-0.267316 -0.887922,-0.463656 -1.390625,-0.578125 l 0,-1.125 c 0,-0.277 -0.223,-0.5 -0.500001,-0.5 l -0.999999,0 z m 0.5,3.999999 c 1.103999,-1e-6 2,0.896001 2,2 0,1.104 -0.896001,2 -2,2 -1.104,1e-6 -2.0000015,-0.896 -2.0000015,-2 10e-7,-1.103999 0.8960015,-2 2.0000015,-2 z"
       inkscape:connector-curvature="0"
       id="path3576"
       style="opacity:0.6;fill:#ffffff;fill-opacity:1;fill-rule:nonzero;stroke:none;stroke-width:1.70000005;marker:none;visibility:visible;display:inline;overflow:visible;enable-background:accumulate" />
    <path
       d="m 11.398306,13.398306 c -0.277,0 -0.5,0.223 -0.5,0.5 l 0,1.125 c -0.502703,0.11447 -0.9674375,0.31081 -1.3906265,0.578125 L 8.7108046,14.804556 c -0.195869,-0.195868 -0.507256,-0.195868 -0.703125,0 l -0.703125,0.703125 c -0.195869,0.195869 -0.195869,0.507256 0,0.703125 l 0.796875,0.796875 c -0.267316,0.423189 -0.463656,0.887921 -0.578125,1.390625 l -1.125,0 c -0.277,0 -0.5,0.223 -0.5,0.5 l 0,1 c 0,0.276999 0.223,0.5 0.5,0.5 l 1.125,0 c 0.114469,0.502703 0.310809,0.967435 0.578125,1.390624 l -0.796875,0.796876 c -0.195869,0.195868 -0.195869,0.507255 0,0.703125 l 0.703125,0.703124 c 0.195868,0.195869 0.507256,0.195871 0.703125,0 l 0.7968749,-0.796874 c 0.423189,0.267316 0.8879235,0.463654 1.3906265,0.578124 l 0,1.125001 c 0,0.276999 0.223,0.499999 0.5,0.499999 l 0.999999,0 c 0.277001,0 0.500001,-0.223 0.500001,-0.499999 l 0,-1.125001 c 0.502703,-0.11447 0.967436,-0.310808 1.390625,-0.578124 l 0.796874,0.796874 c 0.195869,0.195869 0.507257,0.195869 0.703125,0 l 0.703126,-0.703124 c 0.195867,-0.195869 0.195869,-0.507257 0,-0.703125 L 15.69518,21.78893 c 0.267317,-0.423189 0.463656,-0.887921 0.578126,-1.390624 l 1.124999,0 c 0.277001,0 0.500001,-0.223001 0.500001,-0.5 l 0,-1 c 0,-0.277 -0.223,-0.5 -0.500001,-0.5 l -1.124999,0 C 16.158836,17.895602 15.962497,17.43087 15.69518,17.007681 l 0.796876,-0.796875 c 0.195867,-0.195868 0.195867,-0.507256 0,-0.703125 L 15.78893,14.804556 c -0.195868,-0.195868 -0.507256,-0.195868 -0.703125,0 l -0.796874,0.796875 c -0.423189,-0.267315 -0.887922,-0.463655 -1.390625,-0.578125 l 0,-1.125 c 0,-0.277 -0.223,-0.5 -0.500001,-0.5 l -0.999999,0 z m 0.5,4 c 1.103999,-1e-6 2,0.896 2,2 0,1.104 -0.896001,2 -2,2 -1.104,0 -2.0000015,-0.896 -2.0000015,-2 10e-7,-1.104 0.8960015,-2 2.0000015,-2 z"
       inkscape:connector-curvature="0"
       id="rect3557"
       style="fill:url(#linearGradient4119);fill-opacity:1;fill-rule:nonzero;stroke:none;stroke-width:1.70000005;marker:none;visibility:visible;display:inline;overflow:visible;enable-background:accumulate" />
    <path
       d="m 11.429555,13.929554 c -0.0236,0.430806 0.05109,0.875834 -0.045,1.296521 -0.19489,0.405263 -0.731623,0.315871 -1.062969,0.542539 -0.3475745,0.137135 -0.7188965,0.559211 -1.1073035,0.278445 -0.2925614,-0.267431 -0.5632566,-0.559249 -0.8472281,-0.836255 -0.21875,0.21875 -0.4375,0.4375 -0.65625,0.65625 0.2917144,0.323176 0.6582869,0.589968 0.894591,0.955304 0.1571967,0.436119 -0.3041711,0.756798 -0.4042006,1.150903 -0.1647198,0.332458 -0.1378275,0.889888 -0.611331,0.950802 -0.386269,0.01283 -0.7736241,0.0018 -1.1603094,0.0055 0,0.3125 0,0.625 0,0.9375 0.4308058,0.0236 0.8758343,-0.05109 1.2965205,0.045 0.4106808,0.200632 0.3187477,0.747538 0.5454521,1.087065 0.129944,0.352588 0.5572533,0.724336 0.2755322,1.114457 -0.2650627,0.284554 -0.5595947,0.542061 -0.8362548,0.815969 0.21875,0.21875 0.4375,0.4375 0.65625,0.65625 0.3232028,-0.281136 0.5944452,-0.633092 0.9553041,-0.863341 0.427935,-0.156435 0.7447945,0.295284 1.1375415,0.380589 0.339715,0.153312 0.901494,0.126845 0.964164,0.603693 0.01283,0.386269 0.0018,0.773624 0.0055,1.160309 0.3125,0 0.625,0 0.9375,0 0.0236,-0.430806 -0.05109,-0.875834 0.045,-1.296521 0.202268,-0.414278 0.752426,-0.318559 1.100009,-0.532469 0.351829,-0.11855 0.71832,-0.536578 1.101513,-0.257265 0.282128,0.257032 0.542434,0.538403 0.815977,0.805005 0.21875,-0.21875 0.4375,-0.4375 0.65625,-0.65625 -0.281207,-0.31282 -0.637614,-0.569025 -0.863341,-0.924054 -0.155362,-0.430905 0.299606,-0.751766 0.378153,-1.151009 0.154112,-0.344536 0.123078,-0.916801 0.606129,-0.981946 0.386269,-0.01283 0.773624,-0.0018 1.160309,-0.0055 0,-0.3125 0,-0.625 0,-0.9375 -0.430806,-0.0236 -0.875834,0.05109 -1.296521,-0.045 -0.408808,-0.19652 -0.315906,-0.736293 -0.529556,-1.075914 -0.12573,-0.346981 -0.53854,-0.712876 -0.260178,-1.094358 0.25944,-0.290168 0.538044,-0.563604 0.804997,-0.847219 -0.21875,-0.21875 -0.4375,-0.4375 -0.65625,-0.65625 -0.296691,0.285499 -0.550423,0.622513 -0.876498,0.872941 -0.419022,0.213222 -0.75601,-0.240921 -1.132585,-0.34698 -0.340088,-0.201472 -0.919071,-0.126226 -1.037737,-0.595652 -0.03566,-0.401402 -0.0059,-0.808083 -0.01568,-1.211559 -0.3125,0 -0.625,0 -0.9375,0 z"
       inkscape:connector-curvature="0"
       id="path4107"
       style="opacity:0.1;fill:none;stroke:url(#linearGradient4103);stroke-width:1;stroke-linejoin:round;stroke-miterlimit:4;stroke-opacity:1;stroke-dasharray:none;marker:none;visibility:visible;display:inline;overflow:visible;enable-background:accumulate" />
    <path
       d="m 11.898305,21.93593 c 1.442837,0.03737 2.705177,-1.355037 2.518059,-2.788216 -0.112005,-1.43598 -1.617651,-2.555033 -3.024989,-2.2224 -1.4156245,0.256105 -2.3827109,1.860318 -1.9095635,3.227936 0.31398,1.033708 1.3324225,1.795977 2.4164935,1.78268 z"
       inkscape:connector-curvature="0"
       id="path4094"
       style="opacity:0.1;fill:none;stroke:url(#linearGradient4109);stroke-width:1;stroke-linejoin:round;stroke-miterlimit:4;stroke-opacity:1;stroke-dasharray:none;marker:none;visibility:visible;display:inline;overflow:visible;enable-background:accumulate" />
  </g>
</svg>
