<?xml version="1.0" encoding="UTF-8" standalone="no"?>
<!-- Created with Inkscape (http://www.inkscape.org/) -->

<svg
   xmlns:dc="http://purl.org/dc/elements/1.1/"
   xmlns:cc="http://creativecommons.org/ns#"
   xmlns:rdf="http://www.w3.org/1999/02/22-rdf-syntax-ns#"
   xmlns:svg="http://www.w3.org/2000/svg"
   xmlns="http://www.w3.org/2000/svg"
   xmlns:xlink="http://www.w3.org/1999/xlink"
   xmlns:sodipodi="http://sodipodi.sourceforge.net/DTD/sodipodi-0.dtd"
   xmlns:inkscape="http://www.inkscape.org/namespaces/inkscape"
   version="1.1"
   width="24"
   height="24"
   id="svg3426"
   inkscape:version="0.91 r"
   sodipodi:docname="24.svg">
  <sodipodi:namedview
     pagecolor="#ffffff"
     bordercolor="#666666"
     borderopacity="1"
     objecttolerance="10"
     gridtolerance="10"
     guidetolerance="10"
     inkscape:pageopacity="0"
     inkscape:pageshadow="2"
     inkscape:window-width="1855"
     inkscape:window-height="1056"
     id="namedview58"
     showgrid="true"
     inkscape:zoom="44.190574"
     inkscape:cx="12.000004"
     inkscape:cy="11.499997"
     inkscape:window-x="65"
     inkscape:window-y="24"
     inkscape:window-maximized="1"
     inkscape:current-layer="svg3426">
    <inkscape:grid
       type="xygrid"
       id="grid3860" />
  </sodipodi:namedview>
  <defs
     id="defs3428">
    <radialGradient
       cx="4.9929786"
       cy="43.5"
       r="2.5"
       fx="4.9929786"
       fy="43.5"
       id="radialGradient3152"
       xlink:href="#linearGradient3688-166-749"
       gradientUnits="userSpaceOnUse"
       gradientTransform="matrix(2.003784,0,0,1.4,27.98813,-17.4)" />
    <linearGradient
       id="linearGradient3688-166-749">
      <stop
         id="stop2883"
         style="stop-color:#181818;stop-opacity:1"
         offset="0" />
      <stop
         id="stop2885"
         style="stop-color:#181818;stop-opacity:0"
         offset="1" />
    </linearGradient>
    <radialGradient
       cx="4.9929786"
       cy="43.5"
       r="2.5"
       fx="4.9929786"
       fy="43.5"
       id="radialGradient3154"
       xlink:href="#linearGradient3688-464-309"
       gradientUnits="userSpaceOnUse"
       gradientTransform="matrix(2.003784,0,0,1.4,-20.01187,-104.4)" />
    <linearGradient
       id="linearGradient3688-464-309">
      <stop
         id="stop2889"
         style="stop-color:#181818;stop-opacity:1"
         offset="0" />
      <stop
         id="stop2891"
         style="stop-color:#181818;stop-opacity:0"
         offset="1" />
    </linearGradient>
    <linearGradient
       x1="25.058096"
       y1="47.027729"
       x2="25.058096"
       y2="39.999443"
       id="linearGradient3156"
       xlink:href="#linearGradient3702-501-757"
       gradientUnits="userSpaceOnUse" />
    <linearGradient
       id="linearGradient3702-501-757">
      <stop
         id="stop2895"
         style="stop-color:#181818;stop-opacity:0"
         offset="0" />
      <stop
         id="stop2897"
         style="stop-color:#181818;stop-opacity:1"
         offset="0.5" />
      <stop
         id="stop2899"
         style="stop-color:#181818;stop-opacity:0"
         offset="1" />
    </linearGradient>
    <linearGradient
       id="linearGradient3680-6-6-6-3-7-4">
      <stop
         id="stop3682-4-6-1-3-7-5"
         style="stop-color:#dcdcdc;stop-opacity:1"
         offset="0" />
      <stop
         id="stop3684-8-5-8-0-2-3"
         style="stop-color:#ffffff;stop-opacity:1"
         offset="1" />
    </linearGradient>
    <linearGradient
       inkscape:collect="always"
       xlink:href="#linearGradient3680-6-6-6-3-7-4"
       id="linearGradient3875"
       gradientUnits="userSpaceOnUse"
       gradientTransform="matrix(0.46525496,0,0,0.46525496,0.2208768,-0.3282085)"
       x1="20"
       y1="26.000008"
       x2="20"
       y2="13.000008" />
    <linearGradient
       inkscape:collect="always"
       xlink:href="#linearGradient3680-6-6-6-3-7-4"
       id="linearGradient3880"
       gradientUnits="userSpaceOnUse"
       gradientTransform="matrix(0.66257291,0,0,0.66257291,-2.4539575,-4.5672473)"
       x1="20"
       y1="26.000008"
       x2="20"
       y2="13.000008" />
    <linearGradient
       id="linearGradient3924-0">
      <stop
         offset="0"
         style="stop-color:#ffffff;stop-opacity:1"
         id="stop3926-6" />
      <stop
         offset="0.06316455"
         style="stop-color:#ffffff;stop-opacity:0.23529412"
         id="stop3928-3" />
      <stop
         offset="0.95056331"
         style="stop-color:#ffffff;stop-opacity:0.15686275"
         id="stop3930-2" />
      <stop
         offset="1"
         style="stop-color:#ffffff;stop-opacity:0.39215687"
         id="stop3932-62" />
    </linearGradient>
    <linearGradient
       id="linearGradient2867-449-88-871-390-598-476-591-434-148-57-177-8-3-3-6-4-8-8-8-5-6-7">
      <stop
         offset="0"
         style="stop-color:#505050;stop-opacity:1"
         id="stop3750-1-0-7-6-6-1-3-9-3-0-9" />
      <stop
         offset="0.26238"
         style="stop-color:#2b2b2b;stop-opacity:1"
         id="stop3752-3-7-4-0-32-8-923-0-7-7-5" />
      <stop
         offset="0.704952"
         style="stop-color:#0a0a0a;stop-opacity:1"
         id="stop3754-1-8-5-2-7-6-7-1-9-1-6" />
      <stop
         offset="1"
         style="stop-color:#000000;stop-opacity:1"
         id="stop3756-1-6-2-6-6-1-96-6-0-6-5" />
    </linearGradient>
    <radialGradient
       r="12.671875"
       fy="9.9571075"
       fx="7.1183534"
       cy="9.9571075"
       cx="7.1183534"
       gradientTransform="matrix(0,4.4529398,-5.4667877,0,66.838269,-38.124667)"
       gradientUnits="userSpaceOnUse"
       id="radialGradient3173"
       xlink:href="#linearGradient2867-449-88-871-390-598-476-591-434-148-57-177-8-3-3-6-4-8-8-8-5"
       inkscape:collect="always" />
    <linearGradient
       inkscape:collect="always"
       xlink:href="#linearGradient3924-0"
       id="linearGradient3203"
       gradientUnits="userSpaceOnUse"
       gradientTransform="matrix(0.62162164,0,0,0.62162164,27.298203,-6.3512651)"
       x1="23.99999"
       y1="4.999989"
       x2="23.99999"
       y2="43" />
    <linearGradient
       id="linearGradient3924-64">
      <stop
         id="stop3926-3-6"
         style="stop-color:#ffffff;stop-opacity:1"
         offset="0" />
      <stop
         id="stop3928-0"
         style="stop-color:#ffffff;stop-opacity:0.23529412"
         offset="0.06316455" />
      <stop
         id="stop3930-3-59"
         style="stop-color:#ffffff;stop-opacity:0.15686275"
         offset="0.95056331" />
      <stop
         id="stop3932-0"
         style="stop-color:#ffffff;stop-opacity:0.39215687"
         offset="1" />
    </linearGradient>
    <linearGradient
       y2="43"
       x2="23.99999"
       y1="4.999989"
       x1="23.99999"
       gradientTransform="matrix(0.45945947,0,0,0.45945947,0.9742189,0.9717506)"
       gradientUnits="userSpaceOnUse"
       id="linearGradient3101"
       xlink:href="#linearGradient3924-64"
       inkscape:collect="always" />
    <linearGradient
       inkscape:collect="always"
       xlink:href="#linearGradient3680-6-6-6-3-7-1"
       id="linearGradient3823"
       x1="38"
       y1="44"
       x2="38"
       y2="26"
       gradientUnits="userSpaceOnUse"
       gradientTransform="matrix(0.45133155,0,0,0.45133155,-2.5395491,-2.3906906)" />
    <linearGradient
       id="linearGradient3680-6-6-6-3-7-1">
      <stop
         id="stop3682-4-6-1-3-7-7"
         style="stop-color:#dcdcdc;stop-opacity:1"
         offset="0" />
      <stop
         id="stop3684-8-5-8-0-2-6"
         style="stop-color:#ffffff;stop-opacity:1"
         offset="1" />
    </linearGradient>
    <linearGradient
       inkscape:collect="always"
       xlink:href="#linearGradient3680-6-6-6-3-7-1"
       id="linearGradient3815"
       x1="26"
       y1="40"
       x2="26"
       y2="23"
       gradientUnits="userSpaceOnUse"
       gradientTransform="matrix(0.45133155,0,0,0.45133155,-2.5395491,-2.3906895)" />
    <linearGradient
       id="linearGradient3049">
      <stop
         id="stop3051"
         style="stop-color:#dcdcdc;stop-opacity:1"
         offset="0" />
      <stop
         id="stop3053"
         style="stop-color:#ffffff;stop-opacity:1"
         offset="1" />
    </linearGradient>
    <linearGradient
       x1="-51.786404"
       y1="50.786446"
       x2="-51.786404"
       y2="2.9062471"
       id="linearGradient3114"
       xlink:href="#linearGradient3104-6-2"
       gradientUnits="userSpaceOnUse"
       gradientTransform="matrix(0.37459597,0,0,0.4144562,5.0500982,1.0813493)" />
    <linearGradient
       id="linearGradient3104-6-2">
      <stop
         id="stop3106-3-4"
         style="stop-color:#000000;stop-opacity:0.31782946"
         offset="0" />
      <stop
         id="stop3108-9-9"
         style="stop-color:#000000;stop-opacity:0.24031007"
         offset="1" />
    </linearGradient>
    <linearGradient
       x1="23.997284"
       y1="4.414464"
       x2="23.99999"
       y2="41.441586"
       id="linearGradient3138"
       xlink:href="#linearGradient3917"
       gradientUnits="userSpaceOnUse"
       gradientTransform="matrix(0.45945947,0,0,0.45945947,-22.402408,1.8548496)" />
    <linearGradient
       id="linearGradient3917">
      <stop
         id="stop3919"
         style="stop-color:#ffffff;stop-opacity:1"
         offset="0" />
      <stop
         id="stop3921"
         style="stop-color:#ffffff;stop-opacity:0.23529412"
         offset="0.01020449" />
      <stop
         id="stop3923"
         style="stop-color:#ffffff;stop-opacity:0.15686275"
         offset="0.99008638" />
      <stop
         id="stop3925"
         style="stop-color:#ffffff;stop-opacity:0.39215687"
         offset="1" />
    </linearGradient>
    <linearGradient
       x1="25.132275"
       y1="0.98520643"
       x2="25.132275"
       y2="47.013336"
       id="linearGradient3125"
       xlink:href="#linearGradient2867-449-88-871-390-598-476-591-434-148-57-177-8-3-3-6-4-8-8-8-5"
       gradientUnits="userSpaceOnUse"
       gradientTransform="matrix(0.4301289,0,0,0.41244197,-21.673747,2.6374335)" />
    <linearGradient
       id="linearGradient2867-449-88-871-390-598-476-591-434-148-57-177-8-3-3-6-4-8-8-8-5">
      <stop
         id="stop3750-1-0-7-6-6-1-3-9-3"
         style="stop-color:#919caf;stop-opacity:1"
         offset="0" />
      <stop
         id="stop3752-3-7-4-0-32-8-923-0-7"
         style="stop-color:#68758e;stop-opacity:1"
         offset="0.26238" />
      <stop
         id="stop3754-1-8-5-2-7-6-7-1-9"
         style="stop-color:#485a6c;stop-opacity:1"
         offset="0.704952" />
      <stop
         id="stop3756-1-6-2-6-6-1-96-6-0"
         style="stop-color:#444c5c;stop-opacity:1"
         offset="1" />
    </linearGradient>
    <radialGradient
       cx="4.9929786"
       cy="43.5"
       r="2.5"
       fx="4.9929786"
       fy="43.5"
       id="radialGradient3082"
       xlink:href="#linearGradient3688-166-749"
       gradientUnits="userSpaceOnUse"
       gradientTransform="matrix(2.003784,0,0,1.4,27.98813,-17.4)" />
    <radialGradient
       cx="4.9929786"
       cy="43.5"
       r="2.5"
       fx="4.9929786"
       fy="43.5"
       id="radialGradient3084"
       xlink:href="#linearGradient3688-166-749"
       gradientUnits="userSpaceOnUse"
       gradientTransform="matrix(2.003784,0,0,1.4,-20.01187,-104.4)" />
  </defs>
  <metadata
     id="metadata3431">
    <rdf:RDF>
      <cc:Work
         rdf:about="">
        <dc:format>image/svg+xml</dc:format>
        <dc:type
           rdf:resource="http://purl.org/dc/dcmitype/StillImage" />
        <dc:title></dc:title>
      </cc:Work>
    </rdf:RDF>
  </metadata>
  <g
     style="display:inline"
     id="g2036"
     transform="matrix(0.55,0,0,0.3333336,-1.2000011,7.33331)">
    <g
       style="opacity:0.4"
       id="g3712"
       transform="matrix(1.052632,0,0,1.285713,-1.263158,-13.42854)">
      <rect
         style="fill:url(#radialGradient3152);fill-opacity:1;stroke:none"
         id="rect2801"
         y="40"
         x="38"
         height="7"
         width="5" />
      <rect
         style="fill:url(#radialGradient3154);fill-opacity:1;stroke:none"
         id="rect3696"
         transform="scale(-1,-1)"
         y="-47"
         x="-10"
         height="7"
         width="5" />
      <rect
         style="fill:url(#linearGradient3156);fill-opacity:1;stroke:none"
         id="rect3700"
         y="40"
         x="10"
         height="7.0000005"
         width="28" />
    </g>
  </g>
  <rect
     style="opacity:0.9;color:#000000;fill:url(#radialGradient3173);fill-opacity:1.0;fill-rule:nonzero;stroke:none;stroke-width:0.99999994;marker:none;visibility:visible;display:inline;overflow:visible;enable-background:accumulate"
     id="rect5505-21-6"
     y="2.5000269"
     x="2.499999"
     ry="1"
     rx="1"
     height="19"
     width="19" />
  <rect
     width="17"
     height="17"
     x="3.5012493"
     y="3.4987738"
     id="rect6741-9-5"
     style="opacity:0.3;fill:none;stroke:url(#linearGradient3101);stroke-width:0.99999987999999995;stroke-linecap:round;stroke-linejoin:round;stroke-miterlimit:4;stroke-opacity:1;stroke-dasharray:none;stroke-dashoffset:0" />
  <rect
     width="19.000002"
     height="19.000002"
     rx="1"
     ry="1"
     x="2.4999981"
     y="2.500026"
     id="rect5505-21-8-1"
     style="opacity:0.4;color:#000000;fill:none;stroke:#000000;stroke-width:1;stroke-linecap:round;stroke-linejoin:round;stroke-miterlimit:4;stroke-opacity:1;stroke-dasharray:none;stroke-dashoffset:0;marker:none;visibility:visible;display:inline;overflow:visible;enable-background:accumulate" />
  <g
     id="g5308"
     transform="translate(-0.0586176,-0.03647542)">
    <path
       sodipodi:nodetypes="ccccccsccccccccccccccccc"
       id="rect3032-6"
       d="M 8.6088482,4.4276119 C 8.2765761,4.4088547 8.2321684,4.774298 8.2672351,5.0132345 l 0,4.6849883 C 8.0633981,9.6553732 7.7894184,9.6792447 7.5596073,9.7470287 6.8691147,9.9307214 6.2582242,10.565187 6.3151576,11.284281 c 0.079798,0.6734 0.8795187,1.102835 1.5372604,0.902841 0.745121,-0.176401 1.171247,-0.823653 1.171247,-1.65927 l 0,-3.7089409 c 0.6190161,0.3272978 1.183985,0.9387306 1.171247,1.6592711 0.0067,0.5208443 -0.13529,1.038742 -0.3416145,1.5128581 -0.027762,0.057238 0.02858,0.1002977 0.073204,0.1220057 0.1194775,0.03331 0.1764825,-0.1214591 0.2440085,-0.1952075 0.719116,-0.9641574 0.776177,-2.3712678 0,-3.3185324 C 9.8950519,6.2629188 9.5287416,5.9651625 9.340878,5.5744582 9.1528041,5.2739502 9.0327772,4.941319 8.9748639,4.5984186 8.8989974,4.4744785 8.752195,4.4264736 8.6088482,4.4276116 Z m 0.4392176,9.3699721 -3.9041535,4.001758 1.6836667,0 -0.7564308,1.586056 c -0.275841,0.553701 0.6918408,0.877689 0.8784356,0.463624 l 0.7564286,-1.512867 1.3420534,1.268861 z"
       style="color:#000000;display:inline;overflow:visible;visibility:visible;opacity:0.15;fill:#000000;fill-opacity:1;fill-rule:nonzero;stroke:none;stroke-width:1.70782518;marker:none;enable-background:accumulate"
       inkscape:connector-curvature="0" />
    <path
       sodipodi:nodetypes="ccccccsccccccccccccccccccc"
       id="rect3032"
       d="M 8.6303959,4.0371967 C 8.2981229,4.0184404 8.2537152,4.3838823 8.2887821,4.6228193 l 0,4.6849849 C 8.0849443,9.2649429 7.8109642,9.2888261 7.5811543,9.3566101 6.8906603,9.540311 6.2797708,10.174775 6.3367044,10.893868 c 0.079797,0.673398 0.8795193,1.102835 1.5372613,0.902839 0.7451203,-0.176394 1.1712462,-0.823646 1.1712462,-1.659266 l 0,-3.7089413 c 0.6190148,0.3272871 1.1839841,0.938721 1.1712471,1.6592604 0.0067,0.5208408 -0.13529,1.0387443 -0.3416141,1.5128616 -0.027762,0.057238 0.028579,0.1002976 0.073202,0.1219994 0.1194781,0.033343 0.1764821,-0.1214517 0.2440101,-0.1952047 0.71911,-0.9641562 0.776177,-2.3712665 0,-3.3185318 C 9.9165987,5.8724996 9.5502888,5.5747451 9.3624252,5.1840407 9.174352,4.883534 9.054324,4.5508996 8.9964107,4.2080016 8.9205443,4.0840623 8.773742,4.0360563 8.6303959,4.0371963 Z M 17.097537,14.77362 c -11.7252208,5.898852 -5.862617,2.949419 0,0 z m -8.0279249,-1.366457 -3.904153,4.001759 1.6836656,0 -0.75643,1.58606 c -0.2758417,0.553702 0.6918411,0.877685 0.878436,0.463627 l 0.7564287,-1.512866 1.3420527,1.26886 z"
       style="color:#000000;display:inline;overflow:visible;visibility:visible;fill:#ffffff;fill-opacity:1;fill-rule:nonzero;stroke:none;stroke-width:1;marker:none;enable-background:accumulate"
       inkscape:connector-curvature="0" />
    <path
       inkscape:connector-curvature="0"
       d="m 14.811691,8.7680904 c -0.177342,0 -0.320127,0.142775 -0.320127,0.3201249 l 0,0.7202803 c -0.321852,0.073297 -0.6194,0.1989974 -0.890341,0.3701464 L 13.09103,9.6684406 c -0.125414,-0.1254049 -0.324784,-0.1254049 -0.450189,0 l -0.45017,0.4501794 c -0.1254,0.125405 -0.1254,0.324773 0,0.450174 l 0.510195,0.510195 c -0.171146,0.270952 -0.296855,0.568494 -0.370148,0.890352 l -0.720278,0 c -0.177345,0 -0.320121,0.142774 -0.320121,0.320132 l 0,0.640242 c 0,0.177355 0.142776,0.32013 0.320121,0.32013 l 0.720278,0 c 0.07324,0.321853 0.199002,0.619395 0.370148,0.890352 l -0.510195,0.510192 c -0.1254,0.125402 -0.1254,0.32477 0,0.450183 l 0.45017,0.450172 c 0.125405,0.125401 0.324775,0.125402 0.450189,0 l 0.510193,-0.510203 c 0.270941,0.171146 0.568489,0.296855 0.890341,0.370147 l 0,0.72029 c 0,0.177337 0.142785,0.320123 0.320127,0.320123 l 0.640258,0 c 0.177341,0 0.320121,-0.142786 0.320121,-0.320123 l 0,-0.72029 c 0.321852,-0.07329 0.619402,-0.199001 0.890346,-0.370147 l 0.510209,0.510203 c 0.125403,0.125401 0.324766,0.125401 0.450171,0 l 0.450172,-0.450172 c 0.125412,-0.125413 0.125413,-0.324782 0,-0.450183 l -0.510202,-0.510192 c 0.171146,-0.270957 0.296865,-0.568499 0.370147,-0.890352 l 0.720289,0 c 0.177351,0 0.320119,-0.142775 0.320119,-0.32013 l 0,-0.640242 c 0,-0.177358 -0.142768,-0.320132 -0.320119,-0.320132 l -0.720289,0 c -0.07325,-0.321858 -0.199001,-0.6194 -0.370147,-0.890352 l 0.510202,-0.510195 c 0.125412,-0.125401 0.125411,-0.324769 0,-0.450174 L 17.622796,9.6684406 c -0.125405,-0.1254049 -0.324768,-0.1254049 -0.450171,0 L 16.662416,10.178642 C 16.391472,10.007493 16.093922,9.8817884 15.77207,9.8084956 l 0,-0.7202803 c 0,-0.1773499 -0.14278,-0.3201249 -0.320121,-0.3201249 l -0.640258,0 z m 0.320135,2.5610026 c 0.706833,-1e-6 1.280487,0.573672 1.280487,1.280499 0,0.706831 -0.573654,1.280498 -1.280487,1.280498 -0.706841,0 -1.280508,-0.573667 -1.280508,-1.280498 0,-0.706827 0.573666,-1.280499 1.280508,-1.280499 z"
       id="path4288"
       style="display:inline;overflow:visible;visibility:visible;opacity:0.2;fill:#000000;fill-opacity:1;fill-rule:nonzero;stroke:none;stroke-width:1.70000005;stroke-opacity:1;marker:none;enable-background:accumulate" />
    <path
       style="display:inline;overflow:visible;visibility:visible;opacity:1;fill:#ffffff;fill-opacity:1;fill-rule:nonzero;stroke:none;stroke-width:1.70000005;marker:none;enable-background:accumulate"
       id="rect3557-6"
       d="m 14.811691,8.2558885 c -0.177342,0 -0.320127,0.1427761 -0.320127,0.3201261 l 0,0.720286 c -0.321852,0.073297 -0.6194,0.1989944 -0.890341,0.3701453 L 13.09103,9.1562398 c -0.125414,-0.1254002 -0.324784,-0.1254002 -0.450189,0 l -0.45017,0.4501769 c -0.1254,0.1254062 -0.1254,0.3247731 0,0.4501733 l 0.510195,0.510204 c -0.171146,0.270949 -0.296855,0.568498 -0.370148,0.89035 l -0.720278,0 c -0.177345,0 -0.320121,0.142778 -0.320121,0.320118 l 0,0.640259 c 0,0.177341 0.142776,0.320128 0.320121,0.320128 l 0.720278,0 c 0.07324,0.321853 0.199002,0.619398 0.370148,0.890339 l -0.510195,0.510195 c -0.1254,0.125416 -0.1254,0.324779 0,0.450185 l 0.45017,0.450175 c 0.125405,0.125399 0.324775,0.125399 0.450189,0 l 0.510193,-0.510199 c 0.270941,0.171149 0.568489,0.296858 0.890341,0.370149 l 0,0.720279 c 0,0.177345 0.142785,0.32012 0.320127,0.32012 l 0.640258,0 c 0.177341,0 0.320121,-0.142775 0.320121,-0.32012 l 0,-0.720279 c 0.321852,-0.07327 0.619402,-0.199 0.890346,-0.370149 l 0.510209,0.510199 c 0.125403,0.125399 0.324766,0.125399 0.450171,0 l 0.450172,-0.450175 c 0.125412,-0.125405 0.125413,-0.324769 0,-0.450185 l -0.510202,-0.510195 c 0.171146,-0.270941 0.296865,-0.568486 0.370147,-0.890339 l 0.720289,0 c 0.177351,0 0.320119,-0.142787 0.320119,-0.320128 l 0,-0.640259 c 0,-0.17734 -0.142768,-0.320118 -0.320119,-0.320118 l -0.720289,0 c -0.07326,-0.321852 -0.199001,-0.619401 -0.370147,-0.89035 l 0.510202,-0.510204 c 0.125412,-0.1254002 0.125411,-0.3247671 0,-0.4501733 L 17.622796,9.1562398 c -0.125405,-0.1254002 -0.324768,-0.1254002 -0.450171,0 L 16.662416,9.6664459 C 16.391472,9.495295 16.093922,9.3695841 15.77207,9.2963006 l 0,-0.720286 c 0,-0.17735 -0.14278,-0.3201261 -0.320121,-0.3201261 l -0.640258,0 z m 0.320135,2.5610105 c 0.706833,-2e-6 1.280487,0.573655 1.280487,1.280486 0,0.706844 -0.573654,1.280509 -1.280487,1.280509 -0.706841,2e-6 -1.280508,-0.573665 -1.280508,-1.280509 0,-0.706831 0.573666,-1.280486 1.280508,-1.280486 z"
       inkscape:connector-curvature="0" />
  </g>
</svg>
