<?xml version="1.0" encoding="UTF-8" standalone="no"?>
<!-- Created with Inkscape (http://www.inkscape.org/) -->

<svg
   xmlns:dc="http://purl.org/dc/elements/1.1/"
   xmlns:cc="http://creativecommons.org/ns#"
   xmlns:rdf="http://www.w3.org/1999/02/22-rdf-syntax-ns#"
   xmlns:svg="http://www.w3.org/2000/svg"
   xmlns="http://www.w3.org/2000/svg"
   xmlns:sodipodi="http://sodipodi.sourceforge.net/DTD/sodipodi-0.dtd"
   xmlns:inkscape="http://www.inkscape.org/namespaces/inkscape"
   id="svg3039"
   version="1.1"
   inkscape:version="0.91 r"
   width="24"
   height="24"
   sodipodi:docname="pushbullet-indicator-sync1-light.svg">
  <metadata
     id="metadata3045">
    <rdf:RDF>
      <cc:Work
         rdf:about="">
        <dc:format>image/svg+xml</dc:format>
        <dc:type
           rdf:resource="http://purl.org/dc/dcmitype/StillImage" />
        <dc:title></dc:title>
      </cc:Work>
    </rdf:RDF>
  </metadata>
  <defs
     id="defs3043" />
  <sodipodi:namedview
     pagecolor="#2d2d2d"
     bordercolor="#666666"
     borderopacity="1"
     objecttolerance="10"
     gridtolerance="10"
     guidetolerance="10"
     inkscape:pageopacity="0"
     inkscape:pageshadow="2"
     inkscape:window-width="1504"
     inkscape:window-height="844"
     id="namedview3041"
     showgrid="false"
     inkscape:zoom="17.31"
     inkscape:cx="8.7296566"
     inkscape:cy="12.094819"
     inkscape:window-x="94"
     inkscape:window-y="30"
     inkscape:window-maximized="0"
     inkscape:current-layer="svg3039" />
  <path
     style="fill:#ffffff;fill-opacity:1"
     d="M 4 6 L 4 18 L 6 18 L 6 6 L 4 6 z M 8 6 L 8 18 L 12.251953 17.966797 C 15.183205 17.934167 15.459937 17.894843 16.699219 17.291016 C 19.401249 15.974521 20.678915 12.786357 19.640625 9.9472656 C 18.954895 8.0722573 17.393369 6.684604 15.404297 6.1796875 C 14.779542 6.0210954 14.383517 6 11.955078 6 L 8 6 z M 14.263672 7.9179688 C 15.061238 7.9559491 15.944242 8.2879915 16.828125 9.171875 C 17.876482 10.220232 18.140306 11.273408 18.066406 12.177734 L 18.949219 11.292969 L 19.65625 12 L 18.242188 13.414062 L 17.535156 14.121094 L 16.828125 13.414062 L 15.414062 12 L 16.121094 11.292969 L 17.048828 12.220703 C 17.135095 11.519253 16.948409 10.706221 16.121094 9.8789062 C 13.999773 7.7575859 11.878906 9.8789062 11.878906 9.8789062 L 11.171875 9.171875 C 11.171875 9.171875 12.509027 7.8344121 14.263672 7.9179688 z M 10.464844 9.8789062 L 11.171875 10.585938 L 12.585938 12 L 11.878906 12.707031 L 10.951172 11.779297 C 10.865357 12.480803 11.051584 13.293786 11.878906 14.121094 C 14.00022 16.242421 16.121094 14.121094 16.121094 14.121094 L 16.828125 14.828125 C 16.828125 14.828125 14.000309 17.656545 11.171875 14.828125 C 10.123526 13.779761 9.8597011 12.726584 9.9335938 11.822266 L 9.0507812 12.707031 L 8.34375 12 L 9.7578125 10.585938 L 10.464844 9.8789062 z "
     id="path3075" />
  <g
     transform="matrix(0.70710678,0.70710678,-0.70710678,0.70710678,-188.23197,-399.53504)"
     id="g3997" />
</svg>
