<?xml version="1.0" encoding="UTF-8" standalone="no"?>
<!-- Created with Inkscape (http://www.inkscape.org/) -->

<svg
   xmlns:dc="http://purl.org/dc/elements/1.1/"
   xmlns:cc="http://creativecommons.org/ns#"
   xmlns:rdf="http://www.w3.org/1999/02/22-rdf-syntax-ns#"
   xmlns:svg="http://www.w3.org/2000/svg"
   xmlns="http://www.w3.org/2000/svg"
   xmlns:xlink="http://www.w3.org/1999/xlink"
   xmlns:sodipodi="http://sodipodi.sourceforge.net/DTD/sodipodi-0.dtd"
   xmlns:inkscape="http://www.inkscape.org/namespaces/inkscape"
   width="128"
   height="128"
   viewBox="0 0 128 128"
   id="svg2"
   version="1.1"
   inkscape:version="0.91 r"
   sodipodi:docname="configurator-new-128.svg">
  <defs
     id="defs4">
    <linearGradient
       inkscape:collect="always"
       id="linearGradient4181">
      <stop
         style="stop-color:#000000;stop-opacity:1;"
         offset="0"
         id="stop4183" />
      <stop
         style="stop-color:#000000;stop-opacity:0;"
         offset="1"
         id="stop4185" />
    </linearGradient>
    <linearGradient
       inkscape:collect="always"
       id="linearGradient4167">
      <stop
         style="stop-color:#ffffff;stop-opacity:1;"
         offset="0"
         id="stop4169" />
      <stop
         id="stop4175"
         offset="0.27450958"
         style="stop-color:#ffffff;stop-opacity:0.23529412" />
      <stop
         style="stop-color:#ffffff;stop-opacity:0.15686275"
         offset="0.71568602"
         id="stop4177" />
      <stop
         style="stop-color:#ffffff;stop-opacity:0.39215687"
         offset="1"
         id="stop4171" />
    </linearGradient>
    <radialGradient
       inkscape:collect="always"
       xlink:href="#linearGradient4181"
       id="radialGradient4187"
       cx="64"
       cy="1032.8622"
       fx="64"
       fy="1032.8622"
       r="43"
       gradientTransform="matrix(0.58139535,0,0,0.23255814,26.7907,796.16168)"
       gradientUnits="userSpaceOnUse" />
    <linearGradient
       id="linearGradient4644-104-3-3-6-2-3-4">
      <stop
         offset="0"
         style="stop-color:#ff4035;stop-opacity:1;"
         id="stop5237-6-5-1-7-5-2" />
      <stop
         offset="1"
         style="stop-color:#dc311a;stop-opacity:1;"
         id="stop5239-4-6-4-8-4-8" />
    </linearGradient>
    <linearGradient
       inkscape:collect="always"
       id="linearGradient4193">
      <stop
         style="stop-color:#f0f0f0;stop-opacity:1"
         offset="0"
         id="stop4195" />
      <stop
         style="stop-color:#d2d2d2;stop-opacity:1"
         offset="1"
         id="stop4197" />
    </linearGradient>
    <linearGradient
       inkscape:collect="always"
       xlink:href="#linearGradient4193"
       id="linearGradient4196"
       x1="65"
       y1="942.36218"
       x2="65"
       y2="1037.3622"
       gradientUnits="userSpaceOnUse"
       gradientTransform="translate(0,-0.5)" />
    <linearGradient
       inkscape:collect="always"
       xlink:href="#linearGradient4167"
       id="linearGradient4303"
       x1="65"
       y1="939.36218"
       x2="65"
       y2="1041.3622"
       gradientUnits="userSpaceOnUse"
       gradientTransform="translate(0,-0.5)" />
    <linearGradient
       gradientTransform="matrix(1.75,0,0,1.75,7.9999953,-795.27172)"
       inkscape:collect="always"
       xlink:href="#linearGradient27416-1-2"
       id="linearGradient4287"
       x1="30"
       y1="1002.3622"
       x2="30"
       y2="1037.3622"
       gradientUnits="userSpaceOnUse" />
    <linearGradient
       id="linearGradient27416-1-2">
      <stop
         id="stop27420-2-0"
         style="stop-color:#55c1ec;stop-opacity:1"
         offset="0" />
      <stop
         id="stop27422-3-5"
         style="stop-color:#3689e6;stop-opacity:1"
         offset="1" />
    </linearGradient>
    <linearGradient
       gradientTransform="matrix(1.7333333,0,0,1.7333333,8.6666629,-778.26577)"
       inkscape:collect="always"
       xlink:href="#linearGradient4215-8-4-07-7"
       id="linearGradient4315"
       x1="35"
       y1="1027.3622"
       x2="35"
       y2="1012.3622"
       gradientUnits="userSpaceOnUse" />
    <linearGradient
       id="linearGradient4215-8-4-07-7">
      <stop
         id="stop4217-1-2-1-2"
         offset="0"
         style="stop-color:#e9e9e9;stop-opacity:1;" />
      <stop
         id="stop4219-3-4-0-96"
         offset="1"
         style="stop-color:#ffffff;stop-opacity:1;" />
    </linearGradient>
  </defs>
  <sodipodi:namedview
     id="base"
     pagecolor="#ffffff"
     bordercolor="#666666"
     borderopacity="1.0"
     inkscape:pageopacity="0.0"
     inkscape:pageshadow="2"
     inkscape:zoom="3.1018662"
     inkscape:cx="35.156414"
     inkscape:cy="38.058515"
     inkscape:document-units="px"
     inkscape:current-layer="layer1"
     showgrid="true"
     units="px"
     inkscape:window-width="1366"
     inkscape:window-height="713"
     inkscape:window-x="0"
     inkscape:window-y="30"
     inkscape:window-maximized="1">
    <inkscape:grid
       type="xygrid"
       id="grid4238" />
  </sodipodi:namedview>
  <metadata
     id="metadata7">
    <rdf:RDF>
      <cc:Work
         rdf:about="">
        <dc:format>image/svg+xml</dc:format>
        <dc:type
           rdf:resource="http://purl.org/dc/dcmitype/StillImage" />
        <dc:title />
      </cc:Work>
    </rdf:RDF>
  </metadata>
  <g
     inkscape:label="Livello 1"
     inkscape:groupmode="layer"
     id="layer1"
     transform="translate(0,-924.36216)">
    <rect
       style="opacity:0.4;fill:url(#radialGradient4187);fill-opacity:1;stroke:none;stroke-width:3;stroke-linejoin:round;stroke-miterlimit:4;stroke-dasharray:none;stroke-opacity:1"
       id="rect4179"
       width="50"
       height="20"
       x="39.000004"
       y="1026.3622" />
    <path
       style="opacity:1;fill:url(#linearGradient4196);fill-opacity:1;stroke:none;stroke-width:1;stroke-linecap:butt;stroke-linejoin:round;stroke-miterlimit:4;stroke-dasharray:none;stroke-opacity:1"
       d="m 54.000005,937.8622 c -1.662,0 -2.86478,1.34351 -3,3 l -0.98633,12.07422 a 39.500004,39.500004 0 0 0 -10.990233,6.35547 l -10.958985,-5.1875 c -1.439438,-0.83098 -3.266686,-0.34166 -4.097656,1.09766 l -10,17.32031 c -0.831079,1.43941 -0.269354,3.1523 1.097656,4.09766 l 9.994141,6.91215 a 39.500004,39.500004 0 0 0 -0.558594,6.33 39.500004,39.500004 0 0 0 0.529297,6.3496 l -9.964844,6.89263 c -1.439368,0.8311 -1.928656,2.6584 -1.097656,4.0977 l 10,17.3203 c 0.831,1.4394 2.595453,1.8088 4.097656,1.0976 l 10.958985,-5.1875 a 39.500004,39.500004 0 0 0 10.988283,6.3223 l 0.98828,12.1074 c 0,1.662 1.338,3 3,3 l 20,0 c 1.662,0 2.86477,-1.3435 3,-3 l 0.98633,-12.0742 a 39.500004,39.500004 0 0 0 10.99023,-6.3555 l 10.95899,5.1875 c 1.439335,0.831 3.266655,0.3417 4.097655,-1.0976 l 10,-17.3203 c 0.831,-1.4393 0.2693,-3.1524 -1.09765,-4.0977 l -9.99414,-6.91213 a 39.500004,39.500004 0 0 0 0.55859,-6.3301 39.500004,39.500004 0 0 0 -0.5293,-6.3496 l 9.96485,-6.89255 c 1.43933,-0.831 1.92865,-2.65832 1.09765,-4.09766 l -10,-17.32031 c -0.831,-1.43933 -2.59548,-1.8088 -4.097655,-1.09766 l -10.95899,5.1875 a 39.500004,39.500004 0 0 0 -10.98828,-6.32226 l -0.98828,-12.10743 c 0,-1.662 -1.338,-3 -3,-3 l -20,0 z"
       id="path4169"
       inkscape:connector-curvature="0" />
    <path
       style="opacity:0.9;fill:none;fill-opacity:1;stroke:url(#linearGradient4303);stroke-width:1;stroke-linecap:butt;stroke-linejoin:round;stroke-miterlimit:4;stroke-dasharray:none;stroke-opacity:1"
       d="m 54.000005,938.86218 c -1.108,0 -1.90985,0.89567 -2,2 l -1.046875,12.81641 a 38.500004,38.500004 0 0 0 -11.761719,6.79492 L 27.564458,954.9696 c -0.959652,-0.55397 -2.178463,-0.2271 -2.732423,0.73242 l -10,17.32032 c -0.55397,0.95957 -0.17895,2.10232 0.73242,2.73242 l 10.574222,7.3125 a 38.500004,38.500004 0 0 0 -0.638672,6.79492 38.500004,38.500004 0 0 0 0.619141,6.80664 l -10.554691,7.30078 c -0.95958,0.5541 -1.28642,1.7729 -0.73242,2.7324 l 10,17.3203 c 0.554,0.9595 1.730984,1.2065 2.732423,0.7324 l 11.587891,-5.4863 a 38.500004,38.500004 0 0 0 11.800781,6.7656 l 1.046875,12.8282 c 0,1.108 0.892,2 2,2 l 20,0 c 1.108,0 1.90985,-0.8957 2,-2 l 1.046875,-12.8164 a 38.500004,38.500004 0 0 0 11.761719,-6.795 l 11.626951,5.5039 c 0.95956,0.554 2.17843,0.2271 2.73242,-0.7324 l 10,-17.3203 c 0.55401,-0.9596 0.17891,-2.1022 -0.73242,-2.7324 l -10.57422,-7.3125 a 38.500004,38.500004 0 0 0 0.63868,-6.79492 38.500004,38.500004 0 0 0 -0.61915,-6.80664 l 10.55469,-7.30078 c 0.95956,-0.55401 1.28642,-1.77287 0.73242,-2.73242 l -10,-17.32032 c -0.554,-0.95956 -1.73097,-1.20651 -2.73242,-0.73242 l -11.589842,5.48633 A 38.500004,38.500004 0 0 0 77.04688,953.69031 l -1.046875,-12.82813 c 0,-1.108 -0.892,-2 -2,-2 l -20,0 z"
       id="circle4179"
       inkscape:connector-curvature="0" />
    <path
       inkscape:connector-curvature="0"
       id="path4198"
       d="m 54.000005,937.8622 c -1.662,0 -2.86478,1.34351 -3,3 l -0.98633,12.07422 a 39.500004,39.500004 0 0 0 -10.990233,6.35547 l -10.958985,-5.1875 c -1.439438,-0.83098 -3.266686,-0.34166 -4.097656,1.09766 l -10,17.32031 c -0.831079,1.43941 -0.269354,3.1523 1.097656,4.09766 l 9.994141,6.91215 a 39.500004,39.500004 0 0 0 -0.558594,6.33 39.500004,39.500004 0 0 0 0.529297,6.3496 l -9.964844,6.89263 c -1.439368,0.8311 -1.928656,2.6584 -1.097656,4.0977 l 10,17.3203 c 0.831,1.4394 2.595453,1.8088 4.097656,1.0976 l 10.958985,-5.1875 a 39.500004,39.500004 0 0 0 10.988283,6.3223 l 0.98828,12.1074 c 0,1.662 1.338,3 3,3 l 20,0 c 1.662,0 2.86477,-1.3435 3,-3 l 0.98633,-12.0742 a 39.500004,39.500004 0 0 0 10.99023,-6.3555 l 10.95899,5.1875 c 1.439335,0.831 3.266655,0.3417 4.097655,-1.0976 l 10,-17.3203 c 0.831,-1.4393 0.2693,-3.1524 -1.09765,-4.0977 l -9.99414,-6.91213 a 39.500004,39.500004 0 0 0 0.55859,-6.3301 39.500004,39.500004 0 0 0 -0.5293,-6.3496 l 9.96485,-6.89255 c 1.43933,-0.831 1.92865,-2.65832 1.09765,-4.09766 l -10,-17.32031 c -0.831,-1.43933 -2.59548,-1.8088 -4.097655,-1.09766 l -10.95899,5.1875 a 39.500004,39.500004 0 0 0 -10.98828,-6.32226 l -0.98828,-12.10743 c 0,-1.662 -1.338,-3 -3,-3 l -20,0 z"
       style="opacity:0.3;fill:none;fill-opacity:1;stroke:#000000;stroke-width:1;stroke-linecap:butt;stroke-linejoin:round;stroke-miterlimit:4;stroke-dasharray:none;stroke-opacity:1" />
    <rect
       style="opacity:1;fill:url(#linearGradient4287);fill-opacity:1;stroke:none;stroke-width:1;stroke-linecap:butt;stroke-linejoin:round;stroke-miterlimit:4;stroke-dasharray:none;stroke-opacity:1"
       id="rect4270"
       width="56"
       height="28"
       x="36.000004"
       y="976.36218"
       rx="14"
       ry="14" />
    <path
       style="opacity:0.1;fill:#000000;fill-opacity:1;stroke:none;stroke-width:1;stroke-linecap:butt;stroke-linejoin:round;stroke-miterlimit:4;stroke-dasharray:none;stroke-opacity:1"
       d="M 50 52 C 42.244 52 36 58.244 36 66 C 36 66.507186 36.029953 67.007069 36.082031 67.5 C 36.826343 60.454914 42.751186 55 50 55 L 78 55 C 85.248814 55 91.173657 60.454914 91.917969 67.5 C 91.970047 67.007069 92 66.507186 92 66 C 92 58.244 85.756 52 78 52 L 50 52 z "
       transform="translate(0,924.36216)"
       id="rect4383" />
    <path
       style="opacity:0.10000001;fill:#000000;fill-opacity:1;stroke:none;stroke-width:1;stroke-linecap:butt;stroke-linejoin:round;stroke-miterlimit:4;stroke-dasharray:none;stroke-opacity:1"
       d="M 50 52 C 42.244 52 36 58.244 36 66 C 36 66.337684 36.0275 66.668439 36.050781 67 C 36.562237 59.716191 42.581684 54 50 54 L 78 54 C 85.418316 54 91.437763 59.716191 91.949219 67 C 91.9725 66.668439 92 66.337684 92 66 C 92 58.244 85.756 52 78 52 L 50 52 z "
       id="rect4392"
       transform="translate(0,924.36216)" />
    <rect
       ry="13.5"
       rx="13.5"
       y="976.86218"
       x="36.500008"
       height="27"
       width="54.999996"
       id="rect4401"
       style="opacity:0.10000001;fill:none;fill-opacity:1;stroke:#000000;stroke-width:1;stroke-linecap:butt;stroke-linejoin:round;stroke-miterlimit:4;stroke-dasharray:none;stroke-opacity:1" />
    <circle
       style="opacity:0.07;fill:#000000;fill-opacity:1;stroke:#000000;stroke-width:1;stroke-linecap:butt;stroke-linejoin:round;stroke-miterlimit:4;stroke-dasharray:none;stroke-opacity:1"
       id="circle4425"
       cx="77.999992"
       cy="992.36206"
       r="13" />
    <circle
       r="13"
       cy="992.36206"
       cx="77.999992"
       id="circle4421"
       style="opacity:0.15;fill:#000000;fill-opacity:1;stroke:none;stroke-width:1;stroke-linecap:butt;stroke-linejoin:round;stroke-miterlimit:4;stroke-dasharray:none;stroke-opacity:1" />
    <circle
       style="opacity:1;fill:url(#linearGradient4315);fill-opacity:1;stroke:none;stroke-width:1;stroke-linecap:butt;stroke-linejoin:round;stroke-miterlimit:4;stroke-dasharray:none;stroke-opacity:1"
       id="path4307"
       cx="77.999992"
       cy="990.36224"
       r="13" />
    <circle
       r="13.5"
       cy="990.36218"
       cx="78.000008"
       id="circle4419"
       style="opacity:0.5;fill:none;fill-opacity:1;stroke:#646464;stroke-width:1;stroke-linecap:butt;stroke-linejoin:round;stroke-miterlimit:4;stroke-dasharray:none;stroke-opacity:1" />
  </g>
</svg>
