<?xml version="1.0" encoding="UTF-8" standalone="no"?>
<svg
   xmlns:dc="http://purl.org/dc/elements/1.1/"
   xmlns:cc="http://creativecommons.org/ns#"
   xmlns:rdf="http://www.w3.org/1999/02/22-rdf-syntax-ns#"
   xmlns:svg="http://www.w3.org/2000/svg"
   xmlns="http://www.w3.org/2000/svg"
   xmlns:xlink="http://www.w3.org/1999/xlink"
   version="1.1"
   id="svg2"
   viewBox="0 0 128 128"
   height="128"
   width="128">
  <defs
     id="defs4">
    <linearGradient
       id="linearGradient4314">
      <stop
         style="stop-color:#ffffff;stop-opacity:1;"
         offset="0"
         id="stop4316" />
      <stop
         id="stop4318"
         offset="0.27499944"
         style="stop-color:#ffffff;stop-opacity:0.23529412" />
      <stop
         style="stop-color:#ffffff;stop-opacity:0.15686275"
         offset="0.72499943"
         id="stop4320" />
      <stop
         style="stop-color:#ffffff;stop-opacity:0.39215687"
         offset="1"
         id="stop4322" />
    </linearGradient>
    <linearGradient
       id="linearGradient4181">
      <stop
         id="stop4183"
         offset="0"
         style="stop-color:#000000;stop-opacity:1;" />
      <stop
         id="stop4185"
         offset="1"
         style="stop-color:#000000;stop-opacity:0;" />
    </linearGradient>
    <linearGradient
       id="linearGradient4167">
      <stop
         id="stop4169"
         offset="0"
         style="stop-color:#ffffff;stop-opacity:1;" />
      <stop
         style="stop-color:#ffffff;stop-opacity:0.23529412"
         offset="0.22685508"
         id="stop4175" />
      <stop
         id="stop4177"
         offset="0.76572156"
         style="stop-color:#ffffff;stop-opacity:0.15686275" />
      <stop
         id="stop4171"
         offset="1"
         style="stop-color:#ffffff;stop-opacity:0.39215687" />
    </linearGradient>
    <linearGradient
       id="linearGradient4154">
      <stop
         id="stop4156"
         offset="0"
         style="stop-color:#1eb4dc;stop-opacity:1" />
      <stop
         id="stop4158"
         offset="1"
         style="stop-color:#0a6edc;stop-opacity:1" />
    </linearGradient>
    <radialGradient
       gradientTransform="matrix(0,0.96153868,-1.0576923,0,1066.3342,940.47768)"
       gradientUnits="userSpaceOnUse"
       r="52"
       fy="970.35236"
       fx="69.559845"
       cy="970.35236"
       cx="69.559845"
       id="radialGradient4160"
       xlink:href="#linearGradient4247" />
    <radialGradient
       gradientUnits="userSpaceOnUse"
       gradientTransform="matrix(1,0,0,0.31395349,0,708.5915)"
       r="43"
       fy="1032.8622"
       fx="64"
       cy="1032.8622"
       cx="64"
       id="radialGradient4187"
       xlink:href="#linearGradient4181" />
    <linearGradient
       gradientUnits="userSpaceOnUse"
       y2="1041.274"
       x2="64.396698"
       y1="939.20795"
       x1="64.396698"
       id="linearGradient4166"
       xlink:href="#linearGradient4167" />
    <linearGradient
       id="linearGradient4247">
      <stop
         style="stop-color:#55e132;stop-opacity:1"
         offset="0"
         id="stop4249" />
      <stop
         style="stop-color:#41a032;stop-opacity:1"
         offset="1"
         id="stop4251" />
    </linearGradient>
    <linearGradient
       id="linearGradient4229">
      <stop
         style="stop-color:#f0735f;stop-opacity:1"
         offset="0"
         id="stop4231" />
      <stop
         style="stop-color:#c81e1e;stop-opacity:1"
         offset="1"
         id="stop4233" />
    </linearGradient>
    <linearGradient
       id="linearGradient4269">
      <stop
         id="stop4271"
         offset="0"
         style="stop-color:#fff53c;stop-opacity:1" />
      <stop
         id="stop4273"
         offset="1"
         style="stop-color:#e1b41e;stop-opacity:1" />
    </linearGradient>
    <radialGradient
       r="52"
       fy="960.30774"
       fx="44.826469"
       cy="960.30774"
       cx="44.826469"
       gradientTransform="matrix(-2.0736933e-7,1.1577649,-0.99828076,-1.7880385e-7,1022.9917,912.69267)"
       gradientUnits="userSpaceOnUse"
       id="radialGradient4205"
       xlink:href="#linearGradient4154" />
    <linearGradient
       gradientUnits="userSpaceOnUse"
       y2="1010.3622"
       x2="65"
       y1="970.36218"
       x1="65"
       id="linearGradient4312"
       xlink:href="#linearGradient4314" />
    <radialGradient
       r="52"
       fy="960.23871"
       fx="52.086823"
       cy="960.23871"
       cx="52.086823"
       gradientTransform="matrix(0,1.1538462,-1.249999,0,1265.2975,-37.100182)"
       gradientUnits="userSpaceOnUse"
       id="radialGradient4346"
       xlink:href="#linearGradient4229" />
    <radialGradient
       r="52"
       fy="923.07959"
       fx="64.359848"
       cy="923.07959"
       cx="64.359848"
       gradientTransform="matrix(0,0.86538455,-0.57692259,0,622.54549,22.303988)"
       gradientUnits="userSpaceOnUse"
       id="radialGradient4354"
       xlink:href="#linearGradient4269" />
  </defs>
  <metadata
     id="metadata7">
    <rdf:RDF>
      <cc:Work
         rdf:about="">
        <dc:format>image/svg+xml</dc:format>
        <dc:type
           rdf:resource="http://purl.org/dc/dcmitype/StillImage" />
        <dc:title />
      </cc:Work>
    </rdf:RDF>
  </metadata>
  <g
     transform="translate(0,-924.36216)"
     id="layer1">
    <rect
       y="1019.3622"
       x="21"
       height="27"
       width="86"
       id="rect4179"
       style="opacity:0.4;fill:url(#radialGradient4187);fill-opacity:1;stroke:none;stroke-width:3;stroke-linejoin:round;stroke-miterlimit:4;stroke-dasharray:none;stroke-opacity:1" />
    <circle
       r="52"
       cy="990.36218"
       cx="64"
       id="path4136"
       style="opacity:1;fill:url(#radialGradient4160);fill-opacity:1;stroke:none;stroke-width:2.91464257;stroke-linejoin:round;stroke-miterlimit:4;stroke-dasharray:none;stroke-opacity:1" />
    <path
       id="circle4352"
       transform="translate(0,924.36216)"
       d="M 60 33 L 60 39.333984 A 27 27 0 0 1 77.5 42.625 A 27 27 0 0 1 87.382812 79.507812 L 65.189453 117.94727 A 52 52 0 0 1 63.017578 117.95117 A 52 52 0 0 0 64 118 A 52 52 0 0 0 116 66 A 52 52 0 0 0 106.58594 36.269531 L 60 33 z M 34.171875 108.51367 L 34.148438 108.54492 A 52 52 0 0 0 36.677734 110.16797 A 52 52 0 0 1 34.171875 108.51367 z M 38.609375 111.35156 A 52 52 0 0 0 40.78125 112.46094 A 52 52 0 0 1 38.609375 111.35156 z M 43.179688 113.61914 A 52 52 0 0 0 45.898438 114.67969 A 52 52 0 0 1 43.179688 113.61914 z M 47.921875 115.41797 A 52 52 0 0 0 51.259766 116.34766 A 52 52 0 0 1 47.921875 115.41797 z M 52.828125 116.74805 A 52 52 0 0 0 56.753906 117.42969 A 52 52 0 0 1 52.828125 116.74805 z M 57.837891 117.59375 A 52 52 0 0 0 62.248047 117.91211 A 52 52 0 0 1 57.837891 117.59375 z "
       style="opacity:1;fill:url(#radialGradient4354);fill-opacity:1;stroke:none;stroke-width:2.91464257;stroke-linejoin:round;stroke-miterlimit:4;stroke-dasharray:none;stroke-opacity:1" />
    <path
       id="circle4329"
       transform="translate(0,924.36216)"
       d="M 64 14 C 45.312224 14.025593 28.195494 24.065721 18.990234 40.091797 L 38.453125 74.695312 C 37.502044 71.904172 37.001152 68.969069 37 66 C 37 51.088312 49.088312 39 64 39 L 108.38477 39 C 98.964286 23.494225 82.143156 14.019616 64 14 z M 42.671875 82.501953 L 43 83 L 43.054688 83.005859 C 42.925117 82.839351 42.797506 82.671411 42.671875 82.501953 z "
       style="opacity:1;fill:url(#radialGradient4346);fill-opacity:1;stroke:none;stroke-width:2.91464257;stroke-linejoin:round;stroke-miterlimit:4;stroke-dasharray:none;stroke-opacity:1" />
    <circle
       style="opacity:0.3;fill:none;fill-opacity:1;stroke:#000000;stroke-width:1;stroke-linejoin:round;stroke-miterlimit:4;stroke-dasharray:none;stroke-opacity:1"
       id="circle4154"
       cx="64"
       cy="990.36218"
       r="52" />
    <circle
       style="opacity:0.50000001;fill:none;fill-opacity:1;stroke:url(#linearGradient4166);stroke-width:1;stroke-linejoin:round;stroke-miterlimit:4;stroke-dasharray:none;stroke-opacity:1"
       id="circle4156"
       cx="64"
       cy="990.36218"
       r="51" />
    <circle
       style="opacity:1;fill:#f5f5f5;fill-opacity:1;stroke:none;stroke-width:1;stroke-linecap:butt;stroke-linejoin:round;stroke-miterlimit:4;stroke-dasharray:none;stroke-opacity:1"
       id="circle4194"
       cx="64"
       cy="990.36218"
       r="27" />
    <circle
       style="opacity:1;fill:url(#radialGradient4205);fill-opacity:1;stroke:none;stroke-width:2.91464257;stroke-linejoin:round;stroke-miterlimit:4;stroke-dasharray:none;stroke-opacity:1"
       id="circle4203"
       cx="64"
       cy="990.36218"
       r="21" />
    <circle
       r="20"
       cy="990.36218"
       cx="64"
       id="circle4207"
       style="opacity:0.5;fill:none;fill-opacity:1;stroke:url(#linearGradient4312);stroke-width:1;stroke-linejoin:round;stroke-miterlimit:4;stroke-dasharray:none;stroke-opacity:1" />
    <circle
       r="21"
       cy="990.36218"
       cx="64"
       id="circle4211"
       style="opacity:0.6;fill:none;fill-opacity:1;stroke:#144696;stroke-width:1;stroke-linejoin:round;stroke-miterlimit:4;stroke-dasharray:none;stroke-opacity:1" />
    <circle
       r="27"
       cy="990.36218"
       cx="64"
       id="circle4304"
       style="opacity:0.3;fill:none;fill-opacity:1;stroke:#000000;stroke-width:1;stroke-linecap:butt;stroke-linejoin:round;stroke-miterlimit:4;stroke-dasharray:none;stroke-opacity:1" />
  </g>
</svg>
