<?xml version="1.0" encoding="UTF-8" standalone="no"?>
<!-- Created with Inkscape (http://www.inkscape.org/) -->

<svg
   xmlns:dc="http://purl.org/dc/elements/1.1/"
   xmlns:cc="http://creativecommons.org/ns#"
   xmlns:rdf="http://www.w3.org/1999/02/22-rdf-syntax-ns#"
   xmlns:svg="http://www.w3.org/2000/svg"
   xmlns="http://www.w3.org/2000/svg"
   xmlns:xlink="http://www.w3.org/1999/xlink"
   xmlns:sodipodi="http://sodipodi.sourceforge.net/DTD/sodipodi-0.dtd"
   xmlns:inkscape="http://www.inkscape.org/namespaces/inkscape"
   width="128"
   height="128"
   viewBox="0 0 128 128"
   id="svg2"
   version="1.1"
   inkscape:version="0.91 r"
   sodipodi:docname="libreoffice-draw-128.svg">
  <defs
     id="defs4">
    <linearGradient
       inkscape:collect="always"
       id="linearGradient4211">
      <stop
         style="stop-color:#000000;stop-opacity:1;"
         offset="0"
         id="stop4213" />
      <stop
         style="stop-color:#000000;stop-opacity:0;"
         offset="1"
         id="stop4215" />
    </linearGradient>
    <linearGradient
       inkscape:collect="always"
       id="linearGradient4192">
      <stop
         style="stop-color:#000000;stop-opacity:1;"
         offset="0"
         id="stop4194" />
      <stop
         style="stop-color:#000000;stop-opacity:0;"
         offset="1"
         id="stop4196" />
    </linearGradient>
    <linearGradient
       inkscape:collect="always"
       id="linearGradient4182">
      <stop
         style="stop-color:#000000;stop-opacity:0"
         offset="0"
         id="stop4184" />
      <stop
         id="stop4190"
         offset="0.55453491"
         style="stop-color:#000000;stop-opacity:1" />
      <stop
         style="stop-color:#000000;stop-opacity:0;"
         offset="1"
         id="stop4186" />
    </linearGradient>
    <linearGradient
       inkscape:collect="always"
       id="linearGradient4156">
      <stop
         style="stop-color:#ffffff;stop-opacity:1;"
         offset="0"
         id="stop4158" />
      <stop
         id="stop4164"
         offset="0.16016793"
         style="stop-color:#ffffff;stop-opacity:0.23529412" />
      <stop
         style="stop-color:#ffffff;stop-opacity:0.15686275"
         offset="0.81525481"
         id="stop4166" />
      <stop
         style="stop-color:#ffffff;stop-opacity:0.39215687"
         offset="1"
         id="stop4160" />
    </linearGradient>
    <linearGradient
       inkscape:collect="always"
       xlink:href="#linearGradient4182"
       id="linearGradient4188"
       x1="60.607143"
       y1="1042.3622"
       x2="60.607143"
       y2="1047.2729"
       gradientUnits="userSpaceOnUse" />
    <radialGradient
       inkscape:collect="always"
       xlink:href="#linearGradient4192"
       id="radialGradient4198"
       cx="23.964285"
       cy="1045.3622"
       fx="23.964285"
       fy="1045.3622"
       r="7"
       gradientTransform="matrix(-2.0038265,0,0,-0.35714286,71.984555,1418.3844)"
       gradientUnits="userSpaceOnUse" />
    <radialGradient
       inkscape:collect="always"
       xlink:href="#linearGradient4192"
       id="radialGradient4202"
       gradientUnits="userSpaceOnUse"
       gradientTransform="matrix(-2.0038265,0,0,-0.35714286,-56.015445,1418.3844)"
       cx="23.964285"
       cy="1045.3622"
       fx="23.964285"
       fy="1045.3622"
       r="7" />
    <radialGradient
       inkscape:collect="always"
       xlink:href="#linearGradient4211"
       id="radialGradient4217"
       cx="64"
       cy="1042.3622"
       fx="64"
       fy="1042.3622"
       r="55"
       gradientTransform="matrix(1,0,0,0.10909091,0,928.64994)"
       gradientUnits="userSpaceOnUse" />
    <linearGradient
       id="linearGradient3767">
      <stop
         style="stop-color:#ffffff;stop-opacity:1;"
         offset="0"
         id="stop3769" />
      <stop
         id="stop3777"
         offset="0.08994294"
         style="stop-color:#ffffff;stop-opacity:0.23529412;" />
      <stop
         id="stop3775"
         offset="0.87385589"
         style="stop-color:#ffffff;stop-opacity:0.15686275;" />
      <stop
         style="stop-color:#ffffff;stop-opacity:0.39215687;"
         offset="1"
         id="stop3771" />
    </linearGradient>
    <radialGradient
       inkscape:collect="always"
       xlink:href="#linearGradient4235-7"
       id="radialGradient4191"
       gradientUnits="userSpaceOnUse"
       gradientTransform="matrix(0,2.6213594,-2.1359238,0,2104.5132,-129.74941)"
       cx="58.271065"
       cy="957.20331"
       fx="58.271065"
       fy="957.20331"
       r="51.5" />
    <linearGradient
       inkscape:collect="always"
       xlink:href="#linearGradient4156"
       id="linearGradient4200"
       gradientUnits="userSpaceOnUse"
       x1="58.720966"
       y1="939.5257"
       x2="58.720966"
       y2="1041.7426"
       gradientTransform="translate(0,-924.36216)" />
    <linearGradient
       id="linearGradient4235-7">
      <stop
         offset="0"
         style="stop-color:#f0d214;stop-opacity:1"
         id="stop4237-2" />
      <stop
         offset="1"
         style="stop-color:#f09b0a;stop-opacity:1"
         id="stop4243-9" />
    </linearGradient>
  </defs>
  <sodipodi:namedview
     id="base"
     pagecolor="#ffffff"
     bordercolor="#666666"
     borderopacity="1.0"
     inkscape:pageopacity="0.0"
     inkscape:pageshadow="2"
     inkscape:zoom="3.2976801"
     inkscape:cx="74.996305"
     inkscape:cy="48.266242"
     inkscape:document-units="px"
     inkscape:current-layer="layer1"
     showgrid="true"
     units="px"
     inkscape:window-width="1366"
     inkscape:window-height="713"
     inkscape:window-x="0"
     inkscape:window-y="30"
     inkscape:window-maximized="1">
    <inkscape:grid
       type="xygrid"
       id="grid4317" />
  </sodipodi:namedview>
  <metadata
     id="metadata7">
    <rdf:RDF>
      <cc:Work
         rdf:about="">
        <dc:format>image/svg+xml</dc:format>
        <dc:type
           rdf:resource="http://purl.org/dc/dcmitype/StillImage" />
        <dc:title></dc:title>
      </cc:Work>
    </rdf:RDF>
  </metadata>
  <g
     inkscape:label="Livello 1"
     inkscape:groupmode="layer"
     id="layer1"
     transform="translate(0,-924.36216)">
    <ellipse
       style="opacity:0.2;fill:url(#radialGradient4217);fill-opacity:1;stroke:none;stroke-width:3;stroke-linejoin:round;stroke-miterlimit:4;stroke-dasharray:none;stroke-opacity:1"
       id="path4209"
       cx="64"
       cy="1042.3622"
       rx="55"
       ry="6" />
    <g
       id="g4204"
       style="opacity:0.4"
       transform="translate(0,-2.0000226)">
      <rect
         y="1042.3622"
         x="24"
         height="5"
         width="80"
         id="rect4168"
         style="opacity:1;fill:url(#linearGradient4188);fill-opacity:1;stroke:none;stroke-width:3;stroke-linejoin:round;stroke-miterlimit:4;stroke-dasharray:none;stroke-opacity:1" />
      <rect
         y="1042.3622"
         x="10"
         height="5"
         width="14"
         id="rect4170"
         style="opacity:1;fill:url(#radialGradient4198);fill-opacity:1;stroke:none;stroke-width:3;stroke-linejoin:round;stroke-miterlimit:4;stroke-dasharray:none;stroke-opacity:1" />
      <rect
         transform="scale(-1,1)"
         style="opacity:1;fill:url(#radialGradient4202);fill-opacity:1;stroke:none;stroke-width:3;stroke-linejoin:round;stroke-miterlimit:4;stroke-dasharray:none;stroke-opacity:1"
         id="rect4200"
         width="14"
         height="5"
         x="-118"
         y="1042.3622" />
    </g>
    <path
       style="opacity:1;fill:url(#radialGradient4191);fill-opacity:1.0;stroke:none;stroke-width:3;stroke-linejoin:round;stroke-miterlimit:4;stroke-dasharray:none;stroke-opacity:1"
       d="M 18.5 15.5 C 15.176 15.5 12.5 18.176 12.5 21.5 L 12.5 112.5 C 12.5 115.824 15.176 118.5 18.5 118.5 L 109.5 118.5 C 112.824 118.5 115.5 115.824 115.5 112.5 L 115.5 59 L 72 15.5 L 18.5 15.5 z M 88 15.5 L 115.5 43 L 115.5 21.5 C 115.5 18.176 112.824 15.5 109.5 15.5 L 88 15.5 z "
       transform="translate(0,924.36216)"
       id="rect4185" />
    <path
       style="opacity:0.4;fill:none;fill-opacity:1;stroke:url(#linearGradient4200);stroke-width:1;stroke-linejoin:miter;stroke-miterlimit:4;stroke-dasharray:none;stroke-opacity:1"
       d="M 18.5 16.5 C 15.73 16.5 13.5 18.73 13.5 21.5 L 13.5 112.5 C 13.5 115.27 15.73 117.5 18.5 117.5 L 109.5 117.5 C 112.27 117.5 114.5 115.27 114.5 112.5 L 114.5 59.400391 L 71.599609 16.5 L 18.5 16.5 z M 90.400391 16.5 L 114.5 40.599609 L 114.5 21.5 C 114.5 18.73 112.27 16.5 109.5 16.5 L 90.400391 16.5 z "
       transform="translate(0,924.36216)"
       id="rect4167" />
    <path
       id="path4194"
       transform="translate(0,924.36216)"
       d="M 18.5 15.5 C 15.176 15.5 12.5 18.176 12.5 21.5 L 12.5 112.5 C 12.5 115.824 15.176 118.5 18.5 118.5 L 109.5 118.5 C 112.824 118.5 115.5 115.824 115.5 112.5 L 115.5 59 L 72 15.5 L 18.5 15.5 z M 88 15.5 L 115.5 43 L 115.5 21.5 C 115.5 18.176 112.824 15.5 109.5 15.5 L 88 15.5 z "
       style="opacity:0.52901025;fill:none;fill-opacity:1;stroke:#be6400;stroke-width:1;stroke-linejoin:round;stroke-miterlimit:4;stroke-dasharray:none;stroke-opacity:1" />
    <path
       inkscape:connector-curvature="0"
       style="opacity:0.07;fill:#000000;fill-opacity:1;stroke:#000000;stroke-width:1;stroke-linecap:round;stroke-linejoin:round;stroke-miterlimit:4;stroke-dasharray:none;stroke-opacity:1"
       d="m 40,974.35762 a 6,5.999975 0 0 0 -6,6 6,5.999975 0 0 0 6,5.99995 6,5.999975 0 0 0 3.324218,-1.00782 l 6.234376,4.6757 c -0.18558,0 -0.375292,0.002 -0.558594,0.02 -3.743194,0.277 -7.002318,1.8492 -9.355468,4.34775 -3.693474,3.9214 -5.117334,9.8854 -3.453126,15.969 l -2.191406,0 0,12 12,0 0,-12 -5.605468,0 c -1.849014,-5.2658 -0.693752,-10.1968 2.160156,-13.2268 3.097544,-3.2886 8.182544,-4.6544 14.6875,-1.3438 l 0.757812,0.57 0,8.0002 10.667968,0 13.609376,10.207 A 6,5.999975 0 0 0 82,1016.3578 a 6,5.999975 0 0 0 6,6 6,5.999975 0 0 0 6,-6 6,5.999975 0 0 0 -6,-6 6,5.999975 0 0 0 -3.324218,1.0116 l -4.828126,-3.621 c 3.154452,0.02 6.100886,-0.7852 8.503906,-2.3712 2.956954,-1.9516 5.023668,-5.1408 5.390626,-9.0158 0.286024,-3.0206 -0.433902,-6.39955 -2.265626,-10.00383 l 2.523438,0 0,-11.99995 -12,0 0,11.99995 4.886718,0 c 2.359532,3.83428 3.110678,7.09503 2.871094,9.62503 -0.258042,2.725 -1.566328,4.7103 -3.609374,6.0588 -3.731222,2.4624 -10.151384,2.5036 -16.148438,-1.7111 l 0,-7.97265 -10.675782,0 -13.601562,-10.2032 A 6,5.999975 0 0 0 46,980.35762 a 6,5.999975 0 0 0 -6,-6 z"
       id="path4199" />
    <path
       id="path4197"
       d="m 40,974.35762 a 6,5.999975 0 0 0 -6,6 6,5.999975 0 0 0 6,5.99995 6,5.999975 0 0 0 3.324218,-1.00782 l 6.234376,4.6757 c -0.18558,0 -0.375292,0.002 -0.558594,0.02 -3.743194,0.277 -7.002318,1.8492 -9.355468,4.34775 -3.693474,3.9214 -5.117334,9.8854 -3.453126,15.969 l -2.191406,0 0,12 12,0 0,-12 -5.605468,0 c -1.849014,-5.2658 -0.693752,-10.1968 2.160156,-13.2268 3.097544,-3.2886 8.182544,-4.6544 14.6875,-1.3438 l 0.757812,0.57 0,8.0002 10.667968,0 13.609376,10.207 A 6,5.999975 0 0 0 82,1016.3578 a 6,5.999975 0 0 0 6,6 6,5.999975 0 0 0 6,-6 6,5.999975 0 0 0 -6,-6 6,5.999975 0 0 0 -3.324218,1.0116 l -4.828126,-3.621 c 3.154452,0.02 6.100886,-0.7852 8.503906,-2.3712 2.956954,-1.9516 5.023668,-5.1408 5.390626,-9.0158 0.286024,-3.0206 -0.433902,-6.39955 -2.265626,-10.00383 l 2.523438,0 0,-11.99995 -12,0 0,11.99995 4.886718,0 c 2.359532,3.83428 3.110678,7.09503 2.871094,9.62503 -0.258042,2.725 -1.566328,4.7103 -3.609374,6.0588 -3.731222,2.4624 -10.151384,2.5036 -16.148438,-1.7111 l 0,-7.97265 -10.675782,0 -13.601562,-10.2032 A 6,5.999975 0 0 0 46,980.35762 a 6,5.999975 0 0 0 -6,-6 z"
       style="opacity:0.15000007;fill:#000000;fill-opacity:1;stroke:none;stroke-width:1;stroke-linecap:round;stroke-linejoin:round;stroke-miterlimit:4;stroke-dasharray:none;stroke-opacity:1"
       inkscape:connector-curvature="0" />
    <path
       inkscape:connector-curvature="0"
       style="opacity:1;fill:#ffffff;fill-opacity:1;stroke:none;stroke-width:1;stroke-linecap:round;stroke-linejoin:round;stroke-miterlimit:4;stroke-dasharray:none;stroke-opacity:1"
       d="m 40,973.3577 a 6,6 0 0 0 -6,6 6,6 0 0 0 6,6 6,6 0 0 0 3.324218,-1.00782 l 6.234376,4.6757 c -0.18558,0 -0.375292,0.002 -0.558594,0.02 -3.743194,0.277 -7.002318,1.8492 -9.355468,4.3478 -3.693474,3.9214 -5.117334,9.88522 -3.453126,15.96882 l -2.191406,0 0,12 12,0 0,-12 -5.605468,0 c -1.849014,-5.2658 -0.693752,-10.19662 2.160156,-13.22662 3.097544,-3.2886 8.182544,-4.6544 14.6875,-1.3438 l 0.757812,0.57 0,8.00002 10.667968,0 13.609376,10.207 A 6,6 0 0 0 82,1015.3578 a 6,6 0 0 0 6,6 6,6 0 0 0 6,-6 6,6 0 0 0 -6,-6 6,6 0 0 0 -3.324218,1.0116 l -4.828126,-3.621 c 3.154452,0.02 6.100886,-0.7852 8.503906,-2.3712 2.956954,-1.9516 5.023668,-5.14062 5.390626,-9.01562 0.286024,-3.0206 -0.433902,-6.3996 -2.265626,-10.00388 l 2.523438,0 0,-12 -12,0 0,12 4.886718,0 c 2.359532,3.83428 3.110678,7.09508 2.871094,9.62508 -0.258042,2.725 -1.566328,4.7102 -3.609374,6.05862 C 82.417216,1003.5038 75.997054,1003.545 70,999.33038 l 0,-7.9726 -10.675782,0 -13.601562,-10.2032 A 6,6 0 0 0 46,979.3577 a 6,6 0 0 0 -6,-6 z"
       id="rect4415" />
  </g>
</svg>
