<?xml version="1.0" encoding="UTF-8" standalone="no"?>
<svg
   xmlns:dc="http://purl.org/dc/elements/1.1/"
   xmlns:cc="http://creativecommons.org/ns#"
   xmlns:rdf="http://www.w3.org/1999/02/22-rdf-syntax-ns#"
   xmlns:svg="http://www.w3.org/2000/svg"
   xmlns="http://www.w3.org/2000/svg"
   xmlns:xlink="http://www.w3.org/1999/xlink"
   version="1.1"
   id="svg2"
   viewBox="0 0 128 128"
   height="128"
   width="128">
  <defs
     id="defs4">
    <linearGradient
       id="linearGradient4211">
      <stop
         id="stop4213"
         offset="0"
         style="stop-color:#000000;stop-opacity:1;" />
      <stop
         id="stop4215"
         offset="1"
         style="stop-color:#000000;stop-opacity:0;" />
    </linearGradient>
    <linearGradient
       id="linearGradient4192">
      <stop
         id="stop4194"
         offset="0"
         style="stop-color:#000000;stop-opacity:1;" />
      <stop
         id="stop4196"
         offset="1"
         style="stop-color:#000000;stop-opacity:0;" />
    </linearGradient>
    <linearGradient
       id="linearGradient4182">
      <stop
         id="stop4184"
         offset="0"
         style="stop-color:#000000;stop-opacity:0" />
      <stop
         style="stop-color:#000000;stop-opacity:1"
         offset="0.55453491"
         id="stop4190" />
      <stop
         id="stop4186"
         offset="1"
         style="stop-color:#000000;stop-opacity:0;" />
    </linearGradient>
    <linearGradient
       id="linearGradient4156">
      <stop
         id="stop4158"
         offset="0"
         style="stop-color:#ffffff;stop-opacity:1;" />
      <stop
         style="stop-color:#ffffff;stop-opacity:0.23529412"
         offset="0.16016793"
         id="stop4164" />
      <stop
         id="stop4166"
         offset="0.81525481"
         style="stop-color:#ffffff;stop-opacity:0.15686275" />
      <stop
         id="stop4160"
         offset="1"
         style="stop-color:#ffffff;stop-opacity:0.39215687" />
    </linearGradient>
    <radialGradient
       gradientTransform="matrix(-2.8747657e-8,2.1766394,-1.9542335,-2.5810263e-8,1932.6141,826.5554)"
       gradientUnits="userSpaceOnUse"
       r="51.5"
       fy="956.00507"
       fx="61.429489"
       cy="956.00507"
       cx="61.429489"
       id="radialGradient4149"
       xlink:href="#linearGradient4235" />
    <linearGradient
       gradientUnits="userSpaceOnUse"
       y2="1047.2729"
       x2="60.607143"
       y1="1042.3622"
       x1="60.607143"
       id="linearGradient4188"
       xlink:href="#linearGradient4182" />
    <radialGradient
       gradientUnits="userSpaceOnUse"
       gradientTransform="matrix(-2.0038265,0,0,-0.35714286,71.984555,1418.3844)"
       r="7"
       fy="1045.3622"
       fx="23.964285"
       cy="1045.3622"
       cx="23.964285"
       id="radialGradient4198"
       xlink:href="#linearGradient4192" />
    <radialGradient
       r="7"
       fy="1045.3622"
       fx="23.964285"
       cy="1045.3622"
       cx="23.964285"
       gradientTransform="matrix(-2.0038265,0,0,-0.35714286,-56.015445,1418.3844)"
       gradientUnits="userSpaceOnUse"
       id="radialGradient4202"
       xlink:href="#linearGradient4192" />
    <radialGradient
       gradientUnits="userSpaceOnUse"
       gradientTransform="matrix(1,0,0,0.10909091,0,928.64994)"
       r="55"
       fy="1042.3622"
       fx="64"
       cy="1042.3622"
       cx="64"
       id="radialGradient4217"
       xlink:href="#linearGradient4211" />
    <linearGradient
       gradientUnits="userSpaceOnUse"
       y2="1041.7426"
       x2="58.720966"
       y1="939.5257"
       x1="58.720966"
       id="linearGradient4177"
       xlink:href="#linearGradient4156" />
    <linearGradient
       id="linearGradient3767">
      <stop
         id="stop3769"
         offset="0"
         style="stop-color:#ffffff;stop-opacity:1;" />
      <stop
         style="stop-color:#ffffff;stop-opacity:0.23529412;"
         offset="0.13333303"
         id="stop3777" />
      <stop
         style="stop-color:#ffffff;stop-opacity:0.15686275;"
         offset="0.87385589"
         id="stop3775" />
      <stop
         id="stop3771"
         offset="1"
         style="stop-color:#ffffff;stop-opacity:0.39215687;" />
    </linearGradient>
    <linearGradient
       id="linearGradient4235">
      <stop
         style="stop-color:#ffcd7d;stop-opacity:1"
         offset="0"
         id="stop4237" />
      <stop
         style="stop-color:#e69141;stop-opacity:1"
         offset="1"
         id="stop4239" />
    </linearGradient>
    <radialGradient
       gradientTransform="matrix(-1.1079293e-6,4.5289345,-3.5889654,-8.7798121e-7,3670.4588,812.51283)"
       gradientUnits="userSpaceOnUse"
       r="21.5"
       fy="1004.3622"
       fx="33"
       cy="1004.3622"
       cx="33"
       id="radialGradient4281"
       xlink:href="#linearGradient4275" />
    <linearGradient
       id="linearGradient4275">
      <stop
         id="stop4277"
         offset="0"
         style="stop-color:#285555;stop-opacity:1" />
      <stop
         id="stop4279"
         offset="1"
         style="stop-color:#001e1e;stop-opacity:1" />
    </linearGradient>
    <linearGradient
       gradientUnits="userSpaceOnUse"
       y2="1027.3622"
       x2="60"
       y1="952.36218"
       x1="60"
       id="linearGradient4298"
       xlink:href="#linearGradient3767" />
    <linearGradient
       gradientUnits="userSpaceOnUse"
       y2="1032.3622"
       x2="64"
       y1="950.86218"
       x1="64"
       id="linearGradient4199"
       xlink:href="#linearGradient4156" />
  </defs>
  <metadata
     id="metadata7">
    <rdf:RDF>
      <cc:Work
         rdf:about="">
        <dc:format>image/svg+xml</dc:format>
        <dc:type
           rdf:resource="http://purl.org/dc/dcmitype/StillImage" />
        <dc:title />
      </cc:Work>
    </rdf:RDF>
  </metadata>
  <g
     transform="translate(0,-924.36216)"
     id="layer1">
    <ellipse
       ry="6"
       rx="55"
       cy="1042.3622"
       cx="64"
       id="path4209"
       style="opacity:0.2;fill:url(#radialGradient4217);fill-opacity:1;stroke:none;stroke-width:3;stroke-linejoin:round;stroke-miterlimit:4;stroke-dasharray:none;stroke-opacity:1" />
    <g
       transform="translate(0,-2.0000226)"
       style="opacity:0.4"
       id="g4204">
      <rect
         style="opacity:1;fill:url(#linearGradient4188);fill-opacity:1;stroke:none;stroke-width:3;stroke-linejoin:round;stroke-miterlimit:4;stroke-dasharray:none;stroke-opacity:1"
         id="rect4168"
         width="80"
         height="5"
         x="24"
         y="1042.3622" />
      <rect
         style="opacity:1;fill:url(#radialGradient4198);fill-opacity:1;stroke:none;stroke-width:3;stroke-linejoin:round;stroke-miterlimit:4;stroke-dasharray:none;stroke-opacity:1"
         id="rect4170"
         width="14"
         height="5"
         x="10"
         y="1042.3622" />
      <rect
         y="1042.3622"
         x="-118"
         height="5"
         width="14"
         id="rect4200"
         style="opacity:1;fill:url(#radialGradient4202);fill-opacity:1;stroke:none;stroke-width:3;stroke-linejoin:round;stroke-miterlimit:4;stroke-dasharray:none;stroke-opacity:1"
         transform="scale(-1,1)" />
    </g>
    <rect
       ry="2"
       rx="2"
       y="939.86218"
       x="12.5"
       height="103"
       width="103"
       id="rect4140"
       style="opacity:1;fill:url(#radialGradient4149);fill-opacity:1;stroke:none;stroke-width:3;stroke-linejoin:round;stroke-miterlimit:4;stroke-dasharray:none;stroke-opacity:1" />
    <g
       id="g4308">
      <path
         style="fill:none;fill-rule:evenodd;stroke:#be6414;stroke-width:1px;stroke-linecap:butt;stroke-linejoin:miter;stroke-opacity:1;opacity:0.35"
         d="m 25,952.36216 -12,-12"
         id="path4300" />
      <path
         style="fill:none;fill-rule:evenodd;stroke:#be6414;stroke-width:1px;stroke-linecap:butt;stroke-linejoin:miter;stroke-opacity:1;opacity:0.35"
         d="m 103,952.36216 12,-12"
         id="path4302" />
      <path
         style="fill:none;fill-rule:evenodd;stroke:#be6414;stroke-width:1px;stroke-linecap:butt;stroke-linejoin:miter;stroke-opacity:1;opacity:0.35"
         d="m 103,1030.3622 12,12"
         id="path4304" />
      <path
         style="fill:none;fill-rule:evenodd;stroke:#be6414;stroke-width:1px;stroke-linecap:butt;stroke-linejoin:miter;stroke-opacity:1;opacity:0.35"
         d="m 25,1030.3622 -12,12"
         id="path4306" />
    </g>
    <rect
       style="opacity:0.60000001;fill:none;fill-opacity:1;stroke:#be6414;stroke-width:1;stroke-linejoin:round;stroke-miterlimit:4;stroke-dasharray:none;stroke-opacity:1"
       id="rect4165"
       width="103"
       height="103"
       x="12.5"
       y="939.86218"
       rx="2"
       ry="2" />
    <rect
       style="opacity:0.4;fill:none;fill-opacity:1;stroke:url(#linearGradient4177);stroke-width:1;stroke-linejoin:round;stroke-miterlimit:4;stroke-dasharray:none;stroke-opacity:1"
       id="rect4167"
       width="101"
       height="101"
       x="13.5"
       y="940.86218"
       rx="1"
       ry="1" />
    <rect
       style="fill:url(#radialGradient4281);fill-opacity:1;stroke:none;stroke-linejoin:round"
       id="rect4269"
       width="79.000008"
       height="79.000008"
       x="24.499996"
       y="951.86218" />
    <path
       id="rect4314"
       transform="translate(0,924.36216)"
       d="M 31 29 L 31 34 L 26 34 L 26 35 L 31 35 L 31 40 L 26 40 L 26 41 L 31 41 L 31 46 L 26 46 L 26 47 L 31 47 L 31 52 L 26 52 L 26 53 L 31 53 L 31 58 L 26 58 L 26 59 L 31 59 L 31 64 L 26 64 L 26 65 L 31 65 L 31 70 L 26 70 L 26 71 L 31 71 L 31 76 L 26 76 L 26 77 L 31 77 L 31 82 L 26 82 L 26 83 L 31 83 L 31 88 L 26 88 L 26 89 L 31 89 L 31 94 L 26 94 L 26 95 L 31 95 L 31 100 L 26 100 L 26 101 L 31 101 L 31 105 L 32 105 L 32 101 L 37 101 L 37 105 L 38 105 L 38 101 L 43 101 L 43 105 L 44 105 L 44 101 L 49 101 L 49 105 L 50 105 L 50 101 L 55 101 L 55 105 L 56 105 L 56 101 L 61 101 L 61 105 L 62 105 L 62 101 L 67 101 L 67 105 L 68 105 L 68 101 L 73 101 L 73 105 L 74 105 L 74 101 L 79 101 L 79 105 L 80 105 L 80 101 L 85 101 L 85 105 L 86 105 L 86 101 L 91 101 L 91 105 L 92 105 L 92 101 L 97 101 L 97 105 L 98 105 L 98 101 L 102 101 L 102 100 L 98 100 L 98 95 L 102 95 L 102 94 L 98 94 L 98 89 L 102 89 L 102 88 L 98 88 L 98 83 L 102 83 L 102 82 L 98 82 L 98 77 L 102 77 L 102 76 L 98 76 L 98 71 L 102 71 L 102 70 L 98 70 L 98 65 L 102 65 L 102 64 L 98 64 L 98 59 L 102 59 L 102 58 L 98 58 L 98 53 L 102 53 L 102 52 L 98 52 L 98 47 L 102 47 L 102 46 L 98 46 L 98 41 L 102 41 L 102 40 L 98 40 L 98 35 L 102 35 L 102 34 L 98 34 L 98 29 L 97 29 L 97 34 L 92 34 L 92 29 L 91 29 L 91 34 L 86 34 L 86 29 L 85 29 L 85 34 L 80 34 L 80 29 L 79 29 L 79 34 L 74 34 L 74 29 L 73 29 L 73 34 L 68 34 L 68 29 L 67 29 L 67 34 L 62 34 L 62 29 L 61 29 L 61 34 L 56 34 L 56 29 L 55 29 L 55 34 L 50 34 L 50 29 L 49 29 L 49 34 L 44 34 L 44 29 L 43 29 L 43 34 L 38 34 L 38 29 L 37 29 L 37 34 L 32 34 L 32 29 L 31 29 z M 32 35 L 37 35 L 37 40 L 32 40 L 32 35 z M 38 35 L 43 35 L 43 40 L 38 40 L 38 35 z M 44 35 L 49 35 L 49 40 L 44 40 L 44 35 z M 50 35 L 55 35 L 55 40 L 50 40 L 50 35 z M 56 35 L 61 35 L 61 40 L 56 40 L 56 35 z M 62 35 L 67 35 L 67 40 L 62 40 L 62 35 z M 68 35 L 73 35 L 73 40 L 68 40 L 68 35 z M 74 35 L 79 35 L 79 40 L 74 40 L 74 35 z M 80 35 L 85 35 L 85 40 L 80 40 L 80 35 z M 86 35 L 91 35 L 91 40 L 86 40 L 86 35 z M 92 35 L 97 35 L 97 40 L 92 40 L 92 35 z M 32 41 L 37 41 L 37 46 L 32 46 L 32 41 z M 38 41 L 43 41 L 43 46 L 38 46 L 38 41 z M 44 41 L 49 41 L 49 46 L 44 46 L 44 41 z M 50 41 L 55 41 L 55 46 L 50 46 L 50 41 z M 56 41 L 61 41 L 61 46 L 56 46 L 56 41 z M 62 41 L 67 41 L 67 46 L 62 46 L 62 41 z M 68 41 L 73 41 L 73 46 L 68 46 L 68 41 z M 74 41 L 79 41 L 79 46 L 74 46 L 74 41 z M 80 41 L 85 41 L 85 46 L 80 46 L 80 41 z M 86 41 L 91 41 L 91 46 L 86 46 L 86 41 z M 92 41 L 97 41 L 97 46 L 92 46 L 92 41 z M 32 47 L 37 47 L 37 52 L 32 52 L 32 47 z M 38 47 L 43 47 L 43 52 L 38 52 L 38 47 z M 44 47 L 49 47 L 49 52 L 44 52 L 44 47 z M 50 47 L 55 47 L 55 52 L 50 52 L 50 47 z M 56 47 L 61 47 L 61 52 L 56 52 L 56 47 z M 62 47 L 67 47 L 67 52 L 62 52 L 62 47 z M 68 47 L 73 47 L 73 52 L 68 52 L 68 47 z M 74 47 L 79 47 L 79 52 L 74 52 L 74 47 z M 80 47 L 85 47 L 85 52 L 80 52 L 80 47 z M 86 47 L 91 47 L 91 52 L 86 52 L 86 47 z M 92 47 L 97 47 L 97 52 L 92 52 L 92 47 z M 32 53 L 37 53 L 37 58 L 32 58 L 32 53 z M 38 53 L 43 53 L 43 58 L 38 58 L 38 53 z M 44 53 L 49 53 L 49 58 L 44 58 L 44 53 z M 50 53 L 55 53 L 55 58 L 50 58 L 50 53 z M 56 53 L 61 53 L 61 58 L 56 58 L 56 53 z M 62 53 L 67 53 L 67 58 L 62 58 L 62 53 z M 68 53 L 73 53 L 73 58 L 68 58 L 68 53 z M 74 53 L 79 53 L 79 58 L 74 58 L 74 53 z M 80 53 L 85 53 L 85 58 L 80 58 L 80 53 z M 86 53 L 91 53 L 91 58 L 86 58 L 86 53 z M 92 53 L 97 53 L 97 58 L 92 58 L 92 53 z M 32 59 L 37 59 L 37 64 L 32 64 L 32 59 z M 38 59 L 43 59 L 43 64 L 38 64 L 38 59 z M 44 59 L 49 59 L 49 64 L 44 64 L 44 59 z M 50 59 L 55 59 L 55 64 L 50 64 L 50 59 z M 56 59 L 61 59 L 61 64 L 56 64 L 56 59 z M 62 59 L 67 59 L 67 64 L 62 64 L 62 59 z M 68 59 L 73 59 L 73 64 L 68 64 L 68 59 z M 74 59 L 79 59 L 79 64 L 74 64 L 74 59 z M 80 59 L 85 59 L 85 64 L 80 64 L 80 59 z M 86 59 L 91 59 L 91 64 L 86 64 L 86 59 z M 92 59 L 97 59 L 97 64 L 92 64 L 92 59 z M 32 65 L 37 65 L 37 70 L 32 70 L 32 65 z M 38 65 L 43 65 L 43 70 L 38 70 L 38 65 z M 44 65 L 49 65 L 49 70 L 44 70 L 44 65 z M 50 65 L 55 65 L 55 70 L 50 70 L 50 65 z M 56 65 L 61 65 L 61 70 L 56 70 L 56 65 z M 62 65 L 67 65 L 67 70 L 62 70 L 62 65 z M 68 65 L 73 65 L 73 70 L 68 70 L 68 65 z M 74 65 L 79 65 L 79 70 L 74 70 L 74 65 z M 80 65 L 85 65 L 85 70 L 80 70 L 80 65 z M 86 65 L 91 65 L 91 70 L 86 70 L 86 65 z M 92 65 L 97 65 L 97 70 L 92 70 L 92 65 z M 32 71 L 37 71 L 37 76 L 32 76 L 32 71 z M 38 71 L 43 71 L 43 76 L 38 76 L 38 71 z M 44 71 L 49 71 L 49 76 L 44 76 L 44 71 z M 50 71 L 55 71 L 55 76 L 50 76 L 50 71 z M 56 71 L 61 71 L 61 76 L 56 76 L 56 71 z M 62 71 L 67 71 L 67 76 L 62 76 L 62 71 z M 68 71 L 73 71 L 73 76 L 68 76 L 68 71 z M 74 71 L 79 71 L 79 76 L 74 76 L 74 71 z M 80 71 L 85 71 L 85 76 L 80 76 L 80 71 z M 86 71 L 91 71 L 91 76 L 86 76 L 86 71 z M 92 71 L 97 71 L 97 76 L 92 76 L 92 71 z M 32 77 L 37 77 L 37 82 L 32 82 L 32 77 z M 38 77 L 43 77 L 43 82 L 38 82 L 38 77 z M 44 77 L 49 77 L 49 82 L 44 82 L 44 77 z M 50 77 L 55 77 L 55 82 L 50 82 L 50 77 z M 56 77 L 61 77 L 61 82 L 56 82 L 56 77 z M 62 77 L 67 77 L 67 82 L 62 82 L 62 77 z M 68 77 L 73 77 L 73 82 L 68 82 L 68 77 z M 74 77 L 79 77 L 79 82 L 74 82 L 74 77 z M 80 77 L 85 77 L 85 82 L 80 82 L 80 77 z M 86 77 L 91 77 L 91 82 L 86 82 L 86 77 z M 92 77 L 97 77 L 97 82 L 92 82 L 92 77 z M 32 83 L 37 83 L 37 88 L 32 88 L 32 83 z M 38 83 L 43 83 L 43 88 L 38 88 L 38 83 z M 44 83 L 49 83 L 49 88 L 44 88 L 44 83 z M 50 83 L 55 83 L 55 88 L 50 88 L 50 83 z M 56 83 L 61 83 L 61 88 L 56 88 L 56 83 z M 62 83 L 67 83 L 67 88 L 62 88 L 62 83 z M 68 83 L 73 83 L 73 88 L 68 88 L 68 83 z M 74 83 L 79 83 L 79 88 L 74 88 L 74 83 z M 80 83 L 85 83 L 85 88 L 80 88 L 80 83 z M 86 83 L 91 83 L 91 88 L 86 88 L 86 83 z M 92 83 L 97 83 L 97 88 L 92 88 L 92 83 z M 32 89 L 37 89 L 37 94 L 32 94 L 32 89 z M 38 89 L 43 89 L 43 94 L 38 94 L 38 89 z M 44 89 L 49 89 L 49 94 L 44 94 L 44 89 z M 50 89 L 55 89 L 55 94 L 50 94 L 50 89 z M 56 89 L 61 89 L 61 94 L 56 94 L 56 89 z M 62 89 L 67 89 L 67 94 L 62 94 L 62 89 z M 68 89 L 73 89 L 73 94 L 68 94 L 68 89 z M 74 89 L 79 89 L 79 94 L 74 94 L 74 89 z M 80 89 L 85 89 L 85 94 L 80 94 L 80 89 z M 86 89 L 91 89 L 91 94 L 86 94 L 86 89 z M 92 89 L 97 89 L 97 94 L 92 94 L 92 89 z M 32 95 L 37 95 L 37 100 L 32 100 L 32 95 z M 38 95 L 43 95 L 43 100 L 38 100 L 38 95 z M 44 95 L 49 95 L 49 100 L 44 100 L 44 95 z M 50 95 L 55 95 L 55 100 L 50 100 L 50 95 z M 56 95 L 61 95 L 61 100 L 56 100 L 56 95 z M 62 95 L 67 95 L 67 100 L 62 100 L 62 95 z M 68 95 L 73 95 L 73 100 L 68 100 L 68 95 z M 74 95 L 79 95 L 79 100 L 74 100 L 74 95 z M 80 95 L 85 95 L 85 100 L 80 100 L 80 95 z M 86 95 L 91 95 L 91 100 L 86 100 L 86 95 z M 92 95 L 97 95 L 97 100 L 92 100 L 92 95 z "
       style="opacity:0.05000001;fill:#ffffff;fill-opacity:1;stroke:none;stroke-width:1;stroke-linecap:butt;stroke-linejoin:round;stroke-miterlimit:4;stroke-dasharray:none;stroke-opacity:1" />
    <rect
       y="951.86218"
       x="24.499996"
       height="79.000008"
       width="79.000008"
       id="rect4286"
       style="fill:none;fill-opacity:1;stroke:#000000;stroke-linejoin:round;stroke-opacity:1;opacity:0.5" />
    <rect
       y="952.86218"
       x="25.5"
       height="77"
       width="77"
       id="rect4288"
       style="fill:none;fill-opacity:1;stroke:url(#linearGradient4298);stroke-linejoin:round;opacity:0.15" />
    <rect
       y="950.86218"
       x="23.5"
       height="81"
       width="81"
       id="rect4188"
       style="fill:none;fill-opacity:1;stroke:url(#linearGradient4199);stroke-linejoin:round;opacity:0.30000017" />
    <path
       id="path4198"
       d="m 40,968.36209 0,7.99995 9.999998,0 0,40.00016 8.000001,0 0,-40.00016 12.000006,0 2e-6,32.00016 0.0078,0 c -0.0028,1.4034 0.363602,2.783 1.0625,4 1.429328,2.4756 4.071033,4.0006 6.929689,4 l 6.000001,0 0,-8 -6.000001,0 -2e-6,-32.00016 10.000006,0 0,-7.99995 z"
       style="opacity:0.07;fill:#000000;fill-opacity:1;stroke:#000000;stroke-width:1;stroke-linecap:butt;stroke-linejoin:round;stroke-miterlimit:4;stroke-dasharray:none;stroke-opacity:1" />
    <path
       style="opacity:0.15000012;fill:#000000;fill-opacity:1;stroke:none;stroke-width:1;stroke-linecap:butt;stroke-linejoin:round;stroke-miterlimit:4;stroke-dasharray:none;stroke-opacity:1"
       d="m 40,968.36209 0,7.99995 9.999998,0 0,40.00016 8.000001,0 0,-40.00016 12.000006,0 2e-6,32.00016 0.0078,0 c -0.0028,1.4034 0.363602,2.783 1.0625,4 1.429328,2.4756 4.071033,4.0006 6.929689,4 l 6.000001,0 0,-8 -6.000001,0 -2e-6,-32.00016 10.000006,0 0,-7.99995 z"
       id="path4196" />
    <path
       id="rect4480"
       d="m 40,967.36213 0,8 9.999998,0 0,40.00007 8.000001,0 0,-40.00007 12.000006,0 2e-6,32.00007 0.0078,0 c -0.0028,1.4034 0.363602,2.783 1.0625,4 1.429328,2.4756 4.071033,4.0006 6.929689,4 l 6.000001,0 0,-8 -6.000001,0 -2e-6,-32.00007 10.000006,0 0,-8 z"
       style="opacity:1;fill:#ffffff;fill-opacity:1;stroke:none;stroke-width:1;stroke-linecap:butt;stroke-linejoin:round;stroke-miterlimit:4;stroke-dasharray:none;stroke-opacity:1" />
  </g>
</svg>
