<?xml version="1.0" encoding="UTF-8" standalone="no"?>
<!-- Created with Inkscape (http://www.inkscape.org/) -->

<svg
   xmlns:dc="http://purl.org/dc/elements/1.1/"
   xmlns:cc="http://creativecommons.org/ns#"
   xmlns:rdf="http://www.w3.org/1999/02/22-rdf-syntax-ns#"
   xmlns:svg="http://www.w3.org/2000/svg"
   xmlns="http://www.w3.org/2000/svg"
   xmlns:xlink="http://www.w3.org/1999/xlink"
   xmlns:sodipodi="http://sodipodi.sourceforge.net/DTD/sodipodi-0.dtd"
   xmlns:inkscape="http://www.inkscape.org/namespaces/inkscape"
   width="128"
   height="128"
   viewBox="0 0 128 128"
   id="svg2"
   version="1.1"
   inkscape:version="0.91 r"
   sodipodi:docname="seahorse128.svg">
  <defs
     id="defs4">
    <linearGradient
       inkscape:collect="always"
       id="linearGradient4181">
      <stop
         style="stop-color:#000000;stop-opacity:1;"
         offset="0"
         id="stop4183" />
      <stop
         style="stop-color:#000000;stop-opacity:0;"
         offset="1"
         id="stop4185" />
    </linearGradient>
    <linearGradient
       inkscape:collect="always"
       id="linearGradient4167">
      <stop
         style="stop-color:#ffffff;stop-opacity:1;"
         offset="0"
         id="stop4169" />
      <stop
         id="stop4175"
         offset="0.17059492"
         style="stop-color:#ffffff;stop-opacity:0.23529412" />
      <stop
         style="stop-color:#ffffff;stop-opacity:0.15686275"
         offset="0.82508612"
         id="stop4177" />
      <stop
         style="stop-color:#ffffff;stop-opacity:0.39215687"
         offset="1"
         id="stop4171" />
    </linearGradient>
    <linearGradient
       inkscape:collect="always"
       id="linearGradient4154">
      <stop
         style="stop-color:#fafafa;stop-opacity:1"
         offset="0"
         id="stop4156" />
      <stop
         style="stop-color:#b4b4b4;stop-opacity:1"
         offset="1"
         id="stop4158" />
    </linearGradient>
    <linearGradient
       inkscape:collect="always"
       xlink:href="#linearGradient4167"
       id="linearGradient4173"
       x1="65.059418"
       y1="938.85394"
       x2="65.059418"
       y2="1042.0807"
       gradientUnits="userSpaceOnUse" />
    <radialGradient
       inkscape:collect="always"
       xlink:href="#linearGradient4181"
       id="radialGradient4187"
       cx="64"
       cy="1032.8622"
       fx="64"
       fy="1032.8622"
       r="43"
       gradientTransform="matrix(1,0,0,0.31395349,0,708.5915)"
       gradientUnits="userSpaceOnUse" />
    <linearGradient
       id="linearGradient4644-104-3-3-6-2-3-4">
      <stop
         offset="0"
         style="stop-color:#ff4035;stop-opacity:1;"
         id="stop5237-6-5-1-7-5-2" />
      <stop
         offset="1"
         style="stop-color:#dc311a;stop-opacity:1;"
         id="stop5239-4-6-4-8-4-8" />
    </linearGradient>
    <linearGradient
       inkscape:collect="always"
       xlink:href="#linearGradient4154"
       id="linearGradient4155"
       x1="63.428707"
       y1="940.30493"
       x2="63.428707"
       y2="1041.7909"
       gradientUnits="userSpaceOnUse" />
    <linearGradient
       gradientTransform="matrix(1.7619048,0,0,1.7619048,7.6190498,-807.41882)"
       inkscape:collect="always"
       xlink:href="#linearGradient4163"
       id="linearGradient4169"
       x1="32.59201"
       y1="999.40149"
       x2="32.59201"
       y2="1041.4491"
       gradientUnits="userSpaceOnUse" />
    <linearGradient
       inkscape:collect="always"
       id="linearGradient4163">
      <stop
         style="stop-color:#c3c3c3;stop-opacity:1"
         offset="0"
         id="stop4165" />
      <stop
         style="stop-color:#ebebeb;stop-opacity:1"
         offset="1"
         id="stop4167" />
    </linearGradient>
    <linearGradient
       inkscape:collect="always"
       xlink:href="#linearGradient3767"
       id="linearGradient4173-6"
       gradientUnits="userSpaceOnUse"
       x1="21.50329"
       y1="1041.5868"
       x2="21.50329"
       y2="999.50482"
       gradientTransform="matrix(1.8095237,0,0,1.8095237,6.095237,-856.00745)" />
    <linearGradient
       id="linearGradient3767">
      <stop
         style="stop-color:#ffffff;stop-opacity:1;"
         offset="0"
         id="stop3769" />
      <stop
         id="stop3777"
         offset="0.49956113"
         style="stop-color:#ffffff;stop-opacity:0.23529412;" />
      <stop
         id="stop3775"
         offset="0.87385589"
         style="stop-color:#ffffff;stop-opacity:0.15686275;" />
      <stop
         style="stop-color:#ffffff;stop-opacity:0.39215687;"
         offset="1"
         id="stop3771" />
    </linearGradient>
    <linearGradient
       inkscape:collect="always"
       xlink:href="#linearGradient4167"
       id="linearGradient4276"
       x1="55"
       y1="91"
       x2="55"
       y2="41"
       gradientUnits="userSpaceOnUse" />
    <linearGradient
       inkscape:collect="always"
       xlink:href="#linearGradient3881"
       id="linearGradient3198"
       gradientUnits="userSpaceOnUse"
       gradientTransform="matrix(2.666446,0,0,2.7272276,0.004636,924.90852)"
       x1="24"
       y1="14"
       x2="24"
       y2="33" />
    <linearGradient
       id="linearGradient3881">
      <stop
         id="stop3883"
         offset="0"
         style="stop-color:#2d2d2d;stop-opacity:1" />
      <stop
         id="stop3885"
         offset="1"
         style="stop-color:#3f3f3f;stop-opacity:1" />
    </linearGradient>
  </defs>
  <sodipodi:namedview
     id="base"
     pagecolor="#ffffff"
     bordercolor="#666666"
     borderopacity="1.0"
     inkscape:pageopacity="0.0"
     inkscape:pageshadow="2"
     inkscape:zoom="4"
     inkscape:cx="57.57086"
     inkscape:cy="49.215294"
     inkscape:document-units="px"
     inkscape:current-layer="layer1"
     showgrid="true"
     units="px"
     inkscape:window-width="1366"
     inkscape:window-height="713"
     inkscape:window-x="0"
     inkscape:window-y="30"
     inkscape:window-maximized="1">
    <inkscape:grid
       type="xygrid"
       id="grid4239" />
  </sodipodi:namedview>
  <metadata
     id="metadata7">
    <rdf:RDF>
      <cc:Work
         rdf:about="">
        <dc:format>image/svg+xml</dc:format>
        <dc:type
           rdf:resource="http://purl.org/dc/dcmitype/StillImage" />
        <dc:title></dc:title>
      </cc:Work>
    </rdf:RDF>
  </metadata>
  <g
     inkscape:label="Livello 1"
     inkscape:groupmode="layer"
     id="layer1"
     transform="translate(0,-924.36216)">
    <rect
       style="opacity:0.4;fill:url(#radialGradient4187);fill-opacity:1;stroke:none;stroke-width:3;stroke-linejoin:round;stroke-miterlimit:4;stroke-dasharray:none;stroke-opacity:1"
       id="rect4179"
       width="86"
       height="27"
       x="21"
       y="1019.3622" />
    <circle
       style="opacity:1;fill:url(#linearGradient4155);fill-opacity:1;stroke:none;stroke-width:2.91464257;stroke-linejoin:round;stroke-miterlimit:4;stroke-dasharray:none;stroke-opacity:1"
       id="path4136"
       cx="64"
       cy="990.36218"
       r="52" />
    <path
       style="opacity:0.3;fill:#000000;fill-opacity:1;stroke:none;stroke-width:3;stroke-linejoin:round;stroke-miterlimit:4;stroke-dasharray:none;stroke-opacity:1"
       d="M 63.999999,937.8622 A 52.5,52.5 0 0 0 11.500001,990.36217 52.5,52.5 0 0 0 63.999999,1042.8622 52.5,52.5 0 0 0 116.5,990.36217 52.5,52.5 0 0 0 63.999999,937.8622 Z m 0,1 A 51.500004,51.500004 0 0 1 115.5,990.36217 51.500004,51.500004 0 0 1 63.999999,1041.8622 51.500004,51.500004 0 0 1 12.500001,990.36217 51.500004,51.500004 0 0 1 63.999999,938.8622 Z"
       id="path4149"
       inkscape:connector-curvature="0" />
    <path
       style="opacity:1;fill:url(#linearGradient4173);fill-opacity:1;stroke:none;stroke-width:3;stroke-linejoin:round;stroke-miterlimit:4;stroke-dasharray:none;stroke-opacity:1"
       d="m 64.000002,938.86217 a 51.5,51.5 0 0 0 -51.5,51.5 51.5,51.5 0 0 0 51.5,51.50003 51.5,51.5 0 0 0 51.499998,-51.50003 51.5,51.5 0 0 0 -51.499998,-51.5 z m 0,1 a 50.500004,50.500004 0 0 1 50.499998,50.5 50.500004,50.500004 0 0 1 -50.499998,50.50003 50.500004,50.500004 0 0 1 -50.5,-50.50003 50.500004,50.500004 0 0 1 50.5,-50.5 z"
       id="path4162"
       inkscape:connector-curvature="0" />
    <circle
       r="38"
       cy="990.36218"
       cx="64"
       id="circle4171"
       style="opacity:1;fill:url(#linearGradient4173-6);fill-opacity:1;stroke:none;stroke-width:1;stroke-linecap:butt;stroke-linejoin:round;stroke-miterlimit:4;stroke-dasharray:none;stroke-opacity:1" />
    <circle
       style="opacity:1;fill:url(#linearGradient4169);fill-opacity:1;stroke:none;stroke-width:1;stroke-linecap:butt;stroke-linejoin:round;stroke-miterlimit:4;stroke-dasharray:none;stroke-opacity:1"
       id="path4161"
       cx="64"
       cy="990.36218"
       r="37" />
    <circle
       style="opacity:0.1;fill:#000000;fill-opacity:1;stroke:none;stroke-width:1;stroke-linecap:butt;stroke-linejoin:round;stroke-miterlimit:4;stroke-dasharray:none;stroke-opacity:1"
       id="path4191"
       cx="64"
       cy="990.36218"
       r="24" />
    <path
       style="opacity:0.5;fill:url(#linearGradient4276);fill-opacity:1;stroke:none;stroke-width:1;stroke-linecap:butt;stroke-linejoin:round;stroke-miterlimit:4;stroke-dasharray:none;stroke-opacity:1"
       d="M 64 41 A 25 25 0 0 0 39 66 A 25 25 0 0 0 64 91 A 25 25 0 0 0 89 66 A 25 25 0 0 0 64 41 z M 64 42 A 24 24 0 0 1 88 66 A 24 24 0 0 1 64 90 A 24 24 0 0 1 40 66 A 24 24 0 0 1 64 42 z "
       id="circle4265"
       transform="translate(0,924.36216)" />
    <path
       style="opacity:0.1;fill:#000000;fill-opacity:1;stroke:none;stroke-width:1;stroke-linecap:butt;stroke-linejoin:round;stroke-miterlimit:4;stroke-dasharray:none;stroke-opacity:1"
       d="M 64 42 A 24 24 0 0 0 40 66 A 24 24 0 0 0 64 90 A 24 24 0 0 0 88 66 A 24 24 0 0 0 64 42 z M 64 43 A 23 23 0 0 1 87 66 A 23 23 0 0 1 64 89 A 23 23 0 0 1 41 66 A 23 23 0 0 1 64 43 z "
       transform="translate(0,924.36216)"
       id="circle4278" />
    <path
       sodipodi:nodetypes="ccccccccccc"
       inkscape:connector-curvature="0"
       id="path4297"
       d="m 56.99992,960.36208 14.000166,0 0,32.99989 -6.000171,5.99985 6.000171,6.00018 0,17.0002 -14.000166,0 0,-33.00017 6.000161,-5.99985 -6.000161,-5.9999 z"
       style="fill:#ffffff;fill-opacity:1;stroke:none;opacity:0.5" />
    <path
       style="fill:url(#linearGradient3198);fill-opacity:1;stroke:none"
       d="m 56.99992,959.36216 14.000166,0 0,32.99999 -6.000171,5.9999 6.000171,5.99995 0,17.0002 -14.000166,0 0,-32.99999 6.000161,-5.9999 -6.000161,-5.9999 z"
       id="rect3030"
       inkscape:connector-curvature="0"
       sodipodi:nodetypes="ccccccccccc" />
    <path
       sodipodi:nodetypes="ccccccccccc"
       inkscape:connector-curvature="0"
       id="path4301"
       d="m 57.49992,959.86216 13.000166,0 0,32.3 -6.200086,6.19989 6.200086,6.20015 0,16.3 -13.000166,0 0,-32.30004 6.20008,-6.19985 -6.20008,-6.20015 z"
       style="opacity:0.3;fill:none;fill-opacity:1;stroke:#000000;stroke-opacity:1" />
  </g>
</svg>
