<?xml version="1.0" encoding="UTF-8" standalone="no"?>
<!-- Created with Inkscape (http://www.inkscape.org/) -->

<svg
   xmlns:dc="http://purl.org/dc/elements/1.1/"
   xmlns:cc="http://creativecommons.org/ns#"
   xmlns:rdf="http://www.w3.org/1999/02/22-rdf-syntax-ns#"
   xmlns:svg="http://www.w3.org/2000/svg"
   xmlns="http://www.w3.org/2000/svg"
   xmlns:xlink="http://www.w3.org/1999/xlink"
   xmlns:sodipodi="http://sodipodi.sourceforge.net/DTD/sodipodi-0.dtd"
   xmlns:inkscape="http://www.inkscape.org/namespaces/inkscape"
   width="128"
   height="128"
   viewBox="0 0 128 128"
   id="svg2"
   version="1.1"
   inkscape:version="0.91 r13725"
   sodipodi:docname="skypeforlinux128.svg">
  <defs
     id="defs4">
    <linearGradient
       inkscape:collect="always"
       id="linearGradient4323">
      <stop
         style="stop-color:#000000;stop-opacity:1;"
         offset="0"
         id="stop4325" />
      <stop
         style="stop-color:#000000;stop-opacity:0;"
         offset="1"
         id="stop4327" />
    </linearGradient>
    <linearGradient
       inkscape:collect="always"
       id="linearGradient4174">
      <stop
         style="stop-color:#ffffff;stop-opacity:1;"
         offset="0"
         id="stop4162" />
      <stop
         id="stop4176"
         offset="0.15164158"
         style="stop-color:#ffffff;stop-opacity:0.23529412" />
      <stop
         style="stop-color:#ffffff;stop-opacity:0.15686275"
         offset="0.86457443"
         id="stop4178" />
      <stop
         style="stop-color:#ffffff;stop-opacity:0.39215687"
         offset="1"
         id="stop4164" />
    </linearGradient>
    <linearGradient
       inkscape:collect="always"
       id="linearGradient4143">
      <stop
         style="stop-color:#1eb4dc;stop-opacity:1"
         offset="0"
         id="stop4145" />
      <stop
         style="stop-color:#0a64dc;stop-opacity:1"
         offset="1"
         id="stop4147" />
    </linearGradient>
    <radialGradient
       inkscape:collect="always"
       xlink:href="#linearGradient4143"
       id="radialGradient4149"
       cx="18.063089"
       cy="1014.6121"
       fx="18.063089"
       fy="1014.6121"
       r="20.5"
       gradientUnits="userSpaceOnUse"
       gradientTransform="matrix(4.2795751e-6,6.1790106,-4.6404747,3.2139871e-6,4773.0438,816.9302)" />
    <radialGradient
       inkscape:collect="always"
       xlink:href="#linearGradient4323"
       id="radialGradient4329"
       cx="24"
       cy="1045.8622"
       fx="24"
       fy="1045.8622"
       r="17"
       gradientTransform="matrix(2.6557729,0,0,0.85922063,0.34698574,135.77592)"
       gradientUnits="userSpaceOnUse" />
    <linearGradient
       id="linearGradient4644-104-3-3-6-2-3-4-1">
      <stop
         offset="0"
         style="stop-color:#ff4035;stop-opacity:1;"
         id="stop5237-6-5-1-7-5-2-4" />
      <stop
         offset="1"
         style="stop-color:#dc311a;stop-opacity:1;"
         id="stop5239-4-6-4-8-4-8-9" />
    </linearGradient>
    <linearGradient
       inkscape:collect="always"
       xlink:href="#linearGradient4174"
       id="linearGradient4190"
       x1="24"
       y1="4"
       x2="24"
       y2="43"
       gradientUnits="userSpaceOnUse"
       gradientTransform="matrix(2.6557728,0,0,2.6557728,0.34698572,924.18771)" />
    <linearGradient
       id="linearGradient3120"
       y2="44.341"
       gradientUnits="userSpaceOnUse"
       x2="71.204002"
       gradientTransform="matrix(-0.96769422,0,0,0.96769422,173.32754,928.30632)"
       y1="6.2375998"
       x1="71.204002">
      <stop
         id="stop4013-8"
         stop-color="#fff"
         offset="0" />
      <stop
         id="stop4015-5"
         stop-color="#fff"
         stop-opacity=".23529"
         offset=".50776" />
      <stop
         id="stop4017-6"
         stop-color="#fff"
         stop-opacity=".15686"
         offset=".83457" />
      <stop
         id="stop4019-1"
         stop-color="#fff"
         stop-opacity=".39216"
         offset="1" />
    </linearGradient>
    <radialGradient
       id="radialGradient3124"
       gradientUnits="userSpaceOnUse"
       cy="8.4497995"
       cx="3.9721999"
       gradientTransform="matrix(0,0.95137966,1.0064416,-2.5896146e-8,30.49188,1001.3775)"
       r="14.099">
      <stop
         id="stop3752-3-2-0"
         stop-color="#d25a5a"
         offset="0" />
      <stop
         id="stop3754-7-2-8"
         stop-color="#df3d3d"
         offset="1" />
    </radialGradient>
  </defs>
  <sodipodi:namedview
     id="base"
     pagecolor="#ffffff"
     bordercolor="#666666"
     borderopacity="1.0"
     inkscape:pageopacity="0.0"
     inkscape:pageshadow="2"
     inkscape:zoom="5.1645992"
     inkscape:cx="16.774487"
     inkscape:cy="33.276664"
     inkscape:document-units="px"
     inkscape:current-layer="layer1"
     showgrid="true"
     units="px"
     inkscape:window-width="1366"
     inkscape:window-height="712"
     inkscape:window-x="0"
     inkscape:window-y="30"
     inkscape:window-maximized="1">
    <inkscape:grid
       type="xygrid"
       id="grid4184" />
  </sodipodi:namedview>
  <metadata
     id="metadata7">
    <rdf:RDF>
      <cc:Work
         rdf:about="">
        <dc:format>image/svg+xml</dc:format>
        <dc:type
           rdf:resource="http://purl.org/dc/dcmitype/StillImage" />
        <dc:title />
      </cc:Work>
    </rdf:RDF>
  </metadata>
  <g
     inkscape:label="Livello 1"
     inkscape:groupmode="layer"
     id="layer1"
     transform="translate(0,-924.3622)">
    <rect
       style="opacity:0.5;fill:url(#radialGradient4329);fill-opacity:1;stroke:none;stroke-width:1;stroke-linejoin:round;stroke-miterlimit:4;stroke-dasharray:none;stroke-opacity:1"
       id="rect4321"
       width="90.29628"
       height="29.213501"
       x="18.937395"
       y="1019.7956" />
    <path
       style="opacity:1;fill:url(#radialGradient4149);fill-opacity:1;stroke:none;stroke-width:1;stroke-linejoin:round;stroke-miterlimit:4;stroke-dasharray:none;stroke-opacity:1"
       d="m 38.855692,933.48296 a 29.213501,29.213501 0 0 0 -29.2135012,29.2135 29.213501,29.213501 0 0 0 3.8280472,14.38371 51.787571,51.787571 0 0 0 -1.172274,10.84615 51.787571,51.787571 0 0 0 51.787571,51.78748 51.787571,51.787571 0 0 0 10.773517,-1.1929 29.213501,29.213501 0 0 0 14.456325,3.8487 29.213501,29.213501 0 0 0 29.213503,-29.2134 29.213501,29.213501 0 0 0 -3.82805,-14.38373 51.787571,51.787571 0 0 0 1.17228,-10.84615 51.787571,51.787571 0 0 0 -51.787575,-51.78758 51.787571,51.787571 0 0 0 -10.773518,1.19302 29.213501,29.213501 0 0 0 -14.456325,-3.8488 z"
       id="path4136"
       inkscape:connector-curvature="0" />
    <path
       id="path4175"
       d="m 38.855692,933.48296 a 29.213501,29.213501 0 0 0 -29.2135012,29.2135 29.213501,29.213501 0 0 0 3.8280472,14.38371 51.787571,51.787571 0 0 0 -1.172274,10.84615 51.787571,51.787571 0 0 0 51.787571,51.78748 51.787571,51.787571 0 0 0 10.773517,-1.1929 29.213501,29.213501 0 0 0 14.456325,3.8487 29.213501,29.213501 0 0 0 29.213503,-29.2134 29.213501,29.213501 0 0 0 -3.82805,-14.38373 51.787571,51.787571 0 0 0 1.17228,-10.84615 51.787571,51.787571 0 0 0 -51.787575,-51.78758 51.787571,51.787571 0 0 0 -10.773518,1.19302 29.213501,29.213501 0 0 0 -14.456325,-3.8488 z"
       style="opacity:0.6;fill:none;fill-opacity:1;stroke:#144696;stroke-width:2.65577292;stroke-linejoin:round;stroke-miterlimit:4;stroke-dasharray:none;stroke-opacity:1"
       inkscape:connector-curvature="0" />
    <path
       style="opacity:0.4;fill:none;fill-opacity:1;stroke:url(#linearGradient4190);stroke-width:2.65577292;stroke-linecap:butt;stroke-linejoin:miter;stroke-miterlimit:4;stroke-dasharray:none;stroke-opacity:1"
       d="m 38.855692,936.13874 a 26.557729,26.557729 0 0 0 -26.557728,26.55772 26.557729,26.557729 0 0 0 4.009594,13.99987 49.131799,49.131799 0 0 0 -1.353822,11.22999 49.131799,49.131799 0 0 0 49.131799,49.13178 49.131799,49.131799 0 0 0 11.240351,-1.3642 26.557729,26.557729 0 0 0 13.989491,4.0199 26.557729,26.557729 0 0 0 26.557733,-26.5576 26.557729,26.557729 0 0 0 -4.0096,-13.99997 49.131799,49.131799 0 0 0 1.35382,-11.22991 49.131799,49.131799 0 0 0 -49.131795,-49.13182 49.131799,49.131799 0 0 0 -11.240352,1.3642 26.557729,26.557729 0 0 0 -13.989491,-4.01996 z"
       id="path4177"
       inkscape:connector-curvature="0" />
    <path
       style="color:#000000;display:inline;overflow:visible;visibility:visible;opacity:0.07000002;fill:#000000;fill-opacity:1;fill-rule:nonzero;stroke:#000000;stroke-width:2.65577292;stroke-linejoin:round;stroke-opacity:1;marker:none;enable-background:accumulate"
       d="m 62.954913,953.40179 c 3.93037,10e-4 4.643452,0.0558 7.051208,0.59754 10.397374,2.31637 17.658637,7.94555 17.948542,13.96487 0.04403,0.91437 -0.06608,1.99554 -0.213684,2.46428 -0.356713,1.13322 -1.544938,2.49403 -2.848973,3.21163 -0.948676,0.52186 -1.353979,0.59701 -3.133867,0.59701 -1.588826,0 -2.180002,-0.10085 -2.848978,-0.44803 -0.470082,-0.24166 -2.188368,-1.82982 -3.774889,-3.50986 -3.213774,-3.40364 -4.46305,-4.24472 -7.763459,-5.15273 -2.265281,-0.62385 -7.047188,-0.63234 -9.187941,-0.0744 -4.221667,1.09949 -6.569508,3.7643 -6.552642,7.46777 0.01087,2.38488 1.292566,4.19453 4.05979,5.5264 2.067729,0.99458 3.274199,1.32469 12.606713,3.51012 4.269351,0.99964 8.596228,2.08904 9.615287,2.46407 7.707107,2.8363 11.79677,7.91739 12.606714,15.5334 0.638987,6.00864 -1.201251,11.66544 -5.056929,15.68284 -3.32551,3.4647 -7.974956,5.6472 -14.173652,6.7207 -2.412355,0.4167 -9.191792,0.6509 -11.752018,0.3736 -9.414604,-1.0187 -16.515455,-4.6348 -20.085269,-10.231 -1.253431,-1.9661 -1.92306,-4.1064 -1.92306,-6.0496 0,-2.5464 0.930598,-4.2629 2.848975,-5.3764 1.018869,-0.5933 1.29172,-0.673 3.13387,-0.673 2.884754,0 3.709486,0.5817 6.83754,4.6302 3.249062,4.2059 5.639914,5.8918 9.472837,6.7214 6.892943,1.4912 13.522892,-0.7941 15.669359,-5.3766 0.503397,-1.0753 0.643529,-1.5084 0.641025,-3.137 -0.0029,-1.6325 -0.145245,-2.0712 -0.641025,-3.06183 -0.646816,-1.29286 -1.927823,-2.55482 -3.347543,-3.2114 -0.519477,-0.23903 -5.391402,-1.63328 -10.826103,-3.06184 -5.434698,-1.42855 -10.678085,-2.85096 -11.609569,-3.21101 -6.652684,-2.57159 -10.222261,-6.38379 -11.538345,-12.0982 -0.625482,-2.71552 -0.636458,-7.02133 0,-9.55865 1.987398,-7.92404 8.112343,-12.84491 18.304659,-14.78656 1.61526,-0.30807 3.170136,-0.44881 6.48142,-0.44802 z"
       id="path4160"
       inkscape:connector-curvature="0" />
    <path
       inkscape:connector-curvature="0"
       id="path4158"
       d="m 62.954913,953.40179 c 3.93037,0.001 4.643452,0.0558 7.051208,0.59754 10.397374,2.31637 17.658637,7.94555 17.948542,13.96487 0.04403,0.91437 -0.06608,1.99554 -0.213684,2.46428 -0.356713,1.13322 -1.544938,2.49403 -2.848973,3.21163 -0.948676,0.52186 -1.353979,0.59701 -3.133867,0.59701 -1.588826,0 -2.180002,-0.10085 -2.848978,-0.44803 -0.470082,-0.24166 -2.188368,-1.82982 -3.774889,-3.50986 -3.213774,-3.40364 -4.46305,-4.24472 -7.763459,-5.15273 -2.265281,-0.62385 -7.047188,-0.63234 -9.187941,-0.0744 -4.221667,1.09949 -6.569508,3.7643 -6.552642,7.46777 0.01087,2.38488 1.292566,4.19453 4.05979,5.5264 2.067729,0.99458 3.274199,1.32469 12.606713,3.51012 4.269351,0.99964 8.596228,2.08904 9.615287,2.46405 7.707107,2.83629 11.79677,7.91738 12.606714,15.53339 0.638987,6.00866 -1.201251,11.66536 -5.056929,15.68286 -3.32551,3.4647 -7.974956,5.6472 -14.173652,6.7206 -2.412355,0.4168 -9.191792,0.651 -11.752018,0.3737 -9.414604,-1.0187 -16.515455,-4.6348 -20.085269,-10.2311 -1.253431,-1.9661 -1.92306,-4.1063 -1.92306,-6.0495 0,-2.5464 0.930598,-4.2629 2.848975,-5.3764 1.018869,-0.5934 1.29172,-0.673 3.13387,-0.673 2.884754,0 3.709486,0.5817 6.83754,4.6301 3.249062,4.206 5.639914,5.8919 9.472837,6.7215 6.892943,1.4911 13.522892,-0.7941 15.669359,-5.3766 0.503397,-1.0753 0.643529,-1.5084 0.641025,-3.137 -0.0029,-1.6325 -0.145245,-2.0713 -0.641025,-3.06184 -0.646816,-1.29287 -1.927823,-2.55482 -3.347543,-3.21141 -0.519477,-0.23903 -5.391402,-1.63327 -10.826103,-3.06183 -5.434698,-1.42856 -10.678085,-2.85096 -11.609569,-3.21102 -6.652684,-2.57159 -10.222261,-6.38378 -11.538345,-12.09817 -0.625482,-2.71552 -0.636458,-7.02133 0,-9.55865 1.987398,-7.92404 8.112343,-12.84491 18.304659,-14.78656 1.61526,-0.30807 3.170136,-0.44881 6.48142,-0.44802 z"
       style="color:#000000;display:inline;overflow:visible;visibility:visible;opacity:0.15;fill:#000000;fill-opacity:1;fill-rule:nonzero;stroke:none;stroke-width:1;marker:none;enable-background:accumulate" />
    <path
       style="color:#000000;display:inline;overflow:visible;visibility:visible;fill:#ffffff;fill-opacity:1;fill-rule:nonzero;stroke:none;stroke-width:1;marker:none;enable-background:accumulate"
       d="m 62.954913,950.74575 c 3.93037,0.001 4.643452,0.0558 7.051208,0.59755 10.397374,2.31637 17.658637,7.94554 17.948542,13.96485 0.04403,0.91439 -0.06608,1.99555 -0.213684,2.4643 -0.356713,1.13322 -1.544938,2.49403 -2.848973,3.21161 -0.948676,0.52187 -1.353979,0.59703 -3.133867,0.59703 -1.588826,0 -2.180002,-0.10098 -2.848978,-0.44803 -0.470082,-0.24168 -2.188368,-1.82983 -3.774889,-3.50987 -3.213774,-3.40365 -4.46305,-4.24472 -7.763459,-5.15273 -2.265281,-0.62384 -7.047188,-0.63234 -9.187941,-0.0744 -4.221667,1.09949 -6.569508,3.76429 -6.552642,7.46777 0.01087,2.38488 1.292566,4.19453 4.05979,5.5264 2.067729,0.99458 3.274199,1.32469 12.606713,3.51014 4.269351,0.99962 8.596228,2.08902 9.615287,2.46401 7.707107,2.83641 11.79677,7.91738 12.606714,15.53339 0.638987,6.00862 -1.201251,11.66542 -5.056929,15.68282 -3.32551,3.4647 -7.974956,5.6472 -14.173652,6.7207 -2.412355,0.4167 -9.191792,0.6509 -11.752018,0.3736 -9.414604,-1.0187 -16.515455,-4.6348 -20.085269,-10.231 -1.253431,-1.9661 -1.92306,-4.1064 -1.92306,-6.0496 0,-2.5464 0.930598,-4.26272 2.848975,-5.37628 1.018869,-0.59333 1.29172,-0.67309 3.13387,-0.67309 2.884754,0 3.709486,0.58166 6.83754,4.63017 3.249062,4.2059 5.639914,5.8918 9.472837,6.7214 6.892943,1.4913 13.522892,-0.794 15.669359,-5.3766 0.503397,-1.0753 0.643529,-1.5084 0.641025,-3.137 -0.0029,-1.63247 -0.145245,-2.07124 -0.641025,-3.06181 -0.646816,-1.29287 -1.927823,-2.55482 -3.347543,-3.21141 -0.519477,-0.2389 -5.391402,-1.63327 -10.826103,-3.06183 -5.434698,-1.42856 -10.678085,-2.85096 -11.609569,-3.21102 -6.652684,-2.57158 -10.222261,-6.38371 -11.538345,-12.09813 -0.625482,-2.71553 -0.636458,-7.02134 0,-9.55866 1.987398,-7.92403 8.112343,-12.84491 18.304659,-14.78655 1.61526,-0.30807 3.170136,-0.44883 6.48142,-0.44803 z"
       id="path2879"
       inkscape:connector-curvature="0" />
    <path
       inkscape:connector-curvature="0"
       d="m 103.91256,932.11657 c 11.43662,0 20.72877,9.29015 20.72877,20.72884 0,11.43654 -9.29215,20.72857 -20.72877,20.72857 -11.437382,0 -20.728768,-9.29203 -20.728768,-20.72857 0,-11.43869 9.291386,-20.72884 20.728768,-20.72884 z"
       style="color:#000000;fill:#e04b92;fill-opacity:1"
       id="path2555-4" />
    <path
       inkscape:connector-curvature="0"
       d="m 103.91256,933.05883 c 10.91746,0 19.78655,8.86895 19.78655,19.78658 0,10.91734 -8.86909,19.78657 -19.78655,19.78657 -10.917466,0 -19.786551,-8.86923 -19.786551,-19.78657 0,-10.91763 8.869085,-19.78658 19.786551,-19.78658 z"
       style="color:#000000;opacity:0.5;fill-opacity:0;stroke:#7d0000;stroke-width:1.8843956;stroke-linecap:round;stroke-linejoin:round"
       id="path2555-6-1" />
    <path
       inkscape:connector-curvature="0"
       d="m 86.010254,952.84355 c 0,9.88744 8.015625,17.90283 17.902116,17.90283 9.88725,0 17.9025,-8.01539 17.9025,-17.90283 0,-9.88718 -8.01525,-17.90177 -17.9025,-17.90177 -9.886303,0 -17.902116,8.01485 -17.902116,17.90177 l 0,0 z"
       style="color:#000000;opacity:0.5;fill:none;stroke:url(#linearGradient3120);stroke-width:1.88415074;stroke-linecap:round;stroke-linejoin:round"
       id="path8655" />
    <text
       xml:space="preserve"
       style="font-style:normal;font-weight:normal;font-size:19.91829681px;line-height:125%;font-family:sans-serif;letter-spacing:0px;word-spacing:0px;fill:#000000;fill-opacity:1;stroke:none;stroke-width:1px;stroke-linecap:butt;stroke-linejoin:miter;stroke-opacity:1"
       x="94.841721"
       y="961.28394"
       id="text4184"
       sodipodi:linespacing="125%"><tspan
         sodipodi:role="line"
         id="tspan4186"
         x="94.841721"
         y="961.28394"
         style="font-size:29.87744522px;fill:#ffffff">α</tspan></text>
  </g>
</svg>
