<?xml version="1.0" encoding="UTF-8" standalone="no"?>
<!-- Created with Inkscape (http://www.inkscape.org/) -->

<svg
   xmlns:dc="http://purl.org/dc/elements/1.1/"
   xmlns:cc="http://creativecommons.org/ns#"
   xmlns:rdf="http://www.w3.org/1999/02/22-rdf-syntax-ns#"
   xmlns:svg="http://www.w3.org/2000/svg"
   xmlns="http://www.w3.org/2000/svg"
   xmlns:xlink="http://www.w3.org/1999/xlink"
   xmlns:sodipodi="http://sodipodi.sourceforge.net/DTD/sodipodi-0.dtd"
   xmlns:inkscape="http://www.inkscape.org/namespaces/inkscape"
   width="32"
   height="32"
   id="svg4175"
   version="1.1"
   inkscape:version="0.91 r"
   viewBox="0 0 32 32"
   sodipodi:docname="system-software-update-32.svg">
  <defs
     id="defs4177">
    <linearGradient
       inkscape:collect="always"
       id="linearGradient4761">
      <stop
         style="stop-color:#000000;stop-opacity:1;"
         offset="0"
         id="stop4763" />
      <stop
         style="stop-color:#000000;stop-opacity:0;"
         offset="1"
         id="stop4765" />
    </linearGradient>
    <linearGradient
       inkscape:collect="always"
       id="linearGradient4747">
      <stop
         style="stop-color:#ffffff;stop-opacity:1;"
         offset="0"
         id="stop4749" />
      <stop
         id="stop4755"
         offset="0.23694834"
         style="stop-color:#ffffff;stop-opacity:0.23529412" />
      <stop
         style="stop-color:#ffffff;stop-opacity:0.15686275"
         offset="0.76410484"
         id="stop4757" />
      <stop
         style="stop-color:#ffffff;stop-opacity:0.39215687"
         offset="1"
         id="stop4751" />
    </linearGradient>
    <linearGradient
       inkscape:collect="always"
       id="linearGradient4730">
      <stop
         style="stop-color:#f5aa14;stop-opacity:1"
         offset="0"
         id="stop4732" />
      <stop
         style="stop-color:#f03200;stop-opacity:1"
         offset="1"
         id="stop4734" />
    </linearGradient>
    <radialGradient
       inkscape:collect="always"
       xlink:href="#linearGradient4761"
       id="radialGradient4767"
       cx="16"
       cy="28.5"
       fx="16"
       fy="28.5"
       r="11"
       gradientTransform="matrix(1,0,0,0.31818182,0,19.431818)"
       gradientUnits="userSpaceOnUse" />
    <linearGradient
       id="linearGradient4644-104-3-3-6-2-3-4">
      <stop
         offset="0"
         style="stop-color:#ff4035;stop-opacity:1;"
         id="stop5237-6-5-1-7-5-2" />
      <stop
         offset="1"
         style="stop-color:#dc311a;stop-opacity:1;"
         id="stop5239-4-6-4-8-4-8" />
    </linearGradient>
    <linearGradient
       inkscape:collect="always"
       xlink:href="#linearGradient4747"
       id="linearGradient4166"
       x1="16.335493"
       y1="1.9460506"
       x2="16.335493"
       y2="30.053946"
       gradientUnits="userSpaceOnUse" />
    <linearGradient
       inkscape:collect="always"
       xlink:href="#linearGradient4730"
       id="linearGradient4154"
       x1="16.006662"
       y1="0.098465823"
       x2="16.006662"
       y2="34.784267"
       gradientUnits="userSpaceOnUse" />
  </defs>
  <sodipodi:namedview
     id="base"
     pagecolor="#ffffff"
     bordercolor="#666666"
     borderopacity="1.0"
     inkscape:pageopacity="0.0"
     inkscape:pageshadow="2"
     inkscape:zoom="7.6039996"
     inkscape:cx="10.694383"
     inkscape:cy="15.060286"
     inkscape:current-layer="layer1"
     showgrid="false"
     inkscape:grid-bbox="true"
     inkscape:document-units="px"
     inkscape:window-width="1366"
     inkscape:window-height="713"
     inkscape:window-x="0"
     inkscape:window-y="30"
     inkscape:window-maximized="1">
    <inkscape:grid
       type="xygrid"
       id="grid4211" />
  </sodipodi:namedview>
  <metadata
     id="metadata4180">
    <rdf:RDF>
      <cc:Work
         rdf:about="">
        <dc:format>image/svg+xml</dc:format>
        <dc:type
           rdf:resource="http://purl.org/dc/dcmitype/StillImage" />
        <dc:title></dc:title>
      </cc:Work>
    </rdf:RDF>
  </metadata>
  <g
     id="layer1"
     inkscape:label="Layer 1"
     inkscape:groupmode="layer">
    <rect
       style="opacity:0.6;fill:url(#radialGradient4767);fill-opacity:1;stroke:none;stroke-width:3;stroke-linejoin:round;stroke-miterlimit:4;stroke-dasharray:none;stroke-opacity:1"
       id="rect4759"
       width="22"
       height="7"
       x="5"
       y="25" />
    <circle
       style="opacity:1;fill:url(#linearGradient4154);fill-opacity:1;stroke:none;stroke-width:3;stroke-linejoin:round;stroke-miterlimit:4;stroke-dasharray:none;stroke-opacity:1"
       id="path4723"
       cx="16"
       cy="16"
       r="14.5" />
    <circle
       r="14.5"
       cy="16"
       cx="16"
       id="circle4154"
       style="opacity:0.60000005;fill:none;fill-opacity:1;stroke:#780f00;stroke-width:1;stroke-linejoin:round;stroke-miterlimit:4;stroke-dasharray:none;stroke-opacity:1" />
    <circle
       r="13.5"
       cy="15.999998"
       cx="16"
       id="circle4156"
       style="opacity:0.4;fill:none;fill-opacity:1;stroke:url(#linearGradient4166);stroke-width:1;stroke-linejoin:round;stroke-miterlimit:4;stroke-dasharray:none;stroke-opacity:1" />
    <path
       inkscape:connector-curvature="0"
       style="opacity:0.07;fill:#000000;fill-opacity:1;stroke:#000000;stroke-width:1;stroke-linecap:round;stroke-linejoin:round;stroke-miterlimit:4;stroke-dasharray:none;stroke-opacity:1"
       d="m 16.06543,8.0000994 a 8.9999999,8.9999999 0 0 0 -3.509766,0.685547 8.9999999,8.9999999 0 0 0 -5.5556637,8.3144526 l 0,6 5.9999997,-6 -3,0 a 5.9999989,5.9999989 0 0 1 3.704102,-5.542969 5.9999989,5.9999989 0 0 1 6.538086,1.300782 l 2.122071,-2.122071 A 8.9999999,8.9999999 0 0 0 16.06543,8.0000994 Z M 25,11.000099 l -6,6 3.000001,0 a 5.9999989,5.9999989 0 0 1 -3.704102,5.542969 5.9999989,5.9999989 0 0 1 -6.538086,-1.300781 l -2.1220707,2.12207 A 8.9999999,8.9999999 0 0 0 19.444336,25.314552 8.9999999,8.9999999 0 0 0 25,17.000099 l 0,-6 z"
       id="path4215" />
    <path
       id="path4213"
       d="m 16.06543,8.0000994 a 8.9999999,8.9999999 0 0 0 -3.509766,0.685547 8.9999999,8.9999999 0 0 0 -5.5556637,8.3144526 l 0,6 5.9999997,-6 -3,0 a 5.9999989,5.9999989 0 0 1 3.704102,-5.542969 5.9999989,5.9999989 0 0 1 6.538086,1.300782 l 2.122071,-2.122071 A 8.9999999,8.9999999 0 0 0 16.06543,8.0000994 Z M 25,11.000099 l -6,6 3.000001,0 a 5.9999989,5.9999989 0 0 1 -3.704102,5.542969 5.9999989,5.9999989 0 0 1 -6.538086,-1.300781 l -2.1220707,2.12207 A 8.9999999,8.9999999 0 0 0 19.444336,25.314552 8.9999999,8.9999999 0 0 0 25,17.000099 l 0,-6 z"
       style="opacity:0.15000007;fill:#000000;fill-opacity:1;stroke:none;stroke-width:3;stroke-linecap:round;stroke-linejoin:miter;stroke-miterlimit:4;stroke-dasharray:none;stroke-opacity:1"
       inkscape:connector-curvature="0" />
    <path
       inkscape:connector-curvature="0"
       style="opacity:1;fill:#f5f5f5;fill-opacity:1;stroke:none;stroke-width:3;stroke-linecap:round;stroke-linejoin:miter;stroke-miterlimit:4;stroke-dasharray:none;stroke-opacity:1"
       d="m 16.06543,7.0001633 a 8.9999999,8.9999999 0 0 0 -3.509766,0.685547 8.9999999,8.9999999 0 0 0 -5.5556637,8.3144527 l 0,6 5.9999997,-6 -3,0 a 5.9999989,5.9999989 0 0 1 3.704102,-5.542969 5.9999989,5.9999989 0 0 1 6.538086,1.300782 L 22.364259,9.635905 A 8.9999999,8.9999999 0 0 0 16.06543,7.0001633 Z M 25,10.000163 l -6,6 3.000001,0 a 5.9999989,5.9999989 0 0 1 -3.704102,5.542969 5.9999989,5.9999989 0 0 1 -6.538086,-1.300781 l -2.1220707,2.12207 A 8.9999999,8.9999999 0 0 0 19.444336,24.314616 8.9999999,8.9999999 0 0 0 25,16.000163 l 0,-6 z"
       id="rect4168" />
  </g>
</svg>
