<?xml version="1.0" encoding="UTF-8" standalone="no"?>
<!-- Created with Inkscape (http://www.inkscape.org/) -->

<svg
   xmlns:dc="http://purl.org/dc/elements/1.1/"
   xmlns:cc="http://creativecommons.org/ns#"
   xmlns:rdf="http://www.w3.org/1999/02/22-rdf-syntax-ns#"
   xmlns:svg="http://www.w3.org/2000/svg"
   xmlns="http://www.w3.org/2000/svg"
   xmlns:sodipodi="http://sodipodi.sourceforge.net/DTD/sodipodi-0.dtd"
   xmlns:inkscape="http://www.inkscape.org/namespaces/inkscape"
   width="24"
   height="24"
   id="svg2"
   version="1.1"
   inkscape:version="0.91 r"
   sodipodi:docname="pomodoro-indicator-light-06.svg">
  <defs
     id="defs4" />
  <sodipodi:namedview
     id="base"
     pagecolor="#ffffff"
     bordercolor="#666666"
     borderopacity="1.0"
     inkscape:pageopacity="0.0"
     inkscape:pageshadow="2"
     inkscape:zoom="23.681818"
     inkscape:cx="-9.3109406"
     inkscape:cy="11"
     inkscape:document-units="px"
     inkscape:current-layer="layer1"
     showgrid="false"
     inkscape:window-width="1598"
     inkscape:window-height="844"
     inkscape:window-x="0"
     inkscape:window-y="30"
     inkscape:window-maximized="0" />
  <metadata
     id="metadata7">
    <rdf:RDF>
      <cc:Work
         rdf:about="">
        <dc:format>image/svg+xml</dc:format>
        <dc:type
           rdf:resource="http://purl.org/dc/dcmitype/StillImage" />
        <dc:title />
      </cc:Work>
    </rdf:RDF>
  </metadata>
  <g
     inkscape:label="Capa 1"
     inkscape:groupmode="layer"
     id="layer1"
     transform="translate(0,-1030.3622)">
    <path
       style="fill:#ffffff;fill-opacity:1;stroke:none"
       d="m 12,1034.3622 c -1.8912,0 -3.6306339,0.6528 -5.0000001,1.7501 l -1.6111111,-1.6111 -1.2499999,1.2499 1.611111,1.6111 C 4.652815,1038.7316 4,1040.471 4,1042.3622 c 0,4.4183 3.5817225,8 8,8 4.418278,0 8,-3.5817 8,-8 0,-1.8912 -0.652815,-3.6306 -1.75,-5 l 1.611111,-1.6111 -1.25,-1.2499 L 17,1036.1123 c -1.369367,-1.0973 -3.1088,-1.7501 -5,-1.7501 z m 0,1.7778 c 0.214778,0 0.429717,0.011 0.638889,0.027 0.06552,0.011 0.129528,0.018 0.194445,0.027 0.141714,0.018 0.278138,0.055 0.416666,0.083 0.135424,0.027 0.284545,0.047 0.416666,0.083 0.261039,0.072 0.503934,0.1738 0.75,0.2779 0.249672,0.1051 0.490463,0.2251 0.722223,0.3611 0.217093,0.1273 0.411873,0.2647 0.611111,0.4166 0.0637,0.049 0.132714,0.088 0.194445,0.139 0.04003,0.033 0.07191,0.078 0.111108,0.1108 0.111646,0.097 0.228869,0.201 0.333334,0.3055 0.1467,0.1455 0.285086,0.2851 0.416666,0.4445 0.126958,0.1538 0.24933,0.3065 0.361111,0.4722 0.07458,0.1108 0.154799,0.2178 0.222223,0.3334 0.536895,0.9198 0.833332,1.9969 0.833332,3.1388 0,3.4365 -2.785784,6.2222 -6.222221,6.2222 -3.4364386,0 -6.2222226,-2.7857 -6.2222226,-6.2222 0,-3.4364 2.785784,-6.2222 6.2222226,-6.2222 z m 0,0.8888 c -2.9455192,0 -5.3333335,2.3879 -5.3333335,5.3334 0,2.9455 2.3878143,5.3334 5.3333335,5.3334 2.945519,0 5.333334,-2.3879 5.333334,-5.3334 0,-0.9799 -0.261029,-1.9054 -0.722223,-2.6944 L 12,1042.3622 l 0,-5.3334 z"
       id="path5538"
       inkscape:connector-curvature="0" />
  </g>
</svg>
