<?xml version="1.0" encoding="UTF-8" standalone="no"?>
<!-- Created with Inkscape (http://www.inkscape.org/) -->

<svg
   xmlns:dc="http://purl.org/dc/elements/1.1/"
   xmlns:cc="http://creativecommons.org/ns#"
   xmlns:rdf="http://www.w3.org/1999/02/22-rdf-syntax-ns#"
   xmlns:svg="http://www.w3.org/2000/svg"
   xmlns="http://www.w3.org/2000/svg"
   xmlns:sodipodi="http://sodipodi.sourceforge.net/DTD/sodipodi-0.dtd"
   xmlns:inkscape="http://www.inkscape.org/namespaces/inkscape"
   width="24"
   height="24"
   id="svg2"
   version="1.1"
   inkscape:version="0.91 r"
   sodipodi:docname="pomodoro-indicator-light-15.svg">
  <defs
     id="defs4" />
  <sodipodi:namedview
     id="base"
     pagecolor="#ffffff"
     bordercolor="#666666"
     borderopacity="1.0"
     inkscape:pageopacity="0.0"
     inkscape:pageshadow="2"
     inkscape:zoom="23.681818"
     inkscape:cx="-2.9558542"
     inkscape:cy="14.378119"
     inkscape:document-units="px"
     inkscape:current-layer="layer1"
     showgrid="false"
     inkscape:window-width="960"
     inkscape:window-height="844"
     inkscape:window-x="638"
     inkscape:window-y="30"
     inkscape:window-maximized="0" />
  <metadata
     id="metadata7">
    <rdf:RDF>
      <cc:Work
         rdf:about="">
        <dc:format>image/svg+xml</dc:format>
        <dc:type
           rdf:resource="http://purl.org/dc/dcmitype/StillImage" />
        <dc:title />
      </cc:Work>
    </rdf:RDF>
  </metadata>
  <g
     inkscape:label="Capa 1"
     inkscape:groupmode="layer"
     id="layer1"
     transform="translate(0,-1030.3622)">
    <path
       style="fill:#ffffff;fill-opacity:1;stroke:none"
       d="m 12,1034.3622 c -1.8912,0 -3.6306338,0.6527 -5,1.7499 l -1.6111111,-1.611 -1.25,1.25 1.6111111,1.6111 c -1.0971849,1.3694 -1.75,3.1088 -1.75,5 0,4.4183 3.5817226,8 8,8 4.418278,0 8,-3.5817 8,-8 0,-1.8912 -0.652815,-3.6306 -1.75,-5 l 1.611111,-1.6111 -1.25,-1.25 L 17,1036.1121 c -1.369366,-1.0972 -3.1088,-1.7499 -5,-1.7499 z m 0,1.7778 c 3.436438,0 6.222222,2.7857 6.222222,6.2222 0,0.2147 -0.0066,0.4297 -0.02778,0.6389 -0.0073,0.073 -0.01798,0.1502 -0.02778,0.2221 -0.01833,0.1325 -0.05681,0.2593 -0.08334,0.3889 -0.02854,0.1403 -0.04554,0.28 -0.08334,0.4167 -0.01758,0.064 -0.03602,0.1317 -0.05555,0.1944 -0.03555,0.1143 -0.09705,0.2224 -0.138889,0.3334 -0.02842,0.075 -0.05211,0.1485 -0.08334,0.2222 -0.0033,0.011 0.0034,0.019 0,0.027 -0.03568,0.083 -0.07194,0.1685 -0.111108,0.2499 -0.0771,0.161 -0.159818,0.3192 -0.25,0.4723 -0.06306,0.1063 -0.125343,0.2033 -0.194445,0.3055 -0.08001,0.1188 -0.162185,0.2205 -0.25,0.3333 -0.03662,0.047 -0.07318,0.093 -0.111109,0.139 -0.03298,0.04 -0.07717,0.072 -0.111108,0.1109 -0.09686,0.112 -0.20109,0.2288 -0.305556,0.3332 -0.124675,0.1245 -0.254062,0.2476 -0.388889,0.3612 -0.0196,0.017 -0.03575,0.039 -0.05555,0.055 -0.05543,0.046 -0.109657,0.095 -0.166666,0.139 -0.100446,0.078 -0.200395,0.1511 -0.305557,0.2222 -0.106766,0.072 -0.221999,0.129 -0.333332,0.1944 -0.0112,0.011 -0.01647,0.022 -0.02778,0.027 -0.915159,0.5294 -1.977859,0.8334 -3.111111,0.8334 -3.4364383,0 -6.2222223,-2.7859 -6.2222223,-6.2223 0,-3.4364 2.785784,-6.2222 6.2222223,-6.2222 z m 0,0.8888 c -2.9455191,0 -5.3333334,2.3879 -5.3333334,5.3334 0,2.9455 2.3878143,5.3334 5.3333334,5.3334 0.971455,0 1.882192,-0.2685 2.666666,-0.7223 L 12,1042.3622 l 0,-5.3334 z"
       id="path5584"
       inkscape:connector-curvature="0" />
  </g>
</svg>
