<?xml version="1.0" encoding="UTF-8" standalone="no"?>
<!-- Created with Inkscape (http://www.inkscape.org/) -->

<svg
   xmlns:dc="http://purl.org/dc/elements/1.1/"
   xmlns:cc="http://creativecommons.org/ns#"
   xmlns:rdf="http://www.w3.org/1999/02/22-rdf-syntax-ns#"
   xmlns:svg="http://www.w3.org/2000/svg"
   xmlns="http://www.w3.org/2000/svg"
   xmlns:sodipodi="http://sodipodi.sourceforge.net/DTD/sodipodi-0.dtd"
   xmlns:inkscape="http://www.inkscape.org/namespaces/inkscape"
   width="24"
   height="24"
   id="svg2"
   version="1.1"
   inkscape:version="0.91 r"
   sodipodi:docname="pomodoro-indicator-light-13.svg">
  <defs
     id="defs4" />
  <sodipodi:namedview
     id="base"
     pagecolor="#ffffff"
     bordercolor="#666666"
     borderopacity="1.0"
     inkscape:pageopacity="0.0"
     inkscape:pageshadow="2"
     inkscape:zoom="23.681818"
     inkscape:cx="-2.9558542"
     inkscape:cy="14.378119"
     inkscape:document-units="px"
     inkscape:current-layer="layer1"
     showgrid="false"
     inkscape:window-width="960"
     inkscape:window-height="844"
     inkscape:window-x="638"
     inkscape:window-y="30"
     inkscape:window-maximized="0" />
  <metadata
     id="metadata7">
    <rdf:RDF>
      <cc:Work
         rdf:about="">
        <dc:format>image/svg+xml</dc:format>
        <dc:type
           rdf:resource="http://purl.org/dc/dcmitype/StillImage" />
        <dc:title />
      </cc:Work>
    </rdf:RDF>
  </metadata>
  <g
     inkscape:label="Capa 1"
     inkscape:groupmode="layer"
     id="layer1"
     transform="translate(0,-1030.3622)">
    <path
       style="fill:#ffffff;fill-opacity:1;stroke:none"
       d="m 12,1034.3622 c -1.8912,0 -3.6306338,0.6527 -5,1.7499 l -1.6111111,-1.611 -1.25,1.25 1.6111111,1.6111 c -1.0971849,1.3694 -1.75,3.1088 -1.75,5 0,4.4183 3.5817218,8 8,8 4.418278,0 8,-3.5817 8,-8 0,-1.8912 -0.652815,-3.6306 -1.75,-5 l 1.611111,-1.6111 -1.25,-1.25 L 17,1036.1121 c -1.369366,-1.0972 -3.1088,-1.7499 -5,-1.7499 z m 0,1.7778 c 3.436438,0 6.222222,2.7857 6.222222,6.2222 0,0.1896 -0.0112,0.3706 -0.02778,0.5555 -0.0024,0.028 0.0027,0.056 0,0.083 -0.01618,0.1571 -0.05563,0.3191 -0.08334,0.4723 -0.0085,0.046 -0.01833,0.093 -0.02778,0.1388 -0.02693,0.1313 -0.04822,0.2609 -0.08334,0.3889 -0.01964,0.072 -0.03342,0.1511 -0.05555,0.2223 -0.03058,0.097 -0.07594,0.183 -0.111108,0.2777 -0.0349,0.095 -0.07175,0.1847 -0.111109,0.2778 -0.03089,0.072 -0.04979,0.1514 -0.08334,0.2222 -0.03482,0.074 -0.07346,0.1495 -0.111108,0.2223 -0.04386,0.083 -0.09134,0.1684 -0.13889,0.25 -0.07259,0.1254 -0.14131,0.2413 -0.222222,0.361 -0.01889,0.028 -0.03623,0.056 -0.05556,0.083 -0.09518,0.1361 -0.200068,0.261 -0.305555,0.3889 -0.0082,0.011 -0.01952,0.017 -0.02778,0.027 -1.141386,1.3657 -2.858624,2.2501 -4.777778,2.2501 -3.4364385,0 -6.2222225,-2.7859 -6.2222225,-6.2223 0,-3.4365 2.785784,-6.2222 6.2222225,-6.2222 z m 0,0.8888 c -2.9455191,0 -5.3333334,2.3879 -5.3333334,5.3334 0,2.9455 2.3878143,5.3334 5.3333334,5.3334 1.642777,0 3.104995,-0.7488 4.083334,-1.9168 L 12,1042.3622 l 0,-5.3334 z"
       id="path5574"
       inkscape:connector-curvature="0" />
  </g>
</svg>
