<?xml version="1.0" encoding="UTF-8" standalone="no"?>
<!-- Created with Inkscape (http://www.inkscape.org/) -->

<svg
   xmlns:dc="http://purl.org/dc/elements/1.1/"
   xmlns:cc="http://creativecommons.org/ns#"
   xmlns:rdf="http://www.w3.org/1999/02/22-rdf-syntax-ns#"
   xmlns:svg="http://www.w3.org/2000/svg"
   xmlns="http://www.w3.org/2000/svg"
   xmlns:sodipodi="http://sodipodi.sourceforge.net/DTD/sodipodi-0.dtd"
   xmlns:inkscape="http://www.inkscape.org/namespaces/inkscape"
   width="24"
   height="24"
   id="svg2"
   version="1.1"
   inkscape:version="0.91 r"
   sodipodi:docname="pomodoro-indicator-light-34.svg">
  <defs
     id="defs4" />
  <sodipodi:namedview
     id="base"
     pagecolor="#ffffff"
     bordercolor="#666666"
     borderopacity="1.0"
     inkscape:pageopacity="0.0"
     inkscape:pageshadow="2"
     inkscape:zoom="23.681818"
     inkscape:cx="-2.9558542"
     inkscape:cy="14.378119"
     inkscape:document-units="px"
     inkscape:current-layer="layer1"
     showgrid="false"
     inkscape:window-width="960"
     inkscape:window-height="844"
     inkscape:window-x="638"
     inkscape:window-y="30"
     inkscape:window-maximized="0" />
  <metadata
     id="metadata7">
    <rdf:RDF>
      <cc:Work
         rdf:about="">
        <dc:format>image/svg+xml</dc:format>
        <dc:type
           rdf:resource="http://purl.org/dc/dcmitype/StillImage" />
        <dc:title />
      </cc:Work>
    </rdf:RDF>
  </metadata>
  <g
     inkscape:label="Capa 1"
     inkscape:groupmode="layer"
     id="layer1"
     transform="translate(0,-1030.3622)">
    <path
       style="fill:#ffffff;fill-opacity:1;stroke:none"
       d="m 12,1034.3622 c -1.891201,0 -3.6306309,0.6528 -4.9999999,1.7501 l -1.6111111,-1.6111 -1.25,1.2499 1.6111111,1.6111 c -1.0971822,1.3694 -1.75,3.1088 -1.75,5 0,4.4183 3.5817218,8 7.9999999,8 4.418276,0 8,-3.5817 8,-8 0,-1.8912 -0.652818,-3.6306 -1.75,-5 l 1.611112,-1.6111 -1.25,-1.2499 L 17,1036.1123 c -1.369369,-1.0973 -3.1088,-1.7501 -5,-1.7501 z m 0,1.7778 c 3.436436,0 6.222223,2.7857 6.222223,6.2222 0,3.4365 -2.785787,6.2222 -6.222223,6.2222 -3.436438,0 -6.2222222,-2.7857 -6.2222222,-6.2222 0,-0.3127 0.038809,-0.6162 0.083334,-0.9166 0.00702,-0.047 0.019734,-0.092 0.027778,-0.1389 0.049929,-0.2907 0.1056972,-0.5859 0.1944445,-0.8611 0.05568,-0.1723 0.1244357,-0.3348 0.1944445,-0.5 0.051386,-0.1216 0.107928,-0.2437 0.1666666,-0.3612 0.1388997,-0.2776 0.2949361,-0.5256 0.4722223,-0.7777 0.1627129,-0.2314 0.3358275,-0.46 0.5277778,-0.6667 0.026605,-0.029 0.056205,-0.055 0.083334,-0.083 0.026711,-0.027 0.056125,-0.056 0.083334,-0.083 0.178857,-0.1789 0.3838693,-0.3438 0.5833333,-0.5 0.2446276,-0.1915 0.47796,-0.3741 0.75,-0.5277 0.028329,-0.016 0.054729,-0.04 0.083334,-0.055 0.2462532,-0.1338 0.512864,-0.2332 0.7777777,-0.3333 0.6835445,-0.2583 1.4205055,-0.4167 2.1944445,-0.4167 z m 0,0.8888 c -0.665814,0 -1.301209,0.1383 -1.888889,0.3612 L 12,1042.3622 l 0,-5.3334 z"
       id="path5679"
       inkscape:connector-curvature="0" />
  </g>
</svg>
