<?xml version="1.0" encoding="UTF-8" standalone="no"?>
<!-- Created with Inkscape (http://www.inkscape.org/) -->

<svg
   xmlns:dc="http://purl.org/dc/elements/1.1/"
   xmlns:cc="http://creativecommons.org/ns#"
   xmlns:rdf="http://www.w3.org/1999/02/22-rdf-syntax-ns#"
   xmlns:svg="http://www.w3.org/2000/svg"
   xmlns="http://www.w3.org/2000/svg"
   xmlns:sodipodi="http://sodipodi.sourceforge.net/DTD/sodipodi-0.dtd"
   xmlns:inkscape="http://www.inkscape.org/namespaces/inkscape"
   width="24"
   height="24"
   id="svg2"
   version="1.1"
   inkscape:version="0.91 r"
   sodipodi:docname="pomodoro-indicator-light-07.svg">
  <defs
     id="defs4" />
  <sodipodi:namedview
     id="base"
     pagecolor="#7b7b7b"
     bordercolor="#666666"
     borderopacity="1.0"
     inkscape:pageopacity="0"
     inkscape:pageshadow="2"
     inkscape:zoom="47.083333"
     inkscape:cx="12"
     inkscape:cy="14.378119"
     inkscape:document-units="px"
     inkscape:current-layer="layer1"
     showgrid="false"
     inkscape:window-width="1600"
     inkscape:window-height="845"
     inkscape:window-x="0"
     inkscape:window-y="30"
     inkscape:window-maximized="1" />
  <metadata
     id="metadata7">
    <rdf:RDF>
      <cc:Work
         rdf:about="">
        <dc:format>image/svg+xml</dc:format>
        <dc:type
           rdf:resource="http://purl.org/dc/dcmitype/StillImage" />
        <dc:title></dc:title>
      </cc:Work>
    </rdf:RDF>
  </metadata>
  <g
     inkscape:label="Capa 1"
     inkscape:groupmode="layer"
     id="layer1"
     transform="translate(0,-1030.3622)">
    <path
       style="fill:#ffffff;fill-opacity:1;stroke:none"
       d="m 12,1034.3622 c -1.8912,0 -3.6306336,0.6528 -4.9999998,1.7501 l -1.6111113,-1.6111 -1.25,1.2499 1.6111111,1.6111 c -1.0971849,1.3694 -1.75,3.1088 -1.75,5 0,4.4183 3.5817228,8 8,8 4.418278,0 8,-3.5817 8,-8 0,-1.8912 -0.652815,-3.6306 -1.75,-5 l 1.611111,-1.6111 -1.25,-1.2499 L 17,1036.1123 c -1.369367,-1.0973 -3.1088,-1.7501 -5,-1.7501 z m 0,1.7778 c 0.312715,0 0.616336,0.039 0.916666,0.083 0.01826,0 0.03735,0 0.05556,0 0.29948,0.047 0.605208,0.1062 0.888889,0.1944 0.0189,0.011 0.03672,0.022 0.05555,0.027 0.173915,0.056 0.333149,0.1238 0.5,0.1944 0.127947,0.054 0.265525,0.104 0.388889,0.1666 0.234263,0.1184 0.450572,0.243 0.666666,0.3889 0.03914,0.026 0.07262,0.056 0.111109,0.083 0.01063,0.011 0.01717,0.02 0.02778,0.027 0.22344,0.1606 0.438959,0.3399 0.638889,0.5279 0.01869,0.017 0.03709,0.038 0.05555,0.055 0.171038,0.1648 0.348678,0.3444 0.5,0.5277 0.02461,0.03 0.05928,0.054 0.08334,0.083 0.04167,0.053 0.07111,0.1132 0.111109,0.1666 0.166777,0.2245 0.308633,0.4482 0.444444,0.6944 0.0058,0.012 0.02197,0.017 0.02778,0.028 0.09578,0.1762 0.171285,0.3693 0.25,0.5555 0.03882,0.093 0.07662,0.1836 0.111109,0.2778 0.244259,0.6671 0.388889,1.3871 0.388889,2.1389 0,3.4363 -2.785784,6.2222 -6.222222,6.2222 -3.4364378,0 -6.2222221,-2.7859 -6.2222221,-6.2222 0,-3.4365 2.7857843,-6.2223 6.2222221,-6.2223 z m 0,0.8888 c -2.9455189,0 -5.3333332,2.3879 -5.3333332,5.3334 0,2.9455 2.3878143,5.3334 5.3333332,5.3334 2.945519,0 5.333332,-2.3879 5.333332,-5.3334 0,-0.6442 -0.123968,-1.2615 -0.333332,-1.8334 l -5,1.8334 0,-5.3334 z"
       id="path5543"
       inkscape:connector-curvature="0" />
  </g>
</svg>
