<?xml version="1.0" encoding="UTF-8" standalone="no"?>
<!-- Created with Inkscape (http://www.inkscape.org/) -->

<svg
   xmlns:dc="http://purl.org/dc/elements/1.1/"
   xmlns:cc="http://creativecommons.org/ns#"
   xmlns:rdf="http://www.w3.org/1999/02/22-rdf-syntax-ns#"
   xmlns:svg="http://www.w3.org/2000/svg"
   xmlns="http://www.w3.org/2000/svg"
   xmlns:xlink="http://www.w3.org/1999/xlink"
   xmlns:sodipodi="http://sodipodi.sourceforge.net/DTD/sodipodi-0.dtd"
   xmlns:inkscape="http://www.inkscape.org/namespaces/inkscape"
   width="128"
   height="128"
   viewBox="0 0 128 128"
   id="svg2"
   version="1.1"
   inkscape:version="0.91 r"
   sodipodi:docname="firefox.svg">
  <defs
     id="defs4">
    <linearGradient
       inkscape:collect="always"
       id="linearGradient4165">
      <stop
         style="stop-color:#000000;stop-opacity:1;"
         offset="0"
         id="stop4167" />
      <stop
         style="stop-color:#000000;stop-opacity:0;"
         offset="1"
         id="stop4170" />
    </linearGradient>
    <linearGradient
       inkscape:collect="always"
       id="linearGradient4181">
      <stop
         style="stop-color:#000000;stop-opacity:1;"
         offset="0"
         id="stop4183" />
      <stop
         style="stop-color:#000000;stop-opacity:0;"
         offset="1"
         id="stop4185" />
    </linearGradient>
    <linearGradient
       inkscape:collect="always"
       id="linearGradient4167">
      <stop
         style="stop-color:#ffffff;stop-opacity:1;"
         offset="0"
         id="stop4169" />
      <stop
         id="stop4175"
         offset="0.17059492"
         style="stop-color:#ffffff;stop-opacity:0.23529412" />
      <stop
         style="stop-color:#ffffff;stop-opacity:0.15686275"
         offset="0.82508612"
         id="stop4177" />
      <stop
         style="stop-color:#ffffff;stop-opacity:0.39215687"
         offset="1"
         id="stop4171" />
    </linearGradient>
    <linearGradient
       inkscape:collect="always"
       xlink:href="#linearGradient4167"
       id="linearGradient4173"
       x1="65.059418"
       y1="938.85394"
       x2="65.059418"
       y2="1042.0807"
       gradientUnits="userSpaceOnUse" />
    <radialGradient
       inkscape:collect="always"
       xlink:href="#linearGradient4181"
       id="radialGradient4187"
       cx="64"
       cy="1032.8622"
       fx="64"
       fy="1032.8622"
       r="43"
       gradientTransform="matrix(1,0,0,0.31395349,0,708.5915)"
       gradientUnits="userSpaceOnUse" />
    <radialGradient
       inkscape:collect="always"
       xlink:href="#linearGradient4174"
       id="radialGradient4180"
       cx="19.199837"
       cy="1004.965"
       fx="19.199837"
       fy="1004.965"
       r="29.5"
       gradientTransform="matrix(1.3117857e-6,4.2573956,-3.3597304,1.0351978e-6,3441.9854,867.38502)"
       gradientUnits="userSpaceOnUse" />
    <linearGradient
       inkscape:collect="always"
       id="linearGradient4174">
      <stop
         style="stop-color:#ffc850;stop-opacity:1"
         offset="0"
         id="stop4176" />
      <stop
         id="stop4193"
         offset="0.33880642"
         style="stop-color:#ffbe3c;stop-opacity:1" />
      <stop
         style="stop-color:#ff780a;stop-opacity:1"
         offset="0.66458273"
         id="stop4195" />
      <stop
         style="stop-color:#ff6400;stop-opacity:1"
         offset="1"
         id="stop4178" />
    </linearGradient>
    <radialGradient
       cx="15.645058"
       cy="8.449769"
       r="19.99999"
       fx="-0.22334664"
       fy="8.44977"
       id="radialGradient5007-9"
       xlink:href="#linearGradient2867-449-88-871-390-598-476-591-434-148-57-177-3-8-0"
       gradientUnits="userSpaceOnUse"
       gradientTransform="matrix(-1.7030133e-7,2.7986345,-2.6367191,-1.9276587e-7,86.279973,939.02195)" />
    <linearGradient
       id="linearGradient2867-449-88-871-390-598-476-591-434-148-57-177-3-8-0">
      <stop
         id="stop3750-8-9-6"
         style="stop-color:#5bc2ee;stop-opacity:1"
         offset="0" />
      <stop
         id="stop3752-3-2-3"
         style="stop-color:#42baea;stop-opacity:1"
         offset="0.26238" />
      <stop
         id="stop3754-7-2-6"
         style="stop-color:#3689e6;stop-opacity:1"
         offset="0.704952" />
      <stop
         id="stop3756-9-3-1"
         style="stop-color:#2b63a0;stop-opacity:1"
         offset="1" />
    </linearGradient>
    <linearGradient
       inkscape:collect="always"
       xlink:href="#linearGradient4167"
       id="linearGradient4184"
       x1="54.419411"
       y1="939.50391"
       x2="54.419411"
       y2="1041.485"
       gradientUnits="userSpaceOnUse" />
    <radialGradient
       inkscape:collect="always"
       xlink:href="#linearGradient4165"
       id="radialGradient4172"
       cx="64.89196"
       cy="939.47473"
       fx="64.89196"
       fy="939.47473"
       r="51.118648"
       gradientTransform="matrix(9.1328919e-8,2.4835564,-2.5926239,9.5339706e-8,2500.5966,780.59872)"
       gradientUnits="userSpaceOnUse" />
  </defs>
  <sodipodi:namedview
     id="base"
     pagecolor="#ffffff"
     bordercolor="#666666"
     borderopacity="1.0"
     inkscape:pageopacity="0.0"
     inkscape:pageshadow="2"
     inkscape:zoom="2.3782607"
     inkscape:cx="43.574076"
     inkscape:cy="73.219796"
     inkscape:document-units="px"
     inkscape:current-layer="layer1"
     showgrid="false"
     units="px"
     inkscape:window-width="1366"
     inkscape:window-height="713"
     inkscape:window-x="0"
     inkscape:window-y="30"
     inkscape:window-maximized="1" />
  <metadata
     id="metadata7">
    <rdf:RDF>
      <cc:Work
         rdf:about="">
        <dc:format>image/svg+xml</dc:format>
        <dc:type
           rdf:resource="http://purl.org/dc/dcmitype/StillImage" />
        <dc:title />
      </cc:Work>
    </rdf:RDF>
  </metadata>
  <g
     inkscape:label="Livello 1"
     inkscape:groupmode="layer"
     id="layer1"
     transform="translate(0,-924.36216)">
    <rect
       style="opacity:0.4;fill:url(#radialGradient4187);fill-opacity:1;stroke:none;stroke-width:3;stroke-linejoin:round;stroke-miterlimit:4;stroke-dasharray:none;stroke-opacity:1"
       id="rect4179"
       width="86"
       height="27"
       x="21"
       y="1019.3622" />
    <path
       style="color:#000000;display:inline;overflow:visible;visibility:visible;fill:url(#radialGradient5007-9);fill-opacity:1;fill-rule:nonzero;stroke:none;stroke-width:1;marker:none;enable-background:accumulate"
       id="path2555-7-3"
       inkscape:connector-curvature="0"
       d="M 63.999999,938.36209 C 35.308194,938.36209 12,961.6704 12,990.36223 c 0,28.69187 23.308194,52.00007 51.999999,52.00007 28.691803,0 52.000021,-23.3082 52.000001,-52.00007 0,-28.69183 -23.308198,-52.00014 -52.000001,-52.00014 z" />
    <path
       style="opacity:0.3;fill:#000000;fill-opacity:1;stroke:none;stroke-width:3;stroke-linejoin:round;stroke-miterlimit:4;stroke-dasharray:none;stroke-opacity:1"
       d="M 63.999999,937.8622 A 52.5,52.5 0 0 0 11.500001,990.36217 52.5,52.5 0 0 0 63.999999,1042.8622 52.5,52.5 0 0 0 116.5,990.36217 52.5,52.5 0 0 0 63.999999,937.8622 Z m 0,1 A 51.500004,51.500004 0 0 1 115.5,990.36217 51.500004,51.500004 0 0 1 63.999999,1041.8622 51.500004,51.500004 0 0 1 12.500001,990.36217 51.500004,51.500004 0 0 1 63.999999,938.8622 Z"
       id="path4149"
       inkscape:connector-curvature="0" />
    <path
       id="path6534"
       d="m 64.298347,938.86439 c -0.323919,0 -0.648169,0.0254 -0.970699,0.0314 l -4.507265,0.50024 -6.98253,1.93754 c 0.594478,-0.21128 1.197241,-0.42131 1.814506,-0.62453 l -0.374917,-0.65659 c -3.964776,0.85484 -7.76136,2.14467 -11.335272,3.84544 l -0.532319,1.15676 -0.344445,-0.71906 c -0.345377,0.17239 -0.692351,0.35168 -1.033314,0.53147 l 0.09401,1.37559 -1.722226,1.46938 -1.002017,2.68861 2.098075,0 0.814143,-1.75074 0.281809,-0.65653 c 0.918127,-0.66142 1.789131,-1.39546 2.724243,-2.03212 l 2.160627,0.75032 c 1.418629,0.98181 2.838791,1.98967 4.258495,2.9699 l 2.098075,-1.96958 -2.3485,-1.00043 -1.095955,-2.21968 -4.008066,-0.46893 -0.09394,-0.46895 1.753524,0.37515 0.970699,-1.00042 2.191906,-0.46895 c 0.515642,-0.25546 1.013823,-0.4486 1.534334,-0.65654 l -1.346463,1.31306 4.884873,3.40778 0,2.03211 -1.9101,1.93829 2.567649,5.18981 1.722228,-1.03171 2.160628,-3.40778 c 3.063326,-0.96479 5.844945,-2.10449 8.736346,-3.43886 l -0.187891,1.31306 1.440396,1.00041 2.536373,-1.75074 -1.252526,-1.46938 -1.722226,1.00041 -0.563636,-0.18766 c 0.125117,-0.0582 0.250095,-0.0973 0.375743,-0.15635 l 2.535335,-6.6615 -4.977459,-2.00072 c -0.478483,-0.0123 -0.96111,-0.0312 -1.441662,-0.0312 z m -23.986271,9.78529 2.097867,1.46936 1.722226,0 0,-1.75074 -2.098073,-0.90663 -1.722205,1.18801 z m 48.190033,-1.18801 -3.69488,0.90663 -2.379778,1.56316 0,1.40685 -3.726158,2.40728 0.720211,3.59536 2.191904,-1.56318 1.377783,1.56318 1.534333,0.93776 1.002019,-2.68867 -0.563636,-1.56312 0.563636,-1.12531 2.160627,-2.0322 1.002017,0 -1.002017,2.21975 0,2.032 c 0.898077,-0.24907 1.805184,-0.35272 2.724244,-0.46906 l -2.536371,1.84451 -0.187914,1.12549 -2.880839,2.50129 -3.006155,-0.75039 0,-1.75073 -1.377781,0.93812 0.657574,1.563 -2.191908,0 -1.189889,2.03205 -1.440398,1.65695 -2.630204,0.56283 1.534354,1.563 0.375765,1.56317 -1.9101,0 -2.536371,1.40682 0,4.06446 1.158592,0 1.095952,1.1879 2.442332,-1.1879 0.908082,-2.50093 1.816163,-1.09429 0.375764,-0.93812 2.912115,-0.75021 1.628291,1.8757 1.722228,0.90692 -1.002017,2.03188 1.565653,-0.46888 0.814144,-2.03224 -2.004034,-2.31338 0.814145,0 2.004034,1.68833 0.344446,2.21943 1.722226,2.0324 0.469701,-2.96999 0.908081,-0.46906 c 0.966368,1.0222 1.722434,2.28888 2.536371,3.43905 l 3.006155,0.18844 1.722228,1.09429 -0.814147,1.21927 -1.722226,1.56317 -2.567649,0 -3.350415,-1.12567 -1.722226,0.18861 -1.252526,1.50078 -3.632325,-3.72038 -2.567649,-0.71937 -3.726159,0.43768 -3.25658,0.93812 c -1.864447,2.15315 -3.777735,4.32904 -5.54232,6.56522 l -2.066672,5.18978 0.970699,1.09429 -1.816163,2.68866 2.004034,4.72072 c 1.661991,1.91531 3.350621,3.80481 5.01019,5.72101 l 2.442332,-2.1258 1.002017,1.3132 2.630204,-1.7821 0.908082,1.0316 2.630203,0 1.534335,1.7509 -0.90808,3.1575 1.816161,2.1258 -0.09393,3.6891 1.377781,2.6888 -1.002017,2.3134 c -0.09737,1.6582 -0.187914,3.2497 -0.187914,4.9082 0.801013,2.247 1.623424,4.49 2.379777,6.753 l 0.532318,3.5952 0,1.8446 1.440397,0 2.098075,-1.3757 2.536371,0 3.820197,-4.3454 -0.438381,-1.5008 2.536373,-2.3136 -1.910098,-2.1258 2.254459,-1.8443 2.191903,-1.3758 1.00202,-1.1255 -0.62627,-2.4699 0,-6.3153 1.72222,-3.8764 2.16063,-2.4073 2.37978,-5.90879 0,-1.56299 c -1.17462,0.15159 -2.32634,0.26053 -3.47573,0.34373 l 2.37978,-2.37579 3.25658,-2.21978 1.72222,-2.06343 0,-2.21961 c -0.39121,-0.75162 -0.76464,-1.56176 -1.15857,-2.31356 l -1.56565,1.87588 -1.15859,-1.40699 -1.75352,-1.37545 0,-2.87639 2.00403,2.31356 2.28595,-0.28151 c 1.02391,0.94728 2.01403,1.79815 2.91211,2.8764 l 1.4404,-1.65678 c 0,-1.7925 -1.9798,-10.64572 -6.26253,-18.13266 -2.32779,-4.06799 -5.59701,-7.90312 -8.11018,-10.59843 -1.228848,-1.20323 -2.508821,-2.36092 -3.851472,-3.43886 l -0.375743,0.71907 -2.004034,2.21971 -2.536372,-2.68867 2.536372,0 1.127271,-1.25052 c -0.03005,-0.0226 -0.06386,-0.04 -0.09393,-0.0626 l -4.571685,-0.90664 -2.473817,-0.90665 z m -54.547015,1.18801 -0.908082,2.40732 c 0,0 -1.596187,0.27253 -2.004036,0.37516 -5.208831,4.88959 -15.716598,15.49494 -18.161622,35.42222 0.09686,0.46201 1.722226,3.12617 1.722226,3.12617 l 4.008068,2.40751 3.976789,1.1255 1.753525,2.12583 2.630206,2.03201 1.534333,-0.2813 1.095973,0.5627 0,0.3752 -1.471716,4.1581 -1.158571,1.7507 0.344444,0.844 -0.90808,3.3139 3.3819,6.2841 3.444452,3.0636 1.534336,2.2198 -0.187767,4.6267 1.095973,2.5949 -1.095973,4.9709 c 0,0 -0.145283,-0.035 0,0.4689 0.146693,0.5038 6.073413,3.8807 6.450607,3.5953 0.375764,-0.2908 0.720209,-0.5314 0.720209,-0.5314 l -0.344445,-1.1255 1.534335,-1.4695 0.532316,-1.5632 2.473816,-0.844 1.910099,-4.8145 -0.563636,-1.2819 1.283847,-2.032 2.880837,-0.6565 1.471718,-3.5012 -0.375764,-4.3768 2.285945,-3.2202 0.344446,-3.3452 c -3.114074,-1.5733 -6.146535,-3.1638 -9.237409,-4.7832 l -1.565653,-3.0639 -2.818282,-0.6564 -1.534333,-4.15828 -3.726366,0.46906 -3.256583,-2.40733 -3.444452,3.06376 0,0.43751 c -1.033337,-0.30372 -2.273933,-0.33016 -3.194027,-0.90656 l -0.720189,-2.21961 0,-2.40734 -2.348502,0.28151 c 0.190007,-1.5318 0.434985,-3.09567 0.626274,-4.62694 l -1.377779,0 -1.346464,1.75072 -1.283846,0.65626 -1.878776,-1.12531 -0.187791,-2.40716 0.344447,-2.56352 2.818074,-2.21978 2.285944,0 0.438381,-1.31304 2.818286,0.65643 2.097865,2.68867 0.344446,-4.43939 3.632325,-3.0636 1.283846,-3.22012 2.724245,-1.12549 1.440397,-2.21978 3.444453,-0.65661 1.753546,-2.59472 -5.198059,0 3.287857,-1.56299 2.25446,0 2.912117,-1.00052 0.532316,2.84502 1.283845,-2.03223 -1.440398,-1.00034 0.344446,-1.21944 -1.18991,-1.09394 -1.252526,-0.37511 0.344446,-1.37562 -0.970701,-1.96983 -2.285942,0.93812 0.375762,-1.75073 -2.630202,-1.56335 -2.098075,3.68918 0.187769,1.28167 -2.098075,0.93794 -1.283844,2.87621 -0.626276,-2.68866 -3.538286,-1.5006 -0.626272,-2.03205 4.790834,-2.75101 2.097865,-2.03206 0.187997,-2.4074 -1.18991,-0.65654 -1.534333,-0.18768 z m 38.953868,4.4393 0,1.46935 0.814145,0.93794 0,2.2196 -0.469701,2.97 2.379779,-0.46888 1.722225,-1.75091 -1.565653,-1.50059 c -0.5005,-1.35782 -1.00185,-2.57444 -1.62829,-3.87651 l -1.252526,0 z m -2.004034,2.96977 -1.4404,0.43768 0.344446,2.68866 1.910097,-1.00033 -0.814143,-2.12583 z m 26.585818,24.3219 2.191906,2.59489 2.630208,5.72105 1.62829,1.8445 -0.81415,1.93846 1.47172,1.75072 c -0.6666,0.0441 -1.31889,0.0934 -2.00404,0.0934 -1.24467,-2.66434 -2.24617,-5.34102 -3.194022,-8.12822 l -1.628291,-1.84468 -0.908082,-3.34527 0.626255,-0.62524 z"
       inkscape:connector-curvature="0"
       style="opacity:0.4;fill:url(#radialGradient4172);fill-opacity:1" />
    <path
       style="opacity:0.4;fill:url(#linearGradient4173);fill-opacity:1;stroke:none;stroke-width:3;stroke-linejoin:round;stroke-miterlimit:4;stroke-dasharray:none;stroke-opacity:1"
       d="m 64.000002,938.86217 a 51.5,51.5 0 0 0 -51.5,51.5 51.5,51.5 0 0 0 51.5,51.50003 51.5,51.5 0 0 0 51.499998,-51.50003 51.5,51.5 0 0 0 -51.499998,-51.5 z m 0,1 a 50.500004,50.500004 0 0 1 50.499998,50.5 50.500004,50.500004 0 0 1 -50.499998,50.50003 50.500004,50.500004 0 0 1 -50.5,-50.50003 50.500004,50.500004 0 0 1 50.5,-50.5 z"
       id="path4162"
       inkscape:connector-curvature="0" />
    <path
       style="clip-rule:evenodd;fill:url(#radialGradient4180);fill-opacity:1;fill-rule:evenodd"
       inkscape:connector-curvature="0"
       id="path7"
       d="m 59.808711,999.06656 c -7.00232,3.96024 -16.673508,-4.14449 -16.673508,-7.0928 0.09201,-2.39429 1.012378,-3.86845 2.856139,-4.14466 1.750126,0 5.066351,0.46006 7.737036,1.28836 0.460068,-2.76234 -0.09201,-6.07889 -1.934153,-8.38275 0,-0.55208 5.986698,-4.69675 6.908684,-5.25059 0.920347,-0.46007 1.290041,-1.19635 1.474068,-2.11808 0.736338,-0.73628 0.920365,-2.11842 -0.184027,-2.11842 -0.553721,0.0917 -4.330207,-0.0917 -5.620266,-0.27604 -1.750126,-0.55385 -5.618644,-4.42229 -6.723036,-5.98829 1.012379,-5.43462 3.038563,-8.10512 7.737036,-11.23722 -5.066545,0.46025 -11.607175,2.48642 -15.751733,6.44846 -2.85614,-1.01391 -8.290546,0.27604 -10.592965,1.28854 -3.68449,-1.65818 -4.882306,-7.82901 -5.434617,-11.51361 -3.870139,3.5004 -6.540612,8.28909 -6.448599,17.86995 C 13.84214,974.656 12,982.30088 12,990.409 c 0,28.6474 23.304532,51.9533 52.046711,51.9533 28.64733,0 51.953289,-23.3059 51.953289,-51.9533 0,-12.43699 -4.33163,-23.85989 -11.60859,-32.79473 2.02779,3.59241 3.22441,7.0928 3.22441,9.30307 -4.14458,-13.26346 -21.830464,-18.79185 -31.779316,-18.23783 4.052545,0.73611 10.040865,2.3021 11.881383,6.35468 -2.300585,-0.64402 -5.432977,-0.27604 -7.000698,0.64586 12.160896,3.59258 21.649661,12.4354 20.818071,20.26608 -1.01217,-1.65819 -2.669048,-2.94814 -4.512827,-3.22418 2.212044,8.56678 2.488085,15.56739 0.644324,21.1878 -1.012185,-3.68601 -2.484842,-6.08048 -3.500253,-6.72616 1.659735,10.87082 -0.276058,20.08011 -5.432995,25.70031 0.920171,-3.3162 1.196406,-6.1725 0.920171,-8.3811 -6.080351,9.1176 -12.712996,13.8172 -20.542045,14.0934 -7.736825,-0.092 -14.001397,-2.7638 -19.528027,-8.2922 4.880896,0.4601 10.039243,0.3681 13.817369,-2.3007 l 6.354982,-4.5159 c 0.552293,-0.276 2.027788,-0.276 2.580081,0 1.656491,-0.184 2.027806,-1.3803 1.288437,-2.4847 -0.736338,-1.10749 -1.656491,-2.02763 -3.224212,-2.85628 -3.316225,-1.75213 -6.907274,-1.3839 -10.591554,0.92014 l 0,0 z" />
    <path
       d="m 59.808711,999.06656 c -7.00232,3.96024 -16.673508,-4.14449 -16.673508,-7.0928 0.09201,-2.39429 1.012378,-3.86845 2.856139,-4.14466 1.750126,0 5.066351,0.46006 7.737036,1.28836 0.460068,-2.76234 -0.09201,-6.07889 -1.934153,-8.38275 0,-0.55208 5.986698,-4.69675 6.908684,-5.25059 0.920347,-0.46007 1.290041,-1.19635 1.474068,-2.11808 0.736338,-0.73628 0.920365,-2.11842 -0.184027,-2.11842 -0.553721,0.0917 -4.330207,-0.0917 -5.620266,-0.27604 -1.750126,-0.55385 -5.618644,-4.42229 -6.723036,-5.98829 1.012379,-5.43462 3.038563,-8.10512 7.737036,-11.23722 -5.066545,0.46025 -11.607175,2.48642 -15.751733,6.44846 -2.85614,-1.01391 -8.290546,0.27604 -10.592965,1.28854 -3.68449,-1.65818 -4.882306,-7.82901 -5.434617,-11.51361 -3.870139,3.5004 -6.540612,8.28909 -6.448599,17.86995 C 13.84214,974.656 12,982.30088 12,990.409 c 0,28.6474 23.304532,51.9533 52.046711,51.9533 28.64733,0 51.953289,-23.3059 51.953289,-51.9533 0,-12.43699 -4.33163,-23.85989 -11.60859,-32.79473 2.02779,3.59241 3.22441,7.0928 3.22441,9.30307 -4.14458,-13.26346 -21.830464,-18.79185 -31.779316,-18.23783 4.052545,0.73611 10.040865,2.3021 11.881383,6.35468 -2.300585,-0.64402 -5.432977,-0.27604 -7.000698,0.64586 12.160896,3.59258 21.649661,12.4354 20.818071,20.26608 -1.01217,-1.65819 -2.669048,-2.94814 -4.512827,-3.22418 2.212044,8.56678 2.488085,15.56739 0.644324,21.1878 -1.012185,-3.68601 -2.484842,-6.08048 -3.500253,-6.72616 1.659735,10.87082 -0.276058,20.08011 -5.432995,25.70031 0.920171,-3.3162 1.196406,-6.1725 0.920171,-8.3811 -6.080351,9.1176 -12.712996,13.8172 -20.542045,14.0934 -7.736825,-0.092 -14.001397,-2.7638 -19.528027,-8.2922 4.880896,0.4601 10.039243,0.3681 13.817369,-2.3007 l 6.354982,-4.5159 c 0.552293,-0.276 2.027788,-0.276 2.580081,0 1.656491,-0.184 2.027806,-1.3803 1.288437,-2.4847 -0.736338,-1.10749 -1.656491,-2.02763 -3.224212,-2.85628 -3.316225,-1.75213 -6.907274,-1.3839 -10.591554,0.92014 l 0,0 z"
       id="path4185"
       inkscape:connector-curvature="0"
       style="clip-rule:evenodd;fill:none;fill-opacity:1;fill-rule:evenodd;stroke:#6e0000;stroke-opacity:1;stroke-linejoin:round;opacity:0.3" />
    <path
       style="clip-rule:evenodd;fill:#ffffff;fill-opacity:1;fill-rule:evenodd;opacity:0.25"
       d="M 77.787109 24.285156 C 77.110055 24.27186 76.457741 24.28178 75.835938 24.316406 C 77.252574 24.573726 78.905294 24.943703 80.535156 25.474609 C 90.584061 26.521476 104.06414 32.190553 107.61523 43.554688 C 107.61523 43.13674 107.55967 42.660309 107.47656 42.158203 C 103.38024 30.003734 87.832987 24.482438 77.787109 24.285156 z M 23.607422 25.607422 C 19.737283 29.107822 17.06619 33.895702 17.158203 43.476562 C 13.841573 50.293152 12 57.938755 12 66.046875 C 12 66.223696 12.0119 66.397809 12.013672 66.574219 C 12.084258 58.642821 13.906511 51.159687 17.158203 44.476562 C 17.06619 34.895752 19.737283 30.107822 23.607422 26.607422 C 24.159733 30.292022 25.356526 36.462964 29.041016 38.121094 C 31.343435 37.108594 36.778626 35.818121 39.634766 36.832031 C 43.327798 33.301632 48.917895 31.317655 53.677734 30.599609 C 54.205564 30.197607 54.770775 29.795366 55.386719 29.384766 C 50.320174 29.845016 43.779324 31.869991 39.634766 35.832031 C 36.778626 34.818121 31.343435 36.108594 29.041016 37.121094 C 25.356526 35.462914 24.159733 29.292022 23.607422 25.607422 z M 84.904297 30.349609 C 83.28715 30.381211 81.696622 30.742172 80.716797 31.318359 C 81.176443 31.454148 81.624574 31.611267 82.076172 31.761719 C 83.734662 31.280411 85.966397 31.181326 87.71875 31.671875 C 87.532216 31.261152 87.292753 30.88285 87.027344 30.521484 C 86.347501 30.395033 85.625679 30.335512 84.904297 30.349609 z M 104.39062 33.251953 C 104.94048 34.226067 105.42341 35.190258 105.84375 36.126953 C 112.13936 44.625716 115.87321 55.131918 115.98828 66.507812 C 115.98964 66.353574 116 66.201428 116 66.046875 C 116 53.609885 111.66758 42.186793 104.39062 33.251953 z M 47.824219 40.84375 C 47.767394 41.105767 47.701775 41.345258 47.650391 41.621094 C 48.754783 43.187094 52.622921 47.055525 54.373047 47.609375 C 55.663106 47.793715 59.438466 47.976466 59.992188 47.884766 C 60.334545 47.884766 60.541545 48.027195 60.658203 48.232422 C 60.901152 47.569901 60.769801 46.884766 59.992188 46.884766 C 59.438466 46.976466 55.663106 46.793715 54.373047 46.609375 C 52.6942 46.078082 49.091847 42.516942 47.824219 40.84375 z M 97.021484 48.359375 C 97.11433 48.718947 97.18352 49.059995 97.269531 49.414062 C 99.012587 49.764125 100.5689 51.001013 101.53516 52.583984 C 101.58829 52.083651 101.5975 51.579229 101.56836 51.072266 C 101.55996 51.243203 101.55321 51.413938 101.53516 51.583984 C 100.52299 49.925794 98.865263 48.635415 97.021484 48.359375 z M 52.167969 56.910156 C 51.947846 57.121006 51.794922 57.292584 51.794922 57.373047 C 53.122918 59.033893 53.770086 61.219327 53.861328 63.345703 C 53.951204 61.137056 53.425686 58.770571 52.167969 56.910156 z M 98.861328 61.005859 C 98.880916 64.143909 98.503087 66.995196 97.666016 69.546875 C 96.653831 65.860865 95.181427 63.467946 94.166016 62.822266 C 94.223562 63.199179 94.267489 63.568568 94.316406 63.941406 C 95.323163 64.712055 96.701248 67.033542 97.666016 70.546875 C 98.592378 67.723007 98.981886 64.550128 98.861328 61.005859 z M 43.193359 67.933594 C 43.167814 68.152832 43.143898 68.37369 43.134766 68.611328 C 43.134766 71.559638 52.806274 79.665478 59.808594 75.705078 C 63.492874 73.401018 67.084166 73.031073 70.400391 74.783203 C 71.968112 75.611853 72.888662 76.533125 73.625 77.640625 C 73.74765 77.823828 73.827945 78.008186 73.888672 78.191406 C 74.076105 77.737344 73.985317 77.178833 73.625 76.640625 C 72.888662 75.533135 71.968112 74.613806 70.400391 73.785156 C 67.084166 72.033026 63.492874 72.401038 59.808594 74.705078 C 53.037685 78.534441 43.798425 71.095835 43.193359 67.933594 z M 94.734375 70.865234 C 94.611948 77.980986 92.673129 83.971002 89.064453 88.130859 C 88.957862 88.591606 88.867742 89.040843 88.734375 89.521484 C 92.733339 85.163282 94.783914 78.641101 94.734375 70.865234 z M 89.654297 80.140625 C 83.573946 89.258225 76.940377 93.958175 69.111328 94.234375 C 61.901546 94.148642 55.971624 91.819613 50.724609 87.029297 C 50.343818 87.001216 49.962215 86.97706 49.583984 86.941406 C 55.110614 92.469806 61.374503 95.142375 69.111328 95.234375 C 76.940377 94.958175 83.573946 90.258225 89.654297 81.140625 C 89.703741 81.535947 89.728668 81.958784 89.742188 82.394531 C 89.766117 81.586554 89.740342 80.828589 89.654297 80.140625 z "
       transform="translate(0,924.36216)"
       id="path4167" />
    <path
       style="opacity:0.4;fill:none;fill-opacity:1;stroke:url(#linearGradient4184);stroke-width:1;stroke-linecap:butt;stroke-linejoin:round;stroke-miterlimit:4;stroke-dasharray:none;stroke-opacity:1"
       id="path4176"
       sodipodi:type="arc"
       sodipodi:cx="64"
       sodipodi:cy="990.36218"
       sodipodi:rx="51"
       sodipodi:ry="51"
       sodipodi:start="5.7944931"
       sodipodi:end="3.577925"
       d="m 109.03033,966.41913 a 51,51 0 0 1 -12.021428,62.81997 51,51 0 0 1 -63.937908,1.6742 51,51 0 0 1 -15.29269,-62.10465"
       sodipodi:open="true" />
  </g>
</svg>
