<?xml version="1.0" encoding="UTF-8" standalone="no"?>
<!-- Created with Inkscape (http://www.inkscape.org/) -->

<svg
   xmlns:dc="http://purl.org/dc/elements/1.1/"
   xmlns:cc="http://creativecommons.org/ns#"
   xmlns:rdf="http://www.w3.org/1999/02/22-rdf-syntax-ns#"
   xmlns:svg="http://www.w3.org/2000/svg"
   xmlns="http://www.w3.org/2000/svg"
   xmlns:xlink="http://www.w3.org/1999/xlink"
   xmlns:sodipodi="http://sodipodi.sourceforge.net/DTD/sodipodi-0.dtd"
   xmlns:inkscape="http://www.inkscape.org/namespaces/inkscape"
   width="16"
   height="16"
   viewBox="0 0 16 16"
   id="svg2"
   version="1.1"
   inkscape:version="0.91 r"
   sodipodi:docname="dropbox-16.svg">
  <defs
     id="defs4">
    <linearGradient
       inkscape:collect="always"
       id="linearGradient4160">
      <stop
         style="stop-color:#ffffff;stop-opacity:1;"
         offset="0"
         id="stop4162" />
      <stop
         id="stop4168"
         offset="0.23621714"
         style="stop-color:#ffffff;stop-opacity:0.23529412" />
      <stop
         style="stop-color:#ffffff;stop-opacity:0.15686275"
         offset="0.73594797"
         id="stop4170" />
      <stop
         style="stop-color:#ffffff;stop-opacity:0.39215687"
         offset="1"
         id="stop4164" />
    </linearGradient>
    <linearGradient
       inkscape:collect="always"
       id="linearGradient4143">
      <stop
         style="stop-color:#50beff;stop-opacity:1"
         offset="0"
         id="stop4145" />
      <stop
         style="stop-color:#007de6;stop-opacity:1"
         offset="1"
         id="stop4147" />
    </linearGradient>
    <radialGradient
       inkscape:collect="always"
       xlink:href="#linearGradient4143"
       id="radialGradient4149"
       cx="6.1223373"
       cy="1040.7415"
       fx="6.1223373"
       fy="1040.7415"
       r="6.5"
       gradientUnits="userSpaceOnUse"
       gradientTransform="matrix(-8.0011616e-6,3.0769233,-2.1538554,-5.6008368e-6,2249.6066,1016.53)" />
    <linearGradient
       inkscape:collect="always"
       xlink:href="#linearGradient4160"
       id="linearGradient4166"
       x1="8.2756891"
       y1="1038.3652"
       x2="8.2756891"
       y2="1050.4053"
       gradientUnits="userSpaceOnUse" />
    <linearGradient
       id="linearGradient3767">
      <stop
         style="stop-color:#ffffff;stop-opacity:1;"
         offset="0"
         id="stop3769" />
      <stop
         id="stop3777"
         offset="0.08994294"
         style="stop-color:#ffffff;stop-opacity:0.23529412;" />
      <stop
         id="stop3775"
         offset="0.87385589"
         style="stop-color:#ffffff;stop-opacity:0.15686275;" />
      <stop
         style="stop-color:#ffffff;stop-opacity:0.39215687;"
         offset="1"
         id="stop3771" />
    </linearGradient>
  </defs>
  <sodipodi:namedview
     id="base"
     pagecolor="#ffffff"
     bordercolor="#666666"
     borderopacity="1.0"
     inkscape:pageopacity="0.0"
     inkscape:pageshadow="2"
     inkscape:zoom="20.658396"
     inkscape:cx="5.1683963"
     inkscape:cy="6.6297876"
     inkscape:document-units="px"
     inkscape:current-layer="layer1"
     showgrid="true"
     units="px"
     inkscape:window-width="1366"
     inkscape:window-height="713"
     inkscape:window-x="0"
     inkscape:window-y="30"
     inkscape:window-maximized="1"
     showguides="false">
    <inkscape:grid
       type="xygrid"
       id="grid4332" />
  </sodipodi:namedview>
  <metadata
     id="metadata7">
    <rdf:RDF>
      <cc:Work
         rdf:about="">
        <dc:format>image/svg+xml</dc:format>
        <dc:type
           rdf:resource="http://purl.org/dc/dcmitype/StillImage" />
        <dc:title></dc:title>
      </cc:Work>
    </rdf:RDF>
  </metadata>
  <g
     inkscape:label="Livello 1"
     inkscape:groupmode="layer"
     id="layer1"
     transform="translate(0,-1036.3622)">
    <rect
       style="opacity:1;fill:url(#radialGradient4149);fill-opacity:1;stroke:none;stroke-width:1;stroke-linejoin:round;stroke-miterlimit:4;stroke-dasharray:none;stroke-opacity:0.39215686"
       id="rect4136"
       width="13"
       height="13"
       x="1.5000002"
       y="1037.8622"
       rx="1"
       ry="1" />
    <rect
       ry="1"
       rx="1"
       y="1037.8622"
       x="1.5000002"
       height="13"
       width="13"
       id="rect4146"
       style="opacity:0.6;fill:none;fill-opacity:1;stroke:#3246a0;stroke-width:1;stroke-linejoin:round;stroke-miterlimit:4;stroke-dasharray:none;stroke-opacity:1" />
    <rect
       ry="1.3877788e-16"
       rx="1.3877788e-16"
       y="1038.8621"
       x="2.4999995"
       height="11"
       width="11"
       id="rect4148"
       style="opacity:0.4;fill:none;fill-opacity:1;stroke:url(#linearGradient4166);stroke-width:1;stroke-linejoin:round;stroke-miterlimit:4;stroke-dasharray:none;stroke-opacity:1" />
    <path
       inkscape:connector-curvature="0"
       style="fill:#000000;fill-opacity:1;fill-rule:evenodd;stroke:#000000;stroke-width:1px;stroke-linecap:butt;stroke-linejoin:round;stroke-opacity:1;opacity:0.07"
       d="m 6,1040.3622 -3,2 2,2 3,-2 -2,-2 z m 2,2 3,2 2,-2 -3,-2 -2,2 z m 3,2 -3,2 2,2 3,-2 -2,-2 z m -3,2 -3,-2 -2,2 3,2 2,-2 z m 0,1 -2,2 -1,-1 0,1 3,1 3,-1 0,-1 -1,1 -2,-2 z"
       id="path4236" />
    <path
       id="path4234"
       d="m 6,1040.3622 -3,2 2,2 3,-2 -2,-2 z m 2,2 3,2 2,-2 -3,-2 -2,2 z m 3,2 -3,2 2,2 3,-2 -2,-2 z m -3,2 -3,-2 -2,2 3,2 2,-2 z m 0,1 -2,2 -1,-1 0,1 3,1 3,-1 0,-1 -1,1 -2,-2 z"
       style="fill:#000000;fill-opacity:1;fill-rule:evenodd;stroke:none;stroke-width:1px;stroke-linecap:butt;stroke-linejoin:miter;stroke-opacity:1;opacity:0.15000005"
       inkscape:connector-curvature="0" />
    <path
       style="fill:#f5f5f5;fill-rule:evenodd;stroke:none;stroke-width:1px;stroke-linecap:butt;stroke-linejoin:miter;stroke-opacity:1;fill-opacity:1"
       d="M 6 3 L 3 5 L 5 7 L 8 5 L 6 3 z M 8 5 L 11 7 L 13 5 L 10 3 L 8 5 z M 11 7 L 8 9 L 10 11 L 13 9 L 11 7 z M 8 9 L 5 7 L 3 9 L 6 11 L 8 9 z M 8 10 L 6 12 L 5 11 L 5 12 L 8 13 L 11 12 L 11 11 L 10 12 L 8 10 z "
       transform="translate(0,1036.3622)"
       id="path4218" />
  </g>
</svg>
