<?xml version="1.0" encoding="UTF-8" standalone="no"?>
<!-- Created with Inkscape (http://www.inkscape.org/) -->

<svg
   xmlns:dc="http://purl.org/dc/elements/1.1/"
   xmlns:cc="http://creativecommons.org/ns#"
   xmlns:rdf="http://www.w3.org/1999/02/22-rdf-syntax-ns#"
   xmlns:svg="http://www.w3.org/2000/svg"
   xmlns="http://www.w3.org/2000/svg"
   xmlns:xlink="http://www.w3.org/1999/xlink"
   xmlns:sodipodi="http://sodipodi.sourceforge.net/DTD/sodipodi-0.dtd"
   xmlns:inkscape="http://www.inkscape.org/namespaces/inkscape"
   id="svg3303"
   height="16"
   width="16"
   version="1.0"
   inkscape:version="0.48.3.1 r9886"
   sodipodi:docname="dvdstyler.svg">
  <metadata
     id="metadata31">
    <rdf:RDF>
      <cc:Work
         rdf:about="">
        <dc:format>image/svg+xml</dc:format>
        <dc:type
           rdf:resource="http://purl.org/dc/dcmitype/StillImage" />
        <dc:title />
      </cc:Work>
    </rdf:RDF>
  </metadata>
  <sodipodi:namedview
     pagecolor="#ffffff"
     bordercolor="#666666"
     borderopacity="1"
     objecttolerance="10"
     gridtolerance="10"
     guidetolerance="10"
     inkscape:pageopacity="0"
     inkscape:pageshadow="2"
     inkscape:window-width="1080"
     inkscape:window-height="717"
     id="namedview29"
     showgrid="false"
     inkscape:zoom="34.9375"
     inkscape:cx="3.4203936"
     inkscape:cy="4.5652952"
     inkscape:window-x="487"
     inkscape:window-y="223"
     inkscape:window-maximized="0"
     inkscape:current-layer="g3325" />
  <defs
     id="defs3305">
    <linearGradient
       id="linearGradient3341"
       y2="18.367"
       gradientUnits="userSpaceOnUse"
       x2="17.743"
       y1="31.495"
       x1="28.703">
      <stop
         id="stop6030"
         style="stop-color:#fff"
         offset="0" />
      <stop
         id="stop6032"
         style="stop-color:#fff;stop-opacity:0"
         offset="1" />
    </linearGradient>
    <linearGradient
       id="linearGradient3339"
       y2="54.698"
       gradientUnits="userSpaceOnUse"
       x2="48.799"
       gradientTransform="matrix(.32832 0 0 .32832 4.0068 4.7915)"
       y1="3.61"
       x1="10.502">
      <stop
         id="stop6038"
         style="stop-color:#fff"
         offset="0" />
      <stop
         id="stop6040"
         style="stop-color:#fff;stop-opacity:0"
         offset="1" />
    </linearGradient>
    <linearGradient
       id="linearGradient3337"
       y2="11.67"
       gradientUnits="userSpaceOnUse"
       x2="15.889"
       gradientTransform="matrix(.33838 0 0 .33838 3.9445 4.8474)"
       y1="24.92"
       x1="25.986">
      <stop
         id="stop10999"
         style="stop-color:#fff"
         offset="0" />
      <stop
         id="stop11001"
         style="stop-color:#fff;stop-opacity:0"
         offset="1" />
    </linearGradient>
    <linearGradient
       id="linearGradient3335"
       y2="14.203"
       gradientUnits="userSpaceOnUse"
       x2="35.391"
       gradientTransform="matrix(.42857 0 0 .42857 1.7147 3.0996)"
       y1="32.416"
       x1="12.274">
      <stop
         id="stop3043"
         style="stop-color:#f9e0fb;stop-opacity:1;"
         offset="0" />
      <stop
         id="stop3045"
         style="stop-color:#bd63b6;stop-opacity:1;"
         offset="0.5" />
      <stop
         id="stop3047"
         style="stop-color:#f2ccf4;stop-opacity:1;"
         offset="1" />
    </linearGradient>
    <linearGradient
       id="linearGradient3333"
       y2="34.307"
       gradientUnits="userSpaceOnUse"
       x2="32.511"
       gradientTransform="matrix(.39999 0 0 .39999 2.3977 3.7628)"
       y1="11.188"
       x1="14.997">
      <stop
         id="stop3034"
         style="stop-color:#ebebeb"
         offset="0" />
      <stop
         id="stop3036"
         style="stop-color:#fff"
         offset=".5" />
      <stop
         id="stop3038"
         style="stop-color:#ebebeb"
         offset="1" />
    </linearGradient>
    <linearGradient
       id="linearGradient5628"
       y2="23.743"
       gradientUnits="userSpaceOnUse"
       x2="33.437"
       gradientTransform="matrix(0.39367,0,0,0.39124,-3.3035,-0.65792)"
       y1="18.868"
       x1="28.059">
      <stop
         id="stop6953"
         style="stop-color:#6e3d09"
         offset="0" />
      <stop
         id="stop6959"
         style="stop-color:#ea8113"
         offset=".24242" />
      <stop
         id="stop6961"
         style="stop-color:#5c3307"
         offset=".62121" />
      <stop
         id="stop6955"
         style="stop-color:#e07c12"
         offset="1" />
    </linearGradient>
    <linearGradient
       id="linearGradient5625"
       y2="31.724001"
       xlink:href="#linearGradient6651"
       gradientUnits="userSpaceOnUse"
       x2="22.011999"
       gradientTransform="matrix(0.38729,0,0,0.39168,-3.1215,-0.67147)"
       y1="29.811001"
       x1="20.250999" />
    <linearGradient
       id="linearGradient6651">
      <stop
         id="stop6653"
         style="stop-color:#f2f2f2"
         offset="0" />
      <stop
         id="stop6655"
         style="stop-color:#c3c3c3"
         offset="1" />
    </linearGradient>
    <radialGradient
       id="radialGradient5622"
       gradientUnits="userSpaceOnUse"
       cy="35.356998"
       cx="15.415"
       gradientTransform="matrix(0.31487,0,0,0.35623,-2.0092,1.0762)"
       r="7.5791998">
      <stop
         id="stop6965"
         style="stop-color:#650000;stop-opacity:1;"
         offset="0" />
      <stop
         id="stop6967"
         offset="1"
         style="stop-color:#fb66f5;stop-opacity:1;" />
    </radialGradient>
    <linearGradient
       id="linearGradient6434"
       y2="2.3162"
       xlink:href="#linearGradient4103"
       gradientUnits="userSpaceOnUse"
       x2="67.466003"
       gradientTransform="matrix(0.36366,0,0,0.28958,-9.853,4.3279)"
       y1="2.3162"
       x1="52.717999" />
    <linearGradient
       id="linearGradient4103">
      <stop
         id="stop4105"
         style="stop-color:#edd563"
         offset="0" />
      <stop
         id="stop4107"
         style="stop-color:#e08223"
         offset="1" />
    </linearGradient>
    <linearGradient
       id="linearGradient6436"
       y2="41.5"
       gradientUnits="userSpaceOnUse"
       x2="136"
       gradientTransform="matrix(1.2422,0,0,0.99378,-153.84,-36.742)"
       y1="41.5"
       x1="131">
      <stop
         id="stop6470"
         style="stop-color:#cd8033"
         offset="0" />
      <stop
         id="stop6472"
         style="stop-color:#bb5e12"
         offset="1" />
    </linearGradient>
    <linearGradient
       id="linearGradient6431"
       y2="24.245001"
       xlink:href="#linearGradient6651"
       gradientUnits="userSpaceOnUse"
       x2="69.691002"
       gradientTransform="matrix(0.35429,0,0,0.23448,-9.395,4.654)"
       y1="24.245001"
       x1="53.168999" />
    <linearGradient
       id="linearGradient3258">
      <stop
         id="stop3260"
         style="stop-color:#f2f2f2"
         offset="0" />
      <stop
         id="stop3262"
         style="stop-color:#c3c3c3"
         offset="1" />
    </linearGradient>
    <linearGradient
       id="linearGradient6428"
       y2="64.519997"
       xlink:href="#linearGradient4103"
       gradientUnits="userSpaceOnUse"
       x2="54.064999"
       gradientTransform="matrix(0.2638,0,0,0.32814,-1.6991,-11.764)"
       y1="64.564003"
       x1="42.816002" />
    <linearGradient
       id="linearGradient3265">
      <stop
         id="stop3267"
         style="stop-color:#edd563"
         offset="0" />
      <stop
         id="stop3269"
         style="stop-color:#e08223"
         offset="1" />
    </linearGradient>
    <radialGradient
       id="radialGradient6425"
       gradientUnits="userSpaceOnUse"
       cy="8.0625"
       cx="9.9687996"
       gradientTransform="matrix(1,0,0,1.5,0,-5.25)"
       r="3">
      <stop
         id="stop5115"
         style="stop-color:#fff"
         offset="0" />
      <stop
         id="stop5117"
         style="stop-color:#fff;stop-opacity:0"
         offset="1" />
    </radialGradient>
    <linearGradient
       id="linearGradient6422"
       y2="43.869999"
       xlink:href="#linearGradient6651"
       gradientUnits="userSpaceOnUse"
       x2="60.441002"
       gradientTransform="matrix(0.2584,0,0,0.39257,-3.782,-1.9893)"
       y1="40.119999"
       x1="60.168999" />
    <linearGradient
       id="linearGradient3275">
      <stop
         id="stop3277"
         style="stop-color:#f2f2f2"
         offset="0" />
      <stop
         id="stop3279"
         style="stop-color:#c3c3c3"
         offset="1" />
    </linearGradient>
    <linearGradient
       y2="43.869999"
       x2="60.441002"
       y1="40.119999"
       x1="60.168999"
       gradientTransform="matrix(0.2584,0,0,0.39257,-3.782,-1.9893)"
       gradientUnits="userSpaceOnUse"
       id="linearGradient3290"
       xlink:href="#linearGradient6651"
       inkscape:collect="always" />
  </defs>
  <g
     id="layer1">
    <g
       id="g3325"
       transform="translate(-4.0004 -4.9996)">
      <path
         id="path3040"
         style="fill:url(#linearGradient3333)"
         d="m11.997 6.0027c-3.8799 0-6.9998 3.1199-6.9998 6.9998s3.1199 6.9998 6.9998 6.9998 6.9998-3.1199 6.9998-6.9998-3.1199-6.9998-6.9998-6.9998zm0 8.6798c-0.91998 0-1.68-0.75998-1.68-1.68 0-0.91998 0.75998-1.68 1.68-1.68 0.91998 0 1.68 0.75998 1.68 1.68 0 0.91998-0.75998 1.68-1.68 1.68z" />
      <path
         id="path3049"
         style="stroke:gray;fill:url(#linearGradient3335)"
         d="m12 5.4996c-4.1571 0-7.5 3.3429-7.5 7.5s3.3429 7.5 7.5 7.5 7.5-3.3429 7.5-7.5-3.3429-7.5-7.5-7.5zm0 9.3c-0.98572 0-1.8-0.81429-1.8-1.8s0.81428-1.8 1.8-1.8c0.98571 0 1.8 0.81429 1.8 1.8 0 0.98572-0.81428 1.8-1.8 1.8z" />
      <path
         id="path3531"
         style="fill:url(#linearGradient3337)"
         d="m11.697 6.1374c-3.6416 0.1373-6.5306 3.1189-6.5306 6.7956 0 1.6667 0.59119 3.1816 1.5792 4.3605l3.6184-3.07c-0.24408-0.28537-0.38374-0.80619-0.38374-1.2065 0-1.1472 0.92326-2.0848 2.0274-2.0848 0.50213 0 1.235 0.28529 1.5353 0.64832l3.645-2.9985c-1.243-1.497-3.128-2.4451-5.236-2.4451-0.08824 0-0.16731-0.0033-0.2547 0z" />
      <path
         id="path3051"
         style="opacity:.51099;fill:#eeeeec"
         d="m12.001 9.0844c-2.1863 0-3.915 1.7795-3.915 3.915 0 2.1863 1.7795 3.915 3.915 3.915 2.1863 0 3.915-1.7795 3.915-3.915 0-2.1863-1.7795-3.915-3.915-3.915zm0 6.0504c-1.1694 0-2.1354-0.96603-2.1354-2.1354s0.96603-2.1354 2.1354-2.1354 2.1354 0.96603 2.1354 2.1354-0.96603 2.1354-2.1354 2.1354z" />
      <path
         id="path5264"
         style="opacity:.54645;stroke:url(#linearGradient3339);fill:none"
         d="m12 6.4995c-3.6029 0-6.5 2.8971-6.5 6.5s2.8971 6.5 6.5 6.5 6.5-2.8971 6.5-6.5-2.8971-6.5-6.5-6.5z" />
      <path
         id="path6026"
         style="opacity:.67213;stroke:url(#linearGradient3341);stroke-width:2.2918;fill:none"
         d="m30.406 24.931c0 3.3683-2.7305 6.0988-6.0988 6.0988s-6.0988-2.7305-6.0988-6.0988 2.7305-6.0988 6.0988-6.0988 6.0988 2.7305 6.0988 6.0988z"
         transform="matrix(.40604 0 0 .40604 2.1478 2.8832)" />
    </g>
  </g>
  <g
     transform="translate(0.05963679,0.03835299)"
     id="g6438">
    <path
       inkscape:connector-curvature="0"
       id="path5634"
       style="fill:url(#linearGradient5628);stroke:#673907;stroke-width:0.79639;stroke-linecap:round"
       d="M 5.9708,8.8843 7.5714,10.371 C 10.401,7.6082 14.572,0.9904 14.572,0.9904 14.741,0.51134 14.144,0.20952 13.845,0.53245 c 0,0 -5.3894,5.5154 -7.8745,8.3519 z" />
    <path
       inkscape:connector-curvature="0"
       id="path5636"
       style="fill:url(#linearGradient5625);stroke:#797b75;stroke-width:0.79035002;stroke-linecap:round"
       d="m 2.5376,13.283 1.0002,0.86297 4.2103,-3.6702 C 7.5787,9.86347 6.6089,8.75857 5.8828,8.75857 l -3.3452,4.5242 z" />
    <path
       inkscape:connector-curvature="0"
       id="path5638"
       style="fill:url(#radialGradient5622)"
       d="m -0.0019011,15.981 c 2.091,0 3.6779,0.28908 3.9784,-1.477 0.2421,-1.4232 -1.4436,-2.1052 -2.279,-0.83463 -0.80473,1.224 -1.6994,2.3117 -1.6994,2.3117 z" />
  </g>
</svg>
