<?xml version="1.0" encoding="UTF-8" standalone="no"?>
<!-- Created with Inkscape (http://www.inkscape.org/) -->

<svg
   xmlns:dc="http://purl.org/dc/elements/1.1/"
   xmlns:cc="http://creativecommons.org/ns#"
   xmlns:rdf="http://www.w3.org/1999/02/22-rdf-syntax-ns#"
   xmlns:svg="http://www.w3.org/2000/svg"
   xmlns="http://www.w3.org/2000/svg"
   xmlns:xlink="http://www.w3.org/1999/xlink"
   xmlns:sodipodi="http://sodipodi.sourceforge.net/DTD/sodipodi-0.dtd"
   xmlns:inkscape="http://www.inkscape.org/namespaces/inkscape"
   version="1.1"
   width="16"
   height="16"
   id="svg3782"
   inkscape:version="0.91 r"
   sodipodi:docname="gdm-setup.svg">
  <metadata
     id="metadata25">
    <rdf:RDF>
      <cc:Work
         rdf:about="">
        <dc:format>image/svg+xml</dc:format>
        <dc:type
           rdf:resource="http://purl.org/dc/dcmitype/StillImage" />
        <dc:title />
      </cc:Work>
    </rdf:RDF>
  </metadata>
  <sodipodi:namedview
     pagecolor="#ffffff"
     bordercolor="#666666"
     borderopacity="1"
     objecttolerance="10"
     gridtolerance="10"
     guidetolerance="10"
     inkscape:pageopacity="0"
     inkscape:pageshadow="2"
     inkscape:window-width="1548"
     inkscape:window-height="863"
     id="namedview23"
     showgrid="false"
     inkscape:zoom="55.624513"
     inkscape:cx="4.6741282"
     inkscape:cy="8.0000002"
     inkscape:window-x="370"
     inkscape:window-y="188"
     inkscape:window-maximized="0"
     inkscape:current-layer="layer1" />
  <defs
     id="defs3784">
    <linearGradient
       x1="24.675762"
       y1="4.1577182"
       x2="24.675762"
       y2="46.698467"
       id="linearGradient2635"
       xlink:href="#linearGradient2238"
       gradientUnits="userSpaceOnUse"
       gradientTransform="matrix(0.2885901,0,0,0.281741,1.0734846,1.5216393)" />
    <linearGradient
       id="linearGradient2238">
      <stop
         id="stop2240"
         style="stop-color:#ffffff;stop-opacity:1"
         offset="0" />
      <stop
         id="stop2242"
         style="stop-color:#ffffff;stop-opacity:0"
         offset="1" />
    </linearGradient>
    <linearGradient
       id="linearGradient2867-449-88-871-390-598-476-591-434-148">
      <stop
         id="stop4627"
         style="stop-color:#d0d0d0;stop-opacity:1"
         offset="0" />
      <stop
         id="stop4629"
         style="stop-color:#a0a0a0;stop-opacity:1"
         offset="0.26238" />
      <stop
         id="stop4631"
         style="stop-color:#5e5e5e;stop-opacity:1"
         offset="0.704952" />
      <stop
         id="stop4633"
         style="stop-color:#cecece;stop-opacity:1"
         offset="1" />
    </linearGradient>
    <linearGradient
       id="linearGradient3707-319-631">
      <stop
         id="stop4637"
         style="stop-color:#254b6d;stop-opacity:1"
         offset="0" />
      <stop
         id="stop4639"
         style="stop-color:#415b73;stop-opacity:1"
         offset="0.5" />
      <stop
         id="stop4641"
         style="stop-color:#6195b5;stop-opacity:1"
         offset="1" />
    </linearGradient>
    <linearGradient
       x1="22.226261"
       y1="3.8111546"
       x2="22.226261"
       y2="44.286263"
       id="linearGradient3778"
       xlink:href="#linearGradient2867-449-88-871-390-598-476-591-434-148"
       gradientUnits="userSpaceOnUse"
       gradientTransform="matrix(0.3191203,0,0,0.3174019,0.3411166,0.37846332)" />
    <linearGradient
       x1="34.580818"
       y1="46.148075"
       x2="34.580818"
       y2="3.0448537"
       id="linearGradient3780"
       xlink:href="#linearGradient3707-319-631"
       gradientUnits="userSpaceOnUse"
       gradientTransform="matrix(0.3191203,0,0,0.3174019,0.3411166,0.37846332)" />
    <linearGradient
       id="linearGradient3707-319-631-407-1-846-5-4-5-44">
      <stop
         offset="0"
         style="stop-color:#365a7c;stop-opacity:1"
         id="stop3788-4-8-9-7" />
      <stop
         offset="1"
         style="stop-color:#5ea1ca;stop-opacity:1;"
         id="stop3790-2-1-9-6" />
    </linearGradient>
    <linearGradient
       id="linearGradient2490-654-721">
      <stop
         id="stop2913"
         style="stop-color:#545454;stop-opacity:1"
         offset="0" />
      <stop
         id="stop2915"
         style="stop-color:#a4a4a4;stop-opacity:1"
         offset="1" />
    </linearGradient>
  </defs>
  <g
     id="layer1">
    <path
       style="fill:#353945;fill-opacity:1;fill-rule:evenodd;stroke:none;stroke-width:1.00213301;stroke-linecap:round;stroke-linejoin:round;stroke-miterlimit:4;stroke-opacity:1;stroke-dasharray:none;stroke-dashoffset:0"
       d="M 2.0292969 1.5019531 C 1.1825426 1.5019531 0.50195312 2.1972662 0.50195312 3.0625 L 0.50195312 12.9375 C 0.50195312 13.802734 1.1825426 14.498047 2.0292969 14.498047 L 13.970703 14.498047 C 14.817457 14.498047 15.498047 13.802734 15.498047 12.9375 L 15.498047 3.0625 C 15.498047 2.1972662 14.817457 1.5019531 13.970703 1.5019531 L 2.0292969 1.5019531 z M 3.1992188 6.8007812 L 12.800781 6.8007812 C 13.133181 6.8007812 13.400391 7.0679906 13.400391 7.4003906 L 13.400391 9.8007812 C 13.400391 10.133181 13.133181 10.400391 12.800781 10.400391 L 3.1992188 10.400391 C 2.8668188 10.400391 2.5996094 10.133181 2.5996094 9.8007812 L 2.5996094 7.4003906 C 2.5996094 7.0679906 2.8668188 6.8007812 3.1992188 6.8007812 z "
       id="rect1316" />
    <g
       transform="matrix(0.39999998,0,0,0.39999998,-1.2241976,-1.6688376)"
       id="g2701"
       style="fill:#353945;fill-opacity:1">
      <path
         inkscape:connector-curvature="0"
         d="m 32.726229,25.672094 c 4.58e-4,1.067511 -0.865174,1.933147 -1.933147,1.933147 -1.067977,0 -1.933613,-0.865636 -1.933147,-1.933147 -4.66e-4,-1.067512 0.86517,-1.933147 1.933147,-1.933147 1.067973,0 1.933605,0.865635 1.933147,1.933147 l 0,0 z"
         id="path2598"
         style="fill:#353945;fill-opacity:1;stroke:none" />
      <path
         inkscape:connector-curvature="0"
         d="m 17.261054,25.672094 c 4.59e-4,1.067511 -0.865174,1.933147 -1.933146,1.933147 -1.067977,0 -1.933613,-0.865636 -1.933147,-1.933147 -4.66e-4,-1.067512 0.86517,-1.933147 1.933147,-1.933147 1.067972,0 1.933605,0.865635 1.933146,1.933147 l 0,0 z"
         id="path2600"
         style="fill:#353945;fill-opacity:1;stroke:none" />
      <path
         inkscape:connector-curvature="0"
         d="m 24.993641,25.672094 c 4.59e-4,1.067511 -0.865174,1.933147 -1.933146,1.933147 -1.067977,0 -1.933613,-0.865636 -1.933147,-1.933147 -4.66e-4,-1.067512 0.86517,-1.933147 1.933147,-1.933147 1.067972,0 1.933605,0.865635 1.933146,1.933147 l 0,0 z"
         id="path2602"
         style="fill:#353945;fill-opacity:1;stroke:none" />
    </g>
  </g>
</svg>
