<?xml version="1.0" encoding="UTF-8" standalone="no"?>
<!-- Created with Inkscape (http://www.inkscape.org/) -->

<svg
   xmlns:dc="http://purl.org/dc/elements/1.1/"
   xmlns:cc="http://creativecommons.org/ns#"
   xmlns:rdf="http://www.w3.org/1999/02/22-rdf-syntax-ns#"
   xmlns:svg="http://www.w3.org/2000/svg"
   xmlns="http://www.w3.org/2000/svg"
   xmlns:xlink="http://www.w3.org/1999/xlink"
   xmlns:sodipodi="http://sodipodi.sourceforge.net/DTD/sodipodi-0.dtd"
   xmlns:inkscape="http://www.inkscape.org/namespaces/inkscape"
   width="16"
   height="16"
   id="svg5460"
   version="1.1"
   inkscape:version="0.91 r"
   viewBox="0 0 16 16"
   sodipodi:docname="multimedia-audio-player.svg">
  <defs
     id="defs5462">
    <linearGradient
       inkscape:collect="always"
       id="linearGradient6028">
      <stop
         style="stop-color:#ffffff;stop-opacity:1;"
         offset="0"
         id="stop6030" />
      <stop
         id="stop6036"
         offset="0.22518581"
         style="stop-color:#ffffff;stop-opacity:0.23529412" />
      <stop
         style="stop-color:#ffffff;stop-opacity:0.15686275"
         offset="0.75916636"
         id="stop6038" />
      <stop
         style="stop-color:#ffffff;stop-opacity:0.39215687"
         offset="1"
         id="stop6032" />
    </linearGradient>
    <linearGradient
       inkscape:collect="always"
       id="linearGradient6015">
      <stop
         style="stop-color:#ff648c;stop-opacity:1"
         offset="0"
         id="stop6017" />
      <stop
         style="stop-color:#f5143c;stop-opacity:1"
         offset="1"
         id="stop6019" />
    </linearGradient>
    <linearGradient
       inkscape:collect="always"
       xlink:href="#linearGradient6015"
       id="linearGradient4152"
       x1="8.2319221"
       y1="0.55026448"
       x2="8.2319221"
       y2="17.707232"
       gradientUnits="userSpaceOnUse" />
    <linearGradient
       inkscape:collect="always"
       xlink:href="#linearGradient6028"
       id="linearGradient4166"
       x1="8.2044201"
       y1="1.0162288"
       x2="8.2044201"
       y2="15.023678"
       gradientUnits="userSpaceOnUse" />
  </defs>
  <sodipodi:namedview
     id="base"
     pagecolor="#ffffff"
     bordercolor="#666666"
     borderopacity="1.0"
     inkscape:pageopacity="0.0"
     inkscape:pageshadow="2"
     inkscape:zoom="17.71875"
     inkscape:cx="7.6332707"
     inkscape:cy="3.5269216"
     inkscape:current-layer="layer1"
     showgrid="true"
     inkscape:grid-bbox="true"
     inkscape:document-units="px"
     inkscape:window-width="1366"
     inkscape:window-height="713"
     inkscape:window-x="0"
     inkscape:window-y="30"
     inkscape:window-maximized="1" />
  <metadata
     id="metadata5465">
    <rdf:RDF>
      <cc:Work
         rdf:about="">
        <dc:format>image/svg+xml</dc:format>
        <dc:type
           rdf:resource="http://purl.org/dc/dcmitype/StillImage" />
        <dc:title />
      </cc:Work>
    </rdf:RDF>
  </metadata>
  <g
     id="layer1"
     inkscape:label="Layer 1"
     inkscape:groupmode="layer">
    <circle
       style="opacity:1;fill:url(#linearGradient4152);fill-opacity:1;stroke:none;stroke-width:3;stroke-linejoin:round;stroke-miterlimit:4;stroke-dasharray:none;stroke-opacity:1"
       id="path6013"
       cx="8"
       cy="8"
       r="7.5" />
    <g
       style="color:#000000;display:inline;overflow:visible;visibility:visible;fill:#000000;fill-opacity:1;fill-rule:nonzero;stroke:#000000;stroke-width:2.00102665;marker:none;enable-background:accumulate;opacity:0.07;stroke-opacity:1;stroke-miterlimit:4;stroke-dasharray:none;stroke-linejoin:round"
       id="g4189"
       transform="matrix(0.49974347,0,0,0.49974347,3.5973539,5)">
      <path
         style="color:#000000;display:inline;overflow:visible;visibility:visible;fill:#000000;fill-opacity:1;fill-rule:nonzero;stroke:#000000;stroke-width:2.00102665;marker:none;enable-background:accumulate;stroke-opacity:1;stroke-miterlimit:4;stroke-dasharray:none;stroke-linejoin:round"
         id="path4191"
         inkscape:connector-curvature="0"
         d="M 13.375,0 6,1.90625 C 5.446,2.0546939 5,2.645207 5,3.21875 L 5,12.3125 C 4.4382289,12.018344 3.716744,11.899398 2.96875,12.09375 1.6189863,12.444461 0.77316552,13.577902 1.0625,14.625 1.3518345,15.672098 2.6814863,16.256961 4.03125,15.90625 5.1080835,15.626455 5.8503667,14.834802 5.96875,14 L 6,5.40625 l 7,-1.875 0,6.78125 C 12.438229,10.018344 11.716744,9.8993976 10.96875,10.09375 9.6189863,10.444461 8.7731655,11.577902 9.0625,12.625 c 0.2893345,1.047098 1.618986,1.631961 2.96875,1.28125 C 13.108084,13.626455 13.850367,12.834802 13.96875,12 L 14,0.8125 C 14,0.38234275 13.734156,0.06051165 13.375,0 Z" />
    </g>
    <g
       transform="matrix(0.49974347,0,0,0.49974347,3.5973539,5)"
       id="g4185"
       style="color:#000000;display:inline;overflow:visible;visibility:visible;fill:#000000;fill-opacity:1;fill-rule:nonzero;stroke:none;stroke-width:1.70000005;marker:none;enable-background:accumulate;opacity:0.15000007">
      <path
         d="M 13.375,0 6,1.90625 C 5.446,2.0546939 5,2.645207 5,3.21875 L 5,12.3125 C 4.4382289,12.018344 3.716744,11.899398 2.96875,12.09375 1.6189863,12.444461 0.77316552,13.577902 1.0625,14.625 1.3518345,15.672098 2.6814863,16.256961 4.03125,15.90625 5.1080835,15.626455 5.8503667,14.834802 5.96875,14 L 6,5.40625 l 7,-1.875 0,6.78125 C 12.438229,10.018344 11.716744,9.8993976 10.96875,10.09375 9.6189863,10.444461 8.7731655,11.577902 9.0625,12.625 c 0.2893345,1.047098 1.618986,1.631961 2.96875,1.28125 C 13.108084,13.626455 13.850367,12.834802 13.96875,12 L 14,0.8125 C 14,0.38234275 13.734156,0.06051165 13.375,0 Z"
         inkscape:connector-curvature="0"
         id="path4187"
         style="color:#000000;display:inline;overflow:visible;visibility:visible;fill:#000000;fill-opacity:1;fill-rule:nonzero;stroke:none;stroke-width:1.70000005;marker:none;enable-background:accumulate" />
    </g>
    <path
       d="M 10.281423,4 6.5958147,4.952636 C 6.3189568,5.0268199 6.0960712,5.3219249 6.0960712,5.6085493 l 0,4.5445417 C 5.8153298,10.006089 5.4547724,9.9466464 5.0809673,10.043773 c -0.6745356,0.175265 -1.097229,0.741695 -0.952636,1.264975 0.1445931,0.523281 0.8090779,0.815562 1.4836135,0.640297 0.5381405,-0.139826 0.9090917,-0.53545 0.9682529,-0.952636 l 0.015617,-4.2946709 3.4982043,-0.937019 0,3.3888854 C 9.8132776,9.006602 9.4527202,8.9471593 9.0789151,9.0442857 8.4043795,9.2195512 7.9816861,9.7859809 8.1262791,10.309261 c 0.144593,0.523281 0.8090777,0.815562 1.4836134,0.640297 0.5381405,-0.139826 0.9090915,-0.53545 0.9682525,-0.9526364 l 0.01562,-5.59088 C 10.593762,4.1910733 10.460909,4.0302403 10.281423,4 Z"
       inkscape:connector-curvature="0"
       id="rect2996-4-0"
       style="color:#000000;display:inline;overflow:visible;visibility:visible;fill:#ebebeb;fill-opacity:1;fill-rule:nonzero;stroke:none;stroke-width:1.70000005;marker:none;enable-background:accumulate" />
    <circle
       r="7.5"
       cy="8"
       cx="8"
       id="circle4154"
       style="opacity:0.60000001;fill:none;fill-opacity:1;stroke:#6e0a0a;stroke-width:1;stroke-linejoin:round;stroke-miterlimit:4;stroke-dasharray:none;stroke-opacity:1" />
    <circle
       r="6.5"
       cy="8"
       cx="8"
       id="circle4156"
       style="opacity:0.4;fill:none;fill-opacity:1;stroke:url(#linearGradient4166);stroke-width:1;stroke-linejoin:round;stroke-miterlimit:4;stroke-dasharray:none;stroke-opacity:1" />
  </g>
</svg>
