<?xml version="1.0" encoding="UTF-8" standalone="no"?>
<svg
   xmlns:dc="http://purl.org/dc/elements/1.1/"
   xmlns:cc="http://creativecommons.org/ns#"
   xmlns:rdf="http://www.w3.org/1999/02/22-rdf-syntax-ns#"
   xmlns:svg="http://www.w3.org/2000/svg"
   xmlns="http://www.w3.org/2000/svg"
   xmlns:xlink="http://www.w3.org/1999/xlink"
   version="1.1"
   id="svg2"
   viewBox="0 0 16 16"
   height="16"
   width="16">
  <defs
     id="defs4">
    <linearGradient
       id="linearGradient4160">
      <stop
         id="stop4162"
         offset="0"
         style="stop-color:#ffffff;stop-opacity:1;" />
      <stop
         style="stop-color:#ffffff;stop-opacity:0.23529412"
         offset="0.23621714"
         id="stop4168" />
      <stop
         id="stop4170"
         offset="0.73594797"
         style="stop-color:#ffffff;stop-opacity:0.15686275" />
      <stop
         id="stop4164"
         offset="1"
         style="stop-color:#ffffff;stop-opacity:0.39215687" />
    </linearGradient>
    <radialGradient
       gradientTransform="matrix(-3.8754434e-6,2.5370284,-2.6251103,-4.0099931e-6,2740.054,1021.7666)"
       gradientUnits="userSpaceOnUse"
       r="6.5"
       fy="1040.7628"
       fx="7.5321016"
       cy="1040.7628"
       cx="7.5321016"
       id="radialGradient4149"
       xlink:href="#linearGradient4235" />
    <linearGradient
       gradientUnits="userSpaceOnUse"
       y2="1050.4053"
       x2="8.2756891"
       y1="1038.3652"
       x1="8.2756891"
       id="linearGradient4166"
       xlink:href="#linearGradient4160" />
    <linearGradient
       id="linearGradient3767">
      <stop
         id="stop3769"
         offset="0"
         style="stop-color:#ffffff;stop-opacity:1;" />
      <stop
         style="stop-color:#ffffff;stop-opacity:0.23529412;"
         offset="0.37500218"
         id="stop3777" />
      <stop
         style="stop-color:#ffffff;stop-opacity:0.15686275;"
         offset="0.75000215"
         id="stop3775" />
      <stop
         id="stop3771"
         offset="1"
         style="stop-color:#ffffff;stop-opacity:0.39215687;" />
    </linearGradient>
    <linearGradient
       id="linearGradient4235">
      <stop
         style="stop-color:#ffcd7d;stop-opacity:1"
         offset="0"
         id="stop4237" />
      <stop
         style="stop-color:#e69141;stop-opacity:1"
         offset="1"
         id="stop4239" />
    </linearGradient>
    <radialGradient
       gradientTransform="matrix(-1.2621977e-7,0.51595456,-0.4088695,-1.0002319e-7,418.86238,1023.9869)"
       gradientUnits="userSpaceOnUse"
       r="21.5"
       fy="1004.3622"
       fx="33"
       cy="1004.3622"
       cx="33"
       id="radialGradient4281"
       xlink:href="#linearGradient4275" />
    <linearGradient
       id="linearGradient4275">
      <stop
         id="stop4277"
         offset="0"
         style="stop-color:#285555;stop-opacity:1" />
      <stop
         id="stop4279"
         offset="1"
         style="stop-color:#001e1e;stop-opacity:1" />
    </linearGradient>
    <linearGradient
       gradientUnits="userSpaceOnUse"
       y2="1048.3622"
       x2="8"
       y1="1040.3622"
       x1="8"
       id="linearGradient4273"
       xlink:href="#linearGradient3767" />
  </defs>
  <metadata
     id="metadata7">
    <rdf:RDF>
      <cc:Work
         rdf:about="">
        <dc:format>image/svg+xml</dc:format>
        <dc:type
           rdf:resource="http://purl.org/dc/dcmitype/StillImage" />
        <dc:title />
      </cc:Work>
    </rdf:RDF>
  </metadata>
  <g
     transform="translate(0,-1036.3622)"
     id="layer1">
    <rect
       y="1037.8622"
       x="1.5000002"
       height="13"
       width="13"
       id="rect4136"
       style="opacity:1;fill:url(#radialGradient4149);fill-opacity:1;stroke:none;stroke-width:1;stroke-linejoin:round;stroke-miterlimit:4;stroke-dasharray:none;stroke-opacity:0.39215686" />
    <rect
       style="opacity:0.6;fill:none;fill-opacity:1;stroke:#be6414;stroke-width:1;stroke-linejoin:round;stroke-miterlimit:4;stroke-dasharray:none;stroke-opacity:1"
       id="rect4146"
       width="13"
       height="13"
       x="1.5000002"
       y="1037.8622" />
    <rect
       style="opacity:0.4;fill:none;fill-opacity:1;stroke:url(#linearGradient4166);stroke-width:1;stroke-linejoin:round;stroke-miterlimit:4;stroke-dasharray:none;stroke-opacity:1"
       id="rect4148"
       width="11"
       height="11"
       x="2.4999995"
       y="1038.8621" />
    <rect
       style="fill:url(#radialGradient4281);fill-opacity:1;stroke:none;stroke-linejoin:round"
       id="rect4269"
       width="9"
       height="9"
       x="3.5"
       y="1039.8623" />
    <rect
       y="1039.8623"
       x="3.5"
       height="9"
       width="9"
       id="rect4178"
       style="fill:none;fill-opacity:1;stroke:#000000;stroke-linejoin:round;stroke-opacity:1;opacity:0.50000001" />
    <rect
       y="1040.8624"
       x="4.4999995"
       height="7"
       width="7"
       id="rect4263"
       style="fill:none;fill-opacity:1;stroke:url(#linearGradient4273);stroke-linejoin:round;opacity:0.15000001" />
    <path
       id="path4261"
       d="m 5,1042.3623 0,1 1,0 0,5 1,0 0,-5 2,0 0,4 a 1,1 0 0 0 0.2929688,0.707 A 1,1 0 0 0 10,1048.3623 l 1,0 0,-1 -1,0 0,-4 1,0 0,-1 -6,0 z"
       style="opacity:0.07;fill:#000000;fill-opacity:1;stroke:#000000;stroke-width:1;stroke-linecap:butt;stroke-linejoin:round;stroke-miterlimit:4;stroke-dasharray:none;stroke-opacity:1" />
    <path
       style="opacity:0.15000005;fill:#000000;fill-opacity:1;stroke:none;stroke-width:2;stroke-linecap:butt;stroke-linejoin:round;stroke-miterlimit:4;stroke-dasharray:none;stroke-opacity:1"
       d="m 5,1042.3623 0,1 1,0 0,5 1,0 0,-5 2,0 0,4 a 1,1 0 0 0 0.2929688,0.707 A 1,1 0 0 0 10,1048.3623 l 1,0 0,-1 -1,0 0,-4 1,0 0,-1 -6,0 z"
       id="path4259" />
    <path
       id="rect4248"
       d="m 5,1041.3623 0,1 1,0 0,5 1,0 0,-5 2,0 0,4 a 1,1 0 0 0 0.2929688,0.707 A 1,1 0 0 0 10,1047.3623 l 1,0 0,-1 -1,0 0,-4 1,0 0,-1 -6,0 z"
       style="opacity:1;fill:#ffffff;fill-opacity:1;stroke:none;stroke-width:2;stroke-linecap:butt;stroke-linejoin:round;stroke-miterlimit:4;stroke-dasharray:none;stroke-opacity:1" />
  </g>
</svg>
