<?xml version="1.0" encoding="UTF-8" standalone="no"?>
<!-- Created with Inkscape (http://www.inkscape.org/) -->

<svg
   xmlns:dc="http://purl.org/dc/elements/1.1/"
   xmlns:cc="http://creativecommons.org/ns#"
   xmlns:rdf="http://www.w3.org/1999/02/22-rdf-syntax-ns#"
   xmlns:svg="http://www.w3.org/2000/svg"
   xmlns="http://www.w3.org/2000/svg"
   xmlns:sodipodi="http://sodipodi.sourceforge.net/DTD/sodipodi-0.dtd"
   xmlns:inkscape="http://www.inkscape.org/namespaces/inkscape"
   id="svg7384"
   height="16"
   width="16"
   version="1.1"
   inkscape:version="0.91 r"
   sodipodi:docname="preferences-system-network.svg">
  <defs
     id="defs12" />
  <sodipodi:namedview
     pagecolor="#ffffff"
     bordercolor="#666666"
     borderopacity="1"
     objecttolerance="10"
     gridtolerance="10"
     guidetolerance="10"
     inkscape:pageopacity="0"
     inkscape:pageshadow="2"
     inkscape:window-width="1284"
     inkscape:window-height="866"
     id="namedview10"
     showgrid="false"
     inkscape:zoom="14.75"
     inkscape:cx="-3.6610169"
     inkscape:cy="8"
     inkscape:window-x="75"
     inkscape:window-y="34"
     inkscape:window-maximized="0"
     inkscape:current-layer="layer9" />
  <metadata
     id="metadata90">
    <rdf:RDF>
      <cc:Work
         rdf:about="">
        <dc:format>image/svg+xml</dc:format>
        <dc:type
           rdf:resource="http://purl.org/dc/dcmitype/StillImage" />
        <dc:title>Gnome Symbolic Icon Theme</dc:title>
      </cc:Work>
    </rdf:RDF>
  </metadata>
  <title
     id="title9167">Gnome Symbolic Icon Theme</title>
  <g
     id="layer9"
     transform="translate(-221 -177)"
     style="fill:#353945;fill-opacity:1">
    <path
       id="rect12689-2"
       style="color:#bebebe;text-indent:0pt;text-transform:none;opacity:1;fill:#353945;fill-opacity:1"
       d="m 225.75,177 c -0.9522,0 -1.75,0.7978 -1.75,1.75 l 0,4.5 c 0,0.26247 0.0485,0.52447 0.15625,0.75 l 10.688,0 c 0.10776,-0.22553 0.15625,-0.48753 0.15625,-0.75 l 0,-4.5 c 0,-0.9522 -0.7978,-1.75 -1.75,-1.75 l -7.5,0 z m 0.25,2 7,0 0,4 -7,0 z"
       inkscape:connector-curvature="0"
       sodipodi:nodetypes="sssccssscsccccc" />
    <path
       id="path4955-1"
       style="fill:#353945;fill-opacity:1"
       d="m29 209a1 1 0 1 1 -2 0 1 1 0 1 1 2 0z"
       transform="matrix(1.5,0,0,1.5,183.5,-127)" />
    <path
       inkscape:connector-curvature="0"
       d="m 233.09268,184.94241 c -0.32486,-0.059 -0.6669,-0.0455 -0.99404,-0.003 l 0.9759,1.72872 c 0.20088,0.35507 -0.0237,0.76283 -0.45022,1.00909 l -0.76991,0.44451 c -0.43052,0.23932 -0.91014,0.20778 -1.11067,-0.14747 l -0.97565,-1.72885 c -0.20685,0.25617 -0.39602,0.54042 -0.51415,0.84765 -0.56538,1.4706 0.23676,2.8917 1.79162,3.17415 0.32485,0.0591 0.66688,0.0455 0.99402,0.003 0.0263,-0.004 1.5184,2.76504 1.5184,2.76504 l 3.50484,0.062 -2.66726,-4.12967 c 0.20681,-0.25617 0.37073,-0.54378 0.48887,-0.85103 0.56534,-1.47056 -0.23679,-2.89167 -1.79161,-3.17413 z"
       id="path3908-6-6"
       style="color:#000000;font-style:normal;font-variant:normal;font-weight:normal;font-stretch:normal;font-size:medium;line-height:normal;font-family:Sans;-inkscape-font-specification:Sans;text-indent:0;text-align:start;text-decoration:none;text-decoration-line:none;letter-spacing:normal;word-spacing:normal;text-transform:none;direction:ltr;block-progression:tb;writing-mode:lr-tb;text-anchor:start;display:inline;overflow:visible;visibility:visible;fill:#353945;fill-opacity:1;fill-rule:nonzero;stroke:none;stroke-width:3;marker:none;enable-background:accumulate" />
  </g>
</svg>
