<?xml version="1.0" encoding="UTF-8" standalone="no"?>
<!-- Created with Inkscape (http://www.inkscape.org/) -->

<svg
   xmlns:dc="http://purl.org/dc/elements/1.1/"
   xmlns:cc="http://creativecommons.org/ns#"
   xmlns:rdf="http://www.w3.org/1999/02/22-rdf-syntax-ns#"
   xmlns:svg="http://www.w3.org/2000/svg"
   xmlns="http://www.w3.org/2000/svg"
   xmlns:xlink="http://www.w3.org/1999/xlink"
   xmlns:sodipodi="http://sodipodi.sourceforge.net/DTD/sodipodi-0.dtd"
   xmlns:inkscape="http://www.inkscape.org/namespaces/inkscape"
   width="16"
   height="16"
   viewBox="0 0 16 16"
   id="svg2"
   version="1.1"
   inkscape:version="0.91 r"
   sodipodi:docname="vlc-16-alt.svg">
  <defs
     id="defs4">
    <linearGradient
       inkscape:collect="always"
       id="linearGradient4293">
      <stop
         style="stop-color:#d7d7d7;stop-opacity:1;"
         offset="0"
         id="stop4295" />
      <stop
         style="stop-color:#ffffff;stop-opacity:1"
         offset="1"
         id="stop4297" />
    </linearGradient>
    <linearGradient
       inkscape:collect="always"
       id="linearGradient4260">
      <stop
         style="stop-color:#f02814;stop-opacity:1;"
         offset="0"
         id="stop4262" />
      <stop
         style="stop-color:#f02814;stop-opacity:0;"
         offset="1"
         id="stop4264" />
    </linearGradient>
    <linearGradient
       inkscape:collect="always"
       id="linearGradient4160">
      <stop
         style="stop-color:#ffffff;stop-opacity:1;"
         offset="0"
         id="stop4162" />
      <stop
         id="stop4168"
         offset="0.23621714"
         style="stop-color:#ffffff;stop-opacity:0.23529412" />
      <stop
         style="stop-color:#ffffff;stop-opacity:0.15686275"
         offset="0.73594797"
         id="stop4170" />
      <stop
         style="stop-color:#ffffff;stop-opacity:0.39215687"
         offset="1"
         id="stop4164" />
    </linearGradient>
    <linearGradient
       inkscape:collect="always"
       xlink:href="#linearGradient4160"
       id="linearGradient4166"
       x1="6"
       y1="1042.3625"
       x2="6"
       y2="1038.3625"
       gradientUnits="userSpaceOnUse"
       gradientTransform="translate(0,6.9996482)" />
    <linearGradient
       id="linearGradient3767">
      <stop
         style="stop-color:#ffffff;stop-opacity:1;"
         offset="0"
         id="stop3769" />
      <stop
         id="stop3777"
         offset="0.30000001"
         style="stop-color:#ffffff;stop-opacity:0.23529412;" />
      <stop
         id="stop3775"
         offset="0.69999999"
         style="stop-color:#ffffff;stop-opacity:0.15686275;" />
      <stop
         style="stop-color:#ffffff;stop-opacity:0.39215687;"
         offset="1"
         id="stop3771" />
    </linearGradient>
    <linearGradient
       id="linearGradient4648">
      <stop
         id="stop4650"
         offset="0"
         style="stop-color:#f55a0a;stop-opacity:1" />
      <stop
         id="stop4652"
         offset="1"
         style="stop-color:#ffb414;stop-opacity:1" />
    </linearGradient>
    <linearGradient
       inkscape:collect="always"
       xlink:href="#linearGradient4648"
       id="linearGradient4177"
       x1="8"
       y1="9"
       x2="8"
       y2="16"
       gradientUnits="userSpaceOnUse" />
    <linearGradient
       inkscape:collect="always"
       xlink:href="#linearGradient4260"
       id="linearGradient4266"
       x1="8"
       y1="14"
       x2="8"
       y2="12"
       gradientUnits="userSpaceOnUse" />
    <linearGradient
       gradientTransform="matrix(0.52844809,0,0,0.5,-0.44697775,1035.6122)"
       inkscape:collect="always"
       xlink:href="#linearGradient4648"
       id="linearGradient4312"
       x1="7.468998"
       y1="13.5"
       x2="24.5"
       y2="13.5"
       gradientUnits="userSpaceOnUse" />
    <linearGradient
       inkscape:collect="always"
       xlink:href="#linearGradient4293"
       id="linearGradient4299"
       x1="3.4992446"
       y1="10"
       x2="12.5"
       y2="10"
       gradientUnits="userSpaceOnUse" />
    <linearGradient
       inkscape:collect="always"
       xlink:href="#linearGradient4293"
       id="linearGradient4307"
       x1="4.8378906"
       y1="5.2420421"
       x2="11.177734"
       y2="5.2420421"
       gradientUnits="userSpaceOnUse" />
    <linearGradient
       inkscape:collect="always"
       xlink:href="#linearGradient3767"
       id="linearGradient4320"
       x1="8"
       y1="1.1021929"
       x2="8"
       y2="11"
       gradientUnits="userSpaceOnUse" />
  </defs>
  <sodipodi:namedview
     id="base"
     pagecolor="#ffffff"
     bordercolor="#666666"
     borderopacity="1.0"
     inkscape:pageopacity="0.0"
     inkscape:pageshadow="2"
     inkscape:zoom="14.028328"
     inkscape:cx="6.2067411"
     inkscape:cy="8.9762254"
     inkscape:document-units="px"
     inkscape:current-layer="layer1"
     showgrid="false"
     units="px"
     inkscape:window-width="1366"
     inkscape:window-height="713"
     inkscape:window-x="0"
     inkscape:window-y="30"
     inkscape:window-maximized="1"
     showguides="false">
    <inkscape:grid
       type="xygrid"
       id="grid4332" />
  </sodipodi:namedview>
  <metadata
     id="metadata7">
    <rdf:RDF>
      <cc:Work
         rdf:about="">
        <dc:format>image/svg+xml</dc:format>
        <dc:type
           rdf:resource="http://purl.org/dc/dcmitype/StillImage" />
        <dc:title />
      </cc:Work>
    </rdf:RDF>
  </metadata>
  <g
     inkscape:label="Livello 1"
     inkscape:groupmode="layer"
     id="layer1"
     transform="translate(0,-1036.3622)">
    <path
       style="opacity:1;fill:url(#linearGradient4177);fill-opacity:1;stroke:none;stroke-width:1;stroke-linejoin:round;stroke-miterlimit:4;stroke-dasharray:none;stroke-opacity:0.39215686"
       d="m 3.5,8.5 c -0.554,0 -0.8248098,0.4744 -1,1 l -1,3 0,1 c 0,0.554 0.446,1 1,1 l 11,0 c 0.554,0 1,-0.446 1,-1 l 0,-1 -1,-3 c -0.17519,-0.5256 -0.446,-1 -1,-1 z"
       transform="translate(0,1036.3622)"
       id="rect4136"
       inkscape:connector-curvature="0"
       sodipodi:nodetypes="scccsscccss" />
    <path
       sodipodi:nodetypes="scccsscccss"
       inkscape:connector-curvature="0"
       id="path4258"
       transform="translate(0,1036.3622)"
       d="m 3.5,8.5 c -0.554,0 -0.8248098,0.4744 -1,1 l -1,3 0,1 c 0,0.554 0.446,1 1,1 l 11,0 c 0.554,0 1,-0.446 1,-1 l 0,-1 -1,-3 c -0.17519,-0.5256 -0.446,-1 -1,-1 z"
       style="opacity:1;fill:url(#linearGradient4266);fill-opacity:1;stroke:none;stroke-width:1;stroke-linejoin:round;stroke-miterlimit:4;stroke-dasharray:none;stroke-opacity:0.39215686" />
    <path
       style="opacity:0.6;fill:none;fill-opacity:1;stroke:#c82800;stroke-width:1;stroke-linejoin:round;stroke-miterlimit:4;stroke-dasharray:none;stroke-opacity:1"
       d="m 3.5,8.5 c -0.554,0 -0.8248098,0.4744 -1,1 l -1,3 0,1 c 0,0.554 0.446,1 1,1 l 11,0 c 0.554,0 1,-0.446 1,-1 l 0,-1 -1,-3 c -0.17519,-0.5256 -0.446,-1 -1,-1 z"
       transform="translate(0,1036.3622)"
       id="rect4146"
       inkscape:connector-curvature="0"
       sodipodi:nodetypes="scccsscccss" />
    <path
       style="opacity:0.4;fill:none;fill-opacity:1;stroke:url(#linearGradient4166);stroke-width:1;stroke-linejoin:round;stroke-miterlimit:4;stroke-dasharray:none;stroke-opacity:1"
       d="m 3.5,1045.8621 9,0 0,0 1,3 0,0 -11.0000005,0 0,0 z"
       id="rect4148"
       inkscape:connector-curvature="0"
       sodipodi:nodetypes="cccccccc" />
    <path
       style="opacity:1;fill:url(#linearGradient4312);fill-opacity:1;stroke:none;stroke-width:1;stroke-linecap:butt;stroke-linejoin:round;stroke-miterlimit:4;stroke-dasharray:none;stroke-opacity:1"
       d="m 6.5,1037.8622 -2.9836171,8.75 c -0.2241094,0.6572 2.0110515,1.25 4.4918089,1.25 2.4807572,0 4.7156812,-0.597 4.4918092,-1.25 L 9.5,1037.8622 c -0.2852774,-0.6727 -0.9262054,-1 -1.5,-1 -0.5732219,0 -1.2745869,0.3635 -1.5,1 z"
       id="path4299"
       inkscape:connector-curvature="0"
       sodipodi:nodetypes="cssscsc" />
    <path
       style="opacity:1;fill:url(#linearGradient4299);fill-opacity:1;stroke:none;stroke-width:1;stroke-linecap:butt;stroke-linejoin:miter;stroke-miterlimit:4;stroke-dasharray:none;stroke-opacity:1"
       d="M 11.820312 8.5175781 C 9.0135524 9.4362672 6.8216023 9.3993071 4.1953125 8.5195312 L 3.515625 10.25 C 3.4297543 10.49377 3.6878831 10.730117 4.171875 10.929688 C 4.1735772 10.930383 4.1760266 10.930946 4.1777344 10.931641 C 4.1792769 10.932273 4.1800936 10.932962 4.1816406 10.933594 C 4.3435628 10.999205 4.5289108 11.060285 4.7363281 11.117188 C 4.9474726 11.175112 5.1803135 11.228661 5.4296875 11.275391 C 5.6255013 11.312069 5.8380728 11.342591 6.0527344 11.371094 C 6.1117326 11.378963 6.1644109 11.38928 6.2246094 11.396484 C 6.2252798 11.396564 6.225892 11.396405 6.2265625 11.396484 C 6.5046038 11.429721 6.7936157 11.454929 7.0917969 11.472656 C 7.3907019 11.490281 7.6970248 11.5 8.0078125 11.5 C 10.48857 11.5 12.5 10.9403 12.5 10.25 L 11.820312 8.5175781 z "
       transform="translate(0,1036.3622)"
       id="rect4283" />
    <path
       style="opacity:1;fill:url(#linearGradient4307);fill-opacity:1;stroke:none;stroke-width:1;stroke-linecap:butt;stroke-linejoin:miter;stroke-miterlimit:4;stroke-dasharray:none;stroke-opacity:1"
       d="M 10.272,3.6074219 C 9.0758645,4.0482409 6.8769581,4.0541237 5.75,3.609 L 4.874,6.1054688 c 1.7427533,0.5483275 4.4423058,0.6158639 6.264,0.00781 z"
       transform="translate(0,1036.3622)"
       id="rect4285"
       inkscape:connector-curvature="0"
       sodipodi:nodetypes="ccccc" />
    <path
       style="opacity:0.4;fill:none;fill-opacity:1;stroke:url(#linearGradient4320);stroke-width:1;stroke-linecap:butt;stroke-linejoin:miter;stroke-miterlimit:4;stroke-dasharray:none;stroke-opacity:1"
       d="m 7.5,1.7 -3,7.8 c -0.1982582,0.515471 1.5670034,1 3.5,1 1.9329966,0 3.698259,-0.484527 3.5,-1 L 8.5,1.7 C 8.3343569,1.4814687 7.6674948,1.4843633 7.5,1.7 Z"
       transform="translate(0,1036.3622)"
       id="path4309"
       inkscape:connector-curvature="0"
       sodipodi:nodetypes="cssscc" />
    <path
       sodipodi:nodetypes="cssscsc"
       inkscape:connector-curvature="0"
       id="path4169"
       d="m 6.5,1037.8622 -2.9836171,8.75 c -0.2241096,0.6572 2.0110515,1.25 4.4918089,1.25 2.4807572,0 4.7156812,-0.597 4.4918092,-1.25 L 9.5,1037.8622 c -0.2852774,-0.6727 -0.9392538,-1.0119 -1.5,-1 -0.5733572,0.012 -1.2745869,0.3635 -1.5,1 z"
       style="opacity:0.6;fill:none;fill-opacity:1;stroke:#c82800;stroke-width:1;stroke-linecap:butt;stroke-linejoin:round;stroke-miterlimit:4;stroke-dasharray:none;stroke-opacity:1" />
  </g>
</svg>
