<?xml version="1.0" encoding="UTF-8" standalone="no"?>
<!-- Created with Inkscape (http://www.inkscape.org/) -->

<svg
   xmlns:dc="http://purl.org/dc/elements/1.1/"
   xmlns:cc="http://creativecommons.org/ns#"
   xmlns:rdf="http://www.w3.org/1999/02/22-rdf-syntax-ns#"
   xmlns:svg="http://www.w3.org/2000/svg"
   xmlns="http://www.w3.org/2000/svg"
   xmlns:xlink="http://www.w3.org/1999/xlink"
   xmlns:sodipodi="http://sodipodi.sourceforge.net/DTD/sodipodi-0.dtd"
   xmlns:inkscape="http://www.inkscape.org/namespaces/inkscape"
   version="1.1"
   width="16"
   height="16"
   id="svg3173"
   inkscape:version="0.48.4 r9939"
   sodipodi:docname="wine.svg">
  <sodipodi:namedview
     pagecolor="#ffffff"
     bordercolor="#666666"
     borderopacity="1"
     objecttolerance="10"
     gridtolerance="10"
     guidetolerance="10"
     inkscape:pageopacity="0"
     inkscape:pageshadow="2"
     inkscape:window-width="1593"
     inkscape:window-height="863"
     id="namedview35"
     showgrid="false"
     inkscape:zoom="14.75"
     inkscape:cx="-14.237288"
     inkscape:cy="8"
     inkscape:window-x="165"
     inkscape:window-y="298"
     inkscape:window-maximized="0"
     inkscape:current-layer="layer1" />
  <defs
     id="defs3175">
    <linearGradient
       x1="19.874987"
       y1="44.520065"
       x2="19.874987"
       y2="5.2502403"
       id="linearGradient3293-7"
       xlink:href="#linearGradient3707-319-631-407-1-846-0-8"
       gradientUnits="userSpaceOnUse"
       gradientTransform="matrix(0.33333341,0,0,0.33333341,1.5e-7,-0.3333374)" />
    <linearGradient
       id="linearGradient3707-319-631-407-1-846-0-8">
      <stop
         id="stop3788-3-4"
         style="stop-color:#365a7c;stop-opacity:1"
         offset="0" />
      <stop
         id="stop3790-0-5"
         style="stop-color:#5ea1ca;stop-opacity:1"
         offset="1" />
    </linearGradient>
    <linearGradient
       x1="16.626165"
       y1="15.298182"
       x2="20.054544"
       y2="24.627615"
       id="linearGradient3155"
       xlink:href="#linearGradient8265-821-176-38-919-66-249-7-7"
       gradientUnits="userSpaceOnUse"
       gradientTransform="matrix(0.2605204,0,0,0.43374453,1.7353306,-0.4776394)" />
    <linearGradient
       id="linearGradient8265-821-176-38-919-66-249-7-7">
      <stop
         id="stop2687-1-9"
         style="stop-color:#ffffff;stop-opacity:1"
         offset="0" />
      <stop
         id="stop2689-5-4"
         style="stop-color:#ffffff;stop-opacity:0"
         offset="1" />
    </linearGradient>
    <linearGradient
       x1="23.99999"
       y1="4.999989"
       x2="23.99999"
       y2="43"
       id="linearGradient3079-9"
       xlink:href="#linearGradient3924-4-8"
       gradientUnits="userSpaceOnUse"
       gradientTransform="matrix(0.2972973,0,0,0.2972973,0.8648665,0.86486712)" />
    <linearGradient
       id="linearGradient3924-4-8">
      <stop
         id="stop3926-0-4"
         style="stop-color:#ffffff;stop-opacity:1"
         offset="0" />
      <stop
         id="stop3928-6-8"
         style="stop-color:#ffffff;stop-opacity:0.23529412"
         offset="0.06316455" />
      <stop
         id="stop3930-2-1"
         style="stop-color:#ffffff;stop-opacity:0.15686275"
         offset="0.95056331" />
      <stop
         id="stop3932-9-0"
         style="stop-color:#ffffff;stop-opacity:0.39215687"
         offset="1" />
    </linearGradient>
    <linearGradient
       id="linearGradient2867-449-88-871-390-598-476-591-434-148-57-177-0">
      <stop
         id="stop3750-4"
         style="stop-color:#90dbec;stop-opacity:1"
         offset="0" />
      <stop
         id="stop3752-4"
         style="stop-color:#55c1ec;stop-opacity:1"
         offset="0.26238" />
      <stop
         id="stop3754-4"
         style="stop-color:#3689e6;stop-opacity:1"
         offset="0.704952" />
      <stop
         id="stop3756-4"
         style="stop-color:#2b63a0;stop-opacity:1"
         offset="1" />
    </linearGradient>
    <linearGradient
       id="linearGradient3707-319-631-407-324-6">
      <stop
         id="stop3760-3"
         style="stop-color:#320015;stop-opacity:1;"
         offset="0" />
      <stop
         id="stop3762-1"
         style="stop-color:#599ec9;stop-opacity:1"
         offset="1" />
    </linearGradient>
    <radialGradient
       cx="7.4956832"
       cy="8.4497671"
       r="19.99999"
       fx="7.4956832"
       fy="8.4497671"
       id="radialGradient3169"
       xlink:href="#linearGradient4041-7"
       gradientUnits="userSpaceOnUse"
       gradientTransform="matrix(0,0.77899685,-0.82408577,-1.4352095e-8,14.963371,-4.1449376)" />
    <linearGradient
       x1="24"
       y1="44"
       x2="24"
       y2="3.8990016"
       id="linearGradient3171"
       xlink:href="#linearGradient3707-319-631-407-324-6"
       gradientUnits="userSpaceOnUse"
       gradientTransform="matrix(0.33333341,0,0,0.33333341,1.5e-7,-2.92e-6)" />
    <radialGradient
       cx="7.4956832"
       cy="8.4497671"
       r="19.99999"
       fx="7.4956832"
       fy="8.4497671"
       id="radialGradient3164-608"
       xlink:href="#linearGradient3784-0-9-8"
       gradientUnits="userSpaceOnUse"
       gradientTransform="matrix(2.7399122e-8,3.2957553,-3.4865161,-6.0720391e-8,61.460404,-19.38241)" />
    <linearGradient
       id="linearGradient3784-0-9-8">
      <stop
         style="stop-color:#f34453;stop-opacity:1;"
         offset="0"
         id="stop3786-2-3-9" />
      <stop
         style="stop-color:#772953;stop-opacity:1;"
         offset="1"
         id="stop3788-0-7-1" />
    </linearGradient>
    <radialGradient
       r="19.99999"
       fy="8.4497671"
       fx="7.4956832"
       cy="8.4497671"
       cx="7.4956832"
       gradientTransform="matrix(2.7399122e-8,3.2957553,-3.4865161,-6.0720391e-8,0.91803112,-43.721393)"
       gradientUnits="userSpaceOnUse"
       id="radialGradient3116"
       xlink:href="#linearGradient3784-0-9-8"
       inkscape:collect="always" />
    <linearGradient
       x1="44.228275"
       y1="18.456329"
       x2="16.354654"
       y2="-9.4172926"
       id="linearGradient3241"
       xlink:href="#linearGradient3707-319-631-407-324-616-6-7"
       gradientUnits="userSpaceOnUse"
       gradientTransform="matrix(0.24382991,0.24614476,-0.24382991,0.24614476,-0.4482773,-0.5759493)" />
    <linearGradient
       id="linearGradient3707-319-631-407-324-616-6-7">
      <stop
         id="stop3246-7-4"
         style="stop-color:#505050;stop-opacity:1"
         offset="0" />
      <stop
         id="stop3248-3-8"
         style="stop-color:#8e8e8e;stop-opacity:1"
         offset="1" />
    </linearGradient>
    <linearGradient
       inkscape:collect="always"
       xlink:href="#linearGradient4041-7"
       id="linearGradient3864"
       x1="24.603905"
       y1="44.220779"
       x2="24.435072"
       y2="5.5714288"
       gradientUnits="userSpaceOnUse" />
    <linearGradient
       id="linearGradient4041-7">
      <stop
         style="stop-color:#94262f;stop-opacity:1;"
         offset="0"
         id="stop4043-8" />
      <stop
         style="stop-color:#b0212c;stop-opacity:1;"
         offset="1"
         id="stop4045-8" />
    </linearGradient>
    <linearGradient
       inkscape:collect="always"
       xlink:href="#linearGradient4041-7"
       id="linearGradient3804"
       x1="7.6440678"
       y1="14.101693"
       x2="7.677969"
       y2="2.2372868"
       gradientUnits="userSpaceOnUse" />
  </defs>
  <metadata
     id="metadata3178">
    <rdf:RDF>
      <cc:Work
         rdf:about="">
        <dc:format>image/svg+xml</dc:format>
        <dc:type
           rdf:resource="http://purl.org/dc/dcmitype/StillImage" />
        <dc:title></dc:title>
      </cc:Work>
    </rdf:RDF>
  </metadata>
  <g
     id="layer1">
    <path
       d="M 8.0000009,8.4746834 10.241381,10.737341 8.0000009,13 5.7586219,10.737342 z M 5.2413799,5.6898734 7.4827592,7.9525324 5.2413799,10.21519 3.0000006,7.9525324 z M 10.758621,5.7848134 13,8.0000044 10.758621,10.215196 8.5172415,8.0000054 z M 8.0000005,3.0000007 10.241379,5.2151914 8.0000005,7.4303824 5.7586212,5.2151924 z"
       inkscape:connector-curvature="0"
       id="rect4120-5"
       style="color:#000000;fill:#ffffff;fill-opacity:1;fill-rule:nonzero;stroke:none;stroke-width:1.70000005000000010;marker:none;visibility:visible;display:inline;overflow:visible;enable-background:accumulate" />
    <rect
       width="13.000003"
       height="13.000003"
       rx="1"
       ry="1"
       x="1.5"
       y="1.499997"
       id="rect5505-21"
       style="color:#000000;fill:url(#linearGradient3804);fill-opacity:1;fill-rule:nonzero;stroke:#320004;stroke-width:1;stroke-linecap:round;stroke-linejoin:round;stroke-miterlimit:4;stroke-opacity:1;stroke-dasharray:none;stroke-dashoffset:0;marker:none;visibility:visible;display:inline;overflow:visible;enable-background:accumulate" />
    <rect
       width="11"
       height="11"
       x="2.5"
       y="2.4999995"
       id="rect6741-0-3"
       style="opacity:0.5;fill:none;stroke:url(#linearGradient3079-9);stroke-width:1;stroke-linecap:round;stroke-linejoin:round;stroke-miterlimit:4;stroke-opacity:1;stroke-dasharray:none;stroke-dashoffset:0" />
    <path
       style="opacity:0.2;fill:#000000;fill-opacity:1;stroke:none;display:inline;enable-background:new"
       inkscape:connector-curvature="0"
       d="m 11.06783,4.409684 c 0,0 -0.172368,0.07815 -0.56817,0.407092 -0.484044,0.402146 -0.7837972,0.369727 -1.1379192,0.310358 l -0.0028,0.0028 c -0.06746,-0.0308 -0.135657,-0.05965 -0.204851,-0.08554 l 0,-0.0028 C 8.8616628,4.833328 8.6268748,4.644048 8.5689508,4.0174 c -0.04739,-0.512239 -0.1139,-0.689654 -0.1139,-0.689654 -0.192969,-0.08388 -0.455234,-0.08385 -0.455234,-0.08385 0,0 -0.262337,2.7e-5 -0.455158,0.08392 0,0 -0.06669,0.177266 -0.113954,0.689597 C 7.3727948,4.644032 7.137871,4.833237 6.845564,5.041605 l -4.88e-4,0.0035 c -0.06913,0.02585 -0.137134,0.05478 -0.204837,0.08554 l -0.0028,-0.0028 C 6.283344,5.187285 5.983481,5.219525 5.499415,4.817409 5.103759,4.488668 4.931272,4.410317 4.931272,4.410317 4.735962,4.487027 4.550557,4.672429 4.550557,4.672429 c 0,0 -0.18549,0.18549 -0.262505,0.381219 0,0 0.07833,0.172534 0.407051,0.568178 0.402139,0.4840364 0.369776,0.7840264 0.310452,1.1380094 l 0.0028,0.0028 c -0.03067,0.06753 -0.05965,0.135676 -0.08563,0.204766 l -0.0028,0 c -0.208167,0.292461 -0.397462,0.527251 -1.0240617,0.585239 -0.5122243,0.04732 -0.6897558,0.114051 -0.6897558,0.114051 -0.083815,0.193037 -0.083829,0.454927 -0.083829,0.454927 0,0 1.392e-4,0.262454 0.083968,0.455246 0,0 0.1772242,0.06676 0.6895483,0.113873 0.6265857,0.05798 0.8155727,0.293062 1.0240877,0.585252 l 0.0028,0 c 0.02592,0.0692 0.05485,0.137253 0.08552,0.20487 l -0.0028,0.0028 c 0.05958,0.354075 0.09176,0.6538886 -0.310339,1.1379036 -0.328726,0.395741 -0.4071,0.568492 -0.4071,0.568492 0.0773,0.195715 0.262517,0.380932 0.262517,0.380932 0,0 0.185554,0.185561 0.381217,0.262512 0,0 0.172474,-0.07807 0.56811,-0.407017 0.48408,-0.402083 0.783985,-0.36951 1.138002,-0.310407 l 0.0028,-0.0028 c 0.06774,0.03074 0.135697,0.05973 0.20487,0.08552 l -4.87e-4,0.0035 c 0.292512,0.208249 0.527258,0.397503 0.5852528,1.024083 0.04732,0.512253 0.114003,0.689838 0.114003,0.689838 0.193037,0.08367 0.454988,0.08379 0.454988,0.08379 0,0 0.262456,-7.1e-5 0.455173,-0.08407 0,0 0.06676,-0.177056 0.113941,-0.689471 0.05798,-0.626577 0.293144,-0.81565 0.585181,-1.024131 l -4.88e-4,-0.0035 c 0.06913,-0.02585 0.137198,-0.05491 0.204852,-0.08555 l 0.0028,0.0028 c 0.35406,-0.05959 0.6538597,-0.09174 1.1379257,0.310378 0.395656,0.328737 0.568387,0.407151 0.568387,0.407151 0.195749,-0.07738 0.380988,-0.262609 0.380988,-0.262609 0,0 0.185551,-0.185552 0.262524,-0.381239 0,0 -0.07807,-0.172485 -0.407095,-0.568144 -0.402136,-0.484036 -0.369543,-0.7839816 -0.310358,-1.1379376 l -0.0028,-0.0028 c 0.03074,-0.06774 0.05973,-0.135698 0.08554,-0.204837 l 0.0042,0 c 0.208251,-0.292427 0.397527,-0.527207 1.024131,-0.585202 0.512298,-0.04732 0.689898,-0.114032 0.689898,-0.114032 0.08366,-0.193052 0.08368,-0.455052 0.08368,-0.455052 0,0 -4.2e-5,-0.262336 -0.08386,-0.455234 0,0 -0.177295,-0.06669 -0.689646,-0.113899 -0.626639,-0.05791 -0.815734,-0.292847 -1.0242,-0.585142 l -0.0028,0 c -0.02585,-0.06913 -0.05464,-0.137244 -0.08554,-0.204841 l 0.0028,-0.0028 C 10.93503,6.4058954 10.90269,6.1059834 11.304809,5.62191 11.633551,5.226254 11.712041,5.053586 11.712041,5.053586 11.634801,4.857913 11.449399,4.672505 11.449399,4.672505 c 0,0 -0.18556,-0.185543 -0.381246,-0.262516 z M 9.6128918,9.7348664 c -0.89099,0.8909826 -2.3354968,0.8909976 -3.2264888,1.5e-5 -0.89099,-0.890992 -0.890975,-2.335499 1.5e-5,-3.226489 0.89097,-0.8909704 2.3354768,-0.8909824 3.2264668,8e-6 0.8909892,0.890982 0.8909772,2.335496 7e-6,3.226466 z"
       id="path3877" />
    <path
       id="path3095"
       d="m 11.06783,4.165781 c 0,0 -0.172368,0.07815 -0.56817,0.407093 C 10.015616,4.97502 9.7158628,4.9426 9.3617408,4.883232 l -0.0028,0.0028 c -0.06746,-0.0308 -0.135657,-0.05965 -0.204851,-0.08554 l 0,-0.0028 C 8.8616628,4.589426 8.6268748,4.400146 8.5689508,3.773497 c -0.04739,-0.512239 -0.1139,-0.689653 -0.1139,-0.689653 -0.192933,-0.083877 -0.455198,-0.08385 -0.455198,-0.08385 0,0 -0.262337,2.7e-5 -0.455158,0.08392 0,0 -0.06669,0.177265 -0.113954,0.689597 C 7.3728308,4.40013 7.137907,4.589335 6.8456,4.797703 l -4.88e-4,0.0035 c -0.06913,0.02585 -0.137134,0.05478 -0.204837,0.08554 l -0.0028,-0.0028 C 6.28338,4.943383 5.983517,4.975623 5.499451,4.573506 5.103795,4.244765 4.931308,4.166414 4.931308,4.166414 4.735998,4.243124 4.550593,4.428525 4.550593,4.428525 c 0,0 -0.18549,0.185491 -0.262505,0.38122 0,0 0.07833,0.172534 0.407051,0.568178 0.402139,0.484036 0.369776,0.7840264 0.310452,1.1380094 l 0.0028,0.0028 c -0.03067,0.06753 -0.05965,0.135676 -0.08563,0.204766 l -0.0028,0 c -0.208203,0.292493 -0.397498,0.527284 -1.0240977,0.585271 -0.5122243,0.04732 -0.6897558,0.114052 -0.6897558,0.114052 -0.083815,0.193005 -0.083829,0.454895 -0.083829,0.454895 0,0 1.392e-4,0.262454 0.083968,0.455246 0,0 0.1772242,0.06676 0.6895483,0.113873 0.6265857,0.05798 0.8155727,0.293061 1.0240877,0.585251 l 0.0028,0 c 0.02592,0.0692 0.05485,0.137254 0.08552,0.204871 l -0.0028,0.0028 c 0.05958,0.354075 0.09176,0.65389 -0.310339,1.1379036 -0.328726,0.395742 -0.4071,0.568493 -0.4071,0.568493 0.0773,0.195714 0.262517,0.380931 0.262517,0.380931 0,0 0.185554,0.185561 0.381217,0.262513 0,0 0.172474,-0.07807 0.56811,-0.407018 0.48408,-0.402082 0.783985,-0.369509 1.138002,-0.310407 l 0.0028,-0.0028 c 0.06774,0.03073 0.135697,0.05973 0.20487,0.08552 l -4.87e-4,0.0035 c 0.292512,0.208249 0.527258,0.397502 0.5852528,1.024083 0.04732,0.512253 0.114003,0.689838 0.114003,0.689838 0.193053,0.08366 0.455004,0.08379 0.455004,0.08379 0,0 0.262456,-7.1e-5 0.455173,-0.08407 0,0 0.06676,-0.177056 0.113941,-0.689471 0.05798,-0.626577 0.293144,-0.81565 0.585181,-1.024131 l -4.88e-4,-0.0035 c 0.06913,-0.02585 0.137198,-0.05491 0.204852,-0.08555 l 0.0028,0.0028 c 0.35406,-0.05959 0.6538597,-0.09174 1.1379257,0.310378 0.395656,0.328736 0.568387,0.407151 0.568387,0.407151 0.195749,-0.07738 0.380988,-0.26261 0.380988,-0.26261 0,0 0.185551,-0.185551 0.262524,-0.381239 0,0 -0.07807,-0.172485 -0.407095,-0.568143 C 10.901305,9.8936824 10.933898,9.5937364 10.993083,9.2397804 l -0.0028,-0.0028 c 0.03074,-0.06774 0.05972,-0.135698 0.08554,-0.204837 l 0.0042,0 c 0.208251,-0.292426 0.397527,-0.527207 1.024131,-0.585202 0.512298,-0.04732 0.689898,-0.114031 0.689898,-0.114031 0.08365,-0.193054 0.08367,-0.455054 0.08367,-0.455054 0,0 -4.2e-5,-0.262336 -0.08386,-0.455234 0,0 -0.177295,-0.06669 -0.689646,-0.1139 -0.626639,-0.05791 -0.815734,-0.292846 -1.0242,-0.585141 l -0.0028,0 c -0.02585,-0.06913 -0.05464,-0.137244 -0.08554,-0.204841 l 0.0028,-0.0028 C 10.935036,6.1619924 10.902696,5.86208 11.304815,5.378007 11.633557,4.982351 11.712047,4.809683 11.712047,4.809683 11.634807,4.61401 11.449405,4.428602 11.449405,4.428602 c 0,0 -0.18556,-0.185544 -0.381246,-0.262517 z M 9.6128918,9.4909644 c -0.89099,0.8909816 -2.3354968,0.8909966 -3.2264888,1.5e-5 -0.89099,-0.890992 -0.890975,-2.335499 1.5e-5,-3.226489 0.89097,-0.8909704 2.3354768,-0.8909824 3.2264668,7e-6 0.8909892,0.890983 0.8909772,2.335497 7e-6,3.226467 z"
       inkscape:connector-curvature="0"
       style="fill:#ffffff;fill-opacity:1;stroke:none;display:inline;enable-background:new" />
  </g>
</svg>
