<?xml version="1.0" encoding="UTF-8" standalone="no"?>
<!-- Created with Inkscape (http://www.inkscape.org/) -->

<svg
   xmlns:dc="http://purl.org/dc/elements/1.1/"
   xmlns:cc="http://creativecommons.org/ns#"
   xmlns:rdf="http://www.w3.org/1999/02/22-rdf-syntax-ns#"
   xmlns:svg="http://www.w3.org/2000/svg"
   xmlns="http://www.w3.org/2000/svg"
   xmlns:xlink="http://www.w3.org/1999/xlink"
   xmlns:sodipodi="http://sodipodi.sourceforge.net/DTD/sodipodi-0.dtd"
   xmlns:inkscape="http://www.inkscape.org/namespaces/inkscape"
   width="24"
   height="24"
   id="svg9148"
   version="1.1"
   inkscape:version="0.48.0 r9654"
   sodipodi:docname="Nuevo documento 57">
  <defs
     id="defs9150">
    <radialGradient
       inkscape:collect="always"
       xlink:href="#linearGradient8838-2-1-5-9"
       id="radialGradient4835-7-3-8-29"
       gradientUnits="userSpaceOnUse"
       gradientTransform="matrix(4.6104139,0,0,2.0085789,-215.76673,101.03228)"
       cx="62.625"
       cy="4.625"
       fx="62.625"
       fy="4.625"
       r="10.625" />
    <linearGradient
       id="linearGradient8838-2-1-5-9">
      <stop
         id="stop8840-4-19-3-0"
         style="stop-color:#000000;stop-opacity:1"
         offset="0" />
      <stop
         id="stop8842-5-1-4-4"
         style="stop-color:#000000;stop-opacity:0"
         offset="1" />
    </linearGradient>
    <radialGradient
       inkscape:collect="always"
       xlink:href="#linearGradient4933-1-6-6-9"
       id="radialGradient4837-4-3-7-7"
       gradientUnits="userSpaceOnUse"
       gradientTransform="matrix(1.659483,0.01339134,-0.01029058,1.5925239,114.38349,-41.729075)"
       cx="-171.8835"
       cy="72.793999"
       fx="-171.8835"
       fy="72.793999"
       r="22.289658" />
    <linearGradient
       id="linearGradient4933-1-6-6-9">
      <stop
         style="stop-color:#ffffff;stop-opacity:1"
         offset="0"
         id="stop4935-6-9-7-9" />
      <stop
         id="stop4943-8-1-8-2"
         offset="0.39820078"
         style="stop-color:#ebebeb;stop-opacity:1" />
      <stop
         id="stop4941-04-34-9-4"
         offset="0.61794829"
         style="stop-color:#b5b5b5;stop-opacity:1" />
      <stop
         style="stop-color:#efefef;stop-opacity:1"
         offset="1"
         id="stop4937-8-9-7-0" />
    </linearGradient>
    <linearGradient
       inkscape:collect="always"
       xlink:href="#linearGradient5035-3-1-7-9"
       id="linearGradient4839-8-8-4-1"
       gradientUnits="userSpaceOnUse"
       x1="-171.10748"
       y1="27.172562"
       x2="-171.10748"
       y2="105.51175" />
    <linearGradient
       inkscape:collect="always"
       id="linearGradient5035-3-1-7-9">
      <stop
         style="stop-color:#ffffff;stop-opacity:1;"
         offset="0"
         id="stop5037-5-79-7-1" />
      <stop
         style="stop-color:#ffffff;stop-opacity:0;"
         offset="1"
         id="stop5039-2-3-1-0" />
    </linearGradient>
    <linearGradient
       inkscape:collect="always"
       xlink:href="#linearGradient8005-7-3-1-7"
       id="linearGradient7504-9"
       gradientUnits="userSpaceOnUse"
       gradientTransform="matrix(1.3548708,0,0,1.3868367,-14.27168,-19.35959)"
       x1="46.80846"
       y1="16.687328"
       x2="65.76947"
       y2="87.928337" />
    <linearGradient
       id="linearGradient8005-7-3-1-7">
      <stop
         id="stop8007-4-2-9-5"
         style="stop-color:#357cc7;stop-opacity:1"
         offset="0" />
      <stop
         id="stop8009-7-65-3-4"
         style="stop-color:#6593c6;stop-opacity:1"
         offset="1" />
    </linearGradient>
    <radialGradient
       inkscape:collect="always"
       xlink:href="#linearGradient8033-6-2-7-9"
       id="radialGradient5254-9-7-7"
       gradientUnits="userSpaceOnUse"
       gradientTransform="matrix(0.19963233,0,0,3.9083992,44.199799,-206.13803)"
       cx="48.17165"
       cy="77.798073"
       fx="48.17165"
       fy="77.798073"
       r="15.495689" />
    <linearGradient
       id="linearGradient8033-6-2-7-9">
      <stop
         id="stop8035-5-3-2-0"
         style="stop-color:#ffffff;stop-opacity:1"
         offset="0" />
      <stop
         id="stop8037-7-7-3-5"
         style="stop-color:#ffffff;stop-opacity:0"
         offset="1" />
    </linearGradient>
    <radialGradient
       inkscape:collect="always"
       xlink:href="#linearGradient8053-9-4-2-9"
       id="radialGradient4845-6-8-4-2"
       gradientUnits="userSpaceOnUse"
       gradientTransform="matrix(1.9425153,-1.3444647,0.93891928,1.4775107,-129.29078,75.992251)"
       cx="76.367531"
       cy="78"
       fx="76.367531"
       fy="78"
       r="2.767844" />
    <linearGradient
       id="linearGradient8053-9-4-2-9">
      <stop
         id="stop8055-7-7-4-9"
         style="stop-color:#ffffff;stop-opacity:1"
         offset="0" />
      <stop
         id="stop8057-0-3-0-3"
         style="stop-color:#ffffff;stop-opacity:0"
         offset="1" />
    </linearGradient>
    <linearGradient
       inkscape:collect="always"
       xlink:href="#linearGradient5577-2-3-4-7"
       id="linearGradient4847-3-6-1-7"
       gradientUnits="userSpaceOnUse"
       gradientTransform="matrix(1.8063795,0,0,1.8004131,-18.046631,-20.56244)"
       x1="32.429935"
       y1="21.016321"
       x2="41.986534"
       y2="20.332947" />
    <linearGradient
       inkscape:collect="always"
       id="linearGradient5577-2-3-4-7">
      <stop
         style="stop-color:#ffffff;stop-opacity:1;"
         offset="0"
         id="stop5579-3-6-8-4" />
      <stop
         style="stop-color:#ffffff;stop-opacity:0;"
         offset="1"
         id="stop5581-8-9-7-4" />
    </linearGradient>
    <radialGradient
       r="2.767844"
       fy="78"
       fx="76.367531"
       cy="78"
       cx="76.367531"
       gradientTransform="matrix(1.406045,-0.97315983,0.67961506,1.0694621,-121.57572,4.7178489)"
       gradientUnits="userSpaceOnUse"
       id="radialGradient7566"
       xlink:href="#linearGradient8053-9-4-2-9"
       inkscape:collect="always" />
    <linearGradient
       id="linearGradient9128">
      <stop
         id="stop9130"
         style="stop-color:#ffffff;stop-opacity:1"
         offset="0" />
      <stop
         id="stop9132"
         style="stop-color:#ffffff;stop-opacity:0"
         offset="1" />
    </linearGradient>
  </defs>
  <sodipodi:namedview
     id="base"
     pagecolor="#ffffff"
     bordercolor="#666666"
     borderopacity="1.0"
     inkscape:pageopacity="0.0"
     inkscape:pageshadow="2"
     inkscape:zoom="11.197802"
     inkscape:cx="28.178606"
     inkscape:cy="11.778061"
     inkscape:current-layer="layer1"
     showgrid="true"
     inkscape:grid-bbox="true"
     inkscape:document-units="px"
     fit-margin-top="0"
     fit-margin-left="0"
     fit-margin-right="0"
     fit-margin-bottom="0" />
  <metadata
     id="metadata9153">
    <rdf:RDF>
      <cc:Work
         rdf:about="">
        <dc:format>image/svg+xml</dc:format>
        <dc:type
           rdf:resource="http://purl.org/dc/dcmitype/StillImage" />
        <dc:title></dc:title>
      </cc:Work>
    </rdf:RDF>
  </metadata>
  <g
     id="layer1"
     inkscape:label="Layer 1"
     inkscape:groupmode="layer"
     transform="translate(12.178606,-3.7780604)">
    <g
       style="display:inline;enable-background:new"
       id="g4790-5-7-3-6"
       transform="matrix(0.18690909,0,0,0.18554094,-13.815576,3.3491563)">
      <path
         style="opacity:0.5;fill:url(#radialGradient4835-7-3-8-29);fill-opacity:1;fill-rule:evenodd;stroke:none;stroke-width:1;marker:none;visibility:visible;display:inline;overflow:visible;enable-background:new"
         id="path8836-2-2-2-4"
         d="m 121.94606,110.32197 c 0,11.7864 -21.93161,21.34118 -48.98564,21.34118 -27.054023,0 -48.985647,-9.55478 -48.985647,-21.34118 0,-11.786423 21.931624,-21.341186 48.985647,-21.341186 27.05403,0 48.98564,9.554763 48.98564,21.341186 l 0,0 0,0 z"
         inkscape:connector-curvature="0" />
      <path
         transform="matrix(2.1037191,0,0,1.9945711,429.54841,-68.066212)"
         d="m -147.88634,74.465996 c 0,11.938885 -9.67838,21.617264 -21.61726,21.617264 -11.93889,0 -21.61726,-9.678379 -21.61726,-21.617264 0,-11.938885 9.67837,-21.617264 21.61726,-21.617264 11.93888,0 21.61726,9.678379 21.61726,21.617264 z"
         sodipodi:ry="21.617264"
         sodipodi:rx="21.617264"
         sodipodi:cy="74.465996"
         sodipodi:cx="-169.5036"
         id="path4163-5-0-6-1"
         style="color:#000000;fill:url(#radialGradient4837-4-3-7-7);fill-opacity:1;fill-rule:nonzero;stroke:#969696;stroke-width:2.6214788;stroke-miterlimit:4;stroke-opacity:1;stroke-dasharray:none;marker:none;visibility:visible;display:inline;overflow:visible;enable-background:accumulate"
         sodipodi:type="arc" />
      <path
         id="path4525-0-6-1-8-1-0"
         d="m 61.740905,68.249132 -12.649554,4.0625 0,34.281238 c 8.595061,0.79312 24.104887,1.22806 35.673739,-1.90625 5.934124,-1.60773 11.119706,-4.16556 14.494502,-7.968738 3.374798,-3.803176 5.029748,-8.827031 3.877138,-15.84375 -0.86582,-5.270749 -3.642924,-8.1326 -7.485853,-9.6875 -3.842922,-1.5549 -8.787596,-1.669029 -13.659426,-1.09375 -9.743659,1.150558 -19.117231,5.03125 -19.117231,5.03125 -0.502182,0.192501 -1.122631,-0.252313 -1.133315,-0.8125 z m 18.341805,9.03125 c 2.423098,0.01362 4.733473,0.256843 6.620945,1.25 1.887471,0.993157 3.298475,2.834227 3.698185,5.53125 0.597881,4.034169 -1.000196,7.220475 -3.608713,9.46875 -2.608518,2.248275 -6.202797,3.663478 -9.81212,4.625 -7.218649,1.923048 -14.64362,1.937498 -14.64362,1.937498 -0.436025,-0.005 -0.830671,-0.418127 -0.835074,-0.874998 l 0,-17.375 c -0.0078,-0.359902 0.216753,-0.712925 0.536833,-0.84375 0,0 9.908351,-3.764465 18.043564,-3.71875 z"
         style="fill:none;stroke:#ffffff;stroke-width:5.36988354;stroke-opacity:1;display:inline;enable-background:new"
         inkscape:connector-curvature="0"
         sodipodi:nodetypes="cccssssscccsssssccccs" />
      <path
         id="path4525-0-5-4-8-3"
         d="m 86.988739,59.125044 c -1.836705,-0.01779 -3.735035,0.09677 -5.614384,0.3125 -10.023191,1.150558 -19.665679,5.03125 -19.665679,5.03125 a 0.86783937,0.88397186 0 0 1 -1.165828,-0.8125 l 0,-4.0625 -11.658281,4.0625 0,32.281253 c 8.841641,0.793114 23.442252,1.228054 35.343,-1.906253 6.104366,-1.60771 11.438715,-4.165574 14.91033,-7.96875 3.471613,-3.803176 5.174043,-8.827031 3.988363,-15.84375 -0.89065,-5.270749 -3.74743,-8.1326 -7.700608,-9.6875 -2.470731,-0.971813 -5.375738,-1.376602 -8.436913,-1.40625 z m -7.577883,7.5 c 2.492613,0.01362 4.86927,0.256843 6.81089,1.25 1.941621,0.993157 3.393104,2.834227 3.804282,5.53125 0.615033,4.034169 -1.028891,7.220475 -3.712243,9.46875 -2.683352,2.248275 -6.380747,3.663478 -10.093617,4.625 -7.425741,1.923044 -15.063726,1.9375 -15.063726,1.9375 a 0.86783937,0.88397186 0 0 1 -0.859031,-0.875 l 0,-17.375 a 0.86783937,0.88397186 0 0 1 0.552234,-0.84375 c 0,0 10.192609,-3.764465 18.561211,-3.71875 z"
         style="fill:none;stroke:#969696;stroke-width:5.36988354;stroke-opacity:1;display:inline;enable-background:new"
         inkscape:connector-curvature="0" />
      <path
         transform="matrix(2.1037191,0,0,1.9945711,429.54084,-68.071703)"
         d="m -169.5,55.46875 c -10.51929,0 -19,8.480719 -19,19 0,10.519281 8.48071,19 19,19 10.51929,0 19,-8.480719 19,-19 0,-10.519281 -8.48071,-19 -19,-19 z"
         id="path5033-1-5-4-3"
         style="color:#000000;fill:none;stroke:url(#linearGradient4839-8-8-4-1);stroke-width:2.6214788;stroke-miterlimit:4;stroke-opacity:1;stroke-dasharray:none;marker:none;visibility:visible;display:inline;overflow:visible;enable-background:accumulate"
         inkscape:original="M -169.5 52.84375 C -181.43889 52.84375 -191.125 62.529865 -191.125 74.46875 C -191.125 86.407635 -181.43889 96.09375 -169.5 96.09375 C -157.56111 96.09375 -147.875 86.407635 -147.875 74.46875 C -147.875 62.529865 -157.56111 52.84375 -169.5 52.84375 z "
         inkscape:radius="-2.6246591"
         sodipodi:type="inkscape:offset" />
      <path
         style="fill:url(#linearGradient7504-9);fill-opacity:1;fill-rule:evenodd;stroke:#2e629a;stroke-width:5.36988401;stroke-opacity:1"
         d="M 60.611326,4.6696073 C 45.639183,5.3644955 39.144989,8.6291829 34.257774,13.135198 c -4.491135,4.140831 -8.005682,9.480321 -15.199258,14.759712 6.89277,-0.332864 11.208283,-2.474559 14.954109,-4.815002 4.252397,-2.656956 8.038522,-5.504883 14.126729,-5.25559 0.43764,0.02045 0.823385,0.431281 0.827379,0.881177 l 0,82.736205 c 8.83126,0.79872 23.414729,1.23673 35.301502,-1.919705 6.097199,-1.619059 11.425285,-4.194979 14.892822,-8.025003 3.467543,-3.830023 5.167963,-8.889342 3.983673,-15.955594 -0.8896,-5.307956 -3.743025,-8.19001 -7.691557,-9.755886 -3.948529,-1.565876 -9.029087,-1.680811 -14.034798,-1.101471 -10.011424,1.15868 -19.64259,5.066767 -19.64259,5.066767 -0.515982,0.19386 -1.153481,-0.254094 -1.164459,-0.818236 z M 79.45718,75.217941 c 3.336494,-0.7059 5.540999,-0.640864 7.48034,0.359304 1.939341,1.000167 3.591301,3.82909 3.122368,7.311948 -0.468933,3.482858 0.157849,-0.07793 -2.522353,2.186218 -2.680202,2.264146 -7.558785,3.869243 -11.267296,4.837553 -7.417023,1.936619 -15.04604,1.951177 -15.04604,1.951177 -0.448007,-0.0046 -0.853498,-0.42108 -0.858022,-0.881177 l 0,-11.170316 c -0.008,-0.362442 0.22271,-0.717957 0.551586,-0.849706 0,0 10.341549,-2.010583 18.539417,-3.745001 z"
         id="path4525-1-3-1-1"
         inkscape:connector-curvature="0"
         sodipodi:nodetypes="cscscccssssscccsszssccccs" />
      <path
         style="opacity:0.3;fill:none;stroke:url(#radialGradient5254-9-7-7);stroke-width:3.75891876;stroke-linecap:butt;stroke-linejoin:miter;stroke-miterlimit:4;stroke-opacity:1;stroke-dasharray:none"
         id="path8023-8-5-1-7"
         d="m 54.516215,34.239114 0,62.929746 c 0,0 18.194758,2.434413 38.255646,-4.381965"
         inkscape:connector-curvature="0" />
      <path
         style="opacity:0.4;fill:#ffffff;fill-opacity:1;fill-rule:evenodd;stroke:none"
         id="path8045-9-4-7-4"
         d="m 92.41735,90.192365 c -7.7217,5.92015 -15.444852,4.332388 -15.444852,4.332388 0,0 8.963999,-0.807621 14.246402,-7.526719 0,0 4.373684,0.759911 1.19845,3.194331 z"
         inkscape:connector-curvature="0" />
      <path
         style="fill:url(#radialGradient4845-6-8-4-2);fill-opacity:1;fill-rule:nonzero;stroke:none"
         id="path8051-3-2-7-8"
         d="M 97.666607,84.843368 A 4.837115,6.5448914 52.589089 1 1 86.913449,92.285907 4.837115,6.5448914 52.589089 0 1 97.666607,84.843368 z"
         inkscape:connector-curvature="0" />
      <path
         sodipodi:nodetypes="cccc"
         style="opacity:0.4;fill:url(#linearGradient4847-3-6-1-7);fill-opacity:1;fill-rule:evenodd;stroke:none"
         id="path8061-3-5-0-6"
         d="M 57.608597,6.898364 C 30.554336,10.096755 42.94345,11.456194 28.901675,22.66627 38.918848,17.502087 34.81528,8.2631852 59.305734,9.8596601 z"
         inkscape:connector-curvature="0" />
      <path
         sodipodi:nodetypes="sssss"
         style="opacity:0.8;fill:url(#radialGradient7566);fill-opacity:1;fill-rule:nonzero;stroke:none"
         id="path8063-6-9-8-5"
         d="m 42.702133,11.124524 c 0.984568,1.549964 0.02663,4.243039 -2.010898,5.653261 -2.037523,1.410221 -4.787414,1.283434 -5.772529,-0.266152 -0.985282,-1.54985 -0.02748,-4.243592 2.010394,-5.654055 2.03787,-1.4104624 4.788296,-1.2832834 5.773033,0.266946 z"
         inkscape:connector-curvature="0" />
    </g>
  </g>
</svg>
