<?xml version="1.0" encoding="UTF-8" standalone="no"?>
<svg
   xmlns:dc="http://purl.org/dc/elements/1.1/"
   xmlns:cc="http://creativecommons.org/ns#"
   xmlns:rdf="http://www.w3.org/1999/02/22-rdf-syntax-ns#"
   xmlns:svg="http://www.w3.org/2000/svg"
   xmlns="http://www.w3.org/2000/svg"
   xmlns:xlink="http://www.w3.org/1999/xlink"
   xmlns:sodipodi="http://sodipodi.sourceforge.net/DTD/sodipodi-0.dtd"
   xmlns:inkscape="http://www.inkscape.org/namespaces/inkscape"
   version="1.1"
   width="24"
   height="24"
   id="svg7357"
   inkscape:version="0.91 r"
   sodipodi:docname="dconf-editor.svg">
  <sodipodi:namedview
     pagecolor="#ffffff"
     bordercolor="#666666"
     borderopacity="1"
     objecttolerance="10"
     gridtolerance="10"
     guidetolerance="10"
     inkscape:pageopacity="0"
     inkscape:pageshadow="2"
     inkscape:window-width="1635"
     inkscape:window-height="956"
     id="namedview23"
     showgrid="false"
     inkscape:zoom="42.738001"
     inkscape:cx="7.6128037"
     inkscape:cy="12"
     inkscape:current-layer="g4178"
     inkscape:window-x="75"
     inkscape:window-y="34"
     inkscape:window-maximized="0" />
  <defs
     id="defs7359">
    <linearGradient
       x1="23.99999"
       y1="4.999989"
       x2="23.99999"
       y2="43"
       id="linearGradient4224"
       xlink:href="#linearGradient3924-4-8"
       gradientUnits="userSpaceOnUse"
       gradientTransform="matrix(0.2972973,0,0,0.2972973,0.86486973,8.8648673)" />
    <linearGradient
       id="linearGradient3924-4-8">
      <stop
         id="stop3926-0-4"
         style="stop-color:#ffffff;stop-opacity:1"
         offset="0" />
      <stop
         id="stop3928-6-8"
         style="stop-color:#ffffff;stop-opacity:0.23529412"
         offset="0.06316455" />
      <stop
         id="stop3930-2-1"
         style="stop-color:#ffffff;stop-opacity:0.15686275"
         offset="0.95056331" />
      <stop
         id="stop3932-9-0"
         style="stop-color:#ffffff;stop-opacity:0.39215687"
         offset="1" />
    </linearGradient>
    <radialGradient
       gradientTransform="matrix(0,1.972873,-3.8866533,0,46.976844,-10.153909)"
       gradientUnits="userSpaceOnUse"
       xlink:href="#linearGradient2867-449-88-871-390-598-476-591-434-148-57-177-3-8"
       id="radialGradient5521-1"
       fy="9.9571075"
       fx="7.3198657"
       r="12.671875"
       cy="9.9571075"
       cx="7.8500957" />
    <linearGradient
       id="linearGradient2867-449-88-871-390-598-476-591-434-148-57-177-3-8">
      <stop
         id="stop3750-8-9"
         style="stop-color:#90dbec;stop-opacity:1"
         offset="0" />
      <stop
         id="stop3752-3-2"
         style="stop-color:#42baea;stop-opacity:1"
         offset="0.26238" />
      <stop
         id="stop3754-7-2"
         style="stop-color:#3689e6;stop-opacity:1"
         offset="0.704952" />
      <stop
         id="stop3756-9-3"
         style="stop-color:#2b63a0;stop-opacity:1"
         offset="1" />
    </linearGradient>
    <linearGradient
       id="linearGradient2867-449-88-871-390-598-476-591-434-148-57-177-641-289-620-227-114-444-680-744-4-1">
      <stop
         id="stop5430-5-0"
         style="stop-color:#737373;stop-opacity:1"
         offset="0" />
      <stop
         id="stop5432-2-0"
         style="stop-color:#636363;stop-opacity:1"
         offset="0.26238" />
      <stop
         id="stop5434-9-6"
         style="stop-color:#4b4b4b;stop-opacity:1"
         offset="0.704952" />
      <stop
         id="stop5436-2-7"
         style="stop-color:#3f3f3f;stop-opacity:1"
         offset="1" />
    </linearGradient>
  </defs>
  <metadata
     id="metadata7362">
    <rdf:RDF>
      <cc:Work
         rdf:about="">
        <dc:format>image/svg+xml</dc:format>
        <dc:type
           rdf:resource="http://purl.org/dc/dcmitype/StillImage" />
        <dc:title />
      </cc:Work>
    </rdf:RDF>
  </metadata>
  <g
     id="g4178"
     transform="translate(1.9317609,-6.1215327)">
    <path
       d="m 10.71482,12.246257 1.510063,1.359067 -5.0738334,6.704693 -3.926168,-3.382546 1.2986556,-1.721481 2.2952996,1.993289 3.8959832,-4.953022 z"
       id="path2922-6-6-0-9"
       style="color:#000000;display:inline;overflow:visible;visibility:visible;fill:#c10e0e;fill-opacity:1;fill-rule:nonzero;stroke:none;stroke-width:0.84323651;marker:none;enable-background:accumulate"
       inkscape:connector-curvature="0" />
  </g>
  <g
     transform="translate(-0.00331628,0.0023162)"
     id="g4165">
    <path
       d="m 706.22268,373.21721 -94.19124,-93.99999 c -8.98875,-8.9875 -21.22875,-13.19625 -33.08625,-12.6225 L 533.6177,221.26848 c 77.16874,-102.03123 69.32874,-247.956214 -23.61999,-340.9987 -101.64748,-101.64873 -266.59996,-101.64873 -368.24869,0.19125 -101.841233,101.839984 -101.841233,266.60246 -0.19125,368.25119 93.04373,93.04374 238.96746,100.78874 340.99869,23.62 l 45.32624,45.3275 c -0.57375,11.85624 3.63375,24.09624 12.6225,33.08624 l 93.99999,93.99873 c 16.82999,16.83 44.27374,16.83 61.10374,0 l 10.42375,-10.42375 c 17.02,-16.82999 17.02,-44.08249 0.19,-61.10373 z M 453.67647,192.38973 c -70.57124,70.57124 -185.22498,70.76249 -255.79621,0.19125 -70.57124,-70.57124 -70.57124,-185.03372 0.19125,-255.797459 70.57123,-70.571241 185.22622,-70.762491 255.79746,-0.19125 70.57124,70.571239 70.28374,185.034979 -0.1925,255.797459 z"
       id="path5598"
       inkscape:connector-curvature="0"
       style="fill:#353945;fill-opacity:1;stroke:#353945;stroke-width:16.3369329;stroke-miterlimit:4;stroke-dasharray:none;stroke-opacity:1"
       transform="matrix(0.0306055,0,0,0.0306055,1.0905968e-4,8.0020494)" />
    <g
       transform="matrix(0.02550458,0,0,0.02550458,1.9999963,8.6683735)"
       id="g11" />
    <g
       transform="matrix(0.02550458,0,0,0.02550458,1.9999963,8.6683735)"
       id="g13" />
    <g
       transform="matrix(0.02550458,0,0,0.02550458,1.9999963,8.6683735)"
       id="g15" />
    <g
       transform="matrix(0.02550458,0,0,0.02550458,1.9999963,8.6683735)"
       id="g17" />
    <g
       transform="matrix(0.02550458,0,0,0.02550458,1.9999963,8.6683735)"
       id="g19" />
    <g
       transform="matrix(0.02550458,0,0,0.02550458,1.9999963,8.6683735)"
       id="g21" />
    <g
       transform="matrix(0.02550458,0,0,0.02550458,1.9999963,8.6683735)"
       id="g23" />
    <g
       transform="matrix(0.02550458,0,0,0.02550458,1.9999963,8.6683735)"
       id="g25" />
    <g
       transform="matrix(0.02550458,0,0,0.02550458,1.9999963,8.6683735)"
       id="g27" />
    <g
       transform="matrix(0.02550458,0,0,0.02550458,1.9999963,8.6683735)"
       id="g29" />
    <g
       transform="matrix(0.02550458,0,0,0.02550458,1.9999963,8.6683735)"
       id="g31" />
    <g
       transform="matrix(0.02550458,0,0,0.02550458,1.9999963,8.6683735)"
       id="g33" />
    <g
       transform="matrix(0.02550458,0,0,0.02550458,1.9999963,8.6683735)"
       id="g35" />
    <g
       transform="matrix(0.02550458,0,0,0.02550458,1.9999963,8.6683735)"
       id="g37" />
    <g
       transform="matrix(0.02550458,0,0,0.02550458,1.9999963,8.6683735)"
       id="g39" />
  </g>
</svg>
