<?xml version="1.0" encoding="UTF-8" standalone="no"?>
<!-- Created with Inkscape (http://www.inkscape.org/) -->

<svg
   xmlns:dc="http://purl.org/dc/elements/1.1/"
   xmlns:cc="http://creativecommons.org/ns#"
   xmlns:rdf="http://www.w3.org/1999/02/22-rdf-syntax-ns#"
   xmlns:svg="http://www.w3.org/2000/svg"
   xmlns="http://www.w3.org/2000/svg"
   xmlns:xlink="http://www.w3.org/1999/xlink"
   xmlns:sodipodi="http://sodipodi.sourceforge.net/DTD/sodipodi-0.dtd"
   xmlns:inkscape="http://www.inkscape.org/namespaces/inkscape"
   width="24"
   height="24"
   viewBox="0 0 24 24"
   id="svg2"
   version="1.1"
   inkscape:version="0.91 r"
   sodipodi:docname="libreoffice-math-24.svg">
  <defs
     id="defs4">
    <linearGradient
       inkscape:collect="always"
       id="linearGradient4179">
      <stop
         style="stop-color:#000000;stop-opacity:1;"
         offset="0"
         id="stop4181" />
      <stop
         style="stop-color:#000000;stop-opacity:0;"
         offset="1"
         id="stop4183" />
    </linearGradient>
    <linearGradient
       inkscape:collect="always"
       id="linearGradient4169">
      <stop
         style="stop-color:#000000;stop-opacity:0"
         offset="0"
         id="stop4171" />
      <stop
         id="stop4177"
         offset="0.47755489"
         style="stop-color:#000000;stop-opacity:1" />
      <stop
         style="stop-color:#000000;stop-opacity:0;"
         offset="1"
         id="stop4173" />
    </linearGradient>
    <linearGradient
       inkscape:collect="always"
       id="linearGradient4153">
      <stop
         style="stop-color:#ffffff;stop-opacity:1;"
         offset="0"
         id="stop4155" />
      <stop
         id="stop4161"
         offset="0.23699637"
         style="stop-color:#ffffff;stop-opacity:0.23529412" />
      <stop
         style="stop-color:#ffffff;stop-opacity:0.15686275"
         offset="0.74583048"
         id="stop4163" />
      <stop
         style="stop-color:#ffffff;stop-opacity:0.39215687"
         offset="1"
         id="stop4157" />
    </linearGradient>
    <linearGradient
       inkscape:collect="always"
       xlink:href="#linearGradient4169"
       id="linearGradient4175"
       x1="-15.982143"
       y1="1039.7662"
       x2="-15.982143"
       y2="1042.7015"
       gradientUnits="userSpaceOnUse" />
    <radialGradient
       inkscape:collect="always"
       xlink:href="#linearGradient4179"
       id="radialGradient4185"
       cx="-22.865589"
       cy="1041.1704"
       fx="-22.865589"
       fy="1041.1704"
       r="1.5"
       gradientUnits="userSpaceOnUse"
       gradientTransform="matrix(-1.9988904,0,0,-1,-68.571395,2082.3408)" />
    <radialGradient
       inkscape:collect="always"
       xlink:href="#linearGradient4179"
       id="radialGradient4189"
       gradientUnits="userSpaceOnUse"
       gradientTransform="matrix(-1.9988904,0,0,-1,-38.857108,2082.3408)"
       cx="-22.865589"
       cy="1041.1704"
       fx="-22.865589"
       fy="1041.1704"
       r="1.5" />
    <linearGradient
       id="linearGradient3767">
      <stop
         style="stop-color:#ffffff;stop-opacity:1;"
         offset="0"
         id="stop3769" />
      <stop
         id="stop3777"
         offset="0.08994294"
         style="stop-color:#ffffff;stop-opacity:0.23529412;" />
      <stop
         id="stop3775"
         offset="0.87385589"
         style="stop-color:#ffffff;stop-opacity:0.15686275;" />
      <stop
         style="stop-color:#ffffff;stop-opacity:0.39215687;"
         offset="1"
         id="stop3771" />
    </linearGradient>
    <radialGradient
       inkscape:collect="always"
       xlink:href="#linearGradient4235-8"
       id="radialGradient4216"
       gradientUnits="userSpaceOnUse"
       gradientTransform="matrix(1.6040482e-7,0.92197977,-0.83806713,1.4580581e-7,844.55571,1000.5861)"
       cx="34.771698"
       cy="993.46204"
       fx="34.771698"
       fy="993.46204"
       r="27" />
    <linearGradient
       inkscape:collect="always"
       xlink:href="#linearGradient4153"
       id="linearGradient4196"
       gradientUnits="userSpaceOnUse"
       x1="11.648685"
       y1="1031.4045"
       x2="11.648685"
       y2="1049.4226"
       gradientTransform="translate(0,-1028.3622)" />
    <linearGradient
       id="linearGradient4235-8">
      <stop
         offset="0"
         style="stop-color:#c8d2dc;stop-opacity:1"
         id="stop4237-6" />
      <stop
         offset="1"
         style="stop-color:#828c96;stop-opacity:1"
         id="stop4243-5" />
    </linearGradient>
  </defs>
  <sodipodi:namedview
     id="base"
     pagecolor="#ffffff"
     bordercolor="#666666"
     borderopacity="1.0"
     inkscape:pageopacity="0.0"
     inkscape:pageshadow="2"
     inkscape:zoom="11.43878"
     inkscape:cx="13.467197"
     inkscape:cy="12.166707"
     inkscape:document-units="px"
     inkscape:current-layer="layer1"
     showgrid="true"
     units="px"
     inkscape:window-width="1366"
     inkscape:window-height="713"
     inkscape:window-x="0"
     inkscape:window-y="30"
     inkscape:window-maximized="1">
    <inkscape:grid
       type="xygrid"
       id="grid4282" />
  </sodipodi:namedview>
  <metadata
     id="metadata7">
    <rdf:RDF>
      <cc:Work
         rdf:about="">
        <dc:format>image/svg+xml</dc:format>
        <dc:type
           rdf:resource="http://purl.org/dc/dcmitype/StillImage" />
        <dc:title></dc:title>
      </cc:Work>
    </rdf:RDF>
  </metadata>
  <g
     inkscape:label="Livello 1"
     inkscape:groupmode="layer"
     id="layer1"
     transform="translate(0,-1028.3622)">
    <g
       id="g4191"
       transform="translate(26.857143,8.5892508)"
       style="opacity:0.40000001">
      <rect
         y="1039.7729"
         x="-22.857143"
         height="3"
         width="16"
         id="rect4165"
         style="opacity:1;fill:url(#linearGradient4175);fill-opacity:1;stroke:none;stroke-width:1;stroke-linejoin:round;stroke-miterlimit:4;stroke-dasharray:none;stroke-opacity:0.39215686" />
      <rect
         style="opacity:1;fill:url(#radialGradient4185);fill-opacity:1;stroke:none;stroke-width:1;stroke-linejoin:round;stroke-miterlimit:4;stroke-dasharray:none;stroke-opacity:0.39215686"
         id="rect4167"
         width="3"
         height="3"
         x="-25.857143"
         y="1039.7729" />
      <rect
         transform="scale(-1,1)"
         y="1039.7729"
         x="3.8571434"
         height="3"
         width="3"
         id="rect4187"
         style="opacity:1;fill:url(#radialGradient4189);fill-opacity:1;stroke:none;stroke-width:1;stroke-linejoin:round;stroke-miterlimit:4;stroke-dasharray:none;stroke-opacity:0.39215686" />
    </g>
    <path
       inkscape:connector-curvature="0"
       style="fill:url(#radialGradient4216);fill-opacity:1.0;stroke:none;stroke-linejoin:round"
       d="m 3.5360173,1030.8627 c -0.574146,0 -1.036364,0.4622 -1.036364,1.0364 l 0,16.9272 c 0,0.5742 0.462218,1.0364 1.036364,1.0364 l 16.9272717,0 c 0.574146,0 1.036364,-0.4622 1.036364,-1.0364 l 0,-10.0181 -7.945455,-7.9455 -10.0181807,0 z m 12.7818177,0 5.181818,5.1818 0,-4.1454 c 0,-0.5742 -0.462218,-1.0364 -1.036364,-1.0364 l -4.145454,0 z"
       id="rect4202" />
    <path
       id="path4189"
       transform="translate(0,1028.3622)"
       d="m 3.5,2.5 c -0.554,0 -1,0.446 -1,1 l 0,17 c 0,0.554 0.446,1 1,1 l 17,0 c 0.554,0 1,-0.446 1,-1 l 0,-10 -8,-8 z m 13,0 5,5 0,-4 c 0,-0.554 -0.446,-1 -1,-1 z"
       style="opacity:0.6;fill:none;fill-opacity:1;stroke:#505a64;stroke-width:1;stroke-linejoin:miter;stroke-miterlimit:4;stroke-dasharray:none;stroke-opacity:1"
       inkscape:connector-curvature="0"
       sodipodi:nodetypes="ssssssccsccssc" />
    <path
       style="opacity:0.4;fill:none;fill-opacity:1;stroke:url(#linearGradient4196);stroke-width:1;stroke-linejoin:miter;stroke-miterlimit:4;stroke-dasharray:none;stroke-opacity:1"
       d="M 3.5 3.5 L 3.5 20.5 L 20.5 20.5 L 20.5 10.900391 L 13.099609 3.5 L 3.5 3.5 z M 18.900391 3.5 L 20.5 5.0996094 L 20.5 3.5 L 18.900391 3.5 z "
       transform="translate(0,1028.3622)"
       id="rect4162" />
    <path
       inkscape:connector-curvature="0"
       style="color:#000000;font-style:normal;font-variant:normal;font-weight:normal;font-stretch:normal;font-size:medium;line-height:normal;font-family:sans-serif;text-indent:0;text-align:start;text-decoration:none;text-decoration-line:none;text-decoration-style:solid;text-decoration-color:#000000;letter-spacing:normal;word-spacing:normal;text-transform:none;direction:ltr;block-progression:tb;writing-mode:lr-tb;baseline-shift:baseline;text-anchor:start;white-space:normal;clip-rule:nonzero;display:inline;overflow:visible;visibility:visible;opacity:0.07;isolation:auto;mix-blend-mode:normal;color-interpolation:sRGB;color-interpolation-filters:linearRGB;solid-color:#000000;solid-opacity:1;fill:#000000;fill-opacity:1;fill-rule:evenodd;stroke:#000000;stroke-width:1px;stroke-linecap:butt;stroke-linejoin:round;stroke-miterlimit:4;stroke-dasharray:none;stroke-dashoffset:0;stroke-opacity:1;color-rendering:auto;image-rendering:auto;shape-rendering:auto;text-rendering:auto;enable-background:accumulate"
       d="m 12,1038.3602 0,0 -0.486328,0.3867 -1.5957032,6.7832 L 8.4746094,1041.204 8,1040.8622 l -1,0 0,1 0.6386719,0 1.8613281,5.5 1,0 1.896484,-8.002 3.603516,0 0,0.5 1,0 0,-1 -0.5,-0.5 -4.5,0 z m 1.429688,2.7461 -0.859376,0.5137 1.345704,2.2422 -1.345704,2.2441 0.859376,0.5137 1.070312,-1.7832 1.070312,1.7832 0.859376,-0.5137 -1.345704,-2.2441 1.345704,-2.2422 -0.859376,-0.5137 -1.070312,1.7832 -1.070312,-1.7832 z"
       id="path4206" />
    <path
       id="path4204"
       d="m 12,1038.3602 0,0 -0.486328,0.3867 -1.5957032,6.7832 L 8.4746094,1041.204 8,1040.8622 l -1,0 0,1 0.6386719,0 1.8613281,5.5 1,0 1.896484,-8.002 3.603516,0 0,0.5 1,0 0,-1 -0.5,-0.5 -4.5,0 z m 1.429688,2.7461 -0.859376,0.5137 1.345704,2.2422 -1.345704,2.2441 0.859376,0.5137 1.070312,-1.7832 1.070312,1.7832 0.859376,-0.5137 -1.345704,-2.2441 1.345704,-2.2422 -0.859376,-0.5137 -1.070312,1.7832 -1.070312,-1.7832 z"
       style="color:#000000;font-style:normal;font-variant:normal;font-weight:normal;font-stretch:normal;font-size:medium;line-height:normal;font-family:sans-serif;text-indent:0;text-align:start;text-decoration:none;text-decoration-line:none;text-decoration-style:solid;text-decoration-color:#000000;letter-spacing:normal;word-spacing:normal;text-transform:none;direction:ltr;block-progression:tb;writing-mode:lr-tb;baseline-shift:baseline;text-anchor:start;white-space:normal;clip-rule:nonzero;display:inline;overflow:visible;visibility:visible;opacity:0.15000019;isolation:auto;mix-blend-mode:normal;color-interpolation:sRGB;color-interpolation-filters:linearRGB;solid-color:#000000;solid-opacity:1;fill:#000000;fill-opacity:1;fill-rule:evenodd;stroke:none;stroke-width:1px;stroke-linecap:butt;stroke-linejoin:bevel;stroke-miterlimit:4;stroke-dasharray:none;stroke-dashoffset:0;stroke-opacity:1;color-rendering:auto;image-rendering:auto;shape-rendering:auto;text-rendering:auto;enable-background:accumulate"
       inkscape:connector-curvature="0" />
    <path
       style="color:#000000;font-style:normal;font-variant:normal;font-weight:normal;font-stretch:normal;font-size:medium;line-height:normal;font-family:sans-serif;text-indent:0;text-align:start;text-decoration:none;text-decoration-line:none;text-decoration-style:solid;text-decoration-color:#000000;letter-spacing:normal;word-spacing:normal;text-transform:none;direction:ltr;block-progression:tb;writing-mode:lr-tb;baseline-shift:baseline;text-anchor:start;white-space:normal;clip-rule:nonzero;display:inline;overflow:visible;visibility:visible;opacity:1;isolation:auto;mix-blend-mode:normal;color-interpolation:sRGB;color-interpolation-filters:linearRGB;solid-color:#000000;solid-opacity:1;fill:#ffffff;fill-opacity:1;fill-rule:evenodd;stroke:none;stroke-width:1px;stroke-linecap:butt;stroke-linejoin:bevel;stroke-miterlimit:4;stroke-dasharray:none;stroke-dashoffset:0;stroke-opacity:1;color-rendering:auto;image-rendering:auto;shape-rendering:auto;text-rendering:auto;enable-background:accumulate"
       d="M 12 8.9980469 L 12 9 L 11.513672 9.3867188 L 9.9179688 16.169922 L 8.4746094 11.841797 L 8 11.5 L 7 11.5 L 7 12.5 L 7.6386719 12.5 L 9.5 18 L 10.5 18 L 12.396484 9.9980469 L 16 9.9980469 L 16 10.498047 L 17 10.498047 L 17 9.4980469 L 16.5 8.9980469 L 12 8.9980469 z M 13.429688 11.744141 L 12.570312 12.257812 L 13.916016 14.5 L 12.570312 16.744141 L 13.429688 17.257812 L 14.5 15.474609 L 15.570312 17.257812 L 16.429688 16.744141 L 15.083984 14.5 L 16.429688 12.257812 L 15.570312 11.744141 L 14.5 13.527344 L 13.429688 11.744141 z "
       transform="translate(0,1028.3622)"
       id="path4190" />
  </g>
</svg>
