<?xml version="1.0" encoding="UTF-8" standalone="no"?>
<!-- Created with Inkscape (http://www.inkscape.org/) -->

<svg
   xmlns:dc="http://purl.org/dc/elements/1.1/"
   xmlns:cc="http://creativecommons.org/ns#"
   xmlns:rdf="http://www.w3.org/1999/02/22-rdf-syntax-ns#"
   xmlns:svg="http://www.w3.org/2000/svg"
   xmlns="http://www.w3.org/2000/svg"
   xmlns:sodipodi="http://sodipodi.sourceforge.net/DTD/sodipodi-0.dtd"
   xmlns:inkscape="http://www.inkscape.org/namespaces/inkscape"
   version="1.1"
   width="22"
   height="22"
   id="svg6995"
   inkscape:version="0.91 r13725"
   sodipodi:docname="bluetooth-active-symbolic.svg">
  <sodipodi:namedview
     pagecolor="#5d5d5d"
     bordercolor="#666666"
     borderopacity="1"
     objecttolerance="10"
     gridtolerance="10"
     guidetolerance="10"
     inkscape:pageopacity="0"
     inkscape:pageshadow="2"
     inkscape:window-width="1535"
     inkscape:window-height="876"
     id="namedview7"
     showgrid="false"
     inkscape:zoom="7.375"
     inkscape:cx="-15.186441"
     inkscape:cy="8"
     inkscape:window-x="65"
     inkscape:window-y="24"
     inkscape:window-maximized="1"
     inkscape:current-layer="svg6995" />
  <defs
     id="defs6997" />
  <metadata
     id="metadata7000">
    <rdf:RDF>
      <cc:Work
         rdf:about="">
        <dc:format>image/svg+xml</dc:format>
        <dc:type
           rdf:resource="http://purl.org/dc/dcmitype/StillImage" />
        <dc:title></dc:title>
      </cc:Work>
    </rdf:RDF>
  </metadata>
  <path
     style="color:#bebebe;display:inline;overflow:visible;visibility:visible;fill:#ffffff;fill-opacity:1;fill-rule:nonzero;stroke:none;stroke-width:1.82310748;marker:none;enable-background:accumulate"
     id="rect6885"
     inkscape:connector-curvature="0"
     d="m 10.499843,4 c -0.277,0 -0.5000001,0.223 -0.5000001,0.5 l 0,4.875 -1.7187498,-1.5 c -0.31288,-0.27345 -0.75785,-0.21912 -1.03125,0.09375 -0.2734,0.31288 -0.25038,0.78909 0.0625,1.0625 L 9.5623429,11 7.3123431,12.96875 c -0.31288,0.273401 -0.3359,0.749622 -0.0625,1.0625 0.2734,0.312878 0.71837,0.367151 1.03125,0.09375 l 1.7187498,-1.5 0,4.875 c 0,0.277 0.2230001,0.5 0.5000001,0.5 0.28242,0 0.4375,-0.01953 0.65625,-0.1875 l 3.53125,-3.15625 c 0.11231,-0.09991 0.18145,-0.24072 0.21875,-0.375 0.0142,-0.05132 0.0283,-0.10335 0.0312,-0.15625 0.004,-0.042 0.003,-0.083 0,-0.125 -0.006,-0.05361 -0.0136,-0.10455 -0.0312,-0.15625 -0.0385,-0.13396 -0.10556,-0.2761 -0.21875,-0.375 L 11.874843,11 l 2.8125,-2.46875 c 0.11319,-0.098907 0.18028,-0.2410493 0.21875,-0.375 0.0176,-0.051747 0.0254,-0.102645 0.0312,-0.15625 0.003,-0.041989 0.004,-0.083009 0,-0.125 -0.003,-0.052913 -0.017,-0.1049375 -0.0312,-0.15625 -0.0373,-0.1342859 -0.10644,-0.2750953 -0.21875,-0.375 L 11.156093,4.1875 C 10.956803,4.0265176 10.728643,4 10.499843,4 Z m 0.5,2.0625 2.09375,1.875 -2.09375,1.8125 z m 0,6.1875 2.09375,1.8125 -2.09375,1.875 z" />
</svg>
