<?xml version="1.0" encoding="UTF-8" standalone="no"?>
<svg
   xmlns:dc="http://purl.org/dc/elements/1.1/"
   xmlns:cc="http://creativecommons.org/ns#"
   xmlns:rdf="http://www.w3.org/1999/02/22-rdf-syntax-ns#"
   xmlns:svg="http://www.w3.org/2000/svg"
   xmlns="http://www.w3.org/2000/svg"
   xmlns:sodipodi="http://sodipodi.sourceforge.net/DTD/sodipodi-0.dtd"
   xmlns:inkscape="http://www.inkscape.org/namespaces/inkscape"
   height="22"
   width="22"
   version="1.1"
   viewBox="0 0 24 24"
   id="svg2"
   inkscape:version="0.91 r13725"
   sodipodi:docname="classicmenu-indicator.svg">
  <metadata
     id="metadata12">
    <rdf:RDF>
      <cc:Work
         rdf:about="">
        <dc:format>image/svg+xml</dc:format>
        <dc:type
           rdf:resource="http://purl.org/dc/dcmitype/StillImage" />
      </cc:Work>
    </rdf:RDF>
  </metadata>
  <defs
     id="defs10" />
  <sodipodi:namedview
     pagecolor="#c4c4c4"
     bordercolor="#666666"
     borderopacity="1"
     objecttolerance="10"
     gridtolerance="10"
     guidetolerance="10"
     inkscape:pageopacity="0"
     inkscape:pageshadow="2"
     inkscape:window-width="1600"
     inkscape:window-height="814"
     id="namedview8"
     showgrid="false"
     inkscape:zoom="1"
     inkscape:cx="-21.050847"
     inkscape:cy="12"
     inkscape:window-x="0"
     inkscape:window-y="24"
     inkscape:window-maximized="1"
     inkscape:current-layer="svg2" />
  <path
     d="m 11.991455,3.8181819 a 0.54550908,0.54550908 0 0 0 -0.377128,0.1598182 l -3.6583628,3.6583639 -0.545455,0 -0.225851,0 -0.09375,0 -0.545454,0 -1.090909,0 c -1.208727,0 -2.181818,0.973091 -2.181818,2.181818 l 0,2.181818 0,6.545454 c 0,1.208727 0.973091,2.181818 2.181818,2.181818 l 4.363636,0 8.7272728,0 c 1.208727,0 2.181818,-0.973091 2.181818,-2.181818 l 0,-8.727272 c 0,-1.208727 -0.973091,-2.181818 -2.181818,-2.181818 l -0.545455,0 -1.410545,0 -0.545455,0 -3.658363,-3.6583639 A 0.54550908,0.54550908 0 0 0 11.991455,3.8181819 Z M 6.5456372,9.818182 A 1.0909091,1.0909091 0 0 1 7.6365462,10.909091 1.0909091,1.0909091 0 0 1 6.5456372,12 1.0909091,1.0909091 0 0 1 5.4547282,10.909091 1.0909091,1.0909091 0 0 1 6.5456372,9.818182 Z m 4.3636358,0 5.454545,0 1.090909,0 c 0.604364,0 1.090909,0.486545 1.090909,1.090909 C 18.545636,11.513454 18.059091,12 17.454727,12 l -4.363636,0 -1.090909,0 -1.090909,0 c -0.604364,0 -1.0909088,-0.486546 -1.0909088,-1.090909 0,-0.604364 0.4865448,-1.090909 1.0909088,-1.090909 z m -4.3636358,3.272727 a 1.0909091,1.0909091 0 0 1 1.090909,1.090909 1.0909091,1.0909091 0 0 1 -1.090909,1.090909 1.0909091,1.0909091 0 0 1 -1.090909,-1.090909 1.0909091,1.0909091 0 0 1 1.090909,-1.090909 z m 4.3636358,0 1.090909,0 1.090909,0 4.363636,0 c 0.604364,0 1.090909,0.486545 1.090909,1.090909 0,0.604364 -0.486545,1.090909 -1.090909,1.090909 l -4.363636,0 -1.090909,0 -1.090909,0 c -0.604364,0 -1.0909088,-0.486545 -1.0909088,-1.090909 0,-0.604364 0.4865448,-1.090909 1.0909088,-1.090909 z m -4.3636358,3.272727 a 1.0909091,1.0909091 0 0 1 1.090909,1.090909 1.0909091,1.0909091 0 0 1 -1.090909,1.090909 1.0909091,1.0909091 0 0 1 -1.090909,-1.090909 1.0909091,1.0909091 0 0 1 1.090909,-1.090909 z m 4.3636358,0 1.090909,0 1.090909,0 4.363636,0 c 0.604364,0 1.090909,0.486546 1.090909,1.090909 0,0.604364 -0.486545,1.090909 -1.090909,1.090909 l -4.363636,0 -1.090909,0 -1.090909,0 c -0.604364,0 -1.0909088,-0.486545 -1.0909088,-1.090909 0,-0.604363 0.4865448,-1.090909 1.0909088,-1.090909 z"
     id="path6-3"
     inkscape:connector-curvature="0"
     style="fill:#ffffff;fill-opacity:1" />
</svg>
