<?xml version="1.0" encoding="UTF-8" standalone="no"?>
<!-- Created with Inkscape (http://www.inkscape.org/) -->

<svg
   xmlns:dc="http://purl.org/dc/elements/1.1/"
   xmlns:cc="http://creativecommons.org/ns#"
   xmlns:rdf="http://www.w3.org/1999/02/22-rdf-syntax-ns#"
   xmlns:svg="http://www.w3.org/2000/svg"
   xmlns="http://www.w3.org/2000/svg"
   xmlns:sodipodi="http://sodipodi.sourceforge.net/DTD/sodipodi-0.dtd"
   xmlns:inkscape="http://www.inkscape.org/namespaces/inkscape"
   width="22"
   height="22"
   viewBox="0 0 24.000001 24.000001"
   id="svg11288"
   version="1.1"
   inkscape:version="0.91 r13725"
   sodipodi:docname="copyq-normal.svg"
   inkscape:export-filename="/home/rafael/cut2.png"
   inkscape:export-xdpi="90"
   inkscape:export-ydpi="90">
  <defs
     id="defs11290" />
  <sodipodi:namedview
     id="base"
     pagecolor="#a0a0a0"
     bordercolor="#666666"
     borderopacity="1.0"
     inkscape:pageopacity="0"
     inkscape:pageshadow="2"
     inkscape:zoom="16.97"
     inkscape:cx="6.5109871"
     inkscape:cy="10.774531"
     inkscape:document-units="px"
     inkscape:current-layer="layer1"
     showgrid="true"
     units="px"
     showguides="true"
     inkscape:guide-bbox="true"
     inkscape:snap-grids="true"
     inkscape:window-width="1600"
     inkscape:window-height="814"
     inkscape:window-x="0"
     inkscape:window-y="24"
     inkscape:window-maximized="1">
    <inkscape:grid
       type="xygrid"
       id="grid11836" />
    <sodipodi:guide
       position="4.0000002,20.000001"
       orientation="0,1"
       id="guide11871" />
    <sodipodi:guide
       position="4.0000002,4.0000002"
       orientation="0,1"
       id="guide11873" />
    <sodipodi:guide
       position="4.0000002,24.000001"
       orientation="1,0"
       id="guide11875" />
    <sodipodi:guide
       position="20.000001,20.000001"
       orientation="1,0"
       id="guide11877" />
  </sodipodi:namedview>
  <metadata
     id="metadata11293">
    <rdf:RDF>
      <cc:Work
         rdf:about="">
        <dc:format>image/svg+xml</dc:format>
        <dc:type
           rdf:resource="http://purl.org/dc/dcmitype/StillImage" />
        <dc:title />
      </cc:Work>
    </rdf:RDF>
  </metadata>
  <g
     inkscape:label="Ebene 1"
     inkscape:groupmode="layer"
     id="layer1"
     transform="translate(0,-1028.3622)">
    <g
       transform="matrix(1.0909091,0,0,1.0909091,-1.6363633,-94.510207)"
       id="layer1-3"
       inkscape:label="Ebene 1">
      <path
         id="path11879-0"
         transform="translate(0,1028.3622)"
         d="M 8,4 A 3.5,3.5 0 0 0 4.5,7.5 3.5,3.5 0 0 0 8,11 3.5,3.5 0 0 0 11.5,7.5 3.5,3.5 0 0 0 8,4 Z M 8,6 A 1.4999999,1.4999999 0 0 1 9.5,7.5 1.4999999,1.4999999 0 0 1 8,9 1.4999999,1.4999999 0 0 1 6.5,7.5 1.4999999,1.4999999 0 0 1 8,6 Z"
         style="opacity:1;fill:#ffffff;fill-opacity:1;stroke:none;stroke-width:1.5;stroke-miterlimit:4;stroke-dasharray:none;stroke-opacity:1"
         inkscape:connector-curvature="0" />
      <path
         inkscape:connector-curvature="0"
         style="opacity:1;fill:#ffffff;fill-opacity:1;stroke:none;stroke-width:1.5;stroke-miterlimit:4;stroke-dasharray:none;stroke-opacity:1"
         d="m 16,1032.3622 a 3.5,3.5 0 0 0 -3.5,3.5 3.5,3.5 0 0 0 3.5,3.5 3.5,3.5 0 0 0 3.5,-3.5 3.5,3.5 0 0 0 -3.5,-3.5 z m 0,2 a 1.4999999,1.4999999 0 0 1 1.5,1.5 1.4999999,1.4999999 0 0 1 -1.5,1.5 1.4999999,1.4999999 0 0 1 -1.5,-1.5 1.4999999,1.4999999 0 0 1 1.5,-1.5 z"
         id="path11884-5" />
      <path
         id="path11890-8"
         transform="translate(0,1028.3622)"
         d="m 14.09375,8.6835938 c 0,0 -0.4723,0.2782961 -1.1875,0.7265624 0.459689,0.3006586 0.845266,0.5381082 1.355469,0.8925778 0.182563,0.126829 0.366442,0.262857 0.550781,0.392578 L 15.376953,10.095703 14.09375,8.6835938 Z M 9.0605469,12.023438 C 7.4873062,13.192973 6.0101272,14.458949 5.4394531,15.462891 3.9975072,17.99959 6.1132813,19.9375 6.1132812,19.9375 L 11.3125,14.414062 9.0605469,12.023438 Z"
         style="fill:#ffffff;fill-opacity:1;fill-rule:evenodd;stroke:none;stroke-width:1px;stroke-linecap:butt;stroke-linejoin:miter;stroke-opacity:1"
         inkscape:connector-curvature="0" />
      <path
         id="path11886-3"
         transform="translate(0,1028.3622)"
         d="M 9.90625,8.6835938 8.6210938,10.095703 17.884766,19.9375 c 0,0 2.115774,-1.93791 0.673828,-4.474609 C 17.116648,12.926191 9.90625,8.6835938 9.90625,8.6835938 Z M 12,10.599609 a 0.99999994,0.99999994 0 0 1 1,1 0.99999994,0.99999994 0 0 1 -1,1 0.99999994,0.99999994 0 0 1 -1,-1 0.99999994,0.99999994 0 0 1 1,-1 z"
         style="fill:#ffffff;fill-opacity:1;fill-rule:evenodd;stroke:none;stroke-width:1px;stroke-linecap:butt;stroke-linejoin:miter;stroke-opacity:1"
         inkscape:connector-curvature="0" />
    </g>
  </g>
</svg>
