<?xml version="1.0" encoding="UTF-8" standalone="no"?>
<svg
   xmlns:dc="http://purl.org/dc/elements/1.1/"
   xmlns:cc="http://creativecommons.org/ns#"
   xmlns:rdf="http://www.w3.org/1999/02/22-rdf-syntax-ns#"
   xmlns:svg="http://www.w3.org/2000/svg"
   xmlns="http://www.w3.org/2000/svg"
   xmlns:sodipodi="http://sodipodi.sourceforge.net/DTD/sodipodi-0.dtd"
   xmlns:inkscape="http://www.inkscape.org/namespaces/inkscape"
   height="22"
   width="22"
   version="1.1"
   viewBox="0 0 22 22"
   id="svg2"
   inkscape:version="0.91 r13725"
   sodipodi:docname="indicator-lunar-satelite.svg">
  <metadata
     id="metadata22">
    <rdf:RDF>
      <cc:Work
         rdf:about="">
        <dc:format>image/svg+xml</dc:format>
        <dc:type
           rdf:resource="http://purl.org/dc/dcmitype/StillImage" />
        <dc:title></dc:title>
      </cc:Work>
    </rdf:RDF>
  </metadata>
  <defs
     id="defs20" />
  <sodipodi:namedview
     pagecolor="#ffffff"
     bordercolor="#666666"
     borderopacity="1"
     objecttolerance="10"
     gridtolerance="10"
     guidetolerance="10"
     inkscape:pageopacity="0"
     inkscape:pageshadow="2"
     inkscape:window-width="1600"
     inkscape:window-height="814"
     id="namedview18"
     showgrid="false"
     inkscape:zoom="1"
     inkscape:cx="-21.050847"
     inkscape:cy="12"
     inkscape:window-x="0"
     inkscape:window-y="24"
     inkscape:window-maximized="1"
     inkscape:current-layer="svg2" />
  <g
     id="g4138"
     transform="translate(-1.4949604,-0.4248654)">
    <path
       d="m 13.007,6.7 -6.0353,6.0353 c 0.93684,0.3669 1.8137,0.9408 2.5577,1.6849 a 1.0001,1.0001 0 0 0 0.00141,0 c 0.74275,0.7446 1.3158,1.6211 1.6821,2.5577 l 6.0366,-6.0366 -4.2426,-4.2427 z"
       id="path6"
       inkscape:connector-curvature="0"
       style="fill:#ffffff;fill-opacity:1" />
    <path
       d="M 7.4083,3.8 5.9941,5.2142 7.4083,6.6285 8.8225,5.2142 7.4083,3.8 Z M 9.5296,5.9213 8.1154,7.3356 9.5296,8.7498 10.9438,7.3356 9.5296,5.9213 Z m -4.2426,0 L 3.8728,7.3356 5.287,8.7498 6.7012,7.3356 5.287,5.9213 Z M 7.4083,8.0427 5.9941,9.4569 7.4083,10.8711 8.8225,9.4569 7.4083,8.0427 Z"
       id="path8"
       inkscape:connector-curvature="0"
       style="fill:#ffffff;fill-opacity:1" />
    <path
       d="m 16.601,13 -1.4142,1.4142 1.4142,1.4142 1.4142,-1.4142 L 16.601,13 Z m 2.1213,2.1213 -1.4142,1.4142 1.4142,1.4143 1.4142,-1.4143 -1.4142,-1.4142 z m -4.2426,0 -1.4142,1.4142 1.4142,1.4143 1.4142,-1.4143 -1.4142,-1.4142 z m 2.1213,2.1214 -1.4142,1.4142 1.4142,1.4142 1.4142,-1.4142 -1.4142,-1.4142 z"
       id="path10"
       inkscape:connector-curvature="0"
       style="fill:#ffffff;fill-opacity:1" />
    <path
       d="M 8.8225,15.1 C 7.4599,13.7374 5.6133,13.0399 3.9156,13.3143 a 0.50005,0.50005 0 0 0 -0.27347,0.848 l 6.1154,6.1154 a 0.50005,0.50005 0 0 0 0.848,-0.2735 c 0.2742,-1.6964 -0.4231,-3.5409 -1.783,-4.9042 z"
       id="path12"
       inkscape:connector-curvature="0"
       style="fill:#ffffff;fill-opacity:1" />
    <path
       style="color:#000000;text-indent:0;text-decoration:none;text-decoration-line:none;text-decoration-style:solid;text-decoration-color:#000000;text-transform:none;block-progression:tb;white-space:normal;isolation:auto;mix-blend-mode:normal;solid-color:#000000;fill:#ffffff;fill-opacity:1;fill-rule:evenodd;color-rendering:auto;image-rendering:auto;shape-rendering:auto"
       d="m 16.295,6.6445 -0.826,0.8262 1.062,1.0605 0.826,-0.8261 C 16.904,7.467 16.534,7.0979 16.295,6.6445 Z"
       id="path14"
       inkscape:connector-curvature="0" />
    <circle
       cx="18.5"
       cy="5.5000243"
       r="1.5"
       id="circle16"
       style="fill:#ffffff;fill-opacity:1" />
  </g>
</svg>
