<?xml version="1.0" encoding="UTF-8" standalone="no"?>
<svg
   xmlns:dc="http://purl.org/dc/elements/1.1/"
   xmlns:cc="http://creativecommons.org/ns#"
   xmlns:rdf="http://www.w3.org/1999/02/22-rdf-syntax-ns#"
   xmlns:svg="http://www.w3.org/2000/svg"
   xmlns="http://www.w3.org/2000/svg"
   xmlns:sodipodi="http://sodipodi.sourceforge.net/DTD/sodipodi-0.dtd"
   xmlns:inkscape="http://www.inkscape.org/namespaces/inkscape"
   height="22"
   width="22"
   version="1.1"
   viewBox="0 0 22 22"
   id="svg2"
   inkscape:version="0.91 r13725"
   sodipodi:docname="indicator-notification-unread.svg">
  <metadata
     id="metadata14">
    <rdf:RDF>
      <cc:Work
         rdf:about="">
        <dc:format>image/svg+xml</dc:format>
        <dc:type
           rdf:resource="http://purl.org/dc/dcmitype/StillImage" />
        <dc:title></dc:title>
      </cc:Work>
    </rdf:RDF>
  </metadata>
  <defs
     id="defs12" />
  <sodipodi:namedview
     pagecolor="#ffffff"
     bordercolor="#666666"
     borderopacity="1"
     objecttolerance="10"
     gridtolerance="10"
     guidetolerance="10"
     inkscape:pageopacity="0"
     inkscape:pageshadow="2"
     inkscape:window-width="1600"
     inkscape:window-height="814"
     id="namedview10"
     showgrid="false"
     inkscape:zoom="9.8333333"
     inkscape:cx="-21.050847"
     inkscape:cy="12"
     inkscape:window-x="0"
     inkscape:window-y="24"
     inkscape:window-maximized="1"
     inkscape:current-layer="svg2" />
  <g
     id="g4134"
     transform="translate(-1.000025,-0.99292898)">
    <path
       d="m 12,4 a 8,8 0 0 0 -8,8 8,8 0 0 0 8,8 8,8 0 0 0 8,-8 A 8,8 0 0 0 19.283,8.709 3,3 0 0 1 18,9 3,3 0 0 1 15,6 3,3 0 0 1 15.291,4.7188 8,8 0 0 0 12,4 Z m 0,2 A 1,1 0 0 1 13,7 1,1 0 0 1 12.984,7.1699 3,3 0 0 1 15,10 l 0,3 a 1,1 0 0 0 1,1 l 0,1 -1,0 -6,0 -1,0 0,-1 A 1,1 0 0 0 9,13 L 9,10 A 3,3 0 0 1 11.014,7.1699 1,1 0 0 1 11,7 1,1 0 0 1 12,6 Z m -1.729,10 3.459,0 A 2,2 0 0 1 12,17 2,2 0 0 1 10.271,16 Z"
       id="path6"
       inkscape:connector-curvature="0"
       style="fill:#ffffff;fill-opacity:1" />
    <path
       style="color:#000000;fill:#009dff;image-rendering:optimizeQuality;shape-rendering:geometricPrecision"
       d="M 20,6 A 2,2 0 0 1 16.0001,6 2,2 0 1 1 20,6 Z"
       id="path8"
       inkscape:connector-curvature="0" />
  </g>
</svg>
