<?xml version="1.0" encoding="UTF-8" standalone="no"?>
<!-- Created with Inkscape (http://www.inkscape.org/) -->

<svg
   xmlns:dc="http://purl.org/dc/elements/1.1/"
   xmlns:cc="http://creativecommons.org/ns#"
   xmlns:rdf="http://www.w3.org/1999/02/22-rdf-syntax-ns#"
   xmlns:svg="http://www.w3.org/2000/svg"
   xmlns="http://www.w3.org/2000/svg"
   xmlns:sodipodi="http://sodipodi.sourceforge.net/DTD/sodipodi-0.dtd"
   xmlns:inkscape="http://www.inkscape.org/namespaces/inkscape"
   version="1.0"
   width="22"
   height="22"
   id="svg3167"
   inkscape:version="0.91 r13725"
   sodipodi:docname="nm-signal-25-secure.svg">
  <sodipodi:namedview
     pagecolor="#7d7d7d"
     bordercolor="#666666"
     borderopacity="1"
     objecttolerance="10"
     gridtolerance="10"
     guidetolerance="10"
     inkscape:pageopacity="0"
     inkscape:pageshadow="2"
     inkscape:window-width="1535"
     inkscape:window-height="876"
     id="namedview9"
     showgrid="false"
     inkscape:zoom="10.727273"
     inkscape:cx="-20.881356"
     inkscape:cy="11"
     inkscape:window-x="65"
     inkscape:window-y="24"
     inkscape:window-maximized="1"
     inkscape:current-layer="svg3167" />
  <metadata
     id="metadata20">
    <rdf:RDF>
      <cc:Work
         rdf:about="">
        <dc:format>image/svg+xml</dc:format>
        <dc:type
           rdf:resource="http://purl.org/dc/dcmitype/StillImage" />
        <dc:title />
      </cc:Work>
    </rdf:RDF>
  </metadata>
  <defs
     id="defs3169" />
  <g
     id="g4136"
     transform="translate(1.25,0)">
    <path
       style="color:#000000;display:inline;overflow:visible;visibility:visible;fill:#ffffff;fill-opacity:1;fill-rule:nonzero;stroke:none;stroke-width:1;marker:none;enable-background:accumulate"
       id="path3102"
       inkscape:connector-curvature="0"
       d="m 9.75,13.035506 c -0.883784,0 -1.758278,0.463138 -2.1184755,0.860829 L 9.75,16.2 11.889037,13.916897 C 11.52884,13.498644 10.633784,13.035506 9.75,13.035506 Z" />
    <path
       style="color:#000000;display:inline;overflow:visible;visibility:visible;opacity:0.4;fill:#ffffff;fill-opacity:1;fill-rule:nonzero;stroke:none;stroke-width:1;marker:none;enable-background:accumulate"
       id="path3100"
       inkscape:connector-curvature="0"
       d="m 9.75,9.035506 c -1.847888,0 -3.5041267,0.736481 -4.8649357,1.861156 l 1.3245282,1.41372 c 0.90637,-0.649172 2.3168195,-1.274876 3.4869315,-1.274876 1.198417,0 2.676027,0.639835 3.595257,1.318069 l 1.364636,-1.477654 C 13.295608,9.751246 11.597888,9.035506 9.75,9.035506 Z" />
    <path
       style="color:#000000;display:inline;overflow:visible;visibility:visible;opacity:0.4;fill:#ffffff;fill-opacity:1;fill-rule:nonzero;stroke:none;stroke-width:1;marker:none;enable-background:accumulate"
       id="path4112-19-69-3-0-8-8"
       inkscape:connector-curvature="0"
       d="m 9.75,5.0355074 c -2.853422,0 -5.468321,1.09634 -7.5,2.922777 L 3.5459168,9.417647 C 5.3576327,7.8291994 7.2635773,7.0355064 9.75,7.0355064 c 2.486423,0 4.334381,0.747499 6.23286,2.4142856 L 17.25,7.9582844 c -2.031679,-1.826437 -4.646579,-2.922777 -7.5,-2.922777 z" />
    <path
       style="fill:#ffffff"
       id="rect2822"
       inkscape:connector-curvature="0"
       d="m 16.75,9.9998 c -1.108,0 -2,0.91076 -2,2.0312 l 0,0.969 c -0.554,0 -1,0.446 -1,1 l 0,3 c 0,0.554 0.446,1 1,1 l 4,0 c 0.554,0 1,-0.446 1,-1 l 0,-3 c 0,-0.554 -0.446,-1 -1,-1 l 0,-0.96875 c 0,-1.12 -0.892,-2.031 -2,-2.031 z m 0,1 c 0.554,0 1,0.44236 1,1 l 0,1 -2,0 0,-1 c 0,-0.55764 0.446,-1 1,-1 z" />
  </g>
</svg>
