<?xml version="1.0" encoding="UTF-8" standalone="no"?>
<svg
   xmlns:dc="http://purl.org/dc/elements/1.1/"
   xmlns:cc="http://creativecommons.org/ns#"
   xmlns:rdf="http://www.w3.org/1999/02/22-rdf-syntax-ns#"
   xmlns:svg="http://www.w3.org/2000/svg"
   xmlns="http://www.w3.org/2000/svg"
   xmlns:sodipodi="http://sodipodi.sourceforge.net/DTD/sodipodi-0.dtd"
   xmlns:inkscape="http://www.inkscape.org/namespaces/inkscape"
   version="1.0"
   width="22"
   height="22"
   id="svg3197"
   viewBox="0 0 22 22"
   inkscape:version="0.91 r13725"
   sodipodi:docname="notification-symbolic.svg">
  <sodipodi:namedview
     pagecolor="#ffffff"
     bordercolor="#666666"
     borderopacity="1"
     objecttolerance="10"
     gridtolerance="10"
     guidetolerance="10"
     inkscape:pageopacity="0"
     inkscape:pageshadow="2"
     inkscape:window-width="1600"
     inkscape:window-height="814"
     id="namedview6"
     showgrid="false"
     inkscape:zoom="9.8333333"
     inkscape:cx="-4.5254237"
     inkscape:cy="12"
     inkscape:window-x="0"
     inkscape:window-y="24"
     inkscape:window-maximized="1"
     inkscape:current-layer="svg3197" />
  <metadata
     id="metadata12">
    <rdf:RDF>
      <cc:Work
         rdf:about="">
        <dc:format>image/svg+xml</dc:format>
        <dc:type
           rdf:resource="http://purl.org/dc/dcmitype/StillImage" />
        <dc:title></dc:title>
      </cc:Work>
    </rdf:RDF>
  </metadata>
  <defs
     id="defs3199" />
  <path
     d="M 11,4 C 10.446,4 10,4.446 10,5 10,5.010863 9.99966,5.020473 10,5.03125 8.2720066,5.4793221 7,7.044378 7,8.9375 7,8.958791 6.9996799,8.978787 7,9 7,11.005239 7.0006909,15 5.21875,15 5.1000357,15 5,15.1115 5,15.25 l 0,0.5 C 5,15.8885 5.1000357,16 5.21875,16 L 7,16 l 8,0 1.78125,0 C 16.899964,16 17,15.8885 17,15.75 l 0,-0.5 C 17,15.1115 16.899964,15 16.78125,15 14.992337,15 15,11.004878 15,9 15.00032,8.97879 15,8.95879 15,8.9375 15,7.044378 13.727993,5.4793221 12,5.03125 12.00034,5.0204728 12,5.0108627 12,5 12,4.446 11.554,4 11,4 Z M 9.125,17 c 0.273238,0.584421 1.002447,1 1.875,1 0.872553,0 1.601763,-0.415579 1.875,-1 z"
     id="rect3022"
     style="color:#bebebe;clip-rule:nonzero;display:inline;overflow:visible;visibility:visible;opacity:1;isolation:auto;mix-blend-mode:normal;color-interpolation:sRGB;color-interpolation-filters:linearRGB;solid-color:#000000;solid-opacity:1;fill:#bebebe;fill-opacity:1;fill-rule:nonzero;stroke:none;stroke-width:1;stroke-linecap:butt;stroke-linejoin:miter;stroke-miterlimit:4;stroke-dasharray:none;stroke-dashoffset:0;stroke-opacity:1;marker:none;color-rendering:auto;image-rendering:auto;shape-rendering:auto;text-rendering:auto;enable-background:accumulate"
     inkscape:connector-curvature="0" />
</svg>
