<?xml version="1.0" encoding="UTF-8" standalone="no"?>
<svg
   xmlns:dc="http://purl.org/dc/elements/1.1/"
   xmlns:cc="http://creativecommons.org/ns#"
   xmlns:rdf="http://www.w3.org/1999/02/22-rdf-syntax-ns#"
   xmlns:svg="http://www.w3.org/2000/svg"
   xmlns="http://www.w3.org/2000/svg"
   xmlns:sodipodi="http://sodipodi.sourceforge.net/DTD/sodipodi-0.dtd"
   xmlns:inkscape="http://www.inkscape.org/namespaces/inkscape"
   height="22"
   width="22"
   version="1.1"
   viewBox="0 0 22 22"
   id="svg2"
   inkscape:version="0.91 r13725"
   sodipodi:docname="radiotray_connecting.svg">
  <metadata
     id="metadata14">
    <rdf:RDF>
      <cc:Work
         rdf:about="">
        <dc:format>image/svg+xml</dc:format>
        <dc:type
           rdf:resource="http://purl.org/dc/dcmitype/StillImage" />
        <dc:title></dc:title>
      </cc:Work>
    </rdf:RDF>
  </metadata>
  <defs
     id="defs12" />
  <sodipodi:namedview
     pagecolor="#ffffff"
     bordercolor="#666666"
     borderopacity="1"
     objecttolerance="10"
     gridtolerance="10"
     guidetolerance="10"
     inkscape:pageopacity="0"
     inkscape:pageshadow="2"
     inkscape:window-width="1600"
     inkscape:window-height="814"
     id="namedview10"
     showgrid="false"
     inkscape:zoom="9.8333333"
     inkscape:cx="-21.050847"
     inkscape:cy="12"
     inkscape:window-x="0"
     inkscape:window-y="24"
     inkscape:window-maximized="1"
     inkscape:current-layer="svg2" />
  <g
     transform="translate(-1,-1029.4)"
     id="g4"
     style="fill:#ffffff;fill-opacity:1">
    <path
       d="M 10.473,3.002 A 0.75008,0.75008 0 0 0 10.01,3.1719 l -5.0002,4 A 0.75038,0.75038 0 0 0 4.8301,7.3828 C 4.3291,7.7456 4,8.3315 4,9 L 4,9.8887 C 4.3908,9.1247 4.898,8.4052 5.5215,7.7578 5.8765,7.3814 6.3639,7.1549 6.8809,7.1309 a 1.0001,1.0001 0 0 0 0.0019,0 C 7.7467,7.0914 8.4956,7.6288 8.8008,8.3164 8.9279,8.6029 8.9378,8.9359 8.916,9.2637 8.9737,9.2567 9.0117,9.1934 9.0703,9.1934 l 0.002,0 C 9.9371,9.1583 10.685,9.7027 10.986,10.393 11.116,10.69 11.13,11.035 11.1,11.375 11.413,11.263 11.65,11 12,11 c 0.352,0 0.591,0.265 0.906,0.379 -0.028,-0.306 -0.035,-0.617 0.069,-0.893 0.256,-0.6787 0.928,-1.2417 1.754,-1.2907 a 1.0001,1.0001 0 0 1 0.007,0 l 0.196,0 c 0.059,0.002 0.098,0.0603 0.156,0.0703 -0.02,-0.2943 -0.03,-0.595 0.072,-0.8594 0.262,-0.6766 0.936,-1.2323 1.762,-1.2753 a 1.0001,1.0001 0 0 1 0.004,0 l 0.195,0 c 0.516,0.025 1.003,0.2509 1.358,0.6269 0.623,0.6474 1.13,1.3669 1.521,2.1309 L 20,9 C 20,7.892 19.108,7 18,7 L 7.627,7 10.947,4.3438 A 0.75008,0.75008 0 0 0 10.473,3.002 Z M 12,13 c -0.564,0 -1,0.436 -1,1 0,0.564 0.436,1 1,1 0.564,0 1,-0.436 1,-1 0,-0.564 -0.436,-1 -1,-1 z m -0.916,3.617 c 0.016,0.111 0.138,0.2 0.133,0.309 -0.024,0.541 -0.268,1.005 -0.61,1.345 -0.341,0.341 -0.8054,0.58 -1.3472,0.602 -0.1176,0.005 -0.2142,-0.124 -0.334,-0.144 0.0129,0.103 0.1265,0.187 0.1211,0.289 -0.0198,0.37 -0.1465,0.7 -0.3321,0.982 l 6.5702,0 c -0.185,-0.282 -0.312,-0.612 -0.332,-0.982 -0.005,-0.102 0.108,-0.186 0.121,-0.289 -0.12,0.019 -0.216,0.144 -0.334,0.144 -0.542,-0.022 -1.006,-0.261 -1.347,-0.602 -0.342,-0.34 -0.586,-0.804 -0.61,-1.345 C 12.778,16.817 12.9,16.728 12.916,16.617 12.598,16.733 12.356,17 12,17 11.644,17 11.402,16.733 11.084,16.617 Z m -7.0703,1.514 c 0.0482,0.738 0.4888,1.362 1.1211,1.666 C 4.6945,19.275 4.3164,18.718 4.0137,18.131 Z m 15.972,0 c -0.302,0.587 -0.681,1.144 -1.121,1.666 0.632,-0.304 1.073,-0.928 1.121,-1.666 z m -3.707,0.068 c -0.003,0.01 -0.01,0.012 -0.013,0.012 -0.007,0.007 -0.009,0.013 -0.016,0.023 l 0.029,-0.029 0,-0.006 z m -8.5583,0.006 0,0.006 0.0293,0.027 C 7.7428,18.231 7.7409,18.225 7.7341,18.215 7.7304,18.205 7.724,18.205 7.7204,18.205 Z"
       transform="translate(0,1028.4)"
       id="path6"
       style="opacity:0.4;fill:#ffffff;fill-opacity:1"
       inkscape:connector-curvature="0" />
    <path
       d="M 6.9277,8.1289 A 1.0001,1.0001 0 0 0 6.2461,8.4434 C 3.2449,11.551 3.2623,16.511 6.2852,19.5984 a 1.0001,1.0001 0 1 0 1.4277,-1.399 C 5.4325,15.8714 5.4195,12.1774 7.6836,9.8324 A 1.0001,1.0001 0 0 0 6.9277,8.1293 Z m 10.047,0 a 1.0001,1.0001 0 0 0 -0.659,1.7031 c 2.265,2.345 2.252,6.039 -0.029,8.367 a 1.0001,1.0001 0 1 0 1.428,1.399 c 3.023,-3.087 3.04,-8.047 0.039,-11.155 a 1.0001,1.0001 0 0 0 -0.682,-0.3141 1.0001,1.0001 0 0 0 -0.097,0 z M 9.111,10.193 A 1.0001,1.0001 0 0 0 8.4274,10.502 C 6.52,12.45 6.5343,15.598 8.4587,17.529 a 1.0001,1.0001 0 1 0 1.416,-1.41 C 8.7072,14.948 8.6999,13.084 9.8571,11.902 A 1.0001,1.0001 0 0 0 9.111,10.193 Z m 5.6757,0 a 1.0001,1.0001 0 0 0 -0.644,1.709 c 1.157,1.182 1.149,3.046 -0.018,4.217 a 1.0001,1.0001 0 1 0 1.416,1.41 c 1.924,-1.931 1.939,-5.079 0.031,-7.027 a 1.0001,1.0001 0 0 0 -0.683,-0.309 1.0001,1.0001 0 0 0 -0.102,0 z M 11.9997,12 a 2,2 0 0 0 -2,2 2,2 0 0 0 2,2 2,2 0 0 0 2,-2 2,2 0 0 0 -2,-2 z"
       transform="translate(0,1028.4)"
       id="path8"
       style="fill:#ffffff;fill-opacity:1"
       inkscape:connector-curvature="0" />
  </g>
</svg>
