<?xml version="1.0" encoding="UTF-8" standalone="no"?>
<!-- Created with Inkscape (http://www.inkscape.org/) -->

<svg
   xmlns:dc="http://purl.org/dc/elements/1.1/"
   xmlns:cc="http://creativecommons.org/ns#"
   xmlns:rdf="http://www.w3.org/1999/02/22-rdf-syntax-ns#"
   xmlns:svg="http://www.w3.org/2000/svg"
   xmlns="http://www.w3.org/2000/svg"
   xmlns:xlink="http://www.w3.org/1999/xlink"
   xmlns:sodipodi="http://sodipodi.sourceforge.net/DTD/sodipodi-0.dtd"
   xmlns:inkscape="http://www.inkscape.org/namespaces/inkscape"
   version="1.0"
   width="22"
   height="22"
   id="svg4431"
   inkscape:version="0.91 r13725"
   sodipodi:docname="skype-wrapper.svg">
  <sodipodi:namedview
     pagecolor="#353535"
     bordercolor="#666666"
     borderopacity="1"
     objecttolerance="10"
     gridtolerance="10"
     guidetolerance="10"
     inkscape:pageopacity="0.63529412"
     inkscape:pageshadow="2"
     inkscape:window-width="1535"
     inkscape:window-height="876"
     id="namedview16"
     showgrid="false"
     inkscape:zoom="16.15"
     inkscape:cx="-1.3725346"
     inkscape:cy="9.9235956"
     inkscape:window-x="65"
     inkscape:window-y="24"
     inkscape:window-maximized="1"
     inkscape:current-layer="svg4431" />
  <metadata
     id="metadata16">
    <rdf:RDF>
      <cc:Work
         rdf:about="">
        <dc:format>image/svg+xml</dc:format>
        <dc:type
           rdf:resource="http://purl.org/dc/dcmitype/StillImage" />
        <dc:title />
      </cc:Work>
    </rdf:RDF>
  </metadata>
  <defs
     id="defs4433">
    <linearGradient
       x1="50.925655"
       y1="11.648451"
       x2="73.986542"
       y2="11.648451"
       id="linearGradient2390"
       xlink:href="#linearGradient3678"
       gradientUnits="userSpaceOnUse"
       gradientTransform="matrix(0,0.7805424,-0.7617909,0,28.873684,-37.749634)" />
    <linearGradient
       x1="9"
       y1="3"
       x2="9"
       y2="21"
       id="linearGradient2393"
       xlink:href="#linearGradient3678"
       gradientUnits="userSpaceOnUse"
       gradientTransform="translate(-2,-1)" />
    <linearGradient
       x1="15"
       y1="8"
       x2="15"
       y2="20"
       id="linearGradient3692"
       xlink:href="#linearGradient3678"
       gradientUnits="userSpaceOnUse" />
    <linearGradient
       x1="9.1701241"
       y1="3"
       x2="9.311203"
       y2="15"
       id="linearGradient3684"
       xlink:href="#linearGradient3678"
       gradientUnits="userSpaceOnUse" />
    <linearGradient
       id="linearGradient3678">
      <stop
         id="stop3680"
         style="stop-color:#ffffff;stop-opacity:1"
         offset="0" />
      <stop
         id="stop3682"
         style="stop-color:#e6e6e6;stop-opacity:1"
         offset="1" />
    </linearGradient>
    <linearGradient
       x1="9.1701241"
       y1="3"
       x2="9.311203"
       y2="15"
       id="linearGradient3640"
       xlink:href="#linearGradient3678"
       gradientUnits="userSpaceOnUse"
       gradientTransform="translate(-22.566265,-7.7349402)" />
    <linearGradient
       x1="15"
       y1="8"
       x2="15"
       y2="20"
       id="linearGradient3643"
       xlink:href="#linearGradient3678"
       gradientUnits="userSpaceOnUse"
       gradientTransform="translate(-22.566265,-7.7349402)" />
    <linearGradient
       id="linearGradient3820-7-2-1">
      <stop
         id="stop3822-2-6-3"
         style="stop-color:#3d3d3d;stop-opacity:1"
         offset="0" />
      <stop
         id="stop3864-8-7-7"
         style="stop-color:#686868;stop-opacity:0.49803922"
         offset="0.5" />
      <stop
         id="stop3824-1-2-5"
         style="stop-color:#686868;stop-opacity:0"
         offset="1" />
    </linearGradient>
    <radialGradient
       cx="23.896"
       cy="3.99"
       r="20.396999"
       id="radialGradient3093-0-3-6-3"
       gradientUnits="userSpaceOnUse"
       gradientTransform="matrix(0,1.2316483,-1.625754,0,18.486966,-28.721977)">
      <stop
         id="stop3244-9-33-7-0-6"
         style="stop-color:#44ccff;stop-opacity:1;"
         offset="0" />
      <stop
         id="stop3248-1-7-8-8-6"
         style="stop-color:#0c89ff;stop-opacity:1;"
         offset="1" />
      <stop
         id="stop3250-9-3-0-5-2"
         style="stop-color:#0094cb;stop-opacity:1;"
         offset="1" />
    </radialGradient>
    <linearGradient
       id="linearGradient4038">
      <stop
         style="stop-color:#ffffff;stop-opacity:1;"
         offset="0"
         id="stop4040" />
      <stop
         style="stop-color:#ffffff;stop-opacity:0.54591835;"
         offset="1"
         id="stop4042" />
    </linearGradient>
    <clipPath
       id="clipPath18">
      <path
         id="path20"
         d="m 0,841.89 595.276,0 L 595.276,0 0,0 0,841.89 z" />
    </clipPath>
    <linearGradient
       spreadMethod="pad"
       gradientTransform="matrix(-1.53e-5,366.70361,366.70361,1.53e-5,298.67236,235.61719)"
       gradientUnits="userSpaceOnUse"
       id="linearGradient36"
       y2="0"
       x2="1"
       y1="0"
       x1="0">
      <stop
         offset="0"
         style="stop-color:#ffffff;stop-opacity:1"
         id="stop38" />
      <stop
         offset="0.80898899"
         style="stop-color:#00aaf1;stop-opacity:1"
         id="stop40" />
      <stop
         offset="1"
         style="stop-color:#00aaf1;stop-opacity:1"
         id="stop42" />
    </linearGradient>
    <clipPath
       id="clipPath50">
      <path
         id="path52"
         d="m 118.089,602.321 349.605,0 0,-227.59 -349.605,0 0,227.59 z" />
    </clipPath>
    <linearGradient
       spreadMethod="pad"
       gradientTransform="matrix(349.60547,0,0,-349.60547,118.08887,488.52637)"
       gradientUnits="userSpaceOnUse"
       id="linearGradient58"
       y2="0"
       x2="1"
       y1="0"
       x1="0">
      <stop
         offset="0"
         style="stop-color:#ffffff;stop-opacity:1"
         id="stop60" />
      <stop
         offset="1"
         style="stop-color:#00aaf1;stop-opacity:1"
         id="stop62" />
    </linearGradient>
  </defs>
  <path
     sodipodi:nodetypes="cccccccccccccc"
     inkscape:connector-curvature="0"
     id="path4358"
     d="m -36.666917,-10.447402 c -3.170554,0.01457 -6.514076,1.6809824 -7.788997,4.6965414 -1.893864,3.5758876 -1.733259,8.2999086 0.846968,11.5032146 0.09086,0.786602 -0.214412,1.559511 -0.136309,2.35592 -0.213439,4.999082 0.944589,10.329266 4.402918,14.105728 4.09592,4.31315 10.425236,5.892839 16.215449,5.159636 0.529067,-0.06697 1.107675,-0.165958 1.453965,0.337027 2.637542,2.178687 6.641233,2.873327 9.664966,1.088845 3.219783,-1.648885 5.766475,-5.091099 5.452365,-8.827402 -0.143197,-2.185891 -1.061976,-4.255846 -2.307525,-6.030749 1.070087,-6.17398 -0.609423,-13.037544 -5.244647,-17.418234 -3.897366,-3.7199396 -9.623787,-5.0711576 -14.877168,-4.2613906 -0.417536,-0.0038 -0.923658,0.274354 -1.278705,0.119915 -1.594635,-1.8092 -3.985204,-2.8916124 -6.403283,-2.8290394 z"
     style="opacity:0.4;fill:none;stroke:#005760;stroke-width:0;stroke-linecap:butt;stroke-linejoin:round;stroke-miterlimit:4;stroke-dasharray:none;stroke-opacity:1" />
  <path
     style="fill:#ffffff;fill-opacity:1;stroke:none"
     d="m 6.6983256,3.0010251 c -1.2940311,0.0058 -2.6573874,0.6670063 -3.1777344,1.865385 -0.772962,1.4210518 -0.7073919,3.2976926 0.3457031,4.5706818 0.03708,0.312594 -0.088521,0.6210841 -0.056641,0.9375761 -0.08711,1.986626 0.385392,4.105161 1.796875,5.605921 1.671711,1.714039 4.2559215,2.340367 6.6191407,2.048994 0.215935,-0.02661 0.450462,-0.06511 0.591797,0.134776 1.076488,0.865806 2.711205,1.140826 3.945313,0.431675 1.314123,-0.655264 2.354763,-2.023294 2.226562,-3.508095 -0.05844,-0.868669 -0.435,-1.691335 -0.943359,-2.396678 C 18.482728,10.237732 17.797179,7.5116586 15.905357,5.77078 14.314685,4.2924817 11.979162,3.7554839 9.8350448,4.0772839 9.6646318,4.0757838 9.4565158,4.1855367 9.3116068,4.1241627 8.6607714,3.4051897 7.6852416,2.9761581 6.6983256,3.0010251 Z m 4.2773434,2.8830453 c 0.609423,0 1.146517,0.07415 1.59375,0.220721 0.449833,0.1476125 0.828983,0.3465309 1.126954,0.5918446 0.300059,0.2470505 0.521969,0.5106073 0.662109,0.7852197 0.141601,0.2773532 0.214844,0.553331 0.214844,0.8203787 0,0.256971 -0.09551,0.4918607 -0.28125,0.6953687 -0.186877,0.2048268 -0.421027,0.3086188 -0.699219,0.3086188 -0.252735,0 -0.450608,-0.06525 -0.587891,-0.193375 C 12.877279,8.9938764 12.743789,8.8073882 12.596763,8.5405349 12.426588,8.199797 12.221688,7.930868 11.985435,7.7416423 11.756141,7.5577834 11.371525,7.4642762 10.84481,7.4642762 c -0.48921,0 -0.8863082,0.1044928 -1.1816412,0.3086186 -0.284638,0.1966755 -0.423828,0.422346 -0.423828,0.6895088 0,0.163825 0.04512,0.3001952 0.136719,0.4180025 0.09699,0.1248368 0.233327,0.2350208 0.40625,0.3261978 0.179369,0.095 0.3637452,0.170744 0.5488282,0.224628 0.189698,0.05547 0.508996,0.13785 0.945313,0.24416 0.552211,0.124914 1.059005,0.264885 1.507812,0.4160501 0.454375,0.153286 0.847763,0.341064 1.167969,0.560592 0.326871,0.224353 0.585876,0.513587 0.769531,0.857491 0.18414,0.345177 0.277344,0.770623 0.277344,1.265727 0,0.592384 -0.159764,1.13296 -0.476562,1.605598 -0.315664,0.470785 -0.78246,0.842703 -1.386719,1.107511 -0.598472,0.262146 -1.316257,0.396518 -2.132813,0.396518 -0.980065,0 -1.8019972,-0.182489 -2.4433593,-0.54106 -0.458514,-0.260985 -0.8360268,-0.614588 -1.1230469,-1.050866 -0.289876,-0.440638 -0.4375,-0.877283 -0.4375,-1.298933 0,-0.263532 0.0963,-0.492758 0.2851562,-0.679743 0.1869511,-0.18533 0.4252729,-0.279319 0.7109376,-0.279319 0.2344948,0 0.4371747,0.07427 0.6015624,0.22072 0.1570988,0.14028 0.2921507,0.347196 0.4003907,0.615285 0.1209081,0.291867 0.2533171,0.538313 0.3925781,0.732481 0.133804,0.186714 0.326306,0.344281 0.572266,0.466834 0.2473512,0.123446 0.5799972,0.185562 0.9902342,0.185562 0.564187,0 1.027104,-0.126651 1.375,-0.376983 0.339875,-0.244504 0.505859,-0.537216 0.505859,-0.896557 0,-0.283918 -0.08632,-0.506639 -0.263672,-0.681696 C 12.383749,12.11759 12.138362,11.97448 11.840904,11.876742 11.530697,11.774875 11.109733,11.665467 10.588951,11.550544 9.8807778,11.390698 9.2784368,11.200516 8.799888,10.986045 8.3105328,10.766633 7.9165345,10.462327 7.628013,10.081675 7.3349865,9.6952719 7.1866068,9.2101059 7.1866068,8.6401523 7.1866068,8.096871 7.342038,7.6073749 7.6494974,7.1849567 7.9546482,6.7655109 8.3999322,6.4397479 8.9737162,6.2161285 9.5400248,5.9954042 10.213398,5.8840704 10.975669,5.8840704 Z"
     id="path4005"
     inkscape:connector-curvature="0" />
</svg>
