<?xml version="1.0" encoding="UTF-8" standalone="no"?>
<!-- Created with Inkscape (http://www.inkscape.org/) -->

<svg
   xmlns:dc="http://purl.org/dc/elements/1.1/"
   xmlns:cc="http://creativecommons.org/ns#"
   xmlns:rdf="http://www.w3.org/1999/02/22-rdf-syntax-ns#"
   xmlns:svg="http://www.w3.org/2000/svg"
   xmlns="http://www.w3.org/2000/svg"
   xmlns:sodipodi="http://sodipodi.sourceforge.net/DTD/sodipodi-0.dtd"
   xmlns:inkscape="http://www.inkscape.org/namespaces/inkscape"
   width="22"
   height="22"
   viewBox="0 0 22 22"
   id="svg11197"
   version="1.1"
   inkscape:version="0.91 r13725"
   sodipodi:docname="solaar-attention.svg"
   inkscape:export-filename="/home/rafael/rect11755.png"
   inkscape:export-xdpi="90"
   inkscape:export-ydpi="90">
  <defs
     id="defs11199" />
  <sodipodi:namedview
     id="base"
     pagecolor="#000000"
     bordercolor="#666666"
     borderopacity="1.0"
     inkscape:pageopacity="0"
     inkscape:pageshadow="2"
     inkscape:zoom="31.678384"
     inkscape:cx="5.8520851"
     inkscape:cy="11.531738"
     inkscape:document-units="px"
     inkscape:current-layer="layer1"
     showgrid="true"
     units="px"
     showguides="true"
     inkscape:guide-bbox="true"
     inkscape:window-width="1600"
     inkscape:window-height="814"
     inkscape:window-x="0"
     inkscape:window-y="24"
     inkscape:window-maximized="1">
    <inkscape:grid
       type="xygrid"
       id="grid11745" />
    <sodipodi:guide
       position="4,13"
       orientation="1,0"
       id="guide11747" />
    <sodipodi:guide
       position="20,10"
       orientation="1,0"
       id="guide11749" />
    <sodipodi:guide
       position="11,20"
       orientation="0,1"
       id="guide11751" />
    <sodipodi:guide
       position="9,4"
       orientation="0,1"
       id="guide11753" />
  </sodipodi:namedview>
  <metadata
     id="metadata11202">
    <rdf:RDF>
      <cc:Work
         rdf:about="">
        <dc:format>image/svg+xml</dc:format>
        <dc:type
           rdf:resource="http://purl.org/dc/dcmitype/StillImage" />
        <dc:title></dc:title>
      </cc:Work>
    </rdf:RDF>
  </metadata>
  <g
     inkscape:label="Ebene 1"
     inkscape:groupmode="layer"
     id="layer1"
     transform="translate(0,-1030.3622)">
    <g
       id="g4140"
       transform="translate(-1.0000001,1.0000163)">
      <path
         id="rect11755"
         transform="translate(0,1028.3622)"
         d="M 6,4 C 4.892,4 4,4.892 4,6 l 0,12 c 0,1.108 0.892,2 2,2 l 12,0 c 1.108,0 2,-0.892 2,-2 L 20,8.2304688 A 3,3 0 0 1 18,9 3,3 0 0 1 15.589844,7.78125 l -1.310547,2.273438 A 3,3 0 0 1 14.826172,11 L 18,11 l 0,2 -3.175781,0 a 3,3 0 0 1 -0.542969,0.949219 l 1.583984,2.746093 -1.730468,1 -1.585938,-2.748046 A 3,3 0 0 1 12,15 3,3 0 0 1 11.453125,14.947266 l -1.5878906,2.748046 -1.7304688,-1 1.5859375,-2.75 A 3,3 0 0 1 9.1738281,13 L 6,13 6,11 9.1757812,11 A 3,3 0 0 1 9.71875,10.050781 l -1.5839844,-2.7460935 1.7304688,-1 1.5859376,2.7480469 A 3,3 0 0 1 12,9 3,3 0 0 1 12.546875,9.052734 l 1.587891,-2.7480469 1.001953,0.578125 A 3,3 0 0 1 15,6 3,3 0 0 1 15.767578,4 L 6,4 Z m 6,6 a 2,2 0 0 0 -2,2 2,2 0 0 0 2,2 2,2 0 0 0 2,-2 2,2 0 0 0 -2,-2 z"
         style="opacity:1;fill:#ffffff;fill-opacity:1;stroke:none;stroke-width:2;stroke-miterlimit:4;stroke-dasharray:none;stroke-opacity:1"
         inkscape:connector-curvature="0" />
      <path
         style="color:#000000;display:inline;overflow:visible;visibility:visible;fill:#009dff;fill-opacity:1;fill-rule:nonzero;stroke:none;stroke-width:1;marker:none;enable-background:accumulate"
         id="path3009"
         inkscape:connector-curvature="0"
         d="m 20,1034.3628 a 2.0000001,2.0000001 0 0 1 -4,0 2.0000001,2.0000001 0 1 1 4,0 z" />
    </g>
  </g>
</svg>
