<?xml version="1.0" encoding="UTF-8" standalone="no"?>
<svg
   xmlns:dc="http://purl.org/dc/elements/1.1/"
   xmlns:cc="http://creativecommons.org/ns#"
   xmlns:rdf="http://www.w3.org/1999/02/22-rdf-syntax-ns#"
   xmlns:svg="http://www.w3.org/2000/svg"
   xmlns="http://www.w3.org/2000/svg"
   xmlns:sodipodi="http://sodipodi.sourceforge.net/DTD/sodipodi-0.dtd"
   xmlns:inkscape="http://www.inkscape.org/namespaces/inkscape"
   height="22"
   width="22"
   version="1.1"
   viewBox="0 0 22 22"
   id="svg2"
   inkscape:version="0.91 r13725"
   sodipodi:docname="synapse-panel.svg">
  <metadata
     id="metadata12">
    <rdf:RDF>
      <cc:Work
         rdf:about="">
        <dc:format>image/svg+xml</dc:format>
        <dc:type
           rdf:resource="http://purl.org/dc/dcmitype/StillImage" />
        <dc:title></dc:title>
      </cc:Work>
    </rdf:RDF>
  </metadata>
  <defs
     id="defs10" />
  <sodipodi:namedview
     pagecolor="#ffffff"
     bordercolor="#666666"
     borderopacity="1"
     objecttolerance="10"
     gridtolerance="10"
     guidetolerance="10"
     inkscape:pageopacity="0"
     inkscape:pageshadow="2"
     inkscape:window-width="1600"
     inkscape:window-height="814"
     id="namedview8"
     showgrid="false"
     inkscape:zoom="9.8333333"
     inkscape:cx="-21.050847"
     inkscape:cy="12"
     inkscape:window-x="0"
     inkscape:window-y="24"
     inkscape:window-maximized="1"
     inkscape:current-layer="svg2" />
  <path
     inkscape:connector-curvature="0"
     id="path6"
     d="m 10.0004,2 0,1.0703 C 6.7345,3.4819 4.0794,5.8738 3.268,9 L 5.35,9 c 0.81914,-2.3342 3.028,-4 5.6504,-4 2.6224,0 4.8312,1.6658 5.6504,4 l 2.082,0 c -0.812,-3.2 -3.467,-5.6 -6.733,-6 l 0,-1.0703 -2,0 z m 1,4 c -2.7496,0 -5,2.2504 -5,5 0,0.3424 0.03516,0.6765 0.10156,1 l 2.0801,0 0.81836,0 4.8184,0 c -0.40954,1.1671 -1.5033,2 -2.8184,2 -0.89227,0 -1.6768,-0.3889 -2.2207,-1 l -2.3535,0 c 0.77607,1.7604 2.5356,3 4.5742,3 2.7496,0 5,-2.2504 5,-5 0,-0.3424 -0.03516,-0.6765 -0.10156,-1 l -2.0801,0 -0.81836,0 -4.8184,0 c 0.40905,-1.1681 1.5027,-2 2.8184,-2 0.89272,0 1.6769,0.3889 2.2207,1 l 2.3535,0 C 14.79853,7.2396 13.039,6 11.0004,6 Z m -7.7305,7 c 0.81173,3.1257 3.4653,5.5179 6.7305,5.9297 l 0,1.0703 2,0 0,-1.0703 C 15.2656,18.5179 17.9191,16.1257 18.7309,13 l -2.0801,0 c -0.81964,2.3337 -3.0286,4 -5.6504,4 C 8.3786,17 6.1697,15.3337 5.35,13 l -2.0801,0 z"
     style="color:#000000;text-indent:0;text-decoration:none;text-decoration-line:none;text-decoration-style:solid;text-decoration-color:#000000;text-transform:none;block-progression:tb;white-space:normal;isolation:auto;mix-blend-mode:normal;solid-color:#000000;fill:#ffffff;fill-opacity:1;color-rendering:auto;image-rendering:auto;shape-rendering:auto" />
</svg>
