<?xml version="1.0" encoding="UTF-8" standalone="no"?>
<svg
   xmlns:dc="http://purl.org/dc/elements/1.1/"
   xmlns:cc="http://creativecommons.org/ns#"
   xmlns:rdf="http://www.w3.org/1999/02/22-rdf-syntax-ns#"
   xmlns:svg="http://www.w3.org/2000/svg"
   xmlns="http://www.w3.org/2000/svg"
   xmlns:sodipodi="http://sodipodi.sourceforge.net/DTD/sodipodi-0.dtd"
   xmlns:inkscape="http://www.inkscape.org/namespaces/inkscape"
   height="22"
   width="22"
   version="1.1"
   viewBox="0 0 22 22"
   id="svg2"
   inkscape:version="0.91 r13725"
   sodipodi:docname="system-file-manager-panel.svg">
  <metadata
     id="metadata12">
    <rdf:RDF>
      <cc:Work
         rdf:about="">
        <dc:format>image/svg+xml</dc:format>
        <dc:type
           rdf:resource="http://purl.org/dc/dcmitype/StillImage" />
        <dc:title></dc:title>
      </cc:Work>
    </rdf:RDF>
  </metadata>
  <defs
     id="defs10" />
  <sodipodi:namedview
     pagecolor="#ffffff"
     bordercolor="#666666"
     borderopacity="1"
     objecttolerance="10"
     gridtolerance="10"
     guidetolerance="10"
     inkscape:pageopacity="0"
     inkscape:pageshadow="2"
     inkscape:window-width="1600"
     inkscape:window-height="814"
     id="namedview8"
     showgrid="false"
     inkscape:zoom="9.8333333"
     inkscape:cx="-21.050847"
     inkscape:cy="12"
     inkscape:window-x="0"
     inkscape:window-y="24"
     inkscape:window-maximized="1"
     inkscape:current-layer="svg2" />
  <path
     style="opacity:0.98999999;fill:#ffffff;fill-opacity:1"
     inkscape:connector-curvature="0"
     id="path6"
     d="M 5,3 C 4.446,3 4,3.446 4,4 3.446,4 3,4.446 3,5 L 3,6 C 2.446,6 2,6.446 2,7 l 0,1 0,1 0,8 c 0,1.108 0.892,2 2,2 l 14,0 c 1.108,0 2,-0.892 2,-2 L 20,9 20,8 20,7 C 20,6.446 19.554,6 19,6 L 19,5 C 19,4.446 18.554,4 18,4 L 14,4 13,4 12,4 C 12,3.446 11.554,3 11,3 L 5,3 Z m 0,1 6,0 0,1 1,0 2,0 4,0 0,1 L 4,6 4,5 5,5 5,4 Z M 11,7.9395 13,9.939 13,9 l 1,0 0,1.939 1.531,1.532 -1.062,1.06 L 14,13.062 14,16 l -2,0 0,-3 -2,0 0,3 L 8,16 8,13.062 7.5312,13.531 6.4688,12.471 11,7.9395 Z" />
</svg>
