<?xml version="1.0" encoding="UTF-8" standalone="no"?>
<svg
   xmlns:dc="http://purl.org/dc/elements/1.1/"
   xmlns:cc="http://creativecommons.org/ns#"
   xmlns:rdf="http://www.w3.org/1999/02/22-rdf-syntax-ns#"
   xmlns:svg="http://www.w3.org/2000/svg"
   xmlns="http://www.w3.org/2000/svg"
   xmlns:sodipodi="http://sodipodi.sourceforge.net/DTD/sodipodi-0.dtd"
   xmlns:inkscape="http://www.inkscape.org/namespaces/inkscape"
   height="22"
   width="22"
   version="1.1"
   viewBox="0 0 22 22"
   id="svg2"
   inkscape:version="0.91 r13725"
   sodipodi:docname="tray_fileoffer.svg">
  <metadata
     id="metadata14">
    <rdf:RDF>
      <cc:Work
         rdf:about="">
        <dc:format>image/svg+xml</dc:format>
        <dc:type
           rdf:resource="http://purl.org/dc/dcmitype/StillImage" />
        <dc:title></dc:title>
      </cc:Work>
    </rdf:RDF>
  </metadata>
  <defs
     id="defs12" />
  <sodipodi:namedview
     pagecolor="#ffffff"
     bordercolor="#666666"
     borderopacity="1"
     objecttolerance="10"
     gridtolerance="10"
     guidetolerance="10"
     inkscape:pageopacity="0"
     inkscape:pageshadow="2"
     inkscape:window-width="1600"
     inkscape:window-height="814"
     id="namedview10"
     showgrid="false"
     inkscape:zoom="9.8333333"
     inkscape:cx="-21.050847"
     inkscape:cy="12"
     inkscape:window-x="0"
     inkscape:window-y="24"
     inkscape:window-maximized="1"
     inkscape:current-layer="svg2" />
  <g
     id="g4134"
     transform="translate(-1.0004076,-0.98955577)">
    <path
       style="color:#000000;text-indent:0;text-decoration:none;text-decoration-line:none;text-decoration-style:solid;text-decoration-color:#000000;text-transform:none;block-progression:tb;white-space:normal;isolation:auto;mix-blend-mode:normal;solid-color:#000000;fill:#ffffff;fill-opacity:1;fill-rule:evenodd;color-rendering:auto;image-rendering:auto;shape-rendering:auto"
       d="M 8.0117,3.9844 A 1.0001,1.0001 0 0 0 7.5195,4.1113 1.0001,1.0001 0 0 0 7.4453,4.1562 1.0001,1.0001 0 0 0 7.0527,4.6348 L 3.207,11.367 a 1.0001,1.0001 0 0 0 -0.1367,1 1.0001,1.0001 0 0 0 0.043,0.092 1.0001,1.0001 0 0 0 0.0176,0.033 l 3.9257,6.871 a 1.0001,1.0001 0 0 0 0.793,0.621 1.0001,1.0001 0 0 0 0.0977,0.01 1.0001,1.0001 0 0 0 0.0527,0 l 8,0 a 1.0008,1.0008 0 0 0 0.012,0 1.0001,1.0001 0 0 0 0.023,0 1.0001,1.0001 0 0 0 0.076,0 1.0001,1.0001 0 0 0 0.834,-0.633 l 3.903,-6.826 a 1.0008,1.0008 0 0 0 0.064,-0.119 1.0008,1.0008 0 0 0 0.004,-0.01 1.0001,1.0001 0 0 0 0.033,-0.086 1.0001,1.0001 0 0 0 -0.156,-0.953 1.0001,1.0001 0 0 0 -0.002,0 L 19.273,8.7129 A 3,3 0 0 1 18,9 3,3 0 0 1 17.041,8.8398 L 18.848,12 16.871,15.457 13.414,12 16.709,8.7051 A 3,3 0 0 1 15.295,7.291 L 12,10.586 8.1562,6.7422 8.582,6 15,6 a 3,3 0 0 1 0.771,-2.0039 l -7.6226,0 A 1.0001,1.0001 0 0 0 8.0117,3.9844 Z M 7.1289,8.543 10.586,12 7.1289,15.457 5.1523,12 7.1289,8.543 Z M 12,13.414 15.844,17.258 15.42,18 8.5801,18 8.1562,17.258 12,13.414 Z"
       id="path6"
       inkscape:connector-curvature="0" />
    <path
       style="color:#000000;opacity:0.98999999;fill:#009dff"
       d="m 20,6 a 2,2 0 0 1 -4,0 2,2 0 1 1 4,0 z"
       id="path8"
       inkscape:connector-curvature="0" />
  </g>
</svg>
