<?xml version="1.0" encoding="UTF-8" standalone="no"?>
<!-- Created with Inkscape (http://www.inkscape.org/) -->

<svg
   xmlns:dc="http://purl.org/dc/elements/1.1/"
   xmlns:cc="http://creativecommons.org/ns#"
   xmlns:rdf="http://www.w3.org/1999/02/22-rdf-syntax-ns#"
   xmlns:svg="http://www.w3.org/2000/svg"
   xmlns="http://www.w3.org/2000/svg"
   xmlns:xlink="http://www.w3.org/1999/xlink"
   xmlns:sodipodi="http://sodipodi.sourceforge.net/DTD/sodipodi-0.dtd"
   xmlns:inkscape="http://www.inkscape.org/namespaces/inkscape"
   width="48px"
   height="48px"
   id="svg4951"
   version="1.1"
   inkscape:version="0.91 r13725"
   sodipodi:docname="application-x-clementine2.svg">
  <defs
     id="defs4953">
    <linearGradient
       id="linearGradient4806-2">
      <stop
         id="stop4808-4"
         style="stop-color:#ffffff;stop-opacity:1"
         offset="0" />
      <stop
         id="stop4810-0"
         style="stop-color:#ffffff;stop-opacity:0.23529412"
         offset="0.42447853" />
      <stop
         id="stop4812-8"
         style="stop-color:#ffffff;stop-opacity:0.15686275"
         offset="0.82089913" />
      <stop
         id="stop4814-0"
         style="stop-color:#ffffff;stop-opacity:0.39215687"
         offset="1" />
    </linearGradient>
    <linearGradient
       inkscape:collect="always"
       xlink:href="#linearGradient4806-2"
       id="linearGradient3189"
       gradientUnits="userSpaceOnUse"
       gradientTransform="matrix(1.6169806,0,0,1.6169806,-92.707374,-21.060237)"
       x1="71.204407"
       y1="15.369057"
       x2="71.204407"
       y2="40.495617" />
    <linearGradient
       id="linearGradient2867-449-88-871-390-598-476-591-434-148-57-177-8-3-3-6-4-8-8-8">
      <stop
         offset="0"
         style="stop-color:#ffa52d;stop-opacity:1"
         id="stop3750-1-0-7-6-6-1-3-9" />
      <stop
         offset="1"
         style="stop-color:#e97c1a;stop-opacity:1"
         id="stop3756-1-6-2-6-6-1-96-6" />
    </linearGradient>
    <radialGradient
       inkscape:collect="always"
       xlink:href="#linearGradient2867-449-88-871-390-598-476-591-434-148-57-177-8-3-3-6-4-8-8-8"
       id="radialGradient4163"
       cx="24"
       cy="24"
       fx="24"
       fy="24"
       r="20.5"
       gradientTransform="translate(0,1.0536629e-6)"
       gradientUnits="userSpaceOnUse" />
  </defs>
  <sodipodi:namedview
     id="base"
     pagecolor="#ffffff"
     bordercolor="#666666"
     borderopacity="1.0"
     inkscape:pageopacity="0.0"
     inkscape:pageshadow="2"
     inkscape:zoom="1"
     inkscape:cx="17.952947"
     inkscape:cy="26.079875"
     inkscape:current-layer="layer1"
     showgrid="true"
     inkscape:grid-bbox="true"
     inkscape:document-units="px"
     inkscape:window-width="1600"
     inkscape:window-height="876"
     inkscape:window-x="0"
     inkscape:window-y="24"
     inkscape:window-maximized="1"
     showguides="false" />
  <metadata
     id="metadata4956">
    <rdf:RDF>
      <cc:Work
         rdf:about="">
        <dc:format>image/svg+xml</dc:format>
        <dc:type
           rdf:resource="http://purl.org/dc/dcmitype/StillImage" />
        <dc:title></dc:title>
      </cc:Work>
    </rdf:RDF>
  </metadata>
  <g
     id="layer1"
     inkscape:label="Layer 1"
     inkscape:groupmode="layer">
    <path
       d="m 24,3.5000006 c -11.31119,0 -20.5000002,9.1888064 -20.5000002,20.4999984 0,11.311193 9.1888102,20.500003 20.5000002,20.5 11.31119,0 20.50001,-9.188807 20.5,-20.5 C 44.5,12.688807 35.31119,3.5000006 24,3.5000006 Z"
       inkscape:connector-curvature="0"
       id="path2555-7-2"
       style="color:#000000;display:inline;overflow:visible;visibility:visible;fill:url(#radialGradient4163);fill-opacity:1;fill-rule:nonzero;stroke:none;stroke-width:0.99999994;marker:none;enable-background:accumulate" />
    <path
       inkscape:connector-curvature="0"
       style="color:#000000;display:inline;overflow:visible;visibility:visible;opacity:0.4;fill:none;stroke:#640000;stroke-width:1;stroke-opacity:1;marker:none;enable-background:accumulate"
       d="M 24,3.4999999 C 12.68881,3.4999999 3.5,12.688806 3.5,23.999999 3.5,35.31119 12.68881,44.5 24,44.5 35.31119,44.5 44.50001,35.31119 44.5,23.999999 44.5,12.688806 35.31119,3.4999999 24,3.4999999 Z"
       id="path3871" />
    <path
       inkscape:connector-curvature="0"
       style="color:#000000;display:inline;overflow:visible;visibility:visible;opacity:0.3;fill:none;stroke:url(#linearGradient3189);stroke-width:1;stroke-linecap:round;stroke-linejoin:round;stroke-miterlimit:4;stroke-dasharray:none;stroke-dashoffset:0;stroke-opacity:1;marker:none;enable-background:accumulate"
       d="M 43.5,24.000001 C 43.5,34.76955 34.76954,43.5 23.99999,43.5 13.23045,43.5 4.5,34.76955 4.5,24.000001 4.5,13.23045 13.23045,4.5000019 23.99999,4.5000019 34.76954,4.5000019 43.5,13.23045 43.5,24.000001 Z"
       id="path4176" />
    <g
       id="g4147">
      <path
         id="path4405"
         d="M 24,5 A 19,19 0 0 0 5,24 19,19 0 0 0 24,43 19,19 0 0 0 43,24 19,19 0 0 0 24,5 Z m 0.65,3.4238 c 0.272,-0.0097 0.568,-0.0097 0.879,0 1.868,0.0585 4.262,0.5034 5.082,1.7482 0.678,1.028 -0.214,2.081 -0.711,2.916 -1.23,2.067 -2.314,4.31 -3.505,6.422 -0.324,0.574 -1.524,2.544 -2.301,1.56 C 22.44,18.978 21.953,14.596 21.707,12.021 21.629,11.2 21.357,9.9219 21.746,9.1562 22.081,8.4971 23.279,8.5545 23.916,8.4785 24.13,8.4531 24.378,8.4336 24.65,8.4238 Z m -6.795,1.3379 c 0.345,0.0212 0.677,0.1292 0.979,0.3553 1.082,0.811 1.397,2.523 1.746,3.723 0.452,1.557 1.071,2.974 1.371,4.588 0.132,0.71 0.988,2.463 0.022,2.896 -0.699,0.314 -1.769,-0.465 -2.381,-0.734 -2.15,-0.944 -4.368,-2.399 -6.221,-3.85 -2.932,-2.295 -0.669,-4.181 1.551,-5.789 0.754,-0.546 1.899,-1.2527 2.933,-1.1893 z M 33.703,11.73 c 1.774,-0.174 2.894,1.746 3.824,2.93 0.698,0.888 1.94,2.969 1.27,4.104 -0.443,0.75 -1.456,0.894 -2.197,1.172 -1.929,0.72 -3.892,1.47 -5.916,1.927 -0.792,0.179 -4.001,1.327 -4.543,0.606 -0.266,-0.353 0.144,-1.019 0.306,-1.344 0.627,-1.257 1.56,-2.224 2.293,-3.393 1.013,-1.613 2.249,-3.003 3.397,-4.503 0.445,-0.583 0.728,-1.416 1.566,-1.499 z m -22.932,6.653 c 2.559,-0.102 5.732,1.858 7.827,2.953 0.762,0.398 1.8,0.653 2.414,1.285 1.011,1.042 -0.709,1.739 -1.51,1.895 -2.58,0.502 -5.189,0.794 -7.772,1.261 -0.838,0.152 -2.4873,0.514 -3.1597,-0.213 -1.6762,-1.812 -0.8897,-6.724 1.6977,-7.132 0.164,-0.026 0.333,-0.042 0.503,-0.049 z m 27.594,3.594 c 0.234,0.01 0.457,0.053 0.656,0.146 2.296,1.064 1.255,6.606 -0.964,7.225 -1.516,0.422 -3.325,-0.497 -4.67,-1.11 -1.739,-0.792 -3.563,-1.3 -5.225,-2.273 -0.5,-0.293 -1.661,-0.983 -1.256,-1.692 0.456,-0.797 1.912,-0.861 2.686,-1.029 2.192,-0.475 4.412,-0.677 6.642,-0.959 0.622,-0.078 1.429,-0.339 2.131,-0.308 z M 20.01,25.361 c 0.489,-0.024 0.918,0.03 1.224,0.205 1.158,0.665 -0.359,2.407 -0.742,3.1 -1.225,2.219 -2.831,4.542 -4.383,6.543 -0.599,0.773 -1.408,1.668 -2.5,1.098 -1.731,-0.905 -3.132,-3.294 -3.8629,-5.02 -0.2797,-0.66 -0.6963,-1.601 -0.2012,-2.254 1.1581,-1.528 4.3801,-1.992 6.0761,-2.533 0.905,-0.289 2.92,-1.065 4.389,-1.139 z m 6.426,0.987 c 0.698,0.083 1.603,0.714 2.015,0.951 2.102,1.208 4.389,2.454 6.162,4.086 0.387,0.355 1.047,0.501 1.35,0.924 0.423,0.59 0.108,1.859 -0.264,2.41 -0.942,1.395 -5.256,4.53 -6.711,2.654 -1.742,-2.246 -2.272,-5.375 -2.916,-8.092 -0.148,-0.626 -0.884,-2.28 -0.24,-2.799 0.161,-0.129 0.371,-0.162 0.604,-0.134 z m -2.971,0.619 c 0.07,-0.011 0.137,-0.01 0.203,0.006 0.509,0.119 0.722,0.891 0.916,1.297 0.66,1.381 0.981,2.764 1.275,4.271 0.304,1.549 1.481,4.711 0.618,6.176 -0.784,1.33 -4.487,0.808 -5.721,0.515 -1.004,-0.237 -2.64,-0.424 -3.217,-1.396 -0.447,-0.754 0.139,-1.503 0.473,-2.16 0.825,-1.629 1.74,-3.19 2.58,-4.815 0.369,-0.713 1.82,-3.725 2.873,-3.894 z"
         inkscape:connector-curvature="0"
         style="fill:#fbfdce" />
      <path
         id="path4343"
         d="m 24.65,8.4238 c -0.272,0.0098 -0.52,0.0293 -0.734,0.0547 -0.637,0.076 -1.835,0.0186 -2.17,0.6777 -0.389,0.7657 -0.117,2.0438 -0.039,2.8648 0.246,2.575 0.733,6.957 2.387,9.049 0.777,0.984 1.977,-0.986 2.301,-1.56 1.191,-2.112 2.275,-4.355 3.505,-6.422 0.497,-0.835 1.389,-1.888 0.711,-2.916 -0.82,-1.2448 -3.214,-1.6897 -5.082,-1.7482 -0.311,-0.0097 -0.607,-0.0097 -0.879,0 z m 0.043,1 c 0.246,-0.0088 0.521,-0.0091 0.813,0 0.868,0.0272 1.867,0.1491 2.683,0.3887 0.817,0.2395 1.4,0.6155 1.594,0.9105 0.142,0.214 0.125,0.277 -0.008,0.605 -0.132,0.329 -0.438,0.763 -0.726,1.248 -1.261,2.119 -2.347,4.367 -3.518,6.442 -0.135,0.24 -0.485,0.777 -0.779,1.093 -0.573,-0.851 -1.08,-2.124 -1.395,-3.593 -0.344,-1.609 -0.526,-3.314 -0.648,-4.592 -0.045,-0.471 -0.127,-0.971 -0.152,-1.414 -0.023,-0.41 0.028,-0.7269 0.076,-0.8538 0.021,-0.0048 0.092,-0.0427 0.273,-0.0762 0.301,-0.0554 0.714,-0.0611 1.135,-0.1113 l 0,0.002 c 0.183,-0.0218 0.406,-0.04 0.652,-0.0489 z m -6.838,0.3379 c -1.034,-0.0634 -2.179,0.6433 -2.933,1.1893 -2.22,1.608 -4.483,3.494 -1.551,5.789 1.853,1.451 4.071,2.906 6.221,3.85 0.612,0.269 1.682,1.048 2.381,0.734 0.966,-0.433 0.11,-2.186 -0.022,-2.896 -0.3,-1.614 -0.919,-3.031 -1.371,-4.588 -0.349,-1.2 -0.664,-2.912 -1.746,-3.723 C 18.532,9.8909 18.2,9.7829 17.855,9.7617 Z M 17.801,10.76 c 0.176,0.011 0.297,0.051 0.439,0.158 0.616,0.462 1.012,1.912 1.387,3.201 0.475,1.635 1.073,3.018 1.348,4.492 0.11,0.592 0.341,1.116 0.423,1.555 0.02,0.102 0.011,0.118 0.014,0.188 C 21.354,20.342 21.367,20.351 21.158,20.26 20.819,20.111 20.435,19.865 20,19.674 17.965,18.78 15.797,17.365 13.994,15.953 c -0.631,-0.494 -0.885,-0.895 -0.969,-1.16 -0.083,-0.265 -0.061,-0.451 0.092,-0.76 0.307,-0.616 1.308,-1.482 2.399,-2.271 0.697,-0.505 1.748,-1.035 2.285,-1.002 z m 15.902,0.97 c -0.838,0.083 -1.121,0.916 -1.566,1.499 -1.148,1.5 -2.384,2.89 -3.397,4.503 -0.733,1.169 -1.666,2.136 -2.293,3.393 -0.162,0.325 -0.572,0.991 -0.306,1.344 0.542,0.721 3.751,-0.427 4.543,-0.606 2.024,-0.457 3.987,-1.207 5.916,-1.927 0.741,-0.278 1.754,-0.422 2.197,-1.172 0.67,-1.135 -0.572,-3.216 -1.27,-4.104 -0.93,-1.184 -2.05,-3.104 -3.824,-2.93 z m 0.104,0.997 0.002,0 c 0.511,-0.051 0.918,0.172 1.429,0.673 0.511,0.501 1.003,1.232 1.51,1.877 0.293,0.373 0.745,1.072 1.008,1.719 0.263,0.647 0.249,1.156 0.187,1.26 -0.132,0.224 -0.772,0.4 -1.687,0.742 -1.933,0.723 -3.855,1.455 -5.785,1.891 -0.562,0.126 -1.464,0.436 -2.366,0.64 -0.309,0.07 -0.547,0.091 -0.793,0.119 0.016,-0.029 0.022,-0.045 0.038,-0.076 0.541,-1.085 1.439,-2.027 2.244,-3.308 0.955,-1.523 2.166,-2.889 3.344,-4.428 0.3,-0.393 0.479,-0.739 0.624,-0.922 0.146,-0.183 0.141,-0.177 0.245,-0.187 z m -23.036,5.656 c -0.17,0.007 -0.339,0.023 -0.503,0.049 -2.5874,0.408 -3.3739,5.32 -1.6977,7.132 0.6724,0.727 2.3217,0.365 3.1597,0.213 2.583,-0.467 5.192,-0.759 7.772,-1.261 0.801,-0.156 2.521,-0.853 1.51,-1.895 -0.614,-0.632 -1.652,-0.887 -2.414,-1.285 -2.095,-1.095 -5.268,-3.055 -7.827,-2.953 z m 0.047,1 c 2.017,-0.081 5.161,1.71 7.323,2.84 0.847,0.443 1.57,0.702 1.953,0.99 -0.245,0.127 -0.575,0.283 -0.776,0.322 -2.527,0.492 -5.132,0.783 -7.759,1.258 -0.444,0.08 -1.014,0.194 -1.495,0.209 C 9.5842,25.017 9.3137,24.888 9.3105,24.885 8.8311,24.366 8.545,22.943 8.8066,21.674 8.9375,21.039 9.1841,20.458 9.4805,20.064 9.7769,19.671 10.08,19.475 10.43,19.42 c 0.123,-0.02 0.254,-0.032 0.388,-0.037 z m 27.547,2.594 c -0.702,-0.031 -1.509,0.23 -2.131,0.308 -2.23,0.282 -4.45,0.484 -6.642,0.959 -0.774,0.168 -2.23,0.232 -2.686,1.029 -0.405,0.709 0.756,1.399 1.256,1.692 1.662,0.973 3.486,1.481 5.225,2.273 1.345,0.613 3.154,1.532 4.67,1.11 2.219,-0.619 3.26,-6.161 0.964,-7.225 -0.199,-0.093 -0.422,-0.136 -0.656,-0.146 z m -0.037,1 c 0.138,0.006 0.228,0.03 0.279,0.054 0.248,0.115 0.45,0.361 0.588,0.854 0.139,0.493 0.164,1.181 0.057,1.863 -0.107,0.683 -0.345,1.36 -0.637,1.846 -0.291,0.485 -0.618,0.734 -0.82,0.791 -0.957,0.266 -2.606,-0.428 -3.986,-1.057 -1.833,-0.835 -3.617,-1.338 -5.135,-2.226 -0.204,-0.12 -0.452,-0.295 -0.639,-0.448 0.097,-0.058 0.115,-0.1 0.358,-0.164 0.413,-0.109 0.929,-0.163 1.418,-0.269 2.112,-0.458 4.303,-0.659 6.556,-0.944 0.788,-0.099 1.54,-0.319 1.961,-0.3 z M 20.01,25.361 c -1.469,0.074 -3.484,0.85 -4.389,1.139 -1.696,0.541 -4.918,1.005 -6.0761,2.533 -0.4951,0.653 -0.0785,1.594 0.2012,2.254 0.7309,1.726 2.1319,4.115 3.8629,5.02 1.092,0.57 1.901,-0.325 2.5,-1.098 1.552,-2.001 3.158,-4.324 4.383,-6.543 0.383,-0.693 1.9,-2.435 0.742,-3.1 -0.306,-0.175 -0.735,-0.229 -1.224,-0.205 z m 6.426,0.987 c -0.233,-0.028 -0.443,0.005 -0.604,0.134 -0.644,0.519 0.092,2.173 0.24,2.799 0.644,2.717 1.174,5.846 2.916,8.092 1.455,1.876 5.769,-1.259 6.711,-2.654 0.372,-0.551 0.687,-1.82 0.264,-2.41 C 35.66,31.886 35,31.74 34.613,31.385 32.84,29.753 30.553,28.507 28.451,27.299 28.039,27.062 27.134,26.431 26.436,26.348 Z m -6.37,0.011 c 0.321,-0.016 0.472,0.033 0.561,0.061 -0.014,0.067 -0.016,0.114 -0.086,0.264 -0.209,0.448 -0.628,0.974 -0.918,1.5 -1.189,2.153 -2.77,4.443 -4.297,6.412 -0.28,0.362 -0.585,0.684 -0.791,0.808 -0.206,0.124 -0.19,0.155 -0.455,0.016 -1.287,-0.673 -2.725,-2.915 -3.406,-4.524 -0.143,-0.337 -0.283,-0.683 -0.33,-0.929 -0.048,-0.247 -0.021,-0.295 0.006,-0.33 0.338,-0.447 1.255,-0.936 2.345,-1.287 1.091,-0.352 2.293,-0.596 3.237,-0.897 0.99,-0.316 2.972,-1.035 4.134,-1.094 z m 3.399,0.608 c -1.053,0.169 -2.504,3.181 -2.873,3.894 -0.84,1.625 -1.755,3.186 -2.58,4.815 -0.334,0.657 -0.92,1.406 -0.473,2.16 0.577,0.972 2.213,1.159 3.217,1.396 1.234,0.293 4.937,0.815 5.721,-0.515 0.863,-1.465 -0.314,-4.627 -0.618,-6.176 -0.294,-1.507 -0.615,-2.89 -1.275,-4.271 -0.194,-0.406 -0.407,-1.178 -0.916,-1.297 -0.066,-0.016 -0.133,-0.017 -0.203,-0.006 z m 3.154,0.492 c 0.151,0.054 0.269,0.081 0.463,0.186 0.317,0.171 0.612,0.369 0.877,0.521 2.116,1.216 4.339,2.441 5.984,3.955 0.352,0.324 0.689,0.464 0.914,0.584 0.226,0.12 0.317,0.21 0.299,0.186 -0.054,-0.076 0.043,0.162 -0.008,0.482 -0.05,0.32 -0.211,0.699 -0.271,0.787 -0.27,0.399 -1.569,1.581 -2.799,2.227 -0.615,0.323 -1.225,0.528 -1.637,0.562 -0.411,0.034 -0.521,-0.016 -0.656,-0.189 -1.527,-1.968 -2.077,-4.945 -2.732,-7.709 -0.114,-0.482 -0.316,-0.975 -0.414,-1.424 -0.017,-0.076 -0.011,-0.102 -0.02,-0.168 z m -3.178,0.687 c 0.07,0.154 0.137,0.323 0.248,0.555 0.603,1.261 0.905,2.546 1.196,4.031 0.174,0.889 0.536,2.028 0.746,3.118 0.209,1.089 0.161,2.069 -0.01,2.359 -0.007,0.011 -0.121,0.134 -0.459,0.229 -0.338,0.094 -0.837,0.146 -1.369,0.146 -1.063,-0.001 -2.27,-0.199 -2.799,-0.324 -0.563,-0.134 -1.186,-0.236 -1.689,-0.401 -0.504,-0.164 -0.808,-0.379 -0.899,-0.533 -0.051,-0.087 -0.052,-0.055 0.024,-0.264 0.076,-0.208 0.276,-0.53 0.48,-0.933 0.808,-1.593 1.721,-3.153 2.576,-4.809 0.203,-0.391 0.638,-1.277 1.141,-2.08 0.251,-0.401 0.52,-0.776 0.742,-1.019 0.062,-0.068 0.021,-0.034 0.072,-0.075 z"
         inkscape:connector-curvature="0"
         style="opacity:0.15" />
    </g>
  </g>
</svg>
