<?xml version="1.0" encoding="UTF-8" standalone="no"?>
<!-- Created with Inkscape (http://www.inkscape.org/) -->

<svg
   xmlns:dc="http://purl.org/dc/elements/1.1/"
   xmlns:cc="http://creativecommons.org/ns#"
   xmlns:rdf="http://www.w3.org/1999/02/22-rdf-syntax-ns#"
   xmlns:svg="http://www.w3.org/2000/svg"
   xmlns="http://www.w3.org/2000/svg"
   xmlns:sodipodi="http://sodipodi.sourceforge.net/DTD/sodipodi-0.dtd"
   xmlns:inkscape="http://www.inkscape.org/namespaces/inkscape"
   id="svg4389"
   height="48"
   width="48"
   version="1.1"
   inkscape:version="0.91 r13725"
   sodipodi:docname="asa.svg">
  <sodipodi:namedview
     pagecolor="#ffffff"
     bordercolor="#666666"
     borderopacity="1"
     objecttolerance="10"
     gridtolerance="10"
     guidetolerance="10"
     inkscape:pageopacity="0"
     inkscape:pageshadow="2"
     inkscape:window-width="1535"
     inkscape:window-height="876"
     id="namedview246"
     showgrid="false"
     inkscape:zoom="4.9166667"
     inkscape:cx="-10.779661"
     inkscape:cy="24"
     inkscape:window-x="65"
     inkscape:window-y="24"
     inkscape:window-maximized="1"
     inkscape:current-layer="svg4389" />
  <defs
     id="defs4391">
    <linearGradient
       id="linearGradient3847"
       y2="5.1758"
       gradientUnits="userSpaceOnUse"
       x2="-95.838"
       gradientTransform="matrix(0.8075,0,0,0.83374,106.88,-0.069851)"
       y1="54.2"
       x1="-95.838">
      <stop
         id="stop3106-5-4-3-5-0-1-61-9-2-7-3-3"
         stop-opacity=".32174"
         offset="0" />
      <stop
         id="stop3108-4-3-7-8-2-4-01-9-9-0-6-4"
         stop-opacity=".27826"
         offset="1" />
    </linearGradient>
    <linearGradient
       id="linearGradient3850"
       y2="43"
       gradientUnits="userSpaceOnUse"
       x2="24"
       gradientTransform="translate(4e-6,1)"
       y1="5"
       x1="24">
      <stop
         id="stop3926-3"
         stop-color="#fff"
         offset="0" />
      <stop
         id="stop3928-91"
         stop-color="#fff"
         stop-opacity=".23529"
         offset=".063165" />
      <stop
         id="stop3930-6"
         stop-color="#fff"
         stop-opacity=".15686"
         offset=".95056" />
      <stop
         id="stop3932-6"
         stop-color="#fff"
         stop-opacity=".39216"
         offset="1" />
    </linearGradient>
    <radialGradient
       id="radialGradient3857"
       gradientUnits="userSpaceOnUse"
       cy="4.3419"
       cx="32"
       gradientTransform="matrix(0,1.6258,-1.6258,0,31.059,-46.135)"
       r="27.5">
      <stop
         id="stop4634-68-8-0-2-9-1"
         stop-color="#faface"
         offset="0" />
      <stop
         id="stop4636-8-21-7-1-4-9"
         stop-color="#e1e1a2"
         offset="1" />
    </radialGradient>
  </defs>
  <metadata
     id="metadata4394">
    <rdf:RDF>
      <cc:Work
         rdf:about="">
        <dc:format>image/svg+xml</dc:format>
        <dc:type
           rdf:resource="http://purl.org/dc/dcmitype/StillImage" />
        <dc:title />
      </cc:Work>
    </rdf:RDF>
  </metadata>
  <text
     id="text4087-2-6-5"
     opacity=".8"
     xml:space="preserve"
     font-size="12.666px"
     y="10.722242"
     x="930.43976"
     font-family="Bitstream Vera Sans"
     fill="#000000"><tspan
       id="tspan4089-7-2-9"
       y="10.722242"
       x="930.43976" /></text>
  <text
     id="text4087-2-6-5-5"
     opacity=".8"
     xml:space="preserve"
     font-size="12.666px"
     y="-30.019464"
     x="954.4007"
     font-family="Bitstream Vera Sans"
     fill="#000000"><tspan
       id="tspan4089-7-2-9-6"
       y="-30.019464"
       x="954.4007" /></text>
  <text
     id="text4087-2-6-5-2"
     opacity=".8"
     xml:space="preserve"
     font-size="12.666px"
     y="-60.097607"
     x="-516.15765"
     font-family="Bitstream Vera Sans"
     fill="#000000"><tspan
       id="tspan4089-7-2-9-2"
       y="-60.097607"
       x="-516.15765" /></text>
  <text
     id="text4087-2-6-5-59"
     opacity=".8"
     xml:space="preserve"
     font-size="12.666px"
     y="685.45587"
     x="-2339.8438"
     font-family="Bitstream Vera Sans"
     fill="#000000"><tspan
       id="tspan4089-7-2-9-4"
       y="685.45587"
       x="-2339.8438" /></text>
  <text
     id="text4087-2-6-5-1"
     opacity=".8"
     xml:space="preserve"
     font-size="12.666px"
     y="-445.41858"
     x="-401.66656"
     font-family="Bitstream Vera Sans"
     fill="#000000"><tspan
       id="tspan4089-7-2-9-7"
       y="-445.41858"
       x="-401.66656" /></text>
  <text
     id="text4087-2-6-5-7"
     opacity=".8"
     xml:space="preserve"
     font-size="12.666px"
     y="-858.88867"
     x="405.93558"
     font-family="Bitstream Vera Sans"
     fill="#000000"><tspan
       id="tspan4089-7-2-9-1"
       y="-858.88867"
       x="405.93558" /></text>
  <text
     id="text4087-2-6-5-5-3"
     opacity=".8"
     xml:space="preserve"
     font-size="12.666px"
     y="-899.63037"
     x="429.89651"
     font-family="Bitstream Vera Sans"
     fill="#000000"><tspan
       id="tspan4089-7-2-9-6-5"
       y="-899.63037"
       x="429.89651" /></text>
  <text
     id="text4087-2-6-5-3"
     opacity=".8"
     xml:space="preserve"
     font-size="12.666px"
     y="-906.84027"
     x="-1061.5667"
     font-family="Bitstream Vera Sans"
     fill="#000000"><tspan
       id="tspan4089-7-2-9-18"
       y="-906.84027"
       x="-1061.5667" /></text>
  <text
     id="text4087-2-6-5-4"
     opacity=".8"
     xml:space="preserve"
     font-size="12.666px"
     y="-1180.0745"
     x="398.9761"
     font-family="Bitstream Vera Sans"
     fill="#000000"><tspan
       id="tspan4089-7-2-9-9"
       y="-1180.0745"
       x="398.9761" /></text>
  <text
     id="text4087-2-6-5-7-1"
     opacity=".8"
     xml:space="preserve"
     font-size="12.666px"
     y="-553.38306"
     x="1885.0996"
     font-family="Bitstream Vera Sans"
     fill="#000000"><tspan
       id="tspan4089-7-2-9-1-8"
       y="-553.38306"
       x="1885.0996" /></text>
  <text
     id="text4087-2-6-5-5-5"
     opacity=".8"
     xml:space="preserve"
     font-size="12.666px"
     y="-594.12482"
     x="1909.0604"
     font-family="Bitstream Vera Sans"
     fill="#000000"><tspan
       id="tspan4089-7-2-9-6-9"
       y="-594.12482"
       x="1909.0604" /></text>
  <text
     id="text4087-2-6-5-75"
     opacity=".8"
     xml:space="preserve"
     font-size="12.666px"
     y="-601.33472"
     x="417.59726"
     font-family="Bitstream Vera Sans"
     fill="#000000"><tspan
       id="tspan4089-7-2-9-3"
       y="-601.33472"
       x="417.59726" /></text>
  <text
     id="text4087-2-6-5-4-8"
     opacity=".8"
     xml:space="preserve"
     font-size="12.666px"
     y="-874.56873"
     x="1878.1401"
     font-family="Bitstream Vera Sans"
     fill="#000000"><tspan
       id="tspan4089-7-2-9-9-8"
       y="-874.56873"
       x="1878.1401" /></text>
  <text
     id="text4087-2-6-5-45"
     opacity=".8"
     xml:space="preserve"
     font-size="12.666px"
     y="-649.42603"
     x="-520.21906"
     font-family="Bitstream Vera Sans"
     fill="#000000"><tspan
       id="tspan4089-7-2-9-75"
       y="-649.42603"
       x="-520.21906" /></text>
  <text
     id="text4087-2-6-5-59-7"
     opacity=".8"
     xml:space="preserve"
     font-size="12.666px"
     y="96.127502"
     x="-2343.9048"
     font-family="Bitstream Vera Sans"
     fill="#000000"><tspan
       id="tspan4089-7-2-9-4-0"
       y="96.127502"
       x="-2343.9048" /></text>
  <text
     id="text4087-2-6-5-8"
     opacity=".8"
     xml:space="preserve"
     font-size="12.666px"
     y="188.99963"
     x="-629.14929"
     font-family="Bitstream Vera Sans"
     fill="#000000"><tspan
       id="tspan4089-7-2-9-19"
       y="188.99963"
       x="-629.14929" /></text>
  <text
     id="text4087-2-6-5-7-5"
     opacity=".8"
     xml:space="preserve"
     font-size="12.666px"
     y="9.8174934"
     x="479.87503"
     font-family="Bitstream Vera Sans"
     fill="#000000"><tspan
       id="tspan4089-7-2-9-1-2"
       y="9.8174934"
       x="479.87503" /></text>
  <text
     id="text4087-2-6-5-5-0"
     opacity=".8"
     xml:space="preserve"
     font-size="12.666px"
     y="-30.924213"
     x="503.83597"
     font-family="Bitstream Vera Sans"
     fill="#000000"><tspan
       id="tspan4089-7-2-9-6-2"
       y="-30.924213"
       x="503.83597" /></text>
  <text
     id="text4087-2-6-5-26"
     opacity=".8"
     xml:space="preserve"
     font-size="12.666px"
     y="-38.134186"
     x="-987.62726"
     font-family="Bitstream Vera Sans"
     fill="#000000"><tspan
       id="tspan4089-7-2-9-90"
       y="-38.134186"
       x="-987.62726" /></text>
  <text
     id="text4087-2-6-5-4-3"
     opacity=".8"
     xml:space="preserve"
     font-size="12.666px"
     y="-311.36826"
     x="472.91556"
     font-family="Bitstream Vera Sans"
     fill="#000000"><tspan
       id="tspan4089-7-2-9-9-5"
       y="-311.36826"
       x="472.91556" /></text>
  <text
     id="text4087-2-6-5-55"
     opacity=".8"
     xml:space="preserve"
     font-size="12.666px"
     y="-40.848431"
     x="-554.81903"
     font-family="Bitstream Vera Sans"
     fill="#000000"><tspan
       id="tspan4089-7-2-9-32"
       y="-40.848431"
       x="-554.81903" /></text>
  <text
     id="text4087-2-6-5-59-9"
     opacity=".8"
     xml:space="preserve"
     font-size="12.666px"
     y="704.70508"
     x="-2378.5051"
     font-family="Bitstream Vera Sans"
     fill="#000000"><tspan
       id="tspan4089-7-2-9-4-1"
       y="704.70508"
       x="-2378.5051" /></text>
  <text
     id="text4087-2-6-5-1-8"
     opacity=".8"
     xml:space="preserve"
     font-size="12.666px"
     y="-902.37891"
     x="-403.72598"
     font-family="Bitstream Vera Sans"
     fill="#000000"><tspan
       id="tspan4089-7-2-9-7-8"
       y="-902.37891"
       x="-403.72598" /></text>
  <text
     id="text4087-2-6-5-7-8"
     opacity=".8"
     xml:space="preserve"
     font-size="12.666px"
     y="-1315.8491"
     x="403.87616"
     font-family="Bitstream Vera Sans"
     fill="#000000"><tspan
       id="tspan4089-7-2-9-1-9"
       y="-1315.8491"
       x="403.87616" /></text>
  <text
     id="text4087-2-6-5-5-52"
     opacity=".8"
     xml:space="preserve"
     font-size="12.666px"
     y="-1356.5908"
     x="427.83707"
     font-family="Bitstream Vera Sans"
     fill="#000000"><tspan
       id="tspan4089-7-2-9-6-4"
       y="-1356.5908"
       x="427.83707" /></text>
  <text
     id="text4087-2-6-5-3-4"
     opacity=".8"
     xml:space="preserve"
     font-size="12.666px"
     y="-1363.8008"
     x="-1063.6261"
     font-family="Bitstream Vera Sans"
     fill="#000000"><tspan
       id="tspan4089-7-2-9-18-3"
       y="-1363.8008"
       x="-1063.6261" /></text>
  <text
     id="text4087-2-6-5-4-7"
     opacity=".8"
     xml:space="preserve"
     font-size="12.666px"
     y="-1637.0349"
     x="396.91666"
     font-family="Bitstream Vera Sans"
     fill="#000000"><tspan
       id="tspan4089-7-2-9-9-54"
       y="-1637.0349"
       x="396.91666" /></text>
  <text
     id="text4087-2-6-5-7-1-2"
     opacity=".8"
     xml:space="preserve"
     font-size="12.666px"
     y="-1010.3436"
     x="1883.04"
     font-family="Bitstream Vera Sans"
     fill="#000000"><tspan
       id="tspan4089-7-2-9-1-8-0"
       y="-1010.3436"
       x="1883.04" /></text>
  <text
     id="text4087-2-6-5-5-5-6"
     opacity=".8"
     xml:space="preserve"
     font-size="12.666px"
     y="-1051.0852"
     x="1907.0009"
     font-family="Bitstream Vera Sans"
     fill="#000000"><tspan
       id="tspan4089-7-2-9-6-9-8"
       y="-1051.0852"
       x="1907.0009" /></text>
  <text
     id="text4087-2-6-5-75-4"
     opacity=".8"
     xml:space="preserve"
     font-size="12.666px"
     y="-1058.2952"
     x="415.53781"
     font-family="Bitstream Vera Sans"
     fill="#000000"><tspan
       id="tspan4089-7-2-9-3-9"
       y="-1058.2952"
       x="415.53781" /></text>
  <text
     id="text4087-2-6-5-4-8-1"
     opacity=".8"
     xml:space="preserve"
     font-size="12.666px"
     y="-1331.5293"
     x="1876.0806"
     font-family="Bitstream Vera Sans"
     fill="#000000"><tspan
       id="tspan4089-7-2-9-9-8-8"
       y="-1331.5293"
       x="1876.0806" /></text>
  <text
     id="text4087-2-6-5-45-0"
     opacity=".8"
     xml:space="preserve"
     font-size="12.666px"
     y="-1106.3865"
     x="-522.2785"
     font-family="Bitstream Vera Sans"
     fill="#000000"><tspan
       id="tspan4089-7-2-9-75-2"
       y="-1106.3865"
       x="-522.2785" /></text>
  <text
     id="text4087-2-6-5-59-5"
     opacity=".8"
     xml:space="preserve"
     font-size="12.666px"
     y="-360.83298"
     x="-2345.9644"
     font-family="Bitstream Vera Sans"
     fill="#000000"><tspan
       id="tspan4089-7-2-9-4-00"
       y="-360.83298"
       x="-2345.9644" /></text>
  <text
     id="text4087-2-6-5-264"
     opacity=".8"
     xml:space="preserve"
     font-size="12.666px"
     y="-267.96082"
     x="-631.20874"
     font-family="Bitstream Vera Sans"
     fill="#000000"><tspan
       id="tspan4089-7-2-9-8"
       y="-267.96082"
       x="-631.20874" /></text>
  <text
     id="text4087-2-6-5-42"
     opacity=".8"
     xml:space="preserve"
     font-size="12.666px"
     y="-27.046637"
     x="208.80579"
     font-family="Bitstream Vera Sans"
     fill="#000000"><tspan
       id="tspan4089-7-2-9-93"
       y="-27.046637"
       x="208.80579" /></text>
  <text
     id="text4087-2-6-5-5-05"
     opacity=".8"
     xml:space="preserve"
     font-size="12.666px"
     y="-67.788353"
     x="232.76672"
     font-family="Bitstream Vera Sans"
     fill="#000000"><tspan
       id="tspan4089-7-2-9-6-49"
       y="-67.788353"
       x="232.76672" /></text>
  <text
     id="text4087-2-6-5-1-4"
     opacity=".8"
     xml:space="preserve"
     font-size="12.666px"
     y="-261.81699"
     x="-1037.0499"
     font-family="Bitstream Vera Sans"
     fill="#000000"><tspan
       id="tspan4089-7-2-9-7-7"
       y="-261.81699"
       x="-1037.0499" /></text>
  <text
     id="text4087-2-6-5-7-56"
     opacity=".8"
     xml:space="preserve"
     font-size="12.666px"
     y="-675.28711"
     x="-229.44791"
     font-family="Bitstream Vera Sans"
     fill="#000000"><tspan
       id="tspan4089-7-2-9-1-1"
       y="-675.28711"
       x="-229.44791" /></text>
  <text
     id="text4087-2-6-5-5-8"
     opacity=".8"
     xml:space="preserve"
     font-size="12.666px"
     y="-716.02881"
     x="-205.48698"
     font-family="Bitstream Vera Sans"
     fill="#000000"><tspan
       id="tspan4089-7-2-9-6-7"
       y="-716.02881"
       x="-205.48698" /></text>
  <text
     id="text4087-2-6-5-3-42"
     opacity=".8"
     xml:space="preserve"
     font-size="12.666px"
     y="-723.23871"
     x="-1696.9501"
     font-family="Bitstream Vera Sans"
     fill="#000000"><tspan
       id="tspan4089-7-2-9-18-39"
       y="-723.23871"
       x="-1696.9501" /></text>
  <text
     id="text4087-2-6-5-4-4"
     opacity=".8"
     xml:space="preserve"
     font-size="12.666px"
     y="-996.47284"
     x="-236.40735"
     font-family="Bitstream Vera Sans"
     fill="#000000"><tspan
       id="tspan4089-7-2-9-9-3"
       y="-996.47284"
       x="-236.40735" /></text>
  <text
     id="text4087-2-6-5-7-1-0"
     opacity=".8"
     xml:space="preserve"
     font-size="12.666px"
     y="-369.78149"
     x="1249.7161"
     font-family="Bitstream Vera Sans"
     fill="#000000"><tspan
       id="tspan4089-7-2-9-1-8-5"
       y="-369.78149"
       x="1249.7161" /></text>
  <text
     id="text4087-2-6-5-5-5-5"
     opacity=".8"
     xml:space="preserve"
     font-size="12.666px"
     y="-410.52322"
     x="1273.6769"
     font-family="Bitstream Vera Sans"
     fill="#000000"><tspan
       id="tspan4089-7-2-9-6-9-2"
       y="-410.52322"
       x="1273.6769" /></text>
  <text
     id="text4087-2-6-5-75-9"
     opacity=".8"
     xml:space="preserve"
     font-size="12.666px"
     y="-417.73318"
     x="-217.78624"
     font-family="Bitstream Vera Sans"
     fill="#000000"><tspan
       id="tspan4089-7-2-9-3-1"
       y="-417.73318"
       x="-217.78624" /></text>
  <text
     id="text4087-2-6-5-4-8-18"
     opacity=".8"
     xml:space="preserve"
     font-size="12.666px"
     y="-690.96722"
     x="1242.7566"
     font-family="Bitstream Vera Sans"
     fill="#000000"><tspan
       id="tspan4089-7-2-9-9-8-4"
       y="-690.96722"
       x="1242.7566" /></text>
  <text
     id="text4087-2-6-5-45-3"
     opacity=".8"
     xml:space="preserve"
     font-size="12.666px"
     y="-465.82446"
     x="-1155.6025"
     font-family="Bitstream Vera Sans"
     fill="#000000"><tspan
       id="tspan4089-7-2-9-75-7"
       y="-465.82446"
       x="-1155.6025" /></text>
  <text
     id="text4087-2-6-5-59-8"
     opacity=".8"
     xml:space="preserve"
     font-size="12.666px"
     y="279.7291"
     x="-2979.2883"
     font-family="Bitstream Vera Sans"
     fill="#000000"><tspan
       id="tspan4089-7-2-9-4-2"
       y="279.7291"
       x="-2979.2883" /></text>
  <g
     id="layer4-0"
     transform="matrix(.90475 0 0 .90475 -663.53 -676.38)">
    <text
       id="text4087-2-6-5-20"
       opacity=".8"
       xml:space="preserve"
       font-size="14px"
       y="1159.4154"
       x="-664.2738"
       font-family="Bitstream Vera Sans"
       fill="#000000"><tspan
         id="tspan4089-7-2-9-82"
         y="1159.4154"
         x="-664.2738" /></text>
  </g>
  <text
     id="text4087-2-6-5-9"
     opacity=".8"
     xml:space="preserve"
     font-size="12.666px"
     y="17.96023"
     x="930.43976"
     font-family="Bitstream Vera Sans"
     fill="#000000"><tspan
       id="tspan4089-7-2-9-43"
       y="17.96023"
       x="930.43976" /></text>
  <text
     id="text4087-2-6-5-5-51"
     opacity=".8"
     xml:space="preserve"
     font-size="12.666px"
     y="-22.781475"
     x="954.4007"
     font-family="Bitstream Vera Sans"
     fill="#000000"><tspan
       id="tspan4089-7-2-9-6-74"
       y="-22.781475"
       x="954.4007" /></text>
  <text
     id="text4087-2-6-5-2-3"
     opacity=".8"
     xml:space="preserve"
     font-size="12.666px"
     y="-52.859619"
     x="-516.15765"
     font-family="Bitstream Vera Sans"
     fill="#000000"><tspan
       id="tspan4089-7-2-9-2-1"
       y="-52.859619"
       x="-516.15765" /></text>
  <text
     id="text4087-2-6-5-59-4"
     opacity=".8"
     xml:space="preserve"
     font-size="12.666px"
     y="692.69385"
     x="-2339.8438"
     font-family="Bitstream Vera Sans"
     fill="#000000"><tspan
       id="tspan4089-7-2-9-4-6"
       y="692.69385"
       x="-2339.8438" /></text>
  <text
     id="text4087-2-6-5-1-9"
     opacity=".8"
     xml:space="preserve"
     font-size="12.666px"
     y="-438.18057"
     x="-401.66656"
     font-family="Bitstream Vera Sans"
     fill="#000000"><tspan
       id="tspan4089-7-2-9-7-4"
       y="-438.18057"
       x="-401.66656" /></text>
  <text
     id="text4087-2-6-5-7-2"
     opacity=".8"
     xml:space="preserve"
     font-size="12.666px"
     y="-851.65063"
     x="405.93558"
     font-family="Bitstream Vera Sans"
     fill="#000000"><tspan
       id="tspan4089-7-2-9-1-26"
       y="-851.65063"
       x="405.93558" /></text>
  <text
     id="text4087-2-6-5-5-3-4"
     opacity=".8"
     xml:space="preserve"
     font-size="12.666px"
     y="-892.3924"
     x="429.89651"
     font-family="Bitstream Vera Sans"
     fill="#000000"><tspan
       id="tspan4089-7-2-9-6-5-1"
       y="-892.3924"
       x="429.89651" /></text>
  <text
     id="text4087-2-6-5-3-2"
     opacity=".8"
     xml:space="preserve"
     font-size="12.666px"
     y="-899.60229"
     x="-1061.5667"
     font-family="Bitstream Vera Sans"
     fill="#000000"><tspan
       id="tspan4089-7-2-9-18-8"
       y="-899.60229"
       x="-1061.5667" /></text>
  <text
     id="text4087-2-6-5-4-89"
     opacity=".8"
     xml:space="preserve"
     font-size="12.666px"
     y="-1172.8364"
     x="398.9761"
     font-family="Bitstream Vera Sans"
     fill="#000000"><tspan
       id="tspan4089-7-2-9-9-2"
       y="-1172.8364"
       x="398.9761" /></text>
  <text
     id="text4087-2-6-5-7-1-8"
     opacity=".8"
     xml:space="preserve"
     font-size="12.666px"
     y="-546.14508"
     x="1885.0996"
     font-family="Bitstream Vera Sans"
     fill="#000000"><tspan
       id="tspan4089-7-2-9-1-8-8"
       y="-546.14508"
       x="1885.0996" /></text>
  <text
     id="text4087-2-6-5-5-5-8"
     opacity=".8"
     xml:space="preserve"
     font-size="12.666px"
     y="-586.88684"
     x="1909.0604"
     font-family="Bitstream Vera Sans"
     fill="#000000"><tspan
       id="tspan4089-7-2-9-6-9-6"
       y="-586.88684"
       x="1909.0604" /></text>
  <text
     id="text4087-2-6-5-75-8"
     opacity=".8"
     xml:space="preserve"
     font-size="12.666px"
     y="-594.09674"
     x="417.59726"
     font-family="Bitstream Vera Sans"
     fill="#000000"><tspan
       id="tspan4089-7-2-9-3-3"
       y="-594.09674"
       x="417.59726" /></text>
  <text
     id="text4087-2-6-5-4-8-8"
     opacity=".8"
     xml:space="preserve"
     font-size="12.666px"
     y="-867.33069"
     x="1878.1401"
     font-family="Bitstream Vera Sans"
     fill="#000000"><tspan
       id="tspan4089-7-2-9-9-8-3"
       y="-867.33069"
       x="1878.1401" /></text>
  <text
     id="text4087-2-6-5-45-33"
     opacity=".8"
     xml:space="preserve"
     font-size="12.666px"
     y="-642.18805"
     x="-520.21906"
     font-family="Bitstream Vera Sans"
     fill="#000000"><tspan
       id="tspan4089-7-2-9-75-8"
       y="-642.18805"
       x="-520.21906" /></text>
  <text
     id="text4087-2-6-5-59-7-0"
     opacity=".8"
     xml:space="preserve"
     font-size="12.666px"
     y="103.36549"
     x="-2343.9048"
     font-family="Bitstream Vera Sans"
     fill="#000000"><tspan
       id="tspan4089-7-2-9-4-0-4"
       y="103.36549"
       x="-2343.9048" /></text>
  <text
     id="text4087-2-6-5-8-7"
     opacity=".8"
     xml:space="preserve"
     font-size="12.666px"
     y="196.23763"
     x="-629.14929"
     font-family="Bitstream Vera Sans"
     fill="#000000"><tspan
       id="tspan4089-7-2-9-19-6"
       y="196.23763"
       x="-629.14929" /></text>
  <text
     id="text4087-2-6-5-7-5-8"
     opacity=".8"
     xml:space="preserve"
     font-size="12.666px"
     y="17.055481"
     x="479.87503"
     font-family="Bitstream Vera Sans"
     fill="#000000"><tspan
       id="tspan4089-7-2-9-1-2-9"
       y="17.055481"
       x="479.87503" /></text>
  <text
     id="text4087-2-6-5-5-0-0"
     opacity=".8"
     xml:space="preserve"
     font-size="12.666px"
     y="-23.686224"
     x="503.83597"
     font-family="Bitstream Vera Sans"
     fill="#000000"><tspan
       id="tspan4089-7-2-9-6-2-6"
       y="-23.686224"
       x="503.83597" /></text>
  <text
     id="text4087-2-6-5-26-8"
     opacity=".8"
     xml:space="preserve"
     font-size="12.666px"
     y="-30.896194"
     x="-987.62726"
     font-family="Bitstream Vera Sans"
     fill="#000000"><tspan
       id="tspan4089-7-2-9-90-7"
       y="-30.896194"
       x="-987.62726" /></text>
  <text
     id="text4087-2-6-5-4-3-9"
     opacity=".8"
     xml:space="preserve"
     font-size="12.666px"
     y="-304.13025"
     x="472.91556"
     font-family="Bitstream Vera Sans"
     fill="#000000"><tspan
       id="tspan4089-7-2-9-9-5-0"
       y="-304.13025"
       x="472.91556" /></text>
  <text
     id="text4087-2-6-5-55-3"
     opacity=".8"
     xml:space="preserve"
     font-size="12.666px"
     y="-33.610439"
     x="-554.81903"
     font-family="Bitstream Vera Sans"
     fill="#000000"><tspan
       id="tspan4089-7-2-9-32-3"
       y="-33.610439"
       x="-554.81903" /></text>
  <text
     id="text4087-2-6-5-59-9-3"
     opacity=".8"
     xml:space="preserve"
     font-size="12.666px"
     y="711.94312"
     x="-2378.5051"
     font-family="Bitstream Vera Sans"
     fill="#000000"><tspan
       id="tspan4089-7-2-9-4-1-7"
       y="711.94312"
       x="-2378.5051" /></text>
  <text
     id="text4087-2-6-5-1-8-3"
     opacity=".8"
     xml:space="preserve"
     font-size="12.666px"
     y="-895.14093"
     x="-403.72598"
     font-family="Bitstream Vera Sans"
     fill="#000000"><tspan
       id="tspan4089-7-2-9-7-8-2"
       y="-895.14093"
       x="-403.72598" /></text>
  <text
     id="text4087-2-6-5-7-8-6"
     opacity=".8"
     xml:space="preserve"
     font-size="12.666px"
     y="-1308.6111"
     x="403.87616"
     font-family="Bitstream Vera Sans"
     fill="#000000"><tspan
       id="tspan4089-7-2-9-1-9-5"
       y="-1308.6111"
       x="403.87616" /></text>
  <text
     id="text4087-2-6-5-5-52-2"
     opacity=".8"
     xml:space="preserve"
     font-size="12.666px"
     y="-1349.3529"
     x="427.83707"
     font-family="Bitstream Vera Sans"
     fill="#000000"><tspan
       id="tspan4089-7-2-9-6-4-6"
       y="-1349.3529"
       x="427.83707" /></text>
  <text
     id="text4087-2-6-5-3-4-5"
     opacity=".8"
     xml:space="preserve"
     font-size="12.666px"
     y="-1356.5627"
     x="-1063.6261"
     font-family="Bitstream Vera Sans"
     fill="#000000"><tspan
       id="tspan4089-7-2-9-18-3-8"
       y="-1356.5627"
       x="-1063.6261" /></text>
  <text
     id="text4087-2-6-5-4-7-7"
     opacity=".8"
     xml:space="preserve"
     font-size="12.666px"
     y="-1629.7969"
     x="396.91666"
     font-family="Bitstream Vera Sans"
     fill="#000000"><tspan
       id="tspan4089-7-2-9-9-54-9"
       y="-1629.7969"
       x="396.91666" /></text>
  <text
     id="text4087-2-6-5-7-1-2-6"
     opacity=".8"
     xml:space="preserve"
     font-size="12.666px"
     y="-1003.1056"
     x="1883.04"
     font-family="Bitstream Vera Sans"
     fill="#000000"><tspan
       id="tspan4089-7-2-9-1-8-0-0"
       y="-1003.1056"
       x="1883.04" /></text>
  <text
     id="text4087-2-6-5-5-5-6-4"
     opacity=".8"
     xml:space="preserve"
     font-size="12.666px"
     y="-1043.8473"
     x="1907.0009"
     font-family="Bitstream Vera Sans"
     fill="#000000"><tspan
       id="tspan4089-7-2-9-6-9-8-1"
       y="-1043.8473"
       x="1907.0009" /></text>
  <text
     id="text4087-2-6-5-75-4-0"
     opacity=".8"
     xml:space="preserve"
     font-size="12.666px"
     y="-1051.0571"
     x="415.53781"
     font-family="Bitstream Vera Sans"
     fill="#000000"><tspan
       id="tspan4089-7-2-9-3-9-4"
       y="-1051.0571"
       x="415.53781" /></text>
  <text
     id="text4087-2-6-5-4-8-1-8"
     opacity=".8"
     xml:space="preserve"
     font-size="12.666px"
     y="-1324.2913"
     x="1876.0806"
     font-family="Bitstream Vera Sans"
     fill="#000000"><tspan
       id="tspan4089-7-2-9-9-8-8-7"
       y="-1324.2913"
       x="1876.0806" /></text>
  <text
     id="text4087-2-6-5-45-0-0"
     opacity=".8"
     xml:space="preserve"
     font-size="12.666px"
     y="-1099.1484"
     x="-522.2785"
     font-family="Bitstream Vera Sans"
     fill="#000000"><tspan
       id="tspan4089-7-2-9-75-2-8"
       y="-1099.1484"
       x="-522.2785" /></text>
  <text
     id="text4087-2-6-5-59-5-6"
     opacity=".8"
     xml:space="preserve"
     font-size="12.666px"
     y="-353.59497"
     x="-2345.9644"
     font-family="Bitstream Vera Sans"
     fill="#000000"><tspan
       id="tspan4089-7-2-9-4-00-2"
       y="-353.59497"
       x="-2345.9644" /></text>
  <text
     id="text4087-2-6-5-264-4"
     opacity=".8"
     xml:space="preserve"
     font-size="12.666px"
     y="-260.72281"
     x="-631.20874"
     font-family="Bitstream Vera Sans"
     fill="#000000"><tspan
       id="tspan4089-7-2-9-8-7"
       y="-260.72281"
       x="-631.20874" /></text>
  <text
     id="text4087-2-6-5-42-9"
     opacity=".8"
     xml:space="preserve"
     font-size="12.666px"
     y="-19.808649"
     x="208.80579"
     font-family="Bitstream Vera Sans"
     fill="#000000"><tspan
       id="tspan4089-7-2-9-93-3"
       y="-19.808649"
       x="208.80579" /></text>
  <text
     id="text4087-2-6-5-5-05-9"
     opacity=".8"
     xml:space="preserve"
     font-size="12.666px"
     y="-60.550369"
     x="232.76672"
     font-family="Bitstream Vera Sans"
     fill="#000000"><tspan
       id="tspan4089-7-2-9-6-49-2"
       y="-60.550369"
       x="232.76672" /></text>
  <text
     id="text4087-2-6-5-1-4-8"
     opacity=".8"
     xml:space="preserve"
     font-size="12.666px"
     y="-254.57896"
     x="-1037.0499"
     font-family="Bitstream Vera Sans"
     fill="#000000"><tspan
       id="tspan4089-7-2-9-7-7-3"
       y="-254.57896"
       x="-1037.0499" /></text>
  <text
     id="text4087-2-6-5-7-56-0"
     opacity=".8"
     xml:space="preserve"
     font-size="12.666px"
     y="-668.04913"
     x="-229.44791"
     font-family="Bitstream Vera Sans"
     fill="#000000"><tspan
       id="tspan4089-7-2-9-1-1-1"
       y="-668.04913"
       x="-229.44791" /></text>
  <text
     id="text4087-2-6-5-5-8-7"
     opacity=".8"
     xml:space="preserve"
     font-size="12.666px"
     y="-708.79083"
     x="-205.48698"
     font-family="Bitstream Vera Sans"
     fill="#000000"><tspan
       id="tspan4089-7-2-9-6-7-8"
       y="-708.79083"
       x="-205.48698" /></text>
  <text
     id="text4087-2-6-5-3-42-9"
     opacity=".8"
     xml:space="preserve"
     font-size="12.666px"
     y="-716.00079"
     x="-1696.9501"
     font-family="Bitstream Vera Sans"
     fill="#000000"><tspan
       id="tspan4089-7-2-9-18-39-1"
       y="-716.00079"
       x="-1696.9501" /></text>
  <text
     id="text4087-2-6-5-4-4-5"
     opacity=".8"
     xml:space="preserve"
     font-size="12.666px"
     y="-989.2348"
     x="-236.40735"
     font-family="Bitstream Vera Sans"
     fill="#000000"><tspan
       id="tspan4089-7-2-9-9-3-4"
       y="-989.2348"
       x="-236.40735" /></text>
  <text
     id="text4087-2-6-5-7-1-0-9"
     opacity=".8"
     xml:space="preserve"
     font-size="12.666px"
     y="-362.54352"
     x="1249.7161"
     font-family="Bitstream Vera Sans"
     fill="#000000"><tspan
       id="tspan4089-7-2-9-1-8-5-2"
       y="-362.54352"
       x="1249.7161" /></text>
  <text
     id="text4087-2-6-5-5-5-5-5"
     opacity=".8"
     xml:space="preserve"
     font-size="12.666px"
     y="-403.28525"
     x="1273.6769"
     font-family="Bitstream Vera Sans"
     fill="#000000"><tspan
       id="tspan4089-7-2-9-6-9-2-7"
       y="-403.28525"
       x="1273.6769" /></text>
  <text
     id="text4087-2-6-5-75-9-4"
     opacity=".8"
     xml:space="preserve"
     font-size="12.666px"
     y="-410.49518"
     x="-217.78624"
     font-family="Bitstream Vera Sans"
     fill="#000000"><tspan
       id="tspan4089-7-2-9-3-1-9"
       y="-410.49518"
       x="-217.78624" /></text>
  <text
     id="text4087-2-6-5-4-8-18-9"
     opacity=".8"
     xml:space="preserve"
     font-size="12.666px"
     y="-683.72925"
     x="1242.7566"
     font-family="Bitstream Vera Sans"
     fill="#000000"><tspan
       id="tspan4089-7-2-9-9-8-4-4"
       y="-683.72925"
       x="1242.7566" /></text>
  <text
     id="text4087-2-6-5-45-3-5"
     opacity=".8"
     xml:space="preserve"
     font-size="12.666px"
     y="-458.58646"
     x="-1155.6025"
     font-family="Bitstream Vera Sans"
     fill="#000000"><tspan
       id="tspan4089-7-2-9-75-7-9"
       y="-458.58646"
       x="-1155.6025" /></text>
  <text
     id="text4087-2-6-5-59-8-3"
     opacity=".8"
     xml:space="preserve"
     font-size="12.666px"
     y="286.96707"
     x="-2979.2883"
     font-family="Bitstream Vera Sans"
     fill="#000000"><tspan
       id="tspan4089-7-2-9-4-2-5"
       y="286.96707"
       x="-2979.2883" /></text>
  <g
     id="layer4-0-7"
     transform="matrix(.90475 0 0 .90475 -663.53 -669.14)">
    <text
       id="text4087-2-6-5-20-0"
       opacity=".8"
       xml:space="preserve"
       font-size="14px"
       y="1159.4154"
       x="-664.2738"
       font-family="Bitstream Vera Sans"
       fill="#000000"><tspan
         id="tspan4089-7-2-9-82-8"
         y="1159.4154"
         x="-664.2738" /></text>
  </g>
  <text
     id="text7276"
     xml:space="preserve"
     font-size="12.666px"
     y="-361.31583"
     x="489.11777"
     font-family="Droid Sans"
     fill="#000000"><tspan
       id="tspan7278"
       y="-361.31583"
       x="489.11777" /><tspan
       id="tspan7280"
       y="-345.48276"
       x="489.11777" /></text>
  <text
     id="text4087-2-6-5-51"
     opacity=".8"
     xml:space="preserve"
     font-size="12.666px"
     y="-843.36035"
     x="954.3017"
     font-family="Bitstream Vera Sans"
     fill="#000000"><tspan
       id="tspan4089-7-2-9-97"
       y="-843.36035"
       x="954.3017" /></text>
  <text
     id="text4087-2-6-5-59-2"
     opacity=".8"
     xml:space="preserve"
     font-size="12.666px"
     y="-97.806908"
     x="-869.38428"
     font-family="Bitstream Vera Sans"
     fill="#000000"><tspan
       id="tspan4089-7-2-9-4-4"
       y="-97.806908"
       x="-869.38428" /></text>
  <text
     id="text4087-2-6-5-7-7"
     opacity=".8"
     xml:space="preserve"
     font-size="12.666px"
     y="-1128.3562"
     x="1681.3812"
     font-family="Bitstream Vera Sans"
     fill="#000000"><tspan
       id="tspan4089-7-2-9-1-6"
       y="-1128.3562"
       x="1681.3812" /></text>
  <text
     id="text4087-2-6-5-5-6"
     opacity=".8"
     xml:space="preserve"
     font-size="12.666px"
     y="-1169.0979"
     x="1705.342"
     font-family="Bitstream Vera Sans"
     fill="#000000"><tspan
       id="tspan4089-7-2-9-6-53"
       y="-1169.0979"
       x="1705.342" /></text>
  <text
     id="text4087-2-6-5-54"
     opacity=".8"
     xml:space="preserve"
     font-size="12.666px"
     y="-1176.3079"
     x="213.87891"
     font-family="Bitstream Vera Sans"
     fill="#000000"><tspan
       id="tspan4089-7-2-9-0"
       y="-1176.3079"
       x="213.87891" /></text>
  <text
     id="text4087-2-6-5-4-1"
     opacity=".8"
     xml:space="preserve"
     font-size="12.666px"
     y="-1449.542"
     x="1674.4218"
     font-family="Bitstream Vera Sans"
     fill="#000000"><tspan
       id="tspan4089-7-2-9-9-28"
       y="-1449.542"
       x="1674.4218" /></text>
  <g
     id="g4387"
     transform="translate(0,-1)">
    <rect
       id="rect5505-21"
       style="color:#000000;fill:url(#radialGradient3857)"
       rx="1.5"
       ry="1.5"
       height="38"
       width="38"
       y="6"
       x="5" />
    <rect
       id="rect6741"
       rx="1"
       ry="1"
       height="37"
       width="37"
       y="6.5"
       x="5.5"
       style="fill:none;stroke:url(#linearGradient3850);stroke-linecap:round;stroke-linejoin:round" />
    <rect
       id="rect5505-21-3-2"
       style="color:#000000;opacity:0.8;fill:none;stroke:url(#linearGradient3847)"
       rx="2"
       ry="2"
       height="39"
       width="39"
       y="5.5"
       x="4.5" />
    <path
       id="path4461"
       d="m 7.8496,28.038 4.8234,-7.7162 c 0.09447,-0.10158 0.36598,-0.11898 1.8565,-0.11898 1.7459,0 1.7459,0 1.8833,0.24687 l 3.1711,5.2431 c 0.26083,0.43865 0.26083,0.43865 3.8428,0.43001 3.582,-0.0086 3.582,-0.0086 3.8453,-0.19177 0.66654,-0.46363 0.60552,-1.0804 -0.13498,-1.3644 -0.20978,-0.08044 -0.89887,-0.10412 -3.1053,-0.10672 -3.5675,-0.0042 -4.0093,-0.07585 -4.981,-0.80778 -0.51256,-0.38607 -0.74178,-0.66927 -0.97811,-1.2085 -0.24577,-0.56074 -0.32036,-1.1847 -0.21108,-1.7658 0.0866,-0.46047 0.2229,-0.76243 0.43497,-1.0827 0.5458,-0.7 0.9848,-1.0438 1.6091,-1.3173 0.70569,-0.30918 1.4246,-0.27668 5.4902,-0.27723 2.3378,-3.03e-4 4.3009,0.02017 4.3624,0.04554 0.15899,0.0656 0.13873,0.20233 -0.06749,0.45549 0,0 -0.99106,1.9113 -1.4878,2.1873 -0.06085,0.02511 -1.6476,0.04565 -3.5261,0.04565 -3.4154,0 -3.4154,0 -3.555,0.1908 -0.1512,0.20667 -0.13562,0.44016 0.04427,0.66374 0.09849,0.12241 0.32839,0.13298 2.9042,0.1335 1.6128,3.03e-4 2.33,-0.0038 3.2543,0.08031 0.8371,0.07615 2.1034,0.60354 2.2383,1.2454 -0.0475,0.13309 0.267,0.09494 0.40045,-0.04858 l 1.2857,-2.0744 c 0.41118,-0.62867 0.41118,-0.62867 1.971,-0.64127 0.85791,-0.0069 1.7188,0.01309 1.7188,0.01309 l 5.87,9.1187 c 0.37608,0.57976 0.35864,0.58624 -1.5692,0.58286 -1.6339,-0.0028 -1.6339,-0.0028 -2.2638,-1.0004 l -3.55,-5.755 -2.0722,3.2074 c 0,0.03203 2.0971,0.14188 2.558,0.13399 0.53116,0.33381 1.1607,1.625 1.5298,2.2205 0.1454,0.24687 0.1454,0.24687 -2.8001,0.28485 -2.9455,0.03798 -2.9455,0.03798 -3.2247,0.47475 -0.243,0.48684 -2.421,0.50045 -3.6399,0.32553 -0.03309,-0.1996 0.40082,-0.76036 0.48888,-0.97119 8.82e-4,-0.03133 -1.0581,-0.05697 -2.3533,-0.05697 -2.0152,0 -2.3549,0.01596 -2.3549,0.11067 l 0.42032,0.69324 c 0.18993,0.33809 0.18993,0.33809 -1.5919,0.31779 -1.7818,-0.02029 -1.7818,-0.02029 -2.158,-0.60898 -0.37623,-0.58869 -0.37623,-0.58869 -3.1311,-0.58869 -2.7548,0 -2.7548,0 -2.6319,-0.22375 l 1.031,-1.7132 c 0.37981,-0.60768 0.37981,-0.60768 1.542,-0.64566 0.89738,-0.02933 1.158,-0.06031 1.1436,-0.13598 -0.01878,-0.09892 -1.6948,-2.8264 -1.7367,-2.8264 l -4.1736,6.6227 c -0.04707,0.11514 -0.23464,0.12888 -1.8444,0.13512 -1.792,0.007 -1.792,0.007 -0.57697,-1.961 z"
       inkscape:connector-curvature="0"
       style="opacity:0.15;fill:none;stroke:#000000;stroke-width:2;stroke-linecap:round;stroke-linejoin:round" />
    <path
       id="path4483"
       d="m 7.8496,28.038 4.8234,-7.7162 c 0.09447,-0.10158 0.36598,-0.11898 1.8565,-0.11898 1.7459,0 1.7459,0 1.8833,0.24687 l 3.1711,5.2431 c 0.26083,0.43865 0.26083,0.43865 3.8428,0.43001 3.582,-0.0086 3.582,-0.0086 3.8453,-0.19177 0.66654,-0.46363 0.60552,-1.0804 -0.13498,-1.3644 -0.20978,-0.08044 -0.89887,-0.10412 -3.1053,-0.10672 -3.5675,-0.0042 -4.0093,-0.07585 -4.981,-0.80778 -0.51256,-0.38607 -0.74178,-0.66927 -0.97811,-1.2085 -0.24577,-0.56074 -0.32036,-1.1847 -0.21108,-1.7658 0.0866,-0.46047 0.2229,-0.76243 0.43497,-1.0827 0.5458,-0.7 0.9848,-1.0438 1.6091,-1.3173 0.70569,-0.30918 1.4246,-0.27668 5.4902,-0.27723 2.3378,-3.03e-4 4.3009,0.02017 4.3624,0.04554 0.15899,0.0656 0.13873,0.20233 -0.06749,0.45549 0,0 -0.99106,1.9113 -1.4878,2.1873 -0.06085,0.02511 -1.6476,0.04565 -3.5261,0.04565 -3.4154,0 -3.4154,0 -3.555,0.1908 -0.1512,0.20667 -0.13562,0.44016 0.04427,0.66374 0.09849,0.12241 0.32839,0.13298 2.9042,0.1335 1.6128,3.03e-4 2.33,-0.0038 3.2543,0.08031 0.8371,0.07615 2.1034,0.60354 2.2383,1.2454 -0.0475,0.13309 0.267,0.09494 0.40045,-0.04858 l 1.2857,-2.0744 c 0.41118,-0.62867 0.41118,-0.62867 1.971,-0.64127 0.85791,-0.0069 1.7188,0.01309 1.7188,0.01309 l 5.87,9.1187 c 0.37608,0.57976 0.35864,0.58624 -1.5692,0.58286 -1.6339,-0.0028 -1.6339,-0.0028 -2.2638,-1.0004 l -3.55,-5.755 -2.0722,3.2074 c 0,0.03203 2.0971,0.14188 2.558,0.13399 0.53116,0.33381 1.1607,1.625 1.5298,2.2205 0.1454,0.24687 0.1454,0.24687 -2.8001,0.28485 -2.9455,0.03798 -2.9455,0.03798 -3.2247,0.47475 -0.243,0.48684 -2.421,0.50045 -3.6399,0.32553 -0.03309,-0.1996 0.40082,-0.76036 0.48888,-0.97119 8.82e-4,-0.03133 -1.0581,-0.05697 -2.3533,-0.05697 -2.0152,0 -2.3549,0.01596 -2.3549,0.11067 l 0.42032,0.69324 c 0.18993,0.33809 0.18993,0.33809 -1.5919,0.31779 -1.7818,-0.02029 -1.7818,-0.02029 -2.158,-0.60898 -0.37623,-0.58869 -0.37623,-0.58869 -3.1311,-0.58869 -2.7548,0 -2.7548,0 -2.6319,-0.22375 l 1.031,-1.7132 c 0.37981,-0.60768 0.37981,-0.60768 1.542,-0.64566 0.89738,-0.02933 1.158,-0.06031 1.1436,-0.13598 -0.01878,-0.09892 -1.6948,-2.8264 -1.7367,-2.8264 l -4.1736,6.6227 c -0.04707,0.11514 -0.23464,0.12888 -1.8444,0.13512 -1.792,0.007 -1.792,0.007 -0.57697,-1.961 z"
       inkscape:connector-curvature="0"
       style="opacity:0.3;fill:none;stroke:#000000;stroke-linecap:round;stroke-linejoin:round" />
    <path
       id="path4441"
       d="m 7.8496,28.038 4.8234,-7.7162 c 0.09447,-0.10158 0.36598,-0.11898 1.8565,-0.11898 1.7459,0 1.7459,0 1.8833,0.24687 l 3.1711,5.2431 c 0.26083,0.43865 0.26083,0.43865 3.8428,0.43001 3.582,-0.0086 3.582,-0.0086 3.8453,-0.19177 0.66654,-0.46363 0.60552,-1.0804 -0.13498,-1.3644 -0.20978,-0.08044 -0.89887,-0.10412 -3.1053,-0.10672 -3.5675,-0.0042 -4.0093,-0.07585 -4.981,-0.80778 -0.51256,-0.38607 -0.74178,-0.66927 -0.97811,-1.2085 -0.24577,-0.56074 -0.32036,-1.1847 -0.21108,-1.7658 0.0866,-0.46047 0.2229,-0.76243 0.43497,-1.0827 0.5458,-0.7 0.9848,-1.0438 1.6091,-1.3173 0.70569,-0.30918 1.4246,-0.27668 5.4902,-0.27723 2.3378,-3.03e-4 4.3009,0.02017 4.3624,0.04554 0.15899,0.0656 0.13873,0.20233 -0.06749,0.45549 0,0 -0.99106,1.9113 -1.4878,2.1873 -0.06085,0.02511 -1.6476,0.04565 -3.5261,0.04565 -3.4154,0 -3.4154,0 -3.555,0.1908 -0.1512,0.20667 -0.13562,0.44016 0.04427,0.66374 0.09849,0.12241 0.32839,0.13298 2.9042,0.1335 1.6128,3.03e-4 2.33,-0.0038 3.2543,0.08031 0.8371,0.07615 2.1034,0.60354 2.2383,1.2454 -0.0475,0.13309 0.267,0.09494 0.40045,-0.04858 l 1.2857,-2.0744 c 0.41118,-0.62867 0.41118,-0.62867 1.971,-0.64127 0.85791,-0.0069 1.7188,0.01309 1.7188,0.01309 l 5.87,9.1187 c 0.37608,0.57976 0.35864,0.58624 -1.5692,0.58286 -1.6339,-0.0028 -1.6339,-0.0028 -2.2638,-1.0004 l -3.55,-5.755 -2.0722,3.2074 c 0,0.03203 2.0971,0.14188 2.558,0.13399 0.53116,0.33381 1.1607,1.625 1.5298,2.2205 0.1454,0.24687 0.1454,0.24687 -2.8001,0.28485 -2.9455,0.03798 -2.9455,0.03798 -3.2247,0.47475 -0.243,0.48684 -2.421,0.50045 -3.6399,0.32553 -0.03309,-0.1996 0.40082,-0.76036 0.48888,-0.97119 8.82e-4,-0.03133 -1.0581,-0.05697 -2.3533,-0.05697 -2.0152,0 -2.3549,0.01596 -2.3549,0.11067 l 0.42032,0.69324 c 0.18993,0.33809 0.18993,0.33809 -1.5919,0.31779 -1.7818,-0.02029 -1.7818,-0.02029 -2.158,-0.60898 -0.37623,-0.58869 -0.37623,-0.58869 -3.1311,-0.58869 -2.7548,0 -2.7548,0 -2.6319,-0.22375 l 1.031,-1.7132 c 0.37981,-0.60768 0.37981,-0.60768 1.542,-0.64566 0.89738,-0.02933 1.158,-0.06031 1.1436,-0.13598 -0.01878,-0.09892 -1.6948,-2.8264 -1.7367,-2.8264 l -4.1736,6.6227 c -0.04707,0.11514 -0.23464,0.12888 -1.8444,0.13512 -1.792,0.007 -1.792,0.007 -0.57697,-1.961 z"
       inkscape:connector-curvature="0"
       style="fill:#ffffff" />
  </g>
</svg>
