<?xml version="1.0" encoding="UTF-8" standalone="no"?>
<!-- Created with Inkscape (http://www.inkscape.org/) -->

<svg
   xmlns:dc="http://purl.org/dc/elements/1.1/"
   xmlns:cc="http://creativecommons.org/ns#"
   xmlns:rdf="http://www.w3.org/1999/02/22-rdf-syntax-ns#"
   xmlns:svg="http://www.w3.org/2000/svg"
   xmlns="http://www.w3.org/2000/svg"
   xmlns:sodipodi="http://sodipodi.sourceforge.net/DTD/sodipodi-0.dtd"
   xmlns:inkscape="http://www.inkscape.org/namespaces/inkscape"
   id="svg4951"
   height="48"
   width="48"
   version="1.1"
   inkscape:version="0.91 r13725"
   sodipodi:docname="atunes.svg">
  <sodipodi:namedview
     pagecolor="#ffffff"
     bordercolor="#666666"
     borderopacity="1"
     objecttolerance="10"
     gridtolerance="10"
     guidetolerance="10"
     inkscape:pageopacity="0"
     inkscape:pageshadow="2"
     inkscape:window-width="1535"
     inkscape:window-height="876"
     id="namedview25"
     showgrid="false"
     inkscape:zoom="4.9166667"
     inkscape:cx="-10.779661"
     inkscape:cy="24"
     inkscape:window-x="65"
     inkscape:window-y="24"
     inkscape:window-maximized="1"
     inkscape:current-layer="svg4951" />
  <defs
     id="defs4953">
    <radialGradient
       id="radialGradient3302"
       gradientUnits="userSpaceOnUse"
       cy="186.17"
       cx="99.157"
       gradientTransform="matrix(.27083 0 0 .087623 -2.8551 25.187)"
       r="62.769">
      <stop
         id="stop3822-2-6-3"
         stop-color="#3d3d3d"
         offset="0" />
      <stop
         id="stop3864-8-7-7"
         stop-color="#686868"
         stop-opacity=".49804"
         offset=".5" />
      <stop
         id="stop3824-1-2-5"
         stop-color="#686868"
         stop-opacity="0"
         offset="1" />
    </radialGradient>
    <radialGradient
       id="radialGradient3392"
       gradientUnits="userSpaceOnUse"
       cy="8.4498"
       cx="5.3215"
       gradientTransform="matrix(0 2.4988 -2.6435 -6.8014e-8 46.337 -12.18)"
       r="20">
      <stop
         id="stop4424"
         stop-color="#e4e4e4"
         offset="0" />
      <stop
         id="stop4426"
         stop-color="#d2d2d3"
         offset=".37188" />
      <stop
         id="stop4428"
         stop-color="#ababac"
         offset=".81010" />
      <stop
         id="stop4430"
         stop-color="#888889"
         offset="1" />
    </radialGradient>
    <linearGradient
       id="linearGradient4450"
       y2="32.568"
       gradientUnits="userSpaceOnUse"
       y1="-18.801"
       gradientTransform="matrix(.76418 0 0 .76418 12.377 18.778)"
       x2="15.124"
       x1="15.124">
      <stop
         id="stop6305-1-0-2"
         stop-color="#fff"
         offset="0" />
      <stop
         id="stop6307-5-0-6"
         stop-color="#fff"
         stop-opacity="0"
         offset="1" />
    </linearGradient>
  </defs>
  <metadata
     id="metadata4956">
    <rdf:RDF>
      <cc:Work
         rdf:about="">
        <dc:format>image/svg+xml</dc:format>
        <dc:type
           rdf:resource="http://purl.org/dc/dcmitype/StillImage" />
        <dc:title />
      </cc:Work>
    </rdf:RDF>
  </metadata>
  <path
     id="path4925"
     style="color:#000000"
     d="m24 3.5c-11.311 0-20.5 9.1888-20.5 20.5s9.1888 20.5 20.5 20.5 20.5-9.1888 20.5-20.5-9.1888-20.5-20.5-20.5z"
     fill="url(#radialGradient3392)" />
  <path
     id="path4484"
     style="color:#000000"
     d="m24 3.5c-11.311 0-20.5 9.1888-20.5 20.5s9.1888 20.5 20.5 20.5 20.5-9.1888 20.5-20.5-9.1888-20.5-20.5-20.5z"
     stroke-opacity=".58824"
     stroke="#828282"
     fill="none" />
  <path
     id="path4436"
     opacity=".15"
     stroke-linejoin="round"
     d="m21.168 38.871c-1.7761-0.36927-2.7837-0.98809-4.1982-2.5783-1.795-2.3555-2.5404-4.8376-1.4841-7.3702 1.6376-3.8686 5.7035-5.7788 9.5114-4.4686 0.71685 0.24666 1.4054 0.34775 1.5301 0.22464 0.12472-0.12311-0.07343-1.9621-0.44032-4.0867-0.88304-5.1134-1.2847-11.269-0.7564-11.592 1.9789 0.61537 8.3898 2.8607 7.6033 5.1274-0.31734 0.81626-0.79093 0.78727-2.9521-0.1807-0.97645-0.43733-1.9386-0.79516-2.1382-0.79516-0.59982 0-0.42904 1.5875 1.0626 9.8773 0.49702 3.8735 2.2788 8.1664 0.56156 11.73-1.4217 2.8988-5.1796 4.7607-8.2997 4.112z"
     stroke="#fff"
     stroke-linecap="round"
     stroke-width="2"
     fill="none" />
  <path
     id="path4438"
     opacity=".3"
     stroke-linejoin="round"
     d="m21.168 38.871c-1.7761-0.36927-2.7837-0.98809-4.1982-2.5783-1.795-2.3555-2.5404-4.8376-1.4841-7.3702 1.6376-3.8686 5.7035-5.7788 9.5114-4.4686 0.71685 0.24666 1.4054 0.34775 1.5301 0.22464 0.12472-0.12311-0.07343-1.9621-0.44032-4.0867-0.88304-5.1134-1.2847-11.269-0.7564-11.592 1.9789 0.61537 8.3898 2.8607 7.6033 5.1274-0.31734 0.81626-0.79093 0.78727-2.9521-0.1807-0.97645-0.43733-1.9386-0.79516-2.1382-0.79516-0.59982 0-0.42904 1.5875 1.0626 9.8773 0.49702 3.8735 2.2788 8.1664 0.56156 11.73-1.4217 2.8988-5.1796 4.7607-8.2997 4.112z"
     stroke="#fff"
     stroke-linecap="round"
     fill="none" />
  <path
     id="path4417-8"
     fill="#5199c6"
     d="m21.168 38.871c-1.7761-0.36927-2.7837-0.98809-4.1982-2.5783-1.795-2.3555-2.5404-4.8376-1.4841-7.3702 1.6376-3.8686 5.7035-5.7788 9.5114-4.4686 0.71685 0.24666 1.4054 0.34775 1.5301 0.22464 0.12472-0.12311-0.07343-1.9621-0.44032-4.0867-0.88304-5.1134-1.2847-11.269-0.7564-11.592 1.9789 0.61537 8.3898 2.8607 7.6033 5.1274-0.31734 0.81626-0.79093 0.78727-2.9521-0.1807-0.97645-0.43733-1.9386-0.79516-2.1382-0.79516-0.59982 0-0.42904 1.5875 1.0626 9.8773 0.49702 3.8735 2.2788 8.1664 0.56156 11.73-1.4217 2.8988-5.1796 4.7607-8.2997 4.112z" />
  <circle
     id="path3773-9"
     opacity=".7"
     stroke-width=".93261"
     stroke-opacity=".58824"
     stroke="url(#linearGradient4450)"
     cy="24"
     cx="24"
     r="19.54"
     fill="none" />
  <path
     id="path4483"
     opacity=".15"
     d="m25.33 9c-0.52834 0.32231-0.12718 6.4784 0.75586 11.592 0.36689 2.1246 0.56613 3.9628 0.44141 4.0859-0.12472 0.12311-0.8144 0.02205-1.5312-0.22461-3.8079-1.3103-7.8721 0.6001-9.5098 4.4688-1.0564 2.5326-0.31258 5.0156 1.4824 7.3711 1.4145 1.5902 2.4231 2.2089 4.1992 2.5781 3.12 0.64868 6.8771-1.2125 8.2988-4.1113 1.7172-3.5637-0.06352-7.857-0.56055-11.73-1.4917-8.2898-1.6623-9.877-1.0625-9.877 0.19954 0 1.1603 0.35759 2.1367 0.79492 2.1612 0.96798 2.6358 0.99595 2.9531 0.17969 0.786-2.268-5.625-4.5126-7.604-5.128zm0.77539 1.3848c1.0662 0.36435 2.3269 0.77679 3.5977 1.4453 0.82467 0.43385 1.5428 0.91831 1.9336 1.3223 0.25853 0.26722 0.21406 0.32571 0.23242 0.42773-0.24903-0.0649-0.61833-0.16161-1.4785-0.54688-0.5072-0.22716-1.0081-0.43204-1.4219-0.58594-0.20691-0.07695-0.38992-0.13962-0.55469-0.18945s-0.22155-0.10547-0.57031-0.10547c-0.29552 0-0.72703 0.16861-0.95508 0.44141s-0.29158 0.53744-0.33008 0.77539c-0.07699 0.4759-0.04367 0.96792 0.03711 1.7188 0.16156 1.5017 0.57954 3.9679 1.3262 8.1172 0.52992 4.0626 2.1006 8.0926 0.64453 11.117v0.002c-1.1922 2.4221-4.6075 4.1064-7.1953 3.5684-1.615-0.33577-2.3032-0.75833-3.6191-2.2305-1.6537-2.1801-2.2411-4.1965-1.3457-6.3496v-0.002c1.4525-3.4292 4.948-5.0517 8.2656-3.9102 0.41183 0.14171 0.80636 0.24017 1.166 0.29297 0.17982 0.0264 0.34844 0.04337 0.54102 0.03516 0.19257-0.0082 0.44234 0.06411 0.84961-0.33789 0.25282-0.24955 0.2605-0.40382 0.28711-0.50781s0.03318-0.17304 0.03906-0.24023c0.01177-0.13438 0.0119-0.25257 0.0078-0.38672-0.0081-0.26829-0.03462-0.59094-0.07617-0.97656-0.0831-0.77124-0.22752-1.7772-0.41406-2.8574-0.43439-2.5154-0.75244-5.3108-0.89453-7.4883-0.06772-1.0378-0.08808-1.9072-0.07227-2.5488z" />
</svg>
