<?xml version="1.0" encoding="UTF-8" standalone="no"?>
<!-- Created with Inkscape (http://www.inkscape.org/) -->

<svg
   xmlns:dc="http://purl.org/dc/elements/1.1/"
   xmlns:cc="http://creativecommons.org/ns#"
   xmlns:rdf="http://www.w3.org/1999/02/22-rdf-syntax-ns#"
   xmlns:svg="http://www.w3.org/2000/svg"
   xmlns="http://www.w3.org/2000/svg"
   xmlns:sodipodi="http://sodipodi.sourceforge.net/DTD/sodipodi-0.dtd"
   xmlns:inkscape="http://www.inkscape.org/namespaces/inkscape"
   id="svg4951"
   height="48px"
   width="48px"
   version="1.1"
   inkscape:version="0.91 r13725"
   sodipodi:docname="braid.svg">
  <sodipodi:namedview
     pagecolor="#ffffff"
     bordercolor="#666666"
     borderopacity="1"
     objecttolerance="10"
     gridtolerance="10"
     guidetolerance="10"
     inkscape:pageopacity="0"
     inkscape:pageshadow="2"
     inkscape:window-width="1535"
     inkscape:window-height="876"
     id="namedview38"
     showgrid="false"
     inkscape:zoom="4.9166667"
     inkscape:cx="-10.779661"
     inkscape:cy="24"
     inkscape:window-x="65"
     inkscape:window-y="24"
     inkscape:window-maximized="1"
     inkscape:current-layer="svg4951" />
  <defs
     id="defs4953">
    <linearGradient
       id="linearGradient3189"
       y2="40.496"
       gradientUnits="userSpaceOnUse"
       x2="71.204"
       gradientTransform="matrix(1.617,0,0,1.617,-92.707,-21.06)"
       y1="15.369"
       x1="71.204">
      <stop
         id="stop4808-4"
         stop-color="#fff"
         offset="0" />
      <stop
         id="stop4810-0"
         stop-color="#fff"
         stop-opacity=".23529"
         offset=".42448" />
      <stop
         id="stop4812-8"
         stop-color="#fff"
         stop-opacity=".15686"
         offset=".82090" />
      <stop
         id="stop4814-0"
         stop-color="#fff"
         stop-opacity=".39216"
         offset="1" />
    </linearGradient>
    <radialGradient
       id="radialGradient4848"
       gradientUnits="userSpaceOnUse"
       cy="3.99"
       cx="23.896"
       gradientTransform="matrix(0,2.8885,-3.8128,0,39.213,-65.95)"
       r="20.397">
      <stop
         id="stop4369"
         stop-color="#ffbe44"
         offset="0" />
      <stop
         id="stop4371"
         stop-color="#c67a00"
         offset=".66094" />
      <stop
         id="stop4373"
         stop-color="#cb7d00"
         offset="1" />
    </radialGradient>
  </defs>
  <metadata
     id="metadata4956">
    <rdf:RDF>
      <cc:Work
         rdf:about="">
        <dc:format>image/svg+xml</dc:format>
        <dc:type
           rdf:resource="http://purl.org/dc/dcmitype/StillImage" />
        <dc:title />
      </cc:Work>
    </rdf:RDF>
  </metadata>
  <path
     id="path4846"
     style="color:#000000;fill:url(#radialGradient4848)"
     d="M 24,3.5 C 12.689,3.5 3.5,12.6888 3.5,24 3.5,35.3112 12.6888,44.5 24,44.5 35.3112,44.5 44.5,35.3112 44.5,24 44.5,12.6888 35.3112,3.5 24,3.5 Z"
     inkscape:connector-curvature="0" />
  <path
     id="path2555-7-2"
     style="color:#000000;fill:#262626"
     d="m 15.736,22.039 c -0.10288,0.0037 -0.2052,0.02264 -0.30273,0.05664 -0.22398,0.0781 -0.7404,0.10949 -1.1484,0.07031 -1.0207,-0.0981 -1.5388,0.19122 -2.0254,1.1328 -0.30393,0.58808 -0.35363,0.81364 -0.28711,1.3008 0.12396,0.90781 0.17635,1.0135 0.66016,1.3125 0.50375,0.31133 0.57371,0.5742 0.20508,0.77148 -0.30439,0.16291 -0.86348,1.2227 -0.97852,1.8516 -0.13757,0.75192 -0.33439,0.93239 -0.88281,0.8125 -0.43918,-0.096 -0.721,-0.27438 -1.7207,-1.082 -0.3172,-0.25626 -0.58631,-0.33345 -1.2871,-0.37305 -0.9553,-0.054 -1.0706,0.0083 -1.7539,0.93555 -0.25154,0.34153 -0.70997,0.47949 -2.002,0.52539 1.3253,4.8993 4.4257,9.0673 8.5645,11.785 l 0,-8.1426 19.877,0 0,9.5625 c 1.7096,-0.79985 3.2913,-1.8206 4.7051,-3.0391 l 0,-6.5234 5.0352,0 c 0.53434,-1.089 0.98996,-2.2234 1.3262,-3.4102 -1.3588,0.02105 -2.7482,0.03805 -3.0879,0.03711 -7.1157,-0.0199 -8.2104,-0.0953 -8.5137,-0.58594 -0.0496,-0.0802 -0.44653,-0.37553 -0.88086,-0.65625 -0.62783,-0.40578 -0.91359,-0.50976 -1.3945,-0.50976 -0.68009,0 -0.96748,0.15885 -1.877,1.0332 l -0.62695,0.60156 -2.2695,-0.02344 c -1.2481,-0.0134 -2.7507,-0.09123 -3.3398,-0.17188 -0.72852,-0.0997 -1.2047,-0.10432 -1.4883,-0.01563 -0.40219,0.12587 -1.3926,0.19586 -2.2891,0.16211 -0.62247,-0.0234 -0.95281,-0.43973 -1.3926,-1.7539 l -0.38477,-1.1484 0.28711,-0.58789 c 0.156,-0.325 0.286,-0.713 0.286,-0.863 0,-0.14963 0.15237,-0.45494 0.33984,-0.67774 0.27965,-0.33234 0.32779,-0.4962 0.27148,-0.91602 -0.11,-0.82011 -0.90485,-1.4984 -1.625,-1.4727 z m 6.981,12.836 c -3.9198,0 -7.0977,3.3076 -7.0977,7.3867 0,0.14927 0.01479,0.29437 0.02344,0.44141 2.555,1.145 5.378,1.797 8.357,1.797 2.6401,0 5.1556,-0.51838 7.4746,-1.4297 l -1.7051,0 c 0.0284,-0.26554 0.04492,-0.53514 0.04492,-0.80859 0,-4.0791 -3.1775,-7.3867 -7.0977,-7.3867 z"
     inkscape:connector-curvature="0" />
  <path
     id="path4176"
     style="color:#000000;opacity:0.3;fill:none;stroke:url(#linearGradient3189);stroke-linecap:round;stroke-linejoin:round"
     d="M 43.5,24 C 43.5,34.77 34.77,43.5 24,43.5 13.23,43.5 4.5,34.77 4.5,24 4.5,13.23 13.23,4.5 24,4.5 34.77,4.5 43.5,13.23 43.5,24 Z"
     inkscape:connector-curvature="0" />
  <path
     id="path3871"
     style="color:#000000;opacity:0.7;fill:none;stroke:#5c3f24"
     d="M 24,3.5 C 12.689,3.5 3.5,12.689 3.5,24 3.5,35.311 12.689,44.5 24,44.5 35.311,44.5 44.5,35.311 44.5,24 44.5,12.689 35.311,3.5 24,3.5 Z"
     inkscape:connector-curvature="0" />
  <g
     id="g4881"
     transform="matrix(0.22187,0,0,0.20136,18.657,18.614)"
     style="fill:#262626">
    <g
       id="text4851">
      <path
         id="path4858"
         d="m 17.918,-2.9671 q 1.0156,1.6016 1.9727,2.4023 0.95703,0.80078 2.2266,0.80078 l 0.11719,0 0,1.6797 -0.56641,0 q -1.875,0 -3.0859,-0.13672 -1.191,-0.1368 -2.031,-0.5274 -0.84,-0.39062 -1.445,-1.0938 -0.586,-0.70307 -1.27,-1.8359 l -5.4102,-9.0039 -3.3203,0 0,8.2422 q 0,0.87891 0.25391,1.4258 0.27344,0.52734 0.72266,0.80078 0.44922,0.27344 1.0352,0.37109 0.60547,0.078125 1.2695,0.078125 l 0.52734,0 0,1.6797 -11.641,0 0,-1.6797 0.50781,0 q 0.66406,0 1.25,-0.078125 0.60547,-0.097656 1.0547,-0.37109 0.44922,-0.27344 0.70312,-0.80078 0.27344,-0.54688 0.27344,-1.4258 l 0,-19.805 q 0,-0.87891 -0.27344,-1.4062 -0.25391,-0.54688 -0.70312,-0.83984 -0.44922,-0.29297 -1.0547,-0.37109 -0.58594,-0.09766 -1.25,-0.09766 l -0.50781,0 0,-1.6797 10.762,0 q 5.1953,0 7.7344,1.9336 2.5391,1.9141 2.5391,5.7812 0,1.6016 -0.52734,2.8125 -0.50781,1.1914 -1.3477,2.0703 -0.83984,0.87891 -1.8945,1.4648 -1.0547,0.58594 -2.1094,0.9375 l 5.4883,8.6719 z m -12.813,-9.5898 2.8125,0 q 1.7578,0 2.9297,-0.39062 1.1719,-0.39062 1.875,-1.1719 0.70312,-0.78125 0.99609,-1.9531 0.3125,-1.1719 0.3125,-2.7344 0,-1.6016 -0.33203,-2.7148 -0.33203,-1.1328 -1.0742,-1.8359 -0.74219,-0.72266 -1.9336,-1.0352 -1.1719,-0.33203 -2.8711,-0.33203 l -2.7148,0 0,12.168 z"
         inkscape:connector-curvature="0" />
      <path
         id="path4860"
         d="m 30.086,-7.6351 -1.5234,4.1992 q -0.17578,0.46875 -0.27344,0.9375 -0.09766,0.44922 -0.09766,0.78125 0,1.0156 0.64453,1.4844 0.66406,0.46875 2.0117,0.46875 l 0.91797,0 0,1.6797 -9.7656,0 0,-1.6797 0.76172,0 q 0.58594,0 0.99609,-0.11719 0.41016,-0.13672 0.74219,-0.48828 0.33203,-0.35156 0.625,-0.95703 0.3125,-0.60547 0.68359,-1.5625 l 8.8672,-23.75 3.125,0 9.043,24.746 q 0.23438,0.625 0.46875,1.0352 0.25391,0.41016 0.58594,0.66406 0.33203,0.23438 0.76172,0.33203 0.42969,0.097656 1.0156,0.097656 l 0.52734,0 0,1.6797 -10.996,0 0,-1.6797 0.91797,0 q 2.4023,0 2.4023,-1.9141 0,-0.33203 -0.09766,-0.68359 -0.07813,-0.35156 -0.23438,-0.80078 l -1.6016,-4.4727 -10.508,0 z m 7.3047,-9.0039 q -0.625,-1.7773 -1.1523,-3.3203 -0.50781,-1.5625 -0.83984,-3.0078 -0.13672,0.72266 -0.33203,1.4062 -0.17578,0.66406 -0.39062,1.3672 -0.21484,0.70312 -0.48828,1.4844 -0.27344,0.76172 -0.625,1.6992 l -2.7148,7.3633 9.0234,0 -2.4805,-6.9922 z"
         inkscape:connector-curvature="0" />
      <path
         id="path4862"
         d="m 51.727,1.9157 0,-1.6797 0.50781,0 q 0.68359,0 1.2695,-0.097656 0.60547,-0.097656 1.0547,-0.39062 0.44922,-0.3125 0.70312,-0.87891 0.25391,-0.56641 0.25391,-1.5039 l 0,-19.453 q 0,-0.9375 -0.25391,-1.5039 -0.25391,-0.56641 -0.70312,-0.85938 -0.44922,-0.3125 -1.0547,-0.41016 -0.58594,-0.09766 -1.2695,-0.09766 l -0.50781,0 0,-1.6797 11.641,0 0,1.6797 -0.52734,0 q -0.66406,0 -1.2695,0.09766 -0.60547,0.09766 -1.0547,0.41016 -0.42969,0.29297 -0.70312,0.85938 -0.25391,0.56641 -0.25391,1.5039 l 0,19.453 q 0,0.9375 0.25391,1.5039 0.27344,0.56641 0.70312,0.87891 0.44922,0.29297 1.0547,0.39062 Q 62.17663,0.236 62.84066,0.236 l 0.52734,0 0,1.6797 -11.641,0 z"
         inkscape:connector-curvature="0" />
      <path
         id="path4864"
         d="m 91.688,-12.401 q 0,3.2813 -0.82031,5.9375 -0.82031,2.6367 -2.4414,4.5117 -1.6211,1.8555 -4.0625,2.8711 -2.4414,0.99609 -5.7031,0.99609 l -12.246,0 0,-1.6797 0.50781,0 q 0.68359,0 1.2695,-0.097656 0.60547,-0.097656 1.0547,-0.39062 0.44922,-0.3125 0.70312,-0.87891 0.25391,-0.56641 0.25391,-1.5039 l 0,-19.609 q 0,-0.87891 -0.27344,-1.4062 -0.25391,-0.54688 -0.70312,-0.83984 -0.44922,-0.29297 -1.0547,-0.37109 -0.58594,-0.09766 -1.25,-0.09766 l -0.50781,0 0,-1.6797 12.246,0 q 3.0859,0 5.5078,0.95703 2.4219,0.9375 4.082,2.7539 1.6797,1.8164 2.5586,4.4727 0.87891,2.6562 0.87891,6.0547 z M 77.723,-0.116 q 2.3828,0 4.1602,-0.80078 1.7969,-0.82031 2.9883,-2.3828 1.1914,-1.56249 1.7773,-3.8477 0.60547,-2.2852 0.60547,-5.2539 0,-5.957 -2.3828,-9.1016 -2.3633,-3.1445 -7.1094,-3.1445 l -3.5156,0 0,24.531 3.4766,0 z"
         inkscape:connector-curvature="0" />
    </g>
    <path
       id="path4856"
       d="m -5.3217,-27.875 q 0,1.8736 -0.54308,3.2856 -0.51593,1.412 -1.4392,2.471 -0.92324,1.059 -2.1995,1.7922 -1.2491,0.70601 -2.7154,1.1948 l 0,0.21723 q 1.9008,0.32585 3.4757,1.1133 1.5749,0.78747 2.6883,2.0637 1.1405,1.2491 1.765,2.987 0.62454,1.7107 0.62454,3.9102 0,5.3765 -3.53,8.0648 -3.5295,2.6608 -10.752,2.6608 l -16.564,0 0,-2.3353 0.70601,0 q 0.95039,0 1.765,-0.13578 0.84178,-0.13578 1.4663,-0.54308 0.62454,-0.43447 0.97755,-1.2219 0.353,-0.78747 0.353,-2.0909 l 0,-27.263 q 0,-1.2219 -0.38016,-1.9551 -0.353,-0.76031 -0.97755,-1.1676 -0.62454,-0.40731 -1.4663,-0.51593 -0.81462,-0.13578 -1.7379,-0.13578 l -0.70601,0 0,-2.3353 14.908,0 q 7.223,0 10.753,2.4167 3.53,2.3896 3.53,7.5217 z m -18.302,26.991 5.4037,0 q 2.3624,0 3.9916,-0.43447 1.6292,-0.43447 2.6611,-1.3849 1.0319,-0.97755 1.4935,-2.5253 0.46162,-1.5478 0.46162,-3.7744 0,-2.1723 -0.40731,-3.7744 -0.40731,-1.6021 -1.412,-2.6611 -0.97755,-1.059 -2.6068,-1.5749 -1.6292,-0.51593 -4.0731,-0.51593 l -5.5123,0 0,16.645 z m 0,-19.415 3.8559,0 q 2.4439,0 4.0731,-0.43447 1.6292,-0.43446 2.6068,-1.3305 0.97755,-0.92324 1.3849,-2.3624 0.43446,-1.4392 0.43446,-3.4486 0,-2.0366 -0.46162,-3.3943 -0.46162,-1.3849 -1.4935,-2.2266 -1.0319,-0.84178 -2.6883,-1.1948 -1.6292,-0.353 -3.9916,-0.353 l -3.7201,0 0,14.745 z"
       inkscape:connector-curvature="0" />
  </g>
</svg>
