<?xml version="1.0" encoding="UTF-8" standalone="no"?>
<!-- Created with Inkscape (http://www.inkscape.org/) -->

<svg
   xmlns:dc="http://purl.org/dc/elements/1.1/"
   xmlns:cc="http://creativecommons.org/ns#"
   xmlns:rdf="http://www.w3.org/1999/02/22-rdf-syntax-ns#"
   xmlns:svg="http://www.w3.org/2000/svg"
   xmlns="http://www.w3.org/2000/svg"
   xmlns:sodipodi="http://sodipodi.sourceforge.net/DTD/sodipodi-0.dtd"
   xmlns:inkscape="http://www.inkscape.org/namespaces/inkscape"
   id="svg3143"
   height="48"
   width="48"
   version="1.1"
   inkscape:version="0.91 r13725"
   sodipodi:docname="bridge-constructor.svg">
  <sodipodi:namedview
     pagecolor="#ffffff"
     bordercolor="#666666"
     borderopacity="1"
     objecttolerance="10"
     gridtolerance="10"
     guidetolerance="10"
     inkscape:pageopacity="0"
     inkscape:pageshadow="2"
     inkscape:window-width="1535"
     inkscape:window-height="876"
     id="namedview34"
     showgrid="false"
     inkscape:zoom="4.9166667"
     inkscape:cx="24"
     inkscape:cy="24"
     inkscape:window-x="65"
     inkscape:window-y="24"
     inkscape:window-maximized="1"
     inkscape:current-layer="svg3143" />
  <defs
     id="defs3145">
    <radialGradient
       id="radialGradient3030"
       gradientUnits="userSpaceOnUse"
       cy="43.5"
       cx="4.993"
       gradientTransform="matrix(2.0038,0,0,1.4,27.988,-17.4)"
       r="2.5">
      <stop
         id="stop2883"
         stop-color="#181818"
         offset="0" />
      <stop
         id="stop2885"
         stop-color="#181818"
         stop-opacity="0"
         offset="1" />
    </radialGradient>
    <radialGradient
       id="radialGradient3032"
       gradientUnits="userSpaceOnUse"
       cy="43.5"
       cx="4.993"
       gradientTransform="matrix(2.0038,0,0,1.4,-20.012,-104.4)"
       r="2.5">
      <stop
         id="stop2889"
         stop-color="#181818"
         offset="0" />
      <stop
         id="stop2891"
         stop-color="#181818"
         stop-opacity="0"
         offset="1" />
    </radialGradient>
    <linearGradient
       id="linearGradient3034"
       y2="39.999"
       gradientUnits="userSpaceOnUse"
       x2="25.058"
       y1="47.028"
       x1="25.058">
      <stop
         id="stop2895"
         stop-color="#181818"
         stop-opacity="0"
         offset="0" />
      <stop
         id="stop2897"
         stop-color="#181818"
         offset=".5" />
      <stop
         id="stop2899"
         stop-color="#181818"
         stop-opacity="0"
         offset="1" />
    </linearGradient>
    <linearGradient
       id="linearGradient3044"
       y2="43"
       gradientUnits="userSpaceOnUse"
       x2="24"
       gradientTransform="translate(5.3e-6,1)"
       y1="5"
       x1="24">
      <stop
         id="stop3926-7"
         stop-color="#fff"
         offset="0" />
      <stop
         id="stop3928-3"
         stop-color="#fff"
         stop-opacity=".23529"
         offset=".063165" />
      <stop
         id="stop3930-7"
         stop-color="#fff"
         stop-opacity=".15686"
         offset=".95056" />
      <stop
         id="stop3932-1"
         stop-color="#fff"
         stop-opacity=".39216"
         offset="1" />
    </linearGradient>
    <radialGradient
       id="radialGradient3053"
       gradientUnits="userSpaceOnUse"
       cy="9.9941"
       cx="8.2761"
       gradientTransform="matrix(0,6.6678,-8.1859,0,105.88,-59.463)"
       r="12.672">
      <stop
         id="stop3244"
         stop-color="#7ec1f8"
         offset="0" />
      <stop
         id="stop3246"
         stop-color="#4f97e3"
         offset=".26238" />
      <stop
         id="stop3248"
         stop-color="#2674c6"
         offset=".66094" />
      <stop
         id="stop3250"
         stop-color="#0b4169"
         offset="1" />
    </radialGradient>
  </defs>
  <metadata
     id="metadata3148">
    <rdf:RDF>
      <cc:Work
         rdf:about="">
        <dc:format>image/svg+xml</dc:format>
        <dc:type
           rdf:resource="http://purl.org/dc/dcmitype/StillImage" />
        <dc:title />
      </cc:Work>
    </rdf:RDF>
  </metadata>
  <g
     id="g4170"
     transform="translate(0,-1)">
    <rect
       id="rect4232"
       style="color:#000000;fill:#ffffff"
       rx="2"
       ry="2"
       height="39"
       width="39"
       y="5.5"
       x="4.5" />
    <path
       id="rect5505-21"
       style="color:#000000;fill:url(#radialGradient3053)"
       d="m 6.5,5.5 c -1.108,0 -2,0.892 -2,2 l 0,20.275 1.6758,0 4.7602,-17.769 a 0.50002,0.50002 0 0 1 0.46,-0.3771 0.50002,0.50002 0 0 1 0.049,0 0.50002,0.50002 0 0 1 0.02,0.002 0.50002,0.50002 0 0 0 0.002,0 0.50002,0.50002 0 0 1 0.049,-0.002 0.50002,0.50002 0 0 1 0.039,0.0039 l 0,-0.0332 24.89,0 0,0.0293 a 0.50002,0.50002 0 0 1 0.02,0.002 0.50002,0.50002 0 0 0 0.002,0 0.50002,0.50002 0 0 1 0.049,-0.002 0.50002,0.50002 0 0 1 0.472,0.3771 l 4.762,17.769 1.75,0 0,-20.275 c 0,-1.108 -0.892,-2 -2,-2 l -35,0 z m 5.646,5.1 4.604,17.175 5.949,0 -4.603,-17.175 -5.95,0 z m 7.016,0 4.602,17.175 0.386,0 4.602,-17.175 -9.59,0 z m 10.656,0 -4.603,17.175 5.961,0 4.601,-17.175 -5.959,0 z m -18.355,1.306 -4.2521,15.869 8.5041,0 -4.252,-15.869 z m 25,0 -4.252,15.869 8.504,0 -4.252,-15.869 z M 4.5,29.775 4.5,42.5 c 0,1.108 0.892,2 2,2 l 6.5,0 0,-14.725 -8.5,0 z m 14.5,0 0,14.725 10,0 0,-14.725 -10,0 z m 16,0 0,14.725 6.5,0 c 1.108,0 2,-0.892 2,-2 l 0,-12.725 -8.5,0 z"
       inkscape:connector-curvature="0" />
    <rect
       id="rect6741-2"
       rx="1"
       ry="1"
       height="37"
       width="37"
       y="6.5"
       x="5.5"
       style="opacity:0.5;fill:none;stroke:url(#linearGradient3044);stroke-linecap:round;stroke-linejoin:round" />
    <rect
       id="rect5505-21-1"
       style="color:#000000;opacity:0.4;fill:none;stroke:#0035a4;stroke-linecap:round;stroke-linejoin:round"
       rx="2"
       ry="2"
       height="39"
       width="39"
       y="5.5"
       x="4.5" />
  </g>
</svg>
