<?xml version="1.0" encoding="UTF-8" standalone="no"?>
<!-- Created with Inkscape (http://www.inkscape.org/) -->

<svg
   xmlns:dc="http://purl.org/dc/elements/1.1/"
   xmlns:cc="http://creativecommons.org/ns#"
   xmlns:rdf="http://www.w3.org/1999/02/22-rdf-syntax-ns#"
   xmlns:svg="http://www.w3.org/2000/svg"
   xmlns="http://www.w3.org/2000/svg"
   xmlns:sodipodi="http://sodipodi.sourceforge.net/DTD/sodipodi-0.dtd"
   xmlns:inkscape="http://www.inkscape.org/namespaces/inkscape"
   id="svg4031"
   height="48"
   width="48"
   version="1.1"
   inkscape:version="0.91 r13725"
   sodipodi:docname="browser-tor.svg">
  <sodipodi:namedview
     pagecolor="#ffffff"
     bordercolor="#666666"
     borderopacity="1"
     objecttolerance="10"
     gridtolerance="10"
     guidetolerance="10"
     inkscape:pageopacity="0"
     inkscape:pageshadow="2"
     inkscape:window-width="1600"
     inkscape:window-height="876"
     id="namedview47"
     showgrid="false"
     inkscape:zoom="1"
     inkscape:cx="28.353353"
     inkscape:cy="24"
     inkscape:window-x="0"
     inkscape:window-y="24"
     inkscape:window-maximized="1"
     inkscape:current-layer="svg4031" />
  <defs
     id="defs4033">
    <linearGradient
       id="linearGradient3012"
       y2="44.341"
       gradientUnits="userSpaceOnUse"
       x2="71.204"
       gradientTransform="matrix(1.0541 0 0 1.0541 -51.611 -2.7279)"
       y1="6.2376"
       x1="71.204">
      <stop
         id="stop4013"
         stop-color="#fff"
         offset="0" />
      <stop
         id="stop4015"
         stop-color="#fff"
         stop-opacity=".23529"
         offset=".50776" />
      <stop
         id="stop4017"
         stop-color="#fff"
         stop-opacity=".15686"
         offset=".83457" />
      <stop
         id="stop4019"
         stop-color="#fff"
         stop-opacity=".39216"
         offset="1" />
    </linearGradient>
    <radialGradient
       id="radialGradient3015"
       gradientUnits="userSpaceOnUse"
       cy="8.4498"
       cx="3.9722"
       gradientTransform="matrix(0 2.4988 -2.6435 -6.8014e-8 46.337 -12.18)"
       r="20">
      <stop
         id="stop3750-8-9"
         stop-color="#ad90ec"
         offset="0" />
      <stop
         id="stop3752-3-2"
         stop-color="#9b42ea"
         offset=".26238" />
      <stop
         id="stop3754-7-2"
         stop-color="#9c36e6"
         offset=".70495" />
      <stop
         id="stop3756-9-3"
         stop-color="#6c2ba0"
         offset="1" />
    </radialGradient>
  </defs>
  <metadata
     id="metadata4036">
    <rdf:RDF>
      <cc:Work
         rdf:about="">
        <dc:format>image/svg+xml</dc:format>
        <dc:type
           rdf:resource="http://purl.org/dc/dcmitype/StillImage" />
        <dc:title />
      </cc:Work>
    </rdf:RDF>
  </metadata>
  <path
     id="path2555"
     style="color:#000000"
     d="m24 3.5c-11.311 0-20.5 9.189-20.5 20.5s9.189 20.5 20.5 20.5 20.5-9.189 20.5-20.5-9.189-20.5-20.5-20.5z"
     fill="url(#radialGradient3015)" />
  <g
     id="g4287"
     style="fill:none;stroke:#000000;stroke-width:11.21800041;stroke-linecap:round;stroke-linejoin:round;stroke-opacity:0"
     transform="matrix(0.091764,0,0,0.086588,1.531512,10.442368)">
    <path
       id="path4289"
       style="color:#000000;text-indent:0;text-decoration:none;text-decoration-line:none;text-decoration-style:solid;text-decoration-color:#000000;text-transform:none;block-progression:tb;white-space:normal;opacity:0.15;isolation:auto;mix-blend-mode:normal;solid-color:#000000;fill:#000000;stroke:#000000;stroke-opacity:0;color-rendering:auto;image-rendering:auto;shape-rendering:auto"
       d="m 290.38,58.408 a 5.4493,5.775 0 0 0 -3.1075,0.99248 c -6.4832,4.6708 -12.648,9.7591 -18.155,15.496 a 5.4493,5.775 0 0 0 -9.2799,0.13534 c -0.26963,0.48042 -0.24699,1.0068 -0.51082,1.4887 l -0.0639,-0.02255 -0.17027,0.63159 c -5.6635,10.454 -8.9212,21.308 -11.238,32.188 l -4.3207,-2.8872 a 5.4493,5.775 0 0 0 -6.1085,0.203 l -1.7666,1.3534 a 5.4493,5.775 0 0 0 -1.5112,7.6016 c 4.0141,7.2243 4.5726,12.004 4.193,14.842 -0.37964,2.838 -1.6306,4.163 -2.5967,4.8271 a 5.4493,5.775 0 0 0 -0.0213,0.0226 c -8.5663,5.9302 -21.518,13.322 -29.074,21.181 -0.008,0.008 -0.0132,0.0143 -0.0213,0.0226 -0.006,0.007 -0.015,0.016 -0.0213,0.0225 -13.25,13.565 -17.624,28.258 -16.474,45.294 4.5e-4,0.008 -4.6e-4,0.015 0,0.0225 1.4031,23.221 18.113,42.083 39.844,49.376 a 5.4493,5.775 0 0 0 0.0213,0.0225 c 9.5051,3.1202 18.247,3.5188 27.414,3.5188 15.382,0 31.41,-3.9525 43.526,-14.075 12.728,-10.607 20.39,-26.573 20.39,-43.331 0,-16.729 -7.0405,-32.547 -19.241,-43.692 a 5.4493,5.775 0 0 0 -0.0213,-0.0226 c -6.4532,-5.8522 -14.133,-10.361 -21.859,-14.639 0.79904,0.46304 0.63672,0.52237 0.36182,0.13534 -0.28936,-0.40739 -0.76425,-1.1706 -1.2558,-2.0978 -0.98302,-1.8544 -2.1271,-4.3877 -3.1713,-6.9023 -2.0885,-5.0292 -3.7886,-9.9023 -3.7886,-9.9023 a 5.4493,5.775 0 0 0 -2.1071,-2.797 c 9.5209,-13.641 20.094,-27.311 34.395,-40.06 a 5.4493,5.775 0 0 0 -5.172,-9.9249 c -2.4726,0.84122 -4.6653,2.3725 -7.0663,3.406 0.7952,-0.94163 1.1454,-1.8077 1.9581,-2.7519 a 5.4493,5.775 0 0 0 -3.9801,-9.6767 z M 99.95,81.506 c -2.7409,0 -5.5853,0.37436 -8.3008,2.1654 -2.7155,1.7911 -4.8111,5.6146 -4.8102,9.3835 l 0,29.03 c 0,7.5374 6.1143,13.421 13.111,13.421 l 24.732,0 0,106.35 c 0,6.6946 5.4325,12.068 11.6,12.068 l 37.268,0 c 6.1672,0 11.749,-5.2008 11.749,-12.068 l 0,-105.97 c 0,-0.28078 -0.0365,-0.0489 -0.0639,-0.0226 -0.0274,0.0263 0.30129,-0.3609 1.8517,-0.3609 l 22.519,0 c 6.9518,0 13.452,-5.4226 13.452,-13.421 l 0,-29.03 c 0,-3.9993 -2.4252,-7.7866 -5.172,-9.4737 -2.7468,-1.6871 -5.587,-2.0752 -8.2795,-2.0752 l -109.66,0 z m 0,11.549 109.66,0 c 1.276,0 2.1945,0.31028 2.5541,0.47368 l 0,28.557 c 0,0.46946 -1.3138,1.8722 -2.5541,1.8722 l -22.519,0 c -3.5036,0 -6.7913,1.0526 -9.1735,3.3384 -2.3822,2.2858 -3.5119,5.5968 -3.5119,8.594 l 0,105.97 c 0,0.23515 -0.19053,0.51881 -0.85136,0.51881 l -37.268,0 c -0.66263,0 -0.70237,-0.11132 -0.70237,-0.51881 l 0,-106.94 c 0,-3.5059 -1.7672,-6.5627 -3.8311,-8.3234 -2.064,-1.7606 -4.3678,-2.6391 -6.9386,-2.6391 l -24.86,0 c -1.4713,0 -2.2135,-0.94162 -2.2135,-1.8722 l 0,-28.647 c 0.24873,-0.10005 0.907,-0.38346 2.2135,-0.38346 z m 163.97,7.935 a 5.4493,5.775 0 0 0 4.8315,1.1504 c -3.6112,4.6909 -8.7733,9.0849 -11.877,13.827 0.67305,-4.2699 3.201,-8.6953 4.5974,-13.06 a 5.4493,5.775 0 0 0 2.4477,-1.9173 z m 117.38,18.181 c -1.8622,3e-5 -4.3898,0.19821 -5.5552,0.3158 -26.967,2.7242 -48.54,24.511 -50.763,52.06 -0.26244,1.8091 -0.2576,3.3015 -0.21284,4.6918 l 0,66.587 c 0,6.6232 5.522,10.827 11.195,10.827 l 34.821,0 c 5.6734,0 11.195,-4.2039 11.195,-10.827 l 0,-58.602 c 0,-1.5438 0.4192,-2.701 1.7879,-3.8797 1.3687,-1.1787 3.9885,-2.3684 8.4711,-2.3684 1.6424,0 3.0884,-0.0792 4.6825,-0.58647 1.5941,-0.50722 3.4765,-1.7564 4.5335,-3.4962 2.114,-3.4797 1.4048,-5.8406 1.4048,-7.9624 l 0,-34.692 c 0,-6.8264 -5.525,-12.068 -11.855,-12.068 l -9.7056,0 z m -126.9,2.797 a 5.4493,5.775 0 0 0 4.5548,4.8045 c 1.7102,0.27724 3.0162,0.46239 4.4058,0.67669 0.67221,1.8587 1.2473,3.5464 2.8095,7.3083 1.1256,2.7106 2.355,5.4941 3.6396,7.9173 0.64227,1.2116 1.2766,2.334 2.022,3.3835 0.74542,1.0495 1.4179,2.0945 3.2352,3.1128 a 5.4493,5.775 0 0 0 0.0213,0.0226 c 7.5562,4.1832 14.62,8.429 19.901,13.218 9.9109,9.0654 15.431,21.611 15.431,34.917 0,13.013 -6.003,25.75 -16.219,34.263 -9.4618,7.9052 -23.228,11.594 -36.8,11.594 -8.8613,0 -16.204,-0.40474 -24.179,-3.0226 -18.124,-6.0949 -31.182,-21.357 -32.245,-39.09 a 5.4493,5.775 0 0 0 0,-0.0677 c -1.0172,-14.871 1.687,-24.444 13.239,-36.248 a 5.4493,5.775 0 0 0 0.0426,-0.0451 c 5.2803,-5.5057 18.219,-13.411 27.393,-19.76 l 0.0213,-0.0226 c 3.3973,-2.3445 6.6295,-6.7505 7.4494,-12.88 0.36352,-2.7174 -1.8221,-6.6537 -2.469,-9.8798 l 0.9365,0.63159 a 5.4493,5.775 0 0 0 6.8109,-0.83459 z m 126.9,8.7519 9.7056,0 c 0.77178,0 0.95778,0.51721 0.95778,0.5188 l 0,34.692 c 0,0.76247 0.15561,0.12729 0.10643,0.54136 -6.2144,0.0364 -11.429,1.6683 -15.176,4.8948 -3.7879,3.2621 -5.8106,8.119 -5.8106,12.857 l 0,58.602 c 0,-1.1592 0.31062,-0.72181 -0.29798,-0.72181 l -34.821,0 c -0.6086,0 -0.29798,-0.4374 -0.29798,0.72181 l 0,-66.79 a 5.4493,5.775 0 0 0 0,-0.20302 c -0.0276,-0.85822 0.092,-2.8088 0.0639,-2.6391 a 5.4493,5.775 0 0 0 0.0639,-0.5188 c 1.6862,-21.801 18.84,-39.449 40.972,-41.684 0.48269,-0.0487 3.7666,-0.27068 4.5335,-0.27069 z"
       inkscape:connector-curvature="0" />
  </g>
  <path
     id="path8655"
     opacity=".5"
     stroke-linejoin="round"
     style="color:#000000"
     d="m43.5 23.999c0 10.77-8.7311 19.501-19.5 19.501-10.77 0-19.5-8.7309-19.5-19.501 0-10.769 8.7306-19.499 19.5-19.499s19.5 8.73 19.5 19.499v0z"
     stroke="url(#linearGradient3012)"
     stroke-linecap="round"
     fill="none" />
  <path
     style="opacity:0.3;fill:#000000;fill-opacity:1"
     d="m 28.171775,17 c -1.165586,0.792367 -2.181177,1.690457 -2.820313,2.884766 l 0.451172,-1.689454 c -0.675966,1.136555 -1.137562,2.309833 -1.285156,3.458985 l -0.908203,-0.574219 -0.16211,0.119141 c 0.814681,1.383503 0.389383,2.114803 -0.01172,2.375 -0.814682,0.53217 -2.006763,1.195943 -2.595704,1.77539 -1.140535,1.099754 -1.465532,2.151567 -1.365234,3.535157 0.112778,1.773928 1.478912,3.252584 3.308594,3.832031 C 23.585119,32.965222 24.32508,33 25.152241,33 c 1.328467,0 2.693552,-0.330824 3.683594,-1.111328 1.052717,-0.827782 1.679688,-2.070426 1.679688,-3.359375 0,-1.300811 -0.576612,-2.529239 -1.591797,-3.404297 -0.538928,-0.461168 -1.216156,-0.840418 -1.917967,-1.207031 -0.313283,-0.165643 -1.278978,-0.875602 -0.953125,-1.892578 L 25.359275,21.9375 c 0.96842,-1.430732 2.222947,-2.852429 3.800781,-4.179688 -1.215598,0.390253 -2.291641,0.980583 -3.09375,2.044922 C 26.542561,18.868536 27.319563,17.934198 28.171775,17 Z m -17.470704,2 c -0.38862,0 -0.7012628,0.133386 -0.7011708,0.5 l 0,2.513672 c 0,0.366613 0.3126418,0.662109 0.7011708,0.662109 l 2.28125,0 c 0.212984,0 0.488282,0.165384 0.488282,0.449219 l 0,9.259766 c 0,0.307474 0.251079,0.544921 0.564453,0.544921 l 3.421875,0 c 0.313283,0 0.576172,-0.237447 0.576172,-0.544921 l 0,-9.175782 c 0,-0.283835 0.200287,-0.533203 0.664062,-0.533203 l 2.06836,0 c 0.375866,0 0.734375,-0.295496 0.734375,-0.662109 l 0,-2.513672 c 0,-0.366614 -0.358509,-0.5 -0.734375,-0.5 l -10.064454,0 z m 25.81836,3.261719 c -0.120633,0 -0.387281,0.01819 -0.462891,0.02539 -2.25556,0.214998 -4.035484,1.925951 -4.210937,4.066406 -0.01397,0.07922 -0.01522,0.230342 -0.01172,0.332031 l 0,5.783203 c 0,0.236559 0.23716,0.4375 0.525391,0.4375 l 3.195312,0 c 0.28823,0 0.527344,-0.200941 0.527344,-0.4375 l 0,-5.074219 c 0,-0.543946 0.451364,-1.041015 1.441406,-1.041015 0.501305,0 0.476563,-0.152717 0.476563,-0.542969 l 0,-3.003906 c 0,-0.295611 -0.26399,-0.544922 -0.589844,-0.544922 l -0.890625,0 z"
     id="path4184"
     inkscape:connector-curvature="0" />
  <g
     id="g4277"
     fill="#fff"
     transform="matrix(.091764 0 0 .086588 9.9729 15.984)">
    <g
       id="g4279"
       transform="translate(-92 -64)">
      <g
         id="g4281">
        <path
           id="path4283"
           d="m264.51 77.978-4.917 19.529c6.965-13.793 18.027-24.172 30.729-33.323-9.287 10.789-17.754 21.579-22.944 32.368 8.741-12.292 20.486-19.12 33.733-23.627-17.618 15.706-31.602 32.559-42.255 49.494l-8.467-3.687c1.501-13.521 6.6093-27.369 14.121-40.754z"
           fill="#abcd03" />
        <path
           id="path4285"
           d="m241.9 115.14 16.116 6.6859c0 4.098-0.33313 16.597 2.2294 20.284 26.803 34.519 22.293 103.71-5.4295 105.49-42.217 0-58.317-28.679-58.317-55.038 0-24.037 28.816-40.016 46.025-54.219 4.37-3.824 3.6111-12.275-0.62387-23.201z"
           fill="#ff8f00" />
        <path
           id="path4287"
           d="m258.02 121.59 5.808 2.9628c-0.546 3.823 0.273 12.292 4.096 14.476 16.936 10.516 32.914 21.988 39.197 33.46 22.398 40.426-15.706 77.846-48.62 74.295 17.891-13.248 23.081-40.425 16.389-70.062-2.731-11.609-6.966-22.125-14.478-34.007-3.2542-5.8325-2.118-13.066-2.392-21.125z"
           fill="#ff8f00" />
      </g>
      <g
         id="g4289">
        <path
           id="path4291"
           d="m255.23 120.59 12.018 1.639c-3.551 11.745 6.966 19.939 10.38 21.852 7.648 4.234 15.023 8.604 20.896 13.93 11.063 10.106 17.345 24.31 17.345 39.333 0 14.886-6.829 29.226-18.301 38.786-10.789 9.014-25.675 12.838-40.152 12.838-9.014 0-17.072-0.409-25.812-3.278-19.939-6.692-34.826-23.763-36.055-44.25-1.093-15.979 2.458-28.134 14.887-40.835 6.418-6.692 19.393-14.34 28.271-20.486 4.371-3.005 9.014-11.473 0.136-27.451l1.776-1.366 13.157 8.812-11.108-4.578c0.956 1.366 3.551 7.512 4.098 9.287 1.229 5.053 0.683 9.971-0.41 12.155-5.599 10.107-15.159 12.838-22.124 18.574-12.292 10.106-25.676 18.164-24.174 45.888 0.683 13.657 11.336 30.319 27.314 38.104 9.014 4.371 19.394 6.146 29.91 6.692 9.423 0.41 27.451-5.19 37.284-13.384 10.516-8.74 16.389-21.988 16.389-35.508 0-13.658-5.463-26.632-15.706-35.783-5.873-5.326-15.569-11.745-21.578-15.16-6.009-3.414-13.521-12.974-11.063-22.124z" />
        <path
           id="path4293"
           d="m251.54 140.8c-1.229 6.283-2.595 17.618-8.058 21.852-2.322 1.638-4.644 3.278-7.102 4.916-9.833 6.693-19.667 12.974-24.173 29.09-0.956 3.415-0.136 7.102 0.684 10.516 2.458 9.833 9.423 20.486 14.886 26.769 0 0.273 1.093 0.956 1.093 1.229 4.507 5.327 5.873 6.829 22.944 10.652l-0.41 1.913c-10.243-2.731-18.71-5.189-24.037-11.336 0-0.136-0.956-1.093-0.956-1.093-5.736-6.556-12.702-17.481-15.296-27.724-0.956-4.098-1.775-7.238-0.683-11.473 4.643-16.661 14.75-23.217 24.993-30.182 2.322-1.502 5.053-2.869 7.238-4.644 4.233-3.14 6.554-12.701 8.877-20.485z" />
        <path
           id="path4295"
           d="m255.91 166.75c0.137 7.102-0.55625 10.665 1.2188 15.719 1.092 3.004 4.782 7.1015 5.875 11.062 1.502 5.327 3.138 11.199 3 14.75 0 4.098-0.25625 11.742-2.0312 19.937-1.3536 6.7711-4.4732 12.582-9.7188 15.875-5.3733-1.1064-11.682-2.9952-15.406-6.1875-7.238-6.282-13.649-16.786-14.469-25.938-0.682-7.511 6.2728-18.588 15.969-24.188 8.194-4.78 10.1-10.228 11.875-18.969-2.458 7.648-4.7665 14.059-12.688 18.156-11.472 6.009-17.358 16.096-16.812 25.656 0.819 12.291 5.7415 20.62 15.438 27.312 4.097 2.868 11.751 5.8988 16.531 6.7188v-0.625c3.6249-0.67888 8.3182-6.6327 10.656-14.688 2.049-7.238 2.8568-16.502 2.7188-22.375-0.137-3.414-1.643-10.808-4.375-17.5-1.502-3.687-3.8095-7.3738-5.3125-9.9688-1.637-2.597-1.6488-8.195-2.4688-14.75z" />
        <path
           id="path4297"
           d="m255.09 193.53c0.136 4.78 2.056 10.905 2.875 17.188 0.684 4.644 0.387 9.3082 0.25 13.406-0.13495 4.7432-1.7152 13.242-3.875 17.375-2.0367-0.93403-2.8329-1.9992-4.1562-3.7188-1.638-2.322-2.7508-4.644-3.8438-7.375-0.819-2.049-1.7765-4.394-2.1875-7.125-0.546-4.097-0.393-10.506 4.25-17.062 3.551-5.19 4.3648-5.5848 5.5938-11.594-1.64 5.326-2.8625 5.869-6.6875 10.375-4.233 4.917-4.9375 12.159-4.9375 18.031 0 2.459 0.9805 5.1872 1.9375 7.7812 1.092 2.732 2.0292 5.452 3.5312 7.5 2.258 3.3208 5.148 5.2092 6.5625 5.5625 0.009 0.002 0.022-0.002 0.0312 0 0.0303 0.007 0.0649 0.0255 0.0937 0.0312v-0.15625c2.6498-2.9544 4.2444-5.8893 4.7812-8.8438 0.683-3.551 0.84-7.1098 1.25-11.344 0.409-3.551 0.11225-8.334-0.84375-13.25-1.365-6.146-3.669-12.412-4.625-16.781z" />
        <path
           id="path4299"
           d="m255.5 135.07c0.137 7.101 0.683 20.35 2.595 25.539 0.546 1.775 5.599 9.56 9.149 18.983 2.459 6.556 3.005 12.565 3.415 14.34 1.639 7.785-0.41 20.896-3.142 33.324-1.365 6.692-6.009 15.023-11.335 18.301l-1.092 1.912c3.005-0.137 10.379-7.375 12.974-16.389 4.371-15.296 6.146-22.398 4.098-39.333-0.273-1.64-0.956-7.238-3.551-13.248-3.824-9.151-9.287-17.891-9.969-19.667-1.23-2.867-2.869-15.295-3.142-23.762z" />
        <path
           id="path4301"
           d="m258.06 125.35c-0.40515 7.2981-0.51351 9.9857 0.85149 15.312 1.502 5.873 9.151 14.34 12.292 24.037 6.009 18.574 4.507 42.884 0.136 61.867-1.638 6.691-9.424 16.389-17.208 19.529l5.736 1.366c3.141-0.137 11.198-7.648 14.34-16.252 5.052-13.521 6.009-29.636 3.96-46.571-0.137-1.639-2.869-16.252-5.463-22.398-3.688-9.15-10.244-17.345-10.926-19.119-1.228-3.005-3.9265-9.2436-3.7185-17.771z" />
        <rect
           id="rect4303"
           height="126.02"
           width=".55041"
           y="120.22"
           x="253.72" />
      </g>
    </g>
    <path
       id="path4305"
       d="m7.943 23.282h109.67c4.096 0 8.0049 1.5405 8.0049 5.7745v29.034c0 4.234-3.9089 7.649-8.0049 7.649h-22.534c-5.054 0-7.239 2.867-7.239 6.145v105.98c0 3.551-2.868 6.282-6.282 6.282h-37.284c-3.415 0-6.146-2.731-6.146-6.282v-106.94c0-3.278-3.005-5.189-5.326-5.189h-24.857c-4.234 0-7.648-3.415-7.648-7.649v-29.035c-0.001-4.234 3.413-5.7745 7.648-5.7745z" />
    <path
       id="path4307"
       d="m289.31 60.959h9.696c3.551 0 6.419 2.868 6.419 6.282v34.69c0 4.507 0.273 6.282-5.19 6.282-10.789 0-15.705 5.736-15.705 12.018v58.589c0 2.732-2.595 5.053-5.736 5.053h-34.827c-3.141 0-5.736-2.321-5.736-5.053v-66.784c-0.0378-1.1744-0.0148-2.9081 0.137-3.823 1.912-24.72 21.308-44.498 45.888-46.981 0.82399-0.0832 3.7394-0.273 5.054-0.273z" />
  </g>
  <path
     id="path2555-6"
     opacity=".5"
     stroke-linejoin="round"
     style="color:#000000"
     d="m24 3.5c-11.311 0-20.5 9.1888-20.5 20.5s9.1888 20.5 20.5 20.5 20.5-9.1888 20.5-20.5-9.1888-20.5-20.5-20.5z"
     fill-opacity="0"
     stroke="#42007d"
     stroke-linecap="round" />
</svg>
