<?xml version="1.0" encoding="UTF-8" standalone="no"?>
<!-- Created with Inkscape (http://www.inkscape.org/) -->

<svg
   xmlns:dc="http://purl.org/dc/elements/1.1/"
   xmlns:cc="http://creativecommons.org/ns#"
   xmlns:rdf="http://www.w3.org/1999/02/22-rdf-syntax-ns#"
   xmlns:svg="http://www.w3.org/2000/svg"
   xmlns="http://www.w3.org/2000/svg"
   xmlns:sodipodi="http://sodipodi.sourceforge.net/DTD/sodipodi-0.dtd"
   xmlns:inkscape="http://www.inkscape.org/namespaces/inkscape"
   id="svg3489"
   height="48"
   width="48"
   version="1.1"
   inkscape:version="0.91 r13725"
   sodipodi:docname="cs.svg">
  <sodipodi:namedview
     pagecolor="#ffffff"
     bordercolor="#666666"
     borderopacity="1"
     objecttolerance="10"
     gridtolerance="10"
     guidetolerance="10"
     inkscape:pageopacity="0"
     inkscape:pageshadow="2"
     inkscape:window-width="1535"
     inkscape:window-height="876"
     id="namedview40"
     showgrid="false"
     inkscape:zoom="4.9166667"
     inkscape:cx="-10.779661"
     inkscape:cy="24"
     inkscape:window-x="65"
     inkscape:window-y="24"
     inkscape:window-maximized="1"
     inkscape:current-layer="svg3489" />
  <defs
     id="defs3491">
    <radialGradient
       id="radialGradient3189"
       gradientUnits="userSpaceOnUse"
       cy="4.0296"
       cx="26.562"
       gradientTransform="matrix(0 1.1796 -1.0883 0 28.279 -16.856)"
       r="20.397">
      <stop
         id="stop3889"
         stop-color="#323232"
         offset="0" />
      <stop
         id="stop3891"
         stop-color="#191919"
         offset=".84763" />
      <stop
         id="stop3893"
         stop-color="#0c0c0c"
         offset="1" />
    </radialGradient>
    <linearGradient
       id="linearGradient3192"
       y2="40.496"
       gradientUnits="userSpaceOnUse"
       x2="71.204"
       gradientTransform="matrix(1.6288 0 0 1.6288 -93.561 -21.546)"
       y1="15.369"
       x1="71.204">
      <stop
         id="stop4808"
         stop-color="#fff"
         offset="0" />
      <stop
         id="stop4810"
         stop-color="#fff"
         stop-opacity=".23529"
         offset=".42448" />
      <stop
         id="stop4812"
         stop-color="#fff"
         stop-opacity=".15686"
         offset=".82090" />
      <stop
         id="stop4814"
         stop-color="#fff"
         stop-opacity=".39216"
         offset="1" />
    </linearGradient>
    <radialGradient
       id="radialGradient3196"
       gradientUnits="userSpaceOnUse"
       cy="3.99"
       cx="23.896"
       gradientTransform="matrix(0 2.9097 -3.8407 0 39.325 -66.764)"
       r="20.397">
      <stop
         id="stop4711"
         stop-color="#97a5ac"
         offset="0" />
      <stop
         id="stop4713"
         stop-color="#778c94"
         offset=".66094" />
      <stop
         id="stop4715"
         stop-color="#4f707c"
         offset="1" />
    </radialGradient>
    <radialGradient
       id="radialGradient3200"
       gradientUnits="userSpaceOnUse"
       cy="186.17"
       cx="99.157"
       gradientTransform="matrix(.26765 0 0 .083640 -2.5391 25.422)"
       r="62.769">
      <stop
         id="stop3822-2-6"
         stop-color="#3d3d3d"
         offset="0" />
      <stop
         id="stop3864-8-7"
         stop-color="#686868"
         stop-opacity=".49804"
         offset=".5" />
      <stop
         id="stop3824-1-2"
         stop-color="#686868"
         stop-opacity="0"
         offset="1" />
    </radialGradient>
  </defs>
  <metadata
     id="metadata3494">
    <rdf:RDF>
      <cc:Work
         rdf:about="">
        <dc:format>image/svg+xml</dc:format>
        <dc:type
           rdf:resource="http://purl.org/dc/dcmitype/StillImage" />
        <dc:title />
      </cc:Work>
    </rdf:RDF>
  </metadata>
  <path
     id="path19-8"
     d="m-107.35 27.455c-0.68949-0.08373-1.3228-0.4894-1.628-1.0428-0.31109-0.56416-0.33948-0.85964-0.32117-3.3436 0.0142-1.924 0.0191-2.0446 0.0954-2.3202 0.18179-0.65677 0.53377-1.1047 1.0802-1.3747 0.74994-0.37055 1.5582-0.32219 2.2658 0.13558 0.45047 0.29141 0.72424 0.7128 0.87032 1.3397 0.0647 0.27765 0.0709 0.48997 0.0709 2.4335 0 2.3626-0.0115 2.4991-0.25338 3.0111-0.23304 0.49324-0.75997 0.92783-1.3098 1.0803-0.24199 0.0671-0.6627 0.1063-0.87028 0.0811zm0.60419-1.5431c0.2641-0.20144 0.26597-0.218 0.2806-2.4943 0.0114-1.7679 0.005-2.0683-0.0486-2.3095-0.0723-0.32503-0.19916-0.48028-0.44693-0.54699-0.32083-0.08639-0.61473 0.09723-0.7165 0.44766-0.0784 0.26993-0.0776 4.2802 0.00092 4.5507 0.0588 0.20248 0.24977 0.42436 0.39129 0.45456 0.18393 0.03925 0.40998-0.0036 0.53924-0.10218zm3.8826 1.5448c-0.38227-0.0509-0.60536-0.1984-0.75847-0.50146-0.19222-0.38049-0.19212-0.37827-0.19212-4.167v-3.5362h0.77102 0.77102l0.0163 3.2592c0.0177 3.5408 0.0124 3.4581 0.22436 3.5113 0.19461 0.04884 0.40977-0.05546 0.6783-0.32882l0.25724-0.26188 0.01-3.0899 0.01-3.0899 0.76998-0.01029 0.76998-0.01029v4.0473 4.0473l-0.10456 0.02148c-0.12615 0.02591-1.2938 0.02422-1.3879-0.002-0.0575-0.01603-0.0665-0.06845-0.0665-0.38553v-0.36698l-0.21863 0.21287c-0.5031 0.48983-1.046 0.71789-1.5495 0.65086zm-10.005-0.13226c-0.0323-0.05233-0.0275-3.1806 0.006-3.6236 0.0425-0.56815 0.0123-1.0148-0.39553-2.1572-0.1324-0.37085-0.3876-1.1221-0.54715-1.6296-1.1526-3.6662-1.0751-3.4183-0.96497-3.4192 0.75923-0.0065 1.6317-0.002 1.6419 0.0082 0.007 0.0073 0.25414 0.90261 0.54853 1.9896 0.29438 1.0869 0.54009 1.9917 0.54601 2.0107 0.006 0.01891 0.17872-0.61418 0.384-1.4069 0.43034-1.6617 0.67181-2.5792 0.68104-2.5876 0.0192-0.01761 0.2333-0.02168 0.93269-0.01772l0.77414 0.0044-0.017 0.12358c-0.0139 0.10103-0.54215 1.8751-1.0953 3.6788-0.0609 0.19867-0.21498 0.71199-0.34233 1.1407-0.12735 0.42872-0.28178 0.93796-0.34318 1.1317l-0.11163 0.35217v2.2023c0 2.0652-0.004 2.2035-0.0665 2.2206-0.13878 0.03797-1.6055 0.01935-1.6302-0.02069z"
     fill="#fff" />
  <path
     id="path2555-7"
     style="color:#000000"
     d="m24 3.1937c-11.394 0-20.65 9.256-20.65 20.65s9.256 20.65 20.65 20.65 20.65-9.256 20.65-20.65v-12.25c0-4.6348-3.7652-8.4-8.4-8.4h-12.25z"
     fill="url(#radialGradient3196)" />
  <path
     id="path2555-7-1"
     opacity=".7"
     stroke-linejoin="round"
     style="color:#000000"
     d="m24 3.1937c-11.394 0-20.65 9.256-20.65 20.65s9.256 20.65 20.65 20.65 20.65-9.256 20.65-20.65v-12.25c0-4.6348-3.7652-8.4-8.4-8.4h-12.25z"
     stroke="#404040"
     stroke-linecap="round"
     fill="none" />
  <path
     id="path3019"
     opacity=".3"
     stroke-linejoin="round"
     style="color:#000000"
     d="m24 4.181c-10.737 0-19.653 8.6447-19.653 19.663 0 10.721 8.6351 19.646 19.653 19.646 10.706 0 19.657-8.617 19.657-19.635 0-5.0055 0.000222-8.406 0.000222-12.261 0-3.9666-3.19-7.4017-7.4074-7.4017-5.4384 0-7.8509-0.011049-12.25-0.011049z"
     stroke="url(#linearGradient3192)"
     stroke-linecap="round"
     fill="none" />
  <path
     id="path3883"
     style="color:#000000"
     d="m24 9.3242c-8.0114 0-14.52 6.5082-14.52 14.52 0 8.0114 6.5082 14.52 14.52 14.52 8.0114 0 14.52-6.5082 14.52-14.52 0-8.0114-6.5082-14.52-14.52-14.52z"
     fill="url(#radialGradient3189)" />
  <path
     id="path4015"
     opacity=".5"
     style="color:#000000"
     d="m24 9.3242c-8.0114 0-14.52 6.5082-14.52 14.52 0 8.0114 6.5082 14.52 14.52 14.52 8.0114 0 14.52-6.5082 14.52-14.52 0-8.0114-6.5082-14.52-14.52-14.52z"
     stroke="#000"
     fill="none" />
  <path
     id="path4451"
     opacity=".15"
     d="m25.562 17.802c-0.07193 0.80609-0.63714 0.46391-1.2491 0.90375-0.16509-0.02407-0.35338-0.02407-0.61195-0.02407-0.04674-0.5375 0.14188-0.63517 0.23503-0.73283 0.37691-0.29334 0.63714-0.1465 0.63714-0.1465 0.2821-0.04949 0.54034 0.02407 0.98886-0.000388zm1.4122-1.3195h-0.82344v-0.21975h-0.44686v0.12174c-0.04839 0.02407-0.09513 0.07359-0.14188 0.09766h-0.04674c-0.77902-0.63517-0.82543 0.65993-1.3442 0.36659-0.04674-0.26893-0.02322-0.51343-0.02322-0.83085 0.89538-0.02478 0.56521-0.26892 0.30697-0.58633-0.09315-0.12242-0.14188-0.31776-0.16508-0.43984-0.21183-0.80608-1.084-1.2948-2.3543-0.78167-0.82543 0.31741-0.61194 1.466-0.542 2.2477-0.04674 0.0729-0.14188 0.04884-0.21183 0.04884-0.89538 0.04884-1.2955 1.0255-1.4841 1.8075 0.04674 0.70876-0.04674 1.4904-0.16508 2.1741-0.11835 0.684-0.35338 1.2215-0.37691 1.8811-0.04674 0.58633 0.16508 1.2703 0.11834 1.8078-0.49526 1.5148-0.84897 2.5163-1.1072 4.1288-0.18829 0.36625-0.84698 1.1479-1.1072 1.3192-0.06995 0.12174 0.04674 0.39101-0.06995 0.56158-0.21183 0.31741-0.542 0.48867-0.73029 0.83084 0.04674 0.0729-0.28343 0.1465-0.25824 0.26892 0.02322 0.12174 0.18829 0.43915 0.25824 0.51274 0.02322 0.04884 0.25824-0.07359 0.25824 0 0.09513 0.29265 0.30697 0.90375 0.542 1.0502 1.0373 0.12174 1.0373 0.12174 1.4606 0 0.23503-0.70876-0.80024-0.39101-0.70708-1.3439 1.4142-0.29265 1.8607-0.70842 2.4259-2.2473 0.25824-1.1238 0.61194-2.2229 1.1536-3.2979 0.09315-0.07291 0.06994-0.26858 0.23503-0.34217 0.63515 1.0991 1.7908 1.8814 2.3543 3.0297 0.14188 1.4901 0.42531 2.2962 0.91858 2.5651 0.11834 0.04884 0 0.51274 0.09514 0.61041 0 0.1465 0.04674 0.31741-0.02322 0.48867-0.0484 0.12242-0.02321 0.26892-0.02321 0.39101v0.1465c0.02321 0.22077 0.06994 0.22077 0.28177 0.39101 0.61194 0.41507 1.4374 1.075 2.2608 0.58633 0.37691-0.63586-0.42332-1.4412-0.98853-1.8567-0.18829-0.1465-0.51846-0.51274-0.47206-0.75725 0.30697-0.31776 0.51846-1.7102 0.40012-2.7852-0.04674-0.24382-0.09315-0.48867-0.18829-0.684-0.28177-0.56157-0.91692-1.3436-1.4586-1.9052 0.06994-0.07291 0.16509-0.17126 0.28177-0.2201 0-0.53716-0.21183-0.70842-0.49327-1.0991-0.23702-0.39101-0.77703-1.1479-1.1791-1.3924 0 0 0-0.02478-0.40012-0.02478-0.02322-0.26858 0.0484-0.48867 0.11834-0.78167 0-0.21975 0.16509-0.09732 0.21183-0.58633 0.11834-0.41508 0.06994-0.17091 0.16509-0.58599 0.09315-0.19533 0.14188-0.39101 0.14188-0.70876 0.35172 0.12243 1.0585 0.09766 1.3654 0l0.06994 0.04884c0.09514 0.02478 0.11835-0.12174 0.18829-0.14615 0.542-0.29369 0.73029-0.80643 1.1771-0.85526 0 0 0.23702-0.12243 0.58841 0 0.14188 0 0.26023 0.02407 0.26023-0.12243 0.02322-0.21974 0.02322-0.39031 0.14188-0.5375 0.09315 0.58633 0.35172 1.2463 0.82344 1.8814l0.47006-0.34217c-0.44686-0.56157-0.7283-1.1967-0.77703-1.9299 0.0232 0.04884 0.04839 0.09767 0.09513 0.1465 0.16509 0 0.25824-0.36659 0.44686-0.34218 0.02321-0.04884 0.07193-0.26892 0.11835-0.43984h1.7656l0.63515-0.1465v-0.34217l-0.47006-0.04884v-0.39101h-0.11835v-0.43984h-0.28177v0.41542l-0.73029-0.04884v-0.26892h-0.28178v0.24416l-0.7535-0.0729v-0.36658h-0.28343v0.34217l-1.1072-0.0729v-0.12139h0.000887z"
     stroke="#000"
     stroke-width="2"
     fill="none" />
  <path
     id="path4453"
     opacity=".15"
     d="m25.562 17.802c-0.07193 0.80609-0.63714 0.46391-1.2491 0.90375-0.16509-0.02407-0.35338-0.02407-0.61195-0.02407-0.04674-0.5375 0.14188-0.63517 0.23503-0.73283 0.37691-0.29334 0.63714-0.1465 0.63714-0.1465 0.2821-0.04949 0.54034 0.02407 0.98886-0.000388zm1.4122-1.3195h-0.82344v-0.21975h-0.44686v0.12174c-0.04839 0.02407-0.09513 0.07359-0.14188 0.09766h-0.04674c-0.77902-0.63517-0.82543 0.65993-1.3442 0.36659-0.04674-0.26893-0.02322-0.51343-0.02322-0.83085 0.89538-0.02478 0.56521-0.26892 0.30697-0.58633-0.09315-0.12242-0.14188-0.31776-0.16508-0.43984-0.21183-0.80608-1.084-1.2948-2.3543-0.78167-0.82543 0.31741-0.61194 1.466-0.542 2.2477-0.04674 0.0729-0.14188 0.04884-0.21183 0.04884-0.89538 0.04884-1.2955 1.0255-1.4841 1.8075 0.04674 0.70876-0.04674 1.4904-0.16508 2.1741-0.11835 0.684-0.35338 1.2215-0.37691 1.8811-0.04674 0.58633 0.16508 1.2703 0.11834 1.8078-0.49526 1.5148-0.84897 2.5163-1.1072 4.1288-0.18829 0.36625-0.84698 1.1479-1.1072 1.3192-0.06995 0.12174 0.04674 0.39101-0.06995 0.56158-0.21183 0.31741-0.542 0.48867-0.73029 0.83084 0.04674 0.0729-0.28343 0.1465-0.25824 0.26892 0.02322 0.12174 0.18829 0.43915 0.25824 0.51274 0.02322 0.04884 0.25824-0.07359 0.25824 0 0.09513 0.29265 0.30697 0.90375 0.542 1.0502 1.0373 0.12174 1.0373 0.12174 1.4606 0 0.23503-0.70876-0.80024-0.39101-0.70708-1.3439 1.4142-0.29265 1.8607-0.70842 2.4259-2.2473 0.25824-1.1238 0.61194-2.2229 1.1536-3.2979 0.09315-0.07291 0.06994-0.26858 0.23503-0.34217 0.63515 1.0991 1.7908 1.8814 2.3543 3.0297 0.14188 1.4901 0.42531 2.2962 0.91858 2.5651 0.11834 0.04884 0 0.51274 0.09514 0.61041 0 0.1465 0.04674 0.31741-0.02322 0.48867-0.0484 0.12242-0.02321 0.26892-0.02321 0.39101v0.1465c0.02321 0.22077 0.06994 0.22077 0.28177 0.39101 0.61194 0.41507 1.4374 1.075 2.2608 0.58633 0.37691-0.63586-0.42332-1.4412-0.98853-1.8567-0.18829-0.1465-0.51846-0.51274-0.47206-0.75725 0.30697-0.31776 0.51846-1.7102 0.40012-2.7852-0.04674-0.24382-0.09315-0.48867-0.18829-0.684-0.28177-0.56157-0.91692-1.3436-1.4586-1.9052 0.06994-0.07291 0.16509-0.17126 0.28177-0.2201 0-0.53716-0.21183-0.70842-0.49327-1.0991-0.23702-0.39101-0.77703-1.1479-1.1791-1.3924 0 0 0-0.02478-0.40012-0.02478-0.02322-0.26858 0.0484-0.48867 0.11834-0.78167 0-0.21975 0.16509-0.09732 0.21183-0.58633 0.11834-0.41508 0.06994-0.17091 0.16509-0.58599 0.09315-0.19533 0.14188-0.39101 0.14188-0.70876 0.35172 0.12243 1.0585 0.09766 1.3654 0l0.06994 0.04884c0.09514 0.02478 0.11835-0.12174 0.18829-0.14615 0.542-0.29369 0.73029-0.80643 1.1771-0.85526 0 0 0.23702-0.12243 0.58841 0 0.14188 0 0.26023 0.02407 0.26023-0.12243 0.02322-0.21974 0.02322-0.39031 0.14188-0.5375 0.09315 0.58633 0.35172 1.2463 0.82344 1.8814l0.47006-0.34217c-0.44686-0.56157-0.7283-1.1967-0.77703-1.9299 0.0232 0.04884 0.04839 0.09767 0.09513 0.1465 0.16509 0 0.25824-0.36659 0.44686-0.34218 0.02321-0.04884 0.07193-0.26892 0.11835-0.43984h1.7656l0.63515-0.1465v-0.34217l-0.47006-0.04884v-0.39101h-0.11835v-0.43984h-0.28177v0.41542l-0.73029-0.04884v-0.26892h-0.28178v0.24416l-0.7535-0.0729v-0.36658h-0.28343v0.34217l-1.1072-0.0729v-0.12139h0.000887z"
     stroke="#000"
     fill="none" />
  <path
     id="path3672"
     d="m25.562 17.802c-0.07193 0.80609-0.63714 0.46391-1.2491 0.90375-0.16509-0.02407-0.35338-0.02407-0.61195-0.02407-0.04674-0.5375 0.14188-0.63517 0.23503-0.73283 0.37691-0.29334 0.63714-0.1465 0.63714-0.1465 0.2821-0.04949 0.54034 0.02407 0.98886-0.000388zm1.4122-1.3195h-0.82344v-0.21975h-0.44686v0.12174c-0.04839 0.02407-0.09513 0.07359-0.14188 0.09766h-0.04674c-0.77902-0.63517-0.82543 0.65993-1.3442 0.36659-0.04674-0.26893-0.02322-0.51343-0.02322-0.83085 0.89538-0.02478 0.56521-0.26892 0.30697-0.58633-0.09315-0.12242-0.14188-0.31776-0.16508-0.43984-0.21183-0.80608-1.084-1.2948-2.3543-0.78167-0.82543 0.31741-0.61194 1.466-0.542 2.2477-0.04674 0.0729-0.14188 0.04884-0.21183 0.04884-0.89538 0.04884-1.2955 1.0255-1.4841 1.8075 0.04674 0.70876-0.04674 1.4904-0.16508 2.1741-0.11835 0.684-0.35338 1.2215-0.37691 1.8811-0.04674 0.58633 0.16508 1.2703 0.11834 1.8078-0.49526 1.5148-0.84897 2.5163-1.1072 4.1288-0.18829 0.36625-0.84698 1.1479-1.1072 1.3192-0.06995 0.12174 0.04674 0.39101-0.06995 0.56158-0.21183 0.31741-0.542 0.48867-0.73029 0.83084 0.04674 0.0729-0.28343 0.1465-0.25824 0.26892 0.02322 0.12174 0.18829 0.43915 0.25824 0.51274 0.02322 0.04884 0.25824-0.07359 0.25824 0 0.09513 0.29265 0.30697 0.90375 0.542 1.0502 1.0373 0.12174 1.0373 0.12174 1.4606 0 0.23503-0.70876-0.80024-0.39101-0.70708-1.3439 1.4142-0.29265 1.8607-0.70842 2.4259-2.2473 0.25824-1.1238 0.61194-2.2229 1.1536-3.2979 0.09315-0.07291 0.06994-0.26858 0.23503-0.34217 0.63515 1.0991 1.7908 1.8814 2.3543 3.0297 0.14188 1.4901 0.42531 2.2962 0.91858 2.5651 0.11834 0.04884 0 0.51274 0.09514 0.61041 0 0.1465 0.04674 0.31741-0.02322 0.48867-0.0484 0.12242-0.02321 0.26892-0.02321 0.39101v0.1465c0.02321 0.22077 0.06994 0.22077 0.28177 0.39101 0.61194 0.41507 1.4374 1.075 2.2608 0.58633 0.37691-0.63586-0.42332-1.4412-0.98853-1.8567-0.18829-0.1465-0.51846-0.51274-0.47206-0.75725 0.30697-0.31776 0.51846-1.7102 0.40012-2.7852-0.04674-0.24382-0.09315-0.48867-0.18829-0.684-0.28177-0.56157-0.91692-1.3436-1.4586-1.9052 0.06994-0.07291 0.16509-0.17126 0.28177-0.2201 0-0.53716-0.21183-0.70842-0.49327-1.0991-0.23702-0.39101-0.77703-1.1479-1.1791-1.3924 0 0 0-0.02478-0.40012-0.02478-0.02322-0.26858 0.0484-0.48867 0.11834-0.78167 0-0.21975 0.16509-0.09732 0.21183-0.58633 0.11834-0.41508 0.06994-0.17091 0.16509-0.58599 0.09315-0.19533 0.14188-0.39101 0.14188-0.70876 0.35172 0.12243 1.0585 0.09766 1.3654 0l0.06994 0.04884c0.09514 0.02478 0.11835-0.12174 0.18829-0.14615 0.542-0.29369 0.73029-0.80643 1.1771-0.85526 0 0 0.23702-0.12243 0.58841 0 0.14188 0 0.26023 0.02407 0.26023-0.12243 0.02322-0.21974 0.02322-0.39031 0.14188-0.5375 0.09315 0.58633 0.35172 1.2463 0.82344 1.8814l0.47006-0.34217c-0.44686-0.56157-0.7283-1.1967-0.77703-1.9299 0.0232 0.04884 0.04839 0.09767 0.09513 0.1465 0.16509 0 0.25824-0.36659 0.44686-0.34218 0.02321-0.04884 0.07193-0.26892 0.11835-0.43984h1.7656l0.63515-0.1465v-0.34217l-0.47006-0.04884v-0.39101h-0.11835v-0.43984h-0.28177v0.41542l-0.73029-0.04884v-0.26892h-0.28178v0.24416l-0.7535-0.0729v-0.36658h-0.28343v0.34217l-1.1072-0.0729v-0.12139h0.000887z"
     fill-rule="evenodd"
     fill="#fff" />
  <g
     id="g4457"
     stroke-linejoin="round"
     opacity=".15"
     transform="scale(0.973 1.0278)"
     stroke="#fff"
     stroke-linecap="round"
     stroke-width="1px"
     fill="#fff">
    <path
       id="path4459"
       opacity="1"
       style="color-rendering:auto;text-decoration-color:#000000;color:#000000;isolation:auto;mix-blend-mode:normal;shape-rendering:auto;solid-color:#000000;block-progression:tb;text-decoration-line:none;text-decoration-style:solid;image-rendering:auto;white-space:normal;text-indent:0;text-transform:none"
       d="m35.293 6.3105a0.50005 0.50005 0 0 0 -0.44727 0.2793c-0.06243 0.1262-0.19187 0.29451-0.4043 0.48438-0.20572 0.18387-0.45029 0.34505-0.73828 0.48047a0.50005 0.50005 0 0 0 -0.28711 0.45312v0.56445a0.50005 0.50005 0 0 0 0.67383 0.46875c0.15699-0.057936 0.327-0.15135 0.49609-0.24219v2.7949a0.50005 0.50005 0 0 0 0.5 0.5h0.58398a0.50005 0.50005 0 0 0 0.5 -0.5v-4.7832a0.50005 0.50005 0 0 0 -0.5 -0.5h-0.37695z" />
    <path
       id="path4461"
       opacity="1"
       style="color-rendering:auto;text-decoration-color:#000000;color:#000000;isolation:auto;mix-blend-mode:normal;shape-rendering:auto;solid-color:#000000;block-progression:tb;text-decoration-line:none;text-decoration-style:solid;image-rendering:auto;white-space:normal;text-indent:0;text-transform:none"
       d="m37.5 10.428a0.50005 0.50005 0 0 0 -0.5 0.5v0.66602a0.50005 0.50005 0 0 0 0.5 0.5h0.66602a0.50005 0.50005 0 0 0 0.5 -0.5v-0.66602a0.50005 0.50005 0 0 0 -0.5 -0.5h-0.66602z" />
    <path
       id="path4463"
       opacity="1"
       style="color-rendering:auto;text-decoration-color:#000000;color:#000000;isolation:auto;mix-blend-mode:normal;shape-rendering:auto;solid-color:#000000;block-progression:tb;text-decoration-line:none;text-decoration-style:solid;image-rendering:auto;white-space:normal;text-indent:0;text-transform:none"
       d="m40.701 6.3105c-0.62333 0-1.2018 0.25936-1.5859 0.73047-0.45352 0.55752-0.62305 1.3419-0.62305 2.3242 0 0.88557 0.15188 1.5968 0.58203 2.0996a0.50005 0.50005 0 0 0 0 0.002c0.39282 0.45644 0.96257 0.70898 1.5723 0.70898 0.36553 0 0.71989-0.09228 1.0254-0.27734 0.3078-0.18646 0.55429-0.46209 0.71875-0.79102h-0.002c0.16497-0.3272 0.25-0.6891 0.25-1.0605 0-0.55487-0.18496-1.0738-0.55078-1.4551-0.04889-0.051609-0.13378-0.034708-0.1875-0.080078l0.19141-0.015625a0.50005 0.50005 0 0 0 0.45703 -0.5625c-0.059-0.4642-0.26-0.8871-0.597-1.1822-0.336-0.2962-0.782-0.4415-1.25-0.4415zm-0.03516 1.4805c0.10987 0 0.14716 0.01904 0.21875 0.09375 0.003 0.00394 0.04551 0.099076 0.08203 0.2207-0.08722-0.012655-0.1471-0.10156-0.23633-0.10156-0.1552 0-0.29728 0.071649-0.44727 0.10938 0.05969-0.10215 0.11725-0.2119 0.18555-0.26172a0.50005 0.50005 0 0 0 0.0039 -0.00195c0.05606-0.041396 0.10006-0.058594 0.19336-0.058594zm-0.05273 1.7305c0.14724 0 0.20484 0.025178 0.29492 0.12305a0.50005 0.50005 0 0 0 0.002 0.00391c0.07653 0.082202 0.12891 0.19505 0.12891 0.43555 0 0.25582-0.05561 0.38533-0.13867 0.47852-0.10108 0.1134-0.15119 0.13281-0.26367 0.13281-0.07357 0-0.13504-0.01656-0.2168-0.06641-0.000379-0.00024 0.000378-0.0017 0-0.002-0.06853-0.04368-0.12373-0.099-0.17578-0.20898-0.000287-0.000607 0.000287-0.0013 0-0.002-0.05382-0.11924-0.08008-0.23577-0.08008-0.36524 0-0.20788 0.04564-0.3033 0.13477-0.39453a0.50005 0.50005 0 0 0 0.002 -0.00195c0.10111-0.10468 0.1684-0.13281 0.3125-0.13281z" />
  </g>
  <g
     id="text4736"
     fill="#1c1c1c"
     transform="matrix(0.973 0 0 1.0278 .0000013259 0)">
    <path
       id="path4438"
       d="m35.671 11.595h-0.58497v-3.7275q-0.21124 0.20149-0.55572 0.40298-0.34123 0.20149-0.61422 0.30223v-0.56547q0.49072-0.23074 0.85795-0.55897t0.51997-0.63696h0.37698v4.7837z" />
    <path
       id="path4440"
       d="m37.5 11.595v-0.66621h0.66621v0.66621h-0.66621z" />
    <path
       id="path4442"
       d="m42.053 7.9971-0.58172 0.045497q-0.077-0.3444-0.22-0.5004-0.238-0.2503-0.585-0.2503-0.27948 0-0.49072 0.15599-0.27623 0.20149-0.43548 0.58822-0.15924 0.38673-0.16574 1.1017 0.21124-0.32173 0.51672-0.47772t0.64021-0.15599q0.58497 0 0.99444 0.43223 0.41273 0.42898 0.41273 1.1114 0 0.44848-0.19499 0.8352-0.19174 0.38348-0.52972 0.58822t-0.76696 0.20474q-0.73121 0-1.1927-0.53622-0.46147-0.53947-0.46147-1.7744 0-1.3812 0.51022-2.0084 0.44522-0.54597 1.1992-0.54597 0.56222 0 0.9197 0.31523 0.36073 0.31523 0.43222 0.87095zm-2.3886 2.0539q0 0.30223 0.12674 0.57847 0.12999 0.27623 0.36073 0.42248 0.23074 0.14299 0.48422 0.14299 0.37048 0 0.63696-0.29898t0.26648-0.81246q0-0.49397-0.26324-0.77671-0.26324-0.28598-0.66296-0.28598-0.39648 0-0.67271 0.28598-0.27624 0.28273-0.27624 0.74421z" />
  </g>
</svg>
