<?xml version="1.0" encoding="UTF-8" standalone="no"?>
<!-- Created with Inkscape (http://www.inkscape.org/) -->

<svg
   xmlns:dc="http://purl.org/dc/elements/1.1/"
   xmlns:cc="http://creativecommons.org/ns#"
   xmlns:rdf="http://www.w3.org/1999/02/22-rdf-syntax-ns#"
   xmlns:svg="http://www.w3.org/2000/svg"
   xmlns="http://www.w3.org/2000/svg"
   xmlns:sodipodi="http://sodipodi.sourceforge.net/DTD/sodipodi-0.dtd"
   xmlns:inkscape="http://www.inkscape.org/namespaces/inkscape"
   id="svg4951"
   height="48"
   width="48"
   version="1.1"
   inkscape:version="0.91 r13725"
   sodipodi:docname="gcolor2.svg">
  <sodipodi:namedview
     pagecolor="#ffffff"
     bordercolor="#666666"
     borderopacity="1"
     objecttolerance="10"
     gridtolerance="10"
     guidetolerance="10"
     inkscape:pageopacity="0"
     inkscape:pageshadow="2"
     inkscape:window-width="1535"
     inkscape:window-height="876"
     id="namedview47"
     showgrid="false"
     inkscape:zoom="4.9166667"
     inkscape:cx="-11.389831"
     inkscape:cy="24"
     inkscape:window-x="65"
     inkscape:window-y="24"
     inkscape:window-maximized="1"
     inkscape:current-layer="svg4951" />
  <defs
     id="defs4953">
    <radialGradient
       id="radialGradient3302"
       gradientUnits="userSpaceOnUse"
       cy="186.17"
       cx="99.157"
       gradientTransform="matrix(.27083 0 0 .087623 -2.8551 25.187)"
       r="62.769">
      <stop
         id="stop3822-2-6-3"
         stop-color="#3d3d3d"
         offset="0" />
      <stop
         id="stop3864-8-7-7"
         stop-color="#686868"
         stop-opacity=".49804"
         offset=".5" />
      <stop
         id="stop3824-1-2-5"
         stop-color="#686868"
         stop-opacity="0"
         offset="1" />
    </radialGradient>
    <radialGradient
       id="radialGradient3037"
       gradientUnits="userSpaceOnUse"
       cy="-17.681"
       cx="14.892"
       gradientTransform="matrix(-1.4387 3.8089e-8 -2.8328e-8 -1.07 45.169 -14.596)"
       r="25.571">
      <stop
         id="stop3767"
         stop-color="#fff"
         offset="0" />
      <stop
         id="stop3769"
         stop-color="#e4e4e4"
         offset="1" />
    </radialGradient>
    <linearGradient
       id="linearGradient3039"
       y2="32.568"
       gradientUnits="userSpaceOnUse"
       x2="15.124"
       gradientTransform="matrix(.76418 0 0 .76418 12.377 18.778)"
       y1="-18.801"
       x1="15.124">
      <stop
         id="stop3777"
         stop-color="#fff"
         stop-opacity=".58824"
         offset="0" />
      <stop
         id="stop3779"
         stop-color="#fff"
         offset="1" />
    </linearGradient>
    <linearGradient
       id="linearGradient3127"
       y2="156"
       gradientUnits="userSpaceOnUse"
       y1="133.54"
       x2="36.164"
       x1="36.164">
      <stop
         id="stop5191"
         stop-color="#fff"
         offset="0" />
      <stop
         id="stop5193"
         stop-color="#fff"
         stop-opacity="0"
         offset="1" />
    </linearGradient>
  </defs>
  <metadata
     id="metadata4956">
    <rdf:RDF>
      <cc:Work
         rdf:about="">
        <dc:format>image/svg+xml</dc:format>
        <dc:type
           rdf:resource="http://purl.org/dc/dcmitype/StillImage" />
        <dc:title />
      </cc:Work>
    </rdf:RDF>
  </metadata>
  <path
     id="path4317-4"
     style="color:#000000"
     d="m35.312 139.5c-12.41 0-22.375 10.193-22.375 22.969v6.25h0.375 44.031 0.375v-6.25c0.001-12.77-9.995-22.97-22.406-22.97z"
     stroke="url(#linearGradient3127)"
     stroke-width="1.369"
     fill="none" />
  <circle
     id="path2985"
     cy="24"
     cx="24"
     r="20.526"
     fill="url(#radialGradient3037)" />
  <circle
     id="path3755"
     stroke-width=".94845"
     stroke-opacity=".58824"
     stroke="#828282"
     cy="24"
     cx="24"
     r="20.526"
     fill="none" />
  <circle
     id="path3773"
     stroke-width=".93261"
     stroke-opacity=".58824"
     stroke="url(#linearGradient3039)"
     cy="24"
     cx="24"
     r="19.54"
     fill="none" />
  <g
     id="g4787"
     opacity=".15"
     stroke-linejoin="round"
     transform="matrix(.070542 0 0 .070519 11.996 12)"
     stroke="#fff"
     stroke-linecap="round"
     stroke-width="28.357"
     fill="none">
    <g
       id="g4789"
       stroke-linejoin="round"
       stroke="#fff"
       stroke-linecap="round"
       stroke-width="28.357"
       fill="none">
      <path
         id="path4791"
         stroke-linejoin="round"
         d="m340.28 60.321c0-16.126-6.268-31.274-17.646-42.653-11.39-11.394-26.54-17.668-42.65-17.668s-31.26 6.274-42.66 17.668l-48.137 48.138c-3.065-0.808-6.223-1.216-9.422-1.216-9.857 0-19.126 3.838-26.099 10.81-10.353 10.353-13.534 25.7-8.419 39.177l-121.92 121.92c-2.952 2.952-4.54 7.001-4.382 11.173l1.36 36.012-18.026 29.315c-3.638 5.915-2.739 13.554 2.171 18.463l4.476 4.478c2.894 2.894 6.734 4.394 10.611 4.394 2.713 0 5.444-0.734 7.88-2.239l29.358-18.142 35.828 1.405c4.182 0.168 8.236-1.426 11.194-4.382l121.93-121.93c4.163 1.57 8.623 2.39 13.083 2.39 9.856 0 19.123-3.838 26.093-10.808 9.29-9.29 12.889-22.93 9.59-35.515l48.138-48.14c11.38-11.386 17.65-26.534 17.65-42.659zm-256.77 221.31-23.951-0.93-0.903-23.9 112.11-112.1 24.84 24.84-112.09 112.09z"
         stroke="#fff"
         stroke-linecap="round"
         stroke-width="28.357"
         fill="none" />
    </g>
  </g>
  <g
     id="g4823"
     opacity=".15"
     stroke-linejoin="round"
     transform="matrix(.070542 0 0 .070519 11.996 12)"
     stroke="#fff"
     stroke-linecap="round"
     stroke-width="14.178"
     fill="none">
    <g
       id="g4825"
       stroke-linejoin="round"
       stroke="#fff"
       stroke-linecap="round"
       stroke-width="14.178"
       fill="none">
      <path
         id="path4827"
         stroke-linejoin="round"
         d="m340.28 60.321c0-16.126-6.268-31.274-17.646-42.653-11.39-11.394-26.54-17.668-42.65-17.668s-31.26 6.274-42.66 17.668l-48.137 48.138c-3.065-0.808-6.223-1.216-9.422-1.216-9.857 0-19.126 3.838-26.099 10.81-10.353 10.353-13.534 25.7-8.419 39.177l-121.92 121.92c-2.952 2.952-4.54 7.001-4.382 11.173l1.36 36.012-18.026 29.315c-3.638 5.915-2.739 13.554 2.171 18.463l4.476 4.478c2.894 2.894 6.734 4.394 10.611 4.394 2.713 0 5.444-0.734 7.88-2.239l29.358-18.142 35.828 1.405c4.182 0.168 8.236-1.426 11.194-4.382l121.93-121.93c4.163 1.57 8.623 2.39 13.083 2.39 9.856 0 19.123-3.838 26.093-10.808 9.29-9.29 12.889-22.93 9.59-35.515l48.138-48.14c11.38-11.386 17.65-26.534 17.65-42.659zm-256.77 221.31-23.951-0.93-0.903-23.9 112.11-112.1 24.84 24.84-112.09 112.09z"
         stroke="#fff"
         stroke-linecap="round"
         stroke-width="14.178"
         fill="none" />
    </g>
  </g>
  <path
     id="rect4483"
     d="m13.707 30.119 3.9134-3.9242 6.7071 1.8058-6.5811 6.287z"
     fill="#a53930" />
  <g
     id="g4464"
     fill="#acacac"
     transform="matrix(.070542 0 0 .070519 11.996 12)">
    <g
       id="g4424"
       fill="#acacac">
      <path
         id="path4426"
         fill="#acacac"
         d="m340.28 60.321c0-16.126-6.268-31.274-17.646-42.653-11.39-11.394-26.54-17.668-42.65-17.668s-31.26 6.274-42.66 17.668l-48.137 48.138c-3.065-0.808-6.223-1.216-9.422-1.216-9.857 0-19.126 3.838-26.099 10.81-10.353 10.353-13.534 25.7-8.419 39.177l-121.92 121.92c-2.952 2.952-4.54 7.001-4.382 11.173l1.36 36.012-18.026 29.315c-3.638 5.915-2.739 13.554 2.171 18.463l4.476 4.478c2.894 2.894 6.734 4.394 10.611 4.394 2.713 0 5.444-0.734 7.88-2.239l29.358-18.142 35.828 1.405c4.182 0.168 8.236-1.426 11.194-4.382l121.93-121.93c4.163 1.57 8.623 2.39 13.083 2.39 9.856 0 19.123-3.838 26.093-10.808 9.29-9.29 12.889-22.93 9.59-35.515l48.138-48.14c11.38-11.386 17.65-26.534 17.65-42.659zm-256.77 221.31-23.951-0.93-0.903-23.9 112.11-112.1 24.84 24.84-112.09 112.09z" />
    </g>
  </g>
  <g
     id="g4486"
     fill="#dbac73"
     transform="matrix(.070542 0 0 .070519 11.996 12)">
    <g
       id="g4488"
       fill="#dbac73">
      <path
         id="path4490"
         d="m340.28 60.321c0-16.126-6.268-31.274-17.646-42.653-11.39-11.394-26.54-17.668-42.65-17.668s-31.26 6.274-42.66 17.668l-48.137 48.138c-3.065-0.808-6.223-1.216-9.422-1.216-9.857 0-19.126 3.838-26.099 10.81-10.353 10.353-13.534 25.7-8.419 39.177l80.478 80.469c4.163 1.57 8.623 2.39 13.083 2.39 9.856 0 19.123-3.838 26.093-10.808 9.29-9.29 12.889-22.93 9.59-35.515l48.138-48.14c11.382-11.379 17.649-26.527 17.649-42.652z"
         fill="#d1964d" />
    </g>
  </g>
  <path
     id="path4563"
     d="m13.707 30.119 3.9134-3.9242 6.7071 1.8058-6.5811 6.287z"
     fill="none" />
  <g
     id="g4565"
     fill="none"
     transform="matrix(.070542 0 0 .070519 11.996 12)">
    <g
       id="g4567"
       fill="none">
      <path
         id="path4569"
         fill="none"
         d="m340.28 60.321c0-16.126-6.268-31.274-17.646-42.653-11.39-11.394-26.54-17.668-42.65-17.668s-31.26 6.274-42.66 17.668l-48.137 48.138c-3.065-0.808-6.223-1.216-9.422-1.216-9.857 0-19.126 3.838-26.099 10.81-10.353 10.353-13.534 25.7-8.419 39.177l-121.92 121.92c-2.952 2.952-4.54 7.001-4.382 11.173l1.36 36.012-18.026 29.315c-3.638 5.915-2.739 13.554 2.171 18.463l4.476 4.478c2.894 2.894 6.734 4.394 10.611 4.394 2.713 0 5.444-0.734 7.88-2.239l29.358-18.142 35.828 1.405c4.182 0.168 8.236-1.426 11.194-4.382l121.93-121.93c4.163 1.57 8.623 2.39 13.083 2.39 9.856 0 19.123-3.838 26.093-10.808 9.29-9.29 12.889-22.93 9.59-35.515l48.138-48.14c11.38-11.386 17.65-26.534 17.65-42.659zm-256.77 221.31-23.951-0.93-0.903-23.9 112.11-112.1 24.84 24.84-112.09 112.09z" />
    </g>
  </g>
  <g
     id="g4601"
     fill="none"
     transform="matrix(.070542 0 0 .070519 11.996 12)">
    <g
       id="g4603"
       fill="none">
      <path
         id="path4605"
         fill="none"
         d="m340.28 60.321c0-16.126-6.268-31.274-17.646-42.653-11.39-11.394-26.54-17.668-42.65-17.668s-31.26 6.274-42.66 17.668l-48.137 48.138c-3.065-0.808-6.223-1.216-9.422-1.216-9.857 0-19.126 3.838-26.099 10.81-10.353 10.353-13.534 25.7-8.419 39.177l80.478 80.469c4.163 1.57 8.623 2.39 13.083 2.39 9.856 0 19.123-3.838 26.093-10.808 9.29-9.29 12.889-22.93 9.59-35.515l48.138-48.14c11.382-11.379 17.649-26.527 17.649-42.652z" />
    </g>
  </g>
  <g
     id="g4439"
     opacity=".15"
     transform="matrix(.070542 0 0 .070519 11.996 12.001)">
    <g
       id="g4441">
      <path
         id="path4443"
         d="m57.646 11.346c-1.1366 0-2.206 0.4426-3.0098 1.2461l-3.3965 3.3945c-0.21621-0.05698-0.4384-0.08594-0.66406-0.08594-0.69533 0-1.348 0.27201-1.8398 0.76367-0.73032 0.73008-0.95652 1.8113-0.5957 2.7617l-8.5996 8.5977c-0.20824 0.20817-0.31974 0.49486-0.30859 0.78906l0.0957 2.5391-1.2715 2.0664c-0.25663 0.41712-0.19402 0.95656 0.15234 1.3027l0.31641 0.31641c0.20415 0.20408 0.47456 0.30859 0.74805 0.30859 0.19138 0 0.3848-0.05012 0.55664-0.15625l2.0703-1.2812 2.5273 0.09961c0.29501 0.01185 0.5804-0.10014 0.78906-0.30859l8.6016-8.5977c0.29367 0.11072 0.60921 0.16797 0.92383 0.16797 0.69526 0 1.3482-0.2702 1.8398-0.76172 0.65533-0.65512 0.9085-1.6184 0.67578-2.5059l3.3965-3.3945c0.80291-0.80244 1.2461-1.8707 1.2461-3.0078 0-1.1372-0.44347-2.2054-1.2461-3.0078-0.80375-0.80349-1.8713-1.2461-3.0078-1.2461zm0 1c0.87684 0 1.6806 0.33318 2.3008 0.95312 0.61868 0.61853 0.95117 1.4227 0.95117 2.3008 0 0.87806-0.33231 1.6823-0.95117 2.3008l-3.3965 3.3945c-0.25125 0.25141-0.35014 0.61724-0.25976 0.96094 0.14253 0.54354-0.01548 1.1445-0.41602 1.5449-0.30806 0.30796-0.6972 0.46875-1.1328 0.46875-0.19203 0-0.38975-0.03544-0.57031-0.10352-0.36772-0.13874-0.78264-0.04934-1.0605 0.22852l-8.6016 8.5977c-0.01263 0.01262-0.02545 0.0182-0.04102 0.01758h-0.002l-2.5273-0.09961c-0.19871-0.0077-0.39521 0.04397-0.5644 0.14844l-2.0723 1.2793c-0.01111 0.0068-0.01836 0.0078-0.0293 0.0078-0.01545 0-0.02754-0.0022-0.04102-0.01563l-0.31641-0.31641c-0.02265-0.02264-0.02461-0.04301-0.0078-0.07031l1.271-2.07c0.10378-0.16809 0.15543-0.36314 0.14844-0.56055l-0.09766-2.541c-0.000628-0.01659 0.0059-0.03126 0.01758-0.04297l8.6016-8.5977c0.27738-0.27832 0.36601-0.69323 0.22656-1.0605-0.22263-0.58639-0.08611-1.248 0.36719-1.7012 0.30828-0.30814 0.6971-0.4707 1.1328-0.4707 0.14062 0 0.27744 0.01776 0.41016 0.05273 0.34434 0.09095 0.71108-0.008 0.96289-0.25977l3.3945-3.3945c0.62013-0.61993 1.4258-0.95312 2.3027-0.95312zm-8.2317 8.355c-0.06496 0.04026-0.12557 0.08813-0.18044 0.14302l-7.9082 7.9043c-0.19745 0.19698-0.30365 0.46744-0.29297 0.74609l0.06445 1.6836c0.01893 0.52213 0.43677 0.94167 0.95898 0.96289l1.6914 0.06445c0.27839 0.0111 0.54879-0.09437 0.74609-0.29102l7.9062-7.9043c0.06118-0.06116 0.11277-0.12828 0.15479-0.19948zm0.52659 0.85005 1.752 1.752-7.9062 7.9043-1.6895-0.06641-0.06445-1.6855z"
         transform="matrix(14.176 0 0 14.181 -537.21 -160.9)" />
    </g>
  </g>
  <g
     id="g4475"
     stroke-linejoin="round"
     transform="matrix(.070542 0 0 .070519 37.896 11.346)"
     stroke="#000"
     stroke-linecap="round"
     stroke-width="28.357"
     fill="none" />
</svg>
