<?xml version="1.0" encoding="UTF-8" standalone="no"?>
<!-- Created with Inkscape (http://www.inkscape.org/) -->

<svg
   xmlns:dc="http://purl.org/dc/elements/1.1/"
   xmlns:cc="http://creativecommons.org/ns#"
   xmlns:rdf="http://www.w3.org/1999/02/22-rdf-syntax-ns#"
   xmlns:svg="http://www.w3.org/2000/svg"
   xmlns="http://www.w3.org/2000/svg"
   xmlns:xlink="http://www.w3.org/1999/xlink"
   xmlns:sodipodi="http://sodipodi.sourceforge.net/DTD/sodipodi-0.dtd"
   xmlns:inkscape="http://www.inkscape.org/namespaces/inkscape"
   version="1.1"
   width="48"
   height="48"
   id="svg3134"
   inkscape:version="0.91 r"
   sodipodi:docname="48.svg">
  <metadata
     id="metadata79">
    <rdf:RDF>
      <cc:Work
         rdf:about="">
        <dc:format>image/svg+xml</dc:format>
        <dc:type
           rdf:resource="http://purl.org/dc/dcmitype/StillImage" />
        <dc:title></dc:title>
      </cc:Work>
    </rdf:RDF>
  </metadata>
  <sodipodi:namedview
     pagecolor="#ffffff"
     bordercolor="#666666"
     borderopacity="1"
     objecttolerance="10"
     gridtolerance="10"
     guidetolerance="10"
     inkscape:pageopacity="0"
     inkscape:pageshadow="2"
     inkscape:window-width="1152"
     inkscape:window-height="778"
     id="namedview77"
     showgrid="false"
     inkscape:zoom="13.458333"
     inkscape:cx="23.44081"
     inkscape:cy="24"
     inkscape:window-x="241"
     inkscape:window-y="34"
     inkscape:window-maximized="0"
     inkscape:current-layer="svg3134" />
  <defs
     id="defs3136">
    <linearGradient
       id="linearGradient3702">
      <stop
         id="stop3704"
         style="stop-color:black;stop-opacity:0"
         offset="0" />
      <stop
         id="stop3710"
         style="stop-color:black;stop-opacity:1"
         offset="0.5" />
      <stop
         id="stop3706"
         style="stop-color:black;stop-opacity:0"
         offset="1" />
    </linearGradient>
    <linearGradient
       x1="25.058096"
       y1="47.027729"
       x2="25.058096"
       y2="39.999443"
       id="linearGradient2098"
       xlink:href="#linearGradient3702"
       gradientUnits="userSpaceOnUse" />
    <radialGradient
       cx="4.9929786"
       cy="43.5"
       r="2.5"
       fx="4.9929786"
       fy="43.5"
       id="radialGradient2096"
       xlink:href="#linearGradient3688"
       gradientUnits="userSpaceOnUse"
       gradientTransform="matrix(2.003784,0,0,1.4,-20.01187,-104.4)" />
    <linearGradient
       id="linearGradient3688">
      <stop
         id="stop3690"
         style="stop-color:black;stop-opacity:1"
         offset="0" />
      <stop
         id="stop3692"
         style="stop-color:black;stop-opacity:0"
         offset="1" />
    </linearGradient>
    <radialGradient
       cx="4.9929786"
       cy="43.5"
       r="2.5"
       fx="4.9929786"
       fy="43.5"
       id="radialGradient2094"
       xlink:href="#linearGradient3688"
       gradientUnits="userSpaceOnUse"
       gradientTransform="matrix(2.003784,0,0,1.4,27.98813,-17.4)" />
    <linearGradient
       x1="9.117774"
       y1="18.345161"
       x2="8.4885712"
       y2="34.608616"
       id="linearGradient1992"
       xlink:href="#linearGradient4585"
       gradientUnits="userSpaceOnUse" />
    <linearGradient
       x1="11.511479"
       y1="0.75951481"
       x2="31.5"
       y2="36.625"
       id="linearGradient1990"
       xlink:href="#linearGradient6732"
       gradientUnits="userSpaceOnUse"
       gradientTransform="matrix(0.858045,0,0,0.8,-0.932219,9.3)" />
    <linearGradient
       id="linearGradient6732">
      <stop
         id="stop6734"
         style="stop-color:white;stop-opacity:1"
         offset="0" />
      <stop
         id="stop6736"
         style="stop-color:#ddd;stop-opacity:1"
         offset="1" />
    </linearGradient>
    <linearGradient
       id="linearGradient4585">
      <stop
         id="stop4587"
         style="stop-color:#9e9e9e;stop-opacity:1"
         offset="0" />
      <stop
         id="stop4589"
         style="stop-color:#ddd;stop-opacity:0"
         offset="1" />
    </linearGradient>
    <linearGradient
       id="linearGradient4222">
      <stop
         id="stop4224"
         style="stop-color:white;stop-opacity:1"
         offset="0" />
      <stop
         id="stop4226"
         style="stop-color:white;stop-opacity:0"
         offset="1" />
    </linearGradient>
    <linearGradient
       x1="24.138529"
       y1="-9.8008652"
       x2="24.138529"
       y2="47.272728"
       id="linearGradient5211"
       xlink:href="#linearGradient4222"
       gradientUnits="userSpaceOnUse"
       gradientTransform="matrix(0.5364316,0,0,0.5331957,-15.687737,50.16873)" />
    <linearGradient
       id="linearGradient2264">
      <stop
         id="stop2266"
         style="stop-color:#d7e866;stop-opacity:1"
         offset="0" />
      <stop
         id="stop2268"
         style="stop-color:#8cab2a;stop-opacity:1"
         offset="1" />
    </linearGradient>
    <linearGradient
       x1="24.103895"
       y1="15.168831"
       x2="24.103895"
       y2="32.485161"
       id="linearGradient5209"
       xlink:href="#linearGradient2264"
       gradientUnits="userSpaceOnUse"
       gradientTransform="matrix(0.8930497,0,0,0.8876627,-24.246571,42.1613)" />
    <linearGradient
       x1="9.117774"
       y1="18.345161"
       x2="8.4885712"
       y2="34.608616"
       id="linearGradient2915"
       xlink:href="#linearGradient4585"
       gradientUnits="userSpaceOnUse"
       gradientTransform="matrix(1.3229887,0,0,1.2367639,-1.8836289,-11.014657)" />
    <linearGradient
       x1="11.511479"
       y1="0.75951481"
       x2="31.5"
       y2="36.625"
       id="linearGradient2934"
       xlink:href="#linearGradient6732"
       gradientUnits="userSpaceOnUse"
       gradientTransform="matrix(1.1051301,0,0,1.0263588,-2.3159584,-0.6326093)" />
    <linearGradient
       x1="8.7789516"
       y1="18.385433"
       x2="8.6391592"
       y2="31.386889"
       id="linearGradient2915-8"
       xlink:href="#linearGradient4585-5"
       gradientUnits="userSpaceOnUse"
       gradientTransform="matrix(1.763985,0,0,1.6490186,-2.5115052,-12.352877)" />
    <linearGradient
       id="linearGradient4585-5">
      <stop
         id="stop4587-6"
         style="stop-color:#9e9e9e;stop-opacity:1"
         offset="0" />
      <stop
         id="stop4589-5"
         style="stop-color:#ddd;stop-opacity:0"
         offset="1" />
    </linearGradient>
    <linearGradient
       y2="31.386889"
       x2="8.6391592"
       y1="18.385433"
       x1="8.7789516"
       gradientTransform="matrix(1.763985,0,0,1.6490186,-8.4115005,-32.052914)"
       gradientUnits="userSpaceOnUse"
       id="linearGradient3050"
       xlink:href="#linearGradient4585-5"
       inkscape:collect="always" />
    <radialGradient
       cx="4.9929786"
       cy="43.5"
       r="2.5"
       fx="4.9929786"
       fy="43.5"
       id="radialGradient3337-2-2"
       xlink:href="#linearGradient3688-166-749-4-0-3-8"
       gradientUnits="userSpaceOnUse"
       gradientTransform="matrix(2.003784,0,0,1.4,27.98813,-17.4)" />
    <linearGradient
       id="linearGradient3688-166-749-4-0-3-8">
      <stop
         id="stop2883-4-0-1-8"
         style="stop-color:#181818;stop-opacity:1"
         offset="0" />
      <stop
         id="stop2885-9-2-9-6"
         style="stop-color:#181818;stop-opacity:0"
         offset="1" />
    </linearGradient>
    <radialGradient
       cx="4.9929786"
       cy="43.5"
       r="2.5"
       fx="4.9929786"
       fy="43.5"
       id="radialGradient3339-1-4"
       xlink:href="#linearGradient3688-166-749-4-0-3-8"
       gradientUnits="userSpaceOnUse"
       gradientTransform="matrix(2.003784,0,0,1.4,-20.01187,-104.4)" />
    <linearGradient
       x1="25.058096"
       y1="47.027729"
       x2="25.058096"
       y2="39.999443"
       id="linearGradient4159"
       xlink:href="#linearGradient3702-501-757-8-4-1-1"
       gradientUnits="userSpaceOnUse" />
    <linearGradient
       id="linearGradient3702-501-757-8-4-1-1">
      <stop
         id="stop2895-8-9-9-1"
         style="stop-color:#181818;stop-opacity:0"
         offset="0" />
      <stop
         id="stop2897-7-8-7-7"
         style="stop-color:#181818;stop-opacity:1"
         offset="0.5" />
      <stop
         id="stop2899-4-5-1-5"
         style="stop-color:#181818;stop-opacity:0"
         offset="1" />
    </linearGradient>
    <radialGradient
       cx="7.1183534"
       cy="9.9571075"
       r="12.671875"
       fx="7.1183534"
       fy="9.9571075"
       id="radialGradient3988-3"
       xlink:href="#linearGradient3600-9-9"
       gradientUnits="userSpaceOnUse"
       gradientTransform="matrix(0,11.34166,-16.879878,0,132.54467,-104.44632)" />
    <linearGradient
       id="linearGradient3600-9-9">
      <stop
         id="stop3602-3-6"
         style="stop-color:#f4f4f4;stop-opacity:1"
         offset="0" />
      <stop
         id="stop3604-7-0"
         style="stop-color:#dbdbdb;stop-opacity:1"
         offset="1" />
    </linearGradient>
    <linearGradient
       x1="23.99999"
       y1="4.999989"
       x2="23.99999"
       y2="43"
       id="linearGradient3180"
       xlink:href="#linearGradient3924-2-2-5-8"
       gradientUnits="userSpaceOnUse"
       gradientTransform="matrix(1.5279254,0,0,1.2637488,-73.450455,-7.1084374)" />
    <linearGradient
       id="linearGradient3924-2-2-5-8">
      <stop
         id="stop3926-9-4-9-6"
         style="stop-color:#ffffff;stop-opacity:1"
         offset="0" />
      <stop
         id="stop3928-9-8-6-5"
         style="stop-color:#ffffff;stop-opacity:0.23529412"
         offset="0.06316455" />
      <stop
         id="stop3930-3-5-1-7"
         style="stop-color:#ffffff;stop-opacity:0.15686275"
         offset="0.95056331" />
      <stop
         id="stop3932-8-0-4-8"
         style="stop-color:#ffffff;stop-opacity:0.39215687"
         offset="1" />
    </linearGradient>
    <linearGradient
       y2="43"
       x2="23.99999"
       y1="4.999989"
       x1="23.99999"
       gradientTransform="matrix(0.46562135,0,0,0.51572239,5.8018061,14.089745)"
       gradientUnits="userSpaceOnUse"
       id="linearGradient3911"
       xlink:href="#linearGradient4222"
       inkscape:collect="always" />
  </defs>
  <g
     transform="matrix(1.1999995,0,0,0.66666693,-4.8000004,9.6666732)"
     id="g2043">
    <g
       id="g2036"
       style="display:inline">
      <g
         transform="matrix(1.052632,0,0,1.285713,-1.263158,-13.42854)"
         id="g3712"
         style="opacity:0.4">
        <rect
           width="5"
           height="7"
           x="38"
           y="40"
           id="rect2801"
           style="fill:url(#radialGradient2094);fill-opacity:1;stroke:none" />
        <rect
           width="5"
           height="7"
           x="-10"
           y="-47"
           transform="scale(-1,-1)"
           id="rect3696"
           style="fill:url(#radialGradient2096);fill-opacity:1;stroke:none" />
        <rect
           width="28"
           height="7.0000005"
           x="10"
           y="40"
           id="rect3700"
           style="fill:url(#linearGradient2098);fill-opacity:1;stroke:none" />
      </g>
    </g>
  </g>
  <rect
     width="43.790768"
     height="30.790768"
     rx="3.5419004"
     ry="3.5281069"
     x="2.1046164"
     y="8.6046162"
     id="rect2373"
     style="display:inline;overflow:visible;visibility:visible;fill:url(#linearGradient2934);fill-opacity:1;fill-rule:evenodd;stroke:none;stroke-width:1.20923281;stroke-linecap:butt;stroke-linejoin:miter;stroke-miterlimit:4;stroke-dasharray:none;stroke-dashoffset:0;stroke-opacity:1;marker:none" />
  <rect
     width="41.970261"
     height="28.970259"
     rx="2.3316128"
     ry="2.3409622"
     x="3.0148709"
     y="9.5148706"
     id="rect2423"
     style="display:inline;overflow:visible;visibility:visible;fill:none;stroke:#ffffff;stroke-width:1;stroke-linecap:butt;stroke-linejoin:miter;stroke-miterlimit:4;stroke-dasharray:none;stroke-dashoffset:0;stroke-opacity:1;marker:none" />
  <g
     id="g4203"
     transform="matrix(0.71999994,0,0,0.71999994,0.96000063,0.78963556)">
    <rect
       width="19.028463"
       height="21.026758"
       rx="2.5284634"
       ry="2.4093144"
       x="7.5"
       y="15.973242"
       id="rect3823"
       style="display:inline;overflow:visible;visibility:visible;opacity:0.4;fill:none;fill-opacity:1;stroke:none;stroke-width:1;stroke-linecap:round;stroke-linejoin:round;stroke-miterlimit:4;stroke-dasharray:none;stroke-dashoffset:0;stroke-opacity:1;marker:none" />
    <rect
       style="fill:none;stroke:url(#linearGradient3911);stroke-width:1.00324011;stroke-linecap:round;stroke-linejoin:round;stroke-miterlimit:4;stroke-dasharray:none;stroke-dashoffset:0;stroke-opacity:1"
       id="rect6741"
       y="16.926214"
       x="8.3627243"
       ry="2.0737858"
       rx="1.5907135"
       height="19.081726"
       width="17.227989" />
    <path
       inkscape:connector-curvature="0"
       style="font-style:normal;font-variant:normal;font-weight:bold;font-stretch:normal;font-size:4.12102222px;line-height:120.00000477%;font-family:Segoe;text-align:start;writing-mode:lr-tb;text-anchor:start;display:inline;opacity:0.75;fill:#000000;fill-opacity:1;stroke:none"
       id="path2375-3"
       d="m 33.325295,21.369647 c 0.08871,0.917265 -0.50756,2.064925 -1.567549,1.908153 -0.592896,0.0499 -0.327663,-0.582133 -0.384607,-0.944416 0.676701,0.526442 1.336659,-0.420424 1.139241,-1.166144 0,-0.90673 0,-1.81346 0,-2.720189 0.244373,0.07885 0.820077,-0.173628 0.812915,0.156754 0,0.921946 0,1.843895 0,2.765841 z m 2.26974,-1.690811 c 1.121309,-0.06154 1.674167,1.20811 1.464647,2.165536 -0.03876,1.113318 -1.372763,1.805706 -2.315893,1.247006 -1.334394,-0.799106 -0.899933,-3.518392 0.851246,-3.412542 z m -0.06701,2.889581 c 1.025501,-0.06856 1.083142,-1.850584 0.177181,-2.147989 -1.219593,-0.218367 -1.358953,2.116407 -0.177181,2.147989 z m 4.950302,0.614242 c -0.252383,-0.07758 -0.850095,0.190172 -0.78087,-0.209014 -0.04198,-0.771461 0.105719,-1.574299 -0.125278,-2.317305 -0.62336,-0.652886 -1.21839,0.342693 -1.043098,0.963508 0,0.520937 0,1.041873 0,1.562811 -0.233301,-0.08215 -0.809684,0.178779 -0.789597,-0.156754 0,-1.616547 0,-3.233095 0,-4.849642 0.233302,0.08215 0.809684,-0.178778 0.789597,0.156753 0,0.646749 0,1.2935 0,1.940249 0.37324,-0.921828 1.907263,-0.715213 1.914409,0.321204 0.06938,0.858722 0.01992,1.726449 0.03483,2.588184 z m 3.577957,-6e-6 c -0.25238,-0.07758 -0.850093,0.190171 -0.780868,-0.209015 -0.04196,-0.771461 0.10572,-1.574298 -0.12528,-2.317305 -0.62335,-0.652886 -1.218383,0.342697 -1.043085,0.963508 0,0.520937 0,1.041874 0,1.562812 -0.233304,-0.08215 -0.809687,0.178778 -0.789602,-0.156754 0,-1.074958 0,-2.149915 0,-3.224874 0.233305,0.08216 0.809686,-0.178777 0.789602,0.156755 -0.115315,0.745397 0.740349,-0.802747 1.29639,-0.23019 0.849165,0.37319 0.616502,1.419418 0.65285,2.174295 0,0.426921 0,0.85384 0,1.280761 z m 2.555274,-4.735617 c 1.032113,0.06101 2.244436,-0.246561 3.053514,0.577915 0.692822,0.865752 0.688994,2.182665 0.19557,3.143453 -0.447957,0.854685 -1.463048,1.090114 -2.352883,1.014242 -0.277713,-0.03843 -0.707008,0.0747 -0.896201,-0.05225 0,-1.561119 0,-3.122236 0,-4.683356 z m 0.812899,4.005783 c 0.644699,0.03552 1.426863,-0.01305 1.736183,-0.689164 0.441674,-0.860536 0.25966,-2.340645 -0.866996,-2.531063 -0.297379,0.04693 -1.02503,-0.254002 -0.869188,0.287515 0,0.977573 0,1.955142 0,2.932712 z m 4.859981,-2.773996 c 1.1213,-0.06152 1.674175,1.208112 1.46466,2.165534 -0.03876,1.113324 -1.372773,1.805704 -2.315902,1.247007 -1.334399,-0.799096 -0.899939,-3.518403 0.851242,-3.412541 z m -0.06702,2.889581 c 1.025506,-0.06856 1.083146,-1.850577 0.177186,-2.147989 -1.219583,-0.218366 -1.358953,2.116405 -0.177186,2.147989 z m 4.7784,-0.881737 c -0.662372,0 -1.324745,0 -1.987117,0 -0.162715,1.213212 1.466059,0.725256 1.707399,0.731378 0.185831,0.606655 -0.335677,0.856491 -0.89039,0.842928 -1.069565,0.170123 -1.771245,-0.959626 -1.603071,-1.918885 -0.05518,-1.038929 1.015427,-2.029421 2.034556,-1.564193 0.727906,0.337386 0.759662,1.214096 0.738623,1.908772 z m -0.728425,-0.594428 c 0.240514,-1.203541 -1.715321,-0.621861 -1.101922,0 0.367308,0 0.734617,0 1.101925,0 z" />
    <rect
       style="display:inline;overflow:visible;visibility:visible;opacity:0.3;fill:#000000;fill-opacity:1;fill-rule:evenodd;stroke:none;stroke-width:1;marker:none"
       id="rect2377-6"
       y="26.690887"
       x="31.373135"
       ry="1.7029265"
       rx="1.7029265"
       height="3.405853"
       width="25.543896" />
    <rect
       style="display:inline;overflow:visible;visibility:visible;opacity:0.3;fill:#000000;fill-opacity:1;fill-rule:evenodd;stroke:none;stroke-width:1;marker:none"
       id="rect2379-6"
       y="31.799667"
       x="31.373135"
       ry="1.7029265"
       rx="1.7029265"
       height="3.405853"
       width="20.435118" />
    <path
       inkscape:connector-curvature="0"
       style="display:inline;overflow:visible;visibility:visible;opacity:0.4;fill:#000000;fill-opacity:1;fill-rule:evenodd;stroke:none;stroke-width:1;marker:none"
       id="rect2383-9"
       d="m 10.938023,41.964002 0,3.459068 3.405852,0 0,-3.459068 -3.405852,0 z m 5.108781,0 0,3.459068 1.702925,0 0,-3.459068 -1.702925,0 z m 3.405853,0 0,3.459068 3.405853,0 0,-3.459068 -3.405853,0 z m 6.811705,0 0,3.459068 1.702927,0 0,-3.459068 -1.702927,0 z m 3.405854,0 0,3.459068 3.405853,0 0,-3.459068 -3.405853,0 z m 5.10878,0 0,3.459068 3.405851,0 0,-3.459068 -3.405851,0 z m 10.217558,0 0,3.459068 1.702927,0 0,-3.459068 -1.702927,0 z m 3.405854,0 0,3.459068 3.405852,0 0,-3.459068 -3.405852,0 z m -40.8702376,0.05322 0,6.918138 1.7029261,0 0,-6.918138 -1.7029261,0 z m 32.3556036,0 0,3.459069 1.702926,0 0,-3.459069 -1.702926,0 z" />
    <text
       transform="scale(0.96814512,1.032903)"
       sodipodi:linespacing="125%"
       id="text3819-8"
       y="47.395336"
       x="10.832867"
       style="font-style:normal;font-weight:normal;font-size:41.2170105px;line-height:125%;font-family:Sans;letter-spacing:0px;word-spacing:0px;opacity:0.75;fill:#000000;fill-opacity:1;stroke:none"
       xml:space="preserve"><tspan
         style="font-weight:bold;font-size:3.09127617px;-inkscape-font-specification:'Sans Bold'"
         y="47.395336"
         x="10.832867"
         id="tspan3821-4"
         sodipodi:role="line">32050557510650065065</tspan></text>
    <path
       style="color:#000000;display:inline;overflow:visible;visibility:visible;opacity:0.6;fill:#000000;fill-opacity:1;fill-rule:nonzero;stroke:none;stroke-width:2;marker:none;enable-background:accumulate"
       id="rect3049-4"
       d="m 16.85749,18.306427 c -2.806644,0 -5.081733,2.187571 -5.081733,4.886075 0,2.698506 2.27509,4.886078 5.081734,4.886078 2.806131,0 5.081219,-2.187572 5.081219,-4.886078 0,-2.698504 -2.275088,-4.886075 -5.081219,-4.886075 z m -1.862738,10.590572 c -2.287881,0 -4.266243,1.345801 -5.2648882,3.32253 1.7829282,1.901736 4.3148442,3.090444 7.1276272,3.090444 2.81227,0 5.344694,-1.188708 7.127621,-3.090444 -0.998643,-1.976729 -2.977515,-3.32253 -5.264883,-3.32253 l -3.725478,0 z"
       inkscape:connector-curvature="0" />
    <rect
       style="display:inline;overflow:visible;visibility:visible;opacity:0.4;fill:none;fill-opacity:1;stroke:#000000;stroke-width:1;stroke-linecap:round;stroke-linejoin:round;stroke-miterlimit:4;stroke-dasharray:none;stroke-dashoffset:0;stroke-opacity:1;marker:none"
       id="rect4201"
       y="15.973242"
       x="7.5"
       ry="2.4093144"
       rx="2.5284634"
       height="21.026758"
       width="19.028463" />
  </g>
  <rect
     style="display:inline;overflow:visible;visibility:visible;fill:none;fill-opacity:1;fill-rule:evenodd;stroke:#000000;stroke-width:1.20923281;stroke-linecap:butt;stroke-linejoin:miter;stroke-miterlimit:4;stroke-dasharray:none;stroke-dashoffset:0;stroke-opacity:1;marker:none;opacity:0.4"
     id="rect5638"
     y="8.6046162"
     x="2.1046164"
     ry="3.5281069"
     rx="3.5419004"
     height="30.790768"
     width="43.790768" />
</svg>
