<?xml version="1.0" encoding="UTF-8" standalone="no"?>
<svg
   xmlns:dc="http://purl.org/dc/elements/1.1/"
   xmlns:cc="http://creativecommons.org/ns#"
   xmlns:rdf="http://www.w3.org/1999/02/22-rdf-syntax-ns#"
   xmlns:svg="http://www.w3.org/2000/svg"
   xmlns="http://www.w3.org/2000/svg"
   xmlns:xlink="http://www.w3.org/1999/xlink"
   xmlns:sodipodi="http://sodipodi.sourceforge.net/DTD/sodipodi-0.dtd"
   xmlns:inkscape="http://www.inkscape.org/namespaces/inkscape"
   version="1.1"
   width="48"
   height="48"
   id="svg4031"
   inkscape:version="0.91 r13725"
   sodipodi:docname="hp-logo.svg">
  <sodipodi:namedview
     pagecolor="#ffffff"
     bordercolor="#666666"
     borderopacity="1"
     objecttolerance="10"
     gridtolerance="10"
     guidetolerance="10"
     inkscape:pageopacity="0"
     inkscape:pageshadow="2"
     inkscape:window-width="1600"
     inkscape:window-height="876"
     id="namedview50"
     showgrid="false"
     inkscape:zoom="1"
     inkscape:cx="5.0971959"
     inkscape:cy="24"
     inkscape:window-x="0"
     inkscape:window-y="24"
     inkscape:window-maximized="1"
     inkscape:current-layer="svg4031" />
  <defs
     id="defs4033">
    <linearGradient
       id="linearGradient4011">
      <stop
         id="stop4013"
         style="stop-color:#ffffff;stop-opacity:1"
         offset="0" />
      <stop
         id="stop4015"
         style="stop-color:#ffffff;stop-opacity:0.23529412"
         offset="0.507761" />
      <stop
         id="stop4017"
         style="stop-color:#ffffff;stop-opacity:0.15686275"
         offset="0.83456558" />
      <stop
         id="stop4019"
         style="stop-color:#ffffff;stop-opacity:0.39215687"
         offset="1" />
    </linearGradient>
    <linearGradient
       x1="71.204407"
       y1="6.2375584"
       x2="71.204407"
       y2="44.340794"
       id="linearGradient3012"
       xlink:href="#linearGradient4011"
       gradientUnits="userSpaceOnUse"
       gradientTransform="matrix(1.054054,0,0,1.054054,-51.611001,-2.7279009)" />
    <linearGradient
       id="linearGradient27416-1-2-0-1">
      <stop
         id="stop27420-2-0-8-7"
         style="stop-color:#55c1ec;stop-opacity:1"
         offset="0" />
      <stop
         id="stop27422-3-5-3-3"
         style="stop-color:#3689e6;stop-opacity:1"
         offset="1" />
    </linearGradient>
    <linearGradient
       xlink:href="#linearGradient27416-1-2-0-1"
       id="linearGradient3066"
       gradientUnits="userSpaceOnUse"
       gradientTransform="matrix(0.67764878,0,0,1.2335161,60.2151,-47.569187)"
       x1="30.271185"
       y1="10.028973"
       x2="30.271185"
       y2="55.052982" />
  </defs>
  <metadata
     id="metadata4036">
    <rdf:RDF>
      <cc:Work
         rdf:about="">
        <dc:format>image/svg+xml</dc:format>
        <dc:type
           rdf:resource="http://purl.org/dc/dcmitype/StillImage" />
        <dc:title></dc:title>
      </cc:Work>
    </rdf:RDF>
  </metadata>
  <path
     style="color:#000000;fill:url(#linearGradient3066);fill-opacity:1;fill-rule:nonzero;stroke:none;stroke-width:1.54645538;marker:none;visibility:visible;display:inline;overflow:visible;enable-background:accumulate"
     id="path3029"
     d="m 44.5,24.003202 a 20.5,20.5 0 0 1 -40.9999995,0 20.5,20.5 0 1 1 40.9999995,0 z" />
  <path
     d="m 43.5,23.999308 c 0,10.7699 -8.73109,19.50069 -19.499753,19.50069 -10.769649,0 -19.5002474,-8.730889 -19.5002474,-19.50069 0,-10.769402 8.7305984,-19.4993078 19.5002474,-19.4993078 C 34.76891,4.5000002 43.5,13.229906 43.5,23.999308 l 0,0 z"
     id="path8655"
     style="opacity:0.5;color:#000000;fill:none;stroke:url(#linearGradient3012);stroke-width:1;stroke-linecap:round;stroke-linejoin:round;stroke-miterlimit:4;stroke-opacity:1;stroke-dasharray:none;stroke-dashoffset:0;marker:none;visibility:visible;display:inline;overflow:visible;enable-background:accumulate" />
  <path
     d="m 24.000003,3.499998 c -11.311193,0 -20.5000034,9.188806 -20.5000034,20.5 0,11.311194 9.1888104,20.500005 20.5000034,20.500002 11.311188,0 20.500008,-9.188808 20.499997,-20.500002 0,-11.311194 -9.188809,-20.5 -20.499997,-20.5 z"
     id="path2555-6"
     style="opacity:0.50000000000000000;color:#000000;fill:#000000;fill-opacity:0;fill-rule:nonzero;stroke:#003651;stroke-width:1;stroke-linecap:round;stroke-linejoin:round;stroke-miterlimit:4;stroke-opacity:1;stroke-dasharray:none;stroke-dashoffset:0;marker:none;visibility:visible;display:inline;overflow:visible;enable-background:accumulate" />
  <path
     id="path4182"
     d="m 23.9997,37.99969 c -0.13915,0 -0.27773,-0.002 -0.41604,-0.006 l 2.8611,-7.86315 3.93749,0 c 0.69111,0 1.44976,-0.53128 1.68615,-1.1804 l 3.10408,-8.52609 C 35.6803,19.02814 34.88075,17.8861 33.3954,17.8861 l -5.46251,0 -4.58335,12.59448 -0.002,0 -2.59822,7.13952 C 14.58524,36.15436 10,30.61291 10,24.00009 10,17.57788 14.32449,12.16626 20.22015,10.51693 l -2.68107,7.36895 -6.2e-4,0 -4.45708,12.24443 2.96707,2.5e-4 3.79041,-10.40472 2.22987,0 -3.79041,10.40472 2.96597,4.5e-4 3.53225,-9.70726 c 0.50815,-1.3959 -0.29147,-2.53793 -1.77546,-2.53793 l -2.49411,0 2.86388,-7.87107 c 0.20878,-0.009 0.41833,-0.0147 0.62922,-0.0147 C 31.73205,10.00005 38,16.268 38,24.00003 38,31.73188 31.73205,37.99995 24.00007,37.99995 Z m 8.47074,-18.28162 -2.2293,0 -3.12191,8.56575 2.22935,0 3.12188,-8.56575 z"
     inkscape:connector-curvature="0"
     style="display:inline;fill:none;fill-opacity:1;enable-background:new;stroke:#000000;stroke-opacity:1;opacity:0.15;stroke-width:1;stroke-miterlimit:4;stroke-dasharray:none" />
  <path
     id="path4184"
     d="m 23.9997,38.99974 c -0.13915,0 -0.27773,-0.002 -0.41604,-0.006 l 2.8611,-7.86315 3.93749,0 c 0.69111,0 1.44976,-0.53128 1.68615,-1.1804 L 35.17248,21.4241 C 35.6803,20.02819 34.88075,18.88615 33.3954,18.88615 l -5.46251,0 -4.58335,12.59448 -0.002,0 -2.59822,7.13952 C 14.58524,37.15441 10,31.61296 10,25.00014 10,18.57793 14.32449,13.16631 20.22015,11.51698 l -2.68107,7.36895 -6.2e-4,0 -4.45708,12.24443 2.96707,2.5e-4 3.79041,-10.40472 2.22987,0 -3.79041,10.40472 2.96597,4.5e-4 3.53225,-9.70726 c 0.50815,-1.3959 -0.29147,-2.53793 -1.77546,-2.53793 l -2.49411,0 2.86388,-7.87107 c 0.20878,-0.009 0.41833,-0.0147 0.62922,-0.0147 C 31.73205,11.0001 38,17.26805 38,25.00008 38,32.73193 31.73205,39 24.00007,39 Z m 8.47074,-18.28162 -2.2293,0 -3.12191,8.56575 2.22935,0 3.12188,-8.56575 z"
     inkscape:connector-curvature="0"
     style="display:inline;opacity:0.3;fill:#000000;fill-opacity:1;enable-background:new" />
  <path
     style="display:inline;fill:#ffffff;fill-opacity:1;enable-background:new"
     inkscape:connector-curvature="0"
     d="m 23.9997,37.99969 c -0.13915,0 -0.27773,-0.002 -0.41604,-0.006 l 2.8611,-7.86315 3.93749,0 c 0.69111,0 1.44976,-0.53128 1.68615,-1.1804 l 3.10408,-8.52609 C 35.6803,19.02814 34.88075,17.8861 33.3954,17.8861 l -5.46251,0 -4.58335,12.59448 -0.002,0 -2.59822,7.13952 C 14.58524,36.15436 10,30.61291 10,24.00009 10,17.57788 14.32449,12.16626 20.22015,10.51693 l -2.68107,7.36895 -6.2e-4,0 -4.45708,12.24443 2.96707,2.5e-4 3.79041,-10.40472 2.22987,0 -3.79041,10.40472 2.96597,4.5e-4 3.53225,-9.70726 c 0.50815,-1.3959 -0.29147,-2.53793 -1.77546,-2.53793 l -2.49411,0 2.86388,-7.87107 c 0.20878,-0.009 0.41833,-0.0147 0.62922,-0.0147 C 31.73205,10.00005 38,16.268 38,24.00003 38,31.73188 31.73205,37.99995 24.00007,37.99995 Z m 8.47074,-18.28162 -2.2293,0 -3.12191,8.56575 2.22935,0 3.12188,-8.56575 z"
     id="path3842" />
</svg>
