<?xml version="1.0" encoding="UTF-8" standalone="no"?>
<!-- Created with Inkscape (http://www.inkscape.org/) -->

<svg
   xmlns:dc="http://purl.org/dc/elements/1.1/"
   xmlns:cc="http://creativecommons.org/ns#"
   xmlns:rdf="http://www.w3.org/1999/02/22-rdf-syntax-ns#"
   xmlns:svg="http://www.w3.org/2000/svg"
   xmlns="http://www.w3.org/2000/svg"
   xmlns:sodipodi="http://sodipodi.sourceforge.net/DTD/sodipodi-0.dtd"
   xmlns:inkscape="http://www.inkscape.org/namespaces/inkscape"
   id="svg4951"
   height="48"
   width="48"
   version="1.1"
   inkscape:version="0.91 r13725"
   sodipodi:docname="jack_mixer.svg">
  <sodipodi:namedview
     pagecolor="#ffffff"
     bordercolor="#666666"
     borderopacity="1"
     objecttolerance="10"
     gridtolerance="10"
     guidetolerance="10"
     inkscape:pageopacity="0"
     inkscape:pageshadow="2"
     inkscape:window-width="1535"
     inkscape:window-height="876"
     id="namedview28"
     showgrid="false"
     inkscape:zoom="4.9166667"
     inkscape:cx="-10.779661"
     inkscape:cy="24"
     inkscape:window-x="65"
     inkscape:window-y="24"
     inkscape:window-maximized="1"
     inkscape:current-layer="svg4951" />
  <defs
     id="defs4953">
    <radialGradient
       id="radialGradient3302"
       gradientUnits="userSpaceOnUse"
       cy="186.17"
       cx="99.157"
       gradientTransform="matrix(.27083 0 0 .087623 -2.8551 25.187)"
       r="62.769">
      <stop
         id="stop3822-2-6-3"
         stop-color="#3d3d3d"
         offset="0" />
      <stop
         id="stop3864-8-7-7"
         stop-color="#686868"
         stop-opacity=".49804"
         offset=".5" />
      <stop
         id="stop3824-1-2-5"
         stop-color="#686868"
         stop-opacity="0"
         offset="1" />
    </radialGradient>
    <radialGradient
       id="radialGradient3037"
       gradientUnits="userSpaceOnUse"
       cy="-17.681"
       cx="14.892"
       gradientTransform="matrix(-1.7922 4.7451e-8 -3.529e-8 -1.3329 41.581 -41.248)"
       r="25.571">
      <stop
         id="stop3767"
         stop-color="#fff"
         offset="0" />
      <stop
         id="stop3769"
         stop-color="#e4e4e4"
         offset="1" />
    </radialGradient>
    <linearGradient
       id="linearGradient3039"
       y2="32.568"
       gradientUnits="userSpaceOnUse"
       x2="15.124"
       y1="-18.801"
       x1="15.124">
      <stop
         id="stop3777"
         stop-color="#fff"
         stop-opacity=".58824"
         offset="0" />
      <stop
         id="stop3779"
         stop-color="#fff"
         offset="1" />
    </linearGradient>
  </defs>
  <metadata
     id="metadata4956">
    <rdf:RDF>
      <cc:Work
         rdf:about="">
        <dc:format>image/svg+xml</dc:format>
        <dc:type
           rdf:resource="http://purl.org/dc/dcmitype/StillImage" />
        <dc:title />
      </cc:Work>
    </rdf:RDF>
  </metadata>
  <path
     id="path2985"
     d="m40.781 6.8335a25.571 25.571 0 1 1 -51.141 0 25.571 25.571 0 1 1 51.141 0z"
     transform="matrix(.80271 0 0 .80271 11.791 18.515)"
     fill="url(#radialGradient3037)" />
  <path
     id="path3755"
     d="m40.781 6.8335a25.571 25.571 0 1 1 -51.141 0 25.571 25.571 0 1 1 51.141 0z"
     stroke-opacity=".58824"
     transform="matrix(.80271 0 0 .80271 11.791 18.515)"
     stroke="#828282"
     stroke-width="1.1816"
     fill="none" />
  <path
     id="path3773"
     d="m40.781 6.8335a25.571 25.571 0 1 1 -51.141 0 25.571 25.571 0 1 1 51.141 0z"
     stroke-opacity=".58824"
     transform="matrix(.76418 0 0 .76418 12.377 18.778)"
     stroke="url(#linearGradient3039)"
     stroke-width="1.2204"
     fill="none" />
  <path
     id="path19-8"
     d="m-55.203 32.032c-0.68948-0.08373-1.3228-0.4894-1.628-1.0428-0.31109-0.56416-0.33948-0.85964-0.32117-3.3436 0.01418-1.924 0.01914-2.0446 0.0954-2.3202 0.18178-0.65677 0.53377-1.1047 1.0802-1.3747 0.74994-0.37055 1.5582-0.32219 2.2658 0.13558 0.45047 0.29141 0.72423 0.7128 0.87032 1.3397 0.0647 0.27765 0.07089 0.48997 0.07089 2.4335 0 2.3626-0.01149 2.4991-0.25337 3.0111-0.23305 0.49324-0.75998 0.92783-1.3099 1.0803-0.24198 0.0671-0.6627 0.1063-0.87027 0.0811zm0.6042-1.5431c0.2641-0.20144 0.26596-0.218 0.2806-2.4943 0.01137-1.7679 0.005-2.0683-0.04862-2.3095-0.07231-0.32503-0.19916-0.48028-0.44693-0.54699-0.32083-0.08639-0.61474 0.09723-0.7165 0.44766-0.07839 0.26993-0.07758 4.2802 0.00092 4.5507 0.05877 0.20248 0.24976 0.42436 0.39129 0.45456 0.18392 0.03925 0.40998-0.0036 0.53924-0.10218zm3.8826 1.5448c-0.38226-0.0509-0.60536-0.1984-0.75847-0.50146-0.19222-0.38049-0.19212-0.37827-0.19212-4.167v-3.5362h0.77102 0.77102l0.01629 3.2592c0.0177 3.5408 0.01242 3.4581 0.22436 3.5113 0.19461 0.04884 0.40977-0.05546 0.67829-0.32882l0.25725-0.26188 0.0097-3.0899 0.0097-3.0899 0.76998-0.01029 0.76998-0.01029v4.0473 4.0473l-0.10456 0.02148c-0.12615 0.02591-1.2938 0.02422-1.3879-0.002-0.05749-0.01603-0.06654-0.06845-0.06654-0.38553v-0.36698l-0.21864 0.21287c-0.50309 0.48983-1.046 0.71789-1.5495 0.65086zm-10.005-0.13226c-0.03234-0.05233-0.02749-3.1806 0.0056-3.6236 0.04246-0.56815 0.01233-1.0148-0.39553-2.1572-0.1324-0.37085-0.3876-1.1221-0.54715-1.6296-1.1526-3.6662-1.0751-3.4183-0.96497-3.4192 0.75923-0.0065 1.6317-0.002 1.6419 0.0082 0.0073 0.0073 0.25415 0.90261 0.54853 1.9896 0.29438 1.0869 0.54009 1.9917 0.54601 2.0107 0.0059 0.01891 0.17872-0.61418 0.38401-1.4069 0.43034-1.6617 0.6718-2.5792 0.68104-2.5876 0.01925-0.01761 0.23329-0.02168 0.93269-0.01772l0.77414 0.0044-0.01705 0.12358c-0.01394 0.10103-0.54215 1.8751-1.0953 3.6788-0.06093 0.19867-0.21498 0.71199-0.34233 1.1407-0.12735 0.42872-0.28178 0.93796-0.34318 1.1317l-0.11163 0.35217v2.2023c0 2.0652-0.0041 2.2035-0.06654 2.2206-0.13878 0.03797-1.6055 0.01935-1.6302-0.02069z"
     fill="#fff" />
  <g
     id="g4497"
     transform="translate(2.0345 2.1244)">
    <path
       id="path4405-3"
       d="m20.246 22.015 1.7728 1.7728 9.2204-9.2341 0.08301-0.70598-1.1682-1.1593-0.67871 0.08354z"
       fill="#2b2b2b" />
    <g
       id="g4342"
       transform="matrix(.082454 0 0 .082934 7 10.924)">
      <path
         id="path4407"
         d="m231.51 142.27-95.422 95.422-38.686 18.046-0.323-0.321-25.469 25.467-9.29-9.29-43.027 41.136c-12.34-11.59-17.202-17.58-17.202-17.58l40.458-43.33-9.406-9.409 25.764-25.756 17.865-38.276 95.42-95.43z"
         fill="#2b2b2b" />
      <path
         id="path4405"
         d="m196.36 98.219 21.5 21.371 67.81-67.583-21.44-21.438z"
         fill="#dfd46d" />
      <path
         id="path4403"
         d="m267.63 27.185 21.438 21.438 4.991-4.994-21.438-21.438z"
         fill="#dfd46d" />
      <path
         id="path4344"
         d="m312.83 3.41-21.84-2.498-10.15 20.468 14.02 14.022 20.47-10.154z"
         fill="#dfd46d" />
      <path
         id="path4426"
         d="m227.24 67.524 21.5 21.376 3.5499-3.7008-21.5-21.376z"
         fill="#2b2b2b" />
    </g>
  </g>
</svg>
