<?xml version="1.0" encoding="UTF-8" standalone="no"?>
<!-- Created with Inkscape (http://www.inkscape.org/) -->

<svg
   xmlns:dc="http://purl.org/dc/elements/1.1/"
   xmlns:cc="http://creativecommons.org/ns#"
   xmlns:rdf="http://www.w3.org/1999/02/22-rdf-syntax-ns#"
   xmlns:svg="http://www.w3.org/2000/svg"
   xmlns="http://www.w3.org/2000/svg"
   xmlns:xlink="http://www.w3.org/1999/xlink"
   xmlns:sodipodi="http://sodipodi.sourceforge.net/DTD/sodipodi-0.dtd"
   xmlns:inkscape="http://www.inkscape.org/namespaces/inkscape"
   id="svg4296"
   height="48"
   width="48"
   version="1.1"
   inkscape:version="0.91 r13725"
   sodipodi:docname="kodi.svg">
  <sodipodi:namedview
     pagecolor="#ffffff"
     bordercolor="#666666"
     borderopacity="1"
     objecttolerance="10"
     gridtolerance="10"
     guidetolerance="10"
     inkscape:pageopacity="0"
     inkscape:pageshadow="2"
     inkscape:window-width="1535"
     inkscape:window-height="876"
     id="namedview43"
     showgrid="false"
     inkscape:zoom="4.9166667"
     inkscape:cx="-10.779661"
     inkscape:cy="24"
     inkscape:window-x="65"
     inkscape:window-y="24"
     inkscape:window-maximized="1"
     inkscape:current-layer="svg4296" />
  <defs
     id="defs4298">
    <radialGradient
       id="radialGradient3058"
       gradientUnits="userSpaceOnUse"
       cy="43.5"
       cx="4.993"
       gradientTransform="matrix(2.0038 0 0 1.4 27.988 -17.4)"
       r="2.5">
      <stop
         id="stop2883"
         stop-color="#181818"
         offset="0" />
      <stop
         id="stop2885"
         stop-color="#181818"
         stop-opacity="0"
         offset="1" />
    </radialGradient>
    <radialGradient
       id="radialGradient3060"
       gradientUnits="userSpaceOnUse"
       cy="43.5"
       cx="4.993"
       gradientTransform="matrix(2.0038 0 0 1.4 -20.012 -104.4)"
       r="2.5">
      <stop
         id="stop2889"
         stop-color="#181818"
         offset="0" />
      <stop
         id="stop2891"
         stop-color="#181818"
         stop-opacity="0"
         offset="1" />
    </radialGradient>
    <linearGradient
       id="linearGradient3062"
       y2="39.999"
       gradientUnits="userSpaceOnUse"
       x2="25.058"
       y1="47.028"
       x1="25.058">
      <stop
         id="stop2895"
         stop-color="#181818"
         stop-opacity="0"
         offset="0" />
      <stop
         id="stop2897"
         stop-color="#181818"
         offset=".5" />
      <stop
         id="stop2899"
         stop-color="#181818"
         stop-opacity="0"
         offset="1" />
    </linearGradient>
    <linearGradient
       id="linearGradient3074"
       y2="43"
       gradientUnits="userSpaceOnUse"
       x2="24"
       gradientTransform="translate(4e-6,1)"
       y1="5"
       x1="24">
      <stop
         id="stop3897"
         stop-color="#fff"
         offset="0" />
      <stop
         id="stop3899"
         stop-color="#fff"
         stop-opacity=".23529"
         offset=".052632" />
      <stop
         id="stop3901"
         stop-color="#fff"
         stop-opacity=".15686"
         offset=".95056" />
      <stop
         id="stop3903"
         stop-color="#fff"
         stop-opacity=".39216"
         offset="1" />
    </linearGradient>
    <radialGradient
       id="radialGradient3078"
       gradientUnits="userSpaceOnUse"
       cy="9.9571"
       cx="7.1184"
       gradientTransform="matrix(0,9.1402,-11.221,0,136.56,-77.888)"
       r="12.672">
      <stop
         id="stop3750-1-0-7-6-6-1-3-9-3"
         stop-color="#505050"
         offset="0" />
      <stop
         id="stop3752-3-7-4-0-32-8-923-0-7"
         stop-color="#2b2b2b"
         offset=".26238" />
      <stop
         id="stop3754-1-8-5-2-7-6-7-1-9"
         stop-color="#0a0a0a"
         offset=".70495" />
      <stop
         id="stop3756-1-6-2-6-6-1-96-6-0"
         offset="1" />
    </radialGradient>
    <linearGradient
       id="linearGradient4265"
       y2="423.72"
       gradientUnits="userSpaceOnUse"
       x2="224.68"
       y1="158.08"
       x1="214.34">
      <stop
         id="stop4261"
         stop-color="#fff"
         offset="0" />
      <stop
         id="stop4263"
         stop-color="#fff"
         stop-opacity="0"
         offset="1" />
    </linearGradient>
    <linearGradient
       inkscape:collect="always"
       xlink:href="#linearGradient4265"
       id="linearGradient4184"
       gradientUnits="userSpaceOnUse"
       x1="214.34"
       y1="158.08"
       x2="224.68"
       y2="423.72" />
    <linearGradient
       inkscape:collect="always"
       xlink:href="#linearGradient4265"
       id="linearGradient4186"
       gradientUnits="userSpaceOnUse"
       x1="214.34"
       y1="158.08"
       x2="224.68"
       y2="423.72" />
  </defs>
  <metadata
     id="metadata4301">
    <rdf:RDF>
      <cc:Work
         rdf:about="">
        <dc:format>image/svg+xml</dc:format>
        <dc:type
           rdf:resource="http://purl.org/dc/dcmitype/StillImage" />
        <dc:title />
      </cc:Work>
    </rdf:RDF>
  </metadata>
  <g
     id="g4171"
     transform="translate(0,-1)">
    <rect
       x="4.5"
       y="5.5"
       width="39"
       height="39"
       ry="2"
       rx="2"
       style="color:#000000;fill:url(#radialGradient3078)"
       id="rect5505-21" />
    <g
       transform="matrix(0.15006,0,0,0.15064,-8.9765,-18.63)"
       id="g4212"
       style="fill:none;stroke:#000000;stroke-width:13.30300045;stroke-linecap:round;stroke-linejoin:round">
      <path
         d="m 219.99,190.06 c -3.9021,-0.001 -7.3835,1.9516 -9.9181,4.4862 -7.1669,7.1699 -14.334,14.335 -21.502,21.51 -1.9976,2.002 -3.6101,3.8022 -5.0892,5.0826 -3.8455,3.3224 -5.4754,8.5353 -5.4146,12.784 a 6.6648,6.6391 0 0 0 0,0.013 c 0.15945,10.77 0.0651,21.615 0.0651,32.531 0,11.302 -9.9e-4,22.612 0.013,33.918 -3.2e-4,0.90084 -0.0586,2.3141 0.42953,4.1879 a 6.6648,6.6391 0 0 0 0.013,0 c 0.65338,2.4962 2.3528,5.9122 6.3648,7.0015 4.0119,1.0893 7.2267,-1.0052 9.046,-2.8266 10.183,-10.19 20.365,-20.378 30.548,-30.573 11.528,-11.537 23.067,-23.073 34.596,-34.619 2.5339,-2.537 4.4512,-6.0097 4.4514,-9.8669 2.7e-4,-3.8572 -1.9168,-7.3422 -4.4514,-9.8799 -9.7475,-9.7535 -19.497,-19.512 -29.247,-29.264 -2.5237,-2.5244 -6.008,-4.4848 -9.9051,-4.4862 z m 0,13.277 c -0.39456,-1.4e-4 -0.38874,-0.27405 0.45556,0.5705 9.7479,9.7499 19.498,19.509 29.247,29.264 0.81435,0.81532 0.57267,0.84636 0.57269,0.50566 3e-5,-0.3407 0.24137,-0.29641 -0.57269,0.51863 -11.524,11.54 -23.065,23.078 -34.596,34.619 -7.8744,7.8837 -15.748,15.768 -23.624,23.65 -0.006,-8.6652 -0.013,-17.327 -0.013,-25.996 0,-10.838 0.0975,-21.76 -0.0651,-32.739 -0.0299,-2.0141 -0.15112,-1.7265 0.80698,-2.5542 a 6.6648,6.6391 0 0 0 0.013,0 c 2.3833,-2.0614 4.1832,-4.1314 5.8051,-5.7568 7.164,-7.171 14.333,-14.338 21.502,-21.51 0.83542,-0.83542 0.86822,-0.57036 0.46857,-0.5705 z m 56.164,42.943 c -3.7946,0.002 -7.2763,1.8425 -9.788,4.3565 -9.8035,9.8085 -19.603,19.616 -29.403,29.432 -2.5168,2.5183 -4.4334,5.9694 -4.4384,9.8151 -0.005,3.8457 1.9086,7.309 4.4254,9.828 9.7459,9.7599 19.5,19.51 29.247,29.264 2.5387,2.541 6.0224,4.5148 9.9442,4.525 3.9217,0.0103 7.4168,-1.9573 9.9572,-4.4991 9.4471,-9.4541 18.879,-18.906 28.336,-28.33 1.5503,-1.5448 3.8512,-3.8675 4.9851,-7.5461 a 6.6648,6.6391 0 0 0 0.29936,-1.9449 l 0,-2.5542 a 6.6648,6.6391 0 0 0 -0.28635,-1.9319 c -1.1208,-3.6828 -3.4271,-6.0076 -4.9851,-7.559 -9.5118,-9.4798 -18.998,-18.99 -28.505,-28.499 -2.509,-2.5098 -5.9831,-4.3581 -9.788,-4.3565 z m -118.25,2.6839 c -4.1714,0.65664 -5.3104,3.1118 -5.2975,3.0988 a 6.6648,6.6391 0 0 0 -0.013,0.013 c -9.7537,9.8567 -19.51,19.714 -29.26,29.575 -4.3468,4.3986 -4.3004,12.426 0.0521,16.791 5.2916,5.3066 10.58,10.615 15.879,15.922 4.5794,4.5874 9.1723,9.1931 13.771,13.783 1.5318,1.5294 4.2996,3.3254 7.8486,2.632 3.549,-0.6934 5.5062,-3.5377 6.2997,-5.6012 0.70463,-1.8313 0.93029,-3.5488 0.93714,-5.1733 0.0351,-9.9994 0.026,-20.001 0.026,-29.977 a 6.6648,6.6391 0 0 0 -0.013,-0.22042 c 1.5e-4,-9.9441 0.01,-19.891 0,-29.847 -0.002,-1.1374 -0.1199,-2.0862 -0.23429,-2.8784 -0.31312,-2.2151 -2.0675,-6.2473 -5.8441,-7.6757 a 6.6648,6.6391 0 0 0 -0.013,0 c -1.2172,-0.45937 -2.7353,-0.66179 -4.139,-0.44084 z m 118.25,10.593 c -0.33638,1.4e-4 -0.34158,-0.23938 0.33841,0.44083 9.4994,9.5014 19.001,19.026 28.531,28.525 0.85711,0.85347 0.91451,1.0551 1.1194,1.3744 -0.20994,0.32494 -0.27127,0.52926 -1.1324,1.3873 -9.4736,9.4415 -18.919,18.906 -28.362,28.356 -0.86268,0.8632 -0.88244,0.58242 -0.48158,0.58346 0.40085,0.001 0.35762,0.26964 -0.52064,-0.60939 -9.7498,-9.7568 -19.507,-19.51 -29.247,-29.264 -0.80321,-0.80394 -0.54619,-0.82185 -0.54666,-0.45381 -4.8e-4,0.36805 -0.25157,0.34497 0.55968,-0.46676 9.7978,-9.8138 19.6,-19.625 29.403,-29.432 0.67736,-0.67799 0.66449,-0.44097 0.33842,-0.44083 z m -121.35,9.1927 c 6.3e-4,7.0911 0,14.176 0,21.277 a 6.6648,6.6391 0 0 0 0.013,0.22042 c 9e-5,6.9559 -0.004,13.901 -0.013,20.849 -2.0306,-2.0337 -4.061,-4.0599 -6.0914,-6.0939 -4.9813,-4.9888 -9.9599,-9.9914 -14.942,-14.988 7.0074,-7.0868 14.021,-14.177 21.034,-21.264 z m 65.613,33.283 c -3.8275,0.0115 -7.2924,1.886 -9.814,4.4084 -9.7774,9.7804 -19.551,19.56 -29.325,29.342 -2.5248,2.5286 -4.4694,5.991 -4.4644,9.8669 0.005,3.876 1.953,7.3387 4.4775,9.8669 9.4481,9.4591 18.895,18.893 28.31,28.356 1.4794,1.4889 3.7452,3.8482 7.4711,5.0307 a 6.6648,6.6391 0 0 0 2.0175,0.31118 l 2.5641,0 a 6.6648,6.6391 0 0 0 1.8222,-0.24635 c 3.6528,-1.0327 6.0158,-3.2829 7.5752,-4.8492 a 6.6648,6.6391 0 0 0 0,-0.013 c 9.4928,-9.5437 19.026,-19.06 28.557,-28.602 2.5358,-2.5374 4.4486,-6.022 4.4384,-9.8799 -0.0102,-3.8579 -1.9313,-7.33 -4.4645,-9.8669 -9.7738,-9.7858 -19.55,-19.563 -29.325,-29.342 -2.5084,-2.5108 -6.0047,-4.394 -9.84,-4.3824 z m 0.0521,13.277 c -0.3528,0.001 -0.38513,-0.25745 0.33841,0.46677 9.7755,9.7795 19.555,19.559 29.325,29.342 0.82382,0.82506 0.58661,0.87317 0.58571,0.5316 -9e-4,-0.34157 0.24648,-0.31395 -0.55968,0.4927 -9.519,9.531 -19.07,19.051 -28.583,28.615 -0.75596,0.75929 -0.8696,0.76497 -1.1324,0.93353 -0.30821,-0.20999 -0.47581,-0.25736 -1.3667,-1.154 -9.4353,-9.4844 -18.896,-18.931 -28.336,-28.382 -0.85448,-0.85574 -0.59922,-0.89829 -0.59873,-0.51863 4.9e-4,0.37966 -0.26046,0.35473 0.58571,-0.4927 9.7726,-9.7806 19.548,-19.562 29.325,-29.342 0.72843,-0.72866 0.76146,-0.49374 0.41651,-0.4927 z"
         style="color:#000000;text-indent:0;text-decoration:none;text-decoration-line:none;text-decoration-style:solid;text-decoration-color:#000000;text-transform:none;block-progression:tb;white-space:normal;clip-rule:evenodd;opacity:0.15;isolation:auto;mix-blend-mode:normal;solid-color:#000000;fill:#000000;fill-rule:evenodd;color-rendering:auto;image-rendering:auto;shape-rendering:auto"
         id="path4214"
         inkscape:connector-curvature="0" />
    </g>
    <rect
       x="4.5"
       y="5.5"
       width="39"
       height="39"
       ry="2"
       rx="2"
       style="color:#000000;opacity:0.7;fill:none;stroke:#000000;stroke-linecap:round;stroke-linejoin:round"
       id="rect5505-21-3-2" />
    <rect
       x="5.5"
       y="6.5"
       width="37"
       height="37"
       ry="1"
       rx="1"
       id="rect6741"
       style="opacity:0.3;fill:none;stroke:url(#linearGradient3074);stroke-linecap:round;stroke-linejoin:round" />
    <g
       transform="matrix(0.15006,0,0,0.15064,-8.9765,-18.63)"
       id="g4218"
       style="fill:none;stroke:#000000;stroke-width:6.65129995;stroke-linecap:round;stroke-linejoin:round">
      <path
         d="m 219.99,193.38 c -2.8267,-0.001 -5.4394,1.391 -7.5492,3.5008 -7.1674,7.1704 -14.335,14.336 -21.502,21.51 a 3.3324,3.3196 0 0 0 -0.013,0.013 c -1.9056,1.9098 -3.5651,3.7753 -5.2714,5.2511 -3.1247,2.6997 -4.3091,6.532 -4.2562,10.23 0.16023,10.822 0.0651,21.687 0.0651,32.583 0,11.302 -9.8e-4,22.602 0.013,33.905 0,0.87371 -0.0249,2.0133 0.3254,3.3581 a 3.3324,3.3196 0 0 0 0,0.013 c 0.49794,1.9024 1.6463,3.9838 4.0219,4.6288 2.3756,0.64502 4.4237,-0.57493 5.8051,-1.9578 10.183,-10.19 20.366,-20.379 30.548,-30.573 11.529,-11.538 23.068,-23.074 34.596,-34.619 2.104,-2.1065 3.488,-4.7254 3.4882,-7.5331 2e-4,-2.8078 -1.3837,-5.439 -3.4882,-7.5461 -9.7478,-9.7538 -19.497,-19.512 -29.247,-29.264 -2.1039,-2.1045 -4.7121,-3.4998 -7.5362,-3.5008 z m 0,6.6385 c 0.67835,2.4e-4 1.5603,0.29137 2.8244,1.5559 9.7484,9.7504 19.498,19.509 29.247,29.264 1.2444,1.2459 1.5359,2.1437 1.5359,2.8525 -5e-5,0.70878 -0.29184,1.594 -1.5359,2.8395 -11.526,11.542 -23.065,23.079 -34.596,34.619 -9.7704,9.7819 -19.54,19.563 -29.312,29.342 -4e-4,-0.0544 -0.013,-0.0602 -0.013,-0.11669 -0.014,-11.298 -0.013,-22.603 -0.013,-33.905 0,-10.858 0.0967,-21.761 -0.0651,-32.687 -0.0371,-2.596 0.28213,-3.6672 1.9654,-5.1215 2.1527,-1.8619 3.9102,-3.8578 5.6229,-5.5753 l 0.013,-0.013 c 7.1607,-7.1677 14.325,-14.33 21.489,-21.497 1.2602,-1.2602 2.1617,-1.5561 2.8375,-1.5559 z m 56.164,49.581 c -2.7644,0.001 -5.366,1.3161 -7.4191,3.3711 -9.8033,9.8083 -19.616,19.617 -29.416,29.432 l 0.013,0 c -2.0904,2.0916 -3.4716,4.689 -3.4752,7.4812 -0.004,2.7923 1.3738,5.4039 3.4622,7.4942 9.7444,9.7584 19.5,19.51 29.247,29.264 2.1236,2.1255 4.7342,3.5322 7.5752,3.5396 2.8411,0.007 5.4674,-1.3916 7.5883,-3.5137 9.446,-9.453 18.888,-18.914 28.349,-28.343 1.4812,-1.4759 3.2971,-3.3559 4.1651,-6.1717 a 3.3324,3.3196 0 0 0 0.14317,-0.97243 l 0,-2.5542 a 3.3324,3.3196 0 0 0 -0.14317,-0.95947 c -0.85793,-2.8189 -2.6666,-4.7055 -4.1521,-6.1847 -9.5164,-9.4844 -19.013,-19.005 -28.518,-28.512 -2.0517,-2.0524 -4.6495,-3.3723 -7.4191,-3.3711 z m -117.73,2.645 c -2.4176,0.38056 -3.2138,1.9147 -3.4492,2.1523 -9.7538,9.8568 -19.511,19.715 -29.26,29.575 -3.2644,3.3033 -3.2457,8.8423 0.026,12.123 5.2923,5.3073 10.582,10.629 15.879,15.935 4.5802,4.5882 9.1761,9.1839 13.771,13.77 1.0929,1.0912 2.7889,2.1256 4.8419,1.7244 2.053,-0.40111 3.2764,-2.0619 3.8397,-3.5267 0.52435,-1.3587 0.71044,-2.7187 0.71587,-4.0064 0.035,-9.9897 0.026,-19.986 0.026,-29.964 a 3.3324,3.3196 0 0 0 -0.013,-0.33711 c 2.2e-4,-9.9073 0.01,-19.805 0,-29.718 -10e-4,-0.89656 -0.10421,-1.7177 -0.20825,-2.4376 l 0,-0.013 c -0.23305,-1.6312 -1.3148,-4.0941 -3.7226,-5.0048 -0.74573,-0.28144 -1.6345,-0.40017 -2.447,-0.27228 z m 117.73,3.9934 c 0.69893,-3e-4 1.5701,0.28863 2.7073,1.4262 9.5012,9.5032 18.992,19.018 28.518,28.512 1.2638,1.2584 1.9777,2.1967 2.3429,3.2155 l 0,1.0113 c -0.36948,1.0194 -1.0896,1.9666 -2.3559,3.2285 -9.4693,9.4373 -18.905,18.892 -28.349,28.343 -1.2821,1.2828 -2.1707,1.5706 -2.8505,1.5689 -0.6798,-0.002 -1.5962,-0.30028 -2.8895,-1.5948 -9.7489,-9.7559 -19.505,-19.508 -29.247,-29.264 -1.2316,-1.2327 -1.5107,-2.1022 -1.5098,-2.7876 8.8e-4,-0.68539 0.28523,-1.5622 1.5228,-2.8006 a 3.3324,3.3196 0 0 0 0.013,0 c 9.7984,-9.8144 19.587,-19.625 29.39,-29.432 1.1359,-1.137 2.0032,-1.4259 2.7073,-1.4262 z m -118.02,4.4213 c 0.009,9.7873 0,19.572 0,29.367 a 3.3324,3.3196 0 0 0 0.013,0.32415 3.3324,3.3196 0 0 0 0,0.013 c 1.8e-4,9.5887 0.005,19.18 -0.026,28.758 -3.926,-3.9232 -7.8444,-7.857 -11.766,-11.786 -5.2943,-5.3023 -10.586,-10.6 -15.879,-15.909 -1.1103,-1.1133 -1.1257,-1.6749 -0.026,-2.7876 9.2221,-9.3271 18.456,-18.654 27.685,-27.98 z m 62.294,44.693 c -2.7844,0.008 -5.3848,1.349 -7.4581,3.423 -9.7772,9.7802 -19.552,19.56 -29.325,29.342 a 3.3324,3.3196 0 0 0 -0.013,0 c -2.1052,2.1083 -3.4919,4.721 -3.4882,7.5331 0.004,2.812 1.3943,5.423 3.5013,7.5331 a 3.3324,3.3196 0 0 0 0.013,0 c 9.446,9.457 18.89,18.887 28.31,28.356 1.4402,1.4494 3.2695,3.3011 6.1044,4.2009 a 3.3324,3.3196 0 0 0 1.0152,0.15559 l 2.5641,0 a 3.3324,3.3196 0 0 0 0.91112,-0.12965 c 2.7744,-0.78434 4.6577,-2.5273 6.1175,-3.9935 9.4984,-9.5494 19.028,-19.062 28.557,-28.602 2.1034,-2.1047 3.4826,-4.7381 3.4752,-7.5461 -0.007,-2.808 -1.3824,-5.4241 -3.4883,-7.5331 a 3.3324,3.3196 0 0 0 -0.013,0 c -9.7729,-9.7849 -19.55,-19.563 -29.325,-29.342 -2.0622,-2.0641 -4.6698,-3.4054 -7.4581,-3.397 z m 0.026,6.6385 c 0.69423,-0.002 1.5506,0.2813 2.7203,1.4522 9.7753,9.7793 19.554,19.558 29.325,29.342 l -0.013,0 c 1.2512,1.253 1.56,2.1572 1.5619,2.8654 0.002,0.70829 -0.28428,1.5872 -1.5229,2.8265 -9.5236,9.5356 -19.073,19.068 -28.583,28.628 -1.1886,1.1938 -2.0685,1.8334 -3.0197,2.1523 l -1.0282,0 c -0.98165,-0.37188 -1.9105,-1.0991 -3.1889,-2.3857 -9.4302,-9.4792 -18.894,-18.929 -28.336,-28.382 l 0.013,0 c -1.272,-1.2739 -1.574,-2.1682 -1.5749,-2.8525 -8.8e-4,-0.68424 0.29607,-1.5588 1.5619,-2.8265 l -0.013,0 c 9.7728,-9.7808 19.548,-19.562 29.325,-29.342 1.1767,-1.1771 2.0742,-1.476 2.7724,-1.4781 z"
         style="color:#000000;text-indent:0;text-decoration:none;text-decoration-line:none;text-decoration-style:solid;text-decoration-color:#000000;text-transform:none;block-progression:tb;white-space:normal;clip-rule:evenodd;opacity:0.15;isolation:auto;mix-blend-mode:normal;solid-color:#000000;fill:#000000;fill-rule:evenodd;color-rendering:auto;image-rendering:auto;shape-rendering:auto"
         id="path4220"
         inkscape:connector-curvature="0" />
    </g>
    <g
       transform="matrix(0.15006,0,0,0.15064,-8.9765,-18.63)"
       id="g15">
      <path
         transform="matrix(6.6641,0,0,6.6385,59.821,123.68)"
         d="m 24.035,11 c -0.263,0 -0.526,0.127 -0.779,0.381 -1.076,1.08 -2.151,2.16 -3.227,3.24 -0.271,0.273 -0.528,0.565 -0.818,0.817 -0.361,0.312 -0.474,0.682 -0.467,1.156 0.024,1.638 0.01,3.277 0.01,4.916 0,1.702 0,3.405 0.002,5.107 0,0.128 0.001,0.259 0.033,0.381 0.103,0.394 0.354,0.46 0.637,0.176 1.528,-1.535 3.056,-3.07 4.584,-4.606 1.73,-1.738 3.461,-3.476 5.191,-5.214 0.503,-0.505 0.503,-1.06 0,-1.565 C 27.738,14.32 26.275,12.85 24.812,11.381 24.56,11.127 24.298,11 24.035,11 Z m 8.428,8.469 c -0.26,0 -0.521,0.121 -0.76,0.361 -1.471,1.478 -2.942,2.955 -4.412,4.434 -0.499,0.501 -0.5,1.048 -0.002,1.548 1.462,1.47 2.926,2.939 4.389,4.409 0.512,0.515 1.057,0.517 1.568,0.004 1.417,-1.424 2.834,-2.849 4.254,-4.27 0.212,-0.212 0.41,-0.428 0.5,-0.723 l 0,-0.384 c -0.089,-0.295 -0.286,-0.511 -0.498,-0.723 -1.429,-1.429 -2.853,-2.863 -4.279,-4.295 -0.24,-0.24 -0.5,-0.361 -0.76,-0.361 z m -17.588,0.392 c -0.1,0.016 -0.168,0.108 -0.24,0.182 -1.464,1.485 -2.928,2.97 -4.391,4.455 -0.3273,0.333 -0.3247,0.792 0.004,1.123 0.794,0.8 1.588,1.6 2.383,2.399 0.687,0.691 1.375,1.384 2.064,2.074 0.197,0.196 0.383,0.163 0.483,-0.098 0.051,-0.133 0.073,-0.283 0.074,-0.426 0.005,-1.503 0.004,-3.008 0.004,-4.511 l -0.002,0 c 0,-1.51 0.001,-3.018 0,-4.528 0,-0.098 -0.011,-0.199 -0.025,-0.297 -0.023,-0.157 -0.086,-0.299 -0.243,-0.359 -0.041,-0.016 -0.078,-0.019 -0.111,-0.014 z m 9.229,8.006 c -0.262,10e-4 -0.524,0.124 -0.768,0.369 -1.467,1.474 -2.934,2.947 -4.4,4.42 -0.506,0.509 -0.506,1.053 0.002,1.563 1.417,1.424 2.835,2.846 4.25,4.273 0.21,0.213 0.421,0.415 0.712,0.508 l 0.385,0 c 0.285,-0.081 0.495,-0.267 0.699,-0.473 1.427,-1.439 2.858,-2.873 4.287,-4.31 0.502,-0.504 0.5,-1.058 -0.003,-1.565 -1.467,-1.473 -2.934,-2.946 -4.401,-4.42 -0.242,-0.243 -0.502,-0.366 -0.763,-0.365 z"
         id="path17"
         inkscape:connector-curvature="0"
         style="clip-rule:evenodd;fill:#31afe1;fill-rule:evenodd" />
    </g>
    <g
       transform="matrix(0.15006,0,0,0.15064,-8.9765,-18.63)"
       id="g4224"
       style="opacity:0.3;fill:url(#linearGradient4186)">
      <path
         transform="matrix(6.6641,0,0,6.6385,59.821,123.68)"
         d="m 24.035,11 c -0.263,0 -0.526,0.127 -0.779,0.381 -1.076,1.08 -2.151,2.16 -3.227,3.24 -0.271,0.273 -0.528,0.565 -0.818,0.817 -0.361,0.312 -0.474,0.682 -0.467,1.156 0.024,1.638 0.01,3.277 0.01,4.916 0,1.702 0,3.405 0.002,5.107 0,0.128 0.001,0.259 0.033,0.381 0.103,0.394 0.354,0.46 0.637,0.176 1.528,-1.535 3.056,-3.07 4.584,-4.606 1.73,-1.738 3.461,-3.476 5.191,-5.214 0.503,-0.505 0.503,-1.06 0,-1.565 C 27.738,14.32 26.275,12.85 24.812,11.381 24.56,11.127 24.298,11 24.035,11 Z M 24,11.996 C 23.991,11.991 24.006,12 24.035,12 c 0.04,0 0.034,0 0,0.025 0.017,0.013 0.026,0.019 0.069,0.061 1.462,1.469 2.925,2.939 4.388,4.408 0.046,0.046 0.055,0.06 0.067,0.076 0.018,-0.027 0.019,-0.032 0.019,0 0,0.033 0,0.028 -0.019,0 -0.012,0.017 -0.021,0.032 -0.067,0.078 -1.729,1.739 -3.461,3.477 -5.191,5.215 -1.182,1.188 -2.363,2.376 -3.545,3.563 -0.001,-1.306 -0.002,-2.61 -0.002,-3.916 0,-1.633 0.015,-3.278 -0.01,-4.932 -0.004,-0.303 -0.023,-0.26 0.121,-0.385 a 1.0001,1.0001 0 0 0 0.002,0 c 0.358,-0.31 0.628,-0.622 0.871,-0.867 1.075,-1.08 2.151,-2.16 3.227,-3.24 0.042,-0.042 0.053,-0.048 0.07,-0.061 C 24.027,12.019 24.003,11.998 24,11.996 Z m 8.463,7.473 c -0.26,0 -0.521,0.121 -0.76,0.361 -1.471,1.478 -2.942,2.955 -4.412,4.434 -0.499,0.501 -0.5,1.048 -0.002,1.548 1.462,1.47 2.926,2.939 4.389,4.409 0.512,0.515 1.057,0.517 1.568,0.004 1.417,-1.424 2.834,-2.849 4.254,-4.27 0.212,-0.212 0.41,-0.428 0.5,-0.723 l 0,-0.384 c -0.089,-0.295 -0.286,-0.511 -0.498,-0.723 -1.429,-1.429 -2.853,-2.863 -4.279,-4.295 -0.24,-0.24 -0.5,-0.361 -0.76,-0.361 z m -17.588,0.392 c -0.1,0.016 -0.168,0.108 -0.24,0.182 -1.464,1.485 -2.928,2.97 -4.391,4.455 -0.3273,0.333 -0.3247,0.792 0.004,1.123 0.794,0.8 1.588,1.6 2.383,2.399 0.687,0.691 1.375,1.384 2.064,2.074 0.197,0.196 0.383,0.163 0.483,-0.098 0.051,-0.133 0.073,-0.283 0.074,-0.426 0.005,-1.503 0.004,-3.008 0.004,-4.511 l -0.002,0 c 0,-1.51 0.001,-3.018 0,-4.528 0,-0.098 -0.011,-0.199 -0.025,-0.297 -0.023,-0.157 -0.086,-0.299 -0.243,-0.359 -0.041,-0.016 -0.078,-0.019 -0.111,-0.014 z m 17.557,0.602 c -0.007,-0.004 0.006,0.006 0.031,0.006 0.034,0 0.029,-0.002 0,0.021 0.013,0.011 0.019,0.013 0.051,0.045 1.425,1.431 2.851,2.866 4.281,4.297 0.129,0.129 0.137,0.159 0.168,0.207 -0.032,0.049 -0.041,0.08 -0.17,0.209 -1.422,1.422 -2.839,2.848 -4.256,4.272 -0.044,0.043 -0.055,0.049 -0.072,0.062 0.033,0.025 0.039,0.026 0,0.025 -0.04,0 -0.034,0 0,-0.025 -0.018,-0.013 -0.032,-0.02 -0.078,-0.066 -1.463,-1.47 -2.927,-2.939 -4.389,-4.409 -0.041,-0.041 -0.047,-0.052 -0.059,-0.068 -0.023,0.031 -0.023,0.036 -0.023,0 0,-0.036 0.001,-0.031 0.023,0 0.013,-0.016 0.019,-0.028 0.061,-0.07 1.47,-1.479 2.941,-2.956 4.412,-4.434 0.032,-0.032 0.038,-0.034 0.051,-0.045 -0.008,-0.006 -0.029,-0.026 -0.031,-0.027 z m -18.178,1.391 0,3.205 a 1.0001,1.0001 0 0 0 0.002,0.033 c 0,1.048 -10e-4,2.094 -0.002,3.14 -0.305,-0.306 -0.609,-0.611 -0.914,-0.918 -0.748,-0.751 -1.495,-1.505 -2.242,-2.257 1.051,-1.068 2.104,-2.136 3.156,-3.203 z m 9.85,6.013 c -0.262,10e-4 -0.524,0.124 -0.768,0.369 -1.467,1.474 -2.934,2.947 -4.4,4.42 -0.506,0.509 -0.506,1.053 0.002,1.563 1.417,1.424 2.835,2.846 4.25,4.273 0.21,0.213 0.421,0.415 0.712,0.508 l 0.385,0 c 0.285,-0.081 0.495,-0.267 0.699,-0.473 1.427,-1.439 2.858,-2.873 4.287,-4.31 0.502,-0.504 0.5,-1.058 -0.003,-1.565 -1.467,-1.473 -2.934,-2.946 -4.401,-4.42 -0.242,-0.243 -0.502,-0.366 -0.763,-0.365 z m -0.032,0.994 c -0.005,-0.004 0.009,0.006 0.035,0.006 0.035,0 0.029,10e-4 -0.002,0.024 0.014,0.011 0.02,0.013 0.053,0.047 1.467,1.473 2.935,2.946 4.401,4.419 0.047,0.048 0.056,0.064 0.068,0.081 0.02,-0.028 0.019,-0.033 0.019,0 10e-4,0.031 0,0.027 -0.019,0 -0.012,0.016 -0.02,0.029 -0.065,0.074 -1.428,1.435 -2.861,2.87 -4.289,4.31 -0.113,0.115 -0.13,0.115 -0.169,0.141 -0.047,-0.032 -0.072,-0.039 -0.206,-0.174 -1.415,-1.429 -2.835,-2.852 -4.252,-4.275 -0.045,-0.046 -0.053,-0.061 -0.066,-0.078 -0.023,0.031 -0.023,0.037 -0.023,0 0,-0.037 0,-0.032 0.023,0 0.013,-0.017 0.02,-0.03 0.065,-0.075 1.466,-1.473 2.933,-2.946 4.4,-4.42 0.036,-0.036 0.045,-0.039 0.06,-0.05 -0.008,-0.007 -0.031,-0.028 -0.033,-0.03 z"
         id="path4226"
         style="clip-rule:evenodd;fill:url(#linearGradient4184)"
         inkscape:connector-curvature="0" />
    </g>
  </g>
</svg>
