<?xml version="1.0" encoding="UTF-8" standalone="no"?>
<!-- Created with Inkscape (http://www.inkscape.org/) -->

<svg
   xmlns:dc="http://purl.org/dc/elements/1.1/"
   xmlns:cc="http://creativecommons.org/ns#"
   xmlns:rdf="http://www.w3.org/1999/02/22-rdf-syntax-ns#"
   xmlns:svg="http://www.w3.org/2000/svg"
   xmlns="http://www.w3.org/2000/svg"
   xmlns:xlink="http://www.w3.org/1999/xlink"
   xmlns:sodipodi="http://sodipodi.sourceforge.net/DTD/sodipodi-0.dtd"
   xmlns:inkscape="http://www.inkscape.org/namespaces/inkscape"
   width="48"
   height="48"
   id="svg4290"
   version="1.1"
   inkscape:version="0.91 r"
   viewBox="0 0 48 48"
   sodipodi:docname="libreoffice-impress-48.svg">
  <defs
     id="defs4292">
    <linearGradient
       inkscape:collect="always"
       id="linearGradient4886">
      <stop
         style="stop-color:#000000;stop-opacity:1;"
         offset="0"
         id="stop4888" />
      <stop
         style="stop-color:#000000;stop-opacity:0;"
         offset="1"
         id="stop4890" />
    </linearGradient>
    <linearGradient
       inkscape:collect="always"
       id="linearGradient4876">
      <stop
         style="stop-color:#000000;stop-opacity:0"
         offset="0"
         id="stop4878" />
      <stop
         id="stop4884"
         offset="0.4919357"
         style="stop-color:#000000;stop-opacity:1" />
      <stop
         style="stop-color:#000000;stop-opacity:0;"
         offset="1"
         id="stop4880" />
    </linearGradient>
    <linearGradient
       inkscape:collect="always"
       id="linearGradient4858">
      <stop
         style="stop-color:#ffffff;stop-opacity:1;"
         offset="0"
         id="stop4860" />
      <stop
         id="stop4866"
         offset="0.17169811"
         style="stop-color:#ffffff;stop-opacity:0.23529412" />
      <stop
         style="stop-color:#ffffff;stop-opacity:0.15686275"
         offset="0.83396226"
         id="stop4868" />
      <stop
         style="stop-color:#ffffff;stop-opacity:0.39215687"
         offset="1"
         id="stop4862" />
    </linearGradient>
    <linearGradient
       inkscape:collect="always"
       xlink:href="#linearGradient4876"
       id="linearGradient4882"
       x1="-18.285713"
       y1="25.535713"
       x2="-18.285713"
       y2="29.964285"
       gradientUnits="userSpaceOnUse" />
    <radialGradient
       inkscape:collect="always"
       xlink:href="#linearGradient4886"
       id="radialGradient4892"
       cx="-31.142857"
       cy="27.678572"
       fx="-31.142857"
       fy="27.678572"
       r="3"
       gradientTransform="matrix(-1.9940476,0,0,-0.75,-93.243196,48.473215)"
       gradientUnits="userSpaceOnUse" />
    <radialGradient
       inkscape:collect="always"
       xlink:href="#linearGradient4886"
       id="radialGradient4896"
       gradientUnits="userSpaceOnUse"
       gradientTransform="matrix(-1.9940476,0,0,-0.75,-62.957483,48.473215)"
       cx="-31.142857"
       cy="27.678572"
       fx="-31.142857"
       fy="27.678572"
       r="3" />
    <linearGradient
       id="linearGradient3767">
      <stop
         style="stop-color:#ffffff;stop-opacity:1;"
         offset="0"
         id="stop3769" />
      <stop
         id="stop3777"
         offset="0.08994294"
         style="stop-color:#ffffff;stop-opacity:0.23529412;" />
      <stop
         id="stop3775"
         offset="0.87385589"
         style="stop-color:#ffffff;stop-opacity:0.15686275;" />
      <stop
         style="stop-color:#ffffff;stop-opacity:0.39215687;"
         offset="1"
         id="stop3771" />
    </linearGradient>
    <radialGradient
       inkscape:collect="always"
       xlink:href="#linearGradient4613"
       id="radialGradient4187"
       gradientUnits="userSpaceOnUse"
       gradientTransform="matrix(4.8111532e-8,2.5641025,-1.7948718,3.3678073e-8,47.210794,-47.490769)"
       cx="21.641401"
       cy="12.374586"
       fx="21.641401"
       fy="12.374586"
       r="19.5" />
    <linearGradient
       inkscape:collect="always"
       xlink:href="#linearGradient4858"
       id="linearGradient4196"
       gradientUnits="userSpaceOnUse"
       x1="23.780001"
       y1="6.3847361"
       x2="23.780001"
       y2="43.944736" />
    <linearGradient
       id="linearGradient4613">
      <stop
         id="stop4615"
         style="stop-color:#f08223;stop-opacity:1"
         offset="0" />
      <stop
         id="stop4617"
         style="stop-color:#f0370a;stop-opacity:1"
         offset="1" />
    </linearGradient>
  </defs>
  <sodipodi:namedview
     id="base"
     pagecolor="#ffffff"
     bordercolor="#666666"
     borderopacity="1.0"
     inkscape:pageopacity="0.0"
     inkscape:pageshadow="2"
     inkscape:zoom="2.914765"
     inkscape:cx="20.788047"
     inkscape:cy="19.833397"
     inkscape:current-layer="layer1"
     showgrid="true"
     inkscape:grid-bbox="true"
     inkscape:document-units="px"
     inkscape:window-width="1366"
     inkscape:window-height="713"
     inkscape:window-x="0"
     inkscape:window-y="30"
     inkscape:window-maximized="1">
    <inkscape:grid
       type="xygrid"
       id="grid4179" />
  </sodipodi:namedview>
  <metadata
     id="metadata4295">
    <rdf:RDF>
      <cc:Work
         rdf:about="">
        <dc:format>image/svg+xml</dc:format>
        <dc:type
           rdf:resource="http://purl.org/dc/dcmitype/StillImage" />
        <dc:title></dc:title>
      </cc:Work>
    </rdf:RDF>
  </metadata>
  <g
     id="layer1"
     inkscape:label="Layer 1"
     inkscape:groupmode="layer">
    <g
       id="g4898"
       transform="translate(39.142857,16.178572)"
       style="opacity:0.4">
      <rect
         y="25.571428"
         x="-31.142857"
         height="4.5"
         width="32"
         id="rect4870"
         style="opacity:1;fill:url(#linearGradient4882);fill-opacity:1;stroke:none;stroke-width:3;stroke-linejoin:round;stroke-miterlimit:4;stroke-dasharray:none;stroke-opacity:1" />
      <rect
         style="opacity:1;fill:url(#radialGradient4892);fill-opacity:1;stroke:none;stroke-width:3;stroke-linejoin:round;stroke-miterlimit:4;stroke-dasharray:none;stroke-opacity:1"
         id="rect4874"
         width="6"
         height="4.5"
         x="-37.142857"
         y="25.571428" />
      <rect
         transform="scale(-1,1)"
         y="25.571428"
         x="-6.8571434"
         height="4.5"
         width="6"
         id="rect4894"
         style="opacity:1;fill:url(#radialGradient4896);fill-opacity:1;stroke:none;stroke-width:3;stroke-linejoin:round;stroke-miterlimit:4;stroke-dasharray:none;stroke-opacity:1" />
    </g>
    <path
       style="opacity:1;fill:url(#radialGradient4187);fill-opacity:1.0;stroke:none;stroke-width:3;stroke-linejoin:round;stroke-miterlimit:4;stroke-dasharray:none;stroke-opacity:1"
       d="M 6.5 5.5 C 5.392 5.5 4.5 6.392 4.5 7.5 L 4.5 42.5 C 4.5 43.608 5.392 44.5 6.5 44.5 L 41.5 44.5 C 42.608 44.5 43.5 43.608 43.5 42.5 L 43.5 22 L 27 5.5 L 6.5 5.5 z M 33 5.5 L 43.5 16 L 43.5 7.5 C 43.5 6.392 42.608 5.5 41.5 5.5 L 33 5.5 z "
       id="rect4181" />
    <path
       id="path4190"
       d="M 6.5 5.5 C 5.392 5.5 4.5 6.392 4.5 7.5 L 4.5 42.5 C 4.5 43.608 5.392 44.5 6.5 44.5 L 41.5 44.5 C 42.608 44.5 43.5 43.608 43.5 42.5 L 43.5 22 L 27 5.5 L 6.5 5.5 z M 33 5.5 L 43.5 16 L 43.5 7.5 C 43.5 6.392 42.608 5.5 41.5 5.5 L 33 5.5 z "
       style="opacity:0.6;fill:none;fill-opacity:1;stroke:#963c00;stroke-width:1;stroke-linejoin:round;stroke-miterlimit:4;stroke-dasharray:none;stroke-opacity:1" />
    <path
       style="opacity:0.4;fill:none;fill-opacity:1;stroke:url(#linearGradient4196);stroke-width:1;stroke-linejoin:miter;stroke-miterlimit:4;stroke-dasharray:none;stroke-opacity:1"
       d="M 6.5 6.5 C 5.946 6.5 5.5 6.946 5.5 7.5 L 5.5 42.5 C 5.5 43.054 5.946 43.5 6.5 43.5 L 41.5 43.5 C 42.054 43.5 42.5 43.054 42.5 42.5 L 42.5 22.400391 L 26.599609 6.5 L 6.5 6.5 z M 35.400391 6.5 L 42.5 13.599609 L 42.5 7.5 C 42.5 6.946 42.054 6.5 41.5 6.5 L 35.400391 6.5 z "
       id="rect4192" />
    <path
       style="opacity:0.07;fill:#000000;fill-opacity:1;stroke:#000000;stroke-width:1;stroke-linecap:butt;stroke-linejoin:round;stroke-miterlimit:4;stroke-dasharray:none;stroke-opacity:1"
       d="m 22.413784,19 a 9.5,9.5 0 0 0 -9.089843,7.041016 9.5,9.5 0 0 0 4.425781,10.685546 9.5,9.5 0 0 0 11.466797,-1.509765 L 22.499722,28.5 l 0,-9.5 a 9.5,9.5 0 0 0 -0.08594,0 z m 1.585938,5 0,2 11,0 0,-2 -11,0 z m 3,4 0,2 8,0 0,-2 -8,0 z m 3,4 0,2 5,0 0,-2 -5,0 z m 0,4 0,2 5,0 0,-2 -5,0 z"
       id="path4202"
       inkscape:connector-curvature="0" />
    <path
       inkscape:connector-curvature="0"
       id="path4200"
       d="m 22.413784,19 a 9.5,9.5 0 0 0 -9.089843,7.041016 9.5,9.5 0 0 0 4.425781,10.685546 9.5,9.5 0 0 0 11.466797,-1.509765 L 22.499722,28.5 l 0,-9.5 a 9.5,9.5 0 0 0 -0.08594,0 z m 1.585938,5 0,2 11,0 0,-2 -11,0 z m 3,4 0,2 8,0 0,-2 -8,0 z m 3,4 0,2 5,0 0,-2 -5,0 z m 0,4 0,2 5,0 0,-2 -5,0 z"
       style="opacity:0.15000007;fill:#000000;fill-opacity:1;stroke:none;stroke-width:1;stroke-linecap:butt;stroke-linejoin:round;stroke-miterlimit:4;stroke-dasharray:none;stroke-opacity:1" />
    <path
       style="opacity:1;fill:#ffffff;fill-opacity:1;stroke:none;stroke-width:1;stroke-linecap:butt;stroke-linejoin:round;stroke-miterlimit:4;stroke-dasharray:none;stroke-opacity:1"
       d="m 22.413784,18 a 9.5,9.5 0 0 0 -9.089843,7.041016 9.5,9.5 0 0 0 4.425781,10.685546 9.5,9.5 0 0 0 11.466797,-1.509765 L 22.499722,27.5 l 0,-9.5 a 9.5,9.5 0 0 0 -0.08594,0 z m 1.585938,5 0,2 11,0 0,-2 -11,0 z m 3,4 0,2 8,0 0,-2 -8,0 z m 3,4 0,2 5,0 0,-2 -5,0 z m 0,4 0,2 5,0 0,-2 -5,0 z"
       id="path4189"
       inkscape:connector-curvature="0" />
  </g>
</svg>
