<?xml version="1.0" encoding="UTF-8" standalone="no"?>
<!-- Created with Inkscape (http://www.inkscape.org/) -->

<svg
   xmlns:dc="http://purl.org/dc/elements/1.1/"
   xmlns:cc="http://creativecommons.org/ns#"
   xmlns:rdf="http://www.w3.org/1999/02/22-rdf-syntax-ns#"
   xmlns:svg="http://www.w3.org/2000/svg"
   xmlns="http://www.w3.org/2000/svg"
   xmlns:sodipodi="http://sodipodi.sourceforge.net/DTD/sodipodi-0.dtd"
   xmlns:inkscape="http://www.inkscape.org/namespaces/inkscape"
   id="svg3143"
   height="48"
   width="48"
   version="1.1"
   inkscape:version="0.91 r13725"
   sodipodi:docname="motorbike.svg">
  <sodipodi:namedview
     pagecolor="#ffffff"
     bordercolor="#666666"
     borderopacity="1"
     objecttolerance="10"
     gridtolerance="10"
     guidetolerance="10"
     inkscape:pageopacity="0"
     inkscape:pageshadow="2"
     inkscape:window-width="1535"
     inkscape:window-height="876"
     id="namedview41"
     showgrid="false"
     inkscape:zoom="9.8603159"
     inkscape:cx="10.599336"
     inkscape:cy="24"
     inkscape:window-x="65"
     inkscape:window-y="24"
     inkscape:window-maximized="1"
     inkscape:current-layer="svg3143" />
  <defs
     id="defs3145">
    <linearGradient
       id="linearGradient3044"
       y2="43"
       gradientUnits="userSpaceOnUse"
       x2="24"
       gradientTransform="translate(5.3e-6,0)"
       y1="5"
       x1="24">
      <stop
         id="stop3926-7"
         stop-color="#fff"
         offset="0" />
      <stop
         id="stop3928-3"
         stop-color="#fff"
         stop-opacity=".23529"
         offset=".063165" />
      <stop
         id="stop3930-7"
         stop-color="#fff"
         stop-opacity=".15686"
         offset=".95056" />
      <stop
         id="stop3932-1"
         stop-color="#fff"
         stop-opacity=".39216"
         offset="1" />
    </linearGradient>
    <radialGradient
       id="radialGradient3053"
       gradientUnits="userSpaceOnUse"
       cy="9.9941"
       cx="8.2761"
       gradientTransform="matrix(0,6.6678,-8.1859,0,105.88,-60.463)"
       r="12.672">
      <stop
         id="stop3244"
         stop-color="#7ec1f8"
         offset="0" />
      <stop
         id="stop3246"
         stop-color="#4f97e3"
         offset=".26238" />
      <stop
         id="stop3248"
         stop-color="#2674c6"
         offset=".66094" />
      <stop
         id="stop3250"
         stop-color="#0b4169"
         offset="1" />
    </radialGradient>
    <linearGradient
       id="linearGradient4214"
       y2="47.226"
       gradientUnits="userSpaceOnUse"
       x2="23.799"
       y1="-1.8306"
       x1="25.239">
      <stop
         id="stop2240"
         stop-color="#fff"
         offset="0" />
      <stop
         id="stop2242"
         stop-color="#fff"
         stop-opacity="0"
         offset="1" />
    </linearGradient>
  </defs>
  <metadata
     id="metadata3148">
    <rdf:RDF>
      <cc:Work
         rdf:about="">
        <dc:format>image/svg+xml</dc:format>
        <dc:type
           rdf:resource="http://purl.org/dc/dcmitype/StillImage" />
        <dc:title />
      </cc:Work>
    </rdf:RDF>
  </metadata>
  <rect
     id="rect4376"
     style="color:#000000;fill:#a3d25b"
     rx="2"
     ry="2"
     height="39"
     width="39"
     y="4.5"
     x="4.5" />
  <path
     inkscape:connector-curvature="0"
     id="rect5505-21"
     style="color:#000000;fill:url(#radialGradient3053)"
     d="m 6.5,4.5 c -1.108,0 -2,0.892 -2,2 l 0,28.635 c 1.2383,-0.325 2.5429,-0.629 3.9688,-0.887 4.3992,-0.797 6.9922,2.051 14.867,2.156 7.021,0.094 10.063,-3.046 14.148,-2.398 2.204,0.349 4.222,0.781 6.016,1.279 l 0,-28.785 c 0,-1.108 -0.892,-2 -2,-2 l -35,0 z" />
  <rect
     style="opacity:0.5;fill:none;stroke:url(#linearGradient3044);stroke-linecap:round;stroke-linejoin:round"
     id="rect6741-2"
     rx="1"
     ry="1"
     height="37"
     width="37"
     y="5.5"
     x="5.5" />
  <rect
     id="rect5505-21-1"
     style="color:#000000;opacity:0.4;fill:none;stroke:#0035a4;stroke-linecap:round;stroke-linejoin:round"
     rx="2"
     ry="2"
     height="39"
     width="39"
     y="4.5"
     x="4.5" />
  <g
     style="opacity:0.3;fill:none;stroke:#ffffff;stroke-width:1.18690002;stroke-linecap:round;stroke-linejoin:round;stroke-opacity:1"
     id="g4200"
     transform="matrix(0.86401,0,0,0.82153,2.3599,5.6036)">
    <path
       inkscape:connector-curvature="0"
       id="path4202"
       style="color:#000000;text-indent:0;text-decoration:none;text-decoration-line:none;text-decoration-style:solid;text-decoration-color:#000000;text-transform:none;block-progression:tb;white-space:normal;opacity:1;isolation:auto;mix-blend-mode:normal;solid-color:#000000;fill:url(#linearGradient4214);color-rendering:auto;image-rendering:auto;shape-rendering:auto;stroke:#ffffff;stroke-opacity:1"
       d="m 18.733,7.1822 c -0.56158,-0.03623 -1.1436,0.090444 -1.6705,0.39466 -1.4045,0.8109 -1.924,2.6619 -1.1054,4.0797 0.35081,0.60762 0.93136,0.94156 1.5326,1.1721 -0.04262,0.01963 -0.09718,-0.0045 -0.13789,0.01902 l 0,-0.0024 -0.41368,0.23774 a 0.57876,0.60869 0 0 0 0,0.0024 c -0.86459,0.49917 -1.3222,1.4246 -1.8627,2.6199 a 0.57876,0.60869 0 0 0 -0.0045,0.0095 c -0.37065,0.85281 -0.86978,1.9053 -1.44,3.2167 -0.54634,1.2083 0.17038,2.3113 1.1981,2.8957 -2.2536,1.045 -4.9727,2.4188 -5.032,2.4511 -7.454e-4,4.07e-4 -0.063296,0.03091 -0.063296,0.03091 a 0.57876,0.60869 0 0 0 0.47019,1.1103 c 0.65341,-0.2575 1.2693,-0.35091 1.8491,-0.38752 -0.12422,0.15511 -0.29858,0.28817 -0.35038,0.46598 -0.09491,0.32571 -0.05445,0.64033 0.02261,0.87965 0.1541,0.47865 0.45889,0.76791 0.45889,0.76791 a 0.57876,0.60869 0 0 0 0.39333,0.17355 l 3.5626,0.06657 c -0.24517,0.09736 -0.51045,0.03757 -0.74598,0.17355 -2.5731,1.4856 -3.5006,4.8184 -2.0164,7.3891 1.4841,2.5705 4.7629,3.4134 7.3355,1.9281 2.5613,-1.4787 3.483,-4.785 2.0277,-7.351 l 0.96299,-0.80357 c 0.03796,0.004 0.08118,1.66e-4 0.30743,0.05944 0.499,0.13019 0.93856,-0.08532 1.2162,-0.29718 l -0.22832,0.10461 c 0.50545,-0.10327 1.5858,-0.37523 2.69,-1.0128 0.8573,-0.49496 1.7335,-1.2158 2.308,-2.2776 a 0.57876,0.60869 0 0 0 0.0023,-0.0024 c 0.31625,-0.58522 0.36305,-1.2626 0.43176,-1.9329 0.09493,0.24069 0.03891,0.50446 0.1718,0.73463 1.4844,2.5711 4.765,3.4158 7.3377,1.9305 2.5725,-1.4852 3.5007,-4.8183 2.0164,-7.3891 -1.4846,-2.5714 -4.765,-3.4158 -7.3377,-1.9305 -0.20133,0.11624 -0.36743,0.26474 -0.54705,0.40179 l -0.5674,-0.49688 c 0.86577,-1.0569 1.7739,-1.8216 1.831,-1.8544 l 0.46567,-0.01426 a 0.57876,0.60869 0 0 0 0.22379,-0.05468 l 1.737,-0.83 a 0.57876,0.60869 0 0 0 -0.06104,-1.1317 c -0.59579,-0.20361 -1.2303,-0.1215 -1.8762,0.04517 -0.64597,0.16667 -1.3073,0.43813 -1.9102,0.72274 -0.50076,0.2364 -0.53912,0.29187 -0.90874,0.50164 -0.15206,-0.22336 -0.52937,-0.84751 -1.5982,-1.5881 -1.1881,-0.82322 -2.1376,-1.1443 -2.1837,-1.1602 -0.32814,-0.59003 -0.65764,-1.1773 -0.94265,-1.7736 l 0,-0.00238 c -0.0861,-0.17994 -0.1407,-0.22179 -0.05877,-0.095097 l 0.0746,0.16167 c -0.09,-0.3054 -0.468,-0.6003 -0.816,-0.5747 -0.41638,0.031 -0.87944,0.083893 -1.345,0.32333 a 0.57876,0.60869 0 0 0 -0.0023,0 c -0.36557,0.18837 -0.52248,0.58386 -0.42046,0.9795 0.05316,0.20754 0.19025,0.37529 0.27353,0.57058 l 0.18084,-0.12838 c -0.06531,0.02427 -0.11542,0.09623 -0.17632,0.13789 0.0028,0.0065 0.0062,0.01254 0.009,0.01902 -0.0109,0.0103 -0.03529,-0.0013 -0.04521,0.0095 -0.06782,0.05213 -0.14579,0.07567 -0.20119,0.15691 -0.11399,0.16718 -0.1764,0.41556 -0.13789,0.64191 0.0022,0.01299 -1.27e-4,0.08178 0,0.23061 1.28e-4,0.14883 0.01832,0.39358 0.14242,0.62764 0.18222,0.34368 0.49476,0.45248 0.75954,0.52541 l -1.44,0.82735 -4.0125,-1.0437 c 0.30572,-0.06266 0.61904,0.04102 0.90422,-0.12363 1.4042,-0.81073 1.9266,-2.6613 1.1077,-4.0797 -0.51183,-0.88651 -1.4103,-1.397 -2.3464,-1.4574 z m -0.07234,1.2172 c 0.5858,0.037794 1.1277,0.35123 1.4287,0.87252 0.48157,0.83411 0.20437,1.8753 -0.67364,2.3822 -0.87775,0.50677 -1.9865,0.20482 -2.4685,-0.63002 -0.48188,-0.83464 -0.20634,-1.8754 0.67138,-2.3822 0.32893,-0.18991 0.6905,-0.26518 1.0421,-0.2425 z m 6.6957,1.8235 c 0.09891,0.20154 0.20883,0.3899 0.31196,0.58723 a 0.57876,0.60869 0 0 0 -0.19893,0.28054 c -0.01048,0.03006 -0.02689,0.06644 -0.03843,0.09748 a 0.57876,0.60869 0 0 0 -0.0972,-0.1902 c -0.15536,-0.20837 -0.23567,-0.45504 -0.3323,-0.69421 0.11169,-0.0288 0.22354,-0.06558 0.3549,-0.08083 z m -0.28031,1.7213 a 0.57876,0.60869 0 0 0 0,0.0048 c -0.0032,-9.9e-5 -0.0059,1.11e-4 -0.009,0 a 0.57876,0.60869 0 0 0 0.009,-0.0048 z m 2.299,0.73463 c 0.3131,0.12777 0.61406,0.2064 1.397,0.74889 0.79017,0.54753 0.95608,0.86408 1.1416,1.1174 l -0.23962,0.19733 a 0.57876,0.60869 0 0 0 0.66008,0.99852 c 0,0 0.48933,-0.2591 0.6533,-0.35899 -0.2821,0.31796 -0.54177,0.50383 -0.81832,0.92482 a 0.57876,0.60869 0 0 0 -0.04521,0.60862 0.57876,0.60869 0 0 0 -0.49054,0.32096 c -0.35796,0.70054 -0.66755,1.5128 -0.87483,2.4416 a 0.57876,0.60869 0 0 0 -0.0023,0.0071 0.57876,0.60869 0 0 0 -0.03617,-0.02853 c -0.31838,-0.23048 -0.87554,-0.50766 -1.6005,-0.44458 -0.72394,0.06299 -1.5689,0.46227 -2.464,1.4051 -1.006,1.0598 -1.1794,2.4689 -1.0285,3.6803 0.15082,1.2114 0.60156,2.2849 0.90874,2.9242 a 0.57876,0.60869 0 0 0 0.15372,0.1997 0.57876,0.60869 0 0 0 -0.14015,0.07846 c -0.13045,0.09955 -0.19911,0.11752 -0.2577,0.10223 -0.35459,-0.09289 -0.55425,-0.12651 -0.75276,-0.11412 -0.09925,0.0062 -0.20832,0.02013 -0.34134,0.10461 -0.03101,0.01969 -0.05759,0.0591 -0.08816,0.08797 l 0.01582,-0.03091 -1.5168,1.2648 a 0.57876,0.60869 0 0 0 -0.09947,0.84637 c 0.08247,0.11359 0.15851,0.23417 0.23058,0.35899 1.1474,1.9873 0.46388,4.5102 -1.5824,5.6916 -2.0456,1.181 -4.6421,0.49148 -5.7892,-1.4954 -1.1471,-1.9868 -0.46365,-4.5103 1.5824,-5.6916 1.5578,-0.89941 3.4417,-0.71029 4.7517,0.30669 a 0.57876,0.60869 0 0 0 0.74824,-0.05468 l 0.9969,-1.0223 a 0.57876,0.60869 0 0 0 -0.12659,-0.96762 l -1.743,-1.009 a 0.57876,0.60869 0 0 0 -0.14468,-0.05944 c 0,0 -0.42267,-0.10893 -0.94265,-0.10223 -0.51998,0.0067 -1.217,0.10899 -1.709,0.69897 l 0.44533,-0.20684 -5.3349,-0.10223 c -0.03229,-0.05042 -0.05421,-0.06495 -0.07234,-0.12125 -0.02164,-0.0672 -0.02234,-0.10063 -0.01356,-0.13076 0.004,-0.0138 0.06322,-0.06413 0.08364,-0.09272 l 2.8279,0.06657 a 0.57876,0.60869 0 0 0 0.30517,-1.134 c 0,0 -1.1195,-0.58704 -2.7036,-0.79406 1.2986,-0.66294 2.0154,-1.0955 3.2665,-1.5929 a 0.57876,0.60869 0 0 0 -0.21701,-1.1768 l -0.60808,0.01426 c -7.51e-4,-2.8e-5 -0.0015,2.9e-5 -0.0023,0 -0.85169,-0.0332 -1.4374,-0.91102 -1.0851,-1.6904 a 0.57876,0.60869 0 0 0 0.0045,-0.0095 c 0.5616,-1.2922 1.0551,-2.3318 1.44,-3.2167 l 0,-0.0024 c 9.17e-4,-0.0021 0.0036,-0.005 0.0045,-0.0071 0.52038,-1.1491 0.91476,-1.8026 1.3699,-2.066 l 0.41368,-0.23774 a 0.57876,0.60869 0 0 0 0,-0.0024 c 0.08674,-0.05008 0.19357,-0.06894 0.30291,-0.04042 l 4.8082,1.2529 a 0.57876,0.60869 0 0 0 0.4182,-0.05706 l 2.7059,-1.5596 a 0.57876,0.60869 0 0 0 0.16954,-0.14502 0.57876,0.60869 0 0 0 0.17858,-0.02377 c 0.09167,-0.0272 0.15525,-0.0272 0.19441,-0.01902 a 0.57876,0.60869 0 0 0 0.68946,-0.64191 z m -1.0308,1.5786 a 0.57876,0.60869 0 0 0 -0.26674,0.07608 l -2.5974,1.4978 c -0.09381,0.05416 -0.20475,0.06868 -0.30291,0.04279 l -0.82284,-0.21635 a 0.57876,0.60869 0 0 0 -0.04521,-0.01189 l -2.2764,-0.39466 a 0.57876,0.60869 0 0 0 -0.60357,0.31382 l -1.6547,3.2381 a 0.57876,0.60869 0 0 0 0.4069,0.88678 l 3.4677,0.6538 a 0.57876,0.60869 0 0 0 0.01808,0.0024 l 0.26448,0.04042 a 0.57876,0.60869 0 0 0 0.0045,0.0024 c -0.07677,-0.01126 -0.06851,-0.01096 0.03843,0.01664 a 0.57876,0.60869 0 0 0 0.47924,-0.09985 c 0.65526,-0.50262 1.2784,-1.1899 1.7813,-2.1587 0.71818,-1.3835 1.3377,-1.8358 1.6977,-1.9828 0.17997,-0.07351 0.30396,-0.07676 0.37525,-0.07132 0.07129,0.0054 0.04295,0 0.04295,0 a 0.57876,0.60869 0 0 0 0.80927,-0.54919 l 0.0045,-0.31858 a 0.57876,0.60869 0 0 0 -0.27352,-0.52541 c 0,0 0.0301,0.03513 0.01808,-0.0071 A 0.57876,0.60869 0 0 0 26.3442,14.25754 Z m -6.0922,2.2657 1.8446,0.32095 0.80023,0.20921 c 0.2517,0.06639 0.49346,-0.03833 0.7392,-0.10223 -0.14045,0.22195 -0.27732,0.3396 -0.4182,0.611 -0.38219,0.73627 -0.83287,1.1965 -1.3089,1.5905 l -0.06555,-0.0095 -2.6742,-0.50402 1.0828,-2.1159 z m 14.531,0.70848 c 1.6475,-0.21101 3.3236,0.5491 4.1843,2.0398 1.1471,1.9868 0.46294,4.5107 -1.5824,5.6916 -2.045,1.1807 -4.6442,0.4895 -5.7915,-1.4978 -0.8405,-1.4558 -0.68629,-3.1875 0.25092,-4.4862 a 0.57876,0.60869 0 0 0 0.10172,-0.50639 0.57876,0.60869 0 0 0 0.47245,-0.14027 c 0.22858,-0.20931 0.48092,-0.39914 0.75728,-0.5587 0.51128,-0.29519 1.0581,-0.47172 1.6072,-0.54206 z m 0.78215,0.2211 c -0.74636,-0.04852 -1.5174,0.12011 -2.2153,0.52304 -0.20546,0.11862 -0.39161,0.25135 -0.56061,0.39228 a 0.57876,0.60869 0 0 0 -0.20345,0.61576 0.57876,0.60869 0 0 0 -0.56966,0.25438 c -0.78441,1.2002 -0.88809,2.8051 -0.12885,4.1201 1.0795,1.8697 3.4589,2.478 5.3213,1.4027 1.8628,-1.0755 2.542,-3.5128 1.4626,-5.3825 -0.67471,-1.1686 -1.8631,-1.8449 -3.106,-1.9257 z m -5.1721,1.0841 0.32326,0.28292 c -0.3048,0.54541 -0.51962,1.1245 -0.62391,1.7379 -0.07515,-0.2386 -0.07439,-0.46091 -0.1718,-0.70372 0.11757,-0.49824 0.30078,-0.8991 0.47245,-1.3171 z m 5.0998,0.13314 c 0.89286,0.05804 1.7246,0.53791 2.1882,1.3409 0.74144,1.2842 0.30486,2.9152 -1.0285,3.685 -1.3338,0.77006 -3.0337,0.31419 -3.7751,-0.96999 -0.3929,-0.68052 -0.35537,-1.4279 -0.12659,-2.1231 l 1.8288,1.6024 c 0.35332,0.30902 0.83532,0.34137 1.2207,0.11887 0.10734,-0.06198 0.19172,-0.1342 0.26448,-0.21397 a 0.57876,0.60869 0 0 0 0.0045,-0.0048 c 0.39198,-0.44226 0.34701,-1.1843 -0.09268,-1.5715 a 0.57876,0.60869 0 0 0 0,-0.0024 l -1.779,-1.5596 c 0.42196,-0.18528 0.85858,-0.33032 1.2953,-0.30194 z m -8.2781,1.7545 c 0.33756,-0.02937 0.53904,0.09317 0.70981,0.19733 0.63247,1.5303 0.68677,2.7163 0.20345,3.6137 -0.57046,1.0582 -1.8138,1.6201 -2.7217,1.9233 -0.24426,-0.57223 -0.53262,-1.2332 -0.63069,-2.0208 -0.12309,-0.98866 0.0016,-1.9261 0.69851,-2.6604 0.75731,-0.79769 1.3355,-1.018 1.7406,-1.0532 z m -7.7084,6.5094 c 0.33372,-0.0043 0.56847,0.05452 0.61034,0.06419 l 0.96299,0.55632 -0.19667,0.20208 c -0.55248,-0.34322 -1.1536,-0.56025 -1.7858,-0.6847 0.14563,-0.04445 0.23562,-0.13566 0.40916,-0.13789 z m -1.223,1.3694 c -0.72763,-0.03766 -1.4778,0.12987 -2.1588,0.52304 -1.8618,1.0749 -2.5438,3.51 -1.4648,5.3801 1.0797,1.8702 3.4607,2.4806 5.3236,1.4051 1.8628,-1.0755 2.5422,-3.5126 1.4626,-5.3825 -0.05347,-0.09262 -0.10719,-0.17004 -0.15146,-0.23537 A 0.57876,0.60869 0 0 0 20.47396,29.86286 0.57876,0.60869 0 0 0 20.3225,29.0046 c -0.60421,-0.42386 -1.3115,-0.66369 -2.039,-0.70134 z m -0.05877,1.2172 c 0.25253,0.01307 0.46512,0.16128 0.70303,0.24012 l -1.9599,2.0089 a 0.57876,0.60869 0 0 0 -0.03165,0.83448 l 0.49958,0.60625 a 0.57876,0.60869 0 0 0 0.79571,0.07846 l 2.2922,-1.9115 c 0.39053,1.1813 0.06814,2.4968 -1.0964,3.1691 -1.3331,0.76966 -3.0358,0.312 -3.7774,-0.97237 -0.74099,-1.2843 -0.30252,-2.9129 1.0308,-3.6827 0.48763,-0.28153 1.0212,-0.39794 1.544,-0.37088 z" />
  </g>
  <g
     style="fill:#1f1f1f"
     id="g4436"
     transform="matrix(0.86401,0,0,0.82153,2.3599,5.6036)">
    <path
       inkscape:connector-curvature="0"
       id="path4211"
       d="m 28.295,21.185 -3.7703,2.1768 0.89467,2.9902 c 4.2023,-1.4942 2.8757,-5.167 2.8757,-5.167 z" />
    <path
       inkscape:connector-curvature="0"
       id="path4209"
       d="m 18.514,13.004 c -0.395,-0.024 -0.802,0.059 -1.172,0.262 -0.986,0.541 -1.33,1.729 -0.768,2.654 0.562,0.925 1.815,1.236 2.801,0.695 0.986,-0.541 1.331,-1.729 0.77,-2.654 -0.352,-0.578 -0.974,-0.917 -1.631,-0.957 z m 5.898,1.463 c -0.342,0.024 -0.669,0.065 -0.978,0.217 -0.085,0.041 -0.124,0.141 -0.102,0.224 0.101,0.376 0.281,0.73 0.523,1.039 -0.063,-0.04 -0.125,-0.081 -0.191,-0.119 -0.102,-0.057 -0.197,-0.022 -0.256,0.045 -0.093,0.033 -0.171,0.118 -0.15,0.234 0.033,0.189 -0.034,0.366 0.068,0.549 0.161,0.289 0.622,0.28 0.912,0.272 0.055,-0.002 0.098,-0.024 0.133,-0.053 0.123,0.121 0.228,0.256 0.336,0.389 l -2.338,1.281 -4.154,-1.029 c -0.219,-0.055 -0.44,-0.021 -0.623,0.08 l -0.358,0.195 c -0.571,0.314 -0.938,0.963 -1.398,1.93 -0.327,0.715 -0.758,1.577 -1.248,2.65 -0.46,0.967 0.303,2.066 1.373,2.104 l 0.553,-0.012 C 14.363,25.276 11,27.018 11,27.018 c 2.696,-1.011 4.953,0.304 4.953,0.304 l -2.648,-0.058 c -0.819,0.552 -0.069,1.283 -0.069,1.283 l 4.864,0.088 c 0.553,-0.631 1.8,-0.334 1.8,-0.334 l 1.504,0.828 -0.861,0.84 C 19.252,29.016 17.42,28.848 15.9,29.682 c -1.995,1.095 -2.691,3.501 -1.554,5.373 1.136,1.872 3.675,2.501 5.67,1.406 1.995,-1.096 2.691,-3.501 1.554,-5.373 -0.071,-0.118 -0.148,-0.23 -0.23,-0.338 l 1.31,-1.039 c 0,0 0.013,-0.088 0.577,0.053 0.24,0.059 0.46,-0.036 0.636,-0.164 0.404,-0.079 1.295,-0.294 2.18,-0.78 0.686,-0.376 1.365,-0.915 1.801,-1.681 0.664,-1.169 0.608,-2.602 -0.151,-4.256 0.169,-0.719 0.419,-1.344 0.709,-1.883 l 1.073,0.893 c -0.926,1.219 -1.08,2.876 -0.246,4.248 1.136,1.872 3.677,2.503 5.671,1.408 1.995,-1.095 2.692,-3.501 1.555,-5.373 -1.137,-1.873 -3.677,-2.504 -5.672,-1.408 -0.272,0.149 -0.519,0.325 -0.742,0.519 l -1.203,-1.002 c 0.988,-1.43 2.146,-2.053 2.146,-2.053 l 0.567,-0.015 1.502,-0.682 c -1.438,-0.467 -4.746,1.574 -4.746,1.574 l 0.656,-0.513 c 0,0 -0.471,-0.722 -1.469,-1.379 -0.998,-0.658 -1.808,-0.918 -1.808,-0.918 -0.016,0.072 -0.012,0.144 0,0.215 -0.37,-0.627 -0.739,-1.253 -1.065,-1.903 -0.004,-0.009 -0.012,-0.013 -0.017,-0.021 -0.023,-0.073 -0.086,-0.131 -0.192,-0.123 z m 0.422,1.42 c 0.223,0.391 0.452,0.78 0.68,1.17 -0.132,-0.026 -0.267,-0.013 -0.401,0.025 -0.178,-0.227 -0.372,-0.442 -0.59,-0.637 0.057,-0.021 0.106,-0.065 0.135,-0.131 0.063,-0.144 0.124,-0.286 0.176,-0.427 z m 0.297,2.929 c 0.06,0.201 0.199,0.288 0.199,0.288 l -0.004,0.261 c 0,0 -1.153,-0.5 -2.467,1.906 -0.399,0.733 -0.88,1.235 -1.394,1.61 -0.029,-0.007 -0.055,-0.019 -0.084,-0.024 l -0.229,-0.033 -2.996,-0.537 1.43,-2.66 1.967,0.324 0.711,0.178 c 0.21,0.053 0.433,0.022 0.623,-0.082 l 2.244,-1.231 z m 7.926,2.625 c 0.922,0.057 1.795,0.532 2.287,1.342 0.786,1.296 0.304,2.967 -1.076,3.725 -1.381,0.758 -3.143,0.321 -3.93,-0.975 -0.553,-0.911 -0.478,-2.007 0.096,-2.842 l 2.123,1.77 c 0.14,0.116 0.339,0.13 0.494,0.045 0.038,-0.021 0.075,-0.051 0.107,-0.084 0.156,-0.168 0.14,-0.42 -0.035,-0.567 L 31,22.086 c 0.128,-0.101 0.265,-0.196 0.414,-0.277 0.518,-0.285 1.089,-0.402 1.643,-0.368 z m -7.225,1.444 c 0.488,-0.041 0.849,0.134 1.059,0.279 0.669,1.437 0.745,2.646 0.207,3.596 -0.706,1.245 -2.295,1.783 -3.094,1.982 -0.501,-0.992 -1.46,-3.374 0.012,-4.847 0.713,-0.715 1.328,-0.97 1.816,-1.01 z m -7.701,7.47 c 0.54,0.027 1.066,0.197 1.51,0.493 l -2.272,2.213 0.432,0.498 2.551,-2.024 c 0.037,0.053 0.075,0.106 0.109,0.162 0.787,1.296 0.305,2.967 -1.076,3.725 -1.381,0.758 -3.145,0.319 -3.932,-0.977 -0.786,-1.295 -0.302,-2.965 1.078,-3.722 0.505,-0.277 1.06,-0.394 1.6,-0.368 z"
       transform="matrix(1.1574,0,0,1.2172,-2.7313,-8.0382)" />
  </g>
</svg>
