<?xml version="1.0" encoding="UTF-8" standalone="no"?>
<!-- Created with Inkscape (http://www.inkscape.org/) -->

<svg
   xmlns:dc="http://purl.org/dc/elements/1.1/"
   xmlns:cc="http://creativecommons.org/ns#"
   xmlns:rdf="http://www.w3.org/1999/02/22-rdf-syntax-ns#"
   xmlns:svg="http://www.w3.org/2000/svg"
   xmlns="http://www.w3.org/2000/svg"
   xmlns:xlink="http://www.w3.org/1999/xlink"
   xmlns:sodipodi="http://sodipodi.sourceforge.net/DTD/sodipodi-0.dtd"
   xmlns:inkscape="http://www.inkscape.org/namespaces/inkscape"
   id="svg4951"
   height="48px"
   width="48px"
   version="1.1"
   inkscape:version="0.91 r13725"
   sodipodi:docname="mpv.svg">
  <sodipodi:namedview
     pagecolor="#ffffff"
     bordercolor="#666666"
     borderopacity="1"
     objecttolerance="10"
     gridtolerance="10"
     guidetolerance="10"
     inkscape:pageopacity="0"
     inkscape:pageshadow="2"
     inkscape:window-width="1535"
     inkscape:window-height="876"
     id="namedview33"
     showgrid="false"
     inkscape:zoom="4.9166667"
     inkscape:cx="-10.779661"
     inkscape:cy="24"
     inkscape:window-x="65"
     inkscape:window-y="24"
     inkscape:window-maximized="1"
     inkscape:current-layer="svg4951" />
  <defs
     id="defs4953">
    <radialGradient
       id="radialGradient3093-0-3-6-3"
       gradientUnits="userSpaceOnUse"
       cy="3.99"
       cx="23.896"
       gradientTransform="matrix(0 1.2316 -1.6258 0 18.487 -28.722)"
       r="20.397">
      <stop
         id="stop3244-9-33-7-0-6"
         stop-color="#9f44ff"
         offset="0" />
      <stop
         id="stop3248-1-7-8-8-6"
         stop-color="#7a0cff"
         offset=".66094" />
      <stop
         id="stop3250-9-3-0-5-2"
         stop-color="#6200cb"
         offset="1" />
    </radialGradient>
    <linearGradient
       id="linearGradient3189"
       y2="40.496"
       gradientUnits="userSpaceOnUse"
       x2="71.204"
       gradientTransform="matrix(1.617,0,0,1.617,-92.707,-21.06)"
       y1="15.369"
       x1="71.204">
      <stop
         id="stop4808-4"
         stop-color="#fff"
         offset="0" />
      <stop
         id="stop4810-0"
         stop-color="#fff"
         stop-opacity=".23529"
         offset=".42448" />
      <stop
         id="stop4812-8"
         stop-color="#fff"
         stop-opacity=".15686"
         offset=".82090" />
      <stop
         id="stop4814-0"
         stop-color="#fff"
         stop-opacity=".39216"
         offset="1" />
    </linearGradient>
    <radialGradient
       id="radialGradient3192"
       gradientUnits="userSpaceOnUse"
       cy="3.99"
       cx="23.896"
       gradientTransform="matrix(0,2.8885,-3.8128,0,39.213,-65.95)"
       r="20.397">
      <stop
         id="stop4369"
         stop-color="#a17dc6"
         offset="0" />
      <stop
         id="stop4371"
         stop-color="#8159b2"
         offset=".66094" />
      <stop
         id="stop4373"
         stop-color="#643794"
         offset="1" />
    </radialGradient>
    <radialGradient
       id="radialGradient3195"
       gradientUnits="userSpaceOnUse"
       cy="186.17"
       cx="99.157"
       gradientTransform="matrix(0.27083,0,0,0.087623,-2.8551,25.187)"
       r="62.769">
      <stop
         id="stop3822-2-6-3"
         stop-color="#3d3d3d"
         offset="0" />
      <stop
         id="stop3864-8-7-7"
         stop-color="#686868"
         stop-opacity=".49804"
         offset=".5" />
      <stop
         id="stop3824-1-2-5"
         stop-color="#686868"
         stop-opacity="0"
         offset="1" />
    </radialGradient>
    <linearGradient
       id="linearGradient4026"
       y2="422.66"
       xlink:href="#radialGradient3093-0-3-6-3"
       gradientUnits="userSpaceOnUse"
       x2="612.7"
       gradientTransform="matrix(0.49668,0,0,0.50834,-243.58,-210.24)"
       y1="479.7"
       x1="612.7" />
    <linearGradient
       id="linearGradient4028"
       y2="422.66"
       xlink:href="#radialGradient3093-0-3-6-3"
       gradientUnits="userSpaceOnUse"
       x2="612.7"
       gradientTransform="matrix(0.49668,0,0,0.50834,-243.58,-210.24)"
       y1="477.74"
       x1="612.7" />
  </defs>
  <metadata
     id="metadata4956">
    <rdf:RDF>
      <cc:Work
         rdf:about="">
        <dc:format>image/svg+xml</dc:format>
        <dc:type
           rdf:resource="http://purl.org/dc/dcmitype/StillImage" />
        <dc:title />
      </cc:Work>
    </rdf:RDF>
  </metadata>
  <path
     inkscape:connector-curvature="0"
     d="M 24,3.5 C 12.689,3.5 3.5,12.6888 3.5,24 3.5,35.3112 12.6888,44.5 24,44.5 35.3112,44.5 44.5,35.3112 44.5,24 44.5,12.6888 35.311,3.5 24,3.5 Z"
     style="color:#000000;fill:url(#radialGradient3192)"
     id="path2555-7-2" />
  <path
     inkscape:connector-curvature="0"
     d="M 43.5,24 C 43.5,34.77 34.77,43.5 24,43.5 13.23,43.5 4.5,34.77 4.5,24 4.5,13.23 13.23,4.5 24,4.5 34.77,4.5 43.5,13.23 43.5,24 Z"
     style="color:#000000;opacity:0.3;fill:none;stroke:url(#linearGradient3189);stroke-linecap:round;stroke-linejoin:round"
     id="path4176" />
  <path
     inkscape:connector-curvature="0"
     d="M 24,3.5 C 12.689,3.5 3.5,12.689 3.5,24 3.5,35.311 12.689,44.5 24,44.5 35.311,44.5 44.5,35.311 44.5,24 44.5,12.689 35.311,3.5 24,3.5 Z"
     style="color:#000000;opacity:0.7;fill:none;stroke:#39235d"
     id="path3871" />
  <g
     style="fill-rule:evenodd"
     transform="matrix(0.99999,0,0,1,-34.837,-0.41294)"
     id="g4021">
    <path
       inkscape:connector-curvature="0"
       style="opacity:0.1;fill:url(#linearGradient4026)"
       d="m 54.038,15.496 a 2.5643,2.6246 0 0 0 -2.3592,2.6211 l 0,12.994 a 2.5643,2.6246 0 0 0 3.8492,2.2716 l 10.989,-6.4972 a 2.5643,2.6246 0 0 0 0,-4.5433 l -10.989,-6.497 a 2.5643,2.6246 0 0 0 -1.49,-0.34948 z"
       id="path4428-3" />
    <path
       inkscape:connector-curvature="0"
       style="opacity:0.2;fill:url(#linearGradient4028)"
       d="m 54.131,16.593 a 1.4911,1.5262 0 0 0 -1.3814,1.525 l 0,12.994 a 1.4911,1.5262 0 0 0 2.235,1.3185 l 10.989,-6.4972 a 1.4911,1.5262 0 0 0 0,-2.637 l -10.989,-6.497 a 1.4911,1.5262 0 0 0 -0.85366,-0.20651 z"
       id="path4428" />
    <path
       style="fill:#ffffff;stroke:#ffffff;stroke-linejoin:round"
       inkscape:connector-curvature="0"
       d="m 54.236,31.115 0,-13 11,6.5 z"
       id="path6156" />
  </g>
</svg>
