<?xml version="1.0" encoding="UTF-8" standalone="no"?>
<!-- Created with Inkscape (http://www.inkscape.org/) -->

<svg
   xmlns:dc="http://purl.org/dc/elements/1.1/"
   xmlns:cc="http://creativecommons.org/ns#"
   xmlns:rdf="http://www.w3.org/1999/02/22-rdf-syntax-ns#"
   xmlns:svg="http://www.w3.org/2000/svg"
   xmlns="http://www.w3.org/2000/svg"
   xmlns:xlink="http://www.w3.org/1999/xlink"
   xmlns:sodipodi="http://sodipodi.sourceforge.net/DTD/sodipodi-0.dtd"
   xmlns:inkscape="http://www.inkscape.org/namespaces/inkscape"
   id="svg4031"
   height="48"
   width="48"
   version="1.1"
   inkscape:version="0.91 r13725"
   sodipodi:docname="nmap_icon.svg">
  <sodipodi:namedview
     pagecolor="#ffffff"
     bordercolor="#666666"
     borderopacity="1"
     objecttolerance="10"
     gridtolerance="10"
     guidetolerance="10"
     inkscape:pageopacity="0"
     inkscape:pageshadow="2"
     inkscape:window-width="1535"
     inkscape:window-height="876"
     id="namedview47"
     showgrid="false"
     inkscape:zoom="4.9166667"
     inkscape:cx="-10.779661"
     inkscape:cy="24"
     inkscape:window-x="65"
     inkscape:window-y="24"
     inkscape:window-maximized="1"
     inkscape:current-layer="svg4031" />
  <defs
     id="defs4033">
    <radialGradient
       id="radialGradient3015"
       gradientUnits="userSpaceOnUse"
       cy="8.4498"
       cx="3.9722"
       gradientTransform="matrix(0 2.4988 -2.6435 -6.8014e-8 46.337 -12.18)"
       r="20">
      <stop
         id="stop3750-8-9"
         stop-color="#90dbec"
         offset="0" />
      <stop
         id="stop3752-3-2"
         stop-color="#42baea"
         offset=".26238" />
      <stop
         id="stop3754-7-2"
         stop-color="#3689e6"
         offset=".70495" />
      <stop
         id="stop3756-9-3"
         stop-color="#2b63a0"
         offset="1" />
    </radialGradient>
    <radialGradient
       id="radialGradient3018"
       gradientUnits="userSpaceOnUse"
       cy="186.17"
       cx="99.157"
       gradientTransform="matrix(.27083 0 0 .087623 -2.8551 25.187)"
       r="62.769">
      <stop
         id="stop3822-2-6-3"
         stop-color="#3d3d3d"
         offset="0" />
      <stop
         id="stop3864-8-7-7"
         stop-color="#686868"
         stop-opacity=".49804"
         offset=".5" />
      <stop
         id="stop3824-1-2-5"
         stop-color="#686868"
         stop-opacity="0"
         offset="1" />
    </radialGradient>
    <linearGradient
       id="linearGradient3081"
       y2="40.496"
       gradientUnits="userSpaceOnUse"
       x2="71.204"
       gradientTransform="matrix(1.617 0 0 1.617 -92.707 -21.06)"
       y1="15.369"
       x1="71.204">
      <stop
         id="stop4808-4"
         stop-color="#fff"
         offset="0" />
      <stop
         id="stop4810-0"
         stop-color="#fff"
         stop-opacity=".23529"
         offset=".42448" />
      <stop
         id="stop4812-8"
         stop-color="#fff"
         stop-opacity=".15686"
         offset=".82090" />
      <stop
         id="stop4814-0"
         stop-color="#fff"
         stop-opacity=".39216"
         offset="1" />
    </linearGradient>
    <linearGradient
       id="linearGradient3078"
       y2="21.914"
       xlink:href="#linearGradient3678"
       gradientUnits="userSpaceOnUse"
       x2="48.263"
       gradientTransform="matrix(0 .91422 .91422 0 2.9894 .68778)"
       y1="22"
       x1="35.5" />
    <linearGradient
       id="linearGradient3678">
      <stop
         id="stop3680"
         stop-color="#fff"
         stop-opacity=".13369"
         offset="0" />
      <stop
         id="stop3682"
         stop-color="#fff"
         stop-opacity="0"
         offset="1" />
    </linearGradient>
    <linearGradient
       id="linearGradient3075"
       y2="23"
       xlink:href="#linearGradient3678"
       gradientUnits="userSpaceOnUse"
       x2="47.5"
       gradientTransform="matrix(0 .91422 .91422 0 2.9894 .68778)"
       y1="23"
       x1="3.5" />
    <linearGradient
       id="linearGradient3071"
       y2="21.83"
       xlink:href="#linearGradient3678"
       gradientUnits="userSpaceOnUse"
       x2="4.063"
       gradientTransform="matrix(.64645 .64645 -.64645 .64645 22.4 -7.3524)"
       y1="22.293"
       x1="14.893" />
    <linearGradient
       id="linearGradient3068"
       y2="27.243"
       xlink:href="#linearGradient3678"
       gradientUnits="userSpaceOnUse"
       x2="4.2868"
       gradientTransform="matrix(.64645 .64645 -.64645 .64645 22.4 -7.3524)"
       y1="23.707"
       x1="46.006" />
    <linearGradient
       id="linearGradient3064"
       y2="24.414"
       xlink:href="#linearGradient3678"
       gradientUnits="userSpaceOnUse"
       x2="2.8726"
       gradientTransform="matrix(.64645 -.64645 -.64645 -.64645 22.231 55.437)"
       y1="25.828"
       x1="48.127" />
    <linearGradient
       id="linearGradient3060"
       y2="24.109"
       xlink:href="#linearGradient3678"
       gradientUnits="userSpaceOnUse"
       x2="2.8319"
       gradientTransform="matrix(.64645 -.64645 -.64645 -.64645 22.231 55.437)"
       y1="23.707"
       x1="14.893" />
    <linearGradient
       id="linearGradient3057"
       y2="23"
       xlink:href="#linearGradient3678"
       gradientUnits="userSpaceOnUse"
       x2="47.5"
       gradientTransform="matrix(.91422 0 0 -.91422 .70389 45.027)"
       y1="23"
       x1="4.4897" />
    <linearGradient
       id="linearGradient3053"
       y2="23.173"
       xlink:href="#linearGradient3678"
       gradientUnits="userSpaceOnUse"
       x2="49.09"
       gradientTransform="matrix(.91422 0 0 -.91422 .70389 45.027)"
       y1="23"
       x1="37.5" />
  </defs>
  <metadata
     id="metadata4036">
    <rdf:RDF>
      <cc:Work
         rdf:about="">
        <dc:format>image/svg+xml</dc:format>
        <dc:type
           rdf:resource="http://purl.org/dc/dcmitype/StillImage" />
        <dc:title />
      </cc:Work>
    </rdf:RDF>
  </metadata>
  <path
     id="path2555"
     style="color:#000000"
     d="m24 3.5c-11.311 0-20.5 9.189-20.5 20.5s9.189 20.5 20.5 20.5 20.5-9.189 20.5-20.5-9.189-20.5-20.5-20.5z"
     fill="url(#radialGradient3015)" />
  <path
     id="path2555-6"
     opacity=".5"
     stroke-linejoin="round"
     style="color:#000000"
     d="m24 3.5c-11.311 0-20.5 9.1888-20.5 20.5s9.1888 20.5 20.5 20.5 20.5-9.1888 20.5-20.5-9.189-20.5-20.5-20.5z"
     fill-opacity="0"
     stroke="#00537d"
     stroke-linecap="round" />
  <g
     id="g4195"
     stroke-linejoin="round"
     transform="translate(.00099036 .077683)"
     stroke-linecap="round">
    <path
       id="path3026"
       opacity=".5"
       style="color:#000000"
       d="m43.5 24c0 10.77-8.73 19.5-19.5 19.5s-19.5-8.73-19.5-19.5 8.73-19.5 19.5-19.5 19.5 8.73 19.5 19.5z"
       stroke="url(#linearGradient3081)"
       fill="none" />
    <path
       id="path3805"
       d="m23.986 4.3448a8.685 19.656 0 0 0 -1.741 38.898"
       stroke="url(#linearGradient3078)"
       fill="none" />
    <path
       id="path3609"
       opacity=".8"
       d="m27.695 41.805a8.685 19.656 0 0 0 -3.699 -37.46"
       stroke="url(#linearGradient3075)"
       fill="none" />
    <path
       id="path3775"
       opacity=".8"
       style="color:#000000"
       d="m26.074 41.227a1.8282 1.8282 0 0 0 3.6565 0 1.8282 1.8282 0 1 0 -3.6565 0z"
       stroke-opacity=".52128"
       stroke="#fff"
       stroke-width="1.0004"
       fill="#fff" />
    <path
       id="path3801"
       d="m12.563 8.9058a19.656 8.685 45 0 1 24.967 29.33"
       stroke="url(#linearGradient3071)"
       fill="none" />
    <path
       id="path3611"
       opacity=".8"
       d="m37.915 37.899a19.656 8.685 45 0 1 -29.074 -24.686"
       stroke="url(#linearGradient3068)"
       fill="none" />
    <path
       id="path3781"
       opacity=".8"
       style="color:#000000"
       d="m10.76 13.858a1.8282 1.8282 0 0 1 -3.6565 0 1.8282 1.8282 0 1 1 3.6565 0z"
       stroke-opacity=".52128"
       stroke="#fff"
       stroke-width="1.0004"
       fill="#fff" />
    <path
       id="path3613"
       opacity=".8"
       d="m38.091 10.581a8.685 19.656 45 0 0 -29.06 20.984"
       stroke="url(#linearGradient3064)"
       fill="none" />
    <path
       id="path3615"
       opacity=".8"
       d="m8.7626 34.626a1.8282 1.8282 0 0 0 0 -3.6565 1.8282 1.8282 0 1 0 0 3.6565z"
       stroke-opacity=".52128"
       stroke="#fff"
       stroke-width="1.0004"
       fill="#fff" />
    <path
       id="path3787"
       d="m9.9838 38.017a8.685 19.656 45 0 0 28.362 -27.057"
       stroke="url(#linearGradient3060)"
       fill="none" />
    <path
       id="path2835"
       d="m40.758 19.449a19.656 8.685 0 0 0 -36.376 4.957"
       stroke="url(#linearGradient3057)"
       fill="none" />
    <path
       id="path3722"
       opacity=".8"
       style="color:#000000"
       d="m42.929 19.801a1.8282 1.8282 0 0 0 -3.6565 0 1.8282 1.8282 0 1 0 3.6565 0z"
       stroke-opacity=".52128"
       stroke="#fff"
       stroke-width="1.0004"
       fill="#fff" />
    <path
       id="path3797"
       d="m4.479 24.952a19.656 8.685 0 0 0 39.16 -0.45"
       stroke="url(#linearGradient3053)"
       fill="none" />
  </g>
</svg>
