<?xml version="1.0" encoding="UTF-8" standalone="no"?>
<!-- Created with Inkscape (http://www.inkscape.org/) -->

<svg
   xmlns:dc="http://purl.org/dc/elements/1.1/"
   xmlns:cc="http://creativecommons.org/ns#"
   xmlns:rdf="http://www.w3.org/1999/02/22-rdf-syntax-ns#"
   xmlns:svg="http://www.w3.org/2000/svg"
   xmlns="http://www.w3.org/2000/svg"
   xmlns:sodipodi="http://sodipodi.sourceforge.net/DTD/sodipodi-0.dtd"
   xmlns:inkscape="http://www.inkscape.org/namespaces/inkscape"
   id="svg3143"
   height="48"
   width="48"
   version="1.1"
   inkscape:version="0.91 r13725"
   sodipodi:docname="nutty.svg">
  <sodipodi:namedview
     pagecolor="#ffffff"
     bordercolor="#666666"
     borderopacity="1"
     objecttolerance="10"
     gridtolerance="10"
     guidetolerance="10"
     inkscape:pageopacity="0"
     inkscape:pageshadow="2"
     inkscape:window-width="1600"
     inkscape:window-height="876"
     id="namedview37"
     showgrid="false"
     inkscape:zoom="1"
     inkscape:cx="29.781644"
     inkscape:cy="23.840947"
     inkscape:window-x="0"
     inkscape:window-y="24"
     inkscape:window-maximized="1"
     inkscape:current-layer="svg3143" />
  <defs
     id="defs3145">
    <linearGradient
       id="linearGradient3044"
       y2="43"
       gradientUnits="userSpaceOnUse"
       x2="24"
       gradientTransform="translate(5.3e-6,0)"
       y1="5"
       x1="24">
      <stop
         id="stop3926-7"
         stop-color="#fff"
         offset="0" />
      <stop
         id="stop3928-3"
         stop-color="#fff"
         stop-opacity=".23529"
         offset=".063165" />
      <stop
         id="stop3930-7"
         stop-color="#fff"
         stop-opacity=".15686"
         offset=".95056" />
      <stop
         id="stop3932-1"
         stop-color="#fff"
         stop-opacity=".39216"
         offset="1" />
    </linearGradient>
    <radialGradient
       id="radialGradient3053"
       gradientUnits="userSpaceOnUse"
       cy="9.9941"
       cx="8.2761"
       gradientTransform="matrix(0,6.6678,-8.1859,0,105.88,-60.463)"
       r="12.672">
      <stop
         id="stop4360"
         stop-color="#b1f87e"
         offset="0" />
      <stop
         id="stop4362"
         stop-color="#6bab46"
         offset=".26238" />
      <stop
         id="stop4364"
         stop-color="#49832b"
         offset=".66094" />
      <stop
         id="stop4366"
         stop-color="#265c18"
         offset="1" />
    </radialGradient>
  </defs>
  <metadata
     id="metadata3148">
    <rdf:RDF>
      <cc:Work
         rdf:about="">
        <dc:format>image/svg+xml</dc:format>
        <dc:type
           rdf:resource="http://purl.org/dc/dcmitype/StillImage" />
        <dc:title></dc:title>
      </cc:Work>
    </rdf:RDF>
  </metadata>
  <rect
     id="rect5505-21"
     style="color:#000000;fill:url(#radialGradient3053)"
     rx="2"
     ry="2"
     height="39"
     width="39"
     y="4.5"
     x="4.5" />
  <rect
     style="opacity:0.5;fill:none;stroke:url(#linearGradient3044);stroke-linecap:round;stroke-linejoin:round"
     id="rect6741-2"
     rx="1"
     ry="1"
     height="37"
     width="37"
     y="5.5"
     x="5.5" />
  <rect
     id="rect5505-21-1"
     style="color:#000000;opacity:0.4;fill:none;stroke:#045300;stroke-linecap:round;stroke-linejoin:round"
     rx="2"
     ry="2"
     height="39"
     width="39"
     y="4.5"
     x="4.5" />
  <path
     id="path4209"
     d="m 24,9 a 4,4 0 0 0 -4,4 4,4 0 0 0 3.5,3.964844 l 0,2.072265 a 4,4 0 0 0 -3.314453,2.759766 l -3.1875,-0.578125 A 4,4 0 0 0 13,17.300781 a 4,4 0 0 0 -4,4 4,4 0 0 0 4,4 4,4 0 0 0 3.888672,-3.085937 l 3.121094,0.568359 A 4,4 0 0 0 20,23 a 4,4 0 0 0 1.384766,3.021484 l -1.601563,2.402344 A 4,4 0 0 0 18,28 a 4,4 0 0 0 -4,4 4,4 0 0 0 4,4 4,4 0 0 0 4,-4 4,4 0 0 0 -1.384766,-3.021484 l 1.601563,-2.404297 A 4,4 0 0 0 24,27 4,4 0 0 0 26.039062,26.435547 l 2.13086,2.740234 A 4,4 0 0 0 27,32 a 4,4 0 0 0 4,4 4,4 0 0 0 4,-4 4,4 0 0 0 -4,-4 4,4 0 0 0 -2.039062,0.564453 L 26.828125,25.824219 A 4,4 0 0 0 28,23 a 4,4 0 0 0 -0.0078,-0.216797 l 3.11914,-0.568359 A 4,4 0 0 0 35,25.300781 a 4,4 0 0 0 4,-4 4,4 0 0 0 -4,-4 4,4 0 0 0 -3.996094,3.917969 l -3.193359,0.580078 A 4,4 0 0 0 24.5,19.035156 l 0,-2.072265 A 4,4 0 0 0 28,13 4,4 0 0 0 24,9 Z"
     style="opacity:0.3;fill:#ffffff;fill-opacity:1;stroke:none;stroke-width:2;stroke-linecap:round;stroke-linejoin:round;stroke-miterlimit:4;stroke-dasharray:none;stroke-opacity:1"
     inkscape:connector-curvature="0" />
  <path
     style="opacity:0.7;fill:#0e1b08;fill-opacity:1;stroke:none;stroke-width:2;stroke-linecap:round;stroke-linejoin:round;stroke-miterlimit:4;stroke-dasharray:none;stroke-opacity:1"
     d="M 24 10 A 4 4 0 0 0 20 14 A 4 4 0 0 0 23.5 17.964844 L 23.5 20.037109 A 4 4 0 0 0 20.185547 22.796875 L 16.998047 22.21875 A 4 4 0 0 0 13 18.300781 A 4 4 0 0 0 9 22.300781 A 4 4 0 0 0 13 26.300781 A 4 4 0 0 0 16.888672 23.214844 L 20.009766 23.783203 A 4 4 0 0 0 20 24 A 4 4 0 0 0 21.384766 27.021484 L 19.783203 29.423828 A 4 4 0 0 0 18 29 A 4 4 0 0 0 14 33 A 4 4 0 0 0 18 37 A 4 4 0 0 0 22 33 A 4 4 0 0 0 20.615234 29.978516 L 22.216797 27.574219 A 4 4 0 0 0 24 28 A 4 4 0 0 0 26.039062 27.435547 L 28.169922 30.175781 A 4 4 0 0 0 27 33 A 4 4 0 0 0 31 37 A 4 4 0 0 0 35 33 A 4 4 0 0 0 31 29 A 4 4 0 0 0 28.960938 29.564453 L 26.828125 26.824219 A 4 4 0 0 0 28 24 A 4 4 0 0 0 27.992188 23.783203 L 31.111328 23.214844 A 4 4 0 0 0 35 26.300781 A 4 4 0 0 0 39 22.300781 A 4 4 0 0 0 35 18.300781 A 4 4 0 0 0 31.003906 22.21875 L 27.810547 22.798828 A 4 4 0 0 0 24.5 20.035156 L 24.5 17.962891 A 4 4 0 0 0 28 14 A 4 4 0 0 0 24 10 z "
     id="path4166" />
</svg>
