<?xml version="1.0" encoding="UTF-8" standalone="no"?>
<!-- Created with Inkscape (http://www.inkscape.org/) -->

<svg
   xmlns:dc="http://purl.org/dc/elements/1.1/"
   xmlns:cc="http://creativecommons.org/ns#"
   xmlns:rdf="http://www.w3.org/1999/02/22-rdf-syntax-ns#"
   xmlns:svg="http://www.w3.org/2000/svg"
   xmlns="http://www.w3.org/2000/svg"
   xmlns:sodipodi="http://sodipodi.sourceforge.net/DTD/sodipodi-0.dtd"
   xmlns:inkscape="http://www.inkscape.org/namespaces/inkscape"
   id="svg4951"
   height="48"
   width="48"
   version="1.1"
   inkscape:version="0.91 r13725"
   sodipodi:docname="phpstorm.svg">
  <sodipodi:namedview
     pagecolor="#ffffff"
     bordercolor="#666666"
     borderopacity="1"
     objecttolerance="10"
     gridtolerance="10"
     guidetolerance="10"
     inkscape:pageopacity="0"
     inkscape:pageshadow="2"
     inkscape:window-width="1535"
     inkscape:window-height="876"
     id="namedview27"
     showgrid="false"
     inkscape:zoom="4.9166667"
     inkscape:cx="-10.779661"
     inkscape:cy="24"
     inkscape:window-x="65"
     inkscape:window-y="24"
     inkscape:window-maximized="1"
     inkscape:current-layer="svg4951" />
  <defs
     id="defs4953">
    <radialGradient
       id="radialGradient3302"
       gradientUnits="userSpaceOnUse"
       cy="186.17"
       cx="99.157"
       gradientTransform="matrix(.27083 0 0 .087623 -2.8551 25.187)"
       r="62.769">
      <stop
         id="stop3822-2-6-3"
         stop-color="#3d3d3d"
         offset="0" />
      <stop
         id="stop3864-8-7-7"
         stop-color="#686868"
         stop-opacity=".49804"
         offset=".5" />
      <stop
         id="stop3824-1-2-5"
         stop-color="#686868"
         stop-opacity="0"
         offset="1" />
    </radialGradient>
    <radialGradient
       id="radialGradient4448"
       gradientUnits="userSpaceOnUse"
       cy="-17.681"
       cx="14.892"
       gradientTransform="matrix(-1.4387 3.8089e-8 -2.8328e-8 -1.07 45.169 -14.596)"
       r="25.571">
      <stop
         id="stop3750-1-0-7-6-6-1-3-9-3"
         stop-color="#5f5f5f"
         offset="0" />
      <stop
         id="stop3752-3-7-4-0-32-8-923-0-7"
         stop-color="#515151"
         offset=".26238" />
      <stop
         id="stop3754-1-8-5-2-7-6-7-1-9"
         stop-color="#404040"
         offset=".70495" />
      <stop
         id="stop3756-1-6-2-6-6-1-96-6-0"
         stop-color="#343434"
         offset="1" />
    </radialGradient>
    <linearGradient
       id="linearGradient4450"
       y2="32.568"
       gradientUnits="userSpaceOnUse"
       x2="15.124"
       gradientTransform="matrix(.76418 0 0 .76418 12.377 18.778)"
       y1="-18.801"
       x1="15.124">
      <stop
         id="stop4413"
         stop-color="#fff"
         offset="0" />
      <stop
         id="stop4415"
         stop-color="#fff"
         stop-opacity="0"
         offset="1" />
    </linearGradient>
  </defs>
  <metadata
     id="metadata4956">
    <rdf:RDF>
      <cc:Work
         rdf:about="">
        <dc:format>image/svg+xml</dc:format>
        <dc:type
           rdf:resource="http://purl.org/dc/dcmitype/StillImage" />
        <dc:title />
      </cc:Work>
    </rdf:RDF>
  </metadata>
  <circle
     id="path2985-6"
     cy="24"
     cx="24"
     r="20.526"
     fill="url(#radialGradient4448)" />
  <circle
     id="path3755-9"
     opacity=".6"
     stroke-width=".94845"
     stroke="#242424"
     cy="24"
     cx="24"
     r="20.526"
     fill="none" />
  <circle
     id="path3773-9"
     opacity=".6"
     stroke-width=".93261"
     stroke-opacity=".58824"
     stroke="url(#linearGradient4450)"
     cy="24"
     cx="24"
     r="19.54"
     fill="none" />
  <g
     id="g4403"
     opacity=".15"
     transform="translate(0,1)">
    <path
       id="path4405"
       opacity="1"
       d="m12 22v12h1v-9.2695h0.83398v0.54688c0.31569-0.44767 0.69535-0.67188 1.1426-0.67188 0.66646 0 1.1854 0.29421 1.5566 0.88281 0.37123 0.5886 0.55859 1.4502 0.55859 2.5859 0 1.0114-0.18835 1.838-0.5625 2.4805-0.37415 0.63834-0.91371 0.95898-1.6211 0.95898-0.19877 0-0.41263-0.05091-0.64062-0.15039-0.22508-0.09948-0.36929-0.2133-0.43359-0.3418v2.9785h9.0742v-9.2695h0.83398v0.54688c0.31569-0.44767 0.6973-0.67188 1.1445-0.67188 0.66646 0 1.1854 0.29421 1.5566 0.88281 0.372 0.589 0.557 1.45 0.557 2.586 0 1.0114-0.1864 1.838-0.56055 2.4805-0.37415 0.63834-0.91567 0.95898-1.623 0.95898-0.19877 0-0.41263-0.05091-0.64062-0.15039-0.22508-0.09948-0.36929-0.2133-0.43359-0.3418v2.9785h2.998c-0.06297-0.09021 0.33242-0.76442 0.86719-1.3438 2.0501-2.2 2.7363-3.331 2.7363-4.5137 0.004-1.0294-0.32274-1.5985-1.7871-3.0859-1.391-1.421-1.841-2.049-2.191-3.057h-7.5332v3.4629c0.11108-0.24456 0.28962-0.44772 0.53516-0.60938 0.24846-0.1658 0.50255-0.24805 0.76562-0.24805 0.49692 0 0.88736 0.23106 1.168 0.69531 0.28354 0.46425 0.42383 1.1002 0.42383 1.9043v4.1836h-0.83203v-4.1836c0-0.49741-0.08731-0.88977-0.25977-1.1758-0.17246-0.28601-0.41379-0.42969-0.72656-0.42969-0.20169 0-0.40476 0.08591-0.60938 0.25586-0.20169 0.1658-0.35669 0.36015-0.46484 0.58398v4.9492h-0.83398v-9.3887h-5.998zm2.666 3.5996c-0.11692 0-0.26015 0.05776-0.42969 0.17383-0.16954 0.11606-0.30296 0.2475-0.40234 0.39258v3.8789c0.05261 0.11192 0.16249 0.22059 0.33203 0.32422 0.16954 0.09948 0.33532 0.14844 0.49609 0.14844 1.0348 0 1.5527-0.8283 1.5527-2.4863 0-0.84145-0.1236-1.458-0.36914-1.8477-0.24554-0.38964-0.63892-0.58398-1.1797-0.58398zm9.9102 0c-0.11692 0-0.26015 0.05776-0.42969 0.17383-0.16954 0.11606-0.30491 0.2475-0.4043 0.39258v3.8789c0.05261 0.11192 0.16444 0.22059 0.33398 0.32422 0.16954 0.09948 0.33337 0.14844 0.49414 0.14844 1.0348 0 1.5527-0.8283 1.5527-2.4863 0-0.84145-0.1236-1.458-0.36914-1.8477-0.24554-0.38964-0.63697-0.58398-1.1777-0.58398z" />
    <path
       id="path4407"
       d="m27.741 34c-0.06297-0.09021 0.33186-0.76387 0.86662-1.3432 2.0501-2.2 2.7368-3.3316 2.7368-4.5144 0.004-1.0294-0.32386-1.5977-1.7882-3.0851-1.5303-1.5626-1.9292-2.1419-2.3-3.3517-0.65971-2.1419-0.03498-4.5655 1.7652-6.8637l0.66-0.842h3.0927c2.1161 0 3.0967 0.05513 3.0967 0.1724 0 0.09823-0.57375 0.79883-1.2764 1.5626-2.1011 2.2903-2.6548 3.5281-2.241 4.9995 0.14794 0.52821 0.53477 1.0334 1.6083 2.1028 1.0116 1.0023 1.5733 1.723 1.9562 2.4977 1.1085 2.5488 0.67571 5.7752-1.6443 8.3l-0.399 0.365" />
  </g>
  <g
     id="g4399">
    <path
       id="rect4422"
       d="m12 22v12h1v-9.2695h0.83398v0.54688c0.31569-0.44767 0.69535-0.67188 1.1426-0.67188 0.66646 0 1.1854 0.29421 1.5566 0.88281 0.37123 0.5886 0.55859 1.4502 0.55859 2.5859 0 1.0114-0.18835 1.838-0.5625 2.4805-0.37415 0.63834-0.91371 0.95898-1.6211 0.95898-0.19877 0-0.41263-0.05091-0.64062-0.15039-0.22508-0.09948-0.36929-0.2133-0.43359-0.3418v2.9785h9.0742v-9.2695h0.83398v0.54688c0.31569-0.44767 0.6973-0.67188 1.1445-0.67188 0.66646 0 1.1854 0.29421 1.5566 0.88281 0.372 0.589 0.557 1.45 0.557 2.586 0 1.0114-0.1864 1.838-0.56055 2.4805-0.37415 0.63834-0.91567 0.95898-1.623 0.95898-0.19877 0-0.41263-0.05091-0.64062-0.15039-0.22508-0.09948-0.36929-0.2133-0.43359-0.3418v2.9785h2.998c-0.06297-0.09021 0.33242-0.76442 0.86719-1.3438 2.0501-2.2 2.7363-3.331 2.7363-4.5137 0.004-1.0294-0.32274-1.5985-1.7871-3.0859-1.391-1.421-1.841-2.049-2.191-3.057h-7.5332v3.4629c0.11108-0.24456 0.28962-0.44772 0.53516-0.60938 0.24846-0.1658 0.50255-0.24805 0.76562-0.24805 0.49692 0 0.88736 0.23106 1.168 0.69531 0.28354 0.46425 0.42383 1.1002 0.42383 1.9043v4.1836h-0.83203v-4.1836c0-0.49741-0.08731-0.88977-0.25977-1.1758-0.17246-0.28601-0.41379-0.42969-0.72656-0.42969-0.20169 0-0.40476 0.08591-0.60938 0.25586-0.20169 0.1658-0.35669 0.36015-0.46484 0.58398v4.9492h-0.83398v-9.3887h-5.998zm2.666 3.5996c-0.11692 0-0.26015 0.05776-0.42969 0.17383-0.16954 0.11606-0.30296 0.2475-0.40234 0.39258v3.8789c0.05261 0.11192 0.16249 0.22059 0.33203 0.32422 0.16954 0.09948 0.33532 0.14844 0.49609 0.14844 1.0348 0 1.5527-0.8283 1.5527-2.4863 0-0.84145-0.1236-1.458-0.36914-1.8477-0.24554-0.38964-0.63892-0.58398-1.1797-0.58398zm9.9102 0c-0.11692 0-0.26015 0.05776-0.42969 0.17383-0.16954 0.11606-0.30491 0.2475-0.4043 0.39258v3.8789c0.05261 0.11192 0.16444 0.22059 0.33398 0.32422 0.16954 0.09948 0.33337 0.14844 0.49414 0.14844 1.0348 0 1.5527-0.8283 1.5527-2.4863 0-0.84145-0.1236-1.458-0.36914-1.8477-0.24554-0.38964-0.63697-0.58398-1.1777-0.58398z"
       fill="#fff" />
    <path
       id="path57"
       d="m27.741 34c-0.06297-0.09021 0.33186-0.76387 0.86662-1.3432 2.0501-2.2 2.7368-3.3316 2.7368-4.5144 0.004-1.0294-0.32386-1.5977-1.7882-3.0851-1.5303-1.5626-1.9292-2.1419-2.3-3.3517-0.65971-2.1419-0.03498-4.5655 1.7652-6.8637l0.66-0.842h3.0927c2.1161 0 3.0967 0.05513 3.0967 0.1724 0 0.09823-0.57375 0.79883-1.2764 1.5626-2.1011 2.2903-2.6548 3.5281-2.241 4.9995 0.14794 0.52821 0.53477 1.0334 1.6083 2.1028 1.0116 1.0023 1.5733 1.723 1.9562 2.4977 1.1085 2.5488 0.67571 5.7752-1.6443 8.3l-0.399 0.365"
       fill="#f38e09" />
  </g>
</svg>
