<?xml version="1.0" encoding="UTF-8" standalone="no"?>
<svg
   xmlns:dc="http://purl.org/dc/elements/1.1/"
   xmlns:cc="http://creativecommons.org/ns#"
   xmlns:rdf="http://www.w3.org/1999/02/22-rdf-syntax-ns#"
   xmlns:svg="http://www.w3.org/2000/svg"
   xmlns="http://www.w3.org/2000/svg"
   xmlns:xlink="http://www.w3.org/1999/xlink"
   xmlns:sodipodi="http://sodipodi.sourceforge.net/DTD/sodipodi-0.dtd"
   xmlns:inkscape="http://www.inkscape.org/namespaces/inkscape"
   version="1.1"
   width="48"
   height="48"
   id="svg6649"
   inkscape:version="0.91 r13725"
   sodipodi:docname="relay.svg">
  <sodipodi:namedview
     pagecolor="#ffffff"
     bordercolor="#666666"
     borderopacity="1"
     objecttolerance="10"
     gridtolerance="10"
     guidetolerance="10"
     inkscape:pageopacity="0"
     inkscape:pageshadow="2"
     inkscape:window-width="1600"
     inkscape:window-height="876"
     id="namedview45"
     showgrid="false"
     inkscape:zoom="1"
     inkscape:cx="-9.0508475"
     inkscape:cy="24"
     inkscape:window-x="0"
     inkscape:window-y="24"
     inkscape:window-maximized="1"
     inkscape:current-layer="svg6649" />
  <defs
     id="defs6651">
    <linearGradient
       x1="23.99999"
       y1="4.999989"
       x2="23.99999"
       y2="43"
       id="linearGradient3058"
       xlink:href="#linearGradient3924-1"
       gradientUnits="userSpaceOnUse"
       gradientTransform="translate(-8.397766e-6,1.125e-5)" />
    <linearGradient
       id="linearGradient3924-1">
      <stop
         id="stop3926-3"
         style="stop-color:#ffffff;stop-opacity:1"
         offset="0" />
      <stop
         id="stop3928-91"
         style="stop-color:#ffffff;stop-opacity:0.23529412"
         offset="0.06316455" />
      <stop
         id="stop3930-6"
         style="stop-color:#ffffff;stop-opacity:0.15686275"
         offset="0.95056331" />
      <stop
         id="stop3932-6"
         style="stop-color:#ffffff;stop-opacity:0.39215687"
         offset="1" />
    </linearGradient>
    <radialGradient
       cx="6.7304144"
       cy="9.9571075"
       r="12.671875"
       fx="6.2001843"
       fy="9.9571075"
       id="radialGradient5521-1"
       xlink:href="#linearGradient2867-449-88-871-390-598-476-591-434-148-57-177-8-3-3-6-4-8-8-8"
       gradientUnits="userSpaceOnUse"
       gradientTransform="matrix(0,9.4975523,-11.65996,0,140.93054,-80.160973)" />
    <linearGradient
       id="linearGradient2867-449-88-871-390-598-476-591-434-148-57-177-8-3-3-6-4-8-8-8">
      <stop
         id="stop3750-1-0-7-6-6-1-3-9"
         style="stop-color:#ffb77d;stop-opacity:1"
         offset="0" />
      <stop
         id="stop3752-3-7-4-0-32-8-923-0"
         style="stop-color:#fc6f36;stop-opacity:1"
         offset="0.26238" />
      <stop
         id="stop3754-1-8-5-2-7-6-7-1"
         style="stop-color:#e20e0e;stop-opacity:1"
         offset="0.704952" />
      <stop
         id="stop3756-1-6-2-6-6-1-96-6"
         style="stop-color:#ac441f;stop-opacity:1"
         offset="1" />
    </linearGradient>
  </defs>
  <metadata
     id="metadata6654">
    <rdf:RDF>
      <cc:Work
         rdf:about="">
        <dc:format>image/svg+xml</dc:format>
        <dc:type
           rdf:resource="http://purl.org/dc/dcmitype/StillImage" />
        <dc:title></dc:title>
      </cc:Work>
    </rdf:RDF>
  </metadata>
  <rect
     style="color:#000000;display:inline;overflow:visible;visibility:visible;fill:url(#radialGradient5521-1);fill-opacity:1;fill-rule:nonzero;stroke:none;stroke-width:0.99999994;marker:none;enable-background:accumulate"
     id="rect5505-21"
     y="4.5"
     x="4.5"
     ry="2"
     rx="2"
     height="39"
     width="39" />
  <rect
     style="opacity:0.5;fill:none;stroke:url(#linearGradient3058);stroke-width:1;stroke-linecap:round;stroke-linejoin:round;stroke-miterlimit:4;stroke-dasharray:none;stroke-dashoffset:0;stroke-opacity:1"
     id="rect6741"
     y="5.5"
     x="5.5"
     ry="1"
     rx="1"
     height="37"
     width="37" />
  <rect
     style="color:#000000;display:inline;overflow:visible;visibility:visible;opacity:0.4;fill:none;stroke:#640000;stroke-width:1;stroke-linecap:round;stroke-linejoin:round;stroke-miterlimit:4;stroke-dasharray:none;stroke-dashoffset:0;stroke-opacity:1;marker:none;enable-background:accumulate"
     id="rect5505-21-3-2"
     y="4.5"
     x="4.5"
     ry="2"
     rx="2"
     height="39"
     width="39" />
  <path
     inkscape:connector-curvature="0"
     style="fill:none;fill-opacity:1;stroke:#000000;stroke-width:1;stroke-linecap:round;stroke-linejoin:round;stroke-miterlimit:50;stroke-dasharray:none;stroke-dashoffset:10;stroke-opacity:1;opacity:0.15"
     d="m 21.354896,35.01417 -2.882224,-0.985879 0,-0.210559 c 0,-0.115809 0.481325,-1.22086 1.069614,-2.455665 0.588285,-1.234804 1.045285,-2.269266 1.015555,-2.298805 -0.08581,-0.08526 -3.864009,-0.954645 -4.14871,-0.954645 l -0.256852,0 -0.326883,0.749575 c -0.179787,0.412271 -0.57637,1.287294 -0.881298,1.9445 -0.304929,0.657211 -0.554413,1.267619 -0.554413,1.356472 0,0.08885 -0.07338,0.206599 -0.163054,0.261664 l -0.163055,0.100124 -1.834057,-0.642784 c -1.008731,-0.35353 -1.863208,-0.667577 -1.898834,-0.697877 -0.07324,-0.0623 0.912188,-2.470199 1.412757,-3.452067 l 0.328801,-0.644952 -0.927151,-0.21607 c -0.509936,-0.118838 -0.976188,-0.243293 -1.036123,-0.276564 l -0.1089692,-0.0605 0.2833712,-1.347369 0.283372,-1.347374 1.068248,0.114613 c 0.587533,0.06304 1.210394,0.13163 1.384133,0.152435 l 0.315889,0.03782 0.704857,-1.5639 c 0.387672,-0.860143 0.704859,-1.584063 0.704859,-1.608713 0,-0.02465 -0.788231,-0.100337 -1.751621,-0.168193 l -1.751614,-0.123379 0.289142,-1.354405 0.289143,-1.354404 2.06865,0 2.06865,0 0.135134,-0.133903 c 0.07432,-0.07364 0.550499,-1.065734 1.058169,-2.204642 l 0.923043,-2.070732 2.374256,-0.217136 c 1.305844,-0.119425 2.429479,-0.198789 2.49697,-0.17637 l 0.122711,0.04076 -0.541163,1.146412 c -1.227833,2.60108 -1.568231,3.368775 -1.568231,3.536819 l 0,0.17693 2.408023,-0.04906 2.408018,-0.04907 0.255891,-0.440927 c 0.140742,-0.242508 0.739261,-1.452856 1.330044,-2.689658 l 1.074154,-2.248733 0.478061,-0.01105 c 0.262935,-0.0061 1.975895,-0.146913 3.806582,-0.312959 1.830687,-0.166049 3.328522,-0.283595 3.328522,-0.261211 0,0.02239 -0.672702,1.393406 -1.494894,3.046714 l -1.494898,3.006019 2.471264,0 2.471265,0 0,0.442089 c 0,0.445596 -0.509974,4.008899 -0.582384,4.069234 -0.02141,0.01785 -1.432458,-0.075 -3.135646,-0.206323 l -3.096703,-0.238773 -0.08935,0.08877 c -0.04914,0.04882 -0.546431,1.01889 -1.105083,2.155704 l -1.015733,2.066929 0.296319,0.123194 c 0.162976,0.06775 1.888965,0.366981 3.835525,0.664945 1.946565,0.297963 3.562843,0.565233 3.591729,0.593932 0.08798,0.08741 -0.527296,4.428666 -0.647946,4.571775 l -0.112622,0.133597 -4.2424,-0.971356 c -2.333315,-0.534245 -4.365783,-0.969516 -4.516588,-0.967268 l -0.274195,0.004 -1.333904,2.707025 -1.333903,2.70705 z m 1.023243,-9.789462 c 0,-0.131089 0.359478,-0.915278 0.798845,-1.742643 0.439364,-0.827369 0.798842,-1.585745 0.798842,-1.685284 l 0,-0.180977 -1.730831,-0.111369 c -0.951957,-0.06125 -1.989907,-0.151517 -2.306556,-0.200596 l -0.575724,-0.08923 -0.4194,0.933713 c -0.230669,0.513542 -0.600938,1.313761 -0.822821,1.778259 -0.221883,0.464502 -0.373213,0.872179 -0.336286,0.90595 0.08719,0.07973 3.469675,0.581723 4.105746,0.609328 l 0.488185,0.02118 z"
     id="path4201" />
  <path
     inkscape:connector-curvature="0"
     style="opacity:0.3;fill:#000000;fill-opacity:1;stroke:none;stroke-width:1.08651352;stroke-linecap:round;stroke-linejoin:round;stroke-miterlimit:50;stroke-dasharray:none;stroke-dashoffset:10;stroke-opacity:0.25098039"
     d="m 21.354896,36.014174 -2.882224,-0.985879 0,-0.210559 c 0,-0.115809 0.481325,-1.22086 1.069614,-2.455665 0.588285,-1.234804 1.045285,-2.269266 1.015555,-2.298805 -0.08581,-0.08526 -3.864009,-0.954645 -4.14871,-0.954645 l -0.256852,0 -0.326883,0.749575 c -0.179787,0.412271 -0.57637,1.287294 -0.881298,1.9445 -0.304929,0.657211 -0.554413,1.267619 -0.554413,1.356472 0,0.08885 -0.07338,0.206599 -0.163054,0.261664 l -0.163055,0.100124 -1.834057,-0.642784 c -1.008731,-0.35353 -1.863208,-0.667577 -1.898834,-0.697877 -0.07324,-0.0623 0.912188,-2.470199 1.412757,-3.452067 l 0.328801,-0.644952 -0.927151,-0.21607 c -0.509936,-0.118838 -0.976188,-0.243293 -1.036123,-0.276564 l -0.1089692,-0.0605 0.2833712,-1.347369 0.283372,-1.347374 1.068248,0.114613 c 0.587533,0.06304 1.210394,0.13163 1.384133,0.152435 l 0.315889,0.03782 0.704857,-1.5639 c 0.387672,-0.860143 0.704859,-1.584063 0.704859,-1.608713 0,-0.02465 -0.788231,-0.100337 -1.751621,-0.168193 l -1.751614,-0.123379 0.289142,-1.354405 0.289143,-1.354404 2.06865,0 2.06865,0 0.135134,-0.133903 c 0.07432,-0.07364 0.550499,-1.065734 1.058169,-2.204642 l 0.923043,-2.070732 2.374256,-0.217136 c 1.305844,-0.119425 2.429479,-0.198789 2.49697,-0.17637 l 0.122711,0.04076 -0.541163,1.146412 c -1.227833,2.60108 -1.568231,3.368775 -1.568231,3.536819 l 0,0.17693 2.408023,-0.04906 2.408018,-0.04907 0.255891,-0.440927 c 0.140742,-0.242508 0.739261,-1.452856 1.330044,-2.689658 l 1.074154,-2.248733 0.478061,-0.01105 c 0.262935,-0.0061 1.975895,-0.146913 3.806582,-0.312959 1.830687,-0.166049 3.328522,-0.283595 3.328522,-0.261211 0,0.02239 -0.672702,1.393406 -1.494894,3.046714 l -1.494898,3.006019 2.471264,0 2.471265,0 0,0.442089 c 0,0.445596 -0.509974,4.008899 -0.582384,4.069234 -0.02141,0.01785 -1.432458,-0.075 -3.135646,-0.206323 l -3.096703,-0.238773 -0.08935,0.08877 c -0.04914,0.04882 -0.546431,1.01889 -1.105083,2.155704 l -1.015733,2.066929 0.296319,0.123194 c 0.162976,0.06775 1.888965,0.366981 3.835525,0.664945 1.946565,0.297963 3.562843,0.565233 3.591729,0.593932 0.08798,0.08741 -0.527296,4.428666 -0.647946,4.571775 l -0.112622,0.133597 -4.2424,-0.971356 c -2.333315,-0.534245 -4.365783,-0.969516 -4.516588,-0.967268 l -0.274195,0.004 L 25.571019,34.29295 24.237116,37 Z m 1.023243,-9.789462 c 0,-0.131089 0.359478,-0.915278 0.798845,-1.742643 0.439364,-0.827369 0.798842,-1.585745 0.798842,-1.685284 l 0,-0.180977 -1.730831,-0.111369 c -0.951957,-0.06125 -1.989907,-0.151517 -2.306556,-0.200596 l -0.575724,-0.08923 -0.4194,0.933713 c -0.230669,0.513542 -0.600938,1.313761 -0.822821,1.778259 -0.221883,0.464502 -0.373213,0.872179 -0.336286,0.90595 0.08719,0.07973 3.469675,0.581723 4.105746,0.609328 l 0.488185,0.02118 z"
     id="path4203" />
  <path
     id="path4861"
     d="m 21.354896,35.01417 -2.882224,-0.985879 0,-0.210559 c 0,-0.115809 0.481325,-1.22086 1.069614,-2.455665 0.588285,-1.234804 1.045285,-2.269266 1.015555,-2.298805 -0.08581,-0.08526 -3.864009,-0.954645 -4.14871,-0.954645 l -0.256852,0 -0.326883,0.749575 c -0.179787,0.412271 -0.57637,1.287294 -0.881298,1.9445 -0.304929,0.657211 -0.554413,1.267619 -0.554413,1.356472 0,0.08885 -0.07338,0.206599 -0.163054,0.261664 l -0.163055,0.100124 -1.834057,-0.642784 c -1.008731,-0.35353 -1.863208,-0.667577 -1.898834,-0.697877 -0.07324,-0.0623 0.912188,-2.470199 1.412757,-3.452067 l 0.328801,-0.644952 -0.927151,-0.21607 c -0.509936,-0.118838 -0.976188,-0.243293 -1.036123,-0.276564 l -0.1089692,-0.0605 0.2833712,-1.347369 0.283372,-1.347374 1.068248,0.114613 c 0.587533,0.06304 1.210394,0.13163 1.384133,0.152435 l 0.315889,0.03782 0.704857,-1.5639 c 0.387672,-0.860143 0.704859,-1.584063 0.704859,-1.608713 0,-0.02465 -0.788231,-0.100337 -1.751621,-0.168193 l -1.751614,-0.123379 0.289142,-1.354405 0.289143,-1.354404 2.06865,0 2.06865,0 0.135134,-0.133903 c 0.07432,-0.07364 0.550499,-1.065734 1.058169,-2.204642 l 0.923043,-2.070732 2.374256,-0.217136 c 1.305844,-0.119425 2.429479,-0.198789 2.49697,-0.17637 l 0.122711,0.04076 -0.541163,1.146412 c -1.227833,2.60108 -1.568231,3.368775 -1.568231,3.536819 l 0,0.17693 2.408023,-0.04906 2.408018,-0.04907 0.255891,-0.440927 c 0.140742,-0.242508 0.739261,-1.452856 1.330044,-2.689658 l 1.074154,-2.248733 0.478061,-0.01105 c 0.262935,-0.0061 1.975895,-0.146913 3.806582,-0.312959 1.830687,-0.166049 3.328522,-0.283595 3.328522,-0.261211 0,0.02239 -0.672702,1.393406 -1.494894,3.046714 l -1.494898,3.006019 2.471264,0 2.471265,0 0,0.442089 c 0,0.445596 -0.509974,4.008899 -0.582384,4.069234 -0.02141,0.01785 -1.432458,-0.075 -3.135646,-0.206323 l -3.096703,-0.238773 -0.08935,0.08877 c -0.04914,0.04882 -0.546431,1.01889 -1.105083,2.155704 l -1.015733,2.066929 0.296319,0.123194 c 0.162976,0.06775 1.888965,0.366981 3.835525,0.664945 1.946565,0.297963 3.562843,0.565233 3.591729,0.593932 0.08798,0.08741 -0.527296,4.428666 -0.647946,4.571775 l -0.112622,0.133597 -4.2424,-0.971356 c -2.333315,-0.534245 -4.365783,-0.969516 -4.516588,-0.967268 l -0.274195,0.004 -1.333904,2.707025 -1.333903,2.70705 z m 1.023243,-9.789462 c 0,-0.131089 0.359478,-0.915278 0.798845,-1.742643 0.439364,-0.827369 0.798842,-1.585745 0.798842,-1.685284 l 0,-0.180977 -1.730831,-0.111369 c -0.951957,-0.06125 -1.989907,-0.151517 -2.306556,-0.200596 l -0.575724,-0.08923 -0.4194,0.933713 c -0.230669,0.513542 -0.600938,1.313761 -0.822821,1.778259 -0.221883,0.464502 -0.373213,0.872179 -0.336286,0.90595 0.08719,0.07973 3.469675,0.581723 4.105746,0.609328 l 0.488185,0.02118 z"
     style="fill:#ffffff;fill-opacity:1;stroke:none;stroke-width:1.08651352;stroke-linecap:round;stroke-linejoin:round;stroke-miterlimit:50;stroke-dasharray:none;stroke-dashoffset:10;stroke-opacity:0.25098039"
     inkscape:connector-curvature="0" />
</svg>
