<?xml version="1.0" encoding="UTF-8" standalone="no"?>
<!-- Created with Inkscape (http://www.inkscape.org/) -->

<svg
   xmlns:dc="http://purl.org/dc/elements/1.1/"
   xmlns:cc="http://creativecommons.org/ns#"
   xmlns:rdf="http://www.w3.org/1999/02/22-rdf-syntax-ns#"
   xmlns:svg="http://www.w3.org/2000/svg"
   xmlns="http://www.w3.org/2000/svg"
   xmlns:sodipodi="http://sodipodi.sourceforge.net/DTD/sodipodi-0.dtd"
   xmlns:inkscape="http://www.inkscape.org/namespaces/inkscape"
   id="svg4031"
   height="48"
   width="48"
   version="1.1"
   inkscape:version="0.91 r13725"
   sodipodi:docname="screencloud.svg">
  <sodipodi:namedview
     pagecolor="#ffffff"
     bordercolor="#666666"
     borderopacity="1"
     objecttolerance="10"
     gridtolerance="10"
     guidetolerance="10"
     inkscape:pageopacity="0"
     inkscape:pageshadow="2"
     inkscape:window-width="1535"
     inkscape:window-height="876"
     id="namedview48"
     showgrid="false"
     inkscape:zoom="4.9166667"
     inkscape:cx="-10.779661"
     inkscape:cy="24"
     inkscape:window-x="65"
     inkscape:window-y="24"
     inkscape:window-maximized="1"
     inkscape:current-layer="svg4031" />
  <defs
     id="defs4033">
    <linearGradient
       id="linearGradient3012"
       y2="44.341"
       gradientUnits="userSpaceOnUse"
       x2="71.204"
       gradientTransform="matrix(1.0541 0 0 1.0541 -51.611 -2.7279)"
       y1="6.2376"
       x1="71.204">
      <stop
         id="stop4013"
         stop-color="#fff"
         offset="0" />
      <stop
         id="stop4015"
         stop-color="#fff"
         stop-opacity=".23529"
         offset=".50776" />
      <stop
         id="stop4017"
         stop-color="#fff"
         stop-opacity=".15686"
         offset=".83457" />
      <stop
         id="stop4019"
         stop-color="#fff"
         stop-opacity=".39216"
         offset="1" />
    </linearGradient>
    <radialGradient
       id="radialGradient3015"
       gradientUnits="userSpaceOnUse"
       cy="8.4498"
       cx="3.9722"
       gradientTransform="matrix(0 2.4988 -2.6435 -6.8014e-8 46.337 -12.18)"
       r="20">
      <stop
         id="stop3750-8-9"
         stop-color="#90dbec"
         offset="0" />
      <stop
         id="stop3752-3-2"
         stop-color="#42baea"
         offset=".26238" />
      <stop
         id="stop3754-7-2"
         stop-color="#3689e6"
         offset=".70495" />
      <stop
         id="stop3756-9-3"
         stop-color="#2b63a0"
         offset="1" />
    </radialGradient>
    <radialGradient
       id="radialGradient3018"
       gradientUnits="userSpaceOnUse"
       cy="186.17"
       cx="99.157"
       gradientTransform="matrix(.27083 0 0 .087623 -2.8551 25.187)"
       r="62.769">
      <stop
         id="stop3822-2-6-3"
         stop-color="#3d3d3d"
         offset="0" />
      <stop
         id="stop3864-8-7-7"
         stop-color="#686868"
         stop-opacity=".49804"
         offset=".5" />
      <stop
         id="stop3824-1-2-5"
         stop-color="#686868"
         stop-opacity="0"
         offset="1" />
    </radialGradient>
    <clipPath
       id="clipPath-851446753">
      <g
         id="g17"
         transform="translate(0 -1004.4)">
        <path
           id="path19"
           d="m-24 13c0 1.105-0.672 2-1.5 2s-1.5-0.895-1.5-2 0.672-2 1.5-2 1.5 0.895 1.5 2z"
           transform="matrix(15.333 0 0 11.5 415 878.86)"
           fill="#1890d0" />
      </g>
    </clipPath>
  </defs>
  <metadata
     id="metadata4036">
    <rdf:RDF>
      <cc:Work
         rdf:about="">
        <dc:format>image/svg+xml</dc:format>
        <dc:type
           rdf:resource="http://purl.org/dc/dcmitype/StillImage" />
        <dc:title />
      </cc:Work>
    </rdf:RDF>
  </metadata>
  <path
     id="path2555"
     style="color:#000000"
     d="m24 3.5c-11.311 0-20.5 9.189-20.5 20.5s9.189 20.5 20.5 20.5 20.5-9.189 20.5-20.5-9.189-20.5-20.5-20.5z"
     fill="url(#radialGradient3015)" />
  <g
     id="g4255"
     stroke-linejoin="round"
     opacity=".15"
     transform="matrix(.99988 0 0 1 .00026917 0)"
     stroke="#000"
     stroke-linecap="round"
     stroke-width="1.0001"
     fill="none">
    <g
       id="g4257"
       stroke-linejoin="round"
       clip-path="url(#clipPath-851446753)"
       stroke="#000"
       stroke-linecap="round"
       stroke-width="1.0001"
       fill="none">
      <!-- color: #e8e8e8 -->
      <g
         id="g4259"
         stroke-linejoin="round"
         stroke="#000"
         stroke-linecap="round"
         stroke-width="1.0001"
         fill="none">
        <path
           id="path4261"
           d="m20.223 16.785c-3.848 0-6.965 3.199-6.965 7.145 0 0.164 0.004 0.324 0.016 0.484-1.355 0.668-2.273 2.01-2.273 3.566 0 2.227 1.887 4.02 4.23 4.02h17.543c2.344 0 4.23-1.793 4.23-4.02 0-1.656-1.043-3.07-2.539-3.688 0.035-0.25 0.059-0.508 0.059-0.77 0-2.824-2.238-5.117-4.992-5.117-1.387 0-2.641 0.578-3.543 1.512-1.254-1.891-3.367-3.133-5.766-3.133m-2.883 2.18c0.754 0 1.363 0.594 1.363 1.332s-0.609 1.336-1.363 1.336-1.363-0.598-1.363-1.336 0.609-1.332 1.363-1.332m6.66 1.98c2.469 0 4.484 2.074 4.484 4.605 0 2.523-2.02 4.602-4.484 4.602-2.465 0-4.484-2.074-4.484-4.602 0-2.531 2.02-4.605 4.484-4.605m0 1.977c-1.422 0-2.555 1.164-2.555 2.629s1.133 2.625 2.555 2.625 2.555-1.16 2.555-2.625-1.133-2.629-2.555-2.629" />
        <path
           id="path4263"
           d="m32.3 18.313-0.523-0.508-0.703 0.152 0.309-0.664-0.359-0.637 0.715 0.094 0.48-0.547 0.133 0.723 0.656 0.301-0.633 0.352m-0.074 0.734" />
        <path
           id="path4265"
           d="m32.883 16.965 0.027-0.344-0.262-0.219 0.328-0.078 0.125-0.324 0.172 0.297 0.336 0.02-0.219 0.262 0.086 0.332-0.309-0.133m-0.285 0.188" />
        <path
           id="path4267"
           d="m33.2 18.969-0.063-0.523-0.457-0.242 0.465-0.227 0.086-0.52 0.352 0.387 0.508-0.078-0.25 0.461 0.23 0.473-0.504-0.102m-0.367 0.371" />
      </g>
    </g>
  </g>
  <path
     id="path8655"
     opacity=".5"
     stroke-linejoin="round"
     style="color:#000000"
     d="m43.5 23.999c0 10.77-8.7311 19.501-19.5 19.501-10.77 0-19.5-8.7309-19.5-19.501 0-10.769 8.7306-19.499 19.5-19.499s19.5 8.73 19.5 19.499v0z"
     stroke="url(#linearGradient3012)"
     stroke-linecap="round"
     fill="none" />
  <path
     id="path2555-6"
     opacity=".5"
     stroke-linejoin="round"
     style="color:#000000"
     d="m24 3.5c-11.311 0-20.5 9.1888-20.5 20.5s9.1888 20.5 20.5 20.5 20.5-9.1888 20.5-20.5-9.1888-20.5-20.5-20.5z"
     fill-opacity="0"
     stroke="#00537d"
     stroke-linecap="round" />
  <path
     id="path3953"
     opacity=".05"
     style="color:#000000"
     d="m23.319 24.732a1 1 0 0 1 0.67891 -1.7319l0.002 1z"
     fill="#fff" />
  <g
     id="g4241"
     stroke-linejoin="round"
     opacity=".15"
     transform="matrix(.99988 0 0 1 .00026917 0)"
     stroke="#000"
     stroke-linecap="round"
     stroke-width="2.0001"
     fill="none">
    <g
       id="g4243"
       stroke-linejoin="round"
       clip-path="url(#clipPath-851446753)"
       stroke="#000"
       stroke-linecap="round"
       stroke-width="2.0001"
       fill="none">
      <!-- color: #e8e8e8 -->
      <g
         id="g4245"
         stroke-linejoin="round"
         stroke="#000"
         stroke-linecap="round"
         stroke-width="2.0001"
         fill="none">
        <path
           id="path4247"
           d="m20.223 16.785c-3.848 0-6.965 3.199-6.965 7.145 0 0.164 0.004 0.324 0.016 0.484-1.355 0.668-2.273 2.01-2.273 3.566 0 2.227 1.887 4.02 4.23 4.02h17.543c2.344 0 4.23-1.793 4.23-4.02 0-1.656-1.043-3.07-2.539-3.688 0.035-0.25 0.059-0.508 0.059-0.77 0-2.824-2.238-5.117-4.992-5.117-1.387 0-2.641 0.578-3.543 1.512-1.254-1.891-3.367-3.133-5.766-3.133m-2.883 2.18c0.754 0 1.363 0.594 1.363 1.332s-0.609 1.336-1.363 1.336-1.363-0.598-1.363-1.336 0.609-1.332 1.363-1.332m6.66 1.98c2.469 0 4.484 2.074 4.484 4.605 0 2.523-2.02 4.602-4.484 4.602-2.465 0-4.484-2.074-4.484-4.602 0-2.531 2.02-4.605 4.484-4.605m0 1.977c-1.422 0-2.555 1.164-2.555 2.629s1.133 2.625 2.555 2.625 2.555-1.16 2.555-2.625-1.133-2.629-2.555-2.629" />
        <path
           id="path4249"
           d="m32.3 18.313-0.523-0.508-0.703 0.152 0.309-0.664-0.359-0.637 0.715 0.094 0.48-0.547 0.133 0.723 0.656 0.301-0.633 0.352m-0.074 0.734" />
        <path
           id="path4251"
           d="m32.883 16.965 0.027-0.344-0.262-0.219 0.328-0.078 0.125-0.324 0.172 0.297 0.336 0.02-0.219 0.262 0.086 0.332-0.309-0.133m-0.285 0.188" />
        <path
           id="path4253"
           d="m33.2 18.969-0.063-0.523-0.457-0.242 0.465-0.227 0.086-0.52 0.352 0.387 0.508-0.078-0.25 0.461 0.23 0.473-0.504-0.102m-0.367 0.371" />
      </g>
    </g>
  </g>
  <g
     id="g53"
     fill="#fff"
     transform="matrix(.99988 0 0 1 .00026917 0)">
    <g
       id="g55"
       fill="#fff"
       clip-path="url(#clipPath-851446753)">
      <!-- color: #e8e8e8 -->
      <g
         id="g57"
         fill="#fff">
        <path
           id="path59"
           d="m20.223 16.785c-3.848 0-6.965 3.199-6.965 7.145 0 0.164 0.004 0.324 0.016 0.484-1.355 0.668-2.273 2.01-2.273 3.566 0 2.227 1.887 4.02 4.23 4.02h17.543c2.344 0 4.23-1.793 4.23-4.02 0-1.656-1.043-3.07-2.539-3.688 0.035-0.25 0.059-0.508 0.059-0.77 0-2.824-2.238-5.117-4.992-5.117-1.387 0-2.641 0.578-3.543 1.512-1.254-1.891-3.367-3.133-5.766-3.133m-2.883 2.18c0.754 0 1.363 0.594 1.363 1.332s-0.609 1.336-1.363 1.336-1.363-0.598-1.363-1.336 0.609-1.332 1.363-1.332m6.66 1.98c2.469 0 4.484 2.074 4.484 4.605 0 2.523-2.02 4.602-4.484 4.602-2.465 0-4.484-2.074-4.484-4.602 0-2.531 2.02-4.605 4.484-4.605m0 1.977c-1.422 0-2.555 1.164-2.555 2.629s1.133 2.625 2.555 2.625 2.555-1.16 2.555-2.625-1.133-2.629-2.555-2.629" />
        <path
           id="path61"
           d="m32.3 18.313-0.523-0.508-0.703 0.152 0.309-0.664-0.359-0.637 0.715 0.094 0.48-0.547 0.133 0.723 0.656 0.301-0.633 0.352m-0.074 0.734" />
        <path
           id="path63"
           d="m32.883 16.965 0.027-0.344-0.262-0.219 0.328-0.078 0.125-0.324 0.172 0.297 0.336 0.02-0.219 0.262 0.086 0.332-0.309-0.133m-0.285 0.188" />
        <path
           id="path65"
           d="m33.2 18.969-0.063-0.523-0.457-0.242 0.465-0.227 0.086-0.52 0.352 0.387 0.508-0.078-0.25 0.461 0.23 0.473-0.504-0.102m-0.367 0.371" />
      </g>
    </g>
  </g>
</svg>
