<?xml version="1.0" encoding="UTF-8" standalone="no"?>
<!-- Created with Inkscape (http://www.inkscape.org/) -->

<svg
   xmlns:dc="http://purl.org/dc/elements/1.1/"
   xmlns:cc="http://creativecommons.org/ns#"
   xmlns:rdf="http://www.w3.org/1999/02/22-rdf-syntax-ns#"
   xmlns:svg="http://www.w3.org/2000/svg"
   xmlns="http://www.w3.org/2000/svg"
   xmlns:sodipodi="http://sodipodi.sourceforge.net/DTD/sodipodi-0.dtd"
   xmlns:inkscape="http://www.inkscape.org/namespaces/inkscape"
   id="svg4061"
   height="48"
   width="48"
   version="1.1"
   inkscape:version="0.91 r13725"
   sodipodi:docname="steam_icon_295270.svg">
  <sodipodi:namedview
     pagecolor="#ffffff"
     bordercolor="#666666"
     borderopacity="1"
     objecttolerance="10"
     gridtolerance="10"
     guidetolerance="10"
     inkscape:pageopacity="0"
     inkscape:pageshadow="2"
     inkscape:window-width="1535"
     inkscape:window-height="876"
     id="namedview39"
     showgrid="false"
     inkscape:zoom="4.9166667"
     inkscape:cx="24"
     inkscape:cy="24"
     inkscape:window-x="65"
     inkscape:window-y="24"
     inkscape:window-maximized="1"
     inkscape:current-layer="svg4061" />
  <defs
     id="defs4063">
    <linearGradient
       id="linearGradient3026"
       y2="40.496"
       gradientUnits="userSpaceOnUse"
       x2="71.204"
       gradientTransform="matrix(1.617 0 0 1.617 -92.707 -21.06)"
       y1="15.369"
       x1="71.204">
      <stop
         id="stop4808-4"
         stop-color="#fff"
         offset="0" />
      <stop
         id="stop4810-0"
         stop-color="#fff"
         stop-opacity=".23529"
         offset=".42448" />
      <stop
         id="stop4812-8"
         stop-color="#fff"
         stop-opacity=".15686"
         offset=".82090" />
      <stop
         id="stop4814-0"
         stop-color="#fff"
         stop-opacity=".39216"
         offset="1" />
    </linearGradient>
    <radialGradient
       id="radialGradient3029"
       fx="4.459"
       fy="8.5089"
       gradientUnits="userSpaceOnUse"
       cy="8.6258"
       cx="15.026"
       gradientTransform="matrix(-3.4973e-8 1.8855 -1.7764 -5.4723e-8 39.14 -7.9932)"
       r="20">
      <stop
         id="stop4170"
         stop-color="#ff9696"
         offset="0" />
      <stop
         id="stop4172"
         stop-color="#fd7676"
         offset=".26238" />
      <stop
         id="stop4174"
         stop-color="#f94040"
         offset=".66094" />
      <stop
         id="stop4176"
         stop-color="#e42020"
         offset="1" />
    </radialGradient>
    <radialGradient
       id="radialGradient3032"
       gradientUnits="userSpaceOnUse"
       cy="3.99"
       cx="23.896"
       gradientTransform="matrix(0 2.8885 -3.8128 0 39.213 -65.95)"
       r="20.397">
      <stop
         id="stop3244-9-33-7-0-9"
         stop-color="#fff"
         offset="0" />
      <stop
         id="stop3246-3-5-0-8-5"
         stop-color="#ddd"
         offset=".26238" />
      <stop
         id="stop3248-1-7-8-8-1"
         stop-color="#abacae"
         offset=".66094" />
      <stop
         id="stop3250-9-3-0-5-1"
         stop-color="#89898b"
         offset="1" />
    </radialGradient>
    <radialGradient
       id="radialGradient3035"
       gradientUnits="userSpaceOnUse"
       cy="186.17"
       cx="99.157"
       gradientTransform="matrix(.27083 0 0 .087623 -2.8551 25.187)"
       r="62.769">
      <stop
         id="stop3822-2-6-3"
         stop-color="#3d3d3d"
         offset="0" />
      <stop
         id="stop3864-8-7-7"
         stop-color="#686868"
         stop-opacity=".49804"
         offset=".5" />
      <stop
         id="stop3824-1-2-5"
         stop-color="#686868"
         stop-opacity="0"
         offset="1" />
    </radialGradient>
  </defs>
  <metadata
     id="metadata4066">
    <rdf:RDF>
      <cc:Work
         rdf:about="">
        <dc:format>image/svg+xml</dc:format>
        <dc:type
           rdf:resource="http://purl.org/dc/dcmitype/StillImage" />
        <dc:title />
      </cc:Work>
    </rdf:RDF>
  </metadata>
  <path
     id="path2555-7-2"
     style="color:#000000"
     d="m24 3.5c-11.311 0-20.5 9.189-20.5 20.5s9.189 20.5 20.5 20.5 20.5-9.189 20.5-20.5-9.189-20.5-20.5-20.5z"
     fill="url(#radialGradient3032)" />
  <path
     id="path2555-7-65"
     style="color:#000000"
     d="m24 3.5c-11.311 0-20.5 9.189-20.5 20.5s9.189 20.5 20.5 20.5 20.5-9.189 20.5-20.5-9.189-20.5-20.5-20.5z"
     fill="url(#radialGradient3029)" />
  <path
     id="path4176"
     opacity=".5"
     stroke-linejoin="round"
     style="color:#000000"
     d="m43.5 24c0 10.77-8.73 19.5-19.5 19.5s-19.5-8.73-19.5-19.5 8.73-19.5 19.5-19.5 19.5 8.73 19.5 19.5z"
     stroke="url(#linearGradient3026)"
     stroke-linecap="round"
     fill="none" />
  <path
     id="path2555-7-1-7"
     opacity=".5"
     stroke-linejoin="round"
     style="color:#000000"
     d="m24 3.5001c-11.311 0-20.5 9.1888-20.5 20.5s9.1888 20.5 20.5 20.5 20.5-9.1888 20.5-20.5-9.189-20.5-20.5-20.5z"
     stroke="#980000"
     stroke-linecap="round"
     fill="none" />
  <g
     id="g4288"
     stroke-linejoin="round"
     transform="translate(0 .49959)"
     stroke="#000"
     stroke-linecap="round"
     fill="none">
    <g
       id="g4276"
       opacity=".15"
       transform="matrix(.27961 0 0 .28716 24.071 -53.993)"
       stroke-width="7.0581">
      <path
         id="path4278"
         d="m24.38 258.6c0.0775-1.275-0.115-2.17-0.82-2.74-0.62125-0.57625-1.7512-0.8325-3.5425-0.8325h-3.0812l-1.8675 7.141c3.6025-1.0198 7.4488-1.3398 11.038-1.3398 5.5562 0 12.129 1.02 15.024 4.3374 3.2375 3.6314 2.215 9.1801 1.0138 13.769-1.3875 5.2901-3.0575 11.349-9.3412 15.429-6.1788 4.0136-14.67 5.0971-21.852 5.0971-10.43 0-18.89-1.6562-26.134-6.3085l4.0362-15.429h22.146l-1.6038 6.1201c-0.06625 0.25338-1.155 3.7612 2.9488 3.7612 5.0438 0 5.6538-3.6339 6.77-7.9039 0.9525-3.6352 2.41-7.9086-2.375-7.9086-4.1075 0-4.72 2.3638-4.8075 2.3638h-22.144l7.9562-30.413h52.07l-3.8862 14.856h-21.548" />
      <path
         id="path4280"
         d="m-21.081 283.33c-0.5325 2.0415-1.3238 4.08 1.0788 5.3564l-2.5362 9.6875h-27.786l2.5338-9.6875c3.0712-1.2764 3.3475-3.3149 3.88-5.3564l6.4262-24.544c0.53375-2.0412 1.325-4.08-1.0775-5.3562l2.5375-9.69h25.305l-10.361 39.59" />
    </g>
    <g
       id="g4282"
       opacity=".15"
       transform="matrix(.27961 0 0 .28716 24.071 -53.993)"
       stroke-width="3.529">
      <path
         id="path4284"
         d="m24.38 258.6c0.0775-1.275-0.115-2.17-0.82-2.74-0.62125-0.57625-1.7512-0.8325-3.5425-0.8325h-3.0812l-1.8675 7.141c3.6025-1.0198 7.4488-1.3398 11.038-1.3398 5.5562 0 12.129 1.02 15.024 4.3374 3.2375 3.6314 2.215 9.1801 1.0138 13.769-1.3875 5.2901-3.0575 11.349-9.3412 15.429-6.1788 4.0136-14.67 5.0971-21.852 5.0971-10.43 0-18.89-1.6562-26.134-6.3085l4.0362-15.429h22.146l-1.6038 6.1201c-0.06625 0.25338-1.155 3.7612 2.9488 3.7612 5.0438 0 5.6538-3.6339 6.77-7.9039 0.9525-3.6352 2.41-7.9086-2.375-7.9086-4.1075 0-4.72 2.3638-4.8075 2.3638h-22.144l7.9562-30.413h52.07l-3.8862 14.856h-21.548" />
      <path
         id="path4286"
         d="m-21.081 283.33c-0.5325 2.0415-1.3238 4.08 1.0788 5.3564l-2.5362 9.6875h-27.786l2.5338-9.6875c3.0712-1.2764 3.3475-3.3149 3.88-5.3564l6.4262-24.544c0.53375-2.0412 1.325-4.08-1.0775-5.3562l2.5375-9.69h25.305l-10.361 39.59" />
    </g>
  </g>
  <g
     id="g4415"
     transform="matrix(.27961 0 0 .28716 24.071 -53.993)"
     fill="#fff">
    <path
       id="path82"
       d="m24.38 258.6c0.0775-1.275-0.115-2.17-0.82-2.74-0.62125-0.57625-1.7512-0.8325-3.5425-0.8325h-3.0812l-1.8675 7.141c3.6025-1.0198 7.4488-1.3398 11.038-1.3398 5.5562 0 12.129 1.02 15.024 4.3374 3.2375 3.6314 2.215 9.1801 1.0138 13.769-1.3875 5.2901-3.0575 11.349-9.3412 15.429-6.1788 4.0136-14.67 5.0971-21.852 5.0971-10.43 0-18.89-1.6562-26.134-6.3085l4.0362-15.429h22.146l-1.6038 6.1201c-0.06625 0.25338-1.155 3.7612 2.9488 3.7612 5.0438 0 5.6538-3.6339 6.77-7.9039 0.9525-3.6352 2.41-7.9086-2.375-7.9086-4.1075 0-4.72 2.3638-4.8075 2.3638h-22.144l7.9562-30.413h52.07l-3.8862 14.856h-21.548" />
    <path
       id="path78"
       d="m-21.081 283.33c-0.5325 2.0415-1.3238 4.08 1.0788 5.3564l-2.5362 9.6875h-27.786l2.5338-9.6875c3.0712-1.2764 3.3475-3.3149 3.88-5.3564l6.4262-24.544c0.53375-2.0412 1.325-4.08-1.0775-5.3562l2.5375-9.69h25.305l-10.361 39.59" />
  </g>
</svg>
