<?xml version="1.0" encoding="UTF-8" standalone="no"?>
<!-- Created with Inkscape (http://www.inkscape.org/) -->

<svg
   xmlns:dc="http://purl.org/dc/elements/1.1/"
   xmlns:cc="http://creativecommons.org/ns#"
   xmlns:rdf="http://www.w3.org/1999/02/22-rdf-syntax-ns#"
   xmlns:svg="http://www.w3.org/2000/svg"
   xmlns="http://www.w3.org/2000/svg"
   xmlns:sodipodi="http://sodipodi.sourceforge.net/DTD/sodipodi-0.dtd"
   xmlns:inkscape="http://www.inkscape.org/namespaces/inkscape"
   id="svg3143"
   height="48"
   width="48"
   version="1.1"
   inkscape:version="0.91 r13725"
   sodipodi:docname="supermeatboy.svg">
  <sodipodi:namedview
     pagecolor="#ffffff"
     bordercolor="#666666"
     borderopacity="1"
     objecttolerance="10"
     gridtolerance="10"
     guidetolerance="10"
     inkscape:pageopacity="0"
     inkscape:pageshadow="2"
     inkscape:window-width="1535"
     inkscape:window-height="876"
     id="namedview94"
     showgrid="false"
     inkscape:zoom="4.9166667"
     inkscape:cx="-10.779661"
     inkscape:cy="24"
     inkscape:window-x="65"
     inkscape:window-y="24"
     inkscape:window-maximized="1"
     inkscape:current-layer="svg3143" />
  <defs
     id="defs3145">
    <radialGradient
       id="radialGradient3030"
       gradientUnits="userSpaceOnUse"
       cy="43.5"
       cx="4.993"
       gradientTransform="matrix(2.0038 0 0 1.4 27.988 -17.4)"
       r="2.5">
      <stop
         id="stop2883"
         stop-color="#181818"
         offset="0" />
      <stop
         id="stop2885"
         stop-color="#181818"
         stop-opacity="0"
         offset="1" />
    </radialGradient>
    <radialGradient
       id="radialGradient3032"
       gradientUnits="userSpaceOnUse"
       cy="43.5"
       cx="4.993"
       gradientTransform="matrix(2.0038 0 0 1.4 -20.012 -104.4)"
       r="2.5">
      <stop
         id="stop2889"
         stop-color="#181818"
         offset="0" />
      <stop
         id="stop2891"
         stop-color="#181818"
         stop-opacity="0"
         offset="1" />
    </radialGradient>
    <linearGradient
       id="linearGradient3034"
       y2="39.999"
       gradientUnits="userSpaceOnUse"
       x2="25.058"
       y1="47.028"
       x1="25.058">
      <stop
         id="stop2895"
         stop-color="#181818"
         stop-opacity="0"
         offset="0" />
      <stop
         id="stop2897"
         stop-color="#181818"
         offset=".5" />
      <stop
         id="stop2899"
         stop-color="#181818"
         stop-opacity="0"
         offset="1" />
    </linearGradient>
    <linearGradient
       id="linearGradient3044"
       y2="43"
       gradientUnits="userSpaceOnUse"
       x2="24"
       gradientTransform="translate(5.3e-6,1)"
       y1="5"
       x1="24">
      <stop
         id="stop3926-7"
         stop-color="#fff"
         offset="0" />
      <stop
         id="stop3928-3"
         stop-color="#fff"
         stop-opacity=".23529"
         offset=".063165" />
      <stop
         id="stop3930-7"
         stop-color="#fff"
         stop-opacity=".15686"
         offset=".95056" />
      <stop
         id="stop3932-1"
         stop-color="#fff"
         stop-opacity=".39216"
         offset="1" />
    </linearGradient>
    <radialGradient
       id="radialGradient3053"
       gradientUnits="userSpaceOnUse"
       cy="9.9941"
       cx="8.2761"
       gradientTransform="matrix(0,6.6678,-8.1859,0,105.88,-59.463)"
       r="12.672">
      <stop
         id="stop4241"
         stop-color="#f77"
         offset="0" />
      <stop
         id="stop4243"
         stop-color="#ff4633"
         offset=".26238" />
      <stop
         id="stop4245"
         stop-color="#e50712"
         offset=".66094" />
      <stop
         id="stop4247"
         stop-color="#690b0b"
         offset="1" />
    </radialGradient>
    <filter
       id="filter4639"
       style="color-interpolation-filters:sRGB"
       height="1.8109"
       width="1.3531"
       y="-.40544"
       x="-.17656">
      <feGaussianBlur
         id="feGaussianBlur4641"
         stdDeviation="0.26350376" />
    </filter>
  </defs>
  <metadata
     id="metadata3148">
    <rdf:RDF>
      <cc:Work
         rdf:about="">
        <dc:format>image/svg+xml</dc:format>
        <dc:type
           rdf:resource="http://purl.org/dc/dcmitype/StillImage" />
        <dc:title />
      </cc:Work>
    </rdf:RDF>
  </metadata>
  <g
     id="g4222"
     transform="translate(0,-1)">
    <rect
       x="4.5"
       y="5.5"
       width="39"
       height="39"
       ry="2"
       rx="2"
       style="color:#000000;fill:url(#radialGradient3053)"
       id="rect5505-21" />
    <g
       transform="translate(3.6585,3.8462)"
       id="g4253">
      <path
         d="m 16.97,19.256 c 0,2.7893 -2.904,3.5073 -6.3131,3.5073 -3.4092,0 -6.0325,-0.71798 -6.0325,-3.5073 0,-2.78932 2.7637,-5.0505 6.1728,-5.0505 3.4092,0 6.1728,2.2612 6.1728,5.0505 z"
         id="path4244"
         inkscape:connector-curvature="0" />
      <ellipse
         cx="-0.70708001"
         cy="19.384001"
         transform="matrix(0.87311785,-0.48750921,0.48750921,0.87311785,0,0)"
         ry="1.1087"
         rx="1.8710001"
         id="ellipse4246"
         style="fill:#ffffff" />
    </g>
    <rect
       x="5.5"
       y="6.5"
       width="37"
       height="37"
       ry="1"
       rx="1"
       id="rect6741-2"
       style="opacity:0.5;fill:none;stroke:url(#linearGradient3044);stroke-linecap:round;stroke-linejoin:round" />
    <rect
       x="4.5"
       y="5.5"
       width="39"
       height="39"
       ry="2"
       rx="2"
       style="color:#000000;opacity:0.35;fill:none;stroke:#410000;stroke-linecap:round;stroke-linejoin:round"
       id="rect5505-21-1" />
    <g
       transform="matrix(0.54257,-0.044317,0.044317,0.54257,14.427,-6.2116)"
       id="g4643"
       style="fill:none;stroke:#000000;stroke-width:1.91779995;stroke-linecap:round;stroke-linejoin:round">
      <path
         d="m 39.858,70.433 c -0.48939,2.0192 0.35551,4.3543 -1.1028,6.1101 -2.6539,3.1951 -8.296,5.5422 -21.963,5.5422 -21.178,0 -27.302,0.13376 -31.284,-12.402 -0.96857,-3.0491 16.75,-2.6434 28.495,-2.6928 13.852,-0.05827 25.855,3.4426 25.855,3.4426 z"
         id="path4645"
         inkscape:connector-curvature="0" />
      <path
         d="m 14.002,66.99 c -10.744,0.045 -26.474,-0.288 -28.34,1.989 4.5379,-0.546 8.2379,-0.524 16.174,-0.479 0.5936,0.003 1.3874,-0.996 2.1952,-1.031 0.95126,-0.04139 1.9505,0.98633 2.6797,0.98633 5.5465,0 13.56,0.78424 19.705,1.0293 4.3423,0.17315 7.8451,0.24422 10.652,0.24414 -5.02,-1.1285 -13.901,-2.7768 -23.066,-2.7383 z"
         id="path4647"
         inkscape:connector-curvature="0" />
      <path
         d="m -10.965,76.83 c 4.387,5.3288 11.795,5.2559 27.756,5.2559 10.867,0 16.643,-1.489 19.895,-3.7031 -5.8302,0.4307 -13.804,1.1758 -22.213,1.1758 -10.111,0 -19.486,-1.8059 -25.438,-2.7285 z"
         id="path4649"
         inkscape:connector-curvature="0" />
      <path
         d="m 14.574,72.727 c -1.5264,1.6888 -2.2382,2.0067 -4.3959,1.4021 -2.1578,-0.6046 -2.1747,-2.3906 -2.3202,-4.1266 -0.18717,-2.233 3.879,-2.6002 6.0367,-1.9956 2.1529,0.76922 1.192,2.7533 0.67936,4.72 z"
         id="path4651"
         inkscape:connector-curvature="0" />
      <path
         d="m 21.983,72.929 c -1.5264,1.6888 -1.8325,1.1954 -3.9903,0.59078 -2.1578,-0.6046 -2.5803,-1.5792 -2.7258,-3.3152 -0.18717,-2.233 3.879,-2.6002 6.0367,-1.9956 2.1529,0.76922 -0.02497,2.6519 0.67936,4.72 z"
         id="path4653"
         inkscape:connector-curvature="0" />
      <path
         d="m 22.611,69.755 c 1.9264,-1.2128 1.4406,-2.101 3.3542,-0.93507 1.9137,1.1659 2.0568,2.2185 1.7271,3.9291 -0.42403,2.2004 -2.7079,2.0452 -4.6216,0.8793 -1.8645,-1.3231 -0.34133,-1.6918 -0.4598,-3.8733 z"
         id="path4655"
         inkscape:connector-curvature="0" />
      <path
         d="m 28.141,70.799 c 0.40116,-1.8885 0.6871,-2.0795 2.5038,-1.5245 1.8167,0.55499 2.1732,1.4059 2.2969,2.9128 0.15917,1.9384 -1.7266,2.3125 -3.5433,1.7575 -1.8128,-0.69762 -1.6518,-1.289 -1.2574,-3.1458 z"
         id="path4657"
         inkscape:connector-curvature="0" />
      <path
         d="m 35.473,72.973 c -0.92445,0.96828 -1.1596,0.97377 -2.005,-0.03936 -0.84538,-1.0131 -0.73901,-1.6517 -0.25762,-2.5915 0.61921,-1.2089 1.8453,-0.72043 2.6907,0.29271 0.79079,1.0962 0.48089,1.3861 -0.42806,2.3381 z"
         id="path4659"
         inkscape:connector-curvature="0" />
      <path
         d="m -1.3815,67.894 c 2.0474,0.99503 2.5449,0.11328 2.5659,2.354 0.020991,2.2408 -0.79716,2.9183 -2.4237,3.5421 -2.0923,0.80235 -3.167,-1.2188 -3.188,-3.4596 0.13844,-2.282 1.2562,-1.1835 3.0459,-2.4366 z"
         id="path4661"
         inkscape:connector-curvature="0" />
      <path
         d="m -6.4595,68.615 c 2.1371,0.21435 1.7767,-0.05244 2.2629,2.0155 0.48615,2.0679 -4.837e-4,2.5798 -1.1197,2.9307 -1.4396,0.45147 -2.6895,-1.5591 -3.1757,-3.627 -0.37228,-2.084 0.60335,-1.4625 2.0325,-1.3192 z"
         id="path4663"
         inkscape:connector-curvature="0" />
      <path
         d="m -10.179,68.491 c -1.3371,-0.06612 -1.5115,0.09176 -1.4274,1.4086 0.08408,1.3168 0.60077,1.7069 1.5968,2.0573 1.2812,0.45073 1.8345,-0.7475 1.7504,-2.0643 -0.18086,-1.3395 -0.6052,-1.3365 -1.9199,-1.4015 z"
         id="path4665"
         inkscape:connector-curvature="0" />
      <path
         d="M 6.3228,80.33 C 4.5241,81.725 3.7677,81.913 1.7492,80.94 -0.2693,79.967 0.0269,78.206 0.1877,76.471 0.39452,74.24 4.4621,74.59 6.4806,75.564 8.4656,76.698 7.172,78.483 6.3228,80.33 Z"
         id="path4667"
         inkscape:connector-curvature="0" />
      <path
         d="m 8.646,81.333 c -1.8839,-1.278 -1.4376,-1.649 -1.1375,-3.87 0.3001,-2.2207 1.3083,-2.0642 3.0074,-2.4486 2.1856,-0.49447 3.0107,2.7718 2.7106,4.9925 -0.4638,2.2387 -2.6298,0.34236 -4.5805,1.3262 z"
         id="path4669"
         inkscape:connector-curvature="0" />
      <path
         d="m 15.072,75.431 c 2.4232,0.17682 2.008,-0.10626 2.6162,2.1511 0.60819,2.2574 0.07225,2.8328 -1.1837,3.2488 -1.6155,0.53518 -3.0859,-1.6383 -3.6941,-3.8957 -0.47986,-2.2782 0.64112,-1.6225 2.2616,-1.5043 z"
         id="path4671"
         inkscape:connector-curvature="0" />
      <path
         d="m 20.659,76.042 c 2.4232,0.17682 1.0952,-0.20768 1.7034,2.0497 0.60819,2.2574 -1.2462,2.6299 -2.5021,3.046 -1.6155,0.53518 -1.7675,-1.4355 -2.3757,-3.6929 -0.47986,-2.2782 1.5539,-1.5211 3.1743,-1.4028 z"
         id="path4673"
         inkscape:connector-curvature="0" />
      <path
         d="m 25.182,76.087 c 1.9286,-0.0889 2.1856,0.13953 2.1075,2.0375 -0.07807,1.898 -0.81134,2.4578 -2.2381,2.9582 -1.8353,0.64365 -2.6736,-1.0864 -2.5956,-2.9845 0.21707,-1.9302 0.82993,-1.9239 2.7262,-2.0113 z"
         id="path4675"
         inkscape:connector-curvature="0" />
      <path
         d="m 29.482,76.086 c 1.5254,-0.07839 1.2215,-0.07979 1.1598,1.5939 -0.06175,1.6737 -0.13463,2.3702 -1.2631,2.8114 -1.4516,0.56758 -2.1146,-0.95804 -2.0529,-2.6317 0.17168,-1.7021 0.65641,-1.6965 2.1562,-1.7736 z"
         id="path4677"
         inkscape:connector-curvature="0" />
      <path
         d="m 32.619,75.49 c 1.3614,-0.4225 1.5823,-0.27952 1.839,1.3087 0.2567,1.58822 -0.17435,2.1851 -1.11,2.8581 -1.2035,0.8657 -2.0864,-0.41753 -2.3431,-2.0058 -0.16281,-1.6401 0.27549,-1.7456 1.614,-2.1611 z"
         id="path4679"
         inkscape:connector-curvature="0" />
      <path
         d="m -2.0328,75.176 c 1.9286,-0.0889 2.1856,0.13953 2.1075,2.0375 -0.07807,1.898 -0.81134,2.4578 -2.2381,2.9582 -1.8353,0.64365 -2.6736,-1.0864 -2.5956,-2.9845 0.21707,-1.9302 0.82993,-1.9239 2.7262,-2.0113 z"
         id="path4681"
         inkscape:connector-curvature="0" />
      <path
         d="m -6.0547,74.667 c 1.5254,-0.07839 1.2215,-0.07979 1.1598,1.5939 -0.06175,1.6737 -0.13463,2.3702 -1.2631,2.8114 -1.4516,0.56758 -2.1146,-0.95804 -2.0529,-2.6317 0.17169,-1.7021 0.65641,-1.6965 2.1562,-1.7736 z"
         id="path4683"
         inkscape:connector-curvature="0" />
      <path
         d="m -9.9174,74.367 c 1.3931,0.30196 1.5151,0.53514 0.95718,2.0441 -0.55791,1.509 -1.0018,1.3565 -1.6476,0.5667 -0.98487,-1.2045 -1.3474,-1.7656 -1.3474,-1.7656 0.66517,-1.508 0.66812,-1.1421 2.0378,-0.84524 z"
         id="path4685"
         inkscape:connector-curvature="0" />
    </g>
    <g
       transform="matrix(0.54257,-0.044317,0.044317,0.54257,14.427,-6.2116)"
       id="g4330"
       style="stroke:#000000;stroke-width:0.81560999;stroke-linecap:round;stroke-linejoin:round">
      <path
         d="m 39.858,70.433 c -0.48939,2.0192 0.35551,4.3543 -1.1028,6.1101 -2.6539,3.1951 -8.296,5.5422 -21.963,5.5422 -21.178,0 -27.302,0.13376 -31.284,-12.402 -0.96857,-3.0491 16.75,-2.6434 28.495,-2.6928 13.852,-0.05827 25.855,3.4426 25.855,3.4426 z"
         id="path4191"
         inkscape:connector-curvature="0" />
      <path
         d="m 14.002,66.99 c -10.744,0.045 -26.474,-0.288 -28.34,1.989 4.5379,-0.546 8.2379,-0.524 16.174,-0.479 0.5936,0.003 1.3874,-0.996 2.1952,-1.031 0.95126,-0.04139 1.9505,0.98633 2.6797,0.98633 5.5465,0 13.56,0.78424 19.705,1.0293 4.3423,0.17315 7.8451,0.24422 10.652,0.24414 -5.02,-1.1285 -13.901,-2.7768 -23.066,-2.7383 z"
         id="path4239"
         inkscape:connector-curvature="0"
         style="fill:#ff8585" />
      <path
         d="m -10.965,76.83 c 4.387,5.3288 11.795,5.2559 27.756,5.2559 10.867,0 16.643,-1.489 19.895,-3.7031 -5.8302,0.4307 -13.804,1.1758 -22.213,1.1758 -10.111,0 -19.486,-1.8059 -25.438,-2.7285 z"
         id="path4231"
         inkscape:connector-curvature="0"
         style="fill:#ff8585" />
      <path
         d="m 14.574,72.727 c -1.5264,1.6888 -2.2382,2.0067 -4.3959,1.4021 -2.1578,-0.6046 -2.1747,-2.3906 -2.3202,-4.1266 -0.18717,-2.233 3.879,-2.6002 6.0367,-1.9956 2.1529,0.76922 1.192,2.7533 0.67936,4.72 z"
         id="path4194"
         inkscape:connector-curvature="0"
         style="fill:#ffffff" />
      <path
         d="m 21.983,72.929 c -1.5264,1.6888 -1.8325,1.1954 -3.9903,0.59078 -2.1578,-0.6046 -2.5803,-1.5792 -2.7258,-3.3152 -0.18717,-2.233 3.879,-2.6002 6.0367,-1.9956 2.1529,0.76922 -0.02497,2.6519 0.67936,4.72 z"
         id="path4197"
         inkscape:connector-curvature="0"
         style="fill:#ffffff" />
      <path
         d="m 22.611,69.755 c 1.9264,-1.2128 1.4406,-2.101 3.3542,-0.93507 1.9137,1.1659 2.0568,2.2185 1.7271,3.9291 -0.42403,2.2004 -2.7079,2.0452 -4.6216,0.8793 -1.8645,-1.3231 -0.34133,-1.6918 -0.4598,-3.8733 z"
         id="path4199"
         inkscape:connector-curvature="0"
         style="fill:#ffffff" />
      <path
         d="m 28.141,70.799 c 0.40116,-1.8885 0.6871,-2.0795 2.5038,-1.5245 1.8167,0.55499 2.1732,1.4059 2.2969,2.9128 0.15917,1.9384 -1.7266,2.3125 -3.5433,1.7575 -1.8128,-0.69762 -1.6518,-1.289 -1.2574,-3.1458 z"
         id="path4201"
         inkscape:connector-curvature="0"
         style="fill:#ffffff" />
      <path
         d="m 35.473,72.973 c -0.92445,0.96828 -1.1596,0.97377 -2.005,-0.03936 -0.84538,-1.0131 -0.73901,-1.6517 -0.25762,-2.5915 0.61921,-1.2089 1.8453,-0.72043 2.6907,0.29271 0.79079,1.0962 0.48089,1.3861 -0.42806,2.3381 z"
         id="path4203"
         inkscape:connector-curvature="0"
         style="fill:#ffffff" />
      <path
         d="m -1.3815,67.894 c 2.0474,0.99503 2.5449,0.11328 2.5659,2.354 0.020991,2.2408 -0.79716,2.9183 -2.4237,3.5421 -2.0923,0.80235 -3.167,-1.2188 -3.188,-3.4596 0.13844,-2.282 1.2562,-1.1835 3.0459,-2.4366 z"
         id="path4205"
         inkscape:connector-curvature="0"
         style="fill:#ffffff" />
      <path
         d="m -6.4595,68.615 c 2.1371,0.21435 1.7767,-0.05244 2.2629,2.0155 0.48615,2.0679 -4.837e-4,2.5798 -1.1197,2.9307 -1.4396,0.45147 -2.6895,-1.5591 -3.1757,-3.627 -0.37228,-2.084 0.60335,-1.4625 2.0325,-1.3192 z"
         id="path4207"
         inkscape:connector-curvature="0"
         style="fill:#ffffff" />
      <path
         d="m -10.179,68.491 c -1.3371,-0.06612 -1.5115,0.09176 -1.4274,1.4086 0.08408,1.3168 0.60077,1.7069 1.5968,2.0573 1.2812,0.45073 1.8345,-0.7475 1.7504,-2.0643 -0.18086,-1.3395 -0.6052,-1.3365 -1.9199,-1.4015 z"
         id="path4209"
         inkscape:connector-curvature="0"
         style="fill:#ffffff" />
      <path
         d="M 6.3228,80.33 C 4.5241,81.725 3.7677,81.913 1.7492,80.94 -0.2693,79.967 0.0269,78.206 0.1877,76.471 0.39452,74.24 4.4621,74.59 6.4806,75.564 8.4656,76.698 7.172,78.483 6.3228,80.33 Z"
         id="path4211"
         inkscape:connector-curvature="0"
         style="fill:#ffffff" />
      <path
         d="m 8.646,81.333 c -1.8839,-1.278 -1.4376,-1.649 -1.1375,-3.87 0.3001,-2.2207 1.3083,-2.0642 3.0074,-2.4486 2.1856,-0.49447 3.0107,2.7718 2.7106,4.9925 -0.4638,2.2387 -2.6298,0.34236 -4.5805,1.3262 z"
         id="path4213"
         inkscape:connector-curvature="0"
         style="fill:#ffffff" />
      <path
         d="m 15.072,75.431 c 2.4232,0.17682 2.008,-0.10626 2.6162,2.1511 0.60819,2.2574 0.07225,2.8328 -1.1837,3.2488 -1.6155,0.53518 -3.0859,-1.6383 -3.6941,-3.8957 -0.47986,-2.2782 0.64112,-1.6225 2.2616,-1.5043 z"
         id="path4215"
         inkscape:connector-curvature="0"
         style="fill:#ffffff" />
      <path
         d="m 20.659,76.042 c 2.4232,0.17682 1.0952,-0.20768 1.7034,2.0497 0.60819,2.2574 -1.2462,2.6299 -2.5021,3.046 -1.6155,0.53518 -1.7675,-1.4355 -2.3757,-3.6929 -0.47986,-2.2782 1.5539,-1.5211 3.1743,-1.4028 z"
         id="path4217"
         inkscape:connector-curvature="0"
         style="fill:#ffffff" />
      <path
         d="m 25.182,76.087 c 1.9286,-0.0889 2.1856,0.13953 2.1075,2.0375 -0.07807,1.898 -0.81134,2.4578 -2.2381,2.9582 -1.8353,0.64365 -2.6736,-1.0864 -2.5956,-2.9845 0.21707,-1.9302 0.82993,-1.9239 2.7262,-2.0113 z"
         id="path4219"
         inkscape:connector-curvature="0"
         style="fill:#ffffff" />
      <path
         d="m 29.482,76.086 c 1.5254,-0.07839 1.2215,-0.07979 1.1598,1.5939 -0.06175,1.6737 -0.13463,2.3702 -1.2631,2.8114 -1.4516,0.56758 -2.1146,-0.95804 -2.0529,-2.6317 0.17168,-1.7021 0.65641,-1.6965 2.1562,-1.7736 z"
         id="path4221"
         inkscape:connector-curvature="0"
         style="fill:#ffffff" />
      <path
         d="m 32.619,75.49 c 1.3614,-0.4225 1.5823,-0.27952 1.839,1.3087 0.2567,1.58822 -0.17435,2.1851 -1.11,2.8581 -1.2035,0.8657 -2.0864,-0.41753 -2.3431,-2.0058 -0.16281,-1.6401 0.27549,-1.7456 1.614,-2.1611 z"
         id="path4223"
         inkscape:connector-curvature="0"
         style="fill:#ffffff" />
      <path
         d="m -2.0328,75.176 c 1.9286,-0.0889 2.1856,0.13953 2.1075,2.0375 -0.07807,1.898 -0.81134,2.4578 -2.2381,2.9582 -1.8353,0.64365 -2.6736,-1.0864 -2.5956,-2.9845 0.21707,-1.9302 0.82993,-1.9239 2.7262,-2.0113 z"
         id="path4225"
         inkscape:connector-curvature="0"
         style="fill:#ffffff" />
      <path
         d="m -6.0547,74.667 c 1.5254,-0.07839 1.2215,-0.07979 1.1598,1.5939 -0.06175,1.6737 -0.13463,2.3702 -1.2631,2.8114 -1.4516,0.56758 -2.1146,-0.95804 -2.0529,-2.6317 0.17169,-1.7021 0.65641,-1.6965 2.1562,-1.7736 z"
         id="path4227"
         inkscape:connector-curvature="0"
         style="fill:#ffffff" />
      <path
         d="m -9.9174,74.367 c 1.3931,0.30196 1.5151,0.53514 0.95718,2.0441 -0.55791,1.509 -1.0018,1.3565 -1.6476,0.5667 -0.98487,-1.2045 -1.3474,-1.7656 -1.3474,-1.7656 0.66517,-1.508 0.66812,-1.1421 2.0378,-0.84524 z"
         id="path4229"
         inkscape:connector-curvature="0"
         style="fill:#ffffff" />
    </g>
    <path
       d="m 8.9224,26.205 12.178,-0.484 c -0.462,-1.345 -12.01,-1.361 -12.178,0.484 z"
       style="color:#000000;text-indent:0;text-decoration:none;text-decoration-line:none;text-decoration-style:solid;text-decoration-color:#000000;text-transform:none;block-progression:tb;white-space:normal;isolation:auto;mix-blend-mode:normal;solid-color:#000000;fill-rule:evenodd;color-rendering:auto;image-rendering:auto;shape-rendering:auto"
       id="path4527"
       inkscape:connector-curvature="0" />
    <path
       d="m 19.951,23.817 c 0.79397,1.3683 -0.76973,2.5228 -4.2397,2.5228 -3.46997,0 -6.4872,0.16791 -6.4872,-1.437 0.49037,-0.22546 0.99614,-0.4384 1.4779,-0.62424 0.33302,-0.12845 1.306,-0.24396 1.6032,-0.3417 0.69669,-0.22919 1.3164,-0.62796 1.9034,-0.73647 1.8106,-0.33471 3.2556,0.10192 5.7425,0.61665 z"
       id="path4376"
       inkscape:connector-curvature="0"
       style="fill:#e845aa;stroke:#000000;stroke-width:0.44475001;stroke-linecap:round;stroke-linejoin:round" />
    <path
       d="m 19.424,20.041 c -1.8799,0.53008 -1.8152,1.9254 -2.7982,2.9115 -0.88265,0.88542 -2.7772,1.3766 -4.8756,1.695 0,0 3.093,-0.01416 4.4354,-0.67299 1.3766,-0.67559 3.3284,-3.1755 3.3284,-3.1755 z"
       style="color:#000000;text-indent:0;text-decoration:none;text-decoration-line:none;text-decoration-style:solid;text-decoration-color:#000000;text-transform:none;block-progression:tb;white-space:normal;isolation:auto;mix-blend-mode:normal;solid-color:#000000;fill-rule:evenodd;color-rendering:auto;image-rendering:auto;shape-rendering:auto"
       id="path4443"
       inkscape:connector-curvature="0" />
    <ellipse
       cx="16.176001"
       cy="24.805"
       transform="matrix(0.89433,-0.44741,0.44741,0.89433,-9.7314,10.005)"
       ry="0.77990001"
       rx="1.7909"
       id="path4533"
       style="opacity:0.42000002;fill:#a02169;filter:url(#filter4639)" />
    <path
       d="m 17.447,24.151 c 0,0 -0.98174,0.89288 -1.586,1.1299 -0.47976,0.18815 -1.5332,0.19811 -1.5332,0.19811 1.0391,1.0089 2.7544,-0.29963 3.1193,-1.328 z"
       style="color:#000000;text-indent:0;text-decoration:none;text-decoration-line:none;text-decoration-style:solid;text-decoration-color:#000000;text-transform:none;block-progression:tb;white-space:normal;isolation:auto;mix-blend-mode:normal;solid-color:#000000;fill-rule:evenodd;color-rendering:auto;image-rendering:auto;shape-rendering:auto"
       id="path4447"
       inkscape:connector-curvature="0" />
    <g
       transform="translate(6.3158,-0.24768)"
       id="g4456"
       style="fill:#ffffff;stroke:#000000;stroke-width:0.44400001;stroke-linecap:round;stroke-linejoin:round">
      <path
         d="M 8.6684,9.3119 9.93,8.4341 c 0.227,-0.1582 0.543,-0.0694 0.687,0.1672 l 0.69335,1.4098 2.1782,3.3077 c 0.15231,0.23137 -0.32122,0.7138 -0.55228,0.86659 l -1.0454,0.69131 c -0.23105,0.15278 -0.54305,0.06949 -0.68708,-0.16712 l -1.3132,-2.517 -1.5595,-2.201 c -0.1602,-0.226 0.1088,-0.5218 0.3362,-0.6801 z"
         id="rect4451"
         inkscape:connector-curvature="0" />
      <path
         d="m 13.19,8.7182 0.97977,1.1841 c 0.17658,0.21342 0.11446,0.53538 -0.10934,0.6986 l -1.348,0.808 -3.1151,2.446 c -0.2179,0.171 -0.738,-0.26 -0.9095,-0.478 l -0.776,-0.984 c -0.1715,-0.218 -0.1144,-0.536 0.1093,-0.699 l 2.3985,-1.517 2.0635,-1.7374 c 0.2119,-0.17841 0.52914,0.064968 0.70573,0.27838 z"
         id="path4454"
         inkscape:connector-curvature="0" />
    </g>
    <g
       id="g4237">
      <path
         d="m 40.047,21.883 c 0,2.7893 -2.904,3.5073 -6.3131,3.5073 -3.4092,0 -6.0325,-0.71798 -6.0325,-3.5073 0,-2.78932 2.7637,-5.0505 6.1728,-5.0505 3.4092,0 6.1728,2.2612 6.1728,5.0505 z"
         id="path4353"
         inkscape:connector-curvature="0" />
      <ellipse
         cx="18.160999"
         cy="32.928001"
         ry="1.1087"
         transform="matrix(0.87311785,-0.48750921,0.48750921,0.87311785,0,0)"
         rx="1.8710001"
         id="path4356"
         style="fill:#ffffff" />
      <path
         d="m 37.435,22.948 c 0.22971,0.1716 0.2174,0.26822 -0.12344,0.59753 -0.34088,0.32929 -0.52804,0.33525 -0.75775,0.16365 -0.22971,-0.1716 -0.415,-0.45578 -0.07411,-0.78507 0.34088,-0.3293 0.72564,-0.1477 0.95535,0.0239 z"
         id="ellipse4358"
         inkscape:connector-curvature="0"
         style="fill:#ffffff" />
    </g>
    <path
       d="m 27.564,25.1 12.162,0.78125 c -0.32,-1.385 -11.804,-2.599 -12.162,-0.781 z"
       style="color:#000000;text-indent:0;text-decoration:none;text-decoration-line:none;text-decoration-style:solid;text-decoration-color:#000000;text-transform:none;block-progression:tb;white-space:normal;isolation:auto;mix-blend-mode:normal;solid-color:#000000;fill-rule:evenodd;color-rendering:auto;image-rendering:auto;shape-rendering:auto"
       id="path4460"
       inkscape:connector-curvature="0" />
  </g>
</svg>
