<?xml version="1.0" encoding="UTF-8" standalone="no"?>
<!-- Created with Inkscape (http://www.inkscape.org/) -->

<svg
   xmlns:dc="http://purl.org/dc/elements/1.1/"
   xmlns:cc="http://creativecommons.org/ns#"
   xmlns:rdf="http://www.w3.org/1999/02/22-rdf-syntax-ns#"
   xmlns:svg="http://www.w3.org/2000/svg"
   xmlns="http://www.w3.org/2000/svg"
   xmlns:sodipodi="http://sodipodi.sourceforge.net/DTD/sodipodi-0.dtd"
   xmlns:inkscape="http://www.inkscape.org/namespaces/inkscape"
   id="svg4951"
   height="48px"
   width="48px"
   version="1.1"
   inkscape:version="0.91 r13725"
   sodipodi:docname="synapse.svg">
  <sodipodi:namedview
     pagecolor="#ffffff"
     bordercolor="#666666"
     borderopacity="1"
     objecttolerance="10"
     gridtolerance="10"
     guidetolerance="10"
     inkscape:pageopacity="0"
     inkscape:pageshadow="2"
     inkscape:window-width="1535"
     inkscape:window-height="876"
     id="namedview26"
     showgrid="false"
     inkscape:zoom="4.9166667"
     inkscape:cx="-10.779661"
     inkscape:cy="24"
     inkscape:window-x="65"
     inkscape:window-y="24"
     inkscape:window-maximized="1"
     inkscape:current-layer="svg4951" />
  <defs
     id="defs4953">
    <linearGradient
       id="linearGradient3189"
       y2="40.496"
       gradientUnits="userSpaceOnUse"
       x2="71.204"
       gradientTransform="matrix(1.617,0,0,1.617,-92.707,-21.06)"
       y1="15.369"
       x1="71.204">
      <stop
         id="stop4808-4"
         stop-color="#fff"
         offset="0" />
      <stop
         id="stop4810-0"
         stop-color="#fff"
         stop-opacity=".23529"
         offset=".42448" />
      <stop
         id="stop4812-8"
         stop-color="#fff"
         stop-opacity=".15686"
         offset=".82090" />
      <stop
         id="stop4814-0"
         stop-color="#fff"
         stop-opacity=".39216"
         offset="1" />
    </linearGradient>
    <radialGradient
       id="radialGradient3192"
       gradientUnits="userSpaceOnUse"
       cy="3.99"
       cx="23.896"
       gradientTransform="matrix(0,2.8885,-3.8128,0,39.213,-65.95)"
       r="20.397">
      <stop
         id="stop3244-9-33-7-0-6"
         stop-color="#6fd4b6"
         offset="0" />
      <stop
         id="stop3248-1-7-8-8-6"
         stop-color="#49c291"
         offset=".66094" />
      <stop
         id="stop3250-9-3-0-5-2"
         stop-color="#28a39c"
         offset="1" />
    </radialGradient>
    <radialGradient
       id="radialGradient3195"
       gradientUnits="userSpaceOnUse"
       cy="186.17"
       cx="99.157"
       gradientTransform="matrix(0.27083,0,0,0.087623,-2.8551,25.187)"
       r="62.769">
      <stop
         id="stop3822-2-6-3"
         stop-color="#3d3d3d"
         offset="0" />
      <stop
         id="stop3864-8-7-7"
         stop-color="#686868"
         stop-opacity=".49804"
         offset=".5" />
      <stop
         id="stop3824-1-2-5"
         stop-color="#686868"
         stop-opacity="0"
         offset="1" />
    </radialGradient>
  </defs>
  <metadata
     id="metadata4956">
    <rdf:RDF>
      <cc:Work
         rdf:about="">
        <dc:format>image/svg+xml</dc:format>
        <dc:type
           rdf:resource="http://purl.org/dc/dcmitype/StillImage" />
        <dc:title />
      </cc:Work>
    </rdf:RDF>
  </metadata>
  <path
     inkscape:connector-curvature="0"
     d="M 24,3.5 C 12.689,3.5 3.5,12.6888 3.5,24 3.5,35.3112 12.6888,44.5 24,44.5 35.3112,44.5 44.5,35.3112 44.5,24 44.5,12.6888 35.311,3.5 24,3.5 Z"
     style="color:#000000;fill:url(#radialGradient3192)"
     id="path2555-7-2" />
  <path
     inkscape:connector-curvature="0"
     d="M 43.5,24 C 43.5,34.77 34.77,43.5 24,43.5 13.23,43.5 4.5,34.77 4.5,24 4.5,13.23 13.23,4.5 24,4.5 34.77,4.5 43.5,13.23 43.5,24 Z"
     style="color:#000000;opacity:0.3;fill:none;stroke:url(#linearGradient3189);stroke-linecap:round;stroke-linejoin:round"
     id="path4176" />
  <path
     inkscape:connector-curvature="0"
     d="M 24,3.5 C 12.689,3.5 3.5,12.689 3.5,24 3.5,35.311 12.689,44.5 24,44.5 35.311,44.5 44.5,35.311 44.5,24 44.5,12.689 35.311,3.5 24,3.5 Z"
     style="color:#000000;opacity:0.7;fill:none;stroke:#008076"
     id="path3871" />
  <path
     inkscape:connector-curvature="0"
     d="m 23.998,29.837 c 3.2962,0 5.9684,-2.6818 5.9684,-6.0198 0,0 0.03966,-0.56545 -0.13188,-1.2039 l -9.1657,0 c 0.24743,-0.69714 0.69125,-1.3226 1.2939,-1.7401 1.3865,-1.1041 3.4864,-0.70261 4.6674,0.53613 l 2.8373,0 c -0.92139,-2.1251 -3.0227,-3.6119 -5.4694,-3.6119 -3.2962,0 -5.9684,2.6951 -5.9684,6.0197 0,0 0,0.61867 0.1187,1.204 l 9.1696,0 c -0.51598,1.3154 -1.7481,2.3814 -3.18,2.3938 -0.07168,0.004 -0.14304,0.004 -0.21447,0.002 -0.95989,-0.0196 -1.8913,-0.47874 -2.5389,-1.1922 l -2.856,0 c 0.9214,2.1251 3.0227,3.6119 5.4694,3.6119 z m 1.2907,9.1629 0.06653,-4.3333 c 4.4429,-0.5585 8.0506,-3.828 9.1448,-8.1156 l -2.8109,0 c -1.1528,3.0949 -4.2051,5.5086 -7.5408,5.4861 -0.0809,0.002 -0.16277,0.004 -0.24351,0.003 -1.2111,-0.007 -2.4015,-0.31055 -3.4806,-0.85427 -1.9436,-0.88246 -3.3868,-2.6264 -4.092,-4.6345 l -2.8321,0 c 1.0942,4.2876 4.7019,7.5572 9.1448,8.1156 l 0,4.3333 z M 34.5,21.0839 c -1.0941,-4.2876 -4.7019,-7.5571 -9.1448,-8.1156 l 0,-3.9676 -2.7104,0 0,3.9676 c -4.4429,0.5585 -8.0507,3.828 -9.1448,8.1156 l 2.7924,0 c 1.0957,-3.2601 4.4822,-5.6045 7.9061,-5.4834 3.3336,-0.01701 6.3577,2.3849 7.4853,5.4834 z"
     style="opacity:0.15;fill:none;stroke:#000000;stroke-width:2;stroke-linecap:round;stroke-linejoin:round;enable-background:new"
     id="path4417" />
  <path
     inkscape:connector-curvature="0"
     d="m 23.998,29.837 c 3.2962,0 5.9684,-2.6818 5.9684,-6.0198 0,0 0.03966,-0.56545 -0.13188,-1.2039 l -9.1657,0 c 0.24743,-0.69714 0.69125,-1.3226 1.2939,-1.7401 1.3865,-1.1041 3.4864,-0.70261 4.6674,0.53613 l 2.8373,0 c -0.92139,-2.1251 -3.0227,-3.6119 -5.4694,-3.6119 -3.2962,0 -5.9684,2.6951 -5.9684,6.0197 0,0 0,0.61867 0.1187,1.204 l 9.1696,0 c -0.51598,1.3154 -1.7481,2.3814 -3.18,2.3938 -0.07168,0.004 -0.14304,0.004 -0.21447,0.002 -0.95989,-0.0196 -1.8913,-0.47874 -2.5389,-1.1922 l -2.856,0 c 0.9214,2.1251 3.0227,3.6119 5.4694,3.6119 z m 1.2907,9.1629 0.06653,-4.3333 c 4.4429,-0.5585 8.0506,-3.828 9.1448,-8.1156 l -2.8109,0 c -1.1528,3.0949 -4.2051,5.5086 -7.5408,5.4861 -0.0809,0.002 -0.16277,0.004 -0.24351,0.003 -1.2111,-0.007 -2.4015,-0.31055 -3.4806,-0.85427 -1.9436,-0.88246 -3.3868,-2.6264 -4.092,-4.6345 l -2.8321,0 c 1.0942,4.2876 4.7019,7.5572 9.1448,8.1156 l 0,4.3333 z M 34.5,21.0839 c -1.0941,-4.2876 -4.7019,-7.5571 -9.1448,-8.1156 l 0,-3.9676 -2.7104,0 0,3.9676 c -4.4429,0.5585 -8.0507,3.828 -9.1448,8.1156 l 2.7924,0 c 1.0957,-3.2601 4.4822,-5.6045 7.9061,-5.4834 3.3336,-0.01701 6.3577,2.3849 7.4853,5.4834 z"
     style="opacity:0.15;fill:none;stroke:#000000;stroke-linecap:round;stroke-linejoin:round;enable-background:new"
     id="path4419" />
  <path
     inkscape:connector-curvature="0"
     d="m 23.998,29.837 c 3.2962,0 5.9684,-2.6818 5.9684,-6.0198 0,0 0.03966,-0.56545 -0.13188,-1.2039 l -9.1657,0 c 0.24743,-0.69714 0.69125,-1.3226 1.2939,-1.7401 1.3865,-1.1041 3.4864,-0.70261 4.6674,0.53613 l 2.8373,0 c -0.92139,-2.1251 -3.0227,-3.6119 -5.4694,-3.6119 -3.2962,0 -5.9684,2.6951 -5.9684,6.0197 0,0 0,0.61867 0.1187,1.204 l 9.1696,0 c -0.51598,1.3154 -1.7481,2.3814 -3.18,2.3938 -0.07168,0.004 -0.14304,0.004 -0.21447,0.002 -0.95989,-0.0196 -1.8913,-0.47874 -2.5389,-1.1922 l -2.856,0 c 0.9214,2.1251 3.0227,3.6119 5.4694,3.6119 z m 1.2907,9.1629 0.06653,-4.3333 c 4.4429,-0.5585 8.0506,-3.828 9.1448,-8.1156 l -2.8109,0 c -1.1528,3.0949 -4.2051,5.5086 -7.5408,5.4861 -0.0809,0.002 -0.16277,0.004 -0.24351,0.003 -1.2111,-0.007 -2.4015,-0.31055 -3.4806,-0.85427 -1.9436,-0.88246 -3.3868,-2.6264 -4.092,-4.6345 l -2.8321,0 c 1.0942,4.2876 4.7019,7.5572 9.1448,8.1156 l 0,4.3333 z M 34.5,21.0839 c -1.0941,-4.2876 -4.7019,-7.5571 -9.1448,-8.1156 l 0,-3.9676 -2.7104,0 0,3.9676 c -4.4429,0.5585 -8.0507,3.828 -9.1448,8.1156 l 2.7924,0 c 1.0957,-3.2601 4.4822,-5.6045 7.9061,-5.4834 3.3336,-0.01701 6.3577,2.3849 7.4853,5.4834 z"
     style="fill:#ffffff;enable-background:new"
     id="path3873" />
</svg>
