<?xml version="1.0" encoding="UTF-8" standalone="no"?>
<!-- Created with Inkscape (http://www.inkscape.org/) -->

<svg
   xmlns:dc="http://purl.org/dc/elements/1.1/"
   xmlns:cc="http://creativecommons.org/ns#"
   xmlns:rdf="http://www.w3.org/1999/02/22-rdf-syntax-ns#"
   xmlns:svg="http://www.w3.org/2000/svg"
   xmlns="http://www.w3.org/2000/svg"
   xmlns:sodipodi="http://sodipodi.sourceforge.net/DTD/sodipodi-0.dtd"
   xmlns:inkscape="http://www.inkscape.org/namespaces/inkscape"
   id="svg3143"
   height="48"
   width="48"
   version="1.1"
   inkscape:version="0.91 r13725"
   sodipodi:docname="wiznote.svg">
  <sodipodi:namedview
     pagecolor="#ffffff"
     bordercolor="#666666"
     borderopacity="1"
     objecttolerance="10"
     gridtolerance="10"
     guidetolerance="10"
     inkscape:pageopacity="0"
     inkscape:pageshadow="2"
     inkscape:window-width="1535"
     inkscape:window-height="876"
     id="namedview35"
     showgrid="false"
     inkscape:zoom="4.9166667"
     inkscape:cx="-10.779661"
     inkscape:cy="24"
     inkscape:window-x="65"
     inkscape:window-y="24"
     inkscape:window-maximized="1"
     inkscape:current-layer="svg3143" />
  <defs
     id="defs3145">
    <radialGradient
       id="radialGradient3030"
       gradientUnits="userSpaceOnUse"
       cy="43.5"
       cx="4.993"
       gradientTransform="matrix(2.0038 0 0 1.4 27.988 -17.4)"
       r="2.5">
      <stop
         id="stop2883"
         stop-color="#181818"
         offset="0" />
      <stop
         id="stop2885"
         stop-color="#181818"
         stop-opacity="0"
         offset="1" />
    </radialGradient>
    <radialGradient
       id="radialGradient3032"
       gradientUnits="userSpaceOnUse"
       cy="43.5"
       cx="4.993"
       gradientTransform="matrix(2.0038 0 0 1.4 -20.012 -104.4)"
       r="2.5">
      <stop
         id="stop2889"
         stop-color="#181818"
         offset="0" />
      <stop
         id="stop2891"
         stop-color="#181818"
         stop-opacity="0"
         offset="1" />
    </radialGradient>
    <linearGradient
       id="linearGradient3034"
       y2="39.999"
       gradientUnits="userSpaceOnUse"
       x2="25.058"
       y1="47.028"
       x1="25.058">
      <stop
         id="stop2895"
         stop-color="#181818"
         stop-opacity="0"
         offset="0" />
      <stop
         id="stop2897"
         stop-color="#181818"
         offset=".5" />
      <stop
         id="stop2899"
         stop-color="#181818"
         stop-opacity="0"
         offset="1" />
    </linearGradient>
    <linearGradient
       id="linearGradient3044"
       y2="43"
       gradientUnits="userSpaceOnUse"
       x2="24"
       gradientTransform="translate(5.3e-6,1)"
       y1="5"
       x1="24">
      <stop
         id="stop3926-7"
         stop-color="#fff"
         offset="0" />
      <stop
         id="stop3928-3"
         stop-color="#fff"
         stop-opacity=".23529"
         offset=".063165" />
      <stop
         id="stop3930-7"
         stop-color="#fff"
         stop-opacity=".15686"
         offset=".95056" />
      <stop
         id="stop3932-1"
         stop-color="#fff"
         stop-opacity=".39216"
         offset="1" />
    </linearGradient>
    <radialGradient
       id="radialGradient3053"
       gradientUnits="userSpaceOnUse"
       cy="9.9941"
       cx="8.2761"
       gradientTransform="matrix(0,6.6678,-8.1859,0,105.88,-59.463)"
       r="12.672">
      <stop
         id="stop3244"
         stop-color="#7ec1f8"
         offset="0" />
      <stop
         id="stop3246"
         stop-color="#4f97e3"
         offset=".26238" />
      <stop
         id="stop3248"
         stop-color="#2674c6"
         offset=".66094" />
      <stop
         id="stop3250"
         stop-color="#0b4169"
         offset="1" />
    </radialGradient>
  </defs>
  <metadata
     id="metadata3148">
    <rdf:RDF>
      <cc:Work
         rdf:about="">
        <dc:format>image/svg+xml</dc:format>
        <dc:type
           rdf:resource="http://purl.org/dc/dcmitype/StillImage" />
        <dc:title />
      </cc:Work>
    </rdf:RDF>
  </metadata>
  <g
     id="g4163"
     transform="translate(0,-1)">
    <rect
       x="4.5"
       y="5.5"
       width="39"
       height="39"
       ry="2"
       rx="2"
       style="color:#000000;fill:url(#radialGradient3053)"
       id="rect5505-21" />
    <rect
       x="5.5"
       y="6.5"
       width="37"
       height="37"
       ry="1"
       rx="1"
       id="rect6741-2"
       style="opacity:0.5;fill:none;stroke:url(#linearGradient3044);stroke-linecap:round;stroke-linejoin:round" />
    <rect
       x="4.5"
       y="5.5"
       width="39"
       height="39"
       ry="2"
       rx="2"
       style="color:#000000;opacity:0.4;fill:none;stroke:#0035a4;stroke-linecap:round;stroke-linejoin:round"
       id="rect5505-21-1" />
    <path
       d="m 29.712,14 c -0.03679,0.04363 -0.23689,0.69994 -0.44463,1.4585 -0.89485,3.2675 -1.622,6.0044 -2.0044,7.5434 -0.52112,2.0974 -0.46828,1.9442 -0.61634,1.7826 -0.09576,-0.10449 -1.48,-4.8076 -1.9084,-6.484 -0.184,-0.71994 -0.09042,-0.70846 -2.8957,-0.3563 -3.011,0.37798 -3.1351,0.39859 -3.2197,0.53358 -0.08844,0.1413 -0.36329,3.1293 -0.37161,4.0409 -0.0054,0.54261 -0.31086,3.7006 -0.18074,6.0179 -0.2834,-1.1196 -0.51121,-1.9921 -0.56039,-2.1365 -0.06899,-0.20228 -0.65728,-2.5747 -1.3074,-5.272 -0.43002,-1.7842 -0.81661,-3.314 -1.0535,-4.1824 -0.19346,-0.60404 -0.33092,-0.65069 -0.80251,-0.48087 -1.0479,0.40985 -2.1005,0.89188 -3.0504,1.4408 -0.38701,0.20738 -0.30352,0.21009 -0.24663,0.59528 0.19504,1.011 0.77174,3.7822 1.4552,6.9825 0.85288,3.9936 1.5779,7.414 1.611,7.601 0.01539,0.08694 0.06636,0.26186 0.06636,0.26186 0.09816,0.26457 0.10409,0.26513 0.44893,0.3406 0,0 1.1687,0.23281 2.3699,0.42117 1.5864,0.24877 2.3025,0.32965 2.6249,0.34282 0.21182,0.01534 0.2022,0.01851 0.42438,-0.36227 0.45434,-0.98304 0.74478,-1.9964 0.9958,-2.9991 0.17793,-0.70799 0.35822,-1.3245 0.40076,-1.3702 0.11658,-0.12501 0.20543,0.14672 0.88079,2.6949 0.25069,0.94588 0.48978,1.7879 0.61826,2.1868 0.09583,0.26385 0.0657,0.28181 0.42506,0.32931 1.3381,0.22201 5.9761,1.0576 6.4908,1.0695 0.36188,-0.01256 0.43754,-0.25177 0.50471,-0.42726 1.7073,-4.4608 3.8365,-10.697 5.3437,-15.727 0.63141,-2.0875 1.0888,-3.68 1.2536,-4.3539 0.06194,-0.31601 0.07534,-0.32433 -0.20375,-0.39414 -2.4617,-0.39739 -4.9234,-0.8878 -7.0479,-1.0975 z"
       id="path4228"
       inkscape:connector-curvature="0"
       style="opacity:0.15;fill:none;stroke:#000000;stroke-width:2;stroke-linecap:round;stroke-linejoin:round" />
    <path
       d="m 29.712,14 c -0.03679,0.04363 -0.23689,0.69994 -0.44463,1.4585 -0.89485,3.2675 -1.622,6.0044 -2.0044,7.5434 -0.52112,2.0974 -0.46828,1.9442 -0.61634,1.7826 -0.09576,-0.10449 -1.48,-4.8076 -1.9084,-6.484 -0.184,-0.71994 -0.09042,-0.70846 -2.8957,-0.3563 -3.011,0.37798 -3.1351,0.39859 -3.2197,0.53358 -0.08844,0.1413 -0.36329,3.1293 -0.37161,4.0409 -0.0054,0.54261 -0.31086,3.7006 -0.18074,6.0179 -0.2834,-1.1196 -0.51121,-1.9921 -0.56039,-2.1365 -0.06899,-0.20228 -0.65728,-2.5747 -1.3074,-5.272 -0.43002,-1.7842 -0.81661,-3.314 -1.0535,-4.1824 -0.19346,-0.60404 -0.33092,-0.65069 -0.80251,-0.48087 -1.0479,0.40985 -2.1005,0.89188 -3.0504,1.4408 -0.38701,0.20738 -0.30352,0.21009 -0.24663,0.59528 0.19504,1.011 0.77174,3.7822 1.4552,6.9825 0.85288,3.9936 1.5779,7.414 1.611,7.601 0.01539,0.08694 0.06636,0.26186 0.06636,0.26186 0.09816,0.26457 0.10409,0.26513 0.44893,0.3406 0,0 1.1687,0.23281 2.3699,0.42117 1.5864,0.24877 2.3025,0.32965 2.6249,0.34282 0.21182,0.01534 0.2022,0.01851 0.42438,-0.36227 0.45434,-0.98304 0.74478,-1.9964 0.9958,-2.9991 0.17793,-0.70799 0.35822,-1.3245 0.40076,-1.3702 0.11658,-0.12501 0.20543,0.14672 0.88079,2.6949 0.25069,0.94588 0.48978,1.7879 0.61826,2.1868 0.09583,0.26385 0.0657,0.28181 0.42506,0.32931 1.3381,0.22201 5.9761,1.0576 6.4908,1.0695 0.36188,-0.01256 0.43754,-0.25177 0.50471,-0.42726 1.7073,-4.4608 3.8365,-10.697 5.3437,-15.727 0.63141,-2.0875 1.0888,-3.68 1.2536,-4.3539 0.06194,-0.31601 0.07534,-0.32433 -0.20375,-0.39414 -2.4617,-0.39739 -4.9234,-0.8878 -7.0479,-1.0975 z"
       id="path4230"
       inkscape:connector-curvature="0"
       style="opacity:0.15;fill:none;stroke:#000000;stroke-linecap:round;stroke-linejoin:round" />
    <path
       d="m 29.712,14 c -0.03679,0.04363 -0.23689,0.69994 -0.44463,1.4585 -0.89485,3.2675 -1.622,6.0044 -2.0044,7.5434 -0.52112,2.0974 -0.46828,1.9442 -0.61634,1.7826 -0.09576,-0.10449 -1.48,-4.8076 -1.9084,-6.484 -0.184,-0.71994 -0.09042,-0.70846 -2.8957,-0.3563 -3.011,0.37798 -3.1351,0.39859 -3.2197,0.53358 -0.08844,0.1413 -0.36329,3.1293 -0.37161,4.0409 -0.0054,0.54261 -0.31086,3.7006 -0.18074,6.0179 -0.2834,-1.1196 -0.51121,-1.9921 -0.56039,-2.1365 -0.06899,-0.20228 -0.65728,-2.5747 -1.3074,-5.272 -0.43002,-1.7842 -0.81661,-3.314 -1.0535,-4.1824 -0.19346,-0.60404 -0.33092,-0.65069 -0.80251,-0.48087 -1.0479,0.40985 -2.1005,0.89188 -3.0504,1.4408 -0.38701,0.20738 -0.30352,0.21009 -0.24663,0.59528 0.19504,1.011 0.77174,3.7822 1.4552,6.9825 0.85288,3.9936 1.5779,7.414 1.611,7.601 0.01539,0.08694 0.06636,0.26186 0.06636,0.26186 0.09816,0.26457 0.10409,0.26513 0.44893,0.3406 0,0 1.1687,0.23281 2.3699,0.42117 1.5864,0.24877 2.3025,0.32965 2.6249,0.34282 0.21182,0.01534 0.2022,0.01851 0.42438,-0.36227 0.45434,-0.98304 0.74478,-1.9964 0.9958,-2.9991 0.17793,-0.70799 0.35822,-1.3245 0.40076,-1.3702 0.11658,-0.12501 0.20543,0.14672 0.88079,2.6949 0.25069,0.94588 0.48978,1.7879 0.61826,2.1868 0.09583,0.26385 0.0657,0.28181 0.42506,0.32931 1.3381,0.22201 5.9761,1.0576 6.4908,1.0695 0.36188,-0.01256 0.43754,-0.25177 0.50471,-0.42726 1.7073,-4.4608 3.8365,-10.697 5.3437,-15.727 0.63141,-2.0875 1.0888,-3.68 1.2536,-4.3539 0.06194,-0.31601 0.07534,-0.32433 -0.20375,-0.39414 -2.4617,-0.39739 -4.9234,-0.8878 -7.0479,-1.0975 z"
       id="path4216"
       inkscape:connector-curvature="0"
       style="fill:#ffffff" />
  </g>
</svg>
