<?xml version="1.0" encoding="UTF-8" standalone="no"?>
<!-- Created with Inkscape (http://www.inkscape.org/) -->

<svg
   xmlns:dc="http://purl.org/dc/elements/1.1/"
   xmlns:cc="http://creativecommons.org/ns#"
   xmlns:rdf="http://www.w3.org/1999/02/22-rdf-syntax-ns#"
   xmlns:svg="http://www.w3.org/2000/svg"
   xmlns="http://www.w3.org/2000/svg"
   xmlns:sodipodi="http://sodipodi.sourceforge.net/DTD/sodipodi-0.dtd"
   xmlns:inkscape="http://www.inkscape.org/namespaces/inkscape"
   id="svg4951"
   height="48px"
   width="48px"
   version="1.1"
   inkscape:version="0.91 r13725"
   sodipodi:docname="worms-reloaded.svg">
  <sodipodi:namedview
     pagecolor="#ffffff"
     bordercolor="#666666"
     borderopacity="1"
     objecttolerance="10"
     gridtolerance="10"
     guidetolerance="10"
     inkscape:pageopacity="0"
     inkscape:pageshadow="2"
     inkscape:window-width="1535"
     inkscape:window-height="876"
     id="namedview33"
     showgrid="false"
     inkscape:zoom="4.9166667"
     inkscape:cx="-10.779661"
     inkscape:cy="24"
     inkscape:window-x="65"
     inkscape:window-y="24"
     inkscape:window-maximized="1"
     inkscape:current-layer="svg4951" />
  <defs
     id="defs4953">
    <linearGradient
       id="linearGradient3189"
       y2="40.496"
       gradientUnits="userSpaceOnUse"
       x2="71.204"
       gradientTransform="matrix(1.617,0,0,1.617,-92.707,-21.06)"
       y1="15.369"
       x1="71.204">
      <stop
         id="stop4808-4"
         stop-color="#fff"
         offset="0" />
      <stop
         id="stop4810-0"
         stop-color="#fff"
         stop-opacity=".23529"
         offset=".42448" />
      <stop
         id="stop4812-8"
         stop-color="#fff"
         stop-opacity=".15686"
         offset=".82090" />
      <stop
         id="stop4814-0"
         stop-color="#fff"
         stop-opacity=".39216"
         offset="1" />
    </linearGradient>
    <radialGradient
       id="radialGradient3192"
       gradientUnits="userSpaceOnUse"
       cy="3.99"
       cx="23.896"
       gradientTransform="matrix(0,2.8885,-3.8128,0,39.213,-65.95)"
       r="20.397">
      <stop
         id="stop4369"
         stop-color="#fe4"
         offset="0" />
      <stop
         id="stop4371"
         stop-color="#ffa20c"
         offset=".66094" />
      <stop
         id="stop4373"
         stop-color="#cba200"
         offset="1" />
    </radialGradient>
    <radialGradient
       id="radialGradient3195"
       gradientUnits="userSpaceOnUse"
       cy="186.17"
       cx="99.157"
       gradientTransform="matrix(0.27083,0,0,0.087623,-2.8551,25.187)"
       r="62.769">
      <stop
         id="stop3822-2-6-3"
         stop-color="#3d3d3d"
         offset="0" />
      <stop
         id="stop3864-8-7-7"
         stop-color="#686868"
         stop-opacity=".49804"
         offset=".5" />
      <stop
         id="stop3824-1-2-5"
         stop-color="#686868"
         stop-opacity="0"
         offset="1" />
    </radialGradient>
    <filter
       id="filter4461"
       style="color-interpolation-filters:sRGB"
       height="1.096"
       width="1.096"
       y="-.048"
       x="-.048">
      <feGaussianBlur
         id="feGaussianBlur4463"
         stdDeviation="0.75627869" />
    </filter>
  </defs>
  <metadata
     id="metadata4956">
    <rdf:RDF>
      <cc:Work
         rdf:about="">
        <dc:format>image/svg+xml</dc:format>
        <dc:type
           rdf:resource="http://purl.org/dc/dcmitype/StillImage" />
        <dc:title />
      </cc:Work>
    </rdf:RDF>
  </metadata>
  <path
     inkscape:connector-curvature="0"
     d="M 24,3.5 C 12.689,3.5 3.5,12.6888 3.5,24 3.5,35.3112 12.6888,44.5 24,44.5 35.3112,44.5 44.5,35.3112 44.5,24 44.5,12.6888 35.311,3.5 24,3.5 Z"
     style="color:#000000;fill:url(#radialGradient3192)"
     id="path2555-7-2" />
  <path
     inkscape:connector-curvature="0"
     d="m 24,4.7578 c -10.763,-10e-8 -19.5,8.7375 -19.5,19.5 0,10.763 8.7375,19.5 19.5,19.5 10.763,0 19.5,-8.7375 19.5,-19.5 0,-10.763 -8.737,-19.5 -19.5,-19.5 z m 0,1.1875 c 10.122,0 18.314,8.191 18.314,18.312 0,10.122 -8.1929,18.314 -18.314,18.314 -10.122,0 -18.314,-8.1929 -18.314,-18.314 C 5.6855,14.1363 13.878,5.9453 24,5.9453 Z"
     style="color:#000000;text-indent:0;text-decoration:none;text-decoration-line:none;text-decoration-style:solid;text-decoration-color:#000000;text-transform:none;block-progression:tb;white-space:normal;opacity:0.3;isolation:auto;mix-blend-mode:normal;solid-color:#000000;fill:#ff0000;filter:url(#filter4461);color-rendering:auto;image-rendering:auto;shape-rendering:auto"
     id="path4447" />
  <path
     inkscape:connector-curvature="0"
     d="M 43.5,24 C 43.5,34.77 34.77,43.5 24,43.5 13.23,43.5 4.5,34.77 4.5,24 4.5,13.23 13.23,4.5 24,4.5 34.77,4.5 43.5,13.23 43.5,24 Z"
     style="color:#000000;opacity:0.3;fill:none;stroke:url(#linearGradient3189);stroke-linecap:round;stroke-linejoin:round"
     id="path4176" />
  <path
     inkscape:connector-curvature="0"
     d="M 24,3.5 C 12.689,3.5 3.5,12.689 3.5,24 3.5,35.311 12.689,44.5 24,44.5 35.311,44.5 44.5,35.311 44.5,24 44.5,12.689 35.311,3.5 24,3.5 Z"
     style="color:#000000;opacity:0.7;fill:none;stroke:#5c3f24"
     id="path3871" />
  <g
     style="fill:#454545"
     transform="matrix(0.075417,0,0,0.074989,7,6.0963)"
     id="g3628">
    <g
       style="fill:#454545"
       id="g3588">
      <path
         style="fill:#454545"
         inkscape:connector-curvature="0"
         d="m 186.98,323.4 -75.443,115.38 c 0,0 -57.62,-12.844 -91.065,-70.775 C -12.977,310.085 4.626,253.615 4.626,253.615 l 137.65,-7.649 c 0.48,15.102 4.552,30.319 12.645,44.33 8.081,14.003 19.217,25.142 32.061,33.109 z m 259.18,-71.55 -137.65,-7.64 c -0.477,15.101 -4.566,30.313 -12.648,44.321 -8.093,13.997 -19.223,25.144 -32.071,33.111 l 75.453,115.38 c 0,0 57.705,-12.99 91.149,-70.926 33.445,-57.927 15.763,-114.24 15.763,-114.24 z m -222.3,-84.5 c 16.176,0 31.393,4.068 44.714,11.201 l 62.21,-123.03 c 0,0 -40.104,-43.472 -106.99,-43.472 -66.895,0 -106.82,43.472 -106.82,43.472 l 62.206,123.03 c 13.319,-7.133 28.531,-11.201 44.701,-11.201 z m 0,29.808 c -26.949,0 -48.799,21.848 -48.799,48.795 0,26.956 21.851,48.799 48.799,48.799 26.961,0 48.799,-21.843 48.799,-48.799 0,-26.954 -21.844,-48.795 -48.799,-48.795 z"
         id="path3590" />
    </g>
  </g>
  <g
     style="opacity:0.15"
     transform="matrix(0.075417,0,0,0.074989,7,6.0963)"
     id="g4401">
    <g
       id="g4403">
      <path
         inkscape:connector-curvature="0"
         transform="matrix(13.26,0,0,13.335,-92.818,-81.296)"
         d="m 23.877,7 c -5.045,0 -8.057,3.26 -8.057,3.26 l 4.692,9.226 c 1.004,-0.535 2.151,-0.84 3.371,-0.84 1.22,0 2.368,0.305 3.373,0.84 l 4.689,-9.226 c 0,0 -3.024,-3.26 -8.068,-3.26 z m 0,0.998 c 3.458,0 5.853,1.6522 6.834,2.479 l -3.918,7.709 c -0.905,-0.345 -1.886,-0.538 -2.91,-0.538 -1.024,0 -2.004,0.194 -2.908,0.538 l -3.92,-7.709 c 0.977,-0.8265 3.364,-2.479 6.822,-2.479 z m 0.006,12.883 c -2.033,0 -3.68,1.639 -3.68,3.66 0,2.021 1.647,3.658 3.68,3.658 2.033,0 3.679,-1.637 3.679,-3.658 0,-2.021 -1.646,-3.66 -3.679,-3.66 z m 0,0.998 c 1.491,0 2.678,1.18 2.678,2.662 0,1.483 -1.187,2.662 -2.678,2.662 -1.491,0 -2.678,-1.179 -2.678,-2.662 0,-1.482 1.187,-2.662 2.678,-2.662 z m 6.385,2.529 c -0.036,1.133 -0.346,2.274 -0.956,3.324 -0.61,1.05 -1.449,1.885 -2.417,2.483 l 5.689,8.652 c 0,0 4.353,-0.974 6.875,-5.318 2.522,-4.344 1.189,-8.567 1.189,-8.567 L 30.268,24.408 Z M 17.73,24.541 7.35,25.113 c -4e-4,0 -1.3278,4.236 1.1949,8.58 C 11.067,38.038 15.412,39 15.412,39 l 5.69,-8.652 C 20.133,29.75 19.293,28.915 18.684,27.865 18.073,26.815 17.767,25.674 17.73,24.541 Z m 13.44,0.916 8.674,0.479 c 0.23,1.254 0.475,4.137 -1.254,7.115 -1.729,2.978 -4.366,4.215 -5.576,4.646 L 28.26,30.469 c 0.752,-0.607 1.41,-1.356 1.922,-2.237 a 1.0029,0.99726 0 0 0 0,-0.002 c 0.511,-0.881 0.835,-1.822 0.988,-2.773 z M 16.828,25.59 c 0.152,0.951 0.474,1.891 0.986,2.773 0.512,0.882 1.17,1.63 1.922,2.237 l -4.754,7.23 C 13.774,37.402 11.141,36.171 9.4121,33.193 7.6827,30.215 7.925,27.327 8.1543,26.068 L 16.828,25.59 Z"
         id="path4405" />
    </g>
  </g>
  <g
     style="fill:none;stroke:#000000;stroke-width:26.59499931;stroke-linecap:round;stroke-linejoin:round"
     transform="matrix(0.075417,0,0,0.074989,7,6.0963)"
     id="g4437" />
</svg>
