<?xml version="1.0" encoding="UTF-8" standalone="no"?>
<!-- Created with Inkscape (http://www.inkscape.org/) -->

<svg
   xmlns:dc="http://purl.org/dc/elements/1.1/"
   xmlns:cc="http://creativecommons.org/ns#"
   xmlns:rdf="http://www.w3.org/1999/02/22-rdf-syntax-ns#"
   xmlns:svg="http://www.w3.org/2000/svg"
   xmlns="http://www.w3.org/2000/svg"
   xmlns:xlink="http://www.w3.org/1999/xlink"
   xmlns:sodipodi="http://sodipodi.sourceforge.net/DTD/sodipodi-0.dtd"
   xmlns:inkscape="http://www.inkscape.org/namespaces/inkscape"
   version="1.1"
   width="32"
   height="32"
   id="svg3782"
   inkscape:version="0.91 r"
   sodipodi:docname="gdm-setup2.svg">
  <metadata
     id="metadata25">
    <rdf:RDF>
      <cc:Work
         rdf:about="">
        <dc:format>image/svg+xml</dc:format>
        <dc:type
           rdf:resource="http://purl.org/dc/dcmitype/StillImage" />
        <dc:title />
      </cc:Work>
    </rdf:RDF>
  </metadata>
  <sodipodi:namedview
     pagecolor="#ffffff"
     bordercolor="#666666"
     borderopacity="1"
     objecttolerance="10"
     gridtolerance="10"
     guidetolerance="10"
     inkscape:pageopacity="0"
     inkscape:pageshadow="2"
     inkscape:window-width="1548"
     inkscape:window-height="863"
     id="namedview23"
     showgrid="false"
     inkscape:zoom="22.59375"
     inkscape:cx="13.872701"
     inkscape:cy="16"
     inkscape:window-x="123"
     inkscape:window-y="72"
     inkscape:window-maximized="0"
     inkscape:current-layer="layer1" />
  <defs
     id="defs3784">
    <linearGradient
       x1="24.675762"
       y1="4.1577182"
       x2="24.675762"
       y2="46.698467"
       id="linearGradient2635"
       xlink:href="#linearGradient2238"
       gradientUnits="userSpaceOnUse"
       gradientTransform="matrix(0.2885901,0,0,0.281741,1.0734846,1.5216393)" />
    <linearGradient
       id="linearGradient2238">
      <stop
         id="stop2240"
         style="stop-color:#ffffff;stop-opacity:1"
         offset="0" />
      <stop
         id="stop2242"
         style="stop-color:#ffffff;stop-opacity:0"
         offset="1" />
    </linearGradient>
    <linearGradient
       id="linearGradient2867-449-88-871-390-598-476-591-434-148">
      <stop
         id="stop4627"
         style="stop-color:#d0d0d0;stop-opacity:1"
         offset="0" />
      <stop
         id="stop4629"
         style="stop-color:#a0a0a0;stop-opacity:1"
         offset="0.26238" />
      <stop
         id="stop4631"
         style="stop-color:#5e5e5e;stop-opacity:1"
         offset="0.704952" />
      <stop
         id="stop4633"
         style="stop-color:#cecece;stop-opacity:1"
         offset="1" />
    </linearGradient>
    <linearGradient
       id="linearGradient3707-319-631">
      <stop
         id="stop4637"
         style="stop-color:#254b6d;stop-opacity:1"
         offset="0" />
      <stop
         id="stop4639"
         style="stop-color:#415b73;stop-opacity:1"
         offset="0.5" />
      <stop
         id="stop4641"
         style="stop-color:#6195b5;stop-opacity:1"
         offset="1" />
    </linearGradient>
    <linearGradient
       x1="22.226261"
       y1="3.8111546"
       x2="22.226261"
       y2="44.286263"
       id="linearGradient3778"
       xlink:href="#linearGradient2867-449-88-871-390-598-476-591-434-148"
       gradientUnits="userSpaceOnUse"
       gradientTransform="matrix(0.3191203,0,0,0.3174019,0.3411166,0.37846332)" />
    <linearGradient
       x1="34.580818"
       y1="46.148075"
       x2="34.580818"
       y2="3.0448537"
       id="linearGradient3780"
       xlink:href="#linearGradient3707-319-631"
       gradientUnits="userSpaceOnUse"
       gradientTransform="matrix(0.3191203,0,0,0.3174019,0.3411166,0.37846332)" />
    <linearGradient
       id="linearGradient3707-319-631-407-1-846-5-4-5-44">
      <stop
         offset="0"
         style="stop-color:#365a7c;stop-opacity:1"
         id="stop3788-4-8-9-7" />
      <stop
         offset="1"
         style="stop-color:#5ea1ca;stop-opacity:1;"
         id="stop3790-2-1-9-6" />
    </linearGradient>
    <linearGradient
       id="linearGradient2490-654-721">
      <stop
         id="stop2913"
         style="stop-color:#545454;stop-opacity:1"
         offset="0" />
      <stop
         id="stop2915"
         style="stop-color:#a4a4a4;stop-opacity:1"
         offset="1" />
    </linearGradient>
  </defs>
  <g
     id="layer1"
     transform="translate(0,16)">
    <rect
       style="opacity:1;fill:#ffffff;fill-opacity:1;stroke:none;stroke-width:1;stroke-linecap:round;stroke-linejoin:round;stroke-miterlimit:4;stroke-dasharray:none;stroke-dashoffset:0;stroke-opacity:1"
       id="rect4160"
       width="26.290457"
       height="10.401107"
       x="2.5228217"
       y="-4.4481335"
       rx="0.60000002"
       ry="0.60000002" />
    <path
       style="fill:#353945;fill-opacity:1;fill-rule:evenodd;stroke:none;stroke-width:1.00213301;stroke-linecap:round;stroke-linejoin:round;stroke-miterlimit:4;stroke-dasharray:none;stroke-dashoffset:0;stroke-opacity:1"
       d="M 3.2591821,-14.732222 C 1.4523024,-14.732222 0,-13.248501 0,-11.402188 L 0,9.669966 C 0,11.516279 1.4523024,13 3.2591821,13 L 28.740818,13 C 30.547697,13 32,11.516279 32,9.669966 l 0,-21.072154 c 0,-1.846313 -1.452303,-3.330034 -3.259182,-3.330034 l -25.4816359,0 z m 2.4964835,11.3071111 20.4886684,0 c 0.709305,0 1.279501,0.5701952 1.279501,1.2794999 l 0,5.1221671 c 0,0.7093043 -0.570196,1.2795008 -1.279501,1.2795008 l -20.4886684,0 c -0.7093047,0 -1.2794999,-0.5701965 -1.2794999,-1.2795008 l 0,-5.1221671 c 0,-0.7093047 0.5701952,-1.2794999 1.2794999,-1.2794999 z"
       id="rect1316"
       inkscape:connector-curvature="0" />
    <g
       transform="matrix(0.85355556,0,0,0.85355556,-3.683414,-20.498337)"
       id="g2701"
       style="fill:#353945;fill-opacity:1">
      <path
         inkscape:connector-curvature="0"
         d="m 32.726229,25.672094 c 4.58e-4,1.067511 -0.865174,1.933147 -1.933147,1.933147 -1.067977,0 -1.933613,-0.865636 -1.933147,-1.933147 -4.66e-4,-1.067512 0.86517,-1.933147 1.933147,-1.933147 1.067973,0 1.933605,0.865635 1.933147,1.933147 l 0,0 z"
         id="path2598"
         style="fill:#353945;fill-opacity:1;stroke:none" />
      <path
         inkscape:connector-curvature="0"
         d="m 17.261054,25.672094 c 4.59e-4,1.067511 -0.865174,1.933147 -1.933146,1.933147 -1.067977,0 -1.933613,-0.865636 -1.933147,-1.933147 -4.66e-4,-1.067512 0.86517,-1.933147 1.933147,-1.933147 1.067972,0 1.933605,0.865635 1.933146,1.933147 l 0,0 z"
         id="path2600"
         style="fill:#353945;fill-opacity:1;stroke:none" />
      <path
         inkscape:connector-curvature="0"
         d="m 24.993641,25.672094 c 4.59e-4,1.067511 -0.865174,1.933147 -1.933146,1.933147 -1.067977,0 -1.933613,-0.865636 -1.933147,-1.933147 -4.66e-4,-1.067512 0.86517,-1.933147 1.933147,-1.933147 1.067972,0 1.933605,0.865635 1.933146,1.933147 l 0,0 z"
         id="path2602"
         style="fill:#353945;fill-opacity:1;stroke:none" />
    </g>
    <path
       d="M 18.371397,3.6041821 15.478933,3.8251813 12.974275,1.3222171 c -0.498731,1.6147338 -0.110076,3.4487728 1.170195,4.7281977 1.46232,1.4657065 3.648603,1.7612195 5.408976,0.9000844 l -0.0076,0.00594 4.163421,5.5461488 c 0.981372,0.981371 2.575784,0.981371 3.558849,0 0.983065,-0.98222 0.981372,-2.5749377 0,-3.5596957 l -5.544455,-4.164269 -0.0085,0.00931 C 22.577155,3.0275521 22.279103,0.84211574 20.815936,-0.62189846 19.537358,-1.9021693 17.705012,-2.2916699 16.089432,-1.7929403 l 2.504657,2.50635134 -0.222692,2.89077106 z m 7.770534,6.4386119 c 0.368333,0.366639 0.368333,0.964437 0,1.333616 -0.369178,0.367485 -0.967823,0.367485 -1.332768,0 -0.370873,-0.370025 -0.370873,-0.967824 0,-1.333616 0.364945,-0.3708717 0.96359,-0.3708717 1.332768,0 z"
       id="path3"
       inkscape:connector-curvature="0"
       style="fill:#353945;fill-opacity:1;stroke:#ffffff;stroke-width:0.8;stroke-opacity:1;stroke-linejoin:round;stroke-miterlimit:4;stroke-dasharray:none" />
  </g>
</svg>
