<?xml version="1.0" encoding="UTF-8" standalone="no"?>
<svg
   xmlns:dc="http://purl.org/dc/elements/1.1/"
   xmlns:cc="http://creativecommons.org/ns#"
   xmlns:rdf="http://www.w3.org/1999/02/22-rdf-syntax-ns#"
   xmlns:svg="http://www.w3.org/2000/svg"
   xmlns="http://www.w3.org/2000/svg"
   xmlns:sodipodi="http://sodipodi.sourceforge.net/DTD/sodipodi-0.dtd"
   xmlns:inkscape="http://www.inkscape.org/namespaces/inkscape"
   version="1.1"
   width="24"
   height="24"
   id="svg2"
   inkscape:version="0.91 r"
   sodipodi:docname="gxneur-en.svg">
  <metadata
     id="metadata15">
    <rdf:RDF>
      <cc:Work
         rdf:about="">
        <dc:format>image/svg+xml</dc:format>
        <dc:type
           rdf:resource="http://purl.org/dc/dcmitype/StillImage" />
        <dc:title></dc:title>
      </cc:Work>
    </rdf:RDF>
  </metadata>
  <sodipodi:namedview
     pagecolor="#272727"
     bordercolor="#666666"
     borderopacity="1"
     objecttolerance="10"
     gridtolerance="10"
     guidetolerance="10"
     inkscape:pageopacity="0"
     inkscape:pageshadow="2"
     inkscape:window-width="1600"
     inkscape:window-height="845"
     id="namedview13"
     showgrid="false"
     inkscape:zoom="7.03"
     inkscape:cx="9.8489899"
     inkscape:cy="11.812295"
     inkscape:window-x="0"
     inkscape:window-y="30"
     inkscape:window-maximized="1"
     inkscape:current-layer="svg2" />
  <defs
     id="defs4" />
  <rect
     x="4"
     y="4"
     width="16"
     height="16"
     rx="2"
     mask="none"
     style="fill:#ffffff;fill-opacity:1"
     id="rect11" />
  <path
     style="fill:#be092f;fill-opacity:1"
     mask="none"
     d="M 6 4 C 5.2589301 4 4.6209515 4.4042011 4.2753906 5 L 19.724609 5 C 19.379048 4.4042011 18.74107 4 18 4 L 6 4 z M 4 6 L 4 7 L 20 7 L 20 6 L 4 6 z M 4 8 L 4 9 L 20 9 L 20 8 L 4 8 z M 4 10 L 4 11 L 20 11 L 20 10 L 4 10 z M 4 12 L 4 13 L 20 13 L 20 12 L 4 12 z M 4 14 L 4 15 L 20 15 L 20 14 L 4 14 z M 4 16 L 4 17 L 20 17 L 20 16 L 4 16 z M 4 18 C 4 18.36693 4.1042911 18.704999 4.2753906 19 L 19.724609 19 C 19.895709 18.704999 20 18.36693 20 18 L 4 18 z "
     id="rect4252" />
  <path
     style="fill:#002767;fill-opacity:1"
     mask="none"
     d="M 6 4 C 4.892 4 4 4.892 4 6 L 4 12 L 12 12 L 12 4 L 6 4 z "
     id="rect4258" />
</svg>
